<svg xmlns="http://www.w3.org/2000/svg" width="714" height="344" viewBox="0 0 714 344"><defs><style type="text/css"/></defs><g transform="translate(-73.9983388704318 205) scale(1)"><g class="relationship"><g transform="translate(127.9983388704318 -151) rotate(21.374151254723785)" stroke-width="2" stroke="#000000"><path d="M 59 0 L 250.6144654301516 0"/><polygon points="-14.155129855222071,0 -15.727922061357857,5.242640687119286 0,0 -15.727922061357857,-5.242640687119286" fill="#000000" transform="translate(264.76959528537367 0) rotate(0)" stroke="none"/></g><g transform="translate(272.1579817791237 -94.57946599563184) rotate(21.374151254723785) translate(0 -13)"><g transform="translate(0 0)"><g transform="translate(-56.55859375 0)" fill="#ffffff" stroke="#000000" stroke-width="0"><rect x="0" y="0" width="113.1171875" height="26" rx="5" ry="5" stroke="none"/><text xml:space="preserve" x="5" y="17.45703125" stroke="none" text-anchor="left" font-family="sans-serif" font-size="16" font-weight="normal" fill="#000000">WORKS_FOR</text></g></g></g></g><g class="relationship"><g transform="translate(429.4991694352159 -33) rotate(-21.374151254723785)" stroke-width="2" stroke="#000000"><path d="M 59 0 L 250.6144654301516 0"/><polygon points="-14.155129855222071,0 -15.727922061357857,5.242640687119286 0,0 -15.727922061357857,-5.242640687119286" fill="#000000" transform="translate(264.76959528537367 0) rotate(0)" stroke="none"/></g><g transform="translate(573.6588123439078 -89.42053400436816) rotate(-21.374151254723785) translate(0 -13)"><g transform="translate(0 0)"><g transform="translate(-56.55859375 0)" fill="#ffffff" stroke="#000000" stroke-width="0"><rect x="0" y="0" width="113.1171875" height="26" rx="5" ry="5" stroke="none"/><text xml:space="preserve" x="5" y="17.45703125" stroke="none" text-anchor="left" font-family="sans-serif" font-size="16" font-weight="normal" fill="#000000">WORKS_FOR</text></g></g></g></g><g class="relationship"><g transform="translate(731 85) rotate(-90)" stroke-width="2" stroke="#000000"><path d="M 59 0 L 162.84487014477793 0"/><polygon points="-14.155129855222071,0 -15.727922061357857,5.242640687119286 0,0 -15.727922061357857,-5.242640687119286" fill="#000000" transform="translate(177 0) rotate(0)" stroke="none"/></g><g transform="translate(731 -25.922435072388964) rotate(0) translate(0 -13)"><g transform="translate(0 0)"><g transform="translate(-56.55859375 0)" fill="#ffffff" stroke="#000000" stroke-width="0"><rect x="0" y="0" width="113.1171875" height="26" rx="5" ry="5" stroke="none"/><text xml:space="preserve" x="5" y="17.45703125" stroke="none" text-anchor="left" font-family="sans-serif" font-size="16" font-weight="normal" fill="#000000">WORKS_FOR</text></g></g></g></g><g class="relationship"><g transform="translate(127.9983388704318 -151) rotate(90)" stroke-width="2" stroke="#000000"><path d="M 59 0 L 162.84487014477793 0"/><polygon points="-14.155129855222071,0 -15.727922061357857,5.242640687119286 0,0 -15.727922061357857,-5.242640687119286" fill="#000000" transform="translate(177 0) rotate(0)" stroke="none"/></g><g transform="translate(127.9983388704318 -40.077564927611036) rotate(360) translate(0 -13)"><g transform="translate(0 0)"><g transform="translate(-31.6796875 0)" fill="#ffffff" stroke="#000000" stroke-width="0"><rect x="0" y="0" width="63.359375" height="26" rx="5" ry="5" stroke="none"/><text xml:space="preserve" x="5" y="17.45703125" stroke="none" text-anchor="left" font-family="sans-serif" font-size="16" font-weight="normal" fill="#000000">LOVES</text></g></g></g></g><g class="relationship"><g transform="translate(731 85) rotate(-158.62584874527622)" stroke-width="2" stroke="#000000"><path d="M 59 0 L 250.6144654301516 0"/><polygon points="-14.155129855222071,0 -15.727922061357857,5.242640687119286 0,0 -15.727922061357857,-5.242640687119286" fill="#000000" transform="translate(264.76959528537367 0) rotate(0)" stroke="none"/></g><g transform="translate(586.8403570913081 28.57946599563185) rotate(0) translate(0 -13)"><g transform="translate(0 0)"><g transform="translate(-31.6796875 0)" fill="#ffffff" stroke="#000000" stroke-width="0"><rect x="0" y="0" width="63.359375" height="26" rx="5" ry="5" stroke="none"/><text xml:space="preserve" x="5" y="17.45703125" stroke="none" text-anchor="left" font-family="sans-serif" font-size="16" font-weight="normal" fill="#000000">LOVES</text></g></g></g></g><g class="node"><g fill="#ffffff" stroke="#006FD6" stroke-width="4"><circle cx="429.4991694352159" cy="-33" r="52"/></g><g transform="translate(429.4991694352159 -33)"><g transform="scale(0.5592606884691831) translate(0 -30.5)"><g transform="translate(0 0)"><g transform="translate(-74.458740234375 0)"><g fill="#000000" stroke="#000000" stroke-width="4" font-family="sans-serif" font-size="47" font-weight="normal"><text xml:space="preserve" x="0" y="43.592529296875" stroke="none">Person</text></g></g></g></g><g transform="translate(3.429011037612589e-15 -89.6)"><g transform="translate(0 0)"><g transform="translate(-43.134765625 0)" fill="white"><rect x="0" y="0" width="86.26953125" height="33.6" rx="0" ry="0" stroke="none"/><g font-family="sans-serif" font-size="14" font-weight="normal" fill="#535B66" text-anchor="end"><text xml:space="preserve" x="42.7998046875" y="12.29990234375" stroke="none">name:</text><text xml:space="preserve" x="46.689453125" y="12.29990234375" stroke="none" text-anchor="start">'Alice'</text><text xml:space="preserve" x="42.7998046875" y="29.099902343750003" stroke="none" text-anchor="end">age:</text><text xml:space="preserve" x="46.689453125" y="29.099902343750003" stroke="none" text-anchor="start">65</text></g></g></g></g></g></g><g class="node"><g fill="#ffffff" stroke="#006FD6" stroke-width="4"><circle cx="127.9983388704318" cy="-151" r="52"/></g><g transform="translate(127.9983388704318 -151)"><g transform="scale(0.5592606884691831) translate(0 -30.5)"><g transform="translate(0 0)"><g transform="translate(-74.458740234375 0)"><g fill="#000000" stroke="#000000" stroke-width="4" font-family="sans-serif" font-size="47" font-weight="normal"><text xml:space="preserve" x="0" y="43.592529296875" stroke="none">Person</text></g></g></g></g><g transform="translate(56 -16.8)"><g transform="translate(0 0)"><g transform="translate(0 0)" fill="white"><rect x="0" y="0" width="80.8349609375" height="33.6" rx="0" ry="0" stroke="none"/><g font-family="sans-serif" font-size="14" font-weight="normal" fill="#535B66" text-anchor="end"><text xml:space="preserve" x="42.7998046875" y="12.29990234375" stroke="none">name:</text><text xml:space="preserve" x="46.689453125" y="12.29990234375" stroke="none" text-anchor="start">'Bob'</text><text xml:space="preserve" x="42.7998046875" y="29.099902343750003" stroke="none" text-anchor="end">age:</text><text xml:space="preserve" x="46.689453125" y="29.099902343750003" stroke="none" text-anchor="start">25</text></g></g></g></g></g></g><g class="node"><g fill="#ffffff" stroke="#006FD6" stroke-width="4"><circle cx="731" cy="85" r="52"/></g><g transform="translate(731 85)"><g transform="scale(0.5592606884691831) translate(0 -30.5)"><g transform="translate(0 0)"><g transform="translate(-74.458740234375 0)"><g fill="#000000" stroke="#000000" stroke-width="4" font-family="sans-serif" font-size="47" font-weight="normal"><text xml:space="preserve" x="0" y="43.592529296875" stroke="none">Person</text></g></g></g></g><g transform="translate(-56 -16.799999999999994)"><g transform="translate(0 0)"><g transform="translate(-100.2763671875 0)" fill="white"><rect x="0" y="0" width="100.2763671875" height="33.6" rx="0" ry="0" stroke="none"/><g font-family="sans-serif" font-size="14" font-weight="normal" fill="#535B66" text-anchor="end"><text xml:space="preserve" x="42.7998046875" y="12.29990234375" stroke="none">name:</text><text xml:space="preserve" x="46.689453125" y="12.29990234375" stroke="none" text-anchor="start">'Charlie'</text><text xml:space="preserve" x="42.7998046875" y="29.099902343750003" stroke="none" text-anchor="end">age:</text><text xml:space="preserve" x="46.689453125" y="29.099902343750003" stroke="none" text-anchor="start">61</text></g></g></g></g></g></g><g class="node"><g fill="#ffffff" stroke="#006FD6" stroke-width="4"><circle cx="731" cy="-151" r="52"/></g><g transform="translate(731 -151)"><g transform="scale(0.5592606884691831) translate(0 -30.5)"><g transform="translate(0 0)"><g transform="translate(-74.458740234375 0)"><g fill="#000000" stroke="#000000" stroke-width="4" font-family="sans-serif" font-size="47" font-weight="normal"><text xml:space="preserve" x="0" y="43.592529296875" stroke="none">Person</text></g></g></g></g><g transform="translate(-56 -16.799999999999994)"><g transform="translate(0 0)"><g transform="translate(-95.6142578125 0)" fill="white"><rect x="0" y="0" width="95.6142578125" height="33.6" rx="0" ry="0" stroke="none"/><g font-family="sans-serif" font-size="14" font-weight="normal" fill="#535B66" text-anchor="end"><text xml:space="preserve" x="42.7998046875" y="12.29990234375" stroke="none">name:</text><text xml:space="preserve" x="46.689453125" y="12.29990234375" stroke="none" text-anchor="start">'Daniel'</text><text xml:space="preserve" x="42.7998046875" y="29.099902343750003" stroke="none" text-anchor="end">age:</text><text xml:space="preserve" x="46.689453125" y="29.099902343750003" stroke="none" text-anchor="start">39</text></g></g></g></g></g></g><g class="node"><g fill="#ffffff" stroke="#006FD6" stroke-width="4"><circle cx="127.9983388704318" cy="85" r="52"/></g><g transform="translate(127.9983388704318 85)"><g transform="scale(0.5592606884691831) translate(0 -30.5)"><g transform="translate(0 0)"><g transform="translate(-74.458740234375 0)"><g fill="#000000" stroke="#000000" stroke-width="4" font-family="sans-serif" font-size="47" font-weight="normal"><text xml:space="preserve" x="0" y="43.592529296875" stroke="none">Person</text></g></g></g></g><g transform="translate(56 -16.8)"><g transform="translate(0 0)"><g transform="translate(0 0)" fill="white"><rect x="0" y="0" width="85.4833984375" height="33.6" rx="0" ry="0" stroke="none"/><g font-family="sans-serif" font-size="14" font-weight="normal" fill="#535B66" text-anchor="end"><text xml:space="preserve" x="42.7998046875" y="12.29990234375" stroke="none">name:</text><text xml:space="preserve" x="46.689453125" y="12.29990234375" stroke="none" text-anchor="start">'Eskil'</text><text xml:space="preserve" x="42.7998046875" y="29.099902343750003" stroke="none" text-anchor="end">age:</text><text xml:space="preserve" x="46.689453125" y="29.099902343750003" stroke="none" text-anchor="start">39</text></g></g></g></g></g></g></g></svg>