<svg width="362" height="87" viewBox="0 0 362 87" fill="none" xmlns="http://www.w3.org/2000/svg">
<path d="M11.249 13.6016C11.0199 13.6016 10.3115 13.6016 10.3115 14.3932C10.3115 14.8516 10.6449 15.1849 11.1032 15.1849C11.5407 15.1849 11.9157 14.9141 11.9157 14.3516C11.9157 13.0807 10.5615 12.1641 9.01986 12.1641C6.79069 12.1641 4.99902 14.1432 4.99902 16.5599C4.99902 18.9974 6.83236 20.8724 8.99902 20.8724C11.5199 20.8724 12.1032 18.5807 12.1032 18.4141C12.1032 18.2266 11.9574 18.2266 11.9157 18.2266C11.7282 18.2266 11.7074 18.2891 11.6657 18.5182C11.2282 19.8724 10.2074 20.4557 9.16569 20.4557C7.99902 20.4557 6.45736 19.4349 6.45736 16.5391C6.45736 13.3516 8.08236 12.5807 9.04069 12.5807C9.76986 12.5807 10.8115 12.8724 11.249 13.6016Z" fill="black" style="fill:black;fill-opacity:1;"/>
<path d="M21.4277 16.6016C21.4277 14.1224 19.5527 12.1641 17.3444 12.1641C15.0527 12.1641 13.2402 14.1849 13.2402 16.6016C13.2402 19.0391 15.1361 20.8724 17.3236 20.8724C19.5736 20.8724 21.4277 18.9974 21.4277 16.6016ZM17.3444 20.4557C16.6361 20.4557 15.7819 20.1432 15.2194 19.2057C14.6986 18.3516 14.6777 17.2266 14.6777 16.4141C14.6777 15.6849 14.6777 14.5182 15.2819 13.6641C15.8027 12.8516 16.6569 12.5391 17.3236 12.5391C18.0736 12.5391 18.8652 12.8724 19.3861 13.6224C19.9902 14.4974 19.9902 15.7057 19.9902 16.4141C19.9902 17.0807 19.9902 18.2682 19.4902 19.1641C18.9486 20.1016 18.0736 20.4557 17.3444 20.4557Z" fill="black" style="fill:black;fill-opacity:1;"/>
<path d="M28.2933 12.6016C28.2933 12.2474 28.2933 12.1641 28.1058 12.1641C27.96 12.1641 27.585 12.5807 27.46 12.7474C26.8558 12.2682 26.2725 12.1641 25.6475 12.1641C23.335 12.1641 22.6475 13.4141 22.6475 14.4766C22.6475 14.6849 22.6475 15.3516 23.3766 16.0182C24.0016 16.5599 24.6475 16.6849 25.5225 16.8516C26.5641 17.0599 26.8141 17.1224 27.2933 17.5182C27.6475 17.7891 27.8975 18.2266 27.8975 18.7474C27.8975 19.5807 27.4183 20.4974 25.7308 20.4974C24.4808 20.4974 23.5433 19.7682 23.1266 17.8516C23.0641 17.5182 23.0641 17.4974 23.0433 17.4766C23.0016 17.3932 22.9183 17.3932 22.8558 17.3932C22.6475 17.3932 22.6475 17.4974 22.6475 17.8307V20.4349C22.6475 20.7891 22.6475 20.8724 22.835 20.8724C22.9391 20.8724 22.96 20.8516 23.2933 20.4557C23.3766 20.3307 23.3766 20.2891 23.6683 19.9766C24.3975 20.8724 25.4183 20.8724 25.7516 20.8724C27.7516 20.8724 28.7516 19.7682 28.7516 18.2474C28.7516 17.2266 28.1266 16.6016 27.96 16.4349C27.2725 15.8516 26.7516 15.7266 25.4808 15.4974C24.9183 15.3932 23.5225 15.1224 23.5225 13.9766C23.5225 13.3724 23.9183 12.4974 25.6475 12.4974C27.7308 12.4974 27.835 14.2682 27.8766 14.8724C27.8975 15.0182 28.0225 15.0182 28.085 15.0182C28.2933 15.0182 28.2933 14.9349 28.2933 14.5807V12.6016Z" fill="black" style="fill:black;fill-opacity:1;"/>
<path d="M32.7425 8.91406C32.7425 8.41406 32.3258 7.97656 31.805 7.97656C31.305 7.97656 30.8883 8.3724 30.8883 8.89323C30.8883 9.45573 31.3467 9.83073 31.805 9.83073C32.3883 9.83073 32.7425 9.33073 32.7425 8.91406ZM30.0967 12.4557V13.0182C31.3258 13.0182 31.4925 13.1224 31.4925 14.0599V19.2682C31.4925 20.1224 31.2842 20.1224 30.0342 20.1224V20.6849C30.5758 20.6432 31.4925 20.6432 32.055 20.6432C32.2633 20.6432 33.3675 20.6432 34.0133 20.6849V20.1224C32.7842 20.1224 32.7008 20.0391 32.7008 19.2891V12.2474L30.0967 12.4557Z" fill="black" style="fill:black;fill-opacity:1;"/>
<path d="M43.1335 16.0387C43.1335 14.2679 43.1335 13.7262 42.6751 13.1012C42.1335 12.3721 41.2376 12.2471 40.571 12.2471C38.7168 12.2471 37.9876 13.8304 37.8418 14.2262H37.821V12.2471L35.2168 12.4554V13.0179C36.5293 13.0179 36.6751 13.1429 36.6751 14.0804V19.2679C36.6751 20.1221 36.4668 20.1221 35.2168 20.1221V20.6846C35.7168 20.6429 36.7585 20.6429 37.3001 20.6429C37.8418 20.6429 38.8835 20.6429 39.3835 20.6846V20.1221C38.1543 20.1221 37.9251 20.1221 37.9251 19.2679V15.7054C37.9251 13.7054 39.2376 12.6429 40.4251 12.6429C41.6126 12.6429 41.8835 13.6012 41.8835 14.7679V19.2679C41.8835 20.1221 41.6751 20.1221 40.4251 20.1221V20.6846C40.9251 20.6429 41.9668 20.6429 42.4876 20.6429C43.0501 20.6429 44.071 20.6429 44.571 20.6846V20.1221C43.6126 20.1221 43.1335 20.1221 43.1335 19.5596V16.0387Z" fill="black" style="fill:black;fill-opacity:1;"/>
<path d="M52.3516 16.2474C52.7682 16.2474 52.8099 16.2474 52.8099 15.8932C52.8099 13.9557 51.7682 12.1641 49.4557 12.1641C47.2682 12.1641 45.6016 14.1224 45.6016 16.4974C45.6016 19.0182 47.5391 20.8724 49.6641 20.8724C51.9349 20.8724 52.8099 18.8099 52.8099 18.4141C52.8099 18.2891 52.7057 18.2266 52.6016 18.2266C52.4349 18.2266 52.3932 18.3099 52.3724 18.4141C51.8724 20.0182 50.5807 20.4557 49.7891 20.4557C48.9766 20.4557 47.0391 19.9141 47.0391 16.6016V16.2474H52.3516ZM47.0599 15.8932C47.2266 12.8724 48.8932 12.5391 49.4349 12.5391C51.4766 12.5391 51.6016 15.2266 51.6224 15.8932H47.0599Z" fill="black" style="fill:black;fill-opacity:1;"/>
<path d="M59.5511 25.3307C59.5511 25.2682 59.5511 25.2266 59.2386 24.9141C57.3219 22.9766 56.2594 19.8307 56.2594 15.9141C56.2594 12.2057 57.1553 9.01823 59.3636 6.76823C59.5511 6.58073 59.5511 6.5599 59.5511 6.4974C59.5511 6.3724 59.4678 6.35156 59.3844 6.35156C59.1344 6.35156 57.5719 7.72656 56.6344 9.60156C55.6553 11.5182 55.2178 13.5807 55.2178 15.9141C55.2178 17.6224 55.4886 19.8932 56.4886 21.9557C57.6136 24.2474 59.1761 25.4766 59.3844 25.4766C59.4678 25.4766 59.5511 25.4557 59.5511 25.3307Z" fill="black" style="fill:black;fill-opacity:1;"/>
<path d="M70.0921 9.26823C69.863 9.47656 69.1546 10.1432 69.1546 10.4141C69.1546 10.6016 69.3213 10.7682 69.5296 10.7682C69.6963 10.7682 69.7796 10.6641 69.9046 10.4766C70.363 9.89323 70.8838 9.53906 71.3213 9.28906C71.5088 9.16406 71.6338 9.1224 71.6338 8.91406C71.6338 8.72656 71.488 8.64323 71.3838 8.53906C70.8421 8.1849 70.7171 7.66406 70.6546 7.4349C70.5921 7.26823 70.5296 7.03906 70.2588 7.03906C70.1546 7.03906 69.9255 7.1224 69.9255 7.41406C69.9255 7.58073 70.0296 8.03906 70.4046 8.5599H63.9671C63.6546 8.5599 63.3213 8.5599 63.3213 8.91406C63.3213 9.26823 63.6755 9.26823 63.9671 9.26823H70.0921Z" fill="black" style="fill:black;fill-opacity:1;"/>
<path d="M69.3708 13.5387C69.3708 12.3304 68.7458 12.2471 68.5999 12.2471C68.1416 12.2471 67.7249 12.7054 67.7249 13.1012C67.7249 13.3304 67.8499 13.4554 67.9333 13.5387C68.1208 13.7054 68.6208 14.2262 68.6208 15.2054C68.6208 16.0179 67.4749 20.4971 65.1624 20.4971C63.9958 20.4971 63.7666 19.5179 63.7666 18.8096C63.7666 17.8512 64.2249 16.5179 64.7249 15.1429C65.0374 14.3512 65.1208 14.1637 65.1208 13.7887C65.1208 12.9762 64.5374 12.2471 63.5999 12.2471C61.8499 12.2471 61.1416 15.0179 61.1416 15.1846C61.1416 15.2471 61.2041 15.3512 61.3499 15.3512C61.5166 15.3512 61.5374 15.2679 61.6208 14.9971C62.0791 13.3512 62.8291 12.6429 63.5374 12.6429C63.7249 12.6429 64.0374 12.6429 64.0374 13.2679C64.0374 13.7679 63.8291 14.3096 63.5374 15.0387C62.6208 17.4971 62.6208 18.0804 62.6208 18.5387C62.6208 18.9554 62.6833 19.7471 63.2874 20.2887C63.9749 20.8721 64.9333 20.8721 65.0999 20.8721C68.2666 20.8721 69.3708 14.6221 69.3708 13.5387Z" fill="black" style="fill:black;fill-opacity:1;"/>
<path d="M74.0938 20.7686C74.0938 19.6436 73.7396 18.8311 72.9479 18.8311C72.3438 18.8311 72.0312 19.3311 72.0312 19.7477C72.0312 20.1644 72.3229 20.6852 72.9688 20.6852C73.2188 20.6852 73.4271 20.6019 73.5938 20.4352C73.6354 20.3936 73.6562 20.3936 73.6771 20.3936C73.7188 20.3936 73.7188 20.6644 73.7188 20.7686C73.7188 21.3936 73.5938 22.6436 72.4896 23.8727C72.2812 24.1019 72.2812 24.1436 72.2812 24.1852C72.2812 24.2894 72.3646 24.3727 72.4688 24.3727C72.6146 24.3727 74.0938 22.9561 74.0938 20.7686Z" fill="black" style="fill:black;fill-opacity:1;"/>
<path d="M88.6849 9.26823C88.4557 9.47656 87.7474 10.1432 87.7474 10.4141C87.7474 10.6016 87.9141 10.7682 88.1224 10.7682C88.2891 10.7682 88.3724 10.6641 88.4974 10.4766C88.9557 9.89323 89.4766 9.53906 89.9141 9.28906C90.1016 9.16406 90.2266 9.1224 90.2266 8.91406C90.2266 8.72656 90.0807 8.64323 89.9766 8.53906C89.4349 8.1849 89.3099 7.66406 89.2474 7.4349C89.1849 7.26823 89.1224 7.03906 88.8516 7.03906C88.7474 7.03906 88.5182 7.1224 88.5182 7.41406C88.5182 7.58073 88.6224 8.03906 88.9974 8.5599H82.5599C82.2474 8.5599 81.9141 8.5599 81.9141 8.91406C81.9141 9.26823 82.2682 9.26823 82.5599 9.26823H88.6849Z" fill="black" style="fill:black;fill-opacity:1;"/>
<path d="M85.2754 19.5804C85.5254 20.6429 86.4421 20.8721 86.9004 20.8721C87.5046 20.8721 87.9629 20.4762 88.2754 19.8304C88.6087 19.1429 88.8587 17.9971 88.8587 17.9554C88.8587 17.8512 88.7754 17.7679 88.6712 17.7679C88.4837 17.7679 88.4629 17.8721 88.4004 18.1637C88.0462 19.4762 87.7129 20.4971 86.9421 20.4971C86.3587 20.4971 86.3587 19.8721 86.3587 19.6221C86.3587 19.1637 86.4212 18.9762 86.6087 18.1846C86.7546 17.6637 86.8796 17.1429 87.0046 16.6012L87.7754 13.4971C87.9212 13.0179 87.9212 12.9762 87.9212 12.9137C87.9212 12.6429 87.6921 12.4346 87.4004 12.4346C86.8379 12.4346 86.7129 12.9137 86.5879 13.3929C86.4004 14.1429 85.3796 18.2471 85.2337 18.9346C85.2129 18.9346 84.4629 20.4971 83.0671 20.4971C82.0879 20.4971 81.9004 19.6429 81.9004 18.9346C81.9004 17.8304 82.4212 16.3096 82.9212 15.0179C83.1504 14.4137 83.2546 14.1637 83.2546 13.7887C83.2546 12.9554 82.6504 12.2471 81.7337 12.2471C79.9837 12.2471 79.2754 15.0179 79.2754 15.1846C79.2754 15.2471 79.3379 15.3512 79.4837 15.3512C79.6504 15.3512 79.6712 15.2679 79.7546 14.9971C80.2129 13.3512 80.9629 12.6429 81.6712 12.6429C81.8796 12.6429 82.1712 12.6429 82.1712 13.2679C82.1712 13.7679 81.9629 14.3096 81.6712 15.0387C80.8379 17.3096 80.7337 18.0387 80.7337 18.6221C80.7337 20.5596 82.2129 20.8721 83.0046 20.8721C84.2337 20.8721 84.9004 20.0387 85.2754 19.5804Z" fill="black" style="fill:black;fill-opacity:1;"/>
<path d="M94.8122 15.9141C94.8122 14.4766 94.6247 12.1016 93.5413 9.8724C92.4163 7.58073 90.8538 6.35156 90.6455 6.35156C90.5622 6.35156 90.458 6.3724 90.458 6.4974C90.458 6.5599 90.458 6.58073 90.7913 6.91406C92.708 8.85156 93.7705 11.9974 93.7705 15.9141C93.7705 19.6224 92.8747 22.8099 90.6663 25.0599C90.458 25.2266 90.458 25.2682 90.458 25.3307C90.458 25.4557 90.5622 25.4766 90.6455 25.4766C90.8955 25.4766 92.458 24.1016 93.3955 22.2266C94.3747 20.2891 94.8122 18.2266 94.8122 15.9141Z" fill="black" style="fill:black;fill-opacity:1;"/>
<path d="M105.535 12.6872C105.535 12.1872 105.097 11.7705 104.618 11.7705C104.056 11.7705 103.681 12.208 103.681 12.6872C103.681 13.2705 104.16 13.6247 104.597 13.6247C105.118 13.6247 105.535 13.2288 105.535 12.6872ZM105.535 19.083C105.535 18.5622 105.097 18.1663 104.618 18.1663C104.056 18.1663 103.681 18.6038 103.681 19.083C103.681 19.6663 104.16 20.0205 104.597 20.0205C105.118 20.0205 105.535 19.6247 105.535 19.083Z" fill="black" style="fill:black;fill-opacity:1;"/>
<path d="M118.858 14.4974C119.129 14.4974 119.463 14.4974 119.463 14.1432C119.463 13.7891 119.129 13.7891 118.858 13.7891H107.588C107.317 13.7891 106.983 13.7891 106.983 14.1224C106.983 14.4974 107.296 14.4974 107.588 14.4974H118.858ZM118.858 18.0391C119.129 18.0391 119.463 18.0391 119.463 17.7057C119.463 17.3307 119.129 17.3307 118.858 17.3307H107.588C107.317 17.3307 106.983 17.3307 106.983 17.6849C106.983 18.0391 107.296 18.0391 107.588 18.0391H118.858Z" fill="black" style="fill:black;fill-opacity:1;"/>
<path d="M131.333 4.65299C131.333 4.31966 131.333 4.29883 131.02 4.29883C130.187 5.15299 129.02 5.15299 128.604 5.15299V5.56966C128.874 5.56966 129.645 5.56966 130.333 5.21549V12.1113C130.333 12.5905 130.291 12.7363 129.104 12.7363H128.687V13.153C129.145 13.1113 130.291 13.1113 130.833 13.1113C131.354 13.1113 132.52 13.1113 132.979 13.153V12.7363H132.562C131.354 12.7363 131.333 12.5905 131.333 12.1113V4.65299Z" fill="black" style="fill:black;fill-opacity:1;"/>
<path d="M127.417 15.9004H134.058" stroke="black" style="stroke:black;stroke-opacity:1;" stroke-width="0.765333" stroke-miterlimit="10"/>
<path d="M129.104 26.2601L130.521 24.8851C132.583 23.0518 133.375 22.3434 133.375 21.0101C133.375 19.4893 132.187 18.4268 130.562 18.4268C129.062 18.4268 128.083 19.6559 128.083 20.8434C128.083 21.5726 128.75 21.5726 128.791 21.5726C129.021 21.5726 129.479 21.4268 129.479 20.8643C129.479 20.5309 129.229 20.1768 128.771 20.1768C128.666 20.1768 128.646 20.1768 128.604 20.1976C128.896 19.3226 129.625 18.8434 130.396 18.8434C131.604 18.8434 132.166 19.9268 132.166 21.0101C132.166 22.0726 131.521 23.1143 130.771 23.9476L128.229 26.7809C128.083 26.9268 128.083 26.9684 128.083 27.2809H133.021L133.375 24.9684H133.062C132.979 25.3643 132.896 25.9476 132.75 26.1559C132.666 26.2601 131.791 26.2601 131.5 26.2601H129.104Z" fill="black" style="fill:black;fill-opacity:1;"/>
<path d="M145.049 25.3307C145.049 25.2682 145.049 25.2266 144.737 24.9141C142.82 22.9766 141.757 19.8307 141.757 15.9141C141.757 12.2057 142.653 9.01823 144.862 6.76823C145.049 6.58073 145.049 6.5599 145.049 6.4974C145.049 6.3724 144.966 6.35156 144.882 6.35156C144.632 6.35156 143.07 7.72656 142.132 9.60156C141.153 11.5182 140.716 13.5807 140.716 15.9141C140.716 17.6224 140.987 19.8932 141.987 21.9557C143.112 24.2474 144.674 25.4766 144.882 25.4766C144.966 25.4766 145.049 25.4557 145.049 25.3307Z" fill="black" style="fill:black;fill-opacity:1;"/>
<path d="M151.625 8.4349C151.625 7.97656 151.625 7.97656 151.25 7.97656C150.792 8.47656 149.833 9.1849 147.875 9.1849V9.7474C148.312 9.7474 149.271 9.7474 150.312 9.2474V19.2057C150.312 19.8932 150.25 20.1224 148.583 20.1224H147.979V20.6849C148.5 20.6432 150.354 20.6432 150.979 20.6432C151.604 20.6432 153.458 20.6432 153.958 20.6849V20.1224H153.375C151.688 20.1224 151.625 19.8932 151.625 19.2057V8.4349Z" fill="black" style="fill:black;fill-opacity:1;"/>
<path d="M167.361 16.2682H172.652C172.923 16.2682 173.257 16.2682 173.257 15.9141C173.257 15.5599 172.923 15.5599 172.652 15.5599H167.361V10.2891C167.361 10.0182 167.361 9.66406 167.027 9.66406C166.652 9.66406 166.652 9.9974 166.652 10.2891V15.5599H161.382C161.111 15.5599 160.777 15.5599 160.777 15.9141C160.777 16.2682 161.09 16.2682 161.382 16.2682H166.652V21.5391C166.652 21.8099 166.652 22.1641 167.007 22.1641C167.361 22.1641 167.361 21.8307 167.361 21.5391V16.2682Z" fill="black" style="fill:black;fill-opacity:1;"/>
<path d="M183.946 7.41406L181.446 10.0182L181.738 10.3099L183.925 8.33073L186.134 10.3099L186.425 10.0182L183.946 7.41406Z" fill="black" style="fill:black;fill-opacity:1;"/>
<path d="M187.307 13.5387C187.307 12.3304 186.682 12.2471 186.536 12.2471C186.078 12.2471 185.661 12.7054 185.661 13.1012C185.661 13.3304 185.786 13.4554 185.87 13.5387C186.057 13.7054 186.557 14.2262 186.557 15.2054C186.557 16.0179 185.411 20.4971 183.099 20.4971C181.932 20.4971 181.703 19.5179 181.703 18.8096C181.703 17.8512 182.161 16.5179 182.661 15.1429C182.974 14.3512 183.057 14.1637 183.057 13.7887C183.057 12.9762 182.474 12.2471 181.536 12.2471C179.786 12.2471 179.078 15.0179 179.078 15.1846C179.078 15.2471 179.141 15.3512 179.286 15.3512C179.453 15.3512 179.474 15.2679 179.557 14.9971C180.016 13.3512 180.766 12.6429 181.474 12.6429C181.661 12.6429 181.974 12.6429 181.974 13.2679C181.974 13.7679 181.766 14.3096 181.474 15.0387C180.557 17.4971 180.557 18.0804 180.557 18.5387C180.557 18.9554 180.62 19.7471 181.224 20.2887C181.911 20.8721 182.87 20.8721 183.036 20.8721C186.203 20.8721 187.307 14.6221 187.307 13.5387Z" fill="black" style="fill:black;fill-opacity:1;"/>
<path d="M196.215 15.9144C196.215 15.3519 195.757 14.8936 195.215 14.8936C194.653 14.8936 194.194 15.3519 194.194 15.9144C194.194 16.4561 194.653 16.9144 195.215 16.9144C195.757 16.9144 196.215 16.4561 196.215 15.9144Z" fill="black" style="fill:black;fill-opacity:1;"/>
<path d="M207.968 7.41406L205.468 10.0182L205.759 10.3099L207.947 8.33073L210.155 10.3099L210.447 10.0182L207.968 7.41406Z" fill="black" style="fill:black;fill-opacity:1;"/>
<path d="M208.633 19.5804C208.883 20.6429 209.799 20.8721 210.258 20.8721C210.862 20.8721 211.32 20.4762 211.633 19.8304C211.966 19.1429 212.216 17.9971 212.216 17.9554C212.216 17.8512 212.133 17.7679 212.029 17.7679C211.841 17.7679 211.82 17.8721 211.758 18.1637C211.404 19.4762 211.07 20.4971 210.299 20.4971C209.716 20.4971 209.716 19.8721 209.716 19.6221C209.716 19.1637 209.779 18.9762 209.966 18.1846C210.112 17.6637 210.237 17.1429 210.362 16.6012L211.133 13.4971C211.279 13.0179 211.279 12.9762 211.279 12.9137C211.279 12.6429 211.049 12.4346 210.758 12.4346C210.195 12.4346 210.07 12.9137 209.945 13.3929C209.758 14.1429 208.737 18.2471 208.591 18.9346C208.57 18.9346 207.82 20.4971 206.424 20.4971C205.445 20.4971 205.258 19.6429 205.258 18.9346C205.258 17.8304 205.779 16.3096 206.279 15.0179C206.508 14.4137 206.612 14.1637 206.612 13.7887C206.612 12.9554 206.008 12.2471 205.091 12.2471C203.341 12.2471 202.633 15.0179 202.633 15.1846C202.633 15.2471 202.695 15.3512 202.841 15.3512C203.008 15.3512 203.029 15.2679 203.112 14.9971C203.57 13.3512 204.32 12.6429 205.029 12.6429C205.237 12.6429 205.529 12.6429 205.529 13.2679C205.529 13.7679 205.32 14.3096 205.029 15.0387C204.195 17.3096 204.091 18.0387 204.091 18.6221C204.091 20.5596 205.57 20.8721 206.362 20.8721C207.591 20.8721 208.258 20.0387 208.633 19.5804Z" fill="black" style="fill:black;fill-opacity:1;"/>
<path d="M218.169 15.9141C218.169 14.4766 217.981 12.1016 216.898 9.8724C215.773 7.58073 214.21 6.35156 214.002 6.35156C213.919 6.35156 213.814 6.3724 213.814 6.4974C213.814 6.5599 213.814 6.58073 214.148 6.91406C216.064 8.85156 217.127 11.9974 217.127 15.9141C217.127 19.6224 216.231 22.8099 214.023 25.0599C213.814 25.2266 213.814 25.2682 213.814 25.3307C213.814 25.4557 213.919 25.4766 214.002 25.4766C214.252 25.4766 215.814 24.1016 216.752 22.2266C217.731 20.2891 218.169 18.2266 218.169 15.9141Z" fill="black" style="fill:black;fill-opacity:1;"/>
<path d="M120.133 58.307C120.404 58.307 120.737 58.307 120.737 57.9528C120.737 57.5986 120.404 57.5986 120.133 57.5986H108.862C108.591 57.5986 108.258 57.5986 108.258 57.932C108.258 58.307 108.57 58.307 108.862 58.307H120.133ZM120.133 61.8486C120.404 61.8486 120.737 61.8486 120.737 61.5153C120.737 61.1403 120.404 61.1403 120.133 61.1403H108.862C108.591 61.1403 108.258 61.1403 108.258 61.4945C108.258 61.8486 108.57 61.8486 108.862 61.8486H120.133Z" fill="black" style="fill:black;fill-opacity:1;"/>
<path d="M134.191 39.304C134.191 38.8457 134.191 38.8457 133.816 38.8457C133.358 39.3457 132.4 40.054 130.441 40.054V40.6165C130.879 40.6165 131.837 40.6165 132.879 40.1165V50.0749C132.879 50.7624 132.816 50.9915 131.15 50.9915H130.546V51.554C131.066 51.5124 132.921 51.5124 133.546 51.5124C134.171 51.5124 136.025 51.5124 136.525 51.554V50.9915H135.941C134.254 50.9915 134.191 50.7624 134.191 50.0749V39.304Z" fill="black" style="fill:black;fill-opacity:1;"/>
<path d="M128.693 59.7129H138.058" stroke="black" style="stroke:black;stroke-opacity:1;" stroke-width="0.765333" stroke-miterlimit="10"/>
<path d="M137.108 74.4072H136.691C136.629 74.7197 136.483 75.7822 136.275 76.0947C136.15 76.2614 135.066 76.2614 134.483 76.2614H130.941C131.462 75.8239 132.629 74.5947 133.129 74.1364C136.046 71.4489 137.108 70.4697 137.108 68.5739C137.108 66.3656 135.358 64.9072 133.15 64.9072C130.921 64.9072 129.629 66.7822 129.629 68.4281C129.629 69.4072 130.462 69.4072 130.525 69.4072C130.921 69.4072 131.421 69.1156 131.421 68.5114C131.421 67.9697 131.066 67.6156 130.525 67.6156C130.358 67.6156 130.316 67.6156 130.254 67.6364C130.629 66.3239 131.65 65.4489 132.9 65.4489C134.525 65.4489 135.525 66.8031 135.525 68.5739C135.525 70.1989 134.587 71.6156 133.483 72.8447L129.629 77.1572V77.6156H136.608L137.108 74.4072Z" fill="black" style="fill:black;fill-opacity:1;"/>
<path d="M147.608 82.6488H152.65V81.5863H148.671V37.8154H152.65V36.7529H147.608V82.6488Z" fill="black" style="fill:black;fill-opacity:1;"/>
<path d="M158.434 52.2445C158.434 51.7861 158.434 51.7861 158.059 51.7861C157.6 52.2861 156.642 52.9945 154.684 52.9945V53.557C155.121 53.557 156.079 53.557 157.121 53.057V63.0153C157.121 63.7028 157.059 63.932 155.392 63.932H154.788V64.4945C155.309 64.4528 157.163 64.4528 157.788 64.4528C158.413 64.4528 160.267 64.4528 160.767 64.4945V63.932H160.184C158.496 63.932 158.434 63.7028 158.434 63.0153V52.2445Z" fill="black" style="fill:black;fill-opacity:1;"/>
<path d="M174.17 60.0778H179.462C179.733 60.0778 180.066 60.0778 180.066 59.7236C180.066 59.3695 179.733 59.3695 179.462 59.3695H174.17V54.0986C174.17 53.8278 174.17 53.4736 173.837 53.4736C173.462 53.4736 173.462 53.807 173.462 54.0986V59.3695H168.191C167.92 59.3695 167.587 59.3695 167.587 59.7236C167.587 60.0778 167.899 60.0778 168.191 60.0778H173.462V65.3486C173.462 65.6195 173.462 65.9736 173.816 65.9736C174.17 65.9736 174.17 65.6403 174.17 65.3486V60.0778Z" fill="black" style="fill:black;fill-opacity:1;"/>
<path d="M210.243 40.1374C210.013 40.3457 209.305 41.0124 209.305 41.2832C209.305 41.4707 209.472 41.6374 209.68 41.6374C209.847 41.6374 209.93 41.5332 210.055 41.3457C210.513 40.7624 211.034 40.4082 211.472 40.1582C211.659 40.0332 211.784 39.9915 211.784 39.7832C211.784 39.5957 211.638 39.5124 211.534 39.4082C210.993 39.054 210.868 38.5332 210.805 38.304C210.743 38.1374 210.68 37.9082 210.409 37.9082C210.305 37.9082 210.076 37.9915 210.076 38.2832C210.076 38.4499 210.18 38.9082 210.555 39.429H204.118C203.805 39.429 203.472 39.429 203.472 39.7832C203.472 40.1374 203.826 40.1374 204.118 40.1374H210.243Z" fill="black" style="fill:black;fill-opacity:1;"/>
<path d="M209.521 44.4089C209.521 43.2005 208.896 43.1172 208.75 43.1172C208.292 43.1172 207.875 43.5755 207.875 43.9714C207.875 44.2005 208 44.3255 208.084 44.4089C208.271 44.5755 208.771 45.0964 208.771 46.0755C208.771 46.888 207.625 51.3672 205.313 51.3672C204.146 51.3672 203.917 50.388 203.917 49.6797C203.917 48.7214 204.375 47.388 204.875 46.013C205.188 45.2214 205.271 45.0339 205.271 44.6589C205.271 43.8464 204.688 43.1172 203.75 43.1172C202 43.1172 201.292 45.888 201.292 46.0547C201.292 46.1172 201.354 46.2214 201.5 46.2214C201.667 46.2214 201.688 46.138 201.771 45.8672C202.229 44.2214 202.979 43.513 203.688 43.513C203.875 43.513 204.188 43.513 204.188 44.138C204.188 44.638 203.979 45.1797 203.688 45.9089C202.771 48.3672 202.771 48.9505 202.771 49.4089C202.771 49.8255 202.834 50.6172 203.438 51.1589C204.125 51.7422 205.084 51.7422 205.25 51.7422C208.417 51.7422 209.521 45.4922 209.521 44.4089Z" fill="black" style="fill:black;fill-opacity:1;"/>
<path d="M218.435 46.7835C218.435 46.221 217.977 45.7627 217.435 45.7627C216.872 45.7627 216.414 46.221 216.414 46.7835C216.414 47.3252 216.872 47.7835 217.435 47.7835C217.977 47.7835 218.435 47.3252 218.435 46.7835Z" fill="black" style="fill:black;fill-opacity:1;"/>
<path d="M234.257 40.1374C234.028 40.3457 233.32 41.0124 233.32 41.2832C233.32 41.4707 233.486 41.6374 233.695 41.6374C233.861 41.6374 233.945 41.5332 234.07 41.3457C234.528 40.7624 235.049 40.4082 235.486 40.1582C235.674 40.0332 235.799 39.9915 235.799 39.7832C235.799 39.5957 235.653 39.5124 235.549 39.4082C235.007 39.054 234.882 38.5332 234.82 38.304C234.757 38.1374 234.695 37.9082 234.424 37.9082C234.32 37.9082 234.09 37.9915 234.09 38.2832C234.09 38.4499 234.195 38.9082 234.57 39.429H228.132C227.82 39.429 227.486 39.429 227.486 39.7832C227.486 40.1374 227.84 40.1374 228.132 40.1374H234.257Z" fill="black" style="fill:black;fill-opacity:1;"/>
<path d="M230.848 50.4505C231.098 51.513 232.014 51.7422 232.473 51.7422C233.077 51.7422 233.535 51.3464 233.848 50.7005C234.181 50.013 234.431 48.8672 234.431 48.8255C234.431 48.7214 234.348 48.638 234.243 48.638C234.056 48.638 234.035 48.7422 233.973 49.0339C233.618 50.3464 233.285 51.3672 232.514 51.3672C231.931 51.3672 231.931 50.7422 231.931 50.4922C231.931 50.0339 231.993 49.8464 232.181 49.0547C232.327 48.5339 232.452 48.013 232.577 47.4714L233.348 44.3672C233.493 43.888 233.493 43.8464 233.493 43.7839C233.493 43.513 233.264 43.3047 232.973 43.3047C232.41 43.3047 232.285 43.7839 232.16 44.263C231.973 45.013 230.952 49.1172 230.806 49.8047C230.785 49.8047 230.035 51.3672 228.639 51.3672C227.66 51.3672 227.473 50.513 227.473 49.8047C227.473 48.7005 227.993 47.1797 228.493 45.888C228.723 45.2839 228.827 45.0339 228.827 44.6589C228.827 43.8255 228.223 43.1172 227.306 43.1172C225.556 43.1172 224.848 45.888 224.848 46.0547C224.848 46.1172 224.91 46.2214 225.056 46.2214C225.223 46.2214 225.243 46.138 225.327 45.8672C225.785 44.2214 226.535 43.513 227.243 43.513C227.452 43.513 227.743 43.513 227.743 44.138C227.743 44.638 227.535 45.1797 227.243 45.9089C226.41 48.1797 226.306 48.9089 226.306 49.4922C226.306 51.4297 227.785 51.7422 228.577 51.7422C229.806 51.7422 230.473 50.9089 230.848 50.4505Z" fill="black" style="fill:black;fill-opacity:1;"/>
<path d="M186.964 59.7129H248.808" stroke="black" style="stroke:black;stroke-opacity:1;" stroke-width="0.765333" stroke-miterlimit="10"/>
<path d="M190.253 63.9281C190.253 63.6156 190.253 63.2822 189.878 63.2822C189.482 63.2822 189.482 63.6989 189.482 63.9697V81.6989C189.482 81.9906 189.482 82.3864 189.878 82.3864C190.253 82.3864 190.253 82.0531 190.253 81.7406V63.9281ZM193.982 63.9697C193.982 63.6781 193.982 63.2822 193.607 63.2822C193.212 63.2822 193.212 63.6156 193.212 63.9281V81.7406C193.212 82.0531 193.212 82.3864 193.607 82.3864C193.982 82.3864 193.982 81.9697 193.982 81.6989V63.9697Z" fill="black" style="fill:black;fill-opacity:1;"/>
<path d="M205.993 66.1989C205.763 66.4072 205.055 67.0739 205.055 67.3447C205.055 67.5322 205.222 67.6989 205.43 67.6989C205.597 67.6989 205.68 67.5947 205.805 67.4072C206.263 66.8239 206.784 66.4697 207.222 66.2197C207.409 66.0947 207.534 66.0531 207.534 65.8447C207.534 65.6572 207.388 65.5739 207.284 65.4697C206.743 65.1156 206.618 64.5947 206.555 64.3656C206.493 64.1989 206.43 63.9697 206.159 63.9697C206.055 63.9697 205.826 64.0531 205.826 64.3447C205.826 64.5114 205.93 64.9697 206.305 65.4906H199.868C199.555 65.4906 199.222 65.4906 199.222 65.8447C199.222 66.1989 199.576 66.1989 199.868 66.1989H205.993Z" fill="black" style="fill:black;fill-opacity:1;"/>
<path d="M205.27 70.4694C205.27 69.2611 204.645 69.1777 204.499 69.1777C204.041 69.1777 203.624 69.6361 203.624 70.0319C203.624 70.2611 203.749 70.3861 203.833 70.4694C204.02 70.6361 204.52 71.1569 204.52 72.1361C204.52 72.9486 203.374 77.4277 201.062 77.4277C199.895 77.4277 199.666 76.4486 199.666 75.7402C199.666 74.7819 200.124 73.4486 200.624 72.0736C200.937 71.2819 201.02 71.0944 201.02 70.7194C201.02 69.9069 200.437 69.1777 199.499 69.1777C197.749 69.1777 197.041 71.9486 197.041 72.1152C197.041 72.1777 197.104 72.2819 197.249 72.2819C197.416 72.2819 197.437 72.1986 197.52 71.9277C197.979 70.2819 198.729 69.5736 199.437 69.5736C199.624 69.5736 199.937 69.5736 199.937 70.1986C199.937 70.6986 199.729 71.2402 199.437 71.9694C198.52 74.4277 198.52 75.0111 198.52 75.4694C198.52 75.8861 198.583 76.6777 199.187 77.2194C199.874 77.8027 200.833 77.8027 200.999 77.8027C204.166 77.8027 205.27 71.5527 205.27 70.4694Z" fill="black" style="fill:black;fill-opacity:1;"/>
<path d="M209.557 63.9281C209.557 63.6156 209.557 63.2822 209.182 63.2822C208.786 63.2822 208.786 63.6989 208.786 63.9697V81.6989C208.786 81.9906 208.786 82.3864 209.182 82.3864C209.557 82.3864 209.557 82.0531 209.557 81.7406V63.9281ZM213.286 63.9697C213.286 63.6781 213.286 63.2822 212.911 63.2822C212.515 63.2822 212.515 63.6156 212.515 63.9281V81.7406C212.515 82.0531 212.515 82.3864 212.911 82.3864C213.286 82.3864 213.286 81.9697 213.286 81.6989V63.9697Z" fill="black" style="fill:black;fill-opacity:1;"/>
<path d="M222.316 63.9281C222.316 63.6156 222.316 63.2822 221.941 63.2822C221.545 63.2822 221.545 63.6989 221.545 63.9697V81.6989C221.545 81.9906 221.545 82.3864 221.941 82.3864C222.316 82.3864 222.316 82.0531 222.316 81.7406V63.9281ZM226.045 63.9697C226.045 63.6781 226.045 63.2822 225.67 63.2822C225.274 63.2822 225.274 63.6156 225.274 63.9281V81.7406C225.274 82.0531 225.274 82.3864 225.67 82.3864C226.045 82.3864 226.045 81.9697 226.045 81.6989V63.9697Z" fill="black" style="fill:black;fill-opacity:1;"/>
<path d="M238.508 66.1989C238.279 66.4072 237.571 67.0739 237.571 67.3447C237.571 67.5322 237.737 67.6989 237.946 67.6989C238.112 67.6989 238.196 67.5947 238.321 67.4072C238.779 66.8239 239.3 66.4697 239.737 66.2197C239.925 66.0947 240.05 66.0531 240.05 65.8447C240.05 65.6572 239.904 65.5739 239.8 65.4697C239.258 65.1156 239.133 64.5947 239.071 64.3656C239.008 64.1989 238.946 63.9697 238.675 63.9697C238.571 63.9697 238.341 64.0531 238.341 64.3447C238.341 64.5114 238.446 64.9697 238.821 65.4906H232.383C232.071 65.4906 231.737 65.4906 231.737 65.8447C231.737 66.1989 232.091 66.1989 232.383 66.1989H238.508Z" fill="black" style="fill:black;fill-opacity:1;"/>
<path d="M235.099 76.5111C235.349 77.5736 236.265 77.8027 236.724 77.8027C237.328 77.8027 237.786 77.4069 238.099 76.7611C238.432 76.0736 238.682 74.9277 238.682 74.8861C238.682 74.7819 238.599 74.6986 238.494 74.6986C238.307 74.6986 238.286 74.8027 238.224 75.0944C237.869 76.4069 237.536 77.4277 236.765 77.4277C236.182 77.4277 236.182 76.8027 236.182 76.5527C236.182 76.0944 236.244 75.9069 236.432 75.1152C236.578 74.5944 236.703 74.0736 236.828 73.5319L237.599 70.4277C237.744 69.9486 237.744 69.9069 237.744 69.8444C237.744 69.5736 237.515 69.3652 237.224 69.3652C236.661 69.3652 236.536 69.8444 236.411 70.3236C236.224 71.0736 235.203 75.1777 235.057 75.8652C235.036 75.8652 234.286 77.4277 232.89 77.4277C231.911 77.4277 231.724 76.5736 231.724 75.8652C231.724 74.7611 232.244 73.2402 232.744 71.9486C232.974 71.3444 233.078 71.0944 233.078 70.7194C233.078 69.8861 232.474 69.1777 231.557 69.1777C229.807 69.1777 229.099 71.9486 229.099 72.1152C229.099 72.1777 229.161 72.2819 229.307 72.2819C229.474 72.2819 229.494 72.1986 229.578 71.9277C230.036 70.2819 230.786 69.5736 231.494 69.5736C231.703 69.5736 231.994 69.5736 231.994 70.1986C231.994 70.6986 231.786 71.2402 231.494 71.9694C230.661 74.2402 230.557 74.9694 230.557 75.5527C230.557 77.4902 232.036 77.8027 232.828 77.8027C234.057 77.8027 234.724 76.9694 235.099 76.5111Z" fill="black" style="fill:black;fill-opacity:1;"/>
<path d="M242.535 63.9281C242.535 63.6156 242.535 63.2822 242.16 63.2822C241.764 63.2822 241.764 63.6989 241.764 63.9697V81.6989C241.764 81.9906 241.764 82.3864 242.16 82.3864C242.535 82.3864 242.535 82.0531 242.535 81.7406V63.9281ZM246.264 63.9697C246.264 63.6781 246.264 63.2822 245.889 63.2822C245.493 63.2822 245.493 63.6156 245.493 63.9281V81.7406C245.493 82.0531 245.493 82.3864 245.889 82.3864C246.264 82.3864 246.264 81.9697 246.264 81.6989V63.9697Z" fill="black" style="fill:black;fill-opacity:1;"/>
<path d="M254.65 81.5863H250.671V82.6488H255.692V36.7529H250.671V37.8154H254.65V81.5863Z" fill="black" style="fill:black;fill-opacity:1;"/>
<path d="M313.747 60.0986C314.081 60.0986 314.414 60.0986 314.414 59.7236C314.414 59.3278 314.081 59.3278 313.747 59.3278H305.643C305.872 56.7653 308.06 54.932 310.768 54.932H313.747C314.081 54.932 314.414 54.932 314.414 54.557C314.414 54.1611 314.081 54.1611 313.747 54.1611H310.727C307.456 54.1611 304.852 56.6611 304.852 59.7236C304.852 62.7653 307.456 65.2653 310.727 65.2653H313.747C314.081 65.2653 314.414 65.2653 314.414 64.8695C314.414 64.4945 314.081 64.4945 313.747 64.4945H310.768C308.06 64.4945 305.872 62.6611 305.643 60.0986H313.747Z" fill="black" style="fill:black;fill-opacity:1;"/>
<path d="M326.104 69.2653V68.5778H324.25V50.8486H326.104V50.1611H323.542V69.2653H326.104Z" fill="black" style="fill:black;fill-opacity:1;"/>
<path d="M335.099 58.3695C335.099 56.7861 335.016 55.2445 334.328 53.7861C333.536 52.2028 332.161 51.7861 331.224 51.7861C330.12 51.7861 328.745 52.3278 328.057 53.9111C327.516 55.1195 327.328 56.307 327.328 58.3695C327.328 60.2236 327.453 61.6195 328.141 62.9736C328.891 64.432 330.203 64.8903 331.203 64.8903C332.87 64.8903 333.828 63.9111 334.37 62.7861C335.057 61.3486 335.099 59.4736 335.099 58.3695ZM331.203 64.5153C330.599 64.5153 329.349 64.1611 328.995 62.0778C328.766 60.932 328.766 59.4736 328.766 58.1403C328.766 56.5778 328.766 55.1611 329.078 54.0361C329.411 52.7445 330.391 52.1611 331.203 52.1611C331.932 52.1611 333.036 52.5986 333.411 54.2445C333.641 55.3278 333.641 56.8486 333.641 58.1403C333.641 59.432 333.641 60.8695 333.432 62.0361C333.078 64.1403 331.87 64.5153 331.203 64.5153Z" fill="black" style="fill:black;fill-opacity:1;"/>
<path d="M339.631 64.5781C339.631 63.4531 339.277 62.6406 338.485 62.6406C337.881 62.6406 337.568 63.1406 337.568 63.5573C337.568 63.974 337.86 64.4948 338.506 64.4948C338.756 64.4948 338.964 64.4115 339.131 64.2448C339.173 64.2031 339.193 64.2031 339.214 64.2031C339.256 64.2031 339.256 64.474 339.256 64.5781C339.256 65.2031 339.131 66.4531 338.027 67.6823C337.818 67.9115 337.818 67.9531 337.818 67.9948C337.818 68.099 337.902 68.1823 338.006 68.1823C338.152 68.1823 339.631 66.7656 339.631 64.5781Z" fill="black" style="fill:black;fill-opacity:1;"/>
<path d="M349.792 52.2445C349.792 51.7861 349.792 51.7861 349.417 51.7861C348.959 52.2861 348 52.9945 346.042 52.9945V53.557C346.479 53.557 347.438 53.557 348.479 53.057V63.0153C348.479 63.7028 348.417 63.932 346.75 63.932H346.146V64.4945C346.667 64.4528 348.521 64.4528 349.146 64.4528C349.771 64.4528 351.625 64.4528 352.125 64.4945V63.932H351.542C349.854 63.932 349.792 63.7028 349.792 63.0153V52.2445Z" fill="black" style="fill:black;fill-opacity:1;"/>
<path d="M356.615 50.1611H354.053V50.8486H355.907V68.5778H354.053V69.2653H356.615V50.1611Z" fill="black" style="fill:black;fill-opacity:1;"/>
</svg>
