<svg width="732" height="743" viewBox="0 0 732 743" fill="none" xmlns="http://www.w3.org/2000/svg">
<path d="M320 88C320 52.6538 348.654 24 384 24V24C419.346 24 448 52.6538 448 88V88C448 123.346 419.346 152 384 152V152C348.654 152 320 123.346 320 88V88Z" fill="#4D8DDA"/>
<path d="M357.542 93L357.549 82.878H358.872V91.838H363.653V93H357.542ZM367.981 93.14C367.313 93.14 366.73 92.9977 366.231 92.713C365.736 92.4237 365.351 92.0013 365.076 91.446C364.8 90.8907 364.663 90.2117 364.663 89.409C364.663 88.653 364.791 87.9903 365.048 87.421C365.304 86.8517 365.68 86.4107 366.175 86.098C366.669 85.7807 367.274 85.622 367.988 85.622C368.655 85.622 369.234 85.769 369.724 86.063C370.214 86.3523 370.594 86.7793 370.865 87.344C371.14 87.9087 371.278 88.597 371.278 89.409C371.278 90.1463 371.152 90.795 370.9 91.355C370.648 91.915 370.277 92.3537 369.787 92.671C369.301 92.9837 368.699 93.14 367.981 93.14ZM367.988 92.118C368.417 92.118 368.781 92.0083 369.08 91.789C369.378 91.5697 369.605 91.2547 369.759 90.844C369.917 90.4333 369.997 89.9457 369.997 89.381C369.997 88.863 369.927 88.3987 369.787 87.988C369.651 87.5727 369.437 87.2437 369.143 87.001C368.849 86.7583 368.464 86.637 367.988 86.637C367.549 86.637 367.178 86.7467 366.875 86.966C366.571 87.1807 366.34 87.4933 366.182 87.904C366.028 88.3147 365.951 88.807 365.951 89.381C365.951 89.8897 366.018 90.3517 366.154 90.767C366.294 91.1823 366.513 91.5113 366.812 91.754C367.115 91.9967 367.507 92.118 367.988 92.118ZM375.911 93.14C375.257 93.14 374.679 92.9977 374.175 92.713C373.675 92.4283 373.283 92.0083 372.999 91.453C372.719 90.8977 372.579 90.2163 372.579 89.409C372.579 88.653 372.707 87.9927 372.964 87.428C373.225 86.8587 373.603 86.4153 374.098 86.098C374.597 85.7807 375.201 85.622 375.911 85.622C376.429 85.622 376.893 85.7223 377.304 85.923C377.719 86.119 378.06 86.399 378.326 86.763C378.592 87.127 378.755 87.5563 378.816 88.051H377.668C377.626 87.799 377.528 87.568 377.374 87.358C377.224 87.148 377.026 86.98 376.779 86.854C376.536 86.728 376.249 86.665 375.918 86.665C375.297 86.665 374.791 86.889 374.399 87.337C374.011 87.785 373.818 88.471 373.818 89.395C373.818 90.2303 373.995 90.9 374.35 91.404C374.709 91.9033 375.236 92.153 375.932 92.153C376.263 92.153 376.552 92.09 376.8 91.964C377.047 91.8333 377.245 91.663 377.395 91.453C377.544 91.2383 377.64 91.0097 377.682 90.767H378.809C378.748 91.2523 378.582 91.6723 378.312 92.027C378.046 92.3817 377.705 92.657 377.29 92.853C376.879 93.0443 376.419 93.14 375.911 93.14ZM382.562 93.14C382.091 93.14 381.675 93.0583 381.316 92.895C380.961 92.727 380.681 92.4867 380.476 92.174C380.275 91.8613 380.175 91.4833 380.175 91.04C380.175 90.2373 380.455 89.64 381.015 89.248C381.575 88.856 382.473 88.646 383.71 88.618L384.998 88.583V88.016C384.998 87.5727 384.865 87.2227 384.599 86.966C384.333 86.7047 383.922 86.574 383.367 86.574C382.952 86.5787 382.585 86.6767 382.268 86.868C381.951 87.0593 381.748 87.372 381.659 87.806H380.518C380.546 87.3347 380.677 86.938 380.91 86.616C381.148 86.2893 381.482 86.042 381.911 85.874C382.34 85.706 382.847 85.622 383.43 85.622C384.06 85.622 384.583 85.7107 384.998 85.888C385.418 86.0653 385.731 86.3267 385.936 86.672C386.146 87.0173 386.251 87.442 386.251 87.946V93H385.145L385.047 91.642C384.772 92.2067 384.417 92.5987 383.983 92.818C383.554 93.0327 383.08 93.14 382.562 93.14ZM382.947 92.209C383.194 92.209 383.437 92.1647 383.675 92.076C383.918 91.9873 384.137 91.8683 384.333 91.719C384.534 91.565 384.695 91.3947 384.816 91.208C384.937 91.0167 384.998 90.8207 384.998 90.62V89.381L383.927 89.402C383.372 89.4113 382.91 89.4673 382.541 89.57C382.172 89.6727 381.895 89.8337 381.708 90.053C381.521 90.2723 381.428 90.5593 381.428 90.914C381.428 91.32 381.57 91.6373 381.855 91.866C382.14 92.0947 382.504 92.209 382.947 92.209ZM390.622 93.035C390.123 93.035 389.736 92.9673 389.46 92.832C389.185 92.6967 388.991 92.496 388.879 92.23C388.772 91.964 388.718 91.6373 388.718 91.25V86.707H387.542V85.762H388.753L389.068 83.655H390.02V85.755H391.651V86.707H390.02V91.208C390.02 91.4647 390.046 91.6537 390.097 91.775C390.153 91.8917 390.244 91.9663 390.37 91.999C390.496 92.0317 390.674 92.048 390.902 92.048H391.693V92.916C391.605 92.9487 391.469 92.9767 391.287 93C391.11 93.0233 390.888 93.035 390.622 93.035ZM393.446 93V85.762H394.699V93H393.446ZM393.411 84.229V82.885H394.734V84.229H393.411ZM399.768 93.14C399.1 93.14 398.517 92.9977 398.018 92.713C397.523 92.4237 397.138 92.0013 396.863 91.446C396.587 90.8907 396.45 90.2117 396.45 89.409C396.45 88.653 396.578 87.9903 396.835 87.421C397.091 86.8517 397.467 86.4107 397.962 86.098C398.456 85.7807 399.061 85.622 399.775 85.622C400.442 85.622 401.021 85.769 401.511 86.063C402.001 86.3523 402.381 86.7793 402.652 87.344C402.927 87.9087 403.065 88.597 403.065 89.409C403.065 90.1463 402.939 90.795 402.687 91.355C402.435 91.915 402.064 92.3537 401.574 92.671C401.088 92.9837 400.486 93.14 399.768 93.14ZM399.775 92.118C400.204 92.118 400.568 92.0083 400.867 91.789C401.165 91.5697 401.392 91.2547 401.546 90.844C401.704 90.4333 401.784 89.9457 401.784 89.381C401.784 88.863 401.714 88.3987 401.574 87.988C401.438 87.5727 401.224 87.2437 400.93 87.001C400.636 86.7583 400.251 86.637 399.775 86.637C399.336 86.637 398.965 86.7467 398.662 86.966C398.358 87.1807 398.127 87.4933 397.969 87.904C397.815 88.3147 397.738 88.807 397.738 89.381C397.738 89.8897 397.805 90.3517 397.941 90.767C398.081 91.1823 398.3 91.5113 398.599 91.754C398.902 91.9967 399.294 92.118 399.775 92.118ZM404.786 93V85.762H406.039V86.812C406.156 86.6113 406.317 86.4223 406.522 86.245C406.732 86.0677 406.984 85.9253 407.278 85.818C407.577 85.7107 407.92 85.657 408.307 85.657C408.764 85.657 409.184 85.748 409.567 85.93C409.954 86.112 410.262 86.3967 410.491 86.784C410.724 87.1667 410.841 87.6613 410.841 88.268V93H409.546V88.394C409.546 87.8293 409.397 87.4117 409.098 87.141C408.804 86.8657 408.421 86.728 407.95 86.728C407.623 86.728 407.318 86.7817 407.033 86.889C406.748 86.9917 406.517 87.1503 406.34 87.365C406.163 87.575 406.074 87.841 406.074 88.163V93H404.786Z" fill="white"/>
<path d="M318 655C318 619.654 346.654 591 382 591V591C417.346 591 446 619.654 446 655V655C446 690.346 417.346 719 382 719V719C346.654 719 318 690.346 318 655V655Z" fill="#4D8DDA"/>
<path d="M355.542 660L355.549 649.878H356.872V658.838H361.653V660H355.542ZM365.981 660.14C365.313 660.14 364.73 659.998 364.231 659.713C363.736 659.424 363.351 659.001 363.076 658.446C362.8 657.891 362.663 657.212 362.663 656.409C362.663 655.653 362.791 654.99 363.048 654.421C363.304 653.852 363.68 653.411 364.175 653.098C364.669 652.781 365.274 652.622 365.988 652.622C366.655 652.622 367.234 652.769 367.724 653.063C368.214 653.352 368.594 653.779 368.865 654.344C369.14 654.909 369.278 655.597 369.278 656.409C369.278 657.146 369.152 657.795 368.9 658.355C368.648 658.915 368.277 659.354 367.787 659.671C367.301 659.984 366.699 660.14 365.981 660.14ZM365.988 659.118C366.417 659.118 366.781 659.008 367.08 658.789C367.378 658.57 367.605 658.255 367.759 657.844C367.917 657.433 367.997 656.946 367.997 656.381C367.997 655.863 367.927 655.399 367.787 654.988C367.651 654.573 367.437 654.244 367.143 654.001C366.849 653.758 366.464 653.637 365.988 653.637C365.549 653.637 365.178 653.747 364.875 653.966C364.571 654.181 364.34 654.493 364.182 654.904C364.028 655.315 363.951 655.807 363.951 656.381C363.951 656.89 364.018 657.352 364.154 657.767C364.294 658.182 364.513 658.511 364.812 658.754C365.115 658.997 365.507 659.118 365.988 659.118ZM373.911 660.14C373.257 660.14 372.679 659.998 372.175 659.713C371.675 659.428 371.283 659.008 370.999 658.453C370.719 657.898 370.579 657.216 370.579 656.409C370.579 655.653 370.707 654.993 370.964 654.428C371.225 653.859 371.603 653.415 372.098 653.098C372.597 652.781 373.201 652.622 373.911 652.622C374.429 652.622 374.893 652.722 375.304 652.923C375.719 653.119 376.06 653.399 376.326 653.763C376.592 654.127 376.755 654.556 376.816 655.051H375.668C375.626 654.799 375.528 654.568 375.374 654.358C375.224 654.148 375.026 653.98 374.779 653.854C374.536 653.728 374.249 653.665 373.918 653.665C373.297 653.665 372.791 653.889 372.399 654.337C372.011 654.785 371.818 655.471 371.818 656.395C371.818 657.23 371.995 657.9 372.35 658.404C372.709 658.903 373.236 659.153 373.932 659.153C374.263 659.153 374.552 659.09 374.8 658.964C375.047 658.833 375.245 658.663 375.395 658.453C375.544 658.238 375.64 658.01 375.682 657.767H376.809C376.748 658.252 376.582 658.672 376.312 659.027C376.046 659.382 375.705 659.657 375.29 659.853C374.879 660.044 374.419 660.14 373.911 660.14ZM380.562 660.14C380.091 660.14 379.675 660.058 379.316 659.895C378.961 659.727 378.681 659.487 378.476 659.174C378.275 658.861 378.175 658.483 378.175 658.04C378.175 657.237 378.455 656.64 379.015 656.248C379.575 655.856 380.473 655.646 381.71 655.618L382.998 655.583V655.016C382.998 654.573 382.865 654.223 382.599 653.966C382.333 653.705 381.922 653.574 381.367 653.574C380.952 653.579 380.585 653.677 380.268 653.868C379.951 654.059 379.748 654.372 379.659 654.806H378.518C378.546 654.335 378.677 653.938 378.91 653.616C379.148 653.289 379.482 653.042 379.911 652.874C380.34 652.706 380.847 652.622 381.43 652.622C382.06 652.622 382.583 652.711 382.998 652.888C383.418 653.065 383.731 653.327 383.936 653.672C384.146 654.017 384.251 654.442 384.251 654.946V660H383.145L383.047 658.642C382.772 659.207 382.417 659.599 381.983 659.818C381.554 660.033 381.08 660.14 380.562 660.14ZM380.947 659.209C381.194 659.209 381.437 659.165 381.675 659.076C381.918 658.987 382.137 658.868 382.333 658.719C382.534 658.565 382.695 658.395 382.816 658.208C382.937 658.017 382.998 657.821 382.998 657.62V656.381L381.927 656.402C381.372 656.411 380.91 656.467 380.541 656.57C380.172 656.673 379.895 656.834 379.708 657.053C379.521 657.272 379.428 657.559 379.428 657.914C379.428 658.32 379.57 658.637 379.855 658.866C380.14 659.095 380.504 659.209 380.947 659.209ZM388.622 660.035C388.123 660.035 387.736 659.967 387.46 659.832C387.185 659.697 386.991 659.496 386.879 659.23C386.772 658.964 386.718 658.637 386.718 658.25V653.707H385.542V652.762H386.753L387.068 650.655H388.02V652.755H389.651V653.707H388.02V658.208C388.02 658.465 388.046 658.654 388.097 658.775C388.153 658.892 388.244 658.966 388.37 658.999C388.496 659.032 388.674 659.048 388.902 659.048H389.693V659.916C389.605 659.949 389.469 659.977 389.287 660C389.11 660.023 388.888 660.035 388.622 660.035ZM391.446 660V652.762H392.699V660H391.446ZM391.411 651.229V649.885H392.734V651.229H391.411ZM397.768 660.14C397.1 660.14 396.517 659.998 396.018 659.713C395.523 659.424 395.138 659.001 394.863 658.446C394.587 657.891 394.45 657.212 394.45 656.409C394.45 655.653 394.578 654.99 394.835 654.421C395.091 653.852 395.467 653.411 395.962 653.098C396.456 652.781 397.061 652.622 397.775 652.622C398.442 652.622 399.021 652.769 399.511 653.063C400.001 653.352 400.381 653.779 400.652 654.344C400.927 654.909 401.065 655.597 401.065 656.409C401.065 657.146 400.939 657.795 400.687 658.355C400.435 658.915 400.064 659.354 399.574 659.671C399.088 659.984 398.486 660.14 397.768 660.14ZM397.775 659.118C398.204 659.118 398.568 659.008 398.867 658.789C399.165 658.57 399.392 658.255 399.546 657.844C399.704 657.433 399.784 656.946 399.784 656.381C399.784 655.863 399.714 655.399 399.574 654.988C399.438 654.573 399.224 654.244 398.93 654.001C398.636 653.758 398.251 653.637 397.775 653.637C397.336 653.637 396.965 653.747 396.662 653.966C396.358 654.181 396.127 654.493 395.969 654.904C395.815 655.315 395.738 655.807 395.738 656.381C395.738 656.89 395.805 657.352 395.941 657.767C396.081 658.182 396.3 658.511 396.599 658.754C396.902 658.997 397.294 659.118 397.775 659.118ZM402.786 660V652.762H404.039V653.812C404.156 653.611 404.317 653.422 404.522 653.245C404.732 653.068 404.984 652.925 405.278 652.818C405.577 652.711 405.92 652.657 406.307 652.657C406.764 652.657 407.184 652.748 407.567 652.93C407.954 653.112 408.262 653.397 408.491 653.784C408.724 654.167 408.841 654.661 408.841 655.268V660H407.546V655.394C407.546 654.829 407.397 654.412 407.098 654.141C406.804 653.866 406.421 653.728 405.95 653.728C405.623 653.728 405.318 653.782 405.033 653.889C404.748 653.992 404.517 654.15 404.34 654.365C404.163 654.575 404.074 654.841 404.074 655.163V660H402.786Z" fill="white"/>
<path d="M37 368C37 332.654 65.6538 304 101 304V304C136.346 304 165 332.654 165 368V368C165 403.346 136.346 432 101 432V432C65.6538 432 37 403.346 37 368V368Z" fill="#4D8DDA"/>
<path d="M74.5421 373L74.5491 362.878H75.8721V371.838H80.6531V373H74.5421ZM84.9807 373.14C84.3134 373.14 83.7301 372.998 83.2307 372.713C82.7361 372.424 82.3511 372.001 82.0757 371.446C81.8004 370.891 81.6627 370.212 81.6627 369.409C81.6627 368.653 81.7911 367.99 82.0477 367.421C82.3044 366.852 82.6801 366.411 83.1747 366.098C83.6694 365.781 84.2737 365.622 84.9877 365.622C85.6551 365.622 86.2337 365.769 86.7237 366.063C87.2137 366.352 87.5941 366.779 87.8647 367.344C88.1401 367.909 88.2777 368.597 88.2777 369.409C88.2777 370.146 88.1517 370.795 87.8997 371.355C87.6477 371.915 87.2767 372.354 86.7867 372.671C86.3014 372.984 85.6994 373.14 84.9807 373.14ZM84.9877 372.118C85.4171 372.118 85.7811 372.008 86.0797 371.789C86.3784 371.57 86.6047 371.255 86.7587 370.844C86.9174 370.433 86.9967 369.946 86.9967 369.381C86.9967 368.863 86.9267 368.399 86.7867 367.988C86.6514 367.573 86.4367 367.244 86.1427 367.001C85.8487 366.758 85.4637 366.637 84.9877 366.637C84.5491 366.637 84.1781 366.747 83.8747 366.966C83.5714 367.181 83.3404 367.493 83.1817 367.904C83.0277 368.315 82.9507 368.807 82.9507 369.381C82.9507 369.89 83.0184 370.352 83.1537 370.767C83.2937 371.182 83.5131 371.511 83.8117 371.754C84.1151 371.997 84.5071 372.118 84.9877 372.118ZM92.9107 373.14C92.2574 373.14 91.6787 372.998 91.1747 372.713C90.6754 372.428 90.2834 372.008 89.9987 371.453C89.7187 370.898 89.5787 370.216 89.5787 369.409C89.5787 368.653 89.7071 367.993 89.9637 367.428C90.2251 366.859 90.6031 366.415 91.0977 366.098C91.5971 365.781 92.2014 365.622 92.9107 365.622C93.4287 365.622 93.8931 365.722 94.3037 365.923C94.7191 366.119 95.0597 366.399 95.3257 366.763C95.5917 367.127 95.7551 367.556 95.8157 368.051H94.6677C94.6257 367.799 94.5277 367.568 94.3737 367.358C94.2244 367.148 94.0261 366.98 93.7787 366.854C93.5361 366.728 93.2491 366.665 92.9177 366.665C92.2971 366.665 91.7907 366.889 91.3987 367.337C91.0114 367.785 90.8177 368.471 90.8177 369.395C90.8177 370.23 90.9951 370.9 91.3497 371.404C91.7091 371.903 92.2364 372.153 92.9317 372.153C93.2631 372.153 93.5524 372.09 93.7997 371.964C94.0471 371.833 94.2454 371.663 94.3947 371.453C94.5441 371.238 94.6397 371.01 94.6817 370.767H95.8087C95.7481 371.252 95.5824 371.672 95.3117 372.027C95.0457 372.382 94.7051 372.657 94.2897 372.853C93.8791 373.044 93.4194 373.14 92.9107 373.14ZM99.5619 373.14C99.0906 373.14 98.6753 373.058 98.3159 372.895C97.9613 372.727 97.6813 372.487 97.4759 372.174C97.2753 371.861 97.1749 371.483 97.1749 371.04C97.1749 370.237 97.4549 369.64 98.0149 369.248C98.5749 368.856 99.4733 368.646 100.71 368.618L101.998 368.583V368.016C101.998 367.573 101.865 367.223 101.599 366.966C101.333 366.705 100.922 366.574 100.367 366.574C99.9516 366.579 99.5853 366.677 99.2679 366.868C98.9506 367.059 98.7476 367.372 98.6589 367.806H97.5179C97.5459 367.335 97.6766 366.938 97.9099 366.616C98.1479 366.289 98.4816 366.042 98.9109 365.874C99.3403 365.706 99.8466 365.622 100.43 365.622C101.06 365.622 101.583 365.711 101.998 365.888C102.418 366.065 102.731 366.327 102.936 366.672C103.146 367.017 103.251 367.442 103.251 367.946V373H102.145L102.047 371.642C101.772 372.207 101.417 372.599 100.983 372.818C100.554 373.033 100.08 373.14 99.5619 373.14ZM99.9469 372.209C100.194 372.209 100.437 372.165 100.675 372.076C100.918 371.987 101.137 371.868 101.333 371.719C101.534 371.565 101.695 371.395 101.816 371.208C101.937 371.017 101.998 370.821 101.998 370.62V369.381L100.927 369.402C100.372 369.411 99.9096 369.467 99.5409 369.57C99.1723 369.673 98.8946 369.834 98.7079 370.053C98.5213 370.272 98.4279 370.559 98.4279 370.914C98.4279 371.32 98.5703 371.637 98.8549 371.866C99.1396 372.095 99.5036 372.209 99.9469 372.209ZM107.622 373.035C107.123 373.035 106.736 372.967 106.46 372.832C106.185 372.697 105.991 372.496 105.879 372.23C105.772 371.964 105.718 371.637 105.718 371.25V366.707H104.542V365.762H105.753L106.068 363.655H107.02V365.755H108.651V366.707H107.02V371.208C107.02 371.465 107.046 371.654 107.097 371.775C107.153 371.892 107.244 371.966 107.37 371.999C107.496 372.032 107.674 372.048 107.902 372.048H108.693V372.916C108.605 372.949 108.469 372.977 108.287 373C108.11 373.023 107.888 373.035 107.622 373.035ZM110.446 373V365.762H111.699V373H110.446ZM110.411 364.229V362.885H111.734V364.229H110.411ZM116.768 373.14C116.1 373.14 115.517 372.998 115.018 372.713C114.523 372.424 114.138 372.001 113.863 371.446C113.587 370.891 113.45 370.212 113.45 369.409C113.45 368.653 113.578 367.99 113.835 367.421C114.091 366.852 114.467 366.411 114.962 366.098C115.456 365.781 116.061 365.622 116.775 365.622C117.442 365.622 118.021 365.769 118.511 366.063C119.001 366.352 119.381 366.779 119.652 367.344C119.927 367.909 120.065 368.597 120.065 369.409C120.065 370.146 119.939 370.795 119.687 371.355C119.435 371.915 119.064 372.354 118.574 372.671C118.088 372.984 117.486 373.14 116.768 373.14ZM116.775 372.118C117.204 372.118 117.568 372.008 117.867 371.789C118.165 371.57 118.392 371.255 118.546 370.844C118.704 370.433 118.784 369.946 118.784 369.381C118.784 368.863 118.714 368.399 118.574 367.988C118.438 367.573 118.224 367.244 117.93 367.001C117.636 366.758 117.251 366.637 116.775 366.637C116.336 366.637 115.965 366.747 115.662 366.966C115.358 367.181 115.127 367.493 114.969 367.904C114.815 368.315 114.738 368.807 114.738 369.381C114.738 369.89 114.805 370.352 114.941 370.767C115.081 371.182 115.3 371.511 115.599 371.754C115.902 371.997 116.294 372.118 116.775 372.118ZM121.786 373V365.762H123.039V366.812C123.156 366.611 123.317 366.422 123.522 366.245C123.732 366.068 123.984 365.925 124.278 365.818C124.577 365.711 124.92 365.657 125.307 365.657C125.764 365.657 126.184 365.748 126.567 365.93C126.954 366.112 127.262 366.397 127.491 366.784C127.724 367.167 127.841 367.661 127.841 368.268V373H126.546V368.394C126.546 367.829 126.397 367.412 126.098 367.141C125.804 366.866 125.421 366.728 124.95 366.728C124.623 366.728 124.318 366.782 124.033 366.889C123.748 366.992 123.517 367.15 123.34 367.365C123.163 367.575 123.074 367.841 123.074 368.163V373H121.786Z" fill="white"/>
<path d="M604 368C604 332.654 632.654 304 668 304V304C703.346 304 732 332.654 732 368V368C732 403.346 703.346 432 668 432V432C632.654 432 604 403.346 604 368V368Z" fill="#4D8DDA"/>
<path d="M641.542 373L641.549 362.878H642.872V371.838H647.653V373H641.542ZM651.981 373.14C651.313 373.14 650.73 372.998 650.231 372.713C649.736 372.424 649.351 372.001 649.076 371.446C648.8 370.891 648.663 370.212 648.663 369.409C648.663 368.653 648.791 367.99 649.048 367.421C649.304 366.852 649.68 366.411 650.175 366.098C650.669 365.781 651.274 365.622 651.988 365.622C652.655 365.622 653.234 365.769 653.724 366.063C654.214 366.352 654.594 366.779 654.865 367.344C655.14 367.909 655.278 368.597 655.278 369.409C655.278 370.146 655.152 370.795 654.9 371.355C654.648 371.915 654.277 372.354 653.787 372.671C653.301 372.984 652.699 373.14 651.981 373.14ZM651.988 372.118C652.417 372.118 652.781 372.008 653.08 371.789C653.378 371.57 653.605 371.255 653.759 370.844C653.917 370.433 653.997 369.946 653.997 369.381C653.997 368.863 653.927 368.399 653.787 367.988C653.651 367.573 653.437 367.244 653.143 367.001C652.849 366.758 652.464 366.637 651.988 366.637C651.549 366.637 651.178 366.747 650.875 366.966C650.571 367.181 650.34 367.493 650.182 367.904C650.028 368.315 649.951 368.807 649.951 369.381C649.951 369.89 650.018 370.352 650.154 370.767C650.294 371.182 650.513 371.511 650.812 371.754C651.115 371.997 651.507 372.118 651.988 372.118ZM659.911 373.14C659.257 373.14 658.679 372.998 658.175 372.713C657.675 372.428 657.283 372.008 656.999 371.453C656.719 370.898 656.579 370.216 656.579 369.409C656.579 368.653 656.707 367.993 656.964 367.428C657.225 366.859 657.603 366.415 658.098 366.098C658.597 365.781 659.201 365.622 659.911 365.622C660.429 365.622 660.893 365.722 661.304 365.923C661.719 366.119 662.06 366.399 662.326 366.763C662.592 367.127 662.755 367.556 662.816 368.051H661.668C661.626 367.799 661.528 367.568 661.374 367.358C661.224 367.148 661.026 366.98 660.779 366.854C660.536 366.728 660.249 366.665 659.918 366.665C659.297 366.665 658.791 366.889 658.399 367.337C658.011 367.785 657.818 368.471 657.818 369.395C657.818 370.23 657.995 370.9 658.35 371.404C658.709 371.903 659.236 372.153 659.932 372.153C660.263 372.153 660.552 372.09 660.8 371.964C661.047 371.833 661.245 371.663 661.395 371.453C661.544 371.238 661.64 371.01 661.682 370.767H662.809C662.748 371.252 662.582 371.672 662.312 372.027C662.046 372.382 661.705 372.657 661.29 372.853C660.879 373.044 660.419 373.14 659.911 373.14ZM666.562 373.14C666.091 373.14 665.675 373.058 665.316 372.895C664.961 372.727 664.681 372.487 664.476 372.174C664.275 371.861 664.175 371.483 664.175 371.04C664.175 370.237 664.455 369.64 665.015 369.248C665.575 368.856 666.473 368.646 667.71 368.618L668.998 368.583V368.016C668.998 367.573 668.865 367.223 668.599 366.966C668.333 366.705 667.922 366.574 667.367 366.574C666.952 366.579 666.585 366.677 666.268 366.868C665.951 367.059 665.748 367.372 665.659 367.806H664.518C664.546 367.335 664.677 366.938 664.91 366.616C665.148 366.289 665.482 366.042 665.911 365.874C666.34 365.706 666.847 365.622 667.43 365.622C668.06 365.622 668.583 365.711 668.998 365.888C669.418 366.065 669.731 366.327 669.936 366.672C670.146 367.017 670.251 367.442 670.251 367.946V373H669.145L669.047 371.642C668.772 372.207 668.417 372.599 667.983 372.818C667.554 373.033 667.08 373.14 666.562 373.14ZM666.947 372.209C667.194 372.209 667.437 372.165 667.675 372.076C667.918 371.987 668.137 371.868 668.333 371.719C668.534 371.565 668.695 371.395 668.816 371.208C668.937 371.017 668.998 370.821 668.998 370.62V369.381L667.927 369.402C667.372 369.411 666.91 369.467 666.541 369.57C666.172 369.673 665.895 369.834 665.708 370.053C665.521 370.272 665.428 370.559 665.428 370.914C665.428 371.32 665.57 371.637 665.855 371.866C666.14 372.095 666.504 372.209 666.947 372.209ZM674.622 373.035C674.123 373.035 673.736 372.967 673.46 372.832C673.185 372.697 672.991 372.496 672.879 372.23C672.772 371.964 672.718 371.637 672.718 371.25V366.707H671.542V365.762H672.753L673.068 363.655H674.02V365.755H675.651V366.707H674.02V371.208C674.02 371.465 674.046 371.654 674.097 371.775C674.153 371.892 674.244 371.966 674.37 371.999C674.496 372.032 674.674 372.048 674.902 372.048H675.693V372.916C675.605 372.949 675.469 372.977 675.287 373C675.11 373.023 674.888 373.035 674.622 373.035ZM677.446 373V365.762H678.699V373H677.446ZM677.411 364.229V362.885H678.734V364.229H677.411ZM683.768 373.14C683.1 373.14 682.517 372.998 682.018 372.713C681.523 372.424 681.138 372.001 680.863 371.446C680.587 370.891 680.45 370.212 680.45 369.409C680.45 368.653 680.578 367.99 680.835 367.421C681.091 366.852 681.467 366.411 681.962 366.098C682.456 365.781 683.061 365.622 683.775 365.622C684.442 365.622 685.021 365.769 685.511 366.063C686.001 366.352 686.381 366.779 686.652 367.344C686.927 367.909 687.065 368.597 687.065 369.409C687.065 370.146 686.939 370.795 686.687 371.355C686.435 371.915 686.064 372.354 685.574 372.671C685.088 372.984 684.486 373.14 683.768 373.14ZM683.775 372.118C684.204 372.118 684.568 372.008 684.867 371.789C685.165 371.57 685.392 371.255 685.546 370.844C685.704 370.433 685.784 369.946 685.784 369.381C685.784 368.863 685.714 368.399 685.574 367.988C685.438 367.573 685.224 367.244 684.93 367.001C684.636 366.758 684.251 366.637 683.775 366.637C683.336 366.637 682.965 366.747 682.662 366.966C682.358 367.181 682.127 367.493 681.969 367.904C681.815 368.315 681.738 368.807 681.738 369.381C681.738 369.89 681.805 370.352 681.941 370.767C682.081 371.182 682.3 371.511 682.599 371.754C682.902 371.997 683.294 372.118 683.775 372.118ZM688.786 373V365.762H690.039V366.812C690.156 366.611 690.317 366.422 690.522 366.245C690.732 366.068 690.984 365.925 691.278 365.818C691.577 365.711 691.92 365.657 692.307 365.657C692.764 365.657 693.184 365.748 693.567 365.93C693.954 366.112 694.262 366.397 694.491 366.784C694.724 367.167 694.841 367.661 694.841 368.268V373H693.546V368.394C693.546 367.829 693.397 367.412 693.098 367.141C692.804 366.866 692.421 366.728 691.95 366.728C691.623 366.728 691.318 366.782 691.033 366.889C690.748 366.992 690.517 367.15 690.34 367.365C690.163 367.575 690.074 367.841 690.074 368.163V373H688.786Z" fill="white"/>
<path d="M108.958 283.123C108.795 283.65 109.092 284.21 109.619 284.372C110.147 284.535 110.707 284.238 110.869 283.71L108.958 283.123ZM189.417 158.913L190.068 159.673L189.417 158.913ZM300.304 94.3747C300.559 93.8847 300.368 93.2809 299.878 93.0261L291.893 88.8741C291.403 88.6193 290.799 88.81 290.545 89.3C290.29 89.79 290.48 90.3938 290.97 90.6486L298.068 94.3392L294.378 101.437C294.123 101.927 294.314 102.531 294.804 102.786C295.294 103.04 295.897 102.85 296.152 102.36L300.304 94.3747ZM109.913 283.417C110.869 283.71 110.869 283.71 110.869 283.71C110.869 283.71 110.87 283.709 110.87 283.708C110.871 283.706 110.872 283.703 110.873 283.698C110.876 283.69 110.88 283.676 110.885 283.658C110.896 283.623 110.913 283.569 110.936 283.497C110.982 283.353 111.05 283.138 111.142 282.854C111.327 282.287 111.605 281.446 111.98 280.358C112.729 278.182 113.863 275.016 115.399 271.066C118.471 263.164 123.149 252.127 129.572 239.595C142.422 214.521 162.227 183.521 190.068 159.673L189.417 158.913L188.766 158.154C160.651 182.237 140.704 213.489 127.792 238.683C121.333 251.286 116.627 262.388 113.535 270.341C111.989 274.318 110.846 277.508 110.089 279.707C109.71 280.806 109.428 281.658 109.24 282.236C109.147 282.525 109.076 282.745 109.029 282.894C109.006 282.968 108.988 283.025 108.976 283.063C108.97 283.082 108.965 283.097 108.962 283.107C108.961 283.112 108.96 283.116 108.959 283.118C108.958 283.119 108.958 283.121 108.958 283.121C108.958 283.122 108.958 283.123 109.913 283.417ZM189.417 158.913L190.068 159.673C217.971 135.771 245.398 119.564 265.848 109.333C276.072 104.218 284.549 100.599 290.466 98.2591C293.424 97.0893 295.742 96.2397 297.318 95.6833C298.106 95.4051 298.709 95.2002 299.113 95.0653C299.315 94.9978 299.468 94.9478 299.569 94.9149C299.62 94.8984 299.658 94.8862 299.682 94.8783C299.695 94.8743 299.704 94.8713 299.71 94.8694C299.713 94.8685 299.715 94.8678 299.716 94.8674C299.717 94.8672 299.718 94.8671 299.718 94.867C299.718 94.8669 299.718 94.8669 299.417 93.9133C299.116 92.9598 299.115 92.9599 299.115 92.9601C299.114 92.9603 299.113 92.9605 299.112 92.9608C299.11 92.9615 299.108 92.9623 299.104 92.9635C299.097 92.9658 299.086 92.9691 299.072 92.9735C299.045 92.9823 299.005 92.9953 298.951 93.0126C298.845 93.0472 298.687 93.0989 298.48 93.1682C298.065 93.3067 297.451 93.5153 296.652 93.7974C295.054 94.3616 292.713 95.2199 289.73 96.3992C283.766 98.7578 275.235 102.401 264.953 107.544C244.392 117.831 216.819 134.124 188.766 158.154L189.417 158.913Z" fill="#1A1B1D"/>
<path d="M316.879 589.499C317.431 589.505 317.883 589.062 317.889 588.51L317.984 579.51C317.99 578.958 317.547 578.506 316.995 578.5C316.443 578.494 315.99 578.937 315.984 579.489L315.9 587.489L307.9 587.404C307.348 587.398 306.896 587.841 306.89 588.394C306.884 588.946 307.327 589.398 307.879 589.404L316.879 589.499ZM264.299 534.786L263.585 535.486L263.585 535.486L264.299 534.786ZM262.55 533L263.265 532.3L263.265 532.3L262.55 533ZM259.494 529.878L260.208 529.179L260.208 529.179L259.494 529.878ZM257.464 526.376C257.078 525.981 256.445 525.975 256.05 526.361C255.656 526.747 255.649 527.381 256.035 527.775L257.464 526.376ZM225.535 496.624C225.922 497.019 226.555 497.025 226.949 496.639C227.344 496.253 227.351 495.619 226.964 495.225L225.535 496.624ZM220.449 490L219.735 490.7L219.735 490.7L220.449 490ZM218.7 488.214L219.415 487.514L219.415 487.514L218.7 488.214ZM166.825 433.801C166.439 433.407 165.805 433.4 165.411 433.786C165.016 434.173 165.009 434.806 165.396 435.2L166.825 433.801ZM316.889 588.499L317.604 587.8L265.014 534.087L264.299 534.786L263.585 535.486L316.175 589.199L316.889 588.499ZM264.299 534.786L265.014 534.087L263.265 532.3L262.55 533L261.836 533.7L263.585 535.486L264.299 534.786ZM262.55 533L263.265 532.3L260.208 529.179L259.494 529.878L258.779 530.578L261.836 533.7L262.55 533ZM259.494 529.878L260.208 529.179L257.464 526.376L256.75 527.076L256.035 527.775L258.779 530.578L259.494 529.878ZM226.25 495.924L226.964 495.225L221.164 489.3L220.449 490L219.735 490.7L225.535 496.624L226.25 495.924ZM220.449 490L221.164 489.3L219.415 487.514L218.7 488.214L217.986 488.913L219.735 490.7L220.449 490ZM218.7 488.214L219.415 487.514L166.825 433.801L166.11 434.501L165.396 435.2L217.986 488.913L218.7 488.214Z" fill="#1A1B1D"/>
<path d="M241.734 518.72C240.554 518.72 239.534 518.427 238.674 517.84C237.814 517.253 237.151 516.423 236.684 515.35C236.224 514.27 235.994 512.993 235.994 511.52C235.994 509.953 236.224 508.597 236.684 507.45C237.144 506.297 237.811 505.407 238.684 504.78C239.564 504.153 240.628 503.84 241.874 503.84C242.728 503.84 243.518 504 244.244 504.32C244.971 504.633 245.568 505.087 246.034 505.68C246.501 506.273 246.774 506.99 246.854 507.83H244.604C244.418 507.183 244.098 506.683 243.644 506.33C243.191 505.977 242.618 505.8 241.924 505.8C241.158 505.8 240.518 506.017 240.004 506.45C239.491 506.883 239.121 507.507 238.894 508.32C238.674 509.127 238.604 510.093 238.684 511.22C238.891 510.827 239.171 510.487 239.524 510.2C239.878 509.907 240.281 509.68 240.734 509.52C241.188 509.36 241.668 509.28 242.174 509.28C243.141 509.28 243.988 509.463 244.714 509.83C245.441 510.197 246.008 510.717 246.414 511.39C246.821 512.063 247.024 512.86 247.024 513.78C247.024 514.733 246.804 515.583 246.364 516.33C245.924 517.07 245.308 517.653 244.514 518.08C243.721 518.507 242.794 518.72 241.734 518.72ZM241.674 516.81C242.194 516.81 242.661 516.687 243.074 516.44C243.494 516.193 243.824 515.85 244.064 515.41C244.311 514.97 244.434 514.463 244.434 513.89C244.434 513.303 244.321 512.807 244.094 512.4C243.868 511.993 243.544 511.683 243.124 511.47C242.711 511.257 242.224 511.15 241.664 511.15C241.204 511.15 240.758 511.257 240.324 511.47C239.898 511.683 239.548 511.96 239.274 512.3C239.008 512.64 238.874 513.003 238.874 513.39C238.868 514.077 238.981 514.677 239.214 515.19C239.448 515.703 239.774 516.103 240.194 516.39C240.621 516.67 241.114 516.81 241.674 516.81Z" fill="black" fill-opacity="0.8"/>
<path d="M449.307 587.458L502.08 534.5L503.575 533L508 528.559M542 494.441L546.425 490L547.92 488.5L600.694 435.542" stroke="#F16767" stroke-width="5" stroke-linecap="round" stroke-linejoin="bevel"/>
<path d="M524.756 518.72C523.669 518.713 522.733 518.527 521.946 518.16C521.159 517.793 520.546 517.27 520.106 516.59C519.673 515.91 519.446 515.103 519.426 514.17H521.796C521.936 515.03 522.276 515.67 522.816 516.09C523.363 516.503 524.026 516.71 524.806 516.71C525.453 516.71 526.013 516.613 526.486 516.42C526.959 516.22 527.323 515.947 527.576 515.6C527.836 515.253 527.966 514.85 527.966 514.39C527.966 513.903 527.826 513.487 527.546 513.14C527.273 512.793 526.896 512.527 526.416 512.34C525.936 512.153 525.396 512.053 524.796 512.04L523.456 512V510.02L524.696 509.97C525.269 509.95 525.773 509.84 526.206 509.64C526.646 509.44 526.989 509.177 527.236 508.85C527.483 508.523 527.606 508.157 527.606 507.75C527.606 507.377 527.489 507.04 527.256 506.74C527.029 506.44 526.706 506.207 526.286 506.04C525.866 505.867 525.369 505.78 524.796 505.78C524.309 505.78 523.853 505.867 523.426 506.04C522.999 506.213 522.646 506.493 522.366 506.88C522.093 507.26 521.943 507.76 521.916 508.38H519.556C519.556 507.393 519.793 506.563 520.266 505.89C520.739 505.21 521.373 504.7 522.166 504.36C522.966 504.013 523.853 503.84 524.826 503.84C525.873 503.84 526.799 503.983 527.606 504.27C528.419 504.55 529.056 504.973 529.516 505.54C529.983 506.107 530.216 506.81 530.216 507.65C530.216 508.363 529.999 509 529.566 509.56C529.133 510.12 528.449 510.56 527.516 510.88C528.096 511.04 528.616 511.28 529.076 511.6C529.536 511.913 529.899 512.307 530.166 512.78C530.439 513.253 530.576 513.81 530.576 514.45C530.576 515.137 530.426 515.747 530.126 516.28C529.833 516.813 529.419 517.263 528.886 517.63C528.359 517.99 527.743 518.263 527.036 518.45C526.329 518.63 525.569 518.72 524.756 518.72Z" fill="black" fill-opacity="0.8"/>
<rect x="171" y="155.637" width="28" height="28" transform="rotate(-39.041 171 155.637)" fill="white"/>
<path d="M189.573 164.692V153.552H186.893V152.102C187.74 152.102 188.41 152.032 188.903 151.892C189.403 151.746 189.766 151.532 189.993 151.252C190.226 150.972 190.36 150.632 190.393 150.232H192.053V164.692H189.573Z" fill="black"/>
<path d="M313.123 643.459C313.651 643.622 314.21 643.325 314.373 642.797C314.535 642.27 314.239 641.71 313.711 641.548L313.123 643.459ZM188.914 563L189.673 562.349L188.914 563ZM124.375 452.113C123.885 451.858 123.281 452.049 123.027 452.539L118.875 460.524C118.62 461.014 118.811 461.617 119.301 461.872C119.791 462.127 120.394 461.936 120.649 461.446L124.34 454.349L131.438 458.039C131.928 458.294 132.531 458.103 132.786 457.613C133.041 457.123 132.85 456.52 132.36 456.265L124.375 452.113ZM313.417 642.503C313.711 641.548 313.711 641.548 313.711 641.548C313.71 641.547 313.709 641.547 313.708 641.547C313.706 641.546 313.703 641.545 313.699 641.544C313.69 641.541 313.677 641.537 313.659 641.532C313.623 641.52 313.569 641.503 313.497 641.481C313.353 641.435 313.138 641.367 312.855 641.274C312.287 641.09 311.447 640.811 310.359 640.437C308.183 639.688 305.017 638.554 301.066 637.018C293.164 633.946 282.127 629.268 269.596 622.845C244.522 609.995 213.522 590.19 189.673 562.349L188.914 563L188.154 563.65C212.238 591.765 243.489 611.713 268.684 624.625C281.287 631.084 292.388 635.79 300.341 638.882C304.318 640.428 307.509 641.571 309.708 642.328C310.807 642.706 311.658 642.989 312.236 643.176C312.525 643.27 312.746 643.341 312.894 643.388C312.969 643.411 313.025 643.429 313.064 643.441C313.083 643.447 313.097 643.451 313.107 643.454C313.112 643.456 313.116 643.457 313.119 643.458C313.12 643.458 313.121 643.459 313.122 643.459C313.123 643.459 313.123 643.459 313.417 642.503ZM188.914 563L189.673 562.349C165.771 534.446 149.564 507.018 139.334 486.569C134.219 476.345 130.599 467.868 128.26 461.951C127.09 458.993 126.24 456.675 125.684 455.099C125.406 454.311 125.201 453.708 125.066 453.304C124.998 453.102 124.948 452.949 124.915 452.848C124.899 452.797 124.887 452.759 124.879 452.734C124.875 452.722 124.872 452.713 124.87 452.707C124.869 452.704 124.868 452.702 124.868 452.7C124.868 452.7 124.868 452.699 124.867 452.699C124.867 452.699 124.867 452.699 123.914 453C122.96 453.301 122.96 453.302 122.961 453.302C122.961 453.303 122.961 453.304 122.961 453.305C122.962 453.307 122.963 453.309 122.964 453.313C122.966 453.32 122.97 453.331 122.974 453.344C122.983 453.372 122.996 453.412 123.013 453.466C123.048 453.572 123.099 453.73 123.169 453.937C123.307 454.352 123.516 454.965 123.798 455.764C124.362 457.362 125.22 459.704 126.4 462.686C128.758 468.651 132.401 477.182 137.545 487.464C147.831 508.025 164.124 535.597 188.154 563.65L188.914 563Z" fill="#1A1B1D"/>
<rect x="185.637" y="581.417" width="28" height="28" transform="rotate(-129.041 185.637 581.417)" fill="white"/>
<path d="M188.867 569.225L188.877 565.795H182.147V563.725L188.807 554.765H191.227V563.725H193.537V565.795H191.227V569.225H188.867ZM184.427 563.725H188.857V557.785L184.427 563.725Z" fill="black"/>
<path d="M319.306 17V9.762H320.972V10.798C321.084 10.6113 321.236 10.4317 321.427 10.259C321.623 10.0863 321.863 9.94633 322.148 9.839C322.433 9.73167 322.766 9.678 323.149 9.678C323.597 9.678 324.012 9.76667 324.395 9.944C324.782 10.1213 325.093 10.399 325.326 10.777C325.564 11.155 325.683 11.6427 325.683 12.24V17H323.975V12.443C323.975 11.967 323.844 11.6147 323.583 11.386C323.322 11.1527 322.993 11.036 322.596 11.036C322.325 11.036 322.069 11.0827 321.826 11.176C321.583 11.2647 321.385 11.4023 321.231 11.589C321.082 11.771 321.007 11.9997 321.007 12.275V17H319.306ZM329.561 17.14C329.099 17.14 328.684 17.056 328.315 16.888C327.951 16.7153 327.664 16.4703 327.454 16.153C327.249 15.831 327.146 15.4413 327.146 14.984C327.146 14.186 327.433 13.584 328.007 13.178C328.586 12.772 329.505 12.5597 330.765 12.541L331.85 12.513V12.023C331.85 11.6403 331.736 11.3417 331.507 11.127C331.283 10.9077 330.933 10.8003 330.457 10.805C330.102 10.8097 329.78 10.8937 329.491 11.057C329.202 11.2157 329.01 11.484 328.917 11.862H327.468C327.496 11.3673 327.638 10.9543 327.895 10.623C328.156 10.287 328.513 10.0373 328.966 9.874C329.419 9.706 329.941 9.622 330.534 9.622C331.225 9.622 331.787 9.713 332.221 9.895C332.655 10.077 332.975 10.3407 333.18 10.686C333.385 11.0267 333.488 11.4397 333.488 11.925V17H332.053L331.913 15.698C331.656 16.244 331.327 16.622 330.926 16.832C330.529 17.0373 330.074 17.14 329.561 17.14ZM330.114 15.985C330.324 15.985 330.532 15.9477 330.737 15.873C330.942 15.7937 331.127 15.6887 331.29 15.558C331.458 15.4227 331.591 15.2733 331.689 15.11C331.792 14.9467 331.845 14.7763 331.85 14.599V13.458L330.961 13.472C330.522 13.4767 330.137 13.5233 329.806 13.612C329.479 13.7007 329.225 13.843 329.043 14.039C328.861 14.2303 328.77 14.487 328.77 14.809C328.77 15.1777 328.898 15.467 329.155 15.677C329.412 15.8823 329.731 15.985 330.114 15.985ZM335.302 17V9.762H336.961V10.798C337.171 10.4807 337.456 10.2053 337.815 9.972C338.179 9.73867 338.641 9.622 339.201 9.622C339.458 9.622 339.717 9.66633 339.978 9.755C340.244 9.84367 340.489 9.97433 340.713 10.147C340.942 10.3197 341.124 10.5343 341.259 10.791C341.488 10.4503 341.791 10.1703 342.169 9.951C342.552 9.73167 342.981 9.622 343.457 9.622C343.718 9.622 343.987 9.664 344.262 9.748C344.542 9.832 344.799 9.972 345.032 10.168C345.265 10.364 345.454 10.6323 345.599 10.973C345.744 11.309 345.816 11.7313 345.816 12.24V17H344.115V12.443C344.115 12.0837 344.052 11.8013 343.926 11.596C343.8 11.3907 343.637 11.246 343.436 11.162C343.24 11.0733 343.03 11.029 342.806 11.029C342.605 11.029 342.395 11.0687 342.176 11.148C341.961 11.2273 341.777 11.358 341.623 11.54C341.474 11.722 341.399 11.967 341.399 12.275V17H339.698V12.17C339.698 11.918 339.633 11.708 339.502 11.54C339.371 11.372 339.206 11.246 339.005 11.162C338.809 11.0733 338.608 11.029 338.403 11.029C338.193 11.029 337.978 11.0733 337.759 11.162C337.544 11.2507 337.365 11.386 337.22 11.568C337.075 11.75 337.003 11.9857 337.003 12.275V17H335.302ZM350.847 17.14C350.151 17.14 349.538 16.993 349.006 16.699C348.478 16.4003 348.065 15.9757 347.767 15.425C347.473 14.8743 347.326 14.2187 347.326 13.458C347.326 12.716 347.459 12.058 347.725 11.484C347.995 10.9053 348.385 10.4503 348.894 10.119C349.407 9.78767 350.025 9.622 350.749 9.622C351.463 9.622 352.062 9.77367 352.548 10.077C353.033 10.3803 353.402 10.805 353.654 11.351C353.906 11.8923 354.032 12.527 354.032 13.255V13.773H349.027C349.022 14.1837 349.087 14.5477 349.223 14.865C349.358 15.1823 349.559 15.432 349.825 15.614C350.091 15.7913 350.42 15.88 350.812 15.88C351.213 15.88 351.561 15.7913 351.855 15.614C352.153 15.432 352.352 15.1567 352.45 14.788H354.004C353.92 15.292 353.719 15.719 353.402 16.069C353.089 16.419 352.706 16.685 352.254 16.867C351.806 17.049 351.337 17.14 350.847 17.14ZM349.02 12.716H352.422C352.422 12.366 352.359 12.051 352.233 11.771C352.111 11.4863 351.927 11.2623 351.68 11.099C351.432 10.931 351.12 10.847 350.742 10.847C350.368 10.847 350.053 10.938 349.797 11.12C349.54 11.302 349.346 11.5377 349.216 11.827C349.085 12.1117 349.02 12.408 349.02 12.716ZM355.421 11.932V9.986H357.346V11.932H355.421ZM355.421 16.958V15.026H357.346V16.958H355.421ZM364.865 10.525L365.67 8.698L365.005 8.649V6.878H366.867V8.432L365.558 10.525H364.865ZM362.079 10.525L362.87 8.698L362.212 8.649V6.878H364.074V8.432L362.765 10.525H362.079ZM368.866 17V6.878H370.532L375.488 14.109V6.878H377.189V17H375.656L370.567 9.573V17H368.866ZM382.268 17.14C381.577 17.14 380.975 16.993 380.462 16.699C379.948 16.4003 379.549 15.9733 379.265 15.418C378.985 14.8627 378.845 14.1953 378.845 13.416C378.845 12.66 378.982 11.9973 379.258 11.428C379.533 10.8587 379.925 10.4153 380.434 10.098C380.947 9.78067 381.561 9.622 382.275 9.622C382.965 9.622 383.565 9.77367 384.074 10.077C384.582 10.3803 384.974 10.8143 385.25 11.379C385.53 11.9437 385.67 12.6227 385.67 13.416C385.67 14.1487 385.537 14.795 385.271 15.355C385.009 15.9103 384.624 16.3467 384.116 16.664C383.612 16.9813 382.996 17.14 382.268 17.14ZM382.275 15.845C382.667 15.845 382.989 15.7377 383.241 15.523C383.497 15.3083 383.689 15.0143 383.815 14.641C383.941 14.2677 384.004 13.843 384.004 13.367C384.004 12.9237 383.948 12.5153 383.836 12.142C383.724 11.7687 383.539 11.47 383.283 11.246C383.031 11.0173 382.695 10.903 382.275 10.903C381.878 10.903 381.549 11.008 381.288 11.218C381.031 11.4233 380.84 11.7127 380.714 12.086C380.588 12.4547 380.525 12.8817 380.525 13.367C380.525 13.8057 380.581 14.214 380.693 14.592C380.805 14.9653 380.989 15.2687 381.246 15.502C381.502 15.7307 381.845 15.845 382.275 15.845ZM387.228 17V9.762H388.859V11.33C388.975 10.9707 389.141 10.665 389.356 10.413C389.575 10.1563 389.832 9.96033 390.126 9.825C390.42 9.68967 390.739 9.622 391.085 9.622C391.169 9.622 391.25 9.62667 391.33 9.636C391.409 9.64533 391.467 9.66167 391.505 9.685V11.316C391.453 11.2927 391.386 11.2763 391.302 11.267C391.222 11.2577 391.152 11.253 391.092 11.253C390.742 11.225 390.431 11.239 390.161 11.295C389.895 11.351 389.668 11.4467 389.482 11.582C389.3 11.7127 389.162 11.8807 389.069 12.086C388.975 12.2867 388.929 12.5223 388.929 12.793V17H387.228ZM395.629 17.056C395.055 17.056 394.609 16.9813 394.292 16.832C393.979 16.678 393.762 16.461 393.641 16.181C393.519 15.901 393.459 15.5673 393.459 15.18V10.966H392.283V9.762H393.508L393.935 7.613H395.16V9.755H396.777V10.966H395.16L395.167 15.117C395.167 15.3317 395.19 15.4903 395.237 15.593C395.288 15.691 395.367 15.7563 395.475 15.789C395.587 15.817 395.734 15.831 395.916 15.831H396.812V16.909C396.714 16.9463 396.569 16.979 396.378 17.007C396.191 17.0397 395.941 17.056 395.629 17.056ZM398.384 17V6.598H400.064V10.812C400.181 10.63 400.335 10.455 400.526 10.287C400.717 10.1143 400.951 9.97433 401.226 9.867C401.506 9.755 401.84 9.699 402.227 9.699C402.689 9.699 403.111 9.78767 403.494 9.965C403.877 10.1423 404.182 10.399 404.411 10.735C404.64 11.0663 404.754 11.463 404.754 11.925V17H403.046V12.212C403.046 11.8387 402.913 11.5493 402.647 11.344C402.386 11.1387 402.054 11.036 401.653 11.036C401.387 11.036 401.133 11.0827 400.89 11.176C400.647 11.2693 400.451 11.4093 400.302 11.596C400.157 11.778 400.085 12.0067 400.085 12.282V17H398.384ZM410.1 17V6.878H413.579C414.862 6.878 415.821 7.10667 416.456 7.564C417.095 8.01667 417.415 8.67 417.415 9.524C417.415 10.042 417.282 10.49 417.016 10.868C416.75 11.246 416.281 11.5657 415.609 11.827C416.02 11.925 416.358 12.0603 416.624 12.233C416.895 12.401 417.105 12.5947 417.254 12.814C417.403 13.0287 417.508 13.2597 417.569 13.507C417.63 13.7543 417.66 14.0087 417.66 14.27C417.66 15.194 417.338 15.88 416.694 16.328C416.055 16.776 415.063 17 413.719 17H410.1ZM411.801 15.642H413.74C414.459 15.642 415.002 15.5137 415.371 15.257C415.744 14.9957 415.931 14.62 415.931 14.13C415.931 13.7753 415.84 13.4837 415.658 13.255C415.476 13.0217 415.229 12.849 414.916 12.737C414.603 12.625 414.253 12.569 413.866 12.569H411.801V15.642ZM411.801 11.19H413.866C414.104 11.19 414.335 11.1643 414.559 11.113C414.783 11.0617 414.986 10.98 415.168 10.868C415.35 10.756 415.495 10.6067 415.602 10.42C415.714 10.2333 415.77 10.007 415.77 9.741C415.77 9.23233 415.576 8.85433 415.189 8.607C414.806 8.355 414.314 8.229 413.712 8.229H411.801V11.19ZM421.422 17.14C420.96 17.14 420.545 17.056 420.176 16.888C419.812 16.7153 419.525 16.4703 419.315 16.153C419.11 15.831 419.007 15.4413 419.007 14.984C419.007 14.186 419.294 13.584 419.868 13.178C420.447 12.772 421.366 12.5597 422.626 12.541L423.711 12.513V12.023C423.711 11.6403 423.597 11.3417 423.368 11.127C423.144 10.9077 422.794 10.8003 422.318 10.805C421.964 10.8097 421.642 10.8937 421.352 11.057C421.063 11.2157 420.872 11.484 420.778 11.862H419.329C419.357 11.3673 419.5 10.9543 419.756 10.623C420.018 10.287 420.375 10.0373 420.827 9.874C421.28 9.706 421.803 9.622 422.395 9.622C423.086 9.622 423.648 9.713 424.082 9.895C424.516 10.077 424.836 10.3407 425.041 10.686C425.247 11.0267 425.349 11.4397 425.349 11.925V17H423.914L423.774 15.698C423.518 16.244 423.189 16.622 422.787 16.832C422.391 17.0373 421.936 17.14 421.422 17.14ZM421.975 15.985C422.185 15.985 422.393 15.9477 422.598 15.873C422.804 15.7937 422.988 15.6887 423.151 15.558C423.319 15.4227 423.452 15.2733 423.55 15.11C423.653 14.9467 423.707 14.7763 423.711 14.599V13.458L422.822 13.472C422.384 13.4767 421.999 13.5233 421.667 13.612C421.341 13.7007 421.086 13.843 420.904 14.039C420.722 14.2303 420.631 14.487 420.631 14.809C420.631 15.1777 420.76 15.467 421.016 15.677C421.273 15.8823 421.593 15.985 421.975 15.985ZM427.163 17V9.762H428.829V10.798C428.941 10.6113 429.093 10.4317 429.284 10.259C429.48 10.0863 429.721 9.94633 430.005 9.839C430.29 9.73167 430.624 9.678 431.006 9.678C431.454 9.678 431.87 9.76667 432.252 9.944C432.64 10.1213 432.95 10.399 433.183 10.777C433.421 11.155 433.54 11.6427 433.54 12.24V17H431.832V12.443C431.832 11.967 431.702 11.6147 431.44 11.386C431.179 11.1527 430.85 11.036 430.453 11.036C430.183 11.036 429.926 11.0827 429.683 11.176C429.441 11.2647 429.242 11.4023 429.088 11.589C428.939 11.771 428.864 11.9997 428.864 12.275V17H427.163ZM435.366 17V6.598H437.06V13.045L440.063 9.762H441.932L439.314 12.59L442.065 17H440.336L438.236 13.647L437.06 14.879V17H435.366ZM445.884 10.525L446.689 8.698L446.024 8.649V6.878H447.886V8.432L446.577 10.525H445.884ZM443.098 10.525L443.889 8.698L443.231 8.649V6.878H445.093V8.432L443.784 10.525H443.098Z" fill="black"/>
<path d="M320.704 152.032L321.414 151.329L320.008 149.907L319.297 150.611L320.704 152.032ZM265.475 205.269L266.178 205.98L266.178 205.98L265.475 205.269ZM264.231 206.5L263.527 205.789L263.527 205.789L264.231 206.5ZM258.791 210.475C258.398 210.864 258.395 211.497 258.784 211.889C259.172 212.282 259.805 212.285 260.198 211.897L258.791 210.475ZM228.698 243.063C229.09 242.674 229.094 242.041 228.705 241.649C228.317 241.256 227.684 241.253 227.291 241.641L228.698 243.063ZM226.25 244.078L226.954 244.789L226.954 244.789L226.25 244.078ZM222.014 248.269L222.717 248.98L222.717 248.98L222.014 248.269ZM220.77 249.5L220.067 248.789L220.067 248.789L220.77 249.5ZM166.488 302.211C166.485 302.764 166.931 303.214 167.483 303.217L176.483 303.265C177.035 303.268 177.485 302.822 177.488 302.27C177.491 301.718 177.046 301.268 176.493 301.265L168.494 301.222L168.536 293.222C168.539 292.67 168.094 292.22 167.542 292.217C166.989 292.214 166.539 292.659 166.536 293.212L166.488 302.211ZM320 151.322L319.297 150.611L264.771 204.558L265.475 205.269L266.178 205.98L320.704 152.032L320 151.322ZM265.475 205.269L264.771 204.558L263.527 205.789L264.231 206.5L264.934 207.211L266.178 205.98L265.475 205.269ZM264.231 206.5L263.527 205.789L258.791 210.475L259.494 211.186L260.198 211.897L264.934 207.211L264.231 206.5ZM227.994 242.352L227.291 241.641L225.547 243.367L226.25 244.078L226.954 244.789L228.698 243.063L227.994 242.352ZM226.25 244.078L225.547 243.367L221.311 247.558L222.014 248.269L222.717 248.98L226.954 244.789L226.25 244.078ZM222.014 248.269L221.311 247.558L220.067 248.789L220.77 249.5L221.473 250.211L222.717 248.98L222.014 248.269ZM220.77 249.5L220.067 248.789L166.785 301.506L167.488 302.217L168.192 302.928L221.473 250.211L220.77 249.5Z" fill="#1A1B1D"/>
<path d="M243.952 233.989C243.032 233.989 242.176 233.839 241.382 233.539C240.596 233.232 239.916 232.812 239.342 232.279C238.776 231.746 238.352 231.136 238.072 230.449L240.042 229.409C240.289 229.902 240.582 230.346 240.922 230.739C241.269 231.132 241.672 231.442 242.132 231.669C242.599 231.889 243.132 231.999 243.732 231.999C244.672 231.999 245.426 231.739 245.992 231.219C246.566 230.692 246.852 229.992 246.852 229.119C246.852 228.579 246.719 228.099 246.452 227.679C246.192 227.259 245.836 226.932 245.382 226.699C244.936 226.459 244.426 226.339 243.852 226.339C243.512 226.339 243.192 226.369 242.892 226.429C242.599 226.489 242.302 226.602 242.002 226.769C241.702 226.929 241.379 227.172 241.032 227.499C240.966 227.532 240.916 227.549 240.882 227.549C240.856 227.542 240.806 227.522 240.732 227.489L238.862 226.729L239.522 219.309H248.512L248.422 221.339H241.502L241.172 225.359C241.686 224.999 242.202 224.739 242.722 224.579C243.242 224.419 243.816 224.339 244.442 224.339C245.362 224.339 246.199 224.519 246.952 224.879C247.706 225.239 248.306 225.769 248.752 226.469C249.199 227.169 249.422 228.026 249.422 229.039C249.422 230.052 249.196 230.929 248.742 231.669C248.296 232.409 247.662 232.982 246.842 233.389C246.029 233.789 245.066 233.989 243.952 233.989Z" fill="black" fill-opacity="0.8"/>
<path d="M1.23651 453V445.762H2.90251V446.798C3.01451 446.611 3.16617 446.432 3.35751 446.259C3.55351 446.086 3.79384 445.946 4.07851 445.839C4.36317 445.732 4.69684 445.678 5.07951 445.678C5.52751 445.678 5.94284 445.767 6.32551 445.944C6.71284 446.121 7.02317 446.399 7.25651 446.777C7.49451 447.155 7.61351 447.643 7.61351 448.24V453H5.90551V448.443C5.90551 447.967 5.77484 447.615 5.51351 447.386C5.25217 447.153 4.92317 447.036 4.52651 447.036C4.25584 447.036 3.99917 447.083 3.75651 447.176C3.51384 447.265 3.31551 447.402 3.16151 447.589C3.01217 447.771 2.93751 448 2.93751 448.275V453H1.23651ZM11.4916 453.14C11.0296 453.14 10.6143 453.056 10.2456 452.888C9.88162 452.715 9.59462 452.47 9.38462 452.153C9.17928 451.831 9.07662 451.441 9.07662 450.984C9.07662 450.186 9.36362 449.584 9.93762 449.178C10.5163 448.772 11.4356 448.56 12.6956 448.541L13.7806 448.513V448.023C13.7806 447.64 13.6663 447.342 13.4376 447.127C13.2136 446.908 12.8636 446.8 12.3876 446.805C12.033 446.81 11.711 446.894 11.4216 447.057C11.1323 447.216 10.941 447.484 10.8476 447.862H9.39862C9.42662 447.367 9.56895 446.954 9.82562 446.623C10.087 446.287 10.444 446.037 10.8966 445.874C11.3493 445.706 11.872 445.622 12.4646 445.622C13.1553 445.622 13.7176 445.713 14.1516 445.895C14.5856 446.077 14.9053 446.341 15.1106 446.686C15.316 447.027 15.4186 447.44 15.4186 447.925V453H13.9836L13.8436 451.698C13.587 452.244 13.258 452.622 12.8566 452.832C12.46 453.037 12.005 453.14 11.4916 453.14ZM12.0446 451.985C12.2546 451.985 12.4623 451.948 12.6676 451.873C12.873 451.794 13.0573 451.689 13.2206 451.558C13.3886 451.423 13.5216 451.273 13.6196 451.11C13.7223 450.947 13.776 450.776 13.7806 450.599V449.458L12.8916 449.472C12.453 449.477 12.068 449.523 11.7366 449.612C11.41 449.701 11.1556 449.843 10.9736 450.039C10.7916 450.23 10.7006 450.487 10.7006 450.809C10.7006 451.178 10.829 451.467 11.0856 451.677C11.3423 451.882 11.662 451.985 12.0446 451.985ZM17.2326 453V445.762H18.8916V446.798C19.1016 446.481 19.3863 446.205 19.7456 445.972C20.1096 445.739 20.5716 445.622 21.1316 445.622C21.3883 445.622 21.6473 445.666 21.9086 445.755C22.1746 445.844 22.4196 445.974 22.6436 446.147C22.8723 446.32 23.0543 446.534 23.1896 446.791C23.4183 446.45 23.7216 446.17 24.0996 445.951C24.4823 445.732 24.9116 445.622 25.3876 445.622C25.6489 445.622 25.9173 445.664 26.1926 445.748C26.4726 445.832 26.7293 445.972 26.9626 446.168C27.1959 446.364 27.3849 446.632 27.5296 446.973C27.6743 447.309 27.7466 447.731 27.7466 448.24V453H26.0456V448.443C26.0456 448.084 25.9826 447.801 25.8566 447.596C25.7306 447.391 25.5673 447.246 25.3666 447.162C25.1706 447.073 24.9606 447.029 24.7366 447.029C24.5359 447.029 24.3259 447.069 24.1066 447.148C23.8919 447.227 23.7076 447.358 23.5536 447.54C23.4043 447.722 23.3296 447.967 23.3296 448.275V453H21.6286V448.17C21.6286 447.918 21.5633 447.708 21.4326 447.54C21.3019 447.372 21.1363 447.246 20.9356 447.162C20.7396 447.073 20.5389 447.029 20.3336 447.029C20.1236 447.029 19.9089 447.073 19.6896 447.162C19.4749 447.251 19.2953 447.386 19.1506 447.568C19.0059 447.75 18.9336 447.986 18.9336 448.275V453H17.2326ZM32.7773 453.14C32.082 453.14 31.4683 452.993 30.9363 452.699C30.409 452.4 29.996 451.976 29.6973 451.425C29.4033 450.874 29.2563 450.219 29.2563 449.458C29.2563 448.716 29.3893 448.058 29.6553 447.484C29.926 446.905 30.3156 446.45 30.8243 446.119C31.3376 445.788 31.956 445.622 32.6793 445.622C33.3933 445.622 33.993 445.774 34.4783 446.077C34.9636 446.38 35.3323 446.805 35.5843 447.351C35.8363 447.892 35.9623 448.527 35.9623 449.255V449.773H30.9573C30.9526 450.184 31.018 450.548 31.1533 450.865C31.2886 451.182 31.4893 451.432 31.7553 451.614C32.0213 451.791 32.3503 451.88 32.7423 451.88C33.1436 451.88 33.4913 451.791 33.7853 451.614C34.084 451.432 34.2823 451.157 34.3803 450.788H35.9343C35.8503 451.292 35.6496 451.719 35.3323 452.069C35.0196 452.419 34.637 452.685 34.1843 452.867C33.7363 453.049 33.2673 453.14 32.7773 453.14ZM30.9503 448.716H34.3523C34.3523 448.366 34.2893 448.051 34.1633 447.771C34.042 447.486 33.8576 447.262 33.6103 447.099C33.363 446.931 33.0503 446.847 32.6723 446.847C32.299 446.847 31.984 446.938 31.7273 447.12C31.4706 447.302 31.277 447.538 31.1463 447.827C31.0156 448.112 30.9503 448.408 30.9503 448.716ZM37.352 447.932V445.986H39.277V447.932H37.352ZM37.352 452.958V451.026H39.277V452.958H37.352ZM46.7956 446.525L47.6006 444.698L46.9356 444.649V442.878H48.7976V444.432L47.4886 446.525H46.7956ZM44.0096 446.525L44.8006 444.698L44.1426 444.649V442.878H46.0046V444.432L44.6956 446.525H44.0096ZM50.7963 453V442.878H52.5673V447.785L56.6413 442.878H58.6223L55.4093 446.826L58.9583 453H57.0753L54.1843 448.065L52.5673 449.962V453H50.7963ZM60.3537 453V445.762H62.0197V446.798C62.1317 446.611 62.2834 446.432 62.4747 446.259C62.6707 446.086 62.911 445.946 63.1957 445.839C63.4804 445.732 63.814 445.678 64.1967 445.678C64.6447 445.678 65.06 445.767 65.4427 445.944C65.83 446.121 66.1404 446.399 66.3737 446.777C66.6117 447.155 66.7307 447.643 66.7307 448.24V453H65.0227V448.443C65.0227 447.967 64.892 447.615 64.6307 447.386C64.3694 447.153 64.0404 447.036 63.6437 447.036C63.373 447.036 63.1164 447.083 62.8737 447.176C62.631 447.265 62.4327 447.402 62.2787 447.589C62.1294 447.771 62.0547 448 62.0547 448.275V453H60.3537ZM71.7558 453.14C71.0605 453.14 70.4468 452.993 69.9148 452.699C69.3875 452.4 68.9745 451.976 68.6758 451.425C68.3818 450.874 68.2348 450.219 68.2348 449.458C68.2348 448.716 68.3678 448.058 68.6338 447.484C68.9045 446.905 69.2942 446.45 69.8028 446.119C70.3162 445.788 70.9345 445.622 71.6578 445.622C72.3718 445.622 72.9715 445.774 73.4568 446.077C73.9422 446.38 74.3108 446.805 74.5628 447.351C74.8148 447.892 74.9408 448.527 74.9408 449.255V449.773H69.9358C69.9312 450.184 69.9965 450.548 70.1318 450.865C70.2672 451.182 70.4678 451.432 70.7338 451.614C70.9998 451.791 71.3288 451.88 71.7208 451.88C72.1222 451.88 72.4698 451.791 72.7638 451.614C73.0625 451.432 73.2608 451.157 73.3588 450.788H74.9128C74.8288 451.292 74.6282 451.719 74.3108 452.069C73.9982 452.419 73.6155 452.685 73.1628 452.867C72.7148 453.049 72.2458 453.14 71.7558 453.14ZM69.9288 448.716H73.3308C73.3308 448.366 73.2678 448.051 73.1418 447.771C73.0205 447.486 72.8362 447.262 72.5888 447.099C72.3415 446.931 72.0288 446.847 71.6508 446.847C71.2775 446.847 70.9625 446.938 70.7058 447.12C70.4492 447.302 70.2555 447.538 70.1248 447.827C69.9942 448.112 69.9288 448.408 69.9288 448.716ZM76.5965 453V445.762H78.2275V453H76.5965ZM76.5685 444.495V442.885H78.2555V444.495H76.5685ZM80.2463 455.254V445.762H81.9473L81.9613 446.903C82.0546 446.744 82.1736 446.588 82.3183 446.434C82.4676 446.28 82.6379 446.142 82.8293 446.021C83.0253 445.9 83.2423 445.804 83.4803 445.734C83.7183 445.659 83.9796 445.622 84.2643 445.622C84.8196 445.622 85.3119 445.755 85.7413 446.021C86.1706 446.282 86.5066 446.686 86.7493 447.232C86.9966 447.778 87.1203 448.469 87.1203 449.304C87.1203 450.158 86.9943 450.87 86.7423 451.439C86.4903 452.008 86.1379 452.435 85.6853 452.72C85.2326 453 84.7076 453.14 84.1103 453.14C83.8349 453.14 83.5829 453.103 83.3543 453.028C83.1303 452.953 82.9296 452.851 82.7523 452.72C82.5749 452.589 82.4186 452.447 82.2833 452.293C82.1526 452.139 82.0429 451.978 81.9543 451.81V455.254H80.2463ZM83.7323 451.866C84.2456 451.866 84.6703 451.663 85.0063 451.257C85.3423 450.846 85.5103 450.205 85.5103 449.332C85.5103 448.576 85.3516 447.981 85.0343 447.547C84.7216 447.108 84.2876 446.889 83.7323 446.889C83.1349 446.889 82.6869 447.12 82.3883 447.582C82.0896 448.039 81.9403 448.623 81.9403 449.332C81.9403 449.789 82.0056 450.212 82.1363 450.599C82.2716 450.982 82.4699 451.29 82.7313 451.523C82.9973 451.752 83.3309 451.866 83.7323 451.866ZM88.6681 453V442.598H90.3481V446.812C90.4648 446.63 90.6188 446.455 90.8101 446.287C91.0015 446.114 91.2348 445.974 91.5101 445.867C91.7901 445.755 92.1238 445.699 92.5111 445.699C92.9731 445.699 93.3955 445.788 93.7781 445.965C94.1608 446.142 94.4665 446.399 94.6951 446.735C94.9238 447.066 95.0381 447.463 95.0381 447.925V453H93.3301V448.212C93.3301 447.839 93.1971 447.549 92.9311 447.344C92.6698 447.139 92.3385 447.036 91.9371 447.036C91.6711 447.036 91.4168 447.083 91.1741 447.176C90.9315 447.269 90.7355 447.409 90.5861 447.596C90.4415 447.778 90.3691 448.007 90.3691 448.282V453H88.6681ZM99.8956 453.14C99.2049 453.14 98.6029 452.993 98.0896 452.699C97.5763 452.4 97.1773 451.973 96.8926 451.418C96.6126 450.863 96.4726 450.195 96.4726 449.416C96.4726 448.66 96.6103 447.997 96.8856 447.428C97.1609 446.859 97.5529 446.415 98.0616 446.098C98.5749 445.781 99.1886 445.622 99.9026 445.622C100.593 445.622 101.193 445.774 101.702 446.077C102.21 446.38 102.602 446.814 102.878 447.379C103.158 447.944 103.298 448.623 103.298 449.416C103.298 450.149 103.165 450.795 102.899 451.355C102.637 451.91 102.252 452.347 101.744 452.664C101.24 452.981 100.624 453.14 99.8956 453.14ZM99.9026 451.845C100.295 451.845 100.617 451.738 100.869 451.523C101.125 451.308 101.317 451.014 101.443 450.641C101.569 450.268 101.632 449.843 101.632 449.367C101.632 448.924 101.576 448.515 101.464 448.142C101.352 447.769 101.167 447.47 100.911 447.246C100.659 447.017 100.323 446.903 99.9026 446.903C99.5059 446.903 99.1769 447.008 98.9156 447.218C98.6589 447.423 98.4676 447.713 98.3416 448.086C98.2156 448.455 98.1526 448.882 98.1526 449.367C98.1526 449.806 98.2086 450.214 98.3206 450.592C98.4326 450.965 98.6169 451.269 98.8736 451.502C99.1303 451.731 99.4733 451.845 99.9026 451.845ZM105.492 453V446.966H104.064V445.762H105.492V444.684C105.492 444.105 105.65 443.66 105.968 443.347C106.29 443.034 106.754 442.878 107.361 442.878H108.887L108.894 444.04H107.886C107.61 444.04 107.421 444.112 107.319 444.257C107.216 444.397 107.165 444.619 107.165 444.922V445.762H108.824V446.966H107.193V453H105.492ZM112.954 446.525L113.759 444.698L113.094 444.649V442.878H114.956V444.432L113.647 446.525H112.954ZM110.168 446.525L110.959 444.698L110.301 444.649V442.878H112.163V444.432L110.854 446.525H110.168Z" fill="black"/>
<path d="M619.254 453V445.762H620.92V446.798C621.032 446.611 621.184 446.432 621.375 446.259C621.571 446.086 621.811 445.946 622.096 445.839C622.381 445.732 622.714 445.678 623.097 445.678C623.545 445.678 623.96 445.767 624.343 445.944C624.73 446.121 625.041 446.399 625.274 446.777C625.512 447.155 625.631 447.643 625.631 448.24V453H623.923V448.443C623.923 447.967 623.792 447.615 623.531 447.386C623.27 447.153 622.941 447.036 622.544 447.036C622.273 447.036 622.017 447.083 621.774 447.176C621.531 447.265 621.333 447.402 621.179 447.589C621.03 447.771 620.955 448 620.955 448.275V453H619.254ZM629.509 453.14C629.047 453.14 628.632 453.056 628.263 452.888C627.899 452.715 627.612 452.47 627.402 452.153C627.197 451.831 627.094 451.441 627.094 450.984C627.094 450.186 627.381 449.584 627.955 449.178C628.534 448.772 629.453 448.56 630.713 448.541L631.798 448.513V448.023C631.798 447.64 631.684 447.342 631.455 447.127C631.231 446.908 630.881 446.8 630.405 446.805C630.051 446.81 629.729 446.894 629.439 447.057C629.15 447.216 628.959 447.484 628.865 447.862H627.416C627.444 447.367 627.587 446.954 627.843 446.623C628.105 446.287 628.462 446.037 628.914 445.874C629.367 445.706 629.89 445.622 630.482 445.622C631.173 445.622 631.735 445.713 632.169 445.895C632.603 446.077 632.923 446.341 633.128 446.686C633.334 447.027 633.436 447.44 633.436 447.925V453H632.001L631.861 451.698C631.605 452.244 631.276 452.622 630.874 452.832C630.478 453.037 630.023 453.14 629.509 453.14ZM630.062 451.985C630.272 451.985 630.48 451.948 630.685 451.873C630.891 451.794 631.075 451.689 631.238 451.558C631.406 451.423 631.539 451.273 631.637 451.11C631.74 450.947 631.794 450.776 631.798 450.599V449.458L630.909 449.472C630.471 449.477 630.086 449.523 629.754 449.612C629.428 449.701 629.173 449.843 628.991 450.039C628.809 450.23 628.718 450.487 628.718 450.809C628.718 451.178 628.847 451.467 629.103 451.677C629.36 451.882 629.68 451.985 630.062 451.985ZM635.25 453V445.762H636.909V446.798C637.119 446.481 637.404 446.205 637.763 445.972C638.127 445.739 638.589 445.622 639.149 445.622C639.406 445.622 639.665 445.666 639.926 445.755C640.192 445.844 640.437 445.974 640.661 446.147C640.89 446.32 641.072 446.534 641.207 446.791C641.436 446.45 641.739 446.17 642.117 445.951C642.5 445.732 642.929 445.622 643.405 445.622C643.667 445.622 643.935 445.664 644.21 445.748C644.49 445.832 644.747 445.972 644.98 446.168C645.214 446.364 645.403 446.632 645.547 446.973C645.692 447.309 645.764 447.731 645.764 448.24V453H644.063V448.443C644.063 448.084 644 447.801 643.874 447.596C643.748 447.391 643.585 447.246 643.384 447.162C643.188 447.073 642.978 447.029 642.754 447.029C642.554 447.029 642.344 447.069 642.124 447.148C641.91 447.227 641.725 447.358 641.571 447.54C641.422 447.722 641.347 447.967 641.347 448.275V453H639.646V448.17C639.646 447.918 639.581 447.708 639.45 447.54C639.32 447.372 639.154 447.246 638.953 447.162C638.757 447.073 638.557 447.029 638.351 447.029C638.141 447.029 637.927 447.073 637.707 447.162C637.493 447.251 637.313 447.386 637.168 447.568C637.024 447.75 636.951 447.986 636.951 448.275V453H635.25ZM650.795 453.14C650.1 453.14 649.486 452.993 648.954 452.699C648.427 452.4 648.014 451.976 647.715 451.425C647.421 450.874 647.274 450.219 647.274 449.458C647.274 448.716 647.407 448.058 647.673 447.484C647.944 446.905 648.333 446.45 648.842 446.119C649.355 445.788 649.974 445.622 650.697 445.622C651.411 445.622 652.011 445.774 652.496 446.077C652.981 446.38 653.35 446.805 653.602 447.351C653.854 447.892 653.98 448.527 653.98 449.255V449.773H648.975C648.97 450.184 649.036 450.548 649.171 450.865C649.306 451.182 649.507 451.432 649.773 451.614C650.039 451.791 650.368 451.88 650.76 451.88C651.161 451.88 651.509 451.791 651.803 451.614C652.102 451.432 652.3 451.157 652.398 450.788H653.952C653.868 451.292 653.667 451.719 653.35 452.069C653.037 452.419 652.655 452.685 652.202 452.867C651.754 453.049 651.285 453.14 650.795 453.14ZM648.968 448.716H652.37C652.37 448.366 652.307 448.051 652.181 447.771C652.06 447.486 651.875 447.262 651.628 447.099C651.381 446.931 651.068 446.847 650.69 446.847C650.317 446.847 650.002 446.938 649.745 447.12C649.488 447.302 649.295 447.538 649.164 447.827C649.033 448.112 648.968 448.408 648.968 448.716ZM655.37 447.932V445.986H657.295V447.932H655.37ZM655.37 452.958V451.026H657.295V452.958H655.37ZM664.813 446.525L665.618 444.698L664.953 444.649V442.878H666.815V444.432L665.506 446.525H664.813ZM662.027 446.525L662.818 444.698L662.16 444.649V442.878H664.022V444.432L662.713 446.525H662.027ZM668.814 453L668.821 442.878H670.543V451.53H675.114V453H668.814ZM679.468 453.14C678.777 453.14 678.175 452.993 677.662 452.699C677.149 452.4 676.75 451.973 676.465 451.418C676.185 450.863 676.045 450.195 676.045 449.416C676.045 448.66 676.183 447.997 676.458 447.428C676.733 446.859 677.125 446.415 677.634 446.098C678.147 445.781 678.761 445.622 679.475 445.622C680.166 445.622 680.765 445.774 681.274 446.077C681.783 446.38 682.175 446.814 682.45 447.379C682.73 447.944 682.87 448.623 682.87 449.416C682.87 450.149 682.737 450.795 682.471 451.355C682.21 451.91 681.825 452.347 681.316 452.664C680.812 452.981 680.196 453.14 679.468 453.14ZM679.475 451.845C679.867 451.845 680.189 451.738 680.441 451.523C680.698 451.308 680.889 451.014 681.015 450.641C681.141 450.268 681.204 449.843 681.204 449.367C681.204 448.924 681.148 448.515 681.036 448.142C680.924 447.769 680.74 447.47 680.483 447.246C680.231 447.017 679.895 446.903 679.475 446.903C679.078 446.903 678.749 447.008 678.488 447.218C678.231 447.423 678.04 447.713 677.914 448.086C677.788 448.455 677.725 448.882 677.725 449.367C677.725 449.806 677.781 450.214 677.893 450.592C678.005 450.965 678.189 451.269 678.446 451.502C678.703 451.731 679.046 451.845 679.475 451.845ZM684.428 453V445.762H686.087V446.798C686.297 446.481 686.582 446.205 686.941 445.972C687.305 445.739 687.767 445.622 688.327 445.622C688.584 445.622 688.843 445.666 689.104 445.755C689.37 445.844 689.615 445.974 689.839 446.147C690.068 446.32 690.25 446.534 690.385 446.791C690.614 446.45 690.917 446.17 691.295 445.951C691.678 445.732 692.107 445.622 692.583 445.622C692.844 445.622 693.113 445.664 693.388 445.748C693.668 445.832 693.925 445.972 694.158 446.168C694.391 446.364 694.58 446.632 694.725 446.973C694.87 447.309 694.942 447.731 694.942 448.24V453H693.241V448.443C693.241 448.084 693.178 447.801 693.052 447.596C692.926 447.391 692.763 447.246 692.562 447.162C692.366 447.073 692.156 447.029 691.932 447.029C691.731 447.029 691.521 447.069 691.302 447.148C691.087 447.227 690.903 447.358 690.749 447.54C690.6 447.722 690.525 447.967 690.525 448.275V453H688.824V448.17C688.824 447.918 688.759 447.708 688.628 447.54C688.497 447.372 688.332 447.246 688.131 447.162C687.935 447.073 687.734 447.029 687.529 447.029C687.319 447.029 687.104 447.073 686.885 447.162C686.67 447.251 686.491 447.386 686.346 447.568C686.201 447.75 686.129 447.986 686.129 448.275V453H684.428ZM699.477 453.14C698.973 453.14 698.495 453.061 698.042 452.902C697.594 452.739 697.216 452.484 696.908 452.139C696.605 451.794 696.414 451.348 696.334 450.802H697.832C697.898 451.068 698.012 451.285 698.175 451.453C698.343 451.621 698.539 451.745 698.763 451.824C698.992 451.899 699.228 451.936 699.47 451.936C699.904 451.936 700.254 451.861 700.52 451.712C700.786 451.563 700.919 451.332 700.919 451.019C700.919 450.79 700.845 450.608 700.695 450.473C700.551 450.338 700.313 450.235 699.981 450.165L698.609 449.85C697.993 449.715 697.501 449.491 697.132 449.178C696.764 448.865 696.577 448.424 696.572 447.855C696.568 447.426 696.675 447.043 696.894 446.707C697.114 446.371 697.44 446.107 697.874 445.916C698.308 445.72 698.843 445.622 699.477 445.622C700.322 445.622 700.999 445.811 701.507 446.189C702.021 446.562 702.284 447.097 702.298 447.792H700.849C700.798 447.479 700.651 447.237 700.408 447.064C700.166 446.887 699.851 446.798 699.463 446.798C699.062 446.798 698.733 446.875 698.476 447.029C698.22 447.183 698.091 447.419 698.091 447.736C698.091 447.955 698.187 448.128 698.378 448.254C698.574 448.38 698.871 448.487 699.267 448.576L700.569 448.891C700.943 448.984 701.248 449.11 701.486 449.269C701.724 449.428 701.909 449.603 702.039 449.794C702.175 449.981 702.268 450.174 702.319 450.375C702.375 450.571 702.403 450.753 702.403 450.921C702.403 451.388 702.282 451.787 702.039 452.118C701.801 452.445 701.463 452.697 701.024 452.874C700.59 453.051 700.075 453.14 699.477 453.14ZM707.15 453.14C706.455 453.14 705.841 452.993 705.309 452.699C704.782 452.4 704.369 451.976 704.07 451.425C703.776 450.874 703.629 450.219 703.629 449.458C703.629 448.716 703.762 448.058 704.028 447.484C704.299 446.905 704.689 446.45 705.197 446.119C705.711 445.788 706.329 445.622 707.052 445.622C707.766 445.622 708.366 445.774 708.851 446.077C709.337 446.38 709.705 446.805 709.957 447.351C710.209 447.892 710.335 448.527 710.335 449.255V449.773H705.33C705.326 450.184 705.391 450.548 705.526 450.865C705.662 451.182 705.862 451.432 706.128 451.614C706.394 451.791 706.723 451.88 707.115 451.88C707.517 451.88 707.864 451.791 708.158 451.614C708.457 451.432 708.655 451.157 708.753 450.788H710.307C710.223 451.292 710.023 451.719 709.705 452.069C709.393 452.419 709.01 452.685 708.557 452.867C708.109 453.049 707.64 453.14 707.15 453.14ZM705.323 448.716H708.725C708.725 448.366 708.662 448.051 708.536 447.771C708.415 447.486 708.231 447.262 707.983 447.099C707.736 446.931 707.423 446.847 707.045 446.847C706.672 446.847 706.357 446.938 706.1 447.12C705.844 447.302 705.65 447.538 705.519 447.827C705.389 448.112 705.323 448.408 705.323 448.716ZM713.936 446.525L714.741 444.698L714.076 444.649V442.878H715.938V444.432L714.629 446.525H713.936ZM711.15 446.525L711.941 444.698L711.283 444.649V442.878H713.145V444.432L711.836 446.525H711.15Z" fill="black"/>
<path d="M319.013 736V728.762H320.679V729.798C320.791 729.611 320.943 729.432 321.134 729.259C321.33 729.086 321.57 728.946 321.855 728.839C322.14 728.732 322.473 728.678 322.856 728.678C323.304 728.678 323.719 728.767 324.102 728.944C324.489 729.121 324.8 729.399 325.033 729.777C325.271 730.155 325.39 730.643 325.39 731.24V736H323.682V731.443C323.682 730.967 323.551 730.615 323.29 730.386C323.029 730.153 322.7 730.036 322.303 730.036C322.032 730.036 321.776 730.083 321.533 730.176C321.29 730.265 321.092 730.402 320.938 730.589C320.789 730.771 320.714 731 320.714 731.275V736H319.013ZM329.268 736.14C328.806 736.14 328.391 736.056 328.022 735.888C327.658 735.715 327.371 735.47 327.161 735.153C326.956 734.831 326.853 734.441 326.853 733.984C326.853 733.186 327.14 732.584 327.714 732.178C328.293 731.772 329.212 731.56 330.472 731.541L331.557 731.513V731.023C331.557 730.64 331.443 730.342 331.214 730.127C330.99 729.908 330.64 729.8 330.164 729.805C329.809 729.81 329.487 729.894 329.198 730.057C328.909 730.216 328.717 730.484 328.624 730.862H327.175C327.203 730.367 327.345 729.954 327.602 729.623C327.863 729.287 328.22 729.037 328.673 728.874C329.126 728.706 329.648 728.622 330.241 728.622C330.932 728.622 331.494 728.713 331.928 728.895C332.362 729.077 332.682 729.341 332.887 729.686C333.092 730.027 333.195 730.44 333.195 730.925V736H331.76L331.62 734.698C331.363 735.244 331.034 735.622 330.633 735.832C330.236 736.037 329.781 736.14 329.268 736.14ZM329.821 734.985C330.031 734.985 330.239 734.948 330.444 734.873C330.649 734.794 330.834 734.689 330.997 734.558C331.165 734.423 331.298 734.273 331.396 734.11C331.499 733.947 331.552 733.776 331.557 733.599V732.458L330.668 732.472C330.229 732.477 329.844 732.523 329.513 732.612C329.186 732.701 328.932 732.843 328.75 733.039C328.568 733.23 328.477 733.487 328.477 733.809C328.477 734.178 328.605 734.467 328.862 734.677C329.119 734.882 329.438 734.985 329.821 734.985ZM335.009 736V728.762H336.668V729.798C336.878 729.481 337.163 729.205 337.522 728.972C337.886 728.739 338.348 728.622 338.908 728.622C339.165 728.622 339.424 728.666 339.685 728.755C339.951 728.844 340.196 728.974 340.42 729.147C340.649 729.32 340.831 729.534 340.966 729.791C341.195 729.45 341.498 729.17 341.876 728.951C342.259 728.732 342.688 728.622 343.164 728.622C343.425 728.622 343.694 728.664 343.969 728.748C344.249 728.832 344.506 728.972 344.739 729.168C344.972 729.364 345.161 729.632 345.306 729.973C345.451 730.309 345.523 730.731 345.523 731.24V736H343.822V731.443C343.822 731.084 343.759 730.801 343.633 730.596C343.507 730.391 343.344 730.246 343.143 730.162C342.947 730.073 342.737 730.029 342.513 730.029C342.312 730.029 342.102 730.069 341.883 730.148C341.668 730.227 341.484 730.358 341.33 730.54C341.181 730.722 341.106 730.967 341.106 731.275V736H339.405V731.17C339.405 730.918 339.34 730.708 339.209 730.54C339.078 730.372 338.913 730.246 338.712 730.162C338.516 730.073 338.315 730.029 338.11 730.029C337.9 730.029 337.685 730.073 337.466 730.162C337.251 730.251 337.072 730.386 336.927 730.568C336.782 730.75 336.71 730.986 336.71 731.275V736H335.009ZM350.554 736.14C349.858 736.14 349.245 735.993 348.713 735.699C348.185 735.4 347.772 734.976 347.474 734.425C347.18 733.874 347.033 733.219 347.033 732.458C347.033 731.716 347.166 731.058 347.432 730.484C347.702 729.905 348.092 729.45 348.601 729.119C349.114 728.788 349.732 728.622 350.456 728.622C351.17 728.622 351.769 728.774 352.255 729.077C352.74 729.38 353.109 729.805 353.361 730.351C353.613 730.892 353.739 731.527 353.739 732.255V732.773H348.734C348.729 733.184 348.794 733.548 348.93 733.865C349.065 734.182 349.266 734.432 349.532 734.614C349.798 734.791 350.127 734.88 350.519 734.88C350.92 734.88 351.268 734.791 351.562 734.614C351.86 734.432 352.059 734.157 352.157 733.788H353.711C353.627 734.292 353.426 734.719 353.109 735.069C352.796 735.419 352.413 735.685 351.961 735.867C351.513 736.049 351.044 736.14 350.554 736.14ZM348.727 731.716H352.129C352.129 731.366 352.066 731.051 351.94 730.771C351.818 730.486 351.634 730.262 351.387 730.099C351.139 729.931 350.827 729.847 350.449 729.847C350.075 729.847 349.76 729.938 349.504 730.12C349.247 730.302 349.053 730.538 348.923 730.827C348.792 731.112 348.727 731.408 348.727 731.716ZM355.128 730.932V728.986H357.053V730.932H355.128ZM355.128 735.958V734.026H357.053V735.958H355.128ZM364.572 729.525L365.377 727.698L364.712 727.649V725.878H366.574V727.432L365.265 729.525H364.572ZM361.786 729.525L362.577 727.698L361.919 727.649V725.878H363.781V727.432L362.472 729.525H361.786ZM372.206 736.14C371.702 736.14 371.219 736.079 370.757 735.958C370.295 735.832 369.872 735.648 369.49 735.405C369.112 735.158 368.799 734.852 368.552 734.488C368.304 734.119 368.153 733.69 368.097 733.2H369.861C369.935 733.541 370.082 733.828 370.302 734.061C370.526 734.294 370.808 734.472 371.149 734.593C371.489 734.714 371.87 734.775 372.29 734.775C372.663 734.775 373.011 734.719 373.333 734.607C373.655 734.495 373.916 734.329 374.117 734.11C374.317 733.886 374.418 733.611 374.418 733.284C374.418 732.915 374.287 732.628 374.026 732.423C373.769 732.213 373.4 732.047 372.92 731.926L370.939 731.457C370.425 731.34 369.977 731.17 369.595 730.946C369.217 730.722 368.923 730.428 368.713 730.064C368.503 729.695 368.398 729.245 368.398 728.713C368.398 728.106 368.563 727.581 368.895 727.138C369.231 726.695 369.686 726.354 370.26 726.116C370.834 725.873 371.48 725.752 372.199 725.752C373.02 725.752 373.713 725.89 374.278 726.165C374.842 726.436 375.272 726.8 375.566 727.257C375.86 727.714 376.009 728.216 376.014 728.762H374.292C374.254 728.356 374.135 728.036 373.935 727.803C373.734 727.565 373.48 727.392 373.172 727.285C372.864 727.178 372.523 727.124 372.15 727.124C371.487 727.124 370.995 727.266 370.673 727.551C370.351 727.836 370.19 728.169 370.19 728.552C370.19 728.911 370.309 729.196 370.547 729.406C370.785 729.616 371.149 729.779 371.639 729.896L373.522 730.337C374.152 730.468 374.658 730.668 375.041 730.939C375.423 731.21 375.701 731.532 375.874 731.905C376.051 732.274 376.14 732.682 376.14 733.13C376.14 733.718 375.972 734.238 375.636 734.691C375.304 735.144 374.845 735.498 374.257 735.755C373.669 736.012 372.985 736.14 372.206 736.14ZM380.854 736.14C380.163 736.14 379.561 735.993 379.048 735.699C378.534 735.4 378.135 734.973 377.851 734.418C377.571 733.863 377.431 733.195 377.431 732.416C377.431 731.66 377.568 730.997 377.844 730.428C378.119 729.859 378.511 729.415 379.02 729.098C379.533 728.781 380.147 728.622 380.861 728.622C381.551 728.622 382.151 728.774 382.66 729.077C383.168 729.38 383.56 729.814 383.836 730.379C384.116 730.944 384.256 731.623 384.256 732.416C384.256 733.149 384.123 733.795 383.857 734.355C383.595 734.91 383.21 735.347 382.702 735.664C382.198 735.981 381.582 736.14 380.854 736.14ZM380.861 734.845C381.253 734.845 381.575 734.738 381.827 734.523C382.083 734.308 382.275 734.014 382.401 733.641C382.527 733.268 382.59 732.843 382.59 732.367C382.59 731.924 382.534 731.515 382.422 731.142C382.31 730.769 382.125 730.47 381.869 730.246C381.617 730.017 381.281 729.903 380.861 729.903C380.464 729.903 380.135 730.008 379.874 730.218C379.617 730.423 379.426 730.713 379.3 731.086C379.174 731.455 379.111 731.882 379.111 732.367C379.111 732.806 379.167 733.214 379.279 733.592C379.391 733.965 379.575 734.269 379.832 734.502C380.088 734.731 380.431 734.845 380.861 734.845ZM388.433 736.14C388.078 736.14 387.735 736.089 387.404 735.986C387.077 735.879 386.783 735.725 386.522 735.524C386.26 735.319 386.053 735.067 385.899 734.768C385.745 734.469 385.668 734.122 385.668 733.725V728.762H387.376V733.529C387.376 733.921 387.499 734.243 387.747 734.495C387.999 734.747 388.377 734.873 388.881 734.873C389.338 734.873 389.704 734.754 389.98 734.516C390.255 734.273 390.393 733.926 390.393 733.473V728.762H392.087V736H390.778L390.589 734.586C390.5 734.983 390.344 735.295 390.12 735.524C389.9 735.748 389.641 735.907 389.343 736C389.049 736.093 388.745 736.14 388.433 736.14ZM396.922 736.056C396.348 736.056 395.902 735.981 395.585 735.832C395.272 735.678 395.055 735.461 394.934 735.181C394.812 734.901 394.752 734.567 394.752 734.18V729.966H393.576V728.762H394.801L395.228 726.613H396.453V728.755H398.07V729.966H396.453L396.46 734.117C396.46 734.332 396.483 734.49 396.53 734.593C396.581 734.691 396.66 734.756 396.768 734.789C396.88 734.817 397.027 734.831 397.209 734.831H398.105V735.909C398.007 735.946 397.862 735.979 397.671 736.007C397.484 736.04 397.234 736.056 396.922 736.056ZM399.677 736V725.598H401.357V729.812C401.474 729.63 401.628 729.455 401.819 729.287C402.01 729.114 402.244 728.974 402.519 728.867C402.799 728.755 403.133 728.699 403.52 728.699C403.982 728.699 404.404 728.788 404.787 728.965C405.17 729.142 405.475 729.399 405.704 729.735C405.933 730.066 406.047 730.463 406.047 730.925V736H404.339V731.212C404.339 730.839 404.206 730.549 403.94 730.344C403.679 730.139 403.347 730.036 402.946 730.036C402.68 730.036 402.426 730.083 402.183 730.176C401.94 730.269 401.744 730.409 401.595 730.596C401.45 730.778 401.378 731.007 401.378 731.282V736H399.677ZM411.393 736V725.878H414.872C416.155 725.878 417.114 726.107 417.749 726.564C418.388 727.017 418.708 727.67 418.708 728.524C418.708 729.042 418.575 729.49 418.309 729.868C418.043 730.246 417.574 730.566 416.902 730.827C417.313 730.925 417.651 731.06 417.917 731.233C418.188 731.401 418.398 731.595 418.547 731.814C418.696 732.029 418.801 732.26 418.862 732.507C418.923 732.754 418.953 733.009 418.953 733.27C418.953 734.194 418.631 734.88 417.987 735.328C417.348 735.776 416.356 736 415.012 736H411.393ZM413.094 734.642H415.033C415.752 734.642 416.295 734.514 416.664 734.257C417.037 733.996 417.224 733.62 417.224 733.13C417.224 732.775 417.133 732.484 416.951 732.255C416.769 732.022 416.522 731.849 416.209 731.737C415.896 731.625 415.546 731.569 415.159 731.569H413.094V734.642ZM413.094 730.19H415.159C415.397 730.19 415.628 730.164 415.852 730.113C416.076 730.062 416.279 729.98 416.461 729.868C416.643 729.756 416.788 729.607 416.895 729.42C417.007 729.233 417.063 729.007 417.063 728.741C417.063 728.232 416.869 727.854 416.482 727.607C416.099 727.355 415.607 727.229 415.005 727.229H413.094V730.19ZM422.715 736.14C422.253 736.14 421.838 736.056 421.469 735.888C421.105 735.715 420.818 735.47 420.608 735.153C420.403 734.831 420.3 734.441 420.3 733.984C420.3 733.186 420.587 732.584 421.161 732.178C421.74 731.772 422.659 731.56 423.919 731.541L425.004 731.513V731.023C425.004 730.64 424.89 730.342 424.661 730.127C424.437 729.908 424.087 729.8 423.611 729.805C423.257 729.81 422.935 729.894 422.645 730.057C422.356 730.216 422.165 730.484 422.071 730.862H420.622C420.65 730.367 420.793 729.954 421.049 729.623C421.311 729.287 421.668 729.037 422.12 728.874C422.573 728.706 423.096 728.622 423.688 728.622C424.379 728.622 424.941 728.713 425.375 728.895C425.809 729.077 426.129 729.341 426.334 729.686C426.54 730.027 426.642 730.44 426.642 730.925V736H425.207L425.067 734.698C424.811 735.244 424.482 735.622 424.08 735.832C423.684 736.037 423.229 736.14 422.715 736.14ZM423.268 734.985C423.478 734.985 423.686 734.948 423.891 734.873C424.097 734.794 424.281 734.689 424.444 734.558C424.612 734.423 424.745 734.273 424.843 734.11C424.946 733.947 425 733.776 425.004 733.599V732.458L424.115 732.472C423.677 732.477 423.292 732.523 422.96 732.612C422.634 732.701 422.379 732.843 422.197 733.039C422.015 733.23 421.924 733.487 421.924 733.809C421.924 734.178 422.053 734.467 422.309 734.677C422.566 734.882 422.886 734.985 423.268 734.985ZM428.456 736V728.762H430.122V729.798C430.234 729.611 430.386 729.432 430.577 729.259C430.773 729.086 431.014 728.946 431.298 728.839C431.583 728.732 431.917 728.678 432.299 728.678C432.747 728.678 433.163 728.767 433.545 728.944C433.933 729.121 434.243 729.399 434.476 729.777C434.714 730.155 434.833 730.643 434.833 731.24V736H433.125V731.443C433.125 730.967 432.995 730.615 432.733 730.386C432.472 730.153 432.143 730.036 431.746 730.036C431.476 730.036 431.219 730.083 430.976 730.176C430.734 730.265 430.535 730.402 430.381 730.589C430.232 730.771 430.157 731 430.157 731.275V736H428.456ZM436.659 736V725.598H438.353V732.045L441.356 728.762H443.225L440.607 731.59L443.358 736H441.629L439.529 732.647L438.353 733.879V736H436.659ZM447.177 729.525L447.982 727.698L447.317 727.649V725.878H449.179V727.432L447.87 729.525H447.177ZM444.391 729.525L445.182 727.698L444.524 727.649V725.878H446.386V727.432L445.077 729.525H444.391Z" fill="black"/>
<path d="M450.485 152.556C449.933 152.56 449.488 153.011 449.492 153.563L449.556 162.563C449.56 163.115 450.011 163.56 450.563 163.556C451.115 163.552 451.56 163.101 451.556 162.549L451.499 154.549L459.499 154.492C460.051 154.488 460.496 154.037 460.492 153.485C460.488 152.933 460.037 152.488 459.485 152.492L450.485 152.556ZM502.944 205.269L503.646 204.557L503.646 204.557L502.944 205.269ZM504.193 206.5L503.491 207.212L503.491 207.212L504.193 206.5ZM508 210.254L507.298 210.966L507.298 210.966L508 210.254ZM510.048 213.677C510.441 214.065 511.074 214.06 511.462 213.667C511.85 213.274 511.845 212.64 511.452 212.253L510.048 213.677ZM541.952 242.323C541.559 241.935 540.925 241.94 540.538 242.333C540.15 242.726 540.154 243.36 540.548 243.747L541.952 242.323ZM542 243.775L541.298 244.487L541.298 244.487L542 243.775ZM546.559 248.269L545.856 248.981L545.856 248.981L546.559 248.269ZM547.807 249.5L548.509 248.788L548.509 248.788L547.807 249.5ZM600.805 303.156C601.199 303.544 601.832 303.54 602.22 303.146C602.607 302.753 602.603 302.12 602.21 301.732L600.805 303.156ZM450.492 153.556L449.79 154.268L502.242 205.981L502.944 205.269L503.646 204.557L451.194 152.844L450.492 153.556ZM502.944 205.269L502.242 205.981L503.491 207.212L504.193 206.5L504.895 205.788L503.646 204.557L502.944 205.269ZM504.193 206.5L503.491 207.212L507.298 210.966L508 210.254L508.702 209.541L504.895 205.788L504.193 206.5ZM508 210.254L507.298 210.966L510.048 213.677L510.75 212.965L511.452 212.253L508.702 209.541L508 210.254ZM541.25 243.035L540.548 243.747L541.298 244.487L542 243.775L542.702 243.063L541.952 242.323L541.25 243.035ZM542 243.775L541.298 244.487L545.856 248.981L546.559 248.269L547.261 247.557L542.702 243.063L542 243.775ZM546.559 248.269L545.856 248.981L547.105 250.212L547.807 249.5L548.509 248.788L547.261 247.557L546.559 248.269ZM547.807 249.5L547.105 250.212L600.805 303.156L601.507 302.444L602.21 301.732L548.509 248.788L547.807 249.5Z" fill="#1A1B1D"/>
<path d="M521.008 235V233.7V233.03C521.008 232.29 521.145 231.653 521.418 231.12C521.691 230.58 522.055 230.11 522.508 229.71C522.961 229.31 523.458 228.957 523.998 228.65C524.545 228.337 525.085 228.043 525.618 227.77C526.158 227.49 526.655 227.203 527.108 226.91C527.561 226.61 527.925 226.277 528.198 225.91C528.478 225.543 528.618 225.107 528.618 224.6C528.618 223.953 528.388 223.427 527.928 223.02C527.475 222.607 526.858 222.4 526.078 222.4C525.251 222.4 524.568 222.637 524.028 223.11C523.495 223.583 523.178 224.25 523.078 225.11H520.718C520.731 224.23 520.941 223.43 521.348 222.71C521.755 221.99 522.358 221.417 523.158 220.99C523.958 220.557 524.955 220.34 526.148 220.34C527.181 220.34 528.071 220.52 528.818 220.88C529.571 221.233 530.151 221.73 530.558 222.37C530.971 223.003 531.178 223.743 531.178 224.59C531.178 225.33 531.041 225.963 530.768 226.49C530.501 227.017 530.145 227.473 529.698 227.86C529.258 228.24 528.771 228.577 528.238 228.87C527.711 229.163 527.181 229.44 526.648 229.7C526.121 229.953 525.635 230.22 525.188 230.5C524.748 230.773 524.391 231.087 524.118 231.44C523.851 231.793 523.718 232.217 523.718 232.71V232.92H531.208V235H521.008Z" fill="black" fill-opacity="0.8"/>
<path d="M168.5 367C167.948 367 167.5 367.448 167.5 368C167.5 368.552 167.948 369 168.5 369V367ZM369.25 369C369.802 369 370.25 368.552 370.25 368C370.25 367.448 369.802 367 369.25 367V369ZM399.75 367C399.198 367 398.75 367.448 398.75 368C398.75 368.552 399.198 369 399.75 369V367ZM601.207 368.707C601.598 368.317 601.598 367.683 601.207 367.293L594.843 360.929C594.453 360.538 593.819 360.538 593.429 360.929C593.038 361.319 593.038 361.953 593.429 362.343L599.086 368L593.429 373.657C593.038 374.047 593.038 374.681 593.429 375.071C593.819 375.462 594.453 375.462 594.843 375.071L601.207 368.707ZM168.5 368V369H369.25V368V367H168.5V368ZM399.75 368V369H600.5V368V367H399.75V368Z" fill="#1A1B1D"/>
<path d="M381.867 375C381.947 374.38 382.107 373.607 382.347 372.68C382.594 371.747 382.931 370.72 383.357 369.6C383.784 368.473 384.314 367.31 384.947 366.11C385.581 364.91 386.321 363.73 387.167 362.57H379.247V360.54H389.757V362.57C389.271 363.203 388.787 363.937 388.307 364.77C387.827 365.597 387.367 366.473 386.927 367.4C386.487 368.32 386.094 369.243 385.747 370.17C385.401 371.09 385.117 371.967 384.897 372.8C384.677 373.633 384.544 374.367 384.497 375H381.867Z" fill="black" fill-opacity="0.8"/>
</svg>
