<svg width="366" height="55" viewBox="0 0 366 55" fill="none" xmlns="http://www.w3.org/2000/svg">
<path d="M15.568 25.3154H15.1305C14.6722 28.2946 14.2139 29.6488 10.9847 29.6488H8.38053C7.5472 29.6488 7.50553 29.5238 7.50553 28.8988V23.7321H9.25553C11.0889 23.7321 11.2972 24.3154 11.2972 25.9613H11.7139V20.9404H11.2972C11.2972 22.5863 11.0889 23.1696 9.25553 23.1696H7.50553V18.5029C7.50553 17.8779 7.5472 17.7321 8.38053 17.7321H10.943C13.7347 17.7321 14.3389 18.6904 14.6305 21.4613H15.0472L14.5472 17.1904H4.15137V17.7321H4.52637C5.90137 17.7321 5.96387 17.9404 5.96387 18.6488V28.7529C5.96387 29.4613 5.90137 29.6488 4.52637 29.6488H4.15137V30.2113H14.7972L15.568 25.3154Z" fill="black" style="fill:black;fill-opacity:1;"/>
<path d="M21.9154 21.9818V22.5443C23.207 22.5443 23.3737 22.6693 23.3737 23.6068V27.0443C23.3737 28.6693 22.5195 30.0234 21.082 30.0234C19.4987 30.0234 19.4154 29.1276 19.4154 28.1068V21.7734L16.707 21.9818V22.5443C18.1654 22.5443 18.1654 22.6068 18.1654 24.2943V27.1693C18.1654 28.3568 18.1654 29.0443 18.7487 29.6693C19.207 30.1693 19.9779 30.3984 20.957 30.3984C21.2904 30.3984 21.8945 30.3984 22.5404 29.8568C23.1029 29.3984 23.4154 28.6901 23.4154 28.6901V30.3984L26.0612 30.2109V29.6484C24.7695 29.6484 24.6237 29.5234 24.6237 28.5859V21.7734L21.9154 21.9818Z" fill="black" style="fill:black;fill-opacity:1;"/>
<path d="M33.4258 23.1279C33.1966 23.1279 32.4883 23.1279 32.4883 23.9196C32.4883 24.3779 32.8216 24.7113 33.2799 24.7113C33.7174 24.7113 34.0924 24.4404 34.0924 23.8779C34.0924 22.6071 32.7383 21.6904 31.1966 21.6904C28.9674 21.6904 27.1758 23.6696 27.1758 26.0863C27.1758 28.5238 29.0091 30.3988 31.1758 30.3988C33.6966 30.3988 34.2799 28.1071 34.2799 27.9404C34.2799 27.7529 34.1341 27.7529 34.0924 27.7529C33.9049 27.7529 33.8841 27.8154 33.8424 28.0446C33.4049 29.3988 32.3841 29.9821 31.3424 29.9821C30.1758 29.9821 28.6341 28.9613 28.6341 26.0654C28.6341 22.8779 30.2591 22.1071 31.2174 22.1071C31.9466 22.1071 32.9883 22.3988 33.4258 23.1279Z" fill="black" style="fill:black;fill-opacity:1;"/>
<path d="M38.1247 16.9404L35.458 17.1488V17.7113C36.7705 17.7113 36.9163 17.8363 36.9163 18.7738V28.7946C36.9163 29.6488 36.708 29.6488 35.458 29.6488V30.2113C35.9997 30.1696 36.9372 30.1696 37.5205 30.1696C38.083 30.1696 39.0413 30.1696 39.583 30.2113V29.6488C38.3538 29.6488 38.1247 29.6488 38.1247 28.7946V16.9404Z" fill="black" style="fill:black;fill-opacity:1;"/>
<path d="M43.3695 18.4404C43.3695 17.9404 42.9528 17.5029 42.432 17.5029C41.932 17.5029 41.5153 17.8988 41.5153 18.4196C41.5153 18.9821 41.9736 19.3571 42.432 19.3571C43.0153 19.3571 43.3695 18.8571 43.3695 18.4404ZM40.7236 21.9821V22.5446C41.9528 22.5446 42.1195 22.6488 42.1195 23.5863V28.7946C42.1195 29.6488 41.9111 29.6488 40.6611 29.6488V30.2113C41.2028 30.1696 42.1195 30.1696 42.682 30.1696C42.8903 30.1696 43.9945 30.1696 44.6403 30.2113V29.6488C43.4111 29.6488 43.3278 29.5654 43.3278 28.8154V21.7738L40.7236 21.9821Z" fill="black" style="fill:black;fill-opacity:1;"/>
<path d="M50.9688 17.1488V17.7113C52.2812 17.7113 52.4271 17.8363 52.4271 18.7738V23.0029C52.0312 22.4404 51.1979 21.7738 50.0312 21.7738C47.8229 21.7738 45.9062 23.6488 45.9062 26.1071C45.9062 28.5238 47.7188 30.3988 49.8229 30.3988C51.2812 30.3988 52.1146 29.4404 52.3854 29.0863V30.3988L55.0938 30.2113V29.6488C53.7812 29.6488 53.6354 29.5238 53.6354 28.5863V16.9404L50.9688 17.1488ZM52.3854 27.9821C52.3854 28.3154 52.3854 28.3779 52.1146 28.7946C51.6562 29.4613 50.8854 30.0238 49.9271 30.0238C49.4271 30.0238 47.3646 29.8363 47.3646 26.1279C47.3646 24.7321 47.5938 23.9821 48.0104 23.3363C48.3854 22.7529 49.1562 22.1696 50.1146 22.1696C51.3021 22.1696 51.9688 23.0238 52.1562 23.3363C52.3854 23.6488 52.3854 23.6904 52.3854 24.0238V27.9821Z" fill="black" style="fill:black;fill-opacity:1;"/>
<path d="M62.9785 25.7738C63.3952 25.7738 63.4368 25.7738 63.4368 25.4196C63.4368 23.4821 62.3952 21.6904 60.0827 21.6904C57.8952 21.6904 56.2285 23.6488 56.2285 26.0238C56.2285 28.5446 58.166 30.3988 60.291 30.3988C62.5618 30.3988 63.4368 28.3363 63.4368 27.9404C63.4368 27.8154 63.3327 27.7529 63.2285 27.7529C63.0618 27.7529 63.0202 27.8363 62.9993 27.9404C62.4993 29.5446 61.2077 29.9821 60.416 29.9821C59.6035 29.9821 57.666 29.4404 57.666 26.1279V25.7738H62.9785ZM57.6868 25.4196C57.8535 22.3988 59.5202 22.0654 60.0618 22.0654C62.1035 22.0654 62.2285 24.7529 62.2493 25.4196H57.6868Z" fill="black" style="fill:black;fill-opacity:1;"/>
<path d="M71.3444 25.1071C71.3444 24.0654 71.3444 23.3154 70.5111 22.5654C69.8444 21.9404 68.9902 21.6904 68.1361 21.6904C66.5736 21.6904 65.3652 22.7113 65.3652 23.9613C65.3652 24.5029 65.7194 24.7738 66.1777 24.7738C66.6361 24.7738 66.9486 24.4613 66.9486 24.0029C66.9486 23.2113 66.2611 23.2113 65.9694 23.2113C66.4277 22.3988 67.3444 22.0654 68.0944 22.0654C68.9902 22.0654 70.1152 22.7946 70.1152 24.5029V25.2738C66.2611 25.3363 64.8027 26.9404 64.8027 28.4196C64.8027 29.9196 66.5736 30.3988 67.7402 30.3988C68.9902 30.3988 69.8652 29.6279 70.2194 28.7113C70.3027 29.6279 70.8861 30.3154 71.7194 30.3154C72.1152 30.3154 73.2194 30.0446 73.2194 28.5029V27.4404H72.8027V28.5029C72.8027 29.6071 72.3444 29.7529 72.0736 29.7529C71.3444 29.7529 71.3444 28.7321 71.3444 28.4613V25.1071ZM70.1152 27.5238C70.1152 29.3988 68.7194 30.0238 67.8861 30.0238C66.9486 30.0238 66.1777 29.3363 66.1777 28.4196C66.1777 25.8988 69.4277 25.6696 70.1152 25.6279V27.5238Z" fill="black" style="fill:black;fill-opacity:1;"/>
<path d="M81.8551 25.5651C81.8551 23.7943 81.8551 23.2526 81.3968 22.6276C80.8551 21.8984 79.9593 21.7734 79.2926 21.7734C77.4385 21.7734 76.7093 23.3568 76.5635 23.7526H76.5426V21.7734L73.9385 21.9818V22.5443C75.251 22.5443 75.3968 22.6693 75.3968 23.6068V28.7943C75.3968 29.6484 75.1885 29.6484 73.9385 29.6484V30.2109C74.4385 30.1693 75.4801 30.1693 76.0218 30.1693C76.5635 30.1693 77.6051 30.1693 78.1051 30.2109V29.6484C76.876 29.6484 76.6468 29.6484 76.6468 28.7943V25.2318C76.6468 23.2318 77.9593 22.1693 79.1468 22.1693C80.3343 22.1693 80.6051 23.1276 80.6051 24.2943V28.7943C80.6051 29.6484 80.3968 29.6484 79.1468 29.6484V30.2109C79.6468 30.1693 80.6885 30.1693 81.2093 30.1693C81.7718 30.1693 82.7926 30.1693 83.2926 30.2109V29.6484C82.3343 29.6484 81.8551 29.6484 81.8551 29.0859V25.5651Z" fill="black" style="fill:black;fill-opacity:1;"/>
<path d="M89.9486 34.8571C89.9486 34.7946 89.9486 34.7529 89.6361 34.4404C87.7194 32.5029 86.6569 29.3571 86.6569 25.4404C86.6569 21.7321 87.5527 18.5446 89.7611 16.2946C89.9486 16.1071 89.9486 16.0863 89.9486 16.0238C89.9486 15.8988 89.8652 15.8779 89.7819 15.8779C89.5319 15.8779 87.9694 17.2529 87.0319 19.1279C86.0527 21.0446 85.6152 23.1071 85.6152 25.4404C85.6152 27.1488 85.8861 29.4196 86.8861 31.4821C88.0111 33.7738 89.5736 35.0029 89.7819 35.0029C89.8652 35.0029 89.9486 34.9821 89.9486 34.8571Z" fill="black" style="fill:black;fill-opacity:1;"/>
<path d="M100.488 18.7946C100.258 19.0029 99.5501 19.6696 99.5501 19.9404C99.5501 20.1279 99.7168 20.2946 99.9251 20.2946C100.092 20.2946 100.175 20.1904 100.3 20.0029C100.758 19.4196 101.279 19.0654 101.717 18.8154C101.904 18.6904 102.029 18.6488 102.029 18.4404C102.029 18.2529 101.883 18.1696 101.779 18.0654C101.238 17.7113 101.113 17.1904 101.05 16.9613C100.988 16.7946 100.925 16.5654 100.654 16.5654C100.55 16.5654 100.321 16.6488 100.321 16.9404C100.321 17.1071 100.425 17.5654 100.8 18.0863H94.3626C94.0501 18.0863 93.7168 18.0863 93.7168 18.4404C93.7168 18.7946 94.071 18.7946 94.3626 18.7946H100.488Z" fill="black" style="fill:black;fill-opacity:1;"/>
<path d="M99.7663 23.0651C99.7663 21.8568 99.1413 21.7734 98.9954 21.7734C98.5371 21.7734 98.1204 22.2318 98.1204 22.6276C98.1204 22.8568 98.2454 22.9818 98.3288 23.0651C98.5163 23.2318 99.0163 23.7526 99.0163 24.7318C99.0163 25.5443 97.8704 30.0234 95.5579 30.0234C94.3913 30.0234 94.1621 29.0443 94.1621 28.3359C94.1621 27.3776 94.6204 26.0443 95.1204 24.6693C95.4329 23.8776 95.5163 23.6901 95.5163 23.3151C95.5163 22.5026 94.9329 21.7734 93.9954 21.7734C92.2454 21.7734 91.5371 24.5443 91.5371 24.7109C91.5371 24.7734 91.5996 24.8776 91.7454 24.8776C91.9121 24.8776 91.9329 24.7943 92.0163 24.5234C92.4746 22.8776 93.2246 22.1693 93.9329 22.1693C94.1204 22.1693 94.4329 22.1693 94.4329 22.7943C94.4329 23.2943 94.2246 23.8359 93.9329 24.5651C93.0163 27.0234 93.0163 27.6068 93.0163 28.0651C93.0163 28.4818 93.0788 29.2734 93.6829 29.8151C94.3704 30.3984 95.3288 30.3984 95.4954 30.3984C98.6621 30.3984 99.7663 24.1484 99.7663 23.0651Z" fill="black" style="fill:black;fill-opacity:1;"/>
<path d="M104.489 30.2939C104.489 29.1689 104.135 28.3564 103.343 28.3564C102.739 28.3564 102.427 28.8564 102.427 29.2731C102.427 29.6898 102.718 30.2106 103.364 30.2106C103.614 30.2106 103.823 30.1273 103.989 29.9606C104.031 29.9189 104.052 29.9189 104.073 29.9189C104.114 29.9189 104.114 30.1898 104.114 30.2939C104.114 30.9189 103.989 32.1689 102.885 33.3981C102.677 33.6273 102.677 33.6689 102.677 33.7106C102.677 33.8148 102.76 33.8981 102.864 33.8981C103.01 33.8981 104.489 32.4814 104.489 30.2939Z" fill="black" style="fill:black;fill-opacity:1;"/>
<path d="M119.08 18.7946C118.851 19.0029 118.143 19.6696 118.143 19.9404C118.143 20.1279 118.31 20.2946 118.518 20.2946C118.685 20.2946 118.768 20.1904 118.893 20.0029C119.351 19.4196 119.872 19.0654 120.31 18.8154C120.497 18.6904 120.622 18.6488 120.622 18.4404C120.622 18.2529 120.476 18.1696 120.372 18.0654C119.83 17.7113 119.705 17.1904 119.643 16.9613C119.58 16.7946 119.518 16.5654 119.247 16.5654C119.143 16.5654 118.914 16.6488 118.914 16.9404C118.914 17.1071 119.018 17.5654 119.393 18.0863H112.955C112.643 18.0863 112.31 18.0863 112.31 18.4404C112.31 18.7946 112.664 18.7946 112.955 18.7946H119.08Z" fill="black" style="fill:black;fill-opacity:1;"/>
<path d="M115.67 29.1068C115.92 30.1693 116.837 30.3984 117.295 30.3984C117.899 30.3984 118.357 30.0026 118.67 29.3568C119.003 28.6693 119.253 27.5234 119.253 27.4818C119.253 27.3776 119.17 27.2943 119.066 27.2943C118.878 27.2943 118.857 27.3984 118.795 27.6901C118.441 29.0026 118.107 30.0234 117.337 30.0234C116.753 30.0234 116.753 29.3984 116.753 29.1484C116.753 28.6901 116.816 28.5026 117.003 27.7109C117.149 27.1901 117.274 26.6693 117.399 26.1276L118.17 23.0234C118.316 22.5443 118.316 22.5026 118.316 22.4401C118.316 22.1693 118.087 21.9609 117.795 21.9609C117.232 21.9609 117.107 22.4401 116.982 22.9193C116.795 23.6693 115.774 27.7734 115.628 28.4609C115.607 28.4609 114.857 30.0234 113.462 30.0234C112.482 30.0234 112.295 29.1693 112.295 28.4609C112.295 27.3568 112.816 25.8359 113.316 24.5443C113.545 23.9401 113.649 23.6901 113.649 23.3151C113.649 22.4818 113.045 21.7734 112.128 21.7734C110.378 21.7734 109.67 24.5443 109.67 24.7109C109.67 24.7734 109.732 24.8776 109.878 24.8776C110.045 24.8776 110.066 24.7943 110.149 24.5234C110.607 22.8776 111.357 22.1693 112.066 22.1693C112.274 22.1693 112.566 22.1693 112.566 22.7943C112.566 23.2943 112.357 23.8359 112.066 24.5651C111.232 26.8359 111.128 27.5651 111.128 28.1484C111.128 30.0859 112.607 30.3984 113.399 30.3984C114.628 30.3984 115.295 29.5651 115.67 29.1068Z" fill="black" style="fill:black;fill-opacity:1;"/>
<path d="M125.209 25.4404C125.209 24.0029 125.021 21.6279 123.938 19.3988C122.813 17.1071 121.25 15.8779 121.042 15.8779C120.959 15.8779 120.854 15.8988 120.854 16.0238C120.854 16.0863 120.854 16.1071 121.188 16.4404C123.104 18.3779 124.167 21.5238 124.167 25.4404C124.167 29.1488 123.271 32.3363 121.063 34.5863C120.854 34.7529 120.854 34.7946 120.854 34.8571C120.854 34.9821 120.959 35.0029 121.042 35.0029C121.292 35.0029 122.854 33.6279 123.792 31.7529C124.771 29.8154 125.209 27.7529 125.209 25.4404Z" fill="black" style="fill:black;fill-opacity:1;"/>
<path d="M135.93 22.2135C135.93 21.7135 135.493 21.2969 135.014 21.2969C134.451 21.2969 134.076 21.7344 134.076 22.2135C134.076 22.7969 134.555 23.151 134.993 23.151C135.514 23.151 135.93 22.7552 135.93 22.2135ZM135.93 28.6094C135.93 28.0885 135.493 27.6927 135.014 27.6927C134.451 27.6927 134.076 28.1302 134.076 28.6094C134.076 29.1927 134.555 29.5469 134.993 29.5469C135.514 29.5469 135.93 29.151 135.93 28.6094Z" fill="black" style="fill:black;fill-opacity:1;"/>
<path d="M149.254 24.0238C149.525 24.0238 149.858 24.0238 149.858 23.6696C149.858 23.3154 149.525 23.3154 149.254 23.3154H137.983C137.712 23.3154 137.379 23.3154 137.379 23.6488C137.379 24.0238 137.691 24.0238 137.983 24.0238H149.254ZM149.254 27.5654C149.525 27.5654 149.858 27.5654 149.858 27.2321C149.858 26.8571 149.525 26.8571 149.254 26.8571H137.983C137.712 26.8571 137.379 26.8571 137.379 27.2113C137.379 27.5654 137.691 27.5654 137.983 27.5654H149.254Z" fill="black" style="fill:black;fill-opacity:1;"/>
<path d="M209.953 5.02083C209.953 4.5625 209.953 4.5625 209.578 4.5625C209.12 5.0625 208.161 5.77083 206.203 5.77083V6.33333C206.641 6.33333 207.599 6.33333 208.641 5.83333V15.7917C208.641 16.4792 208.578 16.7083 206.911 16.7083H206.307V17.2708C206.828 17.2292 208.682 17.2292 209.307 17.2292C209.932 17.2292 211.786 17.2292 212.286 17.2708V16.7083H211.703C210.016 16.7083 209.953 16.4792 209.953 15.7917V5.02083Z" fill="black" style="fill:black;fill-opacity:1;"/>
<path d="M157.812 25.4277H260.458" stroke="black" style="stroke:black;stroke-opacity:1;" stroke-width="0.765333" stroke-miterlimit="10"/>
<path d="M163.312 33.6341C163.312 33.1758 163.312 33.1758 162.937 33.1758C162.478 33.6758 161.52 34.3841 159.562 34.3841V34.9466C159.999 34.9466 160.957 34.9466 161.999 34.4466V44.4049C161.999 45.0924 161.937 45.3216 160.27 45.3216H159.666V45.8841C160.187 45.8424 162.041 45.8424 162.666 45.8424C163.291 45.8424 165.145 45.8424 165.645 45.8841V45.3216H165.062C163.374 45.3216 163.312 45.0924 163.312 44.4049V33.6341Z" fill="black" style="fill:black;fill-opacity:1;"/>
<path d="M179.048 41.4674H184.34C184.611 41.4674 184.944 41.4674 184.944 41.1133C184.944 40.7591 184.611 40.7591 184.34 40.7591H179.048V35.4883C179.048 35.2174 179.048 34.8633 178.715 34.8633C178.34 34.8633 178.34 35.1966 178.34 35.4883V40.7591H173.069C172.798 40.7591 172.465 40.7591 172.465 41.1133C172.465 41.4674 172.777 41.4674 173.069 41.4674H178.34V46.7383C178.34 47.0091 178.34 47.3633 178.694 47.3633C179.048 47.3633 179.048 47.0299 179.048 46.7383V41.4674Z" fill="black" style="fill:black;fill-opacity:1;"/>
<path d="M193.536 32.1966C193.536 31.8841 193.536 31.5508 193.161 31.5508C192.766 31.5508 192.766 31.9674 192.766 32.2383V49.9674C192.766 50.2591 192.766 50.6549 193.161 50.6549C193.536 50.6549 193.536 50.3216 193.536 50.0091V32.1966ZM197.266 32.2383C197.266 31.9466 197.266 31.5508 196.891 31.5508C196.495 31.5508 196.495 31.8841 196.495 32.1966V50.0091C196.495 50.3216 196.495 50.6549 196.891 50.6549C197.266 50.6549 197.266 50.2383 197.266 49.9674V32.2383Z" fill="black" style="fill:black;fill-opacity:1;"/>
<path d="M209.276 34.4674C209.047 34.6758 208.338 35.3424 208.338 35.6133C208.338 35.8008 208.505 35.9674 208.713 35.9674C208.88 35.9674 208.963 35.8633 209.088 35.6758C209.547 35.0924 210.067 34.7383 210.505 34.4883C210.692 34.3633 210.817 34.3216 210.817 34.1133C210.817 33.9258 210.672 33.8424 210.567 33.7383C210.026 33.3841 209.901 32.8633 209.838 32.6341C209.776 32.4674 209.713 32.2383 209.442 32.2383C209.338 32.2383 209.109 32.3216 209.109 32.6133C209.109 32.7799 209.213 33.2383 209.588 33.7591H203.151C202.838 33.7591 202.505 33.7591 202.505 34.1133C202.505 34.4674 202.859 34.4674 203.151 34.4674H209.276Z" fill="black" style="fill:black;fill-opacity:1;"/>
<path d="M208.553 38.738C208.553 37.5296 207.928 37.4463 207.783 37.4463C207.324 37.4463 206.908 37.9046 206.908 38.3005C206.908 38.5296 207.033 38.6546 207.116 38.738C207.303 38.9046 207.803 39.4255 207.803 40.4046C207.803 41.2171 206.658 45.6963 204.345 45.6963C203.178 45.6963 202.949 44.7171 202.949 44.0088C202.949 43.0505 203.408 41.7171 203.908 40.3421C204.22 39.5505 204.303 39.363 204.303 38.988C204.303 38.1755 203.72 37.4463 202.783 37.4463C201.033 37.4463 200.324 40.2171 200.324 40.3838C200.324 40.4463 200.387 40.5505 200.533 40.5505C200.699 40.5505 200.72 40.4671 200.803 40.1963C201.262 38.5505 202.012 37.8421 202.72 37.8421C202.908 37.8421 203.22 37.8421 203.22 38.4671C203.22 38.9671 203.012 39.5088 202.72 40.238C201.803 42.6963 201.803 43.2796 201.803 43.738C201.803 44.1546 201.866 44.9463 202.47 45.488C203.158 46.0713 204.116 46.0713 204.283 46.0713C207.449 46.0713 208.553 39.8213 208.553 38.738Z" fill="black" style="fill:black;fill-opacity:1;"/>
<path d="M226.406 41.4886C226.739 41.4886 227.072 41.4886 227.072 41.1136C227.072 40.7178 226.739 40.7178 226.406 40.7178H216.051C215.739 40.7178 215.385 40.7178 215.385 41.1136C215.385 41.4886 215.739 41.4886 216.051 41.4886H226.406Z" fill="black" style="fill:black;fill-opacity:1;"/>
<path d="M242.856 34.4674C242.627 34.6758 241.918 35.3424 241.918 35.6133C241.918 35.8008 242.085 35.9674 242.293 35.9674C242.46 35.9674 242.543 35.8633 242.668 35.6758C243.127 35.0924 243.647 34.7383 244.085 34.4883C244.272 34.3633 244.397 34.3216 244.397 34.1133C244.397 33.9258 244.252 33.8424 244.147 33.7383C243.606 33.3841 243.481 32.8633 243.418 32.6341C243.356 32.4674 243.293 32.2383 243.022 32.2383C242.918 32.2383 242.689 32.3216 242.689 32.6133C242.689 32.7799 242.793 33.2383 243.168 33.7591H236.731C236.418 33.7591 236.085 33.7591 236.085 34.1133C236.085 34.4674 236.439 34.4674 236.731 34.4674H242.856Z" fill="black" style="fill:black;fill-opacity:1;"/>
<path d="M239.445 44.7796C239.695 45.8421 240.612 46.0713 241.07 46.0713C241.674 46.0713 242.133 45.6755 242.445 45.0296C242.779 44.3421 243.029 43.1963 243.029 43.1546C243.029 43.0505 242.945 42.9671 242.841 42.9671C242.654 42.9671 242.633 43.0713 242.57 43.363C242.216 44.6755 241.883 45.6963 241.112 45.6963C240.529 45.6963 240.529 45.0713 240.529 44.8213C240.529 44.363 240.591 44.1755 240.779 43.3838C240.924 42.863 241.049 42.3421 241.174 41.8005L241.945 38.6963C242.091 38.2171 242.091 38.1755 242.091 38.113C242.091 37.8421 241.862 37.6338 241.57 37.6338C241.008 37.6338 240.883 38.113 240.758 38.5921C240.57 39.3421 239.549 43.4463 239.404 44.1338C239.383 44.1338 238.633 45.6963 237.237 45.6963C236.258 45.6963 236.07 44.8421 236.07 44.1338C236.07 43.0296 236.591 41.5088 237.091 40.2171C237.32 39.613 237.424 39.363 237.424 38.988C237.424 38.1546 236.82 37.4463 235.904 37.4463C234.154 37.4463 233.445 40.2171 233.445 40.3838C233.445 40.4463 233.508 40.5505 233.654 40.5505C233.82 40.5505 233.841 40.4671 233.924 40.1963C234.383 38.5505 235.133 37.8421 235.841 37.8421C236.049 37.8421 236.341 37.8421 236.341 38.4671C236.341 38.9671 236.133 39.5088 235.841 40.238C235.008 42.5088 234.904 43.238 234.904 43.8213C234.904 45.7588 236.383 46.0713 237.174 46.0713C238.404 46.0713 239.07 45.238 239.445 44.7796Z" fill="black" style="fill:black;fill-opacity:1;"/>
<path d="M246.881 32.1966C246.881 31.8841 246.881 31.5508 246.506 31.5508C246.11 31.5508 246.11 31.9674 246.11 32.2383V49.9674C246.11 50.2591 246.11 50.6549 246.506 50.6549C246.881 50.6549 246.881 50.3216 246.881 50.0091V32.1966ZM250.61 32.2383C250.61 31.9466 250.61 31.5508 250.235 31.5508C249.84 31.5508 249.84 31.8841 249.84 32.1966V50.0091C249.84 50.3216 249.84 50.6549 250.235 50.6549C250.61 50.6549 250.61 50.2383 250.61 49.9674V32.2383Z" fill="black" style="fill:black;fill-opacity:1;"/>
<path d="M254.84 35.6458L256.257 34.2708C258.319 32.4375 259.111 31.7292 259.111 30.3958C259.111 28.875 257.924 27.8125 256.299 27.8125C254.799 27.8125 253.819 29.0417 253.819 30.2292C253.819 30.9583 254.486 30.9583 254.528 30.9583C254.757 30.9583 255.215 30.8125 255.215 30.25C255.215 29.9167 254.965 29.5625 254.507 29.5625C254.403 29.5625 254.382 29.5625 254.34 29.5833C254.632 28.7083 255.361 28.2292 256.132 28.2292C257.34 28.2292 257.903 29.3125 257.903 30.3958C257.903 31.4583 257.257 32.5 256.507 33.3333L253.965 36.1667C253.819 36.3125 253.819 36.3542 253.819 36.6667H258.757L259.111 34.3542H258.799C258.715 34.75 258.632 35.3333 258.486 35.5417C258.403 35.6458 257.528 35.6458 257.236 35.6458H254.84Z" fill="black" style="fill:black;fill-opacity:1;"/>
<path d="M315.306 25.8154C315.639 25.8154 315.973 25.8154 315.973 25.4404C315.973 25.0446 315.639 25.0446 315.306 25.0446H307.202C307.431 22.4821 309.618 20.6488 312.327 20.6488H315.306C315.639 20.6488 315.973 20.6488 315.973 20.2738C315.973 19.8779 315.639 19.8779 315.306 19.8779H312.285C309.014 19.8779 306.41 22.3779 306.41 25.4404C306.41 28.4821 309.014 30.9821 312.285 30.9821H315.306C315.639 30.9821 315.973 30.9821 315.973 30.5863C315.973 30.2113 315.639 30.2113 315.306 30.2113H312.327C309.618 30.2113 307.431 28.3779 307.202 25.8154H315.306Z" fill="black" style="fill:black;fill-opacity:1;"/>
<path d="M329.1 34.8571C329.1 34.7946 329.1 34.7529 328.787 34.4404C326.871 32.5029 325.808 29.3571 325.808 25.4404C325.808 21.7321 326.704 18.5446 328.912 16.2946C329.1 16.1071 329.1 16.0863 329.1 16.0238C329.1 15.8988 329.017 15.8779 328.933 15.8779C328.683 15.8779 327.121 17.2529 326.183 19.1279C325.204 21.0446 324.767 23.1071 324.767 25.4404C324.767 27.1488 325.037 29.4196 326.037 31.4821C327.162 33.7738 328.725 35.0029 328.933 35.0029C329.017 35.0029 329.1 34.9821 329.1 34.8571Z" fill="black" style="fill:black;fill-opacity:1;"/>
<path d="M338.739 24.0863C338.739 22.5029 338.655 20.9613 337.968 19.5029C337.176 17.9196 335.801 17.5029 334.864 17.5029C333.759 17.5029 332.384 18.0446 331.697 19.6279C331.155 20.8363 330.968 22.0238 330.968 24.0863C330.968 25.9404 331.093 27.3363 331.78 28.6904C332.53 30.1488 333.843 30.6071 334.843 30.6071C336.509 30.6071 337.468 29.6279 338.009 28.5029C338.697 27.0654 338.739 25.1904 338.739 24.0863ZM334.843 30.2321C334.239 30.2321 332.989 29.8779 332.634 27.7946C332.405 26.6488 332.405 25.1904 332.405 23.8571C332.405 22.2946 332.405 20.8779 332.718 19.7529C333.051 18.4613 334.03 17.8779 334.843 17.8779C335.572 17.8779 336.676 18.3154 337.051 19.9613C337.28 21.0446 337.28 22.5654 337.28 23.8571C337.28 25.1488 337.28 26.5863 337.072 27.7529C336.718 29.8571 335.509 30.2321 334.843 30.2321Z" fill="black" style="fill:black;fill-opacity:1;"/>
<path d="M343.269 30.2939C343.269 29.1689 342.914 28.3564 342.123 28.3564C341.519 28.3564 341.206 28.8564 341.206 29.2731C341.206 29.6898 341.498 30.2106 342.144 30.2106C342.394 30.2106 342.602 30.1273 342.769 29.9606C342.81 29.9189 342.831 29.9189 342.852 29.9189C342.894 29.9189 342.894 30.1898 342.894 30.2939C342.894 30.9189 342.769 32.1689 341.664 33.3981C341.456 33.6273 341.456 33.6689 341.456 33.7106C341.456 33.8148 341.539 33.8981 341.644 33.8981C341.789 33.8981 343.269 32.4814 343.269 30.2939Z" fill="black" style="fill:black;fill-opacity:1;"/>
<path d="M353.431 17.9613C353.431 17.5029 353.431 17.5029 353.056 17.5029C352.597 18.0029 351.639 18.7113 349.681 18.7113V19.2738C350.118 19.2738 351.076 19.2738 352.118 18.7738V28.7321C352.118 29.4196 352.056 29.6488 350.389 29.6488H349.785V30.2113C350.306 30.1696 352.16 30.1696 352.785 30.1696C353.41 30.1696 355.264 30.1696 355.764 30.2113V29.6488H355.181C353.493 29.6488 353.431 29.4196 353.431 28.7321V17.9613Z" fill="black" style="fill:black;fill-opacity:1;"/>
<path d="M360.254 15.8779H357.691V16.5654H359.546V34.2946H357.691V34.9821H360.254V15.8779Z" fill="black" style="fill:black;fill-opacity:1;"/>
</svg>
