<svg width="587" height="555" viewBox="0 0 587 555" fill="none" xmlns="http://www.w3.org/2000/svg">
<path d="M187 69C187 46.9086 204.909 29 227 29C249.091 29 267 46.9086 267 69C267 91.0914 249.091 109 227 109C204.909 109 187 91.0914 187 69Z" fill="#F16767" style="fill:#F16767;fill:color(display-p3 0.9451 0.4039 0.4039);fill-opacity:1;"/>
<path d="M13 285C13 262.909 30.9086 245 53 245C75.0914 245 93 262.909 93 285C93 307.091 75.0914 325 53 325C30.9086 325 13 307.091 13 285Z" fill="#F16767" style="fill:#F16767;fill:color(display-p3 0.9451 0.4039 0.4039);fill-opacity:1;"/>
<path d="M13 479C13 456.909 30.9086 439 53 439C75.0914 439 93 456.909 93 479C93 501.091 75.0914 519 53 519C30.9086 519 13 501.091 13 479Z" fill="#F16767" style="fill:#F16767;fill:color(display-p3 0.9451 0.4039 0.4039);fill-opacity:1;"/>
<path d="M500 337C500 314.909 517.909 297 540 297C562.091 297 580 314.909 580 337C580 359.091 562.091 377 540 377C517.909 377 500 359.091 500 337Z" fill="#F16767" style="fill:#F16767;fill:color(display-p3 0.9451 0.4039 0.4039);fill-opacity:1;"/>
<path d="M250 403C250 380.909 267.909 363 290 363C312.091 363 330 380.909 330 403C330 425.091 312.091 443 290 443C267.909 443 250 425.091 250 403Z" fill="#F16767" style="fill:#F16767;fill:color(display-p3 0.9451 0.4039 0.4039);fill-opacity:1;"/>
<path d="M236.176 112.254C236.074 111.711 235.551 111.354 235.008 111.457C234.465 111.559 234.108 112.082 234.211 112.625L236.176 112.254ZM243.693 157.5L242.71 157.685L242.71 157.685L243.693 157.5ZM248.597 183.5L249.58 183.315L249.58 183.315L248.597 183.5ZM251.049 196.5L250.066 196.685L250.066 196.685L251.049 196.5ZM253.839 216.685C253.941 217.228 254.464 217.585 255.007 217.483C255.55 217.38 255.907 216.857 255.804 216.315L253.839 216.685ZM263.161 255.315C263.058 254.772 262.535 254.415 261.993 254.517C261.45 254.62 261.093 255.143 261.195 255.685L263.161 255.315ZM280.097 350.5L279.114 350.685L279.114 350.685L280.097 350.5ZM281.242 360.387C281.698 360.698 282.321 360.581 282.632 360.124L287.706 352.691C288.017 352.235 287.9 351.613 287.444 351.301C286.988 350.99 286.366 351.107 286.054 351.564L281.544 358.171L274.937 353.661C274.48 353.349 273.858 353.467 273.547 353.923C273.235 354.379 273.353 355.001 273.809 355.312L281.242 360.387ZM234.211 112.625L242.71 157.685L244.675 157.315L236.176 112.254L234.211 112.625ZM242.71 157.685L247.614 183.685L249.58 183.315L244.675 157.315L242.71 157.685ZM247.614 183.685L250.066 196.685L252.032 196.315L249.58 183.315L247.614 183.685ZM250.066 196.685L253.839 216.685L255.804 216.315L252.032 196.315L250.066 196.685ZM261.195 255.685L279.114 350.685L281.08 350.315L263.161 255.315L261.195 255.685ZM279.114 350.685L280.823 359.746L282.789 359.375L281.08 350.315L279.114 350.685Z" fill="#90CB62" style="fill:#90CB62;fill:color(display-p3 0.5647 0.7961 0.3843);fill-opacity:1;"/>
<path d="M229.81 242V230.364H231.566V235.921H231.708L236.589 230.364H238.799L234.106 235.602L238.816 242H236.702L232.941 236.801L231.566 238.381V242H229.81ZM249.651 230.364V242H248.038L242.123 233.466H242.015V242H240.259V230.364H241.884L247.805 238.909H247.913V230.364H249.651ZM262.144 236.182C262.144 237.424 261.917 238.493 261.462 239.386C261.008 240.277 260.385 240.962 259.593 241.443C258.805 241.921 257.909 242.159 256.906 242.159C255.898 242.159 254.998 241.921 254.207 241.443C253.419 240.962 252.798 240.275 252.343 239.381C251.888 238.487 251.661 237.421 251.661 236.182C251.661 234.94 251.888 233.873 252.343 232.983C252.798 232.089 253.419 231.404 254.207 230.926C254.998 230.445 255.898 230.205 256.906 230.205C257.909 230.205 258.805 230.445 259.593 230.926C260.385 231.404 261.008 232.089 261.462 232.983C261.917 233.873 262.144 234.94 262.144 236.182ZM260.406 236.182C260.406 235.235 260.252 234.438 259.945 233.79C259.642 233.138 259.226 232.646 258.695 232.313C258.169 231.976 257.572 231.807 256.906 231.807C256.235 231.807 255.637 231.976 255.11 232.313C254.584 232.646 254.167 233.138 253.86 233.79C253.557 234.438 253.406 235.235 253.406 236.182C253.406 237.129 253.557 237.928 253.86 238.58C254.167 239.227 254.584 239.72 255.11 240.057C255.637 240.39 256.235 240.557 256.906 240.557C257.572 240.557 258.169 240.39 258.695 240.057C259.226 239.72 259.642 239.227 259.945 238.58C260.252 237.928 260.406 237.129 260.406 236.182ZM266.295 242L263.068 230.364H264.914L267.181 239.375H267.289L269.647 230.364H271.477L273.835 239.381H273.943L276.204 230.364H278.056L274.823 242H273.056L270.607 233.284H270.516L268.068 242H266.295ZM285.796 233.421C285.736 232.883 285.486 232.466 285.046 232.171C284.607 231.871 284.054 231.722 283.387 231.722C282.91 231.722 282.497 231.797 282.149 231.949C281.8 232.097 281.529 232.301 281.336 232.563C281.147 232.82 281.052 233.114 281.052 233.443C281.052 233.72 281.117 233.958 281.245 234.159C281.378 234.36 281.55 234.529 281.762 234.665C281.978 234.797 282.209 234.909 282.456 235C282.702 235.087 282.938 235.159 283.166 235.216L284.302 235.511C284.673 235.602 285.054 235.726 285.444 235.881C285.834 236.036 286.196 236.241 286.529 236.494C286.863 236.748 287.132 237.063 287.336 237.438C287.545 237.813 287.649 238.261 287.649 238.784C287.649 239.443 287.478 240.029 287.137 240.54C286.8 241.051 286.31 241.455 285.666 241.75C285.026 242.046 284.251 242.193 283.342 242.193C282.471 242.193 281.717 242.055 281.081 241.779C280.444 241.502 279.946 241.11 279.586 240.602C279.226 240.091 279.028 239.485 278.99 238.784H280.751C280.785 239.205 280.921 239.555 281.16 239.835C281.403 240.112 281.711 240.318 282.086 240.455C282.465 240.587 282.88 240.654 283.331 240.654C283.827 240.654 284.268 240.576 284.654 240.421C285.045 240.261 285.351 240.042 285.575 239.761C285.798 239.477 285.91 239.146 285.91 238.767C285.91 238.422 285.812 238.14 285.615 237.921C285.421 237.701 285.158 237.519 284.825 237.375C284.495 237.231 284.122 237.104 283.706 236.994L282.331 236.619C281.399 236.366 280.66 235.993 280.115 235.5C279.573 235.008 279.302 234.356 279.302 233.546C279.302 232.875 279.484 232.29 279.848 231.79C280.211 231.29 280.704 230.902 281.325 230.625C281.946 230.345 282.647 230.205 283.427 230.205C284.215 230.205 284.91 230.343 285.512 230.619C286.118 230.896 286.596 231.277 286.944 231.761C287.293 232.243 287.474 232.796 287.49 233.421H285.796Z" fill="black" fill-opacity="0.8" style="fill:black;fill-opacity:0.8;"/>
<path d="M246.973 417.848C247.499 417.679 247.788 417.116 247.62 416.59C247.451 416.064 246.888 415.775 246.362 415.944L246.973 417.848ZM232.309 421.5L232.004 420.548L232.004 420.548L232.309 421.5ZM221 425.127L220.695 424.174L220.695 424.174L221 425.127ZM208.695 428.022C208.169 428.191 207.879 428.754 208.048 429.28C208.217 429.806 208.78 430.096 209.306 429.927L208.695 428.022ZM134.306 453.978C134.831 453.809 135.121 453.246 134.952 452.72C134.784 452.194 134.221 451.904 133.695 452.073L134.306 453.978ZM110.691 460.5L110.386 459.548L110.386 459.548L110.691 460.5ZM95.4438 464.647C95.1911 465.138 95.3845 465.741 95.8756 465.993L103.879 470.11C104.37 470.363 104.973 470.169 105.226 469.678C105.478 469.187 105.285 468.584 104.794 468.332L97.6797 464.672L101.339 457.558C101.592 457.067 101.398 456.464 100.907 456.212C100.416 455.959 99.8131 456.152 99.5605 456.644L95.4438 464.647ZM246.362 415.944L232.004 420.548L232.615 422.452L246.973 417.848L246.362 415.944ZM232.004 420.548L220.695 424.174L221.306 426.079L232.615 422.452L232.004 420.548ZM220.695 424.174L208.695 428.022L209.306 429.927L221.306 426.079L220.695 424.174ZM133.695 452.073L110.386 459.548L110.996 461.452L134.306 453.978L133.695 452.073ZM110.386 459.548L96.0276 464.152L96.6384 466.056L110.996 461.452L110.386 459.548Z" fill="#90CB62" style="fill:#90CB62;fill:color(display-p3 0.5647 0.7961 0.3843);fill-opacity:1;"/>
<path d="M142.81 447V435.364H144.566V440.92H144.708L149.589 435.364H151.799L147.106 440.602L151.816 447H149.702L145.941 441.801L144.566 443.381V447H142.81ZM162.651 435.364V447H161.038L155.123 438.466H155.015V447H153.259V435.364H154.884L160.805 443.909H160.913V435.364H162.651ZM175.144 441.182C175.144 442.424 174.917 443.492 174.462 444.386C174.008 445.277 173.385 445.962 172.593 446.443C171.805 446.92 170.909 447.159 169.906 447.159C168.898 447.159 167.998 446.92 167.207 446.443C166.419 445.962 165.798 445.275 165.343 444.381C164.888 443.487 164.661 442.42 164.661 441.182C164.661 439.939 164.888 438.873 165.343 437.983C165.798 437.089 166.419 436.403 167.207 435.926C167.998 435.445 168.898 435.205 169.906 435.205C170.909 435.205 171.805 435.445 172.593 435.926C173.385 436.403 174.008 437.089 174.462 437.983C174.917 438.873 175.144 439.939 175.144 441.182ZM173.406 441.182C173.406 440.235 173.252 439.437 172.945 438.79C172.642 438.138 172.226 437.646 171.695 437.312C171.169 436.975 170.572 436.807 169.906 436.807C169.235 436.807 168.637 436.975 168.11 437.312C167.584 437.646 167.167 438.138 166.86 438.79C166.557 439.437 166.406 440.235 166.406 441.182C166.406 442.129 166.557 442.928 166.86 443.58C167.167 444.227 167.584 444.72 168.11 445.057C168.637 445.39 169.235 445.557 169.906 445.557C170.572 445.557 171.169 445.39 171.695 445.057C172.226 444.72 172.642 444.227 172.945 443.58C173.252 442.928 173.406 442.129 173.406 441.182ZM179.295 447L176.068 435.364H177.914L180.181 444.375H180.289L182.647 435.364H184.477L186.835 444.381H186.943L189.204 435.364H191.056L187.823 447H186.056L183.607 438.284H183.516L181.068 447H179.295ZM198.796 438.42C198.736 437.883 198.486 437.466 198.046 437.17C197.607 436.871 197.054 436.722 196.387 436.722C195.91 436.722 195.497 436.797 195.149 436.949C194.8 437.097 194.529 437.301 194.336 437.562C194.147 437.82 194.052 438.114 194.052 438.443C194.052 438.72 194.117 438.958 194.245 439.159C194.378 439.36 194.55 439.528 194.762 439.665C194.978 439.797 195.209 439.909 195.456 440C195.702 440.087 195.938 440.159 196.166 440.216L197.302 440.511C197.673 440.602 198.054 440.725 198.444 440.881C198.834 441.036 199.196 441.241 199.529 441.494C199.863 441.748 200.132 442.062 200.336 442.438C200.545 442.812 200.649 443.261 200.649 443.784C200.649 444.443 200.478 445.028 200.137 445.54C199.8 446.051 199.31 446.455 198.666 446.75C198.026 447.045 197.251 447.193 196.342 447.193C195.471 447.193 194.717 447.055 194.081 446.778C193.444 446.502 192.946 446.11 192.586 445.602C192.226 445.091 192.028 444.485 191.99 443.784H193.751C193.785 444.205 193.921 444.555 194.16 444.835C194.403 445.112 194.711 445.318 195.086 445.455C195.465 445.587 195.88 445.653 196.331 445.653C196.827 445.653 197.268 445.576 197.654 445.42C198.045 445.261 198.351 445.042 198.575 444.761C198.798 444.477 198.91 444.146 198.91 443.767C198.91 443.422 198.812 443.14 198.615 442.92C198.421 442.701 198.158 442.519 197.825 442.375C197.495 442.231 197.122 442.104 196.706 441.994L195.331 441.619C194.399 441.366 193.66 440.992 193.115 440.5C192.573 440.008 192.302 439.356 192.302 438.545C192.302 437.875 192.484 437.29 192.848 436.79C193.211 436.29 193.704 435.902 194.325 435.625C194.946 435.345 195.647 435.205 196.427 435.205C197.215 435.205 197.91 435.343 198.512 435.619C199.118 435.896 199.596 436.277 199.944 436.761C200.293 437.242 200.474 437.795 200.49 438.42H198.796Z" fill="black" fill-opacity="0.8" style="fill:black;fill-opacity:0.8;"/>
<path d="M496.691 301.234C497.11 301.593 497.741 301.544 498.101 301.125C498.46 300.705 498.411 300.074 497.991 299.715L496.691 301.234ZM454.5 263.792L455.15 263.033L455.15 263.033L454.5 263.792ZM444.815 255.5L445.465 254.741L445.465 254.741L444.815 255.5ZM421 235.109L421.65 234.349L421.65 234.349L421 235.109ZM406.924 221.74C406.505 221.381 405.873 221.43 405.514 221.85C405.155 222.269 405.204 222.9 405.623 223.26L406.924 221.74ZM360.075 184.26C360.494 184.619 361.126 184.57 361.485 184.15C361.844 183.731 361.795 183.1 361.376 182.74L360.075 184.26ZM346 170.891L346.65 170.132L346.65 170.132L346 170.891ZM330.36 157.5L329.709 158.26L329.709 158.26L330.36 157.5ZM296 128.08L296.65 127.32L296.65 127.32L296 128.08ZM269.581 104.529C269.03 104.571 268.619 105.052 268.661 105.603L269.356 114.576C269.399 115.127 269.88 115.538 270.43 115.496C270.981 115.453 271.393 114.972 271.35 114.422L270.732 106.445L278.709 105.828C279.259 105.785 279.671 105.304 279.628 104.753C279.586 104.203 279.105 103.791 278.554 103.834L269.581 104.529ZM497.991 299.715L455.15 263.033L453.849 264.552L496.691 301.234L497.991 299.715ZM455.15 263.033L445.465 254.741L444.165 256.26L453.849 264.552L455.15 263.033ZM445.465 254.741L421.65 234.349L420.349 235.868L444.165 256.26L445.465 254.741ZM421.65 234.349L406.924 221.74L405.623 223.26L420.349 235.868L421.65 234.349ZM361.376 182.74L346.65 170.132L345.349 171.651L360.075 184.26L361.376 182.74ZM346.65 170.132L331.01 156.74L329.709 158.26L345.349 171.651L346.65 170.132ZM331.01 156.74L296.65 127.32L295.349 128.84L329.709 158.26L331.01 156.74ZM296.65 127.32L270.309 104.766L269.008 106.285L295.349 128.84L296.65 127.32Z" fill="#90CB62" style="fill:#90CB62;fill:color(display-p3 0.5647 0.7961 0.3843);fill-opacity:1;"/>
<path d="M354.81 209V197.364H356.566V202.921H356.708L361.589 197.364H363.799L359.106 202.602L363.816 209H361.702L357.941 203.801L356.566 205.381V209H354.81ZM374.651 197.364V209H373.038L367.123 200.466H367.015V209H365.259V197.364H366.884L372.805 205.909H372.913V197.364H374.651ZM387.144 203.182C387.144 204.424 386.917 205.492 386.462 206.386C386.008 207.277 385.385 207.962 384.593 208.443C383.805 208.921 382.909 209.159 381.906 209.159C380.898 209.159 379.998 208.921 379.207 208.443C378.419 207.962 377.798 207.275 377.343 206.381C376.888 205.487 376.661 204.421 376.661 203.182C376.661 201.939 376.888 200.873 377.343 199.983C377.798 199.089 378.419 198.403 379.207 197.926C379.998 197.445 380.898 197.205 381.906 197.205C382.909 197.205 383.805 197.445 384.593 197.926C385.385 198.403 386.008 199.089 386.462 199.983C386.917 200.873 387.144 201.939 387.144 203.182ZM385.406 203.182C385.406 202.235 385.252 201.438 384.945 200.79C384.642 200.138 384.226 199.646 383.695 199.313C383.169 198.975 382.572 198.807 381.906 198.807C381.235 198.807 380.637 198.975 380.11 199.313C379.584 199.646 379.167 200.138 378.86 200.79C378.557 201.438 378.406 202.235 378.406 203.182C378.406 204.129 378.557 204.928 378.86 205.58C379.167 206.227 379.584 206.72 380.11 207.057C380.637 207.39 381.235 207.557 381.906 207.557C382.572 207.557 383.169 207.39 383.695 207.057C384.226 206.72 384.642 206.227 384.945 205.58C385.252 204.928 385.406 204.129 385.406 203.182ZM391.295 209L388.068 197.364H389.914L392.181 206.375H392.289L394.647 197.364H396.477L398.835 206.381H398.943L401.204 197.364H403.056L399.823 209H398.056L395.607 200.284H395.516L393.068 209H391.295ZM410.796 200.421C410.736 199.883 410.486 199.466 410.046 199.171C409.607 198.871 409.054 198.722 408.387 198.722C407.91 198.722 407.497 198.797 407.149 198.949C406.8 199.097 406.529 199.301 406.336 199.563C406.147 199.82 406.052 200.114 406.052 200.443C406.052 200.72 406.117 200.958 406.245 201.159C406.378 201.36 406.55 201.528 406.762 201.665C406.978 201.797 407.209 201.909 407.456 202C407.702 202.087 407.938 202.159 408.166 202.216L409.302 202.511C409.673 202.602 410.054 202.725 410.444 202.881C410.834 203.036 411.196 203.241 411.529 203.494C411.863 203.748 412.132 204.063 412.336 204.438C412.545 204.813 412.649 205.261 412.649 205.784C412.649 206.443 412.478 207.028 412.137 207.54C411.8 208.051 411.31 208.455 410.666 208.75C410.026 209.046 409.251 209.193 408.342 209.193C407.471 209.193 406.717 209.055 406.081 208.778C405.444 208.502 404.946 208.11 404.586 207.602C404.226 207.091 404.028 206.485 403.99 205.784H405.751C405.785 206.205 405.921 206.555 406.16 206.835C406.403 207.112 406.711 207.318 407.086 207.455C407.465 207.587 407.88 207.653 408.331 207.653C408.827 207.653 409.268 207.576 409.654 207.421C410.045 207.261 410.351 207.042 410.575 206.761C410.798 206.477 410.91 206.146 410.91 205.767C410.91 205.422 410.812 205.14 410.615 204.921C410.421 204.701 410.158 204.519 409.825 204.375C409.495 204.231 409.122 204.104 408.706 203.994L407.331 203.619C406.399 203.366 405.66 202.992 405.115 202.5C404.573 202.008 404.302 201.356 404.302 200.546C404.302 199.875 404.484 199.29 404.848 198.79C405.211 198.29 405.704 197.902 406.325 197.625C406.946 197.345 407.647 197.205 408.427 197.205C409.215 197.205 409.91 197.343 410.512 197.619C411.118 197.896 411.596 198.277 411.944 198.761C412.293 199.242 412.474 199.796 412.49 200.421H410.796Z" fill="black" fill-opacity="0.8" style="fill:black;fill-opacity:0.8;"/>
<path d="M193.361 112.353C193.707 111.923 193.64 111.293 193.21 110.947C192.779 110.6 192.15 110.668 191.803 111.098L193.361 112.353ZM179.5 127.965L180.279 128.593L180.279 128.593L179.5 127.965ZM154.93 156.873C154.583 157.303 154.651 157.932 155.081 158.279C155.511 158.625 156.141 158.557 156.487 158.127L154.93 156.873ZM125.071 197.127C125.417 196.697 125.349 196.068 124.919 195.721C124.489 195.375 123.859 195.443 123.513 195.873L125.071 197.127ZM108.181 216.5L108.959 217.127L108.959 217.127L108.181 216.5ZM103.347 222.5L102.569 221.873L102.569 221.873L103.347 222.5ZM100.5 226.034L101.279 226.662L101.279 226.662L100.5 226.034ZM90.5001 238.448L89.7213 237.821L89.7213 237.821L90.5001 238.448ZM86.4237 242.381C86.4829 242.931 86.9759 243.328 87.525 243.269L96.4733 242.305C97.0224 242.246 97.4196 241.753 97.3605 241.204C97.3013 240.654 96.8083 240.257 96.2592 240.316L88.3051 241.173L87.4485 233.219C87.3894 232.67 86.8963 232.273 86.3472 232.332C85.7981 232.391 85.4009 232.884 85.46 233.433L86.4237 242.381ZM191.803 111.098L178.721 127.338L180.279 128.593L193.361 112.353L191.803 111.098ZM178.721 127.338L154.93 156.873L156.487 158.127L180.279 128.593L178.721 127.338ZM123.513 195.873L107.402 215.873L108.959 217.127L125.071 197.127L123.513 195.873ZM107.402 215.873L102.569 221.873L104.126 223.127L108.959 217.127L107.402 215.873ZM102.569 221.873L99.7213 225.407L101.279 226.662L104.126 223.127L102.569 221.873ZM99.7213 225.407L89.7213 237.821L91.2788 239.076L101.279 226.662L99.7213 225.407ZM89.7213 237.821L86.6392 241.647L88.1967 242.902L91.2788 239.076L89.7213 237.821Z" fill="#1A1B1D" style="fill:#1A1B1D;fill:color(display-p3 0.1020 0.1059 0.1137);fill-opacity:1;"/>
<path d="M109.718 183V171.364H113.98C114.806 171.364 115.489 171.5 116.031 171.773C116.573 172.042 116.978 172.407 117.247 172.869C117.516 173.328 117.65 173.845 117.65 174.42C117.65 174.905 117.561 175.314 117.383 175.648C117.205 175.977 116.967 176.242 116.667 176.443C116.372 176.64 116.046 176.784 115.69 176.875V176.989C116.076 177.008 116.453 177.133 116.821 177.364C117.192 177.591 117.499 177.915 117.741 178.335C117.984 178.756 118.105 179.267 118.105 179.869C118.105 180.464 117.965 180.998 117.684 181.472C117.408 181.941 116.98 182.314 116.4 182.591C115.821 182.864 115.08 183 114.179 183H109.718ZM111.474 181.494H114.008C114.849 181.494 115.451 181.331 115.815 181.006C116.179 180.68 116.36 180.273 116.36 179.784C116.36 179.417 116.268 179.08 116.082 178.773C115.896 178.466 115.631 178.222 115.287 178.04C114.946 177.858 114.54 177.767 114.071 177.767H111.474V181.494ZM111.474 176.398H113.826C114.22 176.398 114.574 176.322 114.889 176.17C115.207 176.019 115.459 175.807 115.645 175.534C115.834 175.258 115.929 174.932 115.929 174.557C115.929 174.076 115.76 173.672 115.423 173.347C115.086 173.021 114.569 172.858 113.872 172.858H111.474V176.398ZM120.011 183V171.364H121.767V181.489H127.04V183H120.011ZM138.521 177.182C138.521 178.424 138.294 179.492 137.839 180.386C137.385 181.277 136.762 181.962 135.97 182.443C135.182 182.92 134.286 183.159 133.283 183.159C132.275 183.159 131.375 182.92 130.584 182.443C129.796 181.962 129.175 181.275 128.72 180.381C128.266 179.487 128.038 178.42 128.038 177.182C128.038 175.939 128.266 174.873 128.72 173.983C129.175 173.089 129.796 172.403 130.584 171.926C131.375 171.445 132.275 171.205 133.283 171.205C134.286 171.205 135.182 171.445 135.97 171.926C136.762 172.403 137.385 173.089 137.839 173.983C138.294 174.873 138.521 175.939 138.521 177.182ZM136.783 177.182C136.783 176.235 136.629 175.437 136.322 174.79C136.019 174.138 135.603 173.646 135.072 173.312C134.546 172.975 133.949 172.807 133.283 172.807C132.612 172.807 132.014 172.975 131.487 173.312C130.961 173.646 130.544 174.138 130.237 174.79C129.934 175.437 129.783 176.235 129.783 177.182C129.783 178.129 129.934 178.928 130.237 179.58C130.544 180.227 130.961 180.72 131.487 181.057C132.014 181.39 132.612 181.557 133.283 181.557C133.949 181.557 134.546 181.39 135.072 181.057C135.603 180.72 136.019 180.227 136.322 179.58C136.629 178.928 136.783 178.129 136.783 177.182ZM150.199 175.148H148.426C148.358 174.769 148.231 174.436 148.046 174.148C147.86 173.86 147.633 173.616 147.364 173.415C147.095 173.214 146.794 173.062 146.46 172.96C146.131 172.858 145.78 172.807 145.409 172.807C144.739 172.807 144.138 172.975 143.608 173.312C143.082 173.65 142.665 174.144 142.358 174.795C142.055 175.447 141.903 176.242 141.903 177.182C141.903 178.129 142.055 178.928 142.358 179.58C142.665 180.231 143.083 180.723 143.614 181.057C144.144 181.39 144.741 181.557 145.403 181.557C145.771 181.557 146.119 181.508 146.449 181.409C146.782 181.307 147.083 181.157 147.352 180.96C147.621 180.763 147.849 180.523 148.034 180.239C148.224 179.951 148.354 179.621 148.426 179.25L150.199 179.256C150.104 179.828 149.921 180.354 149.648 180.835C149.379 181.312 149.032 181.725 148.608 182.074C148.188 182.419 147.707 182.686 147.165 182.875C146.623 183.064 146.032 183.159 145.392 183.159C144.385 183.159 143.487 182.92 142.699 182.443C141.911 181.962 141.29 181.275 140.835 180.381C140.385 179.487 140.159 178.42 140.159 177.182C140.159 175.939 140.386 174.873 140.841 173.983C141.296 173.089 141.917 172.403 142.705 171.926C143.492 171.445 144.388 171.205 145.392 171.205C146.01 171.205 146.585 171.294 147.119 171.472C147.657 171.646 148.14 171.903 148.568 172.244C148.996 172.581 149.35 172.994 149.631 173.483C149.911 173.968 150.1 174.523 150.199 175.148ZM152.124 183V171.364H153.879V176.92H154.022L158.902 171.364H161.112L156.419 176.602L161.129 183H159.016L155.254 177.801L153.879 179.381V183H152.124ZM168.888 174.42C168.828 173.883 168.578 173.466 168.138 173.17C167.699 172.871 167.146 172.722 166.479 172.722C166.002 172.722 165.589 172.797 165.24 172.949C164.892 173.097 164.621 173.301 164.428 173.562C164.239 173.82 164.144 174.114 164.144 174.443C164.144 174.72 164.208 174.958 164.337 175.159C164.47 175.36 164.642 175.528 164.854 175.665C165.07 175.797 165.301 175.909 165.547 176C165.793 176.087 166.03 176.159 166.257 176.216L167.394 176.511C167.765 176.602 168.146 176.725 168.536 176.881C168.926 177.036 169.288 177.241 169.621 177.494C169.954 177.748 170.223 178.062 170.428 178.438C170.636 178.812 170.74 179.261 170.74 179.784C170.74 180.443 170.57 181.028 170.229 181.54C169.892 182.051 169.401 182.455 168.757 182.75C168.117 183.045 167.343 183.193 166.434 183.193C165.562 183.193 164.809 183.055 164.172 182.778C163.536 182.502 163.038 182.11 162.678 181.602C162.318 181.091 162.119 180.485 162.081 179.784H163.843C163.877 180.205 164.013 180.555 164.252 180.835C164.494 181.112 164.803 181.318 165.178 181.455C165.557 181.587 165.971 181.653 166.422 181.653C166.918 181.653 167.36 181.576 167.746 181.42C168.136 181.261 168.443 181.042 168.667 180.761C168.89 180.477 169.002 180.146 169.002 179.767C169.002 179.422 168.903 179.14 168.706 178.92C168.513 178.701 168.25 178.519 167.917 178.375C167.587 178.231 167.214 178.104 166.797 177.994L165.422 177.619C164.49 177.366 163.752 176.992 163.206 176.5C162.665 176.008 162.394 175.356 162.394 174.545C162.394 173.875 162.576 173.29 162.939 172.79C163.303 172.29 163.795 171.902 164.417 171.625C165.038 171.345 165.739 171.205 166.519 171.205C167.307 171.205 168.002 171.343 168.604 171.619C169.21 171.896 169.687 172.277 170.036 172.761C170.384 173.242 170.566 173.795 170.581 174.42H168.888Z" fill="black" fill-opacity="0.8" style="fill:black;fill-opacity:0.8;"/>
<path d="M54 328.5C54 327.948 53.5523 327.5 53 327.5C52.4477 327.5 52 327.948 52 328.5H54ZM52 362.5C52 363.052 52.4477 363.5 53 363.5C53.5523 363.5 54 363.052 54 362.5H52ZM54 401.5C54 400.948 53.5523 400.5 53 400.5C52.4477 400.5 52 400.948 52 401.5H54ZM52.2929 436.207C52.6834 436.598 53.3166 436.598 53.7071 436.207L60.0711 429.843C60.4616 429.453 60.4616 428.819 60.0711 428.429C59.6805 428.038 59.0474 428.038 58.6569 428.429L53 434.086L47.3431 428.429C46.9526 428.038 46.3195 428.038 45.9289 428.429C45.5384 428.819 45.5384 429.453 45.9289 429.843L52.2929 436.207ZM52 328.5V362.5H54V328.5H52ZM52 401.5V435.5H54V401.5H52Z" fill="#90CB62" style="fill:#90CB62;fill:color(display-p3 0.5647 0.7961 0.3843);fill-opacity:1;"/>
<path d="M24.3101 388V376.364H26.0658V381.92H26.2078L31.0885 376.364H33.2987L28.6056 381.602L33.3158 388H31.2021L27.4408 382.801L26.0658 384.381V388H24.3101ZM44.1511 376.364V388H42.5375L36.6227 379.466H36.5148V388H34.7591V376.364H36.3841L42.3046 384.909H42.4125V376.364H44.1511ZM56.6442 382.182C56.6442 383.424 56.4169 384.492 55.9624 385.386C55.5078 386.277 54.8847 386.962 54.093 387.443C53.3052 387.92 52.4093 388.159 51.4055 388.159C50.398 388.159 49.4983 387.92 48.7067 387.443C47.9188 386.962 47.2976 386.275 46.843 385.381C46.3885 384.487 46.1612 383.42 46.1612 382.182C46.1612 380.939 46.3885 379.873 46.843 378.983C47.2976 378.089 47.9188 377.403 48.7067 376.926C49.4983 376.445 50.398 376.205 51.4055 376.205C52.4093 376.205 53.3052 376.445 54.093 376.926C54.8847 377.403 55.5078 378.089 55.9624 378.983C56.4169 379.873 56.6442 380.939 56.6442 382.182ZM54.9055 382.182C54.9055 381.235 54.7521 380.437 54.4453 379.79C54.1423 379.138 53.7256 378.646 53.1953 378.312C52.6688 377.975 52.0722 377.807 51.4055 377.807C50.7351 377.807 50.1366 377.975 49.6101 378.312C49.0836 378.646 48.6669 379.138 48.3601 379.79C48.0571 380.437 47.9055 381.235 47.9055 382.182C47.9055 383.129 48.0571 383.928 48.3601 384.58C48.6669 385.227 49.0836 385.72 49.6101 386.057C50.1366 386.39 50.7351 386.557 51.4055 386.557C52.0722 386.557 52.6688 386.39 53.1953 386.057C53.7256 385.72 54.1423 385.227 54.4453 384.58C54.7521 383.928 54.9055 383.129 54.9055 382.182ZM60.7949 388L57.5676 376.364H59.4142L61.6812 385.375H61.7892L64.1472 376.364H65.9767L68.3347 385.381H68.4426L70.704 376.364H72.5562L69.3233 388H67.5562L65.1074 379.284H65.0165L62.5676 388H60.7949ZM80.2964 379.42C80.2358 378.883 79.9858 378.466 79.5464 378.17C79.107 377.871 78.554 377.722 77.8873 377.722C77.4101 377.722 76.9972 377.797 76.6487 377.949C76.3002 378.097 76.0294 378.301 75.8362 378.562C75.6468 378.82 75.5521 379.114 75.5521 379.443C75.5521 379.72 75.6165 379.958 75.7453 380.159C75.8779 380.36 76.0502 380.528 76.2623 380.665C76.4783 380.797 76.7093 380.909 76.9555 381C77.2017 381.087 77.4385 381.159 77.6658 381.216L78.8021 381.511C79.1733 381.602 79.554 381.725 79.9442 381.881C80.3343 382.036 80.6961 382.241 81.0294 382.494C81.3627 382.748 81.6317 383.062 81.8362 383.438C82.0445 383.812 82.1487 384.261 82.1487 384.784C82.1487 385.443 81.9783 386.028 81.6373 386.54C81.3002 387.051 80.8097 387.455 80.1658 387.75C79.5256 388.045 78.751 388.193 77.8419 388.193C76.9707 388.193 76.2169 388.055 75.5805 387.778C74.9442 387.502 74.4461 387.11 74.0862 386.602C73.7264 386.091 73.5275 385.485 73.4896 384.784H75.251C75.2851 385.205 75.4214 385.555 75.6601 385.835C75.9025 386.112 76.2112 386.318 76.5862 386.455C76.965 386.587 77.3798 386.653 77.8305 386.653C78.3267 386.653 78.768 386.576 79.1544 386.42C79.5445 386.261 79.8514 386.042 80.0748 385.761C80.2983 385.477 80.4101 385.146 80.4101 384.767C80.4101 384.422 80.3116 384.14 80.1146 383.92C79.9214 383.701 79.6582 383.519 79.3248 383.375C78.9953 383.231 78.6222 383.104 78.2055 382.994L76.8305 382.619C75.8987 382.366 75.1601 381.992 74.6146 381.5C74.073 381.008 73.8021 380.356 73.8021 379.545C73.8021 378.875 73.9839 378.29 74.3476 377.79C74.7112 377.29 75.2036 376.902 75.8248 376.625C76.4461 376.345 77.1468 376.205 77.9271 376.205C78.715 376.205 79.4101 376.343 80.0123 376.619C80.6184 376.896 81.0957 377.277 81.4442 377.761C81.7927 378.242 81.9745 378.795 81.9896 379.42H80.2964Z" fill="black" fill-opacity="0.8" style="fill:black;fill-opacity:0.8;"/>
<path d="M333.129 390.58C332.595 390.721 332.276 391.268 332.417 391.802C332.558 392.336 333.105 392.654 333.639 392.513L333.129 390.58ZM341.136 389.5L340.881 388.533L340.881 388.533L341.136 389.5ZM346 388.216L346.255 389.183L346.255 389.183L346 388.216ZM375.755 381.395C376.289 381.254 376.608 380.707 376.467 380.173C376.326 379.639 375.778 379.32 375.244 379.461L375.755 381.395ZM454.244 358.605C453.71 358.746 453.392 359.293 453.533 359.827C453.674 360.361 454.221 360.68 454.755 360.539L454.244 358.605ZM488.863 350.5L488.608 349.533L488.608 349.533L488.863 350.5ZM497.48 348.957C497.758 348.479 497.596 347.867 497.119 347.589L489.341 343.06C488.864 342.783 488.252 342.944 487.974 343.421C487.696 343.899 487.858 344.511 488.335 344.789L495.248 348.814L491.223 355.728C490.945 356.205 491.106 356.817 491.584 357.095C492.061 357.373 492.673 357.211 492.951 356.734L497.48 348.957ZM333.639 392.513L341.391 390.467L340.881 388.533L333.129 390.58L333.639 392.513ZM341.391 390.467L346.255 389.183L345.744 387.249L340.881 388.533L341.391 390.467ZM346.255 389.183L375.755 381.395L375.244 379.461L345.744 387.249L346.255 389.183ZM454.755 360.539L489.119 351.467L488.608 349.533L454.244 358.605L454.755 360.539ZM489.119 351.467L496.871 349.42L496.36 347.486L488.608 349.533L489.119 351.467Z" fill="#1A1B1D" style="fill:#1A1B1D;fill:color(display-p3 0.1020 0.1059 0.1137);fill-opacity:1;"/>
<path d="M384.718 376V364.364H388.98C389.806 364.364 390.489 364.5 391.031 364.773C391.573 365.042 391.978 365.407 392.247 365.869C392.516 366.328 392.65 366.845 392.65 367.42C392.65 367.905 392.561 368.314 392.383 368.648C392.205 368.977 391.967 369.242 391.667 369.443C391.372 369.64 391.046 369.784 390.69 369.875V369.989C391.076 370.008 391.453 370.133 391.821 370.364C392.192 370.591 392.499 370.915 392.741 371.335C392.984 371.756 393.105 372.267 393.105 372.869C393.105 373.464 392.965 373.998 392.684 374.472C392.408 374.941 391.98 375.314 391.4 375.591C390.821 375.864 390.08 376 389.179 376H384.718ZM386.474 374.494H389.008C389.849 374.494 390.451 374.331 390.815 374.006C391.179 373.68 391.36 373.273 391.36 372.784C391.36 372.417 391.268 372.08 391.082 371.773C390.896 371.466 390.631 371.222 390.287 371.04C389.946 370.858 389.54 370.767 389.071 370.767H386.474V374.494ZM386.474 369.398H388.826C389.22 369.398 389.574 369.322 389.889 369.17C390.207 369.019 390.459 368.807 390.645 368.534C390.834 368.258 390.929 367.932 390.929 367.557C390.929 367.076 390.76 366.672 390.423 366.347C390.086 366.021 389.569 365.858 388.872 365.858H386.474V369.398ZM395.011 376V364.364H396.767V374.489H402.04V376H395.011ZM413.521 370.182C413.521 371.424 413.294 372.492 412.839 373.386C412.385 374.277 411.762 374.962 410.97 375.443C410.182 375.92 409.286 376.159 408.283 376.159C407.275 376.159 406.375 375.92 405.584 375.443C404.796 374.962 404.175 374.275 403.72 373.381C403.266 372.487 403.038 371.42 403.038 370.182C403.038 368.939 403.266 367.873 403.72 366.983C404.175 366.089 404.796 365.403 405.584 364.926C406.375 364.445 407.275 364.205 408.283 364.205C409.286 364.205 410.182 364.445 410.97 364.926C411.762 365.403 412.385 366.089 412.839 366.983C413.294 367.873 413.521 368.939 413.521 370.182ZM411.783 370.182C411.783 369.235 411.629 368.437 411.322 367.79C411.019 367.138 410.603 366.646 410.072 366.312C409.546 365.975 408.949 365.807 408.283 365.807C407.612 365.807 407.014 365.975 406.487 366.312C405.961 366.646 405.544 367.138 405.237 367.79C404.934 368.437 404.783 369.235 404.783 370.182C404.783 371.129 404.934 371.928 405.237 372.58C405.544 373.227 405.961 373.72 406.487 374.057C407.014 374.39 407.612 374.557 408.283 374.557C408.949 374.557 409.546 374.39 410.072 374.057C410.603 373.72 411.019 373.227 411.322 372.58C411.629 371.928 411.783 371.129 411.783 370.182ZM425.199 368.148H423.426C423.358 367.769 423.231 367.436 423.046 367.148C422.86 366.86 422.633 366.616 422.364 366.415C422.095 366.214 421.794 366.062 421.46 365.96C421.131 365.858 420.78 365.807 420.409 365.807C419.739 365.807 419.138 365.975 418.608 366.312C418.082 366.65 417.665 367.144 417.358 367.795C417.055 368.447 416.903 369.242 416.903 370.182C416.903 371.129 417.055 371.928 417.358 372.58C417.665 373.231 418.083 373.723 418.614 374.057C419.144 374.39 419.741 374.557 420.403 374.557C420.771 374.557 421.119 374.508 421.449 374.409C421.782 374.307 422.083 374.157 422.352 373.96C422.621 373.763 422.849 373.523 423.034 373.239C423.224 372.951 423.354 372.621 423.426 372.25L425.199 372.256C425.104 372.828 424.921 373.354 424.648 373.835C424.379 374.312 424.032 374.725 423.608 375.074C423.188 375.419 422.707 375.686 422.165 375.875C421.623 376.064 421.032 376.159 420.392 376.159C419.385 376.159 418.487 375.92 417.699 375.443C416.911 374.962 416.29 374.275 415.835 373.381C415.385 372.487 415.159 371.42 415.159 370.182C415.159 368.939 415.386 367.873 415.841 366.983C416.296 366.089 416.917 365.403 417.705 364.926C418.492 364.445 419.388 364.205 420.392 364.205C421.01 364.205 421.585 364.294 422.119 364.472C422.657 364.646 423.14 364.903 423.568 365.244C423.996 365.581 424.35 365.994 424.631 366.483C424.911 366.968 425.1 367.523 425.199 368.148ZM427.124 376V364.364H428.879V369.92H429.022L433.902 364.364H436.112L431.419 369.602L436.129 376H434.016L430.254 370.801L428.879 372.381V376H427.124ZM443.888 367.42C443.828 366.883 443.578 366.466 443.138 366.17C442.699 365.871 442.146 365.722 441.479 365.722C441.002 365.722 440.589 365.797 440.24 365.949C439.892 366.097 439.621 366.301 439.428 366.562C439.239 366.82 439.144 367.114 439.144 367.443C439.144 367.72 439.208 367.958 439.337 368.159C439.47 368.36 439.642 368.528 439.854 368.665C440.07 368.797 440.301 368.909 440.547 369C440.793 369.087 441.03 369.159 441.257 369.216L442.394 369.511C442.765 369.602 443.146 369.725 443.536 369.881C443.926 370.036 444.288 370.241 444.621 370.494C444.954 370.748 445.223 371.062 445.428 371.438C445.636 371.812 445.74 372.261 445.74 372.784C445.74 373.443 445.57 374.028 445.229 374.54C444.892 375.051 444.401 375.455 443.757 375.75C443.117 376.045 442.343 376.193 441.434 376.193C440.562 376.193 439.809 376.055 439.172 375.778C438.536 375.502 438.038 375.11 437.678 374.602C437.318 374.091 437.119 373.485 437.081 372.784H438.843C438.877 373.205 439.013 373.555 439.252 373.835C439.494 374.112 439.803 374.318 440.178 374.455C440.557 374.587 440.971 374.653 441.422 374.653C441.918 374.653 442.36 374.576 442.746 374.42C443.136 374.261 443.443 374.042 443.667 373.761C443.89 373.477 444.002 373.146 444.002 372.767C444.002 372.422 443.903 372.14 443.706 371.92C443.513 371.701 443.25 371.519 442.917 371.375C442.587 371.231 442.214 371.104 441.797 370.994L440.422 370.619C439.49 370.366 438.752 369.992 438.206 369.5C437.665 369.008 437.394 368.356 437.394 367.545C437.394 366.875 437.576 366.29 437.939 365.79C438.303 365.29 438.795 364.902 439.417 364.625C440.038 364.345 440.739 364.205 441.519 364.205C442.307 364.205 443.002 364.343 443.604 364.619C444.21 364.896 444.687 365.277 445.036 365.761C445.384 366.242 445.566 366.795 445.581 367.42H443.888Z" fill="black" fill-opacity="0.8" style="fill:black;fill-opacity:0.8;"/>
<path d="M175.227 17V9.762H176.893V10.798C177.005 10.6113 177.156 10.4317 177.348 10.259C177.544 10.0863 177.784 9.94633 178.069 9.839C178.353 9.73167 178.687 9.678 179.07 9.678C179.518 9.678 179.933 9.76667 180.316 9.944C180.703 10.1213 181.013 10.399 181.247 10.777C181.485 11.155 181.604 11.6427 181.604 12.24V17H179.896V12.443C179.896 11.967 179.765 11.6147 179.504 11.386C179.242 11.1527 178.913 11.036 178.517 11.036C178.246 11.036 177.989 11.0827 177.747 11.176C177.504 11.2647 177.306 11.4023 177.152 11.589C177.002 11.771 176.928 11.9997 176.928 12.275V17H175.227ZM185.482 17.14C185.02 17.14 184.605 17.056 184.236 16.888C183.872 16.7153 183.585 16.4703 183.375 16.153C183.17 15.831 183.067 15.4413 183.067 14.984C183.067 14.186 183.354 13.584 183.928 13.178C184.507 12.772 185.426 12.5597 186.686 12.541L187.771 12.513V12.023C187.771 11.6403 187.657 11.3417 187.428 11.127C187.204 10.9077 186.854 10.8003 186.378 10.805C186.023 10.8097 185.701 10.8937 185.412 11.057C185.123 11.2157 184.931 11.484 184.838 11.862H183.389C183.417 11.3673 183.559 10.9543 183.816 10.623C184.077 10.287 184.434 10.0373 184.887 9.874C185.34 9.706 185.862 9.622 186.455 9.622C187.146 9.622 187.708 9.713 188.142 9.895C188.576 10.077 188.896 10.3407 189.101 10.686C189.306 11.0267 189.409 11.4397 189.409 11.925V17H187.974L187.834 15.698C187.577 16.244 187.248 16.622 186.847 16.832C186.45 17.0373 185.995 17.14 185.482 17.14ZM186.035 15.985C186.245 15.985 186.453 15.9477 186.658 15.873C186.863 15.7937 187.048 15.6887 187.211 15.558C187.379 15.4227 187.512 15.2733 187.61 15.11C187.713 14.9467 187.766 14.7763 187.771 14.599V13.458L186.882 13.472C186.443 13.4767 186.058 13.5233 185.727 13.612C185.4 13.7007 185.146 13.843 184.964 14.039C184.782 14.2303 184.691 14.487 184.691 14.809C184.691 15.1777 184.819 15.467 185.076 15.677C185.333 15.8823 185.652 15.985 186.035 15.985ZM191.223 17V9.762H192.882V10.798C193.092 10.4807 193.377 10.2053 193.736 9.972C194.1 9.73867 194.562 9.622 195.122 9.622C195.379 9.622 195.638 9.66633 195.899 9.755C196.165 9.84367 196.41 9.97433 196.634 10.147C196.863 10.3197 197.045 10.5343 197.18 10.791C197.409 10.4503 197.712 10.1703 198.09 9.951C198.473 9.73167 198.902 9.622 199.378 9.622C199.639 9.622 199.908 9.664 200.183 9.748C200.463 9.832 200.72 9.972 200.953 10.168C201.186 10.364 201.375 10.6323 201.52 10.973C201.665 11.309 201.737 11.7313 201.737 12.24V17H200.036V12.443C200.036 12.0837 199.973 11.8013 199.847 11.596C199.721 11.3907 199.558 11.246 199.357 11.162C199.161 11.0733 198.951 11.029 198.727 11.029C198.526 11.029 198.316 11.0687 198.097 11.148C197.882 11.2273 197.698 11.358 197.544 11.54C197.395 11.722 197.32 11.967 197.32 12.275V17H195.619V12.17C195.619 11.918 195.554 11.708 195.423 11.54C195.292 11.372 195.127 11.246 194.926 11.162C194.73 11.0733 194.529 11.029 194.324 11.029C194.114 11.029 193.899 11.0733 193.68 11.162C193.465 11.2507 193.286 11.386 193.141 11.568C192.996 11.75 192.924 11.9857 192.924 12.275V17H191.223ZM206.768 17.14C206.072 17.14 205.459 16.993 204.927 16.699C204.399 16.4003 203.986 15.9757 203.688 15.425C203.394 14.8743 203.247 14.2187 203.247 13.458C203.247 12.716 203.38 12.058 203.646 11.484C203.916 10.9053 204.306 10.4503 204.815 10.119C205.328 9.78767 205.946 9.622 206.67 9.622C207.384 9.622 207.983 9.77367 208.469 10.077C208.954 10.3803 209.323 10.805 209.575 11.351C209.827 11.8923 209.953 12.527 209.953 13.255V13.773H204.948C204.943 14.1837 205.008 14.5477 205.144 14.865C205.279 15.1823 205.48 15.432 205.746 15.614C206.012 15.7913 206.341 15.88 206.733 15.88C207.134 15.88 207.482 15.7913 207.776 15.614C208.074 15.432 208.273 15.1567 208.371 14.788H209.925C209.841 15.292 209.64 15.719 209.323 16.069C209.01 16.419 208.627 16.685 208.175 16.867C207.727 17.049 207.258 17.14 206.768 17.14ZM204.941 12.716H208.343C208.343 12.366 208.28 12.051 208.154 11.771C208.032 11.4863 207.848 11.2623 207.601 11.099C207.353 10.931 207.041 10.847 206.663 10.847C206.289 10.847 205.974 10.938 205.718 11.12C205.461 11.302 205.267 11.5377 205.137 11.827C205.006 12.1117 204.941 12.408 204.941 12.716ZM214.646 11.204V9.937L221.002 9.93V11.197L214.646 11.204ZM214.646 14.368V13.094L221.002 13.087V14.361L214.646 14.368ZM226.436 10.497L225.967 6.878H227.822L227.332 10.497H226.436ZM229.151 17L232.784 6.878H234.632L238.265 17H236.557L235.654 14.459H231.776L230.866 17H229.151ZM232.182 12.947H235.227L233.708 8.53L232.182 12.947ZM239.703 17V9.762H241.369V10.798C241.481 10.6113 241.633 10.4317 241.824 10.259C242.02 10.0863 242.261 9.94633 242.545 9.839C242.83 9.73167 243.164 9.678 243.546 9.678C243.994 9.678 244.41 9.76667 244.792 9.944C245.18 10.1213 245.49 10.399 245.723 10.777C245.961 11.155 246.08 11.6427 246.08 12.24V17H244.372V12.443C244.372 11.967 244.242 11.6147 243.98 11.386C243.719 11.1527 243.39 11.036 242.993 11.036C242.723 11.036 242.466 11.0827 242.223 11.176C241.981 11.2647 241.782 11.4023 241.628 11.589C241.479 11.771 241.404 11.9997 241.404 12.275V17H239.703ZM250.594 17.14C249.638 17.14 248.886 16.811 248.34 16.153C247.794 15.495 247.521 14.5593 247.521 13.346C247.521 12.59 247.631 11.9343 247.85 11.379C248.074 10.819 248.403 10.3873 248.837 10.084C249.271 9.776 249.806 9.622 250.44 9.622C250.739 9.622 251.01 9.65933 251.252 9.734C251.5 9.804 251.719 9.89733 251.91 10.014C252.102 10.1307 252.263 10.259 252.393 10.399C252.529 10.539 252.634 10.679 252.708 10.819V6.598H254.423V17H253.163L252.974 15.516C252.914 15.6887 252.827 15.8707 252.715 16.062C252.608 16.2487 252.461 16.4237 252.274 16.587C252.092 16.7503 251.864 16.8833 251.588 16.986C251.313 17.0887 250.982 17.14 250.594 17.14ZM250.944 15.887C251.556 15.887 252.001 15.6887 252.281 15.292C252.566 14.8907 252.708 14.228 252.708 13.304C252.704 12.7767 252.638 12.3333 252.512 11.974C252.391 11.6147 252.204 11.344 251.952 11.162C251.7 10.98 251.371 10.889 250.965 10.889C250.452 10.889 250.03 11.078 249.698 11.456C249.372 11.834 249.208 12.45 249.208 13.304C249.208 14.1533 249.36 14.7973 249.663 15.236C249.967 15.67 250.394 15.887 250.944 15.887ZM259.541 17.14C258.846 17.14 258.232 16.993 257.7 16.699C257.173 16.4003 256.76 15.9757 256.461 15.425C256.167 14.8743 256.02 14.2187 256.02 13.458C256.02 12.716 256.153 12.058 256.419 11.484C256.69 10.9053 257.079 10.4503 257.588 10.119C258.101 9.78767 258.72 9.622 259.443 9.622C260.157 9.622 260.757 9.77367 261.242 10.077C261.727 10.3803 262.096 10.805 262.348 11.351C262.6 11.8923 262.726 12.527 262.726 13.255V13.773H257.721C257.716 14.1837 257.782 14.5477 257.917 14.865C258.052 15.1823 258.253 15.432 258.519 15.614C258.785 15.7913 259.114 15.88 259.506 15.88C259.907 15.88 260.255 15.7913 260.549 15.614C260.848 15.432 261.046 15.1567 261.144 14.788H262.698C262.614 15.292 262.413 15.719 262.096 16.069C261.783 16.419 261.401 16.685 260.948 16.867C260.5 17.049 260.031 17.14 259.541 17.14ZM257.714 12.716H261.116C261.116 12.366 261.053 12.051 260.927 11.771C260.806 11.4863 260.621 11.2623 260.374 11.099C260.127 10.931 259.814 10.847 259.436 10.847C259.063 10.847 258.748 10.938 258.491 11.12C258.234 11.302 258.041 11.5377 257.91 11.827C257.779 12.1117 257.714 12.408 257.714 12.716ZM264.354 17V9.762H265.985V11.33C266.101 10.9707 266.267 10.665 266.482 10.413C266.701 10.1563 266.958 9.96033 267.252 9.825C267.546 9.68967 267.865 9.622 268.211 9.622C268.295 9.622 268.376 9.62667 268.456 9.636C268.535 9.64533 268.593 9.66167 268.631 9.685V11.316C268.579 11.2927 268.512 11.2763 268.428 11.267C268.348 11.2577 268.278 11.253 268.218 11.253C267.868 11.225 267.557 11.239 267.287 11.295C267.021 11.351 266.794 11.4467 266.608 11.582C266.426 11.7127 266.288 11.8807 266.195 12.086C266.101 12.2867 266.055 12.5223 266.055 12.793V17H264.354ZM272.731 17.14C272.227 17.14 271.749 17.0607 271.296 16.902C270.848 16.7387 270.47 16.4843 270.162 16.139C269.859 15.7937 269.667 15.348 269.588 14.802H271.086C271.151 15.068 271.266 15.285 271.429 15.453C271.597 15.621 271.793 15.7447 272.017 15.824C272.246 15.8987 272.481 15.936 272.724 15.936C273.158 15.936 273.508 15.8613 273.774 15.712C274.04 15.5627 274.173 15.3317 274.173 15.019C274.173 14.7903 274.098 14.6083 273.949 14.473C273.804 14.3377 273.566 14.235 273.235 14.165L271.863 13.85C271.247 13.7147 270.755 13.4907 270.386 13.178C270.017 12.8653 269.831 12.4243 269.826 11.855C269.821 11.4257 269.929 11.043 270.148 10.707C270.367 10.371 270.694 10.1073 271.128 9.916C271.562 9.72 272.096 9.622 272.731 9.622C273.576 9.622 274.252 9.811 274.761 10.189C275.274 10.5623 275.538 11.0967 275.552 11.792H274.103C274.052 11.4793 273.905 11.2367 273.662 11.064C273.419 10.8867 273.104 10.798 272.717 10.798C272.316 10.798 271.987 10.875 271.73 11.029C271.473 11.183 271.345 11.4187 271.345 11.736C271.345 11.9553 271.441 12.128 271.632 12.254C271.828 12.38 272.124 12.4873 272.521 12.576L273.823 12.891C274.196 12.9843 274.502 13.1103 274.74 13.269C274.978 13.4277 275.162 13.6027 275.293 13.794C275.428 13.9807 275.522 14.1743 275.573 14.375C275.629 14.571 275.657 14.753 275.657 14.921C275.657 15.3877 275.536 15.7867 275.293 16.118C275.055 16.4447 274.717 16.6967 274.278 16.874C273.844 17.0513 273.328 17.14 272.731 17.14ZM277.501 10.497L277.032 6.878H278.887L278.397 10.497H277.501Z" fill="black" style="fill:black;fill-opacity:1;"/>
<path d="M228.089 466V458.762H229.755V459.798C229.867 459.611 230.019 459.432 230.21 459.259C230.406 459.086 230.646 458.946 230.931 458.839C231.216 458.732 231.549 458.678 231.932 458.678C232.38 458.678 232.795 458.767 233.178 458.944C233.565 459.121 233.876 459.399 234.109 459.777C234.347 460.155 234.466 460.643 234.466 461.24V466H232.758V461.443C232.758 460.967 232.627 460.615 232.366 460.386C232.105 460.153 231.776 460.036 231.379 460.036C231.108 460.036 230.852 460.083 230.609 460.176C230.366 460.265 230.168 460.402 230.014 460.589C229.865 460.771 229.79 461 229.79 461.275V466H228.089ZM238.344 466.14C237.882 466.14 237.467 466.056 237.098 465.888C236.734 465.715 236.447 465.47 236.237 465.153C236.032 464.831 235.929 464.441 235.929 463.984C235.929 463.186 236.216 462.584 236.79 462.178C237.369 461.772 238.288 461.56 239.548 461.541L240.633 461.513V461.023C240.633 460.64 240.519 460.342 240.29 460.127C240.066 459.908 239.716 459.8 239.24 459.805C238.885 459.81 238.563 459.894 238.274 460.057C237.985 460.216 237.793 460.484 237.7 460.862H236.251C236.279 460.367 236.421 459.954 236.678 459.623C236.939 459.287 237.296 459.037 237.749 458.874C238.202 458.706 238.724 458.622 239.317 458.622C240.008 458.622 240.57 458.713 241.004 458.895C241.438 459.077 241.758 459.341 241.963 459.686C242.168 460.027 242.271 460.44 242.271 460.925V466H240.836L240.696 464.698C240.439 465.244 240.11 465.622 239.709 465.832C239.312 466.037 238.857 466.14 238.344 466.14ZM238.897 464.985C239.107 464.985 239.315 464.948 239.52 464.873C239.725 464.794 239.91 464.689 240.073 464.558C240.241 464.423 240.374 464.273 240.472 464.11C240.575 463.947 240.628 463.776 240.633 463.599V462.458L239.744 462.472C239.305 462.477 238.92 462.523 238.589 462.612C238.262 462.701 238.008 462.843 237.826 463.039C237.644 463.23 237.553 463.487 237.553 463.809C237.553 464.178 237.681 464.467 237.938 464.677C238.195 464.882 238.514 464.985 238.897 464.985ZM244.085 466V458.762H245.744V459.798C245.954 459.481 246.239 459.205 246.598 458.972C246.962 458.739 247.424 458.622 247.984 458.622C248.241 458.622 248.5 458.666 248.761 458.755C249.027 458.844 249.272 458.974 249.496 459.147C249.725 459.32 249.907 459.534 250.042 459.791C250.271 459.45 250.574 459.17 250.952 458.951C251.335 458.732 251.764 458.622 252.24 458.622C252.501 458.622 252.77 458.664 253.045 458.748C253.325 458.832 253.582 458.972 253.815 459.168C254.048 459.364 254.237 459.632 254.382 459.973C254.527 460.309 254.599 460.731 254.599 461.24V466H252.898V461.443C252.898 461.084 252.835 460.801 252.709 460.596C252.583 460.391 252.42 460.246 252.219 460.162C252.023 460.073 251.813 460.029 251.589 460.029C251.388 460.029 251.178 460.069 250.959 460.148C250.744 460.227 250.56 460.358 250.406 460.54C250.257 460.722 250.182 460.967 250.182 461.275V466H248.481V461.17C248.481 460.918 248.416 460.708 248.285 460.54C248.154 460.372 247.989 460.246 247.788 460.162C247.592 460.073 247.391 460.029 247.186 460.029C246.976 460.029 246.761 460.073 246.542 460.162C246.327 460.251 246.148 460.386 246.003 460.568C245.858 460.75 245.786 460.986 245.786 461.275V466H244.085ZM259.63 466.14C258.935 466.14 258.321 465.993 257.789 465.699C257.262 465.4 256.849 464.976 256.55 464.425C256.256 463.874 256.109 463.219 256.109 462.458C256.109 461.716 256.242 461.058 256.508 460.484C256.779 459.905 257.168 459.45 257.677 459.119C258.19 458.788 258.809 458.622 259.532 458.622C260.246 458.622 260.846 458.774 261.331 459.077C261.816 459.38 262.185 459.805 262.437 460.351C262.689 460.892 262.815 461.527 262.815 462.255V462.773H257.81C257.805 463.184 257.871 463.548 258.006 463.865C258.141 464.182 258.342 464.432 258.608 464.614C258.874 464.791 259.203 464.88 259.595 464.88C259.996 464.88 260.344 464.791 260.638 464.614C260.937 464.432 261.135 464.157 261.233 463.788H262.787C262.703 464.292 262.502 464.719 262.185 465.069C261.872 465.419 261.49 465.685 261.037 465.867C260.589 466.049 260.12 466.14 259.63 466.14ZM257.803 461.716H261.205C261.205 461.366 261.142 461.051 261.016 460.771C260.895 460.486 260.71 460.262 260.463 460.099C260.216 459.931 259.903 459.847 259.525 459.847C259.152 459.847 258.837 459.938 258.58 460.12C258.323 460.302 258.13 460.538 257.999 460.827C257.868 461.112 257.803 461.408 257.803 461.716ZM267.509 460.204V458.937L273.865 458.93V460.197L267.509 460.204ZM267.509 463.368V462.094L273.865 462.087V463.361L267.509 463.368ZM279.299 459.497L278.83 455.878H280.685L280.195 459.497H279.299ZM282.762 466V455.878H286.241C287.524 455.878 288.483 456.107 289.118 456.564C289.757 457.017 290.077 457.67 290.077 458.524C290.077 459.042 289.944 459.49 289.678 459.868C289.412 460.246 288.943 460.566 288.271 460.827C288.682 460.925 289.02 461.06 289.286 461.233C289.557 461.401 289.767 461.595 289.916 461.814C290.065 462.029 290.17 462.26 290.231 462.507C290.292 462.754 290.322 463.009 290.322 463.27C290.322 464.194 290 464.88 289.356 465.328C288.717 465.776 287.725 466 286.381 466H282.762ZM284.463 464.642H286.402C287.121 464.642 287.664 464.514 288.033 464.257C288.406 463.996 288.593 463.62 288.593 463.13C288.593 462.775 288.502 462.484 288.32 462.255C288.138 462.022 287.891 461.849 287.578 461.737C287.265 461.625 286.915 461.569 286.528 461.569H284.463V464.642ZM284.463 460.19H286.528C286.766 460.19 286.997 460.164 287.221 460.113C287.445 460.062 287.648 459.98 287.83 459.868C288.012 459.756 288.157 459.607 288.264 459.42C288.376 459.233 288.432 459.007 288.432 458.741C288.432 458.232 288.238 457.854 287.851 457.607C287.468 457.355 286.976 457.229 286.374 457.229H284.463V460.19ZM295.098 466.14C294.407 466.14 293.805 465.993 293.292 465.699C292.778 465.4 292.379 464.973 292.095 464.418C291.815 463.863 291.675 463.195 291.675 462.416C291.675 461.66 291.812 460.997 292.088 460.428C292.363 459.859 292.755 459.415 293.264 459.098C293.777 458.781 294.391 458.622 295.105 458.622C295.795 458.622 296.395 458.774 296.904 459.077C297.412 459.38 297.804 459.814 298.08 460.379C298.36 460.944 298.5 461.623 298.5 462.416C298.5 463.149 298.367 463.795 298.101 464.355C297.839 464.91 297.454 465.347 296.946 465.664C296.442 465.981 295.826 466.14 295.098 466.14ZM295.105 464.845C295.497 464.845 295.819 464.738 296.071 464.523C296.327 464.308 296.519 464.014 296.645 463.641C296.771 463.268 296.834 462.843 296.834 462.367C296.834 461.924 296.778 461.515 296.666 461.142C296.554 460.769 296.369 460.47 296.113 460.246C295.861 460.017 295.525 459.903 295.105 459.903C294.708 459.903 294.379 460.008 294.118 460.218C293.861 460.423 293.67 460.713 293.544 461.086C293.418 461.455 293.355 461.882 293.355 462.367C293.355 462.806 293.411 463.214 293.523 463.592C293.635 463.965 293.819 464.269 294.076 464.502C294.332 464.731 294.675 464.845 295.105 464.845ZM302.802 466.14C302.298 466.14 301.82 466.061 301.367 465.902C300.919 465.739 300.541 465.484 300.233 465.139C299.93 464.794 299.739 464.348 299.659 463.802H301.157C301.223 464.068 301.337 464.285 301.5 464.453C301.668 464.621 301.864 464.745 302.088 464.824C302.317 464.899 302.553 464.936 302.795 464.936C303.229 464.936 303.579 464.861 303.845 464.712C304.111 464.563 304.244 464.332 304.244 464.019C304.244 463.79 304.17 463.608 304.02 463.473C303.876 463.338 303.638 463.235 303.306 463.165L301.934 462.85C301.318 462.715 300.826 462.491 300.457 462.178C300.089 461.865 299.902 461.424 299.897 460.855C299.893 460.426 300 460.043 300.219 459.707C300.439 459.371 300.765 459.107 301.199 458.916C301.633 458.72 302.168 458.622 302.802 458.622C303.647 458.622 304.324 458.811 304.832 459.189C305.346 459.562 305.609 460.097 305.623 460.792H304.174C304.123 460.479 303.976 460.237 303.733 460.064C303.491 459.887 303.176 459.798 302.788 459.798C302.387 459.798 302.058 459.875 301.801 460.029C301.545 460.183 301.416 460.419 301.416 460.736C301.416 460.955 301.512 461.128 301.703 461.254C301.899 461.38 302.196 461.487 302.592 461.576L303.894 461.891C304.268 461.984 304.573 462.11 304.811 462.269C305.049 462.428 305.234 462.603 305.364 462.794C305.5 462.981 305.593 463.174 305.644 463.375C305.7 463.571 305.728 463.753 305.728 463.921C305.728 464.388 305.607 464.787 305.364 465.118C305.126 465.445 304.788 465.697 304.349 465.874C303.915 466.051 303.4 466.14 302.802 466.14ZM310.008 466.14C309.504 466.14 309.025 466.061 308.573 465.902C308.125 465.739 307.747 465.484 307.439 465.139C307.135 464.794 306.944 464.348 306.865 463.802H308.363C308.428 464.068 308.542 464.285 308.706 464.453C308.874 464.621 309.07 464.745 309.294 464.824C309.522 464.899 309.758 464.936 310.001 464.936C310.435 464.936 310.785 464.861 311.051 464.712C311.317 464.563 311.45 464.332 311.45 464.019C311.45 463.79 311.375 463.608 311.226 463.473C311.081 463.338 310.843 463.235 310.512 463.165L309.14 462.85C308.524 462.715 308.031 462.491 307.663 462.178C307.294 461.865 307.107 461.424 307.103 460.855C307.098 460.426 307.205 460.043 307.425 459.707C307.644 459.371 307.971 459.107 308.405 458.916C308.839 458.72 309.373 458.622 310.008 458.622C310.852 458.622 311.529 458.811 312.038 459.189C312.551 459.562 312.815 460.097 312.829 460.792H311.38C311.328 460.479 311.181 460.237 310.939 460.064C310.696 459.887 310.381 459.798 309.994 459.798C309.592 459.798 309.263 459.875 309.007 460.029C308.75 460.183 308.622 460.419 308.622 460.736C308.622 460.955 308.717 461.128 308.909 461.254C309.105 461.38 309.401 461.487 309.798 461.576L311.1 461.891C311.473 461.984 311.779 462.11 312.017 462.269C312.255 462.428 312.439 462.603 312.57 462.794C312.705 462.981 312.798 463.174 312.85 463.375C312.906 463.571 312.934 463.753 312.934 463.921C312.934 464.388 312.812 464.787 312.57 465.118C312.332 465.445 311.993 465.697 311.555 465.874C311.121 466.051 310.605 466.14 310.008 466.14ZM314.482 466V458.762H316.141V459.798C316.351 459.481 316.635 459.205 316.995 458.972C317.359 458.739 317.821 458.622 318.381 458.622C318.637 458.622 318.896 458.666 319.158 458.755C319.424 458.844 319.669 458.974 319.893 459.147C320.121 459.32 320.303 459.534 320.439 459.791C320.667 459.45 320.971 459.17 321.349 458.951C321.731 458.732 322.161 458.622 322.637 458.622C322.898 458.622 323.166 458.664 323.442 458.748C323.722 458.832 323.978 458.972 324.212 459.168C324.445 459.364 324.634 459.632 324.779 459.973C324.923 460.309 324.996 460.731 324.996 461.24V466H323.295V461.443C323.295 461.084 323.232 460.801 323.106 460.596C322.98 460.391 322.816 460.246 322.616 460.162C322.42 460.073 322.21 460.029 321.986 460.029C321.785 460.029 321.575 460.069 321.356 460.148C321.141 460.227 320.957 460.358 320.803 460.54C320.653 460.722 320.579 460.967 320.579 461.275V466H318.878V461.17C318.878 460.918 318.812 460.708 318.682 460.54C318.551 460.372 318.385 460.246 318.185 460.162C317.989 460.073 317.788 460.029 317.583 460.029C317.373 460.029 317.158 460.073 316.939 460.162C316.724 460.251 316.544 460.386 316.4 460.568C316.255 460.75 316.183 460.986 316.183 461.275V466H314.482ZM328.879 466.14C328.417 466.14 328.002 466.056 327.633 465.888C327.269 465.715 326.982 465.47 326.772 465.153C326.567 464.831 326.464 464.441 326.464 463.984C326.464 463.186 326.751 462.584 327.325 462.178C327.904 461.772 328.823 461.56 330.083 461.541L331.168 461.513V461.023C331.168 460.64 331.054 460.342 330.825 460.127C330.601 459.908 330.251 459.8 329.775 459.805C329.421 459.81 329.099 459.894 328.809 460.057C328.52 460.216 328.329 460.484 328.235 460.862H326.786C326.814 460.367 326.957 459.954 327.213 459.623C327.475 459.287 327.832 459.037 328.284 458.874C328.737 458.706 329.26 458.622 329.852 458.622C330.543 458.622 331.105 458.713 331.539 458.895C331.973 459.077 332.293 459.341 332.498 459.686C332.704 460.027 332.806 460.44 332.806 460.925V466H331.371L331.231 464.698C330.975 465.244 330.646 465.622 330.244 465.832C329.848 466.037 329.393 466.14 328.879 466.14ZM329.432 464.985C329.642 464.985 329.85 464.948 330.055 464.873C330.261 464.794 330.445 464.689 330.608 464.558C330.776 464.423 330.909 464.273 331.007 464.11C331.11 463.947 331.164 463.776 331.168 463.599V462.458L330.279 462.472C329.841 462.477 329.456 462.523 329.124 462.612C328.798 462.701 328.543 462.843 328.361 463.039C328.179 463.23 328.088 463.487 328.088 463.809C328.088 464.178 328.217 464.467 328.473 464.677C328.73 464.882 329.05 464.985 329.432 464.985ZM334.62 466V458.762H336.286V459.798C336.398 459.611 336.55 459.432 336.741 459.259C336.937 459.086 337.178 458.946 337.462 458.839C337.747 458.732 338.081 458.678 338.463 458.678C338.911 458.678 339.327 458.767 339.709 458.944C340.097 459.121 340.407 459.399 340.64 459.777C340.878 460.155 340.997 460.643 340.997 461.24V466H339.289V461.443C339.289 460.967 339.159 460.615 338.897 460.386C338.636 460.153 338.307 460.036 337.91 460.036C337.64 460.036 337.383 460.083 337.14 460.176C336.898 460.265 336.699 460.402 336.545 460.589C336.396 460.771 336.321 461 336.321 461.275V466H334.62ZM342.823 466V458.762H344.489V459.798C344.601 459.611 344.753 459.432 344.944 459.259C345.14 459.086 345.381 458.946 345.665 458.839C345.95 458.732 346.284 458.678 346.666 458.678C347.114 458.678 347.53 458.767 347.912 458.944C348.3 459.121 348.61 459.399 348.843 459.777C349.081 460.155 349.2 460.643 349.2 461.24V466H347.492V461.443C347.492 460.967 347.362 460.615 347.1 460.386C346.839 460.153 346.51 460.036 346.113 460.036C345.843 460.036 345.586 460.083 345.343 460.176C345.101 460.265 344.902 460.402 344.748 460.589C344.599 460.771 344.524 461 344.524 461.275V466H342.823ZM350.639 459.497L350.17 455.878H352.025L351.535 459.497H350.639Z" fill="black" style="fill:black;fill-opacity:1;"/>
<path d="M106.143 290V282.762H107.809V283.798C107.921 283.611 108.072 283.432 108.264 283.259C108.46 283.086 108.7 282.946 108.985 282.839C109.269 282.732 109.603 282.678 109.986 282.678C110.434 282.678 110.849 282.767 111.232 282.944C111.619 283.121 111.929 283.399 112.163 283.777C112.401 284.155 112.52 284.643 112.52 285.24V290H110.812V285.443C110.812 284.967 110.681 284.615 110.42 284.386C110.158 284.153 109.829 284.036 109.433 284.036C109.162 284.036 108.905 284.083 108.663 284.176C108.42 284.265 108.222 284.402 108.068 284.589C107.918 284.771 107.844 285 107.844 285.275V290H106.143ZM116.398 290.14C115.936 290.14 115.521 290.056 115.152 289.888C114.788 289.715 114.501 289.47 114.291 289.153C114.086 288.831 113.983 288.441 113.983 287.984C113.983 287.186 114.27 286.584 114.844 286.178C115.423 285.772 116.342 285.56 117.602 285.541L118.687 285.513V285.023C118.687 284.64 118.573 284.342 118.344 284.127C118.12 283.908 117.77 283.8 117.294 283.805C116.939 283.81 116.617 283.894 116.328 284.057C116.039 284.216 115.847 284.484 115.754 284.862H114.305C114.333 284.367 114.475 283.954 114.732 283.623C114.993 283.287 115.35 283.037 115.803 282.874C116.256 282.706 116.778 282.622 117.371 282.622C118.062 282.622 118.624 282.713 119.058 282.895C119.492 283.077 119.812 283.341 120.017 283.686C120.222 284.027 120.325 284.44 120.325 284.925V290H118.89L118.75 288.698C118.493 289.244 118.164 289.622 117.763 289.832C117.366 290.037 116.911 290.14 116.398 290.14ZM116.951 288.985C117.161 288.985 117.369 288.948 117.574 288.873C117.779 288.794 117.964 288.689 118.127 288.558C118.295 288.423 118.428 288.273 118.526 288.11C118.629 287.947 118.682 287.776 118.687 287.599V286.458L117.798 286.472C117.359 286.477 116.974 286.523 116.643 286.612C116.316 286.701 116.062 286.843 115.88 287.039C115.698 287.23 115.607 287.487 115.607 287.809C115.607 288.178 115.735 288.467 115.992 288.677C116.249 288.882 116.568 288.985 116.951 288.985ZM122.139 290V282.762H123.798V283.798C124.008 283.481 124.293 283.205 124.652 282.972C125.016 282.739 125.478 282.622 126.038 282.622C126.295 282.622 126.554 282.666 126.815 282.755C127.081 282.844 127.326 282.974 127.55 283.147C127.779 283.32 127.961 283.534 128.096 283.791C128.325 283.45 128.628 283.17 129.006 282.951C129.389 282.732 129.818 282.622 130.294 282.622C130.555 282.622 130.824 282.664 131.099 282.748C131.379 282.832 131.636 282.972 131.869 283.168C132.102 283.364 132.291 283.632 132.436 283.973C132.581 284.309 132.653 284.731 132.653 285.24V290H130.952V285.443C130.952 285.084 130.889 284.801 130.763 284.596C130.637 284.391 130.474 284.246 130.273 284.162C130.077 284.073 129.867 284.029 129.643 284.029C129.442 284.029 129.232 284.069 129.013 284.148C128.798 284.227 128.614 284.358 128.46 284.54C128.311 284.722 128.236 284.967 128.236 285.275V290H126.535V285.17C126.535 284.918 126.47 284.708 126.339 284.54C126.208 284.372 126.043 284.246 125.842 284.162C125.646 284.073 125.445 284.029 125.24 284.029C125.03 284.029 124.815 284.073 124.596 284.162C124.381 284.251 124.202 284.386 124.057 284.568C123.912 284.75 123.84 284.986 123.84 285.275V290H122.139ZM137.684 290.14C136.988 290.14 136.375 289.993 135.843 289.699C135.315 289.4 134.902 288.976 134.604 288.425C134.31 287.874 134.163 287.219 134.163 286.458C134.163 285.716 134.296 285.058 134.562 284.484C134.832 283.905 135.222 283.45 135.731 283.119C136.244 282.788 136.862 282.622 137.586 282.622C138.3 282.622 138.899 282.774 139.385 283.077C139.87 283.38 140.239 283.805 140.491 284.351C140.743 284.892 140.869 285.527 140.869 286.255V286.773H135.864C135.859 287.184 135.924 287.548 136.06 287.865C136.195 288.182 136.396 288.432 136.662 288.614C136.928 288.791 137.257 288.88 137.649 288.88C138.05 288.88 138.398 288.791 138.692 288.614C138.99 288.432 139.189 288.157 139.287 287.788H140.841C140.757 288.292 140.556 288.719 140.239 289.069C139.926 289.419 139.543 289.685 139.091 289.867C138.643 290.049 138.174 290.14 137.684 290.14ZM135.857 285.716H139.259C139.259 285.366 139.196 285.051 139.07 284.771C138.948 284.486 138.764 284.262 138.517 284.099C138.269 283.931 137.957 283.847 137.579 283.847C137.205 283.847 136.89 283.938 136.634 284.12C136.377 284.302 136.183 284.538 136.053 284.827C135.922 285.112 135.857 285.408 135.857 285.716ZM145.562 284.204V282.937L151.918 282.93V284.197L145.562 284.204ZM145.562 287.368V286.094L151.918 286.087V287.361L145.562 287.368ZM157.352 283.497L156.883 279.878H158.738L158.248 283.497H157.352ZM164.757 290.14C163.828 290.14 163.03 289.928 162.363 289.503C161.7 289.074 161.189 288.467 160.83 287.683C160.475 286.894 160.298 285.959 160.298 284.876C160.298 283.798 160.475 282.876 160.83 282.111C161.184 281.346 161.693 280.76 162.356 280.354C163.023 279.943 163.823 279.738 164.757 279.738C165.499 279.738 166.157 279.89 166.731 280.193C167.305 280.492 167.767 280.898 168.117 281.411C168.471 281.924 168.681 282.496 168.747 283.126H166.948C166.878 282.753 166.747 282.419 166.556 282.125C166.369 281.831 166.122 281.598 165.814 281.425C165.506 281.252 165.137 281.166 164.708 281.166C164.171 281.166 163.714 281.294 163.336 281.551C162.962 281.803 162.675 282.204 162.475 282.755C162.279 283.306 162.181 284.02 162.181 284.897C162.181 286.227 162.4 287.195 162.839 287.802C163.277 288.409 163.9 288.712 164.708 288.712C165.137 288.712 165.506 288.619 165.814 288.432C166.122 288.241 166.369 287.989 166.556 287.676C166.747 287.359 166.878 287.013 166.948 286.64H168.747C168.691 287.097 168.574 287.536 168.397 287.956C168.224 288.376 167.979 288.752 167.662 289.083C167.344 289.41 166.945 289.669 166.465 289.86C165.989 290.047 165.419 290.14 164.757 290.14ZM173.613 290.14C172.918 290.14 172.304 289.993 171.772 289.699C171.245 289.4 170.832 288.976 170.533 288.425C170.239 287.874 170.092 287.219 170.092 286.458C170.092 285.716 170.225 285.058 170.491 284.484C170.762 283.905 171.152 283.45 171.66 283.119C172.174 282.788 172.792 282.622 173.515 282.622C174.229 282.622 174.829 282.774 175.314 283.077C175.8 283.38 176.168 283.805 176.42 284.351C176.672 284.892 176.798 285.527 176.798 286.255V286.773H171.793C171.789 287.184 171.854 287.548 171.989 287.865C172.125 288.182 172.325 288.432 172.591 288.614C172.857 288.791 173.186 288.88 173.578 288.88C173.98 288.88 174.327 288.791 174.621 288.614C174.92 288.432 175.118 288.157 175.216 287.788H176.77C176.686 288.292 176.486 288.719 176.168 289.069C175.856 289.419 175.473 289.685 175.02 289.867C174.572 290.049 174.103 290.14 173.613 290.14ZM171.786 285.716H175.188C175.188 285.366 175.125 285.051 174.999 284.771C174.878 284.486 174.694 284.262 174.446 284.099C174.199 283.931 173.886 283.847 173.508 283.847C173.135 283.847 172.82 283.938 172.563 284.12C172.307 284.302 172.113 284.538 171.982 284.827C171.852 285.112 171.786 285.408 171.786 285.716ZM181.171 290.14C180.667 290.14 180.188 290.061 179.736 289.902C179.288 289.739 178.91 289.484 178.602 289.139C178.298 288.794 178.107 288.348 178.028 287.802H179.526C179.591 288.068 179.705 288.285 179.869 288.453C180.037 288.621 180.233 288.745 180.457 288.824C180.685 288.899 180.921 288.936 181.164 288.936C181.598 288.936 181.948 288.861 182.214 288.712C182.48 288.563 182.613 288.332 182.613 288.019C182.613 287.79 182.538 287.608 182.389 287.473C182.244 287.338 182.006 287.235 181.675 287.165L180.303 286.85C179.687 286.715 179.194 286.491 178.826 286.178C178.457 285.865 178.27 285.424 178.266 284.855C178.261 284.426 178.368 284.043 178.588 283.707C178.807 283.371 179.134 283.107 179.568 282.916C180.002 282.72 180.536 282.622 181.171 282.622C182.015 282.622 182.692 282.811 183.201 283.189C183.714 283.562 183.978 284.097 183.992 284.792H182.543C182.491 284.479 182.344 284.237 182.102 284.064C181.859 283.887 181.544 283.798 181.157 283.798C180.755 283.798 180.426 283.875 180.17 284.029C179.913 284.183 179.785 284.419 179.785 284.736C179.785 284.955 179.88 285.128 180.072 285.254C180.268 285.38 180.564 285.487 180.961 285.576L182.263 285.891C182.636 285.984 182.942 286.11 183.18 286.269C183.418 286.428 183.602 286.603 183.733 286.794C183.868 286.981 183.961 287.174 184.013 287.375C184.069 287.571 184.097 287.753 184.097 287.921C184.097 288.388 183.975 288.787 183.733 289.118C183.495 289.445 183.156 289.697 182.718 289.874C182.284 290.051 181.768 290.14 181.171 290.14ZM187.779 290.14C187.317 290.14 186.901 290.056 186.533 289.888C186.169 289.715 185.882 289.47 185.672 289.153C185.466 288.831 185.364 288.441 185.364 287.984C185.364 287.186 185.651 286.584 186.225 286.178C186.803 285.772 187.723 285.56 188.983 285.541L190.068 285.513V285.023C190.068 284.64 189.953 284.342 189.725 284.127C189.501 283.908 189.151 283.8 188.675 283.805C188.32 283.81 187.998 283.894 187.709 284.057C187.419 284.216 187.228 284.484 187.135 284.862H185.686C185.714 284.367 185.856 283.954 186.113 283.623C186.374 283.287 186.731 283.037 187.184 282.874C187.636 282.706 188.159 282.622 188.752 282.622C189.442 282.622 190.005 282.713 190.439 282.895C190.873 283.077 191.192 283.341 191.398 283.686C191.603 284.027 191.706 284.44 191.706 284.925V290H190.271L190.131 288.698C189.874 289.244 189.545 289.622 189.144 289.832C188.747 290.037 188.292 290.14 187.779 290.14ZM188.332 288.985C188.542 288.985 188.749 288.948 188.955 288.873C189.16 288.794 189.344 288.689 189.508 288.558C189.676 288.423 189.809 288.273 189.907 288.11C190.009 287.947 190.063 287.776 190.068 287.599V286.458L189.179 286.472C188.74 286.477 188.355 286.523 188.024 286.612C187.697 286.701 187.443 286.843 187.261 287.039C187.079 287.23 186.988 287.487 186.988 287.809C186.988 288.178 187.116 288.467 187.373 288.677C187.629 288.882 187.949 288.985 188.332 288.985ZM193.52 290V282.762H195.151V284.33C195.267 283.971 195.433 283.665 195.648 283.413C195.867 283.156 196.124 282.96 196.418 282.825C196.712 282.69 197.031 282.622 197.377 282.622C197.461 282.622 197.542 282.627 197.622 282.636C197.701 282.645 197.759 282.662 197.797 282.685V284.316C197.745 284.293 197.678 284.276 197.594 284.267C197.514 284.258 197.444 284.253 197.384 284.253C197.034 284.225 196.723 284.239 196.453 284.295C196.187 284.351 195.96 284.447 195.774 284.582C195.592 284.713 195.454 284.881 195.361 285.086C195.267 285.287 195.221 285.522 195.221 285.793V290H193.52ZM199.585 283.497L199.116 279.878H200.971L200.481 283.497H199.585Z" fill="black" style="fill:black;fill-opacity:1;"/>
<path d="M1.16522 548V540.762H2.83122V541.798C2.94322 541.611 3.09489 541.432 3.28622 541.259C3.48222 541.086 3.72255 540.946 4.00722 540.839C4.29189 540.732 4.62555 540.678 5.00822 540.678C5.45622 540.678 5.87155 540.767 6.25422 540.944C6.64155 541.121 6.95189 541.399 7.18522 541.777C7.42322 542.155 7.54222 542.643 7.54222 543.24V548H5.83422V543.443C5.83422 542.967 5.70355 542.615 5.44222 542.386C5.18089 542.153 4.85189 542.036 4.45522 542.036C4.18455 542.036 3.92789 542.083 3.68522 542.176C3.44255 542.265 3.24422 542.402 3.09022 542.589C2.94089 542.771 2.86622 543 2.86622 543.275V548H1.16522ZM11.4203 548.14C10.9583 548.14 10.543 548.056 10.1743 547.888C9.81033 547.715 9.52333 547.47 9.31333 547.153C9.10799 546.831 9.00533 546.441 9.00533 545.984C9.00533 545.186 9.29233 544.584 9.86633 544.178C10.445 543.772 11.3643 543.56 12.6243 543.541L13.7093 543.513V543.023C13.7093 542.64 13.595 542.342 13.3663 542.127C13.1423 541.908 12.7923 541.8 12.3163 541.805C11.9617 541.81 11.6397 541.894 11.3503 542.057C11.061 542.216 10.8697 542.484 10.7763 542.862H9.32733C9.35533 542.367 9.49766 541.954 9.75433 541.623C10.0157 541.287 10.3727 541.037 10.8253 540.874C11.278 540.706 11.8007 540.622 12.3933 540.622C13.084 540.622 13.6463 540.713 14.0803 540.895C14.5143 541.077 14.834 541.341 15.0393 541.686C15.2447 542.027 15.3473 542.44 15.3473 542.925V548H13.9123L13.7723 546.698C13.5157 547.244 13.1867 547.622 12.7853 547.832C12.3887 548.037 11.9337 548.14 11.4203 548.14ZM11.9733 546.985C12.1833 546.985 12.391 546.948 12.5963 546.873C12.8017 546.794 12.986 546.689 13.1493 546.558C13.3173 546.423 13.4503 546.273 13.5483 546.11C13.651 545.947 13.7047 545.776 13.7093 545.599V544.458L12.8203 544.472C12.3817 544.477 11.9967 544.523 11.6653 544.612C11.3387 544.701 11.0843 544.843 10.9023 545.039C10.7203 545.23 10.6293 545.487 10.6293 545.809C10.6293 546.178 10.7577 546.467 11.0143 546.677C11.271 546.882 11.5907 546.985 11.9733 546.985ZM17.1613 548V540.762H18.8203V541.798C19.0303 541.481 19.315 541.205 19.6743 540.972C20.0383 540.739 20.5003 540.622 21.0603 540.622C21.317 540.622 21.576 540.666 21.8373 540.755C22.1033 540.844 22.3483 540.974 22.5723 541.147C22.801 541.32 22.983 541.534 23.1183 541.791C23.347 541.45 23.6503 541.17 24.0283 540.951C24.411 540.732 24.8403 540.622 25.3163 540.622C25.5776 540.622 25.846 540.664 26.1213 540.748C26.4013 540.832 26.658 540.972 26.8913 541.168C27.1246 541.364 27.3136 541.632 27.4583 541.973C27.603 542.309 27.6753 542.731 27.6753 543.24V548H25.9743V543.443C25.9743 543.084 25.9113 542.801 25.7853 542.596C25.6593 542.391 25.496 542.246 25.2953 542.162C25.0993 542.073 24.8893 542.029 24.6653 542.029C24.4646 542.029 24.2546 542.069 24.0353 542.148C23.8206 542.227 23.6363 542.358 23.4823 542.54C23.333 542.722 23.2583 542.967 23.2583 543.275V548H21.5573V543.17C21.5573 542.918 21.492 542.708 21.3613 542.54C21.2306 542.372 21.065 542.246 20.8643 542.162C20.6683 542.073 20.4676 542.029 20.2623 542.029C20.0523 542.029 19.8376 542.073 19.6183 542.162C19.4036 542.251 19.224 542.386 19.0793 542.568C18.9346 542.75 18.8623 542.986 18.8623 543.275V548H17.1613ZM32.706 548.14C32.0107 548.14 31.397 547.993 30.865 547.699C30.3377 547.4 29.9247 546.976 29.626 546.425C29.332 545.874 29.185 545.219 29.185 544.458C29.185 543.716 29.318 543.058 29.584 542.484C29.8547 541.905 30.2443 541.45 30.753 541.119C31.2663 540.788 31.8847 540.622 32.608 540.622C33.322 540.622 33.9217 540.774 34.407 541.077C34.8923 541.38 35.261 541.805 35.513 542.351C35.765 542.892 35.891 543.527 35.891 544.255V544.773H30.886C30.8813 545.184 30.9467 545.548 31.082 545.865C31.2173 546.182 31.418 546.432 31.684 546.614C31.95 546.791 32.279 546.88 32.671 546.88C33.0723 546.88 33.42 546.791 33.714 546.614C34.0127 546.432 34.211 546.157 34.309 545.788H35.863C35.779 546.292 35.5783 546.719 35.261 547.069C34.9483 547.419 34.5657 547.685 34.113 547.867C33.665 548.049 33.196 548.14 32.706 548.14ZM30.879 543.716H34.281C34.281 543.366 34.218 543.051 34.092 542.771C33.9707 542.486 33.7863 542.262 33.539 542.099C33.2917 541.931 32.979 541.847 32.601 541.847C32.2277 541.847 31.9127 541.938 31.656 542.12C31.3993 542.302 31.2057 542.538 31.075 542.827C30.9443 543.112 30.879 543.408 30.879 543.716ZM40.585 542.204V540.937L46.941 540.93V542.197L40.585 542.204ZM40.585 545.368V544.094L46.941 544.087V545.361L40.585 545.368ZM52.3749 541.497L51.9059 537.878H53.7609L53.2709 541.497H52.3749ZM59.7583 548.14C58.8529 548.14 58.0666 547.932 57.3993 547.517C56.7319 547.102 56.2186 546.509 55.8593 545.739C55.4999 544.964 55.3203 544.04 55.3203 542.967C55.3203 541.884 55.5069 540.951 55.8803 540.167C56.2536 539.383 56.7786 538.783 57.4553 538.368C58.1366 537.948 58.9346 537.738 59.8493 537.738C60.4093 537.738 60.9249 537.831 61.3963 538.018C61.8723 538.205 62.2876 538.457 62.6423 538.774C63.0016 539.091 63.2839 539.453 63.4893 539.859C63.6946 540.265 63.8089 540.687 63.8323 541.126H62.0333C61.9679 540.781 61.8349 540.463 61.6343 540.174C61.4383 539.88 61.1839 539.644 60.8713 539.467C60.5633 539.29 60.2109 539.201 59.8143 539.201C59.3056 539.201 58.8506 539.329 58.4493 539.586C58.0526 539.843 57.7399 540.246 57.5113 540.797C57.2873 541.343 57.1753 542.052 57.1753 542.925C57.1753 543.616 57.2453 544.199 57.3853 544.675C57.5299 545.146 57.7259 545.527 57.9733 545.816C58.2253 546.101 58.5146 546.308 58.8413 546.439C59.1679 546.565 59.5133 546.628 59.8773 546.628C60.2319 546.628 60.5446 546.567 60.8153 546.446C61.0859 546.325 61.3146 546.166 61.5013 545.97C61.6926 545.774 61.8396 545.564 61.9423 545.34C62.0496 545.111 62.1126 544.89 62.1313 544.675L62.1943 543.933H59.9333V542.729L63.9723 542.743V548H62.7683V546.579C62.5956 546.836 62.3763 547.083 62.1103 547.321C61.8489 547.559 61.5269 547.755 61.1443 547.909C60.7663 548.063 60.3043 548.14 59.7583 548.14ZM69.2373 548.14C68.5419 548.14 67.9283 547.993 67.3963 547.699C66.8689 547.4 66.4559 546.976 66.1573 546.425C65.8633 545.874 65.7163 545.219 65.7163 544.458C65.7163 543.716 65.8493 543.058 66.1153 542.484C66.3859 541.905 66.7756 541.45 67.2843 541.119C67.7976 540.788 68.4159 540.622 69.1393 540.622C69.8533 540.622 70.4529 540.774 70.9383 541.077C71.4236 541.38 71.7923 541.805 72.0443 542.351C72.2963 542.892 72.4223 543.527 72.4223 544.255V544.773H67.4173C67.4126 545.184 67.4779 545.548 67.6133 545.865C67.7486 546.182 67.9493 546.432 68.2153 546.614C68.4813 546.791 68.8103 546.88 69.2023 546.88C69.6036 546.88 69.9513 546.791 70.2453 546.614C70.5439 546.432 70.7423 546.157 70.8403 545.788H72.3943C72.3103 546.292 72.1096 546.719 71.7923 547.069C71.4796 547.419 71.0969 547.685 70.6443 547.867C70.1963 548.049 69.7273 548.14 69.2373 548.14ZM67.4103 543.716H70.8123C70.8123 543.366 70.7493 543.051 70.6233 542.771C70.5019 542.486 70.3176 542.262 70.0703 542.099C69.8229 541.931 69.5103 541.847 69.1323 541.847C68.7589 541.847 68.4439 541.938 68.1873 542.12C67.9306 542.302 67.7369 542.538 67.6063 542.827C67.4756 543.112 67.4103 543.408 67.4103 543.716ZM77.088 548.14C76.3973 548.14 75.7953 547.993 75.282 547.699C74.7687 547.4 74.3697 546.973 74.085 546.418C73.805 545.863 73.665 545.195 73.665 544.416C73.665 543.66 73.8027 542.997 74.078 542.428C74.3533 541.859 74.7453 541.415 75.254 541.098C75.7673 540.781 76.381 540.622 77.095 540.622C77.7857 540.622 78.3853 540.774 78.894 541.077C79.4027 541.38 79.7947 541.814 80.07 542.379C80.35 542.944 80.49 543.623 80.49 544.416C80.49 545.149 80.357 545.795 80.091 546.355C79.8297 546.91 79.4447 547.347 78.936 547.664C78.432 547.981 77.816 548.14 77.088 548.14ZM77.095 546.845C77.487 546.845 77.809 546.738 78.061 546.523C78.3177 546.308 78.509 546.014 78.635 545.641C78.761 545.268 78.824 544.843 78.824 544.367C78.824 543.924 78.768 543.515 78.656 543.142C78.544 542.769 78.3597 542.47 78.103 542.246C77.851 542.017 77.515 541.903 77.095 541.903C76.6983 541.903 76.3693 542.008 76.108 542.218C75.8513 542.423 75.66 542.713 75.534 543.086C75.408 543.455 75.345 543.882 75.345 544.367C75.345 544.806 75.401 545.214 75.513 545.592C75.625 545.965 75.8093 546.269 76.066 546.502C76.3227 546.731 76.6657 546.845 77.095 546.845ZM82.048 548V540.762H83.679V542.33C83.7957 541.971 83.9614 541.665 84.176 541.413C84.3954 541.156 84.652 540.96 84.946 540.825C85.24 540.69 85.5597 540.622 85.905 540.622C85.989 540.622 86.0707 540.627 86.15 540.636C86.2294 540.645 86.2877 540.662 86.325 540.685V542.316C86.2737 542.293 86.206 542.276 86.122 542.267C86.0427 542.258 85.9727 542.253 85.912 542.253C85.562 542.225 85.2517 542.239 84.981 542.295C84.715 542.351 84.4887 542.447 84.302 542.582C84.12 542.713 83.9824 542.881 83.889 543.086C83.7957 543.287 83.749 543.522 83.749 543.793V548H82.048ZM90.7368 550.394C89.5188 550.394 88.5831 550.231 87.9298 549.904C87.2764 549.577 86.9498 549.129 86.9498 548.56C86.9498 548.303 87.0128 548.089 87.1388 547.916C87.2648 547.743 87.4141 547.601 87.5868 547.489C87.7594 547.377 87.9181 547.291 88.0628 547.23C88.2074 547.169 88.3008 547.125 88.3428 547.097C88.2634 547.05 88.1584 546.99 88.0278 546.915C87.8971 546.84 87.7781 546.738 87.6708 546.607C87.5681 546.476 87.5168 546.306 87.5168 546.096C87.5168 545.853 87.6311 545.629 87.8598 545.424C88.0931 545.219 88.4408 545.072 88.9028 544.983C88.4501 544.764 88.1024 544.467 87.8598 544.094C87.6171 543.721 87.4958 543.333 87.4958 542.932C87.4958 542.456 87.6334 542.048 87.9088 541.707C88.1888 541.366 88.5761 541.105 89.0708 540.923C89.5654 540.741 90.1418 540.65 90.7998 540.65C91.2804 540.65 91.6794 540.704 91.9968 540.811C92.3188 540.918 92.6174 541.063 92.8928 541.245C92.9861 541.208 93.1168 541.156 93.2848 541.091C93.4528 541.021 93.6371 540.946 93.8378 540.867C94.0384 540.783 94.2321 540.704 94.4188 540.629C94.6054 540.55 94.7618 540.484 94.8878 540.433L94.8808 541.84L93.6278 542.064C93.6884 542.199 93.7351 542.346 93.7678 542.505C93.8051 542.664 93.8238 542.804 93.8238 542.925C93.8238 543.345 93.7048 543.735 93.4668 544.094C93.2334 544.449 92.8811 544.733 92.4098 544.948C91.9431 545.163 91.3598 545.27 90.6598 545.27C90.5898 545.27 90.4941 545.268 90.3728 545.263C90.2514 545.258 90.1534 545.254 90.0788 545.249C89.7008 545.263 89.4418 545.307 89.3018 545.382C89.1618 545.457 89.0918 545.538 89.0918 545.627C89.0918 545.753 89.1968 545.837 89.4068 545.879C89.6168 545.921 89.9528 545.958 90.4148 545.991C90.5781 546 90.7928 546.012 91.0588 546.026C91.3248 546.04 91.6211 546.059 91.9478 546.082C92.7738 546.133 93.3991 546.341 93.8238 546.705C94.2484 547.064 94.4608 547.531 94.4608 548.105C94.4608 548.772 94.1528 549.321 93.5368 549.75C92.9208 550.179 91.9874 550.394 90.7368 550.394ZM91.0238 549.393C91.6351 549.393 92.0878 549.309 92.3818 549.141C92.6758 548.973 92.8228 548.726 92.8228 548.399C92.8228 548.147 92.7224 547.942 92.5218 547.783C92.3211 547.624 92.0224 547.531 91.6258 547.503L89.7988 547.391C89.5981 547.377 89.4068 547.414 89.2248 547.503C89.0474 547.587 88.9028 547.706 88.7908 547.86C88.6788 548.009 88.6228 548.175 88.6228 548.357C88.6228 548.698 88.8164 548.954 89.2038 549.127C89.5958 549.304 90.2024 549.393 91.0238 549.393ZM90.7158 544.269C91.1591 544.269 91.5184 544.157 91.7938 543.933C92.0691 543.704 92.2068 543.382 92.2068 542.967C92.2068 542.538 92.0691 542.204 91.7938 541.966C91.5184 541.723 91.1591 541.602 90.7158 541.602C90.2631 541.602 89.8968 541.723 89.6168 541.966C89.3414 542.209 89.2038 542.542 89.2038 542.967C89.2038 543.368 89.3368 543.686 89.6028 543.919C89.8688 544.152 90.2398 544.269 90.7158 544.269ZM99.2744 548.14C98.579 548.14 97.9654 547.993 97.4334 547.699C96.906 547.4 96.493 546.976 96.1944 546.425C95.9004 545.874 95.7534 545.219 95.7534 544.458C95.7534 543.716 95.8864 543.058 96.1524 542.484C96.423 541.905 96.8127 541.45 97.3214 541.119C97.8347 540.788 98.453 540.622 99.1764 540.622C99.8904 540.622 100.49 540.774 100.975 541.077C101.461 541.38 101.829 541.805 102.081 542.351C102.333 542.892 102.459 543.527 102.459 544.255V544.773H97.4544C97.4497 545.184 97.515 545.548 97.6504 545.865C97.7857 546.182 97.9864 546.432 98.2524 546.614C98.5184 546.791 98.8474 546.88 99.2394 546.88C99.6407 546.88 99.9884 546.791 100.282 546.614C100.581 546.432 100.779 546.157 100.877 545.788H102.431C102.347 546.292 102.147 546.719 101.829 547.069C101.517 547.419 101.134 547.685 100.681 547.867C100.233 548.049 99.7644 548.14 99.2744 548.14ZM97.4474 543.716H100.849C100.849 543.366 100.786 543.051 100.66 542.771C100.539 542.486 100.355 542.262 100.107 542.099C99.86 541.931 99.5474 541.847 99.1694 541.847C98.796 541.847 98.481 541.938 98.2244 542.12C97.9677 542.302 97.774 542.538 97.6434 542.827C97.5127 543.112 97.4474 543.408 97.4474 543.716ZM103.562 541.497L103.093 537.878H104.948L104.458 541.497H103.562Z" fill="black" style="fill:black;fill-opacity:1;"/>
<path d="M493.161 406V398.762H494.827V399.798C494.939 399.611 495.091 399.432 495.282 399.259C495.478 399.086 495.719 398.946 496.003 398.839C496.288 398.732 496.622 398.678 497.004 398.678C497.452 398.678 497.868 398.767 498.25 398.944C498.638 399.121 498.948 399.399 499.181 399.777C499.419 400.155 499.538 400.643 499.538 401.24V406H497.83V401.443C497.83 400.967 497.7 400.615 497.438 400.386C497.177 400.153 496.848 400.036 496.451 400.036C496.181 400.036 495.924 400.083 495.681 400.176C495.439 400.265 495.24 400.402 495.086 400.589C494.937 400.771 494.862 401 494.862 401.275V406H493.161ZM503.416 406.14C502.954 406.14 502.539 406.056 502.17 405.888C501.806 405.715 501.519 405.47 501.309 405.153C501.104 404.831 501.001 404.441 501.001 403.984C501.001 403.186 501.288 402.584 501.862 402.178C502.441 401.772 503.36 401.56 504.62 401.541L505.705 401.513V401.023C505.705 400.64 505.591 400.342 505.362 400.127C505.138 399.908 504.788 399.8 504.312 399.805C503.958 399.81 503.636 399.894 503.346 400.057C503.057 400.216 502.866 400.484 502.772 400.862H501.323C501.351 400.367 501.494 399.954 501.75 399.623C502.012 399.287 502.369 399.037 502.821 398.874C503.274 398.706 503.797 398.622 504.389 398.622C505.08 398.622 505.642 398.713 506.076 398.895C506.51 399.077 506.83 399.341 507.035 399.686C507.241 400.027 507.343 400.44 507.343 400.925V406H505.908L505.768 404.698C505.512 405.244 505.183 405.622 504.781 405.832C504.385 406.037 503.93 406.14 503.416 406.14ZM503.969 404.985C504.179 404.985 504.387 404.948 504.592 404.873C504.798 404.794 504.982 404.689 505.145 404.558C505.313 404.423 505.446 404.273 505.544 404.11C505.647 403.947 505.701 403.776 505.705 403.599V402.458L504.816 402.472C504.378 402.477 503.993 402.523 503.661 402.612C503.335 402.701 503.08 402.843 502.898 403.039C502.716 403.23 502.625 403.487 502.625 403.809C502.625 404.178 502.754 404.467 503.01 404.677C503.267 404.882 503.587 404.985 503.969 404.985ZM509.157 406V398.762H510.816V399.798C511.026 399.481 511.311 399.205 511.67 398.972C512.034 398.739 512.496 398.622 513.056 398.622C513.313 398.622 513.572 398.666 513.833 398.755C514.099 398.844 514.344 398.974 514.568 399.147C514.797 399.32 514.979 399.534 515.114 399.791C515.343 399.45 515.646 399.17 516.024 398.951C516.407 398.732 516.836 398.622 517.312 398.622C517.574 398.622 517.842 398.664 518.117 398.748C518.397 398.832 518.654 398.972 518.887 399.168C519.121 399.364 519.31 399.632 519.454 399.973C519.599 400.309 519.671 400.731 519.671 401.24V406H517.97V401.443C517.97 401.084 517.907 400.801 517.781 400.596C517.655 400.391 517.492 400.246 517.291 400.162C517.095 400.073 516.885 400.029 516.661 400.029C516.461 400.029 516.251 400.069 516.031 400.148C515.817 400.227 515.632 400.358 515.478 400.54C515.329 400.722 515.254 400.967 515.254 401.275V406H513.553V401.17C513.553 400.918 513.488 400.708 513.357 400.54C513.227 400.372 513.061 400.246 512.86 400.162C512.664 400.073 512.464 400.029 512.258 400.029C512.048 400.029 511.834 400.073 511.614 400.162C511.4 400.251 511.22 400.386 511.075 400.568C510.931 400.75 510.858 400.986 510.858 401.275V406H509.157ZM524.702 406.14C524.007 406.14 523.393 405.993 522.861 405.699C522.334 405.4 521.921 404.976 521.622 404.425C521.328 403.874 521.181 403.219 521.181 402.458C521.181 401.716 521.314 401.058 521.58 400.484C521.851 399.905 522.24 399.45 522.749 399.119C523.262 398.788 523.881 398.622 524.604 398.622C525.318 398.622 525.918 398.774 526.403 399.077C526.888 399.38 527.257 399.805 527.509 400.351C527.761 400.892 527.887 401.527 527.887 402.255V402.773H522.882C522.877 403.184 522.943 403.548 523.078 403.865C523.213 404.182 523.414 404.432 523.68 404.614C523.946 404.791 524.275 404.88 524.667 404.88C525.068 404.88 525.416 404.791 525.71 404.614C526.009 404.432 526.207 404.157 526.305 403.788H527.859C527.775 404.292 527.574 404.719 527.257 405.069C526.944 405.419 526.562 405.685 526.109 405.867C525.661 406.049 525.192 406.14 524.702 406.14ZM522.875 401.716H526.277C526.277 401.366 526.214 401.051 526.088 400.771C525.967 400.486 525.782 400.262 525.535 400.099C525.288 399.931 524.975 399.847 524.597 399.847C524.224 399.847 523.909 399.938 523.652 400.12C523.395 400.302 523.202 400.538 523.071 400.827C522.94 401.112 522.875 401.408 522.875 401.716ZM532.581 400.204V398.937L538.937 398.93V400.197L532.581 400.204ZM532.581 403.368V402.094L538.937 402.087V403.361L532.581 403.368ZM544.371 399.497L543.902 395.878H545.757L545.267 399.497H544.371ZM547.834 406V395.878C547.876 395.878 548 395.878 548.205 395.878C548.411 395.878 548.653 395.878 548.933 395.878C549.218 395.878 549.505 395.88 549.794 395.885C550.088 395.885 550.343 395.887 550.557 395.892C551.789 395.915 552.79 396.128 553.56 396.529C554.335 396.926 554.902 397.493 555.261 398.23C555.625 398.963 555.807 399.847 555.807 400.883C555.807 401.966 555.614 402.887 555.226 403.648C554.844 404.409 554.256 404.992 553.462 405.398C552.674 405.799 551.67 406 550.452 406H547.834ZM549.563 404.593H550.48C551.176 404.593 551.789 404.474 552.321 404.236C552.853 403.993 553.269 403.601 553.567 403.06C553.871 402.519 554.022 401.795 554.022 400.89C554.022 400.013 553.882 399.31 553.602 398.783C553.322 398.256 552.921 397.875 552.398 397.642C551.876 397.404 551.25 397.285 550.522 397.285H549.563V404.593ZM559.58 406.14C559.118 406.14 558.703 406.056 558.334 405.888C557.97 405.715 557.683 405.47 557.473 405.153C557.268 404.831 557.165 404.441 557.165 403.984C557.165 403.186 557.452 402.584 558.026 402.178C558.605 401.772 559.524 401.56 560.784 401.541L561.869 401.513V401.023C561.869 400.64 561.755 400.342 561.526 400.127C561.302 399.908 560.952 399.8 560.476 399.805C560.122 399.81 559.8 399.894 559.51 400.057C559.221 400.216 559.03 400.484 558.936 400.862H557.487C557.515 400.367 557.658 399.954 557.914 399.623C558.176 399.287 558.533 399.037 558.985 398.874C559.438 398.706 559.961 398.622 560.553 398.622C561.244 398.622 561.806 398.713 562.24 398.895C562.674 399.077 562.994 399.341 563.199 399.686C563.405 400.027 563.507 400.44 563.507 400.925V406H562.072L561.932 404.698C561.676 405.244 561.347 405.622 560.945 405.832C560.549 406.037 560.094 406.14 559.58 406.14ZM560.133 404.985C560.343 404.985 560.551 404.948 560.756 404.873C560.962 404.794 561.146 404.689 561.309 404.558C561.477 404.423 561.61 404.273 561.708 404.11C561.811 403.947 561.865 403.776 561.869 403.599V402.458L560.98 402.472C560.542 402.477 560.157 402.523 559.825 402.612C559.499 402.701 559.244 402.843 559.062 403.039C558.88 403.23 558.789 403.487 558.789 403.809C558.789 404.178 558.918 404.467 559.174 404.677C559.431 404.882 559.751 404.985 560.133 404.985ZM567.035 406L564.361 398.762H565.922L567.658 403.83H567.749L569.478 398.762H571.046L568.379 406H567.035ZM572.281 406V398.762H573.912V406H572.281ZM572.253 397.495V395.885H573.94V397.495H572.253ZM578.55 406.14C577.594 406.14 576.842 405.811 576.296 405.153C575.75 404.495 575.477 403.559 575.477 402.346C575.477 401.59 575.587 400.934 575.806 400.379C576.03 399.819 576.359 399.387 576.793 399.084C577.227 398.776 577.762 398.622 578.396 398.622C578.695 398.622 578.966 398.659 579.208 398.734C579.456 398.804 579.675 398.897 579.866 399.014C580.058 399.131 580.219 399.259 580.349 399.399C580.485 399.539 580.59 399.679 580.664 399.819V395.598H582.379V406H581.119L580.93 404.516C580.87 404.689 580.783 404.871 580.671 405.062C580.564 405.249 580.417 405.424 580.23 405.587C580.048 405.75 579.82 405.883 579.544 405.986C579.269 406.089 578.938 406.14 578.55 406.14ZM578.9 404.887C579.512 404.887 579.957 404.689 580.237 404.292C580.522 403.891 580.664 403.228 580.664 402.304C580.66 401.777 580.594 401.333 580.468 400.974C580.347 400.615 580.16 400.344 579.908 400.162C579.656 399.98 579.327 399.889 578.921 399.889C578.408 399.889 577.986 400.078 577.654 400.456C577.328 400.834 577.164 401.45 577.164 402.304C577.164 403.153 577.316 403.797 577.619 404.236C577.923 404.67 578.35 404.887 578.9 404.887ZM584.566 399.497L584.097 395.878H585.952L585.462 399.497H584.566Z" fill="black" style="fill:black;fill-opacity:1;"/>
</svg>
