<svg xmlns="http://www.w3.org/2000/svg" width="840" height="161" viewBox="0 0 840 161"><defs><style type="text/css"/></defs><g transform="translate(74.08642578125 -91.99999999999994) scale(1)"><g class="relationship"><g transform="translate(-1 146) rotate(0)" stroke-width="2" stroke="#000000"><path d="M 59 0 L 278.93129592602793 0"/><polygon points="-14.155129855222071,0 -15.727922061357857,5.242640687119286 0,0 -15.727922061357857,-5.242640687119286" fill="#000000" transform="translate(293.08642578125 0) rotate(0)" stroke="none"/></g><g transform="translate(167.96564796301396 146) rotate(0) translate(0 -22.6)"><g transform="translate(0 0)"><g transform="translate(-56.55859375 0)" fill="#ffffff" stroke="#000000" stroke-width="0"><rect x="0" y="0" width="113.1171875" height="26" rx="5" ry="5" stroke="none"/><text xml:space="preserve" x="5" y="17.45703125" stroke="none" text-anchor="left" font-family="sans-serif" font-size="16" font-weight="normal" fill="#000000">WORKS_FOR</text></g></g><g transform="translate(0 26)"><g transform="translate(-45.36328125 0)" fill="white"><rect x="0" y="0" width="90.7265625" height="19.2" rx="0" ry="0" stroke="none"/><g font-family="sans-serif" font-size="16" font-weight="normal" fill="#535B66" text-anchor="end"><text xml:space="preserve" x="46.2421875" y="14.05703125" stroke="none">since:</text><text xml:space="preserve" x="50.6875" y="14.05703125" stroke="none" text-anchor="start">2023</text></g></g></g></g></g><g class="relationship"><g transform="translate(703.1728515625 145.99999999999994) rotate(180)" stroke-width="2" stroke="#000000"><path d="M 59 0 L 278.93129592602793 0"/><polygon points="-14.155129855222071,0 -15.727922061357857,5.242640687119286 0,0 -15.727922061357857,-5.242640687119286" fill="#000000" transform="translate(293.08642578125 0) rotate(0)" stroke="none"/></g><g transform="translate(534.2072035994861 145.99999999999997) rotate(360) translate(0 -22.6)"><g transform="translate(0 0)"><g transform="translate(-56.55859375 0)" fill="#ffffff" stroke="#000000" stroke-width="0"><rect x="0" y="0" width="113.1171875" height="26" rx="5" ry="5" stroke="none"/><text xml:space="preserve" x="5" y="17.45703125" stroke="none" text-anchor="left" font-family="sans-serif" font-size="16" font-weight="normal" fill="#000000">WORKS_FOR</text></g></g><g transform="translate(0 26)"><g transform="translate(-45.36328125 0)" fill="white"><rect x="0" y="0" width="90.7265625" height="19.2" rx="0" ry="0" stroke="none"/><g font-family="sans-serif" font-size="16" font-weight="normal" fill="#535B66" text-anchor="end"><text xml:space="preserve" x="46.2421875" y="14.05703125" stroke="none">since:</text><text xml:space="preserve" x="50.6875" y="14.05703125" stroke="none" text-anchor="start">2015</text></g></g></g></g></g><g class="node"><g fill="#ffffff" stroke="#006FD6" stroke-width="4"><circle cx="-1" cy="146" r="52"/></g><g transform="translate(-1 146)"><g transform="scale(0.5592606884691831) translate(0 -30.5)"><g transform="translate(0 0)"><g transform="translate(-74.458740234375 0)"><g fill="#000000" stroke="#000000" stroke-width="4" font-family="sans-serif" font-size="47" font-weight="normal"><text xml:space="preserve" x="0" y="43.592529296875" stroke="none">Person</text></g></g></g></g><g transform="translate(3.429011037612589e-15 56)"><g transform="translate(0 0)"><g transform="translate(-73.08642578125 0)" fill="white"><rect x="0" y="0" width="146.1728515625" height="50.400000000000006" rx="0" ry="0" stroke="none"/><g font-family="sans-serif" font-size="14" font-weight="normal" fill="#535B66" text-anchor="end"><text xml:space="preserve" x="86.365234375" y="12.29990234375" stroke="none">firstName:</text><text xml:space="preserve" x="90.2548828125" y="12.29990234375" stroke="none" text-anchor="start">'Cecil'</text><text xml:space="preserve" x="86.365234375" y="29.099902343750003" stroke="none" text-anchor="end">middleName:</text><text xml:space="preserve" x="90.2548828125" y="29.099902343750003" stroke="none" text-anchor="start">'David'</text><text xml:space="preserve" x="86.365234375" y="45.89990234375" stroke="none" text-anchor="end">lastName:</text><text xml:space="preserve" x="90.2548828125" y="45.89990234375" stroke="none" text-anchor="start">'Ericson'</text></g></g></g></g></g></g><g class="node"><g fill="#ffffff" stroke="#006FD6" stroke-width="4"><circle cx="703.1728515625" cy="145.99999999999994" r="52"/></g><g transform="translate(703.1728515625 145.99999999999994)"><g transform="scale(0.5592606884691831) translate(0 -30.5)"><g transform="translate(0 0)"><g transform="translate(-74.458740234375 0)"><g fill="#000000" stroke="#000000" stroke-width="4" font-family="sans-serif" font-size="47" font-weight="normal"><text xml:space="preserve" x="0" y="43.592529296875" stroke="none">Person</text></g></g></g></g><g transform="translate(3.429011037612589e-15 56)"><g transform="translate(0 0)"><g transform="translate(-62.57958984375 0)" fill="white"><rect x="0" y="0" width="125.1591796875" height="33.6" rx="0" ry="0" stroke="none"/><g font-family="sans-serif" font-size="14" font-weight="normal" fill="#535B66" text-anchor="end"><text xml:space="preserve" x="67.67578125" y="12.29990234375" stroke="none">firstName:</text><text xml:space="preserve" x="71.5654296875" y="12.29990234375" stroke="none" text-anchor="start">'Cecilia'</text><text xml:space="preserve" x="67.67578125" y="29.099902343750003" stroke="none" text-anchor="end">lastName:</text><text xml:space="preserve" x="71.5654296875" y="29.099902343750003" stroke="none" text-anchor="start">'Farega'</text></g></g></g></g></g></g><g class="node"><g fill="#ffffff" stroke="#006FD6" stroke-width="4"><circle cx="351.08642578125" cy="146" r="52"/></g><g transform="translate(351.08642578125 146)"><g transform="scale(0.5592606884691831) translate(0 -30.5)"><g transform="translate(0 0)"><g transform="translate(-74.458740234375 0)"><g fill="#000000" stroke="#000000" stroke-width="4" font-family="sans-serif" font-size="47" font-weight="normal"><text xml:space="preserve" x="0" y="43.592529296875" stroke="none">Person</text></g></g></g></g><g transform="translate(3.429011037612589e-15 56)"><g transform="translate(0 0)"><g transform="translate(-80.0966796875 0)" fill="white"><rect x="0" y="0" width="160.193359375" height="50.400000000000006" rx="0" ry="0" stroke="none"/><g font-family="sans-serif" font-size="14" font-weight="normal" fill="#535B66" text-anchor="end"><text xml:space="preserve" x="86.365234375" y="12.29990234375" stroke="none">firstName:</text><text xml:space="preserve" x="90.2548828125" y="12.29990234375" stroke="none" text-anchor="start">'Alice'</text><text xml:space="preserve" x="86.365234375" y="29.099902343750003" stroke="none" text-anchor="end">middleName:</text><text xml:space="preserve" x="90.2548828125" y="29.099902343750003" stroke="none" text-anchor="start">'Catherine'</text><text xml:space="preserve" x="86.365234375" y="45.89990234375" stroke="none" text-anchor="end">lastName:</text><text xml:space="preserve" x="90.2548828125" y="45.89990234375" stroke="none" text-anchor="start">'Baxter'</text></g></g></g></g></g></g></g></svg>