<svg width="752" height="116" viewBox="0 0 752 116" fill="none" xmlns="http://www.w3.org/2000/svg">
<path d="M7.44354 109V101.762H9.10954V102.798C9.22154 102.611 9.37321 102.432 9.56454 102.259C9.76054 102.086 10.0009 101.946 10.2855 101.839C10.5702 101.732 10.9039 101.678 11.2865 101.678C11.7345 101.678 12.1499 101.767 12.5325 101.944C12.9199 102.121 13.2302 102.399 13.4635 102.777C13.7015 103.155 13.8205 103.643 13.8205 104.24V109H12.1125V104.443C12.1125 103.967 11.9819 103.615 11.7205 103.386C11.4592 103.153 11.1302 103.036 10.7335 103.036C10.4629 103.036 10.2062 103.083 9.96354 103.176C9.72087 103.265 9.52254 103.402 9.36854 103.589C9.21921 103.771 9.14454 104 9.14454 104.275V109H7.44354ZM17.6986 109.14C17.2366 109.14 16.8213 109.056 16.4526 108.888C16.0886 108.715 15.8016 108.47 15.5916 108.153C15.3863 107.831 15.2836 107.441 15.2836 106.984C15.2836 106.186 15.5706 105.584 16.1446 105.178C16.7233 104.772 17.6426 104.56 18.9026 104.541L19.9876 104.513V104.023C19.9876 103.64 19.8733 103.342 19.6446 103.127C19.4206 102.908 19.0706 102.8 18.5946 102.805C18.24 102.81 17.918 102.894 17.6286 103.057C17.3393 103.216 17.148 103.484 17.0546 103.862H15.6056C15.6336 103.367 15.776 102.954 16.0326 102.623C16.294 102.287 16.651 102.037 17.1036 101.874C17.5563 101.706 18.079 101.622 18.6716 101.622C19.3623 101.622 19.9246 101.713 20.3586 101.895C20.7926 102.077 21.1123 102.341 21.3176 102.686C21.523 103.027 21.6256 103.44 21.6256 103.925V109H20.1906L20.0506 107.698C19.794 108.244 19.465 108.622 19.0636 108.832C18.667 109.037 18.212 109.14 17.6986 109.14ZM18.2516 107.985C18.4616 107.985 18.6693 107.948 18.8746 107.873C19.08 107.794 19.2643 107.689 19.4276 107.558C19.5956 107.423 19.7286 107.273 19.8266 107.11C19.9293 106.947 19.983 106.776 19.9876 106.599V105.458L19.0986 105.472C18.66 105.477 18.275 105.523 17.9436 105.612C17.617 105.701 17.3626 105.843 17.1806 106.039C16.9986 106.23 16.9076 106.487 16.9076 106.809C16.9076 107.178 17.036 107.467 17.2926 107.677C17.5493 107.882 17.869 107.985 18.2516 107.985ZM23.4396 109V101.762H25.0986V102.798C25.3086 102.481 25.5933 102.205 25.9526 101.972C26.3166 101.739 26.7786 101.622 27.3386 101.622C27.5953 101.622 27.8543 101.666 28.1156 101.755C28.3816 101.844 28.6266 101.974 28.8506 102.147C29.0793 102.32 29.2613 102.534 29.3966 102.791C29.6253 102.45 29.9286 102.17 30.3066 101.951C30.6893 101.732 31.1186 101.622 31.5946 101.622C31.856 101.622 32.1243 101.664 32.3996 101.748C32.6796 101.832 32.9363 101.972 33.1696 102.168C33.403 102.364 33.592 102.632 33.7366 102.973C33.8813 103.309 33.9536 103.731 33.9536 104.24V109H32.2526V104.443C32.2526 104.084 32.1896 103.801 32.0636 103.596C31.9376 103.391 31.7743 103.246 31.5736 103.162C31.3776 103.073 31.1676 103.029 30.9436 103.029C30.743 103.029 30.533 103.069 30.3136 103.148C30.099 103.227 29.9146 103.358 29.7606 103.54C29.6113 103.722 29.5366 103.967 29.5366 104.275V109H27.8356V104.17C27.8356 103.918 27.7703 103.708 27.6396 103.54C27.509 103.372 27.3433 103.246 27.1426 103.162C26.9466 103.073 26.746 103.029 26.5406 103.029C26.3306 103.029 26.116 103.073 25.8966 103.162C25.682 103.251 25.5023 103.386 25.3576 103.568C25.213 103.75 25.1406 103.986 25.1406 104.275V109H23.4396ZM38.9843 109.14C38.289 109.14 37.6753 108.993 37.1433 108.699C36.616 108.4 36.203 107.976 35.9043 107.425C35.6103 106.874 35.4633 106.219 35.4633 105.458C35.4633 104.716 35.5963 104.058 35.8623 103.484C36.133 102.905 36.5227 102.45 37.0313 102.119C37.5447 101.788 38.163 101.622 38.8863 101.622C39.6003 101.622 40.2 101.774 40.6853 102.077C41.1707 102.38 41.5393 102.805 41.7913 103.351C42.0433 103.892 42.1693 104.527 42.1693 105.255V105.773H37.1643C37.1597 106.184 37.225 106.548 37.3603 106.865C37.4957 107.182 37.6963 107.432 37.9623 107.614C38.2283 107.791 38.5573 107.88 38.9493 107.88C39.3507 107.88 39.6983 107.791 39.9923 107.614C40.291 107.432 40.4893 107.157 40.5873 106.788H42.1413C42.0573 107.292 41.8567 107.719 41.5393 108.069C41.2267 108.419 40.844 108.685 40.3913 108.867C39.9433 109.049 39.4743 109.14 38.9843 109.14ZM37.1573 104.716H40.5593C40.5593 104.366 40.4963 104.051 40.3703 103.771C40.249 103.486 40.0647 103.262 39.8173 103.099C39.57 102.931 39.2573 102.847 38.8793 102.847C38.506 102.847 38.191 102.938 37.9343 103.12C37.6777 103.302 37.484 103.538 37.3533 103.827C37.2227 104.112 37.1573 104.408 37.1573 104.716ZM46.8633 103.204V101.937L53.2193 101.93V103.197L46.8633 103.204ZM46.8633 106.368V105.094L53.2193 105.087V106.361L46.8633 106.368ZM58.6532 102.497L58.1842 98.878H60.0392L59.5492 102.497H58.6532ZM61.3676 109L65.0006 98.878H66.8486L70.4816 109H68.7736L67.8706 106.459H63.9926L63.0826 109H61.3676ZM64.3986 104.947H67.4436L65.9246 100.53L64.3986 104.947ZM72.2841 102.497L71.8151 98.878H73.6701L73.1801 102.497H72.2841Z" fill="black" style="fill:black;fill-opacity:1;"/>
<path d="M228.231 109V101.762H229.897V102.798C230.009 102.611 230.16 102.432 230.352 102.259C230.548 102.086 230.788 101.946 231.073 101.839C231.357 101.732 231.691 101.678 232.074 101.678C232.522 101.678 232.937 101.767 233.32 101.944C233.707 102.121 234.017 102.399 234.251 102.777C234.489 103.155 234.608 103.643 234.608 104.24V109H232.9V104.443C232.9 103.967 232.769 103.615 232.508 103.386C232.246 103.153 231.917 103.036 231.521 103.036C231.25 103.036 230.993 103.083 230.751 103.176C230.508 103.265 230.31 103.402 230.156 103.589C230.006 103.771 229.932 104 229.932 104.275V109H228.231ZM238.486 109.14C238.024 109.14 237.608 109.056 237.24 108.888C236.876 108.715 236.589 108.47 236.379 108.153C236.173 107.831 236.071 107.441 236.071 106.984C236.071 106.186 236.358 105.584 236.932 105.178C237.51 104.772 238.43 104.56 239.69 104.541L240.775 104.513V104.023C240.775 103.64 240.66 103.342 240.432 103.127C240.208 102.908 239.858 102.8 239.382 102.805C239.027 102.81 238.705 102.894 238.416 103.057C238.126 103.216 237.935 103.484 237.842 103.862H236.393C236.421 103.367 236.563 102.954 236.82 102.623C237.081 102.287 237.438 102.037 237.891 101.874C238.343 101.706 238.866 101.622 239.459 101.622C240.149 101.622 240.712 101.713 241.146 101.895C241.58 102.077 241.899 102.341 242.105 102.686C242.31 103.027 242.413 103.44 242.413 103.925V109H240.978L240.838 107.698C240.581 108.244 240.252 108.622 239.851 108.832C239.454 109.037 238.999 109.14 238.486 109.14ZM239.039 107.985C239.249 107.985 239.456 107.948 239.662 107.873C239.867 107.794 240.051 107.689 240.215 107.558C240.383 107.423 240.516 107.273 240.614 107.11C240.716 106.947 240.77 106.776 240.775 106.599V105.458L239.886 105.472C239.447 105.477 239.062 105.523 238.731 105.612C238.404 105.701 238.15 105.843 237.968 106.039C237.786 106.23 237.695 106.487 237.695 106.809C237.695 107.178 237.823 107.467 238.08 107.677C238.336 107.882 238.656 107.985 239.039 107.985ZM244.227 109V101.762H245.886V102.798C246.096 102.481 246.38 102.205 246.74 101.972C247.104 101.739 247.566 101.622 248.126 101.622C248.382 101.622 248.641 101.666 248.903 101.755C249.169 101.844 249.414 101.974 249.638 102.147C249.866 102.32 250.048 102.534 250.184 102.791C250.412 102.45 250.716 102.17 251.094 101.951C251.476 101.732 251.906 101.622 252.382 101.622C252.643 101.622 252.911 101.664 253.187 101.748C253.467 101.832 253.723 101.972 253.957 102.168C254.19 102.364 254.379 102.632 254.524 102.973C254.668 103.309 254.741 103.731 254.741 104.24V109H253.04V104.443C253.04 104.084 252.977 103.801 252.851 103.596C252.725 103.391 252.561 103.246 252.361 103.162C252.165 103.073 251.955 103.029 251.731 103.029C251.53 103.029 251.32 103.069 251.101 103.148C250.886 103.227 250.702 103.358 250.548 103.54C250.398 103.722 250.324 103.967 250.324 104.275V109H248.623V104.17C248.623 103.918 248.557 103.708 248.427 103.54C248.296 103.372 248.13 103.246 247.93 103.162C247.734 103.073 247.533 103.029 247.328 103.029C247.118 103.029 246.903 103.073 246.684 103.162C246.469 103.251 246.289 103.386 246.145 103.568C246 103.75 245.928 103.986 245.928 104.275V109H244.227ZM259.771 109.14C259.076 109.14 258.462 108.993 257.93 108.699C257.403 108.4 256.99 107.976 256.691 107.425C256.397 106.874 256.25 106.219 256.25 105.458C256.25 104.716 256.383 104.058 256.649 103.484C256.92 102.905 257.31 102.45 257.818 102.119C258.332 101.788 258.95 101.622 259.673 101.622C260.387 101.622 260.987 101.774 261.472 102.077C261.958 102.38 262.326 102.805 262.578 103.351C262.83 103.892 262.956 104.527 262.956 105.255V105.773H257.951C257.947 106.184 258.012 106.548 258.147 106.865C258.283 107.182 258.483 107.432 258.749 107.614C259.015 107.791 259.344 107.88 259.736 107.88C260.138 107.88 260.485 107.791 260.779 107.614C261.078 107.432 261.276 107.157 261.374 106.788H262.928C262.844 107.292 262.644 107.719 262.326 108.069C262.014 108.419 261.631 108.685 261.178 108.867C260.73 109.049 260.261 109.14 259.771 109.14ZM257.944 104.716H261.346C261.346 104.366 261.283 104.051 261.157 103.771C261.036 103.486 260.852 103.262 260.604 103.099C260.357 102.931 260.044 102.847 259.666 102.847C259.293 102.847 258.978 102.938 258.721 103.12C258.465 103.302 258.271 103.538 258.14 103.827C258.01 104.112 257.944 104.408 257.944 104.716ZM267.65 103.204V101.937L274.006 101.93V103.197L267.65 103.204ZM267.65 106.368V105.094L274.006 105.087V106.361L267.65 106.368ZM279.44 102.497L278.971 98.878H280.826L280.336 102.497H279.44ZM282.904 109V98.878H286.383C287.666 98.878 288.625 99.1067 289.26 99.564C289.899 100.017 290.219 100.67 290.219 101.524C290.219 102.042 290.086 102.49 289.82 102.868C289.554 103.246 289.085 103.566 288.413 103.827C288.823 103.925 289.162 104.06 289.428 104.233C289.698 104.401 289.908 104.595 290.058 104.814C290.207 105.029 290.312 105.26 290.373 105.507C290.433 105.754 290.464 106.009 290.464 106.27C290.464 107.194 290.142 107.88 289.498 108.328C288.858 108.776 287.867 109 286.523 109H282.904ZM284.605 107.642H286.544C287.262 107.642 287.806 107.514 288.175 107.257C288.548 106.996 288.735 106.62 288.735 106.13C288.735 105.775 288.644 105.484 288.462 105.255C288.28 105.022 288.032 104.849 287.72 104.737C287.407 104.625 287.057 104.569 286.67 104.569H284.605V107.642ZM284.605 103.19H286.67C286.908 103.19 287.139 103.164 287.363 103.113C287.587 103.062 287.79 102.98 287.972 102.868C288.154 102.756 288.298 102.607 288.406 102.42C288.518 102.233 288.574 102.007 288.574 101.741C288.574 101.232 288.38 100.854 287.993 100.607C287.61 100.355 287.118 100.229 286.516 100.229H284.605V103.19ZM292.497 102.497L292.028 98.878H293.883L293.393 102.497H292.497Z" fill="black" style="fill:black;fill-opacity:1;"/>
<path d="M453.046 109V101.762H454.712V102.798C454.824 102.611 454.976 102.432 455.167 102.259C455.363 102.086 455.603 101.946 455.888 101.839C456.173 101.732 456.506 101.678 456.889 101.678C457.337 101.678 457.752 101.767 458.135 101.944C458.522 102.121 458.833 102.399 459.066 102.777C459.304 103.155 459.423 103.643 459.423 104.24V109H457.715V104.443C457.715 103.967 457.584 103.615 457.323 103.386C457.062 103.153 456.733 103.036 456.336 103.036C456.065 103.036 455.809 103.083 455.566 103.176C455.323 103.265 455.125 103.402 454.971 103.589C454.822 103.771 454.747 104 454.747 104.275V109H453.046ZM463.301 109.14C462.839 109.14 462.424 109.056 462.055 108.888C461.691 108.715 461.404 108.47 461.194 108.153C460.989 107.831 460.886 107.441 460.886 106.984C460.886 106.186 461.173 105.584 461.747 105.178C462.326 104.772 463.245 104.56 464.505 104.541L465.59 104.513V104.023C465.59 103.64 465.476 103.342 465.247 103.127C465.023 102.908 464.673 102.8 464.197 102.805C463.843 102.81 463.521 102.894 463.231 103.057C462.942 103.216 462.751 103.484 462.657 103.862H461.208C461.236 103.367 461.379 102.954 461.635 102.623C461.897 102.287 462.254 102.037 462.706 101.874C463.159 101.706 463.682 101.622 464.274 101.622C464.965 101.622 465.527 101.713 465.961 101.895C466.395 102.077 466.715 102.341 466.92 102.686C467.126 103.027 467.228 103.44 467.228 103.925V109H465.793L465.653 107.698C465.397 108.244 465.068 108.622 464.666 108.832C464.27 109.037 463.815 109.14 463.301 109.14ZM463.854 107.985C464.064 107.985 464.272 107.948 464.477 107.873C464.683 107.794 464.867 107.689 465.03 107.558C465.198 107.423 465.331 107.273 465.429 107.11C465.532 106.947 465.586 106.776 465.59 106.599V105.458L464.701 105.472C464.263 105.477 463.878 105.523 463.546 105.612C463.22 105.701 462.965 105.843 462.783 106.039C462.601 106.23 462.51 106.487 462.51 106.809C462.51 107.178 462.639 107.467 462.895 107.677C463.152 107.882 463.472 107.985 463.854 107.985ZM469.042 109V101.762H470.701V102.798C470.911 102.481 471.196 102.205 471.555 101.972C471.919 101.739 472.381 101.622 472.941 101.622C473.198 101.622 473.457 101.666 473.718 101.755C473.984 101.844 474.229 101.974 474.453 102.147C474.682 102.32 474.864 102.534 474.999 102.791C475.228 102.45 475.531 102.17 475.909 101.951C476.292 101.732 476.721 101.622 477.197 101.622C477.459 101.622 477.727 101.664 478.002 101.748C478.282 101.832 478.539 101.972 478.772 102.168C479.006 102.364 479.195 102.632 479.339 102.973C479.484 103.309 479.556 103.731 479.556 104.24V109H477.855V104.443C477.855 104.084 477.792 103.801 477.666 103.596C477.54 103.391 477.377 103.246 477.176 103.162C476.98 103.073 476.77 103.029 476.546 103.029C476.346 103.029 476.136 103.069 475.916 103.148C475.702 103.227 475.517 103.358 475.363 103.54C475.214 103.722 475.139 103.967 475.139 104.275V109H473.438V104.17C473.438 103.918 473.373 103.708 473.242 103.54C473.112 103.372 472.946 103.246 472.745 103.162C472.549 103.073 472.349 103.029 472.143 103.029C471.933 103.029 471.719 103.073 471.499 103.162C471.285 103.251 471.105 103.386 470.96 103.568C470.816 103.75 470.743 103.986 470.743 104.275V109H469.042ZM484.587 109.14C483.892 109.14 483.278 108.993 482.746 108.699C482.219 108.4 481.806 107.976 481.507 107.425C481.213 106.874 481.066 106.219 481.066 105.458C481.066 104.716 481.199 104.058 481.465 103.484C481.736 102.905 482.125 102.45 482.634 102.119C483.147 101.788 483.766 101.622 484.489 101.622C485.203 101.622 485.803 101.774 486.288 102.077C486.773 102.38 487.142 102.805 487.394 103.351C487.646 103.892 487.772 104.527 487.772 105.255V105.773H482.767C482.762 106.184 482.828 106.548 482.963 106.865C483.098 107.182 483.299 107.432 483.565 107.614C483.831 107.791 484.16 107.88 484.552 107.88C484.953 107.88 485.301 107.791 485.595 107.614C485.894 107.432 486.092 107.157 486.19 106.788H487.744C487.66 107.292 487.459 107.719 487.142 108.069C486.829 108.419 486.447 108.685 485.994 108.867C485.546 109.049 485.077 109.14 484.587 109.14ZM482.76 104.716H486.162C486.162 104.366 486.099 104.051 485.973 103.771C485.852 103.486 485.667 103.262 485.42 103.099C485.173 102.931 484.86 102.847 484.482 102.847C484.109 102.847 483.794 102.938 483.537 103.12C483.28 103.302 483.087 103.538 482.956 103.827C482.825 104.112 482.76 104.408 482.76 104.716ZM492.466 103.204V101.937L498.822 101.93V103.197L492.466 103.204ZM492.466 106.368V105.094L498.822 105.087V106.361L492.466 106.368ZM504.256 102.497L503.787 98.878H505.642L505.152 102.497H504.256ZM511.66 109.14C510.731 109.14 509.933 108.928 509.266 108.503C508.603 108.074 508.092 107.467 507.733 106.683C507.378 105.894 507.201 104.959 507.201 103.876C507.201 102.798 507.378 101.876 507.733 101.111C508.088 100.346 508.596 99.76 509.259 99.354C509.926 98.9433 510.727 98.738 511.66 98.738C512.402 98.738 513.06 98.8897 513.634 99.193C514.208 99.4917 514.67 99.8977 515.02 100.411C515.375 100.924 515.585 101.496 515.65 102.126H513.851C513.781 101.753 513.65 101.419 513.459 101.125C513.272 100.831 513.025 100.598 512.717 100.425C512.409 100.252 512.04 100.166 511.611 100.166C511.074 100.166 510.617 100.294 510.239 100.551C509.866 100.803 509.579 101.204 509.378 101.755C509.182 102.306 509.084 103.02 509.084 103.897C509.084 105.227 509.303 106.195 509.742 106.802C510.181 107.409 510.804 107.712 511.611 107.712C512.04 107.712 512.409 107.619 512.717 107.432C513.025 107.241 513.272 106.989 513.459 106.676C513.65 106.359 513.781 106.013 513.851 105.64H515.65C515.594 106.097 515.477 106.536 515.3 106.956C515.127 107.376 514.882 107.752 514.565 108.083C514.248 108.41 513.849 108.669 513.368 108.86C512.892 109.047 512.323 109.14 511.66 109.14ZM517.682 102.497L517.213 98.878H519.068L518.578 102.497H517.682Z" fill="black" style="fill:black;fill-opacity:1;"/>
<path d="M679.019 109V101.762H680.685V102.798C680.797 102.611 680.948 102.432 681.14 102.259C681.336 102.086 681.576 101.946 681.861 101.839C682.145 101.732 682.479 101.678 682.862 101.678C683.31 101.678 683.725 101.767 684.108 101.944C684.495 102.121 684.805 102.399 685.039 102.777C685.277 103.155 685.396 103.643 685.396 104.24V109H683.688V104.443C683.688 103.967 683.557 103.615 683.296 103.386C683.034 103.153 682.705 103.036 682.309 103.036C682.038 103.036 681.781 103.083 681.539 103.176C681.296 103.265 681.098 103.402 680.944 103.589C680.794 103.771 680.72 104 680.72 104.275V109H679.019ZM689.274 109.14C688.812 109.14 688.397 109.056 688.028 108.888C687.664 108.715 687.377 108.47 687.167 108.153C686.962 107.831 686.859 107.441 686.859 106.984C686.859 106.186 687.146 105.584 687.72 105.178C688.299 104.772 689.218 104.56 690.478 104.541L691.563 104.513V104.023C691.563 103.64 691.449 103.342 691.22 103.127C690.996 102.908 690.646 102.8 690.17 102.805C689.815 102.81 689.493 102.894 689.204 103.057C688.915 103.216 688.723 103.484 688.63 103.862H687.181C687.209 103.367 687.351 102.954 687.608 102.623C687.869 102.287 688.226 102.037 688.679 101.874C689.132 101.706 689.654 101.622 690.247 101.622C690.938 101.622 691.5 101.713 691.934 101.895C692.368 102.077 692.688 102.341 692.893 102.686C693.098 103.027 693.201 103.44 693.201 103.925V109H691.766L691.626 107.698C691.369 108.244 691.04 108.622 690.639 108.832C690.242 109.037 689.787 109.14 689.274 109.14ZM689.827 107.985C690.037 107.985 690.245 107.948 690.45 107.873C690.655 107.794 690.84 107.689 691.003 107.558C691.171 107.423 691.304 107.273 691.402 107.11C691.505 106.947 691.558 106.776 691.563 106.599V105.458L690.674 105.472C690.235 105.477 689.85 105.523 689.519 105.612C689.192 105.701 688.938 105.843 688.756 106.039C688.574 106.23 688.483 106.487 688.483 106.809C688.483 107.178 688.611 107.467 688.868 107.677C689.125 107.882 689.444 107.985 689.827 107.985ZM695.015 109V101.762H696.674V102.798C696.884 102.481 697.168 102.205 697.528 101.972C697.892 101.739 698.354 101.622 698.914 101.622C699.17 101.622 699.429 101.666 699.691 101.755C699.957 101.844 700.202 101.974 700.426 102.147C700.654 102.32 700.836 102.534 700.972 102.791C701.2 102.45 701.504 102.17 701.882 101.951C702.264 101.732 702.694 101.622 703.17 101.622C703.431 101.622 703.699 101.664 703.975 101.748C704.255 101.832 704.511 101.972 704.745 102.168C704.978 102.364 705.167 102.632 705.312 102.973C705.456 103.309 705.529 103.731 705.529 104.24V109H703.828V104.443C703.828 104.084 703.765 103.801 703.639 103.596C703.513 103.391 703.349 103.246 703.149 103.162C702.953 103.073 702.743 103.029 702.519 103.029C702.318 103.029 702.108 103.069 701.889 103.148C701.674 103.227 701.49 103.358 701.336 103.54C701.186 103.722 701.112 103.967 701.112 104.275V109H699.411V104.17C699.411 103.918 699.345 103.708 699.215 103.54C699.084 103.372 698.918 103.246 698.718 103.162C698.522 103.073 698.321 103.029 698.116 103.029C697.906 103.029 697.691 103.073 697.472 103.162C697.257 103.251 697.077 103.386 696.933 103.568C696.788 103.75 696.716 103.986 696.716 104.275V109H695.015ZM710.56 109.14C709.864 109.14 709.251 108.993 708.719 108.699C708.191 108.4 707.778 107.976 707.48 107.425C707.186 106.874 707.039 106.219 707.039 105.458C707.039 104.716 707.172 104.058 707.438 103.484C707.708 102.905 708.098 102.45 708.607 102.119C709.12 101.788 709.738 101.622 710.462 101.622C711.176 101.622 711.775 101.774 712.261 102.077C712.746 102.38 713.115 102.805 713.367 103.351C713.619 103.892 713.745 104.527 713.745 105.255V105.773H708.74C708.735 106.184 708.8 106.548 708.936 106.865C709.071 107.182 709.272 107.432 709.538 107.614C709.804 107.791 710.133 107.88 710.525 107.88C710.926 107.88 711.274 107.791 711.568 107.614C711.866 107.432 712.065 107.157 712.163 106.788H713.717C713.633 107.292 713.432 107.719 713.115 108.069C712.802 108.419 712.419 108.685 711.967 108.867C711.519 109.049 711.05 109.14 710.56 109.14ZM708.733 104.716H712.135C712.135 104.366 712.072 104.051 711.946 103.771C711.824 103.486 711.64 103.262 711.393 103.099C711.145 102.931 710.833 102.847 710.455 102.847C710.081 102.847 709.766 102.938 709.51 103.12C709.253 103.302 709.059 103.538 708.929 103.827C708.798 104.112 708.733 104.408 708.733 104.716ZM718.438 103.204V101.937L724.794 101.93V103.197L718.438 103.204ZM718.438 106.368V105.094L724.794 105.087V106.361L718.438 106.368ZM730.228 102.497L729.759 98.878H731.614L731.124 102.497H730.228ZM733.692 109V98.878C733.734 98.878 733.857 98.878 734.063 98.878C734.268 98.878 734.511 98.878 734.791 98.878C735.075 98.878 735.362 98.8803 735.652 98.885C735.946 98.885 736.2 98.8873 736.415 98.892C737.647 98.9153 738.648 99.1277 739.418 99.529C740.192 99.9257 740.759 100.493 741.119 101.23C741.483 101.963 741.665 102.847 741.665 103.883C741.665 104.966 741.471 105.887 741.084 106.648C740.701 107.409 740.113 107.992 739.32 108.398C738.531 108.799 737.528 109 736.31 109H733.692ZM735.421 107.593H736.338C737.033 107.593 737.647 107.474 738.179 107.236C738.711 106.993 739.126 106.601 739.425 106.06C739.728 105.519 739.88 104.795 739.88 103.89C739.88 103.013 739.74 102.31 739.46 101.783C739.18 101.256 738.778 100.875 738.256 100.642C737.733 100.404 737.108 100.285 736.38 100.285H735.421V107.593ZM743.709 102.497L743.24 98.878H745.095L744.605 102.497H743.709Z" fill="black" style="fill:black;fill-opacity:1;"/>
<path d="M0 40C0 17.9086 17.9086 0 40 0C62.0914 0 80 17.9086 80 40C80 62.0914 62.0914 80 40 80C17.9086 80 0 62.0914 0 40Z" fill="#F16767" style="fill:#F16767;fill:color(display-p3 0.9451 0.4039 0.4039);fill-opacity:1;"/>
<path d="M21.7632 44V35.324H24.6972C25.3172 35.324 25.8692 35.428 26.3532 35.636C26.8372 35.844 27.2172 36.152 27.4932 36.56C27.7732 36.968 27.9132 37.47 27.9132 38.066C27.9132 38.642 27.7832 39.134 27.5232 39.542C27.2672 39.95 26.9092 40.26 26.4492 40.472C25.9892 40.684 25.4552 40.79 24.8472 40.79H22.9032V44H21.7632ZM22.8972 39.854H24.8232C25.4192 39.854 25.9032 39.688 26.2752 39.356C26.6472 39.024 26.8332 38.572 26.8332 38C26.8332 37.424 26.6412 36.988 26.2572 36.692C25.8732 36.396 25.3772 36.248 24.7692 36.248H22.8972V39.854ZM31.6923 44.12C31.1163 44.12 30.6083 43.994 30.1683 43.742C29.7283 43.49 29.3843 43.128 29.1363 42.656C28.8883 42.184 28.7643 41.618 28.7643 40.958C28.7643 40.306 28.8763 39.734 29.1003 39.242C29.3243 38.75 29.6483 38.366 30.0723 38.09C30.5003 37.814 31.0143 37.676 31.6143 37.676C32.1983 37.676 32.6923 37.802 33.0963 38.054C33.5003 38.306 33.8063 38.662 34.0143 39.122C34.2263 39.578 34.3323 40.12 34.3323 40.748V41.156H29.8863C29.8863 41.548 29.9503 41.904 30.0783 42.224C30.2103 42.54 30.4083 42.792 30.6723 42.98C30.9363 43.168 31.2703 43.262 31.6743 43.262C32.0703 43.262 32.4103 43.17 32.6943 42.986C32.9823 42.802 33.1663 42.536 33.2463 42.188H34.2903C34.2183 42.608 34.0503 42.962 33.7863 43.25C33.5263 43.538 33.2123 43.756 32.8443 43.904C32.4803 44.048 32.0963 44.12 31.6923 44.12ZM29.8923 40.406H33.2643C33.2643 40.05 33.2043 39.73 33.0843 39.446C32.9643 39.158 32.7803 38.932 32.5323 38.768C32.2883 38.6 31.9803 38.516 31.6083 38.516C31.2203 38.516 30.8983 38.61 30.6423 38.798C30.3863 38.982 30.1963 39.22 30.0723 39.512C29.9483 39.8 29.8883 40.098 29.8923 40.406ZM35.8672 44V37.796H36.9232V38.99C37.0272 38.694 37.1732 38.45 37.3612 38.258C37.5492 38.062 37.7632 37.916 38.0032 37.82C38.2472 37.724 38.4992 37.676 38.7592 37.676C38.8512 37.676 38.9412 37.682 39.0292 37.694C39.1172 37.706 39.1852 37.726 39.2332 37.754V38.828C39.1732 38.8 39.0952 38.782 38.9992 38.774C38.9072 38.762 38.8292 38.756 38.7652 38.756C38.5172 38.74 38.2852 38.756 38.0692 38.804C37.8532 38.848 37.6632 38.926 37.4992 39.038C37.3352 39.15 37.2052 39.298 37.1092 39.482C37.0172 39.662 36.9712 39.882 36.9712 40.142V44H35.8672ZM42.7516 44.12C42.3196 44.12 41.9176 44.054 41.5456 43.922C41.1776 43.786 40.8716 43.576 40.6276 43.292C40.3836 43.004 40.2316 42.638 40.1716 42.194H41.1796C41.2316 42.438 41.3316 42.642 41.4796 42.806C41.6276 42.966 41.8096 43.088 42.0256 43.172C42.2456 43.252 42.4856 43.292 42.7456 43.292C43.1656 43.292 43.5036 43.214 43.7596 43.058C44.0156 42.902 44.1436 42.662 44.1436 42.338C44.1436 42.11 44.0756 41.928 43.9396 41.792C43.8076 41.652 43.5996 41.55 43.3156 41.486L42.0316 41.168C41.5316 41.048 41.1316 40.86 40.8316 40.604C40.5356 40.348 40.3856 39.99 40.3816 39.53C40.3816 39.166 40.4696 38.846 40.6456 38.57C40.8216 38.294 41.0836 38.076 41.4316 37.916C41.7836 37.756 42.2216 37.676 42.7456 37.676C43.4216 37.676 43.9656 37.828 44.3776 38.132C44.7896 38.432 45.0056 38.874 45.0256 39.458H44.0416C44.0016 39.162 43.8696 38.928 43.6456 38.756C43.4216 38.58 43.1176 38.492 42.7336 38.492C42.3416 38.492 42.0196 38.572 41.7676 38.732C41.5196 38.888 41.3956 39.132 41.3956 39.464C41.3956 39.684 41.4836 39.858 41.6596 39.986C41.8396 40.11 42.0996 40.214 42.4396 40.298L43.6876 40.61C43.9716 40.686 44.2076 40.786 44.3956 40.91C44.5836 41.034 44.7316 41.172 44.8396 41.324C44.9476 41.476 45.0236 41.636 45.0676 41.804C45.1156 41.968 45.1396 42.126 45.1396 42.278C45.1396 42.658 45.0456 42.986 44.8576 43.262C44.6696 43.534 44.3976 43.746 44.0416 43.898C43.6856 44.046 43.2556 44.12 42.7516 44.12ZM49.0739 44.12C48.5019 44.12 48.0019 43.998 47.5739 43.754C47.1499 43.506 46.8199 43.144 46.5839 42.668C46.3479 42.192 46.2299 41.61 46.2299 40.922C46.2299 40.274 46.3399 39.706 46.5599 39.218C46.7799 38.73 47.1019 38.352 47.5259 38.084C47.9499 37.812 48.4679 37.676 49.0799 37.676C49.6519 37.676 50.1479 37.802 50.5679 38.054C50.9879 38.302 51.3139 38.668 51.5459 39.152C51.7819 39.636 51.8999 40.226 51.8999 40.922C51.8999 41.554 51.7919 42.11 51.5759 42.59C51.3599 43.07 51.0419 43.446 50.6219 43.718C50.2059 43.986 49.6899 44.12 49.0739 44.12ZM49.0799 43.244C49.4479 43.244 49.7599 43.15 50.0159 42.962C50.2719 42.774 50.4659 42.504 50.5979 42.152C50.7339 41.8 50.8019 41.382 50.8019 40.898C50.8019 40.454 50.7419 40.056 50.6219 39.704C50.5059 39.348 50.3219 39.066 50.0699 38.858C49.8179 38.65 49.4879 38.546 49.0799 38.546C48.7039 38.546 48.3859 38.64 48.1259 38.828C47.8659 39.012 47.6679 39.28 47.5319 39.632C47.3999 39.984 47.3339 40.406 47.3339 40.898C47.3339 41.334 47.3919 41.73 47.5079 42.086C47.6279 42.442 47.8159 42.724 48.0719 42.932C48.3319 43.14 48.6679 43.244 49.0799 43.244ZM53.375 44V37.796H54.449V38.696C54.549 38.524 54.687 38.362 54.863 38.21C55.043 38.058 55.259 37.936 55.511 37.844C55.767 37.752 56.061 37.706 56.393 37.706C56.785 37.706 57.145 37.784 57.473 37.94C57.805 38.096 58.069 38.34 58.265 38.672C58.465 39 58.565 39.424 58.565 39.944V44H57.455V40.052C57.455 39.568 57.327 39.21 57.071 38.978C56.819 38.742 56.491 38.624 56.087 38.624C55.807 38.624 55.545 38.67 55.301 38.762C55.057 38.85 54.859 38.986 54.707 39.17C54.555 39.35 54.479 39.578 54.479 39.854V44H53.375Z" fill="white" style="fill:white;fill-opacity:1;"/>
<path d="M224 40C224 17.9086 241.909 0 264 0C286.091 0 304 17.9086 304 40C304 62.0914 286.091 80 264 80C241.909 80 224 62.0914 224 40Z" fill="#F16767" style="fill:#F16767;fill:color(display-p3 0.9451 0.4039 0.4039);fill-opacity:1;"/>
<path d="M245.763 44V35.324H248.697C249.317 35.324 249.869 35.428 250.353 35.636C250.837 35.844 251.217 36.152 251.493 36.56C251.773 36.968 251.913 37.47 251.913 38.066C251.913 38.642 251.783 39.134 251.523 39.542C251.267 39.95 250.909 40.26 250.449 40.472C249.989 40.684 249.455 40.79 248.847 40.79H246.903V44H245.763ZM246.897 39.854H248.823C249.419 39.854 249.903 39.688 250.275 39.356C250.647 39.024 250.833 38.572 250.833 38C250.833 37.424 250.641 36.988 250.257 36.692C249.873 36.396 249.377 36.248 248.769 36.248H246.897V39.854ZM255.692 44.12C255.116 44.12 254.608 43.994 254.168 43.742C253.728 43.49 253.384 43.128 253.136 42.656C252.888 42.184 252.764 41.618 252.764 40.958C252.764 40.306 252.876 39.734 253.1 39.242C253.324 38.75 253.648 38.366 254.072 38.09C254.5 37.814 255.014 37.676 255.614 37.676C256.198 37.676 256.692 37.802 257.096 38.054C257.5 38.306 257.806 38.662 258.014 39.122C258.226 39.578 258.332 40.12 258.332 40.748V41.156H253.886C253.886 41.548 253.95 41.904 254.078 42.224C254.21 42.54 254.408 42.792 254.672 42.98C254.936 43.168 255.27 43.262 255.674 43.262C256.07 43.262 256.41 43.17 256.694 42.986C256.982 42.802 257.166 42.536 257.246 42.188H258.29C258.218 42.608 258.05 42.962 257.786 43.25C257.526 43.538 257.212 43.756 256.844 43.904C256.48 44.048 256.096 44.12 255.692 44.12ZM253.892 40.406H257.264C257.264 40.05 257.204 39.73 257.084 39.446C256.964 39.158 256.78 38.932 256.532 38.768C256.288 38.6 255.98 38.516 255.608 38.516C255.22 38.516 254.898 38.61 254.642 38.798C254.386 38.982 254.196 39.22 254.072 39.512C253.948 39.8 253.888 40.098 253.892 40.406ZM259.867 44V37.796H260.923V38.99C261.027 38.694 261.173 38.45 261.361 38.258C261.549 38.062 261.763 37.916 262.003 37.82C262.247 37.724 262.499 37.676 262.759 37.676C262.851 37.676 262.941 37.682 263.029 37.694C263.117 37.706 263.185 37.726 263.233 37.754V38.828C263.173 38.8 263.095 38.782 262.999 38.774C262.907 38.762 262.829 38.756 262.765 38.756C262.517 38.74 262.285 38.756 262.069 38.804C261.853 38.848 261.663 38.926 261.499 39.038C261.335 39.15 261.205 39.298 261.109 39.482C261.017 39.662 260.971 39.882 260.971 40.142V44H259.867ZM266.752 44.12C266.32 44.12 265.918 44.054 265.546 43.922C265.178 43.786 264.872 43.576 264.628 43.292C264.384 43.004 264.232 42.638 264.172 42.194H265.18C265.232 42.438 265.332 42.642 265.48 42.806C265.628 42.966 265.81 43.088 266.026 43.172C266.246 43.252 266.486 43.292 266.746 43.292C267.166 43.292 267.504 43.214 267.76 43.058C268.016 42.902 268.144 42.662 268.144 42.338C268.144 42.11 268.076 41.928 267.94 41.792C267.808 41.652 267.6 41.55 267.316 41.486L266.032 41.168C265.532 41.048 265.132 40.86 264.832 40.604C264.536 40.348 264.386 39.99 264.382 39.53C264.382 39.166 264.47 38.846 264.646 38.57C264.822 38.294 265.084 38.076 265.432 37.916C265.784 37.756 266.222 37.676 266.746 37.676C267.422 37.676 267.966 37.828 268.378 38.132C268.79 38.432 269.006 38.874 269.026 39.458H268.042C268.002 39.162 267.87 38.928 267.646 38.756C267.422 38.58 267.118 38.492 266.734 38.492C266.342 38.492 266.02 38.572 265.768 38.732C265.52 38.888 265.396 39.132 265.396 39.464C265.396 39.684 265.484 39.858 265.66 39.986C265.84 40.11 266.1 40.214 266.44 40.298L267.688 40.61C267.972 40.686 268.208 40.786 268.396 40.91C268.584 41.034 268.732 41.172 268.84 41.324C268.948 41.476 269.024 41.636 269.068 41.804C269.116 41.968 269.14 42.126 269.14 42.278C269.14 42.658 269.046 42.986 268.858 43.262C268.67 43.534 268.398 43.746 268.042 43.898C267.686 44.046 267.256 44.12 266.752 44.12ZM273.074 44.12C272.502 44.12 272.002 43.998 271.574 43.754C271.15 43.506 270.82 43.144 270.584 42.668C270.348 42.192 270.23 41.61 270.23 40.922C270.23 40.274 270.34 39.706 270.56 39.218C270.78 38.73 271.102 38.352 271.526 38.084C271.95 37.812 272.468 37.676 273.08 37.676C273.652 37.676 274.148 37.802 274.568 38.054C274.988 38.302 275.314 38.668 275.546 39.152C275.782 39.636 275.9 40.226 275.9 40.922C275.9 41.554 275.792 42.11 275.576 42.59C275.36 43.07 275.042 43.446 274.622 43.718C274.206 43.986 273.69 44.12 273.074 44.12ZM273.08 43.244C273.448 43.244 273.76 43.15 274.016 42.962C274.272 42.774 274.466 42.504 274.598 42.152C274.734 41.8 274.802 41.382 274.802 40.898C274.802 40.454 274.742 40.056 274.622 39.704C274.506 39.348 274.322 39.066 274.07 38.858C273.818 38.65 273.488 38.546 273.08 38.546C272.704 38.546 272.386 38.64 272.126 38.828C271.866 39.012 271.668 39.28 271.532 39.632C271.4 39.984 271.334 40.406 271.334 40.898C271.334 41.334 271.392 41.73 271.508 42.086C271.628 42.442 271.816 42.724 272.072 42.932C272.332 43.14 272.668 43.244 273.08 43.244ZM277.375 44V37.796H278.449V38.696C278.549 38.524 278.687 38.362 278.863 38.21C279.043 38.058 279.259 37.936 279.511 37.844C279.767 37.752 280.061 37.706 280.393 37.706C280.785 37.706 281.145 37.784 281.473 37.94C281.805 38.096 282.069 38.34 282.265 38.672C282.465 39 282.565 39.424 282.565 39.944V44H281.455V40.052C281.455 39.568 281.327 39.21 281.071 38.978C280.819 38.742 280.491 38.624 280.087 38.624C279.807 38.624 279.545 38.67 279.301 38.762C279.057 38.85 278.859 38.986 278.707 39.17C278.555 39.35 278.479 39.578 278.479 39.854V44H277.375Z" fill="white" style="fill:white;fill-opacity:1;"/>
<path d="M83.5 39C82.9477 39 82.5 39.4477 82.5 40C82.5 40.5523 82.9477 41 83.5 41V39ZM118.938 41C119.49 41 119.938 40.5523 119.938 40C119.938 39.4477 119.49 39 118.938 39V41ZM185.062 39C184.51 39 184.062 39.4477 184.062 40C184.062 40.5523 184.51 41 185.062 41V39ZM221.207 40.7071C221.598 40.3166 221.598 39.6834 221.207 39.2929L214.843 32.9289C214.453 32.5384 213.819 32.5384 213.429 32.9289C213.038 33.3195 213.038 33.9526 213.429 34.3431L219.086 40L213.429 45.6569C213.038 46.0474 213.038 46.6805 213.429 47.0711C213.819 47.4616 214.453 47.4616 214.843 47.0711L221.207 40.7071ZM83.5 41H118.938V39H83.5V41ZM185.062 41H220.5V39H185.062V41Z" fill="#1A1B1D" style="fill:#1A1B1D;fill:color(display-p3 0.1020 0.1059 0.1137);fill-opacity:1;"/>
<path d="M126.896 45.5V35.3182H128.433V40.1804H128.557L132.827 35.3182H134.761L130.655 39.902L134.776 45.5H132.927L129.636 40.951L128.433 42.3331V45.5H126.896ZM144.257 35.3182V45.5H142.845L137.67 38.0327H137.575V45.5H136.039V35.3182H137.461L142.641 42.7955H142.736V35.3182H144.257ZM155.189 40.4091C155.189 41.4962 154.99 42.4309 154.592 43.2131C154.194 43.992 153.649 44.5919 152.956 45.0128C152.267 45.4304 151.483 45.6392 150.605 45.6392C149.723 45.6392 148.936 45.4304 148.243 45.0128C147.554 44.5919 147.01 43.9903 146.613 43.2081C146.215 42.4259 146.016 41.4929 146.016 40.4091C146.016 39.322 146.215 38.389 146.613 37.6101C147.01 36.8279 147.554 36.228 148.243 35.8104C148.936 35.3894 149.723 35.179 150.605 35.179C151.483 35.179 152.267 35.3894 152.956 35.8104C153.649 36.228 154.194 36.8279 154.592 37.6101C154.99 38.389 155.189 39.322 155.189 40.4091ZM153.667 40.4091C153.667 39.5805 153.533 38.8828 153.265 38.3161C152.999 37.746 152.635 37.3151 152.171 37.0234C151.71 36.7285 151.188 36.581 150.605 36.581C150.018 36.581 149.495 36.7285 149.034 37.0234C148.573 37.3151 148.209 37.746 147.94 38.3161C147.675 38.8828 147.542 39.5805 147.542 40.4091C147.542 41.2377 147.675 41.937 147.94 42.5071C148.209 43.0739 148.573 43.5047 149.034 43.7997C149.495 44.0914 150.018 44.2372 150.605 44.2372C151.188 44.2372 151.71 44.0914 152.171 43.7997C152.635 43.5047 152.999 43.0739 153.265 42.5071C153.533 41.937 153.667 41.2377 153.667 40.4091ZM158.821 45.5L155.997 35.3182H157.612L159.596 43.2031H159.691L161.754 35.3182H163.355L165.418 43.2081H165.512L167.491 35.3182H169.112L166.283 45.5H164.737L162.594 37.8736H162.514L160.372 45.5H158.821ZM175.884 37.9929C175.831 37.5223 175.613 37.1577 175.228 36.8991C174.844 36.6373 174.36 36.5064 173.776 36.5064C173.359 36.5064 172.998 36.5727 172.693 36.7053C172.388 36.8345 172.151 37.0135 171.982 37.2422C171.816 37.4676 171.733 37.7244 171.733 38.0128C171.733 38.2547 171.789 38.4635 171.902 38.6392C172.018 38.8149 172.169 38.9624 172.355 39.0817C172.543 39.1977 172.746 39.2955 172.961 39.375C173.177 39.4512 173.384 39.5142 173.583 39.5639L174.577 39.8224C174.902 39.902 175.235 40.0097 175.576 40.1456C175.918 40.2815 176.234 40.4605 176.526 40.6825C176.817 40.9046 177.053 41.1797 177.232 41.5078C177.414 41.8359 177.505 42.2287 177.505 42.6861C177.505 43.2628 177.356 43.7749 177.058 44.2223C176.763 44.6697 176.333 45.0227 175.77 45.2812C175.21 45.5398 174.532 45.669 173.737 45.669C172.974 45.669 172.315 45.5481 171.758 45.3061C171.201 45.0642 170.765 44.7211 170.45 44.277C170.136 43.8295 169.962 43.2992 169.928 42.6861H171.47C171.499 43.054 171.619 43.3606 171.828 43.6058C172.04 43.8478 172.31 44.0284 172.638 44.1477C172.969 44.2637 173.332 44.3217 173.727 44.3217C174.161 44.3217 174.547 44.2538 174.885 44.1179C175.226 43.9787 175.495 43.7865 175.69 43.5412C175.886 43.2926 175.984 43.0026 175.984 42.6712C175.984 42.3696 175.898 42.1226 175.725 41.9304C175.556 41.7382 175.326 41.5791 175.034 41.4531C174.746 41.3272 174.419 41.2161 174.055 41.12L172.852 40.7919C172.036 40.5698 171.39 40.2434 170.913 39.8125C170.439 39.3816 170.202 38.8116 170.202 38.1023C170.202 37.5156 170.361 37.0036 170.679 36.5661C170.997 36.1286 171.428 35.7888 171.972 35.5469C172.515 35.3016 173.128 35.179 173.811 35.179C174.501 35.179 175.109 35.3 175.636 35.5419C176.166 35.7839 176.584 36.117 176.889 36.5412C177.194 36.9621 177.353 37.446 177.366 37.9929H175.884Z" fill="black" fill-opacity="0.8" style="fill:black;fill-opacity:0.8;"/>
<path d="M448 40C448 17.9086 465.909 0 488 0C510.091 0 528 17.9086 528 40C528 62.0914 510.091 80 488 80C465.909 80 448 62.0914 448 40Z" fill="#F16767" style="fill:#F16767;fill:color(display-p3 0.9451 0.4039 0.4039);fill-opacity:1;"/>
<path d="M469.763 44V35.324H472.697C473.317 35.324 473.869 35.428 474.353 35.636C474.837 35.844 475.217 36.152 475.493 36.56C475.773 36.968 475.913 37.47 475.913 38.066C475.913 38.642 475.783 39.134 475.523 39.542C475.267 39.95 474.909 40.26 474.449 40.472C473.989 40.684 473.455 40.79 472.847 40.79H470.903V44H469.763ZM470.897 39.854H472.823C473.419 39.854 473.903 39.688 474.275 39.356C474.647 39.024 474.833 38.572 474.833 38C474.833 37.424 474.641 36.988 474.257 36.692C473.873 36.396 473.377 36.248 472.769 36.248H470.897V39.854ZM479.692 44.12C479.116 44.12 478.608 43.994 478.168 43.742C477.728 43.49 477.384 43.128 477.136 42.656C476.888 42.184 476.764 41.618 476.764 40.958C476.764 40.306 476.876 39.734 477.1 39.242C477.324 38.75 477.648 38.366 478.072 38.09C478.5 37.814 479.014 37.676 479.614 37.676C480.198 37.676 480.692 37.802 481.096 38.054C481.5 38.306 481.806 38.662 482.014 39.122C482.226 39.578 482.332 40.12 482.332 40.748V41.156H477.886C477.886 41.548 477.95 41.904 478.078 42.224C478.21 42.54 478.408 42.792 478.672 42.98C478.936 43.168 479.27 43.262 479.674 43.262C480.07 43.262 480.41 43.17 480.694 42.986C480.982 42.802 481.166 42.536 481.246 42.188H482.29C482.218 42.608 482.05 42.962 481.786 43.25C481.526 43.538 481.212 43.756 480.844 43.904C480.48 44.048 480.096 44.12 479.692 44.12ZM477.892 40.406H481.264C481.264 40.05 481.204 39.73 481.084 39.446C480.964 39.158 480.78 38.932 480.532 38.768C480.288 38.6 479.98 38.516 479.608 38.516C479.22 38.516 478.898 38.61 478.642 38.798C478.386 38.982 478.196 39.22 478.072 39.512C477.948 39.8 477.888 40.098 477.892 40.406ZM483.867 44V37.796H484.923V38.99C485.027 38.694 485.173 38.45 485.361 38.258C485.549 38.062 485.763 37.916 486.003 37.82C486.247 37.724 486.499 37.676 486.759 37.676C486.851 37.676 486.941 37.682 487.029 37.694C487.117 37.706 487.185 37.726 487.233 37.754V38.828C487.173 38.8 487.095 38.782 486.999 38.774C486.907 38.762 486.829 38.756 486.765 38.756C486.517 38.74 486.285 38.756 486.069 38.804C485.853 38.848 485.663 38.926 485.499 39.038C485.335 39.15 485.205 39.298 485.109 39.482C485.017 39.662 484.971 39.882 484.971 40.142V44H483.867ZM490.752 44.12C490.32 44.12 489.918 44.054 489.546 43.922C489.178 43.786 488.872 43.576 488.628 43.292C488.384 43.004 488.232 42.638 488.172 42.194H489.18C489.232 42.438 489.332 42.642 489.48 42.806C489.628 42.966 489.81 43.088 490.026 43.172C490.246 43.252 490.486 43.292 490.746 43.292C491.166 43.292 491.504 43.214 491.76 43.058C492.016 42.902 492.144 42.662 492.144 42.338C492.144 42.11 492.076 41.928 491.94 41.792C491.808 41.652 491.6 41.55 491.316 41.486L490.032 41.168C489.532 41.048 489.132 40.86 488.832 40.604C488.536 40.348 488.386 39.99 488.382 39.53C488.382 39.166 488.47 38.846 488.646 38.57C488.822 38.294 489.084 38.076 489.432 37.916C489.784 37.756 490.222 37.676 490.746 37.676C491.422 37.676 491.966 37.828 492.378 38.132C492.79 38.432 493.006 38.874 493.026 39.458H492.042C492.002 39.162 491.87 38.928 491.646 38.756C491.422 38.58 491.118 38.492 490.734 38.492C490.342 38.492 490.02 38.572 489.768 38.732C489.52 38.888 489.396 39.132 489.396 39.464C489.396 39.684 489.484 39.858 489.66 39.986C489.84 40.11 490.1 40.214 490.44 40.298L491.688 40.61C491.972 40.686 492.208 40.786 492.396 40.91C492.584 41.034 492.732 41.172 492.84 41.324C492.948 41.476 493.024 41.636 493.068 41.804C493.116 41.968 493.14 42.126 493.14 42.278C493.14 42.658 493.046 42.986 492.858 43.262C492.67 43.534 492.398 43.746 492.042 43.898C491.686 44.046 491.256 44.12 490.752 44.12ZM497.074 44.12C496.502 44.12 496.002 43.998 495.574 43.754C495.15 43.506 494.82 43.144 494.584 42.668C494.348 42.192 494.23 41.61 494.23 40.922C494.23 40.274 494.34 39.706 494.56 39.218C494.78 38.73 495.102 38.352 495.526 38.084C495.95 37.812 496.468 37.676 497.08 37.676C497.652 37.676 498.148 37.802 498.568 38.054C498.988 38.302 499.314 38.668 499.546 39.152C499.782 39.636 499.9 40.226 499.9 40.922C499.9 41.554 499.792 42.11 499.576 42.59C499.36 43.07 499.042 43.446 498.622 43.718C498.206 43.986 497.69 44.12 497.074 44.12ZM497.08 43.244C497.448 43.244 497.76 43.15 498.016 42.962C498.272 42.774 498.466 42.504 498.598 42.152C498.734 41.8 498.802 41.382 498.802 40.898C498.802 40.454 498.742 40.056 498.622 39.704C498.506 39.348 498.322 39.066 498.07 38.858C497.818 38.65 497.488 38.546 497.08 38.546C496.704 38.546 496.386 38.64 496.126 38.828C495.866 39.012 495.668 39.28 495.532 39.632C495.4 39.984 495.334 40.406 495.334 40.898C495.334 41.334 495.392 41.73 495.508 42.086C495.628 42.442 495.816 42.724 496.072 42.932C496.332 43.14 496.668 43.244 497.08 43.244ZM501.375 44V37.796H502.449V38.696C502.549 38.524 502.687 38.362 502.863 38.21C503.043 38.058 503.259 37.936 503.511 37.844C503.767 37.752 504.061 37.706 504.393 37.706C504.785 37.706 505.145 37.784 505.473 37.94C505.805 38.096 506.069 38.34 506.265 38.672C506.465 39 506.565 39.424 506.565 39.944V44H505.455V40.052C505.455 39.568 505.327 39.21 505.071 38.978C504.819 38.742 504.491 38.624 504.087 38.624C503.807 38.624 503.545 38.67 503.301 38.762C503.057 38.85 502.859 38.986 502.707 39.17C502.555 39.35 502.479 39.578 502.479 39.854V44H501.375Z" fill="white" style="fill:white;fill-opacity:1;"/>
<path d="M672 40C672 17.9086 689.909 0 712 0C734.091 0 752 17.9086 752 40C752 62.0914 734.091 80 712 80C689.909 80 672 62.0914 672 40Z" fill="#F16767" style="fill:#F16767;fill:color(display-p3 0.9451 0.4039 0.4039);fill-opacity:1;"/>
<path d="M693.763 44V35.324H696.697C697.317 35.324 697.869 35.428 698.353 35.636C698.837 35.844 699.217 36.152 699.493 36.56C699.773 36.968 699.913 37.47 699.913 38.066C699.913 38.642 699.783 39.134 699.523 39.542C699.267 39.95 698.909 40.26 698.449 40.472C697.989 40.684 697.455 40.79 696.847 40.79H694.903V44H693.763ZM694.897 39.854H696.823C697.419 39.854 697.903 39.688 698.275 39.356C698.647 39.024 698.833 38.572 698.833 38C698.833 37.424 698.641 36.988 698.257 36.692C697.873 36.396 697.377 36.248 696.769 36.248H694.897V39.854ZM703.692 44.12C703.116 44.12 702.608 43.994 702.168 43.742C701.728 43.49 701.384 43.128 701.136 42.656C700.888 42.184 700.764 41.618 700.764 40.958C700.764 40.306 700.876 39.734 701.1 39.242C701.324 38.75 701.648 38.366 702.072 38.09C702.5 37.814 703.014 37.676 703.614 37.676C704.198 37.676 704.692 37.802 705.096 38.054C705.5 38.306 705.806 38.662 706.014 39.122C706.226 39.578 706.332 40.12 706.332 40.748V41.156H701.886C701.886 41.548 701.95 41.904 702.078 42.224C702.21 42.54 702.408 42.792 702.672 42.98C702.936 43.168 703.27 43.262 703.674 43.262C704.07 43.262 704.41 43.17 704.694 42.986C704.982 42.802 705.166 42.536 705.246 42.188H706.29C706.218 42.608 706.05 42.962 705.786 43.25C705.526 43.538 705.212 43.756 704.844 43.904C704.48 44.048 704.096 44.12 703.692 44.12ZM701.892 40.406H705.264C705.264 40.05 705.204 39.73 705.084 39.446C704.964 39.158 704.78 38.932 704.532 38.768C704.288 38.6 703.98 38.516 703.608 38.516C703.22 38.516 702.898 38.61 702.642 38.798C702.386 38.982 702.196 39.22 702.072 39.512C701.948 39.8 701.888 40.098 701.892 40.406ZM707.867 44V37.796H708.923V38.99C709.027 38.694 709.173 38.45 709.361 38.258C709.549 38.062 709.763 37.916 710.003 37.82C710.247 37.724 710.499 37.676 710.759 37.676C710.851 37.676 710.941 37.682 711.029 37.694C711.117 37.706 711.185 37.726 711.233 37.754V38.828C711.173 38.8 711.095 38.782 710.999 38.774C710.907 38.762 710.829 38.756 710.765 38.756C710.517 38.74 710.285 38.756 710.069 38.804C709.853 38.848 709.663 38.926 709.499 39.038C709.335 39.15 709.205 39.298 709.109 39.482C709.017 39.662 708.971 39.882 708.971 40.142V44H707.867ZM714.752 44.12C714.32 44.12 713.918 44.054 713.546 43.922C713.178 43.786 712.872 43.576 712.628 43.292C712.384 43.004 712.232 42.638 712.172 42.194H713.18C713.232 42.438 713.332 42.642 713.48 42.806C713.628 42.966 713.81 43.088 714.026 43.172C714.246 43.252 714.486 43.292 714.746 43.292C715.166 43.292 715.504 43.214 715.76 43.058C716.016 42.902 716.144 42.662 716.144 42.338C716.144 42.11 716.076 41.928 715.94 41.792C715.808 41.652 715.6 41.55 715.316 41.486L714.032 41.168C713.532 41.048 713.132 40.86 712.832 40.604C712.536 40.348 712.386 39.99 712.382 39.53C712.382 39.166 712.47 38.846 712.646 38.57C712.822 38.294 713.084 38.076 713.432 37.916C713.784 37.756 714.222 37.676 714.746 37.676C715.422 37.676 715.966 37.828 716.378 38.132C716.79 38.432 717.006 38.874 717.026 39.458H716.042C716.002 39.162 715.87 38.928 715.646 38.756C715.422 38.58 715.118 38.492 714.734 38.492C714.342 38.492 714.02 38.572 713.768 38.732C713.52 38.888 713.396 39.132 713.396 39.464C713.396 39.684 713.484 39.858 713.66 39.986C713.84 40.11 714.1 40.214 714.44 40.298L715.688 40.61C715.972 40.686 716.208 40.786 716.396 40.91C716.584 41.034 716.732 41.172 716.84 41.324C716.948 41.476 717.024 41.636 717.068 41.804C717.116 41.968 717.14 42.126 717.14 42.278C717.14 42.658 717.046 42.986 716.858 43.262C716.67 43.534 716.398 43.746 716.042 43.898C715.686 44.046 715.256 44.12 714.752 44.12ZM721.074 44.12C720.502 44.12 720.002 43.998 719.574 43.754C719.15 43.506 718.82 43.144 718.584 42.668C718.348 42.192 718.23 41.61 718.23 40.922C718.23 40.274 718.34 39.706 718.56 39.218C718.78 38.73 719.102 38.352 719.526 38.084C719.95 37.812 720.468 37.676 721.08 37.676C721.652 37.676 722.148 37.802 722.568 38.054C722.988 38.302 723.314 38.668 723.546 39.152C723.782 39.636 723.9 40.226 723.9 40.922C723.9 41.554 723.792 42.11 723.576 42.59C723.36 43.07 723.042 43.446 722.622 43.718C722.206 43.986 721.69 44.12 721.074 44.12ZM721.08 43.244C721.448 43.244 721.76 43.15 722.016 42.962C722.272 42.774 722.466 42.504 722.598 42.152C722.734 41.8 722.802 41.382 722.802 40.898C722.802 40.454 722.742 40.056 722.622 39.704C722.506 39.348 722.322 39.066 722.07 38.858C721.818 38.65 721.488 38.546 721.08 38.546C720.704 38.546 720.386 38.64 720.126 38.828C719.866 39.012 719.668 39.28 719.532 39.632C719.4 39.984 719.334 40.406 719.334 40.898C719.334 41.334 719.392 41.73 719.508 42.086C719.628 42.442 719.816 42.724 720.072 42.932C720.332 43.14 720.668 43.244 721.08 43.244ZM725.375 44V37.796H726.449V38.696C726.549 38.524 726.687 38.362 726.863 38.21C727.043 38.058 727.259 37.936 727.511 37.844C727.767 37.752 728.061 37.706 728.393 37.706C728.785 37.706 729.145 37.784 729.473 37.94C729.805 38.096 730.069 38.34 730.265 38.672C730.465 39 730.565 39.424 730.565 39.944V44H729.455V40.052C729.455 39.568 729.327 39.21 729.071 38.978C728.819 38.742 728.491 38.624 728.087 38.624C727.807 38.624 727.545 38.67 727.301 38.762C727.057 38.85 726.859 38.986 726.707 39.17C726.555 39.35 726.479 39.578 726.479 39.854V44H725.375Z" fill="white" style="fill:white;fill-opacity:1;"/>
<path d="M307.5 39C306.948 39 306.5 39.4477 306.5 40C306.5 40.5523 306.948 41 307.5 41V39ZM342.938 41C343.49 41 343.938 40.5523 343.938 40C343.938 39.4477 343.49 39 342.938 39V41ZM409.062 39C408.51 39 408.062 39.4477 408.062 40C408.062 40.5523 408.51 41 409.062 41V39ZM445.207 40.7071C445.598 40.3166 445.598 39.6834 445.207 39.2929L438.843 32.9289C438.453 32.5384 437.819 32.5384 437.429 32.9289C437.038 33.3195 437.038 33.9526 437.429 34.3431L443.086 40L437.429 45.6569C437.038 46.0474 437.038 46.6805 437.429 47.0711C437.819 47.4616 438.453 47.4616 438.843 47.0711L445.207 40.7071ZM307.5 41H342.938V39H307.5V41ZM409.062 41H444.5V39H409.062V41Z" fill="#1A1B1D" style="fill:#1A1B1D;fill:color(display-p3 0.1020 0.1059 0.1137);fill-opacity:1;"/>
<path d="M350.896 45.5V35.3182H352.433V40.1804H352.557L356.827 35.3182H358.761L354.655 39.902L358.776 45.5H356.927L353.636 40.951L352.433 42.3331V45.5H350.896ZM368.257 35.3182V45.5H366.845L361.67 38.0327H361.575V45.5H360.039V35.3182H361.461L366.641 42.7955H366.736V35.3182H368.257ZM379.189 40.4091C379.189 41.4962 378.99 42.4309 378.592 43.2131C378.194 43.992 377.649 44.5919 376.956 45.0128C376.267 45.4304 375.483 45.6392 374.605 45.6392C373.723 45.6392 372.936 45.4304 372.243 45.0128C371.554 44.5919 371.01 43.9903 370.613 43.2081C370.215 42.4259 370.016 41.4929 370.016 40.4091C370.016 39.322 370.215 38.389 370.613 37.6101C371.01 36.8279 371.554 36.228 372.243 35.8104C372.936 35.3894 373.723 35.179 374.605 35.179C375.483 35.179 376.267 35.3894 376.956 35.8104C377.649 36.228 378.194 36.8279 378.592 37.6101C378.99 38.389 379.189 39.322 379.189 40.4091ZM377.667 40.4091C377.667 39.5805 377.533 38.8828 377.265 38.3161C376.999 37.746 376.635 37.3151 376.171 37.0234C375.71 36.7285 375.188 36.581 374.605 36.581C374.018 36.581 373.495 36.7285 373.034 37.0234C372.573 37.3151 372.209 37.746 371.94 38.3161C371.675 38.8828 371.542 39.5805 371.542 40.4091C371.542 41.2377 371.675 41.937 371.94 42.5071C372.209 43.0739 372.573 43.5047 373.034 43.7997C373.495 44.0914 374.018 44.2372 374.605 44.2372C375.188 44.2372 375.71 44.0914 376.171 43.7997C376.635 43.5047 376.999 43.0739 377.265 42.5071C377.533 41.937 377.667 41.2377 377.667 40.4091ZM382.821 45.5L379.997 35.3182H381.612L383.596 43.2031H383.691L385.754 35.3182H387.355L389.418 43.2081H389.512L391.491 35.3182H393.112L390.283 45.5H388.737L386.594 37.8736H386.514L384.372 45.5H382.821ZM399.884 37.9929C399.831 37.5223 399.613 37.1577 399.228 36.8991C398.844 36.6373 398.36 36.5064 397.776 36.5064C397.359 36.5064 396.998 36.5727 396.693 36.7053C396.388 36.8345 396.151 37.0135 395.982 37.2422C395.816 37.4676 395.733 37.7244 395.733 38.0128C395.733 38.2547 395.789 38.4635 395.902 38.6392C396.018 38.8149 396.169 38.9624 396.355 39.0817C396.543 39.1977 396.746 39.2955 396.961 39.375C397.177 39.4512 397.384 39.5142 397.583 39.5639L398.577 39.8224C398.902 39.902 399.235 40.0097 399.576 40.1456C399.918 40.2815 400.234 40.4605 400.526 40.6825C400.817 40.9046 401.053 41.1797 401.232 41.5078C401.414 41.8359 401.505 42.2287 401.505 42.6861C401.505 43.2628 401.356 43.7749 401.058 44.2223C400.763 44.6697 400.333 45.0227 399.77 45.2812C399.21 45.5398 398.532 45.669 397.737 45.669C396.974 45.669 396.315 45.5481 395.758 45.3061C395.201 45.0642 394.765 44.7211 394.45 44.277C394.136 43.8295 393.962 43.2992 393.928 42.6861H395.47C395.499 43.054 395.619 43.3606 395.828 43.6058C396.04 43.8478 396.31 44.0284 396.638 44.1477C396.969 44.2637 397.332 44.3217 397.727 44.3217C398.161 44.3217 398.547 44.2538 398.885 44.1179C399.226 43.9787 399.495 43.7865 399.69 43.5412C399.886 43.2926 399.984 43.0026 399.984 42.6712C399.984 42.3696 399.898 42.1226 399.725 41.9304C399.556 41.7382 399.326 41.5791 399.034 41.4531C398.746 41.3272 398.419 41.2161 398.055 41.12L396.852 40.7919C396.036 40.5698 395.39 40.2434 394.913 39.8125C394.439 39.3816 394.202 38.8116 394.202 38.1023C394.202 37.5156 394.361 37.0036 394.679 36.5661C394.997 36.1286 395.428 35.7888 395.972 35.5469C396.515 35.3016 397.128 35.179 397.811 35.179C398.501 35.179 399.109 35.3 399.636 35.5419C400.166 35.7839 400.584 36.117 400.889 36.5412C401.194 36.9621 401.353 37.446 401.366 37.9929H399.884Z" fill="black" fill-opacity="0.8" style="fill:black;fill-opacity:0.8;"/>
<path d="M531.5 39C530.948 39 530.5 39.4477 530.5 40C530.5 40.5523 530.948 41 531.5 41V39ZM566.938 41C567.49 41 567.938 40.5523 567.938 40C567.938 39.4477 567.49 39 566.938 39V41ZM633.062 39C632.51 39 632.062 39.4477 632.062 40C632.062 40.5523 632.51 41 633.062 41V39ZM669.207 40.7071C669.598 40.3166 669.598 39.6834 669.207 39.2929L662.843 32.9289C662.453 32.5384 661.819 32.5384 661.429 32.9289C661.038 33.3195 661.038 33.9526 661.429 34.3431L667.086 40L661.429 45.6569C661.038 46.0474 661.038 46.6805 661.429 47.0711C661.819 47.4616 662.453 47.4616 662.843 47.0711L669.207 40.7071ZM531.5 41H566.938V39H531.5V41ZM633.062 41H668.5V39H633.062V41Z" fill="#1A1B1D" style="fill:#1A1B1D;fill:color(display-p3 0.1020 0.1059 0.1137);fill-opacity:1;"/>
<path d="M574.896 45.5V35.3182H576.433V40.1804H576.557L580.827 35.3182H582.761L578.655 39.902L582.776 45.5H580.927L577.636 40.951L576.433 42.3331V45.5H574.896ZM592.257 35.3182V45.5H590.845L585.67 38.0327H585.575V45.5H584.039V35.3182H585.461L590.641 42.7955H590.736V35.3182H592.257ZM603.189 40.4091C603.189 41.4962 602.99 42.4309 602.592 43.2131C602.194 43.992 601.649 44.5919 600.956 45.0128C600.267 45.4304 599.483 45.6392 598.605 45.6392C597.723 45.6392 596.936 45.4304 596.243 45.0128C595.554 44.5919 595.01 43.9903 594.613 43.2081C594.215 42.4259 594.016 41.4929 594.016 40.4091C594.016 39.322 594.215 38.389 594.613 37.6101C595.01 36.8279 595.554 36.228 596.243 35.8104C596.936 35.3894 597.723 35.179 598.605 35.179C599.483 35.179 600.267 35.3894 600.956 35.8104C601.649 36.228 602.194 36.8279 602.592 37.6101C602.99 38.389 603.189 39.322 603.189 40.4091ZM601.667 40.4091C601.667 39.5805 601.533 38.8828 601.265 38.3161C600.999 37.746 600.635 37.3151 600.171 37.0234C599.71 36.7285 599.188 36.581 598.605 36.581C598.018 36.581 597.495 36.7285 597.034 37.0234C596.573 37.3151 596.209 37.746 595.94 38.3161C595.675 38.8828 595.542 39.5805 595.542 40.4091C595.542 41.2377 595.675 41.937 595.94 42.5071C596.209 43.0739 596.573 43.5047 597.034 43.7997C597.495 44.0914 598.018 44.2372 598.605 44.2372C599.188 44.2372 599.71 44.0914 600.171 43.7997C600.635 43.5047 600.999 43.0739 601.265 42.5071C601.533 41.937 601.667 41.2377 601.667 40.4091ZM606.821 45.5L603.997 35.3182H605.612L607.596 43.2031H607.691L609.754 35.3182H611.355L613.418 43.2081H613.512L615.491 35.3182H617.112L614.283 45.5H612.737L610.594 37.8736H610.514L608.372 45.5H606.821ZM623.884 37.9929C623.831 37.5223 623.613 37.1577 623.228 36.8991C622.844 36.6373 622.36 36.5064 621.776 36.5064C621.359 36.5064 620.998 36.5727 620.693 36.7053C620.388 36.8345 620.151 37.0135 619.982 37.2422C619.816 37.4676 619.733 37.7244 619.733 38.0128C619.733 38.2547 619.789 38.4635 619.902 38.6392C620.018 38.8149 620.169 38.9624 620.355 39.0817C620.543 39.1977 620.746 39.2955 620.961 39.375C621.177 39.4512 621.384 39.5142 621.583 39.5639L622.577 39.8224C622.902 39.902 623.235 40.0097 623.576 40.1456C623.918 40.2815 624.234 40.4605 624.526 40.6825C624.817 40.9046 625.053 41.1797 625.232 41.5078C625.414 41.8359 625.505 42.2287 625.505 42.6861C625.505 43.2628 625.356 43.7749 625.058 44.2223C624.763 44.6697 624.333 45.0227 623.77 45.2812C623.21 45.5398 622.532 45.669 621.737 45.669C620.974 45.669 620.315 45.5481 619.758 45.3061C619.201 45.0642 618.765 44.7211 618.45 44.277C618.136 43.8295 617.962 43.2992 617.928 42.6861H619.47C619.499 43.054 619.619 43.3606 619.828 43.6058C620.04 43.8478 620.31 44.0284 620.638 44.1477C620.969 44.2637 621.332 44.3217 621.727 44.3217C622.161 44.3217 622.547 44.2538 622.885 44.1179C623.226 43.9787 623.495 43.7865 623.69 43.5412C623.886 43.2926 623.984 43.0026 623.984 42.6712C623.984 42.3696 623.898 42.1226 623.725 41.9304C623.556 41.7382 623.326 41.5791 623.034 41.4531C622.746 41.3272 622.419 41.2161 622.055 41.12L620.852 40.7919C620.036 40.5698 619.39 40.2434 618.913 39.8125C618.439 39.3816 618.202 38.8116 618.202 38.1023C618.202 37.5156 618.361 37.0036 618.679 36.5661C618.997 36.1286 619.428 35.7888 619.972 35.5469C620.515 35.3016 621.128 35.179 621.811 35.179C622.501 35.179 623.109 35.3 623.636 35.5419C624.166 35.7839 624.584 36.117 624.889 36.5412C625.194 36.9621 625.353 37.446 625.366 37.9929H623.884Z" fill="black" fill-opacity="0.8" style="fill:black;fill-opacity:0.8;"/>
</svg>
