<svg xmlns="http://www.w3.org/2000/svg" width="1081" height="399" viewBox="0 0 1081 399"><defs><style type="text/css"/></defs><g transform="translate(185.2265625 140.8) scale(1)"><g class="relationship"><g transform="translate(86.88671875000003 -47.400000000000006) rotate(135)" stroke-width="2" stroke="#000000"><path d="M 58 0 L 227.6581453678741 0"/><polygon points="-14.155129855222071,0 -15.727922061357857,5.242640687119286 0,0 -15.727922061357857,-5.242640687119286" fill="#000000" transform="translate(241.81327522309618 0) rotate(0)" stroke="none"/></g><g transform="translate(-14.108687095398139 53.595405845398176) rotate(0) translate(0 -22.6)"><g transform="translate(0 0)"><g transform="translate(-35.22265625 0)" fill="#ffffff" stroke="#000000" stroke-width="0"><rect x="0" y="0" width="70.4453125" height="26" rx="5" ry="5" stroke="none"/><text xml:space="preserve" x="5" y="17.45703125" stroke="none" text-anchor="left" font-family="sans-serif" font-size="16" font-weight="normal" fill="#000000">KNOWS</text></g></g><g transform="translate(0 26)"><g transform="translate(-45.36328125 0)" fill="white"><rect x="0" y="0" width="90.7265625" height="19.2" rx="0" ry="0" stroke="none"/><g font-family="sans-serif" font-size="16" font-weight="normal" fill="#535B66" text-anchor="end"><text xml:space="preserve" x="46.2421875" y="14.05703125" stroke="none">since:</text><text xml:space="preserve" x="50.6875" y="14.05703125" stroke="none" text-anchor="start">2012</text></g></g></g></g></g><g class="relationship"><g transform="translate(86.88671875000003 -47.400000000000006) rotate(45)" stroke-width="2" stroke="#000000"><path d="M 58 0 L 227.6581453678741 0"/><polygon points="-14.155129855222071,0 -15.727922061357857,5.242640687119286 0,0 -15.727922061357857,-5.242640687119286" fill="#000000" transform="translate(241.81327522309618 0) rotate(0)" stroke="none"/></g><g transform="translate(187.8821245953982 53.59540584539816) rotate(0) translate(0 -22.6)"><g transform="translate(0 0)"><g transform="translate(-35.22265625 0)" fill="#ffffff" stroke="#000000" stroke-width="0"><rect x="0" y="0" width="70.4453125" height="26" rx="5" ry="5" stroke="none"/><text xml:space="preserve" x="5" y="17.45703125" stroke="none" text-anchor="left" font-family="sans-serif" font-size="16" font-weight="normal" fill="#000000">KNOWS</text></g></g><g transform="translate(0 26)"><g transform="translate(-45.36328125 0)" fill="white"><rect x="0" y="0" width="90.7265625" height="19.2" rx="0" ry="0" stroke="none"/><g font-family="sans-serif" font-size="16" font-weight="normal" fill="#535B66" text-anchor="end"><text xml:space="preserve" x="46.2421875" y="14.05703125" stroke="none">since:</text><text xml:space="preserve" x="50.6875" y="14.05703125" stroke="none" text-anchor="start">1999</text></g></g></g></g></g><g class="relationship"><g transform="translate(298.88671875000006 164.6) rotate(-53.61283936275781)" stroke-width="2" stroke="#000000"><path d="M 58 0 L 191.1901545729719 0"/><polygon points="-14.155129855222071,0 -15.727922061357857,5.242640687119286 0,0 -15.727922061357857,-5.242640687119286" fill="#000000" transform="translate(205.34528442819396 0) rotate(0)" stroke="none"/></g><g transform="translate(372.8013159722527 64.29762913321755) rotate(0) translate(0 -22.6)"><g transform="translate(0 0)"><g transform="translate(-35.22265625 0)" fill="#ffffff" stroke="#000000" stroke-width="0"><rect x="0" y="0" width="70.4453125" height="26" rx="5" ry="5" stroke="none"/><text xml:space="preserve" x="5" y="17.45703125" stroke="none" text-anchor="left" font-family="sans-serif" font-size="16" font-weight="normal" fill="#000000">KNOWS</text></g></g><g transform="translate(0 26)"><g transform="translate(-45.36328125 0)" fill="white"><rect x="0" y="0" width="90.7265625" height="19.2" rx="0" ry="0" stroke="none"/><g font-family="sans-serif" font-size="16" font-weight="normal" fill="#535B66" text-anchor="end"><text xml:space="preserve" x="46.2421875" y="14.05703125" stroke="none">since:</text><text xml:space="preserve" x="50.6875" y="14.05703125" stroke="none" text-anchor="start">2005</text></g></g></g></g></g><g class="relationship"><g transform="translate(455.11328125 -47.400000000000006) rotate(44.999999999999986)" stroke-width="2" stroke="#000000"><path d="M 58 0 L 227.65814536787417 0"/><polygon points="-14.155129855222071,0 -15.727922061357857,5.242640687119286 0,0 -15.727922061357857,-5.242640687119286" fill="#000000" transform="translate(241.81327522309624 0) rotate(0)" stroke="none"/></g><g transform="translate(556.1086870953982 53.59540584539816) rotate(0) translate(0 -22.6)"><g transform="translate(0 0)"><g transform="translate(-35.22265625 0)" fill="#ffffff" stroke="#000000" stroke-width="0"><rect x="0" y="0" width="70.4453125" height="26" rx="5" ry="5" stroke="none"/><text xml:space="preserve" x="5" y="17.45703125" stroke="none" text-anchor="left" font-family="sans-serif" font-size="16" font-weight="normal" fill="#000000">KNOWS</text></g></g><g transform="translate(0 26)"><g transform="translate(-45.36328125 0)" fill="white"><rect x="0" y="0" width="90.7265625" height="19.2" rx="0" ry="0" stroke="none"/><g font-family="sans-serif" font-size="16" font-weight="normal" fill="#535B66" text-anchor="end"><text xml:space="preserve" x="46.2421875" y="14.05703125" stroke="none">since:</text><text xml:space="preserve" x="50.6875" y="14.05703125" stroke="none" text-anchor="start">2010</text></g></g></g></g></g><g class="relationship"><g transform="translate(667.1132812500001 164.6) rotate(-50.62240062708974)" stroke-width="2" stroke="#000000"><path d="M 58 0 L 202.1075179843989 0"/><polygon points="-14.155129855222071,0 -15.727922061357857,5.242640687119286 0,0 -15.727922061357857,-5.242640687119286" fill="#000000" transform="translate(216.26264783962097 0) rotate(0)" stroke="none"/></g><g transform="translate(749.6230733886493 64.07082796900198) rotate(0) translate(0 -22.6)"><g transform="translate(0 0)"><g transform="translate(-35.22265625 0)" fill="#ffffff" stroke="#000000" stroke-width="0"><rect x="0" y="0" width="70.4453125" height="26" rx="5" ry="5" stroke="none"/><text xml:space="preserve" x="5" y="17.45703125" stroke="none" text-anchor="left" font-family="sans-serif" font-size="16" font-weight="normal" fill="#000000">KNOWS</text></g></g><g transform="translate(0 26)"><g transform="translate(-45.36328125 0)" fill="white"><rect x="0" y="0" width="90.7265625" height="19.2" rx="0" ry="0" stroke="none"/><g font-family="sans-serif" font-size="16" font-weight="normal" fill="#535B66" text-anchor="end"><text xml:space="preserve" x="46.2421875" y="14.05703125" stroke="none">since:</text><text xml:space="preserve" x="50.6875" y="14.05703125" stroke="none" text-anchor="start">2021</text></g></g></g></g></g><g class="node"><g fill="#ffffff" stroke="#006FD6" stroke-width="3"><circle cx="86.88671875000003" cy="-47.400000000000006" r="51.5"/></g><g transform="translate(86.88671875000003 -47.400000000000006)"><g transform="scale(0.4783254074843021) translate(0 -56)"><g transform="translate(0 0)"><g transform="translate(-75.595703125 0)"><g fill="#000000" stroke="#000000" stroke-width="4" font-family="sans-serif" font-size="40" font-weight="normal"><text xml:space="preserve" x="0" y="38.142578125" stroke="none">Swedish</text></g></g><g transform="translate(-63.369140625 62)"><g fill="#000000" stroke="#000000" stroke-width="4" font-family="sans-serif" font-size="40" font-weight="normal"><text xml:space="preserve" x="0" y="38.142578125" stroke="none">Person</text></g></g></g></g><g transform="translate(3.3677786976552213e-15 -93.4)"><g transform="translate(0 0)"><g transform="translate(-50.19140625 0)" fill="white"><rect x="0" y="0" width="100.3828125" height="38.4" rx="0" ry="0" stroke="none"/><g font-family="sans-serif" font-size="16" font-weight="normal" fill="#535B66" text-anchor="end"><text xml:space="preserve" x="48.9140625" y="14.05703125" stroke="none">name:</text><text xml:space="preserve" x="53.359375" y="14.05703125" stroke="none" text-anchor="start">'Andy'</text><text xml:space="preserve" x="48.9140625" y="33.25703125" stroke="none" text-anchor="end">age:</text><text xml:space="preserve" x="53.359375" y="33.25703125" stroke="none" text-anchor="start">36</text></g></g></g></g></g></g><g class="node"><g fill="#ffffff" stroke="#006FD6" stroke-width="3"><circle cx="-125.11328125" cy="164.6" r="51.5"/></g><g transform="translate(-125.11328125 164.6)"><g transform="scale(0.6532967767358133) translate(0 -27)"><g transform="translate(0 0)"><g transform="translate(-63.369140625 0)"><g fill="#000000" stroke="#000000" stroke-width="4" font-family="sans-serif" font-size="40" font-weight="normal"><text xml:space="preserve" x="0" y="38.142578125" stroke="none">Person</text></g></g></g></g><g transform="translate(3.3677786976552213e-15 55)"><g transform="translate(0 0)"><g transform="translate(-60.11328125 0)" fill="white"><rect x="0" y="0" width="120.2265625" height="38.4" rx="0" ry="0" stroke="none"/><g font-family="sans-serif" font-size="16" font-weight="normal" fill="#535B66" text-anchor="end"><text xml:space="preserve" x="48.9140625" y="14.05703125" stroke="none">name:</text><text xml:space="preserve" x="53.359375" y="14.05703125" stroke="none" text-anchor="start">'Timothy'</text><text xml:space="preserve" x="48.9140625" y="33.25703125" stroke="none" text-anchor="end">age:</text><text xml:space="preserve" x="53.359375" y="33.25703125" stroke="none" text-anchor="start">38</text></g></g></g></g></g></g><g class="node"><g fill="#ffffff" stroke="#006FD6" stroke-width="3"><circle cx="298.88671875000006" cy="164.6" r="51.5"/></g><g transform="translate(298.88671875000006 164.6)"><g transform="scale(0.6532967767358133) translate(0 -27)"><g transform="translate(0 0)"><g transform="translate(-63.369140625 0)"><g fill="#000000" stroke="#000000" stroke-width="4" font-family="sans-serif" font-size="40" font-weight="normal"><text xml:space="preserve" x="0" y="38.142578125" stroke="none">Person</text></g></g></g></g><g transform="translate(3.3677786976552213e-15 55)"><g transform="translate(0 0)"><g transform="translate(-51.078125 0)" fill="white"><rect x="0" y="0" width="102.15625" height="38.4" rx="0" ry="0" stroke="none"/><g font-family="sans-serif" font-size="16" font-weight="normal" fill="#535B66" text-anchor="end"><text xml:space="preserve" x="48.9140625" y="14.05703125" stroke="none">name:</text><text xml:space="preserve" x="53.359375" y="14.05703125" stroke="none" text-anchor="start">'Peter'</text><text xml:space="preserve" x="48.9140625" y="33.25703125" stroke="none" text-anchor="end">age:</text><text xml:space="preserve" x="53.359375" y="33.25703125" stroke="none" text-anchor="start">35</text></g></g></g></g></g></g><g class="node"><g fill="#ffffff" stroke="#006FD6" stroke-width="3"><circle cx="455.11328125" cy="-47.400000000000006" r="51.5"/></g><g transform="translate(455.11328125 -47.400000000000006)"><g transform="scale(0.6532967767358133) translate(0 -27)"><g transform="translate(0 0)"><g transform="translate(-63.369140625 0)"><g fill="#000000" stroke="#000000" stroke-width="4" font-family="sans-serif" font-size="40" font-weight="normal"><text xml:space="preserve" x="0" y="38.142578125" stroke="none">Person</text></g></g></g></g><g transform="translate(3.3677786976552213e-15 -93.4)"><g transform="translate(0 0)"><g transform="translate(-46.6328125 0)" fill="white"><rect x="0" y="0" width="93.265625" height="38.4" rx="0" ry="0" stroke="none"/><g font-family="sans-serif" font-size="16" font-weight="normal" fill="#535B66" text-anchor="end"><text xml:space="preserve" x="48.9140625" y="14.05703125" stroke="none">name:</text><text xml:space="preserve" x="53.359375" y="14.05703125" stroke="none" text-anchor="start">'Lisa'</text><text xml:space="preserve" x="48.9140625" y="33.25703125" stroke="none" text-anchor="end">age:</text><text xml:space="preserve" x="53.359375" y="33.25703125" stroke="none" text-anchor="start">48</text></g></g></g></g></g></g><g class="node"><g fill="#ffffff" stroke="#006FD6" stroke-width="3"><circle cx="667.1132812500001" cy="164.6" r="51.5"/></g><g transform="translate(667.1132812500001 164.6)"><g transform="scale(0.6532967767358133) translate(0 -27)"><g transform="translate(0 0)"><g transform="translate(-63.369140625 0)"><g fill="#000000" stroke="#000000" stroke-width="4" font-family="sans-serif" font-size="40" font-weight="normal"><text xml:space="preserve" x="0" y="38.142578125" stroke="none">Person</text></g></g></g></g><g transform="translate(3.3677786976552213e-15 55)"><g transform="translate(0 0)"><g transform="translate(-49.3046875 0)" fill="white"><rect x="0" y="0" width="98.609375" height="38.4" rx="0" ry="0" stroke="none"/><g font-family="sans-serif" font-size="16" font-weight="normal" fill="#535B66" text-anchor="end"><text xml:space="preserve" x="48.9140625" y="14.05703125" stroke="none">name:</text><text xml:space="preserve" x="53.359375" y="14.05703125" stroke="none" text-anchor="start">'John'</text><text xml:space="preserve" x="48.9140625" y="33.25703125" stroke="none" text-anchor="end">age:</text><text xml:space="preserve" x="53.359375" y="33.25703125" stroke="none" text-anchor="start">40</text></g></g></g></g></g></g><g class="node"><g fill="#ffffff" stroke="#006FD6" stroke-width="3"><circle cx="841.11328125" cy="-47.400000000000006" r="51.5"/></g><g transform="translate(841.11328125 -47.400000000000006)"><g transform="scale(0.6532967767358133) translate(0 -27)"><g transform="translate(0 0)"><g transform="translate(-63.369140625 0)"><g fill="#000000" stroke="#000000" stroke-width="4" font-family="sans-serif" font-size="40" font-weight="normal"><text xml:space="preserve" x="0" y="38.142578125" stroke="none">Person</text></g></g></g></g><g transform="translate(3.3677786976552213e-15 -93.4)"><g transform="translate(0 0)"><g transform="translate(-54.640625 0)" fill="white"><rect x="0" y="0" width="109.28125" height="38.4" rx="0" ry="0" stroke="none"/><g font-family="sans-serif" font-size="16" font-weight="normal" fill="#535B66" text-anchor="end"><text xml:space="preserve" x="48.9140625" y="14.05703125" stroke="none">name:</text><text xml:space="preserve" x="53.359375" y="14.05703125" stroke="none" text-anchor="start">'Susan'</text><text xml:space="preserve" x="48.9140625" y="33.25703125" stroke="none" text-anchor="end">age:</text><text xml:space="preserve" x="53.359375" y="33.25703125" stroke="none" text-anchor="start">32</text></g></g></g></g></g></g></g></svg>