<svg width="906" height="210" viewBox="0 0 906 210" fill="none" xmlns="http://www.w3.org/2000/svg">
<path d="M0 64C0 28.6538 28.6538 0 64 0C99.3462 0 128 28.6538 128 64C128 99.3462 99.3462 128 64 128C28.6538 128 0 99.3462 0 64Z" fill="#F16767" style="fill:#F16767;fill:color(display-p3 0.9451 0.4039 0.4039);fill-opacity:1;"/>
<path d="M42.7237 69V58.878H46.1467C46.8701 58.878 47.5141 58.9993 48.0787 59.242C48.6434 59.4847 49.0867 59.844 49.4087 60.32C49.7354 60.796 49.8987 61.3817 49.8987 62.077C49.8987 62.749 49.7471 63.323 49.4437 63.799C49.1451 64.275 48.7274 64.6367 48.1907 64.884C47.6541 65.1313 47.0311 65.255 46.3217 65.255H44.0537V69H42.7237ZM44.0467 64.163H46.2937C46.9891 64.163 47.5537 63.9693 47.9877 63.582C48.4217 63.1947 48.6387 62.6673 48.6387 62C48.6387 61.328 48.4147 60.8193 47.9667 60.474C47.5187 60.1287 46.9401 59.956 46.2307 59.956H44.0467V64.163ZM54.3077 69.14C53.6357 69.14 53.0431 68.993 52.5297 68.699C52.0164 68.405 51.6151 67.9827 51.3257 67.432C51.0364 66.8813 50.8917 66.221 50.8917 65.451C50.8917 64.6903 51.0224 64.023 51.2837 63.449C51.5451 62.875 51.9231 62.427 52.4177 62.105C52.9171 61.783 53.5167 61.622 54.2167 61.622C54.8981 61.622 55.4744 61.769 55.9457 62.063C56.4171 62.357 56.7741 62.7723 57.0167 63.309C57.2641 63.841 57.3877 64.4733 57.3877 65.206V65.682H52.2007C52.2007 66.1393 52.2754 66.5547 52.4247 66.928C52.5787 67.2967 52.8097 67.5907 53.1177 67.81C53.4257 68.0293 53.8154 68.139 54.2867 68.139C54.7487 68.139 55.1454 68.0317 55.4767 67.817C55.8127 67.6023 56.0274 67.292 56.1207 66.886H57.3387C57.2547 67.376 57.0587 67.789 56.7507 68.125C56.4474 68.461 56.0811 68.7153 55.6517 68.888C55.2271 69.056 54.7791 69.14 54.3077 69.14ZM52.2077 64.807H56.1417C56.1417 64.3917 56.0717 64.0183 55.9317 63.687C55.7917 63.351 55.5771 63.0873 55.2877 62.896C55.0031 62.7 54.6437 62.602 54.2097 62.602C53.7571 62.602 53.3814 62.7117 53.0827 62.931C52.7841 63.1457 52.5624 63.4233 52.4177 63.764C52.2731 64.1 52.2031 64.4477 52.2077 64.807ZM59.1784 69V61.762H60.4104V63.155C60.5318 62.8097 60.7021 62.525 60.9214 62.301C61.1408 62.0723 61.3904 61.902 61.6704 61.79C61.9551 61.678 62.2491 61.622 62.5524 61.622C62.6598 61.622 62.7648 61.629 62.8674 61.643C62.9701 61.657 63.0494 61.6803 63.1054 61.713V62.966C63.0354 62.9333 62.9444 62.9123 62.8324 62.903C62.7251 62.889 62.6341 62.882 62.5594 62.882C62.2701 62.8633 61.9994 62.882 61.7474 62.938C61.4954 62.9893 61.2738 63.0803 61.0824 63.211C60.8911 63.3417 60.7394 63.5143 60.6274 63.729C60.5201 63.939 60.4664 64.1957 60.4664 64.499V69H59.1784ZM67.2102 69.14C66.7062 69.14 66.2372 69.063 65.8032 68.909C65.3738 68.7503 65.0168 68.5053 64.7322 68.174C64.4475 67.838 64.2702 67.411 64.2002 66.893H65.3762C65.4368 67.1777 65.5535 67.4157 65.7262 67.607C65.8988 67.7937 66.1112 67.936 66.3632 68.034C66.6198 68.1273 66.8998 68.174 67.2032 68.174C67.6932 68.174 68.0875 68.083 68.3862 67.901C68.6848 67.719 68.8342 67.439 68.8342 67.061C68.8342 66.795 68.7548 66.5827 68.5962 66.424C68.4422 66.2607 68.1995 66.1417 67.8682 66.067L66.3702 65.696C65.7868 65.556 65.3202 65.3367 64.9702 65.038C64.6248 64.7393 64.4498 64.3217 64.4452 63.785C64.4452 63.3603 64.5478 62.987 64.7532 62.665C64.9585 62.343 65.2642 62.0887 65.6702 61.902C66.0808 61.7153 66.5918 61.622 67.2032 61.622C67.9918 61.622 68.6265 61.7993 69.1072 62.154C69.5878 62.504 69.8398 63.0197 69.8632 63.701H68.7152C68.6685 63.3557 68.5145 63.0827 68.2532 62.882C67.9918 62.6767 67.6372 62.574 67.1892 62.574C66.7318 62.574 66.3562 62.6673 66.0622 62.854C65.7728 63.036 65.6282 63.3207 65.6282 63.708C65.6282 63.9647 65.7308 64.1677 65.9362 64.317C66.1462 64.4617 66.4495 64.583 66.8462 64.681L68.3022 65.045C68.6335 65.1337 68.9088 65.2503 69.1282 65.395C69.3475 65.5397 69.5202 65.7007 69.6462 65.878C69.7722 66.0553 69.8608 66.242 69.9122 66.438C69.9682 66.6293 69.9962 66.8137 69.9962 66.991C69.9962 67.4343 69.8865 67.817 69.6672 68.139C69.4478 68.4563 69.1305 68.7037 68.7152 68.881C68.2998 69.0537 67.7982 69.14 67.2102 69.14ZM74.5862 69.14C73.9189 69.14 73.3355 68.9977 72.8362 68.713C72.3415 68.4237 71.9565 68.0013 71.6812 67.446C71.4059 66.8907 71.2682 66.2117 71.2682 65.409C71.2682 64.653 71.3965 63.9903 71.6532 63.421C71.9099 62.8517 72.2855 62.4107 72.7802 62.098C73.2749 61.7807 73.8792 61.622 74.5932 61.622C75.2605 61.622 75.8392 61.769 76.3292 62.063C76.8192 62.3523 77.1995 62.7793 77.4702 63.344C77.7455 63.9087 77.8832 64.597 77.8832 65.409C77.8832 66.1463 77.7572 66.795 77.5052 67.355C77.2532 67.915 76.8822 68.3537 76.3922 68.671C75.9069 68.9837 75.3049 69.14 74.5862 69.14ZM74.5932 68.118C75.0225 68.118 75.3865 68.0083 75.6852 67.789C75.9839 67.5697 76.2102 67.2547 76.3642 66.844C76.5229 66.4333 76.6022 65.9457 76.6022 65.381C76.6022 64.863 76.5322 64.3987 76.3922 63.988C76.2569 63.5727 76.0422 63.2437 75.7482 63.001C75.4542 62.7583 75.0692 62.637 74.5932 62.637C74.1545 62.637 73.7835 62.7467 73.4802 62.966C73.1769 63.1807 72.9459 63.4933 72.7872 63.904C72.6332 64.3147 72.5562 64.807 72.5562 65.381C72.5562 65.8897 72.6239 66.3517 72.7592 66.767C72.8992 67.1823 73.1185 67.5113 73.4172 67.754C73.7205 67.9967 74.1125 68.118 74.5932 68.118ZM79.6042 69V61.762H80.8572V62.812C80.9739 62.6113 81.1349 62.4223 81.3402 62.245C81.5502 62.0677 81.8022 61.9253 82.0962 61.818C82.3949 61.7107 82.7379 61.657 83.1252 61.657C83.5825 61.657 84.0025 61.748 84.3852 61.93C84.7725 62.112 85.0805 62.3967 85.3092 62.784C85.5425 63.1667 85.6592 63.6613 85.6592 64.268V69H84.3642V64.394C84.3642 63.8293 84.2149 63.4117 83.9162 63.141C83.6222 62.8657 83.2395 62.728 82.7682 62.728C82.4415 62.728 82.1359 62.7817 81.8512 62.889C81.5665 62.9917 81.3355 63.1503 81.1582 63.365C80.9809 63.575 80.8922 63.841 80.8922 64.163V69H79.6042Z" fill="white" style="fill:white;fill-opacity:1;"/>
<path d="M389 64C389 28.6538 417.654 0 453 0C488.346 0 517 28.6538 517 64C517 99.3462 488.346 128 453 128C417.654 128 389 99.3462 389 64Z" fill="#F16767" style="fill:#F16767;fill:color(display-p3 0.9451 0.4039 0.4039);fill-opacity:1;"/>
<path d="M431.724 69V58.878H435.147C435.87 58.878 436.514 58.9993 437.079 59.242C437.643 59.4847 438.087 59.844 438.409 60.32C438.735 60.796 438.899 61.3817 438.899 62.077C438.899 62.749 438.747 63.323 438.444 63.799C438.145 64.275 437.727 64.6367 437.191 64.884C436.654 65.1313 436.031 65.255 435.322 65.255H433.054V69H431.724ZM433.047 64.163H435.294C435.989 64.163 436.554 63.9693 436.988 63.582C437.422 63.1947 437.639 62.6673 437.639 62C437.639 61.328 437.415 60.8193 436.967 60.474C436.519 60.1287 435.94 59.956 435.231 59.956H433.047V64.163ZM443.308 69.14C442.636 69.14 442.043 68.993 441.53 68.699C441.016 68.405 440.615 67.9827 440.326 67.432C440.036 66.8813 439.892 66.221 439.892 65.451C439.892 64.6903 440.022 64.023 440.284 63.449C440.545 62.875 440.923 62.427 441.418 62.105C441.917 61.783 442.517 61.622 443.217 61.622C443.898 61.622 444.474 61.769 444.946 62.063C445.417 62.357 445.774 62.7723 446.017 63.309C446.264 63.841 446.388 64.4733 446.388 65.206V65.682H441.201C441.201 66.1393 441.275 66.5547 441.425 66.928C441.579 67.2967 441.81 67.5907 442.118 67.81C442.426 68.0293 442.815 68.139 443.287 68.139C443.749 68.139 444.145 68.0317 444.477 67.817C444.813 67.6023 445.027 67.292 445.121 66.886H446.339C446.255 67.376 446.059 67.789 445.751 68.125C445.447 68.461 445.081 68.7153 444.652 68.888C444.227 69.056 443.779 69.14 443.308 69.14ZM441.208 64.807H445.142C445.142 64.3917 445.072 64.0183 444.932 63.687C444.792 63.351 444.577 63.0873 444.288 62.896C444.003 62.7 443.644 62.602 443.21 62.602C442.757 62.602 442.381 62.7117 442.083 62.931C441.784 63.1457 441.562 63.4233 441.418 63.764C441.273 64.1 441.203 64.4477 441.208 64.807ZM448.178 69V61.762H449.41V63.155C449.532 62.8097 449.702 62.525 449.921 62.301C450.141 62.0723 450.39 61.902 450.67 61.79C450.955 61.678 451.249 61.622 451.552 61.622C451.66 61.622 451.765 61.629 451.867 61.643C451.97 61.657 452.049 61.6803 452.105 61.713V62.966C452.035 62.9333 451.944 62.9123 451.832 62.903C451.725 62.889 451.634 62.882 451.559 62.882C451.27 62.8633 450.999 62.882 450.747 62.938C450.495 62.9893 450.274 63.0803 450.082 63.211C449.891 63.3417 449.739 63.5143 449.627 63.729C449.52 63.939 449.466 64.1957 449.466 64.499V69H448.178ZM456.21 69.14C455.706 69.14 455.237 69.063 454.803 68.909C454.374 68.7503 454.017 68.5053 453.732 68.174C453.447 67.838 453.27 67.411 453.2 66.893H454.376C454.437 67.1777 454.553 67.4157 454.726 67.607C454.899 67.7937 455.111 67.936 455.363 68.034C455.62 68.1273 455.9 68.174 456.203 68.174C456.693 68.174 457.087 68.083 457.386 67.901C457.685 67.719 457.834 67.439 457.834 67.061C457.834 66.795 457.755 66.5827 457.596 66.424C457.442 66.2607 457.199 66.1417 456.868 66.067L455.37 65.696C454.787 65.556 454.32 65.3367 453.97 65.038C453.625 64.7393 453.45 64.3217 453.445 63.785C453.445 63.3603 453.548 62.987 453.753 62.665C453.958 62.343 454.264 62.0887 454.67 61.902C455.081 61.7153 455.592 61.622 456.203 61.622C456.992 61.622 457.626 61.7993 458.107 62.154C458.588 62.504 458.84 63.0197 458.863 63.701H457.715C457.668 63.3557 457.514 63.0827 457.253 62.882C456.992 62.6767 456.637 62.574 456.189 62.574C455.732 62.574 455.356 62.6673 455.062 62.854C454.773 63.036 454.628 63.3207 454.628 63.708C454.628 63.9647 454.731 64.1677 454.936 64.317C455.146 64.4617 455.449 64.583 455.846 64.681L457.302 65.045C457.633 65.1337 457.909 65.2503 458.128 65.395C458.347 65.5397 458.52 65.7007 458.646 65.878C458.772 66.0553 458.861 66.242 458.912 66.438C458.968 66.6293 458.996 66.8137 458.996 66.991C458.996 67.4343 458.886 67.817 458.667 68.139C458.448 68.4563 458.13 68.7037 457.715 68.881C457.3 69.0537 456.798 69.14 456.21 69.14ZM463.586 69.14C462.919 69.14 462.336 68.9977 461.836 68.713C461.342 68.4237 460.957 68.0013 460.681 67.446C460.406 66.8907 460.268 66.2117 460.268 65.409C460.268 64.653 460.397 63.9903 460.653 63.421C460.91 62.8517 461.286 62.4107 461.78 62.098C462.275 61.7807 462.879 61.622 463.593 61.622C464.261 61.622 464.839 61.769 465.329 62.063C465.819 62.3523 466.2 62.7793 466.47 63.344C466.746 63.9087 466.883 64.597 466.883 65.409C466.883 66.1463 466.757 66.795 466.505 67.355C466.253 67.915 465.882 68.3537 465.392 68.671C464.907 68.9837 464.305 69.14 463.586 69.14ZM463.593 68.118C464.023 68.118 464.387 68.0083 464.685 67.789C464.984 67.5697 465.21 67.2547 465.364 66.844C465.523 66.4333 465.602 65.9457 465.602 65.381C465.602 64.863 465.532 64.3987 465.392 63.988C465.257 63.5727 465.042 63.2437 464.748 63.001C464.454 62.7583 464.069 62.637 463.593 62.637C463.155 62.637 462.784 62.7467 462.48 62.966C462.177 63.1807 461.946 63.4933 461.787 63.904C461.633 64.3147 461.556 64.807 461.556 65.381C461.556 65.8897 461.624 66.3517 461.759 66.767C461.899 67.1823 462.119 67.5113 462.417 67.754C462.721 67.9967 463.113 68.118 463.593 68.118ZM468.604 69V61.762H469.857V62.812C469.974 62.6113 470.135 62.4223 470.34 62.245C470.55 62.0677 470.802 61.9253 471.096 61.818C471.395 61.7107 471.738 61.657 472.125 61.657C472.583 61.657 473.003 61.748 473.385 61.93C473.773 62.112 474.081 62.3967 474.309 62.784C474.543 63.1667 474.659 63.6613 474.659 64.268V69H473.364V64.394C473.364 63.8293 473.215 63.4117 472.916 63.141C472.622 62.8657 472.24 62.728 471.768 62.728C471.442 62.728 471.136 62.7817 470.851 62.889C470.567 62.9917 470.336 63.1503 470.158 63.365C469.981 63.575 469.892 63.841 469.892 64.163V69H468.604Z" fill="white" style="fill:white;fill-opacity:1;"/>
<path d="M131.5 63C130.948 63 130.5 63.4477 130.5 64C130.5 64.5523 130.948 65 131.5 65V63ZM225.438 65C225.99 65 226.438 64.5523 226.438 64C226.438 63.4477 225.99 63 225.438 63V65ZM291.562 63C291.01 63 290.562 63.4477 290.562 64C290.562 64.5523 291.01 65 291.562 65V63ZM386.207 64.7071C386.598 64.3166 386.598 63.6834 386.207 63.2929L379.843 56.9289C379.453 56.5384 378.819 56.5384 378.429 56.9289C378.038 57.3195 378.038 57.9526 378.429 58.3431L384.086 64L378.429 69.6569C378.038 70.0474 378.038 70.6805 378.429 71.0711C378.819 71.4616 379.453 71.4616 379.843 71.0711L386.207 64.7071ZM131.5 65H225.438V63H131.5V65ZM291.562 65H385.5V63H291.562V65Z" fill="#1A1B1D" style="fill:#1A1B1D;fill:color(display-p3 0.1020 0.1059 0.1137);fill-opacity:1;"/>
<path d="M233.396 69.5V59.3182H234.933V64.1804H235.057L239.327 59.3182H241.261L237.155 63.902L241.276 69.5H239.427L236.136 64.951L234.933 66.3331V69.5H233.396ZM250.757 59.3182V69.5H249.345L244.17 62.0327H244.075V69.5H242.539V59.3182H243.961L249.141 66.7955H249.236V59.3182H250.757ZM261.689 64.4091C261.689 65.4962 261.49 66.4309 261.092 67.2131C260.694 67.992 260.149 68.5919 259.456 69.0128C258.767 69.4304 257.983 69.6392 257.105 69.6392C256.223 69.6392 255.436 69.4304 254.743 69.0128C254.054 68.5919 253.51 67.9903 253.113 67.2081C252.715 66.4259 252.516 65.4929 252.516 64.4091C252.516 63.322 252.715 62.389 253.113 61.6101C253.51 60.8279 254.054 60.228 254.743 59.8104C255.436 59.3894 256.223 59.179 257.105 59.179C257.983 59.179 258.767 59.3894 259.456 59.8104C260.149 60.228 260.694 60.8279 261.092 61.6101C261.49 62.389 261.689 63.322 261.689 64.4091ZM260.167 64.4091C260.167 63.5805 260.033 62.8828 259.765 62.3161C259.499 61.746 259.135 61.3151 258.671 61.0234C258.21 60.7285 257.688 60.581 257.105 60.581C256.518 60.581 255.995 60.7285 255.534 61.0234C255.073 61.3151 254.709 61.746 254.44 62.3161C254.175 62.8828 254.042 63.5805 254.042 64.4091C254.042 65.2377 254.175 65.937 254.44 66.5071C254.709 67.0739 255.073 67.5047 255.534 67.7997C255.995 68.0914 256.518 68.2372 257.105 68.2372C257.688 68.2372 258.21 68.0914 258.671 67.7997C259.135 67.5047 259.499 67.0739 259.765 66.5071C260.033 65.937 260.167 65.2377 260.167 64.4091ZM265.321 69.5L262.497 59.3182H264.112L266.096 67.2031H266.191L268.254 59.3182H269.855L271.918 67.2081H272.012L273.991 59.3182H275.612L272.783 69.5H271.237L269.094 61.8736H269.014L266.872 69.5H265.321ZM282.384 61.9929C282.331 61.5223 282.113 61.1577 281.728 60.8991C281.344 60.6373 280.86 60.5064 280.276 60.5064C279.859 60.5064 279.498 60.5727 279.193 60.7053C278.888 60.8345 278.651 61.0135 278.482 61.2422C278.316 61.4676 278.233 61.7244 278.233 62.0128C278.233 62.2547 278.289 62.4635 278.402 62.6392C278.518 62.8149 278.669 62.9624 278.855 63.0817C279.043 63.1977 279.246 63.2955 279.461 63.375C279.677 63.4512 279.884 63.5142 280.083 63.5639L281.077 63.8224C281.402 63.902 281.735 64.0097 282.076 64.1456C282.418 64.2815 282.734 64.4605 283.026 64.6825C283.317 64.9046 283.553 65.1797 283.732 65.5078C283.914 65.8359 284.005 66.2287 284.005 66.6861C284.005 67.2628 283.856 67.7749 283.558 68.2223C283.263 68.6697 282.833 69.0227 282.27 69.2812C281.71 69.5398 281.032 69.669 280.237 69.669C279.474 69.669 278.815 69.5481 278.258 69.3061C277.701 69.0642 277.265 68.7211 276.95 68.277C276.636 67.8295 276.462 67.2992 276.428 66.6861H277.97C277.999 67.054 278.119 67.3606 278.328 67.6058C278.54 67.8478 278.81 68.0284 279.138 68.1477C279.469 68.2637 279.832 68.3217 280.227 68.3217C280.661 68.3217 281.047 68.2538 281.385 68.1179C281.726 67.9787 281.995 67.7865 282.19 67.5412C282.386 67.2926 282.484 67.0026 282.484 66.6712C282.484 66.3696 282.398 66.1226 282.225 65.9304C282.056 65.7382 281.826 65.5791 281.534 65.4531C281.246 65.3272 280.919 65.2161 280.555 65.12L279.352 64.7919C278.536 64.5698 277.89 64.2434 277.413 63.8125C276.939 63.3816 276.702 62.8116 276.702 62.1023C276.702 61.5156 276.861 61.0036 277.179 60.5661C277.497 60.1286 277.928 59.7888 278.472 59.5469C279.015 59.3016 279.628 59.179 280.311 59.179C281.001 59.179 281.609 59.3 282.136 59.5419C282.666 59.7839 283.084 60.117 283.389 60.5412C283.694 60.9621 283.853 61.446 283.866 61.9929H282.384Z" fill="black" fill-opacity="0.8" style="fill:black;fill-opacity:0.8;"/>
<path d="M778 64C778 28.6538 806.654 0 842 0C877.346 0 906 28.6538 906 64C906 99.3462 877.346 128 842 128C806.654 128 778 99.3462 778 64Z" fill="#F16767" style="fill:#F16767;fill:color(display-p3 0.9451 0.4039 0.4039);fill-opacity:1;"/>
<path d="M820.724 69V58.878H824.147C824.87 58.878 825.514 58.9993 826.079 59.242C826.643 59.4847 827.087 59.844 827.409 60.32C827.735 60.796 827.899 61.3817 827.899 62.077C827.899 62.749 827.747 63.323 827.444 63.799C827.145 64.275 826.727 64.6367 826.191 64.884C825.654 65.1313 825.031 65.255 824.322 65.255H822.054V69H820.724ZM822.047 64.163H824.294C824.989 64.163 825.554 63.9693 825.988 63.582C826.422 63.1947 826.639 62.6673 826.639 62C826.639 61.328 826.415 60.8193 825.967 60.474C825.519 60.1287 824.94 59.956 824.231 59.956H822.047V64.163ZM832.308 69.14C831.636 69.14 831.043 68.993 830.53 68.699C830.016 68.405 829.615 67.9827 829.326 67.432C829.036 66.8813 828.892 66.221 828.892 65.451C828.892 64.6903 829.022 64.023 829.284 63.449C829.545 62.875 829.923 62.427 830.418 62.105C830.917 61.783 831.517 61.622 832.217 61.622C832.898 61.622 833.474 61.769 833.946 62.063C834.417 62.357 834.774 62.7723 835.017 63.309C835.264 63.841 835.388 64.4733 835.388 65.206V65.682H830.201C830.201 66.1393 830.275 66.5547 830.425 66.928C830.579 67.2967 830.81 67.5907 831.118 67.81C831.426 68.0293 831.815 68.139 832.287 68.139C832.749 68.139 833.145 68.0317 833.477 67.817C833.813 67.6023 834.027 67.292 834.121 66.886H835.339C835.255 67.376 835.059 67.789 834.751 68.125C834.447 68.461 834.081 68.7153 833.652 68.888C833.227 69.056 832.779 69.14 832.308 69.14ZM830.208 64.807H834.142C834.142 64.3917 834.072 64.0183 833.932 63.687C833.792 63.351 833.577 63.0873 833.288 62.896C833.003 62.7 832.644 62.602 832.21 62.602C831.757 62.602 831.381 62.7117 831.083 62.931C830.784 63.1457 830.562 63.4233 830.418 63.764C830.273 64.1 830.203 64.4477 830.208 64.807ZM837.178 69V61.762H838.41V63.155C838.532 62.8097 838.702 62.525 838.921 62.301C839.141 62.0723 839.39 61.902 839.67 61.79C839.955 61.678 840.249 61.622 840.552 61.622C840.66 61.622 840.765 61.629 840.867 61.643C840.97 61.657 841.049 61.6803 841.105 61.713V62.966C841.035 62.9333 840.944 62.9123 840.832 62.903C840.725 62.889 840.634 62.882 840.559 62.882C840.27 62.8633 839.999 62.882 839.747 62.938C839.495 62.9893 839.274 63.0803 839.082 63.211C838.891 63.3417 838.739 63.5143 838.627 63.729C838.52 63.939 838.466 64.1957 838.466 64.499V69H837.178ZM845.21 69.14C844.706 69.14 844.237 69.063 843.803 68.909C843.374 68.7503 843.017 68.5053 842.732 68.174C842.447 67.838 842.27 67.411 842.2 66.893H843.376C843.437 67.1777 843.553 67.4157 843.726 67.607C843.899 67.7937 844.111 67.936 844.363 68.034C844.62 68.1273 844.9 68.174 845.203 68.174C845.693 68.174 846.087 68.083 846.386 67.901C846.685 67.719 846.834 67.439 846.834 67.061C846.834 66.795 846.755 66.5827 846.596 66.424C846.442 66.2607 846.199 66.1417 845.868 66.067L844.37 65.696C843.787 65.556 843.32 65.3367 842.97 65.038C842.625 64.7393 842.45 64.3217 842.445 63.785C842.445 63.3603 842.548 62.987 842.753 62.665C842.958 62.343 843.264 62.0887 843.67 61.902C844.081 61.7153 844.592 61.622 845.203 61.622C845.992 61.622 846.626 61.7993 847.107 62.154C847.588 62.504 847.84 63.0197 847.863 63.701H846.715C846.668 63.3557 846.514 63.0827 846.253 62.882C845.992 62.6767 845.637 62.574 845.189 62.574C844.732 62.574 844.356 62.6673 844.062 62.854C843.773 63.036 843.628 63.3207 843.628 63.708C843.628 63.9647 843.731 64.1677 843.936 64.317C844.146 64.4617 844.449 64.583 844.846 64.681L846.302 65.045C846.633 65.1337 846.909 65.2503 847.128 65.395C847.347 65.5397 847.52 65.7007 847.646 65.878C847.772 66.0553 847.861 66.242 847.912 66.438C847.968 66.6293 847.996 66.8137 847.996 66.991C847.996 67.4343 847.886 67.817 847.667 68.139C847.448 68.4563 847.13 68.7037 846.715 68.881C846.3 69.0537 845.798 69.14 845.21 69.14ZM852.586 69.14C851.919 69.14 851.336 68.9977 850.836 68.713C850.342 68.4237 849.957 68.0013 849.681 67.446C849.406 66.8907 849.268 66.2117 849.268 65.409C849.268 64.653 849.397 63.9903 849.653 63.421C849.91 62.8517 850.286 62.4107 850.78 62.098C851.275 61.7807 851.879 61.622 852.593 61.622C853.261 61.622 853.839 61.769 854.329 62.063C854.819 62.3523 855.2 62.7793 855.47 63.344C855.746 63.9087 855.883 64.597 855.883 65.409C855.883 66.1463 855.757 66.795 855.505 67.355C855.253 67.915 854.882 68.3537 854.392 68.671C853.907 68.9837 853.305 69.14 852.586 69.14ZM852.593 68.118C853.023 68.118 853.387 68.0083 853.685 67.789C853.984 67.5697 854.21 67.2547 854.364 66.844C854.523 66.4333 854.602 65.9457 854.602 65.381C854.602 64.863 854.532 64.3987 854.392 63.988C854.257 63.5727 854.042 63.2437 853.748 63.001C853.454 62.7583 853.069 62.637 852.593 62.637C852.155 62.637 851.784 62.7467 851.48 62.966C851.177 63.1807 850.946 63.4933 850.787 63.904C850.633 64.3147 850.556 64.807 850.556 65.381C850.556 65.8897 850.624 66.3517 850.759 66.767C850.899 67.1823 851.119 67.5113 851.417 67.754C851.721 67.9967 852.113 68.118 852.593 68.118ZM857.604 69V61.762H858.857V62.812C858.974 62.6113 859.135 62.4223 859.34 62.245C859.55 62.0677 859.802 61.9253 860.096 61.818C860.395 61.7107 860.738 61.657 861.125 61.657C861.583 61.657 862.003 61.748 862.385 61.93C862.773 62.112 863.081 62.3967 863.309 62.784C863.543 63.1667 863.659 63.6613 863.659 64.268V69H862.364V64.394C862.364 63.8293 862.215 63.4117 861.916 63.141C861.622 62.8657 861.24 62.728 860.768 62.728C860.442 62.728 860.136 62.7817 859.851 62.889C859.567 62.9917 859.336 63.1503 859.158 63.365C858.981 63.575 858.892 63.841 858.892 64.163V69H857.604Z" fill="white" style="fill:white;fill-opacity:1;"/>
<path d="M520.5 63C519.948 63 519.5 63.4477 519.5 64C519.5 64.5523 519.948 65 520.5 65V63ZM614.438 65C614.99 65 615.438 64.5523 615.438 64C615.438 63.4477 614.99 63 614.438 63V65ZM680.562 63C680.01 63 679.562 63.4477 679.562 64C679.562 64.5523 680.01 65 680.562 65V63ZM775.207 64.7071C775.598 64.3166 775.598 63.6834 775.207 63.2929L768.843 56.9289C768.453 56.5384 767.819 56.5384 767.429 56.9289C767.038 57.3195 767.038 57.9526 767.429 58.3431L773.086 64L767.429 69.6569C767.038 70.0474 767.038 70.6805 767.429 71.0711C767.819 71.4616 768.453 71.4616 768.843 71.0711L775.207 64.7071ZM520.5 65H614.438V63H520.5V65ZM680.562 65H774.5V63H680.562V65Z" fill="#1A1B1D" style="fill:#1A1B1D;fill:color(display-p3 0.1020 0.1059 0.1137);fill-opacity:1;"/>
<path d="M622.396 69.5V59.3182H623.933V64.1804H624.057L628.327 59.3182H630.261L626.155 63.902L630.276 69.5H628.427L625.136 64.951L623.933 66.3331V69.5H622.396ZM639.757 59.3182V69.5H638.345L633.17 62.0327H633.075V69.5H631.539V59.3182H632.961L638.141 66.7955H638.236V59.3182H639.757ZM650.689 64.4091C650.689 65.4962 650.49 66.4309 650.092 67.2131C649.694 67.992 649.149 68.5919 648.456 69.0128C647.767 69.4304 646.983 69.6392 646.105 69.6392C645.223 69.6392 644.436 69.4304 643.743 69.0128C643.054 68.5919 642.51 67.9903 642.113 67.2081C641.715 66.4259 641.516 65.4929 641.516 64.4091C641.516 63.322 641.715 62.389 642.113 61.6101C642.51 60.8279 643.054 60.228 643.743 59.8104C644.436 59.3894 645.223 59.179 646.105 59.179C646.983 59.179 647.767 59.3894 648.456 59.8104C649.149 60.228 649.694 60.8279 650.092 61.6101C650.49 62.389 650.689 63.322 650.689 64.4091ZM649.167 64.4091C649.167 63.5805 649.033 62.8828 648.765 62.3161C648.499 61.746 648.135 61.3151 647.671 61.0234C647.21 60.7285 646.688 60.581 646.105 60.581C645.518 60.581 644.995 60.7285 644.534 61.0234C644.073 61.3151 643.709 61.746 643.44 62.3161C643.175 62.8828 643.042 63.5805 643.042 64.4091C643.042 65.2377 643.175 65.937 643.44 66.5071C643.709 67.0739 644.073 67.5047 644.534 67.7997C644.995 68.0914 645.518 68.2372 646.105 68.2372C646.688 68.2372 647.21 68.0914 647.671 67.7997C648.135 67.5047 648.499 67.0739 648.765 66.5071C649.033 65.937 649.167 65.2377 649.167 64.4091ZM654.321 69.5L651.497 59.3182H653.112L655.096 67.2031H655.191L657.254 59.3182H658.855L660.918 67.2081H661.012L662.991 59.3182H664.612L661.783 69.5H660.237L658.094 61.8736H658.014L655.872 69.5H654.321ZM671.384 61.9929C671.331 61.5223 671.113 61.1577 670.728 60.8991C670.344 60.6373 669.86 60.5064 669.276 60.5064C668.859 60.5064 668.498 60.5727 668.193 60.7053C667.888 60.8345 667.651 61.0135 667.482 61.2422C667.316 61.4676 667.233 61.7244 667.233 62.0128C667.233 62.2547 667.289 62.4635 667.402 62.6392C667.518 62.8149 667.669 62.9624 667.855 63.0817C668.043 63.1977 668.246 63.2955 668.461 63.375C668.677 63.4512 668.884 63.5142 669.083 63.5639L670.077 63.8224C670.402 63.902 670.735 64.0097 671.076 64.1456C671.418 64.2815 671.734 64.4605 672.026 64.6825C672.317 64.9046 672.553 65.1797 672.732 65.5078C672.914 65.8359 673.005 66.2287 673.005 66.6861C673.005 67.2628 672.856 67.7749 672.558 68.2223C672.263 68.6697 671.833 69.0227 671.27 69.2812C670.71 69.5398 670.032 69.669 669.237 69.669C668.474 69.669 667.815 69.5481 667.258 69.3061C666.701 69.0642 666.265 68.7211 665.95 68.277C665.636 67.8295 665.462 67.2992 665.428 66.6861H666.97C666.999 67.054 667.119 67.3606 667.328 67.6058C667.54 67.8478 667.81 68.0284 668.138 68.1477C668.469 68.2637 668.832 68.3217 669.227 68.3217C669.661 68.3217 670.047 68.2538 670.385 68.1179C670.726 67.9787 670.995 67.7865 671.19 67.5412C671.386 67.2926 671.484 67.0026 671.484 66.6712C671.484 66.3696 671.398 66.1226 671.225 65.9304C671.056 65.7382 670.826 65.5791 670.534 65.4531C670.246 65.3272 669.919 65.2161 669.555 65.12L668.352 64.7919C667.536 64.5698 666.89 64.2434 666.413 63.8125C665.939 63.3816 665.702 62.8116 665.702 62.1023C665.702 61.5156 665.861 61.0036 666.179 60.5661C666.497 60.1286 666.928 59.7888 667.472 59.5469C668.015 59.3016 668.628 59.179 669.311 59.179C670.001 59.179 670.609 59.3 671.136 59.5419C671.666 59.7839 672.084 60.117 672.389 60.5412C672.694 60.9621 672.853 61.446 672.866 61.9929H671.384Z" fill="black" fill-opacity="0.8" style="fill:black;fill-opacity:0.8;"/>
<path d="M21.966 155V147.762H23.632V148.798C23.744 148.611 23.8957 148.432 24.087 148.259C24.283 148.086 24.5233 147.946 24.808 147.839C25.0927 147.732 25.4263 147.678 25.809 147.678C26.257 147.678 26.6723 147.767 27.055 147.944C27.4423 148.121 27.7527 148.399 27.986 148.777C28.224 149.155 28.343 149.643 28.343 150.24V155H26.635V150.443C26.635 149.967 26.5043 149.615 26.243 149.386C25.9817 149.153 25.6527 149.036 25.256 149.036C24.9853 149.036 24.7287 149.083 24.486 149.176C24.2433 149.265 24.045 149.402 23.891 149.589C23.7417 149.771 23.667 150 23.667 150.275V155H21.966ZM32.2211 155.14C31.7591 155.14 31.3438 155.056 30.9751 154.888C30.6111 154.715 30.3241 154.47 30.1141 154.153C29.9088 153.831 29.8061 153.441 29.8061 152.984C29.8061 152.186 30.0931 151.584 30.6671 151.178C31.2458 150.772 32.1651 150.56 33.4251 150.541L34.5101 150.513V150.023C34.5101 149.64 34.3958 149.342 34.1671 149.127C33.9431 148.908 33.5931 148.8 33.1171 148.805C32.7624 148.81 32.4404 148.894 32.1511 149.057C31.8618 149.216 31.6704 149.484 31.5771 149.862H30.1281C30.1561 149.367 30.2984 148.954 30.5551 148.623C30.8164 148.287 31.1734 148.037 31.6261 147.874C32.0788 147.706 32.6014 147.622 33.1941 147.622C33.8848 147.622 34.4471 147.713 34.8811 147.895C35.3151 148.077 35.6348 148.341 35.8401 148.686C36.0454 149.027 36.1481 149.44 36.1481 149.925V155H34.7131L34.5731 153.698C34.3164 154.244 33.9874 154.622 33.5861 154.832C33.1894 155.037 32.7344 155.14 32.2211 155.14ZM32.7741 153.985C32.9841 153.985 33.1918 153.948 33.3971 153.873C33.6024 153.794 33.7868 153.689 33.9501 153.558C34.1181 153.423 34.2511 153.273 34.3491 153.11C34.4518 152.947 34.5054 152.776 34.5101 152.599V151.458L33.6211 151.472C33.1824 151.477 32.7974 151.523 32.4661 151.612C32.1394 151.701 31.8851 151.843 31.7031 152.039C31.5211 152.23 31.4301 152.487 31.4301 152.809C31.4301 153.178 31.5584 153.467 31.8151 153.677C32.0718 153.882 32.3914 153.985 32.7741 153.985ZM37.9621 155V147.762H39.6211V148.798C39.8311 148.481 40.1158 148.205 40.4751 147.972C40.8391 147.739 41.3011 147.622 41.8611 147.622C42.1178 147.622 42.3768 147.666 42.6381 147.755C42.9041 147.844 43.1491 147.974 43.3731 148.147C43.6018 148.32 43.7838 148.534 43.9191 148.791C44.1478 148.45 44.4511 148.17 44.8291 147.951C45.2118 147.732 45.6411 147.622 46.1171 147.622C46.3784 147.622 46.6468 147.664 46.9221 147.748C47.2021 147.832 47.4588 147.972 47.6921 148.168C47.9254 148.364 48.1144 148.632 48.2591 148.973C48.4038 149.309 48.4761 149.731 48.4761 150.24V155H46.7751V150.443C46.7751 150.084 46.7121 149.801 46.5861 149.596C46.4601 149.391 46.2968 149.246 46.0961 149.162C45.9001 149.073 45.6901 149.029 45.4661 149.029C45.2654 149.029 45.0554 149.069 44.8361 149.148C44.6214 149.227 44.4371 149.358 44.2831 149.54C44.1338 149.722 44.0591 149.967 44.0591 150.275V155H42.3581V150.17C42.3581 149.918 42.2928 149.708 42.1621 149.54C42.0314 149.372 41.8658 149.246 41.6651 149.162C41.4691 149.073 41.2684 149.029 41.0631 149.029C40.8531 149.029 40.6384 149.073 40.4191 149.162C40.2044 149.251 40.0248 149.386 39.8801 149.568C39.7354 149.75 39.6631 149.986 39.6631 150.275V155H37.9621ZM53.5068 155.14C52.8115 155.14 52.1978 154.993 51.6658 154.699C51.1385 154.4 50.7255 153.976 50.4268 153.425C50.1328 152.874 49.9858 152.219 49.9858 151.458C49.9858 150.716 50.1188 150.058 50.3848 149.484C50.6555 148.905 51.0451 148.45 51.5538 148.119C52.0671 147.788 52.6855 147.622 53.4088 147.622C54.1228 147.622 54.7225 147.774 55.2078 148.077C55.6931 148.38 56.0618 148.805 56.3138 149.351C56.5658 149.892 56.6918 150.527 56.6918 151.255V151.773H51.6868C51.6821 152.184 51.7475 152.548 51.8828 152.865C52.0181 153.182 52.2188 153.432 52.4848 153.614C52.7508 153.791 53.0798 153.88 53.4718 153.88C53.8731 153.88 54.2208 153.791 54.5148 153.614C54.8135 153.432 55.0118 153.157 55.1098 152.788H56.6638C56.5798 153.292 56.3791 153.719 56.0618 154.069C55.7491 154.419 55.3665 154.685 54.9138 154.867C54.4658 155.049 53.9968 155.14 53.5068 155.14ZM51.6798 150.716H55.0818C55.0818 150.366 55.0188 150.051 54.8928 149.771C54.7715 149.486 54.5871 149.262 54.3398 149.099C54.0925 148.931 53.7798 148.847 53.4018 148.847C53.0285 148.847 52.7135 148.938 52.4568 149.12C52.2001 149.302 52.0065 149.538 51.8758 149.827C51.7451 150.112 51.6798 150.408 51.6798 150.716ZM58.0815 149.932V147.986H60.0065V149.932H58.0815ZM58.0815 154.958V153.026H60.0065V154.958H58.0815ZM65.3691 148.497L64.9001 144.878H66.7551L66.2651 148.497H65.3691ZM68.0834 155L71.7164 144.878H73.5644L77.1974 155H75.4894L74.5864 152.459H70.7084L69.7984 155H68.0834ZM71.1144 150.947H74.1594L72.6404 146.53L71.1144 150.947ZM78.6359 155V147.762H80.3019V148.798C80.4139 148.611 80.5656 148.432 80.7569 148.259C80.9529 148.086 81.1933 147.946 81.4779 147.839C81.7626 147.732 82.0963 147.678 82.4789 147.678C82.9269 147.678 83.3423 147.767 83.7249 147.944C84.1123 148.121 84.4226 148.399 84.6559 148.777C84.8939 149.155 85.0129 149.643 85.0129 150.24V155H83.3049V150.443C83.3049 149.967 83.1743 149.615 82.9129 149.386C82.6516 149.153 82.3226 149.036 81.9259 149.036C81.6553 149.036 81.3986 149.083 81.1559 149.176C80.9133 149.265 80.7149 149.402 80.5609 149.589C80.4116 149.771 80.3369 150 80.3369 150.275V155H78.6359ZM89.527 155.14C88.5704 155.14 87.819 154.811 87.273 154.153C86.727 153.495 86.454 152.559 86.454 151.346C86.454 150.59 86.5637 149.934 86.783 149.379C87.007 148.819 87.336 148.387 87.77 148.084C88.204 147.776 88.7384 147.622 89.373 147.622C89.6717 147.622 89.9424 147.659 90.185 147.734C90.4324 147.804 90.6517 147.897 90.843 148.014C91.0344 148.131 91.1954 148.259 91.326 148.399C91.4614 148.539 91.5664 148.679 91.641 148.819V144.598H93.356V155H92.096L91.907 153.516C91.8464 153.689 91.76 153.871 91.648 154.062C91.5407 154.249 91.3937 154.424 91.207 154.587C91.025 154.75 90.7964 154.883 90.521 154.986C90.2457 155.089 89.9144 155.14 89.527 155.14ZM89.877 153.887C90.4884 153.887 90.934 153.689 91.214 153.292C91.4987 152.891 91.641 152.228 91.641 151.304C91.6364 150.777 91.571 150.333 91.445 149.974C91.3237 149.615 91.137 149.344 90.885 149.162C90.633 148.98 90.304 148.889 89.898 148.889C89.3847 148.889 88.9624 149.078 88.631 149.456C88.3044 149.834 88.141 150.45 88.141 151.304C88.141 152.153 88.2927 152.797 88.596 153.236C88.8994 153.67 89.3264 153.887 89.877 153.887ZM96.2196 157.31C95.7529 157.31 95.4286 157.273 95.2466 157.198C95.0646 157.128 94.9736 157.093 94.9736 157.093V156.001L95.7016 156.022C95.9956 156.036 96.2336 156.02 96.4156 155.973C96.6023 155.926 96.7469 155.861 96.8496 155.777C96.9523 155.698 97.0269 155.611 97.0736 155.518C97.1249 155.429 97.1646 155.352 97.1926 155.287L97.3816 154.755L94.5606 147.762H96.2546L98.1796 152.879L100.098 147.762H101.764L98.7816 155.266C98.5576 155.812 98.3149 156.232 98.0536 156.526C97.7969 156.825 97.5146 157.03 97.2066 157.142C96.9033 157.254 96.5743 157.31 96.2196 157.31ZM103.404 148.497L102.935 144.878H104.79L104.3 148.497H103.404ZM24.059 179.14C23.597 179.14 23.1817 179.056 22.813 178.888C22.449 178.715 22.162 178.47 21.952 178.153C21.7467 177.831 21.644 177.441 21.644 176.984C21.644 176.186 21.931 175.584 22.505 175.178C23.0837 174.772 24.003 174.56 25.263 174.541L26.348 174.513V174.023C26.348 173.64 26.2337 173.342 26.005 173.127C25.781 172.908 25.431 172.8 24.955 172.805C24.6003 172.81 24.2783 172.894 23.989 173.057C23.6997 173.216 23.5083 173.484 23.415 173.862H21.966C21.994 173.367 22.1363 172.954 22.393 172.623C22.6543 172.287 23.0113 172.037 23.464 171.874C23.9167 171.706 24.4393 171.622 25.032 171.622C25.7227 171.622 26.285 171.713 26.719 171.895C27.153 172.077 27.4727 172.341 27.678 172.686C27.8833 173.027 27.986 173.44 27.986 173.925V179H26.551L26.411 177.698C26.1543 178.244 25.8253 178.622 25.424 178.832C25.0273 179.037 24.5723 179.14 24.059 179.14ZM24.612 177.985C24.822 177.985 25.0297 177.948 25.235 177.873C25.4403 177.794 25.6247 177.689 25.788 177.558C25.956 177.423 26.089 177.273 26.187 177.11C26.2897 176.947 26.3433 176.776 26.348 176.599V175.458L25.459 175.472C25.0203 175.477 24.6353 175.523 24.304 175.612C23.9773 175.701 23.723 175.843 23.541 176.039C23.359 176.23 23.268 176.487 23.268 176.809C23.268 177.178 23.3963 177.467 23.653 177.677C23.9097 177.882 24.2293 177.985 24.612 177.985ZM33.02 181.394C31.802 181.394 30.8663 181.231 30.213 180.904C29.5597 180.577 29.233 180.129 29.233 179.56C29.233 179.303 29.296 179.089 29.422 178.916C29.548 178.743 29.6973 178.601 29.87 178.489C30.0427 178.377 30.2013 178.291 30.346 178.23C30.4907 178.169 30.584 178.125 30.626 178.097C30.5467 178.05 30.4417 177.99 30.311 177.915C30.1803 177.84 30.0613 177.738 29.954 177.607C29.8513 177.476 29.8 177.306 29.8 177.096C29.8 176.853 29.9143 176.629 30.143 176.424C30.3763 176.219 30.724 176.072 31.186 175.983C30.7333 175.764 30.3857 175.467 30.143 175.094C29.9003 174.721 29.779 174.333 29.779 173.932C29.779 173.456 29.9167 173.048 30.192 172.707C30.472 172.366 30.8593 172.105 31.354 171.923C31.8487 171.741 32.425 171.65 33.083 171.65C33.5637 171.65 33.9627 171.704 34.28 171.811C34.602 171.918 34.9007 172.063 35.176 172.245C35.2693 172.208 35.4 172.156 35.568 172.091C35.736 172.021 35.9203 171.946 36.121 171.867C36.3217 171.783 36.5153 171.704 36.702 171.629C36.8887 171.55 37.045 171.484 37.171 171.433L37.164 172.84L35.911 173.064C35.9717 173.199 36.0183 173.346 36.051 173.505C36.0883 173.664 36.107 173.804 36.107 173.925C36.107 174.345 35.988 174.735 35.75 175.094C35.5167 175.449 35.1643 175.733 34.693 175.948C34.2263 176.163 33.643 176.27 32.943 176.27C32.873 176.27 32.7773 176.268 32.656 176.263C32.5347 176.258 32.4367 176.254 32.362 176.249C31.984 176.263 31.725 176.307 31.585 176.382C31.445 176.457 31.375 176.538 31.375 176.627C31.375 176.753 31.48 176.837 31.69 176.879C31.9 176.921 32.236 176.958 32.698 176.991C32.8613 177 33.076 177.012 33.342 177.026C33.608 177.04 33.9043 177.059 34.231 177.082C35.057 177.133 35.6823 177.341 36.107 177.705C36.5317 178.064 36.744 178.531 36.744 179.105C36.744 179.772 36.436 180.321 35.82 180.75C35.204 181.179 34.2707 181.394 33.02 181.394ZM33.307 180.393C33.9183 180.393 34.371 180.309 34.665 180.141C34.959 179.973 35.106 179.726 35.106 179.399C35.106 179.147 35.0057 178.942 34.805 178.783C34.6043 178.624 34.3057 178.531 33.909 178.503L32.082 178.391C31.8813 178.377 31.69 178.414 31.508 178.503C31.3307 178.587 31.186 178.706 31.074 178.86C30.962 179.009 30.906 179.175 30.906 179.357C30.906 179.698 31.0997 179.954 31.487 180.127C31.879 180.304 32.4857 180.393 33.307 180.393ZM32.999 175.269C33.4423 175.269 33.8017 175.157 34.077 174.933C34.3523 174.704 34.49 174.382 34.49 173.967C34.49 173.538 34.3523 173.204 34.077 172.966C33.8017 172.723 33.4423 172.602 32.999 172.602C32.5463 172.602 32.18 172.723 31.9 172.966C31.6247 173.209 31.487 173.542 31.487 173.967C31.487 174.368 31.62 174.686 31.886 174.919C32.152 175.152 32.523 175.269 32.999 175.269ZM41.5576 179.14C40.8622 179.14 40.2486 178.993 39.7166 178.699C39.1892 178.4 38.7762 177.976 38.4776 177.425C38.1836 176.874 38.0366 176.219 38.0366 175.458C38.0366 174.716 38.1696 174.058 38.4356 173.484C38.7062 172.905 39.0959 172.45 39.6046 172.119C40.1179 171.788 40.7362 171.622 41.4596 171.622C42.1736 171.622 42.7732 171.774 43.2586 172.077C43.7439 172.38 44.1126 172.805 44.3646 173.351C44.6166 173.892 44.7426 174.527 44.7426 175.255V175.773H39.7376C39.7329 176.184 39.7982 176.548 39.9336 176.865C40.0689 177.182 40.2696 177.432 40.5356 177.614C40.8016 177.791 41.1306 177.88 41.5226 177.88C41.9239 177.88 42.2716 177.791 42.5656 177.614C42.8642 177.432 43.0626 177.157 43.1606 176.788H44.7146C44.6306 177.292 44.4299 177.719 44.1126 178.069C43.7999 178.419 43.4172 178.685 42.9646 178.867C42.5166 179.049 42.0476 179.14 41.5576 179.14ZM39.7306 174.716H43.1326C43.1326 174.366 43.0696 174.051 42.9436 173.771C42.8222 173.486 42.6379 173.262 42.3906 173.099C42.1432 172.931 41.8306 172.847 41.4526 172.847C41.0792 172.847 40.7642 172.938 40.5076 173.12C40.2509 173.302 40.0572 173.538 39.9266 173.827C39.7959 174.112 39.7306 174.408 39.7306 174.716ZM46.1323 173.932V171.986H48.0573V173.932H46.1323ZM46.1323 178.958V177.026H48.0573V178.958H46.1323ZM56.4648 179.154C55.7042 179.149 55.0485 179.019 54.4978 178.762C53.9472 178.505 53.5178 178.139 53.2098 177.663C52.9065 177.187 52.7478 176.622 52.7338 175.969H54.3928C54.4908 176.571 54.7288 177.019 55.1068 177.313C55.4895 177.602 55.9538 177.747 56.4998 177.747C56.9525 177.747 57.3445 177.679 57.6758 177.544C58.0072 177.404 58.2615 177.213 58.4388 176.97C58.6208 176.727 58.7118 176.445 58.7118 176.123C58.7118 175.782 58.6138 175.491 58.4178 175.248C58.2265 175.005 57.9628 174.819 57.6268 174.688C57.2908 174.557 56.9128 174.487 56.4928 174.478L55.5548 174.45V173.064L56.4228 173.029C56.8242 173.015 57.1765 172.938 57.4798 172.798C57.7878 172.658 58.0282 172.474 58.2008 172.245C58.3735 172.016 58.4598 171.76 58.4598 171.475C58.4598 171.214 58.3782 170.978 58.2148 170.768C58.0562 170.558 57.8298 170.395 57.5358 170.278C57.2418 170.157 56.8942 170.096 56.4928 170.096C56.1522 170.096 55.8325 170.157 55.5338 170.278C55.2352 170.399 54.9878 170.595 54.7918 170.866C54.6005 171.132 54.4955 171.482 54.4768 171.916H52.8248C52.8248 171.225 52.9905 170.644 53.3218 170.173C53.6532 169.697 54.0965 169.34 54.6518 169.102C55.2118 168.859 55.8325 168.738 56.5138 168.738C57.2465 168.738 57.8952 168.838 58.4598 169.039C59.0292 169.235 59.4748 169.531 59.7968 169.928C60.1235 170.325 60.2868 170.817 60.2868 171.405C60.2868 171.904 60.1352 172.35 59.8318 172.742C59.5285 173.134 59.0502 173.442 58.3968 173.666C58.8028 173.778 59.1668 173.946 59.4888 174.17C59.8108 174.389 60.0652 174.665 60.2518 174.996C60.4432 175.327 60.5388 175.717 60.5388 176.165C60.5388 176.646 60.4338 177.073 60.2238 177.446C60.0185 177.819 59.7292 178.134 59.3558 178.391C58.9872 178.643 58.5555 178.834 58.0608 178.965C57.5662 179.091 57.0342 179.154 56.4648 179.154ZM66.4676 179L66.4746 176.599H61.7636V175.15L66.4256 168.878H68.1196V175.15H69.7366V176.599H68.1196V179H66.4676ZM63.3596 175.15H66.4606V170.992L63.3596 175.15ZM24.052 203.105C23.5853 203.105 23.212 203.047 22.932 202.93C22.652 202.813 22.442 202.657 22.302 202.461C22.162 202.265 22.071 202.046 22.029 201.803C21.987 201.556 21.966 201.304 21.966 201.047V192.598H23.632V200.851C23.632 201.164 23.695 201.406 23.821 201.579C23.9517 201.752 24.1617 201.852 24.451 201.88L24.815 201.894V202.965C24.689 203.002 24.5607 203.035 24.43 203.063C24.2993 203.091 24.1733 203.105 24.052 203.105ZM29.2255 203.14C28.5302 203.14 27.9165 202.993 27.3845 202.699C26.8572 202.4 26.4442 201.976 26.1455 201.425C25.8515 200.874 25.7045 200.219 25.7045 199.458C25.7045 198.716 25.8375 198.058 26.1035 197.484C26.3742 196.905 26.7639 196.45 27.2725 196.119C27.7859 195.788 28.4042 195.622 29.1275 195.622C29.8415 195.622 30.4412 195.774 30.9265 196.077C31.4119 196.38 31.7805 196.805 32.0325 197.351C32.2845 197.892 32.4105 198.527 32.4105 199.255V199.773H27.4055C27.4009 200.184 27.4662 200.548 27.6015 200.865C27.7369 201.182 27.9375 201.432 28.2035 201.614C28.4695 201.791 28.7985 201.88 29.1905 201.88C29.5919 201.88 29.9395 201.791 30.2335 201.614C30.5322 201.432 30.7305 201.157 30.8285 200.788H32.3825C32.2985 201.292 32.0979 201.719 31.7805 202.069C31.4679 202.419 31.0852 202.685 30.6325 202.867C30.1845 203.049 29.7155 203.14 29.2255 203.14ZM27.3985 198.716H30.8005C30.8005 198.366 30.7375 198.051 30.6115 197.771C30.4902 197.486 30.3059 197.262 30.0585 197.099C29.8112 196.931 29.4985 196.847 29.1205 196.847C28.7472 196.847 28.4322 196.938 28.1755 197.12C27.9189 197.302 27.7252 197.538 27.5945 197.827C27.4639 198.112 27.3985 198.408 27.3985 198.716ZM34.0383 203V195.762H35.7043V196.798C35.8163 196.611 35.9679 196.432 36.1593 196.259C36.3553 196.086 36.5956 195.946 36.8803 195.839C37.1649 195.732 37.4986 195.678 37.8813 195.678C38.3293 195.678 38.7446 195.767 39.1273 195.944C39.5146 196.121 39.8249 196.399 40.0583 196.777C40.2963 197.155 40.4153 197.643 40.4153 198.24V203H38.7073V198.443C38.7073 197.967 38.5766 197.615 38.3153 197.386C38.0539 197.153 37.7249 197.036 37.3283 197.036C37.0576 197.036 36.8009 197.083 36.5583 197.176C36.3156 197.265 36.1173 197.402 35.9633 197.589C35.8139 197.771 35.7393 198 35.7393 198.275V203H34.0383ZM45.4614 205.394C44.2434 205.394 43.3077 205.231 42.6544 204.904C42.0011 204.577 41.6744 204.129 41.6744 203.56C41.6744 203.303 41.7374 203.089 41.8634 202.916C41.9894 202.743 42.1387 202.601 42.3114 202.489C42.4841 202.377 42.6427 202.291 42.7874 202.23C42.9321 202.169 43.0254 202.125 43.0674 202.097C42.9881 202.05 42.8831 201.99 42.7524 201.915C42.6217 201.84 42.5027 201.738 42.3954 201.607C42.2927 201.476 42.2414 201.306 42.2414 201.096C42.2414 200.853 42.3557 200.629 42.5844 200.424C42.8177 200.219 43.1654 200.072 43.6274 199.983C43.1747 199.764 42.8271 199.467 42.5844 199.094C42.3417 198.721 42.2204 198.333 42.2204 197.932C42.2204 197.456 42.3581 197.048 42.6334 196.707C42.9134 196.366 43.3007 196.105 43.7954 195.923C44.2901 195.741 44.8664 195.65 45.5244 195.65C46.0051 195.65 46.4041 195.704 46.7214 195.811C47.0434 195.918 47.3421 196.063 47.6174 196.245C47.7107 196.208 47.8414 196.156 48.0094 196.091C48.1774 196.021 48.3617 195.946 48.5624 195.867C48.7631 195.783 48.9567 195.704 49.1434 195.629C49.3301 195.55 49.4864 195.484 49.6124 195.433L49.6054 196.84L48.3524 197.064C48.4131 197.199 48.4597 197.346 48.4924 197.505C48.5297 197.664 48.5484 197.804 48.5484 197.925C48.5484 198.345 48.4294 198.735 48.1914 199.094C47.9581 199.449 47.6057 199.733 47.1344 199.948C46.6677 200.163 46.0844 200.27 45.3844 200.27C45.3144 200.27 45.2187 200.268 45.0974 200.263C44.9761 200.258 44.8781 200.254 44.8034 200.249C44.4254 200.263 44.1664 200.307 44.0264 200.382C43.8864 200.457 43.8164 200.538 43.8164 200.627C43.8164 200.753 43.9214 200.837 44.1314 200.879C44.3414 200.921 44.6774 200.958 45.1394 200.991C45.3027 201 45.5174 201.012 45.7834 201.026C46.0494 201.04 46.3457 201.059 46.6724 201.082C47.4984 201.133 48.1237 201.341 48.5484 201.705C48.9731 202.064 49.1854 202.531 49.1854 203.105C49.1854 203.772 48.8774 204.321 48.2614 204.75C47.6454 205.179 46.7121 205.394 45.4614 205.394ZM45.7484 204.393C46.3597 204.393 46.8124 204.309 47.1064 204.141C47.4004 203.973 47.5474 203.726 47.5474 203.399C47.5474 203.147 47.4471 202.942 47.2464 202.783C47.0457 202.624 46.7471 202.531 46.3504 202.503L44.5234 202.391C44.3227 202.377 44.1314 202.414 43.9494 202.503C43.7721 202.587 43.6274 202.706 43.5154 202.86C43.4034 203.009 43.3474 203.175 43.3474 203.357C43.3474 203.698 43.5411 203.954 43.9284 204.127C44.3204 204.304 44.9271 204.393 45.7484 204.393ZM45.4404 199.269C45.8837 199.269 46.2431 199.157 46.5184 198.933C46.7937 198.704 46.9314 198.382 46.9314 197.967C46.9314 197.538 46.7937 197.204 46.5184 196.966C46.2431 196.723 45.8837 196.602 45.4404 196.602C44.9877 196.602 44.6214 196.723 44.3414 196.966C44.0661 197.209 43.9284 197.542 43.9284 197.967C43.9284 198.368 44.0614 198.686 44.3274 198.919C44.5934 199.152 44.9644 199.269 45.4404 199.269ZM54.0741 203.056C53.5001 203.056 53.0545 202.981 52.7371 202.832C52.4245 202.678 52.2075 202.461 52.0861 202.181C51.9648 201.901 51.9041 201.567 51.9041 201.18V196.966H50.7281V195.762H51.9531L52.3801 193.613H53.6051V195.755H55.2221V196.966H53.6051L53.6121 201.117C53.6121 201.332 53.6355 201.49 53.6821 201.593C53.7335 201.691 53.8128 201.756 53.9201 201.789C54.0321 201.817 54.1791 201.831 54.3611 201.831H55.2571V202.909C55.1591 202.946 55.0145 202.979 54.8231 203.007C54.6365 203.04 54.3868 203.056 54.0741 203.056ZM56.8293 203V192.598H58.5093V196.812C58.6259 196.63 58.7799 196.455 58.9713 196.287C59.1626 196.114 59.3959 195.974 59.6713 195.867C59.9513 195.755 60.2849 195.699 60.6723 195.699C61.1343 195.699 61.5566 195.788 61.9393 195.965C62.3219 196.142 62.6276 196.399 62.8563 196.735C63.0849 197.066 63.1993 197.463 63.1993 197.925V203H61.4913V198.212C61.4913 197.839 61.3583 197.549 61.0923 197.344C60.8309 197.139 60.4996 197.036 60.0983 197.036C59.8323 197.036 59.5779 197.083 59.3353 197.176C59.0926 197.269 58.8966 197.409 58.7473 197.596C58.6026 197.778 58.5303 198.007 58.5303 198.282V203H56.8293ZM64.7807 197.932V195.986H66.7057V197.932H64.7807ZM64.7807 202.958V201.026H66.7057V202.958H64.7807ZM73.2373 203V195.202H71.3613V194.187C71.9539 194.187 72.4229 194.138 72.7683 194.04C73.1183 193.937 73.3726 193.788 73.5313 193.592C73.6946 193.396 73.7879 193.158 73.8113 192.878H74.9733V203H73.2373ZM79.0605 203C79.1165 202.566 79.2285 202.025 79.3965 201.376C79.5692 200.723 79.8048 200.004 80.1035 199.22C80.4022 198.431 80.7732 197.617 81.2165 196.777C81.6598 195.937 82.1778 195.111 82.7705 194.299H77.2265V192.878H84.5835V194.299C84.2428 194.742 83.9045 195.256 83.5685 195.839C83.2325 196.418 82.9105 197.031 82.6025 197.68C82.2945 198.324 82.0192 198.97 81.7765 199.619C81.5338 200.263 81.3355 200.877 81.1815 201.46C81.0275 202.043 80.9342 202.557 80.9015 203H79.0605ZM89.408 203.154C88.2367 203.154 87.315 202.713 86.643 201.831C85.9757 200.949 85.642 199.663 85.642 197.974C85.642 196.835 85.796 195.879 86.104 195.104C86.412 194.325 86.8484 193.737 87.413 193.34C87.9777 192.939 88.645 192.738 89.415 192.738C90.5724 192.738 91.487 193.184 92.159 194.075C92.8357 194.962 93.174 196.257 93.174 197.96C93.174 199.654 92.838 200.944 92.166 201.831C91.4987 202.713 90.5794 203.154 89.408 203.154ZM89.415 201.733C90.073 201.733 90.563 201.441 90.885 200.858C91.207 200.275 91.368 199.311 91.368 197.967C91.368 196.595 91.2047 195.61 90.878 195.013C90.5514 194.416 90.0614 194.117 89.408 194.117C88.7547 194.117 88.26 194.418 87.924 195.02C87.5927 195.622 87.427 196.604 87.427 197.967C87.427 199.306 87.5927 200.27 87.924 200.858C88.26 201.441 88.757 201.733 89.415 201.733Z" fill="black" style="fill:black;fill-opacity:1;"/>
<path d="M404.966 155V147.762H406.632V148.798C406.744 148.611 406.896 148.432 407.087 148.259C407.283 148.086 407.523 147.946 407.808 147.839C408.093 147.732 408.426 147.678 408.809 147.678C409.257 147.678 409.672 147.767 410.055 147.944C410.442 148.121 410.753 148.399 410.986 148.777C411.224 149.155 411.343 149.643 411.343 150.24V155H409.635V150.443C409.635 149.967 409.504 149.615 409.243 149.386C408.982 149.153 408.653 149.036 408.256 149.036C407.985 149.036 407.729 149.083 407.486 149.176C407.243 149.265 407.045 149.402 406.891 149.589C406.742 149.771 406.667 150 406.667 150.275V155H404.966ZM415.221 155.14C414.759 155.14 414.344 155.056 413.975 154.888C413.611 154.715 413.324 154.47 413.114 154.153C412.909 153.831 412.806 153.441 412.806 152.984C412.806 152.186 413.093 151.584 413.667 151.178C414.246 150.772 415.165 150.56 416.425 150.541L417.51 150.513V150.023C417.51 149.64 417.396 149.342 417.167 149.127C416.943 148.908 416.593 148.8 416.117 148.805C415.762 148.81 415.44 148.894 415.151 149.057C414.862 149.216 414.67 149.484 414.577 149.862H413.128C413.156 149.367 413.298 148.954 413.555 148.623C413.816 148.287 414.173 148.037 414.626 147.874C415.079 147.706 415.601 147.622 416.194 147.622C416.885 147.622 417.447 147.713 417.881 147.895C418.315 148.077 418.635 148.341 418.84 148.686C419.045 149.027 419.148 149.44 419.148 149.925V155H417.713L417.573 153.698C417.316 154.244 416.987 154.622 416.586 154.832C416.189 155.037 415.734 155.14 415.221 155.14ZM415.774 153.985C415.984 153.985 416.192 153.948 416.397 153.873C416.602 153.794 416.787 153.689 416.95 153.558C417.118 153.423 417.251 153.273 417.349 153.11C417.452 152.947 417.505 152.776 417.51 152.599V151.458L416.621 151.472C416.182 151.477 415.797 151.523 415.466 151.612C415.139 151.701 414.885 151.843 414.703 152.039C414.521 152.23 414.43 152.487 414.43 152.809C414.43 153.178 414.558 153.467 414.815 153.677C415.072 153.882 415.391 153.985 415.774 153.985ZM420.962 155V147.762H422.621V148.798C422.831 148.481 423.116 148.205 423.475 147.972C423.839 147.739 424.301 147.622 424.861 147.622C425.118 147.622 425.377 147.666 425.638 147.755C425.904 147.844 426.149 147.974 426.373 148.147C426.602 148.32 426.784 148.534 426.919 148.791C427.148 148.45 427.451 148.17 427.829 147.951C428.212 147.732 428.641 147.622 429.117 147.622C429.378 147.622 429.647 147.664 429.922 147.748C430.202 147.832 430.459 147.972 430.692 148.168C430.925 148.364 431.114 148.632 431.259 148.973C431.404 149.309 431.476 149.731 431.476 150.24V155H429.775V150.443C429.775 150.084 429.712 149.801 429.586 149.596C429.46 149.391 429.297 149.246 429.096 149.162C428.9 149.073 428.69 149.029 428.466 149.029C428.265 149.029 428.055 149.069 427.836 149.148C427.621 149.227 427.437 149.358 427.283 149.54C427.134 149.722 427.059 149.967 427.059 150.275V155H425.358V150.17C425.358 149.918 425.293 149.708 425.162 149.54C425.031 149.372 424.866 149.246 424.665 149.162C424.469 149.073 424.268 149.029 424.063 149.029C423.853 149.029 423.638 149.073 423.419 149.162C423.204 149.251 423.025 149.386 422.88 149.568C422.735 149.75 422.663 149.986 422.663 150.275V155H420.962ZM436.507 155.14C435.811 155.14 435.198 154.993 434.666 154.699C434.138 154.4 433.725 153.976 433.427 153.425C433.133 152.874 432.986 152.219 432.986 151.458C432.986 150.716 433.119 150.058 433.385 149.484C433.655 148.905 434.045 148.45 434.554 148.119C435.067 147.788 435.685 147.622 436.409 147.622C437.123 147.622 437.722 147.774 438.208 148.077C438.693 148.38 439.062 148.805 439.314 149.351C439.566 149.892 439.692 150.527 439.692 151.255V151.773H434.687C434.682 152.184 434.747 152.548 434.883 152.865C435.018 153.182 435.219 153.432 435.485 153.614C435.751 153.791 436.08 153.88 436.472 153.88C436.873 153.88 437.221 153.791 437.515 153.614C437.813 153.432 438.012 153.157 438.11 152.788H439.664C439.58 153.292 439.379 153.719 439.062 154.069C438.749 154.419 438.366 154.685 437.914 154.867C437.466 155.049 436.997 155.14 436.507 155.14ZM434.68 150.716H438.082C438.082 150.366 438.019 150.051 437.893 149.771C437.771 149.486 437.587 149.262 437.34 149.099C437.092 148.931 436.78 148.847 436.402 148.847C436.028 148.847 435.713 148.938 435.457 149.12C435.2 149.302 435.006 149.538 434.876 149.827C434.745 150.112 434.68 150.408 434.68 150.716ZM441.082 149.932V147.986H443.007V149.932H441.082ZM441.082 154.958V153.026H443.007V154.958H441.082ZM448.369 148.497L447.9 144.878H449.755L449.265 148.497H448.369ZM451.832 155V144.878H455.311C456.595 144.878 457.554 145.107 458.188 145.564C458.828 146.017 459.147 146.67 459.147 147.524C459.147 148.042 459.014 148.49 458.748 148.868C458.482 149.246 458.013 149.566 457.341 149.827C457.752 149.925 458.09 150.06 458.356 150.233C458.627 150.401 458.837 150.595 458.986 150.814C459.136 151.029 459.241 151.26 459.301 151.507C459.362 151.754 459.392 152.009 459.392 152.27C459.392 153.194 459.07 153.88 458.426 154.328C457.787 154.776 456.795 155 455.451 155H451.832ZM453.533 153.642H455.472C456.191 153.642 456.735 153.514 457.103 153.257C457.477 152.996 457.663 152.62 457.663 152.13C457.663 151.775 457.572 151.484 457.39 151.255C457.208 151.022 456.961 150.849 456.648 150.737C456.336 150.625 455.986 150.569 455.598 150.569H453.533V153.642ZM453.533 149.19H455.598C455.836 149.19 456.067 149.164 456.291 149.113C456.515 149.062 456.718 148.98 456.9 148.868C457.082 148.756 457.227 148.607 457.334 148.42C457.446 148.233 457.502 148.007 457.502 147.741C457.502 147.232 457.309 146.854 456.921 146.607C456.539 146.355 456.046 146.229 455.444 146.229H453.533V149.19ZM464.329 155.14C463.634 155.14 463.02 154.993 462.488 154.699C461.961 154.4 461.548 153.976 461.249 153.425C460.955 152.874 460.808 152.219 460.808 151.458C460.808 150.716 460.941 150.058 461.207 149.484C461.478 148.905 461.867 148.45 462.376 148.119C462.889 147.788 463.508 147.622 464.231 147.622C464.945 147.622 465.545 147.774 466.03 148.077C466.515 148.38 466.884 148.805 467.136 149.351C467.388 149.892 467.514 150.527 467.514 151.255V151.773H462.509C462.504 152.184 462.57 152.548 462.705 152.865C462.84 153.182 463.041 153.432 463.307 153.614C463.573 153.791 463.902 153.88 464.294 153.88C464.695 153.88 465.043 153.791 465.337 153.614C465.636 153.432 465.834 153.157 465.932 152.788H467.486C467.402 153.292 467.201 153.719 466.884 154.069C466.571 154.419 466.189 154.685 465.736 154.867C465.288 155.049 464.819 155.14 464.329 155.14ZM462.502 150.716H465.904C465.904 150.366 465.841 150.051 465.715 149.771C465.594 149.486 465.409 149.262 465.162 149.099C464.915 148.931 464.602 148.847 464.224 148.847C463.851 148.847 463.536 148.938 463.279 149.12C463.022 149.302 462.829 149.538 462.698 149.827C462.567 150.112 462.502 150.408 462.502 150.716ZM469.142 155V147.762H470.773V149.33C470.889 148.971 471.055 148.665 471.27 148.413C471.489 148.156 471.746 147.96 472.04 147.825C472.334 147.69 472.653 147.622 472.999 147.622C473.083 147.622 473.164 147.627 473.244 147.636C473.323 147.645 473.381 147.662 473.419 147.685V149.316C473.367 149.293 473.3 149.276 473.216 149.267C473.136 149.258 473.066 149.253 473.006 149.253C472.656 149.225 472.345 149.239 472.075 149.295C471.809 149.351 471.582 149.447 471.396 149.582C471.214 149.713 471.076 149.881 470.983 150.086C470.889 150.287 470.843 150.522 470.843 150.793V155H469.142ZM474.775 155V147.762H476.441V148.798C476.553 148.611 476.704 148.432 476.896 148.259C477.092 148.086 477.332 147.946 477.617 147.839C477.901 147.732 478.235 147.678 478.618 147.678C479.066 147.678 479.481 147.767 479.864 147.944C480.251 148.121 480.561 148.399 480.795 148.777C481.033 149.155 481.152 149.643 481.152 150.24V155H479.444V150.443C479.444 149.967 479.313 149.615 479.052 149.386C478.79 149.153 478.461 149.036 478.065 149.036C477.794 149.036 477.537 149.083 477.295 149.176C477.052 149.265 476.854 149.402 476.7 149.589C476.55 149.771 476.476 150 476.476 150.275V155H474.775ZM485.03 155.14C484.568 155.14 484.152 155.056 483.784 154.888C483.42 154.715 483.133 154.47 482.923 154.153C482.717 153.831 482.615 153.441 482.615 152.984C482.615 152.186 482.902 151.584 483.476 151.178C484.054 150.772 484.974 150.56 486.234 150.541L487.319 150.513V150.023C487.319 149.64 487.204 149.342 486.976 149.127C486.752 148.908 486.402 148.8 485.926 148.805C485.571 148.81 485.249 148.894 484.96 149.057C484.67 149.216 484.479 149.484 484.386 149.862H482.937C482.965 149.367 483.107 148.954 483.364 148.623C483.625 148.287 483.982 148.037 484.435 147.874C484.887 147.706 485.41 147.622 486.003 147.622C486.693 147.622 487.256 147.713 487.69 147.895C488.124 148.077 488.443 148.341 488.649 148.686C488.854 149.027 488.957 149.44 488.957 149.925V155H487.522L487.382 153.698C487.125 154.244 486.796 154.622 486.395 154.832C485.998 155.037 485.543 155.14 485.03 155.14ZM485.583 153.985C485.793 153.985 486 153.948 486.206 153.873C486.411 153.794 486.595 153.689 486.759 153.558C486.927 153.423 487.06 153.273 487.158 153.11C487.26 152.947 487.314 152.776 487.319 152.599V151.458L486.43 151.472C485.991 151.477 485.606 151.523 485.275 151.612C484.948 151.701 484.694 151.843 484.512 152.039C484.33 152.23 484.239 152.487 484.239 152.809C484.239 153.178 484.367 153.467 484.624 153.677C484.88 153.882 485.2 153.985 485.583 153.985ZM490.771 155V147.762H492.402V149.33C492.518 148.971 492.684 148.665 492.899 148.413C493.118 148.156 493.375 147.96 493.669 147.825C493.963 147.69 494.282 147.622 494.628 147.622C494.712 147.622 494.793 147.627 494.873 147.636C494.952 147.645 495.01 147.662 495.048 147.685V149.316C494.996 149.293 494.929 149.276 494.845 149.267C494.765 149.258 494.695 149.253 494.635 149.253C494.285 149.225 493.974 149.239 493.704 149.295C493.438 149.351 493.211 149.447 493.025 149.582C492.843 149.713 492.705 149.881 492.612 150.086C492.518 150.287 492.472 150.522 492.472 150.793V155H490.771ZM499.037 155.14C498.08 155.14 497.329 154.811 496.783 154.153C496.237 153.495 495.964 152.559 495.964 151.346C495.964 150.59 496.073 149.934 496.293 149.379C496.517 148.819 496.846 148.387 497.28 148.084C497.714 147.776 498.248 147.622 498.883 147.622C499.181 147.622 499.452 147.659 499.695 147.734C499.942 147.804 500.161 147.897 500.353 148.014C500.544 148.131 500.705 148.259 500.836 148.399C500.971 148.539 501.076 148.679 501.151 148.819V144.598H502.866V155H501.606L501.417 153.516C501.356 153.689 501.27 153.871 501.158 154.062C501.05 154.249 500.903 154.424 500.717 154.587C500.535 154.75 500.306 154.883 500.031 154.986C499.755 155.089 499.424 155.14 499.037 155.14ZM499.387 153.887C499.998 153.887 500.444 153.689 500.724 153.292C501.008 152.891 501.151 152.228 501.151 151.304C501.146 150.777 501.081 150.333 500.955 149.974C500.833 149.615 500.647 149.344 500.395 149.162C500.143 148.98 499.814 148.889 499.408 148.889C498.894 148.889 498.472 149.078 498.141 149.456C497.814 149.834 497.651 150.45 497.651 151.304C497.651 152.153 497.802 152.797 498.106 153.236C498.409 153.67 498.836 153.887 499.387 153.887ZM505.053 148.497L504.584 144.878H506.439L505.949 148.497H505.053ZM407.059 179.14C406.597 179.14 406.182 179.056 405.813 178.888C405.449 178.715 405.162 178.47 404.952 178.153C404.747 177.831 404.644 177.441 404.644 176.984C404.644 176.186 404.931 175.584 405.505 175.178C406.084 174.772 407.003 174.56 408.263 174.541L409.348 174.513V174.023C409.348 173.64 409.234 173.342 409.005 173.127C408.781 172.908 408.431 172.8 407.955 172.805C407.6 172.81 407.278 172.894 406.989 173.057C406.7 173.216 406.508 173.484 406.415 173.862H404.966C404.994 173.367 405.136 172.954 405.393 172.623C405.654 172.287 406.011 172.037 406.464 171.874C406.917 171.706 407.439 171.622 408.032 171.622C408.723 171.622 409.285 171.713 409.719 171.895C410.153 172.077 410.473 172.341 410.678 172.686C410.883 173.027 410.986 173.44 410.986 173.925V179H409.551L409.411 177.698C409.154 178.244 408.825 178.622 408.424 178.832C408.027 179.037 407.572 179.14 407.059 179.14ZM407.612 177.985C407.822 177.985 408.03 177.948 408.235 177.873C408.44 177.794 408.625 177.689 408.788 177.558C408.956 177.423 409.089 177.273 409.187 177.11C409.29 176.947 409.343 176.776 409.348 176.599V175.458L408.459 175.472C408.02 175.477 407.635 175.523 407.304 175.612C406.977 175.701 406.723 175.843 406.541 176.039C406.359 176.23 406.268 176.487 406.268 176.809C406.268 177.178 406.396 177.467 406.653 177.677C406.91 177.882 407.229 177.985 407.612 177.985ZM416.02 181.394C414.802 181.394 413.866 181.231 413.213 180.904C412.56 180.577 412.233 180.129 412.233 179.56C412.233 179.303 412.296 179.089 412.422 178.916C412.548 178.743 412.697 178.601 412.87 178.489C413.043 178.377 413.201 178.291 413.346 178.23C413.491 178.169 413.584 178.125 413.626 178.097C413.547 178.05 413.442 177.99 413.311 177.915C413.18 177.84 413.061 177.738 412.954 177.607C412.851 177.476 412.8 177.306 412.8 177.096C412.8 176.853 412.914 176.629 413.143 176.424C413.376 176.219 413.724 176.072 414.186 175.983C413.733 175.764 413.386 175.467 413.143 175.094C412.9 174.721 412.779 174.333 412.779 173.932C412.779 173.456 412.917 173.048 413.192 172.707C413.472 172.366 413.859 172.105 414.354 171.923C414.849 171.741 415.425 171.65 416.083 171.65C416.564 171.65 416.963 171.704 417.28 171.811C417.602 171.918 417.901 172.063 418.176 172.245C418.269 172.208 418.4 172.156 418.568 172.091C418.736 172.021 418.92 171.946 419.121 171.867C419.322 171.783 419.515 171.704 419.702 171.629C419.889 171.55 420.045 171.484 420.171 171.433L420.164 172.84L418.911 173.064C418.972 173.199 419.018 173.346 419.051 173.505C419.088 173.664 419.107 173.804 419.107 173.925C419.107 174.345 418.988 174.735 418.75 175.094C418.517 175.449 418.164 175.733 417.693 175.948C417.226 176.163 416.643 176.27 415.943 176.27C415.873 176.27 415.777 176.268 415.656 176.263C415.535 176.258 415.437 176.254 415.362 176.249C414.984 176.263 414.725 176.307 414.585 176.382C414.445 176.457 414.375 176.538 414.375 176.627C414.375 176.753 414.48 176.837 414.69 176.879C414.9 176.921 415.236 176.958 415.698 176.991C415.861 177 416.076 177.012 416.342 177.026C416.608 177.04 416.904 177.059 417.231 177.082C418.057 177.133 418.682 177.341 419.107 177.705C419.532 178.064 419.744 178.531 419.744 179.105C419.744 179.772 419.436 180.321 418.82 180.75C418.204 181.179 417.271 181.394 416.02 181.394ZM416.307 180.393C416.918 180.393 417.371 180.309 417.665 180.141C417.959 179.973 418.106 179.726 418.106 179.399C418.106 179.147 418.006 178.942 417.805 178.783C417.604 178.624 417.306 178.531 416.909 178.503L415.082 178.391C414.881 178.377 414.69 178.414 414.508 178.503C414.331 178.587 414.186 178.706 414.074 178.86C413.962 179.009 413.906 179.175 413.906 179.357C413.906 179.698 414.1 179.954 414.487 180.127C414.879 180.304 415.486 180.393 416.307 180.393ZM415.999 175.269C416.442 175.269 416.802 175.157 417.077 174.933C417.352 174.704 417.49 174.382 417.49 173.967C417.49 173.538 417.352 173.204 417.077 172.966C416.802 172.723 416.442 172.602 415.999 172.602C415.546 172.602 415.18 172.723 414.9 172.966C414.625 173.209 414.487 173.542 414.487 173.967C414.487 174.368 414.62 174.686 414.886 174.919C415.152 175.152 415.523 175.269 415.999 175.269ZM424.558 179.14C423.862 179.14 423.249 178.993 422.717 178.699C422.189 178.4 421.776 177.976 421.478 177.425C421.184 176.874 421.037 176.219 421.037 175.458C421.037 174.716 421.17 174.058 421.436 173.484C421.706 172.905 422.096 172.45 422.605 172.119C423.118 171.788 423.736 171.622 424.46 171.622C425.174 171.622 425.773 171.774 426.259 172.077C426.744 172.38 427.113 172.805 427.365 173.351C427.617 173.892 427.743 174.527 427.743 175.255V175.773H422.738C422.733 176.184 422.798 176.548 422.934 176.865C423.069 177.182 423.27 177.432 423.536 177.614C423.802 177.791 424.131 177.88 424.523 177.88C424.924 177.88 425.272 177.791 425.566 177.614C425.864 177.432 426.063 177.157 426.161 176.788H427.715C427.631 177.292 427.43 177.719 427.113 178.069C426.8 178.419 426.417 178.685 425.965 178.867C425.517 179.049 425.048 179.14 424.558 179.14ZM422.731 174.716H426.133C426.133 174.366 426.07 174.051 425.944 173.771C425.822 173.486 425.638 173.262 425.391 173.099C425.143 172.931 424.831 172.847 424.453 172.847C424.079 172.847 423.764 172.938 423.508 173.12C423.251 173.302 423.057 173.538 422.927 173.827C422.796 174.112 422.731 174.408 422.731 174.716ZM429.132 173.932V171.986H431.057V173.932H429.132ZM429.132 178.958V177.026H431.057V178.958H429.132ZM439.465 179.154C438.704 179.149 438.049 179.019 437.498 178.762C436.947 178.505 436.518 178.139 436.21 177.663C435.907 177.187 435.748 176.622 435.734 175.969H437.393C437.491 176.571 437.729 177.019 438.107 177.313C438.49 177.602 438.954 177.747 439.5 177.747C439.953 177.747 440.345 177.679 440.676 177.544C441.007 177.404 441.262 177.213 441.439 176.97C441.621 176.727 441.712 176.445 441.712 176.123C441.712 175.782 441.614 175.491 441.418 175.248C441.227 175.005 440.963 174.819 440.627 174.688C440.291 174.557 439.913 174.487 439.493 174.478L438.555 174.45V173.064L439.423 173.029C439.824 173.015 440.177 172.938 440.48 172.798C440.788 172.658 441.028 172.474 441.201 172.245C441.374 172.016 441.46 171.76 441.46 171.475C441.46 171.214 441.378 170.978 441.215 170.768C441.056 170.558 440.83 170.395 440.536 170.278C440.242 170.157 439.894 170.096 439.493 170.096C439.152 170.096 438.833 170.157 438.534 170.278C438.235 170.399 437.988 170.595 437.792 170.866C437.601 171.132 437.496 171.482 437.477 171.916H435.825C435.825 171.225 435.991 170.644 436.322 170.173C436.653 169.697 437.097 169.34 437.652 169.102C438.212 168.859 438.833 168.738 439.514 168.738C440.247 168.738 440.895 168.838 441.46 169.039C442.029 169.235 442.475 169.531 442.797 169.928C443.124 170.325 443.287 170.817 443.287 171.405C443.287 171.904 443.135 172.35 442.832 172.742C442.529 173.134 442.05 173.442 441.397 173.666C441.803 173.778 442.167 173.946 442.489 174.17C442.811 174.389 443.065 174.665 443.252 174.996C443.443 175.327 443.539 175.717 443.539 176.165C443.539 176.646 443.434 177.073 443.224 177.446C443.019 177.819 442.729 178.134 442.356 178.391C441.987 178.643 441.556 178.834 441.061 178.965C440.566 179.091 440.034 179.154 439.465 179.154ZM448.775 179.154C447.949 179.154 447.235 178.949 446.633 178.538C446.031 178.127 445.567 177.546 445.24 176.795C444.918 176.039 444.757 175.145 444.757 174.114C444.757 173.017 444.918 172.068 445.24 171.265C445.562 170.458 446.029 169.835 446.64 169.396C447.256 168.957 448.001 168.738 448.873 168.738C449.471 168.738 450.024 168.85 450.532 169.074C451.041 169.293 451.459 169.611 451.785 170.026C452.112 170.441 452.303 170.943 452.359 171.531H450.784C450.654 171.078 450.43 170.728 450.112 170.481C449.795 170.234 449.394 170.11 448.908 170.11C448.372 170.11 447.924 170.262 447.564 170.565C447.205 170.868 446.946 171.305 446.787 171.874C446.633 172.439 446.584 173.115 446.64 173.904C446.785 173.629 446.981 173.391 447.228 173.19C447.476 172.985 447.758 172.826 448.075 172.714C448.393 172.602 448.729 172.546 449.083 172.546C449.76 172.546 450.353 172.674 450.861 172.931C451.37 173.188 451.767 173.552 452.051 174.023C452.336 174.494 452.478 175.052 452.478 175.696C452.478 176.363 452.324 176.958 452.016 177.481C451.708 177.999 451.277 178.407 450.721 178.706C450.166 179.005 449.517 179.154 448.775 179.154ZM448.733 177.817C449.097 177.817 449.424 177.731 449.713 177.558C450.007 177.385 450.238 177.145 450.406 176.837C450.579 176.529 450.665 176.174 450.665 175.773C450.665 175.362 450.586 175.015 450.427 174.73C450.269 174.445 450.042 174.228 449.748 174.079C449.459 173.93 449.118 173.855 448.726 173.855C448.404 173.855 448.092 173.93 447.788 174.079C447.49 174.228 447.245 174.422 447.053 174.66C446.867 174.898 446.773 175.152 446.773 175.423C446.769 175.904 446.848 176.324 447.011 176.683C447.175 177.042 447.403 177.322 447.697 177.523C447.996 177.719 448.341 177.817 448.733 177.817Z" fill="black" style="fill:black;fill-opacity:1;"/>
<path d="M793.966 155V147.762H795.632V148.798C795.744 148.611 795.896 148.432 796.087 148.259C796.283 148.086 796.523 147.946 796.808 147.839C797.093 147.732 797.426 147.678 797.809 147.678C798.257 147.678 798.672 147.767 799.055 147.944C799.442 148.121 799.753 148.399 799.986 148.777C800.224 149.155 800.343 149.643 800.343 150.24V155H798.635V150.443C798.635 149.967 798.504 149.615 798.243 149.386C797.982 149.153 797.653 149.036 797.256 149.036C796.985 149.036 796.729 149.083 796.486 149.176C796.243 149.265 796.045 149.402 795.891 149.589C795.742 149.771 795.667 150 795.667 150.275V155H793.966ZM804.221 155.14C803.759 155.14 803.344 155.056 802.975 154.888C802.611 154.715 802.324 154.47 802.114 154.153C801.909 153.831 801.806 153.441 801.806 152.984C801.806 152.186 802.093 151.584 802.667 151.178C803.246 150.772 804.165 150.56 805.425 150.541L806.51 150.513V150.023C806.51 149.64 806.396 149.342 806.167 149.127C805.943 148.908 805.593 148.8 805.117 148.805C804.762 148.81 804.44 148.894 804.151 149.057C803.862 149.216 803.67 149.484 803.577 149.862H802.128C802.156 149.367 802.298 148.954 802.555 148.623C802.816 148.287 803.173 148.037 803.626 147.874C804.079 147.706 804.601 147.622 805.194 147.622C805.885 147.622 806.447 147.713 806.881 147.895C807.315 148.077 807.635 148.341 807.84 148.686C808.045 149.027 808.148 149.44 808.148 149.925V155H806.713L806.573 153.698C806.316 154.244 805.987 154.622 805.586 154.832C805.189 155.037 804.734 155.14 804.221 155.14ZM804.774 153.985C804.984 153.985 805.192 153.948 805.397 153.873C805.602 153.794 805.787 153.689 805.95 153.558C806.118 153.423 806.251 153.273 806.349 153.11C806.452 152.947 806.505 152.776 806.51 152.599V151.458L805.621 151.472C805.182 151.477 804.797 151.523 804.466 151.612C804.139 151.701 803.885 151.843 803.703 152.039C803.521 152.23 803.43 152.487 803.43 152.809C803.43 153.178 803.558 153.467 803.815 153.677C804.072 153.882 804.391 153.985 804.774 153.985ZM809.962 155V147.762H811.621V148.798C811.831 148.481 812.116 148.205 812.475 147.972C812.839 147.739 813.301 147.622 813.861 147.622C814.118 147.622 814.377 147.666 814.638 147.755C814.904 147.844 815.149 147.974 815.373 148.147C815.602 148.32 815.784 148.534 815.919 148.791C816.148 148.45 816.451 148.17 816.829 147.951C817.212 147.732 817.641 147.622 818.117 147.622C818.378 147.622 818.647 147.664 818.922 147.748C819.202 147.832 819.459 147.972 819.692 148.168C819.925 148.364 820.114 148.632 820.259 148.973C820.404 149.309 820.476 149.731 820.476 150.24V155H818.775V150.443C818.775 150.084 818.712 149.801 818.586 149.596C818.46 149.391 818.297 149.246 818.096 149.162C817.9 149.073 817.69 149.029 817.466 149.029C817.265 149.029 817.055 149.069 816.836 149.148C816.621 149.227 816.437 149.358 816.283 149.54C816.134 149.722 816.059 149.967 816.059 150.275V155H814.358V150.17C814.358 149.918 814.293 149.708 814.162 149.54C814.031 149.372 813.866 149.246 813.665 149.162C813.469 149.073 813.268 149.029 813.063 149.029C812.853 149.029 812.638 149.073 812.419 149.162C812.204 149.251 812.025 149.386 811.88 149.568C811.735 149.75 811.663 149.986 811.663 150.275V155H809.962ZM825.507 155.14C824.811 155.14 824.198 154.993 823.666 154.699C823.138 154.4 822.725 153.976 822.427 153.425C822.133 152.874 821.986 152.219 821.986 151.458C821.986 150.716 822.119 150.058 822.385 149.484C822.655 148.905 823.045 148.45 823.554 148.119C824.067 147.788 824.685 147.622 825.409 147.622C826.123 147.622 826.722 147.774 827.208 148.077C827.693 148.38 828.062 148.805 828.314 149.351C828.566 149.892 828.692 150.527 828.692 151.255V151.773H823.687C823.682 152.184 823.747 152.548 823.883 152.865C824.018 153.182 824.219 153.432 824.485 153.614C824.751 153.791 825.08 153.88 825.472 153.88C825.873 153.88 826.221 153.791 826.515 153.614C826.813 153.432 827.012 153.157 827.11 152.788H828.664C828.58 153.292 828.379 153.719 828.062 154.069C827.749 154.419 827.366 154.685 826.914 154.867C826.466 155.049 825.997 155.14 825.507 155.14ZM823.68 150.716H827.082C827.082 150.366 827.019 150.051 826.893 149.771C826.771 149.486 826.587 149.262 826.34 149.099C826.092 148.931 825.78 148.847 825.402 148.847C825.028 148.847 824.713 148.938 824.457 149.12C824.2 149.302 824.006 149.538 823.876 149.827C823.745 150.112 823.68 150.408 823.68 150.716ZM830.082 149.932V147.986H832.007V149.932H830.082ZM830.082 154.958V153.026H832.007V154.958H830.082ZM837.369 148.497L836.9 144.878H838.755L838.265 148.497H837.369ZM844.773 155.14C843.845 155.14 843.047 154.928 842.379 154.503C841.717 154.074 841.206 153.467 840.846 152.683C840.492 151.894 840.314 150.959 840.314 149.876C840.314 148.798 840.492 147.876 840.846 147.111C841.201 146.346 841.71 145.76 842.372 145.354C843.04 144.943 843.84 144.738 844.773 144.738C845.515 144.738 846.173 144.89 846.747 145.193C847.321 145.492 847.783 145.898 848.133 146.411C848.488 146.924 848.698 147.496 848.763 148.126H846.964C846.894 147.753 846.764 147.419 846.572 147.125C846.386 146.831 846.138 146.598 845.83 146.425C845.522 146.252 845.154 146.166 844.724 146.166C844.188 146.166 843.73 146.294 843.352 146.551C842.979 146.803 842.692 147.204 842.491 147.755C842.295 148.306 842.197 149.02 842.197 149.897C842.197 151.227 842.417 152.195 842.855 152.802C843.294 153.409 843.917 153.712 844.724 153.712C845.154 153.712 845.522 153.619 845.83 153.432C846.138 153.241 846.386 152.989 846.572 152.676C846.764 152.359 846.894 152.013 846.964 151.64H848.763C848.707 152.097 848.591 152.536 848.413 152.956C848.241 153.376 847.996 153.752 847.678 154.083C847.361 154.41 846.962 154.669 846.481 154.86C846.005 155.047 845.436 155.14 844.773 155.14ZM850.431 155V144.598H852.111V148.812C852.228 148.63 852.382 148.455 852.573 148.287C852.764 148.114 852.998 147.974 853.273 147.867C853.553 147.755 853.887 147.699 854.274 147.699C854.736 147.699 855.158 147.788 855.541 147.965C855.924 148.142 856.229 148.399 856.458 148.735C856.687 149.066 856.801 149.463 856.801 149.925V155H855.093V150.212C855.093 149.839 854.96 149.549 854.694 149.344C854.433 149.139 854.101 149.036 853.7 149.036C853.434 149.036 853.18 149.083 852.937 149.176C852.694 149.269 852.498 149.409 852.349 149.596C852.204 149.778 852.132 150.007 852.132 150.282V155H850.431ZM860.672 155.14C860.21 155.14 859.795 155.056 859.426 154.888C859.062 154.715 858.775 154.47 858.565 154.153C858.36 153.831 858.257 153.441 858.257 152.984C858.257 152.186 858.544 151.584 859.118 151.178C859.697 150.772 860.616 150.56 861.876 150.541L862.961 150.513V150.023C862.961 149.64 862.847 149.342 862.618 149.127C862.394 148.908 862.044 148.8 861.568 148.805C861.214 148.81 860.892 148.894 860.602 149.057C860.313 149.216 860.122 149.484 860.028 149.862H858.579C858.607 149.367 858.75 148.954 859.006 148.623C859.268 148.287 859.625 148.037 860.077 147.874C860.53 147.706 861.053 147.622 861.645 147.622C862.336 147.622 862.898 147.713 863.332 147.895C863.766 148.077 864.086 148.341 864.291 148.686C864.497 149.027 864.599 149.44 864.599 149.925V155H863.164L863.024 153.698C862.768 154.244 862.439 154.622 862.037 154.832C861.641 155.037 861.186 155.14 860.672 155.14ZM861.225 153.985C861.435 153.985 861.643 153.948 861.848 153.873C862.054 153.794 862.238 153.689 862.401 153.558C862.569 153.423 862.702 153.273 862.8 153.11C862.903 152.947 862.957 152.776 862.961 152.599V151.458L862.072 151.472C861.634 151.477 861.249 151.523 860.917 151.612C860.591 151.701 860.336 151.843 860.154 152.039C859.972 152.23 859.881 152.487 859.881 152.809C859.881 153.178 860.01 153.467 860.266 153.677C860.523 153.882 860.843 153.985 861.225 153.985ZM866.413 155V147.762H868.044V149.33C868.161 148.971 868.327 148.665 868.541 148.413C868.761 148.156 869.017 147.96 869.311 147.825C869.605 147.69 869.925 147.622 870.27 147.622C870.354 147.622 870.436 147.627 870.515 147.636C870.595 147.645 870.653 147.662 870.69 147.685V149.316C870.639 149.293 870.571 149.276 870.487 149.267C870.408 149.258 870.338 149.253 870.277 149.253C869.927 149.225 869.617 149.239 869.346 149.295C869.08 149.351 868.854 149.447 868.667 149.582C868.485 149.713 868.348 149.881 868.254 150.086C868.161 150.287 868.114 150.522 868.114 150.793V155H866.413ZM874.132 155.105C873.665 155.105 873.292 155.047 873.012 154.93C872.732 154.813 872.522 154.657 872.382 154.461C872.242 154.265 872.151 154.046 872.109 153.803C872.067 153.556 872.046 153.304 872.046 153.047V144.598H873.712V152.851C873.712 153.164 873.775 153.406 873.901 153.579C874.032 153.752 874.242 153.852 874.531 153.88L874.895 153.894V154.965C874.769 155.002 874.641 155.035 874.51 155.063C874.379 155.091 874.253 155.105 874.132 155.105ZM879.145 155.14C878.454 155.14 877.852 154.993 877.339 154.699C876.825 154.4 876.426 153.973 876.142 153.418C875.862 152.863 875.722 152.195 875.722 151.416C875.722 150.66 875.859 149.997 876.135 149.428C876.41 148.859 876.802 148.415 877.311 148.098C877.824 147.781 878.438 147.622 879.152 147.622C879.842 147.622 880.442 147.774 880.951 148.077C881.459 148.38 881.851 148.814 882.127 149.379C882.407 149.944 882.547 150.623 882.547 151.416C882.547 152.149 882.414 152.795 882.148 153.355C881.886 153.91 881.501 154.347 880.993 154.664C880.489 154.981 879.873 155.14 879.145 155.14ZM879.152 153.845C879.544 153.845 879.866 153.738 880.118 153.523C880.374 153.308 880.566 153.014 880.692 152.641C880.818 152.268 880.881 151.843 880.881 151.367C880.881 150.924 880.825 150.515 880.713 150.142C880.601 149.769 880.416 149.47 880.16 149.246C879.908 149.017 879.572 148.903 879.152 148.903C878.755 148.903 878.426 149.008 878.165 149.218C877.908 149.423 877.717 149.713 877.591 150.086C877.465 150.455 877.402 150.882 877.402 151.367C877.402 151.806 877.458 152.214 877.57 152.592C877.682 152.965 877.866 153.269 878.123 153.502C878.379 153.731 878.722 153.845 879.152 153.845ZM886.736 155.056C886.162 155.056 885.717 154.981 885.399 154.832C885.087 154.678 884.87 154.461 884.748 154.181C884.627 153.901 884.566 153.567 884.566 153.18V148.966H883.39V147.762H884.615L885.042 145.613H886.267V147.755H887.884V148.966H886.267L886.274 153.117C886.274 153.332 886.298 153.49 886.344 153.593C886.396 153.691 886.475 153.756 886.582 153.789C886.694 153.817 886.841 153.831 887.023 153.831H887.919V154.909C887.821 154.946 887.677 154.979 887.485 155.007C887.299 155.04 887.049 155.056 886.736 155.056ZM891.809 155.056C891.235 155.056 890.789 154.981 890.472 154.832C890.159 154.678 889.942 154.461 889.821 154.181C889.699 153.901 889.639 153.567 889.639 153.18V148.966H888.463V147.762H889.688L890.115 145.613H891.34V147.755H892.957V148.966H891.34L891.347 153.117C891.347 153.332 891.37 153.49 891.417 153.593C891.468 153.691 891.547 153.756 891.655 153.789C891.767 153.817 891.914 153.831 892.096 153.831H892.992V154.909C892.894 154.946 892.749 154.979 892.558 155.007C892.371 155.04 892.121 155.056 891.809 155.056ZM897.558 155.14C896.862 155.14 896.249 154.993 895.717 154.699C895.189 154.4 894.776 153.976 894.478 153.425C894.184 152.874 894.037 152.219 894.037 151.458C894.037 150.716 894.17 150.058 894.436 149.484C894.706 148.905 895.096 148.45 895.605 148.119C896.118 147.788 896.736 147.622 897.46 147.622C898.174 147.622 898.773 147.774 899.259 148.077C899.744 148.38 900.113 148.805 900.365 149.351C900.617 149.892 900.743 150.527 900.743 151.255V151.773H895.738C895.733 152.184 895.798 152.548 895.934 152.865C896.069 153.182 896.27 153.432 896.536 153.614C896.802 153.791 897.131 153.88 897.523 153.88C897.924 153.88 898.272 153.791 898.566 153.614C898.864 153.432 899.063 153.157 899.161 152.788H900.715C900.631 153.292 900.43 153.719 900.113 154.069C899.8 154.419 899.417 154.685 898.965 154.867C898.517 155.049 898.048 155.14 897.558 155.14ZM895.731 150.716H899.133C899.133 150.366 899.07 150.051 898.944 149.771C898.822 149.486 898.638 149.262 898.391 149.099C898.143 148.931 897.831 148.847 897.453 148.847C897.079 148.847 896.764 148.938 896.508 149.12C896.251 149.302 896.057 149.538 895.927 149.827C895.796 150.112 895.731 150.408 895.731 150.716ZM901.846 148.497L901.377 144.878H903.232L902.742 148.497H901.846ZM796.059 179.14C795.597 179.14 795.182 179.056 794.813 178.888C794.449 178.715 794.162 178.47 793.952 178.153C793.747 177.831 793.644 177.441 793.644 176.984C793.644 176.186 793.931 175.584 794.505 175.178C795.084 174.772 796.003 174.56 797.263 174.541L798.348 174.513V174.023C798.348 173.64 798.234 173.342 798.005 173.127C797.781 172.908 797.431 172.8 796.955 172.805C796.6 172.81 796.278 172.894 795.989 173.057C795.7 173.216 795.508 173.484 795.415 173.862H793.966C793.994 173.367 794.136 172.954 794.393 172.623C794.654 172.287 795.011 172.037 795.464 171.874C795.917 171.706 796.439 171.622 797.032 171.622C797.723 171.622 798.285 171.713 798.719 171.895C799.153 172.077 799.473 172.341 799.678 172.686C799.883 173.027 799.986 173.44 799.986 173.925V179H798.551L798.411 177.698C798.154 178.244 797.825 178.622 797.424 178.832C797.027 179.037 796.572 179.14 796.059 179.14ZM796.612 177.985C796.822 177.985 797.03 177.948 797.235 177.873C797.44 177.794 797.625 177.689 797.788 177.558C797.956 177.423 798.089 177.273 798.187 177.11C798.29 176.947 798.343 176.776 798.348 176.599V175.458L797.459 175.472C797.02 175.477 796.635 175.523 796.304 175.612C795.977 175.701 795.723 175.843 795.541 176.039C795.359 176.23 795.268 176.487 795.268 176.809C795.268 177.178 795.396 177.467 795.653 177.677C795.91 177.882 796.229 177.985 796.612 177.985ZM805.02 181.394C803.802 181.394 802.866 181.231 802.213 180.904C801.56 180.577 801.233 180.129 801.233 179.56C801.233 179.303 801.296 179.089 801.422 178.916C801.548 178.743 801.697 178.601 801.87 178.489C802.043 178.377 802.201 178.291 802.346 178.23C802.491 178.169 802.584 178.125 802.626 178.097C802.547 178.05 802.442 177.99 802.311 177.915C802.18 177.84 802.061 177.738 801.954 177.607C801.851 177.476 801.8 177.306 801.8 177.096C801.8 176.853 801.914 176.629 802.143 176.424C802.376 176.219 802.724 176.072 803.186 175.983C802.733 175.764 802.386 175.467 802.143 175.094C801.9 174.721 801.779 174.333 801.779 173.932C801.779 173.456 801.917 173.048 802.192 172.707C802.472 172.366 802.859 172.105 803.354 171.923C803.849 171.741 804.425 171.65 805.083 171.65C805.564 171.65 805.963 171.704 806.28 171.811C806.602 171.918 806.901 172.063 807.176 172.245C807.269 172.208 807.4 172.156 807.568 172.091C807.736 172.021 807.92 171.946 808.121 171.867C808.322 171.783 808.515 171.704 808.702 171.629C808.889 171.55 809.045 171.484 809.171 171.433L809.164 172.84L807.911 173.064C807.972 173.199 808.018 173.346 808.051 173.505C808.088 173.664 808.107 173.804 808.107 173.925C808.107 174.345 807.988 174.735 807.75 175.094C807.517 175.449 807.164 175.733 806.693 175.948C806.226 176.163 805.643 176.27 804.943 176.27C804.873 176.27 804.777 176.268 804.656 176.263C804.535 176.258 804.437 176.254 804.362 176.249C803.984 176.263 803.725 176.307 803.585 176.382C803.445 176.457 803.375 176.538 803.375 176.627C803.375 176.753 803.48 176.837 803.69 176.879C803.9 176.921 804.236 176.958 804.698 176.991C804.861 177 805.076 177.012 805.342 177.026C805.608 177.04 805.904 177.059 806.231 177.082C807.057 177.133 807.682 177.341 808.107 177.705C808.532 178.064 808.744 178.531 808.744 179.105C808.744 179.772 808.436 180.321 807.82 180.75C807.204 181.179 806.271 181.394 805.02 181.394ZM805.307 180.393C805.918 180.393 806.371 180.309 806.665 180.141C806.959 179.973 807.106 179.726 807.106 179.399C807.106 179.147 807.006 178.942 806.805 178.783C806.604 178.624 806.306 178.531 805.909 178.503L804.082 178.391C803.881 178.377 803.69 178.414 803.508 178.503C803.331 178.587 803.186 178.706 803.074 178.86C802.962 179.009 802.906 179.175 802.906 179.357C802.906 179.698 803.1 179.954 803.487 180.127C803.879 180.304 804.486 180.393 805.307 180.393ZM804.999 175.269C805.442 175.269 805.802 175.157 806.077 174.933C806.352 174.704 806.49 174.382 806.49 173.967C806.49 173.538 806.352 173.204 806.077 172.966C805.802 172.723 805.442 172.602 804.999 172.602C804.546 172.602 804.18 172.723 803.9 172.966C803.625 173.209 803.487 173.542 803.487 173.967C803.487 174.368 803.62 174.686 803.886 174.919C804.152 175.152 804.523 175.269 804.999 175.269ZM813.558 179.14C812.862 179.14 812.249 178.993 811.717 178.699C811.189 178.4 810.776 177.976 810.478 177.425C810.184 176.874 810.037 176.219 810.037 175.458C810.037 174.716 810.17 174.058 810.436 173.484C810.706 172.905 811.096 172.45 811.605 172.119C812.118 171.788 812.736 171.622 813.46 171.622C814.174 171.622 814.773 171.774 815.259 172.077C815.744 172.38 816.113 172.805 816.365 173.351C816.617 173.892 816.743 174.527 816.743 175.255V175.773H811.738C811.733 176.184 811.798 176.548 811.934 176.865C812.069 177.182 812.27 177.432 812.536 177.614C812.802 177.791 813.131 177.88 813.523 177.88C813.924 177.88 814.272 177.791 814.566 177.614C814.864 177.432 815.063 177.157 815.161 176.788H816.715C816.631 177.292 816.43 177.719 816.113 178.069C815.8 178.419 815.417 178.685 814.965 178.867C814.517 179.049 814.048 179.14 813.558 179.14ZM811.731 174.716H815.133C815.133 174.366 815.07 174.051 814.944 173.771C814.822 173.486 814.638 173.262 814.391 173.099C814.143 172.931 813.831 172.847 813.453 172.847C813.079 172.847 812.764 172.938 812.508 173.12C812.251 173.302 812.057 173.538 811.927 173.827C811.796 174.112 811.731 174.408 811.731 174.716ZM818.132 173.932V171.986H820.057V173.932H818.132ZM818.132 178.958V177.026H820.057V178.958H818.132ZM828.465 179.154C827.704 179.149 827.049 179.019 826.498 178.762C825.947 178.505 825.518 178.139 825.21 177.663C824.907 177.187 824.748 176.622 824.734 175.969H826.393C826.491 176.571 826.729 177.019 827.107 177.313C827.49 177.602 827.954 177.747 828.5 177.747C828.953 177.747 829.345 177.679 829.676 177.544C830.007 177.404 830.262 177.213 830.439 176.97C830.621 176.727 830.712 176.445 830.712 176.123C830.712 175.782 830.614 175.491 830.418 175.248C830.227 175.005 829.963 174.819 829.627 174.688C829.291 174.557 828.913 174.487 828.493 174.478L827.555 174.45V173.064L828.423 173.029C828.824 173.015 829.177 172.938 829.48 172.798C829.788 172.658 830.028 172.474 830.201 172.245C830.374 172.016 830.46 171.76 830.46 171.475C830.46 171.214 830.378 170.978 830.215 170.768C830.056 170.558 829.83 170.395 829.536 170.278C829.242 170.157 828.894 170.096 828.493 170.096C828.152 170.096 827.833 170.157 827.534 170.278C827.235 170.399 826.988 170.595 826.792 170.866C826.601 171.132 826.496 171.482 826.477 171.916H824.825C824.825 171.225 824.991 170.644 825.322 170.173C825.653 169.697 826.097 169.34 826.652 169.102C827.212 168.859 827.833 168.738 828.514 168.738C829.247 168.738 829.895 168.838 830.46 169.039C831.029 169.235 831.475 169.531 831.797 169.928C832.124 170.325 832.287 170.817 832.287 171.405C832.287 171.904 832.135 172.35 831.832 172.742C831.529 173.134 831.05 173.442 830.397 173.666C830.803 173.778 831.167 173.946 831.489 174.17C831.811 174.389 832.065 174.665 832.252 174.996C832.443 175.327 832.539 175.717 832.539 176.165C832.539 176.646 832.434 177.073 832.224 177.446C832.019 177.819 831.729 178.134 831.356 178.391C830.987 178.643 830.556 178.834 830.061 178.965C829.566 179.091 829.034 179.154 828.465 179.154ZM834.008 179V178.09V177.621C834.008 177.103 834.103 176.657 834.295 176.284C834.486 175.906 834.74 175.577 835.058 175.297C835.375 175.017 835.723 174.77 836.101 174.555C836.483 174.336 836.861 174.13 837.235 173.939C837.613 173.743 837.96 173.542 838.278 173.337C838.595 173.127 838.849 172.894 839.041 172.637C839.237 172.38 839.335 172.075 839.335 171.72C839.335 171.267 839.174 170.899 838.852 170.614C838.534 170.325 838.103 170.18 837.557 170.18C836.978 170.18 836.5 170.346 836.122 170.677C835.748 171.008 835.527 171.475 835.457 172.077H833.805C833.814 171.461 833.961 170.901 834.246 170.397C834.53 169.893 834.953 169.492 835.513 169.193C836.073 168.89 836.77 168.738 837.606 168.738C838.329 168.738 838.952 168.864 839.475 169.116C840.002 169.363 840.408 169.711 840.693 170.159C840.982 170.602 841.127 171.12 841.127 171.713C841.127 172.231 841.031 172.674 840.84 173.043C840.653 173.412 840.403 173.731 840.091 174.002C839.783 174.268 839.442 174.504 839.069 174.709C838.7 174.914 838.329 175.108 837.956 175.29C837.587 175.467 837.246 175.654 836.934 175.85C836.626 176.041 836.376 176.261 836.185 176.508C835.998 176.755 835.905 177.052 835.905 177.397V177.544H841.148V179H834.008ZM796.052 203.105C795.585 203.105 795.212 203.047 794.932 202.93C794.652 202.813 794.442 202.657 794.302 202.461C794.162 202.265 794.071 202.046 794.029 201.803C793.987 201.556 793.966 201.304 793.966 201.047V192.598H795.632V200.851C795.632 201.164 795.695 201.406 795.821 201.579C795.952 201.752 796.162 201.852 796.451 201.88L796.815 201.894V202.965C796.689 203.002 796.561 203.035 796.43 203.063C796.299 203.091 796.173 203.105 796.052 203.105ZM801.226 203.14C800.53 203.14 799.917 202.993 799.385 202.699C798.857 202.4 798.444 201.976 798.146 201.425C797.852 200.874 797.705 200.219 797.705 199.458C797.705 198.716 797.838 198.058 798.104 197.484C798.374 196.905 798.764 196.45 799.273 196.119C799.786 195.788 800.404 195.622 801.128 195.622C801.842 195.622 802.441 195.774 802.927 196.077C803.412 196.38 803.781 196.805 804.033 197.351C804.285 197.892 804.411 198.527 804.411 199.255V199.773H799.406C799.401 200.184 799.466 200.548 799.602 200.865C799.737 201.182 799.938 201.432 800.204 201.614C800.47 201.791 800.799 201.88 801.191 201.88C801.592 201.88 801.94 201.791 802.234 201.614C802.532 201.432 802.731 201.157 802.829 200.788H804.383C804.299 201.292 804.098 201.719 803.781 202.069C803.468 202.419 803.085 202.685 802.633 202.867C802.185 203.049 801.716 203.14 801.226 203.14ZM799.399 198.716H802.801C802.801 198.366 802.738 198.051 802.612 197.771C802.49 197.486 802.306 197.262 802.059 197.099C801.811 196.931 801.499 196.847 801.121 196.847C800.747 196.847 800.432 196.938 800.176 197.12C799.919 197.302 799.725 197.538 799.595 197.827C799.464 198.112 799.399 198.408 799.399 198.716ZM806.038 203V195.762H807.704V196.798C807.816 196.611 807.968 196.432 808.159 196.259C808.355 196.086 808.596 195.946 808.88 195.839C809.165 195.732 809.499 195.678 809.881 195.678C810.329 195.678 810.745 195.767 811.127 195.944C811.515 196.121 811.825 196.399 812.058 196.777C812.296 197.155 812.415 197.643 812.415 198.24V203H810.707V198.443C810.707 197.967 810.577 197.615 810.315 197.386C810.054 197.153 809.725 197.036 809.328 197.036C809.058 197.036 808.801 197.083 808.558 197.176C808.316 197.265 808.117 197.402 807.963 197.589C807.814 197.771 807.739 198 807.739 198.275V203H806.038ZM817.461 205.394C816.243 205.394 815.308 205.231 814.654 204.904C814.001 204.577 813.674 204.129 813.674 203.56C813.674 203.303 813.737 203.089 813.863 202.916C813.989 202.743 814.139 202.601 814.311 202.489C814.484 202.377 814.643 202.291 814.787 202.23C814.932 202.169 815.025 202.125 815.067 202.097C814.988 202.05 814.883 201.99 814.752 201.915C814.622 201.84 814.503 201.738 814.395 201.607C814.293 201.476 814.241 201.306 814.241 201.096C814.241 200.853 814.356 200.629 814.584 200.424C814.818 200.219 815.165 200.072 815.627 199.983C815.175 199.764 814.827 199.467 814.584 199.094C814.342 198.721 814.22 198.333 814.22 197.932C814.22 197.456 814.358 197.048 814.633 196.707C814.913 196.366 815.301 196.105 815.795 195.923C816.29 195.741 816.866 195.65 817.524 195.65C818.005 195.65 818.404 195.704 818.721 195.811C819.043 195.918 819.342 196.063 819.617 196.245C819.711 196.208 819.841 196.156 820.009 196.091C820.177 196.021 820.362 195.946 820.562 195.867C820.763 195.783 820.957 195.704 821.143 195.629C821.33 195.55 821.486 195.484 821.612 195.433L821.605 196.84L820.352 197.064C820.413 197.199 820.46 197.346 820.492 197.505C820.53 197.664 820.548 197.804 820.548 197.925C820.548 198.345 820.429 198.735 820.191 199.094C819.958 199.449 819.606 199.733 819.134 199.948C818.668 200.163 818.084 200.27 817.384 200.27C817.314 200.27 817.219 200.268 817.097 200.263C816.976 200.258 816.878 200.254 816.803 200.249C816.425 200.263 816.166 200.307 816.026 200.382C815.886 200.457 815.816 200.538 815.816 200.627C815.816 200.753 815.921 200.837 816.131 200.879C816.341 200.921 816.677 200.958 817.139 200.991C817.303 201 817.517 201.012 817.783 201.026C818.049 201.04 818.346 201.059 818.672 201.082C819.498 201.133 820.124 201.341 820.548 201.705C820.973 202.064 821.185 202.531 821.185 203.105C821.185 203.772 820.877 204.321 820.261 204.75C819.645 205.179 818.712 205.394 817.461 205.394ZM817.748 204.393C818.36 204.393 818.812 204.309 819.106 204.141C819.4 203.973 819.547 203.726 819.547 203.399C819.547 203.147 819.447 202.942 819.246 202.783C819.046 202.624 818.747 202.531 818.35 202.503L816.523 202.391C816.323 202.377 816.131 202.414 815.949 202.503C815.772 202.587 815.627 202.706 815.515 202.86C815.403 203.009 815.347 203.175 815.347 203.357C815.347 203.698 815.541 203.954 815.928 204.127C816.32 204.304 816.927 204.393 817.748 204.393ZM817.44 199.269C817.884 199.269 818.243 199.157 818.518 198.933C818.794 198.704 818.931 198.382 818.931 197.967C818.931 197.538 818.794 197.204 818.518 196.966C818.243 196.723 817.884 196.602 817.44 196.602C816.988 196.602 816.621 196.723 816.341 196.966C816.066 197.209 815.928 197.542 815.928 197.967C815.928 198.368 816.061 198.686 816.327 198.919C816.593 199.152 816.964 199.269 817.44 199.269ZM826.074 203.056C825.5 203.056 825.054 202.981 824.737 202.832C824.424 202.678 824.207 202.461 824.086 202.181C823.965 201.901 823.904 201.567 823.904 201.18V196.966H822.728V195.762H823.953L824.38 193.613H825.605V195.755H827.222V196.966H825.605L825.612 201.117C825.612 201.332 825.635 201.49 825.682 201.593C825.733 201.691 825.813 201.756 825.92 201.789C826.032 201.817 826.179 201.831 826.361 201.831H827.257V202.909C827.159 202.946 827.014 202.979 826.823 203.007C826.636 203.04 826.387 203.056 826.074 203.056ZM828.829 203V192.598H830.509V196.812C830.626 196.63 830.78 196.455 830.971 196.287C831.163 196.114 831.396 195.974 831.671 195.867C831.951 195.755 832.285 195.699 832.672 195.699C833.134 195.699 833.557 195.788 833.939 195.965C834.322 196.142 834.628 196.399 834.856 196.735C835.085 197.066 835.199 197.463 835.199 197.925V203H833.491V198.212C833.491 197.839 833.358 197.549 833.092 197.344C832.831 197.139 832.5 197.036 832.098 197.036C831.832 197.036 831.578 197.083 831.335 197.176C831.093 197.269 830.897 197.409 830.747 197.596C830.603 197.778 830.53 198.007 830.53 198.282V203H828.829ZM836.781 197.932V195.986H838.706V197.932H836.781ZM836.781 202.958V201.026H838.706V202.958H836.781ZM845.237 203V195.202H843.361V194.187C843.954 194.187 844.423 194.138 844.768 194.04C845.118 193.937 845.373 193.788 845.531 193.592C845.695 193.396 845.788 193.158 845.811 192.878H846.973V203H845.237ZM853.224 203.147C852.426 203.147 851.728 203.028 851.131 202.79C850.538 202.547 850.076 202.207 849.745 201.768C849.413 201.329 849.248 200.814 849.248 200.221C849.248 199.834 849.343 199.463 849.535 199.108C849.731 198.753 849.98 198.455 850.284 198.212C850.587 197.965 850.9 197.808 851.222 197.743C850.788 197.547 850.424 197.267 850.13 196.903C849.836 196.534 849.689 196.082 849.689 195.545C849.689 194.943 849.843 194.434 850.151 194.019C850.459 193.599 850.879 193.282 851.411 193.067C851.947 192.848 852.552 192.738 853.224 192.738C853.896 192.738 854.498 192.848 855.03 193.067C855.562 193.282 855.982 193.599 856.29 194.019C856.602 194.434 856.759 194.943 856.759 195.545C856.759 196.082 856.614 196.534 856.325 196.903C856.035 197.267 855.669 197.547 855.226 197.743C855.548 197.808 855.86 197.965 856.164 198.212C856.467 198.455 856.717 198.753 856.913 199.108C857.109 199.463 857.207 199.834 857.207 200.221C857.207 200.814 857.041 201.329 856.71 201.768C856.383 202.207 855.919 202.547 855.317 202.79C854.719 203.028 854.022 203.147 853.224 203.147ZM853.224 201.831C853.891 201.831 854.418 201.682 854.806 201.383C855.193 201.084 855.387 200.685 855.387 200.186C855.387 199.855 855.298 199.563 855.121 199.311C854.943 199.054 854.694 198.854 854.372 198.709C854.05 198.564 853.667 198.492 853.224 198.492C852.785 198.492 852.402 198.564 852.076 198.709C851.754 198.854 851.504 199.054 851.327 199.311C851.154 199.563 851.068 199.855 851.068 200.186C851.068 200.685 851.261 201.084 851.649 201.383C852.041 201.682 852.566 201.831 853.224 201.831ZM853.224 197.064C853.756 197.064 854.19 196.929 854.526 196.658C854.866 196.383 855.037 196 855.037 195.51C855.037 195.025 854.866 194.64 854.526 194.355C854.185 194.07 853.751 193.928 853.224 193.928C852.696 193.928 852.26 194.07 851.915 194.355C851.574 194.64 851.404 195.025 851.404 195.51C851.404 196 851.574 196.383 851.915 196.658C852.26 196.929 852.696 197.064 853.224 197.064ZM862.606 203.154C861.962 203.154 861.362 203.049 860.807 202.839C860.256 202.624 859.78 202.33 859.379 201.957C858.982 201.584 858.686 201.157 858.49 200.676L859.869 199.948C860.041 200.293 860.247 200.604 860.485 200.879C860.727 201.154 861.01 201.371 861.332 201.53C861.658 201.684 862.032 201.761 862.452 201.761C863.11 201.761 863.637 201.579 864.034 201.215C864.435 200.846 864.636 200.356 864.636 199.745C864.636 199.367 864.542 199.031 864.356 198.737C864.174 198.443 863.924 198.214 863.607 198.051C863.294 197.883 862.937 197.799 862.536 197.799C862.298 197.799 862.074 197.82 861.864 197.862C861.658 197.904 861.451 197.983 861.241 198.1C861.031 198.212 860.804 198.382 860.562 198.611C860.515 198.634 860.48 198.646 860.457 198.646C860.438 198.641 860.403 198.627 860.352 198.604L859.043 198.072L859.505 192.878H865.798L865.735 194.299H860.891L860.66 197.113C861.019 196.861 861.381 196.679 861.745 196.567C862.109 196.455 862.51 196.399 862.949 196.399C863.593 196.399 864.178 196.525 864.706 196.777C865.233 197.029 865.653 197.4 865.966 197.89C866.278 198.38 866.435 198.98 866.435 199.689C866.435 200.398 866.276 201.012 865.959 201.53C865.646 202.048 865.203 202.449 864.629 202.734C864.059 203.014 863.385 203.154 862.606 203.154Z" fill="black" style="fill:black;fill-opacity:1;"/>
</svg>
