<svg width="603" height="377" viewBox="0 0 603 377" fill="none" xmlns="http://www.w3.org/2000/svg">
<path d="M446 98C446 62.6538 474.654 34 510 34V34C545.346 34 574 62.6538 574 98V98C574 133.346 545.346 162 510 162V162C474.654 162 446 133.346 446 98V98Z" fill="#F16767"/>
<path d="M492.746 103L496.407 92.878H497.87L501.531 103H500.208L499.214 100.228H495.063L494.062 103H492.746ZM495.406 99.038H498.857L497.135 94.145L495.406 99.038ZM505.896 103.14C505.243 103.14 504.664 102.998 504.16 102.713C503.661 102.428 503.269 102.008 502.984 101.453C502.704 100.898 502.564 100.216 502.564 99.409C502.564 98.653 502.692 97.9927 502.949 97.428C503.21 96.8587 503.588 96.4153 504.083 96.098C504.582 95.7807 505.187 95.622 505.896 95.622C506.414 95.622 506.878 95.7223 507.289 95.923C507.704 96.119 508.045 96.399 508.311 96.763C508.577 97.127 508.74 97.5563 508.801 98.051H507.653C507.611 97.799 507.513 97.568 507.359 97.358C507.21 97.148 507.011 96.98 506.764 96.854C506.521 96.728 506.234 96.665 505.903 96.665C505.282 96.665 504.776 96.889 504.384 97.337C503.997 97.785 503.803 98.471 503.803 99.395C503.803 100.23 503.98 100.9 504.335 101.404C504.694 101.903 505.222 102.153 505.917 102.153C506.248 102.153 506.538 102.09 506.785 101.964C507.032 101.833 507.231 101.663 507.38 101.453C507.529 101.238 507.625 101.01 507.667 100.767H508.794C508.733 101.252 508.568 101.672 508.297 102.027C508.031 102.382 507.69 102.657 507.275 102.853C506.864 103.044 506.405 103.14 505.896 103.14ZM512.924 103.035C512.425 103.035 512.038 102.967 511.762 102.832C511.487 102.697 511.293 102.496 511.181 102.23C511.074 101.964 511.02 101.637 511.02 101.25V96.707H509.844V95.762H511.055L511.37 93.655H512.322V95.755H513.953V96.707H512.322V101.208C512.322 101.465 512.348 101.654 512.399 101.775C512.455 101.892 512.546 101.966 512.672 101.999C512.798 102.032 512.976 102.048 513.204 102.048H513.995V102.916C513.907 102.949 513.771 102.977 513.589 103C513.412 103.023 513.19 103.035 512.924 103.035ZM518.419 103.14C517.752 103.14 517.169 102.998 516.669 102.713C516.175 102.424 515.79 102.001 515.514 101.446C515.239 100.891 515.101 100.212 515.101 99.409C515.101 98.653 515.23 97.9903 515.486 97.421C515.743 96.8517 516.119 96.4107 516.613 96.098C517.108 95.7807 517.712 95.622 518.426 95.622C519.094 95.622 519.672 95.769 520.162 96.063C520.652 96.3523 521.033 96.7793 521.303 97.344C521.579 97.9087 521.716 98.597 521.716 99.409C521.716 100.146 521.59 100.795 521.338 101.355C521.086 101.915 520.715 102.354 520.225 102.671C519.74 102.984 519.138 103.14 518.419 103.14ZM518.426 102.118C518.856 102.118 519.22 102.008 519.518 101.789C519.817 101.57 520.043 101.255 520.197 100.844C520.356 100.433 520.435 99.9457 520.435 99.381C520.435 98.863 520.365 98.3987 520.225 97.988C520.09 97.5727 519.875 97.2437 519.581 97.001C519.287 96.7583 518.902 96.637 518.426 96.637C517.988 96.637 517.617 96.7467 517.313 96.966C517.01 97.1807 516.779 97.4933 516.62 97.904C516.466 98.3147 516.389 98.807 516.389 99.381C516.389 99.8897 516.457 100.352 516.592 100.767C516.732 101.182 516.952 101.511 517.25 101.754C517.554 101.997 517.946 102.118 518.426 102.118ZM523.437 103V95.762H524.669V97.155C524.791 96.8097 524.961 96.525 525.18 96.301C525.4 96.0723 525.649 95.902 525.929 95.79C526.214 95.678 526.508 95.622 526.811 95.622C526.919 95.622 527.024 95.629 527.126 95.643C527.229 95.657 527.308 95.6803 527.364 95.713V96.966C527.294 96.9333 527.203 96.9123 527.091 96.903C526.984 96.889 526.893 96.882 526.818 96.882C526.529 96.8633 526.258 96.882 526.006 96.938C525.754 96.9893 525.533 97.0803 525.341 97.211C525.15 97.3417 524.998 97.5143 524.886 97.729C524.779 97.939 524.725 98.1957 524.725 98.499V103H523.437Z" fill="white"/>
<path d="M446 313C446 277.654 474.654 249 510 249V249C545.346 249 574 277.654 574 313V313C574 348.346 545.346 377 510 377V377C474.654 377 446 348.346 446 313V313Z" fill="#F16767"/>
<path d="M492.746 310L496.407 299.878H497.87L501.531 310H500.208L499.214 307.228H495.063L494.062 310H492.746ZM495.406 306.038H498.857L497.135 301.145L495.406 306.038ZM505.896 310.14C505.243 310.14 504.664 309.998 504.16 309.713C503.661 309.428 503.269 309.008 502.984 308.453C502.704 307.898 502.564 307.216 502.564 306.409C502.564 305.653 502.692 304.993 502.949 304.428C503.21 303.859 503.588 303.415 504.083 303.098C504.582 302.781 505.187 302.622 505.896 302.622C506.414 302.622 506.878 302.722 507.289 302.923C507.704 303.119 508.045 303.399 508.311 303.763C508.577 304.127 508.74 304.556 508.801 305.051H507.653C507.611 304.799 507.513 304.568 507.359 304.358C507.21 304.148 507.011 303.98 506.764 303.854C506.521 303.728 506.234 303.665 505.903 303.665C505.282 303.665 504.776 303.889 504.384 304.337C503.997 304.785 503.803 305.471 503.803 306.395C503.803 307.23 503.98 307.9 504.335 308.404C504.694 308.903 505.222 309.153 505.917 309.153C506.248 309.153 506.538 309.09 506.785 308.964C507.032 308.833 507.231 308.663 507.38 308.453C507.529 308.238 507.625 308.01 507.667 307.767H508.794C508.733 308.252 508.568 308.672 508.297 309.027C508.031 309.382 507.69 309.657 507.275 309.853C506.864 310.044 506.405 310.14 505.896 310.14ZM512.924 310.035C512.425 310.035 512.038 309.967 511.762 309.832C511.487 309.697 511.293 309.496 511.181 309.23C511.074 308.964 511.02 308.637 511.02 308.25V303.707H509.844V302.762H511.055L511.37 300.655H512.322V302.755H513.953V303.707H512.322V308.208C512.322 308.465 512.348 308.654 512.399 308.775C512.455 308.892 512.546 308.966 512.672 308.999C512.798 309.032 512.976 309.048 513.204 309.048H513.995V309.916C513.907 309.949 513.771 309.977 513.589 310C513.412 310.023 513.19 310.035 512.924 310.035ZM518.419 310.14C517.752 310.14 517.169 309.998 516.669 309.713C516.175 309.424 515.79 309.001 515.514 308.446C515.239 307.891 515.101 307.212 515.101 306.409C515.101 305.653 515.23 304.99 515.486 304.421C515.743 303.852 516.119 303.411 516.613 303.098C517.108 302.781 517.712 302.622 518.426 302.622C519.094 302.622 519.672 302.769 520.162 303.063C520.652 303.352 521.033 303.779 521.303 304.344C521.579 304.909 521.716 305.597 521.716 306.409C521.716 307.146 521.59 307.795 521.338 308.355C521.086 308.915 520.715 309.354 520.225 309.671C519.74 309.984 519.138 310.14 518.419 310.14ZM518.426 309.118C518.856 309.118 519.22 309.008 519.518 308.789C519.817 308.57 520.043 308.255 520.197 307.844C520.356 307.433 520.435 306.946 520.435 306.381C520.435 305.863 520.365 305.399 520.225 304.988C520.09 304.573 519.875 304.244 519.581 304.001C519.287 303.758 518.902 303.637 518.426 303.637C517.988 303.637 517.617 303.747 517.313 303.966C517.01 304.181 516.779 304.493 516.62 304.904C516.466 305.315 516.389 305.807 516.389 306.381C516.389 306.89 516.457 307.352 516.592 307.767C516.732 308.182 516.952 308.511 517.25 308.754C517.554 308.997 517.946 309.118 518.426 309.118ZM523.437 310V302.762H524.669V304.155C524.791 303.81 524.961 303.525 525.18 303.301C525.4 303.072 525.649 302.902 525.929 302.79C526.214 302.678 526.508 302.622 526.811 302.622C526.919 302.622 527.024 302.629 527.126 302.643C527.229 302.657 527.308 302.68 527.364 302.713V303.966C527.294 303.933 527.203 303.912 527.091 303.903C526.984 303.889 526.893 303.882 526.818 303.882C526.529 303.863 526.258 303.882 526.006 303.938C525.754 303.989 525.533 304.08 525.341 304.211C525.15 304.342 524.998 304.514 524.886 304.729C524.779 304.939 524.725 305.196 524.725 305.499V310H523.437ZM485.108 326V315.878C485.14 315.878 485.238 315.88 485.402 315.885C485.57 315.885 485.773 315.885 486.011 315.885C486.249 315.88 486.496 315.88 486.753 315.885C487.009 315.885 487.245 315.887 487.46 315.892C488.701 315.911 489.707 316.114 490.477 316.501C491.251 316.884 491.818 317.441 492.178 318.174C492.542 318.907 492.724 319.807 492.724 320.876C492.724 321.996 492.528 322.936 492.136 323.697C491.748 324.458 491.156 325.032 490.358 325.419C489.564 325.806 488.554 326 487.327 326H485.108ZM486.438 324.887H487.327C488.162 324.887 488.881 324.759 489.483 324.502C490.085 324.241 490.547 323.818 490.869 323.235C491.195 322.652 491.359 321.872 491.359 320.897C491.359 319.922 491.2 319.149 490.883 318.58C490.57 318.011 490.117 317.605 489.525 317.362C488.932 317.115 488.218 316.991 487.383 316.991H486.438V324.887ZM494.584 326V318.762H495.837V326H494.584ZM494.549 317.229V315.885H495.872V317.229H494.549ZM498.09 326V318.762H499.322V320.155C499.443 319.81 499.613 319.525 499.833 319.301C500.052 319.072 500.302 318.902 500.582 318.79C500.866 318.678 501.16 318.622 501.464 318.622C501.571 318.622 501.676 318.629 501.779 318.643C501.881 318.657 501.961 318.68 502.017 318.713V319.966C501.947 319.933 501.856 319.912 501.744 319.903C501.636 319.889 501.545 319.882 501.471 319.882C501.181 319.863 500.911 319.882 500.659 319.938C500.407 319.989 500.185 320.08 499.994 320.211C499.802 320.342 499.651 320.514 499.539 320.729C499.431 320.939 499.378 321.196 499.378 321.499V326H498.09ZM506.508 326.14C505.836 326.14 505.243 325.993 504.73 325.699C504.217 325.405 503.815 324.983 503.526 324.432C503.237 323.881 503.092 323.221 503.092 322.451C503.092 321.69 503.223 321.023 503.484 320.449C503.745 319.875 504.123 319.427 504.618 319.105C505.117 318.783 505.717 318.622 506.417 318.622C507.098 318.622 507.675 318.769 508.146 319.063C508.617 319.357 508.974 319.772 509.217 320.309C509.464 320.841 509.588 321.473 509.588 322.206V322.682H504.401C504.401 323.139 504.476 323.555 504.625 323.928C504.779 324.297 505.01 324.591 505.318 324.81C505.626 325.029 506.016 325.139 506.487 325.139C506.949 325.139 507.346 325.032 507.677 324.817C508.013 324.602 508.228 324.292 508.321 323.886H509.539C509.455 324.376 509.259 324.789 508.951 325.125C508.648 325.461 508.281 325.715 507.852 325.888C507.427 326.056 506.979 326.14 506.508 326.14ZM504.408 321.807H508.342C508.342 321.392 508.272 321.018 508.132 320.687C507.992 320.351 507.777 320.087 507.488 319.896C507.203 319.7 506.844 319.602 506.41 319.602C505.957 319.602 505.582 319.712 505.283 319.931C504.984 320.146 504.763 320.423 504.618 320.764C504.473 321.1 504.403 321.448 504.408 321.807ZM514.291 326.14C513.637 326.14 513.059 325.998 512.555 325.713C512.055 325.428 511.663 325.008 511.379 324.453C511.099 323.898 510.959 323.216 510.959 322.409C510.959 321.653 511.087 320.993 511.344 320.428C511.605 319.859 511.983 319.415 512.478 319.098C512.977 318.781 513.581 318.622 514.291 318.622C514.809 318.622 515.273 318.722 515.684 318.923C516.099 319.119 516.44 319.399 516.706 319.763C516.972 320.127 517.135 320.556 517.196 321.051H516.048C516.006 320.799 515.908 320.568 515.754 320.358C515.604 320.148 515.406 319.98 515.159 319.854C514.916 319.728 514.629 319.665 514.298 319.665C513.677 319.665 513.171 319.889 512.779 320.337C512.391 320.785 512.198 321.471 512.198 322.395C512.198 323.23 512.375 323.9 512.73 324.404C513.089 324.903 513.616 325.153 514.312 325.153C514.643 325.153 514.932 325.09 515.18 324.964C515.427 324.833 515.625 324.663 515.775 324.453C515.924 324.238 516.02 324.01 516.062 323.767H517.189C517.128 324.252 516.962 324.672 516.692 325.027C516.426 325.382 516.085 325.657 515.67 325.853C515.259 326.044 514.799 326.14 514.291 326.14ZM521.319 326.035C520.819 326.035 520.432 325.967 520.157 325.832C519.881 325.697 519.688 325.496 519.576 325.23C519.468 324.964 519.415 324.637 519.415 324.25V319.707H518.239V318.762H519.45L519.765 316.655H520.717V318.755H522.348V319.707H520.717V324.208C520.717 324.465 520.742 324.654 520.794 324.775C520.85 324.892 520.941 324.966 521.067 324.999C521.193 325.032 521.37 325.048 521.599 325.048H522.39V325.916C522.301 325.949 522.166 325.977 521.984 326C521.806 326.023 521.585 326.035 521.319 326.035ZM526.814 326.14C526.146 326.14 525.563 325.998 525.064 325.713C524.569 325.424 524.184 325.001 523.909 324.446C523.633 323.891 523.496 323.212 523.496 322.409C523.496 321.653 523.624 320.99 523.881 320.421C524.137 319.852 524.513 319.411 525.008 319.098C525.502 318.781 526.107 318.622 526.821 318.622C527.488 318.622 528.067 318.769 528.557 319.063C529.047 319.352 529.427 319.779 529.698 320.344C529.973 320.909 530.111 321.597 530.111 322.409C530.111 323.146 529.985 323.795 529.733 324.355C529.481 324.915 529.11 325.354 528.62 325.671C528.134 325.984 527.532 326.14 526.814 326.14ZM526.821 325.118C527.25 325.118 527.614 325.008 527.913 324.789C528.211 324.57 528.438 324.255 528.592 323.844C528.75 323.433 528.83 322.946 528.83 322.381C528.83 321.863 528.76 321.399 528.62 320.988C528.484 320.573 528.27 320.244 527.976 320.001C527.682 319.758 527.297 319.637 526.821 319.637C526.382 319.637 526.011 319.747 525.708 319.966C525.404 320.181 525.173 320.493 525.015 320.904C524.861 321.315 524.784 321.807 524.784 322.381C524.784 322.89 524.851 323.352 524.987 323.767C525.127 324.182 525.346 324.511 525.645 324.754C525.948 324.997 526.34 325.118 526.821 325.118ZM531.832 326V318.762H533.064V320.155C533.185 319.81 533.355 319.525 533.575 319.301C533.794 319.072 534.044 318.902 534.324 318.79C534.608 318.678 534.902 318.622 535.206 318.622C535.313 318.622 535.418 318.629 535.521 318.643C535.623 318.657 535.703 318.68 535.759 318.713V319.966C535.689 319.933 535.598 319.912 535.486 319.903C535.378 319.889 535.287 319.882 535.213 319.882C534.923 319.863 534.653 319.882 534.401 319.938C534.149 319.989 533.927 320.08 533.736 320.211C533.544 320.342 533.393 320.514 533.281 320.729C533.173 320.939 533.12 321.196 533.12 321.499V326H531.832Z" fill="white"/>
<path d="M3 98C3 62.6538 31.6538 34 67 34V34C102.346 34 131 62.6538 131 98V98C131 133.346 102.346 162 67 162V162C31.6538 162 3 133.346 3 98V98Z" fill="#F16767"/>
<path d="M49.746 103L53.407 92.878H54.87L58.531 103H57.208L56.214 100.228H52.063L51.062 103H49.746ZM52.406 99.038H55.857L54.135 94.145L52.406 99.038ZM62.8961 103.14C62.2428 103.14 61.6641 102.998 61.1601 102.713C60.6608 102.428 60.2688 102.008 59.9841 101.453C59.7041 100.898 59.5641 100.216 59.5641 99.409C59.5641 98.653 59.6924 97.9927 59.9491 97.428C60.2104 96.8587 60.5884 96.4153 61.0831 96.098C61.5824 95.7807 62.1868 95.622 62.8961 95.622C63.4141 95.622 63.8784 95.7223 64.2891 95.923C64.7044 96.119 65.0451 96.399 65.3111 96.763C65.5771 97.127 65.7404 97.5563 65.8011 98.051H64.6531C64.6111 97.799 64.5131 97.568 64.3591 97.358C64.2098 97.148 64.0114 96.98 63.7641 96.854C63.5214 96.728 63.2344 96.665 62.9031 96.665C62.2824 96.665 61.7761 96.889 61.3841 97.337C60.9968 97.785 60.8031 98.471 60.8031 99.395C60.8031 100.23 60.9804 100.9 61.3351 101.404C61.6944 101.903 62.2218 102.153 62.9171 102.153C63.2484 102.153 63.5378 102.09 63.7851 101.964C64.0324 101.833 64.2308 101.663 64.3801 101.453C64.5294 101.238 64.6251 101.01 64.6671 100.767H65.7941C65.7334 101.252 65.5678 101.672 65.2971 102.027C65.0311 102.382 64.6904 102.657 64.2751 102.853C63.8644 103.044 63.4048 103.14 62.8961 103.14ZM69.9242 103.035C69.4249 103.035 69.0375 102.967 68.7622 102.832C68.4869 102.697 68.2932 102.496 68.1812 102.23C68.0739 101.964 68.0202 101.637 68.0202 101.25V96.707H66.8442V95.762H68.0552L68.3702 93.655H69.3222V95.755H70.9532V96.707H69.3222V101.208C69.3222 101.465 69.3479 101.654 69.3992 101.775C69.4552 101.892 69.5462 101.966 69.6722 101.999C69.7982 102.032 69.9755 102.048 70.2042 102.048H70.9952V102.916C70.9065 102.949 70.7712 102.977 70.5892 103C70.4119 103.023 70.1902 103.035 69.9242 103.035ZM75.4192 103.14C74.7519 103.14 74.1685 102.998 73.6692 102.713C73.1745 102.424 72.7895 102.001 72.5142 101.446C72.2389 100.891 72.1012 100.212 72.1012 99.409C72.1012 98.653 72.2295 97.9903 72.4862 97.421C72.7429 96.8517 73.1185 96.4107 73.6132 96.098C74.1079 95.7807 74.7122 95.622 75.4262 95.622C76.0935 95.622 76.6722 95.769 77.1622 96.063C77.6522 96.3523 78.0325 96.7793 78.3032 97.344C78.5785 97.9087 78.7162 98.597 78.7162 99.409C78.7162 100.146 78.5902 100.795 78.3382 101.355C78.0862 101.915 77.7152 102.354 77.2252 102.671C76.7399 102.984 76.1379 103.14 75.4192 103.14ZM75.4262 102.118C75.8555 102.118 76.2195 102.008 76.5182 101.789C76.8169 101.57 77.0432 101.255 77.1972 100.844C77.3559 100.433 77.4352 99.9457 77.4352 99.381C77.4352 98.863 77.3652 98.3987 77.2252 97.988C77.0899 97.5727 76.8752 97.2437 76.5812 97.001C76.2872 96.7583 75.9022 96.637 75.4262 96.637C74.9875 96.637 74.6165 96.7467 74.3132 96.966C74.0099 97.1807 73.7789 97.4933 73.6202 97.904C73.4662 98.3147 73.3892 98.807 73.3892 99.381C73.3892 99.8897 73.4569 100.352 73.5922 100.767C73.7322 101.182 73.9515 101.511 74.2502 101.754C74.5535 101.997 74.9455 102.118 75.4262 102.118ZM80.4372 103V95.762H81.6692V97.155C81.7905 96.8097 81.9609 96.525 82.1802 96.301C82.3995 96.0723 82.6492 95.902 82.9292 95.79C83.2139 95.678 83.5079 95.622 83.8112 95.622C83.9185 95.622 84.0235 95.629 84.1262 95.643C84.2289 95.657 84.3082 95.6803 84.3642 95.713V96.966C84.2942 96.9333 84.2032 96.9123 84.0912 96.903C83.9839 96.889 83.8929 96.882 83.8182 96.882C83.5289 96.8633 83.2582 96.882 83.0062 96.938C82.7542 96.9893 82.5325 97.0803 82.3412 97.211C82.1499 97.3417 81.9982 97.5143 81.8862 97.729C81.7789 97.939 81.7252 98.1957 81.7252 98.499V103H80.4372Z" fill="white"/>
<path d="M417.388 17V9.762H419.054V10.798C419.166 10.6113 419.318 10.4317 419.509 10.259C419.705 10.0863 419.945 9.94633 420.23 9.839C420.515 9.73167 420.848 9.678 421.231 9.678C421.679 9.678 422.094 9.76667 422.477 9.944C422.864 10.1213 423.175 10.399 423.408 10.777C423.646 11.155 423.765 11.6427 423.765 12.24V17H422.057V12.443C422.057 11.967 421.926 11.6147 421.665 11.386C421.404 11.1527 421.075 11.036 420.678 11.036C420.407 11.036 420.151 11.0827 419.908 11.176C419.665 11.2647 419.467 11.4023 419.313 11.589C419.164 11.771 419.089 11.9997 419.089 12.275V17H417.388ZM427.643 17.14C427.181 17.14 426.766 17.056 426.397 16.888C426.033 16.7153 425.746 16.4703 425.536 16.153C425.331 15.831 425.228 15.4413 425.228 14.984C425.228 14.186 425.515 13.584 426.089 13.178C426.668 12.772 427.587 12.5597 428.847 12.541L429.932 12.513V12.023C429.932 11.6403 429.818 11.3417 429.589 11.127C429.365 10.9077 429.015 10.8003 428.539 10.805C428.184 10.8097 427.862 10.8937 427.573 11.057C427.284 11.2157 427.092 11.484 426.999 11.862H425.55C425.578 11.3673 425.72 10.9543 425.977 10.623C426.238 10.287 426.595 10.0373 427.048 9.874C427.501 9.706 428.023 9.622 428.616 9.622C429.307 9.622 429.869 9.713 430.303 9.895C430.737 10.077 431.057 10.3407 431.262 10.686C431.467 11.0267 431.57 11.4397 431.57 11.925V17H430.135L429.995 15.698C429.738 16.244 429.409 16.622 429.008 16.832C428.611 17.0373 428.156 17.14 427.643 17.14ZM428.196 15.985C428.406 15.985 428.614 15.9477 428.819 15.873C429.024 15.7937 429.209 15.6887 429.372 15.558C429.54 15.4227 429.673 15.2733 429.771 15.11C429.874 14.9467 429.927 14.7763 429.932 14.599V13.458L429.043 13.472C428.604 13.4767 428.219 13.5233 427.888 13.612C427.561 13.7007 427.307 13.843 427.125 14.039C426.943 14.2303 426.852 14.487 426.852 14.809C426.852 15.1777 426.98 15.467 427.237 15.677C427.494 15.8823 427.813 15.985 428.196 15.985ZM433.384 17V9.762H435.043V10.798C435.253 10.4807 435.538 10.2053 435.897 9.972C436.261 9.73867 436.723 9.622 437.283 9.622C437.54 9.622 437.799 9.66633 438.06 9.755C438.326 9.84367 438.571 9.97433 438.795 10.147C439.024 10.3197 439.206 10.5343 439.341 10.791C439.57 10.4503 439.873 10.1703 440.251 9.951C440.634 9.73167 441.063 9.622 441.539 9.622C441.8 9.622 442.069 9.664 442.344 9.748C442.624 9.832 442.881 9.972 443.114 10.168C443.347 10.364 443.536 10.6323 443.681 10.973C443.826 11.309 443.898 11.7313 443.898 12.24V17H442.197V12.443C442.197 12.0837 442.134 11.8013 442.008 11.596C441.882 11.3907 441.719 11.246 441.518 11.162C441.322 11.0733 441.112 11.029 440.888 11.029C440.687 11.029 440.477 11.0687 440.258 11.148C440.043 11.2273 439.859 11.358 439.705 11.54C439.556 11.722 439.481 11.967 439.481 12.275V17H437.78V12.17C437.78 11.918 437.715 11.708 437.584 11.54C437.453 11.372 437.288 11.246 437.087 11.162C436.891 11.0733 436.69 11.029 436.485 11.029C436.275 11.029 436.06 11.0733 435.841 11.162C435.626 11.2507 435.447 11.386 435.302 11.568C435.157 11.75 435.085 11.9857 435.085 12.275V17H433.384ZM448.929 17.14C448.233 17.14 447.62 16.993 447.088 16.699C446.56 16.4003 446.147 15.9757 445.849 15.425C445.555 14.8743 445.408 14.2187 445.408 13.458C445.408 12.716 445.541 12.058 445.807 11.484C446.077 10.9053 446.467 10.4503 446.976 10.119C447.489 9.78767 448.107 9.622 448.831 9.622C449.545 9.622 450.144 9.77367 450.63 10.077C451.115 10.3803 451.484 10.805 451.736 11.351C451.988 11.8923 452.114 12.527 452.114 13.255V13.773H447.109C447.104 14.1837 447.169 14.5477 447.305 14.865C447.44 15.1823 447.641 15.432 447.907 15.614C448.173 15.7913 448.502 15.88 448.894 15.88C449.295 15.88 449.643 15.7913 449.937 15.614C450.235 15.432 450.434 15.1567 450.532 14.788H452.086C452.002 15.292 451.801 15.719 451.484 16.069C451.171 16.419 450.788 16.685 450.336 16.867C449.888 17.049 449.419 17.14 448.929 17.14ZM447.102 12.716H450.504C450.504 12.366 450.441 12.051 450.315 11.771C450.193 11.4863 450.009 11.2623 449.762 11.099C449.514 10.931 449.202 10.847 448.824 10.847C448.45 10.847 448.135 10.938 447.879 11.12C447.622 11.302 447.428 11.5377 447.298 11.827C447.167 12.1117 447.102 12.408 447.102 12.716ZM453.503 11.932V9.986H455.428V11.932H453.503ZM453.503 16.958V15.026H455.428V16.958H453.503ZM460.791 10.497L460.322 6.878H462.177L461.687 10.497H460.791ZM467.887 17.14C467.383 17.14 466.9 17.0793 466.438 16.958C465.976 16.832 465.554 16.6477 465.171 16.405C464.793 16.1577 464.481 15.852 464.233 15.488C463.986 15.1193 463.834 14.69 463.778 14.2H465.542C465.617 14.5407 465.764 14.8277 465.983 15.061C466.207 15.2943 466.49 15.4717 466.83 15.593C467.171 15.7143 467.551 15.775 467.971 15.775C468.345 15.775 468.692 15.719 469.014 15.607C469.336 15.495 469.598 15.3293 469.798 15.11C469.999 14.886 470.099 14.6107 470.099 14.284C470.099 13.9153 469.969 13.6283 469.707 13.423C469.451 13.213 469.082 13.0473 468.601 12.926L466.62 12.457C466.107 12.3403 465.659 12.17 465.276 11.946C464.898 11.722 464.604 11.428 464.394 11.064C464.184 10.6953 464.079 10.245 464.079 9.713C464.079 9.10633 464.245 8.58133 464.576 8.138C464.912 7.69467 465.367 7.354 465.941 7.116C466.515 6.87333 467.162 6.752 467.88 6.752C468.702 6.752 469.395 6.88967 469.959 7.165C470.524 7.43567 470.953 7.79967 471.247 8.257C471.541 8.71433 471.691 9.216 471.695 9.762H469.973C469.936 9.356 469.817 9.03633 469.616 8.803C469.416 8.565 469.161 8.39233 468.853 8.285C468.545 8.17767 468.205 8.124 467.831 8.124C467.169 8.124 466.676 8.26633 466.354 8.551C466.032 8.83567 465.871 9.16933 465.871 9.552C465.871 9.91133 465.99 10.196 466.228 10.406C466.466 10.616 466.83 10.7793 467.32 10.896L469.203 11.337C469.833 11.4677 470.34 11.6683 470.722 11.939C471.105 12.2097 471.383 12.5317 471.555 12.905C471.733 13.2737 471.821 13.682 471.821 14.13C471.821 14.718 471.653 15.2383 471.317 15.691C470.986 16.1437 470.526 16.4983 469.938 16.755C469.35 17.0117 468.667 17.14 467.887 17.14ZM475.563 17.14C475.101 17.14 474.686 17.056 474.317 16.888C473.953 16.7153 473.666 16.4703 473.456 16.153C473.251 15.831 473.148 15.4413 473.148 14.984C473.148 14.186 473.435 13.584 474.009 13.178C474.588 12.772 475.507 12.5597 476.767 12.541L477.852 12.513V12.023C477.852 11.6403 477.738 11.3417 477.509 11.127C477.285 10.9077 476.935 10.8003 476.459 10.805C476.104 10.8097 475.782 10.8937 475.493 11.057C475.204 11.2157 475.012 11.484 474.919 11.862H473.47C473.498 11.3673 473.64 10.9543 473.897 10.623C474.158 10.287 474.515 10.0373 474.968 9.874C475.421 9.706 475.943 9.622 476.536 9.622C477.227 9.622 477.789 9.713 478.223 9.895C478.657 10.077 478.977 10.3407 479.182 10.686C479.387 11.0267 479.49 11.4397 479.49 11.925V17H478.055L477.915 15.698C477.658 16.244 477.329 16.622 476.928 16.832C476.531 17.0373 476.076 17.14 475.563 17.14ZM476.116 15.985C476.326 15.985 476.534 15.9477 476.739 15.873C476.944 15.7937 477.129 15.6887 477.292 15.558C477.46 15.4227 477.593 15.2733 477.691 15.11C477.794 14.9467 477.847 14.7763 477.852 14.599V13.458L476.963 13.472C476.524 13.4767 476.139 13.5233 475.808 13.612C475.481 13.7007 475.227 13.843 475.045 14.039C474.863 14.2303 474.772 14.487 474.772 14.809C474.772 15.1777 474.9 15.467 475.157 15.677C475.414 15.8823 475.733 15.985 476.116 15.985ZM481.304 17V9.762H482.935V11.33C483.052 10.9707 483.217 10.665 483.432 10.413C483.651 10.1563 483.908 9.96033 484.202 9.825C484.496 9.68967 484.816 9.622 485.161 9.622C485.245 9.622 485.327 9.62667 485.406 9.636C485.485 9.64533 485.544 9.66167 485.581 9.685V11.316C485.53 11.2927 485.462 11.2763 485.378 11.267C485.299 11.2577 485.229 11.253 485.168 11.253C484.818 11.225 484.508 11.239 484.237 11.295C483.971 11.351 483.745 11.4467 483.558 11.582C483.376 11.7127 483.238 11.8807 483.145 12.086C483.052 12.2867 483.005 12.5223 483.005 12.793V17H481.304ZM488.825 17.14C488.363 17.14 487.947 17.056 487.579 16.888C487.215 16.7153 486.928 16.4703 486.718 16.153C486.512 15.831 486.41 15.4413 486.41 14.984C486.41 14.186 486.697 13.584 487.271 13.178C487.849 12.772 488.769 12.5597 490.029 12.541L491.114 12.513V12.023C491.114 11.6403 490.999 11.3417 490.771 11.127C490.547 10.9077 490.197 10.8003 489.721 10.805C489.366 10.8097 489.044 10.8937 488.755 11.057C488.465 11.2157 488.274 11.484 488.181 11.862H486.732C486.76 11.3673 486.902 10.9543 487.159 10.623C487.42 10.287 487.777 10.0373 488.23 9.874C488.682 9.706 489.205 9.622 489.798 9.622C490.488 9.622 491.051 9.713 491.485 9.895C491.919 10.077 492.238 10.3407 492.444 10.686C492.649 11.0267 492.752 11.4397 492.752 11.925V17H491.317L491.177 15.698C490.92 16.244 490.591 16.622 490.19 16.832C489.793 17.0373 489.338 17.14 488.825 17.14ZM489.378 15.985C489.588 15.985 489.795 15.9477 490.001 15.873C490.206 15.7937 490.39 15.6887 490.554 15.558C490.722 15.4227 490.855 15.2733 490.953 15.11C491.055 14.9467 491.109 14.7763 491.114 14.599V13.458L490.225 13.472C489.786 13.4767 489.401 13.5233 489.07 13.612C488.743 13.7007 488.489 13.843 488.307 14.039C488.125 14.2303 488.034 14.487 488.034 14.809C488.034 15.1777 488.162 15.467 488.419 15.677C488.675 15.8823 488.995 15.985 489.378 15.985ZM494.566 17V6.598H496.246V10.812C496.362 10.63 496.516 10.455 496.708 10.287C496.899 10.1143 497.132 9.97433 497.408 9.867C497.688 9.755 498.021 9.699 498.409 9.699C498.871 9.699 499.293 9.78767 499.676 9.965C500.058 10.1423 500.364 10.399 500.593 10.735C500.821 11.0663 500.936 11.463 500.936 11.925V17H499.228V12.212C499.228 11.8387 499.095 11.5493 498.829 11.344C498.567 11.1387 498.236 11.036 497.835 11.036C497.569 11.036 497.314 11.0827 497.072 11.176C496.829 11.2693 496.633 11.4093 496.484 11.596C496.339 11.778 496.267 12.0067 496.267 12.282V17H494.566ZM507.227 17.14C506.891 17.14 506.557 17.105 506.226 17.035C505.899 16.9697 505.668 16.916 505.533 16.874L505.596 15.292C505.736 15.334 505.897 15.3853 506.079 15.446C506.261 15.502 506.473 15.53 506.716 15.53C507.182 15.53 507.497 15.404 507.661 15.152C507.829 14.9 507.913 14.487 507.913 13.913V6.878H509.621V14.375C509.621 14.977 509.553 15.4833 509.418 15.894C509.287 16.3 509.049 16.6103 508.704 16.825C508.358 17.035 507.866 17.14 507.227 17.14ZM514.759 17.14C514.063 17.14 513.45 16.993 512.918 16.699C512.39 16.4003 511.977 15.9757 511.679 15.425C511.385 14.8743 511.238 14.2187 511.238 13.458C511.238 12.716 511.371 12.058 511.637 11.484C511.907 10.9053 512.297 10.4503 512.806 10.119C513.319 9.78767 513.937 9.622 514.661 9.622C515.375 9.622 515.974 9.77367 516.46 10.077C516.945 10.3803 517.314 10.805 517.566 11.351C517.818 11.8923 517.944 12.527 517.944 13.255V13.773H512.939C512.934 14.1837 512.999 14.5477 513.135 14.865C513.27 15.1823 513.471 15.432 513.737 15.614C514.003 15.7913 514.332 15.88 514.724 15.88C515.125 15.88 515.473 15.7913 515.767 15.614C516.065 15.432 516.264 15.1567 516.362 14.788H517.916C517.832 15.292 517.631 15.719 517.314 16.069C517.001 16.419 516.618 16.685 516.166 16.867C515.718 17.049 515.249 17.14 514.759 17.14ZM512.932 12.716H516.334C516.334 12.366 516.271 12.051 516.145 11.771C516.023 11.4863 515.839 11.2623 515.592 11.099C515.344 10.931 515.032 10.847 514.654 10.847C514.28 10.847 513.965 10.938 513.709 11.12C513.452 11.302 513.258 11.5377 513.128 11.827C512.997 12.1117 512.932 12.408 512.932 12.716ZM522.316 17.14C521.812 17.14 521.334 17.0607 520.881 16.902C520.433 16.7387 520.055 16.4843 519.747 16.139C519.444 15.7937 519.252 15.348 519.173 14.802H520.671C520.736 15.068 520.851 15.285 521.014 15.453C521.182 15.621 521.378 15.7447 521.602 15.824C521.831 15.8987 522.066 15.936 522.309 15.936C522.743 15.936 523.093 15.8613 523.359 15.712C523.625 15.5627 523.758 15.3317 523.758 15.019C523.758 14.7903 523.683 14.6083 523.534 14.473C523.389 14.3377 523.151 14.235 522.82 14.165L521.448 13.85C520.832 13.7147 520.34 13.4907 519.971 13.178C519.602 12.8653 519.416 12.4243 519.411 11.855C519.406 11.4257 519.514 11.043 519.733 10.707C519.952 10.371 520.279 10.1073 520.713 9.916C521.147 9.72 521.681 9.622 522.316 9.622C523.161 9.622 523.837 9.811 524.346 10.189C524.859 10.5623 525.123 11.0967 525.137 11.792H523.688C523.637 11.4793 523.49 11.2367 523.247 11.064C523.004 10.8867 522.689 10.798 522.302 10.798C521.901 10.798 521.572 10.875 521.315 11.029C521.058 11.183 520.93 11.4187 520.93 11.736C520.93 11.9553 521.026 12.128 521.217 12.254C521.413 12.38 521.709 12.4873 522.106 12.576L523.408 12.891C523.781 12.9843 524.087 13.1103 524.325 13.269C524.563 13.4277 524.747 13.6027 524.878 13.794C525.013 13.9807 525.107 14.1743 525.158 14.375C525.214 14.571 525.242 14.753 525.242 14.921C525.242 15.3877 525.121 15.7867 524.878 16.118C524.64 16.4447 524.302 16.6967 523.863 16.874C523.429 17.0513 522.913 17.14 522.316 17.14ZM529.521 17.14C529.017 17.14 528.539 17.0607 528.086 16.902C527.638 16.7387 527.26 16.4843 526.952 16.139C526.649 15.7937 526.458 15.348 526.378 14.802H527.876C527.942 15.068 528.056 15.285 528.219 15.453C528.387 15.621 528.583 15.7447 528.807 15.824C529.036 15.8987 529.272 15.936 529.514 15.936C529.948 15.936 530.298 15.8613 530.564 15.712C530.83 15.5627 530.963 15.3317 530.963 15.019C530.963 14.7903 530.889 14.6083 530.739 14.473C530.595 14.3377 530.357 14.235 530.025 14.165L528.653 13.85C528.037 13.7147 527.545 13.4907 527.176 13.178C526.808 12.8653 526.621 12.4243 526.616 11.855C526.612 11.4257 526.719 11.043 526.938 10.707C527.158 10.371 527.484 10.1073 527.918 9.916C528.352 9.72 528.887 9.622 529.521 9.622C530.366 9.622 531.043 9.811 531.551 10.189C532.065 10.5623 532.328 11.0967 532.342 11.792H530.893C530.842 11.4793 530.695 11.2367 530.452 11.064C530.21 10.8867 529.895 10.798 529.507 10.798C529.106 10.798 528.777 10.875 528.52 11.029C528.264 11.183 528.135 11.4187 528.135 11.736C528.135 11.9553 528.231 12.128 528.422 12.254C528.618 12.38 528.915 12.4873 529.311 12.576L530.613 12.891C530.987 12.9843 531.292 13.1103 531.53 13.269C531.768 13.4277 531.953 13.6027 532.083 13.794C532.219 13.9807 532.312 14.1743 532.363 14.375C532.419 14.571 532.447 14.753 532.447 14.921C532.447 15.3877 532.326 15.7867 532.083 16.118C531.845 16.4447 531.507 16.6967 531.068 16.874C530.634 17.0513 530.119 17.14 529.521 17.14ZM534.023 17V9.762H535.654V17H534.023ZM533.995 8.495V6.885H535.682V8.495H533.995ZM540.643 17.14C539.98 17.14 539.39 16.9953 538.872 16.706C538.358 16.412 537.955 15.9873 537.661 15.432C537.367 14.872 537.22 14.1977 537.22 13.409C537.22 12.6577 537.357 11.9997 537.633 11.435C537.913 10.8657 538.307 10.4223 538.816 10.105C539.329 9.783 539.938 9.622 540.643 9.622C541.207 9.622 541.704 9.734 542.134 9.958C542.563 10.182 542.906 10.4923 543.163 10.889C543.424 11.2857 543.58 11.736 543.632 12.24H542.183C542.145 12.0207 542.064 11.813 541.938 11.617C541.812 11.4163 541.641 11.2553 541.427 11.134C541.217 11.008 540.96 10.945 540.657 10.945C540.111 10.945 539.67 11.1457 539.334 11.547C538.998 11.9483 538.83 12.5643 538.83 13.395C538.83 14.1603 538.988 14.7693 539.306 15.222C539.628 15.6747 540.087 15.901 540.685 15.901C540.983 15.901 541.24 15.8357 541.455 15.705C541.669 15.5697 541.837 15.404 541.959 15.208C542.085 15.0073 542.164 14.8067 542.197 14.606H543.611C543.569 15.096 543.417 15.5323 543.156 15.915C542.894 16.2977 542.549 16.5987 542.12 16.818C541.69 17.0327 541.198 17.14 540.643 17.14ZM547.272 17.14C546.81 17.14 546.395 17.056 546.026 16.888C545.662 16.7153 545.375 16.4703 545.165 16.153C544.96 15.831 544.857 15.4413 544.857 14.984C544.857 14.186 545.144 13.584 545.718 13.178C546.297 12.772 547.216 12.5597 548.476 12.541L549.561 12.513V12.023C549.561 11.6403 549.447 11.3417 549.218 11.127C548.994 10.9077 548.644 10.8003 548.168 10.805C547.813 10.8097 547.491 10.8937 547.202 11.057C546.913 11.2157 546.721 11.484 546.628 11.862H545.179C545.207 11.3673 545.349 10.9543 545.606 10.623C545.867 10.287 546.224 10.0373 546.677 9.874C547.13 9.706 547.652 9.622 548.245 9.622C548.936 9.622 549.498 9.713 549.932 9.895C550.366 10.077 550.686 10.3407 550.891 10.686C551.096 11.0267 551.199 11.4397 551.199 11.925V17H549.764L549.624 15.698C549.367 16.244 549.038 16.622 548.637 16.832C548.24 17.0373 547.785 17.14 547.272 17.14ZM547.825 15.985C548.035 15.985 548.243 15.9477 548.448 15.873C548.653 15.7937 548.838 15.6887 549.001 15.558C549.169 15.4227 549.302 15.2733 549.4 15.11C549.503 14.9467 549.556 14.7763 549.561 14.599V13.458L548.672 13.472C548.233 13.4767 547.848 13.5233 547.517 13.612C547.19 13.7007 546.936 13.843 546.754 14.039C546.572 14.2303 546.481 14.487 546.481 14.809C546.481 15.1777 546.609 15.467 546.866 15.677C547.123 15.8823 547.442 15.985 547.825 15.985ZM556.539 17V6.878H560.13C560.858 6.878 561.509 7.004 562.083 7.256C562.662 7.50333 563.117 7.86967 563.448 8.355C563.78 8.84033 563.945 9.43767 563.945 10.147C563.945 10.8143 563.794 11.386 563.49 11.862C563.192 12.338 562.774 12.702 562.237 12.954C561.701 13.206 561.073 13.332 560.354 13.332H558.268V17H556.539ZM558.254 11.967H560.312C560.905 11.967 561.388 11.7897 561.761 11.435C562.139 11.0803 562.328 10.6183 562.328 10.049C562.328 9.47033 562.132 9.02233 561.74 8.705C561.348 8.383 560.856 8.222 560.263 8.222H558.254V11.967ZM567.233 17.14C566.771 17.14 566.355 17.056 565.987 16.888C565.623 16.7153 565.336 16.4703 565.126 16.153C564.92 15.831 564.818 15.4413 564.818 14.984C564.818 14.186 565.105 13.584 565.679 13.178C566.257 12.772 567.177 12.5597 568.437 12.541L569.522 12.513V12.023C569.522 11.6403 569.407 11.3417 569.179 11.127C568.955 10.9077 568.605 10.8003 568.129 10.805C567.774 10.8097 567.452 10.8937 567.163 11.057C566.873 11.2157 566.682 11.484 566.589 11.862H565.14C565.168 11.3673 565.31 10.9543 565.567 10.623C565.828 10.287 566.185 10.0373 566.638 9.874C567.09 9.706 567.613 9.622 568.206 9.622C568.896 9.622 569.459 9.713 569.893 9.895C570.327 10.077 570.646 10.3407 570.852 10.686C571.057 11.0267 571.16 11.4397 571.16 11.925V17H569.725L569.585 15.698C569.328 16.244 568.999 16.622 568.598 16.832C568.201 17.0373 567.746 17.14 567.233 17.14ZM567.786 15.985C567.996 15.985 568.203 15.9477 568.409 15.873C568.614 15.7937 568.798 15.6887 568.962 15.558C569.13 15.4227 569.263 15.2733 569.361 15.11C569.463 14.9467 569.517 14.7763 569.522 14.599V13.458L568.633 13.472C568.194 13.4767 567.809 13.5233 567.478 13.612C567.151 13.7007 566.897 13.843 566.715 14.039C566.533 14.2303 566.442 14.487 566.442 14.809C566.442 15.1777 566.57 15.467 566.827 15.677C567.083 15.8823 567.403 15.985 567.786 15.985ZM572.974 17V9.762H574.605V11.33C574.721 10.9707 574.887 10.665 575.102 10.413C575.321 10.1563 575.578 9.96033 575.872 9.825C576.166 9.68967 576.485 9.622 576.831 9.622C576.915 9.622 576.996 9.62667 577.076 9.636C577.155 9.64533 577.213 9.66167 577.251 9.685V11.316C577.199 11.2927 577.132 11.2763 577.048 11.267C576.968 11.2577 576.898 11.253 576.838 11.253C576.488 11.225 576.177 11.239 575.907 11.295C575.641 11.351 575.414 11.4467 575.228 11.582C575.046 11.7127 574.908 11.8807 574.815 12.086C574.721 12.2867 574.675 12.5223 574.675 12.793V17H572.974ZM578.607 17V6.598H580.301V13.045L583.304 9.762H585.173L582.555 12.59L585.306 17H583.577L581.477 13.647L580.301 14.879V17H578.607ZM589.462 17.14C588.767 17.14 588.153 16.993 587.621 16.699C587.094 16.4003 586.681 15.9757 586.382 15.425C586.088 14.8743 585.941 14.2187 585.941 13.458C585.941 12.716 586.074 12.058 586.34 11.484C586.611 10.9053 587 10.4503 587.509 10.119C588.022 9.78767 588.641 9.622 589.364 9.622C590.078 9.622 590.678 9.77367 591.163 10.077C591.648 10.3803 592.017 10.805 592.269 11.351C592.521 11.8923 592.647 12.527 592.647 13.255V13.773H587.642C587.637 14.1837 587.703 14.5477 587.838 14.865C587.973 15.1823 588.174 15.432 588.44 15.614C588.706 15.7913 589.035 15.88 589.427 15.88C589.828 15.88 590.176 15.7913 590.47 15.614C590.769 15.432 590.967 15.1567 591.065 14.788H592.619C592.535 15.292 592.334 15.719 592.017 16.069C591.704 16.419 591.322 16.685 590.869 16.867C590.421 17.049 589.952 17.14 589.462 17.14ZM587.635 12.716H591.037C591.037 12.366 590.974 12.051 590.848 11.771C590.727 11.4863 590.542 11.2623 590.295 11.099C590.048 10.931 589.735 10.847 589.357 10.847C588.984 10.847 588.669 10.938 588.412 11.12C588.155 11.302 587.962 11.5377 587.831 11.827C587.7 12.1117 587.635 12.408 587.635 12.716ZM594.275 17V9.762H595.906V11.33C596.022 10.9707 596.188 10.665 596.403 10.413C596.622 10.1563 596.879 9.96033 597.173 9.825C597.467 9.68967 597.786 9.622 598.132 9.622C598.216 9.622 598.297 9.62667 598.377 9.636C598.456 9.64533 598.514 9.66167 598.552 9.685V11.316C598.5 11.2927 598.433 11.2763 598.349 11.267C598.269 11.2577 598.199 11.253 598.139 11.253C597.789 11.225 597.478 11.239 597.208 11.295C596.942 11.351 596.715 11.4467 596.529 11.582C596.347 11.7127 596.209 11.8807 596.116 12.086C596.022 12.2867 595.976 12.5223 595.976 12.793V17H594.275ZM600.34 10.497L599.871 6.878H601.726L601.236 10.497H600.34Z" fill="black"/>
<path d="M222 313C222 277.654 250.654 249 286 249V249C321.346 249 350 277.654 350 313V313C350 348.346 321.346 377 286 377V377C250.654 377 222 348.346 222 313V313Z" fill="#56C7E4"/>
<path d="M268.066 318V307.878H269.858L272.91 316.236L276.004 307.878H277.789V318H276.452V309.817L273.519 318H272.308L269.396 309.894V318H268.066ZM283.003 318.14C282.336 318.14 281.753 317.998 281.253 317.713C280.759 317.424 280.374 317.001 280.098 316.446C279.823 315.891 279.685 315.212 279.685 314.409C279.685 313.653 279.814 312.99 280.07 312.421C280.327 311.852 280.703 311.411 281.197 311.098C281.692 310.781 282.296 310.622 283.01 310.622C283.678 310.622 284.256 310.769 284.746 311.063C285.236 311.352 285.617 311.779 285.887 312.344C286.163 312.909 286.3 313.597 286.3 314.409C286.3 315.146 286.174 315.795 285.922 316.355C285.67 316.915 285.299 317.354 284.809 317.671C284.324 317.984 283.722 318.14 283.003 318.14ZM283.01 317.118C283.44 317.118 283.804 317.008 284.102 316.789C284.401 316.57 284.627 316.255 284.781 315.844C284.94 315.433 285.019 314.946 285.019 314.381C285.019 313.863 284.949 313.399 284.809 312.988C284.674 312.573 284.459 312.244 284.165 312.001C283.871 311.758 283.486 311.637 283.01 311.637C282.572 311.637 282.201 311.747 281.897 311.966C281.594 312.181 281.363 312.493 281.204 312.904C281.05 313.315 280.973 313.807 280.973 314.381C280.973 314.89 281.041 315.352 281.176 315.767C281.316 316.182 281.536 316.511 281.834 316.754C282.138 316.997 282.53 317.118 283.01 317.118ZM289.76 318L287.142 310.762H288.36L290.285 316.376H290.404L292.336 310.762H293.547L290.943 318H289.76ZM294.988 318V310.762H296.241V318H294.988ZM294.953 309.229V307.885H296.276V309.229H294.953ZM301.471 318.14C300.799 318.14 300.206 317.993 299.693 317.699C299.179 317.405 298.778 316.983 298.489 316.432C298.199 315.881 298.055 315.221 298.055 314.451C298.055 313.69 298.185 313.023 298.447 312.449C298.708 311.875 299.086 311.427 299.581 311.105C300.08 310.783 300.68 310.622 301.38 310.622C302.061 310.622 302.637 310.769 303.109 311.063C303.58 311.357 303.937 311.772 304.18 312.309C304.427 312.841 304.551 313.473 304.551 314.206V314.682H299.364C299.364 315.139 299.438 315.555 299.588 315.928C299.742 316.297 299.973 316.591 300.281 316.81C300.589 317.029 300.978 317.139 301.45 317.139C301.912 317.139 302.308 317.032 302.64 316.817C302.976 316.602 303.19 316.292 303.284 315.886H304.502C304.418 316.376 304.222 316.789 303.914 317.125C303.61 317.461 303.244 317.715 302.815 317.888C302.39 318.056 301.942 318.14 301.471 318.14ZM299.371 313.807H303.305C303.305 313.392 303.235 313.018 303.095 312.687C302.955 312.351 302.74 312.087 302.451 311.896C302.166 311.7 301.807 311.602 301.373 311.602C300.92 311.602 300.544 311.712 300.246 311.931C299.947 312.146 299.725 312.423 299.581 312.764C299.436 313.1 299.366 313.448 299.371 313.807Z" fill="#1A1B1D"/>
<path d="M243.33 232.056C242.756 232.056 242.31 231.981 241.993 231.832C241.68 231.678 241.463 231.461 241.342 231.181C241.221 230.901 241.16 230.567 241.16 230.18V225.966H239.984V224.762H241.209L241.636 222.613H242.861V224.755H244.478V225.966H242.861L242.868 230.117C242.868 230.332 242.891 230.49 242.938 230.593C242.989 230.691 243.069 230.756 243.176 230.789C243.288 230.817 243.435 230.831 243.617 230.831H244.513V231.909C244.415 231.946 244.27 231.979 244.079 232.007C243.892 232.04 243.643 232.056 243.33 232.056ZM246.113 232V224.762H247.744V232H246.113ZM246.085 223.495V221.885H247.772V223.495H246.085ZM252.6 232.056C252.026 232.056 251.58 231.981 251.263 231.832C250.95 231.678 250.733 231.461 250.612 231.181C250.49 230.901 250.43 230.567 250.43 230.18V225.966H249.254V224.762H250.479L250.906 222.613H252.131V224.755H253.748V225.966H252.131L252.138 230.117C252.138 230.332 252.161 230.49 252.208 230.593C252.259 230.691 252.338 230.756 252.446 230.789C252.558 230.817 252.705 230.831 252.887 230.831H253.783V231.909C253.685 231.946 253.54 231.979 253.349 232.007C253.162 232.04 252.912 232.056 252.6 232.056ZM257.441 232.105C256.974 232.105 256.601 232.047 256.321 231.93C256.041 231.813 255.831 231.657 255.691 231.461C255.551 231.265 255.46 231.046 255.418 230.803C255.376 230.556 255.355 230.304 255.355 230.047V221.598H257.021V229.851C257.021 230.164 257.084 230.406 257.21 230.579C257.34 230.752 257.55 230.852 257.84 230.88L258.204 230.894V231.965C258.078 232.002 257.949 232.035 257.819 232.063C257.688 232.091 257.562 232.105 257.441 232.105ZM262.614 232.14C261.919 232.14 261.305 231.993 260.773 231.699C260.246 231.4 259.833 230.976 259.534 230.425C259.24 229.874 259.093 229.219 259.093 228.458C259.093 227.716 259.226 227.058 259.492 226.484C259.763 225.905 260.153 225.45 260.661 225.119C261.175 224.788 261.793 224.622 262.516 224.622C263.23 224.622 263.83 224.774 264.315 225.077C264.801 225.38 265.169 225.805 265.421 226.351C265.673 226.892 265.799 227.527 265.799 228.255V228.773H260.794C260.79 229.184 260.855 229.548 260.99 229.865C261.126 230.182 261.326 230.432 261.592 230.614C261.858 230.791 262.187 230.88 262.579 230.88C262.981 230.88 263.328 230.791 263.622 230.614C263.921 230.432 264.119 230.157 264.217 229.788H265.771C265.687 230.292 265.487 230.719 265.169 231.069C264.857 231.419 264.474 231.685 264.021 231.867C263.573 232.049 263.104 232.14 262.614 232.14ZM260.787 227.716H264.189C264.189 227.366 264.126 227.051 264 226.771C263.879 226.486 263.695 226.262 263.447 226.099C263.2 225.931 262.887 225.847 262.509 225.847C262.136 225.847 261.821 225.938 261.564 226.12C261.308 226.302 261.114 226.538 260.983 226.827C260.853 227.112 260.787 227.408 260.787 227.716ZM267.189 226.932V224.986H269.114V226.932H267.189ZM267.189 231.958V230.026H269.114V231.958H267.189ZM274.476 225.497L274.007 221.878H275.862L275.372 225.497H274.476ZM277.94 232V221.878H284.632L284.625 223.341H279.655V226.176H284.044V227.618H279.641V230.516L284.73 230.523V232H277.94ZM289.105 232.14C288.149 232.14 287.397 231.811 286.851 231.153C286.305 230.495 286.032 229.559 286.032 228.346C286.032 227.59 286.142 226.934 286.361 226.379C286.585 225.819 286.914 225.387 287.348 225.084C287.782 224.776 288.317 224.622 288.951 224.622C289.25 224.622 289.521 224.659 289.763 224.734C290.011 224.804 290.23 224.897 290.421 225.014C290.613 225.131 290.774 225.259 290.904 225.399C291.04 225.539 291.145 225.679 291.219 225.819V221.598H292.934V232H291.674L291.485 230.516C291.425 230.689 291.338 230.871 291.226 231.062C291.119 231.249 290.972 231.424 290.785 231.587C290.603 231.75 290.375 231.883 290.099 231.986C289.824 232.089 289.493 232.14 289.105 232.14ZM289.455 230.887C290.067 230.887 290.512 230.689 290.792 230.292C291.077 229.891 291.219 229.228 291.219 228.304C291.215 227.777 291.149 227.333 291.023 226.974C290.902 226.615 290.715 226.344 290.463 226.162C290.211 225.98 289.882 225.889 289.476 225.889C288.963 225.889 288.541 226.078 288.209 226.456C287.883 226.834 287.719 227.45 287.719 228.304C287.719 229.153 287.871 229.797 288.174 230.236C288.478 230.67 288.905 230.887 289.455 230.887ZM300.129 232L297.175 221.878H298.855L300.906 229.186L302.964 221.878H304.238L306.31 229.186L308.368 221.878H310.055L307.08 232H305.645L303.601 224.825L301.529 232H300.129ZM313.641 232.14C312.95 232.14 312.348 231.993 311.835 231.699C311.321 231.4 310.922 230.973 310.638 230.418C310.358 229.863 310.218 229.195 310.218 228.416C310.218 227.66 310.355 226.997 310.631 226.428C310.906 225.859 311.298 225.415 311.807 225.098C312.32 224.781 312.934 224.622 313.648 224.622C314.338 224.622 314.938 224.774 315.447 225.077C315.955 225.38 316.347 225.814 316.623 226.379C316.903 226.944 317.043 227.623 317.043 228.416C317.043 229.149 316.91 229.795 316.644 230.355C316.382 230.91 315.997 231.347 315.489 231.664C314.985 231.981 314.369 232.14 313.641 232.14ZM313.648 230.845C314.04 230.845 314.362 230.738 314.614 230.523C314.87 230.308 315.062 230.014 315.188 229.641C315.314 229.268 315.377 228.843 315.377 228.367C315.377 227.924 315.321 227.515 315.209 227.142C315.097 226.769 314.912 226.47 314.656 226.246C314.404 226.017 314.068 225.903 313.648 225.903C313.251 225.903 312.922 226.008 312.661 226.218C312.404 226.423 312.213 226.713 312.087 227.086C311.961 227.455 311.898 227.882 311.898 228.367C311.898 228.806 311.954 229.214 312.066 229.592C312.178 229.965 312.362 230.269 312.619 230.502C312.875 230.731 313.218 230.845 313.648 230.845ZM321.639 232.14C320.948 232.14 320.346 231.993 319.833 231.699C319.319 231.4 318.92 230.973 318.636 230.418C318.356 229.863 318.216 229.195 318.216 228.416C318.216 227.66 318.353 226.997 318.629 226.428C318.904 225.859 319.296 225.415 319.805 225.098C320.318 224.781 320.932 224.622 321.646 224.622C322.336 224.622 322.936 224.774 323.445 225.077C323.953 225.38 324.345 225.814 324.621 226.379C324.901 226.944 325.041 227.623 325.041 228.416C325.041 229.149 324.908 229.795 324.642 230.355C324.38 230.91 323.995 231.347 323.487 231.664C322.983 231.981 322.367 232.14 321.639 232.14ZM321.646 230.845C322.038 230.845 322.36 230.738 322.612 230.523C322.868 230.308 323.06 230.014 323.186 229.641C323.312 229.268 323.375 228.843 323.375 228.367C323.375 227.924 323.319 227.515 323.207 227.142C323.095 226.769 322.91 226.47 322.654 226.246C322.402 226.017 322.066 225.903 321.646 225.903C321.249 225.903 320.92 226.008 320.659 226.218C320.402 226.423 320.211 226.713 320.085 227.086C319.959 227.455 319.896 227.882 319.896 228.367C319.896 228.806 319.952 229.214 320.064 229.592C320.176 229.965 320.36 230.269 320.617 230.502C320.873 230.731 321.216 230.845 321.646 230.845ZM329.287 232.14C328.33 232.14 327.579 231.811 327.033 231.153C326.487 230.495 326.214 229.559 326.214 228.346C326.214 227.59 326.323 226.934 326.543 226.379C326.767 225.819 327.096 225.387 327.53 225.084C327.964 224.776 328.498 224.622 329.133 224.622C329.431 224.622 329.702 224.659 329.945 224.734C330.192 224.804 330.411 224.897 330.603 225.014C330.794 225.131 330.955 225.259 331.086 225.399C331.221 225.539 331.326 225.679 331.401 225.819V221.598H333.116V232H331.856L331.667 230.516C331.606 230.689 331.52 230.871 331.408 231.062C331.3 231.249 331.153 231.424 330.967 231.587C330.785 231.75 330.556 231.883 330.281 231.986C330.005 232.089 329.674 232.14 329.287 232.14ZM329.637 230.887C330.248 230.887 330.694 230.689 330.974 230.292C331.258 229.891 331.401 229.228 331.401 228.304C331.396 227.777 331.331 227.333 331.205 226.974C331.083 226.615 330.897 226.344 330.645 226.162C330.393 225.98 330.064 225.889 329.658 225.889C329.144 225.889 328.722 226.078 328.391 226.456C328.064 226.834 327.901 227.45 327.901 228.304C327.901 229.153 328.052 229.797 328.356 230.236C328.659 230.67 329.086 230.887 329.637 230.887ZM335.303 225.497L334.834 221.878H336.689L336.199 225.497H335.303Z" fill="black"/>
<path d="M457.249 232V224.762H458.915V225.798C459.027 225.611 459.179 225.432 459.37 225.259C459.566 225.086 459.807 224.946 460.091 224.839C460.376 224.732 460.71 224.678 461.092 224.678C461.54 224.678 461.956 224.767 462.338 224.944C462.726 225.121 463.036 225.399 463.269 225.777C463.507 226.155 463.626 226.643 463.626 227.24V232H461.918V227.443C461.918 226.967 461.788 226.615 461.526 226.386C461.265 226.153 460.936 226.036 460.539 226.036C460.269 226.036 460.012 226.083 459.769 226.176C459.527 226.265 459.328 226.402 459.174 226.589C459.025 226.771 458.95 227 458.95 227.275V232H457.249ZM467.504 232.14C467.042 232.14 466.627 232.056 466.258 231.888C465.894 231.715 465.607 231.47 465.397 231.153C465.192 230.831 465.089 230.441 465.089 229.984C465.089 229.186 465.376 228.584 465.95 228.178C466.529 227.772 467.448 227.56 468.708 227.541L469.793 227.513V227.023C469.793 226.64 469.679 226.342 469.45 226.127C469.226 225.908 468.876 225.8 468.4 225.805C468.046 225.81 467.724 225.894 467.434 226.057C467.145 226.216 466.954 226.484 466.86 226.862H465.411C465.439 226.367 465.582 225.954 465.838 225.623C466.1 225.287 466.457 225.037 466.909 224.874C467.362 224.706 467.885 224.622 468.477 224.622C469.168 224.622 469.73 224.713 470.164 224.895C470.598 225.077 470.918 225.341 471.123 225.686C471.329 226.027 471.431 226.44 471.431 226.925V232H469.996L469.856 230.698C469.6 231.244 469.271 231.622 468.869 231.832C468.473 232.037 468.018 232.14 467.504 232.14ZM468.057 230.985C468.267 230.985 468.475 230.948 468.68 230.873C468.886 230.794 469.07 230.689 469.233 230.558C469.401 230.423 469.534 230.273 469.632 230.11C469.735 229.947 469.789 229.776 469.793 229.599V228.458L468.904 228.472C468.466 228.477 468.081 228.523 467.749 228.612C467.423 228.701 467.168 228.843 466.986 229.039C466.804 229.23 466.713 229.487 466.713 229.809C466.713 230.178 466.842 230.467 467.098 230.677C467.355 230.882 467.675 230.985 468.057 230.985ZM473.245 232V224.762H474.904V225.798C475.114 225.481 475.399 225.205 475.758 224.972C476.122 224.739 476.584 224.622 477.144 224.622C477.401 224.622 477.66 224.666 477.921 224.755C478.187 224.844 478.432 224.974 478.656 225.147C478.885 225.32 479.067 225.534 479.202 225.791C479.431 225.45 479.734 225.17 480.112 224.951C480.495 224.732 480.924 224.622 481.4 224.622C481.662 224.622 481.93 224.664 482.205 224.748C482.485 224.832 482.742 224.972 482.975 225.168C483.209 225.364 483.398 225.632 483.542 225.973C483.687 226.309 483.759 226.731 483.759 227.24V232H482.058V227.443C482.058 227.084 481.995 226.801 481.869 226.596C481.743 226.391 481.58 226.246 481.379 226.162C481.183 226.073 480.973 226.029 480.749 226.029C480.549 226.029 480.339 226.069 480.119 226.148C479.905 226.227 479.72 226.358 479.566 226.54C479.417 226.722 479.342 226.967 479.342 227.275V232H477.641V227.17C477.641 226.918 477.576 226.708 477.445 226.54C477.315 226.372 477.149 226.246 476.948 226.162C476.752 226.073 476.552 226.029 476.346 226.029C476.136 226.029 475.922 226.073 475.702 226.162C475.488 226.251 475.308 226.386 475.163 226.568C475.019 226.75 474.946 226.986 474.946 227.275V232H473.245ZM488.79 232.14C488.095 232.14 487.481 231.993 486.949 231.699C486.422 231.4 486.009 230.976 485.71 230.425C485.416 229.874 485.269 229.219 485.269 228.458C485.269 227.716 485.402 227.058 485.668 226.484C485.939 225.905 486.328 225.45 486.837 225.119C487.35 224.788 487.969 224.622 488.692 224.622C489.406 224.622 490.006 224.774 490.491 225.077C490.976 225.38 491.345 225.805 491.597 226.351C491.849 226.892 491.975 227.527 491.975 228.255V228.773H486.97C486.965 229.184 487.031 229.548 487.166 229.865C487.301 230.182 487.502 230.432 487.768 230.614C488.034 230.791 488.363 230.88 488.755 230.88C489.156 230.88 489.504 230.791 489.798 230.614C490.097 230.432 490.295 230.157 490.393 229.788H491.947C491.863 230.292 491.662 230.719 491.345 231.069C491.032 231.419 490.65 231.685 490.197 231.867C489.749 232.049 489.28 232.14 488.79 232.14ZM486.963 227.716H490.365C490.365 227.366 490.302 227.051 490.176 226.771C490.055 226.486 489.87 226.262 489.623 226.099C489.376 225.931 489.063 225.847 488.685 225.847C488.312 225.847 487.997 225.938 487.74 226.12C487.483 226.302 487.29 226.538 487.159 226.827C487.028 227.112 486.963 227.408 486.963 227.716ZM493.365 226.932V224.986H495.29V226.932H493.365ZM493.365 231.958V230.026H495.29V231.958H493.365ZM500.652 225.497L500.183 221.878H502.038L501.548 225.497H500.652ZM504.116 232V221.878H510.808L510.801 223.341H505.831V226.176H510.22V227.618H505.817V230.516L510.906 230.523V232H504.116ZM515.281 232.14C514.324 232.14 513.573 231.811 513.027 231.153C512.481 230.495 512.208 229.559 512.208 228.346C512.208 227.59 512.318 226.934 512.537 226.379C512.761 225.819 513.09 225.387 513.524 225.084C513.958 224.776 514.492 224.622 515.127 224.622C515.426 224.622 515.696 224.659 515.939 224.734C516.186 224.804 516.406 224.897 516.597 225.014C516.788 225.131 516.949 225.259 517.08 225.399C517.215 225.539 517.32 225.679 517.395 225.819V221.598H519.11V232H517.85L517.661 230.516C517.6 230.689 517.514 230.871 517.402 231.062C517.295 231.249 517.148 231.424 516.961 231.587C516.779 231.75 516.55 231.883 516.275 231.986C516 232.089 515.668 232.14 515.281 232.14ZM515.631 230.887C516.242 230.887 516.688 230.689 516.968 230.292C517.253 229.891 517.395 229.228 517.395 228.304C517.39 227.777 517.325 227.333 517.199 226.974C517.078 226.615 516.891 226.344 516.639 226.162C516.387 225.98 516.058 225.889 515.652 225.889C515.139 225.889 514.716 226.078 514.385 226.456C514.058 226.834 513.895 227.45 513.895 228.304C513.895 229.153 514.047 229.797 514.35 230.236C514.653 230.67 515.08 230.887 515.631 230.887ZM526.305 232L523.351 221.878H525.031L527.082 229.186L529.14 221.878H530.414L532.486 229.186L534.544 221.878H536.231L533.256 232H531.821L529.777 224.825L527.705 232H526.305ZM539.817 232.14C539.126 232.14 538.524 231.993 538.011 231.699C537.497 231.4 537.098 230.973 536.814 230.418C536.534 229.863 536.394 229.195 536.394 228.416C536.394 227.66 536.531 226.997 536.807 226.428C537.082 225.859 537.474 225.415 537.983 225.098C538.496 224.781 539.11 224.622 539.824 224.622C540.514 224.622 541.114 224.774 541.623 225.077C542.131 225.38 542.523 225.814 542.799 226.379C543.079 226.944 543.219 227.623 543.219 228.416C543.219 229.149 543.086 229.795 542.82 230.355C542.558 230.91 542.173 231.347 541.665 231.664C541.161 231.981 540.545 232.14 539.817 232.14ZM539.824 230.845C540.216 230.845 540.538 230.738 540.79 230.523C541.046 230.308 541.238 230.014 541.364 229.641C541.49 229.268 541.553 228.843 541.553 228.367C541.553 227.924 541.497 227.515 541.385 227.142C541.273 226.769 541.088 226.47 540.832 226.246C540.58 226.017 540.244 225.903 539.824 225.903C539.427 225.903 539.098 226.008 538.837 226.218C538.58 226.423 538.389 226.713 538.263 227.086C538.137 227.455 538.074 227.882 538.074 228.367C538.074 228.806 538.13 229.214 538.242 229.592C538.354 229.965 538.538 230.269 538.795 230.502C539.051 230.731 539.394 230.845 539.824 230.845ZM547.815 232.14C547.124 232.14 546.522 231.993 546.009 231.699C545.495 231.4 545.096 230.973 544.812 230.418C544.532 229.863 544.392 229.195 544.392 228.416C544.392 227.66 544.529 226.997 544.805 226.428C545.08 225.859 545.472 225.415 545.981 225.098C546.494 224.781 547.108 224.622 547.822 224.622C548.512 224.622 549.112 224.774 549.621 225.077C550.129 225.38 550.521 225.814 550.797 226.379C551.077 226.944 551.217 227.623 551.217 228.416C551.217 229.149 551.084 229.795 550.818 230.355C550.556 230.91 550.171 231.347 549.663 231.664C549.159 231.981 548.543 232.14 547.815 232.14ZM547.822 230.845C548.214 230.845 548.536 230.738 548.788 230.523C549.044 230.308 549.236 230.014 549.362 229.641C549.488 229.268 549.551 228.843 549.551 228.367C549.551 227.924 549.495 227.515 549.383 227.142C549.271 226.769 549.086 226.47 548.83 226.246C548.578 226.017 548.242 225.903 547.822 225.903C547.425 225.903 547.096 226.008 546.835 226.218C546.578 226.423 546.387 226.713 546.261 227.086C546.135 227.455 546.072 227.882 546.072 228.367C546.072 228.806 546.128 229.214 546.24 229.592C546.352 229.965 546.536 230.269 546.793 230.502C547.049 230.731 547.392 230.845 547.822 230.845ZM555.463 232.14C554.506 232.14 553.755 231.811 553.209 231.153C552.663 230.495 552.39 229.559 552.39 228.346C552.39 227.59 552.499 226.934 552.719 226.379C552.943 225.819 553.272 225.387 553.706 225.084C554.14 224.776 554.674 224.622 555.309 224.622C555.607 224.622 555.878 224.659 556.121 224.734C556.368 224.804 556.587 224.897 556.779 225.014C556.97 225.131 557.131 225.259 557.262 225.399C557.397 225.539 557.502 225.679 557.577 225.819V221.598H559.292V232H558.032L557.843 230.516C557.782 230.689 557.696 230.871 557.584 231.062C557.476 231.249 557.329 231.424 557.143 231.587C556.961 231.75 556.732 231.883 556.457 231.986C556.181 232.089 555.85 232.14 555.463 232.14ZM555.813 230.887C556.424 230.887 556.87 230.689 557.15 230.292C557.434 229.891 557.577 229.228 557.577 228.304C557.572 227.777 557.507 227.333 557.381 226.974C557.259 226.615 557.073 226.344 556.821 226.162C556.569 225.98 556.24 225.889 555.834 225.889C555.32 225.889 554.898 226.078 554.567 226.456C554.24 226.834 554.077 227.45 554.077 228.304C554.077 229.153 554.228 229.797 554.532 230.236C554.835 230.67 555.262 230.887 555.813 230.887ZM561.478 225.497L561.009 221.878H562.864L562.374 225.497H561.478Z" fill="black"/>
<path d="M1.0412 17V9.762H2.7072V10.798C2.8192 10.6113 2.97086 10.4317 3.1622 10.259C3.3582 10.0863 3.59853 9.94633 3.8832 9.839C4.16786 9.73167 4.50153 9.678 4.8842 9.678C5.3322 9.678 5.74753 9.76667 6.1302 9.944C6.51753 10.1213 6.82786 10.399 7.0612 10.777C7.2992 11.155 7.4182 11.6427 7.4182 12.24V17H5.7102V12.443C5.7102 11.967 5.57953 11.6147 5.3182 11.386C5.05686 11.1527 4.72786 11.036 4.3312 11.036C4.06053 11.036 3.80386 11.0827 3.5612 11.176C3.31853 11.2647 3.1202 11.4023 2.9662 11.589C2.81686 11.771 2.7422 11.9997 2.7422 12.275V17H1.0412ZM11.2963 17.14C10.8343 17.14 10.419 17.056 10.0503 16.888C9.6863 16.7153 9.3993 16.4703 9.1893 16.153C8.98397 15.831 8.8813 15.4413 8.8813 14.984C8.8813 14.186 9.1683 13.584 9.7423 13.178C10.321 12.772 11.2403 12.5597 12.5003 12.541L13.5853 12.513V12.023C13.5853 11.6403 13.471 11.3417 13.2423 11.127C13.0183 10.9077 12.6683 10.8003 12.1923 10.805C11.8376 10.8097 11.5156 10.8937 11.2263 11.057C10.937 11.2157 10.7456 11.484 10.6523 11.862H9.2033C9.2313 11.3673 9.37364 10.9543 9.6303 10.623C9.89164 10.287 10.2486 10.0373 10.7013 9.874C11.154 9.706 11.6766 9.622 12.2693 9.622C12.96 9.622 13.5223 9.713 13.9563 9.895C14.3903 10.077 14.71 10.3407 14.9153 10.686C15.1206 11.0267 15.2233 11.4397 15.2233 11.925V17H13.7883L13.6483 15.698C13.3916 16.244 13.0626 16.622 12.6613 16.832C12.2646 17.0373 11.8096 17.14 11.2963 17.14ZM11.8493 15.985C12.0593 15.985 12.267 15.9477 12.4723 15.873C12.6776 15.7937 12.862 15.6887 13.0253 15.558C13.1933 15.4227 13.3263 15.2733 13.4243 15.11C13.527 14.9467 13.5806 14.7763 13.5853 14.599V13.458L12.6963 13.472C12.2576 13.4767 11.8726 13.5233 11.5413 13.612C11.2146 13.7007 10.9603 13.843 10.7783 14.039C10.5963 14.2303 10.5053 14.487 10.5053 14.809C10.5053 15.1777 10.6336 15.467 10.8903 15.677C11.147 15.8823 11.4666 15.985 11.8493 15.985ZM17.0373 17V9.762H18.6963V10.798C18.9063 10.4807 19.191 10.2053 19.5503 9.972C19.9143 9.73867 20.3763 9.622 20.9363 9.622C21.193 9.622 21.452 9.66633 21.7133 9.755C21.9793 9.84367 22.2243 9.97433 22.4483 10.147C22.677 10.3197 22.859 10.5343 22.9943 10.791C23.223 10.4503 23.5263 10.1703 23.9043 9.951C24.287 9.73167 24.7163 9.622 25.1923 9.622C25.4536 9.622 25.722 9.664 25.9973 9.748C26.2773 9.832 26.534 9.972 26.7673 10.168C27.0006 10.364 27.1896 10.6323 27.3343 10.973C27.479 11.309 27.5513 11.7313 27.5513 12.24V17H25.8503V12.443C25.8503 12.0837 25.7873 11.8013 25.6613 11.596C25.5353 11.3907 25.372 11.246 25.1713 11.162C24.9753 11.0733 24.7653 11.029 24.5413 11.029C24.3406 11.029 24.1306 11.0687 23.9113 11.148C23.6966 11.2273 23.5123 11.358 23.3583 11.54C23.209 11.722 23.1343 11.967 23.1343 12.275V17H21.4333V12.17C21.4333 11.918 21.368 11.708 21.2373 11.54C21.1066 11.372 20.941 11.246 20.7403 11.162C20.5443 11.0733 20.3436 11.029 20.1383 11.029C19.9283 11.029 19.7136 11.0733 19.4943 11.162C19.2796 11.2507 19.1 11.386 18.9553 11.568C18.8106 11.75 18.7383 11.9857 18.7383 12.275V17H17.0373ZM32.582 17.14C31.8867 17.14 31.273 16.993 30.741 16.699C30.2137 16.4003 29.8007 15.9757 29.502 15.425C29.208 14.8743 29.061 14.2187 29.061 13.458C29.061 12.716 29.194 12.058 29.46 11.484C29.7307 10.9053 30.1203 10.4503 30.629 10.119C31.1423 9.78767 31.7607 9.622 32.484 9.622C33.198 9.622 33.7977 9.77367 34.283 10.077C34.7683 10.3803 35.137 10.805 35.389 11.351C35.641 11.8923 35.767 12.527 35.767 13.255V13.773H30.762C30.7573 14.1837 30.8227 14.5477 30.958 14.865C31.0933 15.1823 31.294 15.432 31.56 15.614C31.826 15.7913 32.155 15.88 32.547 15.88C32.9483 15.88 33.296 15.7913 33.59 15.614C33.8887 15.432 34.087 15.1567 34.185 14.788H35.739C35.655 15.292 35.4543 15.719 35.137 16.069C34.8243 16.419 34.4417 16.685 33.989 16.867C33.541 17.049 33.072 17.14 32.582 17.14ZM30.755 12.716H34.157C34.157 12.366 34.094 12.051 33.968 11.771C33.8467 11.4863 33.6623 11.2623 33.415 11.099C33.1677 10.931 32.855 10.847 32.477 10.847C32.1037 10.847 31.7887 10.938 31.532 11.12C31.2753 11.302 31.0817 11.5377 30.951 11.827C30.8203 12.1117 30.755 12.408 30.755 12.716ZM37.1567 11.932V9.986H39.0817V11.932H37.1567ZM37.1567 16.958V15.026H39.0817V16.958H37.1567ZM44.4443 10.497L43.9753 6.878H45.8303L45.3403 10.497H44.4443ZM48.8526 17.14C48.5166 17.14 48.183 17.105 47.8516 17.035C47.525 16.9697 47.294 16.916 47.1586 16.874L47.2216 15.292C47.3616 15.334 47.5226 15.3853 47.7046 15.446C47.8866 15.502 48.099 15.53 48.3416 15.53C48.8083 15.53 49.1233 15.404 49.2866 15.152C49.4546 14.9 49.5386 14.487 49.5386 13.913V6.878H51.2466V14.375C51.2466 14.977 51.179 15.4833 51.0436 15.894C50.913 16.3 50.675 16.6103 50.3296 16.825C49.9843 17.035 49.492 17.14 48.8526 17.14ZM56.2237 17.14C55.5331 17.14 54.9311 16.993 54.4177 16.699C53.9044 16.4003 53.5054 15.9733 53.2207 15.418C52.9407 14.8627 52.8007 14.1953 52.8007 13.416C52.8007 12.66 52.9384 11.9973 53.2137 11.428C53.4891 10.8587 53.8811 10.4153 54.3897 10.098C54.9031 9.78067 55.5167 9.622 56.2307 9.622C56.9214 9.622 57.5211 9.77367 58.0297 10.077C58.5384 10.3803 58.9304 10.8143 59.2057 11.379C59.4857 11.9437 59.6257 12.6227 59.6257 13.416C59.6257 14.1487 59.4927 14.795 59.2267 15.355C58.9654 15.9103 58.5804 16.3467 58.0717 16.664C57.5677 16.9813 56.9517 17.14 56.2237 17.14ZM56.2307 15.845C56.6227 15.845 56.9447 15.7377 57.1967 15.523C57.4534 15.3083 57.6447 15.0143 57.7707 14.641C57.8967 14.2677 57.9597 13.843 57.9597 13.367C57.9597 12.9237 57.9037 12.5153 57.7917 12.142C57.6797 11.7687 57.4954 11.47 57.2387 11.246C56.9867 11.0173 56.6507 10.903 56.2307 10.903C55.8341 10.903 55.5051 11.008 55.2437 11.218C54.9871 11.4233 54.7957 11.7127 54.6697 12.086C54.5437 12.4547 54.4807 12.8817 54.4807 13.367C54.4807 13.8057 54.5367 14.214 54.6487 14.592C54.7607 14.9653 54.9451 15.2687 55.2017 15.502C55.4584 15.7307 55.8014 15.845 56.2307 15.845ZM61.1838 17V6.598H62.8638V10.812C62.9804 10.63 63.1344 10.455 63.3258 10.287C63.5171 10.1143 63.7504 9.97433 64.0258 9.867C64.3058 9.755 64.6394 9.699 65.0268 9.699C65.4888 9.699 65.9111 9.78767 66.2938 9.965C66.6764 10.1423 66.9821 10.399 67.2108 10.735C67.4394 11.0663 67.5538 11.463 67.5538 11.925V17H65.8458V12.212C65.8458 11.8387 65.7128 11.5493 65.4468 11.344C65.1854 11.1387 64.8541 11.036 64.4528 11.036C64.1868 11.036 63.9324 11.0827 63.6898 11.176C63.4471 11.2693 63.2511 11.4093 63.1018 11.596C62.9571 11.778 62.8848 12.0067 62.8848 12.282V17H61.1838ZM69.3732 17V9.762H71.0392V10.798C71.1512 10.6113 71.3029 10.4317 71.4942 10.259C71.6902 10.0863 71.9306 9.94633 72.2152 9.839C72.4999 9.73167 72.8336 9.678 73.2162 9.678C73.6642 9.678 74.0796 9.76667 74.4622 9.944C74.8496 10.1213 75.1599 10.399 75.3932 10.777C75.6312 11.155 75.7502 11.6427 75.7502 12.24V17H74.0422V12.443C74.0422 11.967 73.9116 11.6147 73.6502 11.386C73.3889 11.1527 73.0599 11.036 72.6632 11.036C72.3926 11.036 72.1359 11.0827 71.8932 11.176C71.6506 11.2647 71.4522 11.4023 71.2982 11.589C71.1489 11.771 71.0742 11.9997 71.0742 12.275V17H69.3732ZM77.5764 17V9.762H79.2424V10.798C79.3544 10.6113 79.506 10.4317 79.6974 10.259C79.8934 10.0863 80.1337 9.94633 80.4184 9.839C80.703 9.73167 81.0367 9.678 81.4194 9.678C81.8674 9.678 82.2827 9.76667 82.6654 9.944C83.0527 10.1213 83.363 10.399 83.5964 10.777C83.8344 11.155 83.9534 11.6427 83.9534 12.24V17H82.2454V12.443C82.2454 11.967 82.1147 11.6147 81.8534 11.386C81.592 11.1527 81.263 11.036 80.8664 11.036C80.5957 11.036 80.339 11.0827 80.0964 11.176C79.8537 11.2647 79.6554 11.4023 79.5014 11.589C79.352 11.771 79.2774 11.9997 79.2774 12.275V17H77.5764ZM86.4784 19.31C86.0117 19.31 85.6874 19.2727 85.5054 19.198C85.3234 19.128 85.2324 19.093 85.2324 19.093V18.001L85.9604 18.022C86.2544 18.036 86.4924 18.0197 86.6744 17.973C86.861 17.9263 87.0057 17.861 87.1084 17.777C87.211 17.6977 87.2857 17.6113 87.3324 17.518C87.3837 17.4293 87.4234 17.3523 87.4514 17.287L87.6404 16.755L84.8194 9.762H86.5134L88.4384 14.879L90.3564 9.762H92.0224L89.0404 17.266C88.8164 17.812 88.5737 18.232 88.3124 18.526C88.0557 18.8247 87.7734 19.03 87.4654 19.142C87.162 19.254 86.833 19.31 86.4784 19.31ZM96.7025 17V6.878C96.7445 6.878 96.8682 6.878 97.0735 6.878C97.2789 6.878 97.5215 6.878 97.8015 6.878C98.0862 6.878 98.3732 6.88033 98.6625 6.885C98.9565 6.885 99.2109 6.88733 99.4255 6.892C100.658 6.91533 101.659 7.12767 102.429 7.529C103.203 7.92567 103.77 8.49267 104.13 9.23C104.494 9.96267 104.676 10.847 104.676 11.883C104.676 12.9657 104.482 13.8873 104.095 14.648C103.712 15.4087 103.124 15.992 102.331 16.398C101.542 16.7993 100.539 17 99.3205 17H96.7025ZM98.4315 15.593H99.3485C100.044 15.593 100.658 15.474 101.19 15.236C101.722 14.9933 102.137 14.6013 102.436 14.06C102.739 13.5187 102.891 12.7953 102.891 11.89C102.891 11.0127 102.751 10.3103 102.471 9.783C102.191 9.25567 101.789 8.87533 101.267 8.642C100.744 8.404 100.119 8.285 99.3905 8.285H98.4315V15.593ZM109.555 17.14C108.859 17.14 108.246 16.993 107.714 16.699C107.186 16.4003 106.773 15.9757 106.475 15.425C106.181 14.8743 106.034 14.2187 106.034 13.458C106.034 12.716 106.167 12.058 106.433 11.484C106.703 10.9053 107.093 10.4503 107.602 10.119C108.115 9.78767 108.733 9.622 109.457 9.622C110.171 9.622 110.77 9.77367 111.256 10.077C111.741 10.3803 112.11 10.805 112.362 11.351C112.614 11.8923 112.74 12.527 112.74 13.255V13.773H107.735C107.73 14.1837 107.795 14.5477 107.931 14.865C108.066 15.1823 108.267 15.432 108.533 15.614C108.799 15.7913 109.128 15.88 109.52 15.88C109.921 15.88 110.269 15.7913 110.563 15.614C110.861 15.432 111.06 15.1567 111.158 14.788H112.712C112.628 15.292 112.427 15.719 112.11 16.069C111.797 16.419 111.414 16.685 110.962 16.867C110.514 17.049 110.045 17.14 109.555 17.14ZM107.728 12.716H111.13C111.13 12.366 111.067 12.051 110.941 11.771C110.819 11.4863 110.635 11.2623 110.388 11.099C110.14 10.931 109.828 10.847 109.45 10.847C109.076 10.847 108.761 10.938 108.505 11.12C108.248 11.302 108.054 11.5377 107.924 11.827C107.793 12.1117 107.728 12.408 107.728 12.716ZM114.367 19.254V9.762H116.068L116.082 10.903C116.176 10.7443 116.295 10.588 116.439 10.434C116.589 10.28 116.759 10.1423 116.95 10.021C117.146 9.89967 117.363 9.804 117.601 9.734C117.839 9.65933 118.101 9.622 118.385 9.622C118.941 9.622 119.433 9.755 119.862 10.021C120.292 10.2823 120.628 10.686 120.87 11.232C121.118 11.778 121.241 12.4687 121.241 13.304C121.241 14.158 121.115 14.8697 120.863 15.439C120.611 16.0083 120.259 16.4353 119.806 16.72C119.354 17 118.829 17.14 118.231 17.14C117.956 17.14 117.704 17.1027 117.475 17.028C117.251 16.9533 117.051 16.8507 116.873 16.72C116.696 16.5893 116.54 16.447 116.404 16.293C116.274 16.139 116.164 15.978 116.075 15.81V19.254H114.367ZM117.853 15.866C118.367 15.866 118.791 15.663 119.127 15.257C119.463 14.8463 119.631 14.2047 119.631 13.332C119.631 12.576 119.473 11.981 119.155 11.547C118.843 11.1083 118.409 10.889 117.853 10.889C117.256 10.889 116.808 11.12 116.509 11.582C116.211 12.0393 116.061 12.6227 116.061 13.332C116.061 13.7893 116.127 14.2117 116.257 14.599C116.393 14.9817 116.591 15.2897 116.852 15.523C117.118 15.7517 117.452 15.866 117.853 15.866ZM122.789 19.254V9.762H124.49L124.504 10.903C124.598 10.7443 124.717 10.588 124.861 10.434C125.011 10.28 125.181 10.1423 125.372 10.021C125.568 9.89967 125.785 9.804 126.023 9.734C126.261 9.65933 126.523 9.622 126.807 9.622C127.363 9.622 127.855 9.755 128.284 10.021C128.714 10.2823 129.05 10.686 129.292 11.232C129.54 11.778 129.663 12.4687 129.663 13.304C129.663 14.158 129.537 14.8697 129.285 15.439C129.033 16.0083 128.681 16.4353 128.228 16.72C127.776 17 127.251 17.14 126.653 17.14C126.378 17.14 126.126 17.1027 125.897 17.028C125.673 16.9533 125.473 16.8507 125.295 16.72C125.118 16.5893 124.962 16.447 124.826 16.293C124.696 16.139 124.586 15.978 124.497 15.81V19.254H122.789ZM126.275 15.866C126.789 15.866 127.213 15.663 127.549 15.257C127.885 14.8463 128.053 14.2047 128.053 13.332C128.053 12.576 127.895 11.981 127.577 11.547C127.265 11.1083 126.831 10.889 126.275 10.889C125.678 10.889 125.23 11.12 124.931 11.582C124.633 12.0393 124.483 12.6227 124.483 13.332C124.483 13.7893 124.549 14.2117 124.679 14.599C124.815 14.9817 125.013 15.2897 125.274 15.523C125.54 15.7517 125.874 15.866 126.275 15.866ZM130.686 10.497L130.217 6.878H132.072L131.582 10.497H130.686Z" fill="black"/>
<path d="M134.198 162.569C133.804 162.183 133.171 162.188 132.784 162.582C132.397 162.977 132.403 163.61 132.797 163.997L134.198 162.569ZM136.437 166.169L135.737 166.883L135.737 166.883L136.437 166.169ZM158.406 187.737L159.107 187.023L159.107 187.023L158.406 187.737ZM158.42 189.151C158.814 189.538 159.447 189.532 159.834 189.138C160.221 188.744 160.215 188.111 159.821 187.724L158.42 189.151ZM194.581 221.849C194.186 221.462 193.553 221.468 193.166 221.862C192.779 222.256 192.785 222.889 193.179 223.276L194.581 221.849ZM216.562 244.831L215.862 245.544L215.862 245.544L216.562 244.831ZM219.512 248.717C220.064 248.712 220.507 248.26 220.502 247.708L220.419 238.708C220.414 238.156 219.962 237.712 219.41 237.717C218.858 237.723 218.414 238.174 218.419 238.727L218.493 246.726L210.494 246.8C209.941 246.805 209.498 247.257 209.503 247.809C209.508 248.361 209.96 248.805 210.512 248.8L219.512 248.717ZM133.498 163.283L132.797 163.997L135.737 166.883L136.437 166.169L137.138 165.456L134.198 162.569L133.498 163.283ZM136.437 166.169L135.737 166.883L157.706 188.451L158.406 187.737L159.107 187.023L137.138 165.456L136.437 166.169ZM158.406 187.737L157.706 188.451L158.42 189.151L159.12 188.438L159.821 187.724L159.107 187.023L158.406 187.737ZM193.88 222.563L193.179 223.276L215.862 245.544L216.562 244.831L217.263 244.117L194.581 221.849L193.88 222.563ZM216.562 244.831L215.862 245.544L218.802 248.431L219.502 247.717L220.203 247.003L217.263 244.117L216.562 244.831Z" fill="#1A1B1D"/>
<path d="M145.323 211H143.693L147.357 200.818H149.132L152.796 211H151.165L148.286 202.668H148.207L145.323 211ZM145.597 207.013H150.887V208.305H145.597V207.013ZM162.09 204.129H160.539C160.479 203.798 160.368 203.506 160.206 203.254C160.044 203.002 159.845 202.789 159.609 202.613C159.374 202.437 159.111 202.305 158.819 202.215C158.531 202.126 158.224 202.081 157.899 202.081C157.312 202.081 156.787 202.228 156.323 202.523C155.862 202.818 155.498 203.251 155.229 203.821C154.964 204.391 154.832 205.087 154.832 205.909C154.832 206.738 154.964 207.437 155.229 208.007C155.498 208.577 155.864 209.008 156.328 209.3C156.792 209.591 157.314 209.737 157.894 209.737C158.216 209.737 158.521 209.694 158.809 209.608C159.101 209.518 159.364 209.388 159.599 209.215C159.835 209.043 160.034 208.832 160.196 208.584C160.362 208.332 160.476 208.044 160.539 207.719L162.09 207.724C162.007 208.224 161.847 208.685 161.608 209.106C161.373 209.523 161.069 209.885 160.698 210.19C160.33 210.491 159.909 210.725 159.435 210.891C158.961 211.056 158.444 211.139 157.884 211.139C157.003 211.139 156.217 210.93 155.528 210.513C154.838 210.092 154.295 209.49 153.897 208.708C153.503 207.926 153.305 206.993 153.305 205.909C153.305 204.822 153.504 203.889 153.902 203.11C154.3 202.328 154.843 201.728 155.533 201.31C156.222 200.889 157.006 200.679 157.884 200.679C158.424 200.679 158.928 200.757 159.396 200.913C159.866 201.065 160.289 201.291 160.663 201.589C161.038 201.884 161.348 202.245 161.593 202.673C161.838 203.097 162.004 203.582 162.09 204.129ZM163.272 202.141V200.818H171.152V202.141H167.975V211H166.444V202.141H163.272ZM172.74 211V200.818H179.123V202.141H174.276V205.243H178.79V206.56H174.276V209.678H179.183V211H172.74ZM184.317 211H181.021V200.818H184.422C185.419 200.818 186.276 201.022 186.992 201.43C187.708 201.834 188.256 202.416 188.638 203.175C189.022 203.93 189.214 204.837 189.214 205.894C189.214 206.955 189.02 207.866 188.633 208.629C188.248 209.391 187.691 209.978 186.962 210.389C186.233 210.796 185.351 211 184.317 211ZM182.557 209.658H184.233C185.008 209.658 185.653 209.512 186.167 209.22C186.68 208.925 187.065 208.499 187.32 207.943C187.575 207.382 187.703 206.7 187.703 205.894C187.703 205.095 187.575 204.418 187.32 203.861C187.068 203.304 186.692 202.881 186.192 202.593C185.691 202.305 185.07 202.161 184.327 202.161H182.557V209.658ZM195.745 211V212.263H189.277V211H195.745ZM198.232 200.818V211H196.696V200.818H198.232ZM208.533 200.818V211H207.121L201.946 203.533H201.851V211H200.315V200.818H201.737L206.917 208.295H207.012V200.818H208.533Z" fill="black" fill-opacity="0.8"/>
<path d="M444.167 162.574C444.566 162.191 444.579 161.558 444.196 161.16C443.814 160.761 443.181 160.748 442.782 161.131L444.167 162.574ZM438.062 167.047L437.37 166.326L437.37 166.326L438.062 167.047ZM415.084 187.716C414.686 188.098 414.673 188.732 415.055 189.13C415.438 189.528 416.071 189.541 416.469 189.159L415.084 187.716ZM380.916 223.284C381.314 222.902 381.327 222.268 380.945 221.87C380.562 221.472 379.929 221.459 379.531 221.841L380.916 223.284ZM379.502 223.255L378.809 222.534L378.809 222.534L379.502 223.255ZM357.937 243.953L357.245 243.231L357.245 243.231L357.937 243.953ZM351.525 249.127C351.514 249.679 351.952 250.136 352.505 250.148L361.503 250.332C362.055 250.343 362.512 249.905 362.523 249.353C362.534 248.801 362.096 248.344 361.544 248.332L353.545 248.169L353.709 240.17C353.721 239.618 353.282 239.161 352.73 239.15C352.178 239.139 351.721 239.577 351.71 240.129L351.525 249.127ZM443.475 161.852L442.782 161.131L437.37 166.326L438.062 167.047L438.755 167.769L444.167 162.574L443.475 161.852ZM438.062 167.047L437.37 166.326L415.084 187.716L415.777 188.438L416.469 189.159L438.755 167.769L438.062 167.047ZM380.223 222.563L379.531 221.841L378.809 222.534L379.502 223.255L380.194 223.976L380.916 223.284L380.223 222.563ZM379.502 223.255L378.809 222.534L357.245 243.231L357.937 243.953L358.63 244.674L380.194 223.976L379.502 223.255ZM357.937 243.953L357.245 243.231L351.833 248.426L352.525 249.148L353.217 249.869L358.63 244.674L357.937 243.953Z" fill="#1A1B1D"/>
<path d="M366.823 211H365.193L368.857 200.818H370.632L374.296 211H372.665L369.786 202.668H369.707L366.823 211ZM367.097 207.013H372.387V208.305H367.097V207.013ZM383.59 204.129H382.039C381.979 203.798 381.868 203.506 381.706 203.254C381.544 203.002 381.345 202.789 381.109 202.613C380.874 202.437 380.611 202.305 380.319 202.215C380.031 202.126 379.724 202.081 379.399 202.081C378.812 202.081 378.287 202.228 377.823 202.523C377.362 202.818 376.998 203.251 376.729 203.821C376.464 204.391 376.332 205.087 376.332 205.909C376.332 206.738 376.464 207.437 376.729 208.007C376.998 208.577 377.364 209.008 377.828 209.3C378.292 209.591 378.814 209.737 379.394 209.737C379.716 209.737 380.021 209.694 380.309 209.608C380.601 209.518 380.864 209.388 381.099 209.215C381.335 209.043 381.534 208.832 381.696 208.584C381.862 208.332 381.976 208.044 382.039 207.719L383.59 207.724C383.507 208.224 383.347 208.685 383.108 209.106C382.873 209.523 382.569 209.885 382.198 210.19C381.83 210.491 381.409 210.725 380.935 210.891C380.461 211.056 379.944 211.139 379.384 211.139C378.503 211.139 377.717 210.93 377.028 210.513C376.338 210.092 375.795 209.49 375.397 208.708C375.003 207.926 374.805 206.993 374.805 205.909C374.805 204.822 375.004 203.889 375.402 203.11C375.8 202.328 376.343 201.728 377.033 201.31C377.722 200.889 378.506 200.679 379.384 200.679C379.924 200.679 380.428 200.757 380.896 200.913C381.366 201.065 381.789 201.29 382.163 201.589C382.538 201.884 382.848 202.245 383.093 202.673C383.338 203.097 383.504 203.582 383.59 204.129ZM384.772 202.141V200.818H392.652V202.141H389.475V211H387.944V202.141H384.772ZM394.24 211V200.818H400.623V202.141H395.776V205.243H400.29V206.56H395.776V209.678H400.683V211H394.24ZM405.817 211H402.521V200.818H405.922C406.919 200.818 407.776 201.022 408.492 201.43C409.208 201.834 409.756 202.416 410.138 203.175C410.522 203.93 410.714 204.837 410.714 205.894C410.714 206.955 410.52 207.866 410.133 208.629C409.748 209.391 409.191 209.978 408.462 210.388C407.733 210.796 406.851 211 405.817 211ZM404.057 209.658H405.733C406.508 209.658 407.153 209.512 407.667 209.22C408.18 208.925 408.565 208.499 408.82 207.942C409.075 207.382 409.203 206.7 409.203 205.894C409.203 205.095 409.075 204.418 408.82 203.861C408.568 203.304 408.192 202.881 407.692 202.593C407.191 202.305 406.57 202.161 405.827 202.161H404.057V209.658ZM417.245 211V212.263H410.777V211H417.245ZM419.732 200.818V211H418.196V200.818H419.732ZM430.033 200.818V211H428.621L423.446 203.533H423.351V211H421.815V200.818H423.237L428.417 208.295H428.512V200.818H430.033Z" fill="black" fill-opacity="0.8"/>
</svg>
