<svg width="376" height="548" viewBox="0 0 376 548" fill="none" xmlns="http://www.w3.org/2000/svg">
<g clip-path="url(#clip0_747_67)">
<path d="M248 139C248 103.654 276.654 75 312 75V75C347.346 75 376 103.654 376 139V139C376 174.346 347.346 203 312 203V203C276.654 203 248 174.346 248 139V139Z" fill="#F16767"/>
<path d="M268.14 58V50.762H269.806V51.798C269.918 51.6113 270.069 51.4317 270.261 51.259C270.457 51.0863 270.697 50.9463 270.982 50.839C271.266 50.7317 271.6 50.678 271.983 50.678C272.431 50.678 272.846 50.7667 273.229 50.944C273.616 51.1213 273.926 51.399 274.16 51.777C274.398 52.155 274.517 52.6427 274.517 53.24V58H272.809V53.443C272.809 52.967 272.678 52.6147 272.417 52.386C272.155 52.1527 271.826 52.036 271.43 52.036C271.159 52.036 270.902 52.0827 270.66 52.176C270.417 52.2647 270.219 52.4023 270.065 52.589C269.915 52.771 269.841 52.9997 269.841 53.275V58H268.14ZM278.395 58.14C277.933 58.14 277.518 58.056 277.149 57.888C276.785 57.7153 276.498 57.4703 276.288 57.153C276.083 56.831 275.98 56.4413 275.98 55.984C275.98 55.186 276.267 54.584 276.841 54.178C277.42 53.772 278.339 53.5597 279.599 53.541L280.684 53.513V53.023C280.684 52.6403 280.57 52.3417 280.341 52.127C280.117 51.9077 279.767 51.8003 279.291 51.805C278.936 51.8097 278.614 51.8937 278.325 52.057C278.036 52.2157 277.844 52.484 277.751 52.862H276.302C276.33 52.3673 276.472 51.9543 276.729 51.623C276.99 51.287 277.347 51.0373 277.8 50.874C278.253 50.706 278.775 50.622 279.368 50.622C280.059 50.622 280.621 50.713 281.055 50.895C281.489 51.077 281.809 51.3407 282.014 51.686C282.219 52.0267 282.322 52.4397 282.322 52.925V58H280.887L280.747 56.698C280.49 57.244 280.161 57.622 279.76 57.832C279.363 58.0373 278.908 58.14 278.395 58.14ZM278.948 56.985C279.158 56.985 279.366 56.9477 279.571 56.873C279.776 56.7937 279.961 56.6887 280.124 56.558C280.292 56.4227 280.425 56.2733 280.523 56.11C280.626 55.9467 280.679 55.7763 280.684 55.599V54.458L279.795 54.472C279.356 54.4767 278.971 54.5233 278.64 54.612C278.313 54.7007 278.059 54.843 277.877 55.039C277.695 55.2303 277.604 55.487 277.604 55.809C277.604 56.1777 277.732 56.467 277.989 56.677C278.246 56.8823 278.565 56.985 278.948 56.985ZM284.136 58V50.762H285.795V51.798C286.005 51.4807 286.29 51.2053 286.649 50.972C287.013 50.7387 287.475 50.622 288.035 50.622C288.292 50.622 288.551 50.6663 288.812 50.755C289.078 50.8437 289.323 50.9743 289.547 51.147C289.776 51.3197 289.958 51.5343 290.093 51.791C290.322 51.4503 290.625 51.1703 291.003 50.951C291.386 50.7317 291.815 50.622 292.291 50.622C292.552 50.622 292.821 50.664 293.096 50.748C293.376 50.832 293.633 50.972 293.866 51.168C294.099 51.364 294.288 51.6323 294.433 51.973C294.578 52.309 294.65 52.7313 294.65 53.24V58H292.949V53.443C292.949 53.0837 292.886 52.8013 292.76 52.596C292.634 52.3907 292.471 52.246 292.27 52.162C292.074 52.0733 291.864 52.029 291.64 52.029C291.439 52.029 291.229 52.0687 291.01 52.148C290.795 52.2273 290.611 52.358 290.457 52.54C290.308 52.722 290.233 52.967 290.233 53.275V58H288.532V53.17C288.532 52.918 288.467 52.708 288.336 52.54C288.205 52.372 288.04 52.246 287.839 52.162C287.643 52.0733 287.442 52.029 287.237 52.029C287.027 52.029 286.812 52.0733 286.593 52.162C286.378 52.2507 286.199 52.386 286.054 52.568C285.909 52.75 285.837 52.9857 285.837 53.275V58H284.136ZM299.681 58.14C298.985 58.14 298.372 57.993 297.84 57.699C297.312 57.4003 296.899 56.9757 296.601 56.425C296.307 55.8743 296.16 55.2187 296.16 54.458C296.16 53.716 296.293 53.058 296.559 52.484C296.829 51.9053 297.219 51.4503 297.728 51.119C298.241 50.7877 298.859 50.622 299.583 50.622C300.297 50.622 300.896 50.7737 301.382 51.077C301.867 51.3803 302.236 51.805 302.488 52.351C302.74 52.8923 302.866 53.527 302.866 54.255V54.773H297.861C297.856 55.1837 297.921 55.5477 298.057 55.865C298.192 56.1823 298.393 56.432 298.659 56.614C298.925 56.7913 299.254 56.88 299.646 56.88C300.047 56.88 300.395 56.7913 300.689 56.614C300.987 56.432 301.186 56.1567 301.284 55.788H302.838C302.754 56.292 302.553 56.719 302.236 57.069C301.923 57.419 301.54 57.685 301.088 57.867C300.64 58.049 300.171 58.14 299.681 58.14ZM297.854 53.716H301.256C301.256 53.366 301.193 53.051 301.067 52.771C300.945 52.4863 300.761 52.2623 300.514 52.099C300.266 51.931 299.954 51.847 299.576 51.847C299.202 51.847 298.887 51.938 298.631 52.12C298.374 52.302 298.18 52.5377 298.05 52.827C297.919 53.1117 297.854 53.408 297.854 53.716ZM304.255 52.932V50.986H306.18V52.932H304.255ZM304.255 57.958V56.026H306.18V57.958H304.255ZM311.543 51.497L311.074 47.878H312.929L312.439 51.497H311.543ZM318.639 58.14C318.135 58.14 317.652 58.0793 317.19 57.958C316.728 57.832 316.306 57.6477 315.923 57.405C315.545 57.1577 315.233 56.852 314.985 56.488C314.738 56.1193 314.586 55.69 314.53 55.2H316.294C316.369 55.5407 316.516 55.8277 316.735 56.061C316.959 56.2943 317.242 56.4717 317.582 56.593C317.923 56.7143 318.303 56.775 318.723 56.775C319.097 56.775 319.444 56.719 319.766 56.607C320.088 56.495 320.35 56.3293 320.55 56.11C320.751 55.886 320.851 55.6107 320.851 55.284C320.851 54.9153 320.721 54.6283 320.459 54.423C320.203 54.213 319.834 54.0473 319.353 53.926L317.372 53.457C316.859 53.3403 316.411 53.17 316.028 52.946C315.65 52.722 315.356 52.428 315.146 52.064C314.936 51.6953 314.831 51.245 314.831 50.713C314.831 50.1063 314.997 49.5813 315.328 49.138C315.664 48.6947 316.119 48.354 316.693 48.116C317.267 47.8733 317.914 47.752 318.632 47.752C319.454 47.752 320.147 47.8897 320.711 48.165C321.276 48.4357 321.705 48.7997 321.999 49.257C322.293 49.7143 322.443 50.216 322.447 50.762H320.725C320.688 50.356 320.569 50.0363 320.368 49.803C320.168 49.565 319.913 49.3923 319.605 49.285C319.297 49.1777 318.957 49.124 318.583 49.124C317.921 49.124 317.428 49.2663 317.106 49.551C316.784 49.8357 316.623 50.1693 316.623 50.552C316.623 50.9113 316.742 51.196 316.98 51.406C317.218 51.616 317.582 51.7793 318.072 51.896L319.955 52.337C320.585 52.4677 321.092 52.6683 321.474 52.939C321.857 53.2097 322.135 53.5317 322.307 53.905C322.485 54.2737 322.573 54.682 322.573 55.13C322.573 55.718 322.405 56.2383 322.069 56.691C321.738 57.1437 321.278 57.4983 320.69 57.755C320.102 58.0117 319.419 58.14 318.639 58.14ZM326.949 58.056C326.375 58.056 325.929 57.9813 325.612 57.832C325.299 57.678 325.082 57.461 324.961 57.181C324.84 56.901 324.779 56.5673 324.779 56.18V51.966H323.603V50.762H324.828L325.255 48.613H326.48V50.755H328.097V51.966H326.48L326.487 56.117C326.487 56.3317 326.51 56.4903 326.557 56.593C326.608 56.691 326.688 56.7563 326.795 56.789C326.907 56.817 327.054 56.831 327.236 56.831H328.132V57.909C328.034 57.9463 327.889 57.979 327.698 58.007C327.511 58.0397 327.262 58.056 326.949 58.056ZM332.698 58.14C332.003 58.14 331.389 57.993 330.857 57.699C330.33 57.4003 329.917 56.9757 329.618 56.425C329.324 55.8743 329.177 55.2187 329.177 54.458C329.177 53.716 329.31 53.058 329.576 52.484C329.847 51.9053 330.237 51.4503 330.745 51.119C331.259 50.7877 331.877 50.622 332.6 50.622C333.314 50.622 333.914 50.7737 334.399 51.077C334.885 51.3803 335.253 51.805 335.505 52.351C335.757 52.8923 335.883 53.527 335.883 54.255V54.773H330.878C330.874 55.1837 330.939 55.5477 331.074 55.865C331.21 56.1823 331.41 56.432 331.676 56.614C331.942 56.7913 332.271 56.88 332.663 56.88C333.065 56.88 333.412 56.7913 333.706 56.614C334.005 56.432 334.203 56.1567 334.301 55.788H335.855C335.771 56.292 335.571 56.719 335.253 57.069C334.941 57.419 334.558 57.685 334.105 57.867C333.657 58.049 333.188 58.14 332.698 58.14ZM330.871 53.716H334.273C334.273 53.366 334.21 53.051 334.084 52.771C333.963 52.4863 333.779 52.2623 333.531 52.099C333.284 51.931 332.971 51.847 332.593 51.847C332.22 51.847 331.905 51.938 331.648 52.12C331.392 52.302 331.198 52.5377 331.067 52.827C330.937 53.1117 330.871 53.408 330.871 53.716ZM338.147 58V51.966H336.719V50.762H338.147V49.684C338.147 49.1053 338.305 48.6597 338.623 48.347C338.945 48.0343 339.409 47.878 340.016 47.878H341.542L341.549 49.04H340.541C340.265 49.04 340.076 49.1123 339.974 49.257C339.871 49.397 339.82 49.6187 339.82 49.922V50.762H341.479V51.966H339.848V58H338.147ZM345.032 58.14C344.57 58.14 344.154 58.056 343.786 57.888C343.422 57.7153 343.135 57.4703 342.925 57.153C342.719 56.831 342.617 56.4413 342.617 55.984C342.617 55.186 342.904 54.584 343.478 54.178C344.056 53.772 344.976 53.5597 346.236 53.541L347.321 53.513V53.023C347.321 52.6403 347.206 52.3417 346.978 52.127C346.754 51.9077 346.404 51.8003 345.928 51.805C345.573 51.8097 345.251 51.8937 344.962 52.057C344.672 52.2157 344.481 52.484 344.388 52.862H342.939C342.967 52.3673 343.109 51.9543 343.366 51.623C343.627 51.287 343.984 51.0373 344.437 50.874C344.889 50.706 345.412 50.622 346.005 50.622C346.695 50.622 347.258 50.713 347.692 50.895C348.126 51.077 348.445 51.3407 348.651 51.686C348.856 52.0267 348.959 52.4397 348.959 52.925V58H347.524L347.384 56.698C347.127 57.244 346.798 57.622 346.397 57.832C346 58.0373 345.545 58.14 345.032 58.14ZM345.585 56.985C345.795 56.985 346.002 56.9477 346.208 56.873C346.413 56.7937 346.597 56.6887 346.761 56.558C346.929 56.4227 347.062 56.2733 347.16 56.11C347.262 55.9467 347.316 55.7763 347.321 55.599V54.458L346.432 54.472C345.993 54.4767 345.608 54.5233 345.277 54.612C344.95 54.7007 344.696 54.843 344.514 55.039C344.332 55.2303 344.241 55.487 344.241 55.809C344.241 56.1777 344.369 56.467 344.626 56.677C344.882 56.8823 345.202 56.985 345.585 56.985ZM350.773 58V50.762H352.439V51.798C352.551 51.6113 352.702 51.4317 352.894 51.259C353.09 51.0863 353.33 50.9463 353.615 50.839C353.899 50.7317 354.233 50.678 354.616 50.678C355.064 50.678 355.479 50.7667 355.862 50.944C356.249 51.1213 356.559 51.399 356.793 51.777C357.031 52.155 357.15 52.6427 357.15 53.24V58H355.442V53.443C355.442 52.967 355.311 52.6147 355.05 52.386C354.788 52.1527 354.459 52.036 354.063 52.036C353.792 52.036 353.535 52.0827 353.293 52.176C353.05 52.2647 352.852 52.4023 352.698 52.589C352.548 52.771 352.474 52.9997 352.474 53.275V58H350.773ZM358.588 51.497L358.119 47.878H359.974L359.484 51.497H358.588Z" fill="black"/>
<path d="M0 139C0 103.654 28.6538 75 64 75V75C99.3462 75 128 103.654 128 139V139C128 174.346 99.3462 203 64 203V203C28.6538 203 0 174.346 0 139V139Z" fill="#F16767"/>
<path d="M41.1566 144.14C40.662 144.14 40.193 144.082 39.7496 143.965C39.3063 143.844 38.9026 143.664 38.5386 143.426C38.1793 143.188 37.8806 142.894 37.6426 142.544C37.4093 142.189 37.2623 141.779 37.2016 141.312H38.5596C38.6436 141.695 38.8093 142.017 39.0566 142.278C39.3086 142.539 39.619 142.735 39.9876 142.866C40.361 142.997 40.7693 143.062 41.2126 143.062C41.642 143.062 42.0363 142.994 42.3956 142.859C42.7596 142.724 43.0513 142.528 43.2706 142.271C43.49 142.01 43.5996 141.697 43.5996 141.333C43.5996 140.932 43.469 140.61 43.2076 140.367C42.9463 140.12 42.5426 139.921 41.9966 139.772L39.9106 139.233C39.4393 139.116 39.0216 138.953 38.6576 138.743C38.2983 138.528 38.016 138.248 37.8106 137.903C37.6053 137.553 37.5026 137.119 37.5026 136.601C37.5026 136.027 37.6613 135.528 37.9786 135.103C38.296 134.674 38.7253 134.342 39.2666 134.109C39.8126 133.871 40.4286 133.752 41.1146 133.752C41.908 133.752 42.5753 133.89 43.1166 134.165C43.6626 134.44 44.0756 134.802 44.3556 135.25C44.6356 135.698 44.7756 136.176 44.7756 136.685H43.4456C43.4036 136.223 43.2683 135.859 43.0396 135.593C42.811 135.322 42.5263 135.129 42.1856 135.012C41.845 134.891 41.474 134.83 41.0726 134.83C40.3493 134.83 39.801 134.996 39.4276 135.327C39.059 135.654 38.8746 136.043 38.8746 136.496C38.8746 136.911 39.0076 137.238 39.2736 137.476C39.5396 137.714 39.9316 137.898 40.4496 138.029L42.4796 138.554C43.0816 138.694 43.56 138.897 43.9146 139.163C44.274 139.429 44.5306 139.739 44.6846 140.094C44.8433 140.444 44.9226 140.824 44.9226 141.235C44.9226 141.795 44.7663 142.294 44.4536 142.733C44.141 143.172 43.7023 143.517 43.1376 143.769C42.5776 144.016 41.9173 144.14 41.1566 144.14ZM48.4546 144L46.2146 136.762H47.4186L49.0706 142.327H49.1826L50.8136 136.762H51.7936L53.4876 142.313H53.6066L55.1886 136.762H56.4066L54.2086 144H52.9346L51.2896 138.659L49.7146 144H48.4546ZM60.7677 144.14C60.0957 144.14 59.503 143.993 58.9897 143.699C58.4764 143.405 58.075 142.983 57.7857 142.432C57.4964 141.881 57.3517 141.221 57.3517 140.451C57.3517 139.69 57.4824 139.023 57.7437 138.449C58.005 137.875 58.383 137.427 58.8777 137.105C59.377 136.783 59.9767 136.622 60.6767 136.622C61.358 136.622 61.9344 136.769 62.4057 137.063C62.877 137.357 63.234 137.772 63.4767 138.309C63.724 138.841 63.8477 139.473 63.8477 140.206V140.682H58.6607C58.6607 141.139 58.7354 141.555 58.8847 141.928C59.0387 142.297 59.2697 142.591 59.5777 142.81C59.8857 143.029 60.2754 143.139 60.7467 143.139C61.2087 143.139 61.6054 143.032 61.9367 142.817C62.2727 142.602 62.4874 142.292 62.5807 141.886H63.7987C63.7147 142.376 63.5187 142.789 63.2107 143.125C62.9074 143.461 62.541 143.715 62.1117 143.888C61.687 144.056 61.239 144.14 60.7677 144.14ZM58.6677 139.807H62.6017C62.6017 139.392 62.5317 139.018 62.3917 138.687C62.2517 138.351 62.037 138.087 61.7477 137.896C61.463 137.7 61.1037 137.602 60.6697 137.602C60.217 137.602 59.8414 137.712 59.5427 137.931C59.244 138.146 59.0224 138.423 58.8777 138.764C58.733 139.1 58.663 139.448 58.6677 139.807ZM68.2774 144.14C67.3347 144.14 66.588 143.818 66.0374 143.174C65.4914 142.53 65.2184 141.59 65.2184 140.353C65.2184 139.602 65.328 138.946 65.5474 138.386C65.7667 137.826 66.0957 137.392 66.5344 137.084C66.973 136.776 67.519 136.622 68.1724 136.622C68.5224 136.622 68.8304 136.666 69.0964 136.755C69.3624 136.844 69.5934 136.956 69.7894 137.091C69.9854 137.226 70.144 137.366 70.2654 137.511C70.3914 137.656 70.4847 137.789 70.5454 137.91V133.598H71.8544V144H70.8604L70.7204 142.516C70.6737 142.656 70.599 142.819 70.4964 143.006C70.3937 143.188 70.249 143.368 70.0624 143.545C69.8804 143.718 69.6424 143.86 69.3484 143.972C69.0544 144.084 68.6974 144.14 68.2774 144.14ZM68.5084 143.146C69.2364 143.146 69.7567 142.924 70.0694 142.481C70.3867 142.033 70.5454 141.303 70.5454 140.29C70.5407 139.725 70.4707 139.245 70.3354 138.848C70.2 138.451 69.9854 138.15 69.6914 137.945C69.402 137.735 69.0147 137.63 68.5294 137.63C67.9367 137.63 67.4537 137.842 67.0804 138.267C66.707 138.692 66.5204 139.366 66.5204 140.29C66.5204 141.195 66.6884 141.898 67.0244 142.397C67.3604 142.896 67.855 143.146 68.5084 143.146ZM74.1089 144V136.762H75.3619V144H74.1089ZM74.0739 135.229V133.885H75.3969V135.229H74.0739ZM80.1369 144.14C79.6329 144.14 79.1639 144.063 78.7299 143.909C78.3006 143.75 77.9436 143.505 77.6589 143.174C77.3742 142.838 77.1969 142.411 77.1269 141.893H78.3029C78.3636 142.178 78.4802 142.416 78.6529 142.607C78.8256 142.794 79.0379 142.936 79.2899 143.034C79.5466 143.127 79.8266 143.174 80.1299 143.174C80.6199 143.174 81.0142 143.083 81.3129 142.901C81.6116 142.719 81.7609 142.439 81.7609 142.061C81.7609 141.795 81.6816 141.583 81.5229 141.424C81.3689 141.261 81.1262 141.142 80.7949 141.067L79.2969 140.696C78.7136 140.556 78.2469 140.337 77.8969 140.038C77.5516 139.739 77.3766 139.322 77.3719 138.785C77.3719 138.36 77.4746 137.987 77.6799 137.665C77.8852 137.343 78.1909 137.089 78.5969 136.902C79.0076 136.715 79.5186 136.622 80.1299 136.622C80.9186 136.622 81.5532 136.799 82.0339 137.154C82.5146 137.504 82.7666 138.02 82.7899 138.701H81.6419C81.5952 138.356 81.4412 138.083 81.1799 137.882C80.9186 137.677 80.5639 137.574 80.1159 137.574C79.6586 137.574 79.2829 137.667 78.9889 137.854C78.6996 138.036 78.5549 138.321 78.5549 138.708C78.5549 138.965 78.6576 139.168 78.8629 139.317C79.0729 139.462 79.3762 139.583 79.7729 139.681L81.2289 140.045C81.5602 140.134 81.8356 140.25 82.0549 140.395C82.2742 140.54 82.4469 140.701 82.5729 140.878C82.6989 141.055 82.7876 141.242 82.8389 141.438C82.8949 141.629 82.9229 141.814 82.9229 141.991C82.9229 142.434 82.8132 142.817 82.5939 143.139C82.3746 143.456 82.0572 143.704 81.6419 143.881C81.2266 144.054 80.7249 144.14 80.1369 144.14ZM84.6149 144V133.598H85.8749V137.826C85.9963 137.625 86.1596 137.439 86.3649 137.266C86.5703 137.089 86.8199 136.946 87.1139 136.839C87.4079 136.727 87.7486 136.671 88.1359 136.671C88.6073 136.671 89.0343 136.76 89.4169 136.937C89.7996 137.11 90.1029 137.357 90.3269 137.679C90.5509 138.001 90.6629 138.384 90.6629 138.827V144H89.3679V139.086C89.3679 138.652 89.2186 138.318 88.9199 138.085C88.6259 137.847 88.2409 137.728 87.7649 137.728C87.4429 137.728 87.1396 137.782 86.8549 137.889C86.5703 137.992 86.3393 138.15 86.1619 138.365C85.9893 138.575 85.9029 138.843 85.9029 139.17V144H84.6149Z" fill="white"/>
<path d="M12.966 17V9.762H14.632V10.798C14.744 10.6113 14.8957 10.4317 15.087 10.259C15.283 10.0863 15.5233 9.94633 15.808 9.839C16.0927 9.73167 16.4263 9.678 16.809 9.678C17.257 9.678 17.6723 9.76667 18.055 9.944C18.4423 10.1213 18.7527 10.399 18.986 10.777C19.224 11.155 19.343 11.6427 19.343 12.24V17H17.635V12.443C17.635 11.967 17.5043 11.6147 17.243 11.386C16.9817 11.1527 16.6527 11.036 16.256 11.036C15.9853 11.036 15.7287 11.0827 15.486 11.176C15.2433 11.2647 15.045 11.4023 14.891 11.589C14.7417 11.771 14.667 11.9997 14.667 12.275V17H12.966ZM23.2211 17.14C22.7591 17.14 22.3438 17.056 21.9751 16.888C21.6111 16.7153 21.3241 16.4703 21.1141 16.153C20.9088 15.831 20.8061 15.4413 20.8061 14.984C20.8061 14.186 21.0931 13.584 21.6671 13.178C22.2458 12.772 23.1651 12.5597 24.4251 12.541L25.5101 12.513V12.023C25.5101 11.6403 25.3958 11.3417 25.1671 11.127C24.9431 10.9077 24.5931 10.8003 24.1171 10.805C23.7624 10.8097 23.4404 10.8937 23.1511 11.057C22.8618 11.2157 22.6704 11.484 22.5771 11.862H21.1281C21.1561 11.3673 21.2984 10.9543 21.5551 10.623C21.8164 10.287 22.1734 10.0373 22.6261 9.874C23.0788 9.706 23.6014 9.622 24.1941 9.622C24.8848 9.622 25.4471 9.713 25.8811 9.895C26.3151 10.077 26.6348 10.3407 26.8401 10.686C27.0454 11.0267 27.1481 11.4397 27.1481 11.925V17H25.7131L25.5731 15.698C25.3164 16.244 24.9874 16.622 24.5861 16.832C24.1894 17.0373 23.7344 17.14 23.2211 17.14ZM23.7741 15.985C23.9841 15.985 24.1918 15.9477 24.3971 15.873C24.6024 15.7937 24.7868 15.6887 24.9501 15.558C25.1181 15.4227 25.2511 15.2733 25.3491 15.11C25.4518 14.9467 25.5054 14.7763 25.5101 14.599V13.458L24.6211 13.472C24.1824 13.4767 23.7974 13.5233 23.4661 13.612C23.1394 13.7007 22.8851 13.843 22.7031 14.039C22.5211 14.2303 22.4301 14.487 22.4301 14.809C22.4301 15.1777 22.5584 15.467 22.8151 15.677C23.0718 15.8823 23.3914 15.985 23.7741 15.985ZM28.9621 17V9.762H30.6211V10.798C30.8311 10.4807 31.1158 10.2053 31.4751 9.972C31.8391 9.73867 32.3011 9.622 32.8611 9.622C33.1178 9.622 33.3768 9.66633 33.6381 9.755C33.9041 9.84367 34.1491 9.97433 34.3731 10.147C34.6018 10.3197 34.7838 10.5343 34.9191 10.791C35.1478 10.4503 35.4511 10.1703 35.8291 9.951C36.2118 9.73167 36.6411 9.622 37.1171 9.622C37.3784 9.622 37.6468 9.664 37.9221 9.748C38.2021 9.832 38.4588 9.972 38.6921 10.168C38.9254 10.364 39.1144 10.6323 39.2591 10.973C39.4038 11.309 39.4761 11.7313 39.4761 12.24V17H37.7751V12.443C37.7751 12.0837 37.7121 11.8013 37.5861 11.596C37.4601 11.3907 37.2968 11.246 37.0961 11.162C36.9001 11.0733 36.6901 11.029 36.4661 11.029C36.2654 11.029 36.0554 11.0687 35.8361 11.148C35.6214 11.2273 35.4371 11.358 35.2831 11.54C35.1338 11.722 35.0591 11.967 35.0591 12.275V17H33.3581V12.17C33.3581 11.918 33.2928 11.708 33.1621 11.54C33.0314 11.372 32.8658 11.246 32.6651 11.162C32.4691 11.0733 32.2684 11.029 32.0631 11.029C31.8531 11.029 31.6384 11.0733 31.4191 11.162C31.2044 11.2507 31.0248 11.386 30.8801 11.568C30.7354 11.75 30.6631 11.9857 30.6631 12.275V17H28.9621ZM44.5068 17.14C43.8115 17.14 43.1978 16.993 42.6658 16.699C42.1385 16.4003 41.7255 15.9757 41.4268 15.425C41.1328 14.8743 40.9858 14.2187 40.9858 13.458C40.9858 12.716 41.1188 12.058 41.3848 11.484C41.6555 10.9053 42.0451 10.4503 42.5538 10.119C43.0671 9.78767 43.6855 9.622 44.4088 9.622C45.1228 9.622 45.7225 9.77367 46.2078 10.077C46.6931 10.3803 47.0618 10.805 47.3138 11.351C47.5658 11.8923 47.6918 12.527 47.6918 13.255V13.773H42.6868C42.6821 14.1837 42.7475 14.5477 42.8828 14.865C43.0181 15.1823 43.2188 15.432 43.4848 15.614C43.7508 15.7913 44.0798 15.88 44.4718 15.88C44.8731 15.88 45.2208 15.7913 45.5148 15.614C45.8135 15.432 46.0118 15.1567 46.1098 14.788H47.6638C47.5798 15.292 47.3791 15.719 47.0618 16.069C46.7491 16.419 46.3665 16.685 45.9138 16.867C45.4658 17.049 44.9968 17.14 44.5068 17.14ZM42.6798 12.716H46.0818C46.0818 12.366 46.0188 12.051 45.8928 11.771C45.7715 11.4863 45.5871 11.2623 45.3398 11.099C45.0925 10.931 44.7798 10.847 44.4018 10.847C44.0285 10.847 43.7135 10.938 43.4568 11.12C43.2001 11.302 43.0065 11.5377 42.8758 11.827C42.7451 12.1117 42.6798 12.408 42.6798 12.716ZM49.0815 11.932V9.986H51.0065V11.932H49.0815ZM49.0815 16.958V15.026H51.0065V16.958H49.0815ZM56.3691 10.497L55.9001 6.878H57.7551L57.2651 10.497H56.3691ZM59.0834 17L62.7164 6.878H64.5644L68.1974 17H66.4894L65.5864 14.459H61.7084L60.7984 17H59.0834ZM62.1144 12.947H65.1594L63.6404 8.53L62.1144 12.947ZM69.6359 17V9.762H71.3019V10.798C71.4139 10.6113 71.5656 10.4317 71.7569 10.259C71.9529 10.0863 72.1933 9.94633 72.4779 9.839C72.7626 9.73167 73.0963 9.678 73.4789 9.678C73.9269 9.678 74.3423 9.76667 74.7249 9.944C75.1123 10.1213 75.4226 10.399 75.6559 10.777C75.8939 11.155 76.0129 11.6427 76.0129 12.24V17H74.3049V12.443C74.3049 11.967 74.1743 11.6147 73.9129 11.386C73.6516 11.1527 73.3226 11.036 72.9259 11.036C72.6553 11.036 72.3986 11.0827 72.1559 11.176C71.9133 11.2647 71.7149 11.4023 71.5609 11.589C71.4116 11.771 71.3369 11.9997 71.3369 12.275V17H69.6359ZM80.527 17.14C79.5704 17.14 78.819 16.811 78.273 16.153C77.727 15.495 77.454 14.5593 77.454 13.346C77.454 12.59 77.5637 11.9343 77.783 11.379C78.007 10.819 78.336 10.3873 78.77 10.084C79.204 9.776 79.7384 9.622 80.373 9.622C80.6717 9.622 80.9424 9.65933 81.185 9.734C81.4324 9.804 81.6517 9.89733 81.843 10.014C82.0344 10.1307 82.1954 10.259 82.326 10.399C82.4614 10.539 82.5664 10.679 82.641 10.819V6.598H84.356V17H83.096L82.907 15.516C82.8464 15.6887 82.76 15.8707 82.648 16.062C82.5407 16.2487 82.3937 16.4237 82.207 16.587C82.025 16.7503 81.7964 16.8833 81.521 16.986C81.2457 17.0887 80.9144 17.14 80.527 17.14ZM80.877 15.887C81.4884 15.887 81.934 15.6887 82.214 15.292C82.4987 14.8907 82.641 14.228 82.641 13.304C82.6364 12.7767 82.571 12.3333 82.445 11.974C82.3237 11.6147 82.137 11.344 81.885 11.162C81.633 10.98 81.304 10.889 80.898 10.889C80.3847 10.889 79.9624 11.078 79.631 11.456C79.3044 11.834 79.141 12.45 79.141 13.304C79.141 14.1533 79.2927 14.7973 79.596 15.236C79.8994 15.67 80.3264 15.887 80.877 15.887ZM87.2196 19.31C86.7529 19.31 86.4286 19.2727 86.2466 19.198C86.0646 19.128 85.9736 19.093 85.9736 19.093V18.001L86.7016 18.022C86.9956 18.036 87.2336 18.0197 87.4156 17.973C87.6023 17.9263 87.7469 17.861 87.8496 17.777C87.9523 17.6977 88.0269 17.6113 88.0736 17.518C88.1249 17.4293 88.1646 17.3523 88.1926 17.287L88.3816 16.755L85.5606 9.762H87.2546L89.1796 14.879L91.0976 9.762H92.7636L89.7816 17.266C89.5576 17.812 89.3149 18.232 89.0536 18.526C88.7969 18.8247 88.5146 19.03 88.2066 19.142C87.9033 19.254 87.5743 19.31 87.2196 19.31ZM94.4042 10.497L93.9352 6.878H95.7902L95.3002 10.497H94.4042ZM15.059 41.14C14.597 41.14 14.1817 41.056 13.813 40.888C13.449 40.7153 13.162 40.4703 12.952 40.153C12.7467 39.831 12.644 39.4413 12.644 38.984C12.644 38.186 12.931 37.584 13.505 37.178C14.0837 36.772 15.003 36.5597 16.263 36.541L17.348 36.513V36.023C17.348 35.6403 17.2337 35.3417 17.005 35.127C16.781 34.9077 16.431 34.8003 15.955 34.805C15.6003 34.8097 15.2783 34.8937 14.989 35.057C14.6997 35.2157 14.5083 35.484 14.415 35.862H12.966C12.994 35.3673 13.1363 34.9543 13.393 34.623C13.6543 34.287 14.0113 34.0373 14.464 33.874C14.9167 33.706 15.4393 33.622 16.032 33.622C16.7227 33.622 17.285 33.713 17.719 33.895C18.153 34.077 18.4727 34.3407 18.678 34.686C18.8833 35.0267 18.986 35.4397 18.986 35.925V41H17.551L17.411 39.698C17.1543 40.244 16.8253 40.622 16.424 40.832C16.0273 41.0373 15.5723 41.14 15.059 41.14ZM15.612 39.985C15.822 39.985 16.0297 39.9477 16.235 39.873C16.4403 39.7937 16.6247 39.6887 16.788 39.558C16.956 39.4227 17.089 39.2733 17.187 39.11C17.2897 38.9467 17.3433 38.7763 17.348 38.599V37.458L16.459 37.472C16.0203 37.4767 15.6353 37.5233 15.304 37.612C14.9773 37.7007 14.723 37.843 14.541 38.039C14.359 38.2303 14.268 38.487 14.268 38.809C14.268 39.1777 14.3963 39.467 14.653 39.677C14.9097 39.8823 15.2293 39.985 15.612 39.985ZM24.02 43.394C22.802 43.394 21.8663 43.2307 21.213 42.904C20.5597 42.5773 20.233 42.1293 20.233 41.56C20.233 41.3033 20.296 41.0887 20.422 40.916C20.548 40.7433 20.6973 40.601 20.87 40.489C21.0427 40.377 21.2013 40.2907 21.346 40.23C21.4907 40.1693 21.584 40.125 21.626 40.097C21.5467 40.0503 21.4417 39.9897 21.311 39.915C21.1803 39.8403 21.0613 39.7377 20.954 39.607C20.8513 39.4763 20.8 39.306 20.8 39.096C20.8 38.8533 20.9143 38.6293 21.143 38.424C21.3763 38.2187 21.724 38.0717 22.186 37.983C21.7333 37.7637 21.3857 37.4673 21.143 37.094C20.9003 36.7207 20.779 36.3333 20.779 35.932C20.779 35.456 20.9167 35.0477 21.192 34.707C21.472 34.3663 21.8593 34.105 22.354 33.923C22.8487 33.741 23.425 33.65 24.083 33.65C24.5637 33.65 24.9627 33.7037 25.28 33.811C25.602 33.9183 25.9007 34.063 26.176 34.245C26.2693 34.2077 26.4 34.1563 26.568 34.091C26.736 34.021 26.9203 33.9463 27.121 33.867C27.3217 33.783 27.5153 33.7037 27.702 33.629C27.8887 33.5497 28.045 33.4843 28.171 33.433L28.164 34.84L26.911 35.064C26.9717 35.1993 27.0183 35.3463 27.051 35.505C27.0883 35.6637 27.107 35.8037 27.107 35.925C27.107 36.345 26.988 36.7347 26.75 37.094C26.5167 37.4487 26.1643 37.7333 25.693 37.948C25.2263 38.1627 24.643 38.27 23.943 38.27C23.873 38.27 23.7773 38.2677 23.656 38.263C23.5347 38.2583 23.4367 38.2537 23.362 38.249C22.984 38.263 22.725 38.3073 22.585 38.382C22.445 38.4567 22.375 38.5383 22.375 38.627C22.375 38.753 22.48 38.837 22.69 38.879C22.9 38.921 23.236 38.9583 23.698 38.991C23.8613 39.0003 24.076 39.012 24.342 39.026C24.608 39.04 24.9043 39.0587 25.231 39.082C26.057 39.1333 26.6823 39.341 27.107 39.705C27.5317 40.0643 27.744 40.531 27.744 41.105C27.744 41.7723 27.436 42.3207 26.82 42.75C26.204 43.1793 25.2707 43.394 24.02 43.394ZM24.307 42.393C24.9183 42.393 25.371 42.309 25.665 42.141C25.959 41.973 26.106 41.7257 26.106 41.399C26.106 41.147 26.0057 40.9417 25.805 40.783C25.6043 40.6243 25.3057 40.531 24.909 40.503L23.082 40.391C22.8813 40.377 22.69 40.4143 22.508 40.503C22.3307 40.587 22.186 40.706 22.074 40.86C21.962 41.0093 21.906 41.175 21.906 41.357C21.906 41.6977 22.0997 41.9543 22.487 42.127C22.879 42.3043 23.4857 42.393 24.307 42.393ZM23.999 37.269C24.4423 37.269 24.8017 37.157 25.077 36.933C25.3523 36.7043 25.49 36.3823 25.49 35.967C25.49 35.5377 25.3523 35.204 25.077 34.966C24.8017 34.7233 24.4423 34.602 23.999 34.602C23.5463 34.602 23.18 34.7233 22.9 34.966C22.6247 35.2087 22.487 35.5423 22.487 35.967C22.487 36.3683 22.62 36.6857 22.886 36.919C23.152 37.1523 23.523 37.269 23.999 37.269ZM32.5576 41.14C31.8622 41.14 31.2486 40.993 30.7166 40.699C30.1892 40.4003 29.7762 39.9757 29.4776 39.425C29.1836 38.8743 29.0366 38.2187 29.0366 37.458C29.0366 36.716 29.1696 36.058 29.4356 35.484C29.7062 34.9053 30.0959 34.4503 30.6046 34.119C31.1179 33.7877 31.7362 33.622 32.4596 33.622C33.1736 33.622 33.7732 33.7737 34.2586 34.077C34.7439 34.3803 35.1126 34.805 35.3646 35.351C35.6166 35.8923 35.7426 36.527 35.7426 37.255V37.773H30.7376C30.7329 38.1837 30.7982 38.5477 30.9336 38.865C31.0689 39.1823 31.2696 39.432 31.5356 39.614C31.8016 39.7913 32.1306 39.88 32.5226 39.88C32.9239 39.88 33.2716 39.7913 33.5656 39.614C33.8642 39.432 34.0626 39.1567 34.1606 38.788H35.7146C35.6306 39.292 35.4299 39.719 35.1126 40.069C34.7999 40.419 34.4172 40.685 33.9646 40.867C33.5166 41.049 33.0476 41.14 32.5576 41.14ZM30.7306 36.716H34.1326C34.1326 36.366 34.0696 36.051 33.9436 35.771C33.8222 35.4863 33.6379 35.2623 33.3906 35.099C33.1432 34.931 32.8306 34.847 32.4526 34.847C32.0792 34.847 31.7642 34.938 31.5076 35.12C31.2509 35.302 31.0572 35.5377 30.9266 35.827C30.7959 36.1117 30.7306 36.408 30.7306 36.716ZM37.1323 35.932V33.986H39.0573V35.932H37.1323ZM37.1323 40.958V39.026H39.0573V40.958H37.1323ZM44.2656 41.154C43.505 41.1493 42.8493 41.0187 42.2986 40.762C41.748 40.5053 41.3186 40.139 41.0106 39.663C40.7073 39.187 40.5486 38.6223 40.5346 37.969H42.1936C42.2916 38.571 42.5296 39.019 42.9076 39.313C43.2903 39.6023 43.7546 39.747 44.3006 39.747C44.7533 39.747 45.1453 39.6793 45.4766 39.544C45.808 39.404 46.0623 39.2127 46.2396 38.97C46.4216 38.7273 46.5126 38.445 46.5126 38.123C46.5126 37.7823 46.4146 37.4907 46.2186 37.248C46.0273 37.0053 45.7636 36.8187 45.4276 36.688C45.0916 36.5573 44.7136 36.4873 44.2936 36.478L43.3556 36.45V35.064L44.2236 35.029C44.625 35.015 44.9773 34.938 45.2806 34.798C45.5886 34.658 45.829 34.4737 46.0016 34.245C46.1743 34.0163 46.2606 33.7597 46.2606 33.475C46.2606 33.2137 46.179 32.978 46.0156 32.768C45.857 32.558 45.6306 32.3947 45.3366 32.278C45.0426 32.1567 44.695 32.096 44.2936 32.096C43.953 32.096 43.6333 32.1567 43.3346 32.278C43.036 32.3993 42.7886 32.5953 42.5926 32.866C42.4013 33.132 42.2963 33.482 42.2776 33.916H40.6256C40.6256 33.2253 40.7913 32.6443 41.1226 32.173C41.454 31.697 41.8973 31.34 42.4526 31.102C43.0126 30.8593 43.6333 30.738 44.3146 30.738C45.0473 30.738 45.696 30.8383 46.2606 31.039C46.83 31.235 47.2756 31.5313 47.5976 31.928C47.9243 32.3247 48.0876 32.817 48.0876 33.405C48.0876 33.9043 47.936 34.35 47.6326 34.742C47.3293 35.134 46.851 35.442 46.1976 35.666C46.6036 35.778 46.9676 35.946 47.2896 36.17C47.6116 36.3893 47.866 36.6647 48.0526 36.996C48.244 37.3273 48.3396 37.717 48.3396 38.165C48.3396 38.6457 48.2346 39.0727 48.0246 39.446C47.8193 39.8193 47.53 40.1343 47.1566 40.391C46.788 40.643 46.3563 40.8343 45.8616 40.965C45.367 41.091 44.835 41.154 44.2656 41.154ZM53.5761 41.154C52.7501 41.154 52.0361 40.9487 51.4341 40.538C50.8321 40.1273 50.3677 39.5463 50.0411 38.795C49.7191 38.039 49.5581 37.1453 49.5581 36.114C49.5581 35.0173 49.7191 34.0677 50.0411 33.265C50.3631 32.4577 50.8297 31.8347 51.4411 31.396C52.0571 30.9573 52.8014 30.738 53.6741 30.738C54.2714 30.738 54.8244 30.85 55.3331 31.074C55.8417 31.2933 56.2594 31.6107 56.5861 32.026C56.9127 32.4413 57.1041 32.943 57.1601 33.531H55.5851C55.4544 33.0783 55.2304 32.7283 54.9131 32.481C54.5957 32.2337 54.1944 32.11 53.7091 32.11C53.1724 32.11 52.7244 32.2617 52.3651 32.565C52.0057 32.8683 51.7467 33.3047 51.5881 33.874C51.4341 34.4387 51.3851 35.1153 51.4411 35.904C51.5857 35.6287 51.7817 35.3907 52.0291 35.19C52.2764 34.9847 52.5587 34.826 52.8761 34.714C53.1934 34.602 53.5294 34.546 53.8841 34.546C54.5607 34.546 55.1534 34.6743 55.6621 34.931C56.1707 35.1877 56.5674 35.5517 56.8521 36.023C57.1367 36.4943 57.2791 37.052 57.2791 37.696C57.2791 38.3633 57.1251 38.9583 56.8171 39.481C56.5091 39.999 56.0774 40.4073 55.5221 40.706C54.9667 41.0047 54.3181 41.154 53.5761 41.154ZM53.5341 39.817C53.8981 39.817 54.2247 39.7307 54.5141 39.558C54.8081 39.3853 55.0391 39.145 55.2071 38.837C55.3797 38.529 55.4661 38.1743 55.4661 37.773C55.4661 37.3623 55.3867 37.0147 55.2281 36.73C55.0694 36.4453 54.8431 36.2283 54.5491 36.079C54.2597 35.9297 53.9191 35.855 53.5271 35.855C53.2051 35.855 52.8924 35.9297 52.5891 36.079C52.2904 36.2283 52.0454 36.422 51.8541 36.66C51.6674 36.898 51.5741 37.1523 51.5741 37.423C51.5694 37.9037 51.6487 38.3237 51.8121 38.683C51.9754 39.0423 52.2041 39.3223 52.4981 39.523C52.7967 39.719 53.1421 39.817 53.5341 39.817ZM12.966 65V54.598H14.646V58.812C14.7627 58.63 14.9167 58.455 15.108 58.287C15.2993 58.1143 15.5327 57.9743 15.808 57.867C16.088 57.755 16.4217 57.699 16.809 57.699C17.271 57.699 17.6933 57.7877 18.076 57.965C18.4587 58.1423 18.7643 58.399 18.993 58.735C19.2217 59.0663 19.336 59.463 19.336 59.925V65H17.628V60.212C17.628 59.8387 17.495 59.5493 17.229 59.344C16.9677 59.1387 16.6363 59.036 16.235 59.036C15.969 59.036 15.7147 59.0827 15.472 59.176C15.2293 59.2693 15.0333 59.4093 14.884 59.596C14.7393 59.778 14.667 60.0067 14.667 60.282V65H12.966ZM23.8155 65.14C23.4608 65.14 23.1178 65.0887 22.7865 64.986C22.4598 64.8787 22.1658 64.7247 21.9045 64.524C21.6431 64.3187 21.4355 64.0667 21.2815 63.768C21.1275 63.4693 21.0505 63.1217 21.0505 62.725V57.762H22.7585V62.529C22.7585 62.921 22.8821 63.243 23.1295 63.495C23.3815 63.747 23.7595 63.873 24.2635 63.873C24.7208 63.873 25.0871 63.754 25.3625 63.516C25.6378 63.2733 25.7755 62.9257 25.7755 62.473V57.762H27.4695V65H26.1605L25.9715 63.586C25.8828 63.9827 25.7265 64.2953 25.5025 64.524C25.2831 64.748 25.0241 64.9067 24.7255 65C24.4315 65.0933 24.1281 65.14 23.8155 65.14ZM29.468 65V57.762H31.134V58.798C31.246 58.6113 31.3976 58.4317 31.589 58.259C31.785 58.0863 32.0253 57.9463 32.31 57.839C32.5946 57.7317 32.9283 57.678 33.311 57.678C33.759 57.678 34.1743 57.7667 34.557 57.944C34.9443 58.1213 35.2546 58.399 35.488 58.777C35.726 59.155 35.845 59.6427 35.845 60.24V65H34.137V60.443C34.137 59.967 34.0063 59.6147 33.745 59.386C33.4836 59.1527 33.1546 59.036 32.758 59.036C32.4873 59.036 32.2306 59.0827 31.988 59.176C31.7453 59.2647 31.547 59.4023 31.393 59.589C31.2436 59.771 31.169 59.9997 31.169 60.275V65H29.468ZM40.8911 67.394C39.6731 67.394 38.7374 67.2307 38.0841 66.904C37.4307 66.5773 37.1041 66.1293 37.1041 65.56C37.1041 65.3033 37.1671 65.0887 37.2931 64.916C37.4191 64.7433 37.5684 64.601 37.7411 64.489C37.9137 64.377 38.0724 64.2907 38.2171 64.23C38.3617 64.1693 38.4551 64.125 38.4971 64.097C38.4177 64.0503 38.3127 63.9897 38.1821 63.915C38.0514 63.8403 37.9324 63.7377 37.8251 63.607C37.7224 63.4763 37.6711 63.306 37.6711 63.096C37.6711 62.8533 37.7854 62.6293 38.0141 62.424C38.2474 62.2187 38.5951 62.0717 39.0571 61.983C38.6044 61.7637 38.2567 61.4673 38.0141 61.094C37.7714 60.7207 37.6501 60.3333 37.6501 59.932C37.6501 59.456 37.7877 59.0477 38.0631 58.707C38.3431 58.3663 38.7304 58.105 39.2251 57.923C39.7197 57.741 40.2961 57.65 40.9541 57.65C41.4347 57.65 41.8337 57.7037 42.1511 57.811C42.4731 57.9183 42.7717 58.063 43.0471 58.245C43.1404 58.2077 43.2711 58.1563 43.4391 58.091C43.6071 58.021 43.7914 57.9463 43.9921 57.867C44.1927 57.783 44.3864 57.7037 44.5731 57.629C44.7597 57.5497 44.9161 57.4843 45.0421 57.433L45.0351 58.84L43.7821 59.064C43.8427 59.1993 43.8894 59.3463 43.9221 59.505C43.9594 59.6637 43.9781 59.8037 43.9781 59.925C43.9781 60.345 43.8591 60.7347 43.6211 61.094C43.3877 61.4487 43.0354 61.7333 42.5641 61.948C42.0974 62.1627 41.5141 62.27 40.8141 62.27C40.7441 62.27 40.6484 62.2677 40.5271 62.263C40.4057 62.2583 40.3077 62.2537 40.2331 62.249C39.8551 62.263 39.5961 62.3073 39.4561 62.382C39.3161 62.4567 39.2461 62.5383 39.2461 62.627C39.2461 62.753 39.3511 62.837 39.5611 62.879C39.7711 62.921 40.1071 62.9583 40.5691 62.991C40.7324 63.0003 40.9471 63.012 41.2131 63.026C41.4791 63.04 41.7754 63.0587 42.1021 63.082C42.9281 63.1333 43.5534 63.341 43.9781 63.705C44.4027 64.0643 44.6151 64.531 44.6151 65.105C44.6151 65.7723 44.3071 66.3207 43.6911 66.75C43.0751 67.1793 42.1417 67.394 40.8911 67.394ZM41.1781 66.393C41.7894 66.393 42.2421 66.309 42.5361 66.141C42.8301 65.973 42.9771 65.7257 42.9771 65.399C42.9771 65.147 42.8767 64.9417 42.6761 64.783C42.4754 64.6243 42.1767 64.531 41.7801 64.503L39.9531 64.391C39.7524 64.377 39.5611 64.4143 39.3791 64.503C39.2017 64.587 39.0571 64.706 38.9451 64.86C38.8331 65.0093 38.7771 65.175 38.7771 65.357C38.7771 65.6977 38.9707 65.9543 39.3581 66.127C39.7501 66.3043 40.3567 66.393 41.1781 66.393ZM40.8701 61.269C41.3134 61.269 41.6727 61.157 41.9481 60.933C42.2234 60.7043 42.3611 60.3823 42.3611 59.967C42.3611 59.5377 42.2234 59.204 41.9481 58.966C41.6727 58.7233 41.3134 58.602 40.8701 58.602C40.4174 58.602 40.0511 58.7233 39.7711 58.966C39.4957 59.2087 39.3581 59.5423 39.3581 59.967C39.3581 60.3683 39.4911 60.6857 39.7571 60.919C40.0231 61.1523 40.3941 61.269 40.8701 61.269ZM46.4348 65V57.762H48.0658V59.33C48.1824 58.9707 48.3481 58.665 48.5628 58.413C48.7821 58.1563 49.0388 57.9603 49.3328 57.825C49.6268 57.6897 49.9464 57.622 50.2918 57.622C50.3758 57.622 50.4574 57.6267 50.5368 57.636C50.6161 57.6453 50.6744 57.6617 50.7118 57.685V59.316C50.6604 59.2927 50.5928 59.2763 50.5088 59.267C50.4294 59.2577 50.3594 59.253 50.2988 59.253C49.9488 59.225 49.6384 59.239 49.3678 59.295C49.1018 59.351 48.8754 59.4467 48.6888 59.582C48.5068 59.7127 48.3691 59.8807 48.2758 60.086C48.1824 60.2867 48.1358 60.5223 48.1358 60.793V65H46.4348ZM53.1766 67.31C52.71 67.31 52.3856 67.2727 52.2036 67.198C52.0216 67.128 51.9306 67.093 51.9306 67.093V66.001L52.6586 66.022C52.9526 66.036 53.1906 66.0197 53.3726 65.973C53.5593 65.9263 53.704 65.861 53.8066 65.777C53.9093 65.6977 53.984 65.6113 54.0306 65.518C54.082 65.4293 54.1216 65.3523 54.1496 65.287L54.3386 64.755L51.5176 57.762H53.2116L55.1366 62.879L57.0546 57.762H58.7206L55.7386 65.266C55.5146 65.812 55.272 66.232 55.0106 66.526C54.754 66.8247 54.4716 67.03 54.1636 67.142C53.8603 67.254 53.5313 67.31 53.1766 67.31ZM59.7046 59.932V57.986H61.6296V59.932H59.7046ZM59.7046 64.958V63.026H61.6296V64.958H59.7046ZM69.5331 65.056C68.9591 65.056 68.5134 64.9813 68.1961 64.832C67.8834 64.678 67.6664 64.461 67.5451 64.181C67.4238 63.901 67.3631 63.5673 67.3631 63.18V58.966H66.1871V57.762H67.4121L67.8391 55.613H69.0641V57.755H70.6811V58.966H69.0641L69.0711 63.117C69.0711 63.3317 69.0944 63.4903 69.1411 63.593C69.1924 63.691 69.2718 63.7563 69.3791 63.789C69.4911 63.817 69.6381 63.831 69.8201 63.831H70.7161V64.909C70.6181 64.9463 70.4734 64.979 70.2821 65.007C70.0954 65.0397 69.8458 65.056 69.5331 65.056ZM72.2883 65V57.762H73.9193V59.33C74.0359 58.9707 74.2016 58.665 74.4163 58.413C74.6356 58.1563 74.8923 57.9603 75.1863 57.825C75.4803 57.6897 75.7999 57.622 76.1453 57.622C76.2293 57.622 76.3109 57.6267 76.3903 57.636C76.4696 57.6453 76.5279 57.6617 76.5653 57.685V59.316C76.5139 59.2927 76.4463 59.2763 76.3623 59.267C76.2829 59.2577 76.2129 59.253 76.1523 59.253C75.8023 59.225 75.4919 59.239 75.2213 59.295C74.9553 59.351 74.7289 59.4467 74.5423 59.582C74.3603 59.7127 74.2226 59.8807 74.1293 60.086C74.0359 60.2867 73.9893 60.5223 73.9893 60.793V65H72.2883ZM80.5811 65.14C80.2264 65.14 79.8834 65.0887 79.5521 64.986C79.2254 64.8787 78.9314 64.7247 78.6701 64.524C78.4087 64.3187 78.2011 64.0667 78.0471 63.768C77.8931 63.4693 77.8161 63.1217 77.8161 62.725V57.762H79.5241V62.529C79.5241 62.921 79.6477 63.243 79.8951 63.495C80.1471 63.747 80.5251 63.873 81.0291 63.873C81.4864 63.873 81.8527 63.754 82.1281 63.516C82.4034 63.2733 82.5411 62.9257 82.5411 62.473V57.762H84.2351V65H82.9261L82.7371 63.586C82.6484 63.9827 82.4921 64.2953 82.2681 64.524C82.0487 64.748 81.7897 64.9067 81.4911 65C81.1971 65.0933 80.8937 65.14 80.5811 65.14ZM89.3642 65.14C88.6689 65.14 88.0552 64.993 87.5232 64.699C86.9959 64.4003 86.5829 63.9757 86.2842 63.425C85.9902 62.8743 85.8432 62.2187 85.8432 61.458C85.8432 60.716 85.9762 60.058 86.2422 59.484C86.5129 58.9053 86.9026 58.4503 87.4112 58.119C87.9246 57.7877 88.5429 57.622 89.2662 57.622C89.9802 57.622 90.5799 57.7737 91.0652 58.077C91.5506 58.3803 91.9192 58.805 92.1712 59.351C92.4232 59.8923 92.5492 60.527 92.5492 61.255V61.773H87.5442C87.5396 62.1837 87.6049 62.5477 87.7402 62.865C87.8756 63.1823 88.0762 63.432 88.3422 63.614C88.6082 63.7913 88.9372 63.88 89.3292 63.88C89.7306 63.88 90.0782 63.7913 90.3722 63.614C90.6709 63.432 90.8692 63.1567 90.9672 62.788H92.5212C92.4372 63.292 92.2366 63.719 91.9192 64.069C91.6066 64.419 91.2239 64.685 90.7712 64.867C90.3232 65.049 89.8542 65.14 89.3642 65.14ZM87.5372 60.716H90.9392C90.9392 60.366 90.8762 60.051 90.7502 59.771C90.6289 59.4863 90.4446 59.2623 90.1972 59.099C89.9499 58.931 89.6372 58.847 89.2592 58.847C88.8859 58.847 88.5709 58.938 88.3142 59.12C88.0576 59.302 87.8639 59.5377 87.7332 59.827C87.6026 60.1117 87.5372 60.408 87.5372 60.716Z" fill="black"/>
<path d="M244.5 140C245.052 140 245.5 139.552 245.5 139C245.5 138.448 245.052 138 244.5 138V140ZM221.062 138C220.51 138 220.062 138.448 220.062 139C220.062 139.552 220.51 140 221.062 140V138ZM154.938 140C155.49 140 155.938 139.552 155.938 139C155.938 138.448 155.49 138 154.938 138V140ZM130.793 138.293C130.402 138.683 130.402 139.317 130.793 139.707L137.157 146.071C137.547 146.462 138.181 146.462 138.571 146.071C138.962 145.681 138.962 145.047 138.571 144.657L132.914 139L138.571 133.343C138.962 132.953 138.962 132.319 138.571 131.929C138.181 131.538 137.547 131.538 137.157 131.929L130.793 138.293ZM244.5 139V138H221.062V139V140H244.5V139ZM154.938 139V138H131.5V139V140H154.938V139Z" fill="#1A1B1D"/>
<path d="M162.896 144.5V134.318H164.433V139.18H164.557L168.827 134.318H170.761L166.655 138.902L170.776 144.5H168.927L165.636 139.951L164.433 141.333V144.5H162.896ZM180.257 134.318V144.5H178.845L173.67 137.033H173.575V144.5H172.039V134.318H173.461L178.641 141.795H178.736V134.318H180.257ZM191.189 139.409C191.189 140.496 190.99 141.431 190.592 142.213C190.194 142.992 189.649 143.592 188.956 144.013C188.267 144.43 187.483 144.639 186.605 144.639C185.723 144.639 184.936 144.43 184.243 144.013C183.554 143.592 183.01 142.99 182.613 142.208C182.215 141.426 182.016 140.493 182.016 139.409C182.016 138.322 182.215 137.389 182.613 136.61C183.01 135.828 183.554 135.228 184.243 134.81C184.936 134.389 185.723 134.179 186.605 134.179C187.483 134.179 188.267 134.389 188.956 134.81C189.649 135.228 190.194 135.828 190.592 136.61C190.99 137.389 191.189 138.322 191.189 139.409ZM189.667 139.409C189.667 138.58 189.533 137.883 189.265 137.316C188.999 136.746 188.635 136.315 188.171 136.023C187.71 135.728 187.188 135.581 186.605 135.581C186.018 135.581 185.495 135.728 185.034 136.023C184.573 136.315 184.209 136.746 183.94 137.316C183.675 137.883 183.542 138.58 183.542 139.409C183.542 140.238 183.675 140.937 183.94 141.507C184.209 142.074 184.573 142.505 185.034 142.8C185.495 143.091 186.018 143.237 186.605 143.237C187.188 143.237 187.71 143.091 188.171 142.8C188.635 142.505 188.999 142.074 189.265 141.507C189.533 140.937 189.667 140.238 189.667 139.409ZM194.821 144.5L191.997 134.318H193.612L195.596 142.203H195.691L197.754 134.318H199.355L201.418 142.208H201.512L203.491 134.318H205.112L202.283 144.5H200.737L198.594 136.874H198.514L196.372 144.5H194.821ZM211.884 136.993C211.831 136.522 211.613 136.158 211.228 135.899C210.844 135.637 210.36 135.506 209.776 135.506C209.359 135.506 208.998 135.573 208.693 135.705C208.388 135.835 208.151 136.013 207.982 136.242C207.816 136.468 207.733 136.724 207.733 137.013C207.733 137.255 207.789 137.464 207.902 137.639C208.018 137.815 208.169 137.962 208.355 138.082C208.543 138.198 208.746 138.295 208.961 138.375C209.177 138.451 209.384 138.514 209.583 138.564L210.577 138.822C210.902 138.902 211.235 139.01 211.576 139.146C211.918 139.281 212.234 139.46 212.526 139.683C212.817 139.905 213.053 140.18 213.232 140.508C213.414 140.836 213.505 141.229 213.505 141.686C213.505 142.263 213.356 142.775 213.058 143.222C212.763 143.67 212.333 144.023 211.77 144.281C211.21 144.54 210.532 144.669 209.737 144.669C208.974 144.669 208.315 144.548 207.758 144.306C207.201 144.064 206.765 143.721 206.45 143.277C206.136 142.83 205.962 142.299 205.928 141.686H207.47C207.499 142.054 207.619 142.361 207.828 142.606C208.04 142.848 208.31 143.028 208.638 143.148C208.969 143.264 209.332 143.322 209.727 143.322C210.161 143.322 210.547 143.254 210.885 143.118C211.226 142.979 211.495 142.786 211.69 142.541C211.886 142.293 211.984 142.003 211.984 141.671C211.984 141.37 211.898 141.123 211.725 140.93C211.556 140.738 211.326 140.579 211.034 140.453C210.746 140.327 210.419 140.216 210.055 140.12L208.852 139.792C208.036 139.57 207.39 139.243 206.913 138.812C206.439 138.382 206.202 137.812 206.202 137.102C206.202 136.516 206.361 136.004 206.679 135.566C206.997 135.129 207.428 134.789 207.972 134.547C208.515 134.302 209.128 134.179 209.811 134.179C210.501 134.179 211.109 134.3 211.636 134.542C212.166 134.784 212.584 135.117 212.889 135.541C213.194 135.962 213.353 136.446 213.366 136.993H211.884Z" fill="black" fill-opacity="0.8"/>
<path d="M248 427C248 391.654 276.654 363 312 363V363C347.346 363 376 391.654 376 427V427C376 462.346 347.346 491 312 491V491C276.654 491 248 462.346 248 427V427Z" fill="#F16767"/>
<path d="M263.966 519V511.762H265.632V512.798C265.744 512.611 265.896 512.432 266.087 512.259C266.283 512.086 266.523 511.946 266.808 511.839C267.093 511.732 267.426 511.678 267.809 511.678C268.257 511.678 268.672 511.767 269.055 511.944C269.442 512.121 269.753 512.399 269.986 512.777C270.224 513.155 270.343 513.643 270.343 514.24V519H268.635V514.443C268.635 513.967 268.504 513.615 268.243 513.386C267.982 513.153 267.653 513.036 267.256 513.036C266.985 513.036 266.729 513.083 266.486 513.176C266.243 513.265 266.045 513.402 265.891 513.589C265.742 513.771 265.667 514 265.667 514.275V519H263.966ZM274.221 519.14C273.759 519.14 273.344 519.056 272.975 518.888C272.611 518.715 272.324 518.47 272.114 518.153C271.909 517.831 271.806 517.441 271.806 516.984C271.806 516.186 272.093 515.584 272.667 515.178C273.246 514.772 274.165 514.56 275.425 514.541L276.51 514.513V514.023C276.51 513.64 276.396 513.342 276.167 513.127C275.943 512.908 275.593 512.8 275.117 512.805C274.762 512.81 274.44 512.894 274.151 513.057C273.862 513.216 273.67 513.484 273.577 513.862H272.128C272.156 513.367 272.298 512.954 272.555 512.623C272.816 512.287 273.173 512.037 273.626 511.874C274.079 511.706 274.601 511.622 275.194 511.622C275.885 511.622 276.447 511.713 276.881 511.895C277.315 512.077 277.635 512.341 277.84 512.686C278.045 513.027 278.148 513.44 278.148 513.925V519H276.713L276.573 517.698C276.316 518.244 275.987 518.622 275.586 518.832C275.189 519.037 274.734 519.14 274.221 519.14ZM274.774 517.985C274.984 517.985 275.192 517.948 275.397 517.873C275.602 517.794 275.787 517.689 275.95 517.558C276.118 517.423 276.251 517.273 276.349 517.11C276.452 516.947 276.505 516.776 276.51 516.599V515.458L275.621 515.472C275.182 515.477 274.797 515.523 274.466 515.612C274.139 515.701 273.885 515.843 273.703 516.039C273.521 516.23 273.43 516.487 273.43 516.809C273.43 517.178 273.558 517.467 273.815 517.677C274.072 517.882 274.391 517.985 274.774 517.985ZM279.962 519V511.762H281.621V512.798C281.831 512.481 282.116 512.205 282.475 511.972C282.839 511.739 283.301 511.622 283.861 511.622C284.118 511.622 284.377 511.666 284.638 511.755C284.904 511.844 285.149 511.974 285.373 512.147C285.602 512.32 285.784 512.534 285.919 512.791C286.148 512.45 286.451 512.17 286.829 511.951C287.212 511.732 287.641 511.622 288.117 511.622C288.378 511.622 288.647 511.664 288.922 511.748C289.202 511.832 289.459 511.972 289.692 512.168C289.925 512.364 290.114 512.632 290.259 512.973C290.404 513.309 290.476 513.731 290.476 514.24V519H288.775V514.443C288.775 514.084 288.712 513.801 288.586 513.596C288.46 513.391 288.297 513.246 288.096 513.162C287.9 513.073 287.69 513.029 287.466 513.029C287.265 513.029 287.055 513.069 286.836 513.148C286.621 513.227 286.437 513.358 286.283 513.54C286.134 513.722 286.059 513.967 286.059 514.275V519H284.358V514.17C284.358 513.918 284.293 513.708 284.162 513.54C284.031 513.372 283.866 513.246 283.665 513.162C283.469 513.073 283.268 513.029 283.063 513.029C282.853 513.029 282.638 513.073 282.419 513.162C282.204 513.251 282.025 513.386 281.88 513.568C281.735 513.75 281.663 513.986 281.663 514.275V519H279.962ZM295.507 519.14C294.811 519.14 294.198 518.993 293.666 518.699C293.138 518.4 292.725 517.976 292.427 517.425C292.133 516.874 291.986 516.219 291.986 515.458C291.986 514.716 292.119 514.058 292.385 513.484C292.655 512.905 293.045 512.45 293.554 512.119C294.067 511.788 294.685 511.622 295.409 511.622C296.123 511.622 296.722 511.774 297.208 512.077C297.693 512.38 298.062 512.805 298.314 513.351C298.566 513.892 298.692 514.527 298.692 515.255V515.773H293.687C293.682 516.184 293.747 516.548 293.883 516.865C294.018 517.182 294.219 517.432 294.485 517.614C294.751 517.791 295.08 517.88 295.472 517.88C295.873 517.88 296.221 517.791 296.515 517.614C296.813 517.432 297.012 517.157 297.11 516.788H298.664C298.58 517.292 298.379 517.719 298.062 518.069C297.749 518.419 297.366 518.685 296.914 518.867C296.466 519.049 295.997 519.14 295.507 519.14ZM293.68 514.716H297.082C297.082 514.366 297.019 514.051 296.893 513.771C296.771 513.486 296.587 513.262 296.34 513.099C296.092 512.931 295.78 512.847 295.402 512.847C295.028 512.847 294.713 512.938 294.457 513.12C294.2 513.302 294.006 513.538 293.876 513.827C293.745 514.112 293.68 514.408 293.68 514.716ZM300.082 513.932V511.986H302.007V513.932H300.082ZM300.082 518.958V517.026H302.007V518.958H300.082ZM307.369 512.497L306.9 508.878H308.755L308.265 512.497H307.369ZM314.752 519.14C313.847 519.14 313.061 518.932 312.393 518.517C311.726 518.102 311.213 517.509 310.853 516.739C310.494 515.964 310.314 515.04 310.314 513.967C310.314 512.884 310.501 511.951 310.874 511.167C311.248 510.383 311.773 509.783 312.449 509.368C313.131 508.948 313.929 508.738 314.843 508.738C315.403 508.738 315.919 508.831 316.39 509.018C316.866 509.205 317.282 509.457 317.636 509.774C317.996 510.091 318.278 510.453 318.483 510.859C318.689 511.265 318.803 511.687 318.826 512.126H317.027C316.962 511.781 316.829 511.463 316.628 511.174C316.432 510.88 316.178 510.644 315.865 510.467C315.557 510.29 315.205 510.201 314.808 510.201C314.3 510.201 313.845 510.329 313.443 510.586C313.047 510.843 312.734 511.246 312.505 511.797C312.281 512.343 312.169 513.052 312.169 513.925C312.169 514.616 312.239 515.199 312.379 515.675C312.524 516.146 312.72 516.527 312.967 516.816C313.219 517.101 313.509 517.308 313.835 517.439C314.162 517.565 314.507 517.628 314.871 517.628C315.226 517.628 315.539 517.567 315.809 517.446C316.08 517.325 316.309 517.166 316.495 516.97C316.687 516.774 316.834 516.564 316.936 516.34C317.044 516.111 317.107 515.89 317.125 515.675L317.188 514.933H314.927V513.729L318.966 513.743V519H317.762V517.579C317.59 517.836 317.37 518.083 317.104 518.321C316.843 518.559 316.521 518.755 316.138 518.909C315.76 519.063 315.298 519.14 314.752 519.14ZM324.231 519.14C323.536 519.14 322.922 518.993 322.39 518.699C321.863 518.4 321.45 517.976 321.151 517.425C320.857 516.874 320.71 516.219 320.71 515.458C320.71 514.716 320.843 514.058 321.109 513.484C321.38 512.905 321.77 512.45 322.278 512.119C322.792 511.788 323.41 511.622 324.133 511.622C324.847 511.622 325.447 511.774 325.932 512.077C326.418 512.38 326.786 512.805 327.038 513.351C327.29 513.892 327.416 514.527 327.416 515.255V515.773H322.411C322.407 516.184 322.472 516.548 322.607 516.865C322.743 517.182 322.943 517.432 323.209 517.614C323.475 517.791 323.804 517.88 324.196 517.88C324.598 517.88 324.945 517.791 325.239 517.614C325.538 517.432 325.736 517.157 325.834 516.788H327.388C327.304 517.292 327.104 517.719 326.786 518.069C326.474 518.419 326.091 518.685 325.638 518.867C325.19 519.049 324.721 519.14 324.231 519.14ZM322.404 514.716H325.806C325.806 514.366 325.743 514.051 325.617 513.771C325.496 513.486 325.312 513.262 325.064 513.099C324.817 512.931 324.504 512.847 324.126 512.847C323.753 512.847 323.438 512.938 323.181 513.12C322.925 513.302 322.731 513.538 322.6 513.827C322.47 514.112 322.404 514.408 322.404 514.716ZM332.082 519.14C331.391 519.14 330.789 518.993 330.276 518.699C329.763 518.4 329.364 517.973 329.079 517.418C328.799 516.863 328.659 516.195 328.659 515.416C328.659 514.66 328.797 513.997 329.072 513.428C329.347 512.859 329.739 512.415 330.248 512.098C330.761 511.781 331.375 511.622 332.089 511.622C332.78 511.622 333.379 511.774 333.888 512.077C334.397 512.38 334.789 512.814 335.064 513.379C335.344 513.944 335.484 514.623 335.484 515.416C335.484 516.149 335.351 516.795 335.085 517.355C334.824 517.91 334.439 518.347 333.93 518.664C333.426 518.981 332.81 519.14 332.082 519.14ZM332.089 517.845C332.481 517.845 332.803 517.738 333.055 517.523C333.312 517.308 333.503 517.014 333.629 516.641C333.755 516.268 333.818 515.843 333.818 515.367C333.818 514.924 333.762 514.515 333.65 514.142C333.538 513.769 333.354 513.47 333.097 513.246C332.845 513.017 332.509 512.903 332.089 512.903C331.692 512.903 331.363 513.008 331.102 513.218C330.845 513.423 330.654 513.713 330.528 514.086C330.402 514.455 330.339 514.882 330.339 515.367C330.339 515.806 330.395 516.214 330.507 516.592C330.619 516.965 330.803 517.269 331.06 517.502C331.317 517.731 331.66 517.845 332.089 517.845ZM337.042 519V511.762H338.673V513.33C338.79 512.971 338.956 512.665 339.17 512.413C339.39 512.156 339.646 511.96 339.94 511.825C340.234 511.69 340.554 511.622 340.899 511.622C340.983 511.622 341.065 511.627 341.144 511.636C341.224 511.645 341.282 511.662 341.319 511.685V513.316C341.268 513.293 341.2 513.276 341.116 513.267C341.037 513.258 340.967 513.253 340.906 513.253C340.556 513.225 340.246 513.239 339.975 513.295C339.709 513.351 339.483 513.447 339.296 513.582C339.114 513.713 338.977 513.881 338.883 514.086C338.79 514.287 338.743 514.522 338.743 514.793V519H337.042ZM345.731 521.394C344.513 521.394 343.577 521.231 342.924 520.904C342.271 520.577 341.944 520.129 341.944 519.56C341.944 519.303 342.007 519.089 342.133 518.916C342.259 518.743 342.408 518.601 342.581 518.489C342.754 518.377 342.912 518.291 343.057 518.23C343.202 518.169 343.295 518.125 343.337 518.097C343.258 518.05 343.153 517.99 343.022 517.915C342.891 517.84 342.772 517.738 342.665 517.607C342.562 517.476 342.511 517.306 342.511 517.096C342.511 516.853 342.625 516.629 342.854 516.424C343.087 516.219 343.435 516.072 343.897 515.983C343.444 515.764 343.097 515.467 342.854 515.094C342.611 514.721 342.49 514.333 342.49 513.932C342.49 513.456 342.628 513.048 342.903 512.707C343.183 512.366 343.57 512.105 344.065 511.923C344.56 511.741 345.136 511.65 345.794 511.65C346.275 511.65 346.674 511.704 346.991 511.811C347.313 511.918 347.612 512.063 347.887 512.245C347.98 512.208 348.111 512.156 348.279 512.091C348.447 512.021 348.631 511.946 348.832 511.867C349.033 511.783 349.226 511.704 349.413 511.629C349.6 511.55 349.756 511.484 349.882 511.433L349.875 512.84L348.622 513.064C348.683 513.199 348.729 513.346 348.762 513.505C348.799 513.664 348.818 513.804 348.818 513.925C348.818 514.345 348.699 514.735 348.461 515.094C348.228 515.449 347.875 515.733 347.404 515.948C346.937 516.163 346.354 516.27 345.654 516.27C345.584 516.27 345.488 516.268 345.367 516.263C345.246 516.258 345.148 516.254 345.073 516.249C344.695 516.263 344.436 516.307 344.296 516.382C344.156 516.457 344.086 516.538 344.086 516.627C344.086 516.753 344.191 516.837 344.401 516.879C344.611 516.921 344.947 516.958 345.409 516.991C345.572 517 345.787 517.012 346.053 517.026C346.319 517.04 346.615 517.059 346.942 517.082C347.768 517.133 348.393 517.341 348.818 517.705C349.243 518.064 349.455 518.531 349.455 519.105C349.455 519.772 349.147 520.321 348.531 520.75C347.915 521.179 346.982 521.394 345.731 521.394ZM346.018 520.393C346.629 520.393 347.082 520.309 347.376 520.141C347.67 519.973 347.817 519.726 347.817 519.399C347.817 519.147 347.717 518.942 347.516 518.783C347.315 518.624 347.017 518.531 346.62 518.503L344.793 518.391C344.592 518.377 344.401 518.414 344.219 518.503C344.042 518.587 343.897 518.706 343.785 518.86C343.673 519.009 343.617 519.175 343.617 519.357C343.617 519.698 343.811 519.954 344.198 520.127C344.59 520.304 345.197 520.393 346.018 520.393ZM345.71 515.269C346.153 515.269 346.513 515.157 346.788 514.933C347.063 514.704 347.201 514.382 347.201 513.967C347.201 513.538 347.063 513.204 346.788 512.966C346.513 512.723 346.153 512.602 345.71 512.602C345.257 512.602 344.891 512.723 344.611 512.966C344.336 513.209 344.198 513.542 344.198 513.967C344.198 514.368 344.331 514.686 344.597 514.919C344.863 515.152 345.234 515.269 345.71 515.269ZM354.269 519.14C353.573 519.14 352.96 518.993 352.428 518.699C351.9 518.4 351.487 517.976 351.189 517.425C350.895 516.874 350.748 516.219 350.748 515.458C350.748 514.716 350.881 514.058 351.147 513.484C351.417 512.905 351.807 512.45 352.316 512.119C352.829 511.788 353.447 511.622 354.171 511.622C354.885 511.622 355.484 511.774 355.97 512.077C356.455 512.38 356.824 512.805 357.076 513.351C357.328 513.892 357.454 514.527 357.454 515.255V515.773H352.449C352.444 516.184 352.509 516.548 352.645 516.865C352.78 517.182 352.981 517.432 353.247 517.614C353.513 517.791 353.842 517.88 354.234 517.88C354.635 517.88 354.983 517.791 355.277 517.614C355.575 517.432 355.774 517.157 355.872 516.788H357.426C357.342 517.292 357.141 517.719 356.824 518.069C356.511 518.419 356.128 518.685 355.676 518.867C355.228 519.049 354.759 519.14 354.269 519.14ZM352.442 514.716H355.844C355.844 514.366 355.781 514.051 355.655 513.771C355.533 513.486 355.349 513.262 355.102 513.099C354.854 512.931 354.542 512.847 354.164 512.847C353.79 512.847 353.475 512.938 353.219 513.12C352.962 513.302 352.768 513.538 352.638 513.827C352.507 514.112 352.442 514.408 352.442 514.716ZM358.557 512.497L358.088 508.878H359.943L359.453 512.497H358.557Z" fill="black"/>
<path d="M0 428C0 392.654 28.6538 364 64 364V364C99.3462 364 128 392.654 128 428V428C128 463.346 99.3462 492 64 492V492C28.6538 492 0 463.346 0 428V428Z" fill="#F16767"/>
<path d="M15.966 519V511.762H17.632V512.798C17.744 512.611 17.8957 512.432 18.087 512.259C18.283 512.086 18.5233 511.946 18.808 511.839C19.0927 511.732 19.4263 511.678 19.809 511.678C20.257 511.678 20.6723 511.767 21.055 511.944C21.4423 512.121 21.7527 512.399 21.986 512.777C22.224 513.155 22.343 513.643 22.343 514.24V519H20.635V514.443C20.635 513.967 20.5043 513.615 20.243 513.386C19.9817 513.153 19.6527 513.036 19.256 513.036C18.9853 513.036 18.7287 513.083 18.486 513.176C18.2433 513.265 18.045 513.402 17.891 513.589C17.7417 513.771 17.667 514 17.667 514.275V519H15.966ZM26.2211 519.14C25.7591 519.14 25.3438 519.056 24.9751 518.888C24.6111 518.715 24.3241 518.47 24.1141 518.153C23.9088 517.831 23.8061 517.441 23.8061 516.984C23.8061 516.186 24.0931 515.584 24.6671 515.178C25.2458 514.772 26.1651 514.56 27.4251 514.541L28.5101 514.513V514.023C28.5101 513.64 28.3958 513.342 28.1671 513.127C27.9431 512.908 27.5931 512.8 27.1171 512.805C26.7624 512.81 26.4404 512.894 26.1511 513.057C25.8618 513.216 25.6704 513.484 25.5771 513.862H24.1281C24.1561 513.367 24.2984 512.954 24.5551 512.623C24.8164 512.287 25.1734 512.037 25.6261 511.874C26.0788 511.706 26.6014 511.622 27.1941 511.622C27.8848 511.622 28.4471 511.713 28.8811 511.895C29.3151 512.077 29.6348 512.341 29.8401 512.686C30.0454 513.027 30.1481 513.44 30.1481 513.925V519H28.7131L28.5731 517.698C28.3164 518.244 27.9874 518.622 27.5861 518.832C27.1894 519.037 26.7344 519.14 26.2211 519.14ZM26.7741 517.985C26.9841 517.985 27.1918 517.948 27.3971 517.873C27.6024 517.794 27.7868 517.689 27.9501 517.558C28.1181 517.423 28.2511 517.273 28.3491 517.11C28.4518 516.947 28.5054 516.776 28.5101 516.599V515.458L27.6211 515.472C27.1824 515.477 26.7974 515.523 26.4661 515.612C26.1394 515.701 25.8851 515.843 25.7031 516.039C25.5211 516.23 25.4301 516.487 25.4301 516.809C25.4301 517.178 25.5584 517.467 25.8151 517.677C26.0718 517.882 26.3914 517.985 26.7741 517.985ZM31.9621 519V511.762H33.6211V512.798C33.8311 512.481 34.1158 512.205 34.4751 511.972C34.8391 511.739 35.3011 511.622 35.8611 511.622C36.1178 511.622 36.3768 511.666 36.6381 511.755C36.9041 511.844 37.1491 511.974 37.3731 512.147C37.6018 512.32 37.7838 512.534 37.9191 512.791C38.1478 512.45 38.4511 512.17 38.8291 511.951C39.2118 511.732 39.6411 511.622 40.1171 511.622C40.3784 511.622 40.6468 511.664 40.9221 511.748C41.2021 511.832 41.4588 511.972 41.6921 512.168C41.9254 512.364 42.1144 512.632 42.2591 512.973C42.4038 513.309 42.4761 513.731 42.4761 514.24V519H40.7751V514.443C40.7751 514.084 40.7121 513.801 40.5861 513.596C40.4601 513.391 40.2968 513.246 40.0961 513.162C39.9001 513.073 39.6901 513.029 39.4661 513.029C39.2654 513.029 39.0554 513.069 38.8361 513.148C38.6214 513.227 38.4371 513.358 38.2831 513.54C38.1338 513.722 38.0591 513.967 38.0591 514.275V519H36.3581V514.17C36.3581 513.918 36.2928 513.708 36.1621 513.54C36.0314 513.372 35.8658 513.246 35.6651 513.162C35.4691 513.073 35.2684 513.029 35.0631 513.029C34.8531 513.029 34.6384 513.073 34.4191 513.162C34.2044 513.251 34.0248 513.386 33.8801 513.568C33.7354 513.75 33.6631 513.986 33.6631 514.275V519H31.9621ZM47.5068 519.14C46.8115 519.14 46.1978 518.993 45.6658 518.699C45.1385 518.4 44.7255 517.976 44.4268 517.425C44.1328 516.874 43.9858 516.219 43.9858 515.458C43.9858 514.716 44.1188 514.058 44.3848 513.484C44.6555 512.905 45.0451 512.45 45.5538 512.119C46.0671 511.788 46.6855 511.622 47.4088 511.622C48.1228 511.622 48.7225 511.774 49.2078 512.077C49.6931 512.38 50.0618 512.805 50.3138 513.351C50.5658 513.892 50.6918 514.527 50.6918 515.255V515.773H45.6868C45.6821 516.184 45.7475 516.548 45.8828 516.865C46.0181 517.182 46.2188 517.432 46.4848 517.614C46.7508 517.791 47.0798 517.88 47.4718 517.88C47.8731 517.88 48.2208 517.791 48.5148 517.614C48.8135 517.432 49.0118 517.157 49.1098 516.788H50.6638C50.5798 517.292 50.3791 517.719 50.0618 518.069C49.7491 518.419 49.3665 518.685 48.9138 518.867C48.4658 519.049 47.9968 519.14 47.5068 519.14ZM45.6798 514.716H49.0818C49.0818 514.366 49.0188 514.051 48.8928 513.771C48.7715 513.486 48.5871 513.262 48.3398 513.099C48.0925 512.931 47.7798 512.847 47.4018 512.847C47.0285 512.847 46.7135 512.938 46.4568 513.12C46.2001 513.302 46.0065 513.538 45.8758 513.827C45.7451 514.112 45.6798 514.408 45.6798 514.716ZM52.0815 513.932V511.986H54.0065V513.932H52.0815ZM52.0815 518.958V517.026H54.0065V518.958H52.0815ZM59.3691 512.497L58.9001 508.878H60.7551L60.2651 512.497H59.3691ZM62.8324 519V508.878H66.4234C67.1514 508.878 67.8024 509.004 68.3764 509.256C68.9551 509.503 69.4101 509.87 69.7414 510.355C70.0728 510.84 70.2384 511.438 70.2384 512.147C70.2384 512.814 70.0868 513.386 69.7834 513.862C69.4848 514.338 69.0671 514.702 68.5304 514.954C67.9938 515.206 67.3661 515.332 66.6474 515.332H64.5614V519H62.8324ZM64.5474 513.967H66.6054C67.1981 513.967 67.6811 513.79 68.0544 513.435C68.4324 513.08 68.6214 512.618 68.6214 512.049C68.6214 511.47 68.4254 511.022 68.0334 510.705C67.6414 510.383 67.1491 510.222 66.5564 510.222H64.5474V513.967ZM74.6045 519.14C73.9091 519.14 73.2955 518.993 72.7635 518.699C72.2361 518.4 71.8231 517.976 71.5245 517.425C71.2305 516.874 71.0835 516.219 71.0835 515.458C71.0835 514.716 71.2165 514.058 71.4825 513.484C71.7531 512.905 72.1428 512.45 72.6515 512.119C73.1648 511.788 73.7831 511.622 74.5065 511.622C75.2205 511.622 75.8201 511.774 76.3055 512.077C76.7908 512.38 77.1595 512.805 77.4115 513.351C77.6635 513.892 77.7895 514.527 77.7895 515.255V515.773H72.7845C72.7798 516.184 72.8451 516.548 72.9805 516.865C73.1158 517.182 73.3165 517.432 73.5825 517.614C73.8485 517.791 74.1775 517.88 74.5695 517.88C74.9708 517.88 75.3185 517.791 75.6125 517.614C75.9111 517.432 76.1095 517.157 76.2075 516.788H77.7615C77.6775 517.292 77.4768 517.719 77.1595 518.069C76.8468 518.419 76.4641 518.685 76.0115 518.867C75.5635 519.049 75.0945 519.14 74.6045 519.14ZM72.7775 514.716H76.1795C76.1795 514.366 76.1165 514.051 75.9905 513.771C75.8691 513.486 75.6848 513.262 75.4375 513.099C75.1901 512.931 74.8775 512.847 74.4995 512.847C74.1261 512.847 73.8111 512.938 73.5545 513.12C73.2978 513.302 73.1041 513.538 72.9735 513.827C72.8428 514.112 72.7775 514.408 72.7775 514.716ZM82.0487 519.056C81.4747 519.056 81.0291 518.981 80.7117 518.832C80.3991 518.678 80.1821 518.461 80.0607 518.181C79.9394 517.901 79.8787 517.567 79.8787 517.18V512.966H78.7027V511.762H79.9277L80.3547 509.613H81.5797V511.755H83.1967V512.966H81.5797L81.5867 517.117C81.5867 517.332 81.6101 517.49 81.6567 517.593C81.7081 517.691 81.7874 517.756 81.8947 517.789C82.0067 517.817 82.1537 517.831 82.3357 517.831H83.2317V518.909C83.1337 518.946 82.9891 518.979 82.7977 519.007C82.6111 519.04 82.3614 519.056 82.0487 519.056ZM87.7978 519.14C87.1025 519.14 86.4888 518.993 85.9568 518.699C85.4295 518.4 85.0165 517.976 84.7178 517.425C84.4238 516.874 84.2768 516.219 84.2768 515.458C84.2768 514.716 84.4098 514.058 84.6758 513.484C84.9465 512.905 85.3361 512.45 85.8448 512.119C86.3581 511.788 86.9765 511.622 87.6998 511.622C88.4138 511.622 89.0135 511.774 89.4988 512.077C89.9841 512.38 90.3528 512.805 90.6048 513.351C90.8568 513.892 90.9828 514.527 90.9828 515.255V515.773H85.9778C85.9731 516.184 86.0385 516.548 86.1738 516.865C86.3091 517.182 86.5098 517.432 86.7758 517.614C87.0418 517.791 87.3708 517.88 87.7628 517.88C88.1641 517.88 88.5118 517.791 88.8058 517.614C89.1045 517.432 89.3028 517.157 89.4008 516.788H90.9548C90.8708 517.292 90.6701 517.719 90.3528 518.069C90.0401 518.419 89.6575 518.685 89.2048 518.867C88.7568 519.049 88.2878 519.14 87.7978 519.14ZM85.9708 514.716H89.3728C89.3728 514.366 89.3098 514.051 89.1838 513.771C89.0625 513.486 88.8781 513.262 88.6308 513.099C88.3835 512.931 88.0708 512.847 87.6928 512.847C87.3195 512.847 87.0045 512.938 86.7478 513.12C86.4911 513.302 86.2975 513.538 86.1668 513.827C86.0361 514.112 85.9708 514.408 85.9708 514.716ZM92.6105 519V511.762H94.2415V513.33C94.3582 512.971 94.5239 512.665 94.7385 512.413C94.9579 512.156 95.2145 511.96 95.5085 511.825C95.8025 511.69 96.1222 511.622 96.4675 511.622C96.5515 511.622 96.6332 511.627 96.7125 511.636C96.7919 511.645 96.8502 511.662 96.8875 511.685V513.316C96.8362 513.293 96.7685 513.276 96.6845 513.267C96.6052 513.258 96.5352 513.253 96.4745 513.253C96.1245 513.225 95.8142 513.239 95.5435 513.295C95.2775 513.351 95.0512 513.447 94.8645 513.582C94.6825 513.713 94.5449 513.881 94.4515 514.086C94.3582 514.287 94.3115 514.522 94.3115 514.793V519H92.6105ZM98.6757 512.497L98.2067 508.878H100.062L99.5717 512.497H98.6757ZM18.059 543.14C17.597 543.14 17.1817 543.056 16.813 542.888C16.449 542.715 16.162 542.47 15.952 542.153C15.7467 541.831 15.644 541.441 15.644 540.984C15.644 540.186 15.931 539.584 16.505 539.178C17.0837 538.772 18.003 538.56 19.263 538.541L20.348 538.513V538.023C20.348 537.64 20.2337 537.342 20.005 537.127C19.781 536.908 19.431 536.8 18.955 536.805C18.6003 536.81 18.2783 536.894 17.989 537.057C17.6997 537.216 17.5083 537.484 17.415 537.862H15.966C15.994 537.367 16.1363 536.954 16.393 536.623C16.6543 536.287 17.0113 536.037 17.464 535.874C17.9167 535.706 18.4393 535.622 19.032 535.622C19.7227 535.622 20.285 535.713 20.719 535.895C21.153 536.077 21.4727 536.341 21.678 536.686C21.8833 537.027 21.986 537.44 21.986 537.925V543H20.551L20.411 541.698C20.1543 542.244 19.8253 542.622 19.424 542.832C19.0273 543.037 18.5723 543.14 18.059 543.14ZM18.612 541.985C18.822 541.985 19.0297 541.948 19.235 541.873C19.4403 541.794 19.6247 541.689 19.788 541.558C19.956 541.423 20.089 541.273 20.187 541.11C20.2897 540.947 20.3433 540.776 20.348 540.599V539.458L19.459 539.472C19.0203 539.477 18.6353 539.523 18.304 539.612C17.9773 539.701 17.723 539.843 17.541 540.039C17.359 540.23 17.268 540.487 17.268 540.809C17.268 541.178 17.3963 541.467 17.653 541.677C17.9097 541.882 18.2293 541.985 18.612 541.985ZM27.02 545.394C25.802 545.394 24.8663 545.231 24.213 544.904C23.5597 544.577 23.233 544.129 23.233 543.56C23.233 543.303 23.296 543.089 23.422 542.916C23.548 542.743 23.6973 542.601 23.87 542.489C24.0427 542.377 24.2013 542.291 24.346 542.23C24.4907 542.169 24.584 542.125 24.626 542.097C24.5467 542.05 24.4417 541.99 24.311 541.915C24.1803 541.84 24.0613 541.738 23.954 541.607C23.8513 541.476 23.8 541.306 23.8 541.096C23.8 540.853 23.9143 540.629 24.143 540.424C24.3763 540.219 24.724 540.072 25.186 539.983C24.7333 539.764 24.3857 539.467 24.143 539.094C23.9003 538.721 23.779 538.333 23.779 537.932C23.779 537.456 23.9167 537.048 24.192 536.707C24.472 536.366 24.8593 536.105 25.354 535.923C25.8487 535.741 26.425 535.65 27.083 535.65C27.5637 535.65 27.9627 535.704 28.28 535.811C28.602 535.918 28.9007 536.063 29.176 536.245C29.2693 536.208 29.4 536.156 29.568 536.091C29.736 536.021 29.9203 535.946 30.121 535.867C30.3217 535.783 30.5153 535.704 30.702 535.629C30.8887 535.55 31.045 535.484 31.171 535.433L31.164 536.84L29.911 537.064C29.9717 537.199 30.0183 537.346 30.051 537.505C30.0883 537.664 30.107 537.804 30.107 537.925C30.107 538.345 29.988 538.735 29.75 539.094C29.5167 539.449 29.1643 539.733 28.693 539.948C28.2263 540.163 27.643 540.27 26.943 540.27C26.873 540.27 26.7773 540.268 26.656 540.263C26.5347 540.258 26.4367 540.254 26.362 540.249C25.984 540.263 25.725 540.307 25.585 540.382C25.445 540.457 25.375 540.538 25.375 540.627C25.375 540.753 25.48 540.837 25.69 540.879C25.9 540.921 26.236 540.958 26.698 540.991C26.8613 541 27.076 541.012 27.342 541.026C27.608 541.04 27.9043 541.059 28.231 541.082C29.057 541.133 29.6823 541.341 30.107 541.705C30.5317 542.064 30.744 542.531 30.744 543.105C30.744 543.772 30.436 544.321 29.82 544.75C29.204 545.179 28.2707 545.394 27.02 545.394ZM27.307 544.393C27.9183 544.393 28.371 544.309 28.665 544.141C28.959 543.973 29.106 543.726 29.106 543.399C29.106 543.147 29.0057 542.942 28.805 542.783C28.6043 542.624 28.3057 542.531 27.909 542.503L26.082 542.391C25.8813 542.377 25.69 542.414 25.508 542.503C25.3307 542.587 25.186 542.706 25.074 542.86C24.962 543.009 24.906 543.175 24.906 543.357C24.906 543.698 25.0997 543.954 25.487 544.127C25.879 544.304 26.4857 544.393 27.307 544.393ZM26.999 539.269C27.4423 539.269 27.8017 539.157 28.077 538.933C28.3523 538.704 28.49 538.382 28.49 537.967C28.49 537.538 28.3523 537.204 28.077 536.966C27.8017 536.723 27.4423 536.602 26.999 536.602C26.5463 536.602 26.18 536.723 25.9 536.966C25.6247 537.209 25.487 537.542 25.487 537.967C25.487 538.368 25.62 538.686 25.886 538.919C26.152 539.152 26.523 539.269 26.999 539.269ZM35.5576 543.14C34.8622 543.14 34.2486 542.993 33.7166 542.699C33.1892 542.4 32.7762 541.976 32.4776 541.425C32.1836 540.874 32.0366 540.219 32.0366 539.458C32.0366 538.716 32.1696 538.058 32.4356 537.484C32.7062 536.905 33.0959 536.45 33.6046 536.119C34.1179 535.788 34.7362 535.622 35.4596 535.622C36.1736 535.622 36.7732 535.774 37.2586 536.077C37.7439 536.38 38.1126 536.805 38.3646 537.351C38.6166 537.892 38.7426 538.527 38.7426 539.255V539.773H33.7376C33.7329 540.184 33.7982 540.548 33.9336 540.865C34.0689 541.182 34.2696 541.432 34.5356 541.614C34.8016 541.791 35.1306 541.88 35.5226 541.88C35.9239 541.88 36.2716 541.791 36.5656 541.614C36.8642 541.432 37.0626 541.157 37.1606 540.788H38.7146C38.6306 541.292 38.4299 541.719 38.1126 542.069C37.7999 542.419 37.4172 542.685 36.9646 542.867C36.5166 543.049 36.0476 543.14 35.5576 543.14ZM33.7306 538.716H37.1326C37.1326 538.366 37.0696 538.051 36.9436 537.771C36.8222 537.486 36.6379 537.262 36.3906 537.099C36.1432 536.931 35.8306 536.847 35.4526 536.847C35.0792 536.847 34.7642 536.938 34.5076 537.12C34.2509 537.302 34.0572 537.538 33.9266 537.827C33.7959 538.112 33.7306 538.408 33.7306 538.716ZM40.1323 537.932V535.986H42.0573V537.932H40.1323ZM40.1323 542.958V541.026H42.0573V542.958H40.1323ZM50.4648 543.154C49.7042 543.149 49.0485 543.019 48.4978 542.762C47.9472 542.505 47.5178 542.139 47.2098 541.663C46.9065 541.187 46.7478 540.622 46.7338 539.969H48.3928C48.4908 540.571 48.7288 541.019 49.1068 541.313C49.4895 541.602 49.9538 541.747 50.4998 541.747C50.9525 541.747 51.3445 541.679 51.6758 541.544C52.0072 541.404 52.2615 541.213 52.4388 540.97C52.6208 540.727 52.7118 540.445 52.7118 540.123C52.7118 539.782 52.6138 539.491 52.4178 539.248C52.2265 539.005 51.9628 538.819 51.6268 538.688C51.2908 538.557 50.9128 538.487 50.4928 538.478L49.5548 538.45V537.064L50.4228 537.029C50.8242 537.015 51.1765 536.938 51.4798 536.798C51.7878 536.658 52.0282 536.474 52.2008 536.245C52.3735 536.016 52.4598 535.76 52.4598 535.475C52.4598 535.214 52.3782 534.978 52.2148 534.768C52.0562 534.558 51.8298 534.395 51.5358 534.278C51.2418 534.157 50.8942 534.096 50.4928 534.096C50.1522 534.096 49.8325 534.157 49.5338 534.278C49.2352 534.399 48.9878 534.595 48.7918 534.866C48.6005 535.132 48.4955 535.482 48.4768 535.916H46.8248C46.8248 535.225 46.9905 534.644 47.3218 534.173C47.6532 533.697 48.0965 533.34 48.6518 533.102C49.2118 532.859 49.8325 532.738 50.5138 532.738C51.2465 532.738 51.8952 532.838 52.4598 533.039C53.0292 533.235 53.4748 533.531 53.7968 533.928C54.1235 534.325 54.2868 534.817 54.2868 535.405C54.2868 535.904 54.1352 536.35 53.8318 536.742C53.5285 537.134 53.0502 537.442 52.3968 537.666C52.8028 537.778 53.1668 537.946 53.4888 538.17C53.8108 538.389 54.0652 538.665 54.2518 538.996C54.4432 539.327 54.5388 539.717 54.5388 540.165C54.5388 540.646 54.4338 541.073 54.2238 541.446C54.0185 541.819 53.7292 542.134 53.3558 542.391C52.9872 542.643 52.5555 542.834 52.0608 542.965C51.5662 543.091 51.0342 543.154 50.4648 543.154ZM60.4676 543L60.4746 540.599H55.7636V539.15L60.4256 532.878H62.1196V539.15H63.7366V540.599H62.1196V543H60.4676ZM57.3596 539.15H60.4606V534.992L57.3596 539.15Z" fill="black"/>
<path d="M65 206.5C65 205.948 64.5523 205.5 64 205.5C63.4477 205.5 63 205.948 63 206.5H65ZM63 266.438C63 266.99 63.4477 267.438 64 267.438C64.5523 267.438 65 266.99 65 266.438H63ZM65 300.562C65 300.01 64.5523 299.562 64 299.562C63.4477 299.562 63 300.01 63 300.562H65ZM63.2929 361.207C63.6834 361.598 64.3166 361.598 64.7071 361.207L71.0711 354.843C71.4616 354.453 71.4616 353.819 71.0711 353.429C70.6805 353.038 70.0474 353.038 69.6569 353.429L64 359.086L58.3431 353.429C57.9526 353.038 57.3195 353.038 56.9289 353.429C56.5384 353.819 56.5384 354.453 56.9289 354.843L63.2929 361.207ZM64 206.5H63V266.438H64H65V206.5H64ZM64 300.562H63V360.5H64H65V300.562H64Z" fill="#1A1B1D"/>
<path d="M38.8963 289V278.818H40.4326V283.68H40.5568L44.8274 278.818H46.7614L42.6549 283.402L46.7763 289H44.9269L41.6357 284.451L40.4326 285.833V289H38.8963ZM56.2572 278.818V289H54.8453L49.6699 281.533H49.5754V289H48.0392V278.818H49.4611L54.6415 286.295H54.7359V278.818H56.2572ZM67.1887 283.909C67.1887 284.996 66.9898 285.931 66.5921 286.713C66.1943 287.492 65.6491 288.092 64.9564 288.513C64.267 288.93 63.4832 289.139 62.6048 289.139C61.7232 289.139 60.9361 288.93 60.2433 288.513C59.5539 288.092 59.0104 287.49 58.6127 286.708C58.2149 285.926 58.0161 284.993 58.0161 283.909C58.0161 282.822 58.2149 281.889 58.6127 281.11C59.0104 280.328 59.5539 279.728 60.2433 279.31C60.9361 278.889 61.7232 278.679 62.6048 278.679C63.4832 278.679 64.267 278.889 64.9564 279.31C65.6491 279.728 66.1943 280.328 66.5921 281.11C66.9898 281.889 67.1887 282.822 67.1887 283.909ZM65.6673 283.909C65.6673 283.08 65.5331 282.383 65.2646 281.816C64.9995 281.246 64.6349 280.815 64.1709 280.523C63.7102 280.228 63.1882 280.081 62.6048 280.081C62.0182 280.081 61.4945 280.228 61.0338 280.523C60.5731 280.815 60.2085 281.246 59.9401 281.816C59.6749 282.383 59.5423 283.08 59.5423 283.909C59.5423 284.738 59.6749 285.437 59.9401 286.007C60.2085 286.574 60.5731 287.005 61.0338 287.3C61.4945 287.591 62.0182 287.737 62.6048 287.737C63.1882 287.737 63.7102 287.591 64.1709 287.3C64.6349 287.005 64.9995 286.574 65.2646 286.007C65.5331 285.437 65.6673 284.738 65.6673 283.909ZM70.8205 289L67.9967 278.818H69.6124L71.5961 286.703H71.6905L73.7538 278.818H75.3546L77.4178 286.708H77.5123L79.491 278.818H81.1117L78.2829 289H76.7367L74.594 281.374H74.5144L72.3717 289H70.8205ZM87.8844 281.493C87.8314 281.022 87.6126 280.658 87.2281 280.399C86.8437 280.137 86.3598 280.006 85.7764 280.006C85.3588 280.006 84.9975 280.073 84.6926 280.205C84.3877 280.335 84.1507 280.513 83.9817 280.742C83.816 280.968 83.7331 281.224 83.7331 281.513C83.7331 281.755 83.7895 281.964 83.9021 282.139C84.0181 282.315 84.1689 282.462 84.3546 282.582C84.5435 282.698 84.7457 282.795 84.9611 282.875C85.1765 282.951 85.3837 283.014 85.5825 283.064L86.5769 283.322C86.9017 283.402 87.2348 283.51 87.5761 283.646C87.9175 283.781 88.2341 283.96 88.5257 284.183C88.8174 284.405 89.0527 284.68 89.2317 285.008C89.414 285.336 89.5051 285.729 89.5051 286.186C89.5051 286.763 89.356 287.275 89.0577 287.722C88.7627 288.17 88.3335 288.523 87.77 288.781C87.2099 289.04 86.5321 289.169 85.7367 289.169C84.9743 289.169 84.3148 289.048 83.758 288.806C83.2011 288.564 82.7653 288.221 82.4504 287.777C82.1356 287.33 81.9616 286.799 81.9284 286.186H83.4696C83.4994 286.554 83.6188 286.861 83.8276 287.106C84.0397 287.348 84.3098 287.528 84.6379 287.648C84.9694 287.764 85.3323 287.822 85.7267 287.822C86.1609 287.822 86.547 287.754 86.8851 287.618C87.2265 287.479 87.4949 287.286 87.6905 287.041C87.886 286.793 87.9838 286.503 87.9838 286.171C87.9838 285.87 87.8976 285.623 87.7253 285.43C87.5563 285.238 87.3259 285.079 87.0342 284.953C86.7459 284.827 86.4194 284.716 86.0548 284.62L84.8517 284.292C84.0364 284.07 83.3901 283.743 82.9128 283.312C82.4388 282.882 82.2019 282.312 82.2019 281.602C82.2019 281.016 82.3609 280.504 82.6791 280.066C82.9973 279.629 83.4282 279.289 83.9717 279.047C84.5153 278.802 85.1285 278.679 85.8112 278.679C86.5006 278.679 87.1088 278.8 87.6358 279.042C88.1661 279.284 88.5837 279.617 88.8886 280.041C89.1936 280.462 89.3527 280.946 89.3659 281.493H87.8844Z" fill="black" fill-opacity="0.8"/>
<path d="M244.504 428.272C245.056 428.27 245.502 427.82 245.5 427.268C245.498 426.716 245.048 426.27 244.496 426.272L244.504 428.272ZM221.058 426.367C220.506 426.369 220.06 426.818 220.063 427.371C220.065 427.923 220.514 428.369 221.067 428.367L221.058 426.367ZM154.942 428.633C155.494 428.631 155.94 428.182 155.937 427.629C155.935 427.077 155.486 426.631 154.933 426.633L154.942 428.633ZM130.79 427.024C130.401 427.416 130.404 428.049 130.796 428.438L137.185 434.776C137.577 435.165 138.211 435.162 138.599 434.77C138.988 434.378 138.986 433.745 138.594 433.356L132.914 427.722L138.548 422.043C138.937 421.65 138.935 421.017 138.542 420.628C138.15 420.239 137.517 420.242 137.128 420.634L130.79 427.024ZM244.5 427.272L244.496 426.272L221.058 426.367L221.062 427.367L221.067 428.367L244.504 428.272L244.5 427.272ZM154.937 427.633L154.933 426.633L131.496 426.728L131.5 427.728L131.504 428.728L154.942 428.633L154.937 427.633Z" fill="#1A1B1D"/>
<path d="M162.896 433V422.818H164.433V427.68H164.557L168.827 422.818H170.761L166.655 427.402L170.776 433H168.927L165.636 428.451L164.433 429.833V433H162.896ZM180.257 422.818V433H178.845L173.67 425.533H173.575V433H172.039V422.818H173.461L178.641 430.295H178.736V422.818H180.257ZM191.189 427.909C191.189 428.996 190.99 429.931 190.592 430.713C190.194 431.492 189.649 432.092 188.956 432.513C188.267 432.93 187.483 433.139 186.605 433.139C185.723 433.139 184.936 432.93 184.243 432.513C183.554 432.092 183.01 431.49 182.613 430.708C182.215 429.926 182.016 428.993 182.016 427.909C182.016 426.822 182.215 425.889 182.613 425.11C183.01 424.328 183.554 423.728 184.243 423.31C184.936 422.889 185.723 422.679 186.605 422.679C187.483 422.679 188.267 422.889 188.956 423.31C189.649 423.728 190.194 424.328 190.592 425.11C190.99 425.889 191.189 426.822 191.189 427.909ZM189.667 427.909C189.667 427.08 189.533 426.383 189.265 425.816C188.999 425.246 188.635 424.815 188.171 424.523C187.71 424.228 187.188 424.081 186.605 424.081C186.018 424.081 185.495 424.228 185.034 424.523C184.573 424.815 184.209 425.246 183.94 425.816C183.675 426.383 183.542 427.08 183.542 427.909C183.542 428.738 183.675 429.437 183.94 430.007C184.209 430.574 184.573 431.005 185.034 431.3C185.495 431.591 186.018 431.737 186.605 431.737C187.188 431.737 187.71 431.591 188.171 431.3C188.635 431.005 188.999 430.574 189.265 430.007C189.533 429.437 189.667 428.738 189.667 427.909ZM194.821 433L191.997 422.818H193.612L195.596 430.703H195.691L197.754 422.818H199.355L201.418 430.708H201.512L203.491 422.818H205.112L202.283 433H200.737L198.594 425.374H198.514L196.372 433H194.821ZM211.884 425.493C211.831 425.022 211.613 424.658 211.228 424.399C210.844 424.137 210.36 424.006 209.776 424.006C209.359 424.006 208.998 424.073 208.693 424.205C208.388 424.335 208.151 424.513 207.982 424.742C207.816 424.968 207.733 425.224 207.733 425.513C207.733 425.755 207.789 425.964 207.902 426.139C208.018 426.315 208.169 426.462 208.355 426.582C208.543 426.698 208.746 426.795 208.961 426.875C209.177 426.951 209.384 427.014 209.583 427.064L210.577 427.322C210.902 427.402 211.235 427.51 211.576 427.646C211.918 427.781 212.234 427.96 212.526 428.183C212.817 428.405 213.053 428.68 213.232 429.008C213.414 429.336 213.505 429.729 213.505 430.186C213.505 430.763 213.356 431.275 213.058 431.722C212.763 432.17 212.333 432.523 211.77 432.781C211.21 433.04 210.532 433.169 209.737 433.169C208.974 433.169 208.315 433.048 207.758 432.806C207.201 432.564 206.765 432.221 206.45 431.777C206.136 431.33 205.962 430.799 205.928 430.186H207.47C207.499 430.554 207.619 430.861 207.828 431.106C208.04 431.348 208.31 431.528 208.638 431.648C208.969 431.764 209.332 431.822 209.727 431.822C210.161 431.822 210.547 431.754 210.885 431.618C211.226 431.479 211.495 431.286 211.69 431.041C211.886 430.793 211.984 430.503 211.984 430.171C211.984 429.87 211.898 429.623 211.725 429.43C211.556 429.238 211.326 429.079 211.034 428.953C210.746 428.827 210.419 428.716 210.055 428.62L208.852 428.292C208.036 428.07 207.39 427.743 206.913 427.312C206.439 426.882 206.202 426.312 206.202 425.602C206.202 425.016 206.361 424.504 206.679 424.066C206.997 423.629 207.428 423.289 207.972 423.047C208.515 422.802 209.128 422.679 209.811 422.679C210.501 422.679 211.109 422.8 211.636 423.042C212.166 423.284 212.584 423.617 212.889 424.041C213.194 424.462 213.353 424.946 213.366 425.493H211.884Z" fill="black" fill-opacity="0.8"/>
</g>
<defs>
<clipPath id="clip0_747_67">
<rect width="376" height="548" fill="white"/>
</clipPath>
</defs>
</svg>
