<svg xmlns="http://www.w3.org/2000/svg" width="431" height="178" viewBox="0 0 431 178"><defs><style type="text/css"/></defs><g transform="translate(-7.3105468750000036 4) scale(1)"><g class="relationship"><g transform="translate(75 50) rotate(0)" stroke-width="2" stroke="#000000"><path d="M 59 0 L 233.01723342602793 0"/><polygon points="-14.155129855222071,0 -15.727922061357857,5.242640687119286 0,0 -15.727922061357857,-5.242640687119286" fill="#000000" transform="translate(247.17236328125 0) rotate(0)" stroke="none"/></g><g transform="translate(221.00861671301396 50) rotate(0) translate(0 -13)"><g transform="translate(0 0)"><g transform="translate(-45.74609375 0)" fill="#ffffff" stroke="#000000" stroke-width="0"><rect x="0" y="0" width="91.4921875" height="26" rx="5" ry="5" stroke="none"/><text xml:space="preserve" x="5" y="17.45703125" stroke="none" text-anchor="left" font-family="sans-serif" font-size="16" font-weight="normal" fill="#000000">CONTAINS</text></g></g></g></g><g class="node"><g fill="#ffffff" stroke="#006FD6" stroke-width="4"><circle cx="75" cy="50" r="52"/></g><g transform="translate(75 50)"><g transform="scale(0.6679613694579704) translate(0 -30.5)"><g transform="translate(0 0)"><g transform="translate(-60.069580078125 0)"><g fill="#000000" stroke="#000000" stroke-width="4" font-family="sans-serif" font-size="47" font-weight="normal"><text xml:space="preserve" x="0" y="43.592529296875" stroke="none">Order</text></g></g></g></g><g transform="translate(3.429011037612589e-15 56)"><g transform="translate(0 0)"><g transform="translate(-67.689453125 0)" fill="white"><rect x="0" y="0" width="135.37890625" height="67.2" rx="0" ry="0" stroke="none"/><g font-family="sans-serif" font-size="14" font-weight="normal" fill="#535B66" text-anchor="end"><text xml:space="preserve" x="65.3720703125" y="12.29990234375" stroke="none">id:</text><text xml:space="preserve" x="69.26171875" y="12.29990234375" stroke="none" text-anchor="start">STRING</text><text xml:space="preserve" x="65.3720703125" y="29.099902343750003" stroke="none" text-anchor="end">ordeDate:</text><text xml:space="preserve" x="69.26171875" y="29.099902343750003" stroke="none" text-anchor="start">DATE</text><text xml:space="preserve" x="65.3720703125" y="45.89990234375" stroke="none" text-anchor="end">total:</text><text xml:space="preserve" x="69.26171875" y="45.89990234375" stroke="none" text-anchor="start">INTEGER</text><text xml:space="preserve" x="65.3720703125" y="62.699902343750004" stroke="none" text-anchor="end">status:</text><text xml:space="preserve" x="69.26171875" y="62.699902343750004" stroke="none" text-anchor="start">STRING</text></g></g></g></g></g></g><g class="node"><g fill="#ffffff" stroke="#006FD6" stroke-width="4"><circle cx="381.17236328125" cy="50" r="52"/></g><g transform="translate(381.17236328125 50)"><g transform="scale(0.8189879432658517) translate(0 -30.5)"><g transform="translate(0 0)"><g transform="translate(-45.703369140625 0)"><g fill="#000000" stroke="#000000" stroke-width="4" font-family="sans-serif" font-size="47" font-weight="normal"><text xml:space="preserve" x="0" y="43.592529296875" stroke="none">Item</text></g></g></g></g><g transform="translate(3.429011037612589e-15 56)"><g transform="translate(0 0)"><g transform="translate(-56.4033203125 0)" fill="white"><rect x="0" y="0" width="112.806640625" height="33.6" rx="0" ry="0" stroke="none"/><g font-family="sans-serif" font-size="14" font-weight="normal" fill="#535B66" text-anchor="end"><text xml:space="preserve" x="42.7998046875" y="12.29990234375" stroke="none">name:</text><text xml:space="preserve" x="46.689453125" y="12.29990234375" stroke="none" text-anchor="start">STRING</text><text xml:space="preserve" x="42.7998046875" y="29.099902343750003" stroke="none" text-anchor="end">price:</text><text xml:space="preserve" x="46.689453125" y="29.099902343750003" stroke="none" text-anchor="start">INTEGER</text></g></g></g></g></g></g></g></svg>