<svg xmlns="http://www.w3.org/2000/svg" width="731" height="178" viewBox="0 0 731 178"><defs><style type="text/css"/></defs><g transform="translate(76.17236328125 59) scale(1)"><g class="relationship"><g transform="translate(-12 -5) rotate(0)" stroke-width="2" stroke="#000000"><path d="M 59 0 L 233.01723342602793 0"/><polygon points="-14.155129855222071,0 -15.727922061357857,5.242640687119286 0,0 -15.727922061357857,-5.242640687119286" fill="#000000" transform="translate(247.17236328125 0) rotate(0)" stroke="none"/></g><g transform="translate(134.00861671301396 -5) rotate(0) translate(0 -22.6)"><g transform="translate(0 0)"><g transform="translate(-26.78515625 0)" fill="#ffffff" stroke="#000000" stroke-width="0"><rect x="0" y="0" width="53.5703125" height="26" rx="5" ry="5" stroke="none"/><text xml:space="preserve" x="5" y="17.45703125" stroke="none" text-anchor="left" font-family="sans-serif" font-size="16" font-weight="normal" fill="#000000">BUYS</text></g></g><g transform="translate(0 26)"><g transform="translate(-45.20703125 0)" fill="white"><rect x="0" y="0" width="90.4140625" height="19.2" rx="0" ry="0" stroke="none"/><g font-family="sans-serif" font-size="16" font-weight="normal" fill="#535B66" text-anchor="end"><text xml:space="preserve" x="40.03125" y="14.05703125" stroke="none">date:</text><text xml:space="preserve" x="44.4765625" y="14.05703125" stroke="none" text-anchor="start">DATE</text></g></g></g></g></g><g class="relationship"><g transform="translate(600.3447265625 -5) rotate(180)" stroke-width="2" stroke="#000000"><path d="M 59 0 L 233.01723342602793 0"/><polygon points="-14.155129855222071,0 -15.727922061357857,5.242640687119286 0,0 -15.727922061357857,-5.242640687119286" fill="#000000" transform="translate(247.17236328125 0) rotate(0)" stroke="none"/></g><g transform="translate(454.33610984948604 -4.999999999999982) rotate(360) translate(0 -13)"><g transform="translate(0 0)"><g transform="translate(-44.12890625 0)" fill="#ffffff" stroke="#000000" stroke-width="0"><rect x="0" y="0" width="88.2578125" height="26" rx="5" ry="5" stroke="none"/><text xml:space="preserve" x="5" y="17.45703125" stroke="none" text-anchor="left" font-family="sans-serif" font-size="16" font-weight="normal" fill="#000000">SUPPLIES</text></g></g></g></g><g class="node"><g fill="#ffffff" stroke="#006FD6" stroke-width="4"><circle cx="-12" cy="-5" r="52"/></g><g transform="translate(-12 -5)"><g transform="scale(0.42321707420691024) translate(0 -30.5)"><g transform="translate(0 0)"><g transform="translate(-101.860107421875 0)"><g fill="#000000" stroke="#000000" stroke-width="4" font-family="sans-serif" font-size="47" font-weight="normal"><text xml:space="preserve" x="0" y="43.592529296875" stroke="none">Customer</text></g></g></g></g><g transform="translate(3.429011037612589e-15 56)"><g transform="translate(0 0)"><g transform="translate(-64.17236328125 0)" fill="white"><rect x="0" y="0" width="128.3447265625" height="67.2" rx="0" ry="0" stroke="none"/><g font-family="sans-serif" font-size="14" font-weight="normal" fill="#535B66" text-anchor="end"><text xml:space="preserve" x="67.67578125" y="12.29990234375" stroke="none">firstName:</text><text xml:space="preserve" x="71.5654296875" y="12.29990234375" stroke="none" text-anchor="start">STRING</text><text xml:space="preserve" x="67.67578125" y="29.099902343750003" stroke="none" text-anchor="end">lastName:</text><text xml:space="preserve" x="71.5654296875" y="29.099902343750003" stroke="none" text-anchor="start">STRING</text><text xml:space="preserve" x="67.67578125" y="45.89990234375" stroke="none" text-anchor="end">email:</text><text xml:space="preserve" x="71.5654296875" y="45.89990234375" stroke="none" text-anchor="start">STRING</text><text xml:space="preserve" x="67.67578125" y="62.699902343750004" stroke="none" text-anchor="end">discount:</text><text xml:space="preserve" x="71.5654296875" y="62.699902343750004" stroke="none" text-anchor="start">FLOAT</text></g></g></g></g></g></g><g class="node"><g fill="#ffffff" stroke="#006FD6" stroke-width="4"><circle cx="294.17236328125" cy="-5" r="52"/></g><g transform="translate(294.17236328125 -5)"><g transform="scale(0.519987249076489) translate(0 -30.5)"><g transform="translate(0 0)"><g transform="translate(-80.98779296875 0)"><g fill="#000000" stroke="#000000" stroke-width="4" font-family="sans-serif" font-size="47" font-weight="normal"><text xml:space="preserve" x="0" y="43.592529296875" stroke="none">Product</text></g></g></g></g><g transform="translate(3.429011037612589e-15 56)"><g transform="translate(0 0)"><g transform="translate(-56.4033203125 0)" fill="white"><rect x="0" y="0" width="112.806640625" height="33.6" rx="0" ry="0" stroke="none"/><g font-family="sans-serif" font-size="14" font-weight="normal" fill="#535B66" text-anchor="end"><text xml:space="preserve" x="42.7998046875" y="12.29990234375" stroke="none">name:</text><text xml:space="preserve" x="46.689453125" y="12.29990234375" stroke="none" text-anchor="start">STRING</text><text xml:space="preserve" x="42.7998046875" y="29.099902343750003" stroke="none" text-anchor="end">price:</text><text xml:space="preserve" x="46.689453125" y="29.099902343750003" stroke="none" text-anchor="start">INTEGER</text></g></g></g></g></g></g><g class="node"><g fill="#ffffff" stroke="#006FD6" stroke-width="4"><circle cx="600.3447265625" cy="-5" r="52"/></g><g transform="translate(600.3447265625 -5)"><g transform="scale(0.492040608320393) translate(0 -30.5)"><g transform="translate(0 0)"><g transform="translate(-86.22021484375 0)"><g fill="#000000" stroke="#000000" stroke-width="4" font-family="sans-serif" font-size="47" font-weight="normal"><text xml:space="preserve" x="0" y="43.592529296875" stroke="none">Supplier</text></g></g></g></g><g transform="translate(3.429011037612589e-15 56)"><g transform="translate(0 0)"><g transform="translate(-51.734375 0)" fill="white"><rect x="0" y="0" width="103.46875" height="33.6" rx="0" ry="0" stroke="none"/><g font-family="sans-serif" font-size="14" font-weight="normal" fill="#535B66" text-anchor="end"><text xml:space="preserve" x="42.7998046875" y="12.29990234375" stroke="none">name:</text><text xml:space="preserve" x="46.689453125" y="12.29990234375" stroke="none" text-anchor="start">STRING</text><text xml:space="preserve" x="42.7998046875" y="29.099902343750003" stroke="none" text-anchor="end">email:</text><text xml:space="preserve" x="46.689453125" y="29.099902343750003" stroke="none" text-anchor="start">STRING</text></g></g></g></g></g></g></g></svg>