<svg width="723" height="159" viewBox="0 0 723 159" fill="none" xmlns="http://www.w3.org/2000/svg">
<path d="M519 64C519 28.6538 547.654 0 583 0C618.346 0 647 28.6538 647 64C647 99.3462 618.346 128 583 128C547.654 128 519 99.3462 519 64Z" fill="#FFDF81" style="fill:#FFDF81;fill:color(display-p3 1.0000 0.8745 0.5059);fill-opacity:1;"/>
<path d="M564.575 61V53.762H565.828V54.812C565.945 54.6113 566.106 54.4223 566.311 54.245C566.521 54.0677 566.773 53.9253 567.067 53.818C567.366 53.7107 567.709 53.657 568.096 53.657C568.553 53.657 568.973 53.748 569.356 53.93C569.743 54.112 570.051 54.3967 570.28 54.784C570.513 55.1667 570.63 55.6613 570.63 56.268V61H569.335V56.394C569.335 55.8293 569.186 55.4117 568.887 55.141C568.593 54.8657 568.21 54.728 567.739 54.728C567.412 54.728 567.107 54.7817 566.822 54.889C566.537 54.9917 566.306 55.1503 566.129 55.365C565.952 55.575 565.863 55.841 565.863 56.163V61H564.575ZM574.658 61.14C574.186 61.14 573.771 61.0583 573.412 60.895C573.057 60.727 572.777 60.4867 572.572 60.174C572.371 59.8613 572.271 59.4833 572.271 59.04C572.271 58.2373 572.551 57.64 573.111 57.248C573.671 56.856 574.569 56.646 575.806 56.618L577.094 56.583V56.016C577.094 55.5727 576.961 55.2227 576.695 54.966C576.429 54.7047 576.018 54.574 575.463 54.574C575.047 54.5787 574.681 54.6767 574.364 54.868C574.046 55.0593 573.843 55.372 573.755 55.806H572.614C572.642 55.3347 572.772 54.938 573.006 54.616C573.244 54.2893 573.577 54.042 574.007 53.874C574.436 53.706 574.942 53.622 575.526 53.622C576.156 53.622 576.678 53.7107 577.094 53.888C577.514 54.0653 577.826 54.3267 578.032 54.672C578.242 55.0173 578.347 55.442 578.347 55.946V61H577.241L577.143 59.642C576.867 60.2067 576.513 60.5987 576.079 60.818C575.649 61.0327 575.176 61.14 574.658 61.14ZM575.043 60.209C575.29 60.209 575.533 60.1647 575.771 60.076C576.013 59.9873 576.233 59.8683 576.429 59.719C576.629 59.565 576.79 59.3947 576.912 59.208C577.033 59.0167 577.094 58.8207 577.094 58.62V57.381L576.023 57.402C575.467 57.4113 575.005 57.4673 574.637 57.57C574.268 57.6727 573.99 57.8337 573.804 58.053C573.617 58.2723 573.524 58.5593 573.524 58.914C573.524 59.32 573.666 59.6373 573.951 59.866C574.235 60.0947 574.599 60.209 575.043 60.209ZM580.366 61V53.762H581.612V54.812C581.813 54.4947 582.088 54.217 582.438 53.979C582.788 53.741 583.243 53.622 583.803 53.622C584.064 53.622 584.33 53.6663 584.601 53.755C584.876 53.8437 585.128 53.9767 585.357 54.154C585.586 54.3313 585.763 54.5483 585.889 54.805C586.113 54.4503 586.416 54.1657 586.799 53.951C587.182 53.7317 587.613 53.622 588.094 53.622C588.346 53.622 588.61 53.6617 588.885 53.741C589.16 53.8157 589.415 53.951 589.648 54.147C589.886 54.3383 590.08 54.6067 590.229 54.952C590.378 55.2927 590.453 55.7313 590.453 56.268V61H589.151V56.394C589.151 55.9553 589.081 55.617 588.941 55.379C588.801 55.1363 588.617 54.966 588.388 54.868C588.164 54.77 587.924 54.721 587.667 54.721C587.443 54.721 587.205 54.7653 586.953 54.854C586.701 54.9427 586.486 55.092 586.309 55.302C586.132 55.512 586.043 55.799 586.043 56.163V61H584.755V56.016C584.755 55.7313 584.678 55.4933 584.524 55.302C584.375 55.1107 584.186 54.966 583.957 54.868C583.733 54.77 583.509 54.721 583.285 54.721C583.038 54.721 582.788 54.77 582.536 54.868C582.289 54.966 582.079 55.1223 581.906 55.337C581.738 55.547 581.654 55.8223 581.654 56.163V61H580.366ZM595.538 61.14C594.866 61.14 594.274 60.993 593.76 60.699C593.247 60.405 592.846 59.9827 592.556 59.432C592.267 58.8813 592.122 58.221 592.122 57.451C592.122 56.6903 592.253 56.023 592.514 55.449C592.776 54.875 593.154 54.427 593.648 54.105C594.148 53.783 594.747 53.622 595.447 53.622C596.129 53.622 596.705 53.769 597.176 54.063C597.648 54.357 598.005 54.7723 598.247 55.309C598.495 55.841 598.618 56.4733 598.618 57.206V57.682H593.431C593.431 58.1393 593.506 58.5547 593.655 58.928C593.809 59.2967 594.04 59.5907 594.348 59.81C594.656 60.0293 595.046 60.139 595.517 60.139C595.979 60.139 596.376 60.0317 596.707 59.817C597.043 59.6023 597.258 59.292 597.351 58.886H598.569C598.485 59.376 598.289 59.789 597.981 60.125C597.678 60.461 597.312 60.7153 596.882 60.888C596.458 61.056 596.01 61.14 595.538 61.14ZM593.438 56.807H597.372C597.372 56.3917 597.302 56.0183 597.162 55.687C597.022 55.351 596.808 55.0873 596.518 54.896C596.234 54.7 595.874 54.602 595.44 54.602C594.988 54.602 594.612 54.7117 594.313 54.931C594.015 55.1457 593.793 55.4233 593.648 55.764C593.504 56.1 593.434 56.4477 593.438 56.807ZM600.108 55.694V54.049H601.655V55.694H600.108ZM600.108 60.958V59.327H601.655V60.958H600.108ZM541.934 77V66.878C541.966 66.878 542.064 66.8803 542.228 66.885C542.396 66.885 542.599 66.885 542.837 66.885C543.075 66.8803 543.322 66.8803 543.579 66.885C543.835 66.885 544.071 66.8873 544.286 66.892C545.527 66.9107 546.533 67.1137 547.303 67.501C548.077 67.8837 548.644 68.4413 549.004 69.174C549.368 69.9067 549.55 70.8073 549.55 71.876C549.55 72.996 549.354 73.9363 548.962 74.697C548.574 75.4577 547.982 76.0317 547.184 76.419C546.39 76.8063 545.38 77 544.153 77H541.934ZM543.264 75.887H544.153C544.988 75.887 545.707 75.7587 546.309 75.502C546.911 75.2407 547.373 74.8183 547.695 74.235C548.021 73.6517 548.185 72.8723 548.185 71.897C548.185 70.9217 548.026 70.1493 547.709 69.58C547.396 69.0107 546.943 68.6047 546.351 68.362C545.758 68.1147 545.044 67.991 544.209 67.991H543.264V75.887ZM554.434 77.14C553.762 77.14 553.169 76.993 552.656 76.699C552.142 76.405 551.741 75.9827 551.452 75.432C551.162 74.8813 551.018 74.221 551.018 73.451C551.018 72.6903 551.148 72.023 551.41 71.449C551.671 70.875 552.049 70.427 552.544 70.105C553.043 69.783 553.643 69.622 554.343 69.622C555.024 69.622 555.6 69.769 556.072 70.063C556.543 70.357 556.9 70.7723 557.143 71.309C557.39 71.841 557.514 72.4733 557.514 73.206V73.682H552.327C552.327 74.1393 552.401 74.5547 552.551 74.928C552.705 75.2967 552.936 75.5907 553.244 75.81C553.552 76.0293 553.941 76.139 554.413 76.139C554.875 76.139 555.271 76.0317 555.603 75.817C555.939 75.6023 556.153 75.292 556.247 74.886H557.465C557.381 75.376 557.185 75.789 556.877 76.125C556.573 76.461 556.207 76.7153 555.778 76.888C555.353 77.056 554.905 77.14 554.434 77.14ZM552.334 72.807H556.268C556.268 72.3917 556.198 72.0183 556.058 71.687C555.918 71.351 555.703 71.0873 555.414 70.896C555.129 70.7 554.77 70.602 554.336 70.602C553.883 70.602 553.507 70.7117 553.209 70.931C552.91 71.1457 552.688 71.4233 552.544 71.764C552.399 72.1 552.329 72.4477 552.334 72.807ZM559.304 77V69.762H560.557V70.812C560.674 70.6113 560.835 70.4223 561.04 70.245C561.25 70.0677 561.502 69.9253 561.796 69.818C562.095 69.7107 562.438 69.657 562.825 69.657C563.283 69.657 563.703 69.748 564.085 69.93C564.473 70.112 564.781 70.3967 565.009 70.784C565.243 71.1667 565.359 71.6613 565.359 72.268V77H564.064V72.394C564.064 71.8293 563.915 71.4117 563.616 71.141C563.322 70.8657 562.94 70.728 562.468 70.728C562.142 70.728 561.836 70.7817 561.551 70.889C561.267 70.9917 561.036 71.1503 560.858 71.365C560.681 71.575 560.592 71.841 560.592 72.163V77H559.304ZM567.384 77V69.762H568.63V70.812C568.831 70.4947 569.106 70.217 569.456 69.979C569.806 69.741 570.261 69.622 570.821 69.622C571.083 69.622 571.349 69.6663 571.619 69.755C571.895 69.8437 572.147 69.9767 572.375 70.154C572.604 70.3313 572.781 70.5483 572.907 70.805C573.131 70.4503 573.435 70.1657 573.817 69.951C574.2 69.7317 574.632 69.622 575.112 69.622C575.364 69.622 575.628 69.6617 575.903 69.741C576.179 69.8157 576.433 69.951 576.666 70.147C576.904 70.3383 577.098 70.6067 577.247 70.952C577.397 71.2927 577.471 71.7313 577.471 72.268V77H576.169V72.394C576.169 71.9553 576.099 71.617 575.959 71.379C575.819 71.1363 575.635 70.966 575.406 70.868C575.182 70.77 574.942 70.721 574.685 70.721C574.461 70.721 574.223 70.7653 573.971 70.854C573.719 70.9427 573.505 71.092 573.327 71.302C573.15 71.512 573.061 71.799 573.061 72.163V77H571.773V72.016C571.773 71.7313 571.696 71.4933 571.542 71.302C571.393 71.1107 571.204 70.966 570.975 70.868C570.751 70.77 570.527 70.721 570.303 70.721C570.056 70.721 569.806 70.77 569.554 70.868C569.307 70.966 569.097 71.1223 568.924 71.337C568.756 71.547 568.672 71.8223 568.672 72.163V77H567.384ZM581.5 77.14C581.029 77.14 580.614 77.0583 580.254 76.895C579.9 76.727 579.62 76.4867 579.414 76.174C579.214 75.8613 579.113 75.4833 579.113 75.04C579.113 74.2373 579.393 73.64 579.953 73.248C580.513 72.856 581.412 72.646 582.648 72.618L583.936 72.583V72.016C583.936 71.5727 583.803 71.2227 583.537 70.966C583.271 70.7047 582.861 70.574 582.305 70.574C581.89 70.5787 581.524 70.6767 581.206 70.868C580.889 71.0593 580.686 71.372 580.597 71.806H579.456C579.484 71.3347 579.615 70.938 579.848 70.616C580.086 70.2893 580.42 70.042 580.849 69.874C581.279 69.706 581.785 69.622 582.368 69.622C582.998 69.622 583.521 69.7107 583.936 69.888C584.356 70.0653 584.669 70.3267 584.874 70.672C585.084 71.0173 585.189 71.442 585.189 71.946V77H584.083L583.985 75.642C583.71 76.2067 583.355 76.5987 582.921 76.818C582.492 77.0327 582.018 77.14 581.5 77.14ZM581.885 76.209C582.133 76.209 582.375 76.1647 582.613 76.076C582.856 75.9873 583.075 75.8683 583.271 75.719C583.472 75.565 583.633 75.3947 583.754 75.208C583.876 75.0167 583.936 74.8207 583.936 74.62V73.381L582.865 73.402C582.31 73.4113 581.848 73.4673 581.479 73.57C581.111 73.6727 580.833 73.8337 580.646 74.053C580.46 74.2723 580.366 74.5593 580.366 74.914C580.366 75.32 580.509 75.6373 580.793 75.866C581.078 76.0947 581.442 76.209 581.885 76.209ZM587.209 77V69.762H588.441V71.155C588.562 70.8097 588.732 70.525 588.952 70.301C589.171 70.0723 589.421 69.902 589.701 69.79C589.985 69.678 590.279 69.622 590.583 69.622C590.69 69.622 590.795 69.629 590.898 69.643C591 69.657 591.08 69.6803 591.136 69.713V70.966C591.066 70.9333 590.975 70.9123 590.863 70.903C590.755 70.889 590.664 70.882 590.59 70.882C590.3 70.8633 590.03 70.882 589.778 70.938C589.526 70.9893 589.304 71.0803 589.113 71.211C588.921 71.3417 588.77 71.5143 588.658 71.729C588.55 71.939 588.497 72.1957 588.497 72.499V77H587.209ZM592.677 77V66.598H593.965V73.381L597.367 69.762H598.851L596.24 72.52L599.033 77H597.661L595.393 73.367L593.965 74.844V77H592.677ZM604.209 77V66.878H605.504V71.19H610.964V66.878H612.259V77H610.964V72.331H605.504V77H604.209ZM614.697 77V69.762H615.95V77H614.697ZM614.662 68.229V66.885H615.985V68.229H614.662ZM620.03 77.091C619.638 77.091 619.321 77.0373 619.078 76.93C618.84 76.8227 618.656 76.678 618.525 76.496C618.399 76.314 618.313 76.1063 618.266 75.873C618.224 75.635 618.203 75.39 618.203 75.138V66.598H619.477V75.012C619.477 75.376 619.547 75.649 619.687 75.831C619.832 76.013 620.032 76.1133 620.289 76.132L620.681 76.139V76.979C620.574 77.0117 620.462 77.0373 620.345 77.056C620.228 77.0793 620.123 77.091 620.03 77.091ZM624.063 77.091C623.671 77.091 623.354 77.0373 623.111 76.93C622.873 76.8227 622.689 76.678 622.558 76.496C622.432 76.314 622.346 76.1063 622.299 75.873C622.257 75.635 622.236 75.39 622.236 75.138V66.598H623.51V75.012C623.51 75.376 623.58 75.649 623.72 75.831C623.865 76.013 624.065 76.1133 624.322 76.132L624.714 76.139V76.979C624.607 77.0117 624.495 77.0373 624.378 77.056C624.261 77.0793 624.156 77.091 624.063 77.091Z" fill="#1A1B1D" style="fill:#1A1B1D;fill:color(display-p3 0.1020 0.1059 0.1137);fill-opacity:1;"/>
<path d="M0 64C0 28.6538 28.6538 0 64 0C99.3462 0 128 28.6538 128 64C128 99.3462 99.3462 128 64 128C28.6538 128 0 99.3462 0 64Z" fill="#8DCC93" style="fill:#8DCC93;fill:color(display-p3 0.5529 0.8000 0.5765);fill-opacity:1;"/>
<path d="M131 64H516" stroke="#4D5157" style="stroke:#4D5157;stroke:color(display-p3 0.3020 0.3176 0.3412);stroke-opacity:1;" stroke-linecap="round" stroke-linejoin="bevel"/>
<path d="M37.0941 149.1C37.0941 149.828 37.1571 150.481 37.2831 151.06C37.4091 151.634 37.5958 152.161 37.8431 152.642C38.0905 153.118 38.4008 153.571 38.7741 154C39.1521 154.434 39.5908 154.873 40.0901 155.316L39.4741 155.96C38.7181 155.339 38.0695 154.705 37.5281 154.056C36.9915 153.407 36.5785 152.684 36.2891 151.886C36.0045 151.088 35.8621 150.159 35.8621 149.1C35.8621 148.036 36.0045 147.105 36.2891 146.307C36.5785 145.509 36.9915 144.786 37.5281 144.137C38.0695 143.488 38.7181 142.856 39.4741 142.24L40.0901 142.884C39.5861 143.332 39.1451 143.773 38.7671 144.207C38.3938 144.636 38.0835 145.089 37.8361 145.565C37.5888 146.036 37.4021 146.561 37.2761 147.14C37.1548 147.714 37.0941 148.367 37.0941 149.1ZM89.9113 149.1C89.9113 148.367 89.8483 147.714 89.7223 147.14C89.601 146.561 89.4167 146.036 89.1693 145.565C88.922 145.089 88.6093 144.636 88.2313 144.207C87.858 143.773 87.4193 143.332 86.9153 142.884L87.5313 142.24C88.292 142.856 88.9407 143.488 89.4773 144.137C90.014 144.786 90.4247 145.509 90.7093 146.307C90.9987 147.105 91.1433 148.036 91.1433 149.1C91.1433 150.159 90.9987 151.088 90.7093 151.886C90.4247 152.684 90.014 153.407 89.4773 154.056C88.9407 154.705 88.292 155.339 87.5313 155.96L86.9153 155.316C87.4147 154.873 87.851 154.434 88.2243 154C88.6023 153.571 88.915 153.118 89.1623 152.642C89.4097 152.161 89.5963 151.634 89.7223 151.06C89.8483 150.481 89.9113 149.828 89.9113 149.1Z" fill="#8DCC93" style="fill:#8DCC93;fill:color(display-p3 0.5529 0.8000 0.5765);fill-opacity:1;"/>
<path d="M45.5727 151.9C45.5727 151.597 45.68 151.333 45.8947 151.109C46.114 150.885 46.3823 150.773 46.6997 150.773C47.0263 150.773 47.297 150.885 47.5117 151.109C47.731 151.333 47.8407 151.597 47.8407 151.9C47.8407 152.217 47.731 152.488 47.5117 152.712C47.297 152.931 47.0263 153.041 46.6997 153.041C46.3823 153.041 46.114 152.931 45.8947 152.712C45.68 152.488 45.5727 152.217 45.5727 151.9ZM45.5727 146.853C45.5727 146.638 45.6217 146.447 45.7197 146.279C45.8177 146.111 45.953 145.978 46.1257 145.88C46.2983 145.777 46.4897 145.726 46.6997 145.726C47.0263 145.726 47.297 145.836 47.5117 146.055C47.731 146.274 47.8407 146.54 47.8407 146.853C47.8407 147.161 47.731 147.429 47.5117 147.658C47.297 147.882 47.0263 147.994 46.6997 147.994C46.3823 147.994 46.114 147.882 45.8947 147.658C45.68 147.429 45.5727 147.161 45.5727 146.853ZM58.4192 151.333C58.4192 151.884 58.2815 152.374 58.0062 152.803C57.7309 153.228 57.3319 153.561 56.8092 153.804C56.2865 154.042 55.6495 154.161 54.8982 154.161C54.1935 154.161 53.5542 154.054 52.9802 153.839C52.4109 153.624 51.9232 153.321 51.5172 152.929L52.2382 152.117C52.5742 152.43 52.9592 152.679 53.3932 152.866C53.8272 153.048 54.3359 153.139 54.9192 153.139C55.3112 153.139 55.6775 153.076 56.0182 152.95C56.3589 152.819 56.6342 152.623 56.8442 152.362C57.0542 152.096 57.1592 151.76 57.1592 151.354C57.1592 151.041 57.0985 150.775 56.9772 150.556C56.8559 150.337 56.6412 150.143 56.3332 149.975C56.0252 149.802 55.5959 149.634 55.0452 149.471C54.4105 149.284 53.8599 149.074 53.3932 148.841C52.9312 148.603 52.5719 148.311 52.3152 147.966C52.0632 147.621 51.9372 147.194 51.9372 146.685C51.9372 146.204 52.0702 145.777 52.3362 145.404C52.6022 145.031 52.9685 144.739 53.4352 144.529C53.9065 144.314 54.4479 144.207 55.0592 144.207C55.7265 144.207 56.3052 144.303 56.7952 144.494C57.2899 144.681 57.7379 144.951 58.1392 145.306L57.4252 146.097C57.0799 145.789 56.7089 145.567 56.3122 145.432C55.9155 145.292 55.5119 145.222 55.1012 145.222C54.7512 145.222 54.4292 145.276 54.1352 145.383C53.8459 145.486 53.6125 145.642 53.4352 145.852C53.2625 146.057 53.1762 146.321 53.1762 146.643C53.1762 146.918 53.2509 147.156 53.4002 147.357C53.5495 147.558 53.8015 147.742 54.1562 147.91C54.5109 148.073 54.9939 148.246 55.6052 148.428C56.1045 148.573 56.5665 148.755 56.9912 148.974C57.4205 149.189 57.7659 149.483 58.0272 149.856C58.2885 150.225 58.4192 150.717 58.4192 151.333ZM66.5617 153.629C66.3097 153.797 66.0041 153.928 65.6447 154.021C65.2854 154.114 64.9331 154.161 64.5877 154.161C63.7944 154.161 63.1831 153.953 62.7537 153.538C62.3244 153.123 62.1097 152.588 62.1097 151.935V147.539H60.4157V146.629H62.1097V144.956L63.2857 144.816V146.629H65.8337L65.6937 147.539H63.2857V151.921C63.2857 152.332 63.3931 152.644 63.6077 152.859C63.8271 153.074 64.1887 153.181 64.6927 153.181C64.9681 153.181 65.2224 153.148 65.4557 153.083C65.6891 153.018 65.9061 152.934 66.1067 152.831L66.5617 153.629ZM71.9113 146.475C72.6066 146.475 73.1876 146.634 73.6543 146.951C74.1256 147.264 74.4779 147.707 74.7113 148.281C74.9493 148.855 75.0683 149.532 75.0683 150.311C75.0683 151.062 74.9469 151.727 74.7043 152.306C74.4616 152.885 74.1046 153.34 73.6333 153.671C73.1666 153.998 72.5879 154.161 71.8973 154.161C71.2066 154.161 70.6256 154.002 70.1543 153.685C69.6829 153.368 69.3259 152.922 69.0833 152.348C68.8453 151.769 68.7263 151.095 68.7263 150.325C68.7263 149.564 68.8476 148.895 69.0903 148.316C69.3329 147.737 69.6899 147.287 70.1613 146.965C70.6373 146.638 71.2206 146.475 71.9113 146.475ZM71.9113 147.434C71.2766 147.434 70.7959 147.67 70.4693 148.141C70.1473 148.608 69.9863 149.336 69.9863 150.325C69.9863 151.296 70.1449 152.017 70.4623 152.488C70.7843 152.959 71.2626 153.195 71.8973 153.195C72.5319 153.195 73.0079 152.959 73.3253 152.488C73.6473 152.017 73.8083 151.291 73.8083 150.311C73.8083 149.331 73.6496 148.608 73.3323 148.141C73.0149 147.67 72.5413 147.434 71.9113 147.434ZM80.7958 146.475C81.4491 146.475 81.9695 146.634 82.3568 146.951C82.7488 147.268 83.0311 147.716 83.2038 148.295C83.3765 148.869 83.4628 149.541 83.4628 150.311C83.4628 151.053 83.3578 151.716 83.1478 152.299C82.9425 152.878 82.6298 153.333 82.2098 153.664C81.7898 153.995 81.2601 154.161 80.6208 154.161C79.8135 154.161 79.1648 153.876 78.6748 153.307V156.821L77.4988 156.968V146.629H78.4998L78.5978 147.658C78.8685 147.28 79.1905 146.988 79.5638 146.783C79.9418 146.578 80.3525 146.475 80.7958 146.475ZM80.5158 147.42C80.1098 147.42 79.7505 147.544 79.4378 147.791C79.1298 148.034 78.8755 148.304 78.6748 148.603V152.257C78.8661 152.542 79.1065 152.768 79.3958 152.936C79.6898 153.099 80.0118 153.181 80.3618 153.181C80.9731 153.181 81.4328 152.948 81.7408 152.481C82.0488 152.014 82.2028 151.289 82.2028 150.304C82.2028 149.66 82.1421 149.126 82.0208 148.701C81.8995 148.272 81.7151 147.952 81.4678 147.742C81.2205 147.527 80.9031 147.42 80.5158 147.42Z" fill="black" style="fill:black;fill-opacity:1;"/>
<path d="M448.465 149.1C448.465 149.828 448.528 150.481 448.654 151.06C448.78 151.634 448.967 152.161 449.214 152.642C449.462 153.118 449.772 153.571 450.145 154C450.523 154.434 450.962 154.873 451.461 155.316L450.845 155.96C450.089 155.339 449.441 154.705 448.899 154.056C448.363 153.407 447.95 152.684 447.66 151.886C447.376 151.088 447.233 150.159 447.233 149.1C447.233 148.036 447.376 147.105 447.66 146.307C447.95 145.509 448.363 144.786 448.899 144.137C449.441 143.488 450.089 142.856 450.845 142.24L451.461 142.884C450.957 143.332 450.516 143.773 450.138 144.207C449.765 144.636 449.455 145.089 449.207 145.565C448.96 146.036 448.773 146.561 448.647 147.14C448.526 147.714 448.465 148.367 448.465 149.1ZM719.54 149.1C719.54 148.367 719.477 147.714 719.351 147.14C719.23 146.561 719.046 146.036 718.798 145.565C718.551 145.089 718.238 144.636 717.86 144.207C717.487 143.773 717.048 143.332 716.544 142.884L717.16 142.24C717.921 142.856 718.57 143.488 719.106 144.137C719.643 144.786 720.054 145.509 720.338 146.307C720.628 147.105 720.772 148.036 720.772 149.1C720.772 150.159 720.628 151.088 720.338 151.886C720.054 152.684 719.643 153.407 719.106 154.056C718.57 154.705 717.921 155.339 717.16 155.96L716.544 155.316C717.044 154.873 717.48 154.434 717.853 154C718.231 153.571 718.544 153.118 718.791 152.642C719.039 152.161 719.225 151.634 719.351 151.06C719.477 150.481 719.54 149.828 719.54 149.1Z" fill="#FFDF81" style="fill:#FFDF81;fill:color(display-p3 1.0000 0.8745 0.5059);fill-opacity:1;"/>
<path d="M456.944 151.9C456.944 151.597 457.051 151.333 457.266 151.109C457.485 150.885 457.753 150.773 458.071 150.773C458.397 150.773 458.668 150.885 458.883 151.109C459.102 151.333 459.212 151.597 459.212 151.9C459.212 152.217 459.102 152.488 458.883 152.712C458.668 152.931 458.397 153.041 458.071 153.041C457.753 153.041 457.485 152.931 457.266 152.712C457.051 152.488 456.944 152.217 456.944 151.9ZM456.944 146.853C456.944 146.638 456.993 146.447 457.091 146.279C457.189 146.111 457.324 145.978 457.497 145.88C457.669 145.777 457.861 145.726 458.071 145.726C458.397 145.726 458.668 145.836 458.883 146.055C459.102 146.274 459.212 146.54 459.212 146.853C459.212 147.161 459.102 147.429 458.883 147.658C458.668 147.882 458.397 147.994 458.071 147.994C457.753 147.994 457.485 147.882 457.266 147.658C457.051 147.429 456.944 147.161 456.944 146.853ZM469.79 151.333C469.79 151.884 469.653 152.374 469.377 152.803C469.102 153.228 468.703 153.561 468.18 153.804C467.658 154.042 467.021 154.161 466.269 154.161C465.565 154.161 464.925 154.054 464.351 153.839C463.782 153.624 463.294 153.321 462.888 152.929L463.609 152.117C463.945 152.43 464.33 152.679 464.764 152.866C465.198 153.048 465.707 153.139 466.29 153.139C466.682 153.139 467.049 153.076 467.389 152.95C467.73 152.819 468.005 152.623 468.215 152.362C468.425 152.096 468.53 151.76 468.53 151.354C468.53 151.041 468.47 150.775 468.348 150.556C468.227 150.337 468.012 150.143 467.704 149.975C467.396 149.802 466.967 149.634 466.416 149.471C465.782 149.284 465.231 149.074 464.764 148.841C464.302 148.603 463.943 148.311 463.686 147.966C463.434 147.621 463.308 147.194 463.308 146.685C463.308 146.204 463.441 145.777 463.707 145.404C463.973 145.031 464.34 144.739 464.806 144.529C465.278 144.314 465.819 144.207 466.43 144.207C467.098 144.207 467.676 144.303 468.166 144.494C468.661 144.681 469.109 144.951 469.51 145.306L468.796 146.097C468.451 145.789 468.08 145.567 467.683 145.432C467.287 145.292 466.883 145.222 466.472 145.222C466.122 145.222 465.8 145.276 465.506 145.383C465.217 145.486 464.984 145.642 464.806 145.852C464.634 146.057 464.547 146.321 464.547 146.643C464.547 146.918 464.622 147.156 464.771 147.357C464.921 147.558 465.173 147.742 465.527 147.91C465.882 148.073 466.365 148.246 466.976 148.428C467.476 148.573 467.938 148.755 468.362 148.974C468.792 149.189 469.137 149.483 469.398 149.856C469.66 150.225 469.79 150.717 469.79 151.333ZM477.933 153.629C477.681 153.797 477.375 153.928 477.016 154.021C476.656 154.114 476.304 154.161 475.959 154.161C475.165 154.161 474.554 153.953 474.125 153.538C473.695 153.123 473.481 152.588 473.481 151.935V147.539H471.787V146.629H473.481V144.956L474.657 144.816V146.629H477.205L477.065 147.539H474.657V151.921C474.657 152.332 474.764 152.644 474.979 152.859C475.198 153.074 475.56 153.181 476.064 153.181C476.339 153.181 476.593 153.148 476.827 153.083C477.06 153.018 477.277 152.934 477.478 152.831L477.933 153.629ZM485.753 152.39C485.753 152.684 485.802 152.899 485.9 153.034C485.998 153.169 486.15 153.27 486.355 153.335L486.068 154.161C485.751 154.119 485.473 154.019 485.235 153.86C484.997 153.697 484.825 153.452 484.717 153.125C484.451 153.466 484.12 153.725 483.723 153.902C483.327 154.075 482.888 154.161 482.407 154.161C481.67 154.161 481.089 153.953 480.664 153.538C480.24 153.123 480.027 152.572 480.027 151.886C480.027 151.125 480.324 150.542 480.916 150.136C481.509 149.73 482.365 149.527 483.485 149.527H484.57V148.911C484.57 148.379 484.414 148.003 484.101 147.784C483.793 147.56 483.364 147.448 482.813 147.448C482.571 147.448 482.286 147.478 481.959 147.539C481.633 147.595 481.278 147.691 480.895 147.826L480.587 146.937C481.04 146.769 481.465 146.65 481.861 146.58C482.258 146.51 482.636 146.475 482.995 146.475C483.915 146.475 484.603 146.69 485.06 147.119C485.522 147.544 485.753 148.122 485.753 148.855V152.39ZM482.708 153.265C483.072 153.265 483.42 153.174 483.751 152.992C484.083 152.805 484.356 152.549 484.57 152.222V150.325H483.506C482.694 150.325 482.12 150.465 481.784 150.745C481.453 151.025 481.287 151.401 481.287 151.872C481.287 152.329 481.404 152.677 481.637 152.915C481.875 153.148 482.232 153.265 482.708 153.265ZM494.722 153.629C494.47 153.797 494.164 153.928 493.805 154.021C493.446 154.114 493.093 154.161 492.748 154.161C491.955 154.161 491.343 153.953 490.914 153.538C490.485 153.123 490.27 152.588 490.27 151.935V147.539H488.576V146.629H490.27V144.956L491.446 144.816V146.629H493.994L493.854 147.539H491.446V151.921C491.446 152.332 491.553 152.644 491.768 152.859C491.987 153.074 492.349 153.181 492.853 153.181C493.128 153.181 493.383 153.148 493.616 153.083C493.849 153.018 494.066 152.934 494.267 152.831L494.722 153.629ZM500.995 146.629V153.069H503.074V154H497.544V153.069H499.819V147.56H497.614V146.629H500.995ZM500.057 143.178C500.319 143.178 500.526 143.257 500.68 143.416C500.839 143.575 500.918 143.768 500.918 143.997C500.918 144.235 500.839 144.436 500.68 144.599C500.526 144.758 500.319 144.837 500.057 144.837C499.81 144.837 499.607 144.758 499.448 144.599C499.29 144.436 499.21 144.235 499.21 143.997C499.21 143.768 499.29 143.575 499.448 143.416C499.607 143.257 499.81 143.178 500.057 143.178ZM508.466 146.475C509.161 146.475 509.742 146.634 510.209 146.951C510.68 147.264 511.033 147.707 511.266 148.281C511.504 148.855 511.623 149.532 511.623 150.311C511.623 151.062 511.502 151.727 511.259 152.306C511.016 152.885 510.659 153.34 510.188 153.671C509.721 153.998 509.143 154.161 508.452 154.161C507.761 154.161 507.18 154.002 506.709 153.685C506.238 153.368 505.881 152.922 505.638 152.348C505.4 151.769 505.281 151.095 505.281 150.325C505.281 149.564 505.402 148.895 505.645 148.316C505.888 147.737 506.245 147.287 506.716 146.965C507.192 146.638 507.775 146.475 508.466 146.475ZM508.466 147.434C507.831 147.434 507.351 147.67 507.024 148.141C506.702 148.608 506.541 149.336 506.541 150.325C506.541 151.296 506.7 152.017 507.017 152.488C507.339 152.959 507.817 153.195 508.452 153.195C509.087 153.195 509.563 152.959 509.88 152.488C510.202 152.017 510.363 151.291 510.363 150.311C510.363 149.331 510.204 148.608 509.887 148.141C509.57 147.67 509.096 147.434 508.466 147.434ZM514.053 154V146.629H515.054L515.145 147.651C515.444 147.273 515.817 146.984 516.265 146.783C516.718 146.578 517.157 146.475 517.581 146.475C518.305 146.475 518.83 146.666 519.156 147.049C519.488 147.432 519.653 147.964 519.653 148.645V154H518.477V149.513C518.477 149.009 518.449 148.603 518.393 148.295C518.337 147.982 518.221 147.756 518.043 147.616C517.866 147.471 517.591 147.399 517.217 147.399C516.928 147.399 516.655 147.462 516.398 147.588C516.146 147.714 515.92 147.873 515.719 148.064C515.523 148.251 515.36 148.44 515.229 148.631V154H514.053ZM535.757 142.303V143.227C535.416 143.227 535.106 143.262 534.826 143.332C534.55 143.397 534.336 143.512 534.182 143.675C534.032 143.838 533.969 144.062 533.993 144.347L534.287 147.217C534.329 147.609 534.305 147.933 534.217 148.19C534.128 148.447 533.979 148.647 533.769 148.792C533.563 148.937 533.3 149.039 532.978 149.1C533.304 149.156 533.573 149.254 533.783 149.394C533.993 149.529 534.14 149.725 534.224 149.982C534.308 150.234 534.329 150.568 534.287 150.983L533.993 153.853C533.969 154.142 534.032 154.369 534.182 154.532C534.331 154.695 534.546 154.81 534.826 154.875C535.106 154.94 535.416 154.973 535.757 154.973V155.897C535.365 155.897 534.989 155.862 534.63 155.792C534.27 155.727 533.953 155.612 533.678 155.449C533.402 155.286 533.195 155.062 533.055 154.777C532.915 154.497 532.868 154.142 532.915 153.713L533.195 151.053C533.232 150.731 533.202 150.46 533.104 150.241C533.01 150.022 532.805 149.856 532.488 149.744C532.175 149.627 531.706 149.569 531.081 149.569V148.631C531.706 148.631 532.175 148.575 532.488 148.463C532.805 148.351 533.01 148.185 533.104 147.966C533.202 147.747 533.232 147.478 533.195 147.161L532.915 144.487C532.868 144.058 532.915 143.703 533.055 143.423C533.195 143.138 533.4 142.914 533.671 142.751C533.946 142.588 534.263 142.473 534.623 142.408C534.987 142.338 535.365 142.303 535.757 142.303ZM539.237 154V146.629H540.238L540.329 147.651C540.628 147.273 541.001 146.984 541.449 146.783C541.902 146.578 542.34 146.475 542.765 146.475C543.488 146.475 544.013 146.666 544.34 147.049C544.671 147.432 544.837 147.964 544.837 148.645V154H543.661V149.513C543.661 149.009 543.633 148.603 543.577 148.295C543.521 147.982 543.404 147.756 543.227 147.616C543.05 147.471 542.774 147.399 542.401 147.399C542.112 147.399 541.839 147.462 541.582 147.588C541.33 147.714 541.104 147.873 540.903 148.064C540.707 148.251 540.544 148.44 540.413 148.631V154H539.237ZM552.91 152.39C552.91 152.684 552.959 152.899 553.057 153.034C553.155 153.169 553.306 153.27 553.512 153.335L553.225 154.161C552.907 154.119 552.63 154.019 552.392 153.86C552.154 153.697 551.981 153.452 551.874 153.125C551.608 153.466 551.276 153.725 550.88 153.902C550.483 154.075 550.044 154.161 549.564 154.161C548.826 154.161 548.245 153.953 547.821 153.538C547.396 153.123 547.184 152.572 547.184 151.886C547.184 151.125 547.48 150.542 548.073 150.136C548.665 149.73 549.522 149.527 550.642 149.527H551.727V148.911C551.727 148.379 551.57 148.003 551.258 147.784C550.95 147.56 550.52 147.448 549.97 147.448C549.727 147.448 549.442 147.478 549.116 147.539C548.789 147.595 548.434 147.691 548.052 147.826L547.744 146.937C548.196 146.769 548.621 146.65 549.018 146.58C549.414 146.51 549.792 146.475 550.152 146.475C551.071 146.475 551.759 146.69 552.217 147.119C552.679 147.544 552.91 148.122 552.91 148.855V152.39ZM549.865 153.265C550.229 153.265 550.576 153.174 550.908 152.992C551.239 152.805 551.512 152.549 551.727 152.222V150.325H550.663C549.851 150.325 549.277 150.465 548.941 150.745C548.609 151.025 548.444 151.401 548.444 151.872C548.444 152.329 548.56 152.677 548.794 152.915C549.032 153.148 549.389 153.265 549.865 153.265ZM560.884 146.475C561.122 146.475 561.348 146.526 561.563 146.629C561.782 146.732 561.962 146.93 562.102 147.224C562.242 147.518 562.312 147.947 562.312 148.512V154H561.22V148.701C561.22 148.239 561.192 147.905 561.136 147.7C561.08 147.495 560.919 147.392 560.653 147.392C560.434 147.392 560.214 147.462 559.995 147.602C559.78 147.737 559.57 147.961 559.365 148.274V154H558.266V148.701C558.266 148.239 558.238 147.905 558.182 147.7C558.126 147.495 557.965 147.392 557.699 147.392C557.47 147.392 557.249 147.462 557.034 147.602C556.824 147.737 556.616 147.961 556.411 148.274V154H555.326V146.629H556.25L556.32 147.483C556.521 147.198 556.745 146.96 556.992 146.769C557.244 146.573 557.554 146.475 557.923 146.475C558.203 146.475 558.467 146.543 558.714 146.678C558.961 146.809 559.143 147.065 559.26 147.448C559.461 147.159 559.687 146.925 559.939 146.748C560.191 146.566 560.506 146.475 560.884 146.475ZM565.345 150.731C565.368 151.3 565.478 151.767 565.674 152.131C565.87 152.49 566.129 152.756 566.451 152.929C566.773 153.097 567.123 153.181 567.501 153.181C567.879 153.181 568.219 153.125 568.523 153.013C568.831 152.901 569.146 152.735 569.468 152.516L570.021 153.293C569.675 153.564 569.281 153.776 568.838 153.93C568.399 154.084 567.949 154.161 567.487 154.161C566.773 154.161 566.164 154 565.66 153.678C565.156 153.356 564.771 152.908 564.505 152.334C564.243 151.755 564.113 151.086 564.113 150.325C564.113 149.578 564.246 148.916 564.512 148.337C564.778 147.758 565.151 147.303 565.632 146.972C566.112 146.641 566.679 146.475 567.333 146.475C567.953 146.475 568.488 146.622 568.936 146.916C569.384 147.205 569.727 147.621 569.965 148.162C570.207 148.699 570.329 149.34 570.329 150.087C570.329 150.213 570.326 150.332 570.322 150.444C570.317 150.551 570.31 150.647 570.301 150.731H565.345ZM567.347 147.441C566.801 147.441 566.343 147.635 565.975 148.022C565.611 148.409 565.403 149.009 565.352 149.821H569.195C569.181 149.032 569.008 148.44 568.677 148.043C568.345 147.642 567.902 147.441 567.347 147.441ZM574.467 153.02C574.467 152.717 574.575 152.453 574.789 152.229C575.009 152.005 575.277 151.893 575.594 151.893C575.921 151.893 576.192 152.005 576.406 152.229C576.626 152.453 576.735 152.717 576.735 153.02C576.735 153.337 576.626 153.608 576.406 153.832C576.192 154.051 575.921 154.161 575.594 154.161C575.277 154.161 575.009 154.051 574.789 153.832C574.575 153.608 574.467 153.337 574.467 153.02ZM574.467 147.973C574.467 147.758 574.516 147.567 574.614 147.399C574.712 147.231 574.848 147.098 575.02 147C575.193 146.897 575.384 146.846 575.594 146.846C575.921 146.846 576.192 146.956 576.406 147.175C576.626 147.394 576.735 147.66 576.735 147.973C576.735 148.281 576.626 148.549 576.406 148.778C576.192 149.002 575.921 149.114 575.594 149.114C575.277 149.114 575.009 149.002 574.789 148.778C574.575 148.549 574.467 148.281 574.467 147.973ZM590.71 147.301L590.486 143.661H591.963L591.746 147.301H590.71ZM593.048 147.301L592.838 143.661H594.308L594.084 147.301H593.048ZM603.032 149.135C603.032 148.295 602.943 147.623 602.766 147.119C602.588 146.615 602.355 146.237 602.066 145.985C601.776 145.733 601.459 145.565 601.114 145.481C600.773 145.397 600.437 145.355 600.106 145.355H598.972V153.027H600.12C600.465 153.027 600.808 152.973 601.149 152.866C601.494 152.754 601.809 152.558 602.094 152.278C602.378 151.993 602.605 151.599 602.773 151.095C602.945 150.586 603.032 149.933 603.032 149.135ZM604.327 149.135C604.327 149.938 604.24 150.624 604.068 151.193C603.9 151.758 603.669 152.224 603.375 152.593C603.081 152.962 602.745 153.249 602.367 153.454C601.993 153.655 601.599 153.797 601.184 153.881C600.773 153.96 600.369 154 599.973 154H597.761V144.361H599.819C600.383 144.361 600.932 144.424 601.464 144.55C602 144.676 602.483 144.909 602.913 145.25C603.347 145.586 603.69 146.067 603.942 146.692C604.198 147.317 604.327 148.132 604.327 149.135ZM607.317 150.731C607.341 151.3 607.45 151.767 607.646 152.131C607.842 152.49 608.101 152.756 608.423 152.929C608.745 153.097 609.095 153.181 609.473 153.181C609.851 153.181 610.192 153.125 610.495 153.013C610.803 152.901 611.118 152.735 611.44 152.516L611.993 153.293C611.648 153.564 611.254 153.776 610.81 153.93C610.372 154.084 609.921 154.161 609.459 154.161C608.745 154.161 608.136 154 607.632 153.678C607.128 153.356 606.743 152.908 606.477 152.334C606.216 151.755 606.085 151.086 606.085 150.325C606.085 149.578 606.218 148.916 606.484 148.337C606.75 147.758 607.124 147.303 607.604 146.972C608.085 146.641 608.652 146.475 609.305 146.475C609.926 146.475 610.46 146.622 610.908 146.916C611.356 147.205 611.699 147.621 611.937 148.162C612.18 148.699 612.301 149.34 612.301 150.087C612.301 150.213 612.299 150.332 612.294 150.444C612.29 150.551 612.283 150.647 612.273 150.731H607.317ZM609.319 147.441C608.773 147.441 608.316 147.635 607.947 148.022C607.583 148.409 607.376 149.009 607.324 149.821H611.167C611.153 149.032 610.981 148.44 610.649 148.043C610.318 147.642 609.875 147.441 609.319 147.441ZM614.788 154V146.629H615.789L615.88 147.651C616.179 147.273 616.552 146.984 617 146.783C617.453 146.578 617.891 146.475 618.316 146.475C619.039 146.475 619.564 146.666 619.891 147.049C620.222 147.432 620.388 147.964 620.388 148.645V154H619.212V149.513C619.212 149.009 619.184 148.603 619.128 148.295C619.072 147.982 618.955 147.756 618.778 147.616C618.601 147.471 618.325 147.399 617.952 147.399C617.663 147.399 617.39 147.462 617.133 147.588C616.881 147.714 616.655 147.873 616.454 148.064C616.258 148.251 616.095 148.44 615.964 148.631V154H614.788ZM628.04 146.475C628.278 146.475 628.505 146.526 628.719 146.629C628.939 146.732 629.118 146.93 629.258 147.224C629.398 147.518 629.468 147.947 629.468 148.512V154H628.376V148.701C628.376 148.239 628.348 147.905 628.292 147.7C628.236 147.495 628.075 147.392 627.809 147.392C627.59 147.392 627.371 147.462 627.151 147.602C626.937 147.737 626.727 147.961 626.521 148.274V154H625.422V148.701C625.422 148.239 625.394 147.905 625.338 147.7C625.282 147.495 625.121 147.392 624.855 147.392C624.627 147.392 624.405 147.462 624.19 147.602C623.98 147.737 623.773 147.961 623.567 148.274V154H622.482V146.629H623.406L623.476 147.483C623.677 147.198 623.901 146.96 624.148 146.769C624.4 146.573 624.711 146.475 625.079 146.475C625.359 146.475 625.623 146.543 625.87 146.678C626.118 146.809 626.3 147.065 626.416 147.448C626.617 147.159 626.843 146.925 627.095 146.748C627.347 146.566 627.662 146.475 628.04 146.475ZM636.855 152.39C636.855 152.684 636.904 152.899 637.002 153.034C637.1 153.169 637.252 153.27 637.457 153.335L637.17 154.161C636.853 154.119 636.575 154.019 636.337 153.86C636.099 153.697 635.926 153.452 635.819 153.125C635.553 153.466 635.222 153.725 634.825 153.902C634.428 154.075 633.99 154.161 633.509 154.161C632.772 154.161 632.191 153.953 631.766 153.538C631.341 153.123 631.129 152.572 631.129 151.886C631.129 151.125 631.425 150.542 632.018 150.136C632.611 149.73 633.467 149.527 634.587 149.527H635.672V148.911C635.672 148.379 635.516 148.003 635.203 147.784C634.895 147.56 634.466 147.448 633.915 147.448C633.672 147.448 633.388 147.478 633.061 147.539C632.734 147.595 632.38 147.691 631.997 147.826L631.689 146.937C632.142 146.769 632.566 146.65 632.963 146.58C633.36 146.51 633.738 146.475 634.097 146.475C635.016 146.475 635.705 146.69 636.162 147.119C636.624 147.544 636.855 148.122 636.855 148.855V152.39ZM633.81 153.265C634.174 153.265 634.522 153.174 634.853 152.992C635.184 152.805 635.457 152.549 635.672 152.222V150.325H634.608C633.796 150.325 633.222 150.465 632.886 150.745C632.555 151.025 632.389 151.401 632.389 151.872C632.389 152.329 632.506 152.677 632.739 152.915C632.977 153.148 633.334 153.265 633.81 153.265ZM640.041 154V153.097H641.189V147.532H640.041V146.629H642.085L642.302 148.372C642.587 147.765 642.932 147.296 643.338 146.965C643.744 146.634 644.281 146.468 644.948 146.468C645.154 146.468 645.336 146.484 645.494 146.517C645.658 146.545 645.823 146.582 645.991 146.629L645.648 147.679C645.494 147.637 645.354 147.607 645.228 147.588C645.102 147.565 644.958 147.553 644.794 147.553C644.23 147.553 643.744 147.754 643.338 148.155C642.932 148.556 642.608 149.163 642.365 149.975V153.097H643.863V154H640.041ZM644.857 149.121V147.518L644.976 146.629H645.991L645.823 149.121H644.857ZM654.54 146.629L651.222 149.947L654.925 154H653.378L649.752 149.975L653.014 146.629H654.54ZM649.619 143.514V154H648.443V143.661L649.619 143.514ZM669.768 154V149.429H666.128V154H664.917V144.361H666.128V148.435H669.768V144.361H670.979V154H669.768ZM677.281 146.629V153.069H679.36V154H673.83V153.069H676.105V147.56H673.9V146.629H677.281ZM676.343 143.178C676.604 143.178 676.812 143.257 676.966 143.416C677.124 143.575 677.204 143.768 677.204 143.997C677.204 144.235 677.124 144.436 676.966 144.599C676.812 144.758 676.604 144.837 676.343 144.837C676.095 144.837 675.892 144.758 675.734 144.599C675.575 144.436 675.496 144.235 675.496 143.997C675.496 143.768 675.575 143.575 675.734 143.416C675.892 143.257 676.095 143.178 676.343 143.178ZM684.814 143.661V152.18C684.814 152.544 684.926 152.803 685.15 152.957C685.379 153.106 685.673 153.181 686.032 153.181C686.256 153.181 686.468 153.158 686.669 153.111C686.87 153.064 687.07 153.001 687.271 152.922L687.586 153.783C687.385 153.881 687.136 153.967 686.837 154.042C686.543 154.121 686.209 154.161 685.836 154.161C685.183 154.161 684.653 153.981 684.247 153.622C683.841 153.258 683.638 152.756 683.638 152.117V144.592H681.377V143.661H684.814ZM693.209 143.661V152.18C693.209 152.544 693.321 152.803 693.545 152.957C693.773 153.106 694.067 153.181 694.427 153.181C694.651 153.181 694.863 153.158 695.064 153.111C695.264 153.064 695.465 153.001 695.666 152.922L695.981 153.783C695.78 153.881 695.53 153.967 695.232 154.042C694.938 154.121 694.604 154.161 694.231 154.161C693.577 154.161 693.048 153.981 692.642 153.622C692.236 153.258 692.033 152.756 692.033 152.117V144.592H689.772V143.661H693.209ZM699.839 147.301L699.615 143.661H701.092L700.875 147.301H699.839ZM702.177 147.301L701.967 143.661H703.437L703.213 147.301H702.177ZM707.8 142.303C708.192 142.303 708.567 142.338 708.927 142.408C709.286 142.473 709.603 142.588 709.879 142.751C710.154 142.914 710.362 143.138 710.502 143.423C710.646 143.703 710.693 144.058 710.642 144.487L710.362 147.161C710.324 147.478 710.364 147.747 710.481 147.966C710.602 148.185 710.821 148.351 711.139 148.463C711.456 148.575 711.902 148.631 712.476 148.631V149.569C711.906 149.569 711.461 149.627 711.139 149.744C710.821 149.856 710.602 150.022 710.481 150.241C710.364 150.46 710.324 150.731 710.362 151.053L710.642 153.713C710.688 154.142 710.642 154.497 710.502 154.777C710.362 155.062 710.154 155.286 709.879 155.449C709.608 155.612 709.291 155.727 708.927 155.792C708.567 155.862 708.192 155.897 707.8 155.897V154.973C708.14 154.973 708.448 154.94 708.724 154.875C709.004 154.81 709.221 154.695 709.375 154.532C709.529 154.369 709.592 154.142 709.564 153.853L709.27 150.983C709.228 150.568 709.251 150.234 709.34 149.982C709.428 149.725 709.587 149.529 709.816 149.394C710.049 149.259 710.355 149.165 710.733 149.114C710.369 149.053 710.07 148.948 709.837 148.799C709.608 148.65 709.447 148.447 709.354 148.19C709.26 147.933 709.232 147.609 709.27 147.217L709.564 144.347C709.592 144.062 709.529 143.838 709.375 143.675C709.221 143.512 709.006 143.397 708.731 143.332C708.455 143.262 708.145 143.227 707.8 143.227V142.303Z" fill="black" style="fill:black;fill-opacity:1;"/>
<path d="M211.631 150.129V149.107H217.245V150.129H211.631ZM221.209 155.617V142.583H224.716V143.598H222.322V154.616H224.716V155.617H221.209ZM230.086 151.9C230.086 151.597 230.194 151.333 230.408 151.109C230.628 150.885 230.896 150.773 231.213 150.773C231.54 150.773 231.811 150.885 232.025 151.109C232.245 151.333 232.354 151.597 232.354 151.9C232.354 152.217 232.245 152.488 232.025 152.712C231.811 152.931 231.54 153.041 231.213 153.041C230.896 153.041 230.628 152.931 230.408 152.712C230.194 152.488 230.086 152.217 230.086 151.9ZM230.086 146.853C230.086 146.638 230.135 146.447 230.233 146.279C230.331 146.111 230.467 145.978 230.639 145.88C230.812 145.777 231.003 145.726 231.213 145.726C231.54 145.726 231.811 145.836 232.025 146.055C232.245 146.274 232.354 146.54 232.354 146.853C232.354 147.161 232.245 147.429 232.025 147.658C231.811 147.882 231.54 147.994 231.213 147.994C230.896 147.994 230.628 147.882 230.408 147.658C230.194 147.429 230.086 147.161 230.086 146.853ZM240.434 144.207C241.064 144.207 241.591 144.286 242.016 144.445C242.441 144.604 242.844 144.837 243.227 145.145L242.548 145.936C242.245 145.679 241.923 145.497 241.582 145.39C241.246 145.278 240.894 145.222 240.525 145.222C239.998 145.222 239.51 145.348 239.062 145.6C238.614 145.847 238.252 146.26 237.977 146.839C237.706 147.413 237.571 148.192 237.571 149.177C237.571 150.134 237.699 150.901 237.956 151.48C238.217 152.059 238.57 152.476 239.013 152.733C239.456 152.99 239.951 153.118 240.497 153.118C241.038 153.118 241.482 153.036 241.827 152.873C242.177 152.71 242.48 152.523 242.737 152.313L243.367 153.111C243.073 153.396 242.69 153.643 242.219 153.853C241.748 154.058 241.169 154.161 240.483 154.161C239.704 154.161 238.997 153.97 238.362 153.587C237.732 153.204 237.233 152.644 236.864 151.907C236.495 151.165 236.311 150.255 236.311 149.177C236.311 148.094 236.498 147.184 236.871 146.447C237.249 145.71 237.751 145.152 238.376 144.774C239.006 144.396 239.692 144.207 240.434 144.207ZM249.885 151.543H246.07L245.3 154H244.103L247.239 144.361H248.793L251.929 154H250.655L249.885 151.543ZM246.385 150.535H249.57L247.988 145.383L246.385 150.535ZM254.108 154V144.361H255.326V152.915H259.722L259.582 154H254.108ZM262.502 154V144.361H263.72V152.915H268.116L267.976 154H262.502ZM276.511 151.333C276.511 151.884 276.373 152.374 276.098 152.803C275.823 153.228 275.424 153.561 274.901 153.804C274.378 154.042 273.741 154.161 272.99 154.161C272.285 154.161 271.646 154.054 271.072 153.839C270.503 153.624 270.015 153.321 269.609 152.929L270.33 152.117C270.666 152.43 271.051 152.679 271.485 152.866C271.919 153.048 272.428 153.139 273.011 153.139C273.403 153.139 273.769 153.076 274.11 152.95C274.451 152.819 274.726 152.623 274.936 152.362C275.146 152.096 275.251 151.76 275.251 151.354C275.251 151.041 275.19 150.775 275.069 150.556C274.948 150.337 274.733 150.143 274.425 149.975C274.117 149.802 273.688 149.634 273.137 149.471C272.502 149.284 271.952 149.074 271.485 148.841C271.023 148.603 270.664 148.311 270.407 147.966C270.155 147.621 270.029 147.194 270.029 146.685C270.029 146.204 270.162 145.777 270.428 145.404C270.694 145.031 271.06 144.739 271.527 144.529C271.998 144.314 272.54 144.207 273.151 144.207C273.818 144.207 274.397 144.303 274.887 144.494C275.382 144.681 275.83 144.951 276.231 145.306L275.517 146.097C275.172 145.789 274.801 145.567 274.404 145.432C274.007 145.292 273.604 145.222 273.193 145.222C272.843 145.222 272.521 145.276 272.227 145.383C271.938 145.486 271.704 145.642 271.527 145.852C271.354 146.057 271.268 146.321 271.268 146.643C271.268 146.918 271.343 147.156 271.492 147.357C271.641 147.558 271.893 147.742 272.248 147.91C272.603 148.073 273.086 148.246 273.697 148.428C274.196 148.573 274.658 148.755 275.083 148.974C275.512 149.189 275.858 149.483 276.119 149.856C276.38 150.225 276.511 150.717 276.511 151.333ZM278.095 156.541V155.512H285.095V156.541H278.095ZM291.858 151.543H288.043L287.273 154H286.076L289.212 144.361H290.766L293.902 154H292.628L291.858 151.543ZM288.358 150.535H291.543L289.961 145.383L288.358 150.535ZM298.965 145.404V154H297.754V145.404H294.744V144.361H302.017L301.891 145.404H298.965ZM308.402 142.583V155.617H304.895V154.623H307.289V143.598H304.895V142.583H308.402ZM312.716 150.136V149.1H319.513V150.136H312.716ZM324.967 150.136H319.227V149.1H324.967V150.136ZM322.244 145.355L326.052 149.618L322.244 153.881L321.376 153.139L323.371 150.941C323.563 150.736 323.717 150.577 323.833 150.465C323.95 150.353 324.095 150.243 324.267 150.136V149.1C324.095 148.993 323.95 148.883 323.833 148.771C323.717 148.659 323.563 148.5 323.371 148.295L321.376 146.097L322.244 145.355Z" fill="black" style="fill:black;fill-opacity:1;"/>
</svg>
