<svg xmlns="http://www.w3.org/2000/svg" width="506" height="356" viewBox="0 0 506 356"><defs><style type="text/css"/></defs><g transform="translate(-612.2017876619484 4) scale(1)"><g class="relationship"><g transform="translate(970.4703677137713 244.9471247636109) rotate(-145.63919584572125)" stroke-width="2" stroke="#000000"><path d="M 59 0 L 264.75867730747825 0"/><polygon points="-14.155129855222071,0 -15.727922061357857,5.242640687119286 0,0 -15.727922061357857,-5.242640687119286" fill="#000000" transform="translate(278.9138071627003 0) rotate(0)" stroke="none"/></g><g transform="translate(836.8390064906187 153.58203525662654) rotate(34.36080415427875) translate(0 -22.6)"><g transform="translate(0 0)"><g transform="translate(-56.55859375 0)" fill="#ffffff" stroke="#000000" stroke-width="0"><rect x="0" y="0" width="113.1171875" height="26" rx="5" ry="5" stroke="none"/><text xml:space="preserve" x="5" y="17.45703125" stroke="none" text-anchor="left" font-family="sans-serif" font-size="16" font-weight="normal" fill="#000000">WORKS_FOR</text></g></g><g transform="translate(0 26)"><g transform="translate(-45.36328125 0)" fill="white"><rect x="0" y="0" width="90.7265625" height="19.2" rx="0" ry="0" stroke="none"/><g font-family="sans-serif" font-size="16" font-weight="normal" fill="#535B66" text-anchor="end"><text xml:space="preserve" x="46.2421875" y="14.05703125" stroke="none">since:</text><text xml:space="preserve" x="50.6875" y="14.05703125" stroke="none" text-anchor="start">2023</text></g></g></g></g></g><g class="relationship"><g transform="translate(1029.4099471116579 50) rotate(179.28313402086957)" stroke-width="2" stroke="#000000"><path d="M 59 0 L 264.75867730747825 0"/><polygon points="-14.155129855222071,0 -15.727922061357857,5.242640687119286 0,0 -15.727922061357857,-5.242640687119286" fill="#000000" transform="translate(278.9138071627003 0) rotate(0)" stroke="none"/></g><g transform="translate(867.5432787444396 52.0253282867066) rotate(359.28313402086957) translate(0 -22.6)"><g transform="translate(0 0)"><g transform="translate(-56.55859375 0)" fill="#ffffff" stroke="#000000" stroke-width="0"><rect x="0" y="0" width="113.1171875" height="26" rx="5" ry="5" stroke="none"/><text xml:space="preserve" x="5" y="17.45703125" stroke="none" text-anchor="left" font-family="sans-serif" font-size="16" font-weight="normal" fill="#000000">WORKS_FOR</text></g></g><g transform="translate(0 26)"><g transform="translate(-45.36328125 0)" fill="white"><rect x="0" y="0" width="90.7265625" height="19.2" rx="0" ry="0" stroke="none"/><g font-family="sans-serif" font-size="16" font-weight="normal" fill="#535B66" text-anchor="end"><text xml:space="preserve" x="46.2421875" y="14.05703125" stroke="none">since:</text><text xml:space="preserve" x="50.6875" y="14.05703125" stroke="none" text-anchor="start">2015</text></g></g></g></g></g><g class="node"><g fill="#ffffff" stroke="#006FD6" stroke-width="4"><circle cx="691.5225884431984" cy="54.22775628938814" r="52"/></g><g transform="translate(691.5225884431984 54.22775628938814)"><g transform="scale(0.5592606884691831) translate(0 -30.5)"><g transform="translate(0 0)"><g transform="translate(-74.458740234375 0)"><g fill="#000000" stroke="#000000" stroke-width="4" font-family="sans-serif" font-size="47" font-weight="normal"><text xml:space="preserve" x="0" y="43.592529296875" stroke="none">Person</text></g></g></g></g><g transform="translate(3.429011037612589e-15 56)"><g transform="translate(0 0)"><g transform="translate(-79.32080078125 0)" fill="white"><rect x="0" y="0" width="158.6416015625" height="50.400000000000006" rx="0" ry="0" stroke="none"/><g font-family="sans-serif" font-size="14" font-weight="normal" fill="#535B66" text-anchor="end"><text xml:space="preserve" x="42.7998046875" y="12.29990234375" stroke="none">name:</text><text xml:space="preserve" x="46.689453125" y="12.29990234375" stroke="none" text-anchor="start">'Alice'</text><text xml:space="preserve" x="42.7998046875" y="29.099902343750003" stroke="none" text-anchor="end">age:</text><text xml:space="preserve" x="46.689453125" y="29.099902343750003" stroke="none" text-anchor="start">65</text><text xml:space="preserve" x="42.7998046875" y="45.89990234375" stroke="none" text-anchor="end">role:</text><text xml:space="preserve" x="46.689453125" y="45.89990234375" stroke="none" text-anchor="start">'Project manager'</text></g></g></g></g></g></g><g class="node"><g fill="#ffffff" stroke="#006FD6" stroke-width="4"><circle cx="970.4703677137713" cy="244.9471247636109" r="52"/></g><g transform="translate(970.4703677137713 244.9471247636109)"><g transform="scale(0.5592606884691831) translate(0 -30.5)"><g transform="translate(0 0)"><g transform="translate(-74.458740234375 0)"><g fill="#000000" stroke="#000000" stroke-width="4" font-family="sans-serif" font-size="47" font-weight="normal"><text xml:space="preserve" x="0" y="43.592529296875" stroke="none">Person</text></g></g></g></g><g transform="translate(3.429011037612589e-15 56)"><g transform="translate(0 0)"><g transform="translate(-88.27587890625 0)" fill="white"><rect x="0" y="0" width="176.5517578125" height="50.400000000000006" rx="0" ry="0" stroke="none"/><g font-family="sans-serif" font-size="14" font-weight="normal" fill="#535B66" text-anchor="end"><text xml:space="preserve" x="42.7998046875" y="12.29990234375" stroke="none">name:</text><text xml:space="preserve" x="46.689453125" y="12.29990234375" stroke="none" text-anchor="start">'Cecil'</text><text xml:space="preserve" x="42.7998046875" y="29.099902343750003" stroke="none" text-anchor="end">age:</text><text xml:space="preserve" x="46.689453125" y="29.099902343750003" stroke="none" text-anchor="start">25</text><text xml:space="preserve" x="42.7998046875" y="45.89990234375" stroke="none" text-anchor="end">role:</text><text xml:space="preserve" x="46.689453125" y="45.89990234375" stroke="none" text-anchor="start">'Software developer'</text></g></g></g></g></g></g><g class="node"><g fill="#ffffff" stroke="#006FD6" stroke-width="4"><circle cx="1029.4099471116579" cy="50" r="52"/></g><g transform="translate(1029.4099471116579 50)"><g transform="scale(0.5592606884691831) translate(0 -30.5)"><g transform="translate(0 0)"><g transform="translate(-74.458740234375 0)"><g fill="#000000" stroke="#000000" stroke-width="4" font-family="sans-serif" font-size="47" font-weight="normal"><text xml:space="preserve" x="0" y="43.592529296875" stroke="none">Person</text></g></g></g></g><g transform="translate(3.429011037612589e-15 56)"><g transform="translate(0 0)"><g transform="translate(-88.27587890625 0)" fill="white"><rect x="0" y="0" width="176.5517578125" height="50.400000000000006" rx="0" ry="0" stroke="none"/><g font-family="sans-serif" font-size="14" font-weight="normal" fill="#535B66" text-anchor="end"><text xml:space="preserve" x="42.7998046875" y="12.29990234375" stroke="none">name:</text><text xml:space="preserve" x="46.689453125" y="12.29990234375" stroke="none" text-anchor="start">'Cecilia'</text><text xml:space="preserve" x="42.7998046875" y="29.099902343750003" stroke="none" text-anchor="end">age:</text><text xml:space="preserve" x="46.689453125" y="29.099902343750003" stroke="none" text-anchor="start">31</text><text xml:space="preserve" x="42.7998046875" y="45.89990234375" stroke="none" text-anchor="end">role:</text><text xml:space="preserve" x="46.689453125" y="45.89990234375" stroke="none" text-anchor="start">'Software developer'</text></g></g></g></g></g></g></g></svg>