<svg width="1515" height="128" viewBox="0 0 1515 128" fill="none" xmlns="http://www.w3.org/2000/svg">
<path d="M278 64C278 28.6538 306.654 0 342 0C377.346 0 406 28.6538 406 64C406 99.3462 377.346 128 342 128C306.654 128 278 99.3462 278 64Z" fill="#8DCC93" style="fill:#8DCC93;fill:color(display-p3 0.5529 0.8000 0.5765);fill-opacity:1;"/>
<path d="M556 64C556 28.6538 584.654 0 620 0C655.346 0 684 28.6538 684 64C684 99.3462 655.346 128 620 128C584.654 128 556 99.3462 556 64Z" fill="#8DCC93" style="fill:#8DCC93;fill:color(display-p3 0.5529 0.8000 0.5765);fill-opacity:1;"/>
<path d="M834 64C834 28.6538 862.654 0 898 0C933.346 0 962 28.6538 962 64C962 99.3462 933.346 128 898 128C862.654 128 834 99.3462 834 64Z" fill="#8DCC93" style="fill:#8DCC93;fill:color(display-p3 0.5529 0.8000 0.5765);fill-opacity:1;"/>
<path d="M1112 64C1112 28.6538 1140.65 0 1176 0C1211.35 0 1240 28.6538 1240 64C1240 99.3462 1211.35 128 1176 128C1140.65 128 1112 99.3462 1112 64Z" fill="#8DCC93" style="fill:#8DCC93;fill:color(display-p3 0.5529 0.8000 0.5765);fill-opacity:1;"/>
<path d="M0 64C0 28.6538 28.6538 0 64 0C99.3462 0 128 28.6538 128 64C128 99.3462 99.3462 128 64 128C28.6538 128 0 99.3462 0 64Z" fill="#FFC354" style="fill:#FFC354;fill:color(display-p3 1.0000 0.7647 0.3294);fill-opacity:1;"/>
<path d="M1387 64C1387 28.6538 1415.65 0 1451 0C1486.35 0 1515 28.6538 1515 64C1515 99.3462 1486.35 128 1451 128C1415.65 128 1387 99.3462 1387 64Z" fill="#FFC354" style="fill:#FFC354;fill:color(display-p3 1.0000 0.7647 0.3294);fill-opacity:1;"/>
<path d="M274.5 65C275.052 65 275.5 64.5523 275.5 64C275.5 63.4477 275.052 63 274.5 63V65ZM243.562 63C243.01 63 242.562 63.4477 242.562 64C242.562 64.5523 243.01 65 243.562 65V63ZM162.438 65C162.99 65 163.438 64.5523 163.438 64C163.438 63.4477 162.99 63 162.438 63V65ZM130.793 63.2929C130.402 63.6834 130.402 64.3166 130.793 64.7071L137.157 71.0711C137.547 71.4616 138.181 71.4616 138.571 71.0711C138.962 70.6805 138.962 70.0474 138.571 69.6569L132.914 64L138.571 58.3431C138.962 57.9526 138.962 57.3195 138.571 56.9289C138.181 56.5384 137.547 56.5384 137.157 56.9289L130.793 63.2929ZM274.5 63H243.562V65H274.5V63ZM162.438 63H131.5V65H162.438V63Z" fill="#1A1B1D" style="fill:#1A1B1D;fill:color(display-p3 0.1020 0.1059 0.1137);fill-opacity:1;"/>
<path d="M178.613 62.6293H177.062C177.003 62.2978 176.891 62.0062 176.729 61.7543C176.567 61.5024 176.368 61.2886 176.132 61.1129C175.897 60.9373 175.634 60.8047 175.342 60.7152C175.054 60.6257 174.747 60.581 174.422 60.581C173.836 60.581 173.31 60.7285 172.846 61.0234C172.386 61.3184 172.021 61.7509 171.753 62.321C171.487 62.8911 171.355 63.5871 171.355 64.4091C171.355 65.2377 171.487 65.937 171.753 66.5071C172.021 67.0772 172.387 67.508 172.851 67.7997C173.315 68.0914 173.837 68.2372 174.417 68.2372C174.739 68.2372 175.044 68.1941 175.332 68.108C175.624 68.0185 175.887 67.8875 176.123 67.7152C176.358 67.5429 176.557 67.3324 176.719 67.0838C176.885 66.8319 176.999 66.5436 177.062 66.2188L178.613 66.2237C178.53 66.7242 178.37 67.1849 178.131 67.6058C177.896 68.0234 177.592 68.3847 177.221 68.6896C176.853 68.9912 176.432 69.2249 175.958 69.3906C175.485 69.5563 174.967 69.6392 174.407 69.6392C173.526 69.6392 172.74 69.4304 172.051 69.0128C171.361 68.5919 170.818 67.9903 170.42 67.2081C170.026 66.4259 169.829 65.4929 169.829 64.4091C169.829 63.322 170.027 62.389 170.425 61.6101C170.823 60.8279 171.366 60.228 172.056 59.8104C172.745 59.3894 173.529 59.179 174.407 59.179C174.948 59.179 175.451 59.2569 175.919 59.4126C176.389 59.5651 176.812 59.7905 177.186 60.0888C177.561 60.3838 177.871 60.745 178.116 61.1726C178.361 61.5968 178.527 62.0824 178.613 62.6293ZM181.089 69.5H179.459L183.123 59.3182H184.898L188.562 69.5H186.931L184.052 61.1676H183.973L181.089 69.5ZM181.363 65.5128H186.652V66.8054H181.363V65.5128ZM189.878 69.5V59.3182H191.414V68.1776H196.028V69.5H189.878ZM197.626 69.5V59.3182H199.162V68.1776H203.776V69.5H197.626ZM210.928 61.9929C210.875 61.5223 210.656 61.1577 210.272 60.8991C209.887 60.6373 209.403 60.5064 208.82 60.5064C208.402 60.5064 208.041 60.5727 207.736 60.7053C207.431 60.8345 207.194 61.0135 207.025 61.2422C206.859 61.4676 206.777 61.7244 206.777 62.0128C206.777 62.2547 206.833 62.4635 206.946 62.6392C207.062 62.8149 207.212 62.9624 207.398 63.0817C207.587 63.1977 207.789 63.2955 208.005 63.375C208.22 63.4512 208.427 63.5142 208.626 63.5639L209.62 63.8224C209.945 63.902 210.278 64.0097 210.62 64.1456C210.961 64.2815 211.278 64.4605 211.569 64.6825C211.861 64.9046 212.096 65.1797 212.275 65.5078C212.457 65.8359 212.549 66.2287 212.549 66.6861C212.549 67.2628 212.399 67.7749 212.101 68.2223C211.806 68.6697 211.377 69.0227 210.814 69.2812C210.253 69.5398 209.576 69.669 208.78 69.669C208.018 69.669 207.358 69.5481 206.801 69.3061C206.245 69.0642 205.809 68.7211 205.494 68.277C205.179 67.8295 205.005 67.2992 204.972 66.6861H206.513C206.543 67.054 206.662 67.3606 206.871 67.6058C207.083 67.8478 207.353 68.0284 207.681 68.1477C208.013 68.2637 208.376 68.3217 208.77 68.3217C209.204 68.3217 209.591 68.2538 209.929 68.1179C210.27 67.9787 210.538 67.7865 210.734 67.5412C210.93 67.2926 211.027 67.0026 211.027 66.6712C211.027 66.3696 210.941 66.1226 210.769 65.9304C210.6 65.7382 210.369 65.5791 210.078 65.4531C209.789 65.3272 209.463 65.2161 209.098 65.12L207.895 64.7919C207.08 64.5698 206.434 64.2434 205.956 63.8125C205.482 63.3816 205.245 62.8116 205.245 62.1023C205.245 61.5156 205.404 61.0036 205.723 60.5661C206.041 60.1286 206.472 59.7888 207.015 59.5469C207.559 59.3016 208.172 59.179 208.855 59.179C209.544 59.179 210.152 59.3 210.679 59.5419C211.21 59.7839 211.627 60.117 211.932 60.5412C212.237 60.9621 212.396 61.446 212.409 61.9929H210.928ZM219.565 69.5V70.7628H213.097V69.5H219.565ZM221.376 69.5H219.745L223.409 59.3182H225.184L228.848 69.5H227.218L224.339 61.1676H224.259L221.376 69.5ZM221.649 65.5128H226.939V66.8054H221.649V65.5128ZM228.459 60.6406V59.3182H236.339V60.6406H233.162V69.5H231.631V60.6406H228.459Z" fill="black" fill-opacity="0.8" style="fill:black;fill-opacity:0.8;"/>
<path d="M1243.5 63C1242.95 63 1242.5 63.4477 1242.5 64C1242.5 64.5523 1242.95 65 1243.5 65V63ZM1272.94 65C1273.49 65 1273.94 64.5523 1273.94 64C1273.94 63.4477 1273.49 63 1272.94 63V65ZM1354.06 63C1353.51 63 1353.06 63.4477 1353.06 64C1353.06 64.5523 1353.51 65 1354.06 65V63ZM1384.21 64.7071C1384.6 64.3166 1384.6 63.6834 1384.21 63.2929L1377.84 56.9289C1377.45 56.5384 1376.82 56.5384 1376.43 56.9289C1376.04 57.3195 1376.04 57.9526 1376.43 58.3431L1382.09 64L1376.43 69.6569C1376.04 70.0474 1376.04 70.6805 1376.43 71.0711C1376.82 71.4616 1377.45 71.4616 1377.84 71.0711L1384.21 64.7071ZM1243.5 65H1272.94V63H1243.5V65ZM1354.06 65H1383.5V63H1354.06V65Z" fill="#1A1B1D" style="fill:#1A1B1D;fill:color(display-p3 0.1020 0.1059 0.1137);fill-opacity:1;"/>
<path d="M1289.11 62.6293H1287.56C1287.5 62.2978 1287.39 62.0062 1287.23 61.7543C1287.07 61.5024 1286.87 61.2886 1286.63 61.1129C1286.4 60.9373 1286.13 60.8047 1285.84 60.7152C1285.55 60.6257 1285.25 60.581 1284.92 60.581C1284.34 60.581 1283.81 60.7285 1283.35 61.0234C1282.89 61.3184 1282.52 61.7509 1282.25 62.321C1281.99 62.8911 1281.85 63.5871 1281.85 64.4091C1281.85 65.2377 1281.99 65.937 1282.25 66.5071C1282.52 67.0772 1282.89 67.508 1283.35 67.7997C1283.82 68.0914 1284.34 68.2372 1284.92 68.2372C1285.24 68.2372 1285.54 68.1941 1285.83 68.108C1286.12 68.0185 1286.39 67.8875 1286.62 67.7152C1286.86 67.5429 1287.06 67.3324 1287.22 67.0838C1287.38 66.8319 1287.5 66.5436 1287.56 66.2188L1289.11 66.2237C1289.03 66.7242 1288.87 67.1849 1288.63 67.6058C1288.4 68.0234 1288.09 68.3847 1287.72 68.6896C1287.35 68.9912 1286.93 69.2249 1286.46 69.3906C1285.98 69.5563 1285.47 69.6392 1284.91 69.6392C1284.03 69.6392 1283.24 69.4304 1282.55 69.0128C1281.86 68.5919 1281.32 67.9903 1280.92 67.2081C1280.53 66.4259 1280.33 65.4929 1280.33 64.4091C1280.33 63.322 1280.53 62.389 1280.93 61.6101C1281.32 60.8279 1281.87 60.228 1282.56 59.8104C1283.25 59.3894 1284.03 59.179 1284.91 59.179C1285.45 59.179 1285.95 59.2569 1286.42 59.4126C1286.89 59.5651 1287.31 59.7905 1287.69 60.0888C1288.06 60.3838 1288.37 60.745 1288.62 61.1726C1288.86 61.5968 1289.03 62.0824 1289.11 62.6293ZM1291.59 69.5H1289.96L1293.62 59.3182H1295.4L1299.06 69.5H1297.43L1294.55 61.1676H1294.47L1291.59 69.5ZM1291.86 65.5128H1297.15V66.8054H1291.86V65.5128ZM1300.38 69.5V59.3182H1301.91V68.1776H1306.53V69.5H1300.38ZM1308.13 69.5V59.3182H1309.66V68.1776H1314.28V69.5H1308.13ZM1321.43 61.9929C1321.37 61.5223 1321.16 61.1577 1320.77 60.8991C1320.39 60.6373 1319.9 60.5064 1319.32 60.5064C1318.9 60.5064 1318.54 60.5727 1318.24 60.7053C1317.93 60.8345 1317.69 61.0135 1317.53 61.2422C1317.36 61.4676 1317.28 61.7244 1317.28 62.0128C1317.28 62.2547 1317.33 62.4635 1317.45 62.6392C1317.56 62.8149 1317.71 62.9624 1317.9 63.0817C1318.09 63.1977 1318.29 63.2955 1318.5 63.375C1318.72 63.4512 1318.93 63.5142 1319.13 63.5639L1320.12 63.8224C1320.45 63.902 1320.78 64.0097 1321.12 64.1456C1321.46 64.2815 1321.78 64.4605 1322.07 64.6825C1322.36 64.9046 1322.6 65.1797 1322.78 65.5078C1322.96 65.8359 1323.05 66.2287 1323.05 66.6861C1323.05 67.2628 1322.9 67.7749 1322.6 68.2223C1322.31 68.6697 1321.88 69.0227 1321.31 69.2812C1320.75 69.5398 1320.08 69.669 1319.28 69.669C1318.52 69.669 1317.86 69.5481 1317.3 69.3061C1316.74 69.0642 1316.31 68.7211 1315.99 68.277C1315.68 67.8295 1315.51 67.2992 1315.47 66.6861H1317.01C1317.04 67.054 1317.16 67.3606 1317.37 67.6058C1317.58 67.8478 1317.85 68.0284 1318.18 68.1477C1318.51 68.2637 1318.88 68.3217 1319.27 68.3217C1319.7 68.3217 1320.09 68.2538 1320.43 68.1179C1320.77 67.9787 1321.04 67.7865 1321.23 67.5412C1321.43 67.2926 1321.53 67.0026 1321.53 66.6712C1321.53 66.3696 1321.44 66.1226 1321.27 65.9304C1321.1 65.7382 1320.87 65.5791 1320.58 65.4531C1320.29 65.3272 1319.96 65.2161 1319.6 65.12L1318.4 64.7919C1317.58 64.5698 1316.93 64.2434 1316.46 63.8125C1315.98 63.3816 1315.75 62.8116 1315.75 62.1023C1315.75 61.5156 1315.9 61.0036 1316.22 60.5661C1316.54 60.1286 1316.97 59.7888 1317.52 59.5469C1318.06 59.3016 1318.67 59.179 1319.35 59.179C1320.04 59.179 1320.65 59.3 1321.18 59.5419C1321.71 59.7839 1322.13 60.117 1322.43 60.5412C1322.74 60.9621 1322.9 61.446 1322.91 61.9929H1321.43ZM1330.06 69.5V70.7628H1323.6V69.5H1330.06ZM1331.88 69.5H1330.25L1333.91 59.3182H1335.68L1339.35 69.5H1337.72L1334.84 61.1676H1334.76L1331.88 69.5ZM1332.15 65.5128H1337.44V66.8054H1332.15V65.5128ZM1338.96 60.6406V59.3182H1346.84V60.6406H1343.66V69.5H1342.13V60.6406H1338.96Z" fill="black" fill-opacity="0.8" style="fill:black;fill-opacity:0.8;"/>
<path d="M409.5 63C408.948 63 408.5 63.4477 408.5 64C408.5 64.5523 408.948 65 409.5 65V63ZM455.938 65C456.49 65 456.938 64.5523 456.938 64C456.938 63.4477 456.49 63 455.938 63V65ZM506.062 63C505.51 63 505.062 63.4477 505.062 64C505.062 64.5523 505.51 65 506.062 65V63ZM553.207 64.7071C553.598 64.3166 553.598 63.6834 553.207 63.2929L546.843 56.9289C546.453 56.5384 545.819 56.5384 545.429 56.9289C545.038 57.3195 545.038 57.9526 545.429 58.3431L551.086 64L545.429 69.6569C545.038 70.0474 545.038 70.6805 545.429 71.0711C545.819 71.4616 546.453 71.4616 546.843 71.0711L553.207 64.7071ZM409.5 65H455.938V63H409.5V65ZM506.062 65H552.5V63H506.062V65Z" fill="#1A1B1D" style="fill:#1A1B1D;fill:color(display-p3 0.1020 0.1059 0.1137);fill-opacity:1;"/>
<path d="M471.899 59.3182V69.5H470.487L465.311 62.0327H465.217V69.5H463.681V59.3182H465.103L470.283 66.7955H470.377V59.3182H471.899ZM473.986 69.5V59.3182H480.369V60.6406H475.522V63.7429H480.036V65.0604H475.522V68.1776H480.429V69.5H473.986ZM483.336 59.3182L485.772 63.3004H485.852L488.288 59.3182H490.068L486.896 64.4091L490.088 69.5H488.298L485.852 65.5724H485.772L483.326 69.5H481.536L484.783 64.4091L481.556 59.3182H483.336ZM490.935 60.6406V59.3182H498.815V60.6406H495.638V69.5H494.107V60.6406H490.935Z" fill="black" fill-opacity="0.8" style="fill:black;fill-opacity:0.8;"/>
<path d="M687.5 63C686.948 63 686.5 63.4477 686.5 64C686.5 64.5523 686.948 65 687.5 65V63ZM733.938 65C734.49 65 734.938 64.5523 734.938 64C734.938 63.4477 734.49 63 733.938 63V65ZM784.062 63C783.51 63 783.062 63.4477 783.062 64C783.062 64.5523 783.51 65 784.062 65V63ZM831.207 64.7071C831.598 64.3166 831.598 63.6834 831.207 63.2929L824.843 56.9289C824.453 56.5384 823.819 56.5384 823.429 56.9289C823.038 57.3195 823.038 57.9526 823.429 58.3431L829.086 64L823.429 69.6569C823.038 70.0474 823.038 70.6805 823.429 71.0711C823.819 71.4616 824.453 71.4616 824.843 71.0711L831.207 64.7071ZM687.5 65H733.938V63H687.5V65ZM784.062 65H830.5V63H784.062V65Z" fill="#1A1B1D" style="fill:#1A1B1D;fill:color(display-p3 0.1020 0.1059 0.1137);fill-opacity:1;"/>
<path d="M749.899 59.3182V69.5H748.487L743.311 62.0327H743.217V69.5H741.681V59.3182H743.103L748.283 66.7955H748.377V59.3182H749.899ZM751.986 69.5V59.3182H758.369V60.6406H753.522V63.7429H758.036V65.0604H753.522V68.1776H758.429V69.5H751.986ZM761.336 59.3182L763.772 63.3004H763.852L766.288 59.3182H768.068L764.896 64.4091L768.088 69.5H766.298L763.852 65.5724H763.772L761.326 69.5H759.536L762.783 64.4091L759.556 59.3182H761.336ZM768.935 60.6406V59.3182H776.815V60.6406H773.638V69.5H772.107V60.6406H768.935Z" fill="black" fill-opacity="0.8" style="fill:black;fill-opacity:0.8;"/>
<path d="M965.5 63C964.948 63 964.5 63.4477 964.5 64C964.5 64.5523 964.948 65 965.5 65V63ZM1011.94 65C1012.49 65 1012.94 64.5523 1012.94 64C1012.94 63.4477 1012.49 63 1011.94 63V65ZM1062.06 63C1061.51 63 1061.06 63.4477 1061.06 64C1061.06 64.5523 1061.51 65 1062.06 65V63ZM1109.21 64.7071C1109.6 64.3166 1109.6 63.6834 1109.21 63.2929L1102.84 56.9289C1102.45 56.5384 1101.82 56.5384 1101.43 56.9289C1101.04 57.3195 1101.04 57.9526 1101.43 58.3431L1107.09 64L1101.43 69.6569C1101.04 70.0474 1101.04 70.6805 1101.43 71.0711C1101.82 71.4616 1102.45 71.4616 1102.84 71.0711L1109.21 64.7071ZM965.5 65H1011.94V63H965.5V65ZM1062.06 65H1108.5V63H1062.06V65Z" fill="#1A1B1D" style="fill:#1A1B1D;fill:color(display-p3 0.1020 0.1059 0.1137);fill-opacity:1;"/>
<path d="M1027.9 59.3182V69.5H1026.49L1021.31 62.0327H1021.22V69.5H1019.68V59.3182H1021.1L1026.28 66.7955H1026.38V59.3182H1027.9ZM1029.99 69.5V59.3182H1036.37V60.6406H1031.52V63.7429H1036.04V65.0604H1031.52V68.1776H1036.43V69.5H1029.99ZM1039.34 59.3182L1041.77 63.3004H1041.85L1044.29 59.3182H1046.07L1042.9 64.4091L1046.09 69.5H1044.3L1041.85 65.5724H1041.77L1039.33 69.5H1037.54L1040.78 64.4091L1037.56 59.3182H1039.34ZM1046.94 60.6406V59.3182H1054.82V60.6406H1051.64V69.5H1050.11V60.6406H1046.94Z" fill="black" fill-opacity="0.8" style="fill:black;fill-opacity:0.8;"/>
</svg>
