<svg width="867" height="1710" viewBox="0 0 867 1710" fill="none" xmlns="http://www.w3.org/2000/svg">
<path d="M787 51C787 28.9086 804.909 11 827 11C849.091 11 867 28.9086 867 51C867 73.0914 849.091 91 827 91C804.909 91 787 73.0914 787 51Z" fill="#56C7E4" style="fill:#56C7E4;fill:color(display-p3 0.3373 0.7804 0.8941);fill-opacity:1;"/>
<path d="M826.466 55.6534C826.051 55.6534 825.675 55.5753 825.336 55.419C824.998 55.2599 824.73 55.0312 824.531 54.733C824.332 54.4318 824.233 54.0682 824.233 53.642C824.233 53.267 824.307 52.9631 824.454 52.7301C824.602 52.4943 824.8 52.3097 825.047 52.1761C825.294 52.0426 825.567 51.9432 825.865 51.8778C826.166 51.8097 826.469 51.7557 826.773 51.7159C827.17 51.6648 827.493 51.6264 827.74 51.6009C827.99 51.5724 828.172 51.5256 828.285 51.4602C828.402 51.3949 828.46 51.2812 828.46 51.1193V51.0852C828.46 50.6648 828.345 50.3381 828.115 50.1051C827.888 49.8722 827.542 49.7557 827.079 49.7557C826.599 49.7557 826.223 49.8608 825.95 50.071C825.677 50.2812 825.486 50.5057 825.375 50.7443L824.42 50.4034C824.591 50.0057 824.818 49.696 825.102 49.4744C825.389 49.25 825.702 49.0937 826.04 49.0057C826.381 48.9148 826.716 48.8693 827.045 48.8693C827.256 48.8693 827.497 48.8949 827.77 48.946C828.045 48.9943 828.311 49.0952 828.567 49.2486C828.825 49.402 829.04 49.6335 829.21 49.9432C829.381 50.2528 829.466 50.6676 829.466 51.1875V55.5H828.46V54.6136H828.409C828.341 54.7557 828.227 54.9077 828.068 55.0696C827.909 55.2315 827.697 55.3693 827.433 55.483C827.169 55.5966 826.846 55.6534 826.466 55.6534ZM826.619 54.75C827.017 54.75 827.352 54.6719 827.625 54.5156C827.9 54.3594 828.108 54.1577 828.247 53.9105C828.389 53.6634 828.46 53.4034 828.46 53.1307V52.2102C828.417 52.2614 828.324 52.3082 828.179 52.3509C828.037 52.3906 827.872 52.4261 827.684 52.4574C827.5 52.4858 827.319 52.5114 827.143 52.5341C826.97 52.554 826.829 52.571 826.721 52.5852C826.46 52.6193 826.216 52.6747 825.988 52.7514C825.764 52.8253 825.582 52.9375 825.443 53.0881C825.307 53.2358 825.238 53.4375 825.238 53.6932C825.238 54.0426 825.368 54.3068 825.626 54.4858C825.888 54.6619 826.219 54.75 826.619 54.75Z" fill="#1A1B1D" style="fill:#1A1B1D;fill:color(display-p3 0.1020 0.1059 0.1137);fill-opacity:1;"/>
<path d="M787 211C787 188.909 804.909 171 827 171C849.091 171 867 188.909 867 211C867 233.091 849.091 251 827 251C804.909 251 787 233.091 787 211Z" fill="#56C7E4" style="fill:#56C7E4;fill:color(display-p3 0.3373 0.7804 0.8941);fill-opacity:1;"/>
<path d="M824.33 215.5V206.773H825.336V209.994H825.421C825.495 209.881 825.597 209.736 825.728 209.56C825.862 209.381 826.052 209.222 826.299 209.082C826.549 208.94 826.887 208.869 827.313 208.869C827.864 208.869 828.35 209.007 828.771 209.283C829.191 209.558 829.519 209.949 829.755 210.455C829.991 210.96 830.109 211.557 830.109 212.244C830.109 212.938 829.991 213.538 829.755 214.047C829.519 214.553 829.192 214.945 828.775 215.223C828.357 215.499 827.876 215.636 827.33 215.636C826.91 215.636 826.573 215.567 826.32 215.428C826.067 215.286 825.873 215.125 825.737 214.946C825.6 214.764 825.495 214.614 825.421 214.494H825.302V215.5H824.33ZM825.319 212.227C825.319 212.722 825.391 213.158 825.536 213.536C825.681 213.911 825.893 214.205 826.171 214.418C826.45 214.628 826.79 214.733 827.194 214.733C827.614 214.733 827.965 214.622 828.246 214.401C828.531 214.176 828.744 213.875 828.886 213.497C829.031 213.116 829.103 212.693 829.103 212.227C829.103 211.767 829.032 211.352 828.89 210.983C828.751 210.611 828.539 210.317 828.255 210.101C827.974 209.882 827.62 209.773 827.194 209.773C826.785 209.773 826.441 209.876 826.163 210.084C825.884 210.288 825.674 210.575 825.532 210.945C825.39 211.311 825.319 211.739 825.319 212.227Z" fill="#1A1B1D" style="fill:#1A1B1D;fill:color(display-p3 0.1020 0.1059 0.1137);fill-opacity:1;"/>
<path d="M787 371C787 348.909 804.909 331 827 331C849.091 331 867 348.909 867 371C867 393.091 849.091 411 827 411C804.909 411 787 393.091 787 371Z" fill="#56C7E4" style="fill:#56C7E4;fill:color(display-p3 0.3373 0.7804 0.8941);fill-opacity:1;"/>
<path d="M787 531C787 508.909 804.909 491 827 491C849.091 491 867 508.909 867 531C867 553.091 849.091 571 827 571C804.909 571 787 553.091 787 531Z" fill="#56C7E4" style="fill:#56C7E4;fill:color(display-p3 0.3373 0.7804 0.8941);fill-opacity:1;"/>
<path d="M787 691C787 668.909 804.909 651 827 651C849.091 651 867 668.909 867 691C867 713.091 849.091 731 827 731C804.909 731 787 713.091 787 691Z" fill="#56C7E4" style="fill:#56C7E4;fill:color(display-p3 0.3373 0.7804 0.8941);fill-opacity:1;"/>
<path d="M787 851C787 828.909 804.909 811 827 811C849.091 811 867 828.909 867 851C867 873.091 849.091 891 827 891C804.909 891 787 873.091 787 851Z" fill="#56C7E4" style="fill:#56C7E4;fill:color(display-p3 0.3373 0.7804 0.8941);fill-opacity:1;"/>
<path d="M787 1011C787 988.909 804.909 971 827 971C849.091 971 867 988.909 867 1011C867 1033.09 849.091 1051 827 1051C804.909 1051 787 1033.09 787 1011Z" fill="#56C7E4" style="fill:#56C7E4;fill:color(display-p3 0.3373 0.7804 0.8941);fill-opacity:1;"/>
<path d="M787 1171C787 1148.91 804.909 1131 827 1131C849.091 1131 867 1148.91 867 1171C867 1193.09 849.091 1211 827 1211C804.909 1211 787 1193.09 787 1171Z" fill="#56C7E4" style="fill:#56C7E4;fill:color(display-p3 0.3373 0.7804 0.8941);fill-opacity:1;"/>
<path d="M787 1331C787 1308.91 804.909 1291 827 1291C849.091 1291 867 1308.91 867 1331C867 1353.09 849.091 1371 827 1371C804.909 1371 787 1353.09 787 1331Z" fill="#56C7E4" style="fill:#56C7E4;fill:color(display-p3 0.3373 0.7804 0.8941);fill-opacity:1;"/>
<path d="M827.228 1335.64C826.614 1335.64 826.086 1335.49 825.643 1335.2C825.2 1334.91 824.859 1334.51 824.62 1334C824.381 1333.5 824.262 1332.91 824.262 1332.26C824.262 1331.6 824.384 1331.01 824.629 1330.5C824.876 1329.99 825.219 1329.59 825.66 1329.3C826.103 1329.01 826.62 1328.87 827.211 1328.87C827.671 1328.87 828.086 1328.95 828.455 1329.12C828.825 1329.3 829.127 1329.53 829.363 1329.84C829.599 1330.15 829.745 1330.51 829.802 1330.91H828.796C828.719 1330.62 828.549 1330.35 828.285 1330.12C828.023 1329.89 827.671 1329.77 827.228 1329.77C826.836 1329.77 826.492 1329.87 826.197 1330.08C825.904 1330.28 825.675 1330.57 825.511 1330.94C825.349 1331.3 825.268 1331.73 825.268 1332.23C825.268 1332.73 825.347 1333.17 825.506 1333.55C825.668 1333.92 825.896 1334.21 826.188 1334.42C826.484 1334.63 826.83 1334.73 827.228 1334.73C827.489 1334.73 827.727 1334.69 827.94 1334.6C828.153 1334.51 828.333 1334.38 828.481 1334.2C828.629 1334.03 828.734 1333.83 828.796 1333.59H829.802C829.745 1333.98 829.604 1334.33 829.38 1334.63C829.158 1334.94 828.864 1335.19 828.498 1335.37C828.134 1335.55 827.711 1335.64 827.228 1335.64Z" fill="#1A1B1D" style="fill:#1A1B1D;fill:color(display-p3 0.1020 0.1059 0.1137);fill-opacity:1;"/>
<path d="M787 1491C787 1468.91 804.909 1451 827 1451C849.091 1451 867 1468.91 867 1491C867 1513.09 849.091 1531 827 1531C804.909 1531 787 1513.09 787 1491Z" fill="#CFD1D4" style="fill:#CFD1D4;fill:color(display-p3 0.8118 0.8196 0.8314);fill-opacity:1;"/>
<path d="M787 1651C787 1628.91 804.909 1611 827 1611C849.091 1611 867 1628.91 867 1651C867 1673.09 849.091 1691 827 1691C804.909 1691 787 1673.09 787 1651Z" fill="#CFD1D4" style="fill:#CFD1D4;fill:color(display-p3 0.8118 0.8196 0.8314);fill-opacity:1;"/>
<path d="M128 1491C128 1468.91 145.909 1451 168 1451C190.091 1451 208 1468.91 208 1491C208 1513.09 190.091 1531 168 1531C145.909 1531 128 1513.09 128 1491Z" fill="#56C7E4" style="fill:#56C7E4;fill:color(display-p3 0.3373 0.7804 0.8941);fill-opacity:1;"/>
<path d="M166.43 1488.95L167.998 1491.63L169.567 1488.95H170.726L168.612 1492.23L170.726 1495.5H169.567L167.998 1492.96L166.43 1495.5H165.271L167.351 1492.23L165.271 1488.95H166.43Z" fill="#1A1B1D" style="fill:#1A1B1D;fill:color(display-p3 0.1020 0.1059 0.1137);fill-opacity:1;"/>
<path d="M0 1011C0 988.909 17.9086 971 40 971C62.0914 971 80 988.909 80 1011C80 1033.09 62.0914 1051 40 1051C17.9086 1051 0 1033.09 0 1011Z" fill="#CFD1D4" style="fill:#CFD1D4;fill:color(display-p3 0.8118 0.8196 0.8314);fill-opacity:1;"/>
<path d="M128 1011C128 988.909 145.909 971 168 971C190.091 971 208 988.909 208 1011C208 1033.09 190.091 1051 168 1051C145.909 1051 128 1033.09 128 1011Z" fill="#56C7E4" style="fill:#56C7E4;fill:color(display-p3 0.3373 0.7804 0.8941);fill-opacity:1;"/>
<path d="M166.416 1011.56V1015.5H165.411V1008.95H166.382V1009.98H166.468C166.621 1009.64 166.854 1009.38 167.166 1009.18C167.479 1008.97 167.882 1008.87 168.377 1008.87C168.82 1008.87 169.208 1008.96 169.54 1009.14C169.872 1009.32 170.131 1009.59 170.316 1009.96C170.5 1010.32 170.593 1010.78 170.593 1011.34V1015.5H169.587V1011.41C169.587 1010.89 169.453 1010.49 169.186 1010.21C168.919 1009.92 168.553 1009.77 168.087 1009.77C167.766 1009.77 167.479 1009.84 167.226 1009.98C166.976 1010.12 166.779 1010.32 166.634 1010.59C166.489 1010.86 166.416 1011.18 166.416 1011.56Z" fill="#1A1B1D" style="fill:#1A1B1D;fill:color(display-p3 0.1020 0.1059 0.1137);fill-opacity:1;"/>
<path d="M256 1011C256 988.909 273.909 971 296 971C318.091 971 336 988.909 336 1011C336 1033.09 318.091 1051 296 1051C273.909 1051 256 1033.09 256 1011Z" fill="#CFD1D4" style="fill:#CFD1D4;fill:color(display-p3 0.8118 0.8196 0.8314);fill-opacity:1;"/>
<path d="M0 528C0 505.909 17.9086 488 40 488C62.0914 488 80 505.909 80 528C80 550.091 62.0914 568 40 568C17.9086 568 0 550.091 0 528Z" fill="#CFD1D4" style="fill:#CFD1D4;fill:color(display-p3 0.8118 0.8196 0.8314);fill-opacity:1;"/>
<path d="M128 528C128 505.909 145.909 488 168 488C190.091 488 208 505.909 208 528C208 550.091 190.091 568 168 568C145.909 568 128 550.091 128 528Z" fill="#56C7E4" style="fill:#56C7E4;fill:color(display-p3 0.3373 0.7804 0.8941);fill-opacity:1;"/>
<path d="M163.706 532.5V525.955H164.677V526.977H164.762C164.899 526.628 165.119 526.357 165.423 526.163C165.727 525.967 166.092 525.869 166.518 525.869C166.95 525.869 167.309 525.967 167.596 526.163C167.886 526.357 168.112 526.628 168.274 526.977H168.342C168.51 526.639 168.761 526.371 169.096 526.172C169.431 525.97 169.833 525.869 170.302 525.869C170.887 525.869 171.366 526.053 171.738 526.419C172.11 526.783 172.297 527.349 172.297 528.119V532.5H171.291V528.119C171.291 527.636 171.159 527.291 170.895 527.084C170.63 526.876 170.319 526.773 169.961 526.773C169.501 526.773 169.145 526.912 168.892 527.19C168.639 527.466 168.512 527.815 168.512 528.239V532.5H167.49V528.017C167.49 527.645 167.369 527.345 167.127 527.118C166.886 526.888 166.575 526.773 166.194 526.773C165.933 526.773 165.689 526.842 165.461 526.982C165.237 527.121 165.055 527.314 164.916 527.561C164.779 527.805 164.711 528.088 164.711 528.409V532.5H163.706Z" fill="#1A1B1D" style="fill:#1A1B1D;fill:color(display-p3 0.1020 0.1059 0.1137);fill-opacity:1;"/>
<path d="M256 528C256 505.909 273.909 488 296 488C318.091 488 336 505.909 336 528C336 550.091 318.091 568 296 568C273.909 568 256 550.091 256 528Z" fill="#CFD1D4" style="fill:#CFD1D4;fill:color(display-p3 0.8118 0.8196 0.8314);fill-opacity:1;"/>
<path d="M128 1651C128 1628.91 145.909 1611 168 1611C190.091 1611 208 1628.91 208 1651C208 1673.09 190.091 1691 168 1691C145.909 1691 128 1673.09 128 1651Z" fill="#56C7E4" style="fill:#56C7E4;fill:color(display-p3 0.3373 0.7804 0.8941);fill-opacity:1;"/>
<path d="M166.228 1657.95C166.058 1657.95 165.906 1657.94 165.772 1657.91C165.639 1657.89 165.547 1657.86 165.495 1657.84L165.751 1656.95C165.995 1657.01 166.211 1657.03 166.399 1657.02C166.586 1657 166.752 1656.92 166.897 1656.77C167.045 1656.62 167.18 1656.38 167.302 1656.05L167.49 1655.53L165.069 1648.95H166.16L167.967 1654.17H168.035L169.842 1648.95H170.933L168.154 1656.45C168.029 1656.79 167.875 1657.07 167.69 1657.29C167.505 1657.52 167.291 1657.68 167.047 1657.79C166.805 1657.9 166.532 1657.95 166.228 1657.95Z" fill="#1A1B1D" style="fill:#1A1B1D;fill:color(display-p3 0.1020 0.1059 0.1137);fill-opacity:1;"/>
<path d="M471 1651C471 1628.91 488.909 1611 511 1611C533.091 1611 551 1628.91 551 1651C551 1673.09 533.091 1691 511 1691C488.909 1691 471 1673.09 471 1651Z" fill="#FFDF81" style="fill:#FFDF81;fill:color(display-p3 1.0000 0.8745 0.5059);fill-opacity:1;"/>
<g filter="url(#filter0_d_568_1708)">
<path d="M466 1651C466 1626.15 486.147 1606 511 1606C535.853 1606 556 1626.15 556 1651C556 1675.85 535.853 1696 511 1696C486.147 1696 466 1675.85 466 1651Z" stroke="#30839D" style="stroke:#30839D;stroke:color(display-p3 0.1882 0.5137 0.6157);stroke-opacity:1;" stroke-width="4" shape-rendering="crispEdges"/>
</g>
<path d="M501.4 1655V1646.08H502.48V1649.71C502.584 1649.54 502.724 1649.38 502.9 1649.23C503.076 1649.08 503.29 1648.95 503.542 1648.86C503.794 1648.77 504.086 1648.72 504.418 1648.72C504.822 1648.72 505.188 1648.79 505.516 1648.95C505.844 1649.09 506.104 1649.31 506.296 1649.58C506.488 1649.86 506.584 1650.19 506.584 1650.57V1655H505.474V1650.79C505.474 1650.42 505.346 1650.13 505.09 1649.93C504.838 1649.73 504.508 1649.62 504.1 1649.62C503.824 1649.62 503.564 1649.67 503.32 1649.76C503.076 1649.85 502.878 1649.99 502.726 1650.17C502.578 1650.35 502.504 1650.58 502.504 1650.86V1655H501.4ZM510.594 1655.12C510.27 1655.12 509.964 1655.07 509.676 1654.98C509.392 1654.89 509.14 1654.76 508.92 1654.58C508.7 1654.4 508.526 1654.19 508.398 1653.93C508.274 1653.66 508.212 1653.36 508.212 1653.01V1648.8H509.322V1652.89C509.322 1653.3 509.446 1653.63 509.694 1653.88C509.946 1654.13 510.324 1654.26 510.828 1654.26C511.284 1654.26 511.65 1654.14 511.926 1653.9C512.206 1653.66 512.346 1653.31 512.346 1652.83V1648.8H513.45V1655H512.568L512.454 1653.81C512.378 1654.12 512.248 1654.38 512.064 1654.57C511.884 1654.76 511.666 1654.9 511.41 1654.99C511.158 1655.08 510.886 1655.12 510.594 1655.12ZM517.537 1655.12C516.729 1655.12 516.089 1654.84 515.617 1654.29C515.149 1653.74 514.915 1652.93 514.915 1651.87C514.915 1651.23 515.009 1650.67 515.197 1650.19C515.385 1649.71 515.667 1649.34 516.043 1649.07C516.419 1648.81 516.887 1648.68 517.447 1648.68C517.747 1648.68 518.011 1648.71 518.239 1648.79C518.467 1648.87 518.665 1648.96 518.833 1649.08C519.001 1649.19 519.137 1649.31 519.241 1649.44C519.349 1649.56 519.429 1649.68 519.481 1649.78V1646.08H520.603V1655H519.751L519.631 1653.73C519.591 1653.85 519.527 1653.99 519.439 1654.15C519.351 1654.3 519.227 1654.46 519.067 1654.61C518.911 1654.76 518.707 1654.88 518.455 1654.98C518.203 1655.07 517.897 1655.12 517.537 1655.12ZM517.735 1654.27C518.359 1654.27 518.805 1654.08 519.073 1653.7C519.345 1653.31 519.481 1652.69 519.481 1651.82C519.477 1651.34 519.417 1650.92 519.301 1650.58C519.185 1650.24 519.001 1649.99 518.749 1649.81C518.501 1649.63 518.169 1649.54 517.753 1649.54C517.245 1649.54 516.831 1649.72 516.511 1650.09C516.191 1650.45 516.031 1651.03 516.031 1651.82C516.031 1652.6 516.175 1653.2 516.463 1653.63C516.751 1654.05 517.175 1654.27 517.735 1654.27Z" fill="#1A1B1D" style="fill:#1A1B1D;fill:color(display-p3 0.1020 0.1059 0.1137);fill-opacity:1;"/>
<path d="M471 851C471 828.909 488.909 811 511 811C533.091 811 551 828.909 551 851C551 873.091 533.091 891 511 891C488.909 891 471 873.091 471 851Z" fill="#FFDF81" style="fill:#FFDF81;fill:color(display-p3 1.0000 0.8745 0.5059);fill-opacity:1;"/>
<path d="M471 1331C471 1308.91 488.909 1291 511 1291C533.091 1291 551 1308.91 551 1331C551 1353.09 533.091 1371 511 1371C488.909 1371 471 1353.09 471 1331Z" fill="#FFDF81" style="fill:#FFDF81;fill:color(display-p3 1.0000 0.8745 0.5059);fill-opacity:1;"/>
<path d="M504.641 1326.77V1335.5H503.635V1326.77H504.641ZM508.955 1335.64C508.409 1335.64 507.928 1335.5 507.51 1335.22C507.092 1334.94 506.766 1334.55 506.53 1334.05C506.294 1333.54 506.176 1332.94 506.176 1332.24C506.176 1331.56 506.294 1330.96 506.53 1330.45C506.766 1329.95 507.094 1329.56 507.514 1329.28C507.935 1329.01 508.42 1328.87 508.972 1328.87C509.398 1328.87 509.734 1328.94 509.982 1329.08C510.232 1329.22 510.422 1329.38 510.553 1329.56C510.686 1329.74 510.79 1329.88 510.864 1329.99H510.949V1326.77H511.955V1335.5H510.983V1334.49H510.864C510.79 1334.61 510.685 1334.76 510.548 1334.95C510.412 1335.12 510.217 1335.29 509.964 1335.43C509.712 1335.57 509.375 1335.64 508.955 1335.64ZM509.091 1334.73C509.494 1334.73 509.835 1334.63 510.114 1334.42C510.392 1334.2 510.604 1333.91 510.749 1333.54C510.893 1333.16 510.966 1332.72 510.966 1332.23C510.966 1331.74 510.895 1331.31 510.753 1330.94C510.611 1330.58 510.401 1330.29 510.122 1330.08C509.844 1329.88 509.5 1329.77 509.091 1329.77C508.665 1329.77 508.31 1329.88 508.026 1330.1C507.744 1330.32 507.533 1330.61 507.391 1330.98C507.251 1331.35 507.182 1331.77 507.182 1332.23C507.182 1332.69 507.253 1333.12 507.395 1333.5C507.54 1333.87 507.753 1334.18 508.034 1334.4C508.318 1334.62 508.67 1334.73 509.091 1334.73ZM518.572 1330.42L517.669 1330.68C517.612 1330.53 517.528 1330.38 517.418 1330.24C517.31 1330.09 517.162 1329.97 516.974 1329.88C516.787 1329.79 516.547 1329.74 516.254 1329.74C515.854 1329.74 515.52 1329.83 515.253 1330.02C514.989 1330.2 514.857 1330.43 514.857 1330.71C514.857 1330.96 514.947 1331.16 515.129 1331.3C515.311 1331.45 515.595 1331.57 515.982 1331.66L516.953 1331.9C517.538 1332.05 517.974 1332.26 518.261 1332.56C518.548 1332.85 518.692 1333.22 518.692 1333.68C518.692 1334.05 518.584 1334.39 518.368 1334.68C518.155 1334.98 517.857 1335.21 517.473 1335.38C517.089 1335.55 516.643 1335.64 516.135 1335.64C515.467 1335.64 514.915 1335.49 514.477 1335.2C514.04 1334.91 513.763 1334.49 513.646 1333.93L514.601 1333.69C514.692 1334.05 514.864 1334.31 515.116 1334.49C515.372 1334.66 515.706 1334.75 516.118 1334.75C516.587 1334.75 516.959 1334.65 517.234 1334.45C517.513 1334.25 517.652 1334.01 517.652 1333.73C517.652 1333.5 517.572 1333.31 517.413 1333.16C517.254 1333 517.01 1332.88 516.68 1332.81L515.589 1332.55C514.99 1332.41 514.55 1332.19 514.268 1331.89C513.99 1331.59 513.851 1331.21 513.851 1330.76C513.851 1330.39 513.955 1330.07 514.162 1329.78C514.372 1329.5 514.658 1329.27 515.018 1329.11C515.382 1328.95 515.794 1328.87 516.254 1328.87C516.902 1328.87 517.411 1329.01 517.78 1329.3C518.152 1329.58 518.416 1329.95 518.572 1330.42Z" fill="#1A1B1D" style="fill:#1A1B1D;fill:color(display-p3 0.1020 0.1059 0.1137);fill-opacity:1;"/>
<path d="M471 1171C471 1148.91 488.909 1131 511 1131C533.091 1131 551 1148.91 551 1171C551 1193.09 533.091 1211 511 1211C488.909 1211 471 1193.09 471 1171Z" fill="#FFDF81" style="fill:#FFDF81;fill:color(display-p3 1.0000 0.8745 0.5059);fill-opacity:1;"/>
<path d="M471 691C471 668.909 488.909 651 511 651C533.091 651 551 668.909 551 691C551 713.091 533.091 731 511 731C488.909 731 471 713.091 471 691Z" fill="#FFDF81" style="fill:#FFDF81;fill:color(display-p3 1.0000 0.8745 0.5059);fill-opacity:1;"/>
<path d="M471 1011C471 988.909 488.909 971 511 971C533.091 971 551 988.909 551 1011C551 1033.09 533.091 1051 511 1051C488.909 1051 471 1033.09 471 1011Z" fill="#FFDF81" style="fill:#FFDF81;fill:color(display-p3 1.0000 0.8745 0.5059);fill-opacity:1;"/>
<path d="M471 371C471 348.909 488.909 331 511 331C533.091 331 551 348.909 551 371C551 393.091 533.091 411 511 411C488.909 411 471 393.091 471 371Z" fill="#FFDF81" style="fill:#FFDF81;fill:color(display-p3 1.0000 0.8745 0.5059);fill-opacity:1;"/>
<path d="M471 531C471 508.909 488.909 491 511 491C533.091 491 551 508.909 551 531C551 553.091 533.091 571 511 571C488.909 571 471 553.091 471 531Z" fill="#FFDF81" style="fill:#FFDF81;fill:color(display-p3 1.0000 0.8745 0.5059);fill-opacity:1;"/>
<path d="M471 211C471 188.909 488.909 171 511 171C533.091 171 551 188.909 551 211C551 233.091 533.091 251 511 251C488.909 251 471 233.091 471 211Z" fill="#FFDF81" style="fill:#FFDF81;fill:color(display-p3 1.0000 0.8745 0.5059);fill-opacity:1;"/>
<path d="M511.502 206.773V215.5H510.497V206.773H511.502Z" fill="#1A1B1D" style="fill:#1A1B1D;fill:color(display-p3 0.1020 0.1059 0.1137);fill-opacity:1;"/>
<path d="M471 51C471 28.9086 488.909 11 511 11C533.091 11 551 28.9086 551 51C551 73.0914 533.091 91 511 91C488.909 91 471 73.0914 471 51Z" fill="#FFDF81" style="fill:#FFDF81;fill:color(display-p3 1.0000 0.8745 0.5059);fill-opacity:1;"/>
<g filter="url(#filter1_d_568_1708)">
<path d="M466 51C466 26.1472 486.147 6 511 6C535.853 6 556 26.1472 556 51C556 75.8528 535.853 96 511 96C486.147 96 466 75.8528 466 51Z" stroke="#30839D" style="stroke:#30839D;stroke:color(display-p3 0.1882 0.5137 0.6157);stroke-opacity:1;" stroke-width="4" shape-rendering="crispEdges"/>
</g>
<path d="M504.136 55.12C503.704 55.12 503.302 55.054 502.93 54.922C502.562 54.786 502.256 54.576 502.012 54.292C501.768 54.004 501.616 53.638 501.556 53.194H502.564C502.616 53.438 502.716 53.642 502.864 53.806C503.012 53.966 503.194 54.088 503.41 54.172C503.63 54.252 503.87 54.292 504.13 54.292C504.55 54.292 504.888 54.214 505.144 54.058C505.4 53.902 505.528 53.662 505.528 53.338C505.528 53.11 505.46 52.928 505.324 52.792C505.192 52.652 504.984 52.55 504.7 52.486L503.416 52.168C502.916 52.048 502.516 51.86 502.216 51.604C501.92 51.348 501.77 50.99 501.766 50.53C501.766 50.166 501.854 49.846 502.03 49.57C502.206 49.294 502.468 49.076 502.816 48.916C503.168 48.756 503.606 48.676 504.13 48.676C504.806 48.676 505.35 48.828 505.762 49.132C506.174 49.432 506.39 49.874 506.41 50.458H505.426C505.386 50.162 505.254 49.928 505.03 49.756C504.806 49.58 504.502 49.492 504.118 49.492C503.726 49.492 503.404 49.572 503.152 49.732C502.904 49.888 502.78 50.132 502.78 50.464C502.78 50.684 502.868 50.858 503.044 50.986C503.224 51.11 503.484 51.214 503.824 51.298L505.072 51.61C505.356 51.686 505.592 51.786 505.78 51.91C505.968 52.034 506.116 52.172 506.224 52.324C506.332 52.476 506.408 52.636 506.452 52.804C506.5 52.968 506.524 53.126 506.524 53.278C506.524 53.658 506.43 53.986 506.242 54.262C506.054 54.534 505.782 54.746 505.426 54.898C505.07 55.046 504.64 55.12 504.136 55.12ZM511.041 55.12C510.677 55.12 510.369 55.072 510.117 54.976C509.869 54.88 509.665 54.758 509.505 54.61C509.345 54.458 509.221 54.304 509.133 54.148C509.045 53.988 508.981 53.848 508.941 53.728L508.821 55H507.975V46.084H509.091V49.78C509.143 49.676 509.221 49.562 509.325 49.438C509.433 49.314 509.571 49.194 509.739 49.078C509.907 48.962 510.105 48.866 510.333 48.79C510.565 48.714 510.829 48.676 511.125 48.676C511.901 48.676 512.517 48.946 512.973 49.486C513.433 50.026 513.663 50.822 513.663 51.874C513.663 52.526 513.565 53.096 513.369 53.584C513.173 54.068 512.881 54.446 512.493 54.718C512.105 54.986 511.621 55.12 511.041 55.12ZM510.843 54.268C511.347 54.268 511.757 54.074 512.073 53.686C512.389 53.294 512.547 52.672 512.547 51.82C512.547 51.096 512.399 50.536 512.103 50.14C511.811 49.74 511.383 49.54 510.819 49.54C510.407 49.54 510.075 49.63 509.823 49.81C509.575 49.986 509.391 50.244 509.271 50.584C509.155 50.924 509.095 51.336 509.091 51.82C509.091 52.688 509.225 53.314 509.493 53.698C509.765 54.078 510.215 54.268 510.843 54.268ZM517.757 55.12C517.181 55.12 516.673 54.994 516.233 54.742C515.793 54.49 515.449 54.128 515.201 53.656C514.953 53.184 514.829 52.618 514.829 51.958C514.829 51.306 514.941 50.734 515.165 50.242C515.389 49.75 515.713 49.366 516.137 49.09C516.565 48.814 517.079 48.676 517.679 48.676C518.263 48.676 518.757 48.802 519.161 49.054C519.565 49.306 519.871 49.662 520.079 50.122C520.291 50.578 520.397 51.12 520.397 51.748V52.156H515.951C515.951 52.548 516.015 52.904 516.143 53.224C516.275 53.54 516.473 53.792 516.737 53.98C517.001 54.168 517.335 54.262 517.739 54.262C518.135 54.262 518.475 54.17 518.759 53.986C519.047 53.802 519.231 53.536 519.311 53.188H520.355C520.283 53.608 520.115 53.962 519.851 54.25C519.591 54.538 519.277 54.756 518.909 54.904C518.545 55.048 518.161 55.12 517.757 55.12ZM515.957 51.406H519.329C519.329 51.05 519.269 50.73 519.149 50.446C519.029 50.158 518.845 49.932 518.597 49.768C518.353 49.6 518.045 49.516 517.673 49.516C517.285 49.516 516.963 49.61 516.707 49.798C516.451 49.982 516.261 50.22 516.137 50.512C516.013 50.8 515.953 51.098 515.957 51.406Z" fill="#1A1B1D" style="fill:#1A1B1D;fill:color(display-p3 0.1020 0.1059 0.1137);fill-opacity:1;"/>
<path d="M783 52.5C783.828 52.5 784.5 51.8284 784.5 51C784.5 50.1716 783.828 49.5 783 49.5V52.5ZM570 44.3397C570 43.5113 568.985 42.9255 568.268 43.3397L556.732 50C556.015 50.4142 556.015 51.5858 556.732 52L568.268 58.6603C568.985 59.0745 570 58.4887 570 57.6603V44.3397ZM783 49.5H568.5V52.5H783V49.5Z" fill="#961200" style="fill:#961200;fill:color(display-p3 0.5882 0.0706 0.0000);fill-opacity:1;"/>
<path d="M783 212.5C783.828 212.5 784.5 211.828 784.5 211C784.5 210.172 783.828 209.5 783 209.5V212.5ZM570 204.34C570 203.511 568.985 202.926 568.268 203.34L556.732 210C556.015 210.414 556.015 211.586 556.732 212L568.268 218.66C568.985 219.074 570 218.489 570 217.66V204.34ZM783 209.5H568.5V212.5H783V209.5Z" fill="#90CB62" style="fill:#90CB62;fill:color(display-p3 0.5647 0.7961 0.3843);fill-opacity:1;"/>
<path d="M784 371.5C784.276 371.5 784.5 371.276 784.5 371C784.5 370.724 784.276 370.5 784 370.5V371.5ZM559 368.78C559 368.504 558.662 368.309 558.423 368.447L554.577 370.667C554.338 370.805 554.338 371.195 554.577 371.333L558.423 373.553C558.662 373.691 559 373.496 559 373.22V368.78ZM784 370.5H558.5V371.5H784V370.5Z" fill="#4D5157" style="fill:#4D5157;fill:color(display-p3 0.3020 0.3176 0.3412);fill-opacity:1;"/>
<path d="M784 531.5C784.276 531.5 784.5 531.276 784.5 531C784.5 530.724 784.276 530.5 784 530.5V531.5ZM559 528.78C559 528.504 558.662 528.309 558.423 528.447L554.577 530.667C554.338 530.805 554.338 531.195 554.577 531.333L558.423 533.553C558.662 533.691 559 533.496 559 533.22V528.78ZM784 530.5H558.5V531.5H784V530.5Z" fill="#4D5157" style="fill:#4D5157;fill:color(display-p3 0.3020 0.3176 0.3412);fill-opacity:1;"/>
<path d="M784 691.5C784.276 691.5 784.5 691.276 784.5 691C784.5 690.724 784.276 690.5 784 690.5V691.5ZM559 688.78C559 688.504 558.662 688.309 558.423 688.447L554.577 690.667C554.338 690.805 554.338 691.195 554.577 691.333L558.423 693.553C558.662 693.691 559 693.496 559 693.22V688.78ZM784 690.5H558.5V691.5H784V690.5Z" fill="#4D5157" style="fill:#4D5157;fill:color(display-p3 0.3020 0.3176 0.3412);fill-opacity:1;"/>
<path d="M784 851.5C784.276 851.5 784.5 851.276 784.5 851C784.5 850.724 784.276 850.5 784 850.5V851.5ZM559 848.78C559 848.504 558.662 848.309 558.423 848.447L554.577 850.667C554.338 850.805 554.338 851.195 554.577 851.333L558.423 853.553C558.662 853.691 559 853.496 559 853.22V848.78ZM784 850.5H558.5V851.5H784V850.5Z" fill="#4D5157" style="fill:#4D5157;fill:color(display-p3 0.3020 0.3176 0.3412);fill-opacity:1;"/>
<path d="M784 1011.5C784.276 1011.5 784.5 1011.28 784.5 1011C784.5 1010.72 784.276 1010.5 784 1010.5V1011.5ZM559 1008.78C559 1008.5 558.662 1008.31 558.423 1008.45L554.577 1010.67C554.338 1010.8 554.338 1011.2 554.577 1011.33L558.423 1013.55C558.662 1013.69 559 1013.5 559 1013.22V1008.78ZM784 1010.5H558.5V1011.5H784V1010.5Z" fill="#4D5157" style="fill:#4D5157;fill:color(display-p3 0.3020 0.3176 0.3412);fill-opacity:1;"/>
<path d="M784 1171.5C784.276 1171.5 784.5 1171.28 784.5 1171C784.5 1170.72 784.276 1170.5 784 1170.5V1171.5ZM559 1168.78C559 1168.5 558.662 1168.31 558.423 1168.45L554.577 1170.67C554.338 1170.8 554.338 1171.2 554.577 1171.33L558.423 1173.55C558.662 1173.69 559 1173.5 559 1173.22V1168.78ZM784 1170.5H558.5V1171.5H784V1170.5Z" fill="#4D5157" style="fill:#4D5157;fill:color(display-p3 0.3020 0.3176 0.3412);fill-opacity:1;"/>
<path d="M783 1332.5C783.828 1332.5 784.5 1331.83 784.5 1331C784.5 1330.17 783.828 1329.5 783 1329.5V1332.5ZM570 1324.34C570 1323.51 568.985 1322.93 568.268 1323.34L556.732 1330C556.015 1330.41 556.015 1331.59 556.732 1332L568.268 1338.66C568.985 1339.07 570 1338.49 570 1337.66V1324.34ZM783 1329.5H568.5V1332.5H783V1329.5Z" fill="#961200" style="fill:#961200;fill:color(display-p3 0.5882 0.0706 0.0000);fill-opacity:1;"/>
<path d="M784 1651.5C784.276 1651.5 784.5 1651.28 784.5 1651C784.5 1650.72 784.276 1650.5 784 1650.5V1651.5ZM559 1648.78C559 1648.5 558.662 1648.31 558.423 1648.45L554.577 1650.67C554.338 1650.8 554.338 1651.2 554.577 1651.33L558.423 1653.55C558.662 1653.69 559 1653.5 559 1653.22V1648.78ZM784 1650.5H558.5V1651.5H784V1650.5Z" fill="#4D5157" style="fill:#4D5157;fill:color(display-p3 0.3020 0.3176 0.3412);fill-opacity:1;"/>
<path d="M212 1649.5C211.172 1649.5 210.5 1650.17 210.5 1651C210.5 1651.83 211.172 1652.5 212 1652.5V1649.5ZM452 1657.66C452 1658.49 453.015 1659.07 453.732 1658.66L465.268 1652C465.985 1651.59 465.985 1650.41 465.268 1650L453.732 1643.34C453.015 1642.93 452 1643.51 452 1644.34V1657.66ZM212 1652.5H453.5V1649.5H212V1652.5Z" fill="#FFCF72" style="fill:#FFCF72;fill:color(display-p3 1.0000 0.8118 0.4471);fill-opacity:1;"/>
<path d="M169.5 1535C169.5 1534.17 168.828 1533.5 168 1533.5C167.172 1533.5 166.5 1534.17 166.5 1535H169.5ZM161.34 1592C160.511 1592 159.926 1593.01 160.34 1593.73L167 1605.27C167.414 1605.99 168.586 1605.99 169 1605.27L175.66 1593.73C176.074 1593.01 175.489 1592 174.66 1592H161.34ZM166.5 1535V1593.5H169.5V1535H166.5Z" fill="#FFCF72" style="fill:#FFCF72;fill:color(display-p3 1.0000 0.8118 0.4471);fill-opacity:1;"/>
<path d="M827.5 1534C827.5 1533.72 827.276 1533.5 827 1533.5C826.724 1533.5 826.5 1533.72 826.5 1534H827.5ZM824.78 1603C824.504 1603 824.309 1603.34 824.447 1603.58L826.667 1607.42C826.805 1607.66 827.195 1607.66 827.333 1607.42L829.553 1603.58C829.691 1603.34 829.496 1603 829.22 1603H824.78ZM826.5 1534V1603.5H827.5V1534H826.5Z" fill="#4D5157" style="fill:#4D5157;fill:color(display-p3 0.3020 0.3176 0.3412);fill-opacity:1;"/>
<path d="M784 1491.5C784.276 1491.5 784.5 1491.28 784.5 1491C784.5 1490.72 784.276 1490.5 784 1490.5V1491.5ZM513.22 1379C513.496 1379 513.691 1378.66 513.553 1378.42L511.333 1374.58C511.195 1374.34 510.805 1374.34 510.667 1374.58L508.447 1378.42C508.309 1378.66 508.504 1379 508.78 1379H513.22ZM784 1490.5H535V1491.5H784V1490.5ZM511.5 1467V1378.5H510.5V1467H511.5ZM535 1490.5C522.021 1490.5 511.5 1479.98 511.5 1467H510.5C510.5 1480.53 521.469 1491.5 535 1491.5V1490.5Z" fill="#4D5157" style="fill:#4D5157;fill:color(display-p3 0.3020 0.3176 0.3412);fill-opacity:1;"/>
<path d="M828.5 95C828.5 94.1716 827.828 93.5 827 93.5C826.172 93.5 825.5 94.1716 825.5 95H828.5ZM820.34 152C819.511 152 818.926 153.015 819.34 153.732L826 165.268C826.414 165.985 827.586 165.985 828 165.268L834.66 153.732C835.074 153.015 834.489 152 833.66 152H820.34ZM825.5 95V153.5H828.5V95H825.5Z" fill="#961200" style="fill:#961200;fill:color(display-p3 0.5882 0.0706 0.0000);fill-opacity:1;"/>
<path d="M828.5 255C828.5 254.172 827.828 253.5 827 253.5C826.172 253.5 825.5 254.172 825.5 255H828.5ZM820.34 312C819.511 312 818.926 313.015 819.34 313.732L826 325.268C826.414 325.985 827.586 325.985 828 325.268L834.66 313.732C835.074 313.015 834.489 312 833.66 312H820.34ZM825.5 255V313.5H828.5V255H825.5Z" fill="#961200" style="fill:#961200;fill:color(display-p3 0.5882 0.0706 0.0000);fill-opacity:1;"/>
<path d="M828.5 415C828.5 414.172 827.828 413.5 827 413.5C826.172 413.5 825.5 414.172 825.5 415H828.5ZM820.34 472C819.511 472 818.926 473.015 819.34 473.732L826 485.268C826.414 485.985 827.586 485.985 828 485.268L834.66 473.732C835.074 473.015 834.489 472 833.66 472H820.34ZM825.5 415V473.5H828.5V415H825.5Z" fill="#961200" style="fill:#961200;fill:color(display-p3 0.5882 0.0706 0.0000);fill-opacity:1;"/>
<path d="M828.5 575C828.5 574.172 827.828 573.5 827 573.5C826.172 573.5 825.5 574.172 825.5 575H828.5ZM820.34 632C819.511 632 818.926 633.015 819.34 633.732L826 645.268C826.414 645.985 827.586 645.985 828 645.268L834.66 633.732C835.074 633.015 834.489 632 833.66 632H820.34ZM825.5 575V633.5H828.5V575H825.5Z" fill="#961200" style="fill:#961200;fill:color(display-p3 0.5882 0.0706 0.0000);fill-opacity:1;"/>
<path d="M828.5 735C828.5 734.172 827.828 733.5 827 733.5C826.172 733.5 825.5 734.172 825.5 735H828.5ZM820.34 792C819.511 792 818.926 793.015 819.34 793.732L826 805.268C826.414 805.985 827.586 805.985 828 805.268L834.66 793.732C835.074 793.015 834.489 792 833.66 792H820.34ZM825.5 735V793.5H828.5V735H825.5Z" fill="#961200" style="fill:#961200;fill:color(display-p3 0.5882 0.0706 0.0000);fill-opacity:1;"/>
<path d="M828.5 895C828.5 894.172 827.828 893.5 827 893.5C826.172 893.5 825.5 894.172 825.5 895H828.5ZM820.34 952C819.511 952 818.926 953.015 819.34 953.732L826 965.268C826.414 965.985 827.586 965.985 828 965.268L834.66 953.732C835.074 953.015 834.489 952 833.66 952H820.34ZM825.5 895V953.5H828.5V895H825.5Z" fill="#961200" style="fill:#961200;fill:color(display-p3 0.5882 0.0706 0.0000);fill-opacity:1;"/>
<path d="M828.5 1055C828.5 1054.17 827.828 1053.5 827 1053.5C826.172 1053.5 825.5 1054.17 825.5 1055H828.5ZM820.34 1112C819.511 1112 818.926 1113.01 819.34 1113.73L826 1125.27C826.414 1125.99 827.586 1125.99 828 1125.27L834.66 1113.73C835.074 1113.01 834.489 1112 833.66 1112H820.34ZM825.5 1055V1113.5H828.5V1055H825.5Z" fill="#961200" style="fill:#961200;fill:color(display-p3 0.5882 0.0706 0.0000);fill-opacity:1;"/>
<path d="M828.5 1215C828.5 1214.17 827.828 1213.5 827 1213.5C826.172 1213.5 825.5 1214.17 825.5 1215H828.5ZM820.34 1272C819.511 1272 818.926 1273.01 819.34 1273.73L826 1285.27C826.414 1285.99 827.586 1285.99 828 1285.27L834.66 1273.73C835.074 1273.01 834.489 1272 833.66 1272H820.34ZM825.5 1215V1273.5H828.5V1215H825.5Z" fill="#961200" style="fill:#961200;fill:color(display-p3 0.5882 0.0706 0.0000);fill-opacity:1;"/>
<path d="M827.5 1374C827.5 1373.72 827.276 1373.5 827 1373.5C826.724 1373.5 826.5 1373.72 826.5 1374H827.5ZM824.78 1443C824.504 1443 824.309 1443.34 824.447 1443.58L826.667 1447.42C826.805 1447.66 827.195 1447.66 827.333 1447.42L829.553 1443.58C829.691 1443.34 829.496 1443 829.22 1443H824.78ZM826.5 1374V1443.5H827.5V1374H826.5Z" fill="#4D5157" style="fill:#4D5157;fill:color(display-p3 0.3020 0.3176 0.3412);fill-opacity:1;"/>
<path d="M40.5 571C40.5 570.724 40.2761 570.5 40 570.5C39.7239 570.5 39.5 570.724 39.5 571H40.5ZM37.7799 963C37.5038 963 37.3085 963.338 37.4466 963.577L39.6667 967.423C39.8047 967.662 40.1953 967.662 40.3333 967.423L42.5534 963.577C42.6915 963.338 42.4962 963 42.2201 963H37.7799ZM39.5 571V963.5H40.5V571H39.5Z" fill="#4D5157" style="fill:#4D5157;fill:color(display-p3 0.3020 0.3176 0.3412);fill-opacity:1;"/>
<path d="M169.5 572C169.5 571.172 168.828 570.5 168 570.5C167.172 570.5 166.5 571.172 166.5 572H169.5ZM161.34 952C160.511 952 159.926 953.015 160.34 953.732L167 965.268C167.414 965.985 168.586 965.985 169 965.268L175.66 953.732C176.074 953.015 175.489 952 174.66 952H161.34ZM166.5 572V953.5H169.5V572H166.5Z" fill="#90CB62" style="fill:#90CB62;fill:color(display-p3 0.5647 0.7961 0.3843);fill-opacity:1;"/>
<path d="M296.5 571C296.5 570.724 296.276 570.5 296 570.5C295.724 570.5 295.5 570.724 295.5 571H296.5ZM293.78 963C293.504 963 293.309 963.338 293.447 963.577L295.667 967.423C295.805 967.662 296.195 967.662 296.333 967.423L298.553 963.577C298.691 963.338 298.496 963 298.22 963H293.78ZM295.5 571V963.5H296.5V571H295.5Z" fill="#4D5157" style="fill:#4D5157;fill:color(display-p3 0.3020 0.3176 0.3412);fill-opacity:1;"/>
<path d="M295.5 485C295.5 485.276 295.724 485.5 296 485.5C296.276 485.5 296.5 485.276 296.5 485H295.5ZM463 213.22C463 213.496 463.338 213.691 463.577 213.553L467.423 211.333C467.662 211.195 467.662 210.805 467.423 210.667L463.577 208.447C463.338 208.309 463 208.504 463 208.78V213.22ZM296.5 485V235H295.5V485H296.5ZM320 211.5H463.5V210.5H320V211.5ZM296.5 235C296.5 222.021 307.021 211.5 320 211.5V210.5C306.469 210.5 295.5 221.469 295.5 235H296.5Z" fill="#4D5157" style="fill:#4D5157;fill:color(display-p3 0.3020 0.3176 0.3412);fill-opacity:1;"/>
<path d="M39.5 485C39.5 485.276 39.7239 485.5 40 485.5C40.2761 485.5 40.5 485.276 40.5 485H39.5ZM463 213.22C463 213.496 463.338 213.691 463.577 213.553L467.423 211.333C467.662 211.195 467.662 210.805 467.423 210.667L463.577 208.447C463.338 208.309 463 208.504 463 208.78V213.22ZM40.5 485V235H39.5V485H40.5ZM64 211.5H463.5V210.5H64V211.5ZM40.5 235C40.5 222.021 51.0213 211.5 64 211.5V210.5C50.469 210.5 39.5 221.469 39.5 235H40.5Z" fill="#4D5157" style="fill:#4D5157;fill:color(display-p3 0.3020 0.3176 0.3412);fill-opacity:1;"/>
<path d="M296.5 1054C296.5 1053.72 296.276 1053.5 296 1053.5C295.724 1053.5 295.5 1053.72 295.5 1054H296.5ZM463 1333.22C463 1333.5 463.338 1333.69 463.577 1333.55L467.423 1331.33C467.662 1331.2 467.662 1330.8 467.423 1330.67L463.577 1328.45C463.338 1328.31 463 1328.5 463 1328.78V1333.22ZM295.5 1054V1307H296.5V1054H295.5ZM320 1331.5H463.5V1330.5H320V1331.5ZM295.5 1307C295.5 1320.53 306.469 1331.5 320 1331.5V1330.5C307.021 1330.5 296.5 1319.98 296.5 1307H295.5Z" fill="#4D5157" style="fill:#4D5157;fill:color(display-p3 0.3020 0.3176 0.3412);fill-opacity:1;"/>
<path d="M40.5 1054C40.5 1053.72 40.2761 1053.5 40 1053.5C39.7239 1053.5 39.5 1053.72 39.5 1054H40.5ZM463 1333.22C463 1333.5 463.338 1333.69 463.577 1333.55L467.423 1331.33C467.662 1331.2 467.662 1330.8 467.423 1330.67L463.577 1328.45C463.338 1328.31 463 1328.5 463 1328.78V1333.22ZM39.5 1054V1307H40.5V1054H39.5ZM64 1331.5H463.5V1330.5H64V1331.5ZM39.5 1307C39.5 1320.53 50.469 1331.5 64 1331.5V1330.5C51.0213 1330.5 40.5 1319.98 40.5 1307H39.5Z" fill="#4D5157" style="fill:#4D5157;fill:color(display-p3 0.3020 0.3176 0.3412);fill-opacity:1;"/>
<path d="M166.5 484C166.5 484.828 167.172 485.5 168 485.5C168.828 485.5 169.5 484.828 169.5 484H166.5ZM452 217.66C452 218.489 453.015 219.074 453.732 218.66L465.268 212C465.985 211.586 465.985 210.414 465.268 210L453.732 203.34C453.015 202.926 452 203.511 452 204.34V217.66ZM169.5 484V235H166.5V484H169.5ZM192 212.5H453.5V209.5H192V212.5ZM169.5 235C169.5 222.574 179.574 212.5 192 212.5V209.5C177.917 209.5 166.5 220.917 166.5 235H169.5Z" fill="#90CB62" style="fill:#90CB62;fill:color(display-p3 0.5647 0.7961 0.3843);fill-opacity:1;"/>
<path d="M169.5 1055C169.5 1054.17 168.828 1053.5 168 1053.5C167.172 1053.5 166.5 1054.17 166.5 1055H169.5ZM452 1337.66C452 1338.49 453.015 1339.07 453.732 1338.66L465.268 1332C465.985 1331.59 465.985 1330.41 465.268 1330L453.732 1323.34C453.015 1322.93 452 1323.51 452 1324.34V1337.66ZM166.5 1055V1307H169.5V1055H166.5ZM192 1332.5H453.5V1329.5H192V1332.5ZM166.5 1307C166.5 1321.08 177.917 1332.5 192 1332.5V1329.5C179.574 1329.5 169.5 1319.43 169.5 1307H166.5Z" fill="#90CB62" style="fill:#90CB62;fill:color(display-p3 0.5647 0.7961 0.3843);fill-opacity:1;"/>
<path d="M212 1489.5C211.172 1489.5 210.5 1490.17 210.5 1491C210.5 1491.83 211.172 1492.5 212 1492.5V1489.5ZM517.66 1390C518.489 1390 519.074 1388.99 518.66 1388.27L512 1376.73C511.586 1376.01 510.414 1376.01 510 1376.73L503.34 1388.27C502.926 1388.99 503.511 1390 504.34 1390H517.66ZM212 1492.5H487V1489.5H212V1492.5ZM512.5 1467V1388.5H509.5V1467H512.5ZM487 1492.5C501.083 1492.5 512.5 1481.08 512.5 1467H509.5C509.5 1479.43 499.426 1489.5 487 1489.5V1492.5Z" fill="#FFCF72" style="fill:#FFCF72;fill:color(display-p3 1.0000 0.8118 0.4471);fill-opacity:1;"/>
<defs>
<filter id="filter0_d_568_1708" x="456" y="1600" width="110" height="110" filterUnits="userSpaceOnUse" color-interpolation-filters="sRGB">
<feFlood flood-opacity="0" result="BackgroundImageFix"/>
<feColorMatrix in="SourceAlpha" type="matrix" values="0 0 0 0 0 0 0 0 0 0 0 0 0 0 0 0 0 0 127 0" result="hardAlpha"/>
<feOffset dy="4"/>
<feGaussianBlur stdDeviation="4"/>
<feComposite in2="hardAlpha" operator="out"/>
<feColorMatrix type="matrix" values="0 0 0 0 0.101961 0 0 0 0 0.105882 0 0 0 0 0.113725 0 0 0 0.12 0"/>
<feBlend mode="normal" in2="BackgroundImageFix" result="effect1_dropShadow_568_1708"/>
<feBlend mode="normal" in="SourceGraphic" in2="effect1_dropShadow_568_1708" result="shape"/>
</filter>
<filter id="filter1_d_568_1708" x="456" y="0" width="110" height="110" filterUnits="userSpaceOnUse" color-interpolation-filters="sRGB">
<feFlood flood-opacity="0" result="BackgroundImageFix"/>
<feColorMatrix in="SourceAlpha" type="matrix" values="0 0 0 0 0 0 0 0 0 0 0 0 0 0 0 0 0 0 127 0" result="hardAlpha"/>
<feOffset dy="4"/>
<feGaussianBlur stdDeviation="4"/>
<feComposite in2="hardAlpha" operator="out"/>
<feColorMatrix type="matrix" values="0 0 0 0 0.101961 0 0 0 0 0.105882 0 0 0 0 0.113725 0 0 0 0.12 0"/>
<feBlend mode="normal" in2="BackgroundImageFix" result="effect1_dropShadow_568_1708"/>
<feBlend mode="normal" in="SourceGraphic" in2="effect1_dropShadow_568_1708" result="shape"/>
</filter>
</defs>
</svg>
