<svg width="1202" height="959" viewBox="0 0 1202 959" fill="none" xmlns="http://www.w3.org/2000/svg">
<path d="M1120 101C1120 78.3563 1138.36 60 1161 60C1183.64 60 1202 78.3563 1202 101C1202 123.644 1183.64 142 1161 142C1138.36 142 1120 123.644 1120 101Z" fill="#5E636A"/>
<path d="M949 918C949 895.356 967.356 877 990 877C1012.64 877 1031 895.356 1031 918C1031 940.644 1012.64 959 990 959C967.356 959 949 940.644 949 918Z" fill="#CFD1D4"/>
<path d="M563 170C563 147.356 581.356 129 604 129C626.644 129 645 147.356 645 170C645 192.644 626.644 211 604 211C581.356 211 563 192.644 563 170Z" fill="#CFD1D4"/>
<path d="M329 41C329 18.3563 347.356 0 370 0C392.644 0 411 18.3563 411 41C411 63.6437 392.644 82 370 82C347.356 82 329 63.6437 329 41Z" fill="#CFD1D4"/>
<path d="M949 521C949 498.356 967.356 480 990 480C1012.64 480 1031 498.356 1031 521C1031 543.644 1012.64 562 990 562C967.356 562 949 543.644 949 521Z" fill="#CFD1D4"/>
<path d="M825 717C825 694.356 843.356 676 866 676C888.644 676 907 694.356 907 717C907 739.644 888.644 758 866 758C843.356 758 825 739.644 825 717Z" fill="#CFD1D4"/>
<path d="M0 300C0 277.356 18.3563 259 41 259C63.6437 259 82 277.356 82 300C82 322.644 63.6437 341 41 341C18.3563 341 0 322.644 0 300Z" fill="#CFD1D4"/>
<path d="M1114.54 106.755L650.458 164.245" stroke="#5A34AA" stroke-width="6" stroke-linecap="round" stroke-linejoin="bevel"/>
<path d="M687 439C687 416.356 705.356 398 728 398C750.644 398 769 416.356 769 439C769 461.644 750.644 480 728 480C705.356 480 687 461.644 687 439Z" fill="#CFD1D4"/>
<path d="M1115.66 136.389L773.335 403.611" stroke="#961200" stroke-width="6" stroke-linecap="round" stroke-linejoin="bevel"/>
<path d="M945.66 507.122L772.34 452.877" stroke="#1A1B1D" stroke-width="2" stroke-linecap="round" stroke-linejoin="bevel"/>
<path d="M961.819 872.319L894.181 762.681" stroke="#EC9C00" stroke-width="6" stroke-linecap="round" stroke-linejoin="bevel"/>
<path d="M843.202 671.073L750.798 484.926" stroke="#961200" stroke-width="6" stroke-linecap="round" stroke-linejoin="bevel"/>
<path d="M370 398C370 375.356 388.356 357 411 357C433.644 357 452 375.356 452 398C452 420.644 433.644 439 411 439C388.356 439 370 420.644 370 398Z" fill="#6F757E"/>
<path d="M810.772 703.441L445.562 449.575" stroke="#961200" stroke-width="6" stroke-linecap="round" stroke-linejoin="bevel"/>
<path d="M820.497 685.098L456.503 429.902" stroke="#EC9C00" stroke-width="6" stroke-linecap="round" stroke-linejoin="bevel"/>
<path d="M559.935 145.708L414.065 65.2922" stroke="#1A1B1D" stroke-width="2" stroke-linecap="round" stroke-linejoin="bevel"/>
<path d="M557.641 180.705L87.3589 289.295" stroke="#5A34AA" stroke-width="6" stroke-linecap="round" stroke-linejoin="bevel"/>
<path d="M87.3169 312.268L364.684 385.732" stroke="#5A34AA" stroke-width="6" stroke-linecap="round" stroke-linejoin="bevel"/>
<path d="M567.032 213.671L447.967 354.329" stroke="#1A1B1D" stroke-width="2" stroke-linecap="round" stroke-linejoin="bevel"/>
<path d="M455.471 403.752L683.529 433.248" stroke="#1A1B1D" stroke-width="2" stroke-linecap="round" stroke-linejoin="bevel"/>
<path d="M1151.29 147.383L999.708 871.617" stroke="#EC9C00" stroke-width="6" stroke-linecap="round" stroke-linejoin="bevel"/>
</svg>
