<svg width="825" height="519" viewBox="0 0 825 519" fill="none" xmlns="http://www.w3.org/2000/svg">
<path d="M0 260C0 224.654 28.6538 196 64 196C99.3462 196 128 224.654 128 260C128 295.346 99.3462 324 64 324C28.6538 324 0 295.346 0 260Z" fill="#FFDF81"/>
<path d="M58.1804 257V249.762H59.4334V250.812C59.55 250.611 59.711 250.422 59.9164 250.245C60.1264 250.068 60.3784 249.925 60.6724 249.818C60.971 249.711 61.314 249.657 61.7014 249.657C62.1587 249.657 62.5787 249.748 62.9614 249.93C63.3487 250.112 63.6567 250.397 63.8854 250.784C64.1187 251.167 64.2354 251.661 64.2354 252.268V257H62.9404V252.394C62.9404 251.829 62.791 251.412 62.4924 251.141C62.1984 250.866 61.8157 250.728 61.3444 250.728C61.0177 250.728 60.712 250.782 60.4274 250.889C60.1427 250.992 59.9117 251.15 59.7344 251.365C59.557 251.575 59.4684 251.841 59.4684 252.163V257H58.1804ZM67.7935 257V248.943H65.8405V248.096C66.4471 248.096 66.9185 248.052 67.2545 247.963C67.5905 247.874 67.8285 247.739 67.9685 247.557C68.1131 247.375 68.1925 247.149 68.2065 246.878H69.1305V257H67.7935ZM59.6113 273L63.2723 262.878H64.7353L68.3963 273H67.0733L66.0793 270.228H61.9283L60.9273 273H59.6113ZM62.2713 269.038H65.7223L64.0003 264.145L62.2713 269.038Z" fill="#1A1B1D"/>
<path d="M660 100C660 64.6538 688.654 36 724 36C759.346 36 788 64.6538 788 100C788 135.346 759.346 164 724 164C688.654 164 660 135.346 660 100Z" fill="#FFDF81"/>
<path d="M716.629 97V89.762H717.882V90.812C717.998 90.6113 718.159 90.4223 718.365 90.245C718.575 90.0677 718.827 89.9253 719.121 89.818C719.419 89.7107 719.762 89.657 720.15 89.657C720.607 89.657 721.027 89.748 721.41 89.93C721.797 90.112 722.105 90.3967 722.334 90.784C722.567 91.1667 722.684 91.6613 722.684 92.268V97H721.389V92.394C721.389 91.8293 721.239 91.4117 720.941 91.141C720.647 90.8657 720.264 90.728 719.793 90.728C719.466 90.728 719.16 90.7817 718.876 90.889C718.591 90.9917 718.36 91.1503 718.183 91.365C718.005 91.575 717.917 91.841 717.917 92.163V97H716.629ZM729.056 97V94.417H724.289V93.234L729.007 86.878H730.323V93.276H732.003V94.417H730.323V97H729.056ZM725.528 93.276H729.028V88.579L725.528 93.276ZM719.611 113L723.272 102.878H724.735L728.396 113H727.073L726.079 110.228H721.928L720.927 113H719.611ZM722.271 109.038H725.722L724 104.145L722.271 109.038Z" fill="#1A1B1D"/>
<path d="M660 260C660 224.654 688.654 196 724 196C759.346 196 788 224.654 788 260C788 295.346 759.346 324 724 324C688.654 324 660 295.346 660 260Z" fill="#C990C0"/>
<path d="M716.547 257V249.762H717.8V250.812C717.916 250.611 718.077 250.422 718.283 250.245C718.493 250.068 718.745 249.925 719.039 249.818C719.337 249.711 719.68 249.657 720.068 249.657C720.525 249.657 720.945 249.748 721.328 249.93C721.715 250.112 722.023 250.397 722.252 250.784C722.485 251.167 722.602 251.661 722.602 252.268V257H721.307V252.394C721.307 251.829 721.157 251.412 720.859 251.141C720.565 250.866 720.182 250.728 719.711 250.728C719.384 250.728 719.078 250.782 718.794 250.889C718.509 250.992 718.278 251.15 718.101 251.365C717.923 251.575 717.835 251.841 717.835 252.163V257H716.547ZM728.169 257.154C727.543 257.154 726.965 257.044 726.433 256.825C725.901 256.606 725.443 256.3 725.061 255.908C724.683 255.516 724.405 255.066 724.228 254.557L725.348 254.088C725.516 254.471 725.726 254.811 725.978 255.11C726.234 255.409 726.538 255.642 726.888 255.81C727.238 255.978 727.634 256.062 728.078 256.062C728.796 256.062 729.373 255.854 729.807 255.439C730.245 255.019 730.465 254.45 730.465 253.731C730.465 253.283 730.362 252.893 730.157 252.562C729.951 252.226 729.674 251.965 729.324 251.778C728.978 251.591 728.596 251.498 728.176 251.498C727.9 251.498 727.644 251.524 727.406 251.575C727.168 251.622 726.932 251.715 726.699 251.855C726.465 251.995 726.22 252.207 725.964 252.492C725.936 252.506 725.915 252.513 725.901 252.513C725.887 252.508 725.863 252.499 725.831 252.485L724.739 252.142L725.194 246.878H731.235L731.2 247.998H726.3L726.041 251.267C726.377 250.954 726.743 250.733 727.14 250.602C727.541 250.467 727.975 250.399 728.442 250.399C729.053 250.399 729.615 250.525 730.129 250.777C730.647 251.024 731.062 251.393 731.375 251.883C731.687 252.368 731.844 252.97 731.844 253.689C731.844 254.389 731.692 254.998 731.389 255.516C731.085 256.034 730.658 256.438 730.108 256.727C729.557 257.012 728.911 257.154 728.169 257.154ZM720.641 273V262.878H723.896C725.128 262.878 726.059 263.104 726.689 263.557C727.323 264.01 727.641 264.663 727.641 265.517C727.641 266.054 727.501 266.513 727.221 266.896C726.945 267.279 726.46 267.594 725.765 267.841C726.161 267.925 726.495 268.046 726.766 268.205C727.041 268.364 727.26 268.55 727.424 268.765C727.592 268.975 727.711 269.208 727.781 269.465C727.855 269.722 727.893 269.992 727.893 270.277C727.893 271.192 727.566 271.875 726.913 272.328C726.264 272.776 725.293 273 724.001 273H720.641ZM721.936 271.922H723.987C724.831 271.922 725.473 271.784 725.912 271.509C726.355 271.229 726.577 270.8 726.577 270.221C726.577 269.796 726.467 269.453 726.248 269.192C726.033 268.926 725.741 268.732 725.373 268.611C725.004 268.49 724.593 268.429 724.141 268.429H721.936V271.922ZM721.936 267.33H724.141C724.407 267.33 724.67 267.304 724.932 267.253C725.193 267.202 725.433 267.113 725.653 266.987C725.872 266.861 726.049 266.693 726.185 266.483C726.32 266.268 726.388 266 726.388 265.678C726.388 265.09 726.161 264.656 725.709 264.376C725.261 264.091 724.677 263.949 723.959 263.949H721.936V267.33Z" fill="white"/>
<path d="M660 420C660 384.654 688.654 356 724 356C759.346 356 788 384.654 788 420C788 455.346 759.346 484 724 484C688.654 484 660 455.346 660 420Z" fill="#C990C0"/>
<path d="M716.676 417V409.762H717.929V410.812C718.046 410.611 718.207 410.422 718.412 410.245C718.622 410.068 718.874 409.925 719.168 409.818C719.467 409.711 719.81 409.657 720.197 409.657C720.655 409.657 721.075 409.748 721.457 409.93C721.845 410.112 722.153 410.397 722.381 410.784C722.615 411.167 722.731 411.661 722.731 412.268V417H721.436V412.394C721.436 411.829 721.287 411.412 720.988 411.141C720.694 410.866 720.312 410.728 719.84 410.728C719.514 410.728 719.208 410.782 718.923 410.889C718.639 410.992 718.408 411.15 718.23 411.365C718.053 411.575 717.964 411.841 717.964 412.163V417H716.676ZM728.208 417.154C727.424 417.154 726.742 416.951 726.164 416.545C725.59 416.139 725.144 415.56 724.827 414.809C724.514 414.053 724.358 413.148 724.358 412.093C724.358 411.01 724.509 410.068 724.813 409.265C725.121 408.462 725.569 407.842 726.157 407.403C726.745 406.96 727.466 406.738 728.32 406.738C728.88 406.738 729.395 406.843 729.867 407.053C730.343 407.263 730.737 407.564 731.05 407.956C731.362 408.348 731.556 408.822 731.631 409.377H730.413C730.277 408.896 730.032 408.516 729.678 408.236C729.323 407.956 728.877 407.816 728.341 407.816C727.743 407.816 727.244 407.986 726.843 408.327C726.446 408.663 726.157 409.158 725.975 409.811C725.793 410.46 725.73 411.258 725.786 412.205C725.912 411.864 726.103 411.566 726.36 411.309C726.621 411.048 726.924 410.847 727.27 410.707C727.615 410.562 727.988 410.49 728.39 410.49C729.057 410.49 729.64 410.621 730.14 410.882C730.639 411.139 731.029 411.507 731.309 411.988C731.589 412.464 731.729 413.033 731.729 413.696C731.729 414.373 731.584 414.972 731.295 415.495C731.01 416.013 730.604 416.419 730.077 416.713C729.549 417.007 728.926 417.154 728.208 417.154ZM728.194 416.083C728.609 416.083 728.978 415.985 729.3 415.789C729.622 415.593 729.874 415.32 730.056 414.97C730.242 414.62 730.336 414.216 730.336 413.759C730.336 413.297 730.252 412.9 730.084 412.569C729.92 412.238 729.678 411.983 729.356 411.806C729.034 411.629 728.642 411.54 728.18 411.54C727.811 411.54 727.456 411.629 727.116 411.806C726.78 411.979 726.504 412.207 726.29 412.492C726.08 412.777 725.975 413.092 725.975 413.437C725.97 413.95 726.059 414.408 726.241 414.809C726.427 415.206 726.689 415.518 727.025 415.747C727.361 415.971 727.75 416.083 728.194 416.083ZM720.641 433V422.878H723.896C725.128 422.878 726.059 423.104 726.689 423.557C727.323 424.01 727.641 424.663 727.641 425.517C727.641 426.054 727.501 426.513 727.221 426.896C726.945 427.279 726.46 427.594 725.765 427.841C726.161 427.925 726.495 428.046 726.766 428.205C727.041 428.364 727.26 428.55 727.424 428.765C727.592 428.975 727.711 429.208 727.781 429.465C727.855 429.722 727.893 429.992 727.893 430.277C727.893 431.192 727.566 431.875 726.913 432.328C726.264 432.776 725.293 433 724.001 433H720.641ZM721.936 431.922H723.987C724.831 431.922 725.473 431.784 725.912 431.509C726.355 431.229 726.577 430.8 726.577 430.221C726.577 429.796 726.467 429.453 726.248 429.192C726.033 428.926 725.741 428.732 725.373 428.611C725.004 428.49 724.593 428.429 724.141 428.429H721.936V431.922ZM721.936 427.33H724.141C724.407 427.33 724.67 427.304 724.932 427.253C725.193 427.202 725.433 427.113 725.653 426.987C725.872 426.861 726.049 426.693 726.185 426.483C726.32 426.268 726.388 426 726.388 425.678C726.388 425.09 726.161 424.656 725.709 424.376C725.261 424.091 724.677 423.949 723.959 423.949H721.936V427.33Z" fill="white"/>
<path d="M440 260C440 224.654 468.654 196 504 196C539.346 196 568 224.654 568 260C568 295.346 539.346 324 504 324C468.654 324 440 295.346 440 260Z" fill="#F79767"/>
<path d="M220 260C220 224.654 248.654 196 284 196C319.346 196 348 224.654 348 260C348 295.346 319.346 324 284 324C248.654 324 220 295.346 220 260Z" fill="#F79767"/>
<path d="M276.861 249V241.762H278.114V242.812C278.231 242.611 278.392 242.422 278.597 242.245C278.807 242.068 279.059 241.925 279.353 241.818C279.652 241.711 279.995 241.657 280.382 241.657C280.839 241.657 281.259 241.748 281.642 241.93C282.029 242.112 282.337 242.397 282.566 242.784C282.799 243.167 282.916 243.661 282.916 244.268V249H281.621V244.394C281.621 243.829 281.472 243.412 281.173 243.141C280.879 242.866 280.496 242.728 280.025 242.728C279.698 242.728 279.393 242.782 279.108 242.889C278.823 242.992 278.592 243.15 278.415 243.365C278.238 243.575 278.149 243.841 278.149 244.163V249H276.861ZM284.738 249V248.209V247.796C284.738 247.278 284.834 246.83 285.025 246.452C285.221 246.074 285.478 245.745 285.795 245.465C286.117 245.18 286.467 244.926 286.845 244.702C287.228 244.478 287.608 244.263 287.986 244.058C288.369 243.848 288.719 243.631 289.036 243.407C289.353 243.178 289.608 242.922 289.799 242.637C289.995 242.348 290.093 242.007 290.093 241.615C290.093 241.102 289.911 240.684 289.547 240.362C289.188 240.04 288.7 239.879 288.084 239.879C287.421 239.879 286.889 240.066 286.488 240.439C286.087 240.812 285.86 241.309 285.809 241.93H284.521C284.535 241.347 284.68 240.815 284.955 240.334C285.23 239.849 285.634 239.461 286.166 239.172C286.698 238.883 287.354 238.738 288.133 238.738C288.81 238.738 289.398 238.859 289.897 239.102C290.396 239.34 290.781 239.676 291.052 240.11C291.327 240.539 291.465 241.041 291.465 241.615C291.465 242.138 291.369 242.586 291.178 242.959C290.987 243.332 290.732 243.657 290.415 243.932C290.102 244.203 289.759 244.445 289.386 244.66C289.013 244.875 288.637 245.082 288.259 245.283C287.881 245.479 287.536 245.687 287.223 245.906C286.91 246.121 286.658 246.368 286.467 246.648C286.276 246.928 286.18 247.262 286.18 247.649V247.852H291.521V249H284.738ZM279.611 265L283.272 254.878H284.735L288.396 265H287.073L286.079 262.228H281.928L280.927 265H279.611ZM282.271 261.038H285.722L284 256.145L282.271 261.038ZM280.641 281V270.878H283.896C285.128 270.878 286.059 271.104 286.689 271.557C287.323 272.01 287.641 272.663 287.641 273.517C287.641 274.054 287.501 274.513 287.221 274.896C286.945 275.279 286.46 275.594 285.765 275.841C286.161 275.925 286.495 276.046 286.766 276.205C287.041 276.364 287.26 276.55 287.424 276.765C287.592 276.975 287.711 277.208 287.781 277.465C287.855 277.722 287.893 277.992 287.893 278.277C287.893 279.192 287.566 279.875 286.913 280.328C286.264 280.776 285.293 281 284.001 281H280.641ZM281.936 279.922H283.987C284.831 279.922 285.473 279.784 285.912 279.509C286.355 279.229 286.577 278.8 286.577 278.221C286.577 277.796 286.467 277.453 286.248 277.192C286.033 276.926 285.741 276.732 285.373 276.611C285.004 276.49 284.593 276.429 284.141 276.429H281.936V279.922ZM281.936 275.33H284.141C284.407 275.33 284.67 275.304 284.932 275.253C285.193 275.202 285.433 275.113 285.653 274.987C285.872 274.861 286.049 274.693 286.185 274.483C286.32 274.268 286.388 274 286.388 273.678C286.388 273.09 286.161 272.656 285.709 272.376C285.261 272.091 284.677 271.949 283.959 271.949H281.936V275.33Z" fill="white"/>
<path d="M131.5 259C130.948 259 130.5 259.448 130.5 260C130.5 260.552 130.948 261 131.5 261V259ZM161 261C161.552 261 162 260.552 162 260C162 259.448 161.552 259 161 259V261ZM187 259C186.448 259 186 259.448 186 260C186 260.552 186.448 261 187 261V259ZM217.207 260.707C217.598 260.317 217.598 259.683 217.207 259.293L210.843 252.929C210.453 252.538 209.819 252.538 209.429 252.929C209.038 253.319 209.038 253.953 209.429 254.343L215.086 260L209.429 265.657C209.038 266.047 209.038 266.681 209.429 267.071C209.819 267.462 210.453 267.462 210.843 267.071L217.207 260.707ZM131.5 260V261H161V260V259H131.5V260ZM187 260V261H216.5V260V259H187V260Z" fill="#4D5157"/>
<path d="M170.122 266V254.364H174.27C175.171 254.364 175.92 254.519 176.514 254.83C177.113 255.14 177.56 255.57 177.855 256.119C178.151 256.665 178.298 257.295 178.298 258.011C178.298 258.723 178.149 259.35 177.849 259.892C177.554 260.43 177.107 260.848 176.509 261.148C175.914 261.447 175.166 261.597 174.264 261.597H171.122V260.085H174.105C174.673 260.085 175.135 260.004 175.491 259.841C175.851 259.678 176.115 259.441 176.281 259.131C176.448 258.82 176.531 258.447 176.531 258.011C176.531 257.572 176.446 257.191 176.276 256.869C176.109 256.547 175.846 256.301 175.486 256.131C175.13 255.956 174.662 255.869 174.082 255.869H171.878V266H170.122ZM175.866 260.75L178.741 266H176.741L173.923 260.75H175.866Z" fill="black" fill-opacity="0.8"/>
<path d="M351.5 259C350.948 259 350.5 259.448 350.5 260C350.5 260.552 350.948 261 351.5 261V259ZM381 261C381.552 261 382 260.552 382 260C382 259.448 381.552 259 381 259V261ZM407 259C406.448 259 406 259.448 406 260C406 260.552 406.448 261 407 261V259ZM437.207 260.707C437.598 260.317 437.598 259.683 437.207 259.293L430.843 252.929C430.453 252.538 429.819 252.538 429.429 252.929C429.038 253.319 429.038 253.953 429.429 254.343L435.086 260L429.429 265.657C429.038 266.047 429.038 266.681 429.429 267.071C429.819 267.462 430.453 267.462 430.843 267.071L437.207 260.707ZM351.5 260V261H381V260V259H351.5V260ZM407 260V261H436.5V260V259H407V260Z" fill="#4D5157"/>
<path d="M390.122 266V254.364H394.27C395.171 254.364 395.92 254.519 396.514 254.83C397.113 255.14 397.56 255.57 397.855 256.119C398.151 256.665 398.298 257.295 398.298 258.011C398.298 258.723 398.149 259.35 397.849 259.892C397.554 260.43 397.107 260.848 396.509 261.148C395.914 261.447 395.166 261.597 394.264 261.597H391.122V260.085H394.105C394.673 260.085 395.135 260.004 395.491 259.841C395.851 259.678 396.115 259.441 396.281 259.131C396.448 258.82 396.531 258.447 396.531 258.011C396.531 257.572 396.446 257.191 396.276 256.869C396.109 256.547 395.846 256.301 395.486 256.131C395.13 255.956 394.662 255.869 394.082 255.869H391.878V266H390.122ZM395.866 260.75L398.741 266H396.741L393.923 260.75H395.866Z" fill="black" fill-opacity="0.8"/>
<path d="M570.242 210.587C569.796 210.912 569.697 211.538 570.022 211.984C570.347 212.431 570.972 212.53 571.419 212.205L570.242 210.587ZM587.187 199.5L587.776 200.309L587.187 199.5ZM601.588 190.263C602.035 189.939 602.134 189.313 601.809 188.866C601.484 188.42 600.858 188.321 600.412 188.646L601.588 190.263ZM626.412 169.737C625.965 170.062 625.866 170.687 626.191 171.134C626.516 171.58 627.142 171.679 627.588 171.354L626.412 169.737ZM640.812 160.5L640.224 159.691L640.812 160.5ZM658.157 148.76C658.243 148.215 657.871 147.702 657.325 147.616L648.436 146.213C647.89 146.127 647.378 146.499 647.292 147.044C647.206 147.59 647.578 148.102 648.124 148.188L656.026 149.436L654.778 157.338C654.692 157.884 655.064 158.396 655.61 158.482C656.155 158.568 656.667 158.195 656.754 157.65L658.157 148.76ZM570.831 211.396L571.419 212.205L587.776 200.309L587.187 199.5L586.599 198.691L570.242 210.587L570.831 211.396ZM587.187 199.5L587.776 200.309L601.588 190.263L601 189.455L600.412 188.646L586.599 198.691L587.187 199.5ZM627 170.546L627.588 171.354L641.401 161.309L640.812 160.5L640.224 159.691L626.412 169.737L627 170.546ZM640.812 160.5L641.401 161.309L657.758 149.413L657.169 148.604L656.581 147.795L640.224 159.691L640.812 160.5Z" fill="#4D5157"/>
<path d="M610.122 186V174.364H614.27C615.171 174.364 615.92 174.519 616.514 174.83C617.113 175.14 617.56 175.57 617.855 176.119C618.151 176.665 618.298 177.295 618.298 178.011C618.298 178.723 618.149 179.35 617.849 179.892C617.554 180.43 617.107 180.848 616.509 181.148C615.914 181.447 615.166 181.597 614.264 181.597H611.122V180.085H614.105C614.673 180.085 615.135 180.004 615.491 179.841C615.851 179.678 616.115 179.441 616.281 179.131C616.448 178.82 616.531 178.447 616.531 178.011C616.531 177.572 616.446 177.191 616.276 176.869C616.109 176.547 615.846 176.301 615.486 176.131C615.13 175.956 614.662 175.869 614.082 175.869H611.878V186H610.122ZM615.866 180.75L618.741 186H616.741L613.923 180.75H615.866Z" fill="black" fill-opacity="0.8"/>
<path d="M571.5 259C570.948 259 570.5 259.448 570.5 260C570.5 260.552 570.948 261 571.5 261V259ZM601 261C601.552 261 602 260.552 602 260C602 259.448 601.552 259 601 259V261ZM627 259C626.448 259 626 259.448 626 260C626 260.552 626.448 261 627 261V259ZM657.207 260.707C657.598 260.317 657.598 259.683 657.207 259.293L650.843 252.929C650.453 252.538 649.819 252.538 649.429 252.929C649.038 253.319 649.038 253.953 649.429 254.343L655.086 260L649.429 265.657C649.038 266.047 649.038 266.681 649.429 267.071C649.819 267.462 650.453 267.462 650.843 267.071L657.207 260.707ZM571.5 260V261H601V260V259H571.5V260ZM627 260V261H656.5V260V259H627V260Z" fill="#4D5157"/>
<path d="M610.122 266V254.364H614.27C615.171 254.364 615.92 254.519 616.514 254.83C617.113 255.14 617.56 255.57 617.855 256.119C618.151 256.665 618.298 257.295 618.298 258.011C618.298 258.723 618.149 259.35 617.849 259.892C617.554 260.43 617.107 260.848 616.509 261.148C615.914 261.447 615.166 261.597 614.264 261.597H611.122V260.085H614.105C614.673 260.085 615.135 260.004 615.491 259.841C615.851 259.678 616.115 259.441 616.281 259.131C616.448 258.82 616.531 258.447 616.531 258.011C616.531 257.572 616.446 257.191 616.276 256.869C616.109 256.547 615.846 256.301 615.486 256.131C615.13 255.956 614.662 255.869 614.082 255.869H611.878V266H610.122ZM615.866 260.75L618.741 266H616.741L613.923 260.75H615.866Z" fill="black" fill-opacity="0.8"/>
<path d="M54.0959 353V342.598H55.7759V346.812C55.8925 346.63 56.0465 346.455 56.2379 346.287C56.4292 346.114 56.6625 345.974 56.9379 345.867C57.2179 345.755 57.5515 345.699 57.9389 345.699C58.4009 345.699 58.8232 345.788 59.2059 345.965C59.5885 346.142 59.8942 346.399 60.1229 346.735C60.3516 347.066 60.4659 347.463 60.4659 347.925V353H58.7579V348.212C58.7579 347.839 58.6249 347.549 58.3589 347.344C58.0975 347.139 57.7662 347.036 57.3649 347.036C57.0989 347.036 56.8445 347.083 56.6019 347.176C56.3592 347.269 56.1632 347.409 56.0139 347.596C55.8692 347.778 55.7969 348.007 55.7969 348.282V353H54.0959ZM62.0473 347.932V345.986H63.9723V347.932H62.0473ZM62.0473 352.958V351.026H63.9723V352.958H62.0473ZM70.5039 353V345.202H68.6279V344.187C69.2205 344.187 69.6895 344.138 70.0349 344.04C70.3849 343.937 70.6392 343.788 70.7979 343.592C70.9612 343.396 71.0545 343.158 71.0779 342.878H72.2399V353H70.5039Z" fill="black"/>
<path d="M271.983 353V342.598H273.663V346.812C273.779 346.63 273.933 346.455 274.125 346.287C274.316 346.114 274.549 345.974 274.825 345.867C275.105 345.755 275.438 345.699 275.826 345.699C276.288 345.699 276.71 345.788 277.093 345.965C277.475 346.142 277.781 346.399 278.01 346.735C278.238 347.066 278.353 347.463 278.353 347.925V353H276.645V348.212C276.645 347.839 276.512 347.549 276.246 347.344C275.984 347.139 275.653 347.036 275.252 347.036C274.986 347.036 274.731 347.083 274.489 347.176C274.246 347.269 274.05 347.409 273.901 347.596C273.756 347.778 273.684 348.007 273.684 348.282V353H271.983ZM279.934 347.932V345.986H281.859V347.932H279.934ZM279.934 352.958V351.026H281.859V352.958H279.934ZM290.267 353.154C289.506 353.149 288.85 353.019 288.3 352.762C287.749 352.505 287.32 352.139 287.012 351.663C286.708 351.187 286.55 350.622 286.536 349.969H288.195C288.293 350.571 288.531 351.019 288.909 351.313C289.291 351.602 289.756 351.747 290.302 351.747C290.754 351.747 291.146 351.679 291.478 351.544C291.809 351.404 292.063 351.213 292.241 350.97C292.423 350.727 292.514 350.445 292.514 350.123C292.514 349.782 292.416 349.491 292.22 349.248C292.028 349.005 291.765 348.819 291.429 348.688C291.093 348.557 290.715 348.487 290.295 348.478L289.357 348.45V347.064L290.225 347.029C290.626 347.015 290.978 346.938 291.282 346.798C291.59 346.658 291.83 346.474 292.003 346.245C292.175 346.016 292.262 345.76 292.262 345.475C292.262 345.214 292.18 344.978 292.017 344.768C291.858 344.558 291.632 344.395 291.338 344.278C291.044 344.157 290.696 344.096 290.295 344.096C289.954 344.096 289.634 344.157 289.336 344.278C289.037 344.399 288.79 344.595 288.594 344.866C288.402 345.132 288.297 345.482 288.279 345.916H286.627C286.627 345.225 286.792 344.644 287.124 344.173C287.455 343.697 287.898 343.34 288.454 343.102C289.014 342.859 289.634 342.738 290.316 342.738C291.048 342.738 291.697 342.838 292.262 343.039C292.831 343.235 293.277 343.531 293.599 343.928C293.925 344.325 294.089 344.817 294.089 345.405C294.089 345.904 293.937 346.35 293.634 346.742C293.33 347.134 292.852 347.442 292.199 347.666C292.605 347.778 292.969 347.946 293.291 348.17C293.613 348.389 293.867 348.665 294.054 348.996C294.245 349.327 294.341 349.717 294.341 350.165C294.341 350.646 294.236 351.073 294.026 351.446C293.82 351.819 293.531 352.134 293.158 352.391C292.789 352.643 292.357 352.834 291.863 352.965C291.368 353.091 290.836 353.154 290.267 353.154Z" fill="black"/>
<path d="M493.024 353V342.598H494.704V346.812C494.82 346.63 494.974 346.455 495.166 346.287C495.357 346.114 495.59 345.974 495.866 345.867C496.146 345.755 496.479 345.699 496.867 345.699C497.329 345.699 497.751 345.788 498.134 345.965C498.516 346.142 498.822 346.399 499.051 346.735C499.279 347.066 499.394 347.463 499.394 347.925V353H497.686V348.212C497.686 347.839 497.553 347.549 497.287 347.344C497.025 347.139 496.694 347.036 496.293 347.036C496.027 347.036 495.772 347.083 495.53 347.176C495.287 347.269 495.091 347.409 494.942 347.596C494.797 347.778 494.725 348.007 494.725 348.282V353H493.024ZM500.975 347.932V345.986H502.9V347.932H500.975ZM500.975 352.958V351.026H502.9V352.958H500.975ZM512.26 353L512.267 350.599H507.556V349.15L512.218 342.878H513.912V349.15H515.529V350.599H513.912V353H512.26ZM509.152 349.15H512.253V344.992L509.152 349.15Z" fill="black"/>
<path d="M713.03 17V6.598H714.71V10.812C714.827 10.63 714.981 10.455 715.172 10.287C715.364 10.1143 715.597 9.97433 715.872 9.867C716.152 9.755 716.486 9.699 716.873 9.699C717.335 9.699 717.758 9.78767 718.14 9.965C718.523 10.1423 718.829 10.399 719.057 10.735C719.286 11.0663 719.4 11.463 719.4 11.925V17H717.692V12.212C717.692 11.8387 717.559 11.5493 717.293 11.344C717.032 11.1387 716.701 11.036 716.299 11.036C716.033 11.036 715.779 11.0827 715.536 11.176C715.294 11.2693 715.098 11.4093 714.948 11.596C714.804 11.778 714.731 12.0067 714.731 12.282V17H713.03ZM720.982 11.932V9.986H722.907V11.932H720.982ZM720.982 16.958V15.026H722.907V16.958H720.982ZM731.601 17.154C730.775 17.154 730.061 16.9487 729.459 16.538C728.857 16.1273 728.393 15.5463 728.066 14.795C727.744 14.039 727.583 13.1453 727.583 12.114C727.583 11.0173 727.744 10.0677 728.066 9.265C728.388 8.45767 728.855 7.83467 729.466 7.396C730.082 6.95733 730.827 6.738 731.699 6.738C732.297 6.738 732.85 6.85 733.358 7.074C733.867 7.29333 734.285 7.61067 734.611 8.026C734.938 8.44133 735.129 8.943 735.185 9.531H733.61C733.48 9.07833 733.256 8.72833 732.938 8.481C732.621 8.23367 732.22 8.11 731.734 8.11C731.198 8.11 730.75 8.26167 730.39 8.565C730.031 8.86833 729.772 9.30467 729.613 9.874C729.459 10.4387 729.41 11.1153 729.466 11.904C729.611 11.6287 729.807 11.3907 730.054 11.19C730.302 10.9847 730.584 10.826 730.901 10.714C731.219 10.602 731.555 10.546 731.909 10.546C732.586 10.546 733.179 10.6743 733.687 10.931C734.196 11.1877 734.593 11.5517 734.877 12.023C735.162 12.4943 735.304 13.052 735.304 13.696C735.304 14.3633 735.15 14.9583 734.842 15.481C734.534 15.999 734.103 16.4073 733.547 16.706C732.992 17.0047 732.343 17.154 731.601 17.154ZM731.559 15.817C731.923 15.817 732.25 15.7307 732.539 15.558C732.833 15.3853 733.064 15.145 733.232 14.837C733.405 14.529 733.491 14.1743 733.491 13.773C733.491 13.3623 733.412 13.0147 733.253 12.73C733.095 12.4453 732.868 12.2283 732.574 12.079C732.285 11.9297 731.944 11.855 731.552 11.855C731.23 11.855 730.918 11.9297 730.614 12.079C730.316 12.2283 730.071 12.422 729.879 12.66C729.693 12.898 729.599 13.1523 729.599 13.423C729.595 13.9037 729.674 14.3237 729.837 14.683C730.001 15.0423 730.229 15.3223 730.523 15.523C730.822 15.719 731.167 15.817 731.559 15.817Z" fill="black"/>
<path d="M801.414 265V254.598H803.094V258.812C803.211 258.63 803.365 258.455 803.556 258.287C803.748 258.114 803.981 257.974 804.256 257.867C804.536 257.755 804.87 257.699 805.257 257.699C805.719 257.699 806.142 257.788 806.524 257.965C806.907 258.142 807.213 258.399 807.441 258.735C807.67 259.066 807.784 259.463 807.784 259.925V265H806.076V260.212C806.076 259.839 805.943 259.549 805.677 259.344C805.416 259.139 805.085 259.036 804.683 259.036C804.417 259.036 804.163 259.083 803.92 259.176C803.678 259.269 803.482 259.409 803.332 259.596C803.188 259.778 803.115 260.007 803.115 260.282V265H801.414ZM809.366 259.932V257.986H811.291V259.932H809.366ZM809.366 264.958V263.026H811.291V264.958H809.366ZM820.083 265.154C819.439 265.154 818.84 265.049 818.284 264.839C817.734 264.624 817.258 264.33 816.856 263.957C816.46 263.584 816.163 263.157 815.967 262.676L817.346 261.948C817.519 262.293 817.724 262.604 817.962 262.879C818.205 263.154 818.487 263.371 818.809 263.53C819.136 263.684 819.509 263.761 819.929 263.761C820.587 263.761 821.115 263.579 821.511 263.215C821.913 262.846 822.113 262.356 822.113 261.745C822.113 261.367 822.02 261.031 821.833 260.737C821.651 260.443 821.402 260.214 821.084 260.051C820.772 259.883 820.415 259.799 820.013 259.799C819.775 259.799 819.551 259.82 819.341 259.862C819.136 259.904 818.928 259.983 818.718 260.1C818.508 260.212 818.282 260.382 818.039 260.611C817.993 260.634 817.958 260.646 817.934 260.646C817.916 260.641 817.881 260.627 817.829 260.604L816.52 260.072L816.982 254.878H823.275L823.212 256.299H818.368L818.137 259.113C818.497 258.861 818.858 258.679 819.222 258.567C819.586 258.455 819.988 258.399 820.426 258.399C821.07 258.399 821.656 258.525 822.183 258.777C822.711 259.029 823.131 259.4 823.443 259.89C823.756 260.38 823.912 260.98 823.912 261.689C823.912 262.398 823.754 263.012 823.436 263.53C823.124 264.048 822.68 264.449 822.106 264.734C821.537 265.014 820.863 265.154 820.083 265.154Z" fill="black"/>
<path d="M713.208 512V501.598H714.888V505.812C715.005 505.63 715.159 505.455 715.35 505.287C715.542 505.114 715.775 504.974 716.05 504.867C716.33 504.755 716.664 504.699 717.051 504.699C717.513 504.699 717.936 504.788 718.318 504.965C718.701 505.142 719.007 505.399 719.235 505.735C719.464 506.066 719.578 506.463 719.578 506.925V512H717.87V507.212C717.87 506.839 717.737 506.549 717.471 506.344C717.21 506.139 716.879 506.036 716.477 506.036C716.211 506.036 715.957 506.083 715.714 506.176C715.472 506.269 715.276 506.409 715.126 506.596C714.982 506.778 714.909 507.007 714.909 507.282V512H713.208ZM721.16 506.932V504.986H723.085V506.932H721.16ZM721.16 511.958V510.026H723.085V511.958H721.16ZM727.943 512V511.09V510.621C727.943 510.103 728.039 509.657 728.23 509.284C728.422 508.906 728.676 508.577 728.993 508.297C729.311 508.017 729.658 507.77 730.036 507.555C730.419 507.336 730.797 507.13 731.17 506.939C731.548 506.743 731.896 506.542 732.213 506.337C732.531 506.127 732.785 505.894 732.976 505.637C733.172 505.38 733.27 505.075 733.27 504.72C733.27 504.267 733.109 503.899 732.787 503.614C732.47 503.325 732.038 503.18 731.492 503.18C730.914 503.18 730.435 503.346 730.057 503.677C729.684 504.008 729.462 504.475 729.392 505.077H727.74C727.75 504.461 727.897 503.901 728.181 503.397C728.466 502.893 728.888 502.492 729.448 502.193C730.008 501.89 730.706 501.738 731.541 501.738C732.265 501.738 732.888 501.864 733.41 502.116C733.938 502.363 734.344 502.711 734.628 503.159C734.918 503.602 735.062 504.12 735.062 504.713C735.062 505.231 734.967 505.674 734.775 506.043C734.589 506.412 734.339 506.731 734.026 507.002C733.718 507.268 733.378 507.504 733.004 507.709C732.636 507.914 732.265 508.108 731.891 508.29C731.523 508.467 731.182 508.654 730.869 508.85C730.561 509.041 730.312 509.261 730.12 509.508C729.934 509.755 729.84 510.052 729.84 510.397V510.544H735.083V512H727.943Z" fill="black"/>
</svg>
