<svg width="1182" height="1074" viewBox="0 0 1182 1074" fill="none" xmlns="http://www.w3.org/2000/svg">
<path d="M1054 193C1054 157.654 1082.65 129 1118 129C1153.35 129 1182 157.654 1182 193C1182 228.346 1153.35 257 1118 257C1082.65 257 1054 228.346 1054 193Z" fill="#A8ACB2" style="fill:#A8ACB2;fill:color(display-p3 0.6588 0.6745 0.6980);fill-opacity:1;"/>
<path d="M1030 1010C1030 974.654 1058.65 946 1094 946C1129.35 946 1158 974.654 1158 1010C1158 1045.35 1129.35 1074 1094 1074C1058.65 1074 1030 1045.35 1030 1010Z" fill="#CFD1D4" style="fill:#CFD1D4;fill:color(display-p3 0.8118 0.8196 0.8314);fill-opacity:1;"/>
<path d="M518 273C518 237.654 546.654 209 582 209C617.346 209 646 237.654 646 273C646 308.346 617.346 337 582 337C546.654 337 518 308.346 518 273Z" fill="#CFD1D4" style="fill:#CFD1D4;fill:color(display-p3 0.8118 0.8196 0.8314);fill-opacity:1;"/>
<path d="M214 64C214 28.6538 242.654 0 278 0C313.346 0 342 28.6538 342 64C342 99.3462 313.346 128 278 128C242.654 128 214 99.3462 214 64Z" fill="#CFD1D4" style="fill:#CFD1D4;fill:color(display-p3 0.8118 0.8196 0.8314);fill-opacity:1;"/>
<path d="M926 719C926 683.654 954.654 655 990 655C1025.35 655 1054 683.654 1054 719C1054 754.346 1025.35 783 990 783C954.654 783 926 754.346 926 719Z" fill="#CFD1D4" style="fill:#CFD1D4;fill:color(display-p3 0.8118 0.8196 0.8314);fill-opacity:1;"/>
<path d="M772 839C772 803.654 800.654 775 836 775C871.346 775 900 803.654 900 839C900 874.346 871.346 903 836 903C800.654 903 772 874.346 772 839Z" fill="#CFD1D4" style="fill:#CFD1D4;fill:color(display-p3 0.8118 0.8196 0.8314);fill-opacity:1;"/>
<path d="M0 409C0 373.654 28.6538 345 64 345C99.3462 345 128 373.654 128 409C128 444.346 99.3462 473 64 473C28.6538 473 0 444.346 0 409Z" fill="#CFD1D4" style="fill:#CFD1D4;fill:color(display-p3 0.8118 0.8196 0.8314);fill-opacity:1;"/>
<path d="M1048.56 203.364L651.44 262.636" stroke="#4D8622" style="stroke:#4D8622;stroke:color(display-p3 0.3020 0.5255 0.1333);stroke-opacity:1;" stroke-width="6" stroke-linecap="round" stroke-linejoin="bevel"/>
<path d="M733 481C733 445.654 761.654 417 797 417C832.346 417 861 445.654 861 481C861 516.346 832.346 545 797 545C761.654 545 733 516.346 733 481Z" fill="#CFD1D4" style="fill:#CFD1D4;fill:color(display-p3 0.8118 0.8196 0.8314);fill-opacity:1;"/>
<path d="M1049.91 254.094L865.094 419.907" stroke="#EC9C00" style="stroke:#EC9C00;stroke:color(display-p3 0.9255 0.6118 0.0000);stroke-opacity:1;" stroke-width="6" stroke-linecap="round" stroke-linejoin="bevel"/>
<path d="M935.896 652.282L851.104 547.719" stroke="#1A1B1D" style="stroke:#1A1B1D;stroke:color(display-p3 0.1020 0.1059 0.1137);stroke-opacity:1;" stroke-width="2" stroke-linecap="round" stroke-linejoin="bevel"/>
<path d="M1027.08 965.647L902.917 883.352" stroke="#1A1B1D" style="stroke:#1A1B1D;stroke:color(display-p3 0.1020 0.1059 0.1137);stroke-opacity:1;" stroke-width="2" stroke-linecap="round" stroke-linejoin="bevel"/>
<path d="M828.649 771.521L804.351 548.479" stroke="#1A1B1D" style="stroke:#1A1B1D;stroke:color(display-p3 0.1020 0.1059 0.1137);stroke-opacity:1;" stroke-width="2" stroke-linecap="round" stroke-linejoin="bevel"/>
<path d="M342 537C342 501.654 370.654 473 406 473C441.346 473 470 501.654 470 537C470 572.346 441.346 601 406 601C370.654 601 342 572.346 342 537Z" fill="#A8ACB2" style="fill:#A8ACB2;fill:color(display-p3 0.6588 0.6745 0.6980);fill-opacity:1;"/>
<path d="M769.136 792.039L472.864 583.96" stroke="#1A1B1D" style="stroke:#1A1B1D;stroke:color(display-p3 0.1020 0.1059 0.1137);stroke-opacity:1;" stroke-width="2" stroke-linecap="round" stroke-linejoin="bevel"/>
<path d="M515.116 227.018L344.884 109.983" stroke="#1A1B1D" style="stroke:#1A1B1D;stroke:color(display-p3 0.1020 0.1059 0.1137);stroke-opacity:1;" stroke-width="2" stroke-linecap="round" stroke-linejoin="bevel"/>
<path d="M514.615 290.691L131.385 391.308" stroke="#1A1B1D" style="stroke:#1A1B1D;stroke:color(display-p3 0.1020 0.1059 0.1137);stroke-opacity:1;" stroke-width="2" stroke-linecap="round" stroke-linejoin="bevel"/>
<path d="M131.278 434.18L338.722 511.82" stroke="#1A1B1D" style="stroke:#1A1B1D;stroke:color(display-p3 0.1020 0.1059 0.1137);stroke-opacity:1;" stroke-width="2" stroke-linecap="round" stroke-linejoin="bevel"/>
<path d="M536.282 341.576L451.717 468.424" stroke="#4D8622" style="stroke:#4D8622;stroke:color(display-p3 0.3020 0.5255 0.1333);stroke-opacity:1;" stroke-width="6" stroke-linecap="round" stroke-linejoin="bevel"/>
<path d="M475.444 527.054L727.556 490.946" stroke="#EC9C00" style="stroke:#EC9C00;stroke:color(display-p3 0.9255 0.6118 0.0000);stroke-opacity:1;" stroke-width="6" stroke-linecap="round" stroke-linejoin="bevel"/>
<path d="M1116.02 260.498L1095.98 942.501" stroke="#1A1B1D" style="stroke:#1A1B1D;stroke:color(display-p3 0.1020 0.1059 0.1137);stroke-opacity:1;" stroke-width="2" stroke-linecap="round" stroke-linejoin="bevel"/>
</svg>
