<svg width="412" height="100" viewBox="0 0 412 100" fill="none" xmlns="http://www.w3.org/2000/svg">
<rect x="143" y="0.794922" width="125" height="31" rx="8" fill="#FFDF81"/>
<rect x="175" y="68.7949" width="61" height="31" rx="8" fill="#FFDF81"/>
<path d="M3.30898 16.8949C3.30898 17.6229 3.37198 18.2763 3.49798 18.8549C3.62398 19.4289 3.81065 19.9563 4.05798 20.4369C4.30532 20.9129 4.61565 21.3656 4.98898 21.7949C5.36698 22.2289 5.80565 22.6676 6.30498 23.1109L5.68898 23.7549C4.93298 23.1343 4.28432 22.4996 3.74298 21.8509C3.20632 21.2023 2.79332 20.4789 2.50398 19.6809C2.21932 18.8829 2.07698 17.9543 2.07698 16.8949C2.07698 15.8309 2.21932 14.8999 2.50398 14.1019C2.79332 13.3039 3.20632 12.5806 3.74298 11.9319C4.28432 11.2833 4.93298 10.6509 5.68898 10.0349L6.30498 10.6789C5.80098 11.1269 5.35998 11.5679 4.98198 12.0019C4.60865 12.4313 4.29832 12.8839 4.05098 13.3599C3.80365 13.8313 3.61698 14.3563 3.49098 14.9349C3.36965 15.5089 3.30898 16.1623 3.30898 16.8949ZM11.7875 19.6949C11.7875 19.3916 11.8948 19.1279 12.1095 18.9039C12.3288 18.6799 12.5972 18.5679 12.9145 18.5679C13.2412 18.5679 13.5118 18.6799 13.7265 18.9039C13.9458 19.1279 14.0555 19.3916 14.0555 19.6949C14.0555 20.0123 13.9458 20.2829 13.7265 20.5069C13.5118 20.7263 13.2412 20.8359 12.9145 20.8359C12.5972 20.8359 12.3288 20.7263 12.1095 20.5069C11.8948 20.2829 11.7875 20.0123 11.7875 19.6949ZM11.7875 14.6479C11.7875 14.4333 11.8365 14.2419 11.9345 14.0739C12.0325 13.9059 12.1678 13.7729 12.3405 13.6749C12.5132 13.5723 12.7045 13.5209 12.9145 13.5209C13.2412 13.5209 13.5118 13.6306 13.7265 13.8499C13.9458 14.0693 14.0555 14.3353 14.0555 14.6479C14.0555 14.9559 13.9458 15.2243 13.7265 15.4529C13.5118 15.6769 13.2412 15.7889 12.9145 15.7889C12.5972 15.7889 12.3288 15.6769 12.1095 15.4529C11.8948 15.2243 11.7875 14.9559 11.7875 14.6479ZM24.634 19.1279C24.634 19.6786 24.4964 20.1686 24.221 20.5979C23.9457 21.0226 23.5467 21.3563 23.024 21.5989C22.5014 21.8369 21.8644 21.9559 21.113 21.9559C20.4084 21.9559 19.769 21.8486 19.195 21.6339C18.6257 21.4193 18.138 21.1159 17.732 20.7239L18.453 19.9119C18.789 20.2246 19.174 20.4743 19.608 20.6609C20.042 20.8429 20.5507 20.9339 21.134 20.9339C21.526 20.9339 21.8924 20.8709 22.233 20.7449C22.5737 20.6143 22.849 20.4183 23.059 20.1569C23.269 19.8909 23.374 19.5549 23.374 19.1489C23.374 18.8363 23.3134 18.5703 23.192 18.3509C23.0707 18.1316 22.856 17.9379 22.548 17.7699C22.24 17.5973 21.8107 17.4293 21.26 17.2659C20.6254 17.0793 20.0747 16.8693 19.608 16.6359C19.146 16.3979 18.7867 16.1063 18.53 15.7609C18.278 15.4156 18.152 14.9886 18.152 14.4799C18.152 13.9993 18.285 13.5723 18.551 13.1989C18.817 12.8256 19.1834 12.5339 19.65 12.3239C20.1214 12.1093 20.6627 12.0019 21.274 12.0019C21.9414 12.0019 22.52 12.0976 23.01 12.2889C23.5047 12.4756 23.9527 12.7463 24.354 13.1009L23.64 13.8919C23.2947 13.5839 22.9237 13.3623 22.527 13.2269C22.1304 13.0869 21.7267 13.0169 21.316 13.0169C20.966 13.0169 20.644 13.0706 20.35 13.1779C20.0607 13.2806 19.8274 13.4369 19.65 13.6469C19.4774 13.8523 19.391 14.1159 19.391 14.4379C19.391 14.7133 19.4657 14.9513 19.615 15.1519C19.7644 15.3526 20.0164 15.5369 20.371 15.7049C20.7257 15.8683 21.2087 16.0409 21.82 16.2229C22.3194 16.3676 22.7814 16.5496 23.206 16.7689C23.6354 16.9836 23.9807 17.2776 24.242 17.6509C24.5034 18.0196 24.634 18.5119 24.634 19.1279ZM32.7766 21.4239C32.5246 21.5919 32.2189 21.7226 31.8596 21.8159C31.5002 21.9093 31.1479 21.9559 30.8026 21.9559C30.0092 21.9559 29.3979 21.7483 28.9686 21.3329C28.5392 20.9176 28.3246 20.3833 28.3246 19.7299V15.3339H26.6306V14.4239H28.3246V12.7509L29.5006 12.6109V14.4239H32.0486L31.9086 15.3339H29.5006V19.7159C29.5006 20.1266 29.6079 20.4393 29.8226 20.6539C30.0419 20.8686 30.4036 20.9759 30.9076 20.9759C31.1829 20.9759 31.4372 20.9433 31.6706 20.8779C31.9039 20.8126 32.1209 20.7286 32.3216 20.6259L32.7766 21.4239ZM38.1261 14.2699C38.8214 14.2699 39.4024 14.4286 39.8691 14.7459C40.3404 15.0586 40.6928 15.5019 40.9261 16.0759C41.1641 16.6499 41.2831 17.3266 41.2831 18.1059C41.2831 18.8573 41.1618 19.5223 40.9191 20.1009C40.6764 20.6796 40.3194 21.1346 39.8481 21.4659C39.3814 21.7926 38.8028 21.9559 38.1121 21.9559C37.4214 21.9559 36.8404 21.7973 36.3691 21.4799C35.8978 21.1626 35.5408 20.7169 35.2981 20.1429C35.0601 19.5643 34.9411 18.8899 34.9411 18.1199C34.9411 17.3593 35.0624 16.6896 35.3051 16.1109C35.5478 15.5323 35.9048 15.0819 36.3761 14.7599C36.8521 14.4333 37.4354 14.2699 38.1261 14.2699ZM38.1261 15.2289C37.4914 15.2289 37.0108 15.4646 36.6841 15.9359C36.3621 16.4026 36.2011 17.1306 36.2011 18.1199C36.2011 19.0906 36.3598 19.8116 36.6771 20.2829C36.9991 20.7543 37.4774 20.9899 38.1121 20.9899C38.7468 20.9899 39.2228 20.7543 39.5401 20.2829C39.8621 19.8116 40.0231 19.0859 40.0231 18.1059C40.0231 17.1259 39.8644 16.4026 39.5471 15.9359C39.2298 15.4646 38.7561 15.2289 38.1261 15.2289ZM47.0106 14.2699C47.664 14.2699 48.1843 14.4286 48.5716 14.7459C48.9636 15.0633 49.246 15.5113 49.4186 16.0899C49.5913 16.6639 49.6776 17.3359 49.6776 18.1059C49.6776 18.8479 49.5726 19.5106 49.3626 20.0939C49.1573 20.6726 48.8446 21.1276 48.4246 21.4589C48.0046 21.7903 47.475 21.9559 46.8356 21.9559C46.0283 21.9559 45.3796 21.6713 44.8896 21.1019V24.6159L43.7136 24.7629V14.4239H44.7146L44.8126 15.4529C45.0833 15.0749 45.4053 14.7833 45.7786 14.5779C46.1566 14.3726 46.5673 14.2699 47.0106 14.2699ZM46.7306 15.2149C46.3246 15.2149 45.9653 15.3386 45.6526 15.5859C45.3446 15.8286 45.0903 16.0993 44.8896 16.3979V20.0519C45.081 20.3366 45.3213 20.5629 45.6106 20.7309C45.9046 20.8943 46.2266 20.9759 46.5766 20.9759C47.188 20.9759 47.6476 20.7426 47.9556 20.2759C48.2636 19.8093 48.4176 19.0836 48.4176 18.0989C48.4176 17.4549 48.357 16.9206 48.2356 16.4959C48.1143 16.0666 47.93 15.7469 47.6826 15.5369C47.4353 15.3223 47.118 15.2149 46.7306 15.2149ZM56.1262 16.8949C56.1262 16.1623 56.0632 15.5089 55.9372 14.9349C55.8158 14.3563 55.6315 13.8313 55.3842 13.3599C55.1368 12.8839 54.8242 12.4313 54.4462 12.0019C54.0728 11.5679 53.6342 11.1269 53.1302 10.6789L53.7462 10.0349C54.5068 10.6509 55.1555 11.2833 55.6922 11.9319C56.2288 12.5806 56.6395 13.3039 56.9242 14.1019C57.2135 14.8999 57.3582 15.8309 57.3582 16.8949C57.3582 17.9543 57.2135 18.8829 56.9242 19.6809C56.6395 20.4789 56.2288 21.2023 55.6922 21.8509C55.1555 22.4996 54.5068 23.1343 53.7462 23.7549L53.1302 23.1109C53.6295 22.6676 54.0658 22.2289 54.4392 21.7949C54.8172 21.3656 55.1298 20.9129 55.3772 20.4369C55.6245 19.9563 55.8112 19.4289 55.9372 18.8549C56.0632 18.2763 56.1262 17.6229 56.1262 16.8949ZM60.4887 17.9239V16.9019H66.1027V17.9239H60.4887ZM70.0662 23.4119V10.3779H73.5732V11.3929H71.1792V22.4109H73.5732V23.4119H70.0662ZM78.9438 19.6949C78.9438 19.3916 79.0511 19.1279 79.2658 18.9039C79.4851 18.6799 79.7534 18.5679 80.0708 18.5679C80.3974 18.5679 80.6681 18.6799 80.8828 18.9039C81.1021 19.1279 81.2118 19.3916 81.2118 19.6949C81.2118 20.0123 81.1021 20.2829 80.8828 20.5069C80.6681 20.7263 80.3974 20.8359 80.0708 20.8359C79.7534 20.8359 79.4851 20.7263 79.2658 20.5069C79.0511 20.2829 78.9438 20.0123 78.9438 19.6949ZM78.9438 14.6479C78.9438 14.4333 78.9928 14.2419 79.0908 14.0739C79.1888 13.9059 79.3241 13.7729 79.4968 13.6749C79.6694 13.5723 79.8608 13.5209 80.0708 13.5209C80.3974 13.5209 80.6681 13.6306 80.8828 13.8499C81.1021 14.0693 81.2118 14.3353 81.2118 14.6479C81.2118 14.9559 81.1021 15.2243 80.8828 15.4529C80.6681 15.6769 80.3974 15.7889 80.0708 15.7889C79.7534 15.7889 79.4851 15.6769 79.2658 15.4529C79.0511 15.2243 78.9438 14.9559 78.9438 14.6479ZM89.8093 21.7949L86.4143 13.3179C86.419 13.4253 86.4283 13.6049 86.4423 13.8569C86.461 14.1043 86.4796 14.4006 86.4983 14.7459C86.5216 15.0866 86.5403 15.4483 86.5543 15.8309C86.5683 16.2136 86.5753 16.5916 86.5753 16.9649V21.7949H85.4483V12.1559H87.0933L90.5443 20.6679C90.5396 20.5326 90.5233 20.2853 90.4953 19.9259C90.4673 19.5619 90.4416 19.1233 90.4183 18.6099C90.395 18.0966 90.3833 17.5529 90.3833 16.9789V12.1559H91.5103V21.7949H89.8093ZM95.6488 13.1499V16.3979H99.2188V17.3989H95.6488V20.8219H100.031V21.7949H94.4308V12.1559H99.9048L99.7648 13.1499H95.6488ZM101.761 12.1559H103.154L105.268 15.8589L107.389 12.1559H108.705L105.968 16.5939L109.034 21.7949H107.641L105.24 17.4409L102.811 21.7949H101.502L104.526 16.6569L101.761 12.1559ZM114.244 13.1989V21.7949H113.033V13.1989H110.023V12.1559H117.296L117.17 13.1989H114.244ZM123.681 10.3779V23.4119H120.174V22.4179H122.568V11.3929H120.174V10.3779H123.681ZM127.995 17.9309V16.8949H134.792V17.9309H127.995ZM140.246 17.9309H134.506V16.8949H140.246V17.9309ZM137.523 13.1499L141.331 17.4129L137.523 21.6759L136.655 20.9339L138.65 18.7359C138.842 18.5306 138.996 18.3719 139.112 18.2599C139.229 18.1479 139.374 18.0383 139.546 17.9309V16.8949C139.374 16.7876 139.229 16.6779 139.112 16.5659C138.996 16.4539 138.842 16.2953 138.65 16.0899L136.655 13.8919L137.523 13.1499ZM146.016 16.8949C146.016 17.6229 146.079 18.2763 146.205 18.8549C146.331 19.4289 146.518 19.9563 146.765 20.4369C147.012 20.9129 147.323 21.3656 147.696 21.7949C148.074 22.2289 148.513 22.6676 149.012 23.1109L148.396 23.7549C147.64 23.1343 146.991 22.4996 146.45 21.8509C145.913 21.2023 145.5 20.4789 145.211 19.6809C144.926 18.8829 144.784 17.9543 144.784 16.8949C144.784 15.8309 144.926 14.8999 145.211 14.1019C145.5 13.3039 145.913 12.5806 146.45 11.9319C146.991 11.2833 147.64 10.6509 148.396 10.0349L149.012 10.6789C148.508 11.1269 148.067 11.5679 147.689 12.0019C147.316 12.4313 147.005 12.8839 146.758 13.3599C146.511 13.8313 146.324 14.3563 146.198 14.9349C146.077 15.5089 146.016 16.1623 146.016 16.8949ZM154.495 19.6949C154.495 19.3916 154.602 19.1279 154.817 18.9039C155.036 18.6799 155.304 18.5679 155.622 18.5679C155.948 18.5679 156.219 18.6799 156.434 18.9039C156.653 19.1279 156.763 19.3916 156.763 19.6949C156.763 20.0123 156.653 20.2829 156.434 20.5069C156.219 20.7263 155.948 20.8359 155.622 20.8359C155.304 20.8359 155.036 20.7263 154.817 20.5069C154.602 20.2829 154.495 20.0123 154.495 19.6949ZM154.495 14.6479C154.495 14.4333 154.544 14.2419 154.642 14.0739C154.74 13.9059 154.875 13.7729 155.048 13.6749C155.22 13.5723 155.412 13.5209 155.622 13.5209C155.948 13.5209 156.219 13.6306 156.434 13.8499C156.653 14.0693 156.763 14.3353 156.763 14.6479C156.763 14.9559 156.653 15.2243 156.434 15.4529C156.219 15.6769 155.948 15.7889 155.622 15.7889C155.304 15.7889 155.036 15.6769 154.817 15.4529C154.602 15.2243 154.495 14.9559 154.495 14.6479ZM167.341 19.1279C167.341 19.6786 167.203 20.1686 166.928 20.5979C166.653 21.0226 166.254 21.3563 165.731 21.5989C165.208 21.8369 164.571 21.9559 163.82 21.9559C163.115 21.9559 162.476 21.8486 161.902 21.6339C161.333 21.4193 160.845 21.1159 160.439 20.7239L161.16 19.9119C161.496 20.2246 161.881 20.4743 162.315 20.6609C162.749 20.8429 163.258 20.9339 163.841 20.9339C164.233 20.9339 164.599 20.8709 164.94 20.7449C165.281 20.6143 165.556 20.4183 165.766 20.1569C165.976 19.8909 166.081 19.5549 166.081 19.1489C166.081 18.8363 166.02 18.5703 165.899 18.3509C165.778 18.1316 165.563 17.9379 165.255 17.7699C164.947 17.5973 164.518 17.4293 163.967 17.2659C163.332 17.0793 162.782 16.8693 162.315 16.6359C161.853 16.3979 161.494 16.1063 161.237 15.7609C160.985 15.4156 160.859 14.9886 160.859 14.4799C160.859 13.9993 160.992 13.5723 161.258 13.1989C161.524 12.8256 161.89 12.5339 162.357 12.3239C162.828 12.1093 163.37 12.0019 163.981 12.0019C164.648 12.0019 165.227 12.0976 165.717 12.2889C166.212 12.4756 166.66 12.7463 167.061 13.1009L166.347 13.8919C166.002 13.5839 165.631 13.3623 165.234 13.2269C164.837 13.0869 164.434 13.0169 164.023 13.0169C163.673 13.0169 163.351 13.0706 163.057 13.1779C162.768 13.2806 162.534 13.4369 162.357 13.6469C162.184 13.8523 162.098 14.1159 162.098 14.4379C162.098 14.7133 162.173 14.9513 162.322 15.1519C162.471 15.3526 162.723 15.5369 163.078 15.7049C163.433 15.8683 163.916 16.0409 164.527 16.2229C165.026 16.3676 165.488 16.5496 165.913 16.7689C166.342 16.9836 166.688 17.2776 166.949 17.6509C167.21 18.0196 167.341 18.5119 167.341 19.1279ZM175.484 21.4239C175.232 21.5919 174.926 21.7226 174.567 21.8159C174.207 21.9093 173.855 21.9559 173.51 21.9559C172.716 21.9559 172.105 21.7483 171.676 21.3329C171.246 20.9176 171.032 20.3833 171.032 19.7299V15.3339H169.338V14.4239H171.032V12.7509L172.208 12.6109V14.4239H174.756L174.616 15.3339H172.208V19.7159C172.208 20.1266 172.315 20.4393 172.53 20.6539C172.749 20.8686 173.111 20.9759 173.615 20.9759C173.89 20.9759 174.144 20.9433 174.378 20.8779C174.611 20.8126 174.828 20.7286 175.029 20.6259L175.484 21.4239ZM180.833 14.2699C181.528 14.2699 182.109 14.4286 182.576 14.7459C183.047 15.0586 183.4 15.5019 183.633 16.0759C183.871 16.6499 183.99 17.3266 183.99 18.1059C183.99 18.8573 183.869 19.5223 183.626 20.1009C183.383 20.6796 183.026 21.1346 182.555 21.4659C182.088 21.7926 181.51 21.9559 180.819 21.9559C180.128 21.9559 179.547 21.7973 179.076 21.4799C178.605 21.1626 178.248 20.7169 178.005 20.1429C177.767 19.5643 177.648 18.8899 177.648 18.1199C177.648 17.3593 177.769 16.6896 178.012 16.1109C178.255 15.5323 178.612 15.0819 179.083 14.7599C179.559 14.4333 180.142 14.2699 180.833 14.2699ZM180.833 15.2289C180.198 15.2289 179.718 15.4646 179.391 15.9359C179.069 16.4026 178.908 17.1306 178.908 18.1199C178.908 19.0906 179.067 19.8116 179.384 20.2829C179.706 20.7543 180.184 20.9899 180.819 20.9899C181.454 20.9899 181.93 20.7543 182.247 20.2829C182.569 19.8116 182.73 19.0859 182.73 18.1059C182.73 17.1259 182.571 16.4026 182.254 15.9359C181.937 15.4646 181.463 15.2289 180.833 15.2289ZM189.718 14.2699C190.371 14.2699 190.891 14.4286 191.279 14.7459C191.671 15.0633 191.953 15.5113 192.126 16.0899C192.298 16.6639 192.385 17.3359 192.385 18.1059C192.385 18.8479 192.28 19.5106 192.07 20.0939C191.864 20.6726 191.552 21.1276 191.132 21.4589C190.712 21.7903 190.182 21.9559 189.543 21.9559C188.735 21.9559 188.087 21.6713 187.597 21.1019V24.6159L186.421 24.7629V14.4239H187.422L187.52 15.4529C187.79 15.0749 188.112 14.7833 188.486 14.5779C188.864 14.3726 189.274 14.2699 189.718 14.2699ZM189.438 15.2149C189.032 15.2149 188.672 15.3386 188.36 15.5859C188.052 15.8286 187.797 16.0993 187.597 16.3979V20.0519C187.788 20.3366 188.028 20.5629 188.318 20.7309C188.612 20.8943 188.934 20.9759 189.284 20.9759C189.895 20.9759 190.355 20.7426 190.663 20.2759C190.971 19.8093 191.125 19.0836 191.125 18.0989C191.125 17.4549 191.064 16.9206 190.943 16.4959C190.821 16.0666 190.637 15.7469 190.39 15.5369C190.142 15.3223 189.825 15.2149 189.438 15.2149ZM198.833 16.8949C198.833 16.1623 198.77 15.5089 198.644 14.9349C198.523 14.3563 198.339 13.8313 198.091 13.3599C197.844 12.8839 197.531 12.4313 197.153 12.0019C196.78 11.5679 196.341 11.1269 195.837 10.6789L196.453 10.0349C197.214 10.6509 197.863 11.2833 198.399 11.9319C198.936 12.5806 199.347 13.3039 199.631 14.1019C199.921 14.8999 200.065 15.8309 200.065 16.8949C200.065 17.9543 199.921 18.8829 199.631 19.6809C199.347 20.4789 198.936 21.2023 198.399 21.8509C197.863 22.4996 197.214 23.1343 196.453 23.7549L195.837 23.1109C196.337 22.6676 196.773 22.2289 197.146 21.7949C197.524 21.3656 197.837 20.9129 198.084 20.4369C198.332 19.9563 198.518 19.4289 198.644 18.8549C198.77 18.2763 198.833 17.6229 198.833 16.8949ZM213.172 16.8949C213.172 17.6229 213.235 18.2763 213.361 18.8549C213.487 19.4289 213.674 19.9563 213.921 20.4369C214.169 20.9129 214.479 21.3656 214.852 21.7949C215.23 22.2289 215.669 22.6676 216.168 23.1109L215.552 23.7549C214.796 23.1343 214.148 22.4996 213.606 21.8509C213.07 21.2023 212.657 20.4789 212.367 19.6809C212.083 18.8829 211.94 17.9543 211.94 16.8949C211.94 15.8309 212.083 14.8999 212.367 14.1019C212.657 13.3039 213.07 12.5806 213.606 11.9319C214.148 11.2833 214.796 10.6509 215.552 10.0349L216.168 10.6789C215.664 11.1269 215.223 11.5679 214.845 12.0019C214.472 12.4313 214.162 12.8839 213.914 13.3599C213.667 13.8313 213.48 14.3563 213.354 14.9349C213.233 15.5089 213.172 16.1623 213.172 16.8949ZM221.651 19.6949C221.651 19.3916 221.758 19.1279 221.973 18.9039C222.192 18.6799 222.46 18.5679 222.778 18.5679C223.104 18.5679 223.375 18.6799 223.59 18.9039C223.809 19.1279 223.919 19.3916 223.919 19.6949C223.919 20.0123 223.809 20.2829 223.59 20.5069C223.375 20.7263 223.104 20.8359 222.778 20.8359C222.46 20.8359 222.192 20.7263 221.973 20.5069C221.758 20.2829 221.651 20.0123 221.651 19.6949ZM221.651 14.6479C221.651 14.4333 221.7 14.2419 221.798 14.0739C221.896 13.9059 222.031 13.7729 222.204 13.6749C222.376 13.5723 222.568 13.5209 222.778 13.5209C223.104 13.5209 223.375 13.6306 223.59 13.8499C223.809 14.0693 223.919 14.3353 223.919 14.6479C223.919 14.9559 223.809 15.2243 223.59 15.4529C223.375 15.6769 223.104 15.7889 222.778 15.7889C222.46 15.7889 222.192 15.6769 221.973 15.4529C221.758 15.2243 221.651 14.9559 221.651 14.6479ZM234.497 19.1279C234.497 19.6786 234.36 20.1686 234.084 20.5979C233.809 21.0226 233.41 21.3563 232.887 21.5989C232.365 21.8369 231.728 21.9559 230.976 21.9559C230.272 21.9559 229.632 21.8486 229.058 21.6339C228.489 21.4193 228.001 21.1159 227.595 20.7239L228.316 19.9119C228.652 20.2246 229.037 20.4743 229.471 20.6609C229.905 20.8429 230.414 20.9339 230.997 20.9339C231.389 20.9339 231.756 20.8709 232.096 20.7449C232.437 20.6143 232.712 20.4183 232.922 20.1569C233.132 19.8909 233.237 19.5549 233.237 19.1489C233.237 18.8363 233.177 18.5703 233.055 18.3509C232.934 18.1316 232.719 17.9379 232.411 17.7699C232.103 17.5973 231.674 17.4293 231.123 17.2659C230.489 17.0793 229.938 16.8693 229.471 16.6359C229.009 16.3979 228.65 16.1063 228.393 15.7609C228.141 15.4156 228.015 14.9886 228.015 14.4799C228.015 13.9993 228.148 13.5723 228.414 13.1989C228.68 12.8256 229.047 12.5339 229.513 12.3239C229.985 12.1093 230.526 12.0019 231.137 12.0019C231.805 12.0019 232.383 12.0976 232.873 12.2889C233.368 12.4756 233.816 12.7463 234.217 13.1009L233.503 13.8919C233.158 13.5839 232.787 13.3623 232.39 13.2269C231.994 13.0869 231.59 13.0169 231.179 13.0169C230.829 13.0169 230.507 13.0706 230.213 13.1779C229.924 13.2806 229.691 13.4369 229.513 13.6469C229.341 13.8523 229.254 14.1159 229.254 14.4379C229.254 14.7133 229.329 14.9513 229.478 15.1519C229.628 15.3526 229.88 15.5369 230.234 15.7049C230.589 15.8683 231.072 16.0409 231.683 16.2229C232.183 16.3676 232.645 16.5496 233.069 16.7689C233.499 16.9836 233.844 17.2776 234.105 17.6509C234.367 18.0196 234.497 18.5119 234.497 19.1279ZM242.64 21.4239C242.388 21.5919 242.082 21.7226 241.723 21.8159C241.364 21.9093 241.011 21.9559 240.666 21.9559C239.873 21.9559 239.261 21.7483 238.832 21.3329C238.403 20.9176 238.188 20.3833 238.188 19.7299V15.3339H236.494V14.4239H238.188V12.7509L239.364 12.6109V14.4239H241.912L241.772 15.3339H239.364V19.7159C239.364 20.1266 239.471 20.4393 239.686 20.6539C239.905 20.8686 240.267 20.9759 240.771 20.9759C241.046 20.9759 241.301 20.9433 241.534 20.8779C241.767 20.8126 241.984 20.7286 242.185 20.6259L242.64 21.4239ZM247.989 14.2699C248.685 14.2699 249.266 14.4286 249.732 14.7459C250.204 15.0586 250.556 15.5019 250.789 16.0759C251.027 16.6499 251.146 17.3266 251.146 18.1059C251.146 18.8573 251.025 19.5223 250.782 20.1009C250.54 20.6796 250.183 21.1346 249.711 21.4659C249.245 21.7926 248.666 21.9559 247.975 21.9559C247.285 21.9559 246.704 21.7973 246.232 21.4799C245.761 21.1626 245.404 20.7169 245.161 20.1429C244.923 19.5643 244.804 18.8899 244.804 18.1199C244.804 17.3593 244.926 16.6896 245.168 16.1109C245.411 15.5323 245.768 15.0819 246.239 14.7599C246.715 14.4333 247.299 14.2699 247.989 14.2699ZM247.989 15.2289C247.355 15.2289 246.874 15.4646 246.547 15.9359C246.225 16.4026 246.064 17.1306 246.064 18.1199C246.064 19.0906 246.223 19.8116 246.54 20.2829C246.862 20.7543 247.341 20.9899 247.975 20.9899C248.61 20.9899 249.086 20.7543 249.403 20.2829C249.725 19.8116 249.886 19.0859 249.886 18.1059C249.886 17.1259 249.728 16.4026 249.41 15.9359C249.093 15.4646 248.619 15.2289 247.989 15.2289ZM256.874 14.2699C257.527 14.2699 258.048 14.4286 258.435 14.7459C258.827 15.0633 259.109 15.5113 259.282 16.0899C259.455 16.6639 259.541 17.3359 259.541 18.1059C259.541 18.8479 259.436 19.5106 259.226 20.0939C259.021 20.6726 258.708 21.1276 258.288 21.4589C257.868 21.7903 257.338 21.9559 256.699 21.9559C255.892 21.9559 255.243 21.6713 254.753 21.1019V24.6159L253.577 24.7629V14.4239H254.578L254.676 15.4529C254.947 15.0749 255.269 14.7833 255.642 14.5779C256.02 14.3726 256.431 14.2699 256.874 14.2699ZM256.594 15.2149C256.188 15.2149 255.829 15.3386 255.516 15.5859C255.208 15.8286 254.954 16.0993 254.753 16.3979V20.0519C254.944 20.3366 255.185 20.5629 255.474 20.7309C255.768 20.8943 256.09 20.9759 256.44 20.9759C257.051 20.9759 257.511 20.7426 257.819 20.2759C258.127 19.8093 258.281 19.0836 258.281 18.0989C258.281 17.4549 258.22 16.9206 258.099 16.4959C257.978 16.0666 257.793 15.7469 257.546 15.5369C257.299 15.3223 256.981 15.2149 256.594 15.2149ZM265.989 16.8949C265.989 16.1623 265.926 15.5089 265.8 14.9349C265.679 14.3563 265.495 13.8313 265.247 13.3599C265 12.8839 264.687 12.4313 264.309 12.0019C263.936 11.5679 263.497 11.1269 262.993 10.6789L263.609 10.0349C264.37 10.6509 265.019 11.2833 265.555 11.9319C266.092 12.5806 266.503 13.3039 266.787 14.1019C267.077 14.8999 267.221 15.8309 267.221 16.8949C267.221 17.9543 267.077 18.8829 266.787 19.6809C266.503 20.4789 266.092 21.2023 265.555 21.8509C265.019 22.4996 264.37 23.1343 263.609 23.7549L262.993 23.1109C263.493 22.6676 263.929 22.2289 264.302 21.7949C264.68 21.3656 264.993 20.9129 265.24 20.4369C265.488 19.9563 265.674 19.4289 265.8 18.8549C265.926 18.2763 265.989 17.6229 265.989 16.8949ZM270.352 17.9239V16.9019H275.966V17.9239H270.352ZM279.93 23.4119V10.3779H283.437V11.3929H281.043V22.4109H283.437V23.4119H279.93ZM288.807 19.6949C288.807 19.3916 288.914 19.1279 289.129 18.9039C289.348 18.6799 289.617 18.5679 289.934 18.5679C290.261 18.5679 290.531 18.6799 290.746 18.9039C290.965 19.1279 291.075 19.3916 291.075 19.6949C291.075 20.0123 290.965 20.2829 290.746 20.5069C290.531 20.7263 290.261 20.8359 289.934 20.8359C289.617 20.8359 289.348 20.7263 289.129 20.5069C288.914 20.2829 288.807 20.0123 288.807 19.6949ZM288.807 14.6479C288.807 14.4333 288.856 14.2419 288.954 14.0739C289.052 13.9059 289.187 13.7729 289.36 13.6749C289.533 13.5723 289.724 13.5209 289.934 13.5209C290.261 13.5209 290.531 13.6306 290.746 13.8499C290.965 14.0693 291.075 14.3353 291.075 14.6479C291.075 14.9559 290.965 15.2243 290.746 15.4529C290.531 15.6769 290.261 15.7889 289.934 15.7889C289.617 15.7889 289.348 15.6769 289.129 15.4529C288.914 15.2243 288.807 14.9559 288.807 14.6479ZM299.673 21.7949L296.278 13.3179C296.282 13.4253 296.292 13.6049 296.306 13.8569C296.324 14.1043 296.343 14.4006 296.362 14.7459C296.385 15.0866 296.404 15.4483 296.418 15.8309C296.432 16.2136 296.439 16.5916 296.439 16.9649V21.7949H295.312V12.1559H296.957L300.408 20.6679C300.403 20.5326 300.387 20.2853 300.359 19.9259C300.331 19.5619 300.305 19.1233 300.282 18.6099C300.258 18.0966 300.247 17.5529 300.247 16.9789V12.1559H301.374V21.7949H299.673ZM305.512 13.1499V16.3979H309.082V17.3989H305.512V20.8219H309.894V21.7949H304.294V12.1559H309.768L309.628 13.1499H305.512ZM311.625 12.1559H313.018L315.132 15.8589L317.253 12.1559H318.569L315.832 16.5939L318.898 21.7949H317.505L315.104 17.4409L312.675 21.7949H311.366L314.39 16.6569L311.625 12.1559ZM324.107 13.1989V21.7949H322.896V13.1989H319.886V12.1559H327.159L327.033 13.1989H324.107ZM333.545 10.3779V23.4119H330.038V22.4179H332.432V11.3929H330.038V10.3779H333.545ZM337.858 17.9309V16.8949H344.655V17.9309H337.858ZM350.11 17.9309H344.37V16.8949H350.11V17.9309ZM347.387 13.1499L351.195 17.4129L347.387 21.6759L346.519 20.9339L348.514 18.7359C348.705 18.5306 348.859 18.3719 348.976 18.2599C349.092 18.1479 349.237 18.0383 349.41 17.9309V16.8949C349.237 16.7876 349.092 16.6779 348.976 16.5659C348.859 16.4539 348.705 16.2953 348.514 16.0899L346.519 13.8919L347.387 13.1499ZM355.879 16.8949C355.879 17.6229 355.942 18.2763 356.068 18.8549C356.194 19.4289 356.381 19.9563 356.628 20.4369C356.876 20.9129 357.186 21.3656 357.559 21.7949C357.937 22.2289 358.376 22.6676 358.875 23.1109L358.259 23.7549C357.503 23.1343 356.855 22.4996 356.313 21.8509C355.777 21.2023 355.364 20.4789 355.074 19.6809C354.79 18.8829 354.647 17.9543 354.647 16.8949C354.647 15.8309 354.79 14.8999 355.074 14.1019C355.364 13.3039 355.777 12.5806 356.313 11.9319C356.855 11.2833 357.503 10.6509 358.259 10.0349L358.875 10.6789C358.371 11.1269 357.93 11.5679 357.552 12.0019C357.179 12.4313 356.869 12.8839 356.621 13.3599C356.374 13.8313 356.187 14.3563 356.061 14.9349C355.94 15.5089 355.879 16.1623 355.879 16.8949ZM364.358 19.6949C364.358 19.3916 364.465 19.1279 364.68 18.9039C364.899 18.6799 365.167 18.5679 365.485 18.5679C365.811 18.5679 366.082 18.6799 366.297 18.9039C366.516 19.1279 366.626 19.3916 366.626 19.6949C366.626 20.0123 366.516 20.2829 366.297 20.5069C366.082 20.7263 365.811 20.8359 365.485 20.8359C365.167 20.8359 364.899 20.7263 364.68 20.5069C364.465 20.2829 364.358 20.0123 364.358 19.6949ZM364.358 14.6479C364.358 14.4333 364.407 14.2419 364.505 14.0739C364.603 13.9059 364.738 13.7729 364.911 13.6749C365.083 13.5723 365.275 13.5209 365.485 13.5209C365.811 13.5209 366.082 13.6306 366.297 13.8499C366.516 14.0693 366.626 14.3353 366.626 14.6479C366.626 14.9559 366.516 15.2243 366.297 15.4529C366.082 15.6769 365.811 15.7889 365.485 15.7889C365.167 15.7889 364.899 15.6769 364.68 15.4529C364.465 15.2243 364.358 14.9559 364.358 14.6479ZM377.204 19.1279C377.204 19.6786 377.067 20.1686 376.791 20.5979C376.516 21.0226 376.117 21.3563 375.594 21.5989C375.072 21.8369 374.435 21.9559 373.683 21.9559C372.979 21.9559 372.339 21.8486 371.765 21.6339C371.196 21.4193 370.708 21.1159 370.302 20.7239L371.023 19.9119C371.359 20.2246 371.744 20.4743 372.178 20.6609C372.612 20.8429 373.121 20.9339 373.704 20.9339C374.096 20.9339 374.463 20.8709 374.803 20.7449C375.144 20.6143 375.419 20.4183 375.629 20.1569C375.839 19.8909 375.944 19.5549 375.944 19.1489C375.944 18.8363 375.884 18.5703 375.762 18.3509C375.641 18.1316 375.426 17.9379 375.118 17.7699C374.81 17.5973 374.381 17.4293 373.83 17.2659C373.196 17.0793 372.645 16.8693 372.178 16.6359C371.716 16.3979 371.357 16.1063 371.1 15.7609C370.848 15.4156 370.722 14.9886 370.722 14.4799C370.722 13.9993 370.855 13.5723 371.121 13.1989C371.387 12.8256 371.754 12.5339 372.22 12.3239C372.692 12.1093 373.233 12.0019 373.844 12.0019C374.512 12.0019 375.09 12.0976 375.58 12.2889C376.075 12.4756 376.523 12.7463 376.924 13.1009L376.21 13.8919C375.865 13.5839 375.494 13.3623 375.097 13.2269C374.701 13.0869 374.297 13.0169 373.886 13.0169C373.536 13.0169 373.214 13.0706 372.92 13.1779C372.631 13.2806 372.398 13.4369 372.22 13.6469C372.048 13.8523 371.961 14.1159 371.961 14.4379C371.961 14.7133 372.036 14.9513 372.185 15.1519C372.335 15.3526 372.587 15.5369 372.941 15.7049C373.296 15.8683 373.779 16.0409 374.39 16.2229C374.89 16.3676 375.352 16.5496 375.776 16.7689C376.206 16.9836 376.551 17.2776 376.812 17.6509C377.074 18.0196 377.204 18.5119 377.204 19.1279ZM385.347 21.4239C385.095 21.5919 384.789 21.7226 384.43 21.8159C384.071 21.9093 383.718 21.9559 383.373 21.9559C382.58 21.9559 381.968 21.7483 381.539 21.3329C381.11 20.9176 380.895 20.3833 380.895 19.7299V15.3339H379.201V14.4239H380.895V12.7509L382.071 12.6109V14.4239H384.619L384.479 15.3339H382.071V19.7159C382.071 20.1266 382.178 20.4393 382.393 20.6539C382.612 20.8686 382.974 20.9759 383.478 20.9759C383.753 20.9759 384.008 20.9433 384.241 20.8779C384.474 20.8126 384.691 20.7286 384.892 20.6259L385.347 21.4239ZM390.696 14.2699C391.392 14.2699 391.973 14.4286 392.439 14.7459C392.911 15.0586 393.263 15.5019 393.496 16.0759C393.734 16.6499 393.853 17.3266 393.853 18.1059C393.853 18.8573 393.732 19.5223 393.489 20.1009C393.247 20.6796 392.89 21.1346 392.418 21.4659C391.952 21.7926 391.373 21.9559 390.682 21.9559C389.992 21.9559 389.411 21.7973 388.939 21.4799C388.468 21.1626 388.111 20.7169 387.868 20.1429C387.63 19.5643 387.511 18.8899 387.511 18.1199C387.511 17.3593 387.633 16.6896 387.875 16.1109C388.118 15.5323 388.475 15.0819 388.946 14.7599C389.422 14.4333 390.006 14.2699 390.696 14.2699ZM390.696 15.2289C390.062 15.2289 389.581 15.4646 389.254 15.9359C388.932 16.4026 388.771 17.1306 388.771 18.1199C388.771 19.0906 388.93 19.8116 389.247 20.2829C389.569 20.7543 390.048 20.9899 390.682 20.9899C391.317 20.9899 391.793 20.7543 392.11 20.2829C392.432 19.8116 392.593 19.0859 392.593 18.1059C392.593 17.1259 392.435 16.4026 392.117 15.9359C391.8 15.4646 391.326 15.2289 390.696 15.2289ZM399.581 14.2699C400.234 14.2699 400.755 14.4286 401.142 14.7459C401.534 15.0633 401.816 15.5113 401.989 16.0899C402.162 16.6639 402.248 17.3359 402.248 18.1059C402.248 18.8479 402.143 19.5106 401.933 20.0939C401.728 20.6726 401.415 21.1276 400.995 21.4589C400.575 21.7903 400.045 21.9559 399.406 21.9559C398.599 21.9559 397.95 21.6713 397.46 21.1019V24.6159L396.284 24.7629V14.4239H397.285L397.383 15.4529C397.654 15.0749 397.976 14.7833 398.349 14.5779C398.727 14.3726 399.138 14.2699 399.581 14.2699ZM399.301 15.2149C398.895 15.2149 398.536 15.3386 398.223 15.5859C397.915 15.8286 397.661 16.0993 397.46 16.3979V20.0519C397.651 20.3366 397.892 20.5629 398.181 20.7309C398.475 20.8943 398.797 20.9759 399.147 20.9759C399.758 20.9759 400.218 20.7426 400.526 20.2759C400.834 19.8093 400.988 19.0836 400.988 18.0989C400.988 17.4549 400.927 16.9206 400.806 16.4959C400.685 16.0666 400.5 15.7469 400.253 15.5369C400.006 15.3223 399.688 15.2149 399.301 15.2149ZM408.696 16.8949C408.696 16.1623 408.633 15.5089 408.507 14.9349C408.386 14.3563 408.202 13.8313 407.954 13.3599C407.707 12.8839 407.394 12.4313 407.016 12.0019C406.643 11.5679 406.204 11.1269 405.7 10.6789L406.316 10.0349C407.077 10.6509 407.726 11.2833 408.262 11.9319C408.799 12.5806 409.21 13.3039 409.494 14.1019C409.784 14.8999 409.928 15.8309 409.928 16.8949C409.928 17.9543 409.784 18.8829 409.494 19.6809C409.21 20.4789 408.799 21.2023 408.262 21.8509C407.726 22.4996 407.077 23.1343 406.316 23.7549L405.7 23.1109C406.2 22.6676 406.636 22.2289 407.009 21.7949C407.387 21.3656 407.7 20.9129 407.947 20.4369C408.195 19.9563 408.381 19.4289 408.507 18.8549C408.633 18.2763 408.696 17.6229 408.696 16.8949Z" fill="black"/>
<path d="M37.3871 84.8949C37.3871 85.6229 37.4501 86.2763 37.5761 86.8549C37.7021 87.4289 37.8888 87.9563 38.1361 88.4369C38.3834 88.9129 38.6938 89.3656 39.0671 89.7949C39.4451 90.2289 39.8838 90.6676 40.3831 91.1109L39.7671 91.7549C39.0111 91.1343 38.3624 90.4996 37.8211 89.8509C37.2844 89.2023 36.8714 88.4789 36.5821 87.6809C36.2974 86.8829 36.1551 85.9543 36.1551 84.8949C36.1551 83.8309 36.2974 82.8999 36.5821 82.1019C36.8714 81.3039 37.2844 80.5806 37.8211 79.9319C38.3624 79.2833 39.0111 78.6509 39.7671 78.0349L40.3831 78.6789C39.8791 79.1269 39.4381 79.5679 39.0601 80.0019C38.6868 80.4313 38.3764 80.8839 38.1291 81.3599C37.8818 81.8313 37.6951 82.3563 37.5691 82.9349C37.4478 83.5089 37.3871 84.1623 37.3871 84.8949ZM45.8656 87.6949C45.8656 87.3916 45.973 87.1279 46.1876 86.9039C46.407 86.6799 46.6753 86.5679 46.9926 86.5679C47.3193 86.5679 47.59 86.6799 47.8046 86.9039C48.024 87.1279 48.1336 87.3916 48.1336 87.6949C48.1336 88.0123 48.024 88.2829 47.8046 88.5069C47.59 88.7263 47.3193 88.8359 46.9926 88.8359C46.6753 88.8359 46.407 88.7263 46.1876 88.5069C45.973 88.2829 45.8656 88.0123 45.8656 87.6949ZM45.8656 82.6479C45.8656 82.4333 45.9146 82.2419 46.0126 82.0739C46.1106 81.9059 46.246 81.7729 46.4186 81.6749C46.5913 81.5723 46.7826 81.5209 46.9926 81.5209C47.3193 81.5209 47.59 81.6306 47.8046 81.8499C48.024 82.0693 48.1336 82.3353 48.1336 82.6479C48.1336 82.9559 48.024 83.2243 47.8046 83.4529C47.59 83.6769 47.3193 83.7889 46.9926 83.7889C46.6753 83.7889 46.407 83.6769 46.1876 83.4529C45.973 83.2243 45.8656 82.9559 45.8656 82.6479ZM58.7122 87.1279C58.7122 87.6786 58.5745 88.1686 58.2992 88.5979C58.0238 89.0226 57.6248 89.3563 57.1022 89.5989C56.5795 89.8369 55.9425 89.9559 55.1912 89.9559C54.4865 89.9559 53.8472 89.8486 53.2732 89.6339C52.7038 89.4193 52.2162 89.1159 51.8102 88.7239L52.5312 87.9119C52.8672 88.2246 53.2522 88.4743 53.6862 88.6609C54.1202 88.8429 54.6288 88.9339 55.2122 88.9339C55.6042 88.9339 55.9705 88.8709 56.3112 88.7449C56.6518 88.6143 56.9272 88.4183 57.1372 88.1569C57.3472 87.8909 57.4522 87.5549 57.4522 87.1489C57.4522 86.8363 57.3915 86.5703 57.2702 86.3509C57.1488 86.1316 56.9342 85.9379 56.6262 85.7699C56.3182 85.5973 55.8888 85.4293 55.3382 85.2659C54.7035 85.0793 54.1528 84.8693 53.6862 84.6359C53.2242 84.3979 52.8648 84.1063 52.6082 83.7609C52.3562 83.4156 52.2302 82.9886 52.2302 82.4799C52.2302 81.9993 52.3632 81.5723 52.6292 81.1989C52.8952 80.8256 53.2615 80.5339 53.7282 80.3239C54.1995 80.1093 54.7408 80.0019 55.3522 80.0019C56.0195 80.0019 56.5982 80.0976 57.0882 80.2889C57.5828 80.4756 58.0308 80.7463 58.4322 81.1009L57.7182 81.8919C57.3728 81.5839 57.0018 81.3623 56.6052 81.2269C56.2085 81.0869 55.8048 81.0169 55.3942 81.0169C55.0442 81.0169 54.7222 81.0706 54.4282 81.1779C54.1388 81.2806 53.9055 81.4369 53.7282 81.6469C53.5555 81.8523 53.4692 82.1159 53.4692 82.4379C53.4692 82.7133 53.5438 82.9513 53.6932 83.1519C53.8425 83.3526 54.0945 83.5369 54.4492 83.7049C54.8038 83.8683 55.2868 84.0409 55.8982 84.2229C56.3975 84.3676 56.8595 84.5496 57.2842 84.7689C57.7135 84.9836 58.0588 85.2776 58.3202 85.6509C58.5815 86.0196 58.7122 86.5119 58.7122 87.1279ZM66.8547 89.4239C66.6027 89.5919 66.297 89.7226 65.9377 89.8159C65.5784 89.9093 65.226 89.9559 64.8807 89.9559C64.0874 89.9559 63.476 89.7483 63.0467 89.3329C62.6174 88.9176 62.4027 88.3833 62.4027 87.7299V83.3339H60.7087V82.4239H62.4027V80.7509L63.5787 80.6109V82.4239H66.1267L65.9867 83.3339H63.5787V87.7159C63.5787 88.1266 63.686 88.4393 63.9007 88.6539C64.12 88.8686 64.4817 88.9759 64.9857 88.9759C65.261 88.9759 65.5154 88.9433 65.7487 88.8779C65.982 88.8126 66.199 88.7286 66.3997 88.6259L66.8547 89.4239ZM72.2042 82.2699C72.8996 82.2699 73.4806 82.4286 73.9472 82.7459C74.4186 83.0586 74.7709 83.5019 75.0042 84.0759C75.2422 84.6499 75.3612 85.3266 75.3612 86.1059C75.3612 86.8573 75.2399 87.5223 74.9972 88.1009C74.7546 88.6796 74.3976 89.1346 73.9262 89.4659C73.4596 89.7926 72.8809 89.9559 72.1902 89.9559C71.4996 89.9559 70.9186 89.7973 70.4472 89.4799C69.9759 89.1626 69.6189 88.7169 69.3762 88.1429C69.1382 87.5643 69.0192 86.8899 69.0192 86.1199C69.0192 85.3593 69.1406 84.6896 69.3832 84.1109C69.6259 83.5323 69.9829 83.0819 70.4542 82.7599C70.9302 82.4333 71.5136 82.2699 72.2042 82.2699ZM72.2042 83.2289C71.5696 83.2289 71.0889 83.4646 70.7622 83.9359C70.4402 84.4026 70.2792 85.1306 70.2792 86.1199C70.2792 87.0906 70.4379 87.8116 70.7552 88.2829C71.0772 88.7543 71.5556 88.9899 72.1902 88.9899C72.8249 88.9899 73.3009 88.7543 73.6182 88.2829C73.9402 87.8116 74.1012 87.0859 74.1012 86.1059C74.1012 85.1259 73.9426 84.4026 73.6252 83.9359C73.3079 83.4646 72.8342 83.2289 72.2042 83.2289ZM81.0888 82.2699C81.7421 82.2699 82.2624 82.4286 82.6498 82.7459C83.0418 83.0633 83.3241 83.5113 83.4968 84.0899C83.6694 84.6639 83.7558 85.3359 83.7558 86.1059C83.7558 86.8479 83.6508 87.5106 83.4408 88.0939C83.2354 88.6726 82.9228 89.1276 82.5028 89.4589C82.0828 89.7903 81.5531 89.9559 80.9138 89.9559C80.1064 89.9559 79.4578 89.6713 78.9678 89.1019V92.6159L77.7918 92.7629V82.4239H78.7928L78.8908 83.4529C79.1614 83.0749 79.4834 82.7833 79.8568 82.5779C80.2348 82.3726 80.6454 82.2699 81.0888 82.2699ZM80.8088 83.2149C80.4028 83.2149 80.0434 83.3386 79.7308 83.5859C79.4228 83.8286 79.1684 84.0993 78.9678 84.3979V88.0519C79.1591 88.3366 79.3994 88.5629 79.6888 88.7309C79.9828 88.8943 80.3048 88.9759 80.6548 88.9759C81.2661 88.9759 81.7258 88.7426 82.0338 88.2759C82.3418 87.8093 82.4958 87.0836 82.4958 86.0989C82.4958 85.4549 82.4351 84.9206 82.3138 84.4959C82.1924 84.0666 82.0081 83.7469 81.7608 83.5369C81.5134 83.3223 81.1961 83.2149 80.8088 83.2149ZM90.2043 84.8949C90.2043 84.1623 90.1413 83.5089 90.0153 82.9349C89.894 82.3563 89.7096 81.8313 89.4623 81.3599C89.215 80.8839 88.9023 80.4313 88.5243 80.0019C88.151 79.5679 87.7123 79.1269 87.2083 78.6789L87.8243 78.0349C88.585 78.6509 89.2336 79.2833 89.7703 79.9319C90.307 80.5806 90.7176 81.3039 91.0023 82.1019C91.2916 82.8999 91.4363 83.8309 91.4363 84.8949C91.4363 85.9543 91.2916 86.8829 91.0023 87.6809C90.7176 88.4789 90.307 89.2023 89.7703 89.8509C89.2336 90.4996 88.585 91.1343 87.8243 91.7549L87.2083 91.1109C87.7076 90.6676 88.144 90.2289 88.5173 89.7949C88.8953 89.3656 89.208 88.9129 89.4553 88.4369C89.7026 87.9563 89.8893 87.4289 90.0153 86.8549C90.1413 86.2763 90.2043 85.6229 90.2043 84.8949ZM94.5668 85.9239V84.9019H100.181V85.9239H94.5668ZM104.144 91.4119V78.3779H107.651V79.3929H105.257V90.4109H107.651V91.4119H104.144ZM113.022 87.6949C113.022 87.3916 113.129 87.1279 113.344 86.9039C113.563 86.6799 113.832 86.5679 114.149 86.5679C114.476 86.5679 114.746 86.6799 114.961 86.9039C115.18 87.1279 115.29 87.3916 115.29 87.6949C115.29 88.0123 115.18 88.2829 114.961 88.5069C114.746 88.7263 114.476 88.8359 114.149 88.8359C113.832 88.8359 113.563 88.7263 113.344 88.5069C113.129 88.2829 113.022 88.0123 113.022 87.6949ZM113.022 82.6479C113.022 82.4333 113.071 82.2419 113.169 82.0739C113.267 81.9059 113.402 81.7729 113.575 81.6749C113.748 81.5723 113.939 81.5209 114.149 81.5209C114.476 81.5209 114.746 81.6306 114.961 81.8499C115.18 82.0693 115.29 82.3353 115.29 82.6479C115.29 82.9559 115.18 83.2243 114.961 83.4529C114.746 83.6769 114.476 83.7889 114.149 83.7889C113.832 83.7889 113.563 83.6769 113.344 83.4529C113.129 83.2243 113.022 82.9559 113.022 82.6479ZM123.887 89.7949L120.492 81.3179C120.497 81.4253 120.506 81.6049 120.52 81.8569C120.539 82.1043 120.558 82.4006 120.576 82.7459C120.6 83.0866 120.618 83.4483 120.632 83.8309C120.646 84.2136 120.653 84.5916 120.653 84.9649V89.7949H119.526V80.1559H121.171L124.622 88.6679C124.618 88.5326 124.601 88.2853 124.573 87.9259C124.545 87.5619 124.52 87.1233 124.496 86.6099C124.473 86.0966 124.461 85.5529 124.461 84.9789V80.1559H125.588V89.7949H123.887ZM129.727 81.1499V84.3979H133.297V85.3989H129.727V88.8219H134.109V89.7949H128.509V80.1559H133.983L133.843 81.1499H129.727ZM135.839 80.1559H137.232L139.346 83.8589L141.467 80.1559H142.783L140.046 84.5939L143.112 89.7949H141.719L139.318 85.4409L136.889 89.7949H135.58L138.604 84.6569L135.839 80.1559ZM148.322 81.1989V89.7949H147.111V81.1989H144.101V80.1559H151.374L151.248 81.1989H148.322ZM157.76 78.3779V91.4119H154.253V90.4179H156.647V79.3929H154.253V78.3779H157.76ZM162.073 85.9309V84.8949H168.87V85.9309H162.073ZM174.325 85.9309H168.585V84.8949H174.325V85.9309ZM171.602 81.1499L175.41 85.4129L171.602 89.6759L170.734 88.9339L172.729 86.7359C172.92 86.5306 173.074 86.3719 173.191 86.2599C173.307 86.1479 173.452 86.0383 173.625 85.9309V84.8949C173.452 84.7876 173.307 84.6779 173.191 84.5659C173.074 84.4539 172.92 84.2953 172.729 84.0899L170.734 81.8919L171.602 81.1499ZM180.094 84.8949C180.094 85.6229 180.157 86.2763 180.283 86.8549C180.409 87.4289 180.596 87.9563 180.843 88.4369C181.09 88.9129 181.401 89.3656 181.774 89.7949C182.152 90.2289 182.591 90.6676 183.09 91.1109L182.474 91.7549C181.718 91.1343 181.069 90.4996 180.528 89.8509C179.991 89.2023 179.578 88.4789 179.289 87.6809C179.004 86.8829 178.862 85.9543 178.862 84.8949C178.862 83.8309 179.004 82.8999 179.289 82.1019C179.578 81.3039 179.991 80.5806 180.528 79.9319C181.069 79.2833 181.718 78.6509 182.474 78.0349L183.09 78.6789C182.586 79.1269 182.145 79.5679 181.767 80.0019C181.394 80.4313 181.083 80.8839 180.836 81.3599C180.589 81.8313 180.402 82.3563 180.276 82.9349C180.155 83.5089 180.094 84.1623 180.094 84.8949ZM188.573 87.6949C188.573 87.3916 188.68 87.1279 188.895 86.9039C189.114 86.6799 189.382 86.5679 189.7 86.5679C190.026 86.5679 190.297 86.6799 190.512 86.9039C190.731 87.1279 190.841 87.3916 190.841 87.6949C190.841 88.0123 190.731 88.2829 190.512 88.5069C190.297 88.7263 190.026 88.8359 189.7 88.8359C189.382 88.8359 189.114 88.7263 188.895 88.5069C188.68 88.2829 188.573 88.0123 188.573 87.6949ZM188.573 82.6479C188.573 82.4333 188.622 82.2419 188.72 82.0739C188.818 81.9059 188.953 81.7729 189.126 81.6749C189.298 81.5723 189.49 81.5209 189.7 81.5209C190.026 81.5209 190.297 81.6306 190.512 81.8499C190.731 82.0693 190.841 82.3353 190.841 82.6479C190.841 82.9559 190.731 83.2243 190.512 83.4529C190.297 83.6769 190.026 83.7889 189.7 83.7889C189.382 83.7889 189.114 83.6769 188.895 83.4529C188.68 83.2243 188.573 82.9559 188.573 82.6479ZM201.419 87.1279C201.419 87.6786 201.282 88.1686 201.006 88.5979C200.731 89.0226 200.332 89.3563 199.809 89.5989C199.287 89.8369 198.65 89.9559 197.898 89.9559C197.194 89.9559 196.554 89.8486 195.98 89.6339C195.411 89.4193 194.923 89.1159 194.517 88.7239L195.238 87.9119C195.574 88.2246 195.959 88.4743 196.393 88.6609C196.827 88.8429 197.336 88.9339 197.919 88.9339C198.311 88.9339 198.678 88.8709 199.018 88.7449C199.359 88.6143 199.634 88.4183 199.844 88.1569C200.054 87.8909 200.159 87.5549 200.159 87.1489C200.159 86.8363 200.099 86.5703 199.977 86.3509C199.856 86.1316 199.641 85.9379 199.333 85.7699C199.025 85.5973 198.596 85.4293 198.045 85.2659C197.411 85.0793 196.86 84.8693 196.393 84.6359C195.931 84.3979 195.572 84.1063 195.315 83.7609C195.063 83.4156 194.937 82.9886 194.937 82.4799C194.937 81.9993 195.07 81.5723 195.336 81.1989C195.602 80.8256 195.969 80.5339 196.435 80.3239C196.907 80.1093 197.448 80.0019 198.059 80.0019C198.727 80.0019 199.305 80.0976 199.795 80.2889C200.29 80.4756 200.738 80.7463 201.139 81.1009L200.425 81.8919C200.08 81.5839 199.709 81.3623 199.312 81.2269C198.916 81.0869 198.512 81.0169 198.101 81.0169C197.751 81.0169 197.429 81.0706 197.135 81.1779C196.846 81.2806 196.613 81.4369 196.435 81.6469C196.263 81.8523 196.176 82.1159 196.176 82.4379C196.176 82.7133 196.251 82.9513 196.4 83.1519C196.55 83.3526 196.802 83.5369 197.156 83.7049C197.511 83.8683 197.994 84.0409 198.605 84.2229C199.105 84.3676 199.567 84.5496 199.991 84.7689C200.421 84.9836 200.766 85.2776 201.027 85.6509C201.289 86.0196 201.419 86.5119 201.419 87.1279ZM209.562 89.4239C209.31 89.5919 209.004 89.7226 208.645 89.8159C208.285 89.9093 207.933 89.9559 207.588 89.9559C206.794 89.9559 206.183 89.7483 205.754 89.3329C205.324 88.9176 205.11 88.3833 205.11 87.7299V83.3339H203.416V82.4239H205.11V80.7509L206.286 80.6109V82.4239H208.834L208.694 83.3339H206.286V87.7159C206.286 88.1266 206.393 88.4393 206.608 88.6539C206.827 88.8686 207.189 88.9759 207.693 88.9759C207.968 88.9759 208.222 88.9433 208.456 88.8779C208.689 88.8126 208.906 88.7286 209.107 88.6259L209.562 89.4239ZM214.911 82.2699C215.607 82.2699 216.188 82.4286 216.654 82.7459C217.126 83.0586 217.478 83.5019 217.711 84.0759C217.949 84.6499 218.068 85.3266 218.068 86.1059C218.068 86.8573 217.947 87.5223 217.704 88.1009C217.462 88.6796 217.105 89.1346 216.633 89.4659C216.167 89.7926 215.588 89.9559 214.897 89.9559C214.207 89.9559 213.626 89.7973 213.154 89.4799C212.683 89.1626 212.326 88.7169 212.083 88.1429C211.845 87.5643 211.726 86.8899 211.726 86.1199C211.726 85.3593 211.848 84.6896 212.09 84.1109C212.333 83.5323 212.69 83.0819 213.161 82.7599C213.637 82.4333 214.221 82.2699 214.911 82.2699ZM214.911 83.2289C214.277 83.2289 213.796 83.4646 213.469 83.9359C213.147 84.4026 212.986 85.1306 212.986 86.1199C212.986 87.0906 213.145 87.8116 213.462 88.2829C213.784 88.7543 214.263 88.9899 214.897 88.9899C215.532 88.9899 216.008 88.7543 216.325 88.2829C216.647 87.8116 216.808 87.0859 216.808 86.1059C216.808 85.1259 216.65 84.4026 216.332 83.9359C216.015 83.4646 215.541 83.2289 214.911 83.2289ZM223.796 82.2699C224.449 82.2699 224.969 82.4286 225.357 82.7459C225.749 83.0633 226.031 83.5113 226.204 84.0899C226.376 84.6639 226.463 85.3359 226.463 86.1059C226.463 86.8479 226.358 87.5106 226.148 88.0939C225.942 88.6726 225.63 89.1276 225.21 89.4589C224.79 89.7903 224.26 89.9559 223.621 89.9559C222.813 89.9559 222.165 89.6713 221.675 89.1019V92.6159L220.499 92.7629V82.4239H221.5L221.598 83.4529C221.868 83.0749 222.19 82.7833 222.564 82.5779C222.942 82.3726 223.352 82.2699 223.796 82.2699ZM223.516 83.2149C223.11 83.2149 222.75 83.3386 222.438 83.5859C222.13 83.8286 221.875 84.0993 221.675 84.3979V88.0519C221.866 88.3366 222.106 88.5629 222.396 88.7309C222.69 88.8943 223.012 88.9759 223.362 88.9759C223.973 88.9759 224.433 88.7426 224.741 88.2759C225.049 87.8093 225.203 87.0836 225.203 86.0989C225.203 85.4549 225.142 84.9206 225.021 84.4959C224.899 84.0666 224.715 83.7469 224.468 83.5369C224.22 83.3223 223.903 83.2149 223.516 83.2149ZM232.911 84.8949C232.911 84.1623 232.848 83.5089 232.722 82.9349C232.601 82.3563 232.417 81.8313 232.169 81.3599C231.922 80.8839 231.609 80.4313 231.231 80.0019C230.858 79.5679 230.419 79.1269 229.915 78.6789L230.531 78.0349C231.292 78.6509 231.941 79.2833 232.477 79.9319C233.014 80.5806 233.425 81.3039 233.709 82.1019C233.999 82.8999 234.143 83.8309 234.143 84.8949C234.143 85.9543 233.999 86.8829 233.709 87.6809C233.425 88.4789 233.014 89.2023 232.477 89.8509C231.941 90.4996 231.292 91.1343 230.531 91.7549L229.915 91.1109C230.415 90.6676 230.851 90.2289 231.224 89.7949C231.602 89.3656 231.915 88.9129 232.162 88.4369C232.41 87.9563 232.596 87.4289 232.722 86.8549C232.848 86.2763 232.911 85.6229 232.911 84.8949ZM237.274 85.9239V84.9019H242.888V85.9239H237.274ZM246.851 91.4119V78.3779H250.358V79.3929H247.964V90.4109H250.358V91.4119H246.851ZM255.729 87.6949C255.729 87.3916 255.836 87.1279 256.051 86.9039C256.27 86.6799 256.539 86.5679 256.856 86.5679C257.183 86.5679 257.453 86.6799 257.668 86.9039C257.887 87.1279 257.997 87.3916 257.997 87.6949C257.997 88.0123 257.887 88.2829 257.668 88.5069C257.453 88.7263 257.183 88.8359 256.856 88.8359C256.539 88.8359 256.27 88.7263 256.051 88.5069C255.836 88.2829 255.729 88.0123 255.729 87.6949ZM255.729 82.6479C255.729 82.4333 255.778 82.2419 255.876 82.0739C255.974 81.9059 256.109 81.7729 256.282 81.6749C256.455 81.5723 256.646 81.5209 256.856 81.5209C257.183 81.5209 257.453 81.6306 257.668 81.8499C257.887 82.0693 257.997 82.3353 257.997 82.6479C257.997 82.9559 257.887 83.2243 257.668 83.4529C257.453 83.6769 257.183 83.7889 256.856 83.7889C256.539 83.7889 256.27 83.6769 256.051 83.4529C255.836 83.2243 255.729 82.9559 255.729 82.6479ZM266.594 89.7949L263.199 81.3179C263.204 81.4253 263.213 81.6049 263.227 81.8569C263.246 82.1043 263.265 82.4006 263.283 82.7459C263.307 83.0866 263.325 83.4483 263.339 83.8309C263.353 84.2136 263.36 84.5916 263.36 84.9649V89.7949H262.233V80.1559H263.878L267.329 88.6679C267.325 88.5326 267.308 88.2853 267.28 87.9259C267.252 87.5619 267.227 87.1233 267.203 86.6099C267.18 86.0966 267.168 85.5529 267.168 84.9789V80.1559H268.295V89.7949H266.594ZM272.434 81.1499V84.3979H276.004V85.3989H272.434V88.8219H276.816V89.7949H271.216V80.1559H276.69L276.55 81.1499H272.434ZM278.547 80.1559H279.94L282.054 83.8589L284.175 80.1559H285.491L282.754 84.5939L285.82 89.7949H284.427L282.026 85.4409L279.597 89.7949H278.288L281.312 84.6569L278.547 80.1559ZM291.029 81.1989V89.7949H289.818V81.1989H286.808V80.1559H294.081L293.955 81.1989H291.029ZM300.467 78.3779V91.4119H296.96V90.4179H299.354V79.3929H296.96V78.3779H300.467ZM304.78 85.9309V84.8949H311.577V85.9309H304.78ZM317.032 85.9309H311.292V84.8949H317.032V85.9309ZM314.309 81.1499L318.117 85.4129L314.309 89.6759L313.441 88.9339L315.436 86.7359C315.627 86.5306 315.781 86.3719 315.898 86.2599C316.014 86.1479 316.159 86.0383 316.332 85.9309V84.8949C316.159 84.7876 316.014 84.6779 315.898 84.5659C315.781 84.4539 315.627 84.2953 315.436 84.0899L313.441 81.8919L314.309 81.1499ZM322.801 84.8949C322.801 85.6229 322.864 86.2763 322.99 86.8549C323.116 87.4289 323.303 87.9563 323.55 88.4369C323.798 88.9129 324.108 89.3656 324.481 89.7949C324.859 90.2289 325.298 90.6676 325.797 91.1109L325.181 91.7549C324.425 91.1343 323.777 90.4996 323.235 89.8509C322.699 89.2023 322.286 88.4789 321.996 87.6809C321.712 86.8829 321.569 85.9543 321.569 84.8949C321.569 83.8309 321.712 82.8999 321.996 82.1019C322.286 81.3039 322.699 80.5806 323.235 79.9319C323.777 79.2833 324.425 78.6509 325.181 78.0349L325.797 78.6789C325.293 79.1269 324.852 79.5679 324.474 80.0019C324.101 80.4313 323.791 80.8839 323.543 81.3599C323.296 81.8313 323.109 82.3563 322.983 82.9349C322.862 83.5089 322.801 84.1623 322.801 84.8949ZM331.28 87.6949C331.28 87.3916 331.387 87.1279 331.602 86.9039C331.821 86.6799 332.089 86.5679 332.407 86.5679C332.733 86.5679 333.004 86.6799 333.219 86.9039C333.438 87.1279 333.548 87.3916 333.548 87.6949C333.548 88.0123 333.438 88.2829 333.219 88.5069C333.004 88.7263 332.733 88.8359 332.407 88.8359C332.089 88.8359 331.821 88.7263 331.602 88.5069C331.387 88.2829 331.28 88.0123 331.28 87.6949ZM331.28 82.6479C331.28 82.4333 331.329 82.2419 331.427 82.0739C331.525 81.9059 331.66 81.7729 331.833 81.6749C332.005 81.5723 332.197 81.5209 332.407 81.5209C332.733 81.5209 333.004 81.6306 333.219 81.8499C333.438 82.0693 333.548 82.3353 333.548 82.6479C333.548 82.9559 333.438 83.2243 333.219 83.4529C333.004 83.6769 332.733 83.7889 332.407 83.7889C332.089 83.7889 331.821 83.6769 331.602 83.4529C331.387 83.2243 331.28 82.9559 331.28 82.6479ZM344.126 87.1279C344.126 87.6786 343.989 88.1686 343.713 88.5979C343.438 89.0226 343.039 89.3563 342.516 89.5989C341.994 89.8369 341.357 89.9559 340.605 89.9559C339.901 89.9559 339.261 89.8486 338.687 89.6339C338.118 89.4193 337.63 89.1159 337.224 88.7239L337.945 87.9119C338.281 88.2246 338.666 88.4743 339.1 88.6609C339.534 88.8429 340.043 88.9339 340.626 88.9339C341.018 88.9339 341.385 88.8709 341.725 88.7449C342.066 88.6143 342.341 88.4183 342.551 88.1569C342.761 87.8909 342.866 87.5549 342.866 87.1489C342.866 86.8363 342.806 86.5703 342.684 86.3509C342.563 86.1316 342.348 85.9379 342.04 85.7699C341.732 85.5973 341.303 85.4293 340.752 85.2659C340.118 85.0793 339.567 84.8693 339.1 84.6359C338.638 84.3979 338.279 84.1063 338.022 83.7609C337.77 83.4156 337.644 82.9886 337.644 82.4799C337.644 81.9993 337.777 81.5723 338.043 81.1989C338.309 80.8256 338.676 80.5339 339.142 80.3239C339.614 80.1093 340.155 80.0019 340.766 80.0019C341.434 80.0019 342.012 80.0976 342.502 80.2889C342.997 80.4756 343.445 80.7463 343.846 81.1009L343.132 81.8919C342.787 81.5839 342.416 81.3623 342.019 81.2269C341.623 81.0869 341.219 81.0169 340.808 81.0169C340.458 81.0169 340.136 81.0706 339.842 81.1779C339.553 81.2806 339.32 81.4369 339.142 81.6469C338.97 81.8523 338.883 82.1159 338.883 82.4379C338.883 82.7133 338.958 82.9513 339.107 83.1519C339.257 83.3526 339.509 83.5369 339.863 83.7049C340.218 83.8683 340.701 84.0409 341.312 84.2229C341.812 84.3676 342.274 84.5496 342.698 84.7689C343.128 84.9836 343.473 85.2776 343.734 85.6509C343.996 86.0196 344.126 86.5119 344.126 87.1279ZM352.269 89.4239C352.017 89.5919 351.711 89.7226 351.352 89.8159C350.992 89.9093 350.64 89.9559 350.295 89.9559C349.501 89.9559 348.89 89.7483 348.461 89.3329C348.031 88.9176 347.817 88.3833 347.817 87.7299V83.3339H346.123V82.4239H347.817V80.7509L348.993 80.6109V82.4239H351.541L351.401 83.3339H348.993V87.7159C348.993 88.1266 349.1 88.4393 349.315 88.6539C349.534 88.8686 349.896 88.9759 350.4 88.9759C350.675 88.9759 350.929 88.9433 351.163 88.8779C351.396 88.8126 351.613 88.7286 351.814 88.6259L352.269 89.4239ZM357.618 82.2699C358.314 82.2699 358.895 82.4286 359.361 82.7459C359.833 83.0586 360.185 83.5019 360.418 84.0759C360.656 84.6499 360.775 85.3266 360.775 86.1059C360.775 86.8573 360.654 87.5223 360.411 88.1009C360.169 88.6796 359.812 89.1346 359.34 89.4659C358.874 89.7926 358.295 89.9559 357.604 89.9559C356.914 89.9559 356.333 89.7973 355.861 89.4799C355.39 89.1626 355.033 88.7169 354.79 88.1429C354.552 87.5643 354.433 86.8899 354.433 86.1199C354.433 85.3593 354.555 84.6896 354.797 84.1109C355.04 83.5323 355.397 83.0819 355.868 82.7599C356.344 82.4333 356.928 82.2699 357.618 82.2699ZM357.618 83.2289C356.984 83.2289 356.503 83.4646 356.176 83.9359C355.854 84.4026 355.693 85.1306 355.693 86.1199C355.693 87.0906 355.852 87.8116 356.169 88.2829C356.491 88.7543 356.97 88.9899 357.604 88.9899C358.239 88.9899 358.715 88.7543 359.032 88.2829C359.354 87.8116 359.515 87.0859 359.515 86.1059C359.515 85.1259 359.357 84.4026 359.039 83.9359C358.722 83.4646 358.248 83.2289 357.618 83.2289ZM366.503 82.2699C367.156 82.2699 367.676 82.4286 368.064 82.7459C368.456 83.0633 368.738 83.5113 368.911 84.0899C369.083 84.6639 369.17 85.3359 369.17 86.1059C369.17 86.8479 369.065 87.5106 368.855 88.0939C368.649 88.6726 368.337 89.1276 367.917 89.4589C367.497 89.7903 366.967 89.9559 366.328 89.9559C365.52 89.9559 364.872 89.6713 364.382 89.1019V92.6159L363.206 92.7629V82.4239H364.207L364.305 83.4529C364.575 83.0749 364.897 82.7833 365.271 82.5779C365.649 82.3726 366.059 82.2699 366.503 82.2699ZM366.223 83.2149C365.817 83.2149 365.457 83.3386 365.145 83.5859C364.837 83.8286 364.582 84.0993 364.382 84.3979V88.0519C364.573 88.3366 364.813 88.5629 365.103 88.7309C365.397 88.8943 365.719 88.9759 366.069 88.9759C366.68 88.9759 367.14 88.7426 367.448 88.2759C367.756 87.8093 367.91 87.0836 367.91 86.0989C367.91 85.4549 367.849 84.9206 367.728 84.4959C367.606 84.0666 367.422 83.7469 367.175 83.5369C366.927 83.3223 366.61 83.2149 366.223 83.2149ZM375.618 84.8949C375.618 84.1623 375.555 83.5089 375.429 82.9349C375.308 82.3563 375.124 81.8313 374.876 81.3599C374.629 80.8839 374.316 80.4313 373.938 80.0019C373.565 79.5679 373.126 79.1269 372.622 78.6789L373.238 78.0349C373.999 78.6509 374.648 79.2833 375.184 79.9319C375.721 80.5806 376.132 81.3039 376.416 82.1019C376.706 82.8999 376.85 83.8309 376.85 84.8949C376.85 85.9543 376.706 86.8829 376.416 87.6809C376.132 88.4789 375.721 89.2023 375.184 89.8509C374.648 90.4996 373.999 91.1343 373.238 91.7549L372.622 91.1109C373.122 90.6676 373.558 90.2289 373.931 89.7949C374.309 89.3656 374.622 88.9129 374.869 88.4369C375.117 87.9563 375.303 87.4289 375.429 86.8549C375.555 86.2763 375.618 85.6229 375.618 84.8949Z" fill="black"/>
<path d="M206 34.7949C206 34.5188 205.776 34.2949 205.5 34.2949C205.224 34.2949 205 34.5188 205 34.7949H206ZM203.28 60.7949C203.004 60.7949 202.809 61.1331 202.947 61.3723L205.167 65.2176C205.305 65.4567 205.695 65.4567 205.833 65.2176L208.053 61.3723C208.191 61.1331 207.996 60.7949 207.72 60.7949H203.28ZM205.5 34.7949H205V61.2949H205.5H206V34.7949H205.5Z" fill="#4D5157"/>
</svg>
