<svg width="695" height="510" viewBox="0 0 695 510" fill="none" xmlns="http://www.w3.org/2000/svg">
<path d="M411.312 82.2051V74.9671H412.978V76.0031C413.09 75.8164 413.241 75.6367 413.433 75.4641C413.629 75.2914 413.869 75.1514 414.154 75.0441C414.438 74.9367 414.772 74.8831 415.155 74.8831C415.603 74.8831 416.018 74.9717 416.401 75.1491C416.788 75.3264 417.098 75.6041 417.332 75.9821C417.57 76.3601 417.689 76.8477 417.689 77.4451V82.2051H415.981V77.6481C415.981 77.1721 415.85 76.8197 415.589 76.5911C415.327 76.3577 414.998 76.2411 414.602 76.2411C414.331 76.2411 414.074 76.2877 413.832 76.3811C413.589 76.4697 413.391 76.6074 413.237 76.7941C413.087 76.9761 413.013 77.2047 413.013 77.4801V82.2051H411.312ZM421.567 82.3451C421.105 82.3451 420.689 82.2611 420.321 82.0931C419.957 81.9204 419.67 81.6754 419.46 81.3581C419.254 81.0361 419.152 80.6464 419.152 80.1891C419.152 79.3911 419.439 78.7891 420.013 78.3831C420.591 77.9771 421.511 77.7647 422.771 77.7461L423.856 77.7181V77.2281C423.856 76.8454 423.741 76.5467 423.513 76.3321C423.289 76.1127 422.939 76.0054 422.463 76.0101C422.108 76.0147 421.786 76.0987 421.497 76.2621C421.207 76.4207 421.016 76.6891 420.923 77.0671H419.474C419.502 76.5724 419.644 76.1594 419.901 75.8281C420.162 75.4921 420.519 75.2424 420.972 75.0791C421.424 74.9111 421.947 74.8271 422.54 74.8271C423.23 74.8271 423.793 74.9181 424.227 75.1001C424.661 75.2821 424.98 75.5457 425.186 75.8911C425.391 76.2317 425.494 76.6447 425.494 77.1301V82.2051H424.059L423.919 80.9031C423.662 81.4491 423.333 81.8271 422.932 82.0371C422.535 82.2424 422.08 82.3451 421.567 82.3451ZM422.12 81.1901C422.33 81.1901 422.537 81.1527 422.743 81.0781C422.948 80.9987 423.132 80.8937 423.296 80.7631C423.464 80.6277 423.597 80.4784 423.695 80.3151C423.797 80.1517 423.851 79.9814 423.856 79.8041V78.6631L422.967 78.6771C422.528 78.6817 422.143 78.7284 421.812 78.8171C421.485 78.9057 421.231 79.0481 421.049 79.2441C420.867 79.4354 420.776 79.6921 420.776 80.0141C420.776 80.3827 420.904 80.6721 421.161 80.8821C421.417 81.0874 421.737 81.1901 422.12 81.1901ZM427.308 82.2051V74.9671H428.967V76.0031C429.177 75.6857 429.461 75.4104 429.821 75.1771C430.185 74.9437 430.647 74.8271 431.207 74.8271C431.463 74.8271 431.722 74.8714 431.984 74.9601C432.25 75.0487 432.495 75.1794 432.719 75.3521C432.947 75.5247 433.129 75.7394 433.265 75.9961C433.493 75.6554 433.797 75.3754 434.175 75.1561C434.557 74.9367 434.987 74.8271 435.463 74.8271C435.724 74.8271 435.992 74.8691 436.268 74.9531C436.548 75.0371 436.804 75.1771 437.038 75.3731C437.271 75.5691 437.46 75.8374 437.605 76.1781C437.749 76.5141 437.822 76.9364 437.822 77.4451V82.2051H436.121V77.6481C436.121 77.2887 436.058 77.0064 435.932 76.8011C435.806 76.5957 435.642 76.4511 435.442 76.3671C435.246 76.2784 435.036 76.2341 434.812 76.2341C434.611 76.2341 434.401 76.2737 434.182 76.3531C433.967 76.4324 433.783 76.5631 433.629 76.7451C433.479 76.9271 433.405 77.1721 433.405 77.4801V82.2051H431.704V77.3751C431.704 77.1231 431.638 76.9131 431.508 76.7451C431.377 76.5771 431.211 76.4511 431.011 76.3671C430.815 76.2784 430.614 76.2341 430.409 76.2341C430.199 76.2341 429.984 76.2784 429.765 76.3671C429.55 76.4557 429.37 76.5911 429.226 76.7731C429.081 76.9551 429.009 77.1907 429.009 77.4801V82.2051H427.308ZM442.853 82.3451C442.157 82.3451 441.544 82.1981 441.012 81.9041C440.484 81.6054 440.071 81.1807 439.773 80.6301C439.479 80.0794 439.332 79.4237 439.332 78.6631C439.332 77.9211 439.465 77.2631 439.731 76.6891C440.001 76.1104 440.391 75.6554 440.9 75.3241C441.413 74.9927 442.031 74.8271 442.755 74.8271C443.469 74.8271 444.068 74.9787 444.554 75.2821C445.039 75.5854 445.408 76.0101 445.66 76.5561C445.912 77.0974 446.038 77.7321 446.038 78.4601V78.9781H441.033C441.028 79.3887 441.093 79.7527 441.229 80.0701C441.364 80.3874 441.565 80.6371 441.831 80.8191C442.097 80.9964 442.426 81.0851 442.818 81.0851C443.219 81.0851 443.567 80.9964 443.861 80.8191C444.159 80.6371 444.358 80.3617 444.456 79.9931H446.01C445.925 80.4971 445.725 80.9241 445.408 81.2741C445.095 81.6241 444.712 81.8901 444.26 82.0721C443.812 82.2541 443.343 82.3451 442.853 82.3451ZM441.026 77.9211H444.428C444.428 77.5711 444.365 77.2561 444.239 76.9761C444.117 76.6914 443.933 76.4674 443.686 76.3041C443.438 76.1361 443.126 76.0521 442.748 76.0521C442.374 76.0521 442.059 76.1431 441.803 76.3251C441.546 76.5071 441.352 76.7427 441.222 77.0321C441.091 77.3167 441.026 77.6131 441.026 77.9211ZM447.427 77.1371V75.1911H449.352V77.1371H447.427ZM447.427 82.1631V80.2311H449.352V82.1631H447.427ZM454.61 82.2051V72.0831C454.652 72.0831 454.775 72.0831 454.981 72.0831C455.186 72.0831 455.429 72.0831 455.709 72.0831C455.993 72.0831 456.28 72.0854 456.57 72.0901C456.864 72.0901 457.118 72.0924 457.333 72.0971C458.565 72.1204 459.566 72.3327 460.336 72.7341C461.11 73.1307 461.677 73.6977 462.037 74.4351C462.401 75.1677 462.583 76.0521 462.583 77.0881C462.583 78.1707 462.389 79.0924 462.002 79.8531C461.619 80.6137 461.031 81.1971 460.238 81.6031C459.449 82.0044 458.446 82.2051 457.228 82.2051H454.61ZM456.339 80.7981H457.256C457.951 80.7981 458.565 80.6791 459.097 80.4411C459.629 80.1984 460.044 79.8064 460.343 79.2651C460.646 78.7237 460.798 78.0004 460.798 77.0951C460.798 76.2177 460.658 75.5154 460.378 74.9881C460.098 74.4607 459.696 74.0804 459.174 73.8471C458.651 73.6091 458.026 73.4901 457.298 73.4901H456.339V80.7981ZM467.462 82.3451C466.767 82.3451 466.153 82.1981 465.621 81.9041C465.094 81.6054 464.681 81.1807 464.382 80.6301C464.088 80.0794 463.941 79.4237 463.941 78.6631C463.941 77.9211 464.074 77.2631 464.34 76.6891C464.611 76.1104 465 75.6554 465.509 75.3241C466.022 74.9927 466.641 74.8271 467.364 74.8271C468.078 74.8271 468.678 74.9787 469.163 75.2821C469.648 75.5854 470.017 76.0101 470.269 76.5561C470.521 77.0974 470.647 77.7321 470.647 78.4601V78.9781H465.642C465.637 79.3887 465.703 79.7527 465.838 80.0701C465.973 80.3874 466.174 80.6371 466.44 80.8191C466.706 80.9964 467.035 81.0851 467.427 81.0851C467.828 81.0851 468.176 80.9964 468.47 80.8191C468.769 80.6371 468.967 80.3617 469.065 79.9931H470.619C470.535 80.4971 470.334 80.9241 470.017 81.2741C469.704 81.6241 469.322 81.8901 468.869 82.0721C468.421 82.2541 467.952 82.3451 467.462 82.3451ZM465.635 77.9211H469.037C469.037 77.5711 468.974 77.2561 468.848 76.9761C468.727 76.6914 468.542 76.4674 468.295 76.3041C468.048 76.1361 467.735 76.0521 467.357 76.0521C466.984 76.0521 466.669 76.1431 466.412 76.3251C466.155 76.5071 465.962 76.7427 465.831 77.0321C465.7 77.3167 465.635 77.6131 465.635 77.9211ZM472.275 82.2051V74.9671H473.941V76.0031C474.053 75.8164 474.204 75.6367 474.396 75.4641C474.592 75.2914 474.832 75.1514 475.117 75.0441C475.401 74.9367 475.735 74.8831 476.118 74.8831C476.566 74.8831 476.981 74.9717 477.364 75.1491C477.751 75.3264 478.061 75.6041 478.295 75.9821C478.533 76.3601 478.652 76.8477 478.652 77.4451V82.2051H476.944V77.6481C476.944 77.1721 476.813 76.8197 476.552 76.5911C476.29 76.3577 475.961 76.2411 475.565 76.2411C475.294 76.2411 475.037 76.2877 474.795 76.3811C474.552 76.4697 474.354 76.6074 474.2 76.7941C474.05 76.9761 473.976 77.2047 473.976 77.4801V82.2051H472.275ZM480.478 82.2051V74.9671H482.137V76.0031C482.347 75.6857 482.631 75.4104 482.991 75.1771C483.355 74.9437 483.817 74.8271 484.377 74.8271C484.633 74.8271 484.892 74.8714 485.154 74.9601C485.42 75.0487 485.665 75.1794 485.889 75.3521C486.117 75.5247 486.299 75.7394 486.435 75.9961C486.663 75.6554 486.967 75.3754 487.345 75.1561C487.727 74.9367 488.157 74.8271 488.633 74.8271C488.894 74.8271 489.162 74.8691 489.438 74.9531C489.718 75.0371 489.974 75.1771 490.208 75.3731C490.441 75.5691 490.63 75.8374 490.775 76.1781C490.919 76.5141 490.992 76.9364 490.992 77.4451V82.2051H489.291V77.6481C489.291 77.2887 489.228 77.0064 489.102 76.8011C488.976 76.5957 488.812 76.4511 488.612 76.3671C488.416 76.2784 488.206 76.2341 487.982 76.2341C487.781 76.2341 487.571 76.2737 487.352 76.3531C487.137 76.4324 486.953 76.5631 486.799 76.7451C486.649 76.9271 486.575 77.1721 486.575 77.4801V82.2051H484.874V77.3751C484.874 77.1231 484.808 76.9131 484.678 76.7451C484.547 76.5771 484.381 76.4511 484.181 76.3671C483.985 76.2784 483.784 76.2341 483.579 76.2341C483.369 76.2341 483.154 76.2784 482.935 76.3671C482.72 76.4557 482.54 76.5911 482.396 76.7731C482.251 76.9551 482.179 77.1907 482.179 77.4801V82.2051H480.478ZM494.875 82.3451C494.413 82.3451 493.998 82.2611 493.629 82.0931C493.265 81.9204 492.978 81.6754 492.768 81.3581C492.563 81.0361 492.46 80.6464 492.46 80.1891C492.46 79.3911 492.747 78.7891 493.321 78.3831C493.9 77.9771 494.819 77.7647 496.079 77.7461L497.164 77.7181V77.2281C497.164 76.8454 497.05 76.5467 496.821 76.3321C496.597 76.1127 496.247 76.0054 495.771 76.0101C495.417 76.0147 495.095 76.0987 494.805 76.2621C494.516 76.4207 494.325 76.6891 494.231 77.0671H492.782C492.81 76.5724 492.953 76.1594 493.209 75.8281C493.471 75.4921 493.828 75.2424 494.28 75.0791C494.733 74.9111 495.256 74.8271 495.848 74.8271C496.539 74.8271 497.101 74.9181 497.535 75.1001C497.969 75.2821 498.289 75.5457 498.494 75.8911C498.7 76.2317 498.802 76.6447 498.802 77.1301V82.2051H497.367L497.227 80.9031C496.971 81.4491 496.642 81.8271 496.24 82.0371C495.844 82.2424 495.389 82.3451 494.875 82.3451ZM495.428 81.1901C495.638 81.1901 495.846 81.1527 496.051 81.0781C496.257 80.9987 496.441 80.8937 496.604 80.7631C496.772 80.6277 496.905 80.4784 497.003 80.3151C497.106 80.1517 497.16 79.9814 497.164 79.8041V78.6631L496.275 78.6771C495.837 78.6817 495.452 78.7284 495.12 78.8171C494.794 78.9057 494.539 79.0481 494.357 79.2441C494.175 79.4354 494.084 79.6921 494.084 80.0141C494.084 80.3827 494.213 80.6721 494.469 80.8821C494.726 81.0874 495.046 81.1901 495.428 81.1901ZM500.616 82.2051V74.9671H502.247V76.5351C502.364 76.1757 502.53 75.8701 502.744 75.6181C502.964 75.3614 503.22 75.1654 503.514 75.0301C503.808 74.8947 504.128 74.8271 504.473 74.8271C504.557 74.8271 504.639 74.8317 504.718 74.8411C504.798 74.8504 504.856 74.8667 504.893 74.8901V76.5211C504.842 76.4977 504.774 76.4814 504.69 76.4721C504.611 76.4627 504.541 76.4581 504.48 76.4581C504.13 76.4301 503.82 76.4441 503.549 76.5001C503.283 76.5561 503.057 76.6517 502.87 76.7871C502.688 76.9177 502.551 77.0857 502.457 77.2911C502.364 77.4917 502.317 77.7274 502.317 77.9981V82.2051H500.616ZM506.249 82.2051V71.8031H507.943V78.2501L510.946 74.9671H512.815L510.197 77.7951L512.948 82.2051H511.219L509.119 78.8521L507.943 80.0841V82.2051H506.249ZM517.774 82.2051V72.0831H519.475V76.2621H524.375V72.0831H526.076V82.2051H524.375V77.7111H519.475V82.2051H517.774ZM528.289 82.2051V74.9671H529.92V82.2051H528.289ZM528.261 73.7001V72.0901H529.948V73.7001H528.261ZM534.025 82.3101C533.558 82.3101 533.185 82.2517 532.905 82.1351C532.625 82.0184 532.415 81.8621 532.275 81.6661C532.135 81.4701 532.044 81.2507 532.002 81.0081C531.96 80.7607 531.939 80.5087 531.939 80.2521V71.8031H533.605V80.0561C533.605 80.3687 533.668 80.6114 533.794 80.7841C533.924 80.9567 534.134 81.0571 534.424 81.0851L534.788 81.0991V82.1701C534.662 82.2074 534.533 82.2401 534.403 82.2681C534.272 82.2961 534.146 82.3101 534.025 82.3101ZM538.263 82.3101C537.796 82.3101 537.423 82.2517 537.143 82.1351C536.863 82.0184 536.653 81.8621 536.513 81.6661C536.373 81.4701 536.282 81.2507 536.24 81.0081C536.198 80.7607 536.177 80.5087 536.177 80.2521V71.8031H537.843V80.0561C537.843 80.3687 537.906 80.6114 538.032 80.7841C538.163 80.9567 538.373 81.0571 538.662 81.0851L539.026 81.0991V82.1701C538.9 82.2074 538.772 82.2401 538.641 82.2681C538.51 82.2961 538.384 82.3101 538.263 82.3101Z" fill="black"/>
<path d="M341.529 479.205V471.967H343.16V473.535C343.276 473.176 343.442 472.87 343.657 472.618C343.876 472.361 344.133 472.165 344.427 472.03C344.721 471.895 345.04 471.827 345.386 471.827C345.47 471.827 345.551 471.832 345.631 471.841C345.71 471.85 345.768 471.867 345.806 471.89V473.521C345.754 473.498 345.687 473.481 345.603 473.472C345.523 473.463 345.453 473.458 345.393 473.458C345.043 473.43 344.732 473.444 344.462 473.5C344.196 473.556 343.969 473.652 343.783 473.787C343.601 473.918 343.463 474.086 343.37 474.291C343.276 474.492 343.23 474.727 343.23 474.998V479.205H341.529ZM350.815 479.352C350.017 479.352 349.32 479.233 348.722 478.995C348.13 478.752 347.668 478.412 347.336 477.973C347.005 477.534 346.839 477.019 346.839 476.426C346.839 476.039 346.935 475.668 347.126 475.313C347.322 474.958 347.572 474.66 347.875 474.417C348.179 474.17 348.491 474.013 348.813 473.948C348.379 473.752 348.015 473.472 347.721 473.108C347.427 472.739 347.28 472.287 347.28 471.75C347.28 471.148 347.434 470.639 347.742 470.224C348.05 469.804 348.47 469.487 349.002 469.272C349.539 469.053 350.143 468.943 350.815 468.943C351.487 468.943 352.089 469.053 352.621 469.272C353.153 469.487 353.573 469.804 353.881 470.224C354.194 470.639 354.35 471.148 354.35 471.75C354.35 472.287 354.206 472.739 353.916 473.108C353.627 473.472 353.261 473.752 352.817 473.948C353.139 474.013 353.452 474.17 353.755 474.417C354.059 474.66 354.308 474.958 354.504 475.313C354.7 475.668 354.798 476.039 354.798 476.426C354.798 477.019 354.633 477.534 354.301 477.973C353.975 478.412 353.51 478.752 352.908 478.995C352.311 479.233 351.613 479.352 350.815 479.352ZM350.815 478.036C351.483 478.036 352.01 477.887 352.397 477.588C352.785 477.289 352.978 476.89 352.978 476.391C352.978 476.06 352.89 475.768 352.712 475.516C352.535 475.259 352.285 475.059 351.963 474.914C351.641 474.769 351.259 474.697 350.815 474.697C350.377 474.697 349.994 474.769 349.667 474.914C349.345 475.059 349.096 475.259 348.918 475.516C348.746 475.768 348.659 476.06 348.659 476.391C348.659 476.89 348.853 477.289 349.24 477.588C349.632 477.887 350.157 478.036 350.815 478.036ZM350.815 473.269C351.347 473.269 351.781 473.134 352.117 472.863C352.458 472.588 352.628 472.205 352.628 471.715C352.628 471.23 352.458 470.845 352.117 470.56C351.777 470.275 351.343 470.133 350.815 470.133C350.288 470.133 349.852 470.275 349.506 470.56C349.166 470.845 348.995 471.23 348.995 471.715C348.995 472.205 349.166 472.588 349.506 472.863C349.852 473.134 350.288 473.269 350.815 473.269ZM310.878 503.345C309.921 503.345 309.17 503.016 308.624 502.358C308.078 501.7 307.805 500.764 307.805 499.551C307.805 498.795 307.914 498.139 308.134 497.584C308.358 497.024 308.687 496.592 309.121 496.289C309.555 495.981 310.089 495.827 310.724 495.827C311.022 495.827 311.293 495.864 311.536 495.939C311.783 496.009 312.002 496.102 312.194 496.219C312.385 496.336 312.546 496.464 312.677 496.604C312.812 496.744 312.917 496.884 312.992 497.024V492.803H314.707V503.205H313.447L313.258 501.721C313.197 501.894 313.111 502.076 312.999 502.267C312.891 502.454 312.744 502.629 312.558 502.792C312.376 502.955 312.147 503.088 311.872 503.191C311.596 503.294 311.265 503.345 310.878 503.345ZM311.228 502.092C311.839 502.092 312.285 501.894 312.565 501.497C312.849 501.096 312.992 500.433 312.992 499.509C312.987 498.982 312.922 498.538 312.796 498.179C312.674 497.82 312.488 497.549 312.236 497.367C311.984 497.185 311.655 497.094 311.249 497.094C310.735 497.094 310.313 497.283 309.982 497.661C309.655 498.039 309.492 498.655 309.492 499.509C309.492 500.358 309.643 501.002 309.947 501.441C310.25 501.875 310.677 502.092 311.228 502.092ZM316.722 503.205V495.967H318.353V503.205H316.722ZM316.694 494.7V493.09H318.381V494.7H316.694ZM323.075 503.345C322.571 503.345 322.093 503.266 321.64 503.107C321.192 502.944 320.814 502.689 320.506 502.344C320.203 501.999 320.011 501.553 319.932 501.007H321.43C321.495 501.273 321.61 501.49 321.773 501.658C321.941 501.826 322.137 501.95 322.361 502.029C322.59 502.104 322.825 502.141 323.068 502.141C323.502 502.141 323.852 502.066 324.118 501.917C324.384 501.768 324.517 501.537 324.517 501.224C324.517 500.995 324.442 500.813 324.293 500.678C324.148 500.543 323.91 500.44 323.579 500.37L322.207 500.055C321.591 499.92 321.099 499.696 320.73 499.383C320.361 499.07 320.175 498.629 320.17 498.06C320.165 497.631 320.273 497.248 320.492 496.912C320.711 496.576 321.038 496.312 321.472 496.121C321.906 495.925 322.44 495.827 323.075 495.827C323.92 495.827 324.596 496.016 325.105 496.394C325.618 496.767 325.882 497.302 325.896 497.997H324.447C324.396 497.684 324.249 497.442 324.006 497.269C323.763 497.092 323.448 497.003 323.061 497.003C322.66 497.003 322.331 497.08 322.074 497.234C321.817 497.388 321.689 497.624 321.689 497.941C321.689 498.16 321.785 498.333 321.976 498.459C322.172 498.585 322.468 498.692 322.865 498.781L324.167 499.096C324.54 499.189 324.846 499.315 325.084 499.474C325.322 499.633 325.506 499.808 325.637 499.999C325.772 500.186 325.866 500.379 325.917 500.58C325.973 500.776 326.001 500.958 326.001 501.126C326.001 501.593 325.88 501.992 325.637 502.323C325.399 502.65 325.061 502.902 324.622 503.079C324.188 503.256 323.672 503.345 323.075 503.345ZM330.372 503.261C329.798 503.261 329.352 503.186 329.035 503.037C328.722 502.883 328.505 502.666 328.384 502.386C328.263 502.106 328.202 501.772 328.202 501.385V497.171H327.026V495.967H328.251L328.678 493.818H329.903V495.96H331.52V497.171H329.903L329.91 501.322C329.91 501.537 329.933 501.695 329.98 501.798C330.031 501.896 330.111 501.961 330.218 501.994C330.33 502.022 330.477 502.036 330.659 502.036H331.555V503.114C331.457 503.151 331.312 503.184 331.121 503.212C330.934 503.245 330.685 503.261 330.372 503.261ZM335.193 503.345C334.731 503.345 334.315 503.261 333.947 503.093C333.583 502.92 333.296 502.675 333.086 502.358C332.88 502.036 332.778 501.646 332.778 501.189C332.778 500.391 333.065 499.789 333.639 499.383C334.217 498.977 335.137 498.765 336.397 498.746L337.482 498.718V498.228C337.482 497.845 337.367 497.547 337.139 497.332C336.915 497.113 336.565 497.005 336.089 497.01C335.734 497.015 335.412 497.099 335.123 497.262C334.833 497.421 334.642 497.689 334.549 498.067H333.1C333.128 497.572 333.27 497.159 333.527 496.828C333.788 496.492 334.145 496.242 334.598 496.079C335.05 495.911 335.573 495.827 336.166 495.827C336.856 495.827 337.419 495.918 337.853 496.1C338.287 496.282 338.606 496.546 338.812 496.891C339.017 497.232 339.12 497.645 339.12 498.13V503.205H337.685L337.545 501.903C337.288 502.449 336.959 502.827 336.558 503.037C336.161 503.242 335.706 503.345 335.193 503.345ZM335.746 502.19C335.956 502.19 336.163 502.153 336.369 502.078C336.574 501.999 336.758 501.894 336.922 501.763C337.09 501.628 337.223 501.478 337.321 501.315C337.423 501.152 337.477 500.981 337.482 500.804V499.663L336.593 499.677C336.154 499.682 335.769 499.728 335.438 499.817C335.111 499.906 334.857 500.048 334.675 500.244C334.493 500.435 334.402 500.692 334.402 501.014C334.402 501.383 334.53 501.672 334.787 501.882C335.043 502.087 335.363 502.19 335.746 502.19ZM340.934 503.205V495.967H342.6V497.003C342.712 496.816 342.863 496.637 343.055 496.464C343.251 496.291 343.491 496.151 343.776 496.044C344.06 495.937 344.394 495.883 344.777 495.883C345.225 495.883 345.64 495.972 346.023 496.149C346.41 496.326 346.72 496.604 346.954 496.982C347.192 497.36 347.311 497.848 347.311 498.445V503.205H345.603V498.648C345.603 498.172 345.472 497.82 345.211 497.591C344.949 497.358 344.62 497.241 344.224 497.241C343.953 497.241 343.696 497.288 343.454 497.381C343.211 497.47 343.013 497.607 342.859 497.794C342.709 497.976 342.635 498.205 342.635 498.48V503.205H340.934ZM352.175 503.345C351.512 503.345 350.922 503.2 350.404 502.911C349.891 502.617 349.487 502.192 349.193 501.637C348.899 501.077 348.752 500.403 348.752 499.614C348.752 498.863 348.89 498.205 349.165 497.64C349.445 497.071 349.839 496.627 350.348 496.31C350.861 495.988 351.47 495.827 352.175 495.827C352.74 495.827 353.237 495.939 353.666 496.163C354.095 496.387 354.438 496.697 354.695 497.094C354.956 497.491 355.113 497.941 355.164 498.445H353.715C353.678 498.226 353.596 498.018 353.47 497.822C353.344 497.621 353.174 497.46 352.959 497.339C352.749 497.213 352.492 497.15 352.189 497.15C351.643 497.15 351.202 497.351 350.866 497.752C350.53 498.153 350.362 498.769 350.362 499.6C350.362 500.365 350.521 500.974 350.838 501.427C351.16 501.88 351.62 502.106 352.217 502.106C352.516 502.106 352.772 502.041 352.987 501.91C353.202 501.775 353.37 501.609 353.491 501.413C353.617 501.212 353.696 501.012 353.729 500.811H355.143C355.101 501.301 354.949 501.737 354.688 502.12C354.427 502.503 354.081 502.804 353.652 503.023C353.223 503.238 352.73 503.345 352.175 503.345ZM359.951 503.345C359.256 503.345 358.642 503.198 358.11 502.904C357.583 502.605 357.17 502.181 356.871 501.63C356.577 501.079 356.43 500.424 356.43 499.663C356.43 498.921 356.563 498.263 356.829 497.689C357.1 497.11 357.489 496.655 357.998 496.324C358.511 495.993 359.13 495.827 359.853 495.827C360.567 495.827 361.167 495.979 361.652 496.282C362.137 496.585 362.506 497.01 362.758 497.556C363.01 498.097 363.136 498.732 363.136 499.46V499.978H358.131C358.126 500.389 358.192 500.753 358.327 501.07C358.462 501.387 358.663 501.637 358.929 501.819C359.195 501.996 359.524 502.085 359.916 502.085C360.317 502.085 360.665 501.996 360.959 501.819C361.258 501.637 361.456 501.362 361.554 500.993H363.108C363.024 501.497 362.823 501.924 362.506 502.274C362.193 502.624 361.811 502.89 361.358 503.072C360.91 503.254 360.441 503.345 359.951 503.345ZM358.124 498.921H361.526C361.526 498.571 361.463 498.256 361.337 497.976C361.216 497.691 361.031 497.467 360.784 497.304C360.537 497.136 360.224 497.052 359.846 497.052C359.473 497.052 359.158 497.143 358.901 497.325C358.644 497.507 358.451 497.743 358.32 498.032C358.189 498.317 358.124 498.613 358.124 498.921ZM364.526 498.137V496.191H366.451V498.137H364.526ZM364.526 503.163V501.231H366.451V503.163H364.526ZM372.982 503.205V495.407H371.106V494.392C371.699 494.392 372.168 494.343 372.513 494.245C372.863 494.142 373.118 493.993 373.276 493.797C373.44 493.601 373.533 493.363 373.556 493.083H374.718V503.205H372.982ZM377.077 503.205V501.245H379.002V503.205H377.077ZM385.094 503.205L385.101 500.804H380.39V499.355L385.052 493.083H386.746V499.355H388.363V500.804H386.746V503.205H385.094ZM381.986 499.355H385.087V495.197L381.986 499.355Z" fill="black"/>
<path d="M92.3498 267V259.762H93.9808V261.33C94.0975 260.971 94.2631 260.665 94.4778 260.413C94.6971 260.156 94.9538 259.96 95.2478 259.825C95.5418 259.69 95.8615 259.622 96.2068 259.622C96.2908 259.622 96.3725 259.627 96.4518 259.636C96.5311 259.645 96.5895 259.662 96.6268 259.685V261.316C96.5755 261.293 96.5078 261.276 96.4238 261.267C96.3445 261.258 96.2745 261.253 96.2138 261.253C95.8638 261.225 95.5535 261.239 95.2828 261.295C95.0168 261.351 94.7905 261.447 94.6038 261.582C94.4218 261.713 94.2841 261.881 94.1908 262.086C94.0975 262.287 94.0508 262.522 94.0508 262.793V267H92.3498ZM99.4736 267C99.5296 266.566 99.6416 266.025 99.8096 265.376C99.9823 264.723 100.218 264.004 100.517 263.22C100.815 262.431 101.186 261.617 101.63 260.777C102.073 259.937 102.591 259.111 103.184 258.299H97.6396V256.878H104.997V258.299C104.656 258.742 104.318 259.256 103.982 259.839C103.646 260.418 103.324 261.031 103.016 261.68C102.708 262.324 102.432 262.97 102.19 263.619C101.947 264.263 101.749 264.877 101.595 265.46C101.441 266.043 101.347 266.557 101.315 267H99.4736Z" fill="black"/>
<path d="M631.152 267V259.762H632.783V261.33C632.899 260.971 633.065 260.665 633.28 260.413C633.499 260.156 633.756 259.96 634.05 259.825C634.344 259.69 634.663 259.622 635.009 259.622C635.093 259.622 635.174 259.627 635.254 259.636C635.333 259.645 635.391 259.662 635.429 259.685V261.316C635.377 261.293 635.31 261.276 635.226 261.267C635.146 261.258 635.076 261.253 635.016 261.253C634.666 261.225 634.355 261.239 634.085 261.295C633.819 261.351 633.592 261.447 633.406 261.582C633.224 261.713 633.086 261.881 632.993 262.086C632.899 262.287 632.853 262.522 632.853 262.793V267H631.152ZM640.48 267.154C639.654 267.154 638.94 266.949 638.338 266.538C637.736 266.127 637.272 265.546 636.945 264.795C636.623 264.039 636.462 263.145 636.462 262.114C636.462 261.017 636.623 260.068 636.945 259.265C637.267 258.458 637.734 257.835 638.345 257.396C638.961 256.957 639.706 256.738 640.578 256.738C641.176 256.738 641.729 256.85 642.237 257.074C642.746 257.293 643.164 257.611 643.49 258.026C643.817 258.441 644.008 258.943 644.064 259.531H642.489C642.359 259.078 642.135 258.728 641.817 258.481C641.5 258.234 641.099 258.11 640.613 258.11C640.077 258.11 639.629 258.262 639.269 258.565C638.91 258.868 638.651 259.305 638.492 259.874C638.338 260.439 638.289 261.115 638.345 261.904C638.49 261.629 638.686 261.391 638.933 261.19C639.181 260.985 639.463 260.826 639.78 260.714C640.098 260.602 640.434 260.546 640.788 260.546C641.465 260.546 642.058 260.674 642.566 260.931C643.075 261.188 643.472 261.552 643.756 262.023C644.041 262.494 644.183 263.052 644.183 263.696C644.183 264.363 644.029 264.958 643.721 265.481C643.413 265.999 642.982 266.407 642.426 266.706C641.871 267.005 641.222 267.154 640.48 267.154ZM640.438 265.817C640.802 265.817 641.129 265.731 641.418 265.558C641.712 265.385 641.943 265.145 642.111 264.837C642.284 264.529 642.37 264.174 642.37 263.773C642.37 263.362 642.291 263.015 642.132 262.73C641.974 262.445 641.747 262.228 641.453 262.079C641.164 261.93 640.823 261.855 640.431 261.855C640.109 261.855 639.797 261.93 639.493 262.079C639.195 262.228 638.95 262.422 638.758 262.66C638.572 262.898 638.478 263.152 638.478 263.423C638.474 263.904 638.553 264.324 638.716 264.683C638.88 265.042 639.108 265.322 639.402 265.523C639.701 265.719 640.046 265.817 640.438 265.817Z" fill="black"/>
<path d="M156.458 82V74.762H158.124V75.798C158.236 75.6113 158.388 75.4317 158.579 75.259C158.775 75.0863 159.016 74.9463 159.3 74.839C159.585 74.7317 159.919 74.678 160.301 74.678C160.749 74.678 161.165 74.7667 161.547 74.944C161.935 75.1213 162.245 75.399 162.478 75.777C162.716 76.155 162.835 76.6427 162.835 77.24V82H161.127V77.443C161.127 76.967 160.997 76.6147 160.735 76.386C160.474 76.1527 160.145 76.036 159.748 76.036C159.478 76.036 159.221 76.0827 158.978 76.176C158.736 76.2647 158.537 76.4023 158.383 76.589C158.234 76.771 158.159 76.9997 158.159 77.275V82H156.458ZM166.713 82.14C166.251 82.14 165.836 82.056 165.467 81.888C165.103 81.7153 164.816 81.4703 164.606 81.153C164.401 80.831 164.298 80.4413 164.298 79.984C164.298 79.186 164.585 78.584 165.159 78.178C165.738 77.772 166.657 77.5597 167.917 77.541L169.002 77.513V77.023C169.002 76.6403 168.888 76.3417 168.659 76.127C168.435 75.9077 168.085 75.8003 167.609 75.805C167.255 75.8097 166.933 75.8937 166.643 76.057C166.354 76.2157 166.163 76.484 166.069 76.862H164.62C164.648 76.3673 164.791 75.9543 165.047 75.623C165.309 75.287 165.666 75.0373 166.118 74.874C166.571 74.706 167.094 74.622 167.686 74.622C168.377 74.622 168.939 74.713 169.373 74.895C169.807 75.077 170.127 75.3407 170.332 75.686C170.538 76.0267 170.64 76.4397 170.64 76.925V82H169.205L169.065 80.698C168.809 81.244 168.48 81.622 168.078 81.832C167.682 82.0373 167.227 82.14 166.713 82.14ZM167.266 80.985C167.476 80.985 167.684 80.9477 167.889 80.873C168.095 80.7937 168.279 80.6887 168.442 80.558C168.61 80.4227 168.743 80.2733 168.841 80.11C168.944 79.9467 168.998 79.7763 169.002 79.599V78.458L168.113 78.472C167.675 78.4767 167.29 78.5233 166.958 78.612C166.632 78.7007 166.377 78.843 166.195 79.039C166.013 79.2303 165.922 79.487 165.922 79.809C165.922 80.1777 166.051 80.467 166.307 80.677C166.564 80.8823 166.884 80.985 167.266 80.985ZM172.454 82V74.762H174.113V75.798C174.323 75.4807 174.608 75.2053 174.967 74.972C175.331 74.7387 175.793 74.622 176.353 74.622C176.61 74.622 176.869 74.6663 177.13 74.755C177.396 74.8437 177.641 74.9743 177.865 75.147C178.094 75.3197 178.276 75.5343 178.411 75.791C178.64 75.4503 178.943 75.1703 179.321 74.951C179.704 74.7317 180.133 74.622 180.609 74.622C180.871 74.622 181.139 74.664 181.414 74.748C181.694 74.832 181.951 74.972 182.184 75.168C182.418 75.364 182.607 75.6323 182.751 75.973C182.896 76.309 182.968 76.7313 182.968 77.24V82H181.267V77.443C181.267 77.0837 181.204 76.8013 181.078 76.596C180.952 76.3907 180.789 76.246 180.588 76.162C180.392 76.0733 180.182 76.029 179.958 76.029C179.758 76.029 179.548 76.0687 179.328 76.148C179.114 76.2273 178.929 76.358 178.775 76.54C178.626 76.722 178.551 76.967 178.551 77.275V82H176.85V77.17C176.85 76.918 176.785 76.708 176.654 76.54C176.524 76.372 176.358 76.246 176.157 76.162C175.961 76.0733 175.761 76.029 175.555 76.029C175.345 76.029 175.131 76.0733 174.911 76.162C174.697 76.2507 174.517 76.386 174.372 76.568C174.228 76.75 174.155 76.9857 174.155 77.275V82H172.454ZM187.999 82.14C187.304 82.14 186.69 81.993 186.158 81.699C185.631 81.4003 185.218 80.9757 184.919 80.425C184.625 79.8743 184.478 79.2187 184.478 78.458C184.478 77.716 184.611 77.058 184.877 76.484C185.148 75.9053 185.537 75.4503 186.046 75.119C186.559 74.7877 187.178 74.622 187.901 74.622C188.615 74.622 189.215 74.7737 189.7 75.077C190.185 75.3803 190.554 75.805 190.806 76.351C191.058 76.8923 191.184 77.527 191.184 78.255V78.773H186.179C186.174 79.1837 186.24 79.5477 186.375 79.865C186.51 80.1823 186.711 80.432 186.977 80.614C187.243 80.7913 187.572 80.88 187.964 80.88C188.365 80.88 188.713 80.7913 189.007 80.614C189.306 80.432 189.504 80.1567 189.602 79.788H191.156C191.072 80.292 190.871 80.719 190.554 81.069C190.241 81.419 189.859 81.685 189.406 81.867C188.958 82.049 188.489 82.14 187.999 82.14ZM186.172 77.716H189.574C189.574 77.366 189.511 77.051 189.385 76.771C189.264 76.4863 189.079 76.2623 188.832 76.099C188.585 75.931 188.272 75.847 187.894 75.847C187.521 75.847 187.206 75.938 186.949 76.12C186.692 76.302 186.499 76.5377 186.368 76.827C186.237 77.1117 186.172 77.408 186.172 77.716ZM192.574 76.932V74.986H194.499V76.932H192.574ZM192.574 81.958V80.026H194.499V81.958H192.574ZM203.697 82.14C202.769 82.14 201.971 81.9277 201.303 81.503C200.641 81.0737 200.13 80.467 199.77 79.683C199.416 78.8943 199.238 77.9587 199.238 76.876C199.238 75.798 199.416 74.8763 199.77 74.111C200.125 73.3457 200.634 72.76 201.296 72.354C201.964 71.9433 202.764 71.738 203.697 71.738C204.439 71.738 205.097 71.8897 205.671 72.193C206.245 72.4917 206.707 72.8977 207.057 73.411C207.412 73.9243 207.622 74.496 207.687 75.126H205.888C205.818 74.7527 205.688 74.419 205.496 74.125C205.31 73.831 205.062 73.5977 204.754 73.425C204.446 73.2523 204.078 73.166 203.648 73.166C203.112 73.166 202.654 73.2943 202.276 73.551C201.903 73.803 201.616 74.2043 201.415 74.755C201.219 75.3057 201.121 76.0197 201.121 76.897C201.121 78.227 201.341 79.1953 201.779 79.802C202.218 80.4087 202.841 80.712 203.648 80.712C204.078 80.712 204.446 80.6187 204.754 80.432C205.062 80.2407 205.31 79.9887 205.496 79.676C205.688 79.3587 205.818 79.0133 205.888 78.64H207.687C207.631 79.0973 207.515 79.536 207.337 79.956C207.165 80.376 206.92 80.7517 206.602 81.083C206.285 81.4097 205.886 81.6687 205.405 81.86C204.929 82.0467 204.36 82.14 203.697 82.14ZM211.441 82.105C210.974 82.105 210.601 82.0467 210.321 81.93C210.041 81.8133 209.831 81.657 209.691 81.461C209.551 81.265 209.46 81.0457 209.418 80.803C209.376 80.5557 209.355 80.3037 209.355 80.047V71.598H211.021V79.851C211.021 80.1637 211.084 80.4063 211.21 80.579C211.34 80.7517 211.55 80.852 211.84 80.88L212.204 80.894V81.965C212.078 82.0023 211.949 82.035 211.819 82.063C211.688 82.091 211.562 82.105 211.441 82.105ZM215.823 82.14C215.361 82.14 214.945 82.056 214.577 81.888C214.213 81.7153 213.926 81.4703 213.716 81.153C213.51 80.831 213.408 80.4413 213.408 79.984C213.408 79.186 213.695 78.584 214.269 78.178C214.847 77.772 215.767 77.5597 217.027 77.541L218.112 77.513V77.023C218.112 76.6403 217.997 76.3417 217.769 76.127C217.545 75.9077 217.195 75.8003 216.719 75.805C216.364 75.8097 216.042 75.8937 215.753 76.057C215.463 76.2157 215.272 76.484 215.179 76.862H213.73C213.758 76.3673 213.9 75.9543 214.157 75.623C214.418 75.287 214.775 75.0373 215.228 74.874C215.68 74.706 216.203 74.622 216.796 74.622C217.486 74.622 218.049 74.713 218.483 74.895C218.917 75.077 219.236 75.3407 219.442 75.686C219.647 76.0267 219.75 76.4397 219.75 76.925V82H218.315L218.175 80.698C217.918 81.244 217.589 81.622 217.188 81.832C216.791 82.0373 216.336 82.14 215.823 82.14ZM216.376 80.985C216.586 80.985 216.793 80.9477 216.999 80.873C217.204 80.7937 217.388 80.6887 217.552 80.558C217.72 80.4227 217.853 80.2733 217.951 80.11C218.053 79.9467 218.107 79.7763 218.112 79.599V78.458L217.223 78.472C216.784 78.4767 216.399 78.5233 216.068 78.612C215.741 78.7007 215.487 78.843 215.305 79.039C215.123 79.2303 215.032 79.487 215.032 79.809C215.032 80.1777 215.16 80.467 215.417 80.677C215.673 80.8823 215.993 80.985 216.376 80.985ZM221.564 84.254V74.762H223.265L223.279 75.903C223.372 75.7443 223.491 75.588 223.636 75.434C223.785 75.28 223.955 75.1423 224.147 75.021C224.343 74.8997 224.56 74.804 224.798 74.734C225.036 74.6593 225.297 74.622 225.582 74.622C226.137 74.622 226.629 74.755 227.059 75.021C227.488 75.2823 227.824 75.686 228.067 76.232C228.314 76.778 228.438 77.4687 228.438 78.304C228.438 79.158 228.312 79.8697 228.06 80.439C227.808 81.0083 227.455 81.4353 227.003 81.72C226.55 82 226.025 82.14 225.428 82.14C225.152 82.14 224.9 82.1027 224.672 82.028C224.448 81.9533 224.247 81.8507 224.07 81.72C223.892 81.5893 223.736 81.447 223.601 81.293C223.47 81.139 223.36 80.978 223.272 80.81V84.254H221.564ZM225.05 80.866C225.563 80.866 225.988 80.663 226.324 80.257C226.66 79.8463 226.828 79.2047 226.828 78.332C226.828 77.576 226.669 76.981 226.352 76.547C226.039 76.1083 225.605 75.889 225.05 75.889C224.452 75.889 224.004 76.12 223.706 76.582C223.407 77.0393 223.258 77.6227 223.258 78.332C223.258 78.7893 223.323 79.2117 223.454 79.599C223.589 79.9817 223.787 80.2897 224.049 80.523C224.315 80.7517 224.648 80.866 225.05 80.866ZM229.986 82V71.598H231.666V75.812C231.782 75.63 231.936 75.455 232.128 75.287C232.319 75.1143 232.552 74.9743 232.828 74.867C233.108 74.755 233.441 74.699 233.829 74.699C234.291 74.699 234.713 74.7877 235.096 74.965C235.478 75.1423 235.784 75.399 236.013 75.735C236.241 76.0663 236.356 76.463 236.356 76.925V82H234.648V77.212C234.648 76.8387 234.515 76.5493 234.249 76.344C233.987 76.1387 233.656 76.036 233.255 76.036C232.989 76.036 232.734 76.0827 232.492 76.176C232.249 76.2693 232.053 76.4093 231.904 76.596C231.759 76.778 231.687 77.0067 231.687 77.282V82H229.986ZM240.227 82.14C239.765 82.14 239.35 82.056 238.981 81.888C238.617 81.7153 238.33 81.4703 238.12 81.153C237.915 80.831 237.812 80.4413 237.812 79.984C237.812 79.186 238.099 78.584 238.673 78.178C239.252 77.772 240.171 77.5597 241.431 77.541L242.516 77.513V77.023C242.516 76.6403 242.402 76.3417 242.173 76.127C241.949 75.9077 241.599 75.8003 241.123 75.805C240.768 75.8097 240.446 75.8937 240.157 76.057C239.868 76.2157 239.676 76.484 239.583 76.862H238.134C238.162 76.3673 238.304 75.9543 238.561 75.623C238.822 75.287 239.179 75.0373 239.632 74.874C240.085 74.706 240.607 74.622 241.2 74.622C241.891 74.622 242.453 74.713 242.887 74.895C243.321 75.077 243.641 75.3407 243.846 75.686C244.051 76.0267 244.154 76.4397 244.154 76.925V82H242.719L242.579 80.698C242.322 81.244 241.993 81.622 241.592 81.832C241.195 82.0373 240.74 82.14 240.227 82.14ZM240.78 80.985C240.99 80.985 241.198 80.9477 241.403 80.873C241.608 80.7937 241.793 80.6887 241.956 80.558C242.124 80.4227 242.257 80.2733 242.355 80.11C242.458 79.9467 242.511 79.7763 242.516 79.599V78.458L241.627 78.472C241.188 78.4767 240.803 78.5233 240.472 78.612C240.145 78.7007 239.891 78.843 239.709 79.039C239.527 79.2303 239.436 79.487 239.436 79.809C239.436 80.1777 239.564 80.467 239.821 80.677C240.078 80.8823 240.397 80.985 240.78 80.985ZM245.968 82V74.762H247.627V75.798C247.837 75.4807 248.122 75.2053 248.481 74.972C248.845 74.7387 249.307 74.622 249.867 74.622C250.124 74.622 250.383 74.6663 250.644 74.755C250.91 74.8437 251.155 74.9743 251.379 75.147C251.608 75.3197 251.79 75.5343 251.925 75.791C252.154 75.4503 252.457 75.1703 252.835 74.951C253.218 74.7317 253.647 74.622 254.123 74.622C254.384 74.622 254.653 74.664 254.928 74.748C255.208 74.832 255.465 74.972 255.698 75.168C255.931 75.364 256.12 75.6323 256.265 75.973C256.41 76.309 256.482 76.7313 256.482 77.24V82H254.781V77.443C254.781 77.0837 254.718 76.8013 254.592 76.596C254.466 76.3907 254.303 76.246 254.102 76.162C253.906 76.0733 253.696 76.029 253.472 76.029C253.271 76.029 253.061 76.0687 252.842 76.148C252.627 76.2273 252.443 76.358 252.289 76.54C252.14 76.722 252.065 76.967 252.065 77.275V82H250.364V77.17C250.364 76.918 250.299 76.708 250.168 76.54C250.037 76.372 249.872 76.246 249.671 76.162C249.475 76.0733 249.274 76.029 249.069 76.029C248.859 76.029 248.644 76.0733 248.425 76.162C248.21 76.2507 248.031 76.386 247.886 76.568C247.741 76.75 247.669 76.9857 247.669 77.275V82H245.968ZM262.785 82.14C262.449 82.14 262.116 82.105 261.784 82.035C261.458 81.9697 261.227 81.916 261.091 81.874L261.154 80.292C261.294 80.334 261.455 80.3853 261.637 80.446C261.819 80.502 262.032 80.53 262.274 80.53C262.741 80.53 263.056 80.404 263.219 80.152C263.387 79.9 263.471 79.487 263.471 78.913V71.878H265.179V79.375C265.179 79.977 265.112 80.4833 264.976 80.894C264.846 81.3 264.608 81.6103 264.262 81.825C263.917 82.035 263.425 82.14 262.785 82.14ZM269.778 82.14C269.424 82.14 269.081 82.0887 268.749 81.986C268.423 81.8787 268.129 81.7247 267.867 81.524C267.606 81.3187 267.398 81.0667 267.244 80.768C267.09 80.4693 267.013 80.1217 267.013 79.725V74.762H268.721V79.529C268.721 79.921 268.845 80.243 269.092 80.495C269.344 80.747 269.722 80.873 270.226 80.873C270.684 80.873 271.05 80.754 271.325 80.516C271.601 80.2733 271.738 79.9257 271.738 79.473V74.762H273.432V82H272.123L271.934 80.586C271.846 80.9827 271.689 81.2953 271.465 81.524C271.246 81.748 270.987 81.9067 270.688 82C270.394 82.0933 270.091 82.14 269.778 82.14ZM275.431 82V74.762H277.097V75.798C277.209 75.6113 277.361 75.4317 277.552 75.259C277.748 75.0863 277.988 74.9463 278.273 74.839C278.558 74.7317 278.891 74.678 279.274 74.678C279.722 74.678 280.137 74.7667 280.52 74.944C280.907 75.1213 281.218 75.399 281.451 75.777C281.689 76.155 281.808 76.6427 281.808 77.24V82H280.1V77.443C280.1 76.967 279.969 76.6147 279.708 76.386C279.447 76.1527 279.118 76.036 278.721 76.036C278.45 76.036 278.194 76.0827 277.951 76.176C277.708 76.2647 277.51 76.4023 277.356 76.589C277.207 76.771 277.132 76.9997 277.132 77.275V82H275.431ZM286.672 82.14C286.009 82.14 285.419 81.9953 284.901 81.706C284.388 81.412 283.984 80.9873 283.69 80.432C283.396 79.872 283.249 79.1977 283.249 78.409C283.249 77.6577 283.387 76.9997 283.662 76.435C283.942 75.8657 284.336 75.4223 284.845 75.105C285.358 74.783 285.967 74.622 286.672 74.622C287.237 74.622 287.734 74.734 288.163 74.958C288.592 75.182 288.935 75.4923 289.192 75.889C289.453 76.2857 289.61 76.736 289.661 77.24H288.212C288.175 77.0207 288.093 76.813 287.967 76.617C287.841 76.4163 287.671 76.2553 287.456 76.134C287.246 76.008 286.989 75.945 286.686 75.945C286.14 75.945 285.699 76.1457 285.363 76.547C285.027 76.9483 284.859 77.5643 284.859 78.395C284.859 79.1603 285.018 79.7693 285.335 80.222C285.657 80.6747 286.117 80.901 286.714 80.901C287.013 80.901 287.269 80.8357 287.484 80.705C287.699 80.5697 287.867 80.404 287.988 80.208C288.114 80.0073 288.193 79.8067 288.226 79.606H289.64C289.598 80.096 289.446 80.5323 289.185 80.915C288.924 81.2977 288.578 81.5987 288.149 81.818C287.72 82.0327 287.227 82.14 286.672 82.14ZM293.908 82.056C293.334 82.056 292.888 81.9813 292.571 81.832C292.258 81.678 292.041 81.461 291.92 81.181C291.799 80.901 291.738 80.5673 291.738 80.18V75.966H290.562V74.762H291.787L292.214 72.613H293.439V74.755H295.056V75.966H293.439L293.446 80.117C293.446 80.3317 293.469 80.4903 293.516 80.593C293.567 80.691 293.647 80.7563 293.754 80.789C293.866 80.817 294.013 80.831 294.195 80.831H295.091V81.909C294.993 81.9463 294.848 81.979 294.657 82.007C294.47 82.0397 294.221 82.056 293.908 82.056ZM296.691 82V74.762H298.322V82H296.691ZM296.663 73.495V71.885H298.35V73.495H296.663ZM303.311 82.14C302.62 82.14 302.018 81.993 301.505 81.699C300.991 81.4003 300.592 80.9733 300.308 80.418C300.028 79.8627 299.888 79.1953 299.888 78.416C299.888 77.66 300.025 76.9973 300.301 76.428C300.576 75.8587 300.968 75.4153 301.477 75.098C301.99 74.7807 302.604 74.622 303.318 74.622C304.008 74.622 304.608 74.7737 305.117 75.077C305.625 75.3803 306.017 75.8143 306.293 76.379C306.573 76.9437 306.713 77.6227 306.713 78.416C306.713 79.1487 306.58 79.795 306.314 80.355C306.052 80.9103 305.667 81.3467 305.159 81.664C304.655 81.9813 304.039 82.14 303.311 82.14ZM303.318 80.845C303.71 80.845 304.032 80.7377 304.284 80.523C304.54 80.3083 304.732 80.0143 304.858 79.641C304.984 79.2677 305.047 78.843 305.047 78.367C305.047 77.9237 304.991 77.5153 304.879 77.142C304.767 76.7687 304.582 76.47 304.326 76.246C304.074 76.0173 303.738 75.903 303.318 75.903C302.921 75.903 302.592 76.008 302.331 76.218C302.074 76.4233 301.883 76.7127 301.757 77.086C301.631 77.4547 301.568 77.8817 301.568 78.367C301.568 78.8057 301.624 79.214 301.736 79.592C301.848 79.9653 302.032 80.2687 302.289 80.502C302.545 80.7307 302.888 80.845 303.318 80.845ZM308.271 82V74.762H309.937V75.798C310.049 75.6113 310.2 75.4317 310.392 75.259C310.588 75.0863 310.828 74.9463 311.113 74.839C311.397 74.7317 311.731 74.678 312.114 74.678C312.562 74.678 312.977 74.7667 313.36 74.944C313.747 75.1213 314.057 75.399 314.291 75.777C314.529 76.155 314.648 76.6427 314.648 77.24V82H312.94V77.443C312.94 76.967 312.809 76.6147 312.548 76.386C312.286 76.1527 311.957 76.036 311.561 76.036C311.29 76.036 311.033 76.0827 310.791 76.176C310.548 76.2647 310.35 76.4023 310.196 76.589C310.046 76.771 309.972 76.9997 309.972 77.275V82H308.271Z" fill="black"/>
<path d="M15 77C15 41.6538 43.6538 13 79 13V13C114.346 13 143 41.6538 143 77V77C143 112.346 114.346 141 79 141V141C43.6538 141 15 112.346 15 77V77Z" fill="#FFDF81"/>
<g filter="url(#filter0_d_812_1189)">
<path d="M79 8C117.108 8 148 38.8924 148 77C148 115.108 117.108 146 79 146C40.8924 146 10 115.108 10 77C10 38.8924 40.8924 8 79 8Z" stroke="#30839D" stroke-width="4" shape-rendering="crispEdges"/>
</g>
<path d="M71.6765 82V74.762H72.9295V75.812C73.0461 75.6113 73.2071 75.4223 73.4125 75.245C73.6225 75.0677 73.8745 74.9253 74.1685 74.818C74.4671 74.7107 74.8101 74.657 75.1975 74.657C75.6548 74.657 76.0748 74.748 76.4575 74.93C76.8448 75.112 77.1528 75.3967 77.3815 75.784C77.6148 76.1667 77.7315 76.6613 77.7315 77.268V82H76.4365V77.394C76.4365 76.8293 76.2871 76.4117 75.9885 76.141C75.6945 75.8657 75.3118 75.728 74.8405 75.728C74.5138 75.728 74.2081 75.7817 73.9235 75.889C73.6388 75.9917 73.4078 76.1503 73.2305 76.365C73.0531 76.575 72.9645 76.841 72.9645 77.163V82H71.6765ZM83.2075 82.154C82.4235 82.154 81.7422 81.951 81.1635 81.545C80.5895 81.139 80.1439 80.5603 79.8265 79.809C79.5139 79.053 79.3575 78.1477 79.3575 77.093C79.3575 76.0103 79.5092 75.0677 79.8125 74.265C80.1205 73.4623 80.5685 72.8417 81.1565 72.403C81.7445 71.9597 82.4655 71.738 83.3195 71.738C83.8795 71.738 84.3952 71.843 84.8665 72.053C85.3425 72.263 85.7369 72.564 86.0495 72.956C86.3622 73.348 86.5559 73.8217 86.6305 74.377H85.4125C85.2772 73.8963 85.0322 73.516 84.6775 73.236C84.3229 72.956 83.8772 72.816 83.3405 72.816C82.7432 72.816 82.2439 72.9863 81.8425 73.327C81.4459 73.663 81.1565 74.1577 80.9745 74.811C80.7925 75.4597 80.7295 76.2577 80.7855 77.205C80.9115 76.8643 81.1029 76.5657 81.3595 76.309C81.6209 76.0477 81.9242 75.847 82.2695 75.707C82.6149 75.5623 82.9882 75.49 83.3895 75.49C84.0569 75.49 84.6402 75.6207 85.1395 75.882C85.6389 76.1387 86.0285 76.5073 86.3085 76.988C86.5885 77.464 86.7285 78.0333 86.7285 78.696C86.7285 79.3727 86.5839 79.9723 86.2945 80.495C86.0099 81.013 85.6039 81.419 85.0765 81.713C84.5492 82.007 83.9262 82.154 83.2075 82.154ZM83.1935 81.083C83.6089 81.083 83.9775 80.985 84.2995 80.789C84.6215 80.593 84.8735 80.32 85.0555 79.97C85.2422 79.62 85.3355 79.2163 85.3355 78.759C85.3355 78.297 85.2515 77.9003 85.0835 77.569C84.9202 77.2377 84.6775 76.9833 84.3555 76.806C84.0335 76.6287 83.6415 76.54 83.1795 76.54C82.8109 76.54 82.4562 76.6287 82.1155 76.806C81.7795 76.9787 81.5042 77.2073 81.2895 77.492C81.0795 77.7767 80.9745 78.0917 80.9745 78.437C80.9699 78.9503 81.0585 79.4077 81.2405 79.809C81.4272 80.2057 81.6885 80.5183 82.0245 80.747C82.3605 80.971 82.7502 81.083 83.1935 81.083Z" fill="#1A1B1D"/>
<path d="M552 77C552 41.6538 580.654 13 616 13V13C651.346 13 680 41.6538 680 77V77C680 112.346 651.346 141 616 141V141C580.654 141 552 112.346 552 77V77Z" fill="#FFDF81"/>
<g filter="url(#filter1_d_812_1189)">
<path d="M616 8C654.108 8 685 38.8924 685 77C685 115.108 654.108 146 616 146C577.892 146 547 115.108 547 77C547 38.8924 577.892 8 616 8Z" stroke="#30839D" stroke-width="4" shape-rendering="crispEdges"/>
</g>
<path d="M610.18 82V74.762H611.433V75.812C611.55 75.6113 611.711 75.4223 611.916 75.245C612.126 75.0677 612.378 74.9253 612.672 74.818C612.971 74.7107 613.314 74.657 613.701 74.657C614.159 74.657 614.579 74.748 614.961 74.93C615.349 75.112 615.657 75.3967 615.885 75.784C616.119 76.1667 616.235 76.6613 616.235 77.268V82H614.94V77.394C614.94 76.8293 614.791 76.4117 614.492 76.141C614.198 75.8657 613.816 75.728 613.344 75.728C613.018 75.728 612.712 75.7817 612.427 75.889C612.143 75.9917 611.912 76.1503 611.734 76.365C611.557 76.575 611.468 76.841 611.468 77.163V82H610.18ZM619.793 82V73.943H617.84V73.096C618.447 73.096 618.918 73.0517 619.254 72.963C619.59 72.8743 619.828 72.739 619.968 72.557C620.113 72.375 620.192 72.1487 620.206 71.878H621.13V82H619.793Z" fill="#1A1B1D"/>
<path d="M15 446C15 410.654 43.6538 382 79 382V382C114.346 382 143 410.654 143 446V446C143 481.346 114.346 510 79 510V510C43.6538 510 15 481.346 15 446V446Z" fill="#8DCC93"/>
<path d="M71.4987 451V443.762H72.7517V444.812C72.8684 444.611 73.0294 444.422 73.2347 444.245C73.4447 444.068 73.6967 443.925 73.9907 443.818C74.2894 443.711 74.6324 443.657 75.0197 443.657C75.4771 443.657 75.8971 443.748 76.2797 443.93C76.6671 444.112 76.9751 444.397 77.2037 444.784C77.4371 445.167 77.5537 445.661 77.5537 446.268V451H76.2587V446.394C76.2587 445.829 76.1094 445.412 75.8107 445.141C75.5167 444.866 75.1341 444.728 74.6627 444.728C74.3361 444.728 74.0304 444.782 73.7457 444.889C73.4611 444.992 73.2301 445.15 73.0527 445.365C72.8754 445.575 72.7867 445.841 72.7867 446.163V451H71.4987ZM83.0368 451.154C82.2621 451.154 81.5855 451.035 81.0068 450.797C80.4281 450.554 79.9778 450.216 79.6558 449.782C79.3385 449.348 79.1798 448.839 79.1798 448.256C79.1798 447.864 79.2778 447.488 79.4738 447.129C79.6745 446.77 79.9311 446.464 80.2438 446.212C80.5565 445.96 80.8831 445.801 81.2238 445.736C80.7618 445.54 80.3791 445.255 80.0758 444.882C79.7771 444.509 79.6278 444.047 79.6278 443.496C79.6278 442.908 79.7771 442.409 80.0758 441.998C80.3745 441.587 80.7805 441.275 81.2938 441.06C81.8118 440.845 82.3928 440.738 83.0368 440.738C83.6855 440.738 84.2665 440.845 84.7798 441.06C85.2931 441.275 85.6991 441.587 85.9978 441.998C86.2965 442.409 86.4458 442.908 86.4458 443.496C86.4458 444.047 86.2965 444.509 85.9978 444.882C85.7038 445.255 85.3235 445.54 84.8568 445.736C85.1975 445.801 85.5218 445.96 85.8298 446.212C86.1425 446.464 86.3991 446.77 86.5998 447.129C86.8005 447.488 86.9008 447.864 86.9008 448.256C86.9008 448.839 86.7398 449.348 86.4178 449.782C86.1005 450.216 85.6525 450.554 85.0738 450.797C84.4951 451.035 83.8161 451.154 83.0368 451.154ZM83.0368 450.104C83.7881 450.104 84.3878 449.936 84.8358 449.6C85.2838 449.259 85.5078 448.809 85.5078 448.249C85.5078 447.88 85.4051 447.551 85.1998 447.262C84.9991 446.973 84.7145 446.746 84.3458 446.583C83.9771 446.415 83.5408 446.331 83.0368 446.331C82.5375 446.331 82.1035 446.415 81.7348 446.583C81.3708 446.746 81.0861 446.973 80.8808 447.262C80.6801 447.551 80.5798 447.88 80.5798 448.249C80.5798 448.809 80.8015 449.259 81.2448 449.6C81.6928 449.936 82.2901 450.104 83.0368 450.104ZM83.0368 445.19C83.6528 445.19 84.1521 445.038 84.5348 444.735C84.9221 444.432 85.1158 444.009 85.1158 443.468C85.1158 442.922 84.9221 442.493 84.5348 442.18C84.1475 441.863 83.6481 441.704 83.0368 441.704C82.4255 441.704 81.9261 441.863 81.5388 442.18C81.1515 442.497 80.9578 442.927 80.9578 443.468C80.9578 444.009 81.1515 444.432 81.5388 444.735C81.9261 445.038 82.4255 445.19 83.0368 445.19Z" fill="#1A1B1D"/>
<path d="M552 446C552 410.654 580.654 382 616 382V382C651.346 382 680 410.654 680 446V446C680 481.346 651.346 510 616 510V510C580.654 510 552 481.346 552 446V446Z" fill="#8DCC93"/>
<path d="M609.052 451V443.762H610.305V444.812C610.422 444.611 610.583 444.422 610.788 444.245C610.998 444.068 611.25 443.925 611.544 443.818C611.843 443.711 612.186 443.657 612.573 443.657C613.031 443.657 613.451 443.748 613.833 443.93C614.221 444.112 614.529 444.397 614.757 444.784C614.991 445.167 615.107 445.661 615.107 446.268V451H613.812V446.394C613.812 445.829 613.663 445.412 613.364 445.141C613.07 444.866 612.688 444.728 612.216 444.728C611.89 444.728 611.584 444.782 611.299 444.889C611.015 444.992 610.784 445.15 610.606 445.365C610.429 445.575 610.34 445.841 610.34 446.163V451H609.052ZM618.088 451C618.163 450.538 618.296 449.966 618.487 449.285C618.683 448.604 618.94 447.859 619.257 447.052C619.575 446.24 619.957 445.402 620.405 444.539C620.853 443.676 621.367 442.829 621.945 441.998H616.261V440.878H623.366V441.998C623.007 442.488 622.65 443.046 622.295 443.671C621.945 444.292 621.612 444.943 621.294 445.624C620.977 446.301 620.692 446.97 620.44 447.633C620.188 448.291 619.978 448.912 619.81 449.495C619.647 450.074 619.542 450.575 619.495 451H618.088Z" fill="#1A1B1D"/>
<path d="M548.5 447C549.052 447 549.5 446.552 549.5 446C549.5 445.448 549.052 445 548.5 445V447ZM145.793 445.293C145.402 445.683 145.402 446.317 145.793 446.707L152.157 453.071C152.547 453.462 153.181 453.462 153.571 453.071C153.962 452.681 153.962 452.047 153.571 451.657L147.914 446L153.571 440.343C153.962 439.953 153.962 439.319 153.571 438.929C153.181 438.538 152.547 438.538 152.157 438.929L145.793 445.293ZM548.5 446V445H146.5V446V447H548.5V446Z" fill="#1A1B1D"/>
<path d="M615 378.5C615 379.052 615.448 379.5 616 379.5C616.552 379.5 617 379.052 617 378.5H615ZM616.707 143.793C616.317 143.402 615.683 143.402 615.293 143.793L608.929 150.157C608.538 150.547 608.538 151.181 608.929 151.571C609.319 151.962 609.953 151.962 610.343 151.571L616 145.914L621.657 151.571C622.047 151.962 622.681 151.962 623.071 151.571C623.462 151.181 623.462 150.547 623.071 150.157L616.707 143.793ZM616 378.5H617V144.5H616H615V378.5H616Z" fill="#1A1B1D"/>
<path d="M78 378.5C78 379.052 78.4477 379.5 79 379.5C79.5523 379.5 80 379.052 80 378.5H78ZM79.7071 143.793C79.3166 143.402 78.6834 143.402 78.2929 143.793L71.9289 150.157C71.5384 150.547 71.5384 151.181 71.9289 151.571C72.3195 151.962 72.9526 151.962 73.3431 151.571L79 145.914L84.6569 151.571C85.0474 151.962 85.6805 151.962 86.0711 151.571C86.4616 151.181 86.4616 150.547 86.0711 150.157L79.7071 143.793ZM79 378.5H80V144.5H79H78V378.5H79Z" fill="#1A1B1D"/>
<defs>
<filter id="filter0_d_812_1189" x="0" y="2" width="158" height="158" filterUnits="userSpaceOnUse" color-interpolation-filters="sRGB">
<feFlood flood-opacity="0" result="BackgroundImageFix"/>
<feColorMatrix in="SourceAlpha" type="matrix" values="0 0 0 0 0 0 0 0 0 0 0 0 0 0 0 0 0 0 127 0" result="hardAlpha"/>
<feOffset dy="4"/>
<feGaussianBlur stdDeviation="4"/>
<feComposite in2="hardAlpha" operator="out"/>
<feColorMatrix type="matrix" values="0 0 0 0 0.101961 0 0 0 0 0.105882 0 0 0 0 0.113725 0 0 0 0.12 0"/>
<feBlend mode="normal" in2="BackgroundImageFix" result="effect1_dropShadow_812_1189"/>
<feBlend mode="normal" in="SourceGraphic" in2="effect1_dropShadow_812_1189" result="shape"/>
</filter>
<filter id="filter1_d_812_1189" x="537" y="2" width="158" height="158" filterUnits="userSpaceOnUse" color-interpolation-filters="sRGB">
<feFlood flood-opacity="0" result="BackgroundImageFix"/>
<feColorMatrix in="SourceAlpha" type="matrix" values="0 0 0 0 0 0 0 0 0 0 0 0 0 0 0 0 0 0 127 0" result="hardAlpha"/>
<feOffset dy="4"/>
<feGaussianBlur stdDeviation="4"/>
<feComposite in2="hardAlpha" operator="out"/>
<feColorMatrix type="matrix" values="0 0 0 0 0.101961 0 0 0 0 0.105882 0 0 0 0 0.113725 0 0 0 0.12 0"/>
<feBlend mode="normal" in2="BackgroundImageFix" result="effect1_dropShadow_812_1189"/>
<feBlend mode="normal" in="SourceGraphic" in2="effect1_dropShadow_812_1189" result="shape"/>
</filter>
</defs>
</svg>
