<svg width="373" height="144" viewBox="0 0 373 144" fill="none" xmlns="http://www.w3.org/2000/svg">
<rect x="320" y="68" width="41" height="20" fill="#E7FAFB"/>
<rect x="9" y="68" width="302" height="20" fill="#FFE9E7"/>
<path d="M139.966 19.254V9.762H141.667L141.681 10.903C141.774 10.7443 141.893 10.588 142.038 10.434C142.187 10.28 142.358 10.1423 142.549 10.021C142.745 9.89967 142.962 9.804 143.2 9.734C143.438 9.65933 143.699 9.622 143.984 9.622C144.539 9.622 145.032 9.755 145.461 10.021C145.89 10.2823 146.226 10.686 146.469 11.232C146.716 11.778 146.84 12.4687 146.84 13.304C146.84 14.158 146.714 14.8697 146.462 15.439C146.21 16.0083 145.858 16.4353 145.405 16.72C144.952 17 144.427 17.14 143.83 17.14C143.555 17.14 143.303 17.1027 143.074 17.028C142.85 16.9533 142.649 16.8507 142.472 16.72C142.295 16.5893 142.138 16.447 142.003 16.293C141.872 16.139 141.763 15.978 141.674 15.81V19.254H139.966ZM143.452 15.866C143.965 15.866 144.39 15.663 144.726 15.257C145.062 14.8463 145.23 14.2047 145.23 13.332C145.23 12.576 145.071 11.981 144.754 11.547C144.441 11.1083 144.007 10.889 143.452 10.889C142.855 10.889 142.407 11.12 142.108 11.582C141.809 12.0393 141.66 12.6227 141.66 13.332C141.66 13.7893 141.725 14.2117 141.856 14.599C141.991 14.9817 142.19 15.2897 142.451 15.523C142.717 15.7517 143.051 15.866 143.452 15.866ZM150.413 17.14C149.951 17.14 149.535 17.056 149.167 16.888C148.803 16.7153 148.516 16.4703 148.306 16.153C148.1 15.831 147.998 15.4413 147.998 14.984C147.998 14.186 148.285 13.584 148.859 13.178C149.437 12.772 150.357 12.5597 151.617 12.541L152.702 12.513V12.023C152.702 11.6403 152.587 11.3417 152.359 11.127C152.135 10.9077 151.785 10.8003 151.309 10.805C150.954 10.8097 150.632 10.8937 150.343 11.057C150.053 11.2157 149.862 11.484 149.769 11.862H148.32C148.348 11.3673 148.49 10.9543 148.747 10.623C149.008 10.287 149.365 10.0373 149.818 9.874C150.27 9.706 150.793 9.622 151.386 9.622C152.076 9.622 152.639 9.713 153.073 9.895C153.507 10.077 153.826 10.3407 154.032 10.686C154.237 11.0267 154.34 11.4397 154.34 11.925V17H152.905L152.765 15.698C152.508 16.244 152.179 16.622 151.778 16.832C151.381 17.0373 150.926 17.14 150.413 17.14ZM150.966 15.985C151.176 15.985 151.383 15.9477 151.589 15.873C151.794 15.7937 151.978 15.6887 152.142 15.558C152.31 15.4227 152.443 15.2733 152.541 15.11C152.643 14.9467 152.697 14.7763 152.702 14.599V13.458L151.813 13.472C151.374 13.4767 150.989 13.5233 150.658 13.612C150.331 13.7007 150.077 13.843 149.895 14.039C149.713 14.2303 149.622 14.487 149.622 14.809C149.622 15.1777 149.75 15.467 150.007 15.677C150.263 15.8823 150.583 15.985 150.966 15.985ZM158.771 17.056C158.197 17.056 157.752 16.9813 157.434 16.832C157.122 16.678 156.905 16.461 156.783 16.181C156.662 15.901 156.601 15.5673 156.601 15.18V10.966H155.425V9.762H156.65L157.077 7.613H158.302V9.755H159.919V10.966H158.302L158.309 15.117C158.309 15.3317 158.333 15.4903 158.379 15.593C158.431 15.691 158.51 15.7563 158.617 15.789C158.729 15.817 158.876 15.831 159.058 15.831H159.954V16.909C159.856 16.9463 159.712 16.979 159.52 17.007C159.334 17.0397 159.084 17.056 158.771 17.056ZM161.527 17V6.598H163.207V10.812C163.323 10.63 163.477 10.455 163.669 10.287C163.86 10.1143 164.093 9.97433 164.369 9.867C164.649 9.755 164.982 9.699 165.37 9.699C165.832 9.699 166.254 9.78767 166.637 9.965C167.019 10.1423 167.325 10.399 167.554 10.735C167.782 11.0663 167.897 11.463 167.897 11.925V17H166.189V12.212C166.189 11.8387 166.056 11.5493 165.79 11.344C165.528 11.1387 165.197 11.036 164.796 11.036C164.53 11.036 164.275 11.0827 164.033 11.176C163.79 11.2693 163.594 11.4093 163.445 11.596C163.3 11.778 163.228 12.0067 163.228 12.282V17H161.527ZM172.984 19.254V9.762H174.685L174.699 10.903C174.792 10.7443 174.911 10.588 175.056 10.434C175.205 10.28 175.375 10.1423 175.567 10.021C175.763 9.89967 175.98 9.804 176.218 9.734C176.456 9.65933 176.717 9.622 177.002 9.622C177.557 9.622 178.049 9.755 178.479 10.021C178.908 10.2823 179.244 10.686 179.487 11.232C179.734 11.778 179.858 12.4687 179.858 13.304C179.858 14.158 179.732 14.8697 179.48 15.439C179.228 16.0083 178.875 16.4353 178.423 16.72C177.97 17 177.445 17.14 176.848 17.14C176.572 17.14 176.32 17.1027 176.092 17.028C175.868 16.9533 175.667 16.8507 175.49 16.72C175.312 16.5893 175.156 16.447 175.021 16.293C174.89 16.139 174.78 15.978 174.692 15.81V19.254H172.984ZM176.47 15.866C176.983 15.866 177.408 15.663 177.744 15.257C178.08 14.8463 178.248 14.2047 178.248 13.332C178.248 12.576 178.089 11.981 177.772 11.547C177.459 11.1083 177.025 10.889 176.47 10.889C175.872 10.889 175.424 11.12 175.126 11.582C174.827 12.0393 174.678 12.6227 174.678 13.332C174.678 13.7893 174.743 14.2117 174.874 14.599C175.009 14.9817 175.207 15.2897 175.469 15.523C175.735 15.7517 176.068 15.866 176.47 15.866ZM183.43 17.14C182.968 17.14 182.553 17.056 182.184 16.888C181.82 16.7153 181.533 16.4703 181.323 16.153C181.118 15.831 181.015 15.4413 181.015 14.984C181.015 14.186 181.302 13.584 181.876 13.178C182.455 12.772 183.374 12.5597 184.634 12.541L185.719 12.513V12.023C185.719 11.6403 185.605 11.3417 185.376 11.127C185.152 10.9077 184.802 10.8003 184.326 10.805C183.971 10.8097 183.649 10.8937 183.36 11.057C183.071 11.2157 182.879 11.484 182.786 11.862H181.337C181.365 11.3673 181.507 10.9543 181.764 10.623C182.025 10.287 182.382 10.0373 182.835 9.874C183.288 9.706 183.81 9.622 184.403 9.622C185.094 9.622 185.656 9.713 186.09 9.895C186.524 10.077 186.844 10.3407 187.049 10.686C187.254 11.0267 187.357 11.4397 187.357 11.925V17H185.922L185.782 15.698C185.525 16.244 185.196 16.622 184.795 16.832C184.398 17.0373 183.943 17.14 183.43 17.14ZM183.983 15.985C184.193 15.985 184.401 15.9477 184.606 15.873C184.811 15.7937 184.996 15.6887 185.159 15.558C185.327 15.4227 185.46 15.2733 185.558 15.11C185.661 14.9467 185.714 14.7763 185.719 14.599V13.458L184.83 13.472C184.391 13.4767 184.006 13.5233 183.675 13.612C183.348 13.7007 183.094 13.843 182.912 14.039C182.73 14.2303 182.639 14.487 182.639 14.809C182.639 15.1777 182.767 15.467 183.024 15.677C183.281 15.8823 183.6 15.985 183.983 15.985ZM191.789 17.056C191.215 17.056 190.769 16.9813 190.452 16.832C190.139 16.678 189.922 16.461 189.801 16.181C189.68 15.901 189.619 15.5673 189.619 15.18V10.966H188.443V9.762H189.668L190.095 7.613H191.32V9.755H192.937V10.966H191.32L191.327 15.117C191.327 15.3317 191.35 15.4903 191.397 15.593C191.448 15.691 191.528 15.7563 191.635 15.789C191.747 15.817 191.894 15.831 192.076 15.831H192.972V16.909C192.874 16.9463 192.729 16.979 192.538 17.007C192.351 17.0397 192.102 17.056 191.789 17.056ZM196.861 17.056C196.287 17.056 195.842 16.9813 195.524 16.832C195.212 16.678 194.995 16.461 194.873 16.181C194.752 15.901 194.691 15.5673 194.691 15.18V10.966H193.515V9.762H194.74L195.167 7.613H196.392V9.755H198.009V10.966H196.392L196.399 15.117C196.399 15.3317 196.423 15.4903 196.469 15.593C196.521 15.691 196.6 15.7563 196.707 15.789C196.819 15.817 196.966 15.831 197.148 15.831H198.044V16.909C197.946 16.9463 197.802 16.979 197.61 17.007C197.424 17.0397 197.174 17.056 196.861 17.056ZM202.61 17.14C201.915 17.14 201.301 16.993 200.769 16.699C200.242 16.4003 199.829 15.9757 199.53 15.425C199.236 14.8743 199.089 14.2187 199.089 13.458C199.089 12.716 199.222 12.058 199.488 11.484C199.759 10.9053 200.149 10.4503 200.657 10.119C201.171 9.78767 201.789 9.622 202.512 9.622C203.226 9.622 203.826 9.77367 204.311 10.077C204.797 10.3803 205.165 10.805 205.417 11.351C205.669 11.8923 205.795 12.527 205.795 13.255V13.773H200.79C200.786 14.1837 200.851 14.5477 200.986 14.865C201.122 15.1823 201.322 15.432 201.588 15.614C201.854 15.7913 202.183 15.88 202.575 15.88C202.977 15.88 203.324 15.7913 203.618 15.614C203.917 15.432 204.115 15.1567 204.213 14.788H205.767C205.683 15.292 205.483 15.719 205.165 16.069C204.853 16.419 204.47 16.685 204.017 16.867C203.569 17.049 203.1 17.14 202.61 17.14ZM200.783 12.716H204.185C204.185 12.366 204.122 12.051 203.996 11.771C203.875 11.4863 203.691 11.2623 203.443 11.099C203.196 10.931 202.883 10.847 202.505 10.847C202.132 10.847 201.817 10.938 201.56 11.12C201.304 11.302 201.11 11.5377 200.979 11.827C200.849 12.1117 200.783 12.408 200.783 12.716ZM207.423 17V9.762H209.054V11.33C209.171 10.9707 209.336 10.665 209.551 10.413C209.77 10.1563 210.027 9.96033 210.321 9.825C210.615 9.68967 210.935 9.622 211.28 9.622C211.364 9.622 211.446 9.62667 211.525 9.636C211.604 9.64533 211.663 9.66167 211.7 9.685V11.316C211.649 11.2927 211.581 11.2763 211.497 11.267C211.418 11.2577 211.348 11.253 211.287 11.253C210.937 11.225 210.627 11.239 210.356 11.295C210.09 11.351 209.864 11.4467 209.677 11.582C209.495 11.7127 209.357 11.8807 209.264 12.086C209.171 12.2867 209.124 12.5223 209.124 12.793V17H207.423ZM213.056 17V9.762H214.722V10.798C214.834 10.6113 214.986 10.4317 215.177 10.259C215.373 10.0863 215.613 9.94633 215.898 9.839C216.183 9.73167 216.516 9.678 216.899 9.678C217.347 9.678 217.762 9.76667 218.145 9.944C218.532 10.1213 218.843 10.399 219.076 10.777C219.314 11.155 219.433 11.6427 219.433 12.24V17H217.725V12.443C217.725 11.967 217.594 11.6147 217.333 11.386C217.072 11.1527 216.743 11.036 216.346 11.036C216.075 11.036 215.819 11.0827 215.576 11.176C215.333 11.2647 215.135 11.4023 214.981 11.589C214.832 11.771 214.757 11.9997 214.757 12.275V17H213.056Z" fill="black"/>
<path d="M313.754 19.254V15.81C313.665 15.978 313.553 16.139 313.418 16.293C313.287 16.447 313.131 16.5893 312.949 16.72C312.772 16.8507 312.571 16.9533 312.347 17.028C312.123 17.1027 311.873 17.14 311.598 17.14C311.038 17.14 310.529 17.0093 310.072 16.748C309.615 16.482 309.251 16.069 308.98 15.509C308.714 14.9443 308.581 14.2093 308.581 13.304C308.581 12.5107 308.695 11.841 308.924 11.295C309.153 10.7443 309.479 10.329 309.904 10.049C310.333 9.76433 310.847 9.622 311.444 9.622C311.724 9.622 311.983 9.65933 312.221 9.734C312.464 9.804 312.681 9.89967 312.872 10.021C313.068 10.1423 313.238 10.28 313.383 10.434C313.528 10.588 313.649 10.7443 313.747 10.903L313.761 9.762H315.462V19.254H313.754ZM311.976 15.866C312.373 15.866 312.704 15.7517 312.97 15.523C313.236 15.2897 313.434 14.9817 313.565 14.599C313.696 14.2117 313.761 13.7893 313.761 13.332C313.761 12.6227 313.612 12.0393 313.313 11.582C313.019 11.12 312.573 10.889 311.976 10.889C311.467 10.889 311.043 11.092 310.702 11.498C310.366 11.904 310.198 12.5153 310.198 13.332C310.198 14.144 310.354 14.7693 310.667 15.208C310.984 15.6467 311.421 15.866 311.976 15.866ZM320.048 17.14C319.693 17.14 319.35 17.0887 319.019 16.986C318.692 16.8787 318.398 16.7247 318.137 16.524C317.876 16.3187 317.668 16.0667 317.514 15.768C317.36 15.4693 317.283 15.1217 317.283 14.725V9.762H318.991V14.529C318.991 14.921 319.115 15.243 319.362 15.495C319.614 15.747 319.992 15.873 320.496 15.873C320.953 15.873 321.32 15.754 321.595 15.516C321.87 15.2733 322.008 14.9257 322.008 14.473V9.762H323.702V17H322.393L322.204 15.586C322.115 15.9827 321.959 16.2953 321.735 16.524C321.516 16.748 321.257 16.9067 320.958 17C320.664 17.0933 320.361 17.14 320.048 17.14ZM327.725 17.14C327.263 17.14 326.848 17.056 326.479 16.888C326.115 16.7153 325.828 16.4703 325.618 16.153C325.413 15.831 325.31 15.4413 325.31 14.984C325.31 14.186 325.597 13.584 326.171 13.178C326.75 12.772 327.669 12.5597 328.929 12.541L330.014 12.513V12.023C330.014 11.6403 329.9 11.3417 329.671 11.127C329.447 10.9077 329.097 10.8003 328.621 10.805C328.266 10.8097 327.944 10.8937 327.655 11.057C327.366 11.2157 327.174 11.484 327.081 11.862H325.632C325.66 11.3673 325.802 10.9543 326.059 10.623C326.32 10.287 326.677 10.0373 327.13 9.874C327.583 9.706 328.105 9.622 328.698 9.622C329.389 9.622 329.951 9.713 330.385 9.895C330.819 10.077 331.139 10.3407 331.344 10.686C331.549 11.0267 331.652 11.4397 331.652 11.925V17H330.217L330.077 15.698C329.82 16.244 329.491 16.622 329.09 16.832C328.693 17.0373 328.238 17.14 327.725 17.14ZM328.278 15.985C328.488 15.985 328.696 15.9477 328.901 15.873C329.106 15.7937 329.291 15.6887 329.454 15.558C329.622 15.4227 329.755 15.2733 329.853 15.11C329.956 14.9467 330.009 14.7763 330.014 14.599V13.458L329.125 13.472C328.686 13.4767 328.301 13.5233 327.97 13.612C327.643 13.7007 327.389 13.843 327.207 14.039C327.025 14.2303 326.934 14.487 326.934 14.809C326.934 15.1777 327.062 15.467 327.319 15.677C327.576 15.8823 327.895 15.985 328.278 15.985ZM333.466 17V9.762H335.132V10.798C335.244 10.6113 335.396 10.4317 335.587 10.259C335.783 10.0863 336.023 9.94633 336.308 9.839C336.593 9.73167 336.926 9.678 337.309 9.678C337.757 9.678 338.172 9.76667 338.555 9.944C338.942 10.1213 339.253 10.399 339.486 10.777C339.724 11.155 339.843 11.6427 339.843 12.24V17H338.135V12.443C338.135 11.967 338.004 11.6147 337.743 11.386C337.482 11.1527 337.153 11.036 336.756 11.036C336.485 11.036 336.229 11.0827 335.986 11.176C335.743 11.2647 335.545 11.4023 335.391 11.589C335.242 11.771 335.167 11.9997 335.167 12.275V17H333.466ZM344.287 17.056C343.713 17.056 343.267 16.9813 342.95 16.832C342.637 16.678 342.42 16.461 342.299 16.181C342.178 15.901 342.117 15.5673 342.117 15.18V10.966H340.941V9.762H342.166L342.593 7.613H343.818V9.755H345.435V10.966H343.818L343.825 15.117C343.825 15.3317 343.848 15.4903 343.895 15.593C343.946 15.691 344.026 15.7563 344.133 15.789C344.245 15.817 344.392 15.831 344.574 15.831H345.47V16.909C345.372 16.9463 345.227 16.979 345.036 17.007C344.849 17.0397 344.6 17.056 344.287 17.056ZM347.07 17V9.762H348.701V17H347.07ZM347.042 8.495V6.885H348.729V8.495H347.042ZM351.534 17V10.966H350.106V9.762H351.534V8.684C351.534 8.10533 351.692 7.65967 352.01 7.347C352.332 7.03433 352.796 6.878 353.403 6.878H354.929L354.936 8.04H353.928C353.652 8.04 353.463 8.11233 353.361 8.257C353.258 8.397 353.207 8.61867 353.207 8.922V9.762H354.866V10.966H353.235V17H351.534ZM356.231 17V9.762H357.862V17H356.231ZM356.203 8.495V6.885H357.89V8.495H356.203ZM363.011 17.14C362.315 17.14 361.702 16.993 361.17 16.699C360.642 16.4003 360.229 15.9757 359.931 15.425C359.637 14.8743 359.49 14.2187 359.49 13.458C359.49 12.716 359.623 12.058 359.889 11.484C360.159 10.9053 360.549 10.4503 361.058 10.119C361.571 9.78767 362.189 9.622 362.913 9.622C363.627 9.622 364.226 9.77367 364.712 10.077C365.197 10.3803 365.566 10.805 365.818 11.351C366.07 11.8923 366.196 12.527 366.196 13.255V13.773H361.191C361.186 14.1837 361.251 14.5477 361.387 14.865C361.522 15.1823 361.723 15.432 361.989 15.614C362.255 15.7913 362.584 15.88 362.976 15.88C363.377 15.88 363.725 15.7913 364.019 15.614C364.317 15.432 364.516 15.1567 364.614 14.788H366.168C366.084 15.292 365.883 15.719 365.566 16.069C365.253 16.419 364.87 16.685 364.418 16.867C363.97 17.049 363.501 17.14 363.011 17.14ZM361.184 12.716H364.586C364.586 12.366 364.523 12.051 364.397 11.771C364.275 11.4863 364.091 11.2623 363.844 11.099C363.596 10.931 363.284 10.847 362.906 10.847C362.532 10.847 362.217 10.938 361.961 11.12C361.704 11.302 361.51 11.5377 361.38 11.827C361.249 12.1117 361.184 12.408 361.184 12.716ZM367.823 17V9.762H369.454V11.33C369.571 10.9707 369.737 10.665 369.951 10.413C370.171 10.1563 370.427 9.96033 370.721 9.825C371.015 9.68967 371.335 9.622 371.68 9.622C371.764 9.622 371.846 9.62667 371.925 9.636C372.005 9.64533 372.063 9.66167 372.1 9.685V11.316C372.049 11.2927 371.981 11.2763 371.897 11.267C371.818 11.2577 371.748 11.253 371.687 11.253C371.337 11.225 371.027 11.239 370.756 11.295C370.49 11.351 370.264 11.4467 370.077 11.582C369.895 11.7127 369.758 11.8807 369.664 12.086C369.571 12.2867 369.524 12.5223 369.524 12.793V17H367.823Z" fill="black"/>
<path d="M110.754 139.254V135.81C110.665 135.978 110.553 136.139 110.418 136.293C110.287 136.447 110.131 136.589 109.949 136.72C109.772 136.851 109.571 136.953 109.347 137.028C109.123 137.103 108.873 137.14 108.598 137.14C108.038 137.14 107.529 137.009 107.072 136.748C106.615 136.482 106.251 136.069 105.98 135.509C105.714 134.944 105.581 134.209 105.581 133.304C105.581 132.511 105.695 131.841 105.924 131.295C106.153 130.744 106.479 130.329 106.904 130.049C107.333 129.764 107.847 129.622 108.444 129.622C108.724 129.622 108.983 129.659 109.221 129.734C109.464 129.804 109.681 129.9 109.872 130.021C110.068 130.142 110.238 130.28 110.383 130.434C110.528 130.588 110.649 130.744 110.747 130.903L110.761 129.762H112.462V139.254H110.754ZM108.976 135.866C109.373 135.866 109.704 135.752 109.97 135.523C110.236 135.29 110.434 134.982 110.565 134.599C110.696 134.212 110.761 133.789 110.761 133.332C110.761 132.623 110.612 132.039 110.313 131.582C110.019 131.12 109.573 130.889 108.976 130.889C108.467 130.889 108.043 131.092 107.702 131.498C107.366 131.904 107.198 132.515 107.198 133.332C107.198 134.144 107.354 134.769 107.667 135.208C107.984 135.647 108.421 135.866 108.976 135.866ZM117.048 137.14C116.693 137.14 116.35 137.089 116.019 136.986C115.692 136.879 115.398 136.725 115.137 136.524C114.876 136.319 114.668 136.067 114.514 135.768C114.36 135.469 114.283 135.122 114.283 134.725V129.762H115.991V134.529C115.991 134.921 116.115 135.243 116.362 135.495C116.614 135.747 116.992 135.873 117.496 135.873C117.953 135.873 118.32 135.754 118.595 135.516C118.87 135.273 119.008 134.926 119.008 134.473V129.762H120.702V137H119.393L119.204 135.586C119.115 135.983 118.959 136.295 118.735 136.524C118.516 136.748 118.257 136.907 117.958 137C117.664 137.093 117.361 137.14 117.048 137.14ZM124.725 137.14C124.263 137.14 123.848 137.056 123.479 136.888C123.115 136.715 122.828 136.47 122.618 136.153C122.413 135.831 122.31 135.441 122.31 134.984C122.31 134.186 122.597 133.584 123.171 133.178C123.75 132.772 124.669 132.56 125.929 132.541L127.014 132.513V132.023C127.014 131.64 126.9 131.342 126.671 131.127C126.447 130.908 126.097 130.8 125.621 130.805C125.266 130.81 124.944 130.894 124.655 131.057C124.366 131.216 124.174 131.484 124.081 131.862H122.632C122.66 131.367 122.802 130.954 123.059 130.623C123.32 130.287 123.677 130.037 124.13 129.874C124.583 129.706 125.105 129.622 125.698 129.622C126.389 129.622 126.951 129.713 127.385 129.895C127.819 130.077 128.139 130.341 128.344 130.686C128.549 131.027 128.652 131.44 128.652 131.925V137H127.217L127.077 135.698C126.82 136.244 126.491 136.622 126.09 136.832C125.693 137.037 125.238 137.14 124.725 137.14ZM125.278 135.985C125.488 135.985 125.696 135.948 125.901 135.873C126.106 135.794 126.291 135.689 126.454 135.558C126.622 135.423 126.755 135.273 126.853 135.11C126.956 134.947 127.009 134.776 127.014 134.599V133.458L126.125 133.472C125.686 133.477 125.301 133.523 124.97 133.612C124.643 133.701 124.389 133.843 124.207 134.039C124.025 134.23 123.934 134.487 123.934 134.809C123.934 135.178 124.062 135.467 124.319 135.677C124.576 135.882 124.895 135.985 125.278 135.985ZM130.466 137V129.762H132.132V130.798C132.244 130.611 132.396 130.432 132.587 130.259C132.783 130.086 133.023 129.946 133.308 129.839C133.593 129.732 133.926 129.678 134.309 129.678C134.757 129.678 135.172 129.767 135.555 129.944C135.942 130.121 136.253 130.399 136.486 130.777C136.724 131.155 136.843 131.643 136.843 132.24V137H135.135V132.443C135.135 131.967 135.004 131.615 134.743 131.386C134.482 131.153 134.153 131.036 133.756 131.036C133.485 131.036 133.229 131.083 132.986 131.176C132.743 131.265 132.545 131.402 132.391 131.589C132.242 131.771 132.167 132 132.167 132.275V137H130.466ZM141.287 137.056C140.713 137.056 140.267 136.981 139.95 136.832C139.637 136.678 139.42 136.461 139.299 136.181C139.178 135.901 139.117 135.567 139.117 135.18V130.966H137.941V129.762H139.166L139.593 127.613H140.818V129.755H142.435V130.966H140.818L140.825 135.117C140.825 135.332 140.848 135.49 140.895 135.593C140.946 135.691 141.026 135.756 141.133 135.789C141.245 135.817 141.392 135.831 141.574 135.831H142.47V136.909C142.372 136.946 142.227 136.979 142.036 137.007C141.849 137.04 141.6 137.056 141.287 137.056ZM144.07 137V129.762H145.701V137H144.07ZM144.042 128.495V126.885H145.729V128.495H144.042ZM148.534 137V130.966H147.106V129.762H148.534V128.684C148.534 128.105 148.692 127.66 149.01 127.347C149.332 127.034 149.796 126.878 150.403 126.878H151.929L151.936 128.04H150.928C150.652 128.04 150.463 128.112 150.361 128.257C150.258 128.397 150.207 128.619 150.207 128.922V129.762H151.866V130.966H150.235V137H148.534ZM153.231 137V129.762H154.862V137H153.231ZM153.203 128.495V126.885H154.89V128.495H153.203ZM160.011 137.14C159.315 137.14 158.702 136.993 158.17 136.699C157.642 136.4 157.229 135.976 156.931 135.425C156.637 134.874 156.49 134.219 156.49 133.458C156.49 132.716 156.623 132.058 156.889 131.484C157.159 130.905 157.549 130.45 158.058 130.119C158.571 129.788 159.189 129.622 159.913 129.622C160.627 129.622 161.226 129.774 161.712 130.077C162.197 130.38 162.566 130.805 162.818 131.351C163.07 131.892 163.196 132.527 163.196 133.255V133.773H158.191C158.186 134.184 158.251 134.548 158.387 134.865C158.522 135.182 158.723 135.432 158.989 135.614C159.255 135.791 159.584 135.88 159.976 135.88C160.377 135.88 160.725 135.791 161.019 135.614C161.317 135.432 161.516 135.157 161.614 134.788H163.168C163.084 135.292 162.883 135.719 162.566 136.069C162.253 136.419 161.87 136.685 161.418 136.867C160.97 137.049 160.501 137.14 160.011 137.14ZM158.184 132.716H161.586C161.586 132.366 161.523 132.051 161.397 131.771C161.275 131.486 161.091 131.262 160.844 131.099C160.596 130.931 160.284 130.847 159.906 130.847C159.532 130.847 159.217 130.938 158.961 131.12C158.704 131.302 158.51 131.538 158.38 131.827C158.249 132.112 158.184 132.408 158.184 132.716ZM167.511 137.14C166.555 137.14 165.803 136.811 165.257 136.153C164.711 135.495 164.438 134.559 164.438 133.346C164.438 132.59 164.548 131.934 164.767 131.379C164.991 130.819 165.32 130.387 165.754 130.084C166.188 129.776 166.723 129.622 167.357 129.622C167.656 129.622 167.927 129.659 168.169 129.734C168.417 129.804 168.636 129.897 168.827 130.014C169.019 130.131 169.18 130.259 169.31 130.399C169.446 130.539 169.551 130.679 169.625 130.819V126.598H171.34V137H170.08L169.891 135.516C169.831 135.689 169.744 135.871 169.632 136.062C169.525 136.249 169.378 136.424 169.191 136.587C169.009 136.75 168.781 136.883 168.505 136.986C168.23 137.089 167.899 137.14 167.511 137.14ZM167.861 135.887C168.473 135.887 168.918 135.689 169.198 135.292C169.483 134.891 169.625 134.228 169.625 133.304C169.621 132.777 169.555 132.333 169.429 131.974C169.308 131.615 169.121 131.344 168.869 131.162C168.617 130.98 168.288 130.889 167.882 130.889C167.369 130.889 166.947 131.078 166.615 131.456C166.289 131.834 166.125 132.45 166.125 133.304C166.125 134.153 166.277 134.797 166.58 135.236C166.884 135.67 167.311 135.887 167.861 135.887ZM176.527 139.254V129.762H178.228L178.242 130.903C178.335 130.744 178.454 130.588 178.599 130.434C178.748 130.28 178.918 130.142 179.11 130.021C179.306 129.9 179.523 129.804 179.761 129.734C179.999 129.659 180.26 129.622 180.545 129.622C181.1 129.622 181.592 129.755 182.022 130.021C182.451 130.282 182.787 130.686 183.03 131.232C183.277 131.778 183.401 132.469 183.401 133.304C183.401 134.158 183.275 134.87 183.023 135.439C182.771 136.008 182.418 136.435 181.966 136.72C181.513 137 180.988 137.14 180.391 137.14C180.115 137.14 179.863 137.103 179.635 137.028C179.411 136.953 179.21 136.851 179.033 136.72C178.855 136.589 178.699 136.447 178.564 136.293C178.433 136.139 178.323 135.978 178.235 135.81V139.254H176.527ZM180.013 135.866C180.526 135.866 180.951 135.663 181.287 135.257C181.623 134.846 181.791 134.205 181.791 133.332C181.791 132.576 181.632 131.981 181.315 131.547C181.002 131.108 180.568 130.889 180.013 130.889C179.415 130.889 178.967 131.12 178.669 131.582C178.37 132.039 178.221 132.623 178.221 133.332C178.221 133.789 178.286 134.212 178.417 134.599C178.552 134.982 178.75 135.29 179.012 135.523C179.278 135.752 179.611 135.866 180.013 135.866ZM186.973 137.14C186.511 137.14 186.096 137.056 185.727 136.888C185.363 136.715 185.076 136.47 184.866 136.153C184.661 135.831 184.558 135.441 184.558 134.984C184.558 134.186 184.845 133.584 185.419 133.178C185.998 132.772 186.917 132.56 188.177 132.541L189.262 132.513V132.023C189.262 131.64 189.148 131.342 188.919 131.127C188.695 130.908 188.345 130.8 187.869 130.805C187.514 130.81 187.192 130.894 186.903 131.057C186.614 131.216 186.422 131.484 186.329 131.862H184.88C184.908 131.367 185.05 130.954 185.307 130.623C185.568 130.287 185.925 130.037 186.378 129.874C186.831 129.706 187.353 129.622 187.946 129.622C188.637 129.622 189.199 129.713 189.633 129.895C190.067 130.077 190.387 130.341 190.592 130.686C190.797 131.027 190.9 131.44 190.9 131.925V137H189.465L189.325 135.698C189.068 136.244 188.739 136.622 188.338 136.832C187.941 137.037 187.486 137.14 186.973 137.14ZM187.526 135.985C187.736 135.985 187.944 135.948 188.149 135.873C188.354 135.794 188.539 135.689 188.702 135.558C188.87 135.423 189.003 135.273 189.101 135.11C189.204 134.947 189.257 134.776 189.262 134.599V133.458L188.373 133.472C187.934 133.477 187.549 133.523 187.218 133.612C186.891 133.701 186.637 133.843 186.455 134.039C186.273 134.23 186.182 134.487 186.182 134.809C186.182 135.178 186.31 135.467 186.567 135.677C186.824 135.882 187.143 135.985 187.526 135.985ZM195.332 137.056C194.758 137.056 194.312 136.981 193.995 136.832C193.682 136.678 193.465 136.461 193.344 136.181C193.223 135.901 193.162 135.567 193.162 135.18V130.966H191.986V129.762H193.211L193.638 127.613H194.863V129.755H196.48V130.966H194.863L194.87 135.117C194.87 135.332 194.893 135.49 194.94 135.593C194.991 135.691 195.071 135.756 195.178 135.789C195.29 135.817 195.437 135.831 195.619 135.831H196.515V136.909C196.417 136.946 196.272 136.979 196.081 137.007C195.894 137.04 195.645 137.056 195.332 137.056ZM198.087 137V126.598H199.767V130.812C199.884 130.63 200.038 130.455 200.229 130.287C200.42 130.114 200.654 129.974 200.929 129.867C201.209 129.755 201.543 129.699 201.93 129.699C202.392 129.699 202.814 129.788 203.197 129.965C203.58 130.142 203.885 130.399 204.114 130.735C204.343 131.066 204.457 131.463 204.457 131.925V137H202.749V132.212C202.749 131.839 202.616 131.549 202.35 131.344C202.089 131.139 201.757 131.036 201.356 131.036C201.09 131.036 200.836 131.083 200.593 131.176C200.35 131.269 200.154 131.409 200.005 131.596C199.86 131.778 199.788 132.007 199.788 132.282V137H198.087ZM209.544 139.254V129.762H211.245L211.259 130.903C211.352 130.744 211.471 130.588 211.616 130.434C211.765 130.28 211.936 130.142 212.127 130.021C212.323 129.9 212.54 129.804 212.778 129.734C213.016 129.659 213.277 129.622 213.562 129.622C214.117 129.622 214.61 129.755 215.039 130.021C215.468 130.282 215.804 130.686 216.047 131.232C216.294 131.778 216.418 132.469 216.418 133.304C216.418 134.158 216.292 134.87 216.04 135.439C215.788 136.008 215.436 136.435 214.983 136.72C214.53 137 214.005 137.14 213.408 137.14C213.133 137.14 212.881 137.103 212.652 137.028C212.428 136.953 212.227 136.851 212.05 136.72C211.873 136.589 211.716 136.447 211.581 136.293C211.45 136.139 211.341 135.978 211.252 135.81V139.254H209.544ZM213.03 135.866C213.543 135.866 213.968 135.663 214.304 135.257C214.64 134.846 214.808 134.205 214.808 133.332C214.808 132.576 214.649 131.981 214.332 131.547C214.019 131.108 213.585 130.889 213.03 130.889C212.433 130.889 211.985 131.12 211.686 131.582C211.387 132.039 211.238 132.623 211.238 133.332C211.238 133.789 211.303 134.212 211.434 134.599C211.569 134.982 211.768 135.29 212.029 135.523C212.295 135.752 212.629 135.866 213.03 135.866ZM219.991 137.14C219.529 137.14 219.113 137.056 218.745 136.888C218.381 136.715 218.094 136.47 217.884 136.153C217.678 135.831 217.576 135.441 217.576 134.984C217.576 134.186 217.863 133.584 218.437 133.178C219.015 132.772 219.935 132.56 221.195 132.541L222.28 132.513V132.023C222.28 131.64 222.165 131.342 221.937 131.127C221.713 130.908 221.363 130.8 220.887 130.805C220.532 130.81 220.21 130.894 219.921 131.057C219.631 131.216 219.44 131.484 219.347 131.862H217.898C217.926 131.367 218.068 130.954 218.325 130.623C218.586 130.287 218.943 130.037 219.396 129.874C219.848 129.706 220.371 129.622 220.964 129.622C221.654 129.622 222.217 129.713 222.651 129.895C223.085 130.077 223.404 130.341 223.61 130.686C223.815 131.027 223.918 131.44 223.918 131.925V137H222.483L222.343 135.698C222.086 136.244 221.757 136.622 221.356 136.832C220.959 137.037 220.504 137.14 219.991 137.14ZM220.544 135.985C220.754 135.985 220.961 135.948 221.167 135.873C221.372 135.794 221.556 135.689 221.72 135.558C221.888 135.423 222.021 135.273 222.119 135.11C222.221 134.947 222.275 134.776 222.28 134.599V133.458L221.391 133.472C220.952 133.477 220.567 133.523 220.236 133.612C219.909 133.701 219.655 133.843 219.473 134.039C219.291 134.23 219.2 134.487 219.2 134.809C219.2 135.178 219.328 135.467 219.585 135.677C219.841 135.882 220.161 135.985 220.544 135.985ZM228.35 137.056C227.776 137.056 227.33 136.981 227.013 136.832C226.7 136.678 226.483 136.461 226.362 136.181C226.24 135.901 226.18 135.567 226.18 135.18V130.966H225.004V129.762H226.229L226.656 127.613H227.881V129.755H229.498V130.966H227.881L227.888 135.117C227.888 135.332 227.911 135.49 227.958 135.593C228.009 135.691 228.088 135.756 228.196 135.789C228.308 135.817 228.455 135.831 228.637 135.831H229.533V136.909C229.435 136.946 229.29 136.979 229.099 137.007C228.912 137.04 228.662 137.056 228.35 137.056ZM233.422 137.056C232.848 137.056 232.402 136.981 232.085 136.832C231.772 136.678 231.555 136.461 231.434 136.181C231.312 135.901 231.252 135.567 231.252 135.18V130.966H230.076V129.762H231.301L231.728 127.613H232.953V129.755H234.57V130.966H232.953L232.96 135.117C232.96 135.332 232.983 135.49 233.03 135.593C233.081 135.691 233.16 135.756 233.268 135.789C233.38 135.817 233.527 135.831 233.709 135.831H234.605V136.909C234.507 136.946 234.362 136.979 234.171 137.007C233.984 137.04 233.734 137.056 233.422 137.056ZM239.171 137.14C238.476 137.14 237.862 136.993 237.33 136.699C236.803 136.4 236.39 135.976 236.091 135.425C235.797 134.874 235.65 134.219 235.65 133.458C235.65 132.716 235.783 132.058 236.049 131.484C236.32 130.905 236.709 130.45 237.218 130.119C237.731 129.788 238.35 129.622 239.073 129.622C239.787 129.622 240.387 129.774 240.872 130.077C241.357 130.38 241.726 130.805 241.978 131.351C242.23 131.892 242.356 132.527 242.356 133.255V133.773H237.351C237.346 134.184 237.412 134.548 237.547 134.865C237.682 135.182 237.883 135.432 238.149 135.614C238.415 135.791 238.744 135.88 239.136 135.88C239.537 135.88 239.885 135.791 240.179 135.614C240.478 135.432 240.676 135.157 240.774 134.788H242.328C242.244 135.292 242.043 135.719 241.726 136.069C241.413 136.419 241.031 136.685 240.578 136.867C240.13 137.049 239.661 137.14 239.171 137.14ZM237.344 132.716H240.746C240.746 132.366 240.683 132.051 240.557 131.771C240.436 131.486 240.251 131.262 240.004 131.099C239.757 130.931 239.444 130.847 239.066 130.847C238.693 130.847 238.378 130.938 238.121 131.12C237.864 131.302 237.671 131.538 237.54 131.827C237.409 132.112 237.344 132.408 237.344 132.716ZM243.984 137V129.762H245.615V131.33C245.731 130.971 245.897 130.665 246.112 130.413C246.331 130.156 246.588 129.96 246.882 129.825C247.176 129.69 247.495 129.622 247.841 129.622C247.925 129.622 248.006 129.627 248.086 129.636C248.165 129.645 248.223 129.662 248.261 129.685V131.316C248.209 131.293 248.142 131.276 248.058 131.267C247.978 131.258 247.908 131.253 247.848 131.253C247.498 131.225 247.187 131.239 246.917 131.295C246.651 131.351 246.424 131.447 246.238 131.582C246.056 131.713 245.918 131.881 245.825 132.086C245.731 132.287 245.685 132.522 245.685 132.793V137H243.984ZM249.616 137V129.762H251.282V130.798C251.394 130.611 251.546 130.432 251.737 130.259C251.933 130.086 252.174 129.946 252.458 129.839C252.743 129.732 253.077 129.678 253.459 129.678C253.907 129.678 254.323 129.767 254.705 129.944C255.093 130.121 255.403 130.399 255.636 130.777C255.874 131.155 255.993 131.643 255.993 132.24V137H254.285V132.443C254.285 131.967 254.155 131.615 253.893 131.386C253.632 131.153 253.303 131.036 252.906 131.036C252.636 131.036 252.379 131.083 252.136 131.176C251.894 131.265 251.695 131.402 251.541 131.589C251.392 131.771 251.317 132 251.317 132.275V137H249.616Z" fill="black"/>
<path d="M2.99258 78.1C2.99258 78.828 3.05558 79.4813 3.18158 80.06C3.30758 80.634 3.49424 81.1613 3.74158 81.642C3.98891 82.118 4.29925 82.5707 4.67258 83C5.05058 83.434 5.48925 83.8727 5.98858 84.316L5.37258 84.96C4.61658 84.3393 3.96791 83.7047 3.42658 83.056C2.88991 82.4073 2.47691 81.684 2.18758 80.886C1.90291 80.088 1.76058 79.1593 1.76058 78.1C1.76058 77.036 1.90291 76.105 2.18758 75.307C2.47691 74.509 2.88991 73.7857 3.42658 73.137C3.96791 72.4883 4.61658 71.856 5.37258 71.24L5.98858 71.884C5.48458 72.332 5.04358 72.773 4.66558 73.207C4.29225 73.6363 3.98191 74.089 3.73458 74.565C3.48724 75.0363 3.30058 75.5613 3.17458 76.14C3.05324 76.714 2.99258 77.3673 2.99258 78.1ZM11.3871 78.1C11.3871 78.828 11.4501 79.4813 11.5761 80.06C11.7021 80.634 11.8888 81.1613 12.1361 81.642C12.3834 82.118 12.6938 82.5707 13.0671 83C13.4451 83.434 13.8838 83.8727 14.3831 84.316L13.7671 84.96C13.0111 84.3393 12.3624 83.7047 11.8211 83.056C11.2844 82.4073 10.8714 81.684 10.5821 80.886C10.2974 80.088 10.1551 79.1593 10.1551 78.1C10.1551 77.036 10.2974 76.105 10.5821 75.307C10.8714 74.509 11.2844 73.7857 11.8211 73.137C12.3624 72.4883 13.0111 71.856 13.7671 71.24L14.3831 71.884C13.8791 72.332 13.4381 72.773 13.0601 73.207C12.6868 73.6363 12.3764 74.089 12.1291 74.565C11.8818 75.0363 11.6951 75.5613 11.5691 76.14C11.4478 76.714 11.3871 77.3673 11.3871 78.1ZM19.5086 83H17.1146L19.6626 79.094L17.3526 75.566H19.8306L21.0206 77.946L22.1686 75.566H24.5206L22.3366 79.01L24.8986 83H22.3926L20.9226 80.221L19.5086 83ZM28.2602 80.9C28.2602 80.5967 28.3675 80.333 28.5822 80.109C28.8015 79.885 29.0698 79.773 29.3872 79.773C29.7138 79.773 29.9845 79.885 30.1992 80.109C30.4185 80.333 30.5282 80.5967 30.5282 80.9C30.5282 81.2173 30.4185 81.488 30.1992 81.712C29.9845 81.9313 29.7138 82.041 29.3872 82.041C29.0698 82.041 28.8015 81.9313 28.5822 81.712C28.3675 81.488 28.2602 81.2173 28.2602 80.9ZM28.2602 75.853C28.2602 75.6383 28.3092 75.447 28.4072 75.279C28.5052 75.111 28.6405 74.978 28.8132 74.88C28.9858 74.7773 29.1772 74.726 29.3872 74.726C29.7138 74.726 29.9845 74.8357 30.1992 75.055C30.4185 75.2743 30.5282 75.5403 30.5282 75.853C30.5282 76.161 30.4185 76.4293 30.1992 76.658C29.9845 76.882 29.7138 76.994 29.3872 76.994C29.0698 76.994 28.8015 76.882 28.5822 76.658C28.3675 76.4293 28.2602 76.161 28.2602 75.853ZM39.6647 80.543H35.8497L35.0797 83H33.8827L37.0187 73.361H38.5727L41.7087 83H40.4347L39.6647 80.543ZM36.1647 79.535H39.3497L37.7677 74.383L36.1647 79.535ZM47.4152 78.1C47.4152 77.3673 47.3522 76.714 47.2262 76.14C47.1049 75.5613 46.9206 75.0363 46.6732 74.565C46.4259 74.089 46.1132 73.6363 45.7352 73.207C45.3619 72.773 44.9232 72.332 44.4192 71.884L45.0352 71.24C45.7959 71.856 46.4446 72.4883 46.9812 73.137C47.5179 73.7857 47.9286 74.509 48.2132 75.307C48.5026 76.105 48.6472 77.036 48.6472 78.1C48.6472 79.1593 48.5026 80.088 48.2132 80.886C47.9286 81.684 47.5179 82.4073 46.9812 83.056C46.4446 83.7047 45.7959 84.3393 45.0352 84.96L44.4192 84.316C44.9186 83.8727 45.3549 83.434 45.7282 83C46.1062 82.5707 46.4189 82.118 46.6662 81.642C46.9136 81.1613 47.1002 80.634 47.2262 80.06C47.3522 79.4813 47.4152 78.828 47.4152 78.1ZM60.1723 79.129V78.107H65.7863V79.129H60.1723ZM78.1444 84.617V71.583H81.6514V72.598H79.2574V83.616H81.6514V84.617H78.1444ZM87.0219 80.9C87.0219 80.5967 87.1292 80.333 87.3439 80.109C87.5632 79.885 87.8316 79.773 88.1489 79.773C88.4756 79.773 88.7462 79.885 88.9609 80.109C89.1802 80.333 89.2899 80.5967 89.2899 80.9C89.2899 81.2173 89.1802 81.488 88.9609 81.712C88.7462 81.9313 88.4756 82.041 88.1489 82.041C87.8316 82.041 87.5632 81.9313 87.3439 81.712C87.1292 81.488 87.0219 81.2173 87.0219 80.9ZM87.0219 75.853C87.0219 75.6383 87.0709 75.447 87.1689 75.279C87.2669 75.111 87.4022 74.978 87.5749 74.88C87.7476 74.7773 87.9389 74.726 88.1489 74.726C88.4756 74.726 88.7462 74.8357 88.9609 75.055C89.1802 75.2743 89.2899 75.5403 89.2899 75.853C89.2899 76.161 89.1802 76.4293 88.9609 76.658C88.7462 76.882 88.4756 76.994 88.1489 76.994C87.8316 76.994 87.5632 76.882 87.3439 76.658C87.1292 76.4293 87.0219 76.161 87.0219 75.853ZM99.8824 76.063C99.8824 76.5437 99.7774 76.9637 99.5674 77.323C99.3621 77.6823 99.0821 77.9787 98.7274 78.212C98.3728 78.4453 97.9738 78.6157 97.5304 78.723L100.386 83H98.9304L96.2984 78.863H94.9964V83H93.7784V73.361H96.2564C97.4464 73.361 98.3471 73.5897 98.9584 74.047C99.5744 74.4997 99.8824 75.1717 99.8824 76.063ZM98.5804 76.063C98.5804 75.4423 98.4031 74.999 98.0484 74.733C97.6938 74.4623 97.1431 74.327 96.3964 74.327H94.9964V77.911H96.3964C97.0871 77.911 97.6238 77.771 98.0064 77.491C98.3891 77.2063 98.5804 76.7303 98.5804 76.063ZM106.576 71.583V84.617H103.069V83.623H105.463V72.598H103.069V71.583H106.576ZM110.889 79.136V78.1H117.686V79.136H110.889ZM123.141 79.136H117.401V78.1H123.141V79.136ZM120.418 74.355L124.226 78.618L120.418 82.881L119.55 82.139L121.545 79.941C121.736 79.7357 121.89 79.577 122.007 79.465C122.124 79.353 122.268 79.2433 122.441 79.136V78.1C122.268 77.9927 122.124 77.883 122.007 77.771C121.89 77.659 121.736 77.5003 121.545 77.295L119.55 75.097L120.418 74.355ZM137.305 78.1C137.305 78.828 137.368 79.4813 137.494 80.06C137.62 80.634 137.807 81.1613 138.054 81.642C138.301 82.118 138.612 82.5707 138.985 83C139.363 83.434 139.802 83.8727 140.301 84.316L139.685 84.96C138.929 84.3393 138.28 83.7047 137.739 83.056C137.202 82.4073 136.789 81.684 136.5 80.886C136.215 80.088 136.073 79.1593 136.073 78.1C136.073 77.036 136.215 76.105 136.5 75.307C136.789 74.509 137.202 73.7857 137.739 73.137C138.28 72.4883 138.929 71.856 139.685 71.24L140.301 71.884C139.797 72.332 139.356 72.773 138.978 73.207C138.605 73.6363 138.294 74.089 138.047 74.565C137.8 75.0363 137.613 75.5613 137.487 76.14C137.366 76.714 137.305 77.3673 137.305 78.1ZM146.344 81.327H150.068L149.858 83H143.733V81.439L147.422 77.232H144.041V75.566H149.998V77.12L146.344 81.327ZM154.178 80.9C154.178 80.5967 154.285 80.333 154.5 80.109C154.719 79.885 154.988 79.773 155.305 79.773C155.632 79.773 155.902 79.885 156.117 80.109C156.336 80.333 156.446 80.5967 156.446 80.9C156.446 81.2173 156.336 81.488 156.117 81.712C155.902 81.9313 155.632 82.041 155.305 82.041C154.988 82.041 154.719 81.9313 154.5 81.712C154.285 81.488 154.178 81.2173 154.178 80.9ZM154.178 75.853C154.178 75.6383 154.227 75.447 154.325 75.279C154.423 75.111 154.558 74.978 154.731 74.88C154.904 74.7773 155.095 74.726 155.305 74.726C155.632 74.726 155.902 74.8357 156.117 75.055C156.336 75.2743 156.446 75.5403 156.446 75.853C156.446 76.161 156.336 76.4293 156.117 76.658C155.902 76.882 155.632 76.994 155.305 76.994C154.988 76.994 154.719 76.882 154.5 76.658C154.285 76.4293 154.178 76.161 154.178 75.853ZM165.786 80.291C165.786 79.8057 165.69 79.4323 165.499 79.171C165.312 78.905 165.062 78.7207 164.75 78.618C164.437 78.5153 164.094 78.464 163.721 78.464H162.076V81.999H163.665C163.903 81.999 164.145 81.9757 164.393 81.929C164.64 81.8823 164.869 81.7983 165.079 81.677C165.293 81.5557 165.464 81.3853 165.59 81.166C165.72 80.942 165.786 80.6503 165.786 80.291ZM165.401 75.853C165.401 75.307 165.23 74.9197 164.89 74.691C164.554 74.4577 164.094 74.341 163.511 74.341H162.076V77.463H163.63C164.199 77.463 164.635 77.337 164.939 77.085C165.247 76.8283 165.401 76.4177 165.401 75.853ZM167.067 80.249C167.067 80.7717 166.962 81.2103 166.752 81.565C166.546 81.9197 166.269 82.202 165.919 82.412C165.573 82.622 165.186 82.7737 164.757 82.867C164.332 82.9557 163.898 83 163.455 83H160.865V73.361H163.238C163.662 73.361 164.075 73.4007 164.477 73.48C164.883 73.5547 165.247 73.6853 165.569 73.872C165.895 74.054 166.157 74.3013 166.353 74.614C166.549 74.9267 166.647 75.3187 166.647 75.79C166.647 76.2053 166.56 76.5577 166.388 76.847C166.22 77.1317 165.998 77.3603 165.723 77.533C165.452 77.7057 165.163 77.827 164.855 77.897C165.214 77.953 165.562 78.0627 165.898 78.226C166.238 78.3847 166.518 78.6273 166.738 78.954C166.957 79.276 167.067 79.7077 167.067 80.249ZM184.64 73.361L183.17 83H181.574L180.468 75.727L179.355 83H177.724L176.366 73.361H177.584L178.613 81.663L179.768 74.481H181.259L182.358 81.663L183.513 73.361H184.64ZM190.717 83V78.429H187.077V83H185.866V73.361H187.077V77.435H190.717V73.361H191.928V83H190.717ZM196.067 74.355V77.603H199.637V78.604H196.067V82.027H200.449V83H194.849V73.361H200.323L200.183 74.355H196.067ZM209.011 76.063C209.011 76.5437 208.906 76.9637 208.696 77.323C208.491 77.6823 208.211 77.9787 207.856 78.212C207.502 78.4453 207.103 78.6157 206.659 78.723L209.515 83H208.059L205.427 78.863H204.125V83H202.907V73.361H205.385C206.575 73.361 207.476 73.5897 208.087 74.047C208.703 74.4997 209.011 75.1717 209.011 76.063ZM207.709 76.063C207.709 75.4423 207.532 74.999 207.177 74.733C206.823 74.4623 206.272 74.327 205.525 74.327H204.125V77.911H205.525C206.216 77.911 206.753 77.771 207.135 77.491C207.518 77.2063 207.709 76.7303 207.709 76.063ZM212.856 74.355V77.603H216.426V78.604H212.856V82.027H217.238V83H211.638V73.361H217.112L216.972 74.355H212.856ZM229.547 81.999H233.649L233.495 83H228.105V82.111L232.193 76.651H228.427V75.629H233.607V76.539L229.547 81.999ZM238.025 81.922C238.025 81.6933 238.079 81.488 238.186 81.306C238.294 81.1193 238.438 80.9723 238.62 80.865C238.807 80.753 239.017 80.697 239.25 80.697C239.488 80.697 239.701 80.753 239.887 80.865C240.074 80.9723 240.221 81.1193 240.328 81.306C240.436 81.488 240.489 81.6933 240.489 81.922C240.489 82.1507 240.436 82.3607 240.328 82.552C240.221 82.7387 240.074 82.888 239.887 83C239.701 83.1073 239.488 83.161 239.25 83.161C239.017 83.161 238.807 83.1073 238.62 83C238.438 82.888 238.294 82.7387 238.186 82.552C238.079 82.3607 238.025 82.1507 238.025 81.922ZM246.042 72.549V76.637C246.331 76.2497 246.686 75.9603 247.106 75.769C247.531 75.573 247.96 75.475 248.394 75.475C249.113 75.475 249.638 75.6663 249.969 76.049C250.3 76.4317 250.466 76.9637 250.466 77.645V83H249.29V77.673C249.29 77.2297 249.187 76.9077 248.982 76.707C248.777 76.5017 248.455 76.399 248.016 76.399C247.736 76.399 247.47 76.462 247.218 76.588C246.966 76.714 246.74 76.8703 246.539 77.057C246.338 77.2437 246.173 77.435 246.042 77.631V83H244.866V72.675L246.042 72.549ZM264.756 78.891L262.887 75.986L263.587 75.545L266.009 78.471V79.325L263.587 82.23L262.887 81.789L264.756 78.891ZM279.158 83H277.814L280.537 79.108L278.15 75.629H279.543L281.251 78.373L282.98 75.629H284.324L281.944 79.059L284.66 83H283.218L281.202 79.836L279.158 83ZM288.393 81.922C288.393 81.6933 288.446 81.488 288.554 81.306C288.661 81.1193 288.806 80.9723 288.988 80.865C289.174 80.753 289.384 80.697 289.618 80.697C289.856 80.697 290.068 80.753 290.255 80.865C290.441 80.9723 290.588 81.1193 290.696 81.306C290.803 81.488 290.857 81.6933 290.857 81.922C290.857 82.1507 290.803 82.3607 290.696 82.552C290.588 82.7387 290.441 82.888 290.255 83C290.068 83.1073 289.856 83.161 289.618 83.161C289.384 83.161 289.174 83.1073 288.988 83C288.806 82.888 288.661 82.7387 288.554 82.552C288.446 82.3607 288.393 82.1507 288.393 81.922ZM296.409 72.549V76.637C296.699 76.2497 297.053 75.9603 297.473 75.769C297.898 75.573 298.327 75.475 298.761 75.475C299.48 75.475 300.005 75.6663 300.336 76.049C300.668 76.4317 300.833 76.9637 300.833 77.645V83H299.657V77.673C299.657 77.2297 299.555 76.9077 299.349 76.707C299.144 76.5017 298.822 76.399 298.383 76.399C298.103 76.399 297.837 76.462 297.585 76.588C297.333 76.714 297.107 76.8703 296.906 77.057C296.706 77.2437 296.54 77.435 296.409 77.631V83H295.233V72.675L296.409 72.549ZM307.646 78.1C307.646 77.3673 307.583 76.714 307.457 76.14C307.335 75.5613 307.151 75.0363 306.904 74.565C306.656 74.089 306.344 73.6363 305.966 73.207C305.592 72.773 305.154 72.332 304.65 71.884L305.266 71.24C306.026 71.856 306.675 72.4883 307.212 73.137C307.748 73.7857 308.159 74.509 308.444 75.307C308.733 76.105 308.878 77.036 308.878 78.1C308.878 79.1593 308.733 80.088 308.444 80.886C308.159 81.684 307.748 82.4073 307.212 83.056C306.675 83.7047 306.026 84.3393 305.266 84.96L304.65 84.316C305.149 83.8727 305.585 83.434 305.959 83C306.337 82.5707 306.649 82.118 306.897 81.642C307.144 81.1613 307.331 80.634 307.457 80.06C307.583 79.4813 307.646 78.828 307.646 78.1ZM316.04 78.1C316.04 77.3673 315.977 76.714 315.851 76.14C315.73 75.5613 315.546 75.0363 315.298 74.565C315.051 74.089 314.738 73.6363 314.36 73.207C313.987 72.773 313.548 72.332 313.044 71.884L313.66 71.24C314.421 71.856 315.07 72.4883 315.606 73.137C316.143 73.7857 316.554 74.509 316.838 75.307C317.128 76.105 317.272 77.036 317.272 78.1C317.272 79.1593 317.128 80.088 316.838 80.886C316.554 81.684 316.143 82.4073 315.606 83.056C315.07 83.7047 314.421 84.3393 313.66 84.96L313.044 84.316C313.544 83.8727 313.98 83.434 314.353 83C314.731 82.5707 315.044 82.118 315.291 81.642C315.539 81.1613 315.725 80.634 315.851 80.06C315.977 79.4813 316.04 78.828 316.04 78.1ZM325.331 71.303V72.227C324.99 72.227 324.68 72.262 324.4 72.332C324.124 72.3973 323.91 72.5117 323.756 72.675C323.606 72.8383 323.543 73.0623 323.567 73.347L323.861 76.217C323.903 76.609 323.879 76.9333 323.791 77.19C323.702 77.4467 323.553 77.6473 323.343 77.792C323.137 77.9367 322.874 78.0393 322.552 78.1C322.878 78.156 323.147 78.254 323.357 78.394C323.567 78.5293 323.714 78.7253 323.798 78.982C323.882 79.234 323.903 79.5677 323.861 79.983L323.567 82.853C323.543 83.1423 323.606 83.3687 323.756 83.532C323.905 83.6953 324.12 83.8097 324.4 83.875C324.68 83.9403 324.99 83.973 325.331 83.973V84.897C324.939 84.897 324.563 84.862 324.204 84.792C323.844 84.7267 323.527 84.6123 323.252 84.449C322.976 84.2857 322.769 84.0617 322.629 83.777C322.489 83.497 322.442 83.1423 322.489 82.713L322.769 80.053C322.806 79.731 322.776 79.4603 322.678 79.241C322.584 79.0217 322.379 78.856 322.062 78.744C321.749 78.6273 321.28 78.569 320.655 78.569V77.631C321.28 77.631 321.749 77.575 322.062 77.463C322.379 77.351 322.584 77.1853 322.678 76.966C322.776 76.7467 322.806 76.4783 322.769 76.161L322.489 73.487C322.442 73.0577 322.489 72.703 322.629 72.423C322.769 72.1383 322.974 71.9143 323.245 71.751C323.52 71.5877 323.837 71.4733 324.197 71.408C324.561 71.338 324.939 71.303 325.331 71.303ZM332.633 73.361V82.72H331.457V74.635L329.245 75.979L328.734 75.139L331.604 73.361H332.633ZM334.649 82.041V83H329.084V82.041H334.649ZM339.999 80.697C340.321 80.697 340.589 80.8067 340.804 81.026C341.023 81.2453 341.133 81.509 341.133 81.817C341.133 81.985 341.112 82.1553 341.07 82.328C341.032 82.5007 340.962 82.6967 340.86 82.916L339.726 85.513H338.662L339.334 82.748C339.194 82.6453 339.082 82.5123 338.998 82.349C338.918 82.181 338.879 82.0037 338.879 81.817C338.879 81.5043 338.986 81.2407 339.201 81.026C339.415 80.8067 339.681 80.697 339.999 80.697ZM351.011 73.361L350.836 74.299H347.028V77.337C347.322 77.1783 347.6 77.071 347.861 77.015C348.127 76.9543 348.405 76.924 348.694 76.924C349.217 76.924 349.677 77.043 350.073 77.281C350.47 77.5143 350.778 77.8573 350.997 78.31C351.217 78.7627 351.326 79.3087 351.326 79.948C351.326 80.5873 351.191 81.1497 350.92 81.635C350.654 82.1203 350.279 82.496 349.793 82.762C349.308 83.028 348.732 83.161 348.064 83.161C347.486 83.161 346.968 83.0583 346.51 82.853C346.058 82.6477 345.645 82.363 345.271 81.999L345.999 81.299C346.293 81.5977 346.608 81.8217 346.944 81.971C347.285 82.1157 347.663 82.188 348.078 82.188C348.713 82.188 349.208 81.9967 349.562 81.614C349.917 81.2267 350.094 80.6597 350.094 79.913C350.094 79.395 350.017 78.9867 349.863 78.688C349.709 78.3893 349.499 78.177 349.233 78.051C348.972 77.9203 348.68 77.855 348.358 77.855C348.074 77.855 347.822 77.883 347.602 77.939C347.383 77.9903 347.133 78.0697 346.853 78.177H345.908V73.361H351.011ZM354.667 71.303C355.059 71.303 355.435 71.338 355.794 71.408C356.153 71.4733 356.471 71.5877 356.746 71.751C357.021 71.9143 357.229 72.1383 357.369 72.423C357.514 72.703 357.56 73.0577 357.509 73.487L357.229 76.161C357.192 76.4783 357.231 76.7467 357.348 76.966C357.469 77.1853 357.689 77.351 358.006 77.463C358.323 77.575 358.769 77.631 359.343 77.631V78.569C358.774 78.569 358.328 78.6273 358.006 78.744C357.689 78.856 357.469 79.0217 357.348 79.241C357.231 79.4603 357.192 79.731 357.229 80.053L357.509 82.713C357.556 83.1423 357.509 83.497 357.369 83.777C357.229 84.0617 357.021 84.2857 356.746 84.449C356.475 84.6123 356.158 84.7267 355.794 84.792C355.435 84.862 355.059 84.897 354.667 84.897V83.973C355.008 83.973 355.316 83.9403 355.591 83.875C355.871 83.8097 356.088 83.6953 356.242 83.532C356.396 83.3687 356.459 83.1423 356.431 82.853L356.137 79.983C356.095 79.5677 356.118 79.234 356.207 78.982C356.296 78.7253 356.454 78.5293 356.683 78.394C356.916 78.2587 357.222 78.1653 357.6 78.114C357.236 78.0533 356.937 77.9483 356.704 77.799C356.475 77.6497 356.314 77.4467 356.221 77.19C356.128 76.9333 356.1 76.609 356.137 76.217L356.431 73.347C356.459 73.0623 356.396 72.8383 356.242 72.675C356.088 72.5117 355.873 72.3973 355.598 72.332C355.323 72.262 355.012 72.227 354.667 72.227V71.303Z" fill="black"/>
<path d="M179.901 65.0039C179.904 65.28 180.129 65.5022 180.405 65.5001C180.681 65.498 180.904 65.2724 180.901 64.9963L179.901 65.0039ZM177.424 24C177.424 25.4728 178.618 26.6667 180.091 26.6667C181.564 26.6667 182.757 25.4728 182.757 24C182.757 22.5272 181.564 21.3333 180.091 21.3333C178.618 21.3333 177.424 22.5272 177.424 24ZM180.401 65.0001L180.901 64.9963L180.591 23.9962L180.091 24L179.591 24.0038L179.901 65.0039L180.401 65.0001Z" fill="#1A1B1D"/>
<path d="M340 68C340 68.2761 340.224 68.5 340.5 68.5C340.776 68.5 341 68.2761 341 68H340ZM337.833 27C337.833 28.4728 339.027 29.6667 340.5 29.6667C341.973 29.6667 343.167 28.4728 343.167 27C343.167 25.5272 341.973 24.3333 340.5 24.3333C339.027 24.3333 337.833 25.5272 337.833 27ZM340.5 68H341V27H340.5H340V68H340.5Z" fill="#1A1B1D"/>
<path d="M180 92C180 91.7239 180.224 91.5 180.5 91.5C180.776 91.5 181 91.7239 181 92H180ZM177.833 117C177.833 115.527 179.027 114.333 180.5 114.333C181.973 114.333 183.167 115.527 183.167 117C183.167 118.473 181.973 119.667 180.5 119.667C179.027 119.667 177.833 118.473 177.833 117ZM180.5 92H181V117H180.5H180V92H180.5Z" fill="#1A1B1D"/>
<line x1="9.00502" y1="64.5" x2="311.005" y2="67.5292" stroke="black"/>
<line y1="91.5" x2="361" y2="91.5" stroke="black"/>
</svg>
