<svg xmlns="http://www.w3.org/2000/svg" width="611" height="377" viewBox="0 0 611 377"><defs><style type="text/css"/></defs><g transform="translate(-36.47900390625 58) scale(1)"><g class="node"><g fill="#ffffff" stroke="#006FD6" stroke-width="4"><circle cx="129" cy="-4" r="52"/></g><g transform="translate(129 -4)"><g transform="scale(0.5592606884691831) translate(0 -30.5)"><g transform="translate(0 0)"><g transform="translate(-74.458740234375 0)"><g fill="#000000" stroke="#000000" stroke-width="4" font-family="sans-serif" font-size="47" font-weight="normal"><text xml:space="preserve" x="0" y="43.592529296875" stroke="none">Person</text></g></g></g></g><g transform="translate(3.429011037612589e-15 56)"><g transform="translate(0 0)"><g transform="translate(-92.52099609375 0)" fill="white"><rect x="0" y="0" width="185.0419921875" height="67.2" rx="0" ry="0" stroke="none"/><g font-family="sans-serif" font-size="14" font-weight="normal" fill="#535B66" text-anchor="end"><text xml:space="preserve" x="42.7998046875" y="12.29990234375" stroke="none">name:</text><text xml:space="preserve" x="46.689453125" y="12.29990234375" stroke="none" text-anchor="start">'Alice'</text><text xml:space="preserve" x="42.7998046875" y="29.099902343750003" stroke="none" text-anchor="end">age:</text><text xml:space="preserve" x="46.689453125" y="29.099902343750003" stroke="none" text-anchor="start">65</text><text xml:space="preserve" x="42.7998046875" y="45.89990234375" stroke="none" text-anchor="end">role:</text><text xml:space="preserve" x="46.689453125" y="45.89990234375" stroke="none" text-anchor="start">'Project manager'</text><text xml:space="preserve" x="42.7998046875" y="62.699902343750004" stroke="none" text-anchor="end">email:</text><text xml:space="preserve" x="46.689453125" y="62.699902343750004" stroke="none" text-anchor="start">'alice@company.com'</text></g></g></g></g></g></g><g class="node"><g fill="#ffffff" stroke="#006FD6" stroke-width="4"><circle cx="349.84814453125" cy="-4" r="52"/></g><g transform="translate(349.84814453125 -4)"><g transform="scale(0.5592606884691831) translate(0 -30.5)"><g transform="translate(0 0)"><g transform="translate(-74.458740234375 0)"><g fill="#000000" stroke="#000000" stroke-width="4" font-family="sans-serif" font-size="47" font-weight="normal"><text xml:space="preserve" x="0" y="43.592529296875" stroke="none">Person</text></g></g></g></g><g transform="translate(3.429011037612589e-15 56)"><g transform="translate(0 0)"><g transform="translate(-88.27587890625 0)" fill="white"><rect x="0" y="0" width="176.5517578125" height="67.2" rx="0" ry="0" stroke="none"/><g font-family="sans-serif" font-size="14" font-weight="normal" fill="#535B66" text-anchor="end"><text xml:space="preserve" x="42.7998046875" y="12.29990234375" stroke="none">name:</text><text xml:space="preserve" x="46.689453125" y="12.29990234375" stroke="none" text-anchor="start">'Cecil'</text><text xml:space="preserve" x="42.7998046875" y="29.099902343750003" stroke="none" text-anchor="end">age:</text><text xml:space="preserve" x="46.689453125" y="29.099902343750003" stroke="none" text-anchor="start">25</text><text xml:space="preserve" x="42.7998046875" y="45.89990234375" stroke="none" text-anchor="end">role:</text><text xml:space="preserve" x="46.689453125" y="45.89990234375" stroke="none" text-anchor="start">'Software developer'</text><text xml:space="preserve" x="42.7998046875" y="62.699902343750004" stroke="none" text-anchor="end">email:</text><text xml:space="preserve" x="46.689453125" y="62.699902343750004" stroke="none" text-anchor="start">'cecil@private.se'</text></g></g></g></g></g></g><g class="node"><g fill="#ffffff" stroke="#006FD6" stroke-width="4"><circle cx="550.5921263846927" cy="-4" r="52"/></g><g transform="translate(550.5921263846927 -4)"><g transform="scale(0.5592606884691831) translate(0 -30.5)"><g transform="translate(0 0)"><g transform="translate(-74.458740234375 0)"><g fill="#000000" stroke="#000000" stroke-width="4" font-family="sans-serif" font-size="47" font-weight="normal"><text xml:space="preserve" x="0" y="43.592529296875" stroke="none">Person</text></g></g></g></g><g transform="translate(3.429011037612589e-15 56)"><g transform="translate(0 0)"><g transform="translate(-88.27587890625 0)" fill="white"><rect x="0" y="0" width="176.5517578125" height="50.400000000000006" rx="0" ry="0" stroke="none"/><g font-family="sans-serif" font-size="14" font-weight="normal" fill="#535B66" text-anchor="end"><text xml:space="preserve" x="42.7998046875" y="12.29990234375" stroke="none">name:</text><text xml:space="preserve" x="46.689453125" y="12.29990234375" stroke="none" text-anchor="start">'Cecilia'</text><text xml:space="preserve" x="42.7998046875" y="29.099902343750003" stroke="none" text-anchor="end">age:</text><text xml:space="preserve" x="46.689453125" y="29.099902343750003" stroke="none" text-anchor="start">31</text><text xml:space="preserve" x="42.7998046875" y="45.89990234375" stroke="none" text-anchor="end">role:</text><text xml:space="preserve" x="46.689453125" y="45.89990234375" stroke="none" text-anchor="start">'Software developer'</text></g></g></g></g></g></g><g class="node"><g fill="#ffffff" stroke="#006FD6" stroke-width="4"><circle cx="550.5921263846927" cy="195" r="52"/></g><g transform="translate(550.5921263846927 195)"><g transform="scale(0.5592606884691831) translate(0 -30.5)"><g transform="translate(0 0)"><g transform="translate(-74.458740234375 0)"><g fill="#000000" stroke="#000000" stroke-width="4" font-family="sans-serif" font-size="47" font-weight="normal"><text xml:space="preserve" x="0" y="43.592529296875" stroke="none">Person</text></g></g></g></g><g transform="translate(3.429011037612589e-15 56)"><g transform="translate(0 0)"><g transform="translate(-96.80712890625 0)" fill="white"><rect x="0" y="0" width="193.6142578125" height="67.2" rx="0" ry="0" stroke="none"/><g font-family="sans-serif" font-size="14" font-weight="normal" fill="#535B66" text-anchor="end"><text xml:space="preserve" x="42.7998046875" y="12.29990234375" stroke="none">name:</text><text xml:space="preserve" x="46.689453125" y="12.29990234375" stroke="none" text-anchor="start">'Daniel'</text><text xml:space="preserve" x="42.7998046875" y="29.099902343750003" stroke="none" text-anchor="end">age:</text><text xml:space="preserve" x="46.689453125" y="29.099902343750003" stroke="none" text-anchor="start">39</text><text xml:space="preserve" x="42.7998046875" y="45.89990234375" stroke="none" text-anchor="end">role:</text><text xml:space="preserve" x="46.689453125" y="45.89990234375" stroke="none" text-anchor="start">'Director'</text><text xml:space="preserve" x="42.7998046875" y="62.699902343750004" stroke="none" text-anchor="end">email:</text><text xml:space="preserve" x="46.689453125" y="62.699902343750004" stroke="none" text-anchor="start">'daniel@company.com'</text></g></g></g></g></g></g><g class="node"><g fill="#ffffff" stroke="#006FD6" stroke-width="4"><circle cx="349.84814453125" cy="195" r="52"/></g><g transform="translate(349.84814453125 195)"><g transform="scale(0.5592606884691831) translate(0 -30.5)"><g transform="translate(0 0)"><g transform="translate(-74.458740234375 0)"><g fill="#000000" stroke="#000000" stroke-width="4" font-family="sans-serif" font-size="47" font-weight="normal"><text xml:space="preserve" x="0" y="43.592529296875" stroke="none">Person</text></g></g></g></g><g transform="translate(3.429011037612589e-15 56)"><g transform="translate(0 0)"><g transform="translate(-92.1279296875 0)" fill="white"><rect x="0" y="0" width="184.255859375" height="67.2" rx="0" ry="0" stroke="none"/><g font-family="sans-serif" font-size="14" font-weight="normal" fill="#535B66" text-anchor="end"><text xml:space="preserve" x="42.7998046875" y="12.29990234375" stroke="none">name:</text><text xml:space="preserve" x="46.689453125" y="12.29990234375" stroke="none" text-anchor="start">'Eskil'</text><text xml:space="preserve" x="42.7998046875" y="29.099902343750003" stroke="none" text-anchor="end">age:</text><text xml:space="preserve" x="46.689453125" y="29.099902343750003" stroke="none" text-anchor="start">39</text><text xml:space="preserve" x="42.7998046875" y="45.89990234375" stroke="none" text-anchor="end">role:</text><text xml:space="preserve" x="46.689453125" y="45.89990234375" stroke="none" text-anchor="start">'CEO'</text><text xml:space="preserve" x="42.7998046875" y="62.699902343750004" stroke="none" text-anchor="end">email:</text><text xml:space="preserve" x="46.689453125" y="62.699902343750004" stroke="none" text-anchor="start">'eskil@company.com'</text></g></g></g></g></g></g><g class="node"><g fill="#ffffff" stroke="#006FD6" stroke-width="4"><circle cx="129" cy="195" r="52"/></g><g transform="translate(129 195)"><g transform="scale(0.5592606884691831) translate(0 -30.5)"><g transform="translate(0 0)"><g transform="translate(-74.458740234375 0)"><g fill="#000000" stroke="#000000" stroke-width="4" font-family="sans-serif" font-size="47" font-weight="normal"><text xml:space="preserve" x="0" y="43.592529296875" stroke="none">Person</text></g></g></g></g><g transform="translate(3.429011037612589e-15 56)"><g transform="translate(0 0)"><g transform="translate(-82.43798828125 0)" fill="white"><rect x="0" y="0" width="164.8759765625" height="50.400000000000006" rx="0" ry="0" stroke="none"/><g font-family="sans-serif" font-size="14" font-weight="normal" fill="#535B66" text-anchor="end"><text xml:space="preserve" x="42.7998046875" y="12.29990234375" stroke="none">name:</text><text xml:space="preserve" x="46.689453125" y="12.29990234375" stroke="none" text-anchor="start">'Charlie'</text><text xml:space="preserve" x="42.7998046875" y="29.099902343750003" stroke="none" text-anchor="end">age:</text><text xml:space="preserve" x="46.689453125" y="29.099902343750003" stroke="none" text-anchor="start">61</text><text xml:space="preserve" x="42.7998046875" y="45.89990234375" stroke="none" text-anchor="end">role:</text><text xml:space="preserve" x="46.689453125" y="45.89990234375" stroke="none" text-anchor="start">'Security engineer'</text></g></g></g></g></g></g></g></svg>