<svg width="2351" height="2199" viewBox="0 0 2351 2199" fill="none" xmlns="http://www.w3.org/2000/svg">
<path d="M262.821 620.607C264.285 619.831 264.844 618.016 264.068 616.551L251.432 592.691C250.656 591.227 248.84 590.669 247.376 591.444C245.912 592.22 245.354 594.035 246.129 595.499L257.362 616.708L236.153 627.941C234.688 628.716 234.13 630.532 234.906 631.996C235.681 633.46 237.497 634.019 238.961 633.243L262.821 620.607ZM136.914 538.452L139.192 536.5L136.914 538.452ZM261.417 617.956C262.299 615.088 262.299 615.088 262.299 615.088C262.299 615.088 262.299 615.088 262.298 615.088C262.297 615.087 262.294 615.087 262.29 615.085C262.283 615.083 262.271 615.079 262.254 615.074C262.221 615.064 262.169 615.048 262.1 615.026C261.961 614.982 261.751 614.915 261.473 614.824C260.916 614.643 260.087 614.369 259.01 613.998C256.856 613.256 253.715 612.131 249.791 610.606C241.941 607.554 230.968 602.903 218.508 596.517C193.555 583.729 162.806 564.067 139.192 536.5L136.914 538.452L134.635 540.404C158.953 568.793 190.456 588.883 215.772 601.857C228.446 608.353 239.612 613.086 247.617 616.198C251.62 617.754 254.835 618.906 257.056 619.671C258.167 620.053 259.03 620.339 259.618 620.53C259.912 620.626 260.138 620.698 260.292 620.747C260.369 620.771 260.428 620.79 260.468 620.802C260.489 620.809 260.505 620.814 260.516 620.817C260.521 620.819 260.526 620.82 260.529 620.821C260.531 620.822 260.532 620.822 260.533 620.822C260.534 620.823 260.535 620.823 261.417 617.956ZM136.914 538.452L139.192 536.5C115.419 508.747 99.2967 481.464 89.1223 461.126C84.0362 450.96 80.44 442.536 78.1195 436.668C76.9593 433.733 76.1183 431.439 75.5697 429.885C75.2954 429.108 75.0942 428.516 74.9628 428.123C74.8971 427.926 74.8488 427.779 74.8176 427.682C74.802 427.634 74.7906 427.599 74.7835 427.577C74.7799 427.565 74.7774 427.557 74.7759 427.553C74.7751 427.55 74.7746 427.549 74.7744 427.548C74.7743 427.548 74.7743 427.548 74.7743 427.548C74.7744 427.548 74.7745 427.549 71.9138 428.452C69.0531 429.356 69.0534 429.356 69.0537 429.358C69.0539 429.358 69.0544 429.36 69.0548 429.361C69.0556 429.363 69.0567 429.367 69.058 429.371C69.0607 429.38 69.0645 429.391 69.0693 429.406C69.0789 429.436 69.0928 429.479 69.1109 429.535C69.1472 429.647 69.2006 429.81 69.2716 430.023C69.4136 430.448 69.6259 431.072 69.912 431.882C70.484 433.503 71.3509 435.867 72.5398 438.874C74.9174 444.887 78.5839 453.472 83.7563 463.811C94.0988 484.484 110.477 512.201 134.635 540.404L136.914 538.452Z" fill="#30839D"/>
<rect x="113" y="539.955" width="36.4433" height="36.4433" transform="rotate(-39.041 113 539.955)" fill="white"/>
<path d="M283 64C283 28.6538 311.654 0 347 0C382.346 0 411 28.6538 411 64C411 99.3462 382.346 128 347 128C311.654 128 283 99.3462 283 64Z" fill="#CFD1D4"/>
<path d="M283 629C283 593.654 311.654 565 347 565C382.346 565 411 593.654 411 629C411 664.346 382.346 693 347 693C311.654 693 283 664.346 283 629Z" fill="#CFD1D4"/>
<path d="M565 347C565 311.654 593.654 283 629 283C664.346 283 693 311.654 693 347C693 382.346 664.346 411 629 411C593.654 411 565 382.346 565 347Z" fill="#CFD1D4"/>
<path d="M0 344C0 308.654 28.6538 280 64 280C99.3462 280 128 308.654 128 344C128 379.346 99.3462 408 64 408C28.6538 408 0 379.346 0 344Z" fill="#CFD1D4"/>
<path d="M281.216 130.494C281.608 130.106 281.612 129.472 281.223 129.08C280.835 128.687 280.202 128.684 279.809 129.072L281.216 130.494ZM280.512 129.783L279.809 129.072L129.785 277.506L130.488 278.217L131.192 278.928L281.216 130.494L280.512 129.783Z" fill="#1A1B1D"/>
<path d="M72.9133 259.417C72.9133 259.417 96.4609 182.845 152.417 134.913C208.373 86.9813 262.417 69.9133 262.417 69.9133" stroke="#1A1B1D" stroke-width="3" stroke-linecap="round"/>
<path d="M280.157 130.135L130.844 277.865" stroke="#1A1B1D" stroke-width="3" stroke-linecap="round" stroke-linejoin="bevel"/>
<path d="M561 346.639L132 344.361" stroke="#1A1B1D" stroke-width="3" stroke-linecap="round" stroke-linejoin="bevel"/>
<path d="M562.403 280.167L413.598 130.833" stroke="#1A1B1D" stroke-width="3" stroke-linecap="round" stroke-linejoin="bevel"/>
<path d="M562.171 413.828L413.828 562.172" stroke="#1A1B1D" stroke-width="3" stroke-linecap="round" stroke-linejoin="bevel"/>
<path d="M280.63 562.162L130.369 410.838" stroke="#1A1B1D" stroke-width="3" stroke-linecap="round" stroke-linejoin="bevel"/>
<path d="M138.114 556L138.132 549.826H126.018V546.1L138.006 529.972H142.362V546.1H146.52V549.826H142.362V556H138.114ZM130.122 546.1H138.096V535.408L130.122 546.1Z" fill="black"/>
<path d="M1090.5 618.5C1090.5 618.5 1013.93 594.952 965.997 538.996C918.065 483.04 900.997 428.996 900.997 428.996" stroke="#30839D" stroke-width="3" stroke-linecap="round"/>
<rect x="950.308" y="542.945" width="28" height="28" transform="rotate(-39.041 950.308 542.945)" fill="white"/>
<path d="M1112 64C1112 28.6538 1140.65 0 1176 0V0C1211.35 0 1240 28.6538 1240 64V64C1240 99.3462 1211.35 128 1176 128V128C1140.65 128 1112 99.3462 1112 64V64Z" fill="#CFD1D4"/>
<path d="M1112 629C1112 593.654 1140.65 565 1176 565V565C1211.35 565 1240 593.654 1240 629V629C1240 664.346 1211.35 693 1176 693V693C1140.65 693 1112 664.346 1112 629V629Z" fill="#CFD1D4"/>
<path d="M1394 347C1394 311.654 1422.65 283 1458 283V283C1493.35 283 1522 311.654 1522 347V347C1522 382.346 1493.35 411 1458 411V411C1422.65 411 1394 382.346 1394 347V347Z" fill="#CFD1D4"/>
<path d="M829 344C829 308.654 857.654 280 893 280V280C928.346 280 957 308.654 957 344V344C957 379.346 928.346 408 893 408V408C857.654 408 829 379.346 829 344V344Z" fill="#CFD1D4"/>
<path d="M1110.22 130.494C1110.61 130.106 1110.61 129.472 1110.22 129.08C1109.83 128.687 1109.2 128.684 1108.81 129.072L1110.22 130.494ZM1062.33 176.461L1061.63 175.751L1061.63 175.751L1062.33 176.461ZM1006.67 231.538L1007.37 232.249L1007.37 232.249L1006.67 231.538ZM1109.51 129.783L1108.81 129.072L1061.63 175.751L1062.33 176.461L1063.04 177.172L1110.22 130.494L1109.51 129.783ZM1062.33 176.461L1061.63 175.751L1005.96 230.827L1006.67 231.538L1007.37 232.249L1063.04 177.172L1062.33 176.461ZM1006.67 231.538L1005.96 230.827L958.785 277.506L959.488 278.217L960.192 278.928L1007.37 232.249L1006.67 231.538Z" fill="#1A1B1D"/>
<path d="M901.913 259.417C901.913 259.417 925.461 182.845 981.417 134.913C1037.37 86.9813 1091.42 69.9133 1091.42 69.9133" stroke="#1A1B1D" stroke-width="3" stroke-linecap="round"/>
<path d="M1109.16 130.135L1062.33 176.461L1006.67 231.538L959.844 277.865" stroke="#1A1B1D" stroke-width="3" stroke-linecap="round" stroke-linejoin="bevel"/>
<path d="M1390 346.639L1062.33 344.899L1006.67 344.604L961 344.361" stroke="#1A1B1D" stroke-width="3" stroke-linecap="round" stroke-linejoin="bevel"/>
<path d="M1391.4 280.167L1242.6 130.833" stroke="#1A1B1D" stroke-width="3" stroke-linecap="round" stroke-linejoin="bevel"/>
<path d="M1391.17 413.828L1348 457L1289 516L1242.83 562.172" stroke="#1A1B1D" stroke-width="3" stroke-linecap="round" stroke-linejoin="bevel"/>
<path d="M1063.79 516L1061.66 518.114L1061.66 518.114L1063.79 516ZM1064.46 512.417C1063.29 511.241 1061.4 511.234 1060.22 512.402C1059.04 513.569 1059.04 515.469 1060.2 516.644L1064.46 512.417ZM1004.54 460.584C1005.71 461.76 1007.6 461.767 1008.78 460.599C1009.96 459.432 1009.96 457.532 1008.8 456.357L1004.54 460.584ZM1005.21 457L1007.34 454.886L1007.34 454.886L1005.21 457ZM960.436 408.903C958.78 408.897 957.432 410.235 957.426 411.892L957.331 438.892C957.325 440.549 958.663 441.897 960.32 441.903C961.977 441.908 963.325 440.57 963.331 438.913L963.415 414.913L987.415 414.998C989.072 415.004 990.42 413.665 990.426 412.008C990.431 410.352 989.093 409.004 987.436 408.998L960.436 408.903ZM1108.57 561.097L1110.7 558.983L1065.92 513.886L1063.79 516L1061.66 518.114L1106.44 563.211L1108.57 561.097ZM1063.79 516L1065.92 513.886L1064.46 512.417L1062.33 514.53L1060.2 516.644L1061.66 518.114L1063.79 516ZM1006.67 458.47L1008.8 456.357L1007.34 454.886L1005.21 457L1003.08 459.114L1004.54 460.584L1006.67 458.47ZM1005.21 457L1007.34 454.886L962.555 409.789L960.426 411.903L958.297 414.017L1003.08 459.114L1005.21 457Z" fill="#30839D"/>
<path d="M1034.92 499.896C1032.8 499.896 1030.96 499.368 1029.41 498.312C1027.87 497.256 1026.67 495.762 1025.83 493.83C1025 491.886 1024.59 489.588 1024.59 486.936C1024.59 484.116 1025 481.674 1025.83 479.61C1026.66 477.534 1027.86 475.932 1029.43 474.804C1031.02 473.676 1032.93 473.112 1035.17 473.112C1036.71 473.112 1038.13 473.4 1039.44 473.976C1040.75 474.54 1041.82 475.356 1042.66 476.424C1043.5 477.492 1043.99 478.782 1044.14 480.294H1040.09C1039.75 479.13 1039.18 478.23 1038.36 477.594C1037.54 476.958 1036.51 476.64 1035.26 476.64C1033.88 476.64 1032.73 477.03 1031.81 477.81C1030.88 478.59 1030.22 479.712 1029.81 481.176C1029.41 482.628 1029.29 484.368 1029.43 486.396C1029.8 485.688 1030.31 485.076 1030.94 484.56C1031.58 484.032 1032.31 483.624 1033.12 483.336C1033.94 483.048 1034.8 482.904 1035.71 482.904C1037.45 482.904 1038.98 483.234 1040.29 483.894C1041.59 484.554 1042.61 485.49 1043.35 486.702C1044.08 487.914 1044.44 489.348 1044.44 491.004C1044.44 492.72 1044.05 494.25 1043.26 495.594C1042.46 496.926 1041.35 497.976 1039.93 498.744C1038.5 499.512 1036.83 499.896 1034.92 499.896ZM1034.81 496.458C1035.75 496.458 1036.59 496.236 1037.33 495.792C1038.09 495.348 1038.68 494.73 1039.12 493.938C1039.56 493.146 1039.78 492.234 1039.78 491.202C1039.78 490.146 1039.58 489.252 1039.17 488.52C1038.76 487.788 1038.18 487.23 1037.42 486.846C1036.68 486.462 1035.8 486.27 1034.8 486.27C1033.97 486.27 1033.16 486.462 1032.38 486.846C1031.62 487.23 1030.99 487.728 1030.49 488.34C1030.01 488.952 1029.77 489.606 1029.77 490.302C1029.76 491.538 1029.97 492.618 1030.39 493.542C1030.81 494.466 1031.39 495.186 1032.15 495.702C1032.92 496.206 1033.81 496.458 1034.81 496.458Z" fill="black" fill-opacity="0.8"/>
<path d="M970.674 552L970.684 548.57H963.954V546.5L970.614 537.54H973.034V546.5H975.344V548.57H973.034V552H970.674ZM966.234 546.5H970.664V540.56L966.234 546.5Z" fill="black"/>
<path d="M261.5 1367.5C261.5 1367.5 184.929 1343.95 136.997 1288C89.0648 1232.04 71.9968 1178 71.9968 1178" stroke="#30839D" stroke-width="3" stroke-linecap="round"/>
<rect x="121.308" y="1291.94" width="28" height="28" transform="rotate(-39.041 121.308 1291.94)" fill="white"/>
<path d="M283 813C283 777.654 311.654 749 347 749V749C382.346 749 411 777.654 411 813V813C411 848.346 382.346 877 347 877V877C311.654 877 283 848.346 283 813V813Z" fill="#CFD1D4"/>
<path d="M283 1378C283 1342.65 311.654 1314 347 1314V1314C382.346 1314 411 1342.65 411 1378V1378C411 1413.35 382.346 1442 347 1442V1442C311.654 1442 283 1413.35 283 1378V1378Z" fill="#CFD1D4"/>
<path d="M565 1096C565 1060.65 593.654 1032 629 1032V1032C664.346 1032 693 1060.65 693 1096V1096C693 1131.35 664.346 1160 629 1160V1160C593.654 1160 565 1131.35 565 1096V1096Z" fill="#CFD1D4"/>
<path d="M0 1093C0 1057.65 28.6538 1029 64 1029V1029C99.3462 1029 128 1057.65 128 1093V1093C128 1128.35 99.3462 1157 64 1157V1157C28.6538 1157 0 1128.35 0 1093V1093Z" fill="#CFD1D4"/>
<path d="M281.216 879.494C281.608 879.106 281.612 878.472 281.223 878.08C280.835 877.687 280.202 877.684 279.809 878.072L281.216 879.494ZM230.834 927.935L230.131 927.224L230.131 927.224L230.834 927.935ZM180.167 978.064L179.464 977.354L180.167 978.064ZM280.512 878.783L279.809 878.072L230.131 927.224L230.834 927.935L231.537 928.646L281.216 879.494L280.512 878.783ZM230.834 927.935L230.131 927.224L179.464 977.354L180.167 978.064L180.871 978.775L231.537 928.646L230.834 927.935ZM180.167 978.064L179.464 977.354L129.785 1026.51L130.488 1027.22L131.192 1027.93L180.871 978.775L180.167 978.064Z" fill="#1A1B1D"/>
<path d="M72.9133 1008.42C72.9133 1008.42 96.4609 931.845 152.417 883.913C208.373 835.981 262.417 818.913 262.417 818.913" stroke="#1A1B1D" stroke-width="3" stroke-linecap="round"/>
<path d="M280.157 879.135L230.834 927.935L180.167 978.064L130.844 1026.87" stroke="#1A1B1D" stroke-width="3" stroke-linecap="round" stroke-linejoin="bevel"/>
<path d="M561.495 1096.64C562.047 1096.64 562.497 1096.2 562.5 1095.65C562.503 1095.09 562.058 1094.64 561.505 1094.64L561.495 1096.64ZM515.834 1095.4L515.828 1096.4L515.834 1095.4ZM460.167 1095.1L460.162 1096.1L460.167 1095.1ZM230.834 1093.89L230.839 1092.89L230.834 1093.89ZM180.167 1093.62L180.162 1094.62L180.167 1093.62ZM561.5 1095.64L561.505 1094.64L515.839 1094.4L515.834 1095.4L515.828 1096.4L561.495 1096.64L561.5 1095.64ZM515.834 1095.4L515.839 1094.4L460.172 1094.1L460.167 1095.1L460.162 1096.1L515.828 1096.4L515.834 1095.4ZM460.167 1095.1L460.172 1094.1L230.839 1092.89L230.834 1093.89L230.828 1094.89L460.162 1096.1L460.167 1095.1ZM230.834 1093.89L230.839 1092.89L180.172 1092.62L180.167 1093.62L180.162 1094.62L230.828 1094.89L230.834 1093.89ZM180.167 1093.62L180.172 1092.62L131.505 1092.36L131.5 1093.36L131.495 1094.36L180.162 1094.62L180.167 1093.62Z" fill="#1A1B1D"/>
<path d="M562.403 1029.17L515.834 982.432L460.167 926.568L413.598 879.833" stroke="#1A1B1D" stroke-width="3" stroke-linecap="round" stroke-linejoin="bevel"/>
<path d="M564.111 1163.89C564.111 1162.23 562.767 1160.89 561.111 1160.89L534.111 1160.89C532.454 1160.89 531.111 1162.23 531.111 1163.89C531.111 1165.55 532.454 1166.89 534.111 1166.89L558.111 1166.89L558.111 1190.89C558.111 1192.55 559.454 1193.89 561.111 1193.89C562.767 1193.89 564.111 1192.55 564.111 1190.89L564.111 1163.89ZM517.5 1207.5L515.378 1205.38L515.378 1205.38L517.5 1207.5ZM513.712 1207.05C512.54 1208.22 512.54 1210.12 513.712 1211.29C514.883 1212.46 516.783 1212.46 517.955 1211.29L513.712 1207.05ZM462.288 1266.95C463.459 1265.78 463.459 1263.88 462.288 1262.71C461.116 1261.54 459.217 1261.54 458.045 1262.71L462.288 1266.95ZM458.5 1266.5L456.378 1264.38L456.378 1264.38L458.5 1266.5ZM412.767 1307.99C411.596 1309.16 411.596 1311.06 412.767 1312.23C413.939 1313.4 415.838 1313.4 417.01 1312.23L412.767 1307.99ZM561.111 1163.89L558.989 1161.77L515.378 1205.38L517.5 1207.5L519.621 1209.62L563.232 1166.01L561.111 1163.89ZM517.5 1207.5L515.378 1205.38L513.712 1207.05L515.833 1209.17L517.955 1211.29L519.621 1209.62L517.5 1207.5ZM460.167 1264.83L458.045 1262.71L456.378 1264.38L458.5 1266.5L460.621 1268.62L462.288 1266.95L460.167 1264.83ZM458.5 1266.5L456.378 1264.38L412.767 1307.99L414.889 1310.11L417.01 1312.23L460.621 1268.62L458.5 1266.5Z" fill="#30839D"/>
<path d="M487.561 1250.4C485.605 1250.38 483.919 1250.05 482.503 1249.39C481.087 1248.73 479.983 1247.79 479.191 1246.56C478.411 1245.34 478.003 1243.89 477.967 1242.21H482.233C482.485 1243.75 483.097 1244.91 484.069 1245.66C485.053 1246.41 486.247 1246.78 487.651 1246.78C488.815 1246.78 489.823 1246.6 490.675 1246.26C491.527 1245.9 492.181 1245.4 492.637 1244.78C493.105 1244.16 493.339 1243.43 493.339 1242.6C493.339 1241.73 493.087 1240.98 492.583 1240.35C492.091 1239.73 491.413 1239.25 490.549 1238.91C489.685 1238.58 488.713 1238.4 487.633 1238.37L485.221 1238.3V1234.74L487.453 1234.65C488.485 1234.61 489.391 1234.41 490.171 1234.05C490.963 1233.69 491.581 1233.22 492.025 1232.63C492.469 1232.04 492.691 1231.38 492.691 1230.65C492.691 1229.98 492.481 1229.37 492.061 1228.83C491.653 1228.29 491.071 1227.87 490.315 1227.57C489.559 1227.26 488.665 1227.1 487.633 1227.1C486.757 1227.1 485.935 1227.26 485.167 1227.57C484.399 1227.88 483.763 1228.39 483.259 1229.08C482.767 1229.77 482.497 1230.67 482.449 1231.78H478.201C478.201 1230.01 478.627 1228.51 479.479 1227.3C480.331 1226.08 481.471 1225.16 482.899 1224.55C484.339 1223.92 485.935 1223.61 487.687 1223.61C489.571 1223.61 491.239 1223.87 492.691 1224.39C494.155 1224.89 495.301 1225.65 496.129 1226.67C496.969 1227.69 497.389 1228.96 497.389 1230.47C497.389 1231.75 496.999 1232.9 496.219 1233.91C495.439 1234.92 494.209 1235.71 492.529 1236.28C493.573 1236.57 494.509 1237 495.337 1237.58C496.165 1238.14 496.819 1238.85 497.299 1239.7C497.791 1240.56 498.037 1241.56 498.037 1242.71C498.037 1243.95 497.767 1245.04 497.227 1246C496.699 1246.96 495.955 1247.77 494.995 1248.43C494.047 1249.08 492.937 1249.57 491.665 1249.91C490.393 1250.23 489.025 1250.4 487.561 1250.4Z" fill="black" fill-opacity="0.8"/>
<path d="M280.63 1311.16L236.282 1266.5L233.303 1263.5L230.833 1261.01M180.167 1209.99L177.696 1207.5L130.369 1159.84" stroke="#30839D" stroke-width="3" stroke-linecap="round" stroke-linejoin="bevel"/>
<path d="M205.922 1248.9C203.798 1248.9 201.962 1248.37 200.414 1247.31C198.866 1246.26 197.672 1244.76 196.832 1242.83C196.004 1240.89 195.59 1238.59 195.59 1235.94C195.59 1233.12 196.004 1230.67 196.832 1228.61C197.66 1226.53 198.86 1224.93 200.432 1223.8C202.016 1222.68 203.93 1222.11 206.174 1222.11C207.71 1222.11 209.132 1222.4 210.44 1222.98C211.748 1223.54 212.822 1224.36 213.662 1225.42C214.502 1226.49 214.994 1227.78 215.138 1229.29H211.088C210.752 1228.13 210.176 1227.23 209.36 1226.59C208.544 1225.96 207.512 1225.64 206.264 1225.64C204.884 1225.64 203.732 1226.03 202.808 1226.81C201.884 1227.59 201.218 1228.71 200.81 1230.18C200.414 1231.63 200.288 1233.37 200.432 1235.4C200.804 1234.69 201.308 1234.08 201.944 1233.56C202.58 1233.03 203.306 1232.62 204.122 1232.34C204.938 1232.05 205.802 1231.9 206.714 1231.9C208.454 1231.9 209.978 1232.23 211.286 1232.89C212.594 1233.55 213.614 1234.49 214.346 1235.7C215.078 1236.91 215.444 1238.35 215.444 1240C215.444 1241.72 215.048 1243.25 214.256 1244.59C213.464 1245.93 212.354 1246.98 210.926 1247.74C209.498 1248.51 207.83 1248.9 205.922 1248.9ZM205.814 1245.46C206.75 1245.46 207.59 1245.24 208.334 1244.79C209.09 1244.35 209.684 1243.73 210.116 1242.94C210.56 1242.15 210.782 1241.23 210.782 1240.2C210.782 1239.15 210.578 1238.25 210.17 1237.52C209.762 1236.79 209.18 1236.23 208.424 1235.85C207.68 1235.46 206.804 1235.27 205.796 1235.27C204.968 1235.27 204.164 1235.46 203.384 1235.85C202.616 1236.23 201.986 1236.73 201.494 1237.34C201.014 1237.95 200.774 1238.61 200.774 1239.3C200.762 1240.54 200.966 1241.62 201.386 1242.54C201.806 1243.47 202.394 1244.19 203.15 1244.7C203.918 1245.21 204.806 1245.46 205.814 1245.46Z" fill="black" fill-opacity="0.8"/>
<path d="M141.674 1301L141.684 1297.57H134.954V1295.5L141.614 1286.54H144.034V1295.5H146.344V1297.57H144.034V1301H141.674ZM137.234 1295.5H141.664V1289.56L137.234 1295.5Z" fill="black"/>
<path d="M1090.5 1367.5C1090.5 1367.5 1013.93 1343.95 965.997 1288C918.065 1232.04 900.997 1178 900.997 1178" stroke="#30839D" stroke-width="3" stroke-linecap="round"/>
<rect x="950.308" y="1291.94" width="28" height="28" transform="rotate(-39.041 950.308 1291.94)" fill="white"/>
<path d="M1112 813C1112 777.654 1140.65 749 1176 749V749C1211.35 749 1240 777.654 1240 813V813C1240 848.346 1211.35 877 1176 877V877C1140.65 877 1112 848.346 1112 813V813Z" fill="#CFD1D4"/>
<path d="M1112 1378C1112 1342.65 1140.65 1314 1176 1314V1314C1211.35 1314 1240 1342.65 1240 1378V1378C1240 1413.35 1211.35 1442 1176 1442V1442C1140.65 1442 1112 1413.35 1112 1378V1378Z" fill="#CFD1D4"/>
<path d="M1394 1096C1394 1060.65 1422.65 1032 1458 1032V1032C1493.35 1032 1522 1060.65 1522 1096V1096C1522 1131.35 1493.35 1160 1458 1160V1160C1422.65 1160 1394 1131.35 1394 1096V1096Z" fill="#CFD1D4"/>
<path d="M829 1093C829 1057.65 857.654 1029 893 1029V1029C928.346 1029 957 1057.65 957 1093V1093C957 1128.35 928.346 1157 893 1157V1157C857.654 1157 829 1128.35 829 1093V1093Z" fill="#CFD1D4"/>
<path d="M1110.22 879.494C1110.61 879.106 1110.61 878.472 1110.22 878.08C1109.83 877.687 1109.2 877.684 1108.81 878.072L1110.22 879.494ZM1059.83 927.935L1059.13 927.224L1059.13 927.224L1059.83 927.935ZM1009.17 978.064L1008.46 977.354L1009.17 978.064ZM1109.51 878.783L1108.81 878.072L1059.13 927.224L1059.83 927.935L1060.54 928.646L1110.22 879.494L1109.51 878.783ZM1059.83 927.935L1059.13 927.224L1008.46 977.354L1009.17 978.064L1009.87 978.775L1060.54 928.646L1059.83 927.935ZM1009.17 978.064L1008.46 977.354L958.785 1026.51L959.488 1027.22L960.192 1027.93L1009.87 978.775L1009.17 978.064Z" fill="#1A1B1D"/>
<path d="M901.913 1008.42C901.913 1008.42 925.461 931.845 981.417 883.913C1037.37 835.981 1091.42 818.913 1091.42 818.913" stroke="#1A1B1D" stroke-width="3" stroke-linecap="round"/>
<path d="M1109.16 879.135L1059.83 927.935L1009.17 978.064L959.844 1026.87" stroke="#1A1B1D" stroke-width="3" stroke-linecap="round" stroke-linejoin="bevel"/>
<path d="M1388.48 1098.63C1390.14 1098.64 1391.49 1097.3 1391.5 1095.65C1391.51 1093.99 1390.17 1092.64 1388.52 1092.63L1388.48 1098.63ZM1342.33 1095.39L1342.32 1098.39L1342.32 1098.39L1342.33 1095.39ZM1291.67 1095.12L1291.68 1092.12L1291.68 1092.12L1291.67 1095.12ZM1202.85 1091.65C1201.19 1091.64 1199.84 1092.97 1199.83 1094.63C1199.82 1096.29 1201.16 1097.64 1202.82 1097.65L1202.85 1091.65ZM1148.15 1097.35C1149.81 1097.36 1151.16 1096.03 1151.17 1094.37C1151.18 1092.71 1149.84 1091.36 1148.18 1091.36L1148.15 1097.35ZM1059.83 1093.89L1059.85 1090.89L1059.83 1093.89ZM1009.17 1093.62L1009.15 1096.62L1009.17 1093.62ZM960.39 1091.24C959.212 1092.4 959.202 1094.3 960.367 1095.48L979.358 1114.67C980.523 1115.85 982.422 1115.86 983.6 1114.69C984.778 1113.53 984.788 1111.63 983.623 1110.45L966.743 1093.39L983.803 1076.51C984.981 1075.35 984.991 1073.45 983.826 1072.27C982.66 1071.09 980.761 1071.08 979.583 1072.25L960.39 1091.24ZM1388.5 1095.63L1388.52 1092.63L1342.35 1092.39L1342.33 1095.39L1342.32 1098.39L1388.48 1098.63L1388.5 1095.63ZM1342.33 1095.39L1342.35 1092.39L1291.68 1092.12L1291.67 1095.12L1291.65 1098.12L1342.32 1098.39L1342.33 1095.39ZM1291.67 1095.12L1291.68 1092.12L1202.85 1091.65L1202.83 1094.65L1202.82 1097.65L1291.65 1098.12L1291.67 1095.12ZM1148.17 1094.35L1148.18 1091.36L1059.85 1090.89L1059.83 1093.89L1059.82 1096.89L1148.15 1097.35L1148.17 1094.35ZM1059.83 1093.89L1059.85 1090.89L1009.18 1090.62L1009.17 1093.62L1009.15 1096.62L1059.82 1096.89L1059.83 1093.89ZM1009.17 1093.62L1009.18 1090.62L962.516 1090.37L962.5 1093.37L962.484 1096.37L1009.15 1096.62L1009.17 1093.62Z" fill="#30839D"/>
<path d="M1170.76 1107.5C1170.91 1106.38 1171.19 1104.99 1171.63 1103.32C1172.07 1101.64 1172.68 1099.8 1173.44 1097.78C1174.21 1095.75 1175.17 1093.66 1176.31 1091.5C1177.45 1089.34 1178.78 1087.21 1180.3 1085.13H1166.05V1081.47H1184.96V1085.13C1184.09 1086.27 1183.22 1087.59 1182.35 1089.09C1181.49 1090.57 1180.66 1092.15 1179.87 1093.82C1179.08 1095.48 1178.37 1097.14 1177.75 1098.81C1177.12 1100.46 1176.61 1102.04 1176.22 1103.54C1175.82 1105.04 1175.58 1106.36 1175.5 1107.5H1170.76Z" fill="black" fill-opacity="0.8"/>
<path d="M1391.4 1029.17L1342.33 979.924L1291.67 929.077L1242.6 879.833" stroke="#1A1B1D" stroke-width="3" stroke-linecap="round" stroke-linejoin="bevel"/>
<path d="M1391.17 1162.83L1346.5 1207.5L1345 1209L1342.33 1211.67M1291.67 1262.33L1290.5 1263.5L1289 1265L1242.83 1311.17" stroke="#30839D" stroke-width="3" stroke-linecap="round" stroke-linejoin="bevel"/>
<path d="M1316.56 1250.4C1314.6 1250.38 1312.92 1250.05 1311.5 1249.39C1310.09 1248.73 1308.98 1247.79 1308.19 1246.56C1307.41 1245.34 1307 1243.89 1306.97 1242.21H1311.23C1311.48 1243.75 1312.1 1244.91 1313.07 1245.66C1314.05 1246.41 1315.25 1246.78 1316.65 1246.78C1317.81 1246.78 1318.82 1246.6 1319.67 1246.26C1320.53 1245.9 1321.18 1245.4 1321.64 1244.78C1322.1 1244.16 1322.34 1243.43 1322.34 1242.6C1322.34 1241.73 1322.09 1240.98 1321.58 1240.35C1321.09 1239.73 1320.41 1239.25 1319.55 1238.91C1318.68 1238.58 1317.71 1238.4 1316.63 1238.37L1314.22 1238.3V1234.74L1316.45 1234.65C1317.48 1234.61 1318.39 1234.41 1319.17 1234.05C1319.96 1233.69 1320.58 1233.22 1321.02 1232.63C1321.47 1232.04 1321.69 1231.38 1321.69 1230.65C1321.69 1229.98 1321.48 1229.37 1321.06 1228.83C1320.65 1228.29 1320.07 1227.87 1319.31 1227.57C1318.56 1227.26 1317.66 1227.1 1316.63 1227.1C1315.76 1227.1 1314.93 1227.26 1314.17 1227.57C1313.4 1227.88 1312.76 1228.39 1312.26 1229.08C1311.77 1229.77 1311.5 1230.67 1311.45 1231.78H1307.2C1307.2 1230.01 1307.63 1228.51 1308.48 1227.3C1309.33 1226.08 1310.47 1225.16 1311.9 1224.55C1313.34 1223.92 1314.93 1223.61 1316.69 1223.61C1318.57 1223.61 1320.24 1223.87 1321.69 1224.39C1323.15 1224.89 1324.3 1225.65 1325.13 1226.67C1325.97 1227.69 1326.39 1228.96 1326.39 1230.47C1326.39 1231.75 1326 1232.9 1325.22 1233.91C1324.44 1234.92 1323.21 1235.71 1321.53 1236.28C1322.57 1236.57 1323.51 1237 1324.34 1237.58C1325.16 1238.14 1325.82 1238.85 1326.3 1239.7C1326.79 1240.56 1327.04 1241.56 1327.04 1242.71C1327.04 1243.95 1326.77 1245.04 1326.23 1246C1325.7 1246.96 1324.95 1247.77 1323.99 1248.43C1323.05 1249.08 1321.94 1249.57 1320.66 1249.91C1319.39 1250.23 1318.02 1250.4 1316.56 1250.4Z" fill="black" fill-opacity="0.8"/>
<path d="M1109.63 1311.16L1063.79 1265L1062.3 1263.5L1059.83 1261.01M1009.17 1209.99L1008.11 1208.92L1006.7 1207.5L959.369 1159.84" stroke="#30839D" stroke-width="3" stroke-linecap="round" stroke-linejoin="bevel"/>
<path d="M1034.92 1248.9C1032.8 1248.9 1030.96 1248.37 1029.41 1247.31C1027.87 1246.26 1026.67 1244.76 1025.83 1242.83C1025 1240.89 1024.59 1238.59 1024.59 1235.94C1024.59 1233.12 1025 1230.67 1025.83 1228.61C1026.66 1226.53 1027.86 1224.93 1029.43 1223.8C1031.02 1222.68 1032.93 1222.11 1035.17 1222.11C1036.71 1222.11 1038.13 1222.4 1039.44 1222.98C1040.75 1223.54 1041.82 1224.36 1042.66 1225.42C1043.5 1226.49 1043.99 1227.78 1044.14 1229.29H1040.09C1039.75 1228.13 1039.18 1227.23 1038.36 1226.59C1037.54 1225.96 1036.51 1225.64 1035.26 1225.64C1033.88 1225.64 1032.73 1226.03 1031.81 1226.81C1030.88 1227.59 1030.22 1228.71 1029.81 1230.18C1029.41 1231.63 1029.29 1233.37 1029.43 1235.4C1029.8 1234.69 1030.31 1234.08 1030.94 1233.56C1031.58 1233.03 1032.31 1232.62 1033.12 1232.34C1033.94 1232.05 1034.8 1231.9 1035.71 1231.9C1037.45 1231.9 1038.98 1232.23 1040.29 1232.89C1041.59 1233.55 1042.61 1234.49 1043.35 1235.7C1044.08 1236.91 1044.44 1238.35 1044.44 1240C1044.44 1241.72 1044.05 1243.25 1043.26 1244.59C1042.46 1245.93 1041.35 1246.98 1039.93 1247.74C1038.5 1248.51 1036.83 1248.9 1034.92 1248.9ZM1034.81 1245.46C1035.75 1245.46 1036.59 1245.24 1037.33 1244.79C1038.09 1244.35 1038.68 1243.73 1039.12 1242.94C1039.56 1242.15 1039.78 1241.23 1039.78 1240.2C1039.78 1239.15 1039.58 1238.25 1039.17 1237.52C1038.76 1236.79 1038.18 1236.23 1037.42 1235.85C1036.68 1235.46 1035.8 1235.27 1034.8 1235.27C1033.97 1235.27 1033.16 1235.46 1032.38 1235.85C1031.62 1236.23 1030.99 1236.73 1030.49 1237.34C1030.01 1237.95 1029.77 1238.61 1029.77 1239.3C1029.76 1240.54 1029.97 1241.62 1030.39 1242.54C1030.81 1243.47 1031.39 1244.19 1032.15 1244.7C1032.92 1245.21 1033.81 1245.46 1034.81 1245.46Z" fill="black" fill-opacity="0.8"/>
<path d="M970.674 1301L970.684 1297.57H963.954V1295.5L970.614 1286.54H973.034V1295.5H975.344V1297.57H973.034V1301H970.674ZM966.234 1295.5H970.664V1289.56L966.234 1295.5Z" fill="black"/>
<path d="M1919.5 1367.5C1919.5 1367.5 1842.93 1343.95 1795 1288C1747.06 1232.04 1730 1178 1730 1178" stroke="#30839D" stroke-width="3" stroke-linecap="round"/>
<rect x="1779.31" y="1291.94" width="28" height="28" transform="rotate(-39.041 1779.31 1291.94)" fill="white"/>
<path d="M1941 813C1941 777.654 1969.65 749 2005 749V749C2040.35 749 2069 777.654 2069 813V813C2069 848.346 2040.35 877 2005 877V877C1969.65 877 1941 848.346 1941 813V813Z" fill="#CFD1D4"/>
<path d="M1941 1378C1941 1342.65 1969.65 1314 2005 1314V1314C2040.35 1314 2069 1342.65 2069 1378V1378C2069 1413.35 2040.35 1442 2005 1442V1442C1969.65 1442 1941 1413.35 1941 1378V1378Z" fill="#CFD1D4"/>
<path d="M2223 1096C2223 1060.65 2251.65 1032 2287 1032V1032C2322.35 1032 2351 1060.65 2351 1096V1096C2351 1131.35 2322.35 1160 2287 1160V1160C2251.65 1160 2223 1131.35 2223 1096V1096Z" fill="#CFD1D4"/>
<path d="M1658 1093C1658 1057.65 1686.65 1029 1722 1029V1029C1757.35 1029 1786 1057.65 1786 1093V1093C1786 1128.35 1757.35 1157 1722 1157V1157C1686.65 1157 1658 1128.35 1658 1093V1093Z" fill="#CFD1D4"/>
<path d="M1939.22 879.494C1939.61 879.106 1939.61 878.472 1939.22 878.08C1938.83 877.687 1938.2 877.684 1937.81 878.072L1939.22 879.494ZM1893.32 923.5L1892.61 922.789L1892.61 922.789L1893.32 923.5ZM1890.63 924.751C1890.24 925.139 1890.23 925.772 1890.62 926.165C1891.01 926.557 1891.64 926.561 1892.04 926.172L1890.63 924.751ZM1836.37 981.249C1836.76 980.86 1836.77 980.227 1836.38 979.835C1835.99 979.442 1835.36 979.439 1834.96 979.827L1836.37 981.249ZM1833.68 982.5L1834.39 983.211L1834.39 983.211L1833.68 982.5ZM1938.51 878.783L1937.81 878.072L1892.61 922.789L1893.32 923.5L1894.02 924.211L1939.22 879.494L1938.51 878.783ZM1893.32 923.5L1892.61 922.789L1890.63 924.751L1891.33 925.461L1892.04 926.172L1894.02 924.211L1893.32 923.5ZM1835.67 980.538L1834.96 979.827L1832.98 981.789L1833.68 982.5L1834.39 983.211L1836.37 981.249L1835.67 980.538ZM1833.68 982.5L1832.98 981.789L1787.78 1026.51L1788.49 1027.22L1789.19 1027.93L1834.39 983.211L1833.68 982.5Z" fill="#1A1B1D"/>
<path d="M1730.91 1008.42C1730.91 1008.42 1754.46 931.845 1810.42 883.913C1866.37 835.981 1920.42 818.913 1920.42 818.913" stroke="#1A1B1D" stroke-width="3" stroke-linecap="round"/>
<path d="M1940.09 880.206C1940.1 878.549 1938.76 877.199 1937.11 877.19L1910.11 877.046C1908.45 877.037 1907.1 878.373 1907.09 880.03C1907.08 881.687 1908.42 883.037 1910.08 883.046L1934.07 883.174L1933.95 907.174C1933.94 908.83 1935.27 910.181 1936.93 910.19C1938.59 910.198 1939.94 908.862 1939.95 907.206L1940.09 880.206ZM1893.32 923.5L1895.43 925.633L1895.43 925.633L1893.32 923.5ZM1889.22 923.329C1888.05 924.494 1888.04 926.394 1889.2 927.571C1890.37 928.749 1892.27 928.759 1893.44 927.594L1889.22 923.329ZM1837.78 982.671C1838.96 981.505 1838.97 979.606 1837.8 978.428C1836.63 977.25 1834.74 977.24 1833.56 978.405L1837.78 982.671ZM1833.68 982.5L1831.57 980.367L1831.57 980.367L1833.68 982.5ZM1787.8 1023.68C1786.62 1024.84 1786.61 1026.74 1787.78 1027.92C1788.94 1029.1 1790.84 1029.11 1792.02 1027.94L1787.8 1023.68ZM1937.09 880.19L1934.98 878.057L1891.21 921.367L1893.32 923.5L1895.43 925.633L1939.2 882.323L1937.09 880.19ZM1893.32 923.5L1891.21 921.367L1889.22 923.329L1891.33 925.461L1893.44 927.594L1895.43 925.633L1893.32 923.5ZM1835.67 980.538L1833.56 978.405L1831.57 980.367L1833.68 982.5L1835.79 984.633L1837.78 982.671L1835.67 980.538ZM1833.68 982.5L1831.57 980.367L1787.8 1023.68L1789.91 1025.81L1792.02 1027.94L1835.79 984.633L1833.68 982.5Z" fill="#30839D"/>
<path d="M1863.87 966.396C1862.22 966.396 1860.68 966.126 1859.25 965.586C1857.83 965.034 1856.61 964.278 1855.58 963.318C1854.56 962.358 1853.79 961.26 1853.29 960.024L1856.84 958.152C1857.28 959.04 1857.81 959.838 1858.42 960.546C1859.04 961.254 1859.77 961.812 1860.6 962.22C1861.44 962.616 1862.4 962.814 1863.48 962.814C1865.17 962.814 1866.53 962.346 1867.55 961.41C1868.58 960.462 1869.09 959.202 1869.09 957.63C1869.09 956.658 1868.85 955.794 1868.37 955.038C1867.91 954.282 1867.26 953.694 1866.45 953.274C1865.64 952.842 1864.73 952.626 1863.69 952.626C1863.08 952.626 1862.51 952.68 1861.97 952.788C1861.44 952.896 1860.9 953.1 1860.36 953.4C1859.82 953.688 1859.24 954.126 1858.62 954.714C1858.5 954.774 1858.41 954.804 1858.35 954.804C1858.3 954.792 1858.21 954.756 1858.08 954.696L1854.71 953.328L1855.9 939.972H1872.08L1871.92 943.626H1859.46L1858.87 950.862C1859.79 950.214 1860.72 949.746 1861.66 949.458C1862.6 949.17 1863.63 949.026 1864.76 949.026C1866.41 949.026 1867.92 949.35 1869.27 949.998C1870.63 950.646 1871.71 951.6 1872.51 952.86C1873.32 954.12 1873.72 955.662 1873.72 957.486C1873.72 959.31 1873.31 960.888 1872.5 962.22C1871.69 963.552 1870.55 964.584 1869.08 965.316C1867.61 966.036 1865.88 966.396 1863.87 966.396Z" fill="black" fill-opacity="0.8"/>
<path d="M2219 1095.64L2171.33 1095.39L2120.67 1095.12L2029.33 1094.63M1979.67 1094.37L1891.83 1093.9L1888.83 1093.89L1838.17 1093.62L1835.17 1093.6L1790 1093.36" stroke="#30839D" stroke-width="3" stroke-linecap="round" stroke-linejoin="bevel"/>
<path d="M1999.76 1107.5C1999.91 1106.38 2000.19 1104.99 2000.63 1103.32C2001.07 1101.64 2001.68 1099.8 2002.44 1097.78C2003.21 1095.75 2004.17 1093.66 2005.31 1091.5C2006.45 1089.34 2007.78 1087.21 2009.3 1085.13H1995.05V1081.47H2013.96V1085.13C2013.09 1086.27 2012.22 1087.59 2011.35 1089.09C2010.49 1090.57 2009.66 1092.15 2008.87 1093.82C2008.08 1095.48 2007.37 1097.14 2006.75 1098.81C2006.12 1100.46 2005.61 1102.04 2005.22 1103.54C2004.82 1105.04 2004.58 1106.36 2004.5 1107.5H1999.76Z" fill="black" fill-opacity="0.8"/>
<path d="M2220.4 1029.17L2173.9 982.5L2171.33 979.924L2120.67 929.077L2115.11 923.5L2071.6 879.833" stroke="#1A1B1D" stroke-width="3" stroke-linecap="round" stroke-linejoin="bevel"/>
<path d="M2220.17 1162.83L2175.5 1207.5L2174 1209L2171.33 1211.67M2120.67 1262.33L2119.5 1263.5L2118 1265L2071.83 1311.17" stroke="#30839D" stroke-width="3" stroke-linecap="round" stroke-linejoin="bevel"/>
<path d="M2145.56 1250.4C2143.6 1250.38 2141.92 1250.05 2140.5 1249.39C2139.09 1248.73 2137.98 1247.79 2137.19 1246.56C2136.41 1245.34 2136 1243.89 2135.97 1242.21H2140.23C2140.48 1243.75 2141.1 1244.91 2142.07 1245.66C2143.05 1246.41 2144.25 1246.78 2145.65 1246.78C2146.81 1246.78 2147.82 1246.6 2148.67 1246.26C2149.53 1245.9 2150.18 1245.4 2150.64 1244.78C2151.1 1244.16 2151.34 1243.43 2151.34 1242.6C2151.34 1241.73 2151.09 1240.98 2150.58 1240.35C2150.09 1239.73 2149.41 1239.25 2148.55 1238.91C2147.68 1238.58 2146.71 1238.4 2145.63 1238.37L2143.22 1238.3V1234.74L2145.45 1234.65C2146.48 1234.61 2147.39 1234.41 2148.17 1234.05C2148.96 1233.69 2149.58 1233.22 2150.02 1232.63C2150.47 1232.04 2150.69 1231.38 2150.69 1230.65C2150.69 1229.98 2150.48 1229.37 2150.06 1228.83C2149.65 1228.29 2149.07 1227.87 2148.31 1227.57C2147.56 1227.26 2146.66 1227.1 2145.63 1227.1C2144.76 1227.1 2143.93 1227.26 2143.17 1227.57C2142.4 1227.88 2141.76 1228.39 2141.26 1229.08C2140.77 1229.77 2140.5 1230.67 2140.45 1231.78H2136.2C2136.2 1230.01 2136.63 1228.51 2137.48 1227.3C2138.33 1226.08 2139.47 1225.16 2140.9 1224.55C2142.34 1223.92 2143.93 1223.61 2145.69 1223.61C2147.57 1223.61 2149.24 1223.87 2150.69 1224.39C2152.15 1224.89 2153.3 1225.65 2154.13 1226.67C2154.97 1227.69 2155.39 1228.96 2155.39 1230.47C2155.39 1231.75 2155 1232.9 2154.22 1233.91C2153.44 1234.92 2152.21 1235.71 2150.53 1236.28C2151.57 1236.57 2152.51 1237 2153.34 1237.58C2154.16 1238.14 2154.82 1238.85 2155.3 1239.7C2155.79 1240.56 2156.04 1241.56 2156.04 1242.71C2156.04 1243.95 2155.77 1245.04 2155.23 1246C2154.7 1246.96 2153.95 1247.77 2152.99 1248.43C2152.05 1249.08 2150.94 1249.57 2149.66 1249.91C2148.39 1250.23 2147.02 1250.4 2145.56 1250.4Z" fill="black" fill-opacity="0.8"/>
<path d="M1938.63 1311.16L1893.42 1265.63L1892.36 1264.56L1891.3 1263.5L1888.83 1261.01M1838.17 1209.99L1837.11 1208.92L1835.7 1207.5L1833.58 1205.37L1788.37 1159.84" stroke="#30839D" stroke-width="3" stroke-linecap="round" stroke-linejoin="bevel"/>
<path d="M1863.92 1248.9C1861.8 1248.9 1859.96 1248.37 1858.41 1247.31C1856.87 1246.26 1855.67 1244.76 1854.83 1242.83C1854 1240.89 1853.59 1238.59 1853.59 1235.94C1853.59 1233.12 1854 1230.67 1854.83 1228.61C1855.66 1226.53 1856.86 1224.93 1858.43 1223.8C1860.02 1222.68 1861.93 1222.11 1864.17 1222.11C1865.71 1222.11 1867.13 1222.4 1868.44 1222.98C1869.75 1223.54 1870.82 1224.36 1871.66 1225.42C1872.5 1226.49 1872.99 1227.78 1873.14 1229.29H1869.09C1868.75 1228.13 1868.18 1227.23 1867.36 1226.59C1866.54 1225.96 1865.51 1225.64 1864.26 1225.64C1862.88 1225.64 1861.73 1226.03 1860.81 1226.81C1859.88 1227.59 1859.22 1228.71 1858.81 1230.18C1858.41 1231.63 1858.29 1233.37 1858.43 1235.4C1858.8 1234.69 1859.31 1234.08 1859.94 1233.56C1860.58 1233.03 1861.31 1232.62 1862.12 1232.34C1862.94 1232.05 1863.8 1231.9 1864.71 1231.9C1866.45 1231.9 1867.98 1232.23 1869.29 1232.89C1870.59 1233.55 1871.61 1234.49 1872.35 1235.7C1873.08 1236.91 1873.44 1238.35 1873.44 1240C1873.44 1241.72 1873.05 1243.25 1872.26 1244.59C1871.46 1245.93 1870.35 1246.98 1868.93 1247.74C1867.5 1248.51 1865.83 1248.9 1863.92 1248.9ZM1863.81 1245.46C1864.75 1245.46 1865.59 1245.24 1866.33 1244.79C1867.09 1244.35 1867.68 1243.73 1868.12 1242.94C1868.56 1242.15 1868.78 1241.23 1868.78 1240.2C1868.78 1239.15 1868.58 1238.25 1868.17 1237.52C1867.76 1236.79 1867.18 1236.23 1866.42 1235.85C1865.68 1235.46 1864.8 1235.27 1863.8 1235.27C1862.97 1235.27 1862.16 1235.46 1861.38 1235.85C1860.62 1236.23 1859.99 1236.73 1859.49 1237.34C1859.01 1237.95 1858.77 1238.61 1858.77 1239.3C1858.76 1240.54 1858.97 1241.62 1859.39 1242.54C1859.81 1243.47 1860.39 1244.19 1861.15 1244.7C1861.92 1245.21 1862.81 1245.46 1863.81 1245.46Z" fill="black" fill-opacity="0.8"/>
<path d="M1799.67 1301L1799.68 1297.57H1792.95V1295.5L1799.61 1286.54H1802.03V1295.5H1804.34V1297.57H1802.03V1301H1799.67ZM1795.23 1295.5H1799.66V1289.56L1795.23 1295.5Z" fill="black"/>
<path d="M1920.9 621.151C1922.37 620.376 1922.93 618.56 1922.15 617.096L1909.51 593.236C1908.74 591.771 1906.92 591.213 1905.46 591.989C1904 592.764 1903.44 594.58 1904.21 596.044L1915.44 617.253L1894.24 628.485C1892.77 629.261 1892.21 631.077 1892.99 632.541C1893.76 634.005 1895.58 634.563 1897.04 633.788L1920.9 621.151ZM1795 538.996L1797.28 537.045L1795 538.996ZM1919.5 618.5C1920.38 615.633 1920.38 615.633 1920.38 615.633C1920.38 615.633 1920.38 615.633 1920.38 615.632C1920.38 615.632 1920.38 615.631 1920.37 615.63C1920.37 615.628 1920.35 615.624 1920.34 615.619C1920.3 615.608 1920.25 615.592 1920.18 615.57C1920.04 615.526 1919.83 615.459 1919.56 615.369C1919 615.188 1918.17 614.913 1917.09 614.542C1914.94 613.801 1911.8 612.676 1907.87 611.15C1900.02 608.098 1889.05 603.447 1876.59 597.062C1851.64 584.273 1820.89 564.612 1797.28 537.045L1795 538.996L1792.72 540.948C1817.04 569.337 1848.54 589.427 1873.85 602.401C1886.53 608.897 1897.7 613.631 1905.7 616.743C1909.7 618.299 1912.92 619.451 1915.14 620.215C1916.25 620.598 1917.11 620.884 1917.7 621.075C1918 621.171 1918.22 621.243 1918.37 621.291C1918.45 621.316 1918.51 621.334 1918.55 621.347C1918.57 621.353 1918.59 621.358 1918.6 621.361C1918.6 621.363 1918.61 621.365 1918.61 621.366C1918.61 621.366 1918.62 621.367 1918.62 621.367C1918.62 621.367 1918.62 621.367 1919.5 618.5ZM1795 538.996L1797.28 537.045C1773.5 509.291 1757.38 482.008 1747.21 461.671C1742.12 451.504 1738.52 443.081 1736.2 437.212C1735.04 434.278 1734.2 431.983 1733.65 430.429C1733.38 429.652 1733.18 429.061 1733.05 428.667C1732.98 428.47 1732.93 428.323 1732.9 428.227C1732.88 428.179 1732.87 428.143 1732.87 428.121C1732.86 428.11 1732.86 428.102 1732.86 428.097C1732.86 428.095 1732.86 428.093 1732.86 428.093C1732.86 428.092 1732.86 428.092 1732.86 428.092C1732.86 428.093 1732.86 428.093 1730 428.996C1727.14 429.9 1727.14 429.901 1727.14 429.902C1727.14 429.903 1727.14 429.904 1727.14 429.905C1727.14 429.908 1727.14 429.911 1727.14 429.916C1727.14 429.924 1727.15 429.936 1727.15 429.951C1727.16 429.981 1727.18 430.024 1727.19 430.08C1727.23 430.191 1727.28 430.354 1727.35 430.567C1727.5 430.992 1727.71 431.617 1727.99 432.427C1728.57 434.047 1729.43 436.411 1730.62 439.418C1733 445.431 1736.67 454.016 1741.84 464.355C1752.18 485.029 1768.56 512.745 1792.72 540.948L1795 538.996Z" fill="#30839D"/>
<rect x="1779.31" y="542.945" width="28" height="28" transform="rotate(-39.041 1779.31 542.945)" fill="white"/>
<path d="M1941 64C1941 28.6538 1969.65 0 2005 0V0C2040.35 0 2069 28.6538 2069 64V64C2069 99.3462 2040.35 128 2005 128V128C1969.65 128 1941 99.3462 1941 64V64Z" fill="#CFD1D4"/>
<path d="M1941 629C1941 593.654 1969.65 565 2005 565V565C2040.35 565 2069 593.654 2069 629V629C2069 664.346 2040.35 693 2005 693V693C1969.65 693 1941 664.346 1941 629V629Z" fill="#CFD1D4"/>
<path d="M2223 347C2223 311.654 2251.65 283 2287 283V283C2322.35 283 2351 311.654 2351 347V347C2351 382.346 2322.35 411 2287 411V411C2251.65 411 2223 382.346 2223 347V347Z" fill="#CFD1D4"/>
<path d="M1658 344C1658 308.654 1686.65 280 1722 280V280C1757.35 280 1786 308.654 1786 344V344C1786 379.346 1757.35 408 1722 408V408C1686.65 408 1658 379.346 1658 344V344Z" fill="#CFD1D4"/>
<path d="M1939.22 130.494C1939.61 130.106 1939.61 129.472 1939.22 129.08C1938.83 128.687 1938.2 128.684 1937.81 129.072L1939.22 130.494ZM1888.83 178.935L1888.13 178.224L1888.13 178.224L1888.83 178.935ZM1838.17 229.064L1837.46 228.354L1838.17 229.064ZM1938.51 129.783L1937.81 129.072L1888.13 178.224L1888.83 178.935L1889.54 179.646L1939.22 130.494L1938.51 129.783ZM1888.83 178.935L1888.13 178.224L1837.46 228.354L1838.17 229.064L1838.87 229.775L1889.54 179.646L1888.83 178.935ZM1838.17 229.064L1837.46 228.354L1787.78 277.506L1788.49 278.217L1789.19 278.928L1838.87 229.775L1838.17 229.064Z" fill="#1A1B1D"/>
<path d="M1730.91 259.417C1730.91 259.417 1754.46 182.845 1810.42 134.913C1866.37 86.9813 1920.42 69.9133 1920.42 69.9133" stroke="#1A1B1D" stroke-width="3" stroke-linecap="round"/>
<path d="M1938.16 130.135L1888.83 178.935L1838.17 229.064L1788.84 277.865" stroke="#1A1B1D" stroke-width="3" stroke-linecap="round" stroke-linejoin="bevel"/>
<path d="M2219 346.639L1888.83 344.886L1838.17 344.617L1790 344.361" stroke="#1A1B1D" stroke-width="3" stroke-linecap="round" stroke-linejoin="bevel"/>
<path d="M2220.4 280.167L2071.6 130.833" stroke="#1A1B1D" stroke-width="3" stroke-linecap="round" stroke-linejoin="bevel"/>
<path d="M2220.17 413.828L2175.5 458.5L2119.5 514.5L2071.83 562.172" stroke="#1A1B1D" stroke-width="3" stroke-linecap="round" stroke-linejoin="bevel"/>
<path d="M1938.63 562.162L1891.3 514.5L1888.83 512.013M1838.17 460.988L1835.7 458.5L1788.37 410.838" stroke="#30839D" stroke-width="3" stroke-linecap="round" stroke-linejoin="bevel"/>
<path d="M1863.92 499.896C1861.8 499.896 1859.96 499.368 1858.41 498.312C1856.87 497.256 1855.67 495.762 1854.83 493.83C1854 491.886 1853.59 489.588 1853.59 486.936C1853.59 484.116 1854 481.674 1854.83 479.61C1855.66 477.534 1856.86 475.932 1858.43 474.804C1860.02 473.676 1861.93 473.112 1864.17 473.112C1865.71 473.112 1867.13 473.4 1868.44 473.976C1869.75 474.54 1870.82 475.356 1871.66 476.424C1872.5 477.492 1872.99 478.782 1873.14 480.294H1869.09C1868.75 479.13 1868.18 478.23 1867.36 477.594C1866.54 476.958 1865.51 476.64 1864.26 476.64C1862.88 476.64 1861.73 477.03 1860.81 477.81C1859.88 478.59 1859.22 479.712 1858.81 481.176C1858.41 482.628 1858.29 484.368 1858.43 486.396C1858.8 485.688 1859.31 485.076 1859.94 484.56C1860.58 484.032 1861.31 483.624 1862.12 483.336C1862.94 483.048 1863.8 482.904 1864.71 482.904C1866.45 482.904 1867.98 483.234 1869.29 483.894C1870.59 484.554 1871.61 485.49 1872.35 486.702C1873.08 487.914 1873.44 489.348 1873.44 491.004C1873.44 492.72 1873.05 494.25 1872.26 495.594C1871.46 496.926 1870.35 497.976 1868.93 498.744C1867.5 499.512 1865.83 499.896 1863.92 499.896ZM1863.81 496.458C1864.75 496.458 1865.59 496.236 1866.33 495.792C1867.09 495.348 1867.68 494.73 1868.12 493.938C1868.56 493.146 1868.78 492.234 1868.78 491.202C1868.78 490.146 1868.58 489.252 1868.17 488.52C1867.76 487.788 1867.18 487.23 1866.42 486.846C1865.68 486.462 1864.8 486.27 1863.8 486.27C1862.97 486.27 1862.16 486.462 1861.38 486.846C1860.62 487.23 1859.99 487.728 1859.49 488.34C1859.01 488.952 1858.77 489.606 1858.77 490.302C1858.76 491.538 1858.97 492.618 1859.39 493.542C1859.81 494.466 1860.39 495.186 1861.15 495.702C1861.92 496.206 1862.81 496.458 1863.81 496.458Z" fill="black" fill-opacity="0.8"/>
<path d="M1799.67 552L1799.68 548.57H1792.95V546.5L1799.61 537.54H1802.03V546.5H1804.34V548.57H1802.03V552H1799.67ZM1795.23 546.5H1799.66V540.56L1795.23 546.5Z" fill="black"/>
<path d="M261.5 2116.5C261.5 2116.5 184.929 2092.95 136.997 2037C89.0648 1981.04 71.9968 1927 71.9968 1927" stroke="#30839D" stroke-width="3" stroke-linecap="round"/>
<rect x="121.308" y="2040.94" width="28" height="28" transform="rotate(-39.041 121.308 2040.94)" fill="white"/>
<path d="M283 1562C283 1526.65 311.654 1498 347 1498V1498C382.346 1498 411 1526.65 411 1562V1562C411 1597.35 382.346 1626 347 1626V1626C311.654 1626 283 1597.35 283 1562V1562Z" fill="#CFD1D4"/>
<path d="M283 2127C283 2091.65 311.654 2063 347 2063V2063C382.346 2063 411 2091.65 411 2127V2127C411 2162.35 382.346 2191 347 2191V2191C311.654 2191 283 2162.35 283 2127V2127Z" fill="#CFD1D4"/>
<path d="M565 1842C565 1806.65 593.654 1778 629 1778V1778C664.346 1778 693 1806.65 693 1842V1842C693 1877.35 664.346 1906 629 1906V1906C593.654 1906 565 1877.35 565 1842V1842Z" fill="#CFD1D4"/>
<path d="M0 1842C0 1806.65 28.6538 1778 64 1778V1778C99.3462 1778 128 1806.65 128 1842V1842C128 1877.35 99.3462 1906 64 1906V1906C28.6538 1906 0 1877.35 0 1842V1842Z" fill="#CFD1D4"/>
<path d="M281.216 1628.49C281.608 1628.11 281.612 1627.47 281.223 1627.08C280.835 1626.69 280.202 1626.68 279.809 1627.07L281.216 1628.49ZM235.316 1672.5L234.613 1671.79L234.613 1671.79L235.316 1672.5ZM233.8 1674L234.504 1674.71L234.504 1674.71L233.8 1674ZM230.131 1676.22C229.738 1676.61 229.735 1677.25 230.123 1677.64C230.511 1678.03 231.145 1678.03 231.537 1677.65L230.131 1676.22ZM180.871 1727.78C181.263 1727.39 181.267 1726.75 180.878 1726.36C180.49 1725.97 179.857 1725.97 179.464 1726.35L180.871 1727.78ZM177.2 1730L176.497 1729.29L177.2 1730ZM175.684 1731.5L174.981 1730.79L174.981 1730.79L175.684 1731.5ZM280.512 1627.78L279.809 1627.07L234.613 1671.79L235.316 1672.5L236.02 1673.21L281.216 1628.49L280.512 1627.78ZM235.316 1672.5L234.613 1671.79L233.097 1673.29L233.8 1674L234.504 1674.71L236.02 1673.21L235.316 1672.5ZM233.8 1674L233.097 1673.29L230.131 1676.22L230.834 1676.93L231.537 1677.65L234.504 1674.71L233.8 1674ZM180.167 1727.06L179.464 1726.35L176.497 1729.29L177.2 1730L177.904 1730.71L180.871 1727.78L180.167 1727.06ZM177.2 1730L176.497 1729.29L174.981 1730.79L175.684 1731.5L176.388 1732.21L177.904 1730.71L177.2 1730ZM175.684 1731.5L174.981 1730.79L129.785 1775.51L130.488 1776.22L131.192 1776.93L176.388 1732.21L175.684 1731.5Z" fill="#1A1B1D"/>
<path d="M72.9133 1757.42C72.9133 1757.42 96.4609 1680.85 152.417 1632.91C208.373 1584.98 262.417 1567.91 262.417 1567.91" stroke="#1A1B1D" stroke-width="3" stroke-linecap="round"/>
<path d="M280.157 1628.13L235.933 1671.89L233.8 1674L230.834 1676.93M180.167 1727.06L177.2 1730L175.068 1732.11L130.844 1775.87" stroke="#30839D" stroke-width="3" stroke-linecap="round" stroke-linejoin="bevel"/>
<path d="M205.875 1715.4C204.219 1715.4 202.677 1715.13 201.249 1714.59C199.833 1714.03 198.609 1713.28 197.577 1712.32C196.557 1711.36 195.795 1710.26 195.291 1709.02L198.837 1707.15C199.281 1708.04 199.809 1708.84 200.421 1709.55C201.045 1710.25 201.771 1710.81 202.599 1711.22C203.439 1711.62 204.399 1711.81 205.479 1711.81C207.171 1711.81 208.527 1711.35 209.547 1710.41C210.579 1709.46 211.095 1708.2 211.095 1706.63C211.095 1705.66 210.855 1704.79 210.375 1704.04C209.907 1703.28 209.265 1702.69 208.449 1702.27C207.645 1701.84 206.727 1701.63 205.695 1701.63C205.083 1701.63 204.507 1701.68 203.967 1701.79C203.439 1701.9 202.905 1702.1 202.365 1702.4C201.825 1702.69 201.243 1703.13 200.619 1703.71C200.499 1703.77 200.409 1703.8 200.349 1703.8C200.301 1703.79 200.211 1703.76 200.079 1703.7L196.713 1702.33L197.901 1688.97H214.083L213.921 1692.63H201.465L200.871 1699.86C201.795 1699.21 202.725 1698.75 203.661 1698.46C204.597 1698.17 205.629 1698.03 206.757 1698.03C208.413 1698.03 209.919 1698.35 211.275 1699C212.631 1699.65 213.711 1700.6 214.515 1701.86C215.319 1703.12 215.721 1704.66 215.721 1706.49C215.721 1708.31 215.313 1709.89 214.497 1711.22C213.693 1712.55 212.553 1713.58 211.077 1714.32C209.613 1715.04 207.879 1715.4 205.875 1715.4Z" fill="black" fill-opacity="0.8"/>
<path d="M561 1842H371.334M321.667 1842H132" stroke="#30839D" stroke-width="3" stroke-linecap="round" stroke-linejoin="bevel"/>
<path d="M341.761 1855C341.905 1853.88 342.193 1852.49 342.625 1850.82C343.069 1849.14 343.675 1847.3 344.443 1845.28C345.211 1843.25 346.165 1841.16 347.305 1839C348.445 1836.84 349.777 1834.71 351.301 1832.63H337.045V1828.97H355.963V1832.63C355.087 1833.77 354.217 1835.09 353.353 1836.59C352.489 1838.07 351.661 1839.65 350.869 1841.32C350.077 1842.98 349.369 1844.64 348.745 1846.31C348.121 1847.96 347.611 1849.54 347.215 1851.04C346.819 1852.54 346.579 1853.86 346.495 1855H341.761Z" fill="black" fill-opacity="0.8"/>
<path d="M561.108 1777.58C562.765 1777.57 564.103 1776.22 564.097 1774.57L564.001 1747.57C563.996 1745.91 562.648 1744.57 560.991 1744.58C559.334 1744.58 557.996 1745.93 558.001 1747.59L558.087 1771.59L534.087 1771.67C532.43 1771.68 531.092 1773.03 531.098 1774.69C531.104 1776.34 532.452 1777.68 534.108 1777.67L561.108 1777.58ZM517.711 1731.5L515.597 1733.63L515.597 1733.63L517.711 1731.5ZM516.399 1730.2L518.512 1728.07L518.512 1728.07L516.399 1730.2ZM517.448 1727.01C516.272 1725.84 514.373 1725.85 513.205 1727.03C512.038 1728.2 512.045 1730.1 513.22 1731.27L517.448 1727.01ZM458.554 1676.99C459.729 1678.16 461.629 1678.15 462.796 1676.97C463.964 1675.8 463.957 1673.9 462.781 1672.73L458.554 1676.99ZM459.603 1673.8L461.717 1671.68L461.717 1671.68L459.603 1673.8ZM458.29 1672.5L456.176 1674.63L456.176 1674.63L458.29 1672.5ZM417.017 1627.29C415.841 1626.13 413.942 1626.13 412.774 1627.31C411.607 1628.48 411.614 1630.38 412.79 1631.55L417.017 1627.29ZM561.098 1774.58L563.211 1772.45L519.825 1729.37L517.711 1731.5L515.597 1733.63L558.984 1776.71L561.098 1774.58ZM517.711 1731.5L519.825 1729.37L518.512 1728.07L516.399 1730.2L514.285 1732.33L515.597 1733.63L517.711 1731.5ZM516.399 1730.2L518.512 1728.07L517.448 1727.01L515.334 1729.14L513.22 1731.27L514.285 1732.33L516.399 1730.2ZM460.667 1674.86L462.781 1672.73L461.717 1671.68L459.603 1673.8L457.489 1675.93L458.554 1676.99L460.667 1674.86ZM459.603 1673.8L461.717 1671.68L460.403 1670.37L458.29 1672.5L456.176 1674.63L457.489 1675.93L459.603 1673.8ZM458.29 1672.5L460.403 1670.37L417.017 1627.29L414.903 1629.42L412.79 1631.55L456.176 1674.63L458.29 1672.5Z" fill="#30839D"/>
<path d="M479.015 1715V1712.66V1711.45C479.015 1710.12 479.261 1708.98 479.753 1708.02C480.245 1707.04 480.899 1706.2 481.715 1705.48C482.531 1704.76 483.425 1704.12 484.397 1703.57C485.381 1703.01 486.353 1702.48 487.313 1701.99C488.285 1701.48 489.179 1700.97 489.995 1700.44C490.811 1699.9 491.465 1699.3 491.957 1698.64C492.461 1697.98 492.713 1697.19 492.713 1696.28C492.713 1695.12 492.299 1694.17 491.471 1693.44C490.655 1692.69 489.545 1692.32 488.141 1692.32C486.653 1692.32 485.423 1692.75 484.451 1693.6C483.491 1694.45 482.921 1695.65 482.741 1697.2H478.493C478.517 1695.61 478.895 1694.17 479.627 1692.88C480.359 1691.58 481.445 1690.55 482.885 1689.78C484.325 1689 486.119 1688.61 488.267 1688.61C490.127 1688.61 491.729 1688.94 493.073 1689.58C494.429 1690.22 495.473 1691.11 496.205 1692.27C496.949 1693.41 497.321 1694.74 497.321 1696.26C497.321 1697.59 497.075 1698.73 496.583 1699.68C496.103 1700.63 495.461 1701.45 494.657 1702.15C493.865 1702.83 492.989 1703.44 492.029 1703.97C491.081 1704.49 490.127 1704.99 489.167 1705.46C488.219 1705.92 487.343 1706.4 486.539 1706.9C485.747 1707.39 485.105 1707.96 484.613 1708.59C484.133 1709.23 483.893 1709.99 483.893 1710.88V1711.26H497.375V1715H479.015Z" fill="black" fill-opacity="0.8"/>
<path d="M562.86 1908.84L517.73 1955.95C517.395 1956.3 516.931 1956.5 516.447 1956.5H516.077C515.839 1956.5 515.611 1956.6 515.444 1956.76V1956.76L513.334 1958.9M462.667 2010.1L462.405 2010.37L460.295 2012.5L413.14 2060.16" stroke="#30839D" stroke-width="3" stroke-linecap="round" stroke-linejoin="bevel"/>
<path d="M487.561 1997.9C485.605 1997.88 483.919 1997.55 482.503 1996.89C481.087 1996.23 479.983 1995.29 479.191 1994.06C478.411 1992.84 478.003 1991.39 477.967 1989.71H482.233C482.485 1991.25 483.097 1992.41 484.069 1993.16C485.053 1993.91 486.247 1994.28 487.651 1994.28C488.815 1994.28 489.823 1994.1 490.675 1993.76C491.527 1993.4 492.181 1992.9 492.637 1992.28C493.105 1991.66 493.339 1990.93 493.339 1990.1C493.339 1989.23 493.087 1988.48 492.583 1987.85C492.091 1987.23 491.413 1986.75 490.549 1986.41C489.685 1986.08 488.713 1985.9 487.633 1985.87L485.221 1985.8V1982.24L487.453 1982.15C488.485 1982.11 489.391 1981.91 490.171 1981.55C490.963 1981.19 491.581 1980.72 492.025 1980.13C492.469 1979.54 492.691 1978.88 492.691 1978.15C492.691 1977.48 492.481 1976.87 492.061 1976.33C491.653 1975.79 491.071 1975.37 490.315 1975.07C489.559 1974.76 488.665 1974.6 487.633 1974.6C486.757 1974.6 485.935 1974.76 485.167 1975.07C484.399 1975.38 483.763 1975.89 483.259 1976.58C482.767 1977.27 482.497 1978.17 482.449 1979.28H478.201C478.201 1977.51 478.627 1976.01 479.479 1974.8C480.331 1973.58 481.471 1972.66 482.899 1972.05C484.339 1971.42 485.935 1971.11 487.687 1971.11C489.571 1971.11 491.239 1971.37 492.691 1971.89C494.155 1972.39 495.301 1973.15 496.129 1974.17C496.969 1975.19 497.389 1976.46 497.389 1977.97C497.389 1979.25 496.999 1980.4 496.219 1981.41C495.439 1982.42 494.209 1983.21 492.529 1983.78C493.573 1984.07 494.509 1984.5 495.337 1985.08C496.165 1985.64 496.819 1986.35 497.299 1987.2C497.791 1988.06 498.037 1989.06 498.037 1990.21C498.037 1991.45 497.767 1992.54 497.227 1993.5C496.699 1994.46 495.955 1995.27 494.995 1995.93C494.047 1996.58 492.937 1997.07 491.665 1997.41C490.393 1997.73 489.025 1997.9 487.561 1997.9Z" fill="black" fill-opacity="0.8"/>
<path d="M280.63 2060.16L233.303 2012.5L230.833 2010.01M180.167 1958.99L177.696 1956.5L130.369 1908.84" stroke="#30839D" stroke-width="3" stroke-linecap="round" stroke-linejoin="bevel"/>
<path d="M205.922 1997.9C203.798 1997.9 201.962 1997.37 200.414 1996.31C198.866 1995.26 197.672 1993.76 196.832 1991.83C196.004 1989.89 195.59 1987.59 195.59 1984.94C195.59 1982.12 196.004 1979.67 196.832 1977.61C197.66 1975.53 198.86 1973.93 200.432 1972.8C202.016 1971.68 203.93 1971.11 206.174 1971.11C207.71 1971.11 209.132 1971.4 210.44 1971.98C211.748 1972.54 212.822 1973.36 213.662 1974.42C214.502 1975.49 214.994 1976.78 215.138 1978.29H211.088C210.752 1977.13 210.176 1976.23 209.36 1975.59C208.544 1974.96 207.512 1974.64 206.264 1974.64C204.884 1974.64 203.732 1975.03 202.808 1975.81C201.884 1976.59 201.218 1977.71 200.81 1979.18C200.414 1980.63 200.288 1982.37 200.432 1984.4C200.804 1983.69 201.308 1983.08 201.944 1982.56C202.58 1982.03 203.306 1981.62 204.122 1981.34C204.938 1981.05 205.802 1980.9 206.714 1980.9C208.454 1980.9 209.978 1981.23 211.286 1981.89C212.594 1982.55 213.614 1983.49 214.346 1984.7C215.078 1985.91 215.444 1987.35 215.444 1989C215.444 1990.72 215.048 1992.25 214.256 1993.59C213.464 1994.93 212.354 1995.98 210.926 1996.74C209.498 1997.51 207.83 1997.9 205.922 1997.9ZM205.814 1994.46C206.75 1994.46 207.59 1994.24 208.334 1993.79C209.09 1993.35 209.684 1992.73 210.116 1991.94C210.56 1991.15 210.782 1990.23 210.782 1989.2C210.782 1988.15 210.578 1987.25 210.17 1986.52C209.762 1985.79 209.18 1985.23 208.424 1984.85C207.68 1984.46 206.804 1984.27 205.796 1984.27C204.968 1984.27 204.164 1984.46 203.384 1984.85C202.616 1985.23 201.986 1985.73 201.494 1986.34C201.014 1986.95 200.774 1987.61 200.774 1988.3C200.762 1989.54 200.966 1990.62 201.386 1991.54C201.806 1992.47 202.394 1993.19 203.15 1993.7C203.918 1994.21 204.806 1994.46 205.814 1994.46Z" fill="black" fill-opacity="0.8"/>
<path d="M141.674 2050L141.684 2046.57H134.954V2044.5L141.614 2035.54H144.034V2044.5H146.344V2046.57H144.034V2050H141.674ZM137.234 2044.5H141.664V2038.56L137.234 2044.5Z" fill="black"/>
<path d="M1090.5 2124.5C1090.5 2124.5 1013.93 2100.95 965.997 2045C918.065 1989.04 900.997 1935 900.997 1935" stroke="#30839D" stroke-width="3" stroke-linecap="round"/>
<rect x="950.308" y="2048.94" width="28" height="28" transform="rotate(-39.041 950.308 2048.94)" fill="white"/>
<path d="M1112 1570C1112 1534.65 1140.65 1506 1176 1506V1506C1211.35 1506 1240 1534.65 1240 1570V1570C1240 1605.35 1211.35 1634 1176 1634V1634C1140.65 1634 1112 1605.35 1112 1570V1570Z" fill="#CFD1D4"/>
<path d="M1112 2135C1112 2099.65 1140.65 2071 1176 2071V2071C1211.35 2071 1240 2099.65 1240 2135V2135C1240 2170.35 1211.35 2199 1176 2199V2199C1140.65 2199 1112 2170.35 1112 2135V2135Z" fill="#CFD1D4"/>
<path d="M1394 1842C1394 1806.65 1422.65 1778 1458 1778V1778C1493.35 1778 1522 1806.65 1522 1842V1842C1522 1877.35 1493.35 1906 1458 1906V1906C1422.65 1906 1394 1877.35 1394 1842V1842Z" fill="#CFD1D4"/>
<path d="M829 1842C829 1806.65 857.654 1778 893 1778V1778C928.346 1778 957 1806.65 957 1842V1842C957 1877.35 928.346 1906 893 1906V1906C857.654 1906 829 1877.35 829 1842V1842Z" fill="#CFD1D4"/>
<path d="M1390 1842H1200.33M1150.67 1842H961" stroke="#30839D" stroke-width="3" stroke-linecap="round" stroke-linejoin="bevel"/>
<path d="M1170.76 1855C1170.91 1853.88 1171.19 1852.49 1171.63 1850.82C1172.07 1849.14 1172.68 1847.3 1173.44 1845.28C1174.21 1843.25 1175.17 1841.16 1176.31 1839C1177.45 1836.84 1178.78 1834.71 1180.3 1832.63H1166.05V1828.97H1184.96V1832.63C1184.09 1833.77 1183.22 1835.09 1182.35 1836.59C1181.49 1838.07 1180.66 1839.65 1179.87 1841.32C1179.08 1842.98 1178.37 1844.64 1177.75 1846.31C1177.12 1847.96 1176.61 1849.54 1176.22 1851.04C1175.82 1852.54 1175.58 1853.86 1175.5 1855H1170.76Z" fill="black" fill-opacity="0.8"/>
<path d="M1110.17 1634.66C1110.57 1634.28 1110.58 1633.64 1110.2 1633.24C1109.81 1632.85 1109.18 1632.83 1108.78 1633.22L1110.17 1634.66ZM1065.19 1676.5L1064.5 1675.78L1064.5 1675.78L1065.19 1676.5ZM1063.63 1678L1064.33 1678.72L1064.33 1678.72L1063.63 1678ZM1059.14 1680.93C1058.74 1681.31 1058.73 1681.95 1059.11 1682.34C1059.5 1682.74 1060.13 1682.75 1060.53 1682.37L1059.14 1680.93ZM1009.86 1731.07C1010.26 1730.69 1010.27 1730.05 1009.89 1729.66C1009.51 1729.26 1008.87 1729.24 1008.47 1729.63L1009.86 1731.07ZM1005.37 1734L1004.67 1733.28L1004.67 1733.28L1005.37 1734ZM1003.81 1735.5L1004.5 1736.22L1004.5 1736.22L1003.81 1735.5ZM1109.48 1633.94L1108.78 1633.22L1064.5 1675.78L1065.19 1676.5L1065.89 1677.22L1110.17 1634.66L1109.48 1633.94ZM1065.19 1676.5L1064.5 1675.78L1062.94 1677.28L1063.63 1678L1064.33 1678.72L1065.89 1677.22L1065.19 1676.5ZM1063.63 1678L1062.94 1677.28L1059.14 1680.93L1059.83 1681.65L1060.53 1682.37L1064.33 1678.72L1063.63 1678ZM1009.17 1730.35L1008.47 1729.63L1004.67 1733.28L1005.37 1734L1006.06 1734.72L1009.86 1731.07L1009.17 1730.35ZM1005.37 1734L1004.67 1733.28L1003.11 1734.78L1003.81 1735.5L1004.5 1736.22L1006.06 1734.72L1005.37 1734ZM1003.81 1735.5L1003.11 1734.78L958.83 1777.34L959.523 1778.06L960.216 1778.78L1004.5 1736.22L1003.81 1735.5Z" fill="#1A1B1D"/>
<path d="M901.913 1765.42C901.913 1765.42 925.461 1688.85 981.417 1640.91C1037.37 1592.98 1091.42 1575.91 1091.42 1575.91" stroke="#1A1B1D" stroke-width="3" stroke-linecap="round"/>
<path d="M1109.12 1634.28L1065.8 1675.92L1063.63 1678L1059.83 1681.65M1009.17 1730.35L1005.37 1734L1003.2 1736.08L959.884 1777.72" stroke="#30839D" stroke-width="3" stroke-linecap="round" stroke-linejoin="bevel"/>
<path d="M1034.87 1719.4C1033.22 1719.4 1031.68 1719.13 1030.25 1718.59C1028.83 1718.03 1027.61 1717.28 1026.58 1716.32C1025.56 1715.36 1024.79 1714.26 1024.29 1713.02L1027.84 1711.15C1028.28 1712.04 1028.81 1712.84 1029.42 1713.55C1030.04 1714.25 1030.77 1714.81 1031.6 1715.22C1032.44 1715.62 1033.4 1715.81 1034.48 1715.81C1036.17 1715.81 1037.53 1715.35 1038.55 1714.41C1039.58 1713.46 1040.09 1712.2 1040.09 1710.63C1040.09 1709.66 1039.85 1708.79 1039.37 1708.04C1038.91 1707.28 1038.26 1706.69 1037.45 1706.27C1036.64 1705.84 1035.73 1705.63 1034.69 1705.63C1034.08 1705.63 1033.51 1705.68 1032.97 1705.79C1032.44 1705.9 1031.9 1706.1 1031.36 1706.4C1030.82 1706.69 1030.24 1707.13 1029.62 1707.71C1029.5 1707.77 1029.41 1707.8 1029.35 1707.8C1029.3 1707.79 1029.21 1707.76 1029.08 1707.7L1025.71 1706.33L1026.9 1692.97H1043.08L1042.92 1696.63H1030.46L1029.87 1703.86C1030.79 1703.21 1031.72 1702.75 1032.66 1702.46C1033.6 1702.17 1034.63 1702.03 1035.76 1702.03C1037.41 1702.03 1038.92 1702.35 1040.27 1703C1041.63 1703.65 1042.71 1704.6 1043.51 1705.86C1044.32 1707.12 1044.72 1708.66 1044.72 1710.49C1044.72 1712.31 1044.31 1713.89 1043.5 1715.22C1042.69 1716.55 1041.55 1717.58 1040.08 1718.32C1038.61 1719.04 1036.88 1719.4 1034.87 1719.4Z" fill="black" fill-opacity="0.8"/>
<path d="M1387.96 1778.61C1389.15 1779.76 1391.05 1779.73 1392.2 1778.53C1393.35 1777.34 1393.32 1775.44 1392.12 1774.29L1387.96 1778.61ZM1347.58 1735.5L1345.5 1737.66L1345.5 1737.66L1347.58 1735.5ZM1346.03 1734L1348.11 1731.84L1348.11 1731.84L1346.03 1734ZM1346.42 1730.21C1345.22 1729.05 1343.32 1729.09 1342.17 1730.28C1341.02 1731.47 1341.06 1733.37 1342.25 1734.52L1346.42 1730.21ZM1287.58 1681.8C1288.78 1682.95 1290.68 1682.91 1291.83 1681.72C1292.98 1680.53 1292.94 1678.63 1291.75 1677.48L1287.58 1681.8ZM1287.97 1678L1285.89 1680.16L1285.89 1680.16L1287.97 1678ZM1286.42 1676.5L1288.5 1674.34L1288.5 1674.34L1286.42 1676.5ZM1243.9 1632.55C1242.25 1632.58 1240.93 1633.95 1240.96 1635.6L1241.45 1662.6C1241.48 1664.26 1242.84 1665.57 1244.5 1665.54C1246.16 1665.51 1247.48 1664.15 1247.45 1662.49L1247.01 1638.49L1271.01 1638.06C1272.67 1638.03 1273.98 1636.66 1273.95 1635.01C1273.92 1633.35 1272.56 1632.03 1270.9 1632.06L1243.9 1632.55ZM1390.04 1776.45L1392.12 1774.29L1349.67 1733.34L1347.58 1735.5L1345.5 1737.66L1387.96 1778.61L1390.04 1776.45ZM1347.58 1735.5L1349.67 1733.34L1348.11 1731.84L1346.03 1734L1343.95 1736.16L1345.5 1737.66L1347.58 1735.5ZM1346.03 1734L1348.11 1731.84L1346.42 1730.21L1344.33 1732.36L1342.25 1734.52L1343.95 1736.16L1346.03 1734ZM1289.67 1679.64L1291.75 1677.48L1290.05 1675.84L1287.97 1678L1285.89 1680.16L1287.58 1681.8L1289.67 1679.64ZM1287.97 1678L1290.05 1675.84L1288.5 1674.34L1286.42 1676.5L1284.33 1678.66L1285.89 1680.16L1287.97 1678ZM1286.42 1676.5L1288.5 1674.34L1246.04 1633.39L1243.96 1635.55L1241.88 1637.71L1284.33 1678.66L1286.42 1676.5Z" fill="#30839D"/>
<path d="M1308.01 1719V1716.66V1715.45C1308.01 1714.12 1308.26 1712.98 1308.75 1712.02C1309.24 1711.04 1309.9 1710.2 1310.71 1709.48C1311.53 1708.76 1312.42 1708.12 1313.4 1707.57C1314.38 1707.01 1315.35 1706.48 1316.31 1705.99C1317.28 1705.48 1318.18 1704.97 1318.99 1704.44C1319.81 1703.9 1320.46 1703.3 1320.96 1702.64C1321.46 1701.98 1321.71 1701.19 1321.71 1700.28C1321.71 1699.12 1321.3 1698.17 1320.47 1697.44C1319.65 1696.69 1318.54 1696.32 1317.14 1696.32C1315.65 1696.32 1314.42 1696.75 1313.45 1697.6C1312.49 1698.45 1311.92 1699.65 1311.74 1701.2H1307.49C1307.52 1699.61 1307.89 1698.17 1308.63 1696.88C1309.36 1695.58 1310.44 1694.55 1311.88 1693.78C1313.32 1693 1315.12 1692.61 1317.27 1692.61C1319.13 1692.61 1320.73 1692.94 1322.07 1693.58C1323.43 1694.22 1324.47 1695.11 1325.2 1696.27C1325.95 1697.41 1326.32 1698.74 1326.32 1700.26C1326.32 1701.59 1326.07 1702.73 1325.58 1703.68C1325.1 1704.63 1324.46 1705.45 1323.66 1706.15C1322.86 1706.83 1321.99 1707.44 1321.03 1707.97C1320.08 1708.49 1319.13 1708.99 1318.17 1709.46C1317.22 1709.92 1316.34 1710.4 1315.54 1710.9C1314.75 1711.39 1314.1 1711.96 1313.61 1712.59C1313.13 1713.23 1312.89 1713.99 1312.89 1714.88V1715.26H1326.37V1719H1308.01Z" fill="black" fill-opacity="0.8"/>
<path d="M1393.63 1908.88L1346.03 1958.34L1343.95 1960.5L1342.33 1962.18M1291.67 2014.82L1290.05 2016.5L1287.97 2018.66L1240.37 2068.12" stroke="#30839D" stroke-width="3" stroke-linecap="round" stroke-linejoin="bevel"/>
<path d="M1316.56 2001.9C1314.6 2001.88 1312.92 2001.55 1311.5 2000.89C1310.09 2000.23 1308.98 1999.29 1308.19 1998.06C1307.41 1996.84 1307 1995.39 1306.97 1993.71H1311.23C1311.48 1995.25 1312.1 1996.41 1313.07 1997.16C1314.05 1997.91 1315.25 1998.28 1316.65 1998.28C1317.81 1998.28 1318.82 1998.1 1319.67 1997.76C1320.53 1997.4 1321.18 1996.9 1321.64 1996.28C1322.1 1995.66 1322.34 1994.93 1322.34 1994.1C1322.34 1993.23 1322.09 1992.48 1321.58 1991.85C1321.09 1991.23 1320.41 1990.75 1319.55 1990.41C1318.68 1990.08 1317.71 1989.9 1316.63 1989.87L1314.22 1989.8V1986.24L1316.45 1986.15C1317.48 1986.11 1318.39 1985.91 1319.17 1985.55C1319.96 1985.19 1320.58 1984.72 1321.02 1984.13C1321.47 1983.54 1321.69 1982.88 1321.69 1982.15C1321.69 1981.48 1321.48 1980.87 1321.06 1980.33C1320.65 1979.79 1320.07 1979.37 1319.31 1979.07C1318.56 1978.76 1317.66 1978.6 1316.63 1978.6C1315.76 1978.6 1314.93 1978.76 1314.17 1979.07C1313.4 1979.38 1312.76 1979.89 1312.26 1980.58C1311.77 1981.27 1311.5 1982.17 1311.45 1983.28H1307.2C1307.2 1981.51 1307.63 1980.01 1308.48 1978.8C1309.33 1977.58 1310.47 1976.66 1311.9 1976.05C1313.34 1975.42 1314.93 1975.11 1316.69 1975.11C1318.57 1975.11 1320.24 1975.37 1321.69 1975.89C1323.15 1976.39 1324.3 1977.15 1325.13 1978.17C1325.97 1979.19 1326.39 1980.46 1326.39 1981.97C1326.39 1983.25 1326 1984.4 1325.22 1985.41C1324.44 1986.42 1323.21 1987.21 1321.53 1987.78C1322.57 1988.07 1323.51 1988.5 1324.34 1989.08C1325.16 1989.64 1325.82 1990.35 1326.3 1991.2C1326.79 1992.06 1327.04 1993.06 1327.04 1994.21C1327.04 1995.45 1326.77 1996.54 1326.23 1997.5C1325.7 1998.46 1324.95 1999.27 1323.99 1999.93C1323.05 2000.58 1321.94 2001.07 1320.66 2001.41C1319.39 2001.73 1318.02 2001.9 1316.56 2001.9Z" fill="black" fill-opacity="0.8"/>
<path d="M1111.41 2068.12L1061.54 2016.5L1059.83 2014.73M1009.17 1962.27L1007.97 1961.03C1007.64 1960.69 1007.19 1960.5 1006.71 1960.5V1960.5C1006.23 1960.5 1005.77 1960.3 1005.44 1959.95L957.595 1908.88" stroke="#30839D" stroke-width="3" stroke-linecap="round" stroke-linejoin="bevel"/>
<path d="M1034.92 2001.9C1032.8 2001.9 1030.96 2001.37 1029.41 2000.31C1027.87 1999.26 1026.67 1997.76 1025.83 1995.83C1025 1993.89 1024.59 1991.59 1024.59 1988.94C1024.59 1986.12 1025 1983.67 1025.83 1981.61C1026.66 1979.53 1027.86 1977.93 1029.43 1976.8C1031.02 1975.68 1032.93 1975.11 1035.17 1975.11C1036.71 1975.11 1038.13 1975.4 1039.44 1975.98C1040.75 1976.54 1041.82 1977.36 1042.66 1978.42C1043.5 1979.49 1043.99 1980.78 1044.14 1982.29H1040.09C1039.75 1981.13 1039.18 1980.23 1038.36 1979.59C1037.54 1978.96 1036.51 1978.64 1035.26 1978.64C1033.88 1978.64 1032.73 1979.03 1031.81 1979.81C1030.88 1980.59 1030.22 1981.71 1029.81 1983.18C1029.41 1984.63 1029.29 1986.37 1029.43 1988.4C1029.8 1987.69 1030.31 1987.08 1030.94 1986.56C1031.58 1986.03 1032.31 1985.62 1033.12 1985.34C1033.94 1985.05 1034.8 1984.9 1035.71 1984.9C1037.45 1984.9 1038.98 1985.23 1040.29 1985.89C1041.59 1986.55 1042.61 1987.49 1043.35 1988.7C1044.08 1989.91 1044.44 1991.35 1044.44 1993C1044.44 1994.72 1044.05 1996.25 1043.26 1997.59C1042.46 1998.93 1041.35 1999.98 1039.93 2000.74C1038.5 2001.51 1036.83 2001.9 1034.92 2001.9ZM1034.81 1998.46C1035.75 1998.46 1036.59 1998.24 1037.33 1997.79C1038.09 1997.35 1038.68 1996.73 1039.12 1995.94C1039.56 1995.15 1039.78 1994.23 1039.78 1993.2C1039.78 1992.15 1039.58 1991.25 1039.17 1990.52C1038.76 1989.79 1038.18 1989.23 1037.42 1988.85C1036.68 1988.46 1035.8 1988.27 1034.8 1988.27C1033.97 1988.27 1033.16 1988.46 1032.38 1988.85C1031.62 1989.23 1030.99 1989.73 1030.49 1990.34C1030.01 1990.95 1029.77 1991.61 1029.77 1992.3C1029.76 1993.54 1029.97 1994.62 1030.39 1995.54C1030.81 1996.47 1031.39 1997.19 1032.15 1997.7C1032.92 1998.21 1033.81 1998.46 1034.81 1998.46Z" fill="black" fill-opacity="0.8"/>
<path d="M970.674 2058L970.684 2054.57H963.954V2052.5L970.614 2043.54H973.034V2052.5H975.344V2054.57H973.034V2058H970.674ZM966.234 2052.5H970.664V2046.56L966.234 2052.5Z" fill="black"/>
<path d="M1919.5 2124.5C1919.5 2124.5 1842.93 2100.95 1795 2045C1747.06 1989.04 1730 1935 1730 1935" stroke="#30839D" stroke-width="3" stroke-linecap="round"/>
<rect x="1779.31" y="2048.94" width="28" height="28" transform="rotate(-39.041 1779.31 2048.94)" fill="white"/>
<path d="M1941 1570C1941 1534.65 1969.65 1506 2005 1506V1506C2040.35 1506 2069 1534.65 2069 1570V1570C2069 1605.35 2040.35 1634 2005 1634V1634C1969.65 1634 1941 1605.35 1941 1570V1570Z" fill="#CFD1D4"/>
<path d="M1941 2135C1941 2099.65 1969.65 2071 2005 2071V2071C2040.35 2071 2069 2099.65 2069 2135V2135C2069 2170.35 2040.35 2199 2005 2199V2199C1969.65 2199 1941 2170.35 1941 2135V2135Z" fill="#CFD1D4"/>
<path d="M2223 1842C2223 1806.65 2251.65 1778 2287 1778V1778C2322.35 1778 2351 1806.65 2351 1842V1842C2351 1877.35 2322.35 1906 2287 1906V1906C2251.65 1906 2223 1877.35 2223 1842V1842Z" fill="#CFD1D4"/>
<path d="M1658 1842C1658 1806.65 1686.65 1778 1722 1778V1778C1757.35 1778 1786 1806.65 1786 1842V1842C1786 1877.35 1757.35 1906 1722 1906V1906C1686.65 1906 1658 1877.35 1658 1842V1842Z" fill="#CFD1D4"/>
<path d="M1939.17 1634.66C1939.57 1634.28 1939.58 1633.64 1939.2 1633.24C1938.81 1632.85 1938.18 1632.83 1937.78 1633.22L1939.17 1634.66ZM1892.63 1678L1893.33 1678.72L1893.33 1678.72L1892.63 1678ZM1890.22 1680.32L1890.92 1681.04L1890.92 1681.04L1890.22 1680.32ZM1888.14 1680.93C1887.74 1681.31 1887.73 1681.95 1888.11 1682.34C1888.5 1682.74 1889.13 1682.75 1889.53 1682.37L1888.14 1680.93ZM1838.86 1731.07C1839.26 1730.69 1839.27 1730.05 1838.89 1729.66C1838.51 1729.26 1837.87 1729.24 1837.47 1729.63L1838.86 1731.07ZM1832.33 1734.53L1831.62 1733.83L1832.33 1734.53ZM1834.9 1733.49L1835.59 1734.21L1834.9 1733.49ZM1938.48 1633.94L1937.78 1633.22L1891.94 1677.28L1892.63 1678L1893.33 1678.72L1939.17 1634.66L1938.48 1633.94ZM1892.63 1678L1891.94 1677.28L1889.53 1679.6L1890.22 1680.32L1890.92 1681.04L1893.33 1678.72L1892.63 1678ZM1890.22 1680.32L1889.53 1679.6L1888.14 1680.93L1888.83 1681.65L1889.53 1682.37L1890.92 1681.04L1890.22 1680.32ZM1838.17 1730.35L1837.47 1729.63L1834.21 1732.77L1834.9 1733.49L1835.59 1734.21L1838.86 1731.07L1838.17 1730.35ZM1832.33 1734.53L1831.62 1733.83L1787.82 1777.35L1788.52 1778.06L1789.23 1778.77L1833.03 1735.24L1832.33 1734.53ZM1833.63 1734V1733C1832.88 1733 1832.16 1733.3 1831.62 1733.83L1832.33 1734.53L1833.03 1735.24C1833.19 1735.09 1833.4 1735 1833.63 1735V1734ZM1834.9 1733.49L1834.21 1732.77C1834.05 1732.92 1833.84 1733 1833.63 1733V1734V1735C1834.36 1735 1835.07 1734.72 1835.59 1734.21L1834.9 1733.49Z" fill="#1A1B1D"/>
<path d="M1728.26 1766.82C1729.04 1768.28 1730.85 1768.84 1732.32 1768.07L1756.18 1755.43C1757.64 1754.66 1758.2 1752.84 1757.42 1751.38C1756.65 1749.91 1754.83 1749.35 1753.37 1750.13L1732.16 1761.36L1720.93 1740.15C1720.15 1738.69 1718.34 1738.13 1716.87 1738.91C1715.41 1739.68 1714.85 1741.5 1715.63 1742.96L1728.26 1766.82ZM1810.42 1640.91L1812.37 1643.19L1810.42 1640.91ZM1921.32 1578.77C1922.9 1578.28 1923.78 1576.59 1923.28 1575.01C1922.78 1573.43 1921.09 1572.55 1919.51 1573.05L1921.32 1578.77ZM1730.91 1765.42C1733.78 1766.3 1733.78 1766.3 1733.78 1766.3C1733.78 1766.3 1733.78 1766.3 1733.78 1766.3C1733.78 1766.3 1733.78 1766.29 1733.78 1766.29C1733.79 1766.28 1733.79 1766.27 1733.79 1766.25C1733.81 1766.22 1733.82 1766.17 1733.84 1766.1C1733.89 1765.96 1733.95 1765.75 1734.04 1765.47C1734.23 1764.92 1734.5 1764.09 1734.87 1763.01C1735.61 1760.86 1736.74 1757.71 1738.26 1753.79C1741.31 1745.94 1745.97 1734.97 1752.35 1722.51C1765.14 1697.55 1784.8 1666.81 1812.37 1643.19L1810.42 1640.91L1808.47 1638.63C1780.08 1662.95 1759.99 1694.46 1747.01 1719.77C1740.52 1732.45 1735.78 1743.61 1732.67 1751.62C1731.11 1755.62 1729.96 1758.83 1729.2 1761.06C1728.82 1762.17 1728.53 1763.03 1728.34 1763.62C1728.24 1763.91 1728.17 1764.14 1728.12 1764.29C1728.1 1764.37 1728.08 1764.43 1728.07 1764.47C1728.06 1764.49 1728.06 1764.5 1728.05 1764.52C1728.05 1764.52 1728.05 1764.53 1728.05 1764.53C1728.05 1764.53 1728.05 1764.53 1728.05 1764.53C1728.05 1764.53 1728.05 1764.53 1730.91 1765.42ZM1810.42 1640.91L1812.37 1643.19C1840.12 1619.42 1867.41 1603.3 1887.74 1593.12C1897.91 1588.04 1906.33 1584.44 1912.2 1582.12C1915.14 1580.96 1917.43 1580.12 1918.98 1579.57C1919.76 1579.29 1920.35 1579.09 1920.75 1578.96C1920.94 1578.9 1921.09 1578.85 1921.19 1578.82C1921.23 1578.8 1921.27 1578.79 1921.29 1578.78C1921.3 1578.78 1921.31 1578.78 1921.32 1578.78C1921.32 1578.77 1921.32 1578.77 1921.32 1578.77C1921.32 1578.77 1921.32 1578.77 1921.32 1578.77C1921.32 1578.77 1921.32 1578.77 1920.42 1575.91C1919.51 1573.05 1919.51 1573.05 1919.51 1573.05C1919.51 1573.05 1919.51 1573.05 1919.51 1573.05C1919.51 1573.06 1919.5 1573.06 1919.5 1573.06C1919.49 1573.06 1919.48 1573.06 1919.46 1573.07C1919.43 1573.08 1919.39 1573.09 1919.33 1573.11C1919.22 1573.15 1919.06 1573.2 1918.85 1573.27C1918.42 1573.41 1917.8 1573.63 1916.99 1573.91C1915.37 1574.48 1913 1575.35 1910 1576.54C1903.98 1578.92 1895.4 1582.58 1885.06 1587.76C1864.38 1598.1 1836.67 1614.48 1808.47 1638.63L1810.42 1640.91Z" fill="#30839D"/>
<path d="M1938.12 1634.28L1892.63 1678L1890.22 1680.32L1888.83 1681.65M1838.17 1730.35L1834.37 1734L1788.88 1777.72" stroke="#30839D" stroke-width="3" stroke-linecap="round" stroke-linejoin="bevel"/>
<path d="M1863.87 1719.4C1862.22 1719.4 1860.68 1719.13 1859.25 1718.59C1857.83 1718.03 1856.61 1717.28 1855.58 1716.32C1854.56 1715.36 1853.79 1714.26 1853.29 1713.02L1856.84 1711.15C1857.28 1712.04 1857.81 1712.84 1858.42 1713.55C1859.04 1714.25 1859.77 1714.81 1860.6 1715.22C1861.44 1715.62 1862.4 1715.81 1863.48 1715.81C1865.17 1715.81 1866.53 1715.35 1867.55 1714.41C1868.58 1713.46 1869.09 1712.2 1869.09 1710.63C1869.09 1709.66 1868.85 1708.79 1868.37 1708.04C1867.91 1707.28 1867.26 1706.69 1866.45 1706.27C1865.64 1705.84 1864.73 1705.63 1863.69 1705.63C1863.08 1705.63 1862.51 1705.68 1861.97 1705.79C1861.44 1705.9 1860.9 1706.1 1860.36 1706.4C1859.82 1706.69 1859.24 1707.13 1858.62 1707.71C1858.5 1707.77 1858.41 1707.8 1858.35 1707.8C1858.3 1707.79 1858.21 1707.76 1858.08 1707.7L1854.71 1706.33L1855.9 1692.97H1872.08L1871.92 1696.63H1859.46L1858.87 1703.86C1859.79 1703.21 1860.72 1702.75 1861.66 1702.46C1862.6 1702.17 1863.63 1702.03 1864.76 1702.03C1866.41 1702.03 1867.92 1702.35 1869.27 1703C1870.63 1703.65 1871.71 1704.6 1872.51 1705.86C1873.32 1707.12 1873.72 1708.66 1873.72 1710.49C1873.72 1712.31 1873.31 1713.89 1872.5 1715.22C1871.69 1716.55 1870.55 1717.58 1869.08 1718.32C1867.61 1719.04 1865.88 1719.4 1863.87 1719.4Z" fill="black" fill-opacity="0.8"/>
<path d="M2219 1842H2029.33M1979.67 1842H1790" stroke="#30839D" stroke-width="3" stroke-linecap="round" stroke-linejoin="bevel"/>
<path d="M1999.76 1855C1999.91 1853.88 2000.19 1852.49 2000.63 1850.82C2001.07 1849.14 2001.68 1847.3 2002.44 1845.28C2003.21 1843.25 2004.17 1841.16 2005.31 1839C2006.45 1836.84 2007.78 1834.71 2009.3 1832.63H1995.05V1828.97H2013.96V1832.63C2013.09 1833.77 2012.22 1835.09 2011.35 1836.59C2010.49 1838.07 2009.66 1839.65 2008.87 1841.32C2008.08 1842.98 2007.37 1844.64 2006.75 1846.31C2006.12 1847.96 2005.61 1849.54 2005.22 1851.04C2004.82 1852.54 2004.58 1853.86 2004.5 1855H1999.76Z" fill="black" fill-opacity="0.8"/>
<path d="M2220.12 1777.49L2175.03 1734L2171.91 1730.99L2170.83 1729.95M2121.17 1682.05L2120.09 1681.01L2117.5 1678.51C2117.16 1678.18 2116.7 1678 2116.23 1678V1678C2115.74 1678 2115.28 1677.81 2114.93 1677.46L2071.88 1634.51" stroke="#30839D" stroke-width="3" stroke-linecap="round" stroke-linejoin="bevel"/>
<path d="M2137.01 1719V1716.66V1715.45C2137.01 1714.12 2137.26 1712.98 2137.75 1712.02C2138.24 1711.04 2138.9 1710.2 2139.71 1709.48C2140.53 1708.76 2141.42 1708.12 2142.4 1707.57C2143.38 1707.01 2144.35 1706.48 2145.31 1705.99C2146.28 1705.48 2147.18 1704.97 2147.99 1704.44C2148.81 1703.9 2149.46 1703.3 2149.96 1702.64C2150.46 1701.98 2150.71 1701.19 2150.71 1700.28C2150.71 1699.12 2150.3 1698.17 2149.47 1697.44C2148.65 1696.69 2147.54 1696.32 2146.14 1696.32C2144.65 1696.32 2143.42 1696.75 2142.45 1697.6C2141.49 1698.45 2140.92 1699.65 2140.74 1701.2H2136.49C2136.52 1699.61 2136.89 1698.17 2137.63 1696.88C2138.36 1695.58 2139.44 1694.55 2140.88 1693.78C2142.32 1693 2144.12 1692.61 2146.27 1692.61C2148.13 1692.61 2149.73 1692.94 2151.07 1693.58C2152.43 1694.22 2153.47 1695.11 2154.2 1696.27C2154.95 1697.41 2155.32 1698.74 2155.32 1700.26C2155.32 1701.59 2155.07 1702.73 2154.58 1703.68C2154.1 1704.63 2153.46 1705.45 2152.66 1706.15C2151.86 1706.83 2150.99 1707.44 2150.03 1707.97C2149.08 1708.49 2148.13 1708.99 2147.17 1709.46C2146.22 1709.92 2145.34 1710.4 2144.54 1710.9C2143.75 1711.39 2143.1 1711.96 2142.61 1712.59C2142.13 1713.23 2141.89 1713.99 2141.89 1714.88V1715.26H2155.37V1719H2137.01Z" fill="black" fill-opacity="0.8"/>
<path d="M2222.63 1908.88L2172.95 1960.5L2172.37 1961.1L2171.33 1962.18M2120.67 2014.82L2119.05 2016.5L2117.67 2017.94L2069.37 2068.12" stroke="#30839D" stroke-width="3" stroke-linecap="round" stroke-linejoin="bevel"/>
<path d="M2145.56 2001.9C2143.6 2001.88 2141.92 2001.55 2140.5 2000.89C2139.09 2000.23 2137.98 1999.29 2137.19 1998.06C2136.41 1996.84 2136 1995.39 2135.97 1993.71H2140.23C2140.48 1995.25 2141.1 1996.41 2142.07 1997.16C2143.05 1997.91 2144.25 1998.28 2145.65 1998.28C2146.81 1998.28 2147.82 1998.1 2148.67 1997.76C2149.53 1997.4 2150.18 1996.9 2150.64 1996.28C2151.1 1995.66 2151.34 1994.93 2151.34 1994.1C2151.34 1993.23 2151.09 1992.48 2150.58 1991.85C2150.09 1991.23 2149.41 1990.75 2148.55 1990.41C2147.68 1990.08 2146.71 1989.9 2145.63 1989.87L2143.22 1989.8V1986.24L2145.45 1986.15C2146.48 1986.11 2147.39 1985.91 2148.17 1985.55C2148.96 1985.19 2149.58 1984.72 2150.02 1984.13C2150.47 1983.54 2150.69 1982.88 2150.69 1982.15C2150.69 1981.48 2150.48 1980.87 2150.06 1980.33C2149.65 1979.79 2149.07 1979.37 2148.31 1979.07C2147.56 1978.76 2146.66 1978.6 2145.63 1978.6C2144.76 1978.6 2143.93 1978.76 2143.17 1979.07C2142.4 1979.38 2141.76 1979.89 2141.26 1980.58C2140.77 1981.27 2140.5 1982.17 2140.45 1983.28H2136.2C2136.2 1981.51 2136.63 1980.01 2137.48 1978.8C2138.33 1977.58 2139.47 1976.66 2140.9 1976.05C2142.34 1975.42 2143.93 1975.11 2145.69 1975.11C2147.57 1975.11 2149.24 1975.37 2150.69 1975.89C2152.15 1976.39 2153.3 1977.15 2154.13 1978.17C2154.97 1979.19 2155.39 1980.46 2155.39 1981.97C2155.39 1983.25 2155 1984.4 2154.22 1985.41C2153.44 1986.42 2152.21 1987.21 2150.53 1987.78C2151.57 1988.07 2152.51 1988.5 2153.34 1989.08C2154.16 1989.64 2154.82 1990.35 2155.3 1991.2C2155.79 1992.06 2156.04 1993.06 2156.04 1994.21C2156.04 1995.45 2155.77 1996.54 2155.23 1997.5C2154.7 1998.46 2153.95 1999.27 2152.99 1999.93C2152.05 2000.58 2150.94 2001.07 2149.66 2001.41C2148.39 2001.73 2147.02 2001.9 2145.56 2001.9Z" fill="black" fill-opacity="0.8"/>
<path d="M1942.11 2072.04L1943.15 2073.12L1945.31 2071.04L1944.26 2069.96L1942.11 2072.04ZM1891.93 2017.94L1890.85 2018.98L1890.85 2018.98L1891.93 2017.94ZM1891.26 2017.25L1892.34 2016.2L1892.34 2016.2L1891.26 2017.25ZM1891.3 2015.12C1890.73 2014.53 1889.78 2014.51 1889.18 2015.09C1888.58 2015.66 1888.57 2016.61 1889.14 2017.21L1891.3 2015.12ZM1838.48 1964.75C1839.05 1965.35 1840 1965.36 1840.6 1964.79C1841.19 1964.21 1841.21 1963.26 1840.63 1962.67L1838.48 1964.75ZM1838.89 1963.02L1839.97 1961.98L1839.97 1961.98L1838.89 1963.02ZM1837.85 1961.94L1836.77 1962.98L1836.77 1962.98L1837.85 1961.94ZM1836.46 1960.5L1837.53 1959.46L1837.53 1959.46L1836.46 1960.5ZM1787.67 1907.83C1787.1 1907.24 1786.15 1907.22 1785.55 1907.8C1784.96 1908.37 1784.94 1909.32 1785.52 1909.92L1787.67 1907.83ZM1943.18 2071L1944.26 2069.96L1893.01 2016.9L1891.93 2017.94L1890.85 2018.98L1942.11 2072.04L1943.18 2071ZM1891.93 2017.94L1893.01 2016.9L1892.34 2016.2L1891.26 2017.25L1890.19 2018.29L1890.85 2018.98L1891.93 2017.94ZM1891.26 2017.25L1892.34 2016.2L1891.3 2015.12L1890.22 2016.17L1889.14 2017.21L1890.19 2018.29L1891.26 2017.25ZM1839.56 1963.71L1840.63 1962.67L1839.97 1961.98L1838.89 1963.02L1837.81 1964.06L1838.48 1964.75L1839.56 1963.71ZM1838.89 1963.02L1839.97 1961.98L1838.92 1960.9L1837.85 1961.94L1836.77 1962.98L1837.81 1964.06L1838.89 1963.02ZM1837.85 1961.94L1838.92 1960.9L1837.53 1959.46L1836.46 1960.5L1835.38 1961.54L1836.77 1962.98L1837.85 1961.94ZM1836.46 1960.5L1837.53 1959.46L1787.67 1907.83L1786.59 1908.88L1785.52 1909.92L1835.38 1961.54L1836.46 1960.5Z" fill="#30839D"/>
<path d="M1865.31 2003.33C1863.19 2003.33 1861.35 2002.81 1859.8 2001.75C1858.25 2000.69 1857.06 1999.2 1856.22 1997.27C1855.39 1995.32 1854.98 1993.03 1854.98 1990.37C1854.98 1987.55 1855.39 1985.11 1856.22 1983.05C1857.05 1980.97 1858.25 1979.37 1859.82 1978.24C1861.4 1977.11 1863.32 1976.55 1865.56 1976.55C1867.1 1976.55 1868.52 1976.84 1869.83 1977.41C1871.14 1977.98 1872.21 1978.79 1873.05 1979.86C1873.89 1980.93 1874.38 1982.22 1874.53 1983.73H1870.48C1870.14 1982.57 1869.56 1981.67 1868.75 1981.03C1867.93 1980.4 1866.9 1980.08 1865.65 1980.08C1864.27 1980.08 1863.12 1980.47 1862.2 1981.25C1861.27 1982.03 1860.61 1983.15 1860.2 1984.61C1859.8 1986.07 1859.68 1987.81 1859.82 1989.83C1860.19 1989.13 1860.7 1988.51 1861.33 1988C1861.97 1987.47 1862.69 1987.06 1863.51 1986.77C1864.33 1986.49 1865.19 1986.34 1866.1 1986.34C1867.84 1986.34 1869.37 1986.67 1870.67 1987.33C1871.98 1987.99 1873 1988.93 1873.73 1990.14C1874.47 1991.35 1874.83 1992.79 1874.83 1994.44C1874.83 1996.16 1874.44 1997.69 1873.64 1999.03C1872.85 2000.36 1871.74 2001.41 1870.31 2002.18C1868.89 2002.95 1867.22 2003.33 1865.31 2003.33ZM1865.2 1999.9C1866.14 1999.9 1866.98 1999.67 1867.72 1999.23C1868.48 1998.79 1869.07 1998.17 1869.5 1997.38C1869.95 1996.58 1870.17 1995.67 1870.17 1994.64C1870.17 1993.58 1869.97 1992.69 1869.56 1991.96C1869.15 1991.23 1868.57 1990.67 1867.81 1990.28C1867.07 1989.9 1866.19 1989.71 1865.18 1989.71C1864.36 1989.71 1863.55 1989.9 1862.77 1990.28C1862 1990.67 1861.37 1991.17 1860.88 1991.78C1860.4 1992.39 1860.16 1993.04 1860.16 1993.74C1860.15 1994.98 1860.35 1996.06 1860.77 1996.98C1861.19 1997.9 1861.78 1998.62 1862.54 1999.14C1863.31 1999.64 1864.19 1999.9 1865.2 1999.9Z" fill="black" fill-opacity="0.8"/>
<path d="M1800.11 2070L1800.13 2063.83H1788.02V2060.1L1800.01 2043.97H1804.36V2060.1H1808.52V2063.83H1804.36V2070H1800.11ZM1792.12 2060.1H1800.1V2049.41L1792.12 2060.1Z" fill="black"/>
<rect x="1792" y="1637.64" width="28" height="28" transform="rotate(-39.041 1792 1637.64)" fill="white"/>
<path d="M1809.58 1658.69V1638.64H1804.75V1636.03C1806.28 1636.03 1807.48 1635.9 1808.37 1635.65C1809.27 1635.39 1809.93 1635 1810.33 1634.5C1810.75 1634 1810.99 1633.38 1811.05 1632.66H1814.04V1658.69H1809.58Z" fill="black"/>
<path d="M1.68888 18.928V14.848H12.2489V46H7.68888V18.928H1.68888Z" fill="black"/>
<path d="M841.088 37.408L836.384 41.872H852.08V46H831.44V41.872C845.36 28 846.752 26.32 846.752 23.104C846.752 20.32 844.688 18.448 841.328 18.448C838.112 18.448 835.568 20.32 835.52 23.152H831.344C830.912 18.16 835.376 14.32 841.28 14.32C847.376 14.32 851.36 17.824 851.36 22.96C851.36 28.048 845.888 33.04 841.088 37.408Z" fill="black"/>
<path d="M3.09281 1516.98V1512.85H23.8768V1516.98L11.7808 1544H6.83681L19.1248 1516.98H3.09281Z" fill="black"/>
<path d="M1658.57 1533.06C1652.86 1533.06 1648.16 1528.98 1648.25 1522.64C1648.35 1516.21 1653.24 1512.27 1660.06 1512.27C1666.88 1512.27 1671.82 1516.11 1671.72 1522.54C1671.72 1524.08 1671.34 1525.81 1670.33 1527.87C1669.8 1529.17 1661.74 1544 1661.74 1544H1656.46L1664.48 1530.46C1662.8 1532.14 1660.92 1533.06 1658.57 1533.06ZM1660.06 1516.4C1656.03 1516.4 1652.96 1518.61 1652.86 1522.69C1652.81 1526.72 1655.74 1529.02 1659.77 1529.02C1664.24 1529.02 1667.07 1526.24 1667.12 1522.64C1667.16 1518.61 1664.04 1516.4 1660.06 1516.4Z" fill="black"/>
<path d="M827.995 1525.81C831.451 1525.81 833.659 1523.74 833.659 1521.01C833.659 1518.27 831.451 1516.4 827.995 1516.4C824.635 1516.4 822.379 1518.27 822.379 1521.01C822.379 1523.74 824.635 1525.81 827.995 1525.81ZM827.995 1544.53C820.987 1544.53 817.003 1540.45 817.003 1535.46C817.003 1531.23 819.499 1528.69 823.291 1527.58C819.883 1526.67 817.723 1524.51 817.723 1520.77C817.723 1515.97 821.515 1512.32 827.995 1512.32C834.523 1512.32 838.267 1515.97 838.267 1520.77C838.267 1524.51 836.155 1526.67 832.699 1527.58C836.539 1528.69 839.035 1531.23 839.035 1535.46C839.035 1540.45 835.051 1544.53 827.995 1544.53ZM827.995 1540.4C831.931 1540.4 834.427 1538.24 834.427 1535.26C834.427 1532.1 831.931 1529.89 827.995 1529.89C824.059 1529.89 821.659 1532.1 821.659 1535.26C821.659 1538.24 824.059 1540.4 827.995 1540.4Z" fill="black"/>
<path d="M1673.35 774.744C1679.25 774.744 1683.77 778.824 1683.67 785.16C1683.57 791.544 1678.73 795.528 1672.05 795.528C1665.24 795.528 1660.2 791.688 1660.29 785.256C1660.29 783.768 1660.63 782.04 1661.59 779.976C1662.02 779.064 1666.77 770.184 1670.28 763.8H1675.56L1667.54 777.288C1669.17 775.656 1671 774.744 1673.35 774.744ZM1671.96 791.4C1675.85 791.4 1678.97 789.144 1679.06 785.112C1679.11 781.128 1676.13 778.776 1672.2 778.776C1667.78 778.776 1664.95 781.608 1664.9 785.16C1664.85 789.192 1667.97 791.4 1671.96 791.4Z" fill="black"/>
<path d="M844.921 774.984C850.393 774.984 854.905 778.824 854.905 785.208C854.905 791.688 850.009 795.528 843.817 795.528C837.625 795.528 832.441 791.928 832.105 785.976H836.617C836.953 789.432 840.073 791.352 843.769 791.352C847.081 791.352 850.393 789.288 850.393 785.208C850.393 781.176 847.225 778.968 843.961 778.968C841.369 778.968 838.585 779.736 837.145 782.664L833.017 781.848L834.121 763.8H851.881V767.928H838.441L837.673 779.16C839.113 776.328 841.993 774.984 844.921 774.984Z" fill="black"/>
<path d="M21.8243 763.848V784.248H26.5763V788.184H21.8243V795H17.2643V788.184H2.52831V784.248L17.2643 763.848H21.8243ZM7.66431 784.248H17.2643V770.808L7.66431 784.248Z" fill="black"/>
<path d="M1661.02 37.216H1665.2C1665.24 40.24 1667.93 42.4 1671.39 42.4C1675.08 42.4 1677.34 40.432 1677.34 37.072C1677.34 33.808 1674.8 31.648 1670.67 31.648H1667.5V28.144H1670.67C1674.89 28.144 1676.86 26.176 1676.86 23.104C1676.86 20.32 1674.6 18.448 1671.29 18.448C1668.08 18.448 1665.63 20.368 1665.58 23.152H1661.4C1660.97 18.016 1665.63 14.32 1671.29 14.32C1677.58 14.32 1681.56 17.92 1681.56 22.768C1681.56 27.568 1678.4 29.248 1673.84 29.68C1678.64 30.208 1682.04 32.272 1682.04 37.456C1682.04 42.544 1677.82 46.528 1671.39 46.528C1665.2 46.528 1660.59 42.448 1661.02 37.216Z" fill="black"/>
<rect x="113" y="2039.95" width="36.4433" height="36.4433" transform="rotate(-39.041 113 2039.95)" fill="white"/>
<path d="M138.114 2056L138.132 2049.83H126.018V2046.1L138.006 2029.97H142.362V2046.1H146.52V2049.83H142.362V2056H138.114ZM130.122 2046.1H138.096V2035.41L130.122 2046.1Z" fill="black"/>
<rect x="944" y="2046.95" width="36.4433" height="36.4433" transform="rotate(-39.041 944 2046.95)" fill="white"/>
<path d="M969.114 2063L969.132 2056.83H957.018V2053.1L969.006 2036.97H973.362V2053.1H977.52V2056.83H973.362V2063H969.114ZM961.122 2053.1H969.096V2042.41L961.122 2053.1Z" fill="black"/>
<rect x="1773" y="1290.95" width="36.4433" height="36.4433" transform="rotate(-39.041 1773 1290.95)" fill="white"/>
<path d="M1798.11 1307L1798.13 1300.83H1786.02V1297.1L1798.01 1280.97H1802.36V1297.1H1806.52V1300.83H1802.36V1307H1798.11ZM1790.12 1297.1H1798.1V1286.41L1790.12 1297.1Z" fill="black"/>
<rect x="944" y="1290.95" width="36.4433" height="36.4433" transform="rotate(-39.041 944 1290.95)" fill="white"/>
<path d="M969.114 1307L969.132 1300.83H957.018V1297.1L969.006 1280.97H973.362V1297.1H977.52V1300.83H973.362V1307H969.114ZM961.122 1297.1H969.096V1286.41L961.122 1297.1Z" fill="black"/>
<rect x="115" y="1290.95" width="36.4433" height="36.4433" transform="rotate(-39.041 115 1290.95)" fill="white"/>
<path d="M140.114 1307L140.132 1300.83H128.018V1297.1L140.006 1280.97H144.362V1297.1H148.52V1300.83H144.362V1307H140.114ZM132.122 1297.1H140.096V1286.41L132.122 1297.1Z" fill="black"/>
<rect x="944" y="541.955" width="36.4433" height="36.4433" transform="rotate(-39.041 944 541.955)" fill="white"/>
<path d="M969.114 558L969.132 551.826H957.018V548.1L969.006 531.972H973.362V548.1H977.52V551.826H973.362V558H969.114ZM961.122 548.1H969.096V537.408L961.122 548.1Z" fill="black"/>
<rect x="1779" y="544.955" width="36.4433" height="36.4433" transform="rotate(-39.041 1779 544.955)" fill="white"/>
<path d="M1804.11 561L1804.13 554.826H1792.02V551.1L1804.01 534.972H1808.36V551.1H1812.52V554.826H1808.36V561H1804.11ZM1796.12 551.1H1804.1V540.408L1796.12 551.1Z" fill="black"/>
<rect x="1773" y="2046.95" width="36.4433" height="36.4433" transform="rotate(-39.041 1773 2046.95)" fill="white"/>
<path d="M1798.11 2063L1798.13 2056.83H1786.02V2053.1L1798.01 2036.97H1802.36V2053.1H1806.52V2056.83H1802.36V2063H1798.11ZM1790.12 2053.1H1798.1V2042.41L1790.12 2053.1Z" fill="black"/>
</svg>
