<svg width="601" height="294" viewBox="0 0 601 294" fill="none" xmlns="http://www.w3.org/2000/svg">
<path d="M12 240C12 222.327 26.3269 208 44 208C61.6731 208 76 222.327 76 240C76 257.673 61.6731 272 44 272C26.3269 272 12 257.673 12 240Z" fill="#014063" style="fill:#014063;fill:color(display-p3 0.0039 0.2510 0.3882);fill-opacity:1;"/>
<path d="M43.9455 226.5C38.705 226.5 33.0001 227.789 33.0001 230.592C33.0001 233.395 38.705 234.684 43.9455 234.684C49.1861 234.684 54.8185 233.395 54.8185 230.592C54.8185 227.789 49.1861 226.5 43.9455 226.5Z" fill="white" style="fill:white;fill-opacity:1;"/>
<path fill-rule="evenodd" clip-rule="evenodd" d="M43.9455 236.935C39.8355 236.935 35.479 236.21 33 234.471V249.075C33 251.878 38.7049 253.167 43.9455 253.167C49.186 253.167 54.8185 251.878 54.8185 249.075V234.616C52.3394 236.355 48.0555 236.935 43.9455 236.935ZM44.3602 240.413C42.3097 240.413 40.9333 241.617 40.9333 243.94V245.591C41.1299 245.493 41.3547 245.437 41.5934 245.437C41.8321 245.437 42.0569 245.493 42.2676 245.591V243.926C42.2676 242.414 43.0961 241.645 44.3602 241.645C45.6243 241.645 46.4529 242.414 46.4529 243.926V247.55H47.7871V243.926C47.8012 241.589 46.4108 240.413 44.3602 240.413ZM37.4925 244.807C37.6051 244.625 37.7595 244.485 37.928 244.402C38.2371 244.248 38.6164 244.248 38.9393 244.387C39.2343 244.57 39.3748 244.877 39.4591 245.185C39.5717 245.577 39.7119 245.871 40.0631 246.081C40.4141 246.291 40.7512 246.249 41.1445 246.151C41.4675 246.081 41.8046 246.039 42.0995 246.207C42.4225 246.389 42.619 246.711 42.6331 247.061V247.2C42.6051 247.536 42.4225 247.872 42.0995 248.054C41.7907 248.236 41.4536 248.194 41.1445 248.11C40.7515 248.012 40.4144 247.97 40.0631 248.18C39.6977 248.376 39.5713 248.684 39.4591 249.075C39.3748 249.383 39.2343 249.705 38.9393 249.873C38.6164 250.055 38.2371 250.055 37.928 249.901C37.7453 249.817 37.6048 249.677 37.4925 249.495C37.3799 249.313 37.3378 249.117 37.352 248.921C37.3799 248.586 37.5626 248.25 37.8856 248.068C38.1944 247.886 38.5315 247.928 38.8406 248.012C39.2336 248.11 39.5707 248.152 39.922 247.942H39.9361C40.5402 247.592 40.5402 246.711 39.9361 246.361H39.922C39.571 246.151 39.2339 246.193 38.8406 246.291C38.5176 246.36 38.1805 246.402 37.8856 246.235C37.5626 246.053 37.3661 245.731 37.352 245.381C37.3381 245.185 37.3803 244.989 37.4925 244.807Z" fill="white" style="fill:white;fill-opacity:1;"/>
<path d="M14.0668 293V282.878C14.1088 282.878 14.2325 282.878 14.4378 282.878C14.6431 282.878 14.8858 282.878 15.1658 282.878C15.4505 282.878 15.7375 282.88 16.0268 282.885C16.3208 282.885 16.5751 282.887 16.7898 282.892C18.0218 282.915 19.0228 283.128 19.7928 283.529C20.5675 283.926 21.1345 284.493 21.4938 285.23C21.8578 285.963 22.0398 286.847 22.0398 287.883C22.0398 288.966 21.8461 289.887 21.4588 290.648C21.0761 291.409 20.4881 291.992 19.6948 292.398C18.9061 292.799 17.9028 293 16.6848 293H14.0668ZM15.7958 291.593H16.7128C17.4081 291.593 18.0218 291.474 18.5538 291.236C19.0858 290.993 19.5011 290.601 19.7998 290.06C20.1031 289.519 20.2548 288.795 20.2548 287.89C20.2548 287.013 20.1148 286.31 19.8348 285.783C19.5548 285.256 19.1535 284.875 18.6308 284.642C18.1081 284.404 17.4828 284.285 16.7548 284.285H15.7958V291.593ZM25.8129 293.14C25.3509 293.14 24.9356 293.056 24.5669 292.888C24.2029 292.715 23.9159 292.47 23.7059 292.153C23.5006 291.831 23.3979 291.441 23.3979 290.984C23.3979 290.186 23.6849 289.584 24.2589 289.178C24.8376 288.772 25.7569 288.56 27.0169 288.541L28.1019 288.513V288.023C28.1019 287.64 27.9876 287.342 27.7589 287.127C27.5349 286.908 27.1849 286.8 26.7089 286.805C26.3542 286.81 26.0322 286.894 25.7429 287.057C25.4536 287.216 25.2622 287.484 25.1689 287.862H23.7199C23.7479 287.367 23.8902 286.954 24.1469 286.623C24.4082 286.287 24.7652 286.037 25.2179 285.874C25.6706 285.706 26.1932 285.622 26.7859 285.622C27.4766 285.622 28.0389 285.713 28.4729 285.895C28.9069 286.077 29.2266 286.341 29.4319 286.686C29.6372 287.027 29.7399 287.44 29.7399 287.925V293H28.3049L28.1649 291.698C27.9082 292.244 27.5792 292.622 27.1779 292.832C26.7812 293.037 26.3262 293.14 25.8129 293.14ZM26.3659 291.985C26.5759 291.985 26.7836 291.948 26.9889 291.873C27.1942 291.794 27.3786 291.689 27.5419 291.558C27.7099 291.423 27.8429 291.273 27.9409 291.11C28.0436 290.947 28.0972 290.776 28.1019 290.599V289.458L27.2129 289.472C26.7742 289.477 26.3892 289.523 26.0579 289.612C25.7312 289.701 25.4769 289.843 25.2949 290.039C25.1129 290.23 25.0219 290.487 25.0219 290.809C25.0219 291.178 25.1502 291.467 25.4069 291.677C25.6636 291.882 25.9832 291.985 26.3659 291.985ZM34.1718 293.056C33.5978 293.056 33.1521 292.981 32.8348 292.832C32.5221 292.678 32.3051 292.461 32.1838 292.181C32.0624 291.901 32.0018 291.567 32.0018 291.18V286.966H30.8258V285.762H32.0508L32.4778 283.613H33.7028V285.755H35.3198V286.966H33.7028L33.7098 291.117C33.7098 291.332 33.7331 291.49 33.7798 291.593C33.8311 291.691 33.9104 291.756 34.0178 291.789C34.1298 291.817 34.2768 291.831 34.4588 291.831H35.3548V292.909C35.2568 292.946 35.1121 292.979 34.9208 293.007C34.7341 293.04 34.4844 293.056 34.1718 293.056ZM38.9926 293.14C38.5306 293.14 38.1153 293.056 37.7466 292.888C37.3826 292.715 37.0956 292.47 36.8856 292.153C36.6803 291.831 36.5776 291.441 36.5776 290.984C36.5776 290.186 36.8646 289.584 37.4386 289.178C38.0173 288.772 38.9366 288.56 40.1966 288.541L41.2816 288.513V288.023C41.2816 287.64 41.1673 287.342 40.9386 287.127C40.7146 286.908 40.3646 286.8 39.8886 286.805C39.5339 286.81 39.2119 286.894 38.9226 287.057C38.6333 287.216 38.4419 287.484 38.3486 287.862H36.8996C36.9276 287.367 37.0699 286.954 37.3266 286.623C37.5879 286.287 37.9449 286.037 38.3976 285.874C38.8503 285.706 39.3729 285.622 39.9656 285.622C40.6563 285.622 41.2186 285.713 41.6526 285.895C42.0866 286.077 42.4063 286.341 42.6116 286.686C42.8169 287.027 42.9196 287.44 42.9196 287.925V293H41.4846L41.3446 291.698C41.0879 292.244 40.7589 292.622 40.3576 292.832C39.9609 293.037 39.5059 293.14 38.9926 293.14ZM39.5456 291.985C39.7556 291.985 39.9633 291.948 40.1686 291.873C40.3739 291.794 40.5583 291.689 40.7216 291.558C40.8896 291.423 41.0226 291.273 41.1206 291.11C41.2233 290.947 41.2769 290.776 41.2816 290.599V289.458L40.3926 289.472C39.9539 289.477 39.5689 289.523 39.2376 289.612C38.9109 289.701 38.6566 289.843 38.4746 290.039C38.2926 290.23 38.2016 290.487 38.2016 290.809C38.2016 291.178 38.3299 291.467 38.5866 291.677C38.8433 291.882 39.1629 291.985 39.5456 291.985ZM48.5556 293.14C48.1682 293.14 47.8369 293.089 47.5616 292.986C47.2862 292.883 47.0552 292.75 46.8686 292.587C46.6866 292.424 46.5396 292.249 46.4276 292.062C46.3202 291.871 46.2386 291.689 46.1826 291.516L45.9866 293H44.7336V282.598H46.4416V286.819C46.5162 286.679 46.6189 286.539 46.7496 286.399C46.8849 286.259 47.0482 286.131 47.2396 286.014C47.4309 285.897 47.6479 285.804 47.8906 285.734C48.1379 285.659 48.4109 285.622 48.7096 285.622C49.6102 285.622 50.3219 285.942 50.8446 286.581C51.3672 287.22 51.6286 288.142 51.6286 289.346C51.6286 290.107 51.5119 290.772 51.2786 291.341C51.0499 291.91 50.7069 292.354 50.2496 292.671C49.7969 292.984 49.2322 293.14 48.5556 293.14ZM48.2056 291.887C48.7142 291.887 49.1319 291.684 49.4586 291.278C49.7852 290.872 49.9486 290.214 49.9486 289.304C49.9486 288.511 49.7946 287.911 49.4866 287.505C49.1786 287.094 48.7446 286.889 48.1846 286.889C47.7832 286.889 47.4542 286.98 47.1976 287.162C46.9456 287.344 46.7566 287.615 46.6306 287.974C46.5092 288.333 46.4462 288.777 46.4416 289.304C46.4416 290.228 46.5816 290.891 46.8616 291.292C47.1462 291.689 47.5942 291.887 48.2056 291.887ZM55.1938 293.14C54.7318 293.14 54.3164 293.056 53.9478 292.888C53.5838 292.715 53.2968 292.47 53.0868 292.153C52.8814 291.831 52.7788 291.441 52.7788 290.984C52.7788 290.186 53.0658 289.584 53.6398 289.178C54.2184 288.772 55.1378 288.56 56.3978 288.541L57.4828 288.513V288.023C57.4828 287.64 57.3684 287.342 57.1398 287.127C56.9158 286.908 56.5658 286.8 56.0898 286.805C55.7351 286.81 55.4131 286.894 55.1238 287.057C54.8344 287.216 54.6431 287.484 54.5498 287.862H53.1008C53.1288 287.367 53.2711 286.954 53.5278 286.623C53.7891 286.287 54.1461 286.037 54.5988 285.874C55.0514 285.706 55.5741 285.622 56.1668 285.622C56.8574 285.622 57.4198 285.713 57.8538 285.895C58.2878 286.077 58.6074 286.341 58.8128 286.686C59.0181 287.027 59.1208 287.44 59.1208 287.925V293H57.6858L57.5458 291.698C57.2891 292.244 56.9601 292.622 56.5588 292.832C56.1621 293.037 55.7071 293.14 55.1938 293.14ZM55.7468 291.985C55.9568 291.985 56.1644 291.948 56.3698 291.873C56.5751 291.794 56.7594 291.689 56.9228 291.558C57.0908 291.423 57.2238 291.273 57.3218 291.11C57.4244 290.947 57.4781 290.776 57.4828 290.599V289.458L56.5938 289.472C56.1551 289.477 55.7701 289.523 55.4388 289.612C55.1121 289.701 54.8578 289.843 54.6758 290.039C54.4938 290.23 54.4028 290.487 54.4028 290.809C54.4028 291.178 54.5311 291.467 54.7878 291.677C55.0444 291.882 55.3641 291.985 55.7468 291.985ZM63.6384 293.14C63.1344 293.14 62.6561 293.061 62.2034 292.902C61.7554 292.739 61.3774 292.484 61.0694 292.139C60.7661 291.794 60.5747 291.348 60.4954 290.802H61.9934C62.0587 291.068 62.1731 291.285 62.3364 291.453C62.5044 291.621 62.7004 291.745 62.9244 291.824C63.1531 291.899 63.3887 291.936 63.6314 291.936C64.0654 291.936 64.4154 291.861 64.6814 291.712C64.9474 291.563 65.0804 291.332 65.0804 291.019C65.0804 290.79 65.0057 290.608 64.8564 290.473C64.7117 290.338 64.4737 290.235 64.1424 290.165L62.7704 289.85C62.1544 289.715 61.6621 289.491 61.2934 289.178C60.9247 288.865 60.7381 288.424 60.7334 287.855C60.7287 287.426 60.8361 287.043 61.0554 286.707C61.2747 286.371 61.6014 286.107 62.0354 285.916C62.4694 285.72 63.0037 285.622 63.6384 285.622C64.4831 285.622 65.1597 285.811 65.6684 286.189C66.1817 286.562 66.4454 287.097 66.4594 287.792H65.0104C64.9591 287.479 64.8121 287.237 64.5694 287.064C64.3267 286.887 64.0117 286.798 63.6244 286.798C63.2231 286.798 62.8941 286.875 62.6374 287.029C62.3807 287.183 62.2524 287.419 62.2524 287.736C62.2524 287.955 62.3481 288.128 62.5394 288.254C62.7354 288.38 63.0317 288.487 63.4284 288.576L64.7304 288.891C65.1037 288.984 65.4094 289.11 65.6474 289.269C65.8854 289.428 66.0697 289.603 66.2004 289.794C66.3357 289.981 66.4291 290.174 66.4804 290.375C66.5364 290.571 66.5644 290.753 66.5644 290.921C66.5644 291.388 66.4431 291.787 66.2004 292.118C65.9624 292.445 65.6241 292.697 65.1854 292.874C64.7514 293.051 64.2357 293.14 63.6384 293.14ZM71.3115 293.14C70.6162 293.14 70.0025 292.993 69.4705 292.699C68.9432 292.4 68.5302 291.976 68.2315 291.425C67.9375 290.874 67.7905 290.219 67.7905 289.458C67.7905 288.716 67.9235 288.058 68.1895 287.484C68.4602 286.905 68.8498 286.45 69.3585 286.119C69.8718 285.788 70.4902 285.622 71.2135 285.622C71.9275 285.622 72.5272 285.774 73.0125 286.077C73.4978 286.38 73.8665 286.805 74.1185 287.351C74.3705 287.892 74.4965 288.527 74.4965 289.255V289.773H69.4915C69.4868 290.184 69.5522 290.548 69.6875 290.865C69.8228 291.182 70.0235 291.432 70.2895 291.614C70.5555 291.791 70.8845 291.88 71.2765 291.88C71.6778 291.88 72.0255 291.791 72.3195 291.614C72.6182 291.432 72.8165 291.157 72.9145 290.788H74.4685C74.3845 291.292 74.1838 291.719 73.8665 292.069C73.5538 292.419 73.1712 292.685 72.7185 292.867C72.2705 293.049 71.8015 293.14 71.3115 293.14ZM69.4845 288.716H72.8865C72.8865 288.366 72.8235 288.051 72.6975 287.771C72.5762 287.486 72.3918 287.262 72.1445 287.099C71.8972 286.931 71.5845 286.847 71.2065 286.847C70.8332 286.847 70.5182 286.938 70.2615 287.12C70.0048 287.302 69.8112 287.538 69.6805 287.827C69.5498 288.112 69.4845 288.408 69.4845 288.716Z" fill="#1A1B1D" style="fill:#1A1B1D;fill:color(display-p3 0.1020 0.1059 0.1137);fill-opacity:1;"/>
<path d="M12 32C12 14.3269 26.3269 0 44 0C61.6731 0 76 14.3269 76 32C76 49.6731 61.6731 64 44 64C26.3269 64 12 49.6731 12 32Z" fill="#014063" style="fill:#014063;fill:color(display-p3 0.0039 0.2510 0.3882);fill-opacity:1;"/>
<path fill-rule="evenodd" clip-rule="evenodd" d="M30.1645 29.1537C30.4158 29.4073 30.4158 29.8184 30.1645 30.0719C28.9943 31.2527 28.9943 33.1672 30.1645 34.348C30.4158 34.6015 30.4158 35.0126 30.1645 35.2662C29.9132 35.5198 29.5058 35.5198 29.2545 35.2662C27.5818 33.5783 27.5818 30.8416 29.2545 29.1537C29.5058 28.9001 29.9132 28.9001 30.1645 29.1537Z" fill="white" style="fill:white;fill-opacity:1;"/>
<path fill-rule="evenodd" clip-rule="evenodd" d="M31.9532 29.1537C31.7019 29.4073 31.7019 29.8184 31.9532 30.0719C33.1234 31.2527 33.1234 33.1672 31.9532 34.348C31.7019 34.6015 31.7019 35.0126 31.9532 35.2662C32.2045 35.5198 32.6119 35.5198 32.8632 35.2662C34.5359 33.5783 34.5359 30.8416 32.8632 29.1537C32.6119 28.9001 32.2045 28.9001 31.9532 29.1537Z" fill="white" style="fill:white;fill-opacity:1;"/>
<path fill-rule="evenodd" clip-rule="evenodd" d="M56.0472 29.1537C56.2985 29.4073 56.2985 29.8184 56.0472 30.0719C54.877 31.2527 54.877 33.1672 56.0472 34.348C56.2985 34.6015 56.2985 35.0126 56.0472 35.2662C55.7959 35.5198 55.3885 35.5198 55.1372 35.2662C53.4645 33.5783 53.4645 30.8416 55.1372 29.1537C55.3885 28.9001 55.7959 28.9001 56.0472 29.1537Z" fill="white" style="fill:white;fill-opacity:1;"/>
<path fill-rule="evenodd" clip-rule="evenodd" d="M57.8359 29.1537C57.5846 29.4073 57.5846 29.8184 57.8359 30.0719C59.0061 31.2527 59.0061 33.1672 57.8359 34.348C57.5846 34.6015 57.5846 35.0126 57.8359 35.2662C58.0872 35.5198 58.4946 35.5198 58.7459 35.2662C60.4186 33.5783 60.4186 30.8416 58.7459 29.1537C58.4946 28.9001 58.0872 28.9001 57.8359 29.1537Z" fill="white" style="fill:white;fill-opacity:1;"/>
<path fill-rule="evenodd" clip-rule="evenodd" d="M39.2943 29.6128C39.2943 29.2542 39.6103 28.9635 40.0002 28.9635H41.4119C41.8018 28.9635 42.1178 29.2542 42.1178 29.6128C42.1178 29.9714 41.8018 30.2621 41.4119 30.2621H40.706V34.1578H41.4119C41.8018 34.1578 42.1178 34.4485 42.1178 34.8071C42.1178 35.1657 41.8018 35.4564 41.4119 35.4564H40.0002C39.6103 35.4564 39.2943 35.1657 39.2943 34.8071V29.6128Z" fill="white" style="fill:white;fill-opacity:1;"/>
<path fill-rule="evenodd" clip-rule="evenodd" d="M46.3532 29.6128C46.3532 29.2542 46.0371 28.9635 45.6473 28.9635H44.2355C43.8456 28.9635 43.5296 29.2542 43.5296 29.6128C43.5296 29.9714 43.8456 30.2621 44.2355 30.2621H44.9414V34.1578H44.2355C43.8456 34.1578 43.5296 34.4485 43.5296 34.8071C43.5296 35.1657 43.8456 35.4564 44.2355 35.4564H45.6473C46.0371 35.4564 46.3532 35.1657 46.3532 34.8071V29.6128Z" fill="white" style="fill:white;fill-opacity:1;"/>
<path fill-rule="evenodd" clip-rule="evenodd" d="M49.1424 28.6783C49.4202 28.4213 49.848 28.4445 50.098 28.73L52.9415 31.9781L50.098 35.2261C49.848 35.5116 49.4202 35.5348 49.1424 35.2778C48.8646 35.0208 48.8421 34.5809 49.0921 34.2953L50.5117 32.6737H47.971C47.5973 32.6737 47.2944 32.3623 47.2944 31.9781C47.2944 31.5939 47.5973 31.2824 47.971 31.2824H50.5117L49.0921 29.6608C48.8421 29.3752 48.8646 28.9354 49.1424 28.6783Z" fill="white" style="fill:white;fill-opacity:1;"/>
<path fill-rule="evenodd" clip-rule="evenodd" d="M35.0589 31.9781C35.0589 31.5939 35.3539 31.2824 35.7177 31.2824H37.6942C38.0581 31.2824 38.3531 31.5939 38.3531 31.9781C38.3531 32.3623 38.0581 32.6737 37.6942 32.6737H35.7177C35.3539 32.6737 35.0589 32.3623 35.0589 31.9781Z" fill="white" style="fill:white;fill-opacity:1;"/>
<path d="M4.58885 85.14C3.66019 85.14 2.86219 84.9277 2.19485 84.503C1.53218 84.0737 1.02118 83.467 0.661852 82.683C0.307185 81.8943 0.129852 80.9587 0.129852 79.876C0.129852 78.798 0.307185 77.8763 0.661852 77.111C1.01652 76.3457 1.52519 75.76 2.18785 75.354C2.85519 74.9433 3.65552 74.738 4.58885 74.738C5.33085 74.738 5.98885 74.8897 6.56285 75.193C7.13685 75.4917 7.59885 75.8977 7.94885 76.411C8.30352 76.9243 8.51352 77.496 8.57885 78.126H6.77985C6.70985 77.7527 6.57919 77.419 6.38785 77.125C6.20119 76.831 5.95385 76.5977 5.64585 76.425C5.33785 76.2523 4.96918 76.166 4.53985 76.166C4.00319 76.166 3.54585 76.2943 3.16785 76.551C2.79452 76.803 2.50752 77.2043 2.30685 77.755C2.11085 78.3057 2.01285 79.0197 2.01285 79.897C2.01285 81.227 2.23218 82.1953 2.67085 82.802C3.10952 83.4087 3.73252 83.712 4.53985 83.712C4.96918 83.712 5.33785 83.6187 5.64585 83.432C5.95385 83.2407 6.20119 82.9887 6.38785 82.676C6.57919 82.3587 6.70985 82.0133 6.77985 81.64H8.57885C8.52285 82.0973 8.40618 82.536 8.22885 82.956C8.05619 83.376 7.81119 83.7517 7.49385 84.083C7.17652 84.4097 6.77752 84.6687 6.29685 84.86C5.82085 85.0467 5.25152 85.14 4.58885 85.14ZM11.1913 87.31C10.7246 87.31 10.4003 87.2727 10.2183 87.198C10.0363 87.128 9.94527 87.093 9.94527 87.093V86.001L10.6733 86.022C10.9673 86.036 11.2053 86.0197 11.3873 85.973C11.5739 85.9263 11.7186 85.861 11.8213 85.777C11.9239 85.6977 11.9986 85.6113 12.0453 85.518C12.0966 85.4293 12.1363 85.3523 12.1643 85.287L12.3533 84.755L9.53227 77.762H11.2263L13.1513 82.879L15.0693 77.762H16.7353L13.7533 85.266C13.5293 85.812 13.2866 86.232 13.0253 86.526C12.7686 86.8247 12.4863 87.03 12.1783 87.142C11.8749 87.254 11.5459 87.31 11.1913 87.31ZM17.9572 87.254V77.762H19.6582L19.6722 78.903C19.7655 78.7443 19.8845 78.588 20.0292 78.434C20.1785 78.28 20.3489 78.1423 20.5402 78.021C20.7362 77.8997 20.9532 77.804 21.1912 77.734C21.4292 77.6593 21.6905 77.622 21.9752 77.622C22.5305 77.622 23.0229 77.755 23.4522 78.021C23.8815 78.2823 24.2175 78.686 24.4602 79.232C24.7075 79.778 24.8312 80.4687 24.8312 81.304C24.8312 82.158 24.7052 82.8697 24.4532 83.439C24.2012 84.0083 23.8489 84.4353 23.3962 84.72C22.9435 85 22.4185 85.14 21.8212 85.14C21.5459 85.14 21.2939 85.1027 21.0652 85.028C20.8412 84.9533 20.6405 84.8507 20.4632 84.72C20.2859 84.5893 20.1295 84.447 19.9942 84.293C19.8635 84.139 19.7539 83.978 19.6652 83.81V87.254H17.9572ZM21.4432 83.866C21.9565 83.866 22.3812 83.663 22.7172 83.257C23.0532 82.8463 23.2212 82.2047 23.2212 81.332C23.2212 80.576 23.0625 79.981 22.7452 79.547C22.4325 79.1083 21.9985 78.889 21.4432 78.889C20.8459 78.889 20.3979 79.12 20.0992 79.582C19.8005 80.0393 19.6512 80.6227 19.6512 81.332C19.6512 81.7893 19.7165 82.2117 19.8472 82.599C19.9825 82.9817 20.1809 83.2897 20.4422 83.523C20.7082 83.7517 21.0419 83.866 21.4432 83.866ZM26.3791 85V74.598H28.0591V78.812C28.1758 78.63 28.3298 78.455 28.5211 78.287C28.7124 78.1143 28.9458 77.9743 29.2211 77.867C29.5011 77.755 29.8348 77.699 30.2221 77.699C30.6841 77.699 31.1064 77.7877 31.4891 77.965C31.8718 78.1423 32.1774 78.399 32.4061 78.735C32.6348 79.0663 32.7491 79.463 32.7491 79.925V85H31.0411V80.212C31.0411 79.8387 30.9081 79.5493 30.6421 79.344C30.3808 79.1387 30.0494 79.036 29.6481 79.036C29.3821 79.036 29.1278 79.0827 28.8851 79.176C28.6424 79.2693 28.4464 79.4093 28.2971 79.596C28.1524 79.778 28.0801 80.0067 28.0801 80.282V85H26.3791ZM37.7675 85.14C37.0722 85.14 36.4585 84.993 35.9265 84.699C35.3992 84.4003 34.9862 83.9757 34.6875 83.425C34.3935 82.8743 34.2465 82.2187 34.2465 81.458C34.2465 80.716 34.3795 80.058 34.6455 79.484C34.9162 78.9053 35.3059 78.4503 35.8145 78.119C36.3279 77.7877 36.9462 77.622 37.6695 77.622C38.3835 77.622 38.9832 77.7737 39.4685 78.077C39.9539 78.3803 40.3225 78.805 40.5745 79.351C40.8265 79.8923 40.9525 80.527 40.9525 81.255V81.773H35.9475C35.9429 82.1837 36.0082 82.5477 36.1435 82.865C36.2789 83.1823 36.4795 83.432 36.7455 83.614C37.0115 83.7913 37.3405 83.88 37.7325 83.88C38.1339 83.88 38.4815 83.7913 38.7755 83.614C39.0742 83.432 39.2725 83.1567 39.3705 82.788H40.9245C40.8405 83.292 40.6399 83.719 40.3225 84.069C40.0099 84.419 39.6272 84.685 39.1745 84.867C38.7265 85.049 38.2575 85.14 37.7675 85.14ZM35.9405 80.716H39.3425C39.3425 80.366 39.2795 80.051 39.1535 79.771C39.0322 79.4863 38.8479 79.2623 38.6005 79.099C38.3532 78.931 38.0405 78.847 37.6625 78.847C37.2892 78.847 36.9742 78.938 36.7175 79.12C36.4609 79.302 36.2672 79.5377 36.1365 79.827C36.0059 80.1117 35.9405 80.408 35.9405 80.716ZM42.5803 85V77.762H44.2113V79.33C44.3279 78.9707 44.4936 78.665 44.7083 78.413C44.9276 78.1563 45.1843 77.9603 45.4783 77.825C45.7723 77.6897 46.0919 77.622 46.4373 77.622C46.5213 77.622 46.6029 77.6267 46.6823 77.636C46.7616 77.6453 46.8199 77.6617 46.8573 77.685V79.316C46.8059 79.2927 46.7383 79.2763 46.6543 79.267C46.5749 79.2577 46.5049 79.253 46.4443 79.253C46.0943 79.225 45.7839 79.239 45.5133 79.295C45.2473 79.351 45.0209 79.4467 44.8343 79.582C44.6523 79.7127 44.5146 79.8807 44.4213 80.086C44.3279 80.2867 44.2813 80.5223 44.2813 80.793V85H42.5803ZM56.1456 87.254V83.81C56.0569 83.978 55.9449 84.139 55.8096 84.293C55.6789 84.447 55.5226 84.5893 55.3406 84.72C55.1633 84.8507 54.9626 84.9533 54.7386 85.028C54.5146 85.1027 54.2649 85.14 53.9896 85.14C53.4296 85.14 52.9209 85.0093 52.4636 84.748C52.0063 84.482 51.6423 84.069 51.3716 83.509C51.1056 82.9443 50.9726 82.2093 50.9726 81.304C50.9726 80.5107 51.0869 79.841 51.3156 79.295C51.5443 78.7443 51.8709 78.329 52.2956 78.049C52.7249 77.7643 53.2383 77.622 53.8356 77.622C54.1156 77.622 54.3746 77.6593 54.6126 77.734C54.8553 77.804 55.0723 77.8997 55.2636 78.021C55.4596 78.1423 55.6299 78.28 55.7746 78.434C55.9193 78.588 56.0406 78.7443 56.1386 78.903L56.1526 77.762H57.8536V87.254H56.1456ZM54.3676 83.866C54.7643 83.866 55.0956 83.7517 55.3616 83.523C55.6276 83.2897 55.8259 82.9817 55.9566 82.599C56.0873 82.2117 56.1526 81.7893 56.1526 81.332C56.1526 80.6227 56.0033 80.0393 55.7046 79.582C55.4106 79.12 54.9649 78.889 54.3676 78.889C53.8589 78.889 53.4343 79.092 53.0936 79.498C52.7576 79.904 52.5896 80.5153 52.5896 81.332C52.5896 82.144 52.7459 82.7693 53.0586 83.208C53.3759 83.6467 53.8123 83.866 54.3676 83.866ZM62.4395 85.14C62.0848 85.14 61.7418 85.0887 61.4105 84.986C61.0838 84.8787 60.7898 84.7247 60.5285 84.524C60.2671 84.3187 60.0595 84.0667 59.9055 83.768C59.7515 83.4693 59.6745 83.1217 59.6745 82.725V77.762H61.3825V82.529C61.3825 82.921 61.5061 83.243 61.7535 83.495C62.0055 83.747 62.3835 83.873 62.8875 83.873C63.3448 83.873 63.7111 83.754 63.9865 83.516C64.2618 83.2733 64.3995 82.9257 64.3995 82.473V77.762H66.0935V85H64.7845L64.5955 83.586C64.5068 83.9827 64.3505 84.2953 64.1265 84.524C63.9071 84.748 63.6481 84.9067 63.3495 85C63.0555 85.0933 62.7521 85.14 62.4395 85.14ZM71.2226 85.14C70.5273 85.14 69.9136 84.993 69.3816 84.699C68.8543 84.4003 68.4413 83.9757 68.1426 83.425C67.8486 82.8743 67.7016 82.2187 67.7016 81.458C67.7016 80.716 67.8346 80.058 68.1006 79.484C68.3713 78.9053 68.761 78.4503 69.2696 78.119C69.783 77.7877 70.4013 77.622 71.1246 77.622C71.8386 77.622 72.4383 77.7737 72.9236 78.077C73.409 78.3803 73.7776 78.805 74.0296 79.351C74.2816 79.8923 74.4076 80.527 74.4076 81.255V81.773H69.4026C69.398 82.1837 69.4633 82.5477 69.5986 82.865C69.734 83.1823 69.9346 83.432 70.2006 83.614C70.4666 83.7913 70.7956 83.88 71.1876 83.88C71.589 83.88 71.9366 83.7913 72.2306 83.614C72.5293 83.432 72.7276 83.1567 72.8256 82.788H74.3796C74.2956 83.292 74.095 83.719 73.7776 84.069C73.465 84.419 73.0823 84.685 72.6296 84.867C72.1816 85.049 71.7126 85.14 71.2226 85.14ZM69.3956 80.716H72.7976C72.7976 80.366 72.7346 80.051 72.6086 79.771C72.4873 79.4863 72.303 79.2623 72.0556 79.099C71.8083 78.931 71.4956 78.847 71.1176 78.847C70.7443 78.847 70.4293 78.938 70.1726 79.12C69.916 79.302 69.7223 79.5377 69.5916 79.827C69.461 80.1117 69.3956 80.408 69.3956 80.716ZM76.0353 85V77.762H77.6663V79.33C77.783 78.9707 77.9487 78.665 78.1633 78.413C78.3827 78.1563 78.6393 77.9603 78.9333 77.825C79.2273 77.6897 79.547 77.622 79.8923 77.622C79.9763 77.622 80.058 77.6267 80.1373 77.636C80.2167 77.6453 80.275 77.6617 80.3123 77.685V79.316C80.261 79.2927 80.1933 79.2763 80.1093 79.267C80.03 79.2577 79.96 79.253 79.8993 79.253C79.5493 79.225 79.239 79.239 78.9683 79.295C78.7023 79.351 78.476 79.4467 78.2893 79.582C78.1073 79.7127 77.9697 79.8807 77.8763 80.086C77.783 80.2867 77.7363 80.5223 77.7363 80.793V85H76.0353ZM82.7772 87.31C82.3105 87.31 81.9862 87.2727 81.8042 87.198C81.6222 87.128 81.5312 87.093 81.5312 87.093V86.001L82.2592 86.022C82.5532 86.036 82.7912 86.0197 82.9732 85.973C83.1599 85.9263 83.3045 85.861 83.4072 85.777C83.5099 85.6977 83.5845 85.6113 83.6312 85.518C83.6825 85.4293 83.7222 85.3523 83.7502 85.287L83.9392 84.755L81.1182 77.762H82.8122L84.7372 82.879L86.6552 77.762H88.3212L85.3392 85.266C85.1152 85.812 84.8725 86.232 84.6112 86.526C84.3545 86.8247 84.0722 87.03 83.7642 87.142C83.4609 87.254 83.1319 87.31 82.7772 87.31ZM28.1872 109.14C27.6832 109.14 27.2049 109.061 26.7522 108.902C26.3042 108.739 25.9262 108.484 25.6182 108.139C25.3149 107.794 25.1236 107.348 25.0442 106.802H26.5422C26.6076 107.068 26.7219 107.285 26.8852 107.453C27.0532 107.621 27.2492 107.745 27.4732 107.824C27.7019 107.899 27.9376 107.936 28.1802 107.936C28.6142 107.936 28.9642 107.861 29.2302 107.712C29.4962 107.563 29.6292 107.332 29.6292 107.019C29.6292 106.79 29.5546 106.608 29.4052 106.473C29.2606 106.338 29.0226 106.235 28.6912 106.165L27.3192 105.85C26.7032 105.715 26.2109 105.491 25.8422 105.178C25.4736 104.865 25.2869 104.424 25.2822 103.855C25.2776 103.426 25.3849 103.043 25.6042 102.707C25.8236 102.371 26.1502 102.107 26.5842 101.916C27.0182 101.72 27.5526 101.622 28.1872 101.622C29.0319 101.622 29.7086 101.811 30.2172 102.189C30.7306 102.562 30.9942 103.097 31.0082 103.792H29.5592C29.5079 103.479 29.3609 103.237 29.1182 103.064C28.8756 102.887 28.5606 102.798 28.1732 102.798C27.7719 102.798 27.4429 102.875 27.1862 103.029C26.9296 103.183 26.8012 103.419 26.8012 103.736C26.8012 103.955 26.8969 104.128 27.0882 104.254C27.2842 104.38 27.5806 104.487 27.9772 104.576L29.2792 104.891C29.6526 104.984 29.9582 105.11 30.1962 105.269C30.4342 105.428 30.6186 105.603 30.7492 105.794C30.8846 105.981 30.9779 106.174 31.0292 106.375C31.0852 106.571 31.1132 106.753 31.1132 106.921C31.1132 107.388 30.9919 107.787 30.7492 108.118C30.5112 108.445 30.1729 108.697 29.7342 108.874C29.3002 109.051 28.7846 109.14 28.1872 109.14ZM35.4843 109.056C34.9103 109.056 34.4646 108.981 34.1473 108.832C33.8346 108.678 33.6176 108.461 33.4963 108.181C33.3749 107.901 33.3143 107.567 33.3143 107.18V102.966H32.1383V101.762H33.3633L33.7903 99.613H35.0153V101.755H36.6323V102.966H35.0153L35.0223 107.117C35.0223 107.332 35.0456 107.49 35.0923 107.593C35.1436 107.691 35.2229 107.756 35.3303 107.789C35.4423 107.817 35.5893 107.831 35.7713 107.831H36.6673V108.909C36.5693 108.946 36.4246 108.979 36.2333 109.007C36.0466 109.04 35.7969 109.056 35.4843 109.056ZM38.2394 109V101.762H39.8704V103.33C39.9871 102.971 40.1528 102.665 40.3674 102.413C40.5868 102.156 40.8434 101.96 41.1374 101.825C41.4314 101.69 41.7511 101.622 42.0964 101.622C42.1804 101.622 42.2621 101.627 42.3414 101.636C42.4208 101.645 42.4791 101.662 42.5164 101.685V103.316C42.4651 103.293 42.3974 103.276 42.3134 103.267C42.2341 103.258 42.1641 103.253 42.1034 103.253C41.7534 103.225 41.4431 103.239 41.1724 103.295C40.9064 103.351 40.6801 103.447 40.4934 103.582C40.3114 103.713 40.1738 103.881 40.0804 104.086C39.9871 104.287 39.9404 104.522 39.9404 104.793V109H38.2394ZM43.9003 109V101.762H45.5313V109H43.9003ZM43.8723 100.495V98.885H45.5593V100.495H43.8723ZM47.55 109V101.762H49.216V102.798C49.328 102.611 49.4797 102.432 49.671 102.259C49.867 102.086 50.1073 101.946 50.392 101.839C50.6767 101.732 51.0103 101.678 51.393 101.678C51.841 101.678 52.2563 101.767 52.639 101.944C53.0263 102.121 53.3367 102.399 53.57 102.777C53.808 103.155 53.927 103.643 53.927 104.24V109H52.219V104.443C52.219 103.967 52.0883 103.615 51.827 103.386C51.5657 103.153 51.2367 103.036 50.84 103.036C50.5693 103.036 50.3127 103.083 50.07 103.176C49.8273 103.265 49.629 103.402 49.475 103.589C49.3257 103.771 49.251 104 49.251 104.275V109H47.55ZM58.9731 111.394C57.7551 111.394 56.8194 111.231 56.1661 110.904C55.5128 110.577 55.1861 110.129 55.1861 109.56C55.1861 109.303 55.2491 109.089 55.3751 108.916C55.5011 108.743 55.6504 108.601 55.8231 108.489C55.9958 108.377 56.1544 108.291 56.2991 108.23C56.4438 108.169 56.5371 108.125 56.5791 108.097C56.4998 108.05 56.3948 107.99 56.2641 107.915C56.1334 107.84 56.0144 107.738 55.9071 107.607C55.8044 107.476 55.7531 107.306 55.7531 107.096C55.7531 106.853 55.8674 106.629 56.0961 106.424C56.3294 106.219 56.6771 106.072 57.1391 105.983C56.6864 105.764 56.3388 105.467 56.0961 105.094C55.8534 104.721 55.7321 104.333 55.7321 103.932C55.7321 103.456 55.8698 103.048 56.1451 102.707C56.4251 102.366 56.8124 102.105 57.3071 101.923C57.8018 101.741 58.3781 101.65 59.0361 101.65C59.5168 101.65 59.9158 101.704 60.2331 101.811C60.5551 101.918 60.8538 102.063 61.1291 102.245C61.2224 102.208 61.3531 102.156 61.5211 102.091C61.6891 102.021 61.8734 101.946 62.0741 101.867C62.2748 101.783 62.4684 101.704 62.6551 101.629C62.8418 101.55 62.9981 101.484 63.1241 101.433L63.1171 102.84L61.8641 103.064C61.9248 103.199 61.9714 103.346 62.0041 103.505C62.0414 103.664 62.0601 103.804 62.0601 103.925C62.0601 104.345 61.9411 104.735 61.7031 105.094C61.4698 105.449 61.1174 105.733 60.6461 105.948C60.1794 106.163 59.5961 106.27 58.8961 106.27C58.8261 106.27 58.7304 106.268 58.6091 106.263C58.4878 106.258 58.3898 106.254 58.3151 106.249C57.9371 106.263 57.6781 106.307 57.5381 106.382C57.3981 106.457 57.3281 106.538 57.3281 106.627C57.3281 106.753 57.4331 106.837 57.6431 106.879C57.8531 106.921 58.1891 106.958 58.6511 106.991C58.8144 107 59.0291 107.012 59.2951 107.026C59.5611 107.04 59.8574 107.059 60.1841 107.082C61.0101 107.133 61.6354 107.341 62.0601 107.705C62.4848 108.064 62.6971 108.531 62.6971 109.105C62.6971 109.772 62.3891 110.321 61.7731 110.75C61.1571 111.179 60.2238 111.394 58.9731 111.394ZM59.2601 110.393C59.8714 110.393 60.3241 110.309 60.6181 110.141C60.9121 109.973 61.0591 109.726 61.0591 109.399C61.0591 109.147 60.9588 108.942 60.7581 108.783C60.5574 108.624 60.2588 108.531 59.8621 108.503L58.0351 108.391C57.8344 108.377 57.6431 108.414 57.4611 108.503C57.2838 108.587 57.1391 108.706 57.0271 108.86C56.9151 109.009 56.8591 109.175 56.8591 109.357C56.8591 109.698 57.0528 109.954 57.4401 110.127C57.8321 110.304 58.4388 110.393 59.2601 110.393ZM58.9521 105.269C59.3954 105.269 59.7548 105.157 60.0301 104.933C60.3054 104.704 60.4431 104.382 60.4431 103.967C60.4431 103.538 60.3054 103.204 60.0301 102.966C59.7548 102.723 59.3954 102.602 58.9521 102.602C58.4994 102.602 58.1331 102.723 57.8531 102.966C57.5778 103.209 57.4401 103.542 57.4401 103.967C57.4401 104.368 57.5731 104.686 57.8391 104.919C58.1051 105.152 58.4761 105.269 58.9521 105.269Z" fill="#1A1B1D" style="fill:#1A1B1D;fill:color(display-p3 0.1020 0.1059 0.1137);fill-opacity:1;"/>
<rect x="163.5" y="125.5" width="153" height="47" rx="11.5" fill="white" style="fill:white;fill-opacity:1;"/>
<rect x="163.5" y="125.5" width="153" height="47" rx="11.5" stroke="#4D5157" style="stroke:#4D5157;stroke:color(display-p3 0.3020 0.3176 0.3412);stroke-opacity:1;"/>
<path d="M197.031 155.708C196.639 155.708 196.252 155.668 195.869 155.589C195.491 155.514 195.123 155.356 194.763 155.113C194.404 154.875 194.061 154.513 193.734 154.028C193.501 154.065 193.293 154.093 193.111 154.112C192.934 154.131 192.752 154.14 192.565 154.14C191.641 154.14 190.839 153.937 190.157 153.531C189.481 153.125 188.956 152.537 188.582 151.767C188.209 150.992 188.022 150.057 188.022 148.96C188.022 147.863 188.209 146.925 188.582 146.146C188.956 145.367 189.481 144.772 190.157 144.361C190.839 143.946 191.641 143.738 192.565 143.738C193.489 143.738 194.29 143.946 194.966 144.361C195.643 144.772 196.166 145.367 196.534 146.146C196.908 146.925 197.094 147.863 197.094 148.96C197.094 149.94 196.947 150.792 196.653 151.515C196.359 152.234 195.9 152.824 195.274 153.286C195.414 153.613 195.643 153.862 195.96 154.035C196.282 154.212 196.639 154.306 197.031 154.315V155.708ZM192.565 152.712C193.41 152.712 194.066 152.418 194.532 151.83C194.999 151.242 195.232 150.29 195.232 148.974C195.232 147.663 194.999 146.701 194.532 146.09C194.07 145.474 193.415 145.166 192.565 145.166C191.721 145.166 191.065 145.474 190.598 146.09C190.136 146.701 189.905 147.667 189.905 148.988C189.905 150.295 190.136 151.242 190.598 151.83C191.065 152.418 191.721 152.712 192.565 152.712ZM201.605 154.14C201.251 154.14 200.908 154.089 200.576 153.986C200.25 153.879 199.956 153.725 199.694 153.524C199.433 153.319 199.225 153.067 199.071 152.768C198.917 152.469 198.84 152.122 198.84 151.725V146.762H200.548V151.529C200.548 151.921 200.672 152.243 200.919 152.495C201.171 152.747 201.549 152.873 202.053 152.873C202.511 152.873 202.877 152.754 203.152 152.516C203.428 152.273 203.565 151.926 203.565 151.473V146.762H205.259V154H203.95L203.761 152.586C203.673 152.983 203.516 153.295 203.292 153.524C203.073 153.748 202.814 153.907 202.515 154C202.221 154.093 201.918 154.14 201.605 154.14ZM210.389 154.14C209.693 154.14 209.08 153.993 208.548 153.699C208.02 153.4 207.607 152.976 207.309 152.425C207.015 151.874 206.868 151.219 206.868 150.458C206.868 149.716 207.001 149.058 207.267 148.484C207.537 147.905 207.927 147.45 208.436 147.119C208.949 146.788 209.567 146.622 210.291 146.622C211.005 146.622 211.604 146.774 212.09 147.077C212.575 147.38 212.944 147.805 213.196 148.351C213.448 148.892 213.574 149.527 213.574 150.255V150.773H208.569C208.564 151.184 208.629 151.548 208.765 151.865C208.9 152.182 209.101 152.432 209.367 152.614C209.633 152.791 209.962 152.88 210.354 152.88C210.755 152.88 211.103 152.791 211.397 152.614C211.695 152.432 211.894 152.157 211.992 151.788H213.546C213.462 152.292 213.261 152.719 212.944 153.069C212.631 153.419 212.248 153.685 211.796 153.867C211.348 154.049 210.879 154.14 210.389 154.14ZM208.562 149.716H211.964C211.964 149.366 211.901 149.051 211.775 148.771C211.653 148.486 211.469 148.262 211.222 148.099C210.974 147.931 210.662 147.847 210.284 147.847C209.91 147.847 209.595 147.938 209.339 148.12C209.082 148.302 208.888 148.538 208.758 148.827C208.627 149.112 208.562 149.408 208.562 149.716ZM215.201 154V146.762H216.832V148.33C216.949 147.971 217.115 147.665 217.329 147.413C217.549 147.156 217.805 146.96 218.099 146.825C218.393 146.69 218.713 146.622 219.058 146.622C219.142 146.622 219.224 146.627 219.303 146.636C219.383 146.645 219.441 146.662 219.478 146.685V148.316C219.427 148.293 219.359 148.276 219.275 148.267C219.196 148.258 219.126 148.253 219.065 148.253C218.715 148.225 218.405 148.239 218.134 148.295C217.868 148.351 217.642 148.447 217.455 148.582C217.273 148.713 217.136 148.881 217.042 149.086C216.949 149.287 216.902 149.522 216.902 149.793V154H215.201ZM221.943 156.31C221.477 156.31 221.152 156.273 220.97 156.198C220.788 156.128 220.697 156.093 220.697 156.093V155.001L221.425 155.022C221.719 155.036 221.957 155.02 222.139 154.973C222.326 154.926 222.471 154.861 222.573 154.777C222.676 154.698 222.751 154.611 222.797 154.518C222.849 154.429 222.888 154.352 222.916 154.287L223.105 153.755L220.284 146.762H221.978L223.903 151.879L225.821 146.762H227.487L224.505 154.266C224.281 154.812 224.039 155.232 223.777 155.526C223.521 155.825 223.238 156.03 222.93 156.142C222.627 156.254 222.298 156.31 221.943 156.31ZM234.823 154.14C234.133 154.14 233.531 153.993 233.017 153.699C232.504 153.4 232.105 152.973 231.82 152.418C231.54 151.863 231.4 151.195 231.4 150.416C231.4 149.66 231.538 148.997 231.813 148.428C232.089 147.859 232.481 147.415 232.989 147.098C233.503 146.781 234.116 146.622 234.83 146.622C235.521 146.622 236.121 146.774 236.629 147.077C237.138 147.38 237.53 147.814 237.805 148.379C238.085 148.944 238.225 149.623 238.225 150.416C238.225 151.149 238.092 151.795 237.826 152.355C237.565 152.91 237.18 153.347 236.671 153.664C236.167 153.981 235.551 154.14 234.823 154.14ZM234.83 152.845C235.222 152.845 235.544 152.738 235.796 152.523C236.053 152.308 236.244 152.014 236.37 151.641C236.496 151.268 236.559 150.843 236.559 150.367C236.559 149.924 236.503 149.515 236.391 149.142C236.279 148.769 236.095 148.47 235.838 148.246C235.586 148.017 235.25 147.903 234.83 147.903C234.434 147.903 234.105 148.008 233.843 148.218C233.587 148.423 233.395 148.713 233.269 149.086C233.143 149.455 233.08 149.882 233.08 150.367C233.08 150.806 233.136 151.214 233.248 151.592C233.36 151.965 233.545 152.269 233.801 152.502C234.058 152.731 234.401 152.845 234.83 152.845ZM239.783 156.254V146.762H241.484L241.498 147.903C241.592 147.744 241.711 147.588 241.855 147.434C242.005 147.28 242.175 147.142 242.366 147.021C242.562 146.9 242.779 146.804 243.017 146.734C243.255 146.659 243.517 146.622 243.801 146.622C244.357 146.622 244.849 146.755 245.278 147.021C245.708 147.282 246.044 147.686 246.286 148.232C246.534 148.778 246.657 149.469 246.657 150.304C246.657 151.158 246.531 151.87 246.279 152.439C246.027 153.008 245.675 153.435 245.222 153.72C244.77 154 244.245 154.14 243.647 154.14C243.372 154.14 243.12 154.103 242.891 154.028C242.667 153.953 242.467 153.851 242.289 153.72C242.112 153.589 241.956 153.447 241.82 153.293C241.69 153.139 241.58 152.978 241.491 152.81V156.254H239.783ZM243.269 152.866C243.783 152.866 244.207 152.663 244.543 152.257C244.879 151.846 245.047 151.205 245.047 150.332C245.047 149.576 244.889 148.981 244.571 148.547C244.259 148.108 243.825 147.889 243.269 147.889C242.672 147.889 242.224 148.12 241.925 148.582C241.627 149.039 241.477 149.623 241.477 150.332C241.477 150.789 241.543 151.212 241.673 151.599C241.809 151.982 242.007 152.29 242.268 152.523C242.534 152.752 242.868 152.866 243.269 152.866ZM250.837 154.056C250.263 154.056 249.817 153.981 249.5 153.832C249.187 153.678 248.97 153.461 248.849 153.181C248.727 152.901 248.667 152.567 248.667 152.18V147.966H247.491V146.762H248.716L249.143 144.613H250.368V146.755H251.985V147.966H250.368L250.375 152.117C250.375 152.332 250.398 152.49 250.445 152.593C250.496 152.691 250.575 152.756 250.683 152.789C250.795 152.817 250.942 152.831 251.124 152.831H252.02V153.909C251.922 153.946 251.777 153.979 251.586 154.007C251.399 154.04 251.149 154.056 250.837 154.056ZM253.62 154V146.762H255.251V154H253.62ZM253.592 145.495V143.885H255.279V145.495H253.592ZM257.27 154V146.762H258.929V147.798C259.139 147.481 259.423 147.205 259.783 146.972C260.147 146.739 260.609 146.622 261.169 146.622C261.425 146.622 261.684 146.666 261.946 146.755C262.212 146.844 262.457 146.974 262.681 147.147C262.909 147.32 263.091 147.534 263.227 147.791C263.455 147.45 263.759 147.17 264.137 146.951C264.519 146.732 264.949 146.622 265.425 146.622C265.686 146.622 265.954 146.664 266.23 146.748C266.51 146.832 266.766 146.972 267 147.168C267.233 147.364 267.422 147.632 267.567 147.973C267.711 148.309 267.784 148.731 267.784 149.24V154H266.083V149.443C266.083 149.084 266.02 148.801 265.894 148.596C265.768 148.391 265.604 148.246 265.404 148.162C265.208 148.073 264.998 148.029 264.774 148.029C264.573 148.029 264.363 148.069 264.144 148.148C263.929 148.227 263.745 148.358 263.591 148.54C263.441 148.722 263.367 148.967 263.367 149.275V154H261.666V149.17C261.666 148.918 261.6 148.708 261.47 148.54C261.339 148.372 261.173 148.246 260.973 148.162C260.777 148.073 260.576 148.029 260.371 148.029C260.161 148.029 259.946 148.073 259.727 148.162C259.512 148.251 259.332 148.386 259.188 148.568C259.043 148.75 258.971 148.986 258.971 149.275V154H257.27ZM269.643 154V146.762H271.274V154H269.643ZM269.615 145.495V143.885H271.302V145.495H269.615ZM272.742 154V153.013L276.55 147.973H272.917V146.762H278.594V147.749L274.793 152.789H278.629V154H272.742ZM283.205 154.14C282.51 154.14 281.896 153.993 281.364 153.699C280.837 153.4 280.424 152.976 280.125 152.425C279.831 151.874 279.684 151.219 279.684 150.458C279.684 149.716 279.817 149.058 280.083 148.484C280.354 147.905 280.743 147.45 281.252 147.119C281.765 146.788 282.384 146.622 283.107 146.622C283.821 146.622 284.421 146.774 284.906 147.077C285.391 147.38 285.76 147.805 286.012 148.351C286.264 148.892 286.39 149.527 286.39 150.255V150.773H281.385C281.38 151.184 281.446 151.548 281.581 151.865C281.716 152.182 281.917 152.432 282.183 152.614C282.449 152.791 282.778 152.88 283.17 152.88C283.571 152.88 283.919 152.791 284.213 152.614C284.512 152.432 284.71 152.157 284.808 151.788H286.362C286.278 152.292 286.077 152.719 285.76 153.069C285.447 153.419 285.065 153.685 284.612 153.867C284.164 154.049 283.695 154.14 283.205 154.14ZM281.378 149.716H284.78C284.78 149.366 284.717 149.051 284.591 148.771C284.47 148.486 284.285 148.262 284.038 148.099C283.791 147.931 283.478 147.847 283.1 147.847C282.727 147.847 282.412 147.938 282.155 148.12C281.898 148.302 281.705 148.538 281.574 148.827C281.443 149.112 281.378 149.408 281.378 149.716ZM288.018 154V146.762H289.649V148.33C289.765 147.971 289.931 147.665 290.146 147.413C290.365 147.156 290.622 146.96 290.916 146.825C291.21 146.69 291.529 146.622 291.875 146.622C291.959 146.622 292.04 146.627 292.12 146.636C292.199 146.645 292.257 146.662 292.295 146.685V148.316C292.243 148.293 292.176 148.276 292.092 148.267C292.012 148.258 291.942 148.253 291.882 148.253C291.532 148.225 291.221 148.239 290.951 148.295C290.685 148.351 290.458 148.447 290.272 148.582C290.09 148.713 289.952 148.881 289.859 149.086C289.765 149.287 289.719 149.522 289.719 149.793V154H288.018Z" fill="#1A1B1D" style="fill:#1A1B1D;fill:color(display-p3 0.1020 0.1059 0.1137);fill-opacity:1;"/>
<rect x="447.5" y="125.5" width="153" height="47" rx="11.5" fill="white" style="fill:white;fill-opacity:1;"/>
<rect x="447.5" y="125.5" width="153" height="47" rx="11.5" stroke="#4D5157" style="stroke:#4D5157;stroke:color(display-p3 0.3020 0.3176 0.3412);stroke-opacity:1;"/>
<path d="M485.16 154L485.167 143.878H486.889V152.53H491.46V154H485.16ZM495.814 154.14C495.123 154.14 494.521 153.993 494.008 153.699C493.494 153.4 493.095 152.973 492.811 152.418C492.531 151.863 492.391 151.195 492.391 150.416C492.391 149.66 492.528 148.997 492.804 148.428C493.079 147.859 493.471 147.415 493.98 147.098C494.493 146.781 495.107 146.622 495.821 146.622C496.511 146.622 497.111 146.774 497.62 147.077C498.128 147.38 498.52 147.814 498.796 148.379C499.076 148.944 499.216 149.623 499.216 150.416C499.216 151.149 499.083 151.795 498.817 152.355C498.555 152.91 498.17 153.347 497.662 153.664C497.158 153.981 496.542 154.14 495.814 154.14ZM495.821 152.845C496.213 152.845 496.535 152.738 496.787 152.523C497.043 152.308 497.235 152.014 497.361 151.641C497.487 151.268 497.55 150.843 497.55 150.367C497.55 149.924 497.494 149.515 497.382 149.142C497.27 148.769 497.085 148.47 496.829 148.246C496.577 148.017 496.241 147.903 495.821 147.903C495.424 147.903 495.095 148.008 494.834 148.218C494.577 148.423 494.386 148.713 494.26 149.086C494.134 149.455 494.071 149.882 494.071 150.367C494.071 150.806 494.127 151.214 494.239 151.592C494.351 151.965 494.535 152.269 494.792 152.502C495.048 152.731 495.391 152.845 495.821 152.845ZM503.925 156.394C502.707 156.394 501.772 156.231 501.118 155.904C500.465 155.577 500.138 155.129 500.138 154.56C500.138 154.303 500.201 154.089 500.327 153.916C500.453 153.743 500.603 153.601 500.775 153.489C500.948 153.377 501.107 153.291 501.251 153.23C501.396 153.169 501.489 153.125 501.531 153.097C501.452 153.05 501.347 152.99 501.216 152.915C501.086 152.84 500.967 152.738 500.859 152.607C500.757 152.476 500.705 152.306 500.705 152.096C500.705 151.853 500.82 151.629 501.048 151.424C501.282 151.219 501.629 151.072 502.091 150.983C501.639 150.764 501.291 150.467 501.048 150.094C500.806 149.721 500.684 149.333 500.684 148.932C500.684 148.456 500.822 148.048 501.097 147.707C501.377 147.366 501.765 147.105 502.259 146.923C502.754 146.741 503.33 146.65 503.988 146.65C504.469 146.65 504.868 146.704 505.185 146.811C505.507 146.918 505.806 147.063 506.081 147.245C506.175 147.208 506.305 147.156 506.473 147.091C506.641 147.021 506.826 146.946 507.026 146.867C507.227 146.783 507.421 146.704 507.607 146.629C507.794 146.55 507.95 146.484 508.076 146.433L508.069 147.84L506.816 148.064C506.877 148.199 506.924 148.346 506.956 148.505C506.994 148.664 507.012 148.804 507.012 148.925C507.012 149.345 506.893 149.735 506.655 150.094C506.422 150.449 506.07 150.733 505.598 150.948C505.132 151.163 504.548 151.27 503.848 151.27C503.778 151.27 503.683 151.268 503.561 151.263C503.44 151.258 503.342 151.254 503.267 151.249C502.889 151.263 502.63 151.307 502.49 151.382C502.35 151.457 502.28 151.538 502.28 151.627C502.28 151.753 502.385 151.837 502.595 151.879C502.805 151.921 503.141 151.958 503.603 151.991C503.767 152 503.981 152.012 504.247 152.026C504.513 152.04 504.81 152.059 505.136 152.082C505.962 152.133 506.588 152.341 507.012 152.705C507.437 153.064 507.649 153.531 507.649 154.105C507.649 154.772 507.341 155.321 506.725 155.75C506.109 156.179 505.176 156.394 503.925 156.394ZM504.212 155.393C504.824 155.393 505.276 155.309 505.57 155.141C505.864 154.973 506.011 154.726 506.011 154.399C506.011 154.147 505.911 153.942 505.71 153.783C505.51 153.624 505.211 153.531 504.814 153.503L502.987 153.391C502.787 153.377 502.595 153.414 502.413 153.503C502.236 153.587 502.091 153.706 501.979 153.86C501.867 154.009 501.811 154.175 501.811 154.357C501.811 154.698 502.005 154.954 502.392 155.127C502.784 155.304 503.391 155.393 504.212 155.393ZM503.904 150.269C504.348 150.269 504.707 150.157 504.982 149.933C505.258 149.704 505.395 149.382 505.395 148.967C505.395 148.538 505.258 148.204 504.982 147.966C504.707 147.723 504.348 147.602 503.904 147.602C503.452 147.602 503.085 147.723 502.805 147.966C502.53 148.209 502.392 148.542 502.392 148.967C502.392 149.368 502.525 149.686 502.791 149.919C503.057 150.152 503.428 150.269 503.904 150.269ZM509.497 154V146.762H511.128V154H509.497ZM509.469 145.495V143.885H511.156V145.495H509.469ZM516.116 154.14C515.454 154.14 514.863 153.995 514.345 153.706C513.832 153.412 513.428 152.987 513.134 152.432C512.84 151.872 512.693 151.198 512.693 150.409C512.693 149.658 512.831 149 513.106 148.435C513.386 147.866 513.781 147.422 514.289 147.105C514.803 146.783 515.412 146.622 516.116 146.622C516.681 146.622 517.178 146.734 517.607 146.958C518.037 147.182 518.38 147.492 518.636 147.889C518.898 148.286 519.054 148.736 519.105 149.24H517.656C517.619 149.021 517.537 148.813 517.411 148.617C517.285 148.416 517.115 148.255 516.9 148.134C516.69 148.008 516.434 147.945 516.13 147.945C515.584 147.945 515.143 148.146 514.807 148.547C514.471 148.948 514.303 149.564 514.303 150.395C514.303 151.16 514.462 151.769 514.779 152.222C515.101 152.675 515.561 152.901 516.158 152.901C516.457 152.901 516.714 152.836 516.928 152.705C517.143 152.57 517.311 152.404 517.432 152.208C517.558 152.007 517.638 151.807 517.67 151.606H519.084C519.042 152.096 518.891 152.532 518.629 152.915C518.368 153.298 518.023 153.599 517.593 153.818C517.164 154.033 516.672 154.14 516.116 154.14ZM522.746 154.14C522.284 154.14 521.868 154.056 521.5 153.888C521.136 153.715 520.849 153.47 520.639 153.153C520.433 152.831 520.331 152.441 520.331 151.984C520.331 151.186 520.618 150.584 521.192 150.178C521.77 149.772 522.69 149.56 523.95 149.541L525.035 149.513V149.023C525.035 148.64 524.92 148.342 524.692 148.127C524.468 147.908 524.118 147.8 523.642 147.805C523.287 147.81 522.965 147.894 522.676 148.057C522.386 148.216 522.195 148.484 522.102 148.862H520.653C520.681 148.367 520.823 147.954 521.08 147.623C521.341 147.287 521.698 147.037 522.151 146.874C522.603 146.706 523.126 146.622 523.719 146.622C524.409 146.622 524.972 146.713 525.406 146.895C525.84 147.077 526.159 147.341 526.365 147.686C526.57 148.027 526.673 148.44 526.673 148.925V154H525.238L525.098 152.698C524.841 153.244 524.512 153.622 524.111 153.832C523.714 154.037 523.259 154.14 522.746 154.14ZM523.299 152.985C523.509 152.985 523.716 152.948 523.922 152.873C524.127 152.794 524.311 152.689 524.475 152.558C524.643 152.423 524.776 152.273 524.874 152.11C524.976 151.947 525.03 151.776 525.035 151.599V150.458L524.146 150.472C523.707 150.477 523.322 150.523 522.991 150.612C522.664 150.701 522.41 150.843 522.228 151.039C522.046 151.23 521.955 151.487 521.955 151.809C521.955 152.178 522.083 152.467 522.34 152.677C522.596 152.882 522.916 152.985 523.299 152.985ZM530.573 154.105C530.106 154.105 529.733 154.047 529.453 153.93C529.173 153.813 528.963 153.657 528.823 153.461C528.683 153.265 528.592 153.046 528.55 152.803C528.508 152.556 528.487 152.304 528.487 152.047V143.598H530.153V151.851C530.153 152.164 530.216 152.406 530.342 152.579C530.472 152.752 530.682 152.852 530.972 152.88L531.336 152.894V153.965C531.21 154.002 531.081 154.035 530.951 154.063C530.82 154.091 530.694 154.105 530.573 154.105ZM536.197 156.254V146.762H537.898L537.912 147.903C538.006 147.744 538.125 147.588 538.269 147.434C538.419 147.28 538.589 147.142 538.78 147.021C538.976 146.9 539.193 146.804 539.431 146.734C539.669 146.659 539.931 146.622 540.215 146.622C540.771 146.622 541.263 146.755 541.692 147.021C542.122 147.282 542.458 147.686 542.7 148.232C542.948 148.778 543.071 149.469 543.071 150.304C543.071 151.158 542.945 151.87 542.693 152.439C542.441 153.008 542.089 153.435 541.636 153.72C541.184 154 540.659 154.14 540.061 154.14C539.786 154.14 539.534 154.103 539.305 154.028C539.081 153.953 538.881 153.851 538.703 153.72C538.526 153.589 538.37 153.447 538.234 153.293C538.104 153.139 537.994 152.978 537.905 152.81V156.254H536.197ZM539.683 152.866C540.197 152.866 540.621 152.663 540.957 152.257C541.293 151.846 541.461 151.205 541.461 150.332C541.461 149.576 541.303 148.981 540.985 148.547C540.673 148.108 540.239 147.889 539.683 147.889C539.086 147.889 538.638 148.12 538.339 148.582C538.041 149.039 537.891 149.623 537.891 150.332C537.891 150.789 537.957 151.212 538.087 151.599C538.223 151.982 538.421 152.29 538.682 152.523C538.948 152.752 539.282 152.866 539.683 152.866ZM546.705 154.105C546.239 154.105 545.865 154.047 545.585 153.93C545.305 153.813 545.095 153.657 544.955 153.461C544.815 153.265 544.724 153.046 544.682 152.803C544.64 152.556 544.619 152.304 544.619 152.047V143.598H546.285V151.851C546.285 152.164 546.348 152.406 546.474 152.579C546.605 152.752 546.815 152.852 547.104 152.88L547.468 152.894V153.965C547.342 154.002 547.214 154.035 547.083 154.063C546.953 154.091 546.827 154.105 546.705 154.105ZM551.087 154.14C550.625 154.14 550.21 154.056 549.841 153.888C549.477 153.715 549.19 153.47 548.98 153.153C548.775 152.831 548.672 152.441 548.672 151.984C548.672 151.186 548.959 150.584 549.533 150.178C550.112 149.772 551.031 149.56 552.291 149.541L553.376 149.513V149.023C553.376 148.64 553.262 148.342 553.033 148.127C552.809 147.908 552.459 147.8 551.983 147.805C551.629 147.81 551.307 147.894 551.017 148.057C550.728 148.216 550.537 148.484 550.443 148.862H548.994C549.022 148.367 549.165 147.954 549.421 147.623C549.683 147.287 550.04 147.037 550.492 146.874C550.945 146.706 551.468 146.622 552.06 146.622C552.751 146.622 553.313 146.713 553.747 146.895C554.181 147.077 554.501 147.341 554.706 147.686C554.912 148.027 555.014 148.44 555.014 148.925V154H553.579L553.439 152.698C553.183 153.244 552.854 153.622 552.452 153.832C552.056 154.037 551.601 154.14 551.087 154.14ZM551.64 152.985C551.85 152.985 552.058 152.948 552.263 152.873C552.469 152.794 552.653 152.689 552.816 152.558C552.984 152.423 553.117 152.273 553.215 152.11C553.318 151.947 553.372 151.776 553.376 151.599V150.458L552.487 150.472C552.049 150.477 551.664 150.523 551.332 150.612C551.006 150.701 550.751 150.843 550.569 151.039C550.387 151.23 550.296 151.487 550.296 151.809C550.296 152.178 550.425 152.467 550.681 152.677C550.938 152.882 551.258 152.985 551.64 152.985ZM556.828 154V146.762H558.494V147.798C558.606 147.611 558.758 147.432 558.949 147.259C559.145 147.086 559.386 146.946 559.67 146.839C559.955 146.732 560.289 146.678 560.671 146.678C561.119 146.678 561.535 146.767 561.917 146.944C562.305 147.121 562.615 147.399 562.848 147.777C563.086 148.155 563.205 148.643 563.205 149.24V154H561.497V149.443C561.497 148.967 561.367 148.615 561.105 148.386C560.844 148.153 560.515 148.036 560.118 148.036C559.848 148.036 559.591 148.083 559.348 148.176C559.106 148.265 558.907 148.402 558.753 148.589C558.604 148.771 558.529 149 558.529 149.275V154H556.828Z" fill="#1A1B1D" style="fill:#1A1B1D;fill:color(display-p3 0.1020 0.1059 0.1137);fill-opacity:1;"/>
<rect x="447.5" y="240.5" width="153" height="47" rx="11.5" fill="white" style="fill:white;fill-opacity:1;"/>
<rect x="447.5" y="240.5" width="153" height="47" rx="11.5" stroke="#4D5157" style="stroke:#4D5157;stroke:color(display-p3 0.3020 0.3176 0.3412);stroke-opacity:1;"/>
<path d="M481.571 269V258.878H485.162C485.89 258.878 486.541 259.004 487.115 259.256C487.693 259.503 488.148 259.87 488.48 260.355C488.811 260.84 488.977 261.438 488.977 262.147C488.977 262.814 488.825 263.386 488.522 263.862C488.223 264.338 487.805 264.702 487.269 264.954C486.732 265.206 486.104 265.332 485.386 265.332H483.3V269H481.571ZM483.286 263.967H485.344C485.936 263.967 486.419 263.79 486.793 263.435C487.171 263.08 487.36 262.618 487.36 262.049C487.36 261.47 487.164 261.022 486.772 260.705C486.38 260.383 485.887 260.222 485.295 260.222H483.286V263.967ZM490.335 269V258.598H492.015V262.812C492.132 262.63 492.286 262.455 492.477 262.287C492.668 262.114 492.902 261.974 493.177 261.867C493.457 261.755 493.791 261.699 494.178 261.699C494.64 261.699 495.062 261.788 495.445 261.965C495.828 262.142 496.133 262.399 496.362 262.735C496.591 263.066 496.705 263.463 496.705 263.925V269H494.997V264.212C494.997 263.839 494.864 263.549 494.598 263.344C494.337 263.139 494.005 263.036 493.604 263.036C493.338 263.036 493.084 263.083 492.841 263.176C492.598 263.269 492.402 263.409 492.253 263.596C492.108 263.778 492.036 264.007 492.036 264.282V269H490.335ZM499.224 271.31C498.757 271.31 498.433 271.273 498.251 271.198C498.069 271.128 497.978 271.093 497.978 271.093V270.001L498.706 270.022C499 270.036 499.238 270.02 499.42 269.973C499.606 269.926 499.751 269.861 499.854 269.777C499.956 269.698 500.031 269.611 500.078 269.518C500.129 269.429 500.169 269.352 500.197 269.287L500.386 268.755L497.565 261.762H499.259L501.184 266.879L503.102 261.762H504.768L501.786 269.266C501.562 269.812 501.319 270.232 501.058 270.526C500.801 270.825 500.519 271.03 500.211 271.142C499.907 271.254 499.578 271.31 499.224 271.31ZM508.584 269.14C508.08 269.14 507.601 269.061 507.149 268.902C506.701 268.739 506.323 268.484 506.015 268.139C505.711 267.794 505.52 267.348 505.441 266.802H506.939C507.004 267.068 507.118 267.285 507.282 267.453C507.45 267.621 507.646 267.745 507.87 267.824C508.098 267.899 508.334 267.936 508.577 267.936C509.011 267.936 509.361 267.861 509.627 267.712C509.893 267.563 510.026 267.332 510.026 267.019C510.026 266.79 509.951 266.608 509.802 266.473C509.657 266.338 509.419 266.235 509.088 266.165L507.716 265.85C507.1 265.715 506.607 265.491 506.239 265.178C505.87 264.865 505.683 264.424 505.679 263.855C505.674 263.426 505.781 263.043 506.001 262.707C506.22 262.371 506.547 262.107 506.981 261.916C507.415 261.72 507.949 261.622 508.584 261.622C509.428 261.622 510.105 261.811 510.614 262.189C511.127 262.562 511.391 263.097 511.405 263.792H509.956C509.904 263.479 509.757 263.237 509.515 263.064C509.272 262.887 508.957 262.798 508.57 262.798C508.168 262.798 507.839 262.875 507.583 263.029C507.326 263.183 507.198 263.419 507.198 263.736C507.198 263.955 507.293 264.128 507.485 264.254C507.681 264.38 507.977 264.487 508.374 264.576L509.676 264.891C510.049 264.984 510.355 265.11 510.593 265.269C510.831 265.428 511.015 265.603 511.146 265.794C511.281 265.981 511.374 266.174 511.426 266.375C511.482 266.571 511.51 266.753 511.51 266.921C511.51 267.388 511.388 267.787 511.146 268.118C510.908 268.445 510.569 268.697 510.131 268.874C509.697 269.051 509.181 269.14 508.584 269.14ZM513.086 269V261.762H514.717V269H513.086ZM513.058 260.495V258.885H514.745V260.495H513.058ZM519.705 269.14C519.043 269.14 518.452 268.995 517.934 268.706C517.421 268.412 517.017 267.987 516.723 267.432C516.429 266.872 516.282 266.198 516.282 265.409C516.282 264.658 516.42 264 516.695 263.435C516.975 262.866 517.37 262.422 517.878 262.105C518.392 261.783 519.001 261.622 519.705 261.622C520.27 261.622 520.767 261.734 521.196 261.958C521.626 262.182 521.969 262.492 522.225 262.889C522.487 263.286 522.643 263.736 522.694 264.24H521.245C521.208 264.021 521.126 263.813 521 263.617C520.874 263.416 520.704 263.255 520.489 263.134C520.279 263.008 520.023 262.945 519.719 262.945C519.173 262.945 518.732 263.146 518.396 263.547C518.06 263.948 517.892 264.564 517.892 265.395C517.892 266.16 518.051 266.769 518.368 267.222C518.69 267.675 519.15 267.901 519.747 267.901C520.046 267.901 520.303 267.836 520.517 267.705C520.732 267.57 520.9 267.404 521.021 267.208C521.147 267.007 521.227 266.807 521.259 266.606H522.673C522.631 267.096 522.48 267.532 522.218 267.915C521.957 268.298 521.612 268.599 521.182 268.818C520.753 269.033 520.261 269.14 519.705 269.14ZM526.334 269.14C525.872 269.14 525.457 269.056 525.088 268.888C524.724 268.715 524.437 268.47 524.227 268.153C524.022 267.831 523.919 267.441 523.919 266.984C523.919 266.186 524.206 265.584 524.78 265.178C525.359 264.772 526.278 264.56 527.538 264.541L528.623 264.513V264.023C528.623 263.64 528.509 263.342 528.28 263.127C528.056 262.908 527.706 262.8 527.23 262.805C526.876 262.81 526.554 262.894 526.264 263.057C525.975 263.216 525.784 263.484 525.69 263.862H524.241C524.269 263.367 524.412 262.954 524.668 262.623C524.93 262.287 525.287 262.037 525.739 261.874C526.192 261.706 526.715 261.622 527.307 261.622C527.998 261.622 528.56 261.713 528.994 261.895C529.428 262.077 529.748 262.341 529.953 262.686C530.159 263.027 530.261 263.44 530.261 263.925V269H528.826L528.686 267.698C528.43 268.244 528.101 268.622 527.699 268.832C527.303 269.037 526.848 269.14 526.334 269.14ZM526.887 267.985C527.097 267.985 527.305 267.948 527.51 267.873C527.716 267.794 527.9 267.689 528.063 267.558C528.231 267.423 528.364 267.273 528.462 267.11C528.565 266.947 528.619 266.776 528.623 266.599V265.458L527.734 265.472C527.296 265.477 526.911 265.523 526.579 265.612C526.253 265.701 525.998 265.843 525.816 266.039C525.634 266.23 525.543 266.487 525.543 266.809C525.543 267.178 525.672 267.467 525.928 267.677C526.185 267.882 526.505 267.985 526.887 267.985ZM534.161 269.105C533.695 269.105 533.321 269.047 533.041 268.93C532.761 268.813 532.551 268.657 532.411 268.461C532.271 268.265 532.18 268.046 532.138 267.803C532.096 267.556 532.075 267.304 532.075 267.047V258.598H533.741V266.851C533.741 267.164 533.804 267.406 533.93 267.579C534.061 267.752 534.271 267.852 534.56 267.88L534.924 267.894V268.965C534.798 269.002 534.67 269.035 534.539 269.063C534.409 269.091 534.283 269.105 534.161 269.105ZM539.786 271.254V261.762H541.487L541.501 262.903C541.595 262.744 541.714 262.588 541.858 262.434C542.008 262.28 542.178 262.142 542.369 262.021C542.565 261.9 542.782 261.804 543.02 261.734C543.258 261.659 543.52 261.622 543.804 261.622C544.36 261.622 544.852 261.755 545.281 262.021C545.711 262.282 546.047 262.686 546.289 263.232C546.537 263.778 546.66 264.469 546.66 265.304C546.66 266.158 546.534 266.87 546.282 267.439C546.03 268.008 545.678 268.435 545.225 268.72C544.773 269 544.248 269.14 543.65 269.14C543.375 269.14 543.123 269.103 542.894 269.028C542.67 268.953 542.47 268.851 542.292 268.72C542.115 268.589 541.959 268.447 541.823 268.293C541.693 268.139 541.583 267.978 541.494 267.81V271.254H539.786ZM543.272 267.866C543.786 267.866 544.21 267.663 544.546 267.257C544.882 266.846 545.05 266.205 545.05 265.332C545.05 264.576 544.892 263.981 544.574 263.547C544.262 263.108 543.828 262.889 543.272 262.889C542.675 262.889 542.227 263.12 541.928 263.582C541.63 264.039 541.48 264.623 541.48 265.332C541.48 265.789 541.546 266.212 541.676 266.599C541.812 266.982 542.01 267.29 542.271 267.523C542.537 267.752 542.871 267.866 543.272 267.866ZM550.294 269.105C549.828 269.105 549.454 269.047 549.174 268.93C548.894 268.813 548.684 268.657 548.544 268.461C548.404 268.265 548.313 268.046 548.271 267.803C548.229 267.556 548.208 267.304 548.208 267.047V258.598H549.874V266.851C549.874 267.164 549.937 267.406 550.063 267.579C550.194 267.752 550.404 267.852 550.693 267.88L551.057 267.894V268.965C550.931 269.002 550.803 269.035 550.672 269.063C550.542 269.091 550.416 269.105 550.294 269.105ZM554.676 269.14C554.214 269.14 553.799 269.056 553.43 268.888C553.066 268.715 552.779 268.47 552.569 268.153C552.364 267.831 552.261 267.441 552.261 266.984C552.261 266.186 552.548 265.584 553.122 265.178C553.701 264.772 554.62 264.56 555.88 264.541L556.965 264.513V264.023C556.965 263.64 556.851 263.342 556.622 263.127C556.398 262.908 556.048 262.8 555.572 262.805C555.218 262.81 554.896 262.894 554.606 263.057C554.317 263.216 554.126 263.484 554.032 263.862H552.583C552.611 263.367 552.754 262.954 553.01 262.623C553.272 262.287 553.629 262.037 554.081 261.874C554.534 261.706 555.057 261.622 555.649 261.622C556.34 261.622 556.902 261.713 557.336 261.895C557.77 262.077 558.09 262.341 558.295 262.686C558.501 263.027 558.603 263.44 558.603 263.925V269H557.168L557.028 267.698C556.772 268.244 556.443 268.622 556.041 268.832C555.645 269.037 555.19 269.14 554.676 269.14ZM555.229 267.985C555.439 267.985 555.647 267.948 555.852 267.873C556.058 267.794 556.242 267.689 556.405 267.558C556.573 267.423 556.706 267.273 556.804 267.11C556.907 266.947 556.961 266.776 556.965 266.599V265.458L556.076 265.472C555.638 265.477 555.253 265.523 554.921 265.612C554.595 265.701 554.34 265.843 554.158 266.039C553.976 266.23 553.885 266.487 553.885 266.809C553.885 267.178 554.014 267.467 554.27 267.677C554.527 267.882 554.847 267.985 555.229 267.985ZM560.417 269V261.762H562.083V262.798C562.195 262.611 562.347 262.432 562.538 262.259C562.734 262.086 562.975 261.946 563.259 261.839C563.544 261.732 563.878 261.678 564.26 261.678C564.708 261.678 565.124 261.767 565.506 261.944C565.894 262.121 566.204 262.399 566.437 262.777C566.675 263.155 566.794 263.643 566.794 264.24V269H565.086V264.443C565.086 263.967 564.956 263.615 564.694 263.386C564.433 263.153 564.104 263.036 563.707 263.036C563.437 263.036 563.18 263.083 562.937 263.176C562.695 263.265 562.496 263.402 562.342 263.589C562.193 263.771 562.118 264 562.118 264.275V269H560.417Z" fill="#1A1B1D" style="fill:#1A1B1D;fill:color(display-p3 0.1020 0.1059 0.1137);fill-opacity:1;"/>
<path d="M79 31.5C78.7239 31.5 78.5 31.7239 78.5 32C78.5 32.2761 78.7239 32.5 79 32.5V31.5ZM122.5 32.5C122.776 32.5 123 32.2761 123 32C123 31.7239 122.776 31.5 122.5 31.5V32.5ZM196.5 31.5C196.224 31.5 196 31.7239 196 32C196 32.2761 196.224 32.5 196.5 32.5V31.5ZM239.646 122.354C239.842 122.549 240.158 122.549 240.354 122.354L243.536 119.172C243.731 118.976 243.731 118.66 243.536 118.464C243.34 118.269 243.024 118.269 242.828 118.464L240 121.293L237.172 118.464C236.976 118.269 236.66 118.269 236.464 118.464C236.269 118.66 236.269 118.976 236.464 119.172L239.646 122.354ZM79 32.5H122.5V31.5H79V32.5ZM196.5 32.5H216V31.5H196.5V32.5ZM239.5 56V122H240.5V56H239.5ZM216 32.5C228.979 32.5 239.5 43.0213 239.5 56H240.5C240.5 42.469 229.531 31.5 216 31.5V32.5Z" fill="#4D5157" style="fill:#4D5157;fill:color(display-p3 0.3020 0.3176 0.3412);fill-opacity:1;"/>
<path d="M133.06 25V14.878H136.651C137.379 14.878 138.03 15.004 138.604 15.256C139.183 15.5033 139.638 15.8697 139.969 16.355C140.3 16.8403 140.466 17.4377 140.466 18.147C140.466 18.8143 140.314 19.386 140.011 19.862C139.712 20.338 139.295 20.702 138.758 20.954C138.221 21.206 137.594 21.332 136.875 21.332H134.789V25H133.06ZM134.775 19.967H136.833C137.426 19.967 137.909 19.7897 138.282 19.435C138.66 19.0803 138.849 18.6183 138.849 18.049C138.849 17.4703 138.653 17.0223 138.261 16.705C137.869 16.383 137.377 16.222 136.784 16.222H134.775V19.967ZM143.753 25.14C143.291 25.14 142.876 25.056 142.507 24.888C142.143 24.7153 141.856 24.4703 141.646 24.153C141.441 23.831 141.338 23.4413 141.338 22.984C141.338 22.186 141.625 21.584 142.199 21.178C142.778 20.772 143.697 20.5597 144.957 20.541L146.042 20.513V20.023C146.042 19.6403 145.928 19.3417 145.699 19.127C145.475 18.9077 145.125 18.8003 144.649 18.805C144.295 18.8097 143.973 18.8937 143.683 19.057C143.394 19.2157 143.203 19.484 143.109 19.862H141.66C141.688 19.3673 141.831 18.9543 142.087 18.623C142.349 18.287 142.706 18.0373 143.158 17.874C143.611 17.706 144.134 17.622 144.726 17.622C145.417 17.622 145.979 17.713 146.413 17.895C146.847 18.077 147.167 18.3407 147.372 18.686C147.578 19.0267 147.68 19.4397 147.68 19.925V25H146.245L146.105 23.698C145.849 24.244 145.52 24.622 145.118 24.832C144.722 25.0373 144.267 25.14 143.753 25.14ZM144.306 23.985C144.516 23.985 144.724 23.9477 144.929 23.873C145.135 23.7937 145.319 23.6887 145.482 23.558C145.65 23.4227 145.783 23.2733 145.881 23.11C145.984 22.9467 146.038 22.7763 146.042 22.599V21.458L145.153 21.472C144.715 21.4767 144.33 21.5233 143.998 21.612C143.672 21.7007 143.417 21.843 143.235 22.039C143.053 22.2303 142.962 22.487 142.962 22.809C142.962 23.1777 143.091 23.467 143.347 23.677C143.604 23.8823 143.924 23.985 144.306 23.985ZM149.494 25V17.762H151.125V19.33C151.242 18.9707 151.408 18.665 151.622 18.413C151.842 18.1563 152.098 17.9603 152.392 17.825C152.686 17.6897 153.006 17.622 153.351 17.622C153.435 17.622 153.517 17.6267 153.596 17.636C153.676 17.6453 153.734 17.6617 153.771 17.685V19.316C153.72 19.2927 153.652 19.2763 153.568 19.267C153.489 19.2577 153.419 19.253 153.358 19.253C153.008 19.225 152.698 19.239 152.427 19.295C152.161 19.351 151.935 19.4467 151.748 19.582C151.566 19.7127 151.429 19.8807 151.335 20.086C151.242 20.2867 151.195 20.5223 151.195 20.793V25H149.494ZM157.872 25.14C157.368 25.14 156.889 25.0607 156.437 24.902C155.989 24.7387 155.611 24.4843 155.303 24.139C154.999 23.7937 154.808 23.348 154.729 22.802H156.227C156.292 23.068 156.406 23.285 156.57 23.453C156.738 23.621 156.934 23.7447 157.158 23.824C157.386 23.8987 157.622 23.936 157.865 23.936C158.299 23.936 158.649 23.8613 158.915 23.712C159.181 23.5627 159.314 23.3317 159.314 23.019C159.314 22.7903 159.239 22.6083 159.09 22.473C158.945 22.3377 158.707 22.235 158.376 22.165L157.004 21.85C156.388 21.7147 155.895 21.4907 155.527 21.178C155.158 20.8653 154.971 20.4243 154.967 19.855C154.962 19.4257 155.069 19.043 155.289 18.707C155.508 18.371 155.835 18.1073 156.269 17.916C156.703 17.72 157.237 17.622 157.872 17.622C158.716 17.622 159.393 17.811 159.902 18.189C160.415 18.5623 160.679 19.0967 160.693 19.792H159.244C159.192 19.4793 159.045 19.2367 158.803 19.064C158.56 18.8867 158.245 18.798 157.858 18.798C157.456 18.798 157.127 18.875 156.871 19.029C156.614 19.183 156.486 19.4187 156.486 19.736C156.486 19.9553 156.581 20.128 156.773 20.254C156.969 20.38 157.265 20.4873 157.662 20.576L158.964 20.891C159.337 20.9843 159.643 21.1103 159.881 21.269C160.119 21.4277 160.303 21.6027 160.434 21.794C160.569 21.9807 160.662 22.1743 160.714 22.375C160.77 22.571 160.798 22.753 160.798 22.921C160.798 23.3877 160.676 23.7867 160.434 24.118C160.196 24.4447 159.857 24.6967 159.419 24.874C158.985 25.0513 158.469 25.14 157.872 25.14ZM162.374 25V17.762H164.005V25H162.374ZM162.346 16.495V14.885H164.033V16.495H162.346ZM166.024 25V17.762H167.69V18.798C167.802 18.6113 167.953 18.4317 168.145 18.259C168.341 18.0863 168.581 17.9463 168.866 17.839C169.15 17.7317 169.484 17.678 169.867 17.678C170.315 17.678 170.73 17.7667 171.113 17.944C171.5 18.1213 171.81 18.399 172.044 18.777C172.282 19.155 172.401 19.6427 172.401 20.24V25H170.693V20.443C170.693 19.967 170.562 19.6147 170.301 19.386C170.039 19.1527 169.71 19.036 169.314 19.036C169.043 19.036 168.786 19.0827 168.544 19.176C168.301 19.2647 168.103 19.4023 167.949 19.589C167.799 19.771 167.725 19.9997 167.725 20.275V25H166.024ZM177.447 27.394C176.229 27.394 175.293 27.2307 174.64 26.904C173.986 26.5773 173.66 26.1293 173.66 25.56C173.66 25.3033 173.723 25.0887 173.849 24.916C173.975 24.7433 174.124 24.601 174.297 24.489C174.469 24.377 174.628 24.2907 174.773 24.23C174.917 24.1693 175.011 24.125 175.053 24.097C174.973 24.0503 174.868 23.9897 174.738 23.915C174.607 23.8403 174.488 23.7377 174.381 23.607C174.278 23.4763 174.227 23.306 174.227 23.096C174.227 22.8533 174.341 22.6293 174.57 22.424C174.803 22.2187 175.151 22.0717 175.613 21.983C175.16 21.7637 174.812 21.4673 174.57 21.094C174.327 20.7207 174.206 20.3333 174.206 19.932C174.206 19.456 174.343 19.0477 174.619 18.707C174.899 18.3663 175.286 18.105 175.781 17.923C176.275 17.741 176.852 17.65 177.51 17.65C177.99 17.65 178.389 17.7037 178.707 17.811C179.029 17.9183 179.327 18.063 179.603 18.245C179.696 18.2077 179.827 18.1563 179.995 18.091C180.163 18.021 180.347 17.9463 180.548 17.867C180.748 17.783 180.942 17.7037 181.129 17.629C181.315 17.5497 181.472 17.4843 181.598 17.433L181.591 18.84L180.338 19.064C180.398 19.1993 180.445 19.3463 180.478 19.505C180.515 19.6637 180.534 19.8037 180.534 19.925C180.534 20.345 180.415 20.7347 180.177 21.094C179.943 21.4487 179.591 21.7333 179.12 21.948C178.653 22.1627 178.07 22.27 177.37 22.27C177.3 22.27 177.204 22.2677 177.083 22.263C176.961 22.2583 176.863 22.2537 176.789 22.249C176.411 22.263 176.152 22.3073 176.012 22.382C175.872 22.4567 175.802 22.5383 175.802 22.627C175.802 22.753 175.907 22.837 176.117 22.879C176.327 22.921 176.663 22.9583 177.125 22.991C177.288 23.0003 177.503 23.012 177.769 23.026C178.035 23.04 178.331 23.0587 178.658 23.082C179.484 23.1333 180.109 23.341 180.534 23.705C180.958 24.0643 181.171 24.531 181.171 25.105C181.171 25.7723 180.863 26.3207 180.247 26.75C179.631 27.1793 178.697 27.394 177.447 27.394ZM177.734 26.393C178.345 26.393 178.798 26.309 179.092 26.141C179.386 25.973 179.533 25.7257 179.533 25.399C179.533 25.147 179.432 24.9417 179.232 24.783C179.031 24.6243 178.732 24.531 178.336 24.503L176.509 24.391C176.308 24.377 176.117 24.4143 175.935 24.503C175.757 24.587 175.613 24.706 175.501 24.86C175.389 25.0093 175.333 25.175 175.333 25.357C175.333 25.6977 175.526 25.9543 175.914 26.127C176.306 26.3043 176.912 26.393 177.734 26.393ZM177.426 21.269C177.869 21.269 178.228 21.157 178.504 20.933C178.779 20.7043 178.917 20.3823 178.917 19.967C178.917 19.5377 178.779 19.204 178.504 18.966C178.228 18.7233 177.869 18.602 177.426 18.602C176.973 18.602 176.607 18.7233 176.327 18.966C176.051 19.2087 175.914 19.5423 175.914 19.967C175.914 20.3683 176.047 20.6857 176.313 20.919C176.579 21.1523 176.95 21.269 177.426 21.269ZM182.199 25.385L185.72 14.878H186.959L183.431 25.385H182.199ZM130.484 49V41.762H132.115V43.33C132.231 42.9707 132.397 42.665 132.612 42.413C132.831 42.1563 133.088 41.9603 133.382 41.825C133.676 41.6897 133.995 41.622 134.341 41.622C134.425 41.622 134.506 41.6267 134.586 41.636C134.665 41.6453 134.723 41.6617 134.761 41.685V43.316C134.709 43.2927 134.642 43.2763 134.558 43.267C134.478 43.2577 134.408 43.253 134.348 43.253C133.998 43.225 133.687 43.239 133.417 43.295C133.151 43.351 132.924 43.4467 132.738 43.582C132.556 43.7127 132.418 43.8807 132.325 44.086C132.231 44.2867 132.185 44.5223 132.185 44.793V49H130.484ZM139.261 49.14C138.565 49.14 137.952 48.993 137.42 48.699C136.892 48.4003 136.479 47.9757 136.181 47.425C135.887 46.8743 135.74 46.2187 135.74 45.458C135.74 44.716 135.873 44.058 136.139 43.484C136.409 42.9053 136.799 42.4503 137.308 42.119C137.821 41.7877 138.439 41.622 139.163 41.622C139.877 41.622 140.476 41.7737 140.962 42.077C141.447 42.3803 141.816 42.805 142.068 43.351C142.32 43.8923 142.446 44.527 142.446 45.255V45.773H137.441C137.436 46.1837 137.501 46.5477 137.637 46.865C137.772 47.1823 137.973 47.432 138.239 47.614C138.505 47.7913 138.834 47.88 139.226 47.88C139.627 47.88 139.975 47.7913 140.269 47.614C140.567 47.432 140.766 47.1567 140.864 46.788H142.418C142.334 47.292 142.133 47.719 141.816 48.069C141.503 48.419 141.12 48.685 140.668 48.867C140.22 49.049 139.751 49.14 139.261 49.14ZM137.434 44.716H140.836C140.836 44.366 140.773 44.051 140.647 43.771C140.525 43.4863 140.341 43.2623 140.094 43.099C139.846 42.931 139.534 42.847 139.156 42.847C138.782 42.847 138.467 42.938 138.211 43.12C137.954 43.302 137.76 43.5377 137.63 43.827C137.499 44.1117 137.434 44.408 137.434 44.716ZM145.533 49L143.237 41.762H144.77L146.275 46.739H146.359L147.822 41.762H149.061L150.566 46.732H150.65L152.106 41.762H153.667L151.371 49H149.901L148.417 44.177L146.968 49H145.533ZM154.902 49V41.762H156.533V43.33C156.649 42.9707 156.815 42.665 157.03 42.413C157.249 42.1563 157.506 41.9603 157.8 41.825C158.094 41.6897 158.413 41.622 158.759 41.622C158.843 41.622 158.924 41.6267 159.004 41.636C159.083 41.6453 159.141 41.6617 159.179 41.685V43.316C159.127 43.2927 159.06 43.2763 158.976 43.267C158.896 43.2577 158.826 43.253 158.766 43.253C158.416 43.225 158.105 43.239 157.835 43.295C157.569 43.351 157.342 43.4467 157.156 43.582C156.974 43.7127 156.836 43.8807 156.743 44.086C156.649 44.2867 156.603 44.5223 156.603 44.793V49H154.902ZM160.562 49V41.762H162.193V49H160.562ZM160.534 40.495V38.885H162.221V40.495H160.534ZM167.049 49.056C166.475 49.056 166.029 48.9813 165.712 48.832C165.399 48.678 165.182 48.461 165.061 48.181C164.939 47.901 164.879 47.5673 164.879 47.18V42.966H163.703V41.762H164.928L165.355 39.613H166.58V41.755H168.197V42.966H166.58L166.587 47.117C166.587 47.3317 166.61 47.4903 166.657 47.593C166.708 47.691 166.787 47.7563 166.895 47.789C167.007 47.817 167.154 47.831 167.336 47.831H168.232V48.909C168.134 48.9463 167.989 48.979 167.798 49.007C167.611 49.0397 167.361 49.056 167.049 49.056ZM169.832 49V41.762H171.463V49H169.832ZM169.804 40.495V38.885H171.491V40.495H169.804ZM173.482 49V41.762H175.148V42.798C175.26 42.6113 175.411 42.4317 175.603 42.259C175.799 42.0863 176.039 41.9463 176.324 41.839C176.608 41.7317 176.942 41.678 177.325 41.678C177.773 41.678 178.188 41.7667 178.571 41.944C178.958 42.1213 179.268 42.399 179.502 42.777C179.74 43.155 179.859 43.6427 179.859 44.24V49H178.151V44.443C178.151 43.967 178.02 43.6147 177.759 43.386C177.497 43.1527 177.168 43.036 176.772 43.036C176.501 43.036 176.244 43.0827 176.002 43.176C175.759 43.2647 175.561 43.4023 175.407 43.589C175.257 43.771 175.183 43.9997 175.183 44.275V49H173.482ZM184.905 51.394C183.687 51.394 182.751 51.2307 182.098 50.904C181.444 50.5773 181.118 50.1293 181.118 49.56C181.118 49.3033 181.181 49.0887 181.307 48.916C181.433 48.7433 181.582 48.601 181.755 48.489C181.927 48.377 182.086 48.2907 182.231 48.23C182.375 48.1693 182.469 48.125 182.511 48.097C182.431 48.0503 182.326 47.9897 182.196 47.915C182.065 47.8403 181.946 47.7377 181.839 47.607C181.736 47.4763 181.685 47.306 181.685 47.096C181.685 46.8533 181.799 46.6293 182.028 46.424C182.261 46.2187 182.609 46.0717 183.071 45.983C182.618 45.7637 182.27 45.4673 182.028 45.094C181.785 44.7207 181.664 44.3333 181.664 43.932C181.664 43.456 181.801 43.0477 182.077 42.707C182.357 42.3663 182.744 42.105 183.239 41.923C183.733 41.741 184.31 41.65 184.968 41.65C185.448 41.65 185.847 41.7037 186.165 41.811C186.487 41.9183 186.785 42.063 187.061 42.245C187.154 42.2077 187.285 42.1563 187.453 42.091C187.621 42.021 187.805 41.9463 188.006 41.867C188.206 41.783 188.4 41.7037 188.587 41.629C188.773 41.5497 188.93 41.4843 189.056 41.433L189.049 42.84L187.796 43.064C187.856 43.1993 187.903 43.3463 187.936 43.505C187.973 43.6637 187.992 43.8037 187.992 43.925C187.992 44.345 187.873 44.7347 187.635 45.094C187.401 45.4487 187.049 45.7333 186.578 45.948C186.111 46.1627 185.528 46.27 184.828 46.27C184.758 46.27 184.662 46.2677 184.541 46.263C184.419 46.2583 184.321 46.2537 184.247 46.249C183.869 46.263 183.61 46.3073 183.47 46.382C183.33 46.4567 183.26 46.5383 183.26 46.627C183.26 46.753 183.365 46.837 183.575 46.879C183.785 46.921 184.121 46.9583 184.583 46.991C184.746 47.0003 184.961 47.012 185.227 47.026C185.493 47.04 185.789 47.0587 186.116 47.082C186.942 47.1333 187.567 47.341 187.992 47.705C188.416 48.0643 188.629 48.531 188.629 49.105C188.629 49.7723 188.321 50.3207 187.705 50.75C187.089 51.1793 186.155 51.394 184.905 51.394ZM185.192 50.393C185.803 50.393 186.256 50.309 186.55 50.141C186.844 49.973 186.991 49.7257 186.991 49.399C186.991 49.147 186.89 48.9417 186.69 48.783C186.489 48.6243 186.19 48.531 185.794 48.503L183.967 48.391C183.766 48.377 183.575 48.4143 183.393 48.503C183.215 48.587 183.071 48.706 182.959 48.86C182.847 49.0093 182.791 49.175 182.791 49.357C182.791 49.6977 182.984 49.9543 183.372 50.127C183.764 50.3043 184.37 50.393 185.192 50.393ZM184.884 45.269C185.327 45.269 185.686 45.157 185.962 44.933C186.237 44.7043 186.375 44.3823 186.375 43.967C186.375 43.5377 186.237 43.204 185.962 42.966C185.686 42.7233 185.327 42.602 184.884 42.602C184.431 42.602 184.065 42.7233 183.785 42.966C183.509 43.2087 183.372 43.5423 183.372 43.967C183.372 44.3683 183.505 44.6857 183.771 44.919C184.037 45.1523 184.408 45.269 184.884 45.269Z" fill="black" fill-opacity="0.8" style="fill:black;fill-opacity:0.8;"/>
<path d="M79 239.5C78.7239 239.5 78.5 239.724 78.5 240C78.5 240.276 78.7239 240.5 79 240.5V239.5ZM240.354 175.646C240.158 175.451 239.842 175.451 239.646 175.646L236.464 178.828C236.269 179.024 236.269 179.34 236.464 179.536C236.66 179.731 236.976 179.731 237.172 179.536L240 176.707L242.828 179.536C243.024 179.731 243.34 179.731 243.536 179.536C243.731 179.34 243.731 179.024 243.536 178.828L240.354 175.646ZM79 240.5H216V239.5H79V240.5ZM240.5 216V176H239.5V216H240.5ZM216 240.5C229.531 240.5 240.5 229.531 240.5 216H239.5C239.5 228.979 228.979 239.5 216 239.5V240.5Z" fill="#4D5157" style="fill:#4D5157;fill:color(display-p3 0.3020 0.3176 0.3412);fill-opacity:1;"/>
<path d="M320 148.5C319.724 148.5 319.5 148.724 319.5 149C319.5 149.276 319.724 149.5 320 149.5V148.5ZM444.354 149.354C444.549 149.158 444.549 148.842 444.354 148.646L441.172 145.464C440.976 145.269 440.66 145.269 440.464 145.464C440.269 145.66 440.269 145.976 440.464 146.172L443.293 149L440.464 151.828C440.269 152.024 440.269 152.34 440.464 152.536C440.66 152.731 440.976 152.731 441.172 152.536L444.354 149.354ZM320 149.5H444V148.5H320V149.5Z" fill="#4D5157" style="fill:#4D5157;fill:color(display-p3 0.3020 0.3176 0.3412);fill-opacity:1;"/>
<path d="M524.5 176C524.5 175.724 524.276 175.5 524 175.5C523.724 175.5 523.5 175.724 523.5 176H524.5ZM523.646 237.354C523.842 237.549 524.158 237.549 524.354 237.354L527.536 234.172C527.731 233.976 527.731 233.66 527.536 233.464C527.34 233.269 527.024 233.269 526.828 233.464L524 236.293L521.172 233.464C520.976 233.269 520.66 233.269 520.464 233.464C520.269 233.66 520.269 233.976 520.464 234.172L523.646 237.354ZM523.5 176V237H524.5V176H523.5Z" fill="#4D5157" style="fill:#4D5157;fill:color(display-p3 0.3020 0.3176 0.3412);fill-opacity:1;"/>
</svg>
