<svg width="890" height="255" viewBox="0 0 890 255" fill="none" xmlns="http://www.w3.org/2000/svg">
<path d="M417.225 248V237.878H420.704C421.987 237.878 422.946 238.107 423.581 238.564C424.22 239.017 424.54 239.67 424.54 240.524C424.54 241.042 424.407 241.49 424.141 241.868C423.875 242.246 423.406 242.566 422.734 242.827C423.145 242.925 423.483 243.06 423.749 243.233C424.02 243.401 424.23 243.595 424.379 243.814C424.528 244.029 424.633 244.26 424.694 244.507C424.755 244.754 424.785 245.009 424.785 245.27C424.785 246.194 424.463 246.88 423.819 247.328C423.18 247.776 422.188 248 420.844 248H417.225ZM418.926 246.642H420.865C421.584 246.642 422.127 246.514 422.496 246.257C422.869 245.996 423.056 245.62 423.056 245.13C423.056 244.775 422.965 244.484 422.783 244.255C422.601 244.022 422.354 243.849 422.041 243.737C421.728 243.625 421.378 243.569 420.991 243.569H418.926V246.642ZM418.926 242.19H420.991C421.229 242.19 421.46 242.164 421.684 242.113C421.908 242.062 422.111 241.98 422.293 241.868C422.475 241.756 422.62 241.607 422.727 241.42C422.839 241.233 422.895 241.007 422.895 240.741C422.895 240.232 422.701 239.854 422.314 239.607C421.931 239.355 421.439 239.229 420.837 239.229H418.926V242.19ZM429.114 248.14C428.76 248.14 428.417 248.089 428.085 247.986C427.759 247.879 427.465 247.725 427.203 247.524C426.942 247.319 426.734 247.067 426.58 246.768C426.426 246.469 426.349 246.122 426.349 245.725V240.762H428.057V245.529C428.057 245.921 428.181 246.243 428.428 246.495C428.68 246.747 429.058 246.873 429.562 246.873C430.02 246.873 430.386 246.754 430.661 246.516C430.937 246.273 431.074 245.926 431.074 245.473V240.762H432.768V248H431.459L431.27 246.586C431.182 246.983 431.025 247.295 430.801 247.524C430.582 247.748 430.323 247.907 430.024 248C429.73 248.093 429.427 248.14 429.114 248.14ZM435.58 248V241.966H434.152V240.762H435.58V239.684C435.58 239.105 435.739 238.66 436.056 238.347C436.378 238.034 436.843 237.878 437.449 237.878H438.975L438.982 239.04H437.974C437.699 239.04 437.51 239.112 437.407 239.257C437.305 239.397 437.253 239.619 437.253 239.922V240.762H438.912V241.966H437.281V248H435.58ZM440.899 248V241.966H439.471V240.762H440.899V239.684C440.899 239.105 441.057 238.66 441.375 238.347C441.697 238.034 442.161 237.878 442.768 237.878H444.294L444.301 239.04H443.293C443.017 239.04 442.828 239.112 442.726 239.257C442.623 239.397 442.572 239.619 442.572 239.922V240.762H444.231V241.966H442.6V248H440.899ZM448.698 248.14C448.003 248.14 447.389 247.993 446.857 247.699C446.33 247.4 445.917 246.976 445.618 246.425C445.324 245.874 445.177 245.219 445.177 244.458C445.177 243.716 445.31 243.058 445.576 242.484C445.847 241.905 446.237 241.45 446.745 241.119C447.259 240.788 447.877 240.622 448.6 240.622C449.314 240.622 449.914 240.774 450.399 241.077C450.885 241.38 451.253 241.805 451.505 242.351C451.757 242.892 451.883 243.527 451.883 244.255V244.773H446.878C446.874 245.184 446.939 245.548 447.074 245.865C447.21 246.182 447.41 246.432 447.676 246.614C447.942 246.791 448.271 246.88 448.663 246.88C449.065 246.88 449.412 246.791 449.706 246.614C450.005 246.432 450.203 246.157 450.301 245.788H451.855C451.771 246.292 451.571 246.719 451.253 247.069C450.941 247.419 450.558 247.685 450.105 247.867C449.657 248.049 449.188 248.14 448.698 248.14ZM446.871 243.716H450.273C450.273 243.366 450.21 243.051 450.084 242.771C449.963 242.486 449.779 242.262 449.531 242.099C449.284 241.931 448.971 241.847 448.593 241.847C448.22 241.847 447.905 241.938 447.648 242.12C447.392 242.302 447.198 242.538 447.067 242.827C446.937 243.112 446.871 243.408 446.871 243.716ZM453.511 248V240.762H455.142V242.33C455.259 241.971 455.424 241.665 455.639 241.413C455.858 241.156 456.115 240.96 456.409 240.825C456.703 240.69 457.023 240.622 457.368 240.622C457.452 240.622 457.534 240.627 457.613 240.636C457.692 240.645 457.751 240.662 457.788 240.685V242.316C457.737 242.293 457.669 242.276 457.585 242.267C457.506 242.258 457.436 242.253 457.375 242.253C457.025 242.225 456.715 242.239 456.444 242.295C456.178 242.351 455.952 242.447 455.765 242.582C455.583 242.713 455.445 242.881 455.352 243.086C455.259 243.287 455.212 243.522 455.212 243.793V248H453.511ZM461.888 248.14C461.384 248.14 460.906 248.061 460.453 247.902C460.005 247.739 459.627 247.484 459.319 247.139C459.016 246.794 458.825 246.348 458.745 245.802H460.243C460.309 246.068 460.423 246.285 460.586 246.453C460.754 246.621 460.95 246.745 461.174 246.824C461.403 246.899 461.639 246.936 461.881 246.936C462.315 246.936 462.665 246.861 462.931 246.712C463.197 246.563 463.33 246.332 463.33 246.019C463.33 245.79 463.256 245.608 463.106 245.473C462.962 245.338 462.724 245.235 462.392 245.165L461.02 244.85C460.404 244.715 459.912 244.491 459.543 244.178C459.175 243.865 458.988 243.424 458.983 242.855C458.979 242.426 459.086 242.043 459.305 241.707C459.525 241.371 459.851 241.107 460.285 240.916C460.719 240.72 461.254 240.622 461.888 240.622C462.733 240.622 463.41 240.811 463.918 241.189C464.432 241.562 464.695 242.097 464.709 242.792H463.26C463.209 242.479 463.062 242.237 462.819 242.064C462.577 241.887 462.262 241.798 461.874 241.798C461.473 241.798 461.144 241.875 460.887 242.029C460.631 242.183 460.502 242.419 460.502 242.736C460.502 242.955 460.598 243.128 460.789 243.254C460.985 243.38 461.282 243.487 461.678 243.576L462.98 243.891C463.354 243.984 463.659 244.11 463.897 244.269C464.135 244.428 464.32 244.603 464.45 244.794C464.586 244.981 464.679 245.174 464.73 245.375C464.786 245.571 464.814 245.753 464.814 245.921C464.814 246.388 464.693 246.787 464.45 247.118C464.212 247.445 463.874 247.697 463.435 247.874C463.001 248.051 462.486 248.14 461.888 248.14Z" fill="black" style="fill:black;fill-opacity:1;"/>
<path d="M437.225 17V6.878H439.661L442.314 14.613L444.995 6.878H447.417V17H445.688V9.062L443.021 17H441.6L438.954 9.111V17H437.225ZM452.5 17.14C451.809 17.14 451.207 16.993 450.694 16.699C450.181 16.4003 449.782 15.9733 449.497 15.418C449.217 14.8627 449.077 14.1953 449.077 13.416C449.077 12.66 449.215 11.9973 449.49 11.428C449.765 10.8587 450.157 10.4153 450.666 10.098C451.179 9.78067 451.793 9.622 452.507 9.622C453.198 9.622 453.797 9.77367 454.306 10.077C454.815 10.3803 455.207 10.8143 455.482 11.379C455.762 11.9437 455.902 12.6227 455.902 13.416C455.902 14.1487 455.769 14.795 455.503 15.355C455.242 15.9103 454.857 16.3467 454.348 16.664C453.844 16.9813 453.228 17.14 452.5 17.14ZM452.507 15.845C452.899 15.845 453.221 15.7377 453.473 15.523C453.73 15.3083 453.921 15.0143 454.047 14.641C454.173 14.2677 454.236 13.843 454.236 13.367C454.236 12.9237 454.18 12.5153 454.068 12.142C453.956 11.7687 453.772 11.47 453.515 11.246C453.263 11.0173 452.927 10.903 452.507 10.903C452.11 10.903 451.781 11.008 451.52 11.218C451.263 11.4233 451.072 11.7127 450.946 12.086C450.82 12.4547 450.757 12.8817 450.757 13.367C450.757 13.8057 450.813 14.214 450.925 14.592C451.037 14.9653 451.221 15.2687 451.478 15.502C451.735 15.7307 452.078 15.845 452.507 15.845ZM457.46 17V9.762H459.091V11.33C459.208 10.9707 459.373 10.665 459.588 10.413C459.807 10.1563 460.064 9.96033 460.358 9.825C460.652 9.68967 460.972 9.622 461.317 9.622C461.401 9.622 461.483 9.62667 461.562 9.636C461.641 9.64533 461.7 9.66167 461.737 9.685V11.316C461.686 11.2927 461.618 11.2763 461.534 11.267C461.455 11.2577 461.385 11.253 461.324 11.253C460.974 11.225 460.664 11.239 460.393 11.295C460.127 11.351 459.901 11.4467 459.714 11.582C459.532 11.7127 459.394 11.8807 459.301 12.086C459.208 12.2867 459.161 12.5223 459.161 12.793V17H457.46ZM465.838 17.14C465.334 17.14 464.855 17.0607 464.403 16.902C463.955 16.7387 463.577 16.4843 463.269 16.139C462.965 15.7937 462.774 15.348 462.695 14.802H464.193C464.258 15.068 464.372 15.285 464.536 15.453C464.704 15.621 464.9 15.7447 465.124 15.824C465.352 15.8987 465.588 15.936 465.831 15.936C466.265 15.936 466.615 15.8613 466.881 15.712C467.147 15.5627 467.28 15.3317 467.28 15.019C467.28 14.7903 467.205 14.6083 467.056 14.473C466.911 14.3377 466.673 14.235 466.342 14.165L464.97 13.85C464.354 13.7147 463.861 13.4907 463.493 13.178C463.124 12.8653 462.937 12.4243 462.933 11.855C462.928 11.4257 463.035 11.043 463.255 10.707C463.474 10.371 463.801 10.1073 464.235 9.916C464.669 9.72 465.203 9.622 465.838 9.622C466.682 9.622 467.359 9.811 467.868 10.189C468.381 10.5623 468.645 11.0967 468.659 11.792H467.21C467.158 11.4793 467.011 11.2367 466.769 11.064C466.526 10.8867 466.211 10.798 465.824 10.798C465.422 10.798 465.093 10.875 464.837 11.029C464.58 11.183 464.452 11.4187 464.452 11.736C464.452 11.9553 464.547 12.128 464.739 12.254C464.935 12.38 465.231 12.4873 465.628 12.576L466.93 12.891C467.303 12.9843 467.609 13.1103 467.847 13.269C468.085 13.4277 468.269 13.6027 468.4 13.794C468.535 13.9807 468.628 14.1743 468.68 14.375C468.736 14.571 468.764 14.753 468.764 14.921C468.764 15.3877 468.642 15.7867 468.4 16.118C468.162 16.4447 467.823 16.6967 467.385 16.874C466.951 17.0513 466.435 17.14 465.838 17.14ZM473.511 17.14C472.815 17.14 472.202 16.993 471.67 16.699C471.142 16.4003 470.729 15.9757 470.431 15.425C470.137 14.8743 469.99 14.2187 469.99 13.458C469.99 12.716 470.123 12.058 470.389 11.484C470.659 10.9053 471.049 10.4503 471.558 10.119C472.071 9.78767 472.689 9.622 473.413 9.622C474.127 9.622 474.726 9.77367 475.212 10.077C475.697 10.3803 476.066 10.805 476.318 11.351C476.57 11.8923 476.696 12.527 476.696 13.255V13.773H471.691C471.686 14.1837 471.751 14.5477 471.887 14.865C472.022 15.1823 472.223 15.432 472.489 15.614C472.755 15.7913 473.084 15.88 473.476 15.88C473.877 15.88 474.225 15.7913 474.519 15.614C474.817 15.432 475.016 15.1567 475.114 14.788H476.668C476.584 15.292 476.383 15.719 476.066 16.069C475.753 16.419 475.37 16.685 474.918 16.867C474.47 17.049 474.001 17.14 473.511 17.14ZM471.684 12.716H475.086C475.086 12.366 475.023 12.051 474.897 11.771C474.775 11.4863 474.591 11.2623 474.344 11.099C474.096 10.931 473.784 10.847 473.406 10.847C473.032 10.847 472.717 10.938 472.461 11.12C472.204 11.302 472.01 11.5377 471.88 11.827C471.749 12.1117 471.684 12.408 471.684 12.716ZM480.409 17.105C479.943 17.105 479.569 17.0467 479.289 16.93C479.009 16.8133 478.799 16.657 478.659 16.461C478.519 16.265 478.428 16.0457 478.386 15.803C478.344 15.5557 478.323 15.3037 478.323 15.047V6.598H479.989V14.851C479.989 15.1637 480.052 15.4063 480.178 15.579C480.309 15.7517 480.519 15.852 480.808 15.88L481.172 15.894V16.965C481.046 17.0023 480.918 17.035 480.787 17.063C480.657 17.091 480.531 17.105 480.409 17.105ZM485.375 17.14C484.871 17.14 484.392 17.0607 483.94 16.902C483.492 16.7387 483.114 16.4843 482.806 16.139C482.502 15.7937 482.311 15.348 482.232 14.802H483.73C483.795 15.068 483.909 15.285 484.073 15.453C484.241 15.621 484.437 15.7447 484.661 15.824C484.889 15.8987 485.125 15.936 485.368 15.936C485.802 15.936 486.152 15.8613 486.418 15.712C486.684 15.5627 486.817 15.3317 486.817 15.019C486.817 14.7903 486.742 14.6083 486.593 14.473C486.448 14.3377 486.21 14.235 485.879 14.165L484.507 13.85C483.891 13.7147 483.398 13.4907 483.03 13.178C482.661 12.8653 482.474 12.4243 482.47 11.855C482.465 11.4257 482.572 11.043 482.792 10.707C483.011 10.371 483.338 10.1073 483.772 9.916C484.206 9.72 484.74 9.622 485.375 9.622C486.219 9.622 486.896 9.811 487.405 10.189C487.918 10.5623 488.182 11.0967 488.196 11.792H486.747C486.695 11.4793 486.548 11.2367 486.306 11.064C486.063 10.8867 485.748 10.798 485.361 10.798C484.959 10.798 484.63 10.875 484.374 11.029C484.117 11.183 483.989 11.4187 483.989 11.736C483.989 11.9553 484.084 12.128 484.276 12.254C484.472 12.38 484.768 12.4873 485.165 12.576L486.467 12.891C486.84 12.9843 487.146 13.1103 487.384 13.269C487.622 13.4277 487.806 13.6027 487.937 13.794C488.072 13.9807 488.165 14.1743 488.217 14.375C488.273 14.571 488.301 14.753 488.301 14.921C488.301 15.3877 488.179 15.7867 487.937 16.118C487.699 16.4447 487.36 16.6967 486.922 16.874C486.488 17.0513 485.972 17.14 485.375 17.14Z" fill="black" style="fill:black;fill-opacity:1;"/>
<mask id="path-3-inside-1_847_2887" fill="white">
<path fill-rule="evenodd" clip-rule="evenodd" d="M279.5 105H400V150H279.5H279V149.969C273.986 149.354 270 139.529 270 127.5C270 115.471 273.986 105.646 279 105.031V105H279.5Z"/>
</mask>
<path fill-rule="evenodd" clip-rule="evenodd" d="M279.5 105H400V150H279.5H279V149.969C273.986 149.354 270 139.529 270 127.5C270 115.471 273.986 105.646 279 105.031V105H279.5Z" fill="#C3F8FB" style="fill:#C3F8FB;fill:color(display-p3 0.7647 0.9725 0.9843);fill-opacity:1;"/>
<path d="M400 105H401V104H400V105ZM400 150V151H401V150H400ZM279 150H278V151H279V150ZM279 149.969H280V149.085L279.122 148.977L279 149.969ZM279 105.031L279.122 106.023L280 105.915V105.031H279ZM279 105V104H278V105H279ZM279.5 106H400V104H279.5V106ZM399 105V150H401V105H399ZM400 149H279.5V151H400V149ZM279.5 149H279V151H279.5V149ZM280 150V149.969H278V150H280ZM279.122 148.977C278.183 148.862 277.198 148.303 276.221 147.22C275.245 146.139 274.331 144.59 273.547 142.642C271.982 138.748 271 133.416 271 127.5H269C269 133.613 270.011 139.208 271.692 143.388C272.532 145.476 273.555 147.251 274.736 148.56C275.916 149.868 277.31 150.769 278.878 150.962L279.122 148.977ZM271 127.5C271 121.584 271.982 116.252 273.547 112.358C274.331 110.41 275.245 108.861 276.221 107.78C277.198 106.697 278.183 106.138 279.122 106.023L278.878 104.038C277.31 104.231 275.916 105.132 274.736 106.44C273.555 107.749 272.532 109.524 271.692 111.612C270.011 115.792 269 121.387 269 127.5H271ZM280 105.031V105H278V105.031H280ZM279 106H279.5V104H279V106Z" fill="#4D5157" style="fill:#4D5157;fill:color(display-p3 0.3020 0.3176 0.3412);fill-opacity:1;" mask="url(#path-3-inside-1_847_2887)"/>
<path d="M408.5 127.5C408.5 133.663 407.444 139.219 405.757 143.215C404.913 145.215 403.92 146.8 402.844 147.879C401.769 148.955 400.64 149.5 399.5 149.5C398.36 149.5 397.231 148.955 396.156 147.879C395.08 146.8 394.087 145.215 393.243 143.215C391.556 139.219 390.5 133.663 390.5 127.5C390.5 121.337 391.556 115.781 393.243 111.785C394.087 109.785 395.08 108.2 396.156 107.121C397.231 106.045 398.36 105.5 399.5 105.5C400.64 105.5 401.769 106.045 402.844 107.121C403.92 108.2 404.913 109.785 405.757 111.785C407.444 115.781 408.5 121.337 408.5 127.5Z" fill="#8FE3E8" stroke="#4D5157" style="fill:#8FE3E8;fill:color(display-p3 0.5608 0.8902 0.9098);fill-opacity:1;stroke:#4D5157;stroke:color(display-p3 0.3020 0.3176 0.3412);stroke-opacity:1;"/>
<mask id="path-6-inside-2_847_2887" fill="white">
<path fill-rule="evenodd" clip-rule="evenodd" d="M220.5 105H248V150H220.5H220V149.969C214.986 149.354 211 139.529 211 127.5C211 115.471 214.986 105.646 220 105.031V105H220.5Z"/>
</mask>
<path fill-rule="evenodd" clip-rule="evenodd" d="M220.5 105H248V150H220.5H220V149.969C214.986 149.354 211 139.529 211 127.5C211 115.471 214.986 105.646 220 105.031V105H220.5Z" fill="#E2E3E5" style="fill:#E2E3E5;fill:color(display-p3 0.8863 0.8902 0.8980);fill-opacity:1;"/>
<path d="M248 105H249V104H248V105ZM248 150V151H249V150H248ZM220 150H219V151H220V150ZM220 149.969H221V149.085L220.122 148.977L220 149.969ZM220 105.031L220.122 106.023L221 105.915V105.031H220ZM220 105V104H219V105H220ZM220.5 106H248V104H220.5V106ZM247 105V150H249V105H247ZM248 149H220.5V151H248V149ZM220.5 149H220V151H220.5V149ZM221 150V149.969H219V150H221ZM220.122 148.977C219.183 148.862 218.198 148.303 217.221 147.22C216.245 146.139 215.331 144.59 214.547 142.642C212.982 138.748 212 133.416 212 127.5H210C210 133.613 211.011 139.208 212.692 143.388C213.532 145.476 214.555 147.251 215.736 148.56C216.916 149.868 218.31 150.769 219.878 150.962L220.122 148.977ZM212 127.5C212 121.584 212.982 116.252 214.547 112.358C215.331 110.41 216.245 108.861 217.221 107.78C218.198 106.697 219.183 106.138 220.122 106.023L219.878 104.038C218.31 104.231 216.916 105.132 215.736 106.44C214.555 107.749 213.532 109.524 212.692 111.612C211.011 115.792 210 121.387 210 127.5H212ZM221 105.031V105H219V105.031H221ZM220 106H220.5V104H220V106Z" fill="#4D5157" style="fill:#4D5157;fill:color(display-p3 0.3020 0.3176 0.3412);fill-opacity:1;" mask="url(#path-6-inside-2_847_2887)"/>
<path d="M256.5 127.5C256.5 133.663 255.444 139.219 253.757 143.215C252.913 145.215 251.92 146.8 250.844 147.879C249.769 148.955 248.64 149.5 247.5 149.5C246.36 149.5 245.231 148.955 244.156 147.879C243.08 146.8 242.087 145.215 241.243 143.215C239.556 139.219 238.5 133.663 238.5 127.5C238.5 121.337 239.556 115.781 241.243 111.785C242.087 109.785 243.08 108.2 244.156 107.121C245.231 106.045 246.36 105.5 247.5 105.5C248.64 105.5 249.769 106.045 250.844 107.121C251.92 108.2 252.913 109.785 253.757 111.785C255.444 115.781 256.5 121.337 256.5 127.5Z" fill="#CFD1D4" stroke="#4D5157" style="fill:#CFD1D4;fill:color(display-p3 0.8118 0.8196 0.8314);fill-opacity:1;stroke:#4D5157;stroke:color(display-p3 0.3020 0.3176 0.3412);stroke-opacity:1;"/>
<path d="M299.496 126.336C299.496 125.837 299.398 125.442 299.202 125.153C299.006 124.859 298.738 124.649 298.397 124.523C298.056 124.392 297.667 124.327 297.228 124.327H295.835V128.443H297.179C297.632 128.443 298.031 128.382 298.376 128.261C298.721 128.135 298.994 127.92 299.195 127.617C299.396 127.309 299.496 126.882 299.496 126.336ZM300.798 126.322C300.798 127.073 300.637 127.675 300.315 128.128C299.998 128.581 299.559 128.91 298.999 129.115C298.439 129.32 297.795 129.423 297.067 129.423H295.835V133H294.617V123.361H297.081C298.229 123.361 299.134 123.604 299.797 124.089C300.464 124.57 300.798 125.314 300.798 126.322ZM306.533 125.629V132.069H308.612V133H303.082V132.069H305.357V126.56H303.152V125.629H306.533ZM305.595 122.178C305.856 122.178 306.064 122.257 306.218 122.416C306.376 122.575 306.456 122.768 306.456 122.997C306.456 123.235 306.376 123.436 306.218 123.599C306.064 123.758 305.856 123.837 305.595 123.837C305.347 123.837 305.144 123.758 304.986 123.599C304.827 123.436 304.748 123.235 304.748 122.997C304.748 122.768 304.827 122.575 304.986 122.416C305.144 122.257 305.347 122.178 305.595 122.178ZM314.493 125.475C315.146 125.475 315.667 125.634 316.054 125.951C316.446 126.268 316.728 126.716 316.901 127.295C317.074 127.869 317.16 128.541 317.16 129.311C317.16 130.053 317.055 130.716 316.845 131.299C316.64 131.878 316.327 132.333 315.907 132.664C315.487 132.995 314.957 133.161 314.318 133.161C313.511 133.161 312.862 132.876 312.372 132.307V135.821L311.196 135.968V125.629H312.197L312.295 126.658C312.566 126.28 312.888 125.988 313.261 125.783C313.639 125.578 314.05 125.475 314.493 125.475ZM314.213 126.42C313.807 126.42 313.448 126.544 313.135 126.791C312.827 127.034 312.573 127.304 312.372 127.603V131.257C312.563 131.542 312.804 131.768 313.093 131.936C313.387 132.099 313.709 132.181 314.059 132.181C314.67 132.181 315.13 131.948 315.438 131.481C315.746 131.014 315.9 130.289 315.9 129.304C315.9 128.66 315.839 128.126 315.718 127.701C315.597 127.272 315.412 126.952 315.165 126.742C314.918 126.527 314.6 126.42 314.213 126.42ZM320.515 129.731C320.538 130.3 320.648 130.767 320.844 131.131C321.04 131.49 321.299 131.756 321.621 131.929C321.943 132.097 322.293 132.181 322.671 132.181C323.049 132.181 323.389 132.125 323.693 132.013C324.001 131.901 324.316 131.735 324.638 131.516L325.191 132.293C324.845 132.564 324.451 132.776 324.008 132.93C323.569 133.084 323.119 133.161 322.657 133.161C321.943 133.161 321.334 133 320.83 132.678C320.326 132.356 319.941 131.908 319.675 131.334C319.413 130.755 319.283 130.086 319.283 129.325C319.283 128.578 319.416 127.916 319.682 127.337C319.948 126.758 320.321 126.303 320.802 125.972C321.282 125.641 321.849 125.475 322.503 125.475C323.123 125.475 323.658 125.622 324.106 125.916C324.554 126.205 324.897 126.621 325.135 127.162C325.377 127.699 325.499 128.34 325.499 129.087C325.499 129.213 325.496 129.332 325.492 129.444C325.487 129.551 325.48 129.647 325.471 129.731H320.515ZM322.517 126.441C321.971 126.441 321.513 126.635 321.145 127.022C320.781 127.409 320.573 128.009 320.522 128.821H324.365C324.351 128.032 324.178 127.44 323.847 127.043C323.515 126.642 323.072 126.441 322.517 126.441ZM330.855 122.661V131.18C330.855 131.544 330.967 131.803 331.191 131.957C331.42 132.106 331.714 132.181 332.073 132.181C332.297 132.181 332.509 132.158 332.71 132.111C332.911 132.064 333.111 132.001 333.312 131.922L333.627 132.783C333.426 132.881 333.177 132.967 332.878 133.042C332.584 133.121 332.25 133.161 331.877 133.161C331.224 133.161 330.694 132.981 330.288 132.622C329.882 132.258 329.679 131.756 329.679 131.117V123.592H327.418V122.661H330.855ZM340.111 125.629V132.069H342.19V133H336.66V132.069H338.935V126.56H336.73V125.629H340.111ZM339.173 122.178C339.434 122.178 339.642 122.257 339.796 122.416C339.954 122.575 340.034 122.768 340.034 122.997C340.034 123.235 339.954 123.436 339.796 123.599C339.642 123.758 339.434 123.837 339.173 123.837C338.925 123.837 338.722 123.758 338.564 123.599C338.405 123.436 338.326 123.235 338.326 122.997C338.326 122.768 338.405 122.575 338.564 122.416C338.722 122.257 338.925 122.178 339.173 122.178ZM344.774 133V125.629H345.775L345.866 126.651C346.165 126.273 346.538 125.984 346.986 125.783C347.439 125.578 347.878 125.475 348.302 125.475C349.026 125.475 349.551 125.666 349.877 126.049C350.209 126.432 350.374 126.964 350.374 127.645V133H349.198V128.513C349.198 128.009 349.17 127.603 349.114 127.295C349.058 126.982 348.942 126.756 348.764 126.616C348.587 126.471 348.312 126.399 347.938 126.399C347.649 126.399 347.376 126.462 347.119 126.588C346.867 126.714 346.641 126.873 346.44 127.064C346.244 127.251 346.081 127.44 345.95 127.631V133H344.774ZM354.093 129.731C354.116 130.3 354.226 130.767 354.422 131.131C354.618 131.49 354.877 131.756 355.199 131.929C355.521 132.097 355.871 132.181 356.249 132.181C356.627 132.181 356.967 132.125 357.271 132.013C357.579 131.901 357.894 131.735 358.216 131.516L358.769 132.293C358.423 132.564 358.029 132.776 357.586 132.93C357.147 133.084 356.697 133.161 356.235 133.161C355.521 133.161 354.912 133 354.408 132.678C353.904 132.356 353.519 131.908 353.253 131.334C352.991 130.755 352.861 130.086 352.861 129.325C352.861 128.578 352.994 127.916 353.26 127.337C353.526 126.758 353.899 126.303 354.38 125.972C354.86 125.641 355.427 125.475 356.081 125.475C356.701 125.475 357.236 125.622 357.684 125.916C358.132 126.205 358.475 126.621 358.713 127.162C358.955 127.699 359.077 128.34 359.077 129.087C359.077 129.213 359.074 129.332 359.07 129.444C359.065 129.551 359.058 129.647 359.049 129.731H354.093ZM356.095 126.441C355.549 126.441 355.091 126.635 354.723 127.022C354.359 127.409 354.151 128.009 354.1 128.821H357.943C357.929 128.032 357.756 127.44 357.425 127.043C357.093 126.642 356.65 126.441 356.095 126.441ZM373.78 123.361V132.72H372.604V124.635L370.392 125.979L369.881 125.139L372.751 123.361H373.78ZM375.796 132.041V133H370.231V132.041H375.796Z" fill="#4D5157" style="fill:#4D5157;fill:color(display-p3 0.3020 0.3176 0.3412);fill-opacity:1;"/>
<mask id="path-10-inside-3_847_2887" fill="white">
<path fill-rule="evenodd" clip-rule="evenodd" d="M68.5 105H189V150H68.5H68V149.969C62.9857 149.354 59 139.529 59 127.5C59 115.471 62.9857 105.646 68 105.031V105H68.5Z"/>
</mask>
<path fill-rule="evenodd" clip-rule="evenodd" d="M68.5 105H189V150H68.5H68V149.969C62.9857 149.354 59 139.529 59 127.5C59 115.471 62.9857 105.646 68 105.031V105H68.5Z" fill="#5DB3BF" style="fill:#5DB3BF;fill:color(display-p3 0.3647 0.7020 0.7490);fill-opacity:1;"/>
<path d="M189 105H190V104H189V105ZM189 150V151H190V150H189ZM68 150H67V151H68V150ZM68 149.969H69V149.085L68.1219 148.977L68 149.969ZM68 105.031L68.1219 106.023L69 105.915V105.031H68ZM68 105V104H67V105H68ZM68.5 106H189V104H68.5V106ZM188 105V150H190V105H188ZM189 149H68.5V151H189V149ZM68.5 149H68V151H68.5V149ZM69 150V149.969H67V150H69ZM68.1219 148.977C67.183 148.862 66.198 148.303 65.2208 147.22C64.2446 146.139 63.3308 144.59 62.5474 142.642C60.9817 138.748 60 133.416 60 127.5H58C58 133.613 59.0111 139.208 60.6918 143.388C61.5317 145.476 62.5545 147.251 63.7359 148.56C64.9163 149.868 66.3099 150.769 67.8781 150.962L68.1219 148.977ZM60 127.5C60 121.584 60.9817 116.252 62.5474 112.358C63.3308 110.41 64.2446 108.861 65.2208 107.78C66.198 106.697 67.183 106.138 68.1219 106.023L67.8781 104.038C66.3099 104.231 64.9163 105.132 63.7359 106.44C62.5545 107.749 61.5317 109.524 60.6918 111.612C59.0111 115.792 58 121.387 58 127.5H60ZM69 105.031V105H67V105.031H69ZM68 106H68.5V104H68V106Z" fill="#4D5157" style="fill:#4D5157;fill:color(display-p3 0.3020 0.3176 0.3412);fill-opacity:1;" mask="url(#path-10-inside-3_847_2887)"/>
<path d="M197.5 127.5C197.5 133.663 196.444 139.219 194.757 143.215C193.913 145.215 192.92 146.8 191.844 147.879C190.769 148.955 189.64 149.5 188.5 149.5C187.36 149.5 186.231 148.955 185.156 147.879C184.08 146.8 183.087 145.215 182.243 143.215C180.556 139.219 179.5 133.663 179.5 127.5C179.5 121.337 180.556 115.781 182.243 111.785C183.087 109.785 184.08 108.2 185.156 107.121C186.231 106.045 187.36 105.5 188.5 105.5C189.64 105.5 190.769 106.045 191.844 107.121C192.92 108.2 193.913 109.785 194.757 111.785C196.444 115.781 197.5 121.337 197.5 127.5Z" fill="#51A6B1" stroke="#4D5157" style="fill:#51A6B1;fill:color(display-p3 0.3176 0.6510 0.6941);fill-opacity:1;stroke:#4D5157;stroke:color(display-p3 0.3020 0.3176 0.3412);stroke-opacity:1;"/>
<mask id="path-13-inside-4_847_2887" fill="white">
<path fill-rule="evenodd" clip-rule="evenodd" d="M9.5 105H37V150H9.5H9V149.969C3.98572 149.354 0 139.529 0 127.5C0 115.471 3.98572 105.646 9 105.031V105H9.5Z"/>
</mask>
<path fill-rule="evenodd" clip-rule="evenodd" d="M9.5 105H37V150H9.5H9V149.969C3.98572 149.354 0 139.529 0 127.5C0 115.471 3.98572 105.646 9 105.031V105H9.5Z" fill="#E2E3E5" style="fill:#E2E3E5;fill:color(display-p3 0.8863 0.8902 0.8980);fill-opacity:1;"/>
<path d="M37 105H38V104H37V105ZM37 150V151H38V150H37ZM9 150H8V151H9V150ZM9 149.969H10V149.085L9.12189 148.977L9 149.969ZM9 105.031L9.12189 106.023L10 105.915V105.031H9ZM9 105V104H8V105H9ZM9.5 106H37V104H9.5V106ZM36 105V150H38V105H36ZM37 149H9.5V151H37V149ZM9.5 149H9V151H9.5V149ZM10 150V149.969H8V150H10ZM9.12189 148.977C8.18296 148.862 7.19804 148.303 6.22079 147.22C5.24459 146.139 4.3308 144.59 3.54744 142.642C1.98174 138.748 1 133.416 1 127.5H-1C-1 133.613 0.011118 139.208 1.69184 143.388C2.53171 145.476 3.55452 147.251 4.73591 148.56C5.91625 149.868 7.3099 150.769 8.87811 150.962L9.12189 148.977ZM1 127.5C1 121.584 1.98174 116.252 3.54744 112.358C4.3308 110.41 5.24459 108.861 6.22079 107.78C7.19804 106.697 8.18296 106.138 9.12189 106.023L8.87811 104.038C7.3099 104.231 5.91625 105.132 4.73591 106.44C3.55452 107.749 2.53171 109.524 1.69184 111.612C0.011118 115.792 -1 121.387 -1 127.5H1ZM10 105.031V105H8V105.031H10ZM9 106H9.5V104H9V106Z" fill="#4D5157" style="fill:#4D5157;fill:color(display-p3 0.3020 0.3176 0.3412);fill-opacity:1;" mask="url(#path-13-inside-4_847_2887)"/>
<path d="M45.5 127.5C45.5 133.663 44.4443 139.219 42.7569 143.215C41.9128 145.215 40.9204 146.8 39.844 147.879C38.7695 148.955 37.6399 149.5 36.5 149.5C35.3601 149.5 34.2305 148.955 33.156 147.879C32.0796 146.8 31.0872 145.215 30.2431 143.215C28.5557 139.219 27.5 133.663 27.5 127.5C27.5 121.337 28.5557 115.781 30.2431 111.785C31.0872 109.785 32.0796 108.2 33.156 107.121C34.2305 106.045 35.3601 105.5 36.5 105.5C37.6399 105.5 38.7695 106.045 39.844 107.121C40.9204 108.2 41.9128 109.785 42.7569 111.785C44.4443 115.781 45.5 121.337 45.5 127.5Z" fill="#CFD1D4" stroke="#4D5157" style="fill:#CFD1D4;fill:color(display-p3 0.8118 0.8196 0.8314);fill-opacity:1;stroke:#4D5157;stroke:color(display-p3 0.3020 0.3176 0.3412);stroke-opacity:1;"/>
<path d="M88.496 126.336C88.496 125.837 88.398 125.442 88.202 125.153C88.006 124.859 87.7377 124.649 87.397 124.523C87.0563 124.392 86.6667 124.327 86.228 124.327H84.835V128.443H86.179C86.6317 128.443 87.0307 128.382 87.376 128.261C87.7213 128.135 87.9943 127.92 88.195 127.617C88.3957 127.309 88.496 126.882 88.496 126.336ZM89.798 126.322C89.798 127.073 89.637 127.675 89.315 128.128C88.9977 128.581 88.559 128.91 87.999 129.115C87.439 129.32 86.795 129.423 86.067 129.423H84.835V133H83.617V123.361H86.081C87.229 123.361 88.1343 123.604 88.797 124.089C89.4643 124.57 89.798 125.314 89.798 126.322ZM95.5325 125.629V132.069H97.6115V133H92.0815V132.069H94.3565V126.56H92.1515V125.629H95.5325ZM94.5945 122.178C94.8559 122.178 95.0635 122.257 95.2175 122.416C95.3762 122.575 95.4555 122.768 95.4555 122.997C95.4555 123.235 95.3762 123.436 95.2175 123.599C95.0635 123.758 94.8559 123.837 94.5945 123.837C94.3472 123.837 94.1442 123.758 93.9855 123.599C93.8269 123.436 93.7475 123.235 93.7475 122.997C93.7475 122.768 93.8269 122.575 93.9855 122.416C94.1442 122.257 94.3472 122.178 94.5945 122.178ZM103.493 125.475C104.146 125.475 104.667 125.634 105.054 125.951C105.446 126.268 105.728 126.716 105.901 127.295C106.074 127.869 106.16 128.541 106.16 129.311C106.16 130.053 106.055 130.716 105.845 131.299C105.64 131.878 105.327 132.333 104.907 132.664C104.487 132.995 103.957 133.161 103.318 133.161C102.511 133.161 101.862 132.876 101.372 132.307V135.821L100.196 135.968V125.629H101.197L101.295 126.658C101.566 126.28 101.888 125.988 102.261 125.783C102.639 125.578 103.05 125.475 103.493 125.475ZM103.213 126.42C102.807 126.42 102.448 126.544 102.135 126.791C101.827 127.034 101.573 127.304 101.372 127.603V131.257C101.563 131.542 101.804 131.768 102.093 131.936C102.387 132.099 102.709 132.181 103.059 132.181C103.67 132.181 104.13 131.948 104.438 131.481C104.746 131.014 104.9 130.289 104.9 129.304C104.9 128.66 104.839 128.126 104.718 127.701C104.597 127.272 104.412 126.952 104.165 126.742C103.918 126.527 103.6 126.42 103.213 126.42ZM109.515 129.731C109.538 130.3 109.648 130.767 109.844 131.131C110.04 131.49 110.299 131.756 110.621 131.929C110.943 132.097 111.293 132.181 111.671 132.181C112.049 132.181 112.389 132.125 112.693 132.013C113.001 131.901 113.316 131.735 113.638 131.516L114.191 132.293C113.845 132.564 113.451 132.776 113.008 132.93C112.569 133.084 112.119 133.161 111.657 133.161C110.943 133.161 110.334 133 109.83 132.678C109.326 132.356 108.941 131.908 108.675 131.334C108.413 130.755 108.283 130.086 108.283 129.325C108.283 128.578 108.416 127.916 108.682 127.337C108.948 126.758 109.321 126.303 109.802 125.972C110.282 125.641 110.849 125.475 111.503 125.475C112.123 125.475 112.658 125.622 113.106 125.916C113.554 126.205 113.897 126.621 114.135 127.162C114.377 127.699 114.499 128.34 114.499 129.087C114.499 129.213 114.496 129.332 114.492 129.444C114.487 129.551 114.48 129.647 114.471 129.731H109.515ZM111.517 126.441C110.971 126.441 110.513 126.635 110.145 127.022C109.781 127.409 109.573 128.009 109.522 128.821H113.365C113.351 128.032 113.178 127.44 112.847 127.043C112.515 126.642 112.072 126.441 111.517 126.441ZM119.855 122.661V131.18C119.855 131.544 119.967 131.803 120.191 131.957C120.42 132.106 120.714 132.181 121.073 132.181C121.297 132.181 121.509 132.158 121.71 132.111C121.911 132.064 122.111 132.001 122.312 131.922L122.627 132.783C122.426 132.881 122.177 132.967 121.878 133.042C121.584 133.121 121.25 133.161 120.877 133.161C120.224 133.161 119.694 132.981 119.288 132.622C118.882 132.258 118.679 131.756 118.679 131.117V123.592H116.418V122.661H119.855ZM129.111 125.629V132.069H131.19V133H125.66V132.069H127.935V126.56H125.73V125.629H129.111ZM128.173 122.178C128.434 122.178 128.642 122.257 128.796 122.416C128.954 122.575 129.034 122.768 129.034 122.997C129.034 123.235 128.954 123.436 128.796 123.599C128.642 123.758 128.434 123.837 128.173 123.837C127.925 123.837 127.722 123.758 127.564 123.599C127.405 123.436 127.326 123.235 127.326 122.997C127.326 122.768 127.405 122.575 127.564 122.416C127.722 122.257 127.925 122.178 128.173 122.178ZM133.774 133V125.629H134.775L134.866 126.651C135.165 126.273 135.538 125.984 135.986 125.783C136.439 125.578 136.878 125.475 137.302 125.475C138.026 125.475 138.551 125.666 138.877 126.049C139.209 126.432 139.374 126.964 139.374 127.645V133H138.198V128.513C138.198 128.009 138.17 127.603 138.114 127.295C138.058 126.982 137.942 126.756 137.764 126.616C137.587 126.471 137.312 126.399 136.938 126.399C136.649 126.399 136.376 126.462 136.119 126.588C135.867 126.714 135.641 126.873 135.44 127.064C135.244 127.251 135.081 127.44 134.95 127.631V133H133.774ZM143.093 129.731C143.116 130.3 143.226 130.767 143.422 131.131C143.618 131.49 143.877 131.756 144.199 131.929C144.521 132.097 144.871 132.181 145.249 132.181C145.627 132.181 145.967 132.125 146.271 132.013C146.579 131.901 146.894 131.735 147.216 131.516L147.769 132.293C147.423 132.564 147.029 132.776 146.586 132.93C146.147 133.084 145.697 133.161 145.235 133.161C144.521 133.161 143.912 133 143.408 132.678C142.904 132.356 142.519 131.908 142.253 131.334C141.991 130.755 141.861 130.086 141.861 129.325C141.861 128.578 141.994 127.916 142.26 127.337C142.526 126.758 142.899 126.303 143.38 125.972C143.86 125.641 144.427 125.475 145.081 125.475C145.701 125.475 146.236 125.622 146.684 125.916C147.132 126.205 147.475 126.621 147.713 127.162C147.955 127.699 148.077 128.34 148.077 129.087C148.077 129.213 148.074 129.332 148.07 129.444C148.065 129.551 148.058 129.647 148.049 129.731H143.093ZM145.095 126.441C144.549 126.441 144.091 126.635 143.723 127.022C143.359 127.409 143.151 128.009 143.1 128.821H146.943C146.929 128.032 146.756 127.44 146.425 127.043C146.093 126.642 145.65 126.441 145.095 126.441ZM161.751 123.207C162.791 123.207 163.578 123.636 164.11 124.495C164.642 125.354 164.908 126.581 164.908 128.177C164.908 129.778 164.642 131.01 164.11 131.873C163.578 132.732 162.791 133.161 161.751 133.161C160.715 133.161 159.928 132.732 159.392 131.873C158.86 131.01 158.594 129.778 158.594 128.177C158.594 126.581 158.86 125.354 159.392 124.495C159.928 123.636 160.715 123.207 161.751 123.207ZM161.751 124.152C161.158 124.152 160.691 124.467 160.351 125.097C160.01 125.722 159.84 126.749 159.84 128.177C159.84 128.9 159.877 129.519 159.952 130.032C160.026 130.545 160.141 130.963 160.295 131.285C160.453 131.602 160.652 131.836 160.89 131.985C161.132 132.134 161.419 132.209 161.751 132.209C162.152 132.209 162.495 132.071 162.78 131.796C163.069 131.521 163.288 131.087 163.438 130.494C163.592 129.897 163.669 129.124 163.669 128.177C163.669 127.216 163.601 126.439 163.466 125.846C163.335 125.253 163.127 124.824 162.843 124.558C162.563 124.287 162.199 124.152 161.751 124.152ZM163.172 124.495L163.48 125.524L160.414 131.733L159.98 130.914L163.172 124.495Z" fill="white" style="fill:white;fill-opacity:1;"/>
<mask id="path-17-inside-5_847_2887" fill="white">
<path fill-rule="evenodd" clip-rule="evenodd" d="M490.5 105H611V150H490.5H490V149.969C484.986 149.354 481 139.529 481 127.5C481 115.471 484.986 105.646 490 105.031V105H490.5Z"/>
</mask>
<path fill-rule="evenodd" clip-rule="evenodd" d="M490.5 105H611V150H490.5H490V149.969C484.986 149.354 481 139.529 481 127.5C481 115.471 484.986 105.646 490 105.031V105H490.5Z" fill="#BCF194" style="fill:#BCF194;fill:color(display-p3 0.7373 0.9451 0.5804);fill-opacity:1;"/>
<path d="M611 105H612V104H611V105ZM611 150V151H612V150H611ZM490 150H489V151H490V150ZM490 149.969H491V149.085L490.122 148.977L490 149.969ZM490 105.031L490.122 106.023L491 105.915V105.031H490ZM490 105V104H489V105H490ZM490.5 106H611V104H490.5V106ZM610 105V150H612V105H610ZM611 149H490.5V151H611V149ZM490.5 149H490V151H490.5V149ZM491 150V149.969H489V150H491ZM490.122 148.977C489.183 148.862 488.198 148.303 487.221 147.22C486.245 146.139 485.331 144.59 484.547 142.642C482.982 138.748 482 133.416 482 127.5H480C480 133.613 481.011 139.208 482.692 143.388C483.532 145.476 484.555 147.251 485.736 148.56C486.916 149.868 488.31 150.769 489.878 150.962L490.122 148.977ZM482 127.5C482 121.584 482.982 116.252 484.547 112.358C485.331 110.41 486.245 108.861 487.221 107.78C488.198 106.697 489.183 106.138 490.122 106.023L489.878 104.038C488.31 104.231 486.916 105.132 485.736 106.44C484.555 107.749 483.532 109.524 482.692 111.612C481.011 115.792 480 121.387 480 127.5H482ZM491 105.031V105H489V105.031H491ZM490 106H490.5V104H490V106Z" fill="#4D5157" style="fill:#4D5157;fill:color(display-p3 0.3020 0.3176 0.3412);fill-opacity:1;" mask="url(#path-17-inside-5_847_2887)"/>
<path d="M619.5 127.5C619.5 133.663 618.444 139.219 616.757 143.215C615.913 145.215 614.92 146.8 613.844 147.879C612.769 148.955 611.64 149.5 610.5 149.5C609.36 149.5 608.231 148.955 607.156 147.879C606.08 146.8 605.087 145.215 604.243 143.215C602.556 139.219 601.5 133.663 601.5 127.5C601.5 121.337 602.556 115.781 604.243 111.785C605.087 109.785 606.08 108.2 607.156 107.121C608.231 106.045 609.36 105.5 610.5 105.5C611.64 105.5 612.769 106.045 613.844 107.121C614.92 108.2 615.913 109.785 616.757 111.785C618.444 115.781 619.5 121.337 619.5 127.5Z" fill="#90CB62" stroke="#4D5157" style="fill:#90CB62;fill:color(display-p3 0.5647 0.7961 0.3843);fill-opacity:1;stroke:#4D5157;stroke:color(display-p3 0.3020 0.3176 0.3412);stroke-opacity:1;"/>
<mask id="path-20-inside-6_847_2887" fill="white">
<path fill-rule="evenodd" clip-rule="evenodd" d="M431.5 105H459V150H431.5H431V149.969C425.986 149.354 422 139.529 422 127.5C422 115.471 425.986 105.646 431 105.031V105H431.5Z"/>
</mask>
<path fill-rule="evenodd" clip-rule="evenodd" d="M431.5 105H459V150H431.5H431V149.969C425.986 149.354 422 139.529 422 127.5C422 115.471 425.986 105.646 431 105.031V105H431.5Z" fill="#E2E3E5" style="fill:#E2E3E5;fill:color(display-p3 0.8863 0.8902 0.8980);fill-opacity:1;"/>
<path d="M459 105H460V104H459V105ZM459 150V151H460V150H459ZM431 150H430V151H431V150ZM431 149.969H432V149.085L431.122 148.977L431 149.969ZM431 105.031L431.122 106.023L432 105.915V105.031H431ZM431 105V104H430V105H431ZM431.5 106H459V104H431.5V106ZM458 105V150H460V105H458ZM459 149H431.5V151H459V149ZM431.5 149H431V151H431.5V149ZM432 150V149.969H430V150H432ZM431.122 148.977C430.183 148.862 429.198 148.303 428.221 147.22C427.245 146.139 426.331 144.59 425.547 142.642C423.982 138.748 423 133.416 423 127.5H421C421 133.613 422.011 139.208 423.692 143.388C424.532 145.476 425.555 147.251 426.736 148.56C427.916 149.868 429.31 150.769 430.878 150.962L431.122 148.977ZM423 127.5C423 121.584 423.982 116.252 425.547 112.358C426.331 110.41 427.245 108.861 428.221 107.78C429.198 106.697 430.183 106.138 431.122 106.023L430.878 104.038C429.31 104.231 427.916 105.132 426.736 106.44C425.555 107.749 424.532 109.524 423.692 111.612C422.011 115.792 421 121.387 421 127.5H423ZM432 105.031V105H430V105.031H432ZM431 106H431.5V104H431V106Z" fill="#4D5157" style="fill:#4D5157;fill:color(display-p3 0.3020 0.3176 0.3412);fill-opacity:1;" mask="url(#path-20-inside-6_847_2887)"/>
<path d="M467.5 127.5C467.5 133.663 466.444 139.219 464.757 143.215C463.913 145.215 462.92 146.8 461.844 147.879C460.769 148.955 459.64 149.5 458.5 149.5C457.36 149.5 456.231 148.955 455.156 147.879C454.08 146.8 453.087 145.215 452.243 143.215C450.556 139.219 449.5 133.663 449.5 127.5C449.5 121.337 450.556 115.781 452.243 111.785C453.087 109.785 454.08 108.2 455.156 107.121C456.231 106.045 457.36 105.5 458.5 105.5C459.64 105.5 460.769 106.045 461.844 107.121C462.92 108.2 463.913 109.785 464.757 111.785C466.444 115.781 467.5 121.337 467.5 127.5Z" fill="#CFD1D4" stroke="#4D5157" style="fill:#CFD1D4;fill:color(display-p3 0.8118 0.8196 0.8314);fill-opacity:1;stroke:#4D5157;stroke:color(display-p3 0.3020 0.3176 0.3412);stroke-opacity:1;"/>
<path d="M510.496 126.336C510.496 125.837 510.398 125.442 510.202 125.153C510.006 124.859 509.738 124.649 509.397 124.523C509.056 124.392 508.667 124.327 508.228 124.327H506.835V128.443H508.179C508.632 128.443 509.031 128.382 509.376 128.261C509.721 128.135 509.994 127.92 510.195 127.617C510.396 127.309 510.496 126.882 510.496 126.336ZM511.798 126.322C511.798 127.073 511.637 127.675 511.315 128.128C510.998 128.581 510.559 128.91 509.999 129.115C509.439 129.32 508.795 129.423 508.067 129.423H506.835V133H505.617V123.361H508.081C509.229 123.361 510.134 123.604 510.797 124.089C511.464 124.57 511.798 125.314 511.798 126.322ZM517.533 125.629V132.069H519.612V133H514.082V132.069H516.357V126.56H514.152V125.629H517.533ZM516.595 122.178C516.856 122.178 517.064 122.257 517.218 122.416C517.376 122.575 517.456 122.768 517.456 122.997C517.456 123.235 517.376 123.436 517.218 123.599C517.064 123.758 516.856 123.837 516.595 123.837C516.347 123.837 516.144 123.758 515.986 123.599C515.827 123.436 515.748 123.235 515.748 122.997C515.748 122.768 515.827 122.575 515.986 122.416C516.144 122.257 516.347 122.178 516.595 122.178ZM525.493 125.475C526.146 125.475 526.667 125.634 527.054 125.951C527.446 126.268 527.728 126.716 527.901 127.295C528.074 127.869 528.16 128.541 528.16 129.311C528.16 130.053 528.055 130.716 527.845 131.299C527.64 131.878 527.327 132.333 526.907 132.664C526.487 132.995 525.957 133.161 525.318 133.161C524.511 133.161 523.862 132.876 523.372 132.307V135.821L522.196 135.968V125.629H523.197L523.295 126.658C523.566 126.28 523.888 125.988 524.261 125.783C524.639 125.578 525.05 125.475 525.493 125.475ZM525.213 126.42C524.807 126.42 524.448 126.544 524.135 126.791C523.827 127.034 523.573 127.304 523.372 127.603V131.257C523.563 131.542 523.804 131.768 524.093 131.936C524.387 132.099 524.709 132.181 525.059 132.181C525.67 132.181 526.13 131.948 526.438 131.481C526.746 131.014 526.9 130.289 526.9 129.304C526.9 128.66 526.839 128.126 526.718 127.701C526.597 127.272 526.412 126.952 526.165 126.742C525.918 126.527 525.6 126.42 525.213 126.42ZM531.515 129.731C531.538 130.3 531.648 130.767 531.844 131.131C532.04 131.49 532.299 131.756 532.621 131.929C532.943 132.097 533.293 132.181 533.671 132.181C534.049 132.181 534.389 132.125 534.693 132.013C535.001 131.901 535.316 131.735 535.638 131.516L536.191 132.293C535.845 132.564 535.451 132.776 535.008 132.93C534.569 133.084 534.119 133.161 533.657 133.161C532.943 133.161 532.334 133 531.83 132.678C531.326 132.356 530.941 131.908 530.675 131.334C530.413 130.755 530.283 130.086 530.283 129.325C530.283 128.578 530.416 127.916 530.682 127.337C530.948 126.758 531.321 126.303 531.802 125.972C532.282 125.641 532.849 125.475 533.503 125.475C534.123 125.475 534.658 125.622 535.106 125.916C535.554 126.205 535.897 126.621 536.135 127.162C536.377 127.699 536.499 128.34 536.499 129.087C536.499 129.213 536.496 129.332 536.492 129.444C536.487 129.551 536.48 129.647 536.471 129.731H531.515ZM533.517 126.441C532.971 126.441 532.513 126.635 532.145 127.022C531.781 127.409 531.573 128.009 531.522 128.821H535.365C535.351 128.032 535.178 127.44 534.847 127.043C534.515 126.642 534.072 126.441 533.517 126.441ZM541.855 122.661V131.18C541.855 131.544 541.967 131.803 542.191 131.957C542.42 132.106 542.714 132.181 543.073 132.181C543.297 132.181 543.509 132.158 543.71 132.111C543.911 132.064 544.111 132.001 544.312 131.922L544.627 132.783C544.426 132.881 544.177 132.967 543.878 133.042C543.584 133.121 543.25 133.161 542.877 133.161C542.224 133.161 541.694 132.981 541.288 132.622C540.882 132.258 540.679 131.756 540.679 131.117V123.592H538.418V122.661H541.855ZM551.111 125.629V132.069H553.19V133H547.66V132.069H549.935V126.56H547.73V125.629H551.111ZM550.173 122.178C550.434 122.178 550.642 122.257 550.796 122.416C550.954 122.575 551.034 122.768 551.034 122.997C551.034 123.235 550.954 123.436 550.796 123.599C550.642 123.758 550.434 123.837 550.173 123.837C549.925 123.837 549.722 123.758 549.564 123.599C549.405 123.436 549.326 123.235 549.326 122.997C549.326 122.768 549.405 122.575 549.564 122.416C549.722 122.257 549.925 122.178 550.173 122.178ZM555.774 133V125.629H556.775L556.866 126.651C557.165 126.273 557.538 125.984 557.986 125.783C558.439 125.578 558.878 125.475 559.302 125.475C560.026 125.475 560.551 125.666 560.877 126.049C561.209 126.432 561.374 126.964 561.374 127.645V133H560.198V128.513C560.198 128.009 560.17 127.603 560.114 127.295C560.058 126.982 559.942 126.756 559.764 126.616C559.587 126.471 559.312 126.399 558.938 126.399C558.649 126.399 558.376 126.462 558.119 126.588C557.867 126.714 557.641 126.873 557.44 127.064C557.244 127.251 557.081 127.44 556.95 127.631V133H555.774ZM565.093 129.731C565.116 130.3 565.226 130.767 565.422 131.131C565.618 131.49 565.877 131.756 566.199 131.929C566.521 132.097 566.871 132.181 567.249 132.181C567.627 132.181 567.967 132.125 568.271 132.013C568.579 131.901 568.894 131.735 569.216 131.516L569.769 132.293C569.423 132.564 569.029 132.776 568.586 132.93C568.147 133.084 567.697 133.161 567.235 133.161C566.521 133.161 565.912 133 565.408 132.678C564.904 132.356 564.519 131.908 564.253 131.334C563.991 130.755 563.861 130.086 563.861 129.325C563.861 128.578 563.994 127.916 564.26 127.337C564.526 126.758 564.899 126.303 565.38 125.972C565.86 125.641 566.427 125.475 567.081 125.475C567.701 125.475 568.236 125.622 568.684 125.916C569.132 126.205 569.475 126.621 569.713 127.162C569.955 127.699 570.077 128.34 570.077 129.087C570.077 129.213 570.074 129.332 570.07 129.444C570.065 129.551 570.058 129.647 570.049 129.731H565.093ZM567.095 126.441C566.549 126.441 566.091 126.635 565.723 127.022C565.359 127.409 565.151 128.009 565.1 128.821H568.943C568.929 128.032 568.756 127.44 568.425 127.043C568.093 126.642 567.65 126.441 567.095 126.441ZM583.324 123.207C583.93 123.207 584.448 123.324 584.878 123.557C585.312 123.79 585.645 124.11 585.879 124.516C586.112 124.922 586.229 125.382 586.229 125.895C586.229 126.338 586.152 126.772 585.998 127.197C585.844 127.617 585.596 128.06 585.256 128.527C584.92 128.989 584.476 129.502 583.926 130.067C583.38 130.632 582.708 131.276 581.91 131.999H586.453L586.306 133H580.573V132.041C581.301 131.346 581.919 130.737 582.428 130.214C582.941 129.691 583.363 129.234 583.695 128.842C584.031 128.445 584.292 128.086 584.479 127.764C584.67 127.442 584.803 127.136 584.878 126.847C584.952 126.553 584.99 126.25 584.99 125.937C584.99 125.396 584.836 124.969 584.528 124.656C584.224 124.343 583.804 124.187 583.268 124.187C582.792 124.187 582.402 124.269 582.099 124.432C581.795 124.595 581.492 124.857 581.189 125.216L580.377 124.586C580.759 124.119 581.184 123.774 581.651 123.55C582.117 123.321 582.675 123.207 583.324 123.207Z" fill="#4D5157" style="fill:#4D5157;fill:color(display-p3 0.3020 0.3176 0.3412);fill-opacity:1;"/>
<mask id="path-24-inside-7_847_2887" fill="white">
<path fill-rule="evenodd" clip-rule="evenodd" d="M701.5 105H822V150H701.5H701V149.969C695.986 149.354 692 139.529 692 127.5C692 115.471 695.986 105.646 701 105.031V105H701.5Z"/>
</mask>
<path fill-rule="evenodd" clip-rule="evenodd" d="M701.5 105H822V150H701.5H701V149.969C695.986 149.354 692 139.529 692 127.5C692 115.471 695.986 105.646 701 105.031V105H701.5Z" fill="#FFDE9D" style="fill:#FFDE9D;fill:color(display-p3 1.0000 0.8706 0.6157);fill-opacity:1;"/>
<path d="M822 105H823V104H822V105ZM822 150V151H823V150H822ZM701 150H700V151H701V150ZM701 149.969H702V149.085L701.122 148.977L701 149.969ZM701 105.031L701.122 106.023L702 105.915V105.031H701ZM701 105V104H700V105H701ZM701.5 106H822V104H701.5V106ZM821 105V150H823V105H821ZM822 149H701.5V151H822V149ZM701.5 149H701V151H701.5V149ZM702 150V149.969H700V150H702ZM701.122 148.977C700.183 148.862 699.198 148.303 698.221 147.22C697.245 146.139 696.331 144.59 695.547 142.642C693.982 138.748 693 133.416 693 127.5H691C691 133.613 692.011 139.208 693.692 143.388C694.532 145.476 695.555 147.251 696.736 148.56C697.916 149.868 699.31 150.769 700.878 150.962L701.122 148.977ZM693 127.5C693 121.584 693.982 116.252 695.547 112.358C696.331 110.41 697.245 108.861 698.221 107.78C699.198 106.697 700.183 106.138 701.122 106.023L700.878 104.038C699.31 104.231 697.916 105.132 696.736 106.44C695.555 107.749 694.532 109.524 693.692 111.612C692.011 115.792 691 121.387 691 127.5H693ZM702 105.031V105H700V105.031H702ZM701 106H701.5V104H701V106Z" fill="#4D5157" style="fill:#4D5157;fill:color(display-p3 0.3020 0.3176 0.3412);fill-opacity:1;" mask="url(#path-24-inside-7_847_2887)"/>
<path d="M830.5 127.5C830.5 133.663 829.444 139.219 827.757 143.215C826.913 145.215 825.92 146.8 824.844 147.879C823.769 148.955 822.64 149.5 821.5 149.5C820.36 149.5 819.231 148.955 818.156 147.879C817.08 146.8 816.087 145.215 815.243 143.215C813.556 139.219 812.5 133.663 812.5 127.5C812.5 121.337 813.556 115.781 815.243 111.785C816.087 109.785 817.08 108.2 818.156 107.121C819.231 106.045 820.36 105.5 821.5 105.5C822.64 105.5 823.769 106.045 824.844 107.121C825.92 108.2 826.913 109.785 827.757 111.785C829.444 115.781 830.5 121.337 830.5 127.5Z" fill="#FFCF72" stroke="#4D5157" style="fill:#FFCF72;fill:color(display-p3 1.0000 0.8118 0.4471);fill-opacity:1;stroke:#4D5157;stroke:color(display-p3 0.3020 0.3176 0.3412);stroke-opacity:1;"/>
<mask id="path-27-inside-8_847_2887" fill="white">
<path fill-rule="evenodd" clip-rule="evenodd" d="M642.5 105H670V150H642.5H642V149.969C636.986 149.354 633 139.529 633 127.5C633 115.471 636.986 105.646 642 105.031V105H642.5Z"/>
</mask>
<path fill-rule="evenodd" clip-rule="evenodd" d="M642.5 105H670V150H642.5H642V149.969C636.986 149.354 633 139.529 633 127.5C633 115.471 636.986 105.646 642 105.031V105H642.5Z" fill="#E2E3E5" style="fill:#E2E3E5;fill:color(display-p3 0.8863 0.8902 0.8980);fill-opacity:1;"/>
<path d="M670 105H671V104H670V105ZM670 150V151H671V150H670ZM642 150H641V151H642V150ZM642 149.969H643V149.085L642.122 148.977L642 149.969ZM642 105.031L642.122 106.023L643 105.915V105.031H642ZM642 105V104H641V105H642ZM642.5 106H670V104H642.5V106ZM669 105V150H671V105H669ZM670 149H642.5V151H670V149ZM642.5 149H642V151H642.5V149ZM643 150V149.969H641V150H643ZM642.122 148.977C641.183 148.862 640.198 148.303 639.221 147.22C638.245 146.139 637.331 144.59 636.547 142.642C634.982 138.748 634 133.416 634 127.5H632C632 133.613 633.011 139.208 634.692 143.388C635.532 145.476 636.555 147.251 637.736 148.56C638.916 149.868 640.31 150.769 641.878 150.962L642.122 148.977ZM634 127.5C634 121.584 634.982 116.252 636.547 112.358C637.331 110.41 638.245 108.861 639.221 107.78C640.198 106.697 641.183 106.138 642.122 106.023L641.878 104.038C640.31 104.231 638.916 105.132 637.736 106.44C636.555 107.749 635.532 109.524 634.692 111.612C633.011 115.792 632 121.387 632 127.5H634ZM643 105.031V105H641V105.031H643ZM642 106H642.5V104H642V106Z" fill="#4D5157" style="fill:#4D5157;fill:color(display-p3 0.3020 0.3176 0.3412);fill-opacity:1;" mask="url(#path-27-inside-8_847_2887)"/>
<path d="M678.5 127.5C678.5 133.663 677.444 139.219 675.757 143.215C674.913 145.215 673.92 146.8 672.844 147.879C671.769 148.955 670.64 149.5 669.5 149.5C668.36 149.5 667.231 148.955 666.156 147.879C665.08 146.8 664.087 145.215 663.243 143.215C661.556 139.219 660.5 133.663 660.5 127.5C660.5 121.337 661.556 115.781 663.243 111.785C664.087 109.785 665.08 108.2 666.156 107.121C667.231 106.045 668.36 105.5 669.5 105.5C670.64 105.5 671.769 106.045 672.844 107.121C673.92 108.2 674.913 109.785 675.757 111.785C677.444 115.781 678.5 121.337 678.5 127.5Z" fill="#CFD1D4" stroke="#4D5157" style="fill:#CFD1D4;fill:color(display-p3 0.8118 0.8196 0.8314);fill-opacity:1;stroke:#4D5157;stroke:color(display-p3 0.3020 0.3176 0.3412);stroke-opacity:1;"/>
<path d="M721.496 126.336C721.496 125.837 721.398 125.442 721.202 125.153C721.006 124.859 720.738 124.649 720.397 124.523C720.056 124.392 719.667 124.327 719.228 124.327H717.835V128.443H719.179C719.632 128.443 720.031 128.382 720.376 128.261C720.721 128.135 720.994 127.92 721.195 127.617C721.396 127.309 721.496 126.882 721.496 126.336ZM722.798 126.322C722.798 127.073 722.637 127.675 722.315 128.128C721.998 128.581 721.559 128.91 720.999 129.115C720.439 129.32 719.795 129.423 719.067 129.423H717.835V133H716.617V123.361H719.081C720.229 123.361 721.134 123.604 721.797 124.089C722.464 124.57 722.798 125.314 722.798 126.322ZM728.533 125.629V132.069H730.612V133H725.082V132.069H727.357V126.56H725.152V125.629H728.533ZM727.595 122.178C727.856 122.178 728.064 122.257 728.218 122.416C728.376 122.575 728.456 122.768 728.456 122.997C728.456 123.235 728.376 123.436 728.218 123.599C728.064 123.758 727.856 123.837 727.595 123.837C727.347 123.837 727.144 123.758 726.986 123.599C726.827 123.436 726.748 123.235 726.748 122.997C726.748 122.768 726.827 122.575 726.986 122.416C727.144 122.257 727.347 122.178 727.595 122.178ZM736.493 125.475C737.146 125.475 737.667 125.634 738.054 125.951C738.446 126.268 738.728 126.716 738.901 127.295C739.074 127.869 739.16 128.541 739.16 129.311C739.16 130.053 739.055 130.716 738.845 131.299C738.64 131.878 738.327 132.333 737.907 132.664C737.487 132.995 736.957 133.161 736.318 133.161C735.511 133.161 734.862 132.876 734.372 132.307V135.821L733.196 135.968V125.629H734.197L734.295 126.658C734.566 126.28 734.888 125.988 735.261 125.783C735.639 125.578 736.05 125.475 736.493 125.475ZM736.213 126.42C735.807 126.42 735.448 126.544 735.135 126.791C734.827 127.034 734.573 127.304 734.372 127.603V131.257C734.563 131.542 734.804 131.768 735.093 131.936C735.387 132.099 735.709 132.181 736.059 132.181C736.67 132.181 737.13 131.948 737.438 131.481C737.746 131.014 737.9 130.289 737.9 129.304C737.9 128.66 737.839 128.126 737.718 127.701C737.597 127.272 737.412 126.952 737.165 126.742C736.918 126.527 736.6 126.42 736.213 126.42ZM742.515 129.731C742.538 130.3 742.648 130.767 742.844 131.131C743.04 131.49 743.299 131.756 743.621 131.929C743.943 132.097 744.293 132.181 744.671 132.181C745.049 132.181 745.389 132.125 745.693 132.013C746.001 131.901 746.316 131.735 746.638 131.516L747.191 132.293C746.845 132.564 746.451 132.776 746.008 132.93C745.569 133.084 745.119 133.161 744.657 133.161C743.943 133.161 743.334 133 742.83 132.678C742.326 132.356 741.941 131.908 741.675 131.334C741.413 130.755 741.283 130.086 741.283 129.325C741.283 128.578 741.416 127.916 741.682 127.337C741.948 126.758 742.321 126.303 742.802 125.972C743.282 125.641 743.849 125.475 744.503 125.475C745.123 125.475 745.658 125.622 746.106 125.916C746.554 126.205 746.897 126.621 747.135 127.162C747.377 127.699 747.499 128.34 747.499 129.087C747.499 129.213 747.496 129.332 747.492 129.444C747.487 129.551 747.48 129.647 747.471 129.731H742.515ZM744.517 126.441C743.971 126.441 743.513 126.635 743.145 127.022C742.781 127.409 742.573 128.009 742.522 128.821H746.365C746.351 128.032 746.178 127.44 745.847 127.043C745.515 126.642 745.072 126.441 744.517 126.441ZM752.855 122.661V131.18C752.855 131.544 752.967 131.803 753.191 131.957C753.42 132.106 753.714 132.181 754.073 132.181C754.297 132.181 754.509 132.158 754.71 132.111C754.911 132.064 755.111 132.001 755.312 131.922L755.627 132.783C755.426 132.881 755.177 132.967 754.878 133.042C754.584 133.121 754.25 133.161 753.877 133.161C753.224 133.161 752.694 132.981 752.288 132.622C751.882 132.258 751.679 131.756 751.679 131.117V123.592H749.418V122.661H752.855ZM762.111 125.629V132.069H764.19V133H758.66V132.069H760.935V126.56H758.73V125.629H762.111ZM761.173 122.178C761.434 122.178 761.642 122.257 761.796 122.416C761.954 122.575 762.034 122.768 762.034 122.997C762.034 123.235 761.954 123.436 761.796 123.599C761.642 123.758 761.434 123.837 761.173 123.837C760.925 123.837 760.722 123.758 760.564 123.599C760.405 123.436 760.326 123.235 760.326 122.997C760.326 122.768 760.405 122.575 760.564 122.416C760.722 122.257 760.925 122.178 761.173 122.178ZM766.774 133V125.629H767.775L767.866 126.651C768.165 126.273 768.538 125.984 768.986 125.783C769.439 125.578 769.878 125.475 770.302 125.475C771.026 125.475 771.551 125.666 771.877 126.049C772.209 126.432 772.374 126.964 772.374 127.645V133H771.198V128.513C771.198 128.009 771.17 127.603 771.114 127.295C771.058 126.982 770.942 126.756 770.764 126.616C770.587 126.471 770.312 126.399 769.938 126.399C769.649 126.399 769.376 126.462 769.119 126.588C768.867 126.714 768.641 126.873 768.44 127.064C768.244 127.251 768.081 127.44 767.95 127.631V133H766.774ZM776.093 129.731C776.116 130.3 776.226 130.767 776.422 131.131C776.618 131.49 776.877 131.756 777.199 131.929C777.521 132.097 777.871 132.181 778.249 132.181C778.627 132.181 778.967 132.125 779.271 132.013C779.579 131.901 779.894 131.735 780.216 131.516L780.769 132.293C780.423 132.564 780.029 132.776 779.586 132.93C779.147 133.084 778.697 133.161 778.235 133.161C777.521 133.161 776.912 133 776.408 132.678C775.904 132.356 775.519 131.908 775.253 131.334C774.991 130.755 774.861 130.086 774.861 129.325C774.861 128.578 774.994 127.916 775.26 127.337C775.526 126.758 775.899 126.303 776.38 125.972C776.86 125.641 777.427 125.475 778.081 125.475C778.701 125.475 779.236 125.622 779.684 125.916C780.132 126.205 780.475 126.621 780.713 127.162C780.955 127.699 781.077 128.34 781.077 129.087C781.077 129.213 781.074 129.332 781.07 129.444C781.065 129.551 781.058 129.647 781.049 129.731H776.093ZM778.095 126.441C777.549 126.441 777.091 126.635 776.723 127.022C776.359 127.409 776.151 128.009 776.1 128.821H779.943C779.929 128.032 779.756 127.44 779.425 127.043C779.093 126.642 778.65 126.441 778.095 126.441ZM794.31 123.207C794.916 123.207 795.439 123.317 795.878 123.536C796.321 123.751 796.664 124.042 796.907 124.411C797.149 124.775 797.271 125.176 797.271 125.615C797.271 126.002 797.184 126.355 797.012 126.672C796.839 126.989 796.61 127.251 796.326 127.456C796.041 127.661 795.728 127.797 795.388 127.862C795.766 127.89 796.12 127.997 796.452 128.184C796.783 128.366 797.054 128.627 797.264 128.968C797.474 129.304 797.579 129.722 797.579 130.221C797.579 130.776 797.439 131.278 797.159 131.726C796.879 132.169 796.487 132.519 795.983 132.776C795.483 133.033 794.9 133.161 794.233 133.161C793.696 133.161 793.159 133.058 792.623 132.853C792.091 132.648 791.64 132.321 791.272 131.873L792.063 131.229C792.338 131.551 792.665 131.791 793.043 131.95C793.425 132.109 793.813 132.188 794.205 132.188C794.877 132.188 795.402 132.013 795.78 131.663C796.158 131.308 796.347 130.828 796.347 130.221C796.347 129.764 796.258 129.402 796.081 129.136C795.908 128.87 795.672 128.681 795.374 128.569C795.075 128.452 794.734 128.394 794.352 128.394H793.54L793.687 127.463H794.254C794.566 127.463 794.86 127.405 795.136 127.288C795.416 127.167 795.644 126.98 795.822 126.728C795.999 126.476 796.088 126.161 796.088 125.783C796.088 125.251 795.91 124.845 795.556 124.565C795.201 124.285 794.772 124.145 794.268 124.145C793.848 124.145 793.481 124.22 793.169 124.369C792.856 124.514 792.541 124.735 792.224 125.034L791.573 124.313C791.983 123.926 792.42 123.646 792.882 123.473C793.344 123.296 793.82 123.207 794.31 123.207Z" fill="#4D5157" style="fill:#4D5157;fill:color(display-p3 0.3020 0.3176 0.3412);fill-opacity:1;"/>
<mask id="path-31-inside-9_847_2887" fill="white">
<path fill-rule="evenodd" clip-rule="evenodd" d="M853.5 105H881V150H853.5H853V149.969C847.986 149.354 844 139.529 844 127.5C844 115.471 847.986 105.646 853 105.031V105H853.5Z"/>
</mask>
<path fill-rule="evenodd" clip-rule="evenodd" d="M853.5 105H881V150H853.5H853V149.969C847.986 149.354 844 139.529 844 127.5C844 115.471 847.986 105.646 853 105.031V105H853.5Z" fill="#E2E3E5" style="fill:#E2E3E5;fill:color(display-p3 0.8863 0.8902 0.8980);fill-opacity:1;"/>
<path d="M881 105H882V104H881V105ZM881 150V151H882V150H881ZM853 150H852V151H853V150ZM853 149.969H854V149.085L853.122 148.977L853 149.969ZM853 105.031L853.122 106.023L854 105.915V105.031H853ZM853 105V104H852V105H853ZM853.5 106H881V104H853.5V106ZM880 105V150H882V105H880ZM881 149H853.5V151H881V149ZM853.5 149H853V151H853.5V149ZM854 150V149.969H852V150H854ZM853.122 148.977C852.183 148.862 851.198 148.303 850.221 147.22C849.245 146.139 848.331 144.59 847.547 142.642C845.982 138.748 845 133.416 845 127.5H843C843 133.613 844.011 139.208 845.692 143.388C846.532 145.476 847.555 147.251 848.736 148.56C849.916 149.868 851.31 150.769 852.878 150.962L853.122 148.977ZM845 127.5C845 121.584 845.982 116.252 847.547 112.358C848.331 110.41 849.245 108.861 850.221 107.78C851.198 106.697 852.183 106.138 853.122 106.023L852.878 104.038C851.31 104.231 849.916 105.132 848.736 106.44C847.555 107.749 846.532 109.524 845.692 111.612C844.011 115.792 843 121.387 843 127.5H845ZM854 105.031V105H852V105.031H854ZM853 106H853.5V104H853V106Z" fill="#4D5157" style="fill:#4D5157;fill:color(display-p3 0.3020 0.3176 0.3412);fill-opacity:1;" mask="url(#path-31-inside-9_847_2887)"/>
<path d="M889.5 127.5C889.5 133.663 888.444 139.219 886.757 143.215C885.913 145.215 884.92 146.8 883.844 147.879C882.769 148.955 881.64 149.5 880.5 149.5C879.36 149.5 878.231 148.955 877.156 147.879C876.08 146.8 875.087 145.215 874.243 143.215C872.556 139.219 871.5 133.663 871.5 127.5C871.5 121.337 872.556 115.781 874.243 111.785C875.087 109.785 876.08 108.2 877.156 107.121C878.231 106.045 879.36 105.5 880.5 105.5C881.64 105.5 882.769 106.045 883.844 107.121C884.92 108.2 885.913 109.785 886.757 111.785C888.444 115.781 889.5 121.337 889.5 127.5Z" fill="#CFD1D4" stroke="#4D5157" style="fill:#CFD1D4;fill:color(display-p3 0.8118 0.8196 0.8314);fill-opacity:1;stroke:#4D5157;stroke:color(display-p3 0.3020 0.3176 0.3412);stroke-opacity:1;"/>
<path d="M260 127C259.724 127 259.5 127.224 259.5 127.5C259.5 127.776 259.724 128 260 128V127ZM267.354 127.854C267.549 127.658 267.549 127.342 267.354 127.146L264.172 123.964C263.976 123.769 263.66 123.769 263.464 123.964C263.269 124.16 263.269 124.476 263.464 124.672L266.293 127.5L263.464 130.328C263.269 130.524 263.269 130.84 263.464 131.036C263.66 131.231 263.976 131.231 264.172 131.036L267.354 127.854ZM260 128H267V127H260V128Z" fill="#4D5157" style="fill:#4D5157;fill:color(display-p3 0.3020 0.3176 0.3412);fill-opacity:1;"/>
<path d="M49 127C48.7239 127 48.5 127.224 48.5 127.5C48.5 127.776 48.7239 128 49 128V127ZM56.3536 127.854C56.5488 127.658 56.5488 127.342 56.3536 127.146L53.1716 123.964C52.9763 123.769 52.6597 123.769 52.4645 123.964C52.2692 124.16 52.2692 124.476 52.4645 124.672L55.2929 127.5L52.4645 130.328C52.2692 130.524 52.2692 130.84 52.4645 131.036C52.6597 131.231 52.9763 131.231 53.1716 131.036L56.3536 127.854ZM49 128H56V127H49V128Z" fill="#4D5157" style="fill:#4D5157;fill:color(display-p3 0.3020 0.3176 0.3412);fill-opacity:1;"/>
<path d="M201 127C200.724 127 200.5 127.224 200.5 127.5C200.5 127.776 200.724 128 201 128V127ZM208.354 127.854C208.549 127.658 208.549 127.342 208.354 127.146L205.172 123.964C204.976 123.769 204.66 123.769 204.464 123.964C204.269 124.16 204.269 124.476 204.464 124.672L207.293 127.5L204.464 130.328C204.269 130.524 204.269 130.84 204.464 131.036C204.66 131.231 204.976 131.231 205.172 131.036L208.354 127.854ZM201 128H208V127H201V128Z" fill="#4D5157" style="fill:#4D5157;fill:color(display-p3 0.3020 0.3176 0.3412);fill-opacity:1;"/>
<path d="M412 127C411.724 127 411.5 127.224 411.5 127.5C411.5 127.776 411.724 128 412 128V127ZM419.354 127.854C419.549 127.658 419.549 127.342 419.354 127.146L416.172 123.964C415.976 123.769 415.66 123.769 415.464 123.964C415.269 124.16 415.269 124.476 415.464 124.672L418.293 127.5L415.464 130.328C415.269 130.524 415.269 130.84 415.464 131.036C415.66 131.231 415.976 131.231 416.172 131.036L419.354 127.854ZM412 128H419V127H412V128Z" fill="#4D5157" style="fill:#4D5157;fill:color(display-p3 0.3020 0.3176 0.3412);fill-opacity:1;"/>
<path d="M471 127C470.724 127 470.5 127.224 470.5 127.5C470.5 127.776 470.724 128 471 128V127ZM478.354 127.854C478.549 127.658 478.549 127.342 478.354 127.146L475.172 123.964C474.976 123.769 474.66 123.769 474.464 123.964C474.269 124.16 474.269 124.476 474.464 124.672L477.293 127.5L474.464 130.328C474.269 130.524 474.269 130.84 474.464 131.036C474.66 131.231 474.976 131.231 475.172 131.036L478.354 127.854ZM471 128H478V127H471V128Z" fill="#4D5157" style="fill:#4D5157;fill:color(display-p3 0.3020 0.3176 0.3412);fill-opacity:1;"/>
<path d="M623 127C622.724 127 622.5 127.224 622.5 127.5C622.5 127.776 622.724 128 623 128V127ZM630.354 127.854C630.549 127.658 630.549 127.342 630.354 127.146L627.172 123.964C626.976 123.769 626.66 123.769 626.464 123.964C626.269 124.16 626.269 124.476 626.464 124.672L629.293 127.5L626.464 130.328C626.269 130.524 626.269 130.84 626.464 131.036C626.66 131.231 626.976 131.231 627.172 131.036L630.354 127.854ZM623 128H630V127H623V128Z" fill="#4D5157" style="fill:#4D5157;fill:color(display-p3 0.3020 0.3176 0.3412);fill-opacity:1;"/>
<path d="M682 127C681.724 127 681.5 127.224 681.5 127.5C681.5 127.776 681.724 128 682 128V127ZM689.354 127.854C689.549 127.658 689.549 127.342 689.354 127.146L686.172 123.964C685.976 123.769 685.66 123.769 685.464 123.964C685.269 124.16 685.269 124.476 685.464 124.672L688.293 127.5L685.464 130.328C685.269 130.524 685.269 130.84 685.464 131.036C685.66 131.231 685.976 131.231 686.172 131.036L689.354 127.854ZM682 128H689V127H682V128Z" fill="#4D5157" style="fill:#4D5157;fill:color(display-p3 0.3020 0.3176 0.3412);fill-opacity:1;"/>
<path d="M834 127C833.724 127 833.5 127.224 833.5 127.5C833.5 127.776 833.724 128 834 128V127ZM841.354 127.854C841.549 127.658 841.549 127.342 841.354 127.146L838.172 123.964C837.976 123.769 837.66 123.769 837.464 123.964C837.269 124.16 837.269 124.476 837.464 124.672L840.293 127.5L837.464 130.328C837.269 130.524 837.269 130.84 837.464 131.036C837.66 131.231 837.976 131.231 838.172 131.036L841.354 127.854ZM834 128H841V127H834V128Z" fill="#4D5157" style="fill:#4D5157;fill:color(display-p3 0.3020 0.3176 0.3412);fill-opacity:1;"/>
<rect x="36.5" y="105.5" width="10" height="10" fill="#FFB422" stroke="#4D5157" style="fill:#FFB422;fill:color(display-p3 1.0000 0.7059 0.1333);fill-opacity:1;stroke:#4D5157;stroke:color(display-p3 0.3020 0.3176 0.3412);stroke-opacity:1;"/>
<rect x="187.5" y="105.5" width="10" height="10" fill="#FFB422" stroke="#4D5157" style="fill:#FFB422;fill:color(display-p3 1.0000 0.7059 0.1333);fill-opacity:1;stroke:#4D5157;stroke:color(display-p3 0.3020 0.3176 0.3412);stroke-opacity:1;"/>
<rect x="248.5" y="105.5" width="10" height="10" fill="#FFB422" stroke="#4D5157" style="fill:#FFB422;fill:color(display-p3 1.0000 0.7059 0.1333);fill-opacity:1;stroke:#4D5157;stroke:color(display-p3 0.3020 0.3176 0.3412);stroke-opacity:1;"/>
<rect x="398.5" y="105.5" width="10" height="10" fill="#FFB422" stroke="#4D5157" style="fill:#FFB422;fill:color(display-p3 1.0000 0.7059 0.1333);fill-opacity:1;stroke:#4D5157;stroke:color(display-p3 0.3020 0.3176 0.3412);stroke-opacity:1;"/>
<rect x="457.5" y="105.5" width="10" height="10" fill="#FFB422" stroke="#4D5157" style="fill:#FFB422;fill:color(display-p3 1.0000 0.7059 0.1333);fill-opacity:1;stroke:#4D5157;stroke:color(display-p3 0.3020 0.3176 0.3412);stroke-opacity:1;"/>
<rect x="609.5" y="105.5" width="10" height="10" fill="#FFB422" stroke="#4D5157" style="fill:#FFB422;fill:color(display-p3 1.0000 0.7059 0.1333);fill-opacity:1;stroke:#4D5157;stroke:color(display-p3 0.3020 0.3176 0.3412);stroke-opacity:1;"/>
<rect x="670.5" y="105.5" width="10" height="10" fill="#FFB422" stroke="#4D5157" style="fill:#FFB422;fill:color(display-p3 1.0000 0.7059 0.1333);fill-opacity:1;stroke:#4D5157;stroke:color(display-p3 0.3020 0.3176 0.3412);stroke-opacity:1;"/>
<rect x="820.5" y="105.5" width="10" height="10" fill="#FFB422" stroke="#4D5157" style="fill:#FFB422;fill:color(display-p3 1.0000 0.7059 0.1333);fill-opacity:1;stroke:#4D5157;stroke:color(display-p3 0.3020 0.3176 0.3412);stroke-opacity:1;"/>
<path d="M463 27C463 26.7239 462.776 26.5 462.5 26.5C462.224 26.5 462 26.7239 462 27H463ZM39.2799 97C39.0038 97 38.8085 97.3382 38.9466 97.5774L41.1667 101.423C41.3047 101.662 41.6953 101.662 41.8333 101.423L44.0534 97.5774C44.1915 97.3382 43.9962 97 43.7201 97H39.2799ZM462 27V40.5H463V27H462ZM438.5 64H65.5V65H438.5V64ZM41 88.5V97.5H42V88.5H41ZM65.5 64C51.969 64 41 74.969 41 88.5H42C42 75.5213 52.5213 65 65.5 65V64ZM462 40.5C462 53.4787 451.479 64 438.5 64V65C452.031 65 463 54.031 463 40.5H462Z" fill="#4D5157" style="fill:#4D5157;fill:color(display-p3 0.3020 0.3176 0.3412);fill-opacity:1;"/>
<path d="M463 27C463 26.7239 462.776 26.5 462.5 26.5C462.224 26.5 462 26.7239 462 27H463ZM190.28 97C190.004 97 189.809 97.3382 189.947 97.5774L192.167 101.423C192.305 101.662 192.695 101.662 192.833 101.423L195.053 97.5774C195.191 97.3382 194.996 97 194.72 97H190.28ZM462 27V40.5H463V27H462ZM438.5 64H216.5V65H438.5V64ZM192 88.5V97.5H193V88.5H192ZM216.5 64C202.969 64 192 74.969 192 88.5H193C193 75.5213 203.521 65 216.5 65V64ZM462 40.5C462 53.4787 451.479 64 438.5 64V65C452.031 65 463 54.031 463 40.5H462Z" fill="#4D5157" style="fill:#4D5157;fill:color(display-p3 0.3020 0.3176 0.3412);fill-opacity:1;"/>
<path d="M463 27C463 26.7239 462.776 26.5 462.5 26.5C462.224 26.5 462 26.7239 462 27H463ZM251.28 97C251.004 97 250.809 97.3382 250.947 97.5774L253.167 101.423C253.305 101.662 253.695 101.662 253.833 101.423L256.053 97.5774C256.191 97.3382 255.996 97 255.72 97H251.28ZM462 27V40.5H463V27H462ZM438.5 64H277.5V65H438.5V64ZM253 88.5V97.5H254V88.5H253ZM277.5 64C263.969 64 253 74.969 253 88.5H254C254 75.5213 264.521 65 277.5 65V64ZM462 40.5C462 53.4787 451.479 64 438.5 64V65C452.031 65 463 54.031 463 40.5H462Z" fill="#4D5157" style="fill:#4D5157;fill:color(display-p3 0.3020 0.3176 0.3412);fill-opacity:1;"/>
<path d="M463 27C463 26.7239 462.776 26.5 462.5 26.5C462.224 26.5 462 26.7239 462 27H463ZM401.28 97C401.004 97 400.809 97.3382 400.947 97.5774L403.167 101.423C403.305 101.662 403.695 101.662 403.833 101.423L406.053 97.5774C406.191 97.3382 405.996 97 405.72 97H401.28ZM462 27V40.5H463V27H462ZM438.5 64H427.5V65H438.5V64ZM403 88.5V97.5H404V88.5H403ZM427.5 64C413.969 64 403 74.969 403 88.5H404C404 75.5213 414.521 65 427.5 65V64ZM462 40.5C462 53.4787 451.479 64 438.5 64V65C452.031 65 463 54.031 463 40.5H462Z" fill="#4D5157" style="fill:#4D5157;fill:color(display-p3 0.3020 0.3176 0.3412);fill-opacity:1;"/>
<path d="M463 27C463 26.7239 462.776 26.5 462.5 26.5C462.224 26.5 462 26.7239 462 27H463ZM460.28 97C460.004 97 459.809 97.3382 459.947 97.5774L462.167 101.423C462.305 101.662 462.695 101.662 462.833 101.423L465.053 97.5774C465.191 97.3382 464.996 97 464.72 97H460.28ZM462 27V97.5H463V27H462Z" fill="#4D5157" style="fill:#4D5157;fill:color(display-p3 0.3020 0.3176 0.3412);fill-opacity:1;"/>
<path d="M440.5 228C440.5 228.276 440.724 228.5 441 228.5C441.276 228.5 441.5 228.276 441.5 228H440.5ZM443.22 158C443.496 158 443.691 157.662 443.553 157.423L441.333 153.577C441.195 153.338 440.805 153.338 440.667 153.577L438.447 157.423C438.309 157.662 438.504 158 438.78 158H443.22ZM441.5 228V157.5H440.5V228H441.5Z" fill="#4D5157" style="fill:#4D5157;fill:color(display-p3 0.3020 0.3176 0.3412);fill-opacity:1;"/>
<path d="M440.5 228C440.5 228.276 440.724 228.5 441 228.5C441.276 228.5 441.5 228.276 441.5 228H440.5ZM653.72 158C653.996 158 654.191 157.662 654.053 157.423L651.833 153.577C651.695 153.338 651.305 153.338 651.167 153.577L648.947 157.423C648.809 157.662 649.004 158 649.28 158H653.72ZM441.5 228V214.5H440.5V228H441.5ZM465 191H627.5V190H465V191ZM652 166.5V157.5H651V166.5H652ZM627.5 191C641.031 191 652 180.031 652 166.5H651C651 179.479 640.479 190 627.5 190V191ZM441.5 214.5C441.5 201.521 452.021 191 465 191V190C451.469 190 440.5 200.969 440.5 214.5H441.5Z" fill="#4D5157" style="fill:#4D5157;fill:color(display-p3 0.3020 0.3176 0.3412);fill-opacity:1;"/>
<path d="M440.5 228C440.5 228.276 440.724 228.5 441 228.5C441.276 228.5 441.5 228.276 441.5 228H440.5ZM864.72 158C864.996 158 865.191 157.662 865.053 157.423L862.833 153.577C862.695 153.338 862.305 153.338 862.167 153.577L859.947 157.423C859.809 157.662 860.004 158 860.28 158H864.72ZM441.5 228V214.5H440.5V228H441.5ZM465 191H838.5V190H465V191ZM863 166.5V157.5H862V166.5H863ZM838.5 191C852.031 191 863 180.031 863 166.5H862C862 179.479 851.479 190 838.5 190V191ZM441.5 214.5C441.5 201.521 452.021 191 465 191V190C451.469 190 440.5 200.969 440.5 214.5H441.5Z" fill="#4D5157" style="fill:#4D5157;fill:color(display-p3 0.3020 0.3176 0.3412);fill-opacity:1;"/>
<path d="M440.5 228C440.5 228.276 440.724 228.5 441 228.5C441.276 228.5 441.5 228.276 441.5 228H440.5ZM231.72 158C231.996 158 232.191 157.662 232.053 157.423L229.833 153.577C229.695 153.338 229.305 153.338 229.167 153.577L226.947 157.423C226.809 157.662 227.004 158 227.28 158H231.72ZM441.5 228V214.5H440.5V228H441.5ZM417 190H253.5V191H417V190ZM230 166.5V157.5H229V166.5H230ZM253.5 190C240.521 190 230 179.479 230 166.5H229C229 180.031 239.969 191 253.5 191V190ZM441.5 214.5C441.5 200.969 430.531 190 417 190V191C429.979 191 440.5 201.521 440.5 214.5H441.5Z" fill="#4D5157" style="fill:#4D5157;fill:color(display-p3 0.3020 0.3176 0.3412);fill-opacity:1;"/>
<path d="M440.5 228C440.5 228.276 440.724 228.5 441 228.5C441.276 228.5 441.5 228.276 441.5 228H440.5ZM20.7201 158C20.9962 158 21.1915 157.662 21.0534 157.423L18.8333 153.577C18.6953 153.338 18.3047 153.338 18.1667 153.577L15.9466 157.423C15.8085 157.662 16.0038 158 16.2799 158H20.7201ZM441.5 228V214.5H440.5V228H441.5ZM417 190H42.5V191H417V190ZM19 166.5V157.5H18V166.5H19ZM42.5 190C29.5213 190 19 179.479 19 166.5H18C18 180.031 28.969 191 42.5 191V190ZM441.5 214.5C441.5 200.969 430.531 190 417 190V191C429.979 191 440.5 201.521 440.5 214.5H441.5Z" fill="#4D5157" style="fill:#4D5157;fill:color(display-p3 0.3020 0.3176 0.3412);fill-opacity:1;"/>
<path d="M463 27C463 26.7239 462.776 26.5 462.5 26.5C462.224 26.5 462 26.7239 462 27H463ZM612.28 97C612.004 97 611.809 97.3382 611.947 97.5774L614.167 101.423C614.305 101.662 614.695 101.662 614.833 101.423L617.053 97.5774C617.191 97.3382 616.996 97 616.72 97H612.28ZM462 27V40.5H463V27H462ZM486.5 65H590.5V64H486.5V65ZM614 88.5V97.5H615V88.5H614ZM590.5 65C603.479 65 614 75.5213 614 88.5H615C615 74.969 604.031 64 590.5 64V65ZM462 40.5C462 54.031 472.969 65 486.5 65V64C473.521 64 463 53.4787 463 40.5H462Z" fill="#4D5157" style="fill:#4D5157;fill:color(display-p3 0.3020 0.3176 0.3412);fill-opacity:1;"/>
<path d="M463 27C463 26.7239 462.776 26.5 462.5 26.5C462.224 26.5 462 26.7239 462 27H463ZM673.28 97C673.004 97 672.809 97.3382 672.947 97.5774L675.167 101.423C675.305 101.662 675.695 101.662 675.833 101.423L678.053 97.5774C678.191 97.3382 677.996 97 677.72 97H673.28ZM462 27V40.5H463V27H462ZM486.5 65H651.5V64H486.5V65ZM675 88.5V97.5H676V88.5H675ZM651.5 65C664.479 65 675 75.5213 675 88.5H676C676 74.969 665.031 64 651.5 64V65ZM462 40.5C462 54.031 472.969 65 486.5 65V64C473.521 64 463 53.4787 463 40.5H462Z" fill="#4D5157" style="fill:#4D5157;fill:color(display-p3 0.3020 0.3176 0.3412);fill-opacity:1;"/>
<path d="M463 27C463 26.7239 462.776 26.5 462.5 26.5C462.224 26.5 462 26.7239 462 27H463ZM823.28 97C823.004 97 822.809 97.3382 822.947 97.5774L825.167 101.423C825.305 101.662 825.695 101.662 825.833 101.423L828.053 97.5774C828.191 97.3382 827.996 97 827.72 97H823.28ZM462 27V40.5H463V27H462ZM486.5 65H801.5V64H486.5V65ZM825 88.5V97.5H826V88.5H825ZM801.5 65C814.479 65 825 75.5213 825 88.5H826C826 74.969 815.031 64 801.5 64V65ZM462 40.5C462 54.031 472.969 65 486.5 65V64C473.521 64 463 53.4787 463 40.5H462Z" fill="#4D5157" style="fill:#4D5157;fill:color(display-p3 0.3020 0.3176 0.3412);fill-opacity:1;"/>
</svg>
