<svg width="677" height="268" viewBox="0 0 677 268" fill="none" xmlns="http://www.w3.org/2000/svg">
<path d="M0 144C0 108.654 28.6538 80 64 80V80C99.3462 80 128 108.654 128 144V144C128 179.346 99.3462 208 64 208V208C28.6538 208 0 179.346 0 144V144Z" fill="#ECB4C9" style="fill:#ECB4C9;fill:color(display-p3 0.9255 0.7059 0.7882);fill-opacity:1;"/>
<path d="M44.6651 149V138.878H48.0881C48.8115 138.878 49.4555 138.999 50.0201 139.242C50.5848 139.485 51.0281 139.844 51.3501 140.32C51.6768 140.796 51.8401 141.382 51.8401 142.077C51.8401 142.749 51.6885 143.323 51.3851 143.799C51.0865 144.275 50.6688 144.637 50.1321 144.884C49.5955 145.131 48.9725 145.255 48.2631 145.255H45.9951V149H44.6651ZM45.9881 144.163H48.2351C48.9305 144.163 49.4951 143.969 49.9291 143.582C50.3631 143.195 50.5801 142.667 50.5801 142C50.5801 141.328 50.3561 140.819 49.9081 140.474C49.4601 140.129 48.8815 139.956 48.1721 139.956H45.9881V144.163ZM55.1402 149.091C54.7482 149.091 54.4309 149.037 54.1882 148.93C53.9502 148.823 53.7659 148.678 53.6352 148.496C53.5092 148.314 53.4229 148.106 53.3762 147.873C53.3342 147.635 53.3132 147.39 53.3132 147.138V138.598H54.5872V147.012C54.5872 147.376 54.6572 147.649 54.7972 147.831C54.9419 148.013 55.1425 148.113 55.3992 148.132L55.7912 148.139V148.979C55.6839 149.012 55.5719 149.037 55.4552 149.056C55.3385 149.079 55.2335 149.091 55.1402 149.091ZM59.5131 149.14C59.0418 149.14 58.6264 149.058 58.2671 148.895C57.9124 148.727 57.6324 148.487 57.4271 148.174C57.2264 147.861 57.1261 147.483 57.1261 147.04C57.1261 146.237 57.4061 145.64 57.9661 145.248C58.5261 144.856 59.4244 144.646 60.6611 144.618L61.9491 144.583V144.016C61.9491 143.573 61.8161 143.223 61.5501 142.966C61.2841 142.705 60.8734 142.574 60.3181 142.574C59.9028 142.579 59.5364 142.677 59.2191 142.868C58.9018 143.059 58.6988 143.372 58.6101 143.806H57.4691C57.4971 143.335 57.6278 142.938 57.8611 142.616C58.0991 142.289 58.4328 142.042 58.8621 141.874C59.2914 141.706 59.7978 141.622 60.3811 141.622C61.0111 141.622 61.5338 141.711 61.9491 141.888C62.3691 142.065 62.6818 142.327 62.8871 142.672C63.0971 143.017 63.2021 143.442 63.2021 143.946V149H62.0961L61.9981 147.642C61.7228 148.207 61.3681 148.599 60.9341 148.818C60.5048 149.033 60.0311 149.14 59.5131 149.14ZM59.8981 148.209C60.1454 148.209 60.3881 148.165 60.6261 148.076C60.8688 147.987 61.0881 147.868 61.2841 147.719C61.4848 147.565 61.6458 147.395 61.7671 147.208C61.8884 147.017 61.9491 146.821 61.9491 146.62V145.381L60.8781 145.402C60.3228 145.411 59.8608 145.467 59.4921 145.57C59.1234 145.673 58.8458 145.834 58.6591 146.053C58.4724 146.272 58.3791 146.559 58.3791 146.914C58.3791 147.32 58.5214 147.637 58.8061 147.866C59.0908 148.095 59.4548 148.209 59.8981 148.209ZM65.71 151.31C65.2853 151.31 64.9936 151.28 64.835 151.219C64.6763 151.158 64.597 151.128 64.597 151.128V150.288L65.339 150.302C65.605 150.311 65.8266 150.293 66.004 150.246C66.1813 150.199 66.3236 150.136 66.431 150.057C66.5383 149.978 66.62 149.889 66.676 149.791C66.7366 149.693 66.7856 149.6 66.823 149.511L67.075 148.825L64.247 141.762H65.556L67.691 147.348L69.812 141.762H71.079L68.034 149.546C67.8426 150.003 67.6303 150.36 67.397 150.617C67.1683 150.874 66.9116 151.053 66.627 151.156C66.347 151.259 66.0413 151.31 65.71 151.31ZM75.4034 149.14C74.7314 149.14 74.1388 148.993 73.6254 148.699C73.1121 148.405 72.7108 147.983 72.4214 147.432C72.1321 146.881 71.9874 146.221 71.9874 145.451C71.9874 144.69 72.1181 144.023 72.3794 143.449C72.6408 142.875 73.0188 142.427 73.5134 142.105C74.0128 141.783 74.6124 141.622 75.3124 141.622C75.9938 141.622 76.5701 141.769 77.0414 142.063C77.5128 142.357 77.8698 142.772 78.1124 143.309C78.3598 143.841 78.4834 144.473 78.4834 145.206V145.682H73.2964C73.2964 146.139 73.3711 146.555 73.5204 146.928C73.6744 147.297 73.9054 147.591 74.2134 147.81C74.5214 148.029 74.9111 148.139 75.3824 148.139C75.8444 148.139 76.2411 148.032 76.5724 147.817C76.9084 147.602 77.1231 147.292 77.2164 146.886H78.4344C78.3504 147.376 78.1544 147.789 77.8464 148.125C77.5431 148.461 77.1768 148.715 76.7474 148.888C76.3228 149.056 75.8748 149.14 75.4034 149.14ZM73.3034 144.807H77.2374C77.2374 144.392 77.1674 144.018 77.0274 143.687C76.8874 143.351 76.6728 143.087 76.3834 142.896C76.0988 142.7 75.7394 142.602 75.3054 142.602C74.8528 142.602 74.4771 142.712 74.1784 142.931C73.8798 143.146 73.6581 143.423 73.5134 143.764C73.3688 144.1 73.2988 144.448 73.3034 144.807ZM80.2741 149V141.762H81.5061V143.155C81.6275 142.81 81.7978 142.525 82.0171 142.301C82.2365 142.072 82.4861 141.902 82.7661 141.79C83.0508 141.678 83.3448 141.622 83.6481 141.622C83.7555 141.622 83.8605 141.629 83.9631 141.643C84.0658 141.657 84.1451 141.68 84.2011 141.713V142.966C84.1311 142.933 84.0401 142.912 83.9281 142.903C83.8208 142.889 83.7298 142.882 83.6551 142.882C83.3658 142.863 83.0951 142.882 82.8431 142.938C82.5911 142.989 82.3695 143.08 82.1781 143.211C81.9868 143.342 81.8351 143.514 81.7231 143.729C81.6158 143.939 81.5621 144.196 81.5621 144.499V149H80.2741Z" fill="#1A1B1D" style="fill:#1A1B1D;fill:color(display-p3 0.1020 0.1059 0.1137);fill-opacity:1;"/>
<path d="M376 144C376 108.654 404.654 80 440 80V80C475.346 80 504 108.654 504 144V144C504 179.346 475.346 208 440 208V208C404.654 208 376 179.346 376 144V144Z" fill="#579380" style="fill:#579380;fill:color(display-p3 0.3412 0.5765 0.5020);fill-opacity:1;"/>
<path d="M426.07 149V140.068H422.801V138.878H430.459V140.068H427.372V149H426.07ZM433.951 149.14C433.279 149.14 432.687 148.993 432.173 148.699C431.66 148.405 431.259 147.983 430.969 147.432C430.68 146.881 430.535 146.221 430.535 145.451C430.535 144.69 430.666 144.023 430.927 143.449C431.189 142.875 431.567 142.427 432.061 142.105C432.561 141.783 433.16 141.622 433.86 141.622C434.542 141.622 435.118 141.769 435.589 142.063C436.061 142.357 436.418 142.772 436.66 143.309C436.908 143.841 437.031 144.473 437.031 145.206V145.682H431.844C431.844 146.139 431.919 146.555 432.068 146.928C432.222 147.297 432.453 147.591 432.761 147.81C433.069 148.029 433.459 148.139 433.93 148.139C434.392 148.139 434.789 148.032 435.12 147.817C435.456 147.602 435.671 147.292 435.764 146.886H436.982C436.898 147.376 436.702 147.789 436.394 148.125C436.091 148.461 435.725 148.715 435.295 148.888C434.871 149.056 434.423 149.14 433.951 149.14ZM431.851 144.807H435.785C435.785 144.392 435.715 144.018 435.575 143.687C435.435 143.351 435.221 143.087 434.931 142.896C434.647 142.7 434.287 142.602 433.853 142.602C433.401 142.602 433.025 142.712 432.726 142.931C432.428 143.146 432.206 143.423 432.061 143.764C431.917 144.1 431.847 144.448 431.851 144.807ZM440.77 149.14C440.299 149.14 439.883 149.058 439.524 148.895C439.169 148.727 438.889 148.487 438.684 148.174C438.483 147.861 438.383 147.483 438.383 147.04C438.383 146.237 438.663 145.64 439.223 145.248C439.783 144.856 440.681 144.646 441.918 144.618L443.206 144.583V144.016C443.206 143.573 443.073 143.223 442.807 142.966C442.541 142.705 442.13 142.574 441.575 142.574C441.16 142.579 440.793 142.677 440.476 142.868C440.159 143.059 439.956 143.372 439.867 143.806H438.726C438.754 143.335 438.885 142.938 439.118 142.616C439.356 142.289 439.69 142.042 440.119 141.874C440.548 141.706 441.055 141.622 441.638 141.622C442.268 141.622 442.791 141.711 443.206 141.888C443.626 142.065 443.939 142.327 444.144 142.672C444.354 143.017 444.459 143.442 444.459 143.946V149H443.353L443.255 147.642C442.98 148.207 442.625 148.599 442.191 148.818C441.762 149.033 441.288 149.14 440.77 149.14ZM441.155 148.209C441.402 148.209 441.645 148.165 441.883 148.076C442.126 147.987 442.345 147.868 442.541 147.719C442.742 147.565 442.903 147.395 443.024 147.208C443.145 147.017 443.206 146.821 443.206 146.62V145.381L442.135 145.402C441.58 145.411 441.118 145.467 440.749 145.57C440.38 145.673 440.103 145.834 439.916 146.053C439.729 146.272 439.636 146.559 439.636 146.914C439.636 147.32 439.778 147.637 440.063 147.866C440.348 148.095 440.712 148.209 441.155 148.209ZM446.478 149V141.762H447.724V142.812C447.925 142.495 448.2 142.217 448.55 141.979C448.9 141.741 449.355 141.622 449.915 141.622C450.177 141.622 450.443 141.666 450.713 141.755C450.989 141.844 451.241 141.977 451.469 142.154C451.698 142.331 451.875 142.548 452.001 142.805C452.225 142.45 452.529 142.166 452.911 141.951C453.294 141.732 453.726 141.622 454.206 141.622C454.458 141.622 454.722 141.662 454.997 141.741C455.273 141.816 455.527 141.951 455.76 142.147C455.998 142.338 456.192 142.607 456.341 142.952C456.491 143.293 456.565 143.731 456.565 144.268V149H455.263V144.394C455.263 143.955 455.193 143.617 455.053 143.379C454.913 143.136 454.729 142.966 454.5 142.868C454.276 142.77 454.036 142.721 453.779 142.721C453.555 142.721 453.317 142.765 453.065 142.854C452.813 142.943 452.599 143.092 452.421 143.302C452.244 143.512 452.155 143.799 452.155 144.163V149H450.867V144.016C450.867 143.731 450.79 143.493 450.636 143.302C450.487 143.111 450.298 142.966 450.069 142.868C449.845 142.77 449.621 142.721 449.397 142.721C449.15 142.721 448.9 142.77 448.648 142.868C448.401 142.966 448.191 143.122 448.018 143.337C447.85 143.547 447.766 143.822 447.766 144.163V149H446.478Z" fill="white" style="fill:white;fill-opacity:1;"/>
<path d="M439 76.5C439 77.0523 439.448 77.5 440 77.5C440.552 77.5 441 77.0523 441 76.5H439ZM487.5 33C488.052 33 488.5 32.5523 488.5 32C488.5 31.4477 488.052 31 487.5 31V33ZM628.5 31C627.948 31 627.5 31.4477 627.5 32C627.5 32.5523 627.948 33 628.5 33V31ZM506.793 143.293C506.402 143.683 506.402 144.317 506.793 144.707L513.157 151.071C513.547 151.462 514.181 151.462 514.571 151.071C514.962 150.681 514.962 150.047 514.571 149.657L508.914 144L514.571 138.343C514.962 137.953 514.962 137.319 514.571 136.929C514.181 136.538 513.547 136.538 513.157 136.929L506.793 143.293ZM441 76.5V56H439V76.5H441ZM464 33H487.5V31H464V33ZM628.5 33H652V31H628.5V33ZM675 56V120H677V56H675ZM652 143H507.5V145H652V143ZM675 120C675 132.703 664.703 143 652 143V145C665.807 145 677 133.807 677 120H675ZM652 33C664.703 33 675 43.2975 675 56H677C677 42.1929 665.807 31 652 31V33ZM441 56C441 43.2975 451.297 33 464 33V31C450.193 31 439 42.1929 439 56H441Z" fill="#4D5157" style="fill:#4D5157;fill:color(display-p3 0.3020 0.3176 0.3412);fill-opacity:1;"/>
<path d="M545.783 20.1818C545.783 21.4242 545.556 22.4924 545.101 23.3864C544.647 24.2765 544.024 24.9621 543.232 25.4432C542.444 25.9205 541.548 26.1591 540.545 26.1591C539.537 26.1591 538.637 25.9205 537.846 25.4432C537.058 24.9621 536.437 24.2746 535.982 23.3807C535.527 22.4867 535.3 21.4205 535.3 20.1818C535.3 18.9394 535.527 17.8731 535.982 16.983C536.437 16.089 537.058 15.4034 537.846 14.9261C538.637 14.4451 539.537 14.2045 540.545 14.2045C541.548 14.2045 542.444 14.4451 543.232 14.9261C544.024 15.4034 544.647 16.089 545.101 16.983C545.556 17.8731 545.783 18.9394 545.783 20.1818ZM544.045 20.1818C544.045 19.2348 543.891 18.4375 543.584 17.7898C543.281 17.1383 542.865 16.6458 542.334 16.3125C541.808 15.9754 541.211 15.8068 540.545 15.8068C539.874 15.8068 539.276 15.9754 538.749 16.3125C538.223 16.6458 537.806 17.1383 537.499 17.7898C537.196 18.4375 537.045 19.2348 537.045 20.1818C537.045 21.1288 537.196 21.928 537.499 22.5795C537.806 23.2273 538.223 23.7197 538.749 24.0568C539.276 24.3902 539.874 24.5568 540.545 24.5568C541.211 24.5568 541.808 24.3902 542.334 24.0568C542.865 23.7197 543.281 23.2273 543.584 22.5795C543.891 21.928 544.045 21.1288 544.045 20.1818ZM549.934 26L546.707 14.3636H548.553L550.82 23.375H550.928L553.286 14.3636H555.116L557.474 23.3807H557.582L559.843 14.3636H561.695L558.462 26H556.695L554.246 17.2841H554.155L551.707 26H549.934ZM563.12 26V14.3636H570.416V15.875H564.876V19.4205H570.035V20.9261H564.876V24.4886H570.484V26H563.12ZM578.931 17.4205C578.871 16.8826 578.621 16.4659 578.181 16.1705C577.742 15.8712 577.189 15.7216 576.522 15.7216C576.045 15.7216 575.632 15.7973 575.284 15.9489C574.935 16.0966 574.664 16.3011 574.471 16.5625C574.282 16.8201 574.187 17.1136 574.187 17.4432C574.187 17.7197 574.251 17.9583 574.38 18.1591C574.513 18.3598 574.685 18.5284 574.897 18.6648C575.113 18.7973 575.344 18.9091 575.59 19C575.837 19.0871 576.073 19.1591 576.301 19.2159L577.437 19.5114C577.808 19.6023 578.189 19.7254 578.579 19.8807C578.969 20.036 579.331 20.2405 579.664 20.4943C579.998 20.7481 580.267 21.0625 580.471 21.4375C580.679 21.8125 580.784 22.2614 580.784 22.7841C580.784 23.4432 580.613 24.0284 580.272 24.5398C579.935 25.0511 579.445 25.4545 578.801 25.75C578.16 26.0455 577.386 26.1932 576.477 26.1932C575.606 26.1932 574.852 26.0549 574.215 25.7784C573.579 25.5019 573.081 25.1098 572.721 24.6023C572.361 24.0909 572.162 23.4848 572.124 22.7841H573.886C573.92 23.2045 574.056 23.5549 574.295 23.8352C574.537 24.1117 574.846 24.3182 575.221 24.4545C575.6 24.5871 576.015 24.6534 576.465 24.6534C576.962 24.6534 577.403 24.5758 577.789 24.4205C578.179 24.2614 578.486 24.0417 578.71 23.7614C578.933 23.4773 579.045 23.1458 579.045 22.767C579.045 22.4223 578.946 22.1402 578.749 21.9205C578.556 21.7008 578.293 21.5189 577.96 21.375C577.63 21.2311 577.257 21.1042 576.84 20.9943L575.465 20.6193C574.534 20.3655 573.795 19.9924 573.249 19.5C572.708 19.0076 572.437 18.3561 572.437 17.5455C572.437 16.875 572.619 16.2898 572.982 15.7898C573.346 15.2898 573.839 14.9015 574.46 14.625C575.081 14.3447 575.782 14.2045 576.562 14.2045C577.35 14.2045 578.045 14.3428 578.647 14.6193C579.253 14.8958 579.731 15.2765 580.079 15.7614C580.428 16.2424 580.609 16.7955 580.624 17.4205H578.931ZM499.487 50.1705C498.782 50.1705 498.154 49.9905 497.601 49.6307C497.051 49.267 496.619 48.75 496.305 48.0795C495.994 47.4053 495.839 46.5966 495.839 45.6534C495.839 44.7102 495.996 43.9034 496.311 43.233C496.629 42.5625 497.065 42.0492 497.618 41.6932C498.171 41.3371 498.798 41.1591 499.498 41.1591C500.04 41.1591 500.476 41.25 500.805 41.4318C501.138 41.6098 501.396 41.8182 501.578 42.0568C501.763 42.2955 501.907 42.5057 502.01 42.6875H502.112V38.3636H503.811V50H502.152V48.642H502.01C501.907 48.8277 501.76 49.0398 501.566 49.2784C501.377 49.517 501.116 49.7254 500.782 49.9034C500.449 50.0814 500.017 50.1705 499.487 50.1705ZM499.862 48.7216C500.351 48.7216 500.763 48.5928 501.101 48.3352C501.441 48.0739 501.699 47.7121 501.873 47.25C502.051 46.7879 502.14 46.25 502.14 45.6364C502.14 45.0303 502.053 44.5 501.879 44.0455C501.705 43.5909 501.449 43.2367 501.112 42.983C500.775 42.7292 500.358 42.6023 499.862 42.6023C499.351 42.6023 498.924 42.7348 498.583 43C498.243 43.2652 497.985 43.6269 497.811 44.0852C497.64 44.5436 497.555 45.0606 497.555 45.6364C497.555 46.2197 497.642 46.7443 497.816 47.2102C497.991 47.6761 498.248 48.0455 498.589 48.3182C498.934 48.5871 499.358 48.7216 499.862 48.7216ZM509.736 50.1761C508.917 50.1761 508.203 49.9886 507.594 49.6136C506.984 49.2386 506.51 48.714 506.173 48.0398C505.836 47.3655 505.667 46.5777 505.667 45.6761C505.667 44.7708 505.836 43.9792 506.173 43.3011C506.51 42.6231 506.984 42.0966 507.594 41.7216C508.203 41.3466 508.917 41.1591 509.736 41.1591C510.554 41.1591 511.268 41.3466 511.878 41.7216C512.488 42.0966 512.961 42.6231 513.298 43.3011C513.635 43.9792 513.804 44.7708 513.804 45.6761C513.804 46.5777 513.635 47.3655 513.298 48.0398C512.961 48.714 512.488 49.2386 511.878 49.6136C511.268 49.9886 510.554 50.1761 509.736 50.1761ZM509.741 48.75C510.272 48.75 510.711 48.6098 511.059 48.3295C511.408 48.0492 511.666 47.6761 511.832 47.2102C512.003 46.7443 512.088 46.2311 512.088 45.6705C512.088 45.1136 512.003 44.6023 511.832 44.1364C511.666 43.6667 511.408 43.2898 511.059 43.0057C510.711 42.7216 510.272 42.5795 509.741 42.5795C509.207 42.5795 508.764 42.7216 508.412 43.0057C508.063 43.2898 507.804 43.6667 507.633 44.1364C507.467 44.6023 507.383 45.1136 507.383 45.6705C507.383 46.2311 507.467 46.7443 507.633 47.2102C507.804 47.6761 508.063 48.0492 508.412 48.3295C508.764 48.6098 509.207 48.75 509.741 48.75ZM517.223 38.3636V50H515.524V38.3636H517.223ZM521.031 38.3636V50H519.332V38.3636H521.031ZM525.681 50.1932C525.128 50.1932 524.628 50.0909 524.181 49.8864C523.734 49.678 523.379 49.3769 523.118 48.983C522.861 48.589 522.732 48.1061 522.732 47.5341C522.732 47.0417 522.826 46.6364 523.016 46.3182C523.205 46 523.461 45.7481 523.783 45.5625C524.105 45.3769 524.465 45.2367 524.862 45.142C525.26 45.0473 525.665 44.9754 526.078 44.9261C526.601 44.8655 527.025 44.8163 527.351 44.7784C527.677 44.7367 527.914 44.6705 528.061 44.5795C528.209 44.4886 528.283 44.3409 528.283 44.1364V44.0966C528.283 43.6004 528.143 43.2159 527.862 42.9432C527.586 42.6705 527.173 42.5341 526.624 42.5341C526.052 42.5341 525.601 42.661 525.272 42.9148C524.946 43.1648 524.72 43.4432 524.595 43.75L522.999 43.3864C523.188 42.8561 523.465 42.428 523.828 42.1023C524.196 41.7727 524.618 41.5341 525.095 41.3864C525.573 41.2348 526.075 41.1591 526.601 41.1591C526.95 41.1591 527.319 41.2008 527.709 41.2841C528.103 41.3636 528.47 41.5114 528.811 41.7273C529.156 41.9432 529.438 42.2519 529.658 42.6534C529.878 43.0511 529.987 43.5682 529.987 44.2045V50H528.328V48.8068H528.26C528.15 49.0265 527.986 49.2424 527.766 49.4545C527.546 49.6667 527.264 49.8428 526.919 49.983C526.575 50.1231 526.162 50.1932 525.681 50.1932ZM526.05 48.8295C526.52 48.8295 526.921 48.7367 527.254 48.5511C527.592 48.3655 527.847 48.1231 528.022 47.8239C528.2 47.5208 528.289 47.197 528.289 46.8523V45.7273C528.228 45.7879 528.111 45.8447 527.936 45.8977C527.766 45.947 527.571 45.9905 527.351 46.0284C527.131 46.0625 526.917 46.0947 526.709 46.125C526.501 46.1515 526.326 46.1742 526.186 46.1932C525.857 46.2348 525.556 46.3049 525.283 46.4034C525.014 46.5019 524.798 46.6439 524.635 46.8295C524.476 47.0114 524.397 47.2538 524.397 47.5568C524.397 47.9773 524.552 48.2955 524.862 48.5114C525.173 48.7235 525.569 48.8295 526.05 48.8295ZM532.074 50V41.2727H533.716V42.6591H533.807C533.966 42.1894 534.247 41.8201 534.648 41.5511C535.053 41.2784 535.512 41.142 536.023 41.142C536.129 41.142 536.254 41.1458 536.398 41.1534C536.546 41.161 536.661 41.1705 536.745 41.1818V42.8068C536.677 42.7879 536.555 42.767 536.381 42.7443C536.207 42.7178 536.033 42.7045 535.858 42.7045C535.457 42.7045 535.099 42.7898 534.784 42.9602C534.474 43.1269 534.228 43.3598 534.046 43.6591C533.864 43.9545 533.773 44.2917 533.773 44.6705V50H532.074ZM544.579 43.4034L543.039 43.6761C542.974 43.4792 542.872 43.2917 542.732 43.1136C542.596 42.9356 542.41 42.7898 542.175 42.6761C541.94 42.5625 541.647 42.5057 541.295 42.5057C540.813 42.5057 540.412 42.6136 540.09 42.8295C539.768 43.0417 539.607 43.3163 539.607 43.6534C539.607 43.9451 539.715 44.1799 539.931 44.358C540.147 44.536 540.495 44.6818 540.976 44.7955L542.363 45.1136C543.166 45.2992 543.764 45.5852 544.158 45.9716C544.552 46.358 544.749 46.8598 544.749 47.4773C544.749 48 544.598 48.4659 544.295 48.875C543.995 49.2803 543.577 49.5985 543.039 49.8295C542.505 50.0606 541.885 50.1761 541.181 50.1761C540.204 50.1761 539.406 49.9678 538.789 49.5511C538.171 49.1307 537.793 48.5341 537.652 47.7614L539.295 47.5114C539.397 47.9394 539.607 48.2633 539.925 48.483C540.243 48.6989 540.658 48.8068 541.17 48.8068C541.726 48.8068 542.171 48.6913 542.505 48.4602C542.838 48.2254 543.005 47.9394 543.005 47.6023C543.005 47.3295 542.902 47.1004 542.698 46.9148C542.497 46.7292 542.188 46.589 541.772 46.4943L540.295 46.1705C539.48 45.9848 538.878 45.6894 538.488 45.2841C538.101 44.8788 537.908 44.3655 537.908 43.7443C537.908 43.2292 538.052 42.7784 538.34 42.392C538.628 42.0057 539.026 41.7045 539.533 41.4886C540.041 41.2689 540.622 41.1591 541.277 41.1591C542.221 41.1591 542.963 41.3636 543.505 41.7727C544.046 42.178 544.404 42.7216 544.579 43.4034ZM547.56 50.108C547.25 50.108 546.983 49.9981 546.759 49.7784C546.536 49.5549 546.424 49.286 546.424 48.9716C546.424 48.661 546.536 48.3958 546.759 48.1761C546.983 47.9527 547.25 47.8409 547.56 47.8409C547.871 47.8409 548.138 47.9527 548.361 48.1761C548.585 48.3958 548.697 48.661 548.697 48.9716C548.697 49.1799 548.644 49.3712 548.538 49.5455C548.435 49.7159 548.299 49.8523 548.128 49.9545C547.958 50.0568 547.769 50.108 547.56 50.108ZM547.56 43.7557C547.25 43.7557 546.983 43.6439 546.759 43.4205C546.536 43.197 546.424 42.9299 546.424 42.6193C546.424 42.3087 546.536 42.0436 546.759 41.8239C546.983 41.6004 547.25 41.4886 547.56 41.4886C547.871 41.4886 548.138 41.6004 548.361 41.8239C548.585 42.0436 548.697 42.3087 548.697 42.6193C548.697 42.8277 548.644 43.0189 548.538 43.1932C548.435 43.3636 548.299 43.5 548.128 43.6023C547.958 43.7045 547.769 43.7557 547.56 43.7557ZM556.747 38.3636V50H554.991V38.3636H556.747ZM568.52 38.3636V50H566.906L560.991 41.4659H560.883V50H559.127V38.3636H560.752L566.673 46.9091H566.781V38.3636H568.52ZM570.331 39.875V38.3636H579.336V39.875H575.706V50H573.956V39.875H570.331ZM581.15 50V38.3636H588.446V39.875H582.906V43.4205H588.065V44.9261H582.906V48.4886H588.514V50H581.15ZM598.49 42.0398C598.38 41.6951 598.233 41.3864 598.047 41.1136C597.865 40.8371 597.647 40.6023 597.394 40.4091C597.14 40.2121 596.85 40.0625 596.524 39.9602C596.202 39.858 595.848 39.8068 595.462 39.8068C594.806 39.8068 594.215 39.9754 593.689 40.3125C593.162 40.6496 592.746 41.1439 592.439 41.7955C592.136 42.4432 591.984 43.2367 591.984 44.1761C591.984 45.1193 592.138 45.9167 592.445 46.5682C592.751 47.2197 593.172 47.714 593.706 48.0511C594.24 48.3883 594.848 48.5568 595.53 48.5568C596.162 48.5568 596.714 48.428 597.183 48.1705C597.657 47.9129 598.022 47.5492 598.28 47.0795C598.541 46.6061 598.672 46.0492 598.672 45.4091L599.126 45.4943H595.797V44.0455H600.371V45.3693C600.371 46.3466 600.162 47.1951 599.746 47.9148C599.333 48.6307 598.761 49.1837 598.03 49.5739C597.303 49.964 596.469 50.1591 595.53 50.1591C594.477 50.1591 593.553 49.9167 592.757 49.4318C591.965 48.947 591.348 48.2595 590.905 47.3693C590.462 46.4754 590.24 45.4148 590.24 44.1875C590.24 43.2595 590.369 42.4261 590.626 41.6875C590.884 40.9489 591.246 40.322 591.712 39.8068C592.181 39.2879 592.733 38.892 593.365 38.6193C594.001 38.3428 594.697 38.2045 595.45 38.2045C596.079 38.2045 596.664 38.2973 597.206 38.483C597.751 38.6686 598.236 38.9318 598.661 39.2727C599.089 39.6136 599.443 40.0189 599.723 40.4886C600.003 40.9545 600.193 41.4716 600.291 42.0398H598.49ZM602.423 50V38.3636H609.719V39.875H604.179V43.4205H609.338V44.9261H604.179V48.4886H609.787V50H602.423ZM611.888 50V38.3636H616.036C616.937 38.3636 617.685 38.5189 618.28 38.8295C618.879 39.1402 619.326 39.5701 619.621 40.1193C619.917 40.6648 620.064 41.2955 620.064 42.0114C620.064 42.7235 619.915 43.3504 619.615 43.892C619.32 44.4299 618.873 44.8485 618.274 45.1477C617.68 45.447 616.932 45.5966 616.03 45.5966H612.888V44.0852H615.871C616.439 44.0852 616.901 44.0038 617.257 43.8409C617.617 43.678 617.881 43.4413 618.047 43.1307C618.214 42.8201 618.297 42.447 618.297 42.0114C618.297 41.572 618.212 41.1913 618.042 40.8693C617.875 40.5473 617.612 40.3011 617.252 40.1307C616.896 39.9564 616.428 39.8693 615.848 39.8693H613.644V50H611.888ZM617.632 44.75L620.507 50H618.507L615.689 44.75H617.632Z" fill="black" fill-opacity="0.8" style="fill:black;fill-opacity:0.8;"/>
<path d="M131.5 143C130.948 143 130.5 143.448 130.5 144C130.5 144.552 130.948 145 131.5 145V143ZM199.5 145C200.052 145 200.5 144.552 200.5 144C200.5 143.448 200.052 143 199.5 143V145ZM304.5 143C303.948 143 303.5 143.448 303.5 144C303.5 144.552 303.948 145 304.5 145V143ZM373.207 144.707C373.598 144.317 373.598 143.683 373.207 143.293L366.843 136.929C366.453 136.538 365.819 136.538 365.429 136.929C365.038 137.319 365.038 137.953 365.429 138.343L371.086 144L365.429 149.657C365.038 150.047 365.038 150.681 365.429 151.071C365.819 151.462 366.453 151.462 366.843 151.071L373.207 144.707ZM131.5 145H199.5V143H131.5V145ZM304.5 145H372.5V143H304.5V145Z" fill="#4D5157" style="fill:#4D5157;fill:color(display-p3 0.3020 0.3176 0.3412);fill-opacity:1;"/>
<path d="M208.748 150V138.364H212.896C213.801 138.364 214.551 138.528 215.146 138.858C215.74 139.187 216.186 139.638 216.481 140.21C216.776 140.778 216.924 141.419 216.924 142.131C216.924 142.847 216.775 143.491 216.475 144.062C216.18 144.631 215.733 145.081 215.134 145.415C214.54 145.744 213.792 145.909 212.89 145.909H210.038V144.42H212.731C213.303 144.42 213.767 144.322 214.123 144.125C214.479 143.924 214.74 143.652 214.907 143.307C215.074 142.962 215.157 142.57 215.157 142.131C215.157 141.691 215.074 141.301 214.907 140.96C214.74 140.619 214.477 140.352 214.117 140.159C213.761 139.966 213.292 139.869 212.708 139.869H210.504V150H208.748ZM218.806 150V138.364H220.562V148.489H225.835V150H218.806ZM229.238 150H227.375L231.562 138.364H233.591L237.778 150H235.914L232.625 140.477H232.534L229.238 150ZM229.551 145.443H235.596V146.92H229.551V145.443ZM237.197 138.364H239.192L242.231 143.653H242.356L245.396 138.364H247.39L243.169 145.432V150H241.419V145.432L237.197 138.364ZM255.219 141.42C255.158 140.883 254.908 140.466 254.469 140.17C254.029 139.871 253.476 139.722 252.81 139.722C252.332 139.722 251.92 139.797 251.571 139.949C251.223 140.097 250.952 140.301 250.759 140.562C250.569 140.82 250.474 141.114 250.474 141.443C250.474 141.72 250.539 141.958 250.668 142.159C250.8 142.36 250.973 142.528 251.185 142.665C251.401 142.797 251.632 142.909 251.878 143C252.124 143.087 252.361 143.159 252.588 143.216L253.724 143.511C254.096 143.602 254.476 143.725 254.866 143.881C255.257 144.036 255.618 144.241 255.952 144.494C256.285 144.748 256.554 145.062 256.759 145.438C256.967 145.812 257.071 146.261 257.071 146.784C257.071 147.443 256.901 148.028 256.56 148.54C256.223 149.051 255.732 149.455 255.088 149.75C254.448 150.045 253.673 150.193 252.764 150.193C251.893 150.193 251.139 150.055 250.503 149.778C249.866 149.502 249.368 149.11 249.009 148.602C248.649 148.091 248.45 147.485 248.412 146.784H250.173C250.207 147.205 250.344 147.555 250.582 147.835C250.825 148.112 251.134 148.318 251.509 148.455C251.887 148.587 252.302 148.653 252.753 148.653C253.249 148.653 253.69 148.576 254.077 148.42C254.467 148.261 254.774 148.042 254.997 147.761C255.221 147.477 255.332 147.146 255.332 146.767C255.332 146.422 255.234 146.14 255.037 145.92C254.844 145.701 254.58 145.519 254.247 145.375C253.918 145.231 253.545 145.104 253.128 144.994L251.753 144.619C250.821 144.366 250.082 143.992 249.537 143.5C248.995 143.008 248.724 142.356 248.724 141.545C248.724 140.875 248.906 140.29 249.27 139.79C249.634 139.29 250.126 138.902 250.747 138.625C251.368 138.345 252.069 138.205 252.849 138.205C253.637 138.205 254.332 138.343 254.935 138.619C255.541 138.896 256.018 139.277 256.366 139.761C256.715 140.242 256.897 140.795 256.912 141.42H255.219ZM265.09 150V151.443H257.698V150H265.09ZM266.176 150V138.364H273.392V139.875H267.932V143.42H272.875V144.926H267.932V150H266.176ZM285.483 144.182C285.483 145.424 285.256 146.492 284.802 147.386C284.347 148.277 283.724 148.962 282.932 149.443C282.144 149.92 281.249 150.159 280.245 150.159C279.237 150.159 278.338 149.92 277.546 149.443C276.758 148.962 276.137 148.275 275.682 147.381C275.228 146.487 275 145.42 275 144.182C275 142.939 275.228 141.873 275.682 140.983C276.137 140.089 276.758 139.403 277.546 138.926C278.338 138.445 279.237 138.205 280.245 138.205C281.249 138.205 282.144 138.445 282.932 138.926C283.724 139.403 284.347 140.089 284.802 140.983C285.256 141.873 285.483 142.939 285.483 144.182ZM283.745 144.182C283.745 143.235 283.591 142.437 283.285 141.79C282.981 141.138 282.565 140.646 282.035 140.312C281.508 139.975 280.911 139.807 280.245 139.807C279.574 139.807 278.976 139.975 278.449 140.312C277.923 140.646 277.506 141.138 277.199 141.79C276.896 142.437 276.745 143.235 276.745 144.182C276.745 145.129 276.896 145.928 277.199 146.58C277.506 147.227 277.923 147.72 278.449 148.057C278.976 148.39 279.574 148.557 280.245 148.557C280.911 148.557 281.508 148.39 282.035 148.057C282.565 147.72 282.981 147.227 283.285 146.58C283.591 145.928 283.745 145.129 283.745 144.182ZM287.496 150V138.364H291.644C292.546 138.364 293.294 138.519 293.888 138.83C294.487 139.14 294.934 139.57 295.229 140.119C295.525 140.665 295.672 141.295 295.672 142.011C295.672 142.723 295.523 143.35 295.224 143.892C294.928 144.43 294.481 144.848 293.883 145.148C293.288 145.447 292.54 145.597 291.638 145.597H288.496V144.085H291.479C292.047 144.085 292.51 144.004 292.866 143.841C293.225 143.678 293.489 143.441 293.655 143.131C293.822 142.82 293.905 142.447 293.905 142.011C293.905 141.572 293.82 141.191 293.65 140.869C293.483 140.547 293.22 140.301 292.86 140.131C292.504 139.956 292.036 139.869 291.457 139.869H289.252V150H287.496ZM293.241 144.75L296.116 150H294.116L291.297 144.75H293.241Z" fill="black" fill-opacity="0.8" style="fill:black;fill-opacity:0.8;"/>
<path d="M16.9914 237V229.762H18.6574V230.798C18.7694 230.611 18.9211 230.432 19.1124 230.259C19.3084 230.086 19.5487 229.946 19.8334 229.839C20.1181 229.732 20.4517 229.678 20.8344 229.678C21.2824 229.678 21.6977 229.767 22.0804 229.944C22.4677 230.121 22.7781 230.399 23.0114 230.777C23.2494 231.155 23.3684 231.643 23.3684 232.24V237H21.6604V232.443C21.6604 231.967 21.5297 231.615 21.2684 231.386C21.0071 231.153 20.6781 231.036 20.2814 231.036C20.0107 231.036 19.7541 231.083 19.5114 231.176C19.2687 231.265 19.0704 231.402 18.9164 231.589C18.7671 231.771 18.6924 232 18.6924 232.275V237H16.9914ZM27.2465 237.14C26.7845 237.14 26.3692 237.056 26.0005 236.888C25.6365 236.715 25.3495 236.47 25.1395 236.153C24.9342 235.831 24.8315 235.441 24.8315 234.984C24.8315 234.186 25.1185 233.584 25.6925 233.178C26.2712 232.772 27.1905 232.56 28.4505 232.541L29.5355 232.513V232.023C29.5355 231.64 29.4212 231.342 29.1925 231.127C28.9685 230.908 28.6185 230.8 28.1425 230.805C27.7878 230.81 27.4658 230.894 27.1765 231.057C26.8872 231.216 26.6958 231.484 26.6025 231.862H25.1535C25.1815 231.367 25.3238 230.954 25.5805 230.623C25.8418 230.287 26.1988 230.037 26.6515 229.874C27.1042 229.706 27.6268 229.622 28.2195 229.622C28.9102 229.622 29.4725 229.713 29.9065 229.895C30.3405 230.077 30.6602 230.341 30.8655 230.686C31.0708 231.027 31.1735 231.44 31.1735 231.925V237H29.7385L29.5985 235.698C29.3418 236.244 29.0128 236.622 28.6115 236.832C28.2148 237.037 27.7598 237.14 27.2465 237.14ZM27.7995 235.985C28.0095 235.985 28.2172 235.948 28.4225 235.873C28.6278 235.794 28.8122 235.689 28.9755 235.558C29.1435 235.423 29.2765 235.273 29.3745 235.11C29.4772 234.947 29.5308 234.776 29.5355 234.599V233.458L28.6465 233.472C28.2078 233.477 27.8228 233.523 27.4915 233.612C27.1648 233.701 26.9105 233.843 26.7285 234.039C26.5465 234.23 26.4555 234.487 26.4555 234.809C26.4555 235.178 26.5838 235.467 26.8405 235.677C27.0972 235.882 27.4168 235.985 27.7995 235.985ZM32.9875 237V229.762H34.6465V230.798C34.8565 230.481 35.1412 230.205 35.5005 229.972C35.8645 229.739 36.3265 229.622 36.8865 229.622C37.1432 229.622 37.4022 229.666 37.6635 229.755C37.9295 229.844 38.1745 229.974 38.3985 230.147C38.6272 230.32 38.8092 230.534 38.9445 230.791C39.1732 230.45 39.4765 230.17 39.8545 229.951C40.2372 229.732 40.6665 229.622 41.1425 229.622C41.4038 229.622 41.6722 229.664 41.9475 229.748C42.2275 229.832 42.4842 229.972 42.7175 230.168C42.9508 230.364 43.1398 230.632 43.2845 230.973C43.4292 231.309 43.5015 231.731 43.5015 232.24V237H41.8005V232.443C41.8005 232.084 41.7375 231.801 41.6115 231.596C41.4855 231.391 41.3222 231.246 41.1215 231.162C40.9255 231.073 40.7155 231.029 40.4915 231.029C40.2908 231.029 40.0808 231.069 39.8615 231.148C39.6468 231.227 39.4625 231.358 39.3085 231.54C39.1592 231.722 39.0845 231.967 39.0845 232.275V237H37.3835V232.17C37.3835 231.918 37.3182 231.708 37.1875 231.54C37.0568 231.372 36.8912 231.246 36.6905 231.162C36.4945 231.073 36.2938 231.029 36.0885 231.029C35.8785 231.029 35.6638 231.073 35.4445 231.162C35.2298 231.251 35.0502 231.386 34.9055 231.568C34.7608 231.75 34.6885 231.986 34.6885 232.275V237H32.9875ZM48.5322 237.14C47.8369 237.14 47.2232 236.993 46.6912 236.699C46.1639 236.4 45.7509 235.976 45.4522 235.425C45.1582 234.874 45.0112 234.219 45.0112 233.458C45.0112 232.716 45.1442 232.058 45.4102 231.484C45.6809 230.905 46.0705 230.45 46.5792 230.119C47.0925 229.788 47.7109 229.622 48.4342 229.622C49.1482 229.622 49.7479 229.774 50.2332 230.077C50.7185 230.38 51.0872 230.805 51.3392 231.351C51.5912 231.892 51.7172 232.527 51.7172 233.255V233.773H46.7122C46.7075 234.184 46.7729 234.548 46.9082 234.865C47.0435 235.182 47.2442 235.432 47.5102 235.614C47.7762 235.791 48.1052 235.88 48.4972 235.88C48.8985 235.88 49.2462 235.791 49.5402 235.614C49.8389 235.432 50.0372 235.157 50.1352 234.788H51.6892C51.6052 235.292 51.4045 235.719 51.0872 236.069C50.7745 236.419 50.3919 236.685 49.9392 236.867C49.4912 237.049 49.0222 237.14 48.5322 237.14ZM46.7052 232.716H50.1072C50.1072 232.366 50.0442 232.051 49.9182 231.771C49.7969 231.486 49.6125 231.262 49.3652 231.099C49.1179 230.931 48.8052 230.847 48.4272 230.847C48.0539 230.847 47.7389 230.938 47.4822 231.12C47.2255 231.302 47.0319 231.538 46.9012 231.827C46.7705 232.112 46.7052 232.408 46.7052 232.716ZM53.1069 231.932V229.986H55.0319V231.932H53.1069ZM53.1069 236.958V235.026H55.0319V236.958H53.1069ZM63.9225 237.14C63.4185 237.14 62.9355 237.079 62.4735 236.958C62.0115 236.832 61.5891 236.648 61.2065 236.405C60.8285 236.158 60.5158 235.852 60.2685 235.488C60.0211 235.119 59.8695 234.69 59.8135 234.2H61.5775C61.6521 234.541 61.7991 234.828 62.0185 235.061C62.2425 235.294 62.5248 235.472 62.8655 235.593C63.2061 235.714 63.5865 235.775 64.0065 235.775C64.3798 235.775 64.7275 235.719 65.0495 235.607C65.3715 235.495 65.6328 235.329 65.8335 235.11C66.0341 234.886 66.1345 234.611 66.1345 234.284C66.1345 233.915 66.0038 233.628 65.7425 233.423C65.4858 233.213 65.1171 233.047 64.6365 232.926L62.6555 232.457C62.1421 232.34 61.6941 232.17 61.3115 231.946C60.9335 231.722 60.6395 231.428 60.4295 231.064C60.2195 230.695 60.1145 230.245 60.1145 229.713C60.1145 229.106 60.2801 228.581 60.6115 228.138C60.9475 227.695 61.4025 227.354 61.9765 227.116C62.5505 226.873 63.1968 226.752 63.9155 226.752C64.7368 226.752 65.4298 226.89 65.9945 227.165C66.5591 227.436 66.9885 227.8 67.2825 228.257C67.5765 228.714 67.7258 229.216 67.7305 229.762H66.0085C65.9711 229.356 65.8521 229.036 65.6515 228.803C65.4508 228.565 65.1965 228.392 64.8885 228.285C64.5805 228.178 64.2398 228.124 63.8665 228.124C63.2038 228.124 62.7115 228.266 62.3895 228.551C62.0675 228.836 61.9065 229.169 61.9065 229.552C61.9065 229.911 62.0255 230.196 62.2635 230.406C62.5015 230.616 62.8655 230.779 63.3555 230.896L65.2385 231.337C65.8685 231.468 66.3748 231.668 66.7575 231.939C67.1401 232.21 67.4178 232.532 67.5905 232.905C67.7678 233.274 67.8565 233.682 67.8565 234.13C67.8565 234.718 67.6885 235.238 67.3525 235.691C67.0211 236.144 66.5615 236.498 65.9735 236.755C65.3855 237.012 64.7018 237.14 63.9225 237.14ZM71.9284 237V228.411H68.7784V226.878H76.6744V228.411H73.6364V237H71.9284ZM78.1996 237V226.878H82.3086C83.0833 226.878 83.7203 226.999 84.2196 227.242C84.7236 227.48 85.0969 227.818 85.3396 228.257C85.5823 228.691 85.7036 229.2 85.7036 229.783C85.7036 230.324 85.6149 230.779 85.4376 231.148C85.2603 231.512 85.0293 231.811 84.7446 232.044C84.4646 232.273 84.1636 232.459 83.8416 232.604L85.7736 237H83.9956L82.2526 232.891H79.9006V237H78.1996ZM79.9006 231.54H81.9236C82.5676 231.54 83.0693 231.391 83.4286 231.092C83.7926 230.793 83.9746 230.378 83.9746 229.846C83.9746 229.323 83.8066 228.92 83.4706 228.635C83.1346 228.35 82.6913 228.208 82.1406 228.208H79.9006V231.54ZM87.8109 237V226.878H89.5119V237H87.8109ZM91.9672 237V226.878H93.6332L98.5892 234.109V226.878H100.29V237H98.7572L93.6682 229.573V237H91.9672ZM106.661 237.14C105.755 237.14 104.969 236.932 104.302 236.517C103.634 236.102 103.121 235.509 102.762 234.739C102.402 233.964 102.223 233.04 102.223 231.967C102.223 230.884 102.409 229.951 102.783 229.167C103.156 228.383 103.681 227.783 104.358 227.368C105.039 226.948 105.837 226.738 106.752 226.738C107.312 226.738 107.827 226.831 108.299 227.018C108.775 227.205 109.19 227.457 109.545 227.774C109.904 228.091 110.186 228.453 110.392 228.859C110.597 229.265 110.711 229.687 110.735 230.126H108.936C108.87 229.781 108.737 229.463 108.537 229.174C108.341 228.88 108.086 228.644 107.774 228.467C107.466 228.29 107.113 228.201 106.717 228.201C106.208 228.201 105.753 228.329 105.352 228.586C104.955 228.843 104.642 229.246 104.414 229.797C104.19 230.343 104.078 231.052 104.078 231.925C104.078 232.616 104.148 233.199 104.288 233.675C104.432 234.146 104.628 234.527 104.876 234.816C105.128 235.101 105.417 235.308 105.744 235.439C106.07 235.565 106.416 235.628 106.78 235.628C107.134 235.628 107.447 235.567 107.718 235.446C107.988 235.325 108.217 235.166 108.404 234.97C108.595 234.774 108.742 234.564 108.845 234.34C108.952 234.111 109.015 233.89 109.034 233.675L109.097 232.933H106.836V231.729L110.875 231.743V237H109.671V235.579C109.498 235.836 109.279 236.083 109.013 236.321C108.751 236.559 108.429 236.755 108.047 236.909C107.669 237.063 107.207 237.14 106.661 237.14ZM20.9506 261.14C20.4886 261.14 20.0733 261.056 19.7046 260.888C19.3406 260.715 19.0536 260.47 18.8436 260.153C18.6383 259.831 18.5356 259.441 18.5356 258.984C18.5356 258.186 18.8226 257.584 19.3966 257.178C19.9753 256.772 20.8946 256.56 22.1546 256.541L23.2396 256.513V256.023C23.2396 255.64 23.1253 255.342 22.8966 255.127C22.6726 254.908 22.3226 254.8 21.8466 254.805C21.4919 254.81 21.1699 254.894 20.8806 255.057C20.5913 255.216 20.3999 255.484 20.3066 255.862H18.8576C18.8856 255.367 19.0279 254.954 19.2846 254.623C19.5459 254.287 19.9029 254.037 20.3556 253.874C20.8083 253.706 21.3309 253.622 21.9236 253.622C22.6143 253.622 23.1766 253.713 23.6106 253.895C24.0446 254.077 24.3643 254.341 24.5696 254.686C24.7749 255.027 24.8776 255.44 24.8776 255.925V261H23.4426L23.3026 259.698C23.0459 260.244 22.7169 260.622 22.3156 260.832C21.9189 261.037 21.4639 261.14 20.9506 261.14ZM21.5036 259.985C21.7136 259.985 21.9213 259.948 22.1266 259.873C22.3319 259.794 22.5163 259.689 22.6796 259.558C22.8476 259.423 22.9806 259.273 23.0786 259.11C23.1813 258.947 23.2349 258.776 23.2396 258.599V257.458L22.3506 257.472C21.9119 257.477 21.5269 257.523 21.1956 257.612C20.8689 257.701 20.6146 257.843 20.4326 258.039C20.2506 258.23 20.1596 258.487 20.1596 258.809C20.1596 259.178 20.2879 259.467 20.5446 259.677C20.8013 259.882 21.1209 259.985 21.5036 259.985ZM29.9116 263.394C28.6936 263.394 27.7579 263.231 27.1046 262.904C26.4513 262.577 26.1246 262.129 26.1246 261.56C26.1246 261.303 26.1876 261.089 26.3136 260.916C26.4396 260.743 26.5889 260.601 26.7616 260.489C26.9343 260.377 27.0929 260.291 27.2376 260.23C27.3823 260.169 27.4756 260.125 27.5176 260.097C27.4383 260.05 27.3333 259.99 27.2026 259.915C27.0719 259.84 26.9529 259.738 26.8456 259.607C26.7429 259.476 26.6916 259.306 26.6916 259.096C26.6916 258.853 26.8059 258.629 27.0346 258.424C27.2679 258.219 27.6156 258.072 28.0776 257.983C27.6249 257.764 27.2773 257.467 27.0346 257.094C26.7919 256.721 26.6706 256.333 26.6706 255.932C26.6706 255.456 26.8083 255.048 27.0836 254.707C27.3636 254.366 27.7509 254.105 28.2456 253.923C28.7403 253.741 29.3166 253.65 29.9746 253.65C30.4553 253.65 30.8543 253.704 31.1716 253.811C31.4936 253.918 31.7923 254.063 32.0676 254.245C32.1609 254.208 32.2916 254.156 32.4596 254.091C32.6276 254.021 32.8119 253.946 33.0126 253.867C33.2133 253.783 33.4069 253.704 33.5936 253.629C33.7803 253.55 33.9366 253.484 34.0626 253.433L34.0556 254.84L32.8026 255.064C32.8633 255.199 32.9099 255.346 32.9426 255.505C32.9799 255.664 32.9986 255.804 32.9986 255.925C32.9986 256.345 32.8796 256.735 32.6416 257.094C32.4083 257.449 32.0559 257.733 31.5846 257.948C31.1179 258.163 30.5346 258.27 29.8346 258.27C29.7646 258.27 29.6689 258.268 29.5476 258.263C29.4263 258.258 29.3283 258.254 29.2536 258.249C28.8756 258.263 28.6166 258.307 28.4766 258.382C28.3366 258.457 28.2666 258.538 28.2666 258.627C28.2666 258.753 28.3716 258.837 28.5816 258.879C28.7916 258.921 29.1276 258.958 29.5896 258.991C29.7529 259 29.9676 259.012 30.2336 259.026C30.4996 259.04 30.7959 259.059 31.1226 259.082C31.9486 259.133 32.5739 259.341 32.9986 259.705C33.4233 260.064 33.6356 260.531 33.6356 261.105C33.6356 261.772 33.3276 262.321 32.7116 262.75C32.0956 263.179 31.1623 263.394 29.9116 263.394ZM30.1986 262.393C30.8099 262.393 31.2626 262.309 31.5566 262.141C31.8506 261.973 31.9976 261.726 31.9976 261.399C31.9976 261.147 31.8973 260.942 31.6966 260.783C31.4959 260.624 31.1973 260.531 30.8006 260.503L28.9736 260.391C28.7729 260.377 28.5816 260.414 28.3996 260.503C28.2223 260.587 28.0776 260.706 27.9656 260.86C27.8536 261.009 27.7976 261.175 27.7976 261.357C27.7976 261.698 27.9913 261.954 28.3786 262.127C28.7706 262.304 29.3773 262.393 30.1986 262.393ZM29.8906 257.269C30.3339 257.269 30.6933 257.157 30.9686 256.933C31.2439 256.704 31.3816 256.382 31.3816 255.967C31.3816 255.538 31.2439 255.204 30.9686 254.966C30.6933 254.723 30.3339 254.602 29.8906 254.602C29.4379 254.602 29.0716 254.723 28.7916 254.966C28.5163 255.209 28.3786 255.542 28.3786 255.967C28.3786 256.368 28.5116 256.686 28.7776 256.919C29.0436 257.152 29.4146 257.269 29.8906 257.269ZM38.4492 261.14C37.7538 261.14 37.1402 260.993 36.6082 260.699C36.0808 260.4 35.6678 259.976 35.3692 259.425C35.0752 258.874 34.9282 258.219 34.9282 257.458C34.9282 256.716 35.0612 256.058 35.3272 255.484C35.5978 254.905 35.9875 254.45 36.4962 254.119C37.0095 253.788 37.6278 253.622 38.3512 253.622C39.0652 253.622 39.6648 253.774 40.1502 254.077C40.6355 254.38 41.0042 254.805 41.2562 255.351C41.5082 255.892 41.6342 256.527 41.6342 257.255V257.773H36.6292C36.6245 258.184 36.6898 258.548 36.8252 258.865C36.9605 259.182 37.1612 259.432 37.4272 259.614C37.6932 259.791 38.0222 259.88 38.4142 259.88C38.8155 259.88 39.1632 259.791 39.4572 259.614C39.7558 259.432 39.9542 259.157 40.0522 258.788H41.6062C41.5222 259.292 41.3215 259.719 41.0042 260.069C40.6915 260.419 40.3088 260.685 39.8562 260.867C39.4082 261.049 38.9392 261.14 38.4492 261.14ZM36.6222 256.716H40.0242C40.0242 256.366 39.9612 256.051 39.8352 255.771C39.7138 255.486 39.5295 255.262 39.2822 255.099C39.0348 254.931 38.7222 254.847 38.3442 254.847C37.9708 254.847 37.6558 254.938 37.3992 255.12C37.1425 255.302 36.9488 255.538 36.8182 255.827C36.6875 256.112 36.6222 256.408 36.6222 256.716ZM43.0239 255.932V253.986H44.9489V255.932H43.0239ZM43.0239 260.958V259.026H44.9489V260.958H43.0239ZM50.2064 261V250.878H51.9074V261H50.2064ZM54.3627 261V250.878H56.0287L60.9847 258.109V250.878H62.6857V261H61.1527L56.0637 253.573V261H54.3627ZM67.3551 261V252.411H64.2051V250.878H72.1011V252.411H69.0631V261H67.3551ZM73.6264 261V250.878H80.3184L80.3114 252.341H75.3414V255.176H79.7304V256.618H75.3274V259.516L80.4164 259.523V261H73.6264ZM86.31 261.14C85.4047 261.14 84.6184 260.932 83.951 260.517C83.2837 260.102 82.7704 259.509 82.411 258.739C82.0517 257.964 81.872 257.04 81.872 255.967C81.872 254.884 82.0587 253.951 82.432 253.167C82.8054 252.383 83.3304 251.783 84.007 251.368C84.6884 250.948 85.4864 250.738 86.401 250.738C86.961 250.738 87.4767 250.831 87.948 251.018C88.424 251.205 88.8394 251.457 89.194 251.774C89.5534 252.091 89.8357 252.453 90.041 252.859C90.2464 253.265 90.3607 253.687 90.384 254.126H88.585C88.5197 253.781 88.3867 253.463 88.186 253.174C87.99 252.88 87.7357 252.644 87.423 252.467C87.115 252.29 86.7627 252.201 86.366 252.201C85.8574 252.201 85.4024 252.329 85.001 252.586C84.6044 252.843 84.2917 253.246 84.063 253.797C83.839 254.343 83.727 255.052 83.727 255.925C83.727 256.616 83.797 257.199 83.937 257.675C84.0817 258.146 84.2777 258.527 84.525 258.816C84.777 259.101 85.0664 259.308 85.393 259.439C85.7197 259.565 86.065 259.628 86.429 259.628C86.7837 259.628 87.0964 259.567 87.367 259.446C87.6377 259.325 87.8664 259.166 88.053 258.97C88.2444 258.774 88.3914 258.564 88.494 258.34C88.6014 258.111 88.6644 257.89 88.683 257.675L88.746 256.933H86.485V255.729L90.524 255.743V261H89.32V259.579C89.1474 259.836 88.928 260.083 88.662 260.321C88.4007 260.559 88.0787 260.755 87.696 260.909C87.318 261.063 86.856 261.14 86.31 261.14ZM92.849 261V250.878H99.541L99.534 252.341H94.564V255.176H98.953V256.618H94.55V259.516L99.639 259.523V261H92.849ZM101.722 261V250.878H105.831C106.606 250.878 107.243 250.999 107.742 251.242C108.246 251.48 108.619 251.818 108.862 252.257C109.105 252.691 109.226 253.2 109.226 253.783C109.226 254.324 109.137 254.779 108.96 255.148C108.783 255.512 108.552 255.811 108.267 256.044C107.987 256.273 107.686 256.459 107.364 256.604L109.296 261H107.518L105.775 256.891H103.423V261H101.722ZM103.423 255.54H105.446C106.09 255.54 106.592 255.391 106.951 255.092C107.315 254.793 107.497 254.378 107.497 253.846C107.497 253.323 107.329 252.92 106.993 252.635C106.657 252.35 106.214 252.208 105.663 252.208H103.423V255.54Z" fill="black" style="fill:black;fill-opacity:1;"/>
<path d="M392.991 237V229.762H394.657V230.798C394.769 230.611 394.921 230.432 395.112 230.259C395.308 230.086 395.549 229.946 395.833 229.839C396.118 229.732 396.452 229.678 396.834 229.678C397.282 229.678 397.698 229.767 398.08 229.944C398.468 230.121 398.778 230.399 399.011 230.777C399.249 231.155 399.368 231.643 399.368 232.24V237H397.66V232.443C397.66 231.967 397.53 231.615 397.268 231.386C397.007 231.153 396.678 231.036 396.281 231.036C396.011 231.036 395.754 231.083 395.511 231.176C395.269 231.265 395.07 231.402 394.916 231.589C394.767 231.771 394.692 232 394.692 232.275V237H392.991ZM403.247 237.14C402.785 237.14 402.369 237.056 402.001 236.888C401.637 236.715 401.35 236.47 401.14 236.153C400.934 235.831 400.832 235.441 400.832 234.984C400.832 234.186 401.119 233.584 401.693 233.178C402.271 232.772 403.191 232.56 404.451 232.541L405.536 232.513V232.023C405.536 231.64 405.421 231.342 405.193 231.127C404.969 230.908 404.619 230.8 404.142 230.805C403.788 230.81 403.466 230.894 403.177 231.057C402.887 231.216 402.696 231.484 402.603 231.862H401.154C401.182 231.367 401.324 230.954 401.581 230.623C401.842 230.287 402.199 230.037 402.652 229.874C403.104 229.706 403.627 229.622 404.22 229.622C404.91 229.622 405.473 229.713 405.907 229.895C406.341 230.077 406.66 230.341 406.866 230.686C407.071 231.027 407.174 231.44 407.174 231.925V237H405.739L405.599 235.698C405.342 236.244 405.013 236.622 404.612 236.832C404.215 237.037 403.76 237.14 403.247 237.14ZM403.8 235.985C404.01 235.985 404.217 235.948 404.423 235.873C404.628 235.794 404.812 235.689 404.976 235.558C405.144 235.423 405.277 235.273 405.375 235.11C405.477 234.947 405.531 234.776 405.536 234.599V233.458L404.647 233.472C404.208 233.477 403.823 233.523 403.492 233.612C403.165 233.701 402.911 233.843 402.729 234.039C402.547 234.23 402.456 234.487 402.456 234.809C402.456 235.178 402.584 235.467 402.841 235.677C403.097 235.882 403.417 235.985 403.8 235.985ZM408.987 237V229.762H410.646V230.798C410.856 230.481 411.141 230.205 411.5 229.972C411.864 229.739 412.326 229.622 412.886 229.622C413.143 229.622 413.402 229.666 413.663 229.755C413.929 229.844 414.174 229.974 414.398 230.147C414.627 230.32 414.809 230.534 414.944 230.791C415.173 230.45 415.476 230.17 415.854 229.951C416.237 229.732 416.666 229.622 417.142 229.622C417.404 229.622 417.672 229.664 417.947 229.748C418.227 229.832 418.484 229.972 418.717 230.168C418.951 230.364 419.14 230.632 419.284 230.973C419.429 231.309 419.501 231.731 419.501 232.24V237H417.8V232.443C417.8 232.084 417.737 231.801 417.611 231.596C417.485 231.391 417.322 231.246 417.121 231.162C416.925 231.073 416.715 231.029 416.491 231.029C416.291 231.029 416.081 231.069 415.861 231.148C415.647 231.227 415.462 231.358 415.308 231.54C415.159 231.722 415.084 231.967 415.084 232.275V237H413.383V232.17C413.383 231.918 413.318 231.708 413.187 231.54C413.057 231.372 412.891 231.246 412.69 231.162C412.494 231.073 412.294 231.029 412.088 231.029C411.878 231.029 411.664 231.073 411.444 231.162C411.23 231.251 411.05 231.386 410.905 231.568C410.761 231.75 410.688 231.986 410.688 232.275V237H408.987ZM424.532 237.14C423.837 237.14 423.223 236.993 422.691 236.699C422.164 236.4 421.751 235.976 421.452 235.425C421.158 234.874 421.011 234.219 421.011 233.458C421.011 232.716 421.144 232.058 421.41 231.484C421.681 230.905 422.071 230.45 422.579 230.119C423.093 229.788 423.711 229.622 424.434 229.622C425.148 229.622 425.748 229.774 426.233 230.077C426.719 230.38 427.087 230.805 427.339 231.351C427.591 231.892 427.717 232.527 427.717 233.255V233.773H422.712C422.708 234.184 422.773 234.548 422.908 234.865C423.044 235.182 423.244 235.432 423.51 235.614C423.776 235.791 424.105 235.88 424.497 235.88C424.899 235.88 425.246 235.791 425.54 235.614C425.839 235.432 426.037 235.157 426.135 234.788H427.689C427.605 235.292 427.405 235.719 427.087 236.069C426.775 236.419 426.392 236.685 425.939 236.867C425.491 237.049 425.022 237.14 424.532 237.14ZM422.705 232.716H426.107C426.107 232.366 426.044 232.051 425.918 231.771C425.797 231.486 425.613 231.262 425.365 231.099C425.118 230.931 424.805 230.847 424.427 230.847C424.054 230.847 423.739 230.938 423.482 231.12C423.226 231.302 423.032 231.538 422.901 231.827C422.771 232.112 422.705 232.408 422.705 232.716ZM429.107 231.932V229.986H431.032V231.932H429.107ZM429.107 236.958V235.026H431.032V236.958H429.107ZM439.922 237.14C439.418 237.14 438.935 237.079 438.473 236.958C438.011 236.832 437.589 236.648 437.206 236.405C436.828 236.158 436.516 235.852 436.268 235.488C436.021 235.119 435.869 234.69 435.813 234.2H437.577C437.652 234.541 437.799 234.828 438.018 235.061C438.242 235.294 438.525 235.472 438.865 235.593C439.206 235.714 439.586 235.775 440.006 235.775C440.38 235.775 440.727 235.719 441.049 235.607C441.371 235.495 441.633 235.329 441.833 235.11C442.034 234.886 442.134 234.611 442.134 234.284C442.134 233.915 442.004 233.628 441.742 233.423C441.486 233.213 441.117 233.047 440.636 232.926L438.655 232.457C438.142 232.34 437.694 232.17 437.311 231.946C436.933 231.722 436.639 231.428 436.429 231.064C436.219 230.695 436.114 230.245 436.114 229.713C436.114 229.106 436.28 228.581 436.611 228.138C436.947 227.695 437.402 227.354 437.976 227.116C438.55 226.873 439.197 226.752 439.915 226.752C440.737 226.752 441.43 226.89 441.994 227.165C442.559 227.436 442.988 227.8 443.282 228.257C443.576 228.714 443.726 229.216 443.73 229.762H442.008C441.971 229.356 441.852 229.036 441.651 228.803C441.451 228.565 441.196 228.392 440.888 228.285C440.58 228.178 440.24 228.124 439.866 228.124C439.204 228.124 438.711 228.266 438.389 228.551C438.067 228.836 437.906 229.169 437.906 229.552C437.906 229.911 438.025 230.196 438.263 230.406C438.501 230.616 438.865 230.779 439.355 230.896L441.238 231.337C441.868 231.468 442.375 231.668 442.757 231.939C443.14 232.21 443.418 232.532 443.59 232.905C443.768 233.274 443.856 233.682 443.856 234.13C443.856 234.718 443.688 235.238 443.352 235.691C443.021 236.144 442.561 236.498 441.973 236.755C441.385 237.012 440.702 237.14 439.922 237.14ZM447.928 237V228.411H444.778V226.878H452.674V228.411H449.636V237H447.928ZM454.2 237V226.878H458.309C459.083 226.878 459.72 226.999 460.22 227.242C460.724 227.48 461.097 227.818 461.34 228.257C461.582 228.691 461.704 229.2 461.704 229.783C461.704 230.324 461.615 230.779 461.438 231.148C461.26 231.512 461.029 231.811 460.745 232.044C460.465 232.273 460.164 232.459 459.842 232.604L461.774 237H459.996L458.253 232.891H455.901V237H454.2ZM455.901 231.54H457.924C458.568 231.54 459.069 231.391 459.429 231.092C459.793 230.793 459.975 230.378 459.975 229.846C459.975 229.323 459.807 228.92 459.471 228.635C459.135 228.35 458.691 228.208 458.141 228.208H455.901V231.54ZM463.811 237V226.878H465.512V237H463.811ZM467.967 237V226.878H469.633L474.589 234.109V226.878H476.29V237H474.757L469.668 229.573V237H467.967ZM482.661 237.14C481.755 237.14 480.969 236.932 480.302 236.517C479.634 236.102 479.121 235.509 478.762 234.739C478.402 233.964 478.223 233.04 478.223 231.967C478.223 230.884 478.409 229.951 478.783 229.167C479.156 228.383 479.681 227.783 480.358 227.368C481.039 226.948 481.837 226.738 482.752 226.738C483.312 226.738 483.827 226.831 484.299 227.018C484.775 227.205 485.19 227.457 485.545 227.774C485.904 228.091 486.186 228.453 486.392 228.859C486.597 229.265 486.711 229.687 486.735 230.126H484.936C484.87 229.781 484.737 229.463 484.537 229.174C484.341 228.88 484.086 228.644 483.774 228.467C483.466 228.29 483.113 228.201 482.717 228.201C482.208 228.201 481.753 228.329 481.352 228.586C480.955 228.843 480.642 229.246 480.414 229.797C480.19 230.343 480.078 231.052 480.078 231.925C480.078 232.616 480.148 233.199 480.288 233.675C480.432 234.146 480.628 234.527 480.876 234.816C481.128 235.101 481.417 235.308 481.744 235.439C482.07 235.565 482.416 235.628 482.78 235.628C483.134 235.628 483.447 235.567 483.718 235.446C483.988 235.325 484.217 235.166 484.404 234.97C484.595 234.774 484.742 234.564 484.845 234.34C484.952 234.111 485.015 233.89 485.034 233.675L485.097 232.933H482.836V231.729L486.875 231.743V237H485.671V235.579C485.498 235.836 485.279 236.083 485.013 236.321C484.751 236.559 484.429 236.755 484.047 236.909C483.669 237.063 483.207 237.14 482.661 237.14Z" fill="black" style="fill:black;fill-opacity:1;"/>
</svg>
