<svg width="706" height="189" viewBox="0 0 706 189" fill="none" xmlns="http://www.w3.org/2000/svg">
<path d="M0 64.5C0 29.1538 28.6538 0.5 64 0.5C99.3462 0.5 128 29.1538 128 64.5C128 99.8462 99.3462 128.5 64 128.5C28.6538 128.5 0 99.8462 0 64.5Z" fill="#F16767" style="fill:#F16767;fill:color(display-p3 0.9451 0.4039 0.4039);fill-opacity:1;"/>
<path d="M42.7237 61.5V51.378H46.1467C46.8701 51.378 47.5141 51.4993 48.0787 51.742C48.6434 51.9847 49.0867 52.344 49.4087 52.82C49.7354 53.296 49.8987 53.8817 49.8987 54.577C49.8987 55.249 49.7471 55.823 49.4437 56.299C49.1451 56.775 48.7274 57.1367 48.1907 57.384C47.6541 57.6313 47.0311 57.755 46.3217 57.755H44.0537V61.5H42.7237ZM44.0467 56.663H46.2937C46.9891 56.663 47.5537 56.4693 47.9877 56.082C48.4217 55.6947 48.6387 55.1673 48.6387 54.5C48.6387 53.828 48.4147 53.3193 47.9667 52.974C47.5187 52.6287 46.9401 52.456 46.2307 52.456H44.0467V56.663ZM54.3077 61.64C53.6357 61.64 53.0431 61.493 52.5297 61.199C52.0164 60.905 51.6151 60.4827 51.3257 59.932C51.0364 59.3813 50.8917 58.721 50.8917 57.951C50.8917 57.1903 51.0224 56.523 51.2837 55.949C51.5451 55.375 51.9231 54.927 52.4177 54.605C52.9171 54.283 53.5167 54.122 54.2167 54.122C54.8981 54.122 55.4744 54.269 55.9457 54.563C56.4171 54.857 56.7741 55.2723 57.0167 55.809C57.2641 56.341 57.3877 56.9733 57.3877 57.706V58.182H52.2007C52.2007 58.6393 52.2754 59.0547 52.4247 59.428C52.5787 59.7967 52.8097 60.0907 53.1177 60.31C53.4257 60.5293 53.8154 60.639 54.2867 60.639C54.7487 60.639 55.1454 60.5317 55.4767 60.317C55.8127 60.1023 56.0274 59.792 56.1207 59.386H57.3387C57.2547 59.876 57.0587 60.289 56.7507 60.625C56.4474 60.961 56.0811 61.2153 55.6517 61.388C55.2271 61.556 54.7791 61.64 54.3077 61.64ZM52.2077 57.307H56.1417C56.1417 56.8917 56.0717 56.5183 55.9317 56.187C55.7917 55.851 55.5771 55.5873 55.2877 55.396C55.0031 55.2 54.6437 55.102 54.2097 55.102C53.7571 55.102 53.3814 55.2117 53.0827 55.431C52.7841 55.6457 52.5624 55.9233 52.4177 56.264C52.2731 56.6 52.2031 56.9477 52.2077 57.307ZM59.1784 61.5V54.262H60.4104V55.655C60.5318 55.3097 60.7021 55.025 60.9214 54.801C61.1408 54.5723 61.3904 54.402 61.6704 54.29C61.9551 54.178 62.2491 54.122 62.5524 54.122C62.6598 54.122 62.7648 54.129 62.8674 54.143C62.9701 54.157 63.0494 54.1803 63.1054 54.213V55.466C63.0354 55.4333 62.9444 55.4123 62.8324 55.403C62.7251 55.389 62.6341 55.382 62.5594 55.382C62.2701 55.3633 61.9994 55.382 61.7474 55.438C61.4954 55.4893 61.2738 55.5803 61.0824 55.711C60.8911 55.8417 60.7394 56.0143 60.6274 56.229C60.5201 56.439 60.4664 56.6957 60.4664 56.999V61.5H59.1784ZM67.2102 61.64C66.7062 61.64 66.2372 61.563 65.8032 61.409C65.3738 61.2503 65.0168 61.0053 64.7322 60.674C64.4475 60.338 64.2702 59.911 64.2002 59.393H65.3762C65.4368 59.6777 65.5535 59.9157 65.7262 60.107C65.8988 60.2937 66.1112 60.436 66.3632 60.534C66.6198 60.6273 66.8998 60.674 67.2032 60.674C67.6932 60.674 68.0875 60.583 68.3862 60.401C68.6848 60.219 68.8342 59.939 68.8342 59.561C68.8342 59.295 68.7548 59.0827 68.5962 58.924C68.4422 58.7607 68.1995 58.6417 67.8682 58.567L66.3702 58.196C65.7868 58.056 65.3202 57.8367 64.9702 57.538C64.6248 57.2393 64.4498 56.8217 64.4452 56.285C64.4452 55.8603 64.5478 55.487 64.7532 55.165C64.9585 54.843 65.2642 54.5887 65.6702 54.402C66.0808 54.2153 66.5918 54.122 67.2032 54.122C67.9918 54.122 68.6265 54.2993 69.1072 54.654C69.5878 55.004 69.8398 55.5197 69.8632 56.201H68.7152C68.6685 55.8557 68.5145 55.5827 68.2532 55.382C67.9918 55.1767 67.6372 55.074 67.1892 55.074C66.7318 55.074 66.3562 55.1673 66.0622 55.354C65.7728 55.536 65.6282 55.8207 65.6282 56.208C65.6282 56.4647 65.7308 56.6677 65.9362 56.817C66.1462 56.9617 66.4495 57.083 66.8462 57.181L68.3022 57.545C68.6335 57.6337 68.9088 57.7503 69.1282 57.895C69.3475 58.0397 69.5202 58.2007 69.6462 58.378C69.7722 58.5553 69.8608 58.742 69.9122 58.938C69.9682 59.1293 69.9962 59.3137 69.9962 59.491C69.9962 59.9343 69.8865 60.317 69.6672 60.639C69.4478 60.9563 69.1305 61.2037 68.7152 61.381C68.2998 61.5537 67.7982 61.64 67.2102 61.64ZM74.5862 61.64C73.9189 61.64 73.3355 61.4977 72.8362 61.213C72.3415 60.9237 71.9565 60.5013 71.6812 59.946C71.4059 59.3907 71.2682 58.7117 71.2682 57.909C71.2682 57.153 71.3965 56.4903 71.6532 55.921C71.9099 55.3517 72.2855 54.9107 72.7802 54.598C73.2749 54.2807 73.8792 54.122 74.5932 54.122C75.2605 54.122 75.8392 54.269 76.3292 54.563C76.8192 54.8523 77.1995 55.2793 77.4702 55.844C77.7455 56.4087 77.8832 57.097 77.8832 57.909C77.8832 58.6463 77.7572 59.295 77.5052 59.855C77.2532 60.415 76.8822 60.8537 76.3922 61.171C75.9069 61.4837 75.3049 61.64 74.5862 61.64ZM74.5932 60.618C75.0225 60.618 75.3865 60.5083 75.6852 60.289C75.9839 60.0697 76.2102 59.7547 76.3642 59.344C76.5229 58.9333 76.6022 58.4457 76.6022 57.881C76.6022 57.363 76.5322 56.8987 76.3922 56.488C76.2569 56.0727 76.0422 55.7437 75.7482 55.501C75.4542 55.2583 75.0692 55.137 74.5932 55.137C74.1545 55.137 73.7835 55.2467 73.4802 55.466C73.1769 55.6807 72.9459 55.9933 72.7872 56.404C72.6332 56.8147 72.5562 57.307 72.5562 57.881C72.5562 58.3897 72.6239 58.8517 72.7592 59.267C72.8992 59.6823 73.1185 60.0113 73.4172 60.254C73.7205 60.4967 74.1125 60.618 74.5932 60.618ZM79.6042 61.5V54.262H80.8572V55.312C80.9739 55.1113 81.1349 54.9223 81.3402 54.745C81.5502 54.5677 81.8022 54.4253 82.0962 54.318C82.3949 54.2107 82.7379 54.157 83.1252 54.157C83.5825 54.157 84.0025 54.248 84.3852 54.43C84.7725 54.612 85.0805 54.8967 85.3092 55.284C85.5425 55.6667 85.6592 56.1613 85.6592 56.768V61.5H84.3642V56.894C84.3642 56.3293 84.2149 55.9117 83.9162 55.641C83.6222 55.3657 83.2395 55.228 82.7682 55.228C82.4415 55.228 82.1359 55.2817 81.8512 55.389C81.5665 55.4917 81.3355 55.6503 81.1582 55.865C80.9809 56.075 80.8922 56.341 80.8922 56.663V61.5H79.6042ZM46.746 77.5L50.407 67.378H51.87L55.531 77.5H54.208L53.214 74.728H49.063L48.062 77.5H46.746ZM49.406 73.538H52.857L51.135 68.645L49.406 73.538ZM59.8961 77.64C59.2428 77.64 58.6641 77.4977 58.1601 77.213C57.6608 76.9283 57.2688 76.5083 56.9841 75.953C56.7041 75.3977 56.5641 74.7163 56.5641 73.909C56.5641 73.153 56.6924 72.4927 56.9491 71.928C57.2104 71.3587 57.5884 70.9153 58.0831 70.598C58.5824 70.2807 59.1868 70.122 59.8961 70.122C60.4141 70.122 60.8784 70.2223 61.2891 70.423C61.7044 70.619 62.0451 70.899 62.3111 71.263C62.5771 71.627 62.7404 72.0563 62.8011 72.551H61.6531C61.6111 72.299 61.5131 72.068 61.3591 71.858C61.2098 71.648 61.0114 71.48 60.7641 71.354C60.5214 71.228 60.2344 71.165 59.9031 71.165C59.2824 71.165 58.7761 71.389 58.3841 71.837C57.9968 72.285 57.8031 72.971 57.8031 73.895C57.8031 74.7303 57.9804 75.4 58.3351 75.904C58.6944 76.4033 59.2218 76.653 59.9171 76.653C60.2484 76.653 60.5378 76.59 60.7851 76.464C61.0324 76.3333 61.2308 76.163 61.3801 75.953C61.5294 75.7383 61.6251 75.5097 61.6671 75.267H62.7941C62.7334 75.7523 62.5678 76.1723 62.2971 76.527C62.0311 76.8817 61.6904 77.157 61.2751 77.353C60.8644 77.5443 60.4048 77.64 59.8961 77.64ZM66.9242 77.535C66.4249 77.535 66.0375 77.4673 65.7622 77.332C65.4869 77.1967 65.2932 76.996 65.1812 76.73C65.0739 76.464 65.0202 76.1373 65.0202 75.75V71.207H63.8442V70.262H65.0552L65.3702 68.155H66.3222V70.255H67.9532V71.207H66.3222V75.708C66.3222 75.9647 66.3479 76.1537 66.3992 76.275C66.4552 76.3917 66.5462 76.4663 66.6722 76.499C66.7982 76.5317 66.9755 76.548 67.2042 76.548H67.9952V77.416C67.9065 77.4487 67.7712 77.4767 67.5892 77.5C67.4119 77.5233 67.1902 77.535 66.9242 77.535ZM72.4192 77.64C71.7519 77.64 71.1685 77.4977 70.6692 77.213C70.1745 76.9237 69.7895 76.5013 69.5142 75.946C69.2389 75.3907 69.1012 74.7117 69.1012 73.909C69.1012 73.153 69.2295 72.4903 69.4862 71.921C69.7429 71.3517 70.1185 70.9107 70.6132 70.598C71.1079 70.2807 71.7122 70.122 72.4262 70.122C73.0935 70.122 73.6722 70.269 74.1622 70.563C74.6522 70.8523 75.0325 71.2793 75.3032 71.844C75.5785 72.4087 75.7162 73.097 75.7162 73.909C75.7162 74.6463 75.5902 75.295 75.3382 75.855C75.0862 76.415 74.7152 76.8537 74.2252 77.171C73.7399 77.4837 73.1379 77.64 72.4192 77.64ZM72.4262 76.618C72.8555 76.618 73.2195 76.5083 73.5182 76.289C73.8169 76.0697 74.0432 75.7547 74.1972 75.344C74.3559 74.9333 74.4352 74.4457 74.4352 73.881C74.4352 73.363 74.3652 72.8987 74.2252 72.488C74.0899 72.0727 73.8752 71.7437 73.5812 71.501C73.2872 71.2583 72.9022 71.137 72.4262 71.137C71.9875 71.137 71.6165 71.2467 71.3132 71.466C71.0099 71.6807 70.7789 71.9933 70.6202 72.404C70.4662 72.8147 70.3892 73.307 70.3892 73.881C70.3892 74.3897 70.4569 74.8517 70.5922 75.267C70.7322 75.6823 70.9515 76.0113 71.2502 76.254C71.5535 76.4967 71.9455 76.618 72.4262 76.618ZM77.4372 77.5V70.262H78.6692V71.655C78.7905 71.3097 78.9609 71.025 79.1802 70.801C79.3995 70.5723 79.6492 70.402 79.9292 70.29C80.2139 70.178 80.5079 70.122 80.8112 70.122C80.9185 70.122 81.0235 70.129 81.1262 70.143C81.2289 70.157 81.3082 70.1803 81.3642 70.213V71.466C81.2942 71.4333 81.2032 71.4123 81.0912 71.403C80.9839 71.389 80.8929 71.382 80.8182 71.382C80.5289 71.3633 80.2582 71.382 80.0062 71.438C79.7542 71.4893 79.5325 71.5803 79.3412 71.711C79.1499 71.8417 78.9982 72.0143 78.8862 72.229C78.7789 72.439 78.7252 72.6957 78.7252 72.999V77.5H77.4372Z" fill="white" style="fill:white;fill-opacity:1;"/>
<path d="M295 64.5C295 29.1538 323.654 0.5 359 0.5C394.346 0.5 423 29.1538 423 64.5C423 99.8462 394.346 128.5 359 128.5C323.654 128.5 295 99.8462 295 64.5Z" fill="#56C7E4" style="fill:#56C7E4;fill:color(display-p3 0.3373 0.7804 0.8941);fill-opacity:1;"/>
<path d="M341.066 69.5V59.378H342.858L345.91 67.736L349.004 59.378H350.789V69.5H349.452V61.317L346.519 69.5H345.308L342.396 61.394V69.5H341.066ZM356.003 69.64C355.336 69.64 354.753 69.4977 354.253 69.213C353.759 68.9237 353.374 68.5013 353.098 67.946C352.823 67.3907 352.685 66.7117 352.685 65.909C352.685 65.153 352.814 64.4903 353.07 63.921C353.327 63.3517 353.703 62.9107 354.197 62.598C354.692 62.2807 355.296 62.122 356.01 62.122C356.678 62.122 357.256 62.269 357.746 62.563C358.236 62.8523 358.617 63.2793 358.887 63.844C359.163 64.4087 359.3 65.097 359.3 65.909C359.3 66.6463 359.174 67.295 358.922 67.855C358.67 68.415 358.299 68.8537 357.809 69.171C357.324 69.4837 356.722 69.64 356.003 69.64ZM356.01 68.618C356.44 68.618 356.804 68.5083 357.102 68.289C357.401 68.0697 357.627 67.7547 357.781 67.344C357.94 66.9333 358.019 66.4457 358.019 65.881C358.019 65.363 357.949 64.8987 357.809 64.488C357.674 64.0727 357.459 63.7437 357.165 63.501C356.871 63.2583 356.486 63.137 356.01 63.137C355.572 63.137 355.201 63.2467 354.897 63.466C354.594 63.6807 354.363 63.9933 354.204 64.404C354.05 64.8147 353.973 65.307 353.973 65.881C353.973 66.3897 354.041 66.8517 354.176 67.267C354.316 67.6823 354.536 68.0113 354.834 68.254C355.138 68.4967 355.53 68.618 356.01 68.618ZM362.76 69.5L360.142 62.262H361.36L363.285 67.876H363.404L365.336 62.262H366.547L363.943 69.5H362.76ZM367.988 69.5V62.262H369.241V69.5H367.988ZM367.953 60.729V59.385H369.276V60.729H367.953ZM374.471 69.64C373.799 69.64 373.206 69.493 372.693 69.199C372.179 68.905 371.778 68.4827 371.489 67.932C371.199 67.3813 371.055 66.721 371.055 65.951C371.055 65.1903 371.185 64.523 371.447 63.949C371.708 63.375 372.086 62.927 372.581 62.605C373.08 62.283 373.68 62.122 374.38 62.122C375.061 62.122 375.637 62.269 376.109 62.563C376.58 62.857 376.937 63.2723 377.18 63.809C377.427 64.341 377.551 64.9733 377.551 65.706V66.182H372.364C372.364 66.6393 372.438 67.0547 372.588 67.428C372.742 67.7967 372.973 68.0907 373.281 68.31C373.589 68.5293 373.978 68.639 374.45 68.639C374.912 68.639 375.308 68.5317 375.64 68.317C375.976 68.1023 376.19 67.792 376.284 67.386H377.502C377.418 67.876 377.222 68.289 376.914 68.625C376.61 68.961 376.244 69.2153 375.815 69.388C375.39 69.556 374.942 69.64 374.471 69.64ZM372.371 65.307H376.305C376.305 64.8917 376.235 64.5183 376.095 64.187C375.955 63.851 375.74 63.5873 375.451 63.396C375.166 63.2 374.807 63.102 374.373 63.102C373.92 63.102 373.544 63.2117 373.246 63.431C372.947 63.6457 372.725 63.9233 372.581 64.264C372.436 64.6 372.366 64.9477 372.371 65.307Z" fill="#1A1B1D" style="fill:#1A1B1D;fill:color(display-p3 0.1020 0.1059 0.1137);fill-opacity:1;"/>
<path d="M578 64.5C578 29.1538 606.654 0.5 642 0.5C677.346 0.5 706 29.1538 706 64.5C706 99.8462 677.346 128.5 642 128.5C606.654 128.5 578 99.8462 578 64.5Z" fill="#F16767" style="fill:#F16767;fill:color(display-p3 0.9451 0.4039 0.4039);fill-opacity:1;"/>
<path d="M620.724 61.5V51.378H624.147C624.87 51.378 625.514 51.4993 626.079 51.742C626.643 51.9847 627.087 52.344 627.409 52.82C627.735 53.296 627.899 53.8817 627.899 54.577C627.899 55.249 627.747 55.823 627.444 56.299C627.145 56.775 626.727 57.1367 626.191 57.384C625.654 57.6313 625.031 57.755 624.322 57.755H622.054V61.5H620.724ZM622.047 56.663H624.294C624.989 56.663 625.554 56.4693 625.988 56.082C626.422 55.6947 626.639 55.1673 626.639 54.5C626.639 53.828 626.415 53.3193 625.967 52.974C625.519 52.6287 624.94 52.456 624.231 52.456H622.047V56.663ZM632.308 61.64C631.636 61.64 631.043 61.493 630.53 61.199C630.016 60.905 629.615 60.4827 629.326 59.932C629.036 59.3813 628.892 58.721 628.892 57.951C628.892 57.1903 629.022 56.523 629.284 55.949C629.545 55.375 629.923 54.927 630.418 54.605C630.917 54.283 631.517 54.122 632.217 54.122C632.898 54.122 633.474 54.269 633.946 54.563C634.417 54.857 634.774 55.2723 635.017 55.809C635.264 56.341 635.388 56.9733 635.388 57.706V58.182H630.201C630.201 58.6393 630.275 59.0547 630.425 59.428C630.579 59.7967 630.81 60.0907 631.118 60.31C631.426 60.5293 631.815 60.639 632.287 60.639C632.749 60.639 633.145 60.5317 633.477 60.317C633.813 60.1023 634.027 59.792 634.121 59.386H635.339C635.255 59.876 635.059 60.289 634.751 60.625C634.447 60.961 634.081 61.2153 633.652 61.388C633.227 61.556 632.779 61.64 632.308 61.64ZM630.208 57.307H634.142C634.142 56.8917 634.072 56.5183 633.932 56.187C633.792 55.851 633.577 55.5873 633.288 55.396C633.003 55.2 632.644 55.102 632.21 55.102C631.757 55.102 631.381 55.2117 631.083 55.431C630.784 55.6457 630.562 55.9233 630.418 56.264C630.273 56.6 630.203 56.9477 630.208 57.307ZM637.178 61.5V54.262H638.41V55.655C638.532 55.3097 638.702 55.025 638.921 54.801C639.141 54.5723 639.39 54.402 639.67 54.29C639.955 54.178 640.249 54.122 640.552 54.122C640.66 54.122 640.765 54.129 640.867 54.143C640.97 54.157 641.049 54.1803 641.105 54.213V55.466C641.035 55.4333 640.944 55.4123 640.832 55.403C640.725 55.389 640.634 55.382 640.559 55.382C640.27 55.3633 639.999 55.382 639.747 55.438C639.495 55.4893 639.274 55.5803 639.082 55.711C638.891 55.8417 638.739 56.0143 638.627 56.229C638.52 56.439 638.466 56.6957 638.466 56.999V61.5H637.178ZM645.21 61.64C644.706 61.64 644.237 61.563 643.803 61.409C643.374 61.2503 643.017 61.0053 642.732 60.674C642.447 60.338 642.27 59.911 642.2 59.393H643.376C643.437 59.6777 643.553 59.9157 643.726 60.107C643.899 60.2937 644.111 60.436 644.363 60.534C644.62 60.6273 644.9 60.674 645.203 60.674C645.693 60.674 646.087 60.583 646.386 60.401C646.685 60.219 646.834 59.939 646.834 59.561C646.834 59.295 646.755 59.0827 646.596 58.924C646.442 58.7607 646.199 58.6417 645.868 58.567L644.37 58.196C643.787 58.056 643.32 57.8367 642.97 57.538C642.625 57.2393 642.45 56.8217 642.445 56.285C642.445 55.8603 642.548 55.487 642.753 55.165C642.958 54.843 643.264 54.5887 643.67 54.402C644.081 54.2153 644.592 54.122 645.203 54.122C645.992 54.122 646.626 54.2993 647.107 54.654C647.588 55.004 647.84 55.5197 647.863 56.201H646.715C646.668 55.8557 646.514 55.5827 646.253 55.382C645.992 55.1767 645.637 55.074 645.189 55.074C644.732 55.074 644.356 55.1673 644.062 55.354C643.773 55.536 643.628 55.8207 643.628 56.208C643.628 56.4647 643.731 56.6677 643.936 56.817C644.146 56.9617 644.449 57.083 644.846 57.181L646.302 57.545C646.633 57.6337 646.909 57.7503 647.128 57.895C647.347 58.0397 647.52 58.2007 647.646 58.378C647.772 58.5553 647.861 58.742 647.912 58.938C647.968 59.1293 647.996 59.3137 647.996 59.491C647.996 59.9343 647.886 60.317 647.667 60.639C647.448 60.9563 647.13 61.2037 646.715 61.381C646.3 61.5537 645.798 61.64 645.21 61.64ZM652.586 61.64C651.919 61.64 651.336 61.4977 650.836 61.213C650.342 60.9237 649.957 60.5013 649.681 59.946C649.406 59.3907 649.268 58.7117 649.268 57.909C649.268 57.153 649.397 56.4903 649.653 55.921C649.91 55.3517 650.286 54.9107 650.78 54.598C651.275 54.2807 651.879 54.122 652.593 54.122C653.261 54.122 653.839 54.269 654.329 54.563C654.819 54.8523 655.2 55.2793 655.47 55.844C655.746 56.4087 655.883 57.097 655.883 57.909C655.883 58.6463 655.757 59.295 655.505 59.855C655.253 60.415 654.882 60.8537 654.392 61.171C653.907 61.4837 653.305 61.64 652.586 61.64ZM652.593 60.618C653.023 60.618 653.387 60.5083 653.685 60.289C653.984 60.0697 654.21 59.7547 654.364 59.344C654.523 58.9333 654.602 58.4457 654.602 57.881C654.602 57.363 654.532 56.8987 654.392 56.488C654.257 56.0727 654.042 55.7437 653.748 55.501C653.454 55.2583 653.069 55.137 652.593 55.137C652.155 55.137 651.784 55.2467 651.48 55.466C651.177 55.6807 650.946 55.9933 650.787 56.404C650.633 56.8147 650.556 57.307 650.556 57.881C650.556 58.3897 650.624 58.8517 650.759 59.267C650.899 59.6823 651.119 60.0113 651.417 60.254C651.721 60.4967 652.113 60.618 652.593 60.618ZM657.604 61.5V54.262H658.857V55.312C658.974 55.1113 659.135 54.9223 659.34 54.745C659.55 54.5677 659.802 54.4253 660.096 54.318C660.395 54.2107 660.738 54.157 661.125 54.157C661.583 54.157 662.003 54.248 662.385 54.43C662.773 54.612 663.081 54.8967 663.309 55.284C663.543 55.6667 663.659 56.1613 663.659 56.768V61.5H662.364V56.894C662.364 56.3293 662.215 55.9117 661.916 55.641C661.622 55.3657 661.24 55.228 660.768 55.228C660.442 55.228 660.136 55.2817 659.851 55.389C659.567 55.4917 659.336 55.6503 659.158 55.865C658.981 56.075 658.892 56.341 658.892 56.663V61.5H657.604ZM617.108 77.5V67.378C617.14 67.378 617.238 67.3803 617.402 67.385C617.57 67.385 617.773 67.385 618.011 67.385C618.249 67.3803 618.496 67.3803 618.753 67.385C619.009 67.385 619.245 67.3873 619.46 67.392C620.701 67.4107 621.707 67.6137 622.477 68.001C623.251 68.3837 623.818 68.9413 624.178 69.674C624.542 70.4067 624.724 71.3073 624.724 72.376C624.724 73.496 624.528 74.4363 624.136 75.197C623.748 75.9577 623.156 76.5317 622.358 76.919C621.564 77.3063 620.554 77.5 619.327 77.5H617.108ZM618.438 76.387H619.327C620.162 76.387 620.881 76.2587 621.483 76.002C622.085 75.7407 622.547 75.3183 622.869 74.735C623.195 74.1517 623.359 73.3723 623.359 72.397C623.359 71.4217 623.2 70.6493 622.883 70.08C622.57 69.5107 622.117 69.1047 621.525 68.862C620.932 68.6147 620.218 68.491 619.383 68.491H618.438V76.387ZM626.584 77.5V70.262H627.837V77.5H626.584ZM626.549 68.729V67.385H627.872V68.729H626.549ZM630.09 77.5V70.262H631.322V71.655C631.443 71.3097 631.613 71.025 631.833 70.801C632.052 70.5723 632.302 70.402 632.582 70.29C632.866 70.178 633.16 70.122 633.464 70.122C633.571 70.122 633.676 70.129 633.779 70.143C633.881 70.157 633.961 70.1803 634.017 70.213V71.466C633.947 71.4333 633.856 71.4123 633.744 71.403C633.636 71.389 633.545 71.382 633.471 71.382C633.181 71.3633 632.911 71.382 632.659 71.438C632.407 71.4893 632.185 71.5803 631.994 71.711C631.802 71.8417 631.651 72.0143 631.539 72.229C631.431 72.439 631.378 72.6957 631.378 72.999V77.5H630.09ZM638.508 77.64C637.836 77.64 637.243 77.493 636.73 77.199C636.217 76.905 635.815 76.4827 635.526 75.932C635.237 75.3813 635.092 74.721 635.092 73.951C635.092 73.1903 635.223 72.523 635.484 71.949C635.745 71.375 636.123 70.927 636.618 70.605C637.117 70.283 637.717 70.122 638.417 70.122C639.098 70.122 639.675 70.269 640.146 70.563C640.617 70.857 640.974 71.2723 641.217 71.809C641.464 72.341 641.588 72.9733 641.588 73.706V74.182H636.401C636.401 74.6393 636.476 75.0547 636.625 75.428C636.779 75.7967 637.01 76.0907 637.318 76.31C637.626 76.5293 638.016 76.639 638.487 76.639C638.949 76.639 639.346 76.5317 639.677 76.317C640.013 76.1023 640.228 75.792 640.321 75.386H641.539C641.455 75.876 641.259 76.289 640.951 76.625C640.648 76.961 640.281 77.2153 639.852 77.388C639.427 77.556 638.979 77.64 638.508 77.64ZM636.408 73.307H640.342C640.342 72.8917 640.272 72.5183 640.132 72.187C639.992 71.851 639.777 71.5873 639.488 71.396C639.203 71.2 638.844 71.102 638.41 71.102C637.957 71.102 637.582 71.2117 637.283 71.431C636.984 71.6457 636.763 71.9233 636.618 72.264C636.473 72.6 636.403 72.9477 636.408 73.307ZM646.291 77.64C645.637 77.64 645.059 77.4977 644.555 77.213C644.055 76.9283 643.663 76.5083 643.379 75.953C643.099 75.3977 642.959 74.7163 642.959 73.909C642.959 73.153 643.087 72.4927 643.344 71.928C643.605 71.3587 643.983 70.9153 644.478 70.598C644.977 70.2807 645.581 70.122 646.291 70.122C646.809 70.122 647.273 70.2223 647.684 70.423C648.099 70.619 648.44 70.899 648.706 71.263C648.972 71.627 649.135 72.0563 649.196 72.551H648.048C648.006 72.299 647.908 72.068 647.754 71.858C647.604 71.648 647.406 71.48 647.159 71.354C646.916 71.228 646.629 71.165 646.298 71.165C645.677 71.165 645.171 71.389 644.779 71.837C644.391 72.285 644.198 72.971 644.198 73.895C644.198 74.7303 644.375 75.4 644.73 75.904C645.089 76.4033 645.616 76.653 646.312 76.653C646.643 76.653 646.932 76.59 647.18 76.464C647.427 76.3333 647.625 76.163 647.775 75.953C647.924 75.7383 648.02 75.5097 648.062 75.267H649.189C649.128 75.7523 648.962 76.1723 648.692 76.527C648.426 76.8817 648.085 77.157 647.67 77.353C647.259 77.5443 646.799 77.64 646.291 77.64ZM653.319 77.535C652.819 77.535 652.432 77.4673 652.157 77.332C651.881 77.1967 651.688 76.996 651.576 76.73C651.468 76.464 651.415 76.1373 651.415 75.75V71.207H650.239V70.262H651.45L651.765 68.155H652.717V70.255H654.348V71.207H652.717V75.708C652.717 75.9647 652.742 76.1537 652.794 76.275C652.85 76.3917 652.941 76.4663 653.067 76.499C653.193 76.5317 653.37 76.548 653.599 76.548H654.39V77.416C654.301 77.4487 654.166 77.4767 653.984 77.5C653.806 77.5233 653.585 77.535 653.319 77.535ZM658.814 77.64C658.146 77.64 657.563 77.4977 657.064 77.213C656.569 76.9237 656.184 76.5013 655.909 75.946C655.633 75.3907 655.496 74.7117 655.496 73.909C655.496 73.153 655.624 72.4903 655.881 71.921C656.137 71.3517 656.513 70.9107 657.008 70.598C657.502 70.2807 658.107 70.122 658.821 70.122C659.488 70.122 660.067 70.269 660.557 70.563C661.047 70.8523 661.427 71.2793 661.698 71.844C661.973 72.4087 662.111 73.097 662.111 73.909C662.111 74.6463 661.985 75.295 661.733 75.855C661.481 76.415 661.11 76.8537 660.62 77.171C660.134 77.4837 659.532 77.64 658.814 77.64ZM658.821 76.618C659.25 76.618 659.614 76.5083 659.913 76.289C660.211 76.0697 660.438 75.7547 660.592 75.344C660.75 74.9333 660.83 74.4457 660.83 73.881C660.83 73.363 660.76 72.8987 660.62 72.488C660.484 72.0727 660.27 71.7437 659.976 71.501C659.682 71.2583 659.297 71.137 658.821 71.137C658.382 71.137 658.011 71.2467 657.708 71.466C657.404 71.6807 657.173 71.9933 657.015 72.404C656.861 72.8147 656.784 73.307 656.784 73.881C656.784 74.3897 656.851 74.8517 656.987 75.267C657.127 75.6823 657.346 76.0113 657.645 76.254C657.948 76.4967 658.34 76.618 658.821 76.618ZM663.832 77.5V70.262H665.064V71.655C665.185 71.3097 665.355 71.025 665.575 70.801C665.794 70.5723 666.044 70.402 666.324 70.29C666.608 70.178 666.902 70.122 667.206 70.122C667.313 70.122 667.418 70.129 667.521 70.143C667.623 70.157 667.703 70.1803 667.759 70.213V71.466C667.689 71.4333 667.598 71.4123 667.486 71.403C667.378 71.389 667.287 71.382 667.213 71.382C666.923 71.3633 666.653 71.382 666.401 71.438C666.149 71.4893 665.927 71.5803 665.736 71.711C665.544 71.8417 665.393 72.0143 665.281 72.229C665.173 72.439 665.12 72.6957 665.12 72.999V77.5H663.832Z" fill="white" style="fill:white;fill-opacity:1;"/>
<path d="M131 64C130.724 64 130.5 64.2239 130.5 64.5C130.5 64.7761 130.724 65 131 65V64ZM162.354 35C162.63 35 162.854 34.7761 162.854 34.5C162.854 34.2239 162.63 34 162.354 34V35ZM252.354 34C252.077 34 251.854 34.2239 251.854 34.5C251.854 34.7761 252.077 35 252.354 35V34ZM287 66.7201C287 66.9962 287.338 67.1915 287.577 67.0534L291.423 64.8333C291.662 64.6953 291.662 64.3047 291.423 64.1667L287.577 61.9466C287.338 61.8085 287 62.0038 287 62.2799V66.7201ZM131 65H136V64H131V65ZM151.5 49.5V45.8535H150.5V49.5H151.5ZM264.5 47.1465V49.5H265.5V47.1465H264.5ZM280 65H287.5V64H280V65ZM252.354 35C259.062 35 264.5 40.4382 264.5 47.1465H265.5C265.5 39.8859 259.614 34 252.354 34V35ZM151.5 45.8535C151.5 39.8593 156.359 35 162.354 35V34C155.807 34 150.5 39.307 150.5 45.8535H151.5ZM264.5 49.5C264.5 58.0604 271.44 65 280 65V64C271.992 64 265.5 57.5081 265.5 49.5H264.5ZM136 65C144.56 65 151.5 58.0604 151.5 49.5H150.5C150.5 57.5081 144.008 64 136 64V65Z" fill="#4D5157" style="fill:#4D5157;fill:color(display-p3 0.3020 0.3176 0.3412);fill-opacity:1;"/>
<path d="M171.723 40.5H169.859L174.047 28.8636H176.075L180.263 40.5H178.399L175.109 30.9773H175.019L171.723 40.5ZM172.036 35.9432H178.081V37.4205H172.036V35.9432ZM190.885 32.6477H189.112C189.044 32.2689 188.917 31.9356 188.732 31.6477C188.546 31.3598 188.319 31.1155 188.05 30.9148C187.781 30.714 187.48 30.5625 187.147 30.4602C186.817 30.358 186.467 30.3068 186.095 30.3068C185.425 30.3068 184.825 30.4754 184.294 30.8125C183.768 31.1496 183.351 31.6439 183.044 32.2955C182.741 32.947 182.59 33.7424 182.59 34.6818C182.59 35.6288 182.741 36.428 183.044 37.0795C183.351 37.7311 183.77 38.2235 184.3 38.5568C184.83 38.8902 185.427 39.0568 186.09 39.0568C186.457 39.0568 186.806 39.0076 187.135 38.9091C187.468 38.8068 187.77 38.6572 188.039 38.4602C188.307 38.2633 188.535 38.0227 188.72 37.7386C188.91 37.4508 189.04 37.1212 189.112 36.75L190.885 36.7557C190.79 37.3277 190.607 37.8542 190.334 38.3352C190.065 38.8125 189.718 39.2254 189.294 39.5739C188.874 39.9186 188.393 40.1856 187.851 40.375C187.309 40.5644 186.718 40.6591 186.078 40.6591C185.071 40.6591 184.173 40.4205 183.385 39.9432C182.597 39.4621 181.976 38.7746 181.522 37.8807C181.071 36.9867 180.845 35.9205 180.845 34.6818C180.845 33.4394 181.073 32.3731 181.527 31.483C181.982 30.589 182.603 29.9034 183.391 29.4261C184.179 28.9451 185.075 28.7045 186.078 28.7045C186.696 28.7045 187.272 28.7936 187.806 28.9716C188.343 29.1458 188.826 29.4034 189.254 29.7443C189.682 30.0814 190.037 30.4943 190.317 30.983C190.597 31.4678 190.787 32.0227 190.885 32.6477ZM192.236 30.375V28.8636H201.242V30.375H197.611V40.5H195.861V30.375H192.236ZM203.056 40.5V28.8636H210.351V30.375H204.812V33.9205H209.971V35.4261H204.812V38.9886H210.42V40.5H203.056ZM216.288 40.5H212.52V28.8636H216.407C217.547 28.8636 218.526 29.0966 219.344 29.5625C220.163 30.0246 220.789 30.6894 221.225 31.5568C221.664 32.4205 221.884 33.4564 221.884 34.6648C221.884 35.8769 221.663 36.9186 221.219 37.7898C220.78 38.661 220.144 39.3314 219.31 39.8011C218.477 40.267 217.469 40.5 216.288 40.5ZM214.276 38.9659H216.191C217.077 38.9659 217.814 38.7992 218.401 38.4659C218.988 38.1288 219.428 37.642 219.719 37.0057C220.011 36.3655 220.157 35.5852 220.157 34.6648C220.157 33.7519 220.011 32.9773 219.719 32.3409C219.431 31.7045 219.002 31.2216 218.43 30.892C217.858 30.5625 217.147 30.3977 216.299 30.3977H214.276V38.9659ZM229.347 40.5V41.9432H221.955V40.5H229.347ZM232.19 28.8636V40.5H230.434V28.8636H232.19ZM243.963 28.8636V40.5H242.349L236.434 31.9659H236.326V40.5H234.571V28.8636H236.196L242.116 37.4091H242.224V28.8636H243.963Z" fill="black" fill-opacity="0.8" style="fill:black;fill-opacity:0.8;"/>
<path d="M131 64C130.724 64 130.5 64.2239 130.5 64.5C130.5 64.7761 130.724 65 131 65V64ZM164.873 92C165.149 92 165.373 91.7761 165.373 91.5C165.373 91.2239 165.149 91 164.873 91V92ZM256.873 91C256.597 91 256.373 91.2239 256.373 91.5C256.373 91.7761 256.597 92 256.873 92V91ZM287 66.7201C287 66.9962 287.338 67.1915 287.577 67.0534L291.423 64.8333C291.662 64.6953 291.662 64.3047 291.423 64.1667L287.577 61.9466C287.338 61.8085 287 62.0038 287 62.2799V66.7201ZM149 78H149.5H149ZM149 78H149.5H149ZM131 65H135.5V64H131V65ZM162.5 92H164.873V91H162.5V92ZM267.5 81.373V78H266.5V81.373H267.5ZM280.5 65H287.5V64H280.5V65ZM256.873 92C262.742 92 267.5 87.2422 267.5 81.373H266.5C266.5 86.6899 262.19 91 256.873 91V92ZM148.5 78C148.5 85.732 154.768 92 162.5 92V91C155.32 91 149.5 85.1797 149.5 78H148.5ZM267.5 78C267.5 70.8203 273.32 65 280.5 65V64C272.768 64 266.5 70.268 266.5 78H267.5ZM135.5 65C142.68 65 148.5 70.8203 148.5 78H149.5C149.5 70.268 143.232 64 135.5 64V65Z" fill="#4D5157" style="fill:#4D5157;fill:color(display-p3 0.3020 0.3176 0.3412);fill-opacity:1;"/>
<path d="M176.941 97.5H173.174V85.8636H177.06C178.2 85.8636 179.179 86.0966 179.998 86.5625C180.816 87.0246 181.443 87.6894 181.878 88.5568C182.318 89.4205 182.537 90.4564 182.537 91.6648C182.537 92.8769 182.316 93.9186 181.873 94.7898C181.433 95.661 180.797 96.3314 179.963 96.8011C179.13 97.267 178.123 97.5 176.941 97.5ZM174.929 95.9659H176.844C177.731 95.9659 178.467 95.7992 179.054 95.4659C179.642 95.1288 180.081 94.642 180.373 94.0057C180.664 93.3655 180.81 92.5852 180.81 91.6648C180.81 90.7519 180.664 89.9773 180.373 89.3409C180.085 88.7045 179.655 88.2216 179.083 87.892C178.511 87.5625 177.801 87.3977 176.952 87.3977H174.929V95.9659ZM186.3 85.8636V97.5H184.545V85.8636H186.3ZM188.681 97.5V85.8636H192.829C193.73 85.8636 194.478 86.0189 195.073 86.3295C195.672 86.6402 196.119 87.0701 196.414 87.6193C196.709 88.1648 196.857 88.7955 196.857 89.5114C196.857 90.2235 196.708 90.8504 196.408 91.392C196.113 91.9299 195.666 92.3485 195.067 92.6477C194.473 92.947 193.725 93.0966 192.823 93.0966H189.681V91.5852H192.664C193.232 91.5852 193.694 91.5038 194.05 91.3409C194.41 91.178 194.674 90.9413 194.84 90.6307C195.007 90.3201 195.09 89.947 195.09 89.5114C195.09 89.072 195.005 88.6913 194.834 88.3693C194.668 88.0473 194.405 87.8011 194.045 87.6307C193.689 87.4564 193.221 87.3693 192.641 87.3693H190.437V97.5H188.681ZM194.425 92.25L197.3 97.5H195.3L192.482 92.25H194.425ZM198.818 97.5V85.8636H206.113V87.375H200.573V90.9205H205.732V92.4261H200.573V95.9886H206.181V97.5H198.818ZM217.947 89.6477H216.174C216.106 89.2689 215.979 88.9356 215.794 88.6477C215.608 88.3598 215.381 88.1155 215.112 87.9148C214.843 87.714 214.542 87.5625 214.208 87.4602C213.879 87.358 213.528 87.3068 213.157 87.3068C212.487 87.3068 211.886 87.4754 211.356 87.8125C210.83 88.1496 210.413 88.6439 210.106 89.2955C209.803 89.947 209.652 90.7424 209.652 91.6818C209.652 92.6288 209.803 93.428 210.106 94.0795C210.413 94.7311 210.831 95.2235 211.362 95.5568C211.892 95.8902 212.489 96.0568 213.152 96.0568C213.519 96.0568 213.867 96.0076 214.197 95.9091C214.53 95.8068 214.831 95.6572 215.1 95.4602C215.369 95.2633 215.597 95.0227 215.782 94.7386C215.972 94.4508 216.102 94.1212 216.174 93.75L217.947 93.7557C217.852 94.3277 217.669 94.8542 217.396 95.3352C217.127 95.8125 216.78 96.2254 216.356 96.5739C215.936 96.9186 215.455 97.1856 214.913 97.375C214.371 97.5644 213.78 97.6591 213.14 97.6591C212.133 97.6591 211.235 97.4205 210.447 96.9432C209.659 96.4621 209.038 95.7746 208.583 94.8807C208.133 93.9867 207.907 92.9205 207.907 91.6818C207.907 90.4394 208.134 89.3731 208.589 88.483C209.044 87.589 209.665 86.9034 210.453 86.4261C211.241 85.9451 212.136 85.7045 213.14 85.7045C213.758 85.7045 214.333 85.7936 214.867 85.9716C215.405 86.1458 215.888 86.4034 216.316 86.7443C216.744 87.0814 217.098 87.4943 217.379 87.983C217.659 88.4678 217.848 89.0227 217.947 89.6477ZM219.298 87.375V85.8636H228.304V87.375H224.673V97.5H222.923V87.375H219.298ZM230.118 97.5V85.8636H237.413V87.375H231.873V90.9205H237.032V92.4261H231.873V95.9886H237.481V97.5H230.118ZM243.349 97.5H239.582V85.8636H243.469C244.609 85.8636 245.588 86.0966 246.406 86.5625C247.224 87.0246 247.851 87.6894 248.287 88.5568C248.726 89.4205 248.946 90.4564 248.946 91.6648C248.946 92.8769 248.724 93.9186 248.281 94.7898C247.842 95.661 247.205 96.3314 246.372 96.8011C245.539 97.267 244.531 97.5 243.349 97.5ZM241.338 95.9659H243.253C244.139 95.9659 244.876 95.7992 245.463 95.4659C246.05 95.1288 246.49 94.642 246.781 94.0057C247.073 93.3655 247.219 92.5852 247.219 91.6648C247.219 90.7519 247.073 89.9773 246.781 89.3409C246.493 88.7045 246.063 88.2216 245.491 87.892C244.919 87.5625 244.209 87.3977 243.361 87.3977H241.338V95.9659Z" fill="black" fill-opacity="0.8" style="fill:black;fill-opacity:0.8;"/>
<path d="M575 65C575.276 65 575.5 64.7761 575.5 64.5C575.5 64.2239 575.276 64 575 64V65ZM554.156 91C553.88 91 553.656 91.2239 553.656 91.5C553.656 91.7761 553.88 92 554.156 92V91ZM462.156 92C462.432 92 462.656 91.7761 462.656 91.5C462.656 91.2239 462.432 91 462.156 91V92ZM431 62.2799C431 62.0038 430.662 61.8085 430.423 61.9466L426.577 64.1667C426.338 64.3047 426.338 64.6953 426.577 64.8333L430.423 67.0534C430.662 67.1915 431 66.9962 431 66.7201V62.2799ZM448 78H448.5H448ZM448 78H448.5H448ZM565.5 73.5V79.6563H566.5V73.5H565.5ZM462.156 91H461.5V92H462.156V91ZM434.5 64H430.5V65H434.5V64ZM461.5 91C454.32 91 448.5 85.1797 448.5 78H447.5C447.5 85.732 453.768 92 461.5 92V91ZM565.5 79.6563C565.5 85.9212 560.421 91 554.156 91V92C560.974 92 566.5 86.4735 566.5 79.6563H565.5ZM448.5 78C448.5 70.268 442.232 64 434.5 64V65C441.68 65 447.5 70.8203 447.5 78H448.5ZM575 64C569.753 64 565.5 68.2533 565.5 73.5H566.5C566.5 68.8056 570.306 65 575 65V64Z" fill="#4D5157" style="fill:#4D5157;fill:color(display-p3 0.3020 0.3176 0.3412);fill-opacity:1;"/>
<path d="M474.224 97.5H470.457V85.8636H474.343C475.483 85.8636 476.463 86.0966 477.281 86.5625C478.099 87.0246 478.726 87.6894 479.161 88.5568C479.601 89.4205 479.821 90.4564 479.821 91.6648C479.821 92.8769 479.599 93.9186 479.156 94.7898C478.716 95.661 478.08 96.3314 477.247 96.8011C476.413 97.267 475.406 97.5 474.224 97.5ZM472.213 95.9659H474.127C475.014 95.9659 475.75 95.7992 476.338 95.4659C476.925 95.1288 477.364 94.642 477.656 94.0057C477.947 93.3655 478.093 92.5852 478.093 91.6648C478.093 90.7519 477.947 89.9773 477.656 89.3409C477.368 88.7045 476.938 88.2216 476.366 87.892C475.794 87.5625 475.084 87.3977 474.235 87.3977H472.213V95.9659ZM483.583 85.8636V97.5H481.828V85.8636H483.583ZM485.964 97.5V85.8636H490.112C491.014 85.8636 491.762 86.0189 492.356 86.3295C492.955 86.6402 493.402 87.0701 493.697 87.6193C493.993 88.1648 494.14 88.7955 494.14 89.5114C494.14 90.2235 493.991 90.8504 493.692 91.392C493.396 91.9299 492.949 92.3485 492.351 92.6477C491.756 92.947 491.008 93.0966 490.106 93.0966H486.964V91.5852H489.947C490.515 91.5852 490.978 91.5038 491.334 91.3409C491.693 91.178 491.957 90.9413 492.123 90.6307C492.29 90.3201 492.373 89.947 492.373 89.5114C492.373 89.072 492.288 88.6913 492.118 88.3693C491.951 88.0473 491.688 87.8011 491.328 87.6307C490.972 87.4564 490.504 87.3693 489.925 87.3693H487.72V97.5H485.964ZM491.709 92.25L494.584 97.5H492.584L489.765 92.25H491.709ZM496.101 97.5V85.8636H503.396V87.375H497.856V90.9205H503.016V92.4261H497.856V95.9886H503.464V97.5H496.101ZM515.23 89.6477H513.457C513.389 89.2689 513.262 88.9356 513.077 88.6477C512.891 88.3598 512.664 88.1155 512.395 87.9148C512.126 87.714 511.825 87.5625 511.492 87.4602C511.162 87.358 510.812 87.3068 510.44 87.3068C509.77 87.3068 509.17 87.4754 508.639 87.8125C508.113 88.1496 507.696 88.6439 507.389 89.2955C507.086 89.947 506.935 90.7424 506.935 91.6818C506.935 92.6288 507.086 93.428 507.389 94.0795C507.696 94.7311 508.115 95.2235 508.645 95.5568C509.175 95.8902 509.772 96.0568 510.435 96.0568C510.802 96.0568 511.151 96.0076 511.48 95.9091C511.814 95.8068 512.115 95.6572 512.384 95.4602C512.653 95.2633 512.88 95.0227 513.065 94.7386C513.255 94.4508 513.385 94.1212 513.457 93.75L515.23 93.7557C515.135 94.3277 514.952 94.8542 514.679 95.3352C514.41 95.8125 514.064 96.2254 513.639 96.5739C513.219 96.9186 512.738 97.1856 512.196 97.375C511.654 97.5644 511.064 97.6591 510.423 97.6591C509.416 97.6591 508.518 97.4205 507.73 96.9432C506.942 96.4621 506.321 95.7746 505.867 94.8807C505.416 93.9867 505.19 92.9205 505.19 91.6818C505.19 90.4394 505.418 89.3731 505.872 88.483C506.327 87.589 506.948 86.9034 507.736 86.4261C508.524 85.9451 509.42 85.7045 510.423 85.7045C511.041 85.7045 511.617 85.7936 512.151 85.9716C512.689 86.1458 513.171 86.4034 513.6 86.7443C514.028 87.0814 514.382 87.4943 514.662 87.983C514.942 88.4678 515.132 89.0227 515.23 89.6477ZM516.581 87.375V85.8636H525.587V87.375H521.956V97.5H520.206V87.375H516.581ZM527.401 97.5V85.8636H534.696V87.375H529.157V90.9205H534.316V92.4261H529.157V95.9886H534.765V97.5H527.401ZM540.633 97.5H536.866V85.8636H540.752C541.892 85.8636 542.871 86.0966 543.689 86.5625C544.508 87.0246 545.134 87.6894 545.57 88.5568C546.009 89.4205 546.229 90.4564 546.229 91.6648C546.229 92.8769 546.008 93.9186 545.564 94.7898C545.125 95.661 544.489 96.3314 543.655 96.8011C542.822 97.267 541.814 97.5 540.633 97.5ZM538.621 95.9659H540.536C541.422 95.9659 542.159 95.7992 542.746 95.4659C543.333 95.1288 543.773 94.642 544.064 94.0057C544.356 93.3655 544.502 92.5852 544.502 91.6648C544.502 90.7519 544.356 89.9773 544.064 89.3409C543.777 88.7045 543.347 88.2216 542.775 87.892C542.203 87.5625 541.492 87.3977 540.644 87.3977H538.621V95.9659Z" fill="black" fill-opacity="0.8" style="fill:black;fill-opacity:0.8;"/>
<path d="M575 65C575.276 65 575.5 64.7761 575.5 64.5C575.5 64.2239 575.276 64 575 64V65ZM550.781 33C550.505 33 550.281 33.2239 550.281 33.5C550.281 33.7761 550.505 34 550.781 34V33ZM460.781 34C461.057 34 461.281 33.7761 461.281 33.5C461.281 33.2239 461.057 33 460.781 33V34ZM431 62.2799C431 62.0038 430.662 61.8085 430.423 61.9466L426.577 64.1667C426.338 64.3047 426.338 64.6953 426.577 64.8333L430.423 67.0534C430.662 67.1915 431 66.9962 431 66.7201V62.2799ZM566.5 55.5V48.7187H565.5V55.5H566.5ZM447.5 46.2812V49H448.5V46.2812H447.5ZM432.5 64H430.5V65H432.5V64ZM460.781 33C453.446 33 447.5 38.9462 447.5 46.2812H448.5C448.5 39.4985 453.999 34 460.781 34V33ZM566.5 48.7187C566.5 40.0375 559.462 33 550.781 33V34C558.91 34 565.5 40.5898 565.5 48.7187H566.5ZM447.5 49C447.5 57.2843 440.784 64 432.5 64V65C441.337 65 448.5 57.8366 448.5 49H447.5ZM575 64C570.306 64 566.5 60.1944 566.5 55.5H565.5C565.5 60.7467 569.753 65 575 65V64Z" fill="#4D5157" style="fill:#4D5157;fill:color(display-p3 0.3020 0.3176 0.3412);fill-opacity:1;"/>
<path d="M470.151 39.5H468.287L472.475 27.8636H474.503L478.691 39.5H476.827L473.537 29.9773H473.446L470.151 39.5ZM470.463 34.9432H476.509V36.4205H470.463V34.9432ZM489.313 31.6477H487.54C487.472 31.2689 487.345 30.9356 487.159 30.6477C486.974 30.3598 486.747 30.1155 486.478 29.9148C486.209 29.714 485.908 29.5625 485.574 29.4602C485.245 29.358 484.894 29.3068 484.523 29.3068C483.853 29.3068 483.252 29.4754 482.722 29.8125C482.195 30.1496 481.779 30.6439 481.472 31.2955C481.169 31.947 481.017 32.7424 481.017 33.6818C481.017 34.6288 481.169 35.428 481.472 36.0795C481.779 36.7311 482.197 37.2235 482.728 37.5568C483.258 37.8902 483.855 38.0568 484.517 38.0568C484.885 38.0568 485.233 38.0076 485.563 37.9091C485.896 37.8068 486.197 37.6572 486.466 37.4602C486.735 37.2633 486.962 37.0227 487.148 36.7386C487.337 36.4508 487.468 36.1212 487.54 35.75L489.313 35.7557C489.218 36.3277 489.034 36.8542 488.762 37.3352C488.493 37.8125 488.146 38.2254 487.722 38.5739C487.302 38.9186 486.82 39.1856 486.279 39.375C485.737 39.5644 485.146 39.6591 484.506 39.6591C483.498 39.6591 482.601 39.4205 481.813 38.9432C481.025 38.4621 480.404 37.7746 479.949 36.8807C479.498 35.9867 479.273 34.9205 479.273 33.6818C479.273 32.4394 479.5 31.3731 479.955 30.483C480.409 29.589 481.031 28.9034 481.819 28.4261C482.606 27.9451 483.502 27.7045 484.506 27.7045C485.123 27.7045 485.699 27.7936 486.233 27.9716C486.771 28.1458 487.254 28.4034 487.682 28.7443C488.11 29.0814 488.464 29.4943 488.745 29.983C489.025 30.4678 489.214 31.0227 489.313 31.6477ZM490.664 29.375V27.8636H499.67V29.375H496.039V39.5H494.289V29.375H490.664ZM501.484 39.5V27.8636H508.779V29.375H503.239V32.9205H508.398V34.4261H503.239V37.9886H508.847V39.5H501.484ZM514.715 39.5H510.948V27.8636H514.835C515.975 27.8636 516.954 28.0966 517.772 28.5625C518.59 29.0246 519.217 29.6894 519.653 30.5568C520.092 31.4205 520.312 32.4564 520.312 33.6648C520.312 34.8769 520.09 35.9186 519.647 36.7898C519.208 37.661 518.571 38.3314 517.738 38.8011C516.905 39.267 515.897 39.5 514.715 39.5ZM512.704 37.9659H514.619C515.505 37.9659 516.242 37.7992 516.829 37.4659C517.416 37.1288 517.855 36.642 518.147 36.0057C518.439 35.3655 518.585 34.5852 518.585 33.6648C518.585 32.7519 518.439 31.9773 518.147 31.3409C517.859 30.7045 517.429 30.2216 516.857 29.892C516.285 29.5625 515.575 29.3977 514.727 29.3977H512.704V37.9659ZM527.775 39.5V40.9432H520.383V39.5H527.775ZM530.618 27.8636V39.5H528.862V27.8636H530.618ZM542.39 27.8636V39.5H540.777L534.862 30.9659H534.754V39.5H532.998V27.8636H534.623L540.544 36.4091H540.652V27.8636H542.39Z" fill="black" fill-opacity="0.8" style="fill:black;fill-opacity:0.8;"/>
<path d="M317.444 157.5V148.911H314.294V147.378H322.19V148.911H319.152V157.5H317.444ZM323.484 157.5V150.262H325.115V157.5H323.484ZM323.456 148.995V147.385H325.143V148.995H323.456ZM329.971 157.556C329.397 157.556 328.951 157.481 328.634 157.332C328.321 157.178 328.104 156.961 327.983 156.681C327.861 156.401 327.801 156.067 327.801 155.68V151.466H326.625V150.262H327.85L328.277 148.113H329.502V150.255H331.119V151.466H329.502L329.509 155.617C329.509 155.832 329.532 155.99 329.579 156.093C329.63 156.191 329.709 156.256 329.817 156.289C329.929 156.317 330.076 156.331 330.258 156.331H331.154V157.409C331.056 157.446 330.911 157.479 330.72 157.507C330.533 157.54 330.283 157.556 329.971 157.556ZM334.812 157.605C334.345 157.605 333.972 157.547 333.692 157.43C333.412 157.313 333.202 157.157 333.062 156.961C332.922 156.765 332.831 156.546 332.789 156.303C332.747 156.056 332.726 155.804 332.726 155.547V147.098H334.392V155.351C334.392 155.664 334.455 155.906 334.581 156.079C334.711 156.252 334.921 156.352 335.211 156.38L335.575 156.394V157.465C335.449 157.502 335.32 157.535 335.19 157.563C335.059 157.591 334.933 157.605 334.812 157.605ZM339.985 157.64C339.29 157.64 338.676 157.493 338.144 157.199C337.617 156.9 337.204 156.476 336.905 155.925C336.611 155.374 336.464 154.719 336.464 153.958C336.464 153.216 336.597 152.558 336.863 151.984C337.134 151.405 337.524 150.95 338.032 150.619C338.546 150.288 339.164 150.122 339.887 150.122C340.601 150.122 341.201 150.274 341.686 150.577C342.172 150.88 342.54 151.305 342.792 151.851C343.044 152.392 343.17 153.027 343.17 153.755V154.273H338.165C338.161 154.684 338.226 155.048 338.361 155.365C338.497 155.682 338.697 155.932 338.963 156.114C339.229 156.291 339.558 156.38 339.95 156.38C340.352 156.38 340.699 156.291 340.993 156.114C341.292 155.932 341.49 155.657 341.588 155.288H343.142C343.058 155.792 342.858 156.219 342.54 156.569C342.228 156.919 341.845 157.185 341.392 157.367C340.944 157.549 340.475 157.64 339.985 157.64ZM338.158 153.216H341.56C341.56 152.866 341.497 152.551 341.371 152.271C341.25 151.986 341.066 151.762 340.818 151.599C340.571 151.431 340.258 151.347 339.88 151.347C339.507 151.347 339.192 151.438 338.935 151.62C338.679 151.802 338.485 152.038 338.354 152.327C338.224 152.612 338.158 152.908 338.158 153.216ZM344.56 152.432V150.486H346.485V152.432H344.56ZM344.56 157.458V155.526H346.485V157.458H344.56ZM355.376 157.64C354.872 157.64 354.389 157.579 353.927 157.458C353.465 157.332 353.042 157.148 352.66 156.905C352.282 156.658 351.969 156.352 351.722 155.988C351.474 155.619 351.323 155.19 351.267 154.7H353.031C353.105 155.041 353.252 155.328 353.472 155.561C353.696 155.794 353.978 155.972 354.319 156.093C354.659 156.214 355.04 156.275 355.46 156.275C355.833 156.275 356.181 156.219 356.503 156.107C356.825 155.995 357.086 155.829 357.287 155.61C357.487 155.386 357.588 155.111 357.588 154.784C357.588 154.415 357.457 154.128 357.196 153.923C356.939 153.713 356.57 153.547 356.09 153.426L354.109 152.957C353.595 152.84 353.147 152.67 352.765 152.446C352.387 152.222 352.093 151.928 351.883 151.564C351.673 151.195 351.568 150.745 351.568 150.213C351.568 149.606 351.733 149.081 352.065 148.638C352.401 148.195 352.856 147.854 353.43 147.616C354.004 147.373 354.65 147.252 355.369 147.252C356.19 147.252 356.883 147.39 357.448 147.665C358.012 147.936 358.442 148.3 358.736 148.757C359.03 149.214 359.179 149.716 359.184 150.262H357.462C357.424 149.856 357.305 149.536 357.105 149.303C356.904 149.065 356.65 148.892 356.342 148.785C356.034 148.678 355.693 148.624 355.32 148.624C354.657 148.624 354.165 148.766 353.843 149.051C353.521 149.336 353.36 149.669 353.36 150.052C353.36 150.411 353.479 150.696 353.717 150.906C353.955 151.116 354.319 151.279 354.809 151.396L356.692 151.837C357.322 151.968 357.828 152.168 358.211 152.439C358.593 152.71 358.871 153.032 359.044 153.405C359.221 153.774 359.31 154.182 359.31 154.63C359.31 155.218 359.142 155.738 358.806 156.191C358.474 156.644 358.015 156.998 357.427 157.255C356.839 157.512 356.155 157.64 355.376 157.64ZM363.382 157.5V148.911H360.232V147.378H368.128V148.911H365.09V157.5H363.382ZM369.653 157.5V147.378H373.762C374.536 147.378 375.173 147.499 375.673 147.742C376.177 147.98 376.55 148.318 376.793 148.757C377.035 149.191 377.157 149.7 377.157 150.283C377.157 150.824 377.068 151.279 376.891 151.648C376.713 152.012 376.482 152.311 376.198 152.544C375.918 152.773 375.617 152.959 375.295 153.104L377.227 157.5H375.449L373.706 153.391H371.354V157.5H369.653ZM371.354 152.04H373.377C374.021 152.04 374.522 151.891 374.882 151.592C375.246 151.293 375.428 150.878 375.428 150.346C375.428 149.823 375.26 149.42 374.924 149.135C374.588 148.85 374.144 148.708 373.594 148.708H371.354V152.04ZM379.264 157.5V147.378H380.965V157.5H379.264ZM383.42 157.5V147.378H385.086L390.042 154.609V147.378H391.743V157.5H390.21L385.121 150.073V157.5H383.42ZM398.114 157.64C397.208 157.64 396.422 157.432 395.755 157.017C395.087 156.602 394.574 156.009 394.215 155.239C393.855 154.464 393.676 153.54 393.676 152.467C393.676 151.384 393.862 150.451 394.236 149.667C394.609 148.883 395.134 148.283 395.811 147.868C396.492 147.448 397.29 147.238 398.205 147.238C398.765 147.238 399.28 147.331 399.752 147.518C400.228 147.705 400.643 147.957 400.998 148.274C401.357 148.591 401.639 148.953 401.845 149.359C402.05 149.765 402.164 150.187 402.188 150.626H400.389C400.323 150.281 400.19 149.963 399.99 149.674C399.794 149.38 399.539 149.144 399.227 148.967C398.919 148.79 398.566 148.701 398.17 148.701C397.661 148.701 397.206 148.829 396.805 149.086C396.408 149.343 396.095 149.746 395.867 150.297C395.643 150.843 395.531 151.552 395.531 152.425C395.531 153.116 395.601 153.699 395.741 154.175C395.885 154.646 396.081 155.027 396.329 155.316C396.581 155.601 396.87 155.808 397.197 155.939C397.523 156.065 397.869 156.128 398.233 156.128C398.587 156.128 398.9 156.067 399.171 155.946C399.441 155.825 399.67 155.666 399.857 155.47C400.048 155.274 400.195 155.064 400.298 154.84C400.405 154.611 400.468 154.39 400.487 154.175L400.55 153.433H398.289V152.229L402.328 152.243V157.5H401.124V156.079C400.951 156.336 400.732 156.583 400.466 156.821C400.204 157.059 399.882 157.255 399.5 157.409C399.122 157.563 398.66 157.64 398.114 157.64ZM314.966 183.754V174.262H316.667L316.681 175.403C316.774 175.244 316.893 175.088 317.038 174.934C317.187 174.78 317.358 174.642 317.549 174.521C317.745 174.4 317.962 174.304 318.2 174.234C318.438 174.159 318.699 174.122 318.984 174.122C319.539 174.122 320.032 174.255 320.461 174.521C320.89 174.782 321.226 175.186 321.469 175.732C321.716 176.278 321.84 176.969 321.84 177.804C321.84 178.658 321.714 179.37 321.462 179.939C321.21 180.508 320.858 180.935 320.405 181.22C319.952 181.5 319.427 181.64 318.83 181.64C318.555 181.64 318.303 181.603 318.074 181.528C317.85 181.453 317.649 181.351 317.472 181.22C317.295 181.089 317.138 180.947 317.003 180.793C316.872 180.639 316.763 180.478 316.674 180.31V183.754H314.966ZM318.452 180.366C318.965 180.366 319.39 180.163 319.726 179.757C320.062 179.346 320.23 178.705 320.23 177.832C320.23 177.076 320.071 176.481 319.754 176.047C319.441 175.608 319.007 175.389 318.452 175.389C317.855 175.389 317.407 175.62 317.108 176.082C316.809 176.539 316.66 177.123 316.66 177.832C316.66 178.289 316.725 178.712 316.856 179.099C316.991 179.482 317.19 179.79 317.451 180.023C317.717 180.252 318.051 180.366 318.452 180.366ZM325.474 181.605C325.007 181.605 324.634 181.547 324.354 181.43C324.074 181.313 323.864 181.157 323.724 180.961C323.584 180.765 323.493 180.546 323.451 180.303C323.409 180.056 323.388 179.804 323.388 179.547V171.098H325.054V179.351C325.054 179.664 325.117 179.906 325.243 180.079C325.374 180.252 325.584 180.352 325.873 180.38L326.237 180.394V181.465C326.111 181.502 325.983 181.535 325.852 181.563C325.721 181.591 325.595 181.605 325.474 181.605ZM330.486 181.64C329.796 181.64 329.194 181.493 328.68 181.199C328.167 180.9 327.768 180.473 327.483 179.918C327.203 179.363 327.063 178.695 327.063 177.916C327.063 177.16 327.201 176.497 327.476 175.928C327.752 175.359 328.144 174.915 328.652 174.598C329.166 174.281 329.779 174.122 330.493 174.122C331.184 174.122 331.784 174.274 332.292 174.577C332.801 174.88 333.193 175.314 333.468 175.879C333.748 176.444 333.888 177.123 333.888 177.916C333.888 178.649 333.755 179.295 333.489 179.855C333.228 180.41 332.843 180.847 332.334 181.164C331.83 181.481 331.214 181.64 330.486 181.64ZM330.493 180.345C330.885 180.345 331.207 180.238 331.459 180.023C331.716 179.808 331.907 179.514 332.033 179.141C332.159 178.768 332.222 178.343 332.222 177.867C332.222 177.424 332.166 177.015 332.054 176.642C331.942 176.269 331.758 175.97 331.501 175.746C331.249 175.517 330.913 175.403 330.493 175.403C330.097 175.403 329.768 175.508 329.506 175.718C329.25 175.923 329.058 176.213 328.932 176.586C328.806 176.955 328.743 177.382 328.743 177.867C328.743 178.306 328.799 178.714 328.911 179.092C329.023 179.465 329.208 179.769 329.464 180.002C329.721 180.231 330.064 180.345 330.493 180.345ZM338.078 181.556C337.504 181.556 337.058 181.481 336.741 181.332C336.428 181.178 336.211 180.961 336.09 180.681C335.969 180.401 335.908 180.067 335.908 179.68V175.466H334.732V174.262H335.957L336.384 172.113H337.609V174.255H339.226V175.466H337.609L337.616 179.617C337.616 179.832 337.639 179.99 337.686 180.093C337.737 180.191 337.817 180.256 337.924 180.289C338.036 180.317 338.183 180.331 338.365 180.331H339.261V181.409C339.163 181.446 339.018 181.479 338.827 181.507C338.64 181.54 338.391 181.556 338.078 181.556ZM340.595 176.432V174.486H342.52V176.432H340.595ZM340.595 181.458V179.526H342.52V181.458H340.595ZM351.411 181.64C350.907 181.64 350.424 181.579 349.962 181.458C349.5 181.332 349.077 181.148 348.695 180.905C348.317 180.658 348.004 180.352 347.757 179.988C347.509 179.619 347.358 179.19 347.302 178.7H349.066C349.14 179.041 349.287 179.328 349.507 179.561C349.731 179.794 350.013 179.972 350.354 180.093C350.694 180.214 351.075 180.275 351.495 180.275C351.868 180.275 352.216 180.219 352.538 180.107C352.86 179.995 353.121 179.829 353.322 179.61C353.522 179.386 353.623 179.111 353.623 178.784C353.623 178.415 353.492 178.128 353.231 177.923C352.974 177.713 352.605 177.547 352.125 177.426L350.144 176.957C349.63 176.84 349.182 176.67 348.8 176.446C348.422 176.222 348.128 175.928 347.918 175.564C347.708 175.195 347.603 174.745 347.603 174.213C347.603 173.606 347.768 173.081 348.1 172.638C348.436 172.195 348.891 171.854 349.465 171.616C350.039 171.373 350.685 171.252 351.404 171.252C352.225 171.252 352.918 171.39 353.483 171.665C354.047 171.936 354.477 172.3 354.771 172.757C355.065 173.214 355.214 173.716 355.219 174.262H353.497C353.459 173.856 353.34 173.536 353.14 173.303C352.939 173.065 352.685 172.892 352.377 172.785C352.069 172.678 351.728 172.624 351.355 172.624C350.692 172.624 350.2 172.766 349.878 173.051C349.556 173.336 349.395 173.669 349.395 174.052C349.395 174.411 349.514 174.696 349.752 174.906C349.99 175.116 350.354 175.279 350.844 175.396L352.727 175.837C353.357 175.968 353.863 176.168 354.246 176.439C354.628 176.71 354.906 177.032 355.079 177.405C355.256 177.774 355.345 178.182 355.345 178.63C355.345 179.218 355.177 179.738 354.841 180.191C354.509 180.644 354.05 180.998 353.462 181.255C352.874 181.512 352.19 181.64 351.411 181.64ZM359.417 181.5V172.911H356.267V171.378H364.163V172.911H361.125V181.5H359.417ZM365.688 181.5V171.378H369.797C370.572 171.378 371.209 171.499 371.708 171.742C372.212 171.98 372.585 172.318 372.828 172.757C373.071 173.191 373.192 173.7 373.192 174.283C373.192 174.824 373.103 175.279 372.926 175.648C372.749 176.012 372.518 176.311 372.233 176.544C371.953 176.773 371.652 176.959 371.33 177.104L373.262 181.5H371.484L369.741 177.391H367.389V181.5H365.688ZM367.389 176.04H369.412C370.056 176.04 370.558 175.891 370.917 175.592C371.281 175.293 371.463 174.878 371.463 174.346C371.463 173.823 371.295 173.42 370.959 173.135C370.623 172.85 370.18 172.708 369.629 172.708H367.389V176.04ZM375.299 181.5V171.378H377V181.5H375.299ZM379.455 181.5V171.378H381.121L386.077 178.609V171.378H387.778V181.5H386.245L381.156 174.073V181.5H379.455ZM394.149 181.64C393.244 181.64 392.457 181.432 391.79 181.017C391.123 180.602 390.609 180.009 390.25 179.239C389.891 178.464 389.711 177.54 389.711 176.467C389.711 175.384 389.898 174.451 390.271 173.667C390.644 172.883 391.169 172.283 391.846 171.868C392.527 171.448 393.325 171.238 394.24 171.238C394.8 171.238 395.316 171.331 395.787 171.518C396.263 171.705 396.678 171.957 397.033 172.274C397.392 172.591 397.675 172.953 397.88 173.359C398.085 173.765 398.2 174.187 398.223 174.626H396.424C396.359 174.281 396.226 173.963 396.025 173.674C395.829 173.38 395.575 173.144 395.262 172.967C394.954 172.79 394.602 172.701 394.205 172.701C393.696 172.701 393.241 172.829 392.84 173.086C392.443 173.343 392.131 173.746 391.902 174.297C391.678 174.843 391.566 175.552 391.566 176.425C391.566 177.116 391.636 177.699 391.776 178.175C391.921 178.646 392.117 179.027 392.364 179.316C392.616 179.601 392.905 179.808 393.232 179.939C393.559 180.065 393.904 180.128 394.268 180.128C394.623 180.128 394.935 180.067 395.206 179.946C395.477 179.825 395.705 179.666 395.892 179.47C396.083 179.274 396.23 179.064 396.333 178.84C396.44 178.611 396.503 178.39 396.522 178.175L396.585 177.433H394.324V176.229L398.363 176.243V181.5H397.159V180.079C396.986 180.336 396.767 180.583 396.501 180.821C396.24 181.059 395.918 181.255 395.535 181.409C395.157 181.563 394.695 181.64 394.149 181.64Z" fill="black" style="fill:black;fill-opacity:1;"/>
</svg>
