<svg width="564" height="213" viewBox="0 0 564 213" fill="none" xmlns="http://www.w3.org/2000/svg">
<path d="M18 64.5C18 29.1538 46.6538 0.5 82 0.5V0.5C117.346 0.5 146 29.1538 146 64.5V64.5C146 99.8462 117.346 128.5 82 128.5V128.5C46.6538 128.5 18 99.8462 18 64.5V64.5Z" fill="#F16767" style="fill:#F16767;fill:color(display-p3 0.9451 0.4039 0.4039);fill-opacity:1;"/>
<path d="M60.7237 69.5V59.378H64.1467C64.8701 59.378 65.5141 59.4993 66.0787 59.742C66.6434 59.9847 67.0867 60.344 67.4087 60.82C67.7354 61.296 67.8987 61.8817 67.8987 62.577C67.8987 63.249 67.7471 63.823 67.4437 64.299C67.1451 64.775 66.7274 65.1367 66.1907 65.384C65.6541 65.6313 65.0311 65.755 64.3217 65.755H62.0537V69.5H60.7237ZM62.0467 64.663H64.2937C64.9891 64.663 65.5537 64.4693 65.9877 64.082C66.4217 63.6947 66.6387 63.1673 66.6387 62.5C66.6387 61.828 66.4147 61.3193 65.9667 60.974C65.5187 60.6287 64.9401 60.456 64.2307 60.456H62.0467V64.663ZM72.3077 69.64C71.6357 69.64 71.0431 69.493 70.5297 69.199C70.0164 68.905 69.6151 68.4827 69.3257 67.932C69.0364 67.3813 68.8917 66.721 68.8917 65.951C68.8917 65.1903 69.0224 64.523 69.2837 63.949C69.5451 63.375 69.9231 62.927 70.4177 62.605C70.9171 62.283 71.5167 62.122 72.2167 62.122C72.8981 62.122 73.4744 62.269 73.9457 62.563C74.4171 62.857 74.7741 63.2723 75.0167 63.809C75.2641 64.341 75.3877 64.9733 75.3877 65.706V66.182H70.2007C70.2007 66.6393 70.2754 67.0547 70.4247 67.428C70.5787 67.7967 70.8097 68.0907 71.1177 68.31C71.4257 68.5293 71.8154 68.639 72.2867 68.639C72.7487 68.639 73.1454 68.5317 73.4767 68.317C73.8127 68.1023 74.0274 67.792 74.1207 67.386H75.3387C75.2547 67.876 75.0587 68.289 74.7507 68.625C74.4474 68.961 74.0811 69.2153 73.6517 69.388C73.2271 69.556 72.7791 69.64 72.3077 69.64ZM70.2077 65.307H74.1417C74.1417 64.8917 74.0717 64.5183 73.9317 64.187C73.7917 63.851 73.5771 63.5873 73.2877 63.396C73.0031 63.2 72.6437 63.102 72.2097 63.102C71.7571 63.102 71.3814 63.2117 71.0827 63.431C70.7841 63.6457 70.5624 63.9233 70.4177 64.264C70.2731 64.6 70.2031 64.9477 70.2077 65.307ZM77.1784 69.5V62.262H78.4104V63.655C78.5318 63.3097 78.7021 63.025 78.9214 62.801C79.1408 62.5723 79.3904 62.402 79.6704 62.29C79.9551 62.178 80.2491 62.122 80.5524 62.122C80.6598 62.122 80.7648 62.129 80.8674 62.143C80.9701 62.157 81.0494 62.1803 81.1054 62.213V63.466C81.0354 63.4333 80.9444 63.4123 80.8324 63.403C80.7251 63.389 80.6341 63.382 80.5594 63.382C80.2701 63.3633 79.9994 63.382 79.7474 63.438C79.4954 63.4893 79.2738 63.5803 79.0824 63.711C78.8911 63.8417 78.7394 64.0143 78.6274 64.229C78.5201 64.439 78.4664 64.6957 78.4664 64.999V69.5H77.1784ZM85.2102 69.64C84.7062 69.64 84.2372 69.563 83.8032 69.409C83.3738 69.2503 83.0168 69.0053 82.7322 68.674C82.4475 68.338 82.2702 67.911 82.2002 67.393H83.3762C83.4368 67.6777 83.5535 67.9157 83.7262 68.107C83.8988 68.2937 84.1112 68.436 84.3632 68.534C84.6198 68.6273 84.8998 68.674 85.2032 68.674C85.6932 68.674 86.0875 68.583 86.3862 68.401C86.6848 68.219 86.8342 67.939 86.8342 67.561C86.8342 67.295 86.7548 67.0827 86.5962 66.924C86.4422 66.7607 86.1995 66.6417 85.8682 66.567L84.3702 66.196C83.7868 66.056 83.3202 65.8367 82.9702 65.538C82.6248 65.2393 82.4498 64.8217 82.4452 64.285C82.4452 63.8603 82.5478 63.487 82.7532 63.165C82.9585 62.843 83.2642 62.5887 83.6702 62.402C84.0808 62.2153 84.5918 62.122 85.2032 62.122C85.9918 62.122 86.6265 62.2993 87.1072 62.654C87.5878 63.004 87.8398 63.5197 87.8632 64.201H86.7152C86.6685 63.8557 86.5145 63.5827 86.2532 63.382C85.9918 63.1767 85.6372 63.074 85.1892 63.074C84.7318 63.074 84.3562 63.1673 84.0622 63.354C83.7728 63.536 83.6282 63.8207 83.6282 64.208C83.6282 64.4647 83.7308 64.6677 83.9362 64.817C84.1462 64.9617 84.4495 65.083 84.8462 65.181L86.3022 65.545C86.6335 65.6337 86.9088 65.7503 87.1282 65.895C87.3475 66.0397 87.5202 66.2007 87.6462 66.378C87.7722 66.5553 87.8608 66.742 87.9122 66.938C87.9682 67.1293 87.9962 67.3137 87.9962 67.491C87.9962 67.9343 87.8865 68.317 87.6672 68.639C87.4478 68.9563 87.1305 69.2037 86.7152 69.381C86.2998 69.5537 85.7982 69.64 85.2102 69.64ZM92.5862 69.64C91.9189 69.64 91.3355 69.4977 90.8362 69.213C90.3415 68.9237 89.9565 68.5013 89.6812 67.946C89.4059 67.3907 89.2682 66.7117 89.2682 65.909C89.2682 65.153 89.3965 64.4903 89.6532 63.921C89.9099 63.3517 90.2855 62.9107 90.7802 62.598C91.2749 62.2807 91.8792 62.122 92.5932 62.122C93.2605 62.122 93.8392 62.269 94.3292 62.563C94.8192 62.8523 95.1995 63.2793 95.4702 63.844C95.7455 64.4087 95.8832 65.097 95.8832 65.909C95.8832 66.6463 95.7572 67.295 95.5052 67.855C95.2532 68.415 94.8822 68.8537 94.3922 69.171C93.9069 69.4837 93.3049 69.64 92.5862 69.64ZM92.5932 68.618C93.0225 68.618 93.3865 68.5083 93.6852 68.289C93.9839 68.0697 94.2102 67.7547 94.3642 67.344C94.5229 66.9333 94.6022 66.4457 94.6022 65.881C94.6022 65.363 94.5322 64.8987 94.3922 64.488C94.2569 64.0727 94.0422 63.7437 93.7482 63.501C93.4542 63.2583 93.0692 63.137 92.5932 63.137C92.1545 63.137 91.7835 63.2467 91.4802 63.466C91.1769 63.6807 90.9459 63.9933 90.7872 64.404C90.6332 64.8147 90.5562 65.307 90.5562 65.881C90.5562 66.3897 90.6239 66.8517 90.7592 67.267C90.8992 67.6823 91.1185 68.0113 91.4172 68.254C91.7205 68.4967 92.1125 68.618 92.5932 68.618ZM97.6042 69.5V62.262H98.8572V63.312C98.9739 63.1113 99.1349 62.9223 99.3402 62.745C99.5502 62.5677 99.8022 62.4253 100.096 62.318C100.395 62.2107 100.738 62.157 101.125 62.157C101.583 62.157 102.003 62.248 102.385 62.43C102.773 62.612 103.081 62.8967 103.309 63.284C103.543 63.6667 103.659 64.1613 103.659 64.768V69.5H102.364V64.894C102.364 64.3293 102.215 63.9117 101.916 63.641C101.622 63.3657 101.24 63.228 100.768 63.228C100.442 63.228 100.136 63.2817 99.8512 63.389C99.5665 63.4917 99.3355 63.6503 99.1582 63.865C98.9809 64.075 98.8922 64.341 98.8922 64.663V69.5H97.6042Z" fill="white" style="fill:white;fill-opacity:1;"/>
<path d="M424 64.5C424 29.1538 452.654 0.5 488 0.5V0.5C523.346 0.5 552 29.1538 552 64.5V64.5C552 99.8462 523.346 128.5 488 128.5V128.5C452.654 128.5 424 99.8462 424 64.5V64.5Z" fill="#56C7E4" style="fill:#56C7E4;fill:color(display-p3 0.3373 0.7804 0.8941);fill-opacity:1;"/>
<path d="M470.066 69.5V59.378H471.858L474.91 67.736L478.004 59.378H479.789V69.5H478.452V61.317L475.519 69.5H474.308L471.396 61.394V69.5H470.066ZM485.003 69.64C484.336 69.64 483.753 69.4977 483.253 69.213C482.759 68.9237 482.374 68.5013 482.098 67.946C481.823 67.3907 481.685 66.7117 481.685 65.909C481.685 65.153 481.814 64.4903 482.07 63.921C482.327 63.3517 482.703 62.9107 483.197 62.598C483.692 62.2807 484.296 62.122 485.01 62.122C485.678 62.122 486.256 62.269 486.746 62.563C487.236 62.8523 487.617 63.2793 487.887 63.844C488.163 64.4087 488.3 65.097 488.3 65.909C488.3 66.6463 488.174 67.295 487.922 67.855C487.67 68.415 487.299 68.8537 486.809 69.171C486.324 69.4837 485.722 69.64 485.003 69.64ZM485.01 68.618C485.44 68.618 485.804 68.5083 486.102 68.289C486.401 68.0697 486.627 67.7547 486.781 67.344C486.94 66.9333 487.019 66.4457 487.019 65.881C487.019 65.363 486.949 64.8987 486.809 64.488C486.674 64.0727 486.459 63.7437 486.165 63.501C485.871 63.2583 485.486 63.137 485.01 63.137C484.572 63.137 484.201 63.2467 483.897 63.466C483.594 63.6807 483.363 63.9933 483.204 64.404C483.05 64.8147 482.973 65.307 482.973 65.881C482.973 66.3897 483.041 66.8517 483.176 67.267C483.316 67.6823 483.536 68.0113 483.834 68.254C484.138 68.4967 484.53 68.618 485.01 68.618ZM491.76 69.5L489.142 62.262H490.36L492.285 67.876H492.404L494.336 62.262H495.547L492.943 69.5H491.76ZM496.988 69.5V62.262H498.241V69.5H496.988ZM496.953 60.729V59.385H498.276V60.729H496.953ZM503.471 69.64C502.799 69.64 502.206 69.493 501.693 69.199C501.179 68.905 500.778 68.4827 500.489 67.932C500.199 67.3813 500.055 66.721 500.055 65.951C500.055 65.1903 500.185 64.523 500.447 63.949C500.708 63.375 501.086 62.927 501.581 62.605C502.08 62.283 502.68 62.122 503.38 62.122C504.061 62.122 504.637 62.269 505.109 62.563C505.58 62.857 505.937 63.2723 506.18 63.809C506.427 64.341 506.551 64.9733 506.551 65.706V66.182H501.364C501.364 66.6393 501.438 67.0547 501.588 67.428C501.742 67.7967 501.973 68.0907 502.281 68.31C502.589 68.5293 502.978 68.639 503.45 68.639C503.912 68.639 504.308 68.5317 504.64 68.317C504.976 68.1023 505.19 67.792 505.284 67.386H506.502C506.418 67.876 506.222 68.289 505.914 68.625C505.61 68.961 505.244 69.2153 504.815 69.388C504.39 69.556 503.942 69.64 503.471 69.64ZM501.371 65.307H505.305C505.305 64.8917 505.235 64.5183 505.095 64.187C504.955 63.851 504.74 63.5873 504.451 63.396C504.166 63.2 503.807 63.102 503.373 63.102C502.92 63.102 502.544 63.2117 502.246 63.431C501.947 63.6457 501.725 63.9233 501.581 64.264C501.436 64.6 501.366 64.9477 501.371 65.307Z" fill="#1A1B1D" style="fill:#1A1B1D;fill:color(display-p3 0.1020 0.1059 0.1137);fill-opacity:1;"/>
<path d="M149.5 63.5C148.948 63.5 148.5 63.9477 148.5 64.5C148.5 65.0523 148.948 65.5 149.5 65.5V63.5ZM239.5 23.5C240.052 23.5 240.5 23.0523 240.5 22.5C240.5 21.9477 240.052 21.5 239.5 21.5V23.5ZM330.5 21.5C329.948 21.5 329.5 21.9477 329.5 22.5C329.5 23.0523 329.948 23.5 330.5 23.5V21.5ZM421.207 65.2071C421.598 64.8166 421.598 64.1834 421.207 63.7929L414.843 57.4289C414.453 57.0384 413.819 57.0384 413.429 57.4289C413.038 57.8195 413.038 58.4526 413.429 58.8431L419.086 64.5L413.429 70.1569C413.038 70.5474 413.038 71.1805 413.429 71.5711C413.819 71.9616 414.453 71.9616 414.843 71.5711L421.207 65.2071ZM376 43.5H377H376ZM194 43.5H195H194ZM376 43.5H377H376ZM194 43.5H195H194ZM149.5 65.5H173V63.5H149.5V65.5ZM215 23.5H239.5V21.5H215V23.5ZM330.5 23.5H355V21.5H330.5V23.5ZM397 65.5H420.5V63.5H397V65.5ZM355 23.5C366.046 23.5 375 32.4543 375 43.5H377C377 31.3497 367.15 21.5 355 21.5V23.5ZM195 43.5C195 32.4543 203.954 23.5 215 23.5V21.5C202.85 21.5 193 31.3497 193 43.5H195ZM375 43.5C375 55.6503 384.85 65.5 397 65.5V63.5C385.954 63.5 377 54.5457 377 43.5H375ZM173 65.5C185.15 65.5 195 55.6503 195 43.5H193C193 54.5457 184.046 63.5 173 63.5V65.5Z" fill="#4D5157" style="fill:#4D5157;fill:color(display-p3 0.3020 0.3176 0.3412);fill-opacity:1;"/>
<path d="M249.37 28.5H247.506L251.693 16.8636H253.722L257.909 28.5H256.046L252.756 18.9773H252.665L249.37 28.5ZM249.682 23.9432H255.728V25.4205H249.682V23.9432ZM268.532 20.6477H266.759C266.691 20.2689 266.564 19.9356 266.378 19.6477C266.193 19.3598 265.965 19.1155 265.696 18.9148C265.427 18.714 265.126 18.5625 264.793 18.4602C264.463 18.358 264.113 18.3068 263.742 18.3068C263.071 18.3068 262.471 18.4754 261.941 18.8125C261.414 19.1496 260.998 19.6439 260.691 20.2955C260.388 20.947 260.236 21.7424 260.236 22.6818C260.236 23.6288 260.388 24.428 260.691 25.0795C260.998 25.7311 261.416 26.2235 261.946 26.5568C262.477 26.8902 263.073 27.0568 263.736 27.0568C264.104 27.0568 264.452 27.0076 264.782 26.9091C265.115 26.8068 265.416 26.6572 265.685 26.4602C265.954 26.2633 266.181 26.0227 266.367 25.7386C266.556 25.4508 266.687 25.1212 266.759 24.75L268.532 24.7557C268.437 25.3277 268.253 25.8542 267.98 26.3352C267.712 26.8125 267.365 27.2254 266.941 27.5739C266.52 27.9186 266.039 28.1856 265.498 28.375C264.956 28.5644 264.365 28.6591 263.725 28.6591C262.717 28.6591 261.819 28.4205 261.032 27.9432C260.244 27.4621 259.623 26.7746 259.168 25.8807C258.717 24.9867 258.492 23.9205 258.492 22.6818C258.492 21.4394 258.719 20.3731 259.174 19.483C259.628 18.589 260.249 17.9034 261.037 17.4261C261.825 16.9451 262.721 16.7045 263.725 16.7045C264.342 16.7045 264.918 16.7936 265.452 16.9716C265.99 17.1458 266.473 17.4034 266.901 17.7443C267.329 18.0814 267.683 18.4943 267.963 18.983C268.244 19.4678 268.433 20.0227 268.532 20.6477ZM269.883 18.375V16.8636H278.888V18.375H275.258V28.5H273.508V18.375H269.883ZM280.702 28.5V16.8636H287.998V18.375H282.458V21.9205H287.617V23.4261H282.458V26.9886H288.066V28.5H280.702ZM293.934 28.5H290.167V16.8636H294.053C295.193 16.8636 296.173 17.0966 296.991 17.5625C297.809 18.0246 298.436 18.6894 298.872 19.5568C299.311 20.4205 299.531 21.4564 299.531 22.6648C299.531 23.8769 299.309 24.9186 298.866 25.7898C298.426 26.661 297.79 27.3314 296.957 27.8011C296.123 28.267 295.116 28.5 293.934 28.5ZM291.923 26.9659H293.837C294.724 26.9659 295.461 26.7992 296.048 26.4659C296.635 26.1288 297.074 25.642 297.366 25.0057C297.658 24.3655 297.803 23.5852 297.803 22.6648C297.803 21.7519 297.658 20.9773 297.366 20.3409C297.078 19.7045 296.648 19.2216 296.076 18.892C295.504 18.5625 294.794 18.3977 293.945 18.3977H291.923V26.9659ZM306.994 28.5V29.9432H299.602V28.5H306.994ZM309.836 16.8636V28.5H308.081V16.8636H309.836ZM321.609 16.8636V28.5H319.996L314.081 19.9659H313.973V28.5H312.217V16.8636H313.842L319.763 25.4091H319.871V16.8636H321.609Z" fill="black" fill-opacity="0.8" style="fill:black;fill-opacity:0.8;"/>
<path d="M149.5 63.5C148.948 63.5 148.5 63.9477 148.5 64.5C148.5 65.0523 148.948 65.5 149.5 65.5V63.5ZM238.5 105.5C239.052 105.5 239.5 105.052 239.5 104.5C239.5 103.948 239.052 103.5 238.5 103.5V105.5ZM331.5 103.5C330.948 103.5 330.5 103.948 330.5 104.5C330.5 105.052 330.948 105.5 331.5 105.5V103.5ZM421.207 65.2071C421.598 64.8166 421.598 64.1834 421.207 63.7929L414.843 57.4289C414.453 57.0384 413.819 57.0384 413.429 57.4289C413.038 57.8195 413.038 58.4526 413.429 58.8431L419.086 64.5L413.429 70.1569C413.038 70.5474 413.038 71.1805 413.429 71.5711C413.819 71.9616 414.453 71.9616 414.843 71.5711L421.207 65.2071ZM376 84.5H377H376ZM194 84.5H195H194ZM376 84.5H377H376ZM194 84.5H195H194ZM149.5 65.5H174V63.5H149.5V65.5ZM214 105.5H238.5V103.5H214V105.5ZM331.5 105.5H356V103.5H331.5V105.5ZM396 65.5H420.5V63.5H396V65.5ZM356 105.5C367.598 105.5 377 96.098 377 84.5H375C375 94.9934 366.493 103.5 356 103.5V105.5ZM193 84.5C193 96.098 202.402 105.5 214 105.5V103.5C203.507 103.5 195 94.9934 195 84.5H193ZM377 84.5C377 74.0066 385.507 65.5 396 65.5V63.5C384.402 63.5 375 72.902 375 84.5H377ZM174 65.5C184.493 65.5 193 74.0066 193 84.5H195C195 72.902 185.598 63.5 174 63.5V65.5Z" fill="#4D5157" style="fill:#4D5157;fill:color(display-p3 0.3020 0.3176 0.3412);fill-opacity:1;"/>
<path d="M251.068 110.5H247.301V98.8636H251.187C252.327 98.8636 253.306 99.0966 254.125 99.5625C254.943 100.025 255.57 100.689 256.005 101.557C256.445 102.42 256.664 103.456 256.664 104.665C256.664 105.877 256.443 106.919 256 107.79C255.56 108.661 254.924 109.331 254.09 109.801C253.257 110.267 252.25 110.5 251.068 110.5ZM249.056 108.966H250.971C251.857 108.966 252.594 108.799 253.181 108.466C253.768 108.129 254.208 107.642 254.5 107.006C254.791 106.366 254.937 105.585 254.937 104.665C254.937 103.752 254.791 102.977 254.5 102.341C254.212 101.705 253.782 101.222 253.21 100.892C252.638 100.562 251.928 100.398 251.079 100.398H249.056V108.966ZM260.427 98.8636V110.5H258.672V98.8636H260.427ZM262.808 110.5V98.8636H266.956C267.857 98.8636 268.605 99.0189 269.2 99.3295C269.799 99.6402 270.246 100.07 270.541 100.619C270.836 101.165 270.984 101.795 270.984 102.511C270.984 103.223 270.835 103.85 270.535 104.392C270.24 104.93 269.793 105.348 269.194 105.648C268.6 105.947 267.852 106.097 266.95 106.097H263.808V104.585H266.791C267.359 104.585 267.821 104.504 268.177 104.341C268.537 104.178 268.8 103.941 268.967 103.631C269.134 103.32 269.217 102.947 269.217 102.511C269.217 102.072 269.132 101.691 268.961 101.369C268.795 101.047 268.532 100.801 268.172 100.631C267.816 100.456 267.348 100.369 266.768 100.369H264.564V110.5H262.808ZM268.552 105.25L271.427 110.5H269.427L266.609 105.25H268.552ZM272.945 110.5V98.8636H280.24V100.375H274.7V103.92H279.859V105.426H274.7V108.989H280.308V110.5H272.945ZM292.074 102.648H290.301C290.233 102.269 290.106 101.936 289.921 101.648C289.735 101.36 289.508 101.116 289.239 100.915C288.97 100.714 288.669 100.562 288.335 100.46C288.006 100.358 287.655 100.307 287.284 100.307C286.614 100.307 286.013 100.475 285.483 100.812C284.957 101.15 284.54 101.644 284.233 102.295C283.93 102.947 283.778 103.742 283.778 104.682C283.778 105.629 283.93 106.428 284.233 107.08C284.54 107.731 284.958 108.223 285.489 108.557C286.019 108.89 286.616 109.057 287.278 109.057C287.646 109.057 287.994 109.008 288.324 108.909C288.657 108.807 288.958 108.657 289.227 108.46C289.496 108.263 289.724 108.023 289.909 107.739C290.099 107.451 290.229 107.121 290.301 106.75L292.074 106.756C291.979 107.328 291.796 107.854 291.523 108.335C291.254 108.812 290.907 109.225 290.483 109.574C290.063 109.919 289.582 110.186 289.04 110.375C288.498 110.564 287.907 110.659 287.267 110.659C286.26 110.659 285.362 110.42 284.574 109.943C283.786 109.462 283.165 108.775 282.71 107.881C282.26 106.987 282.034 105.92 282.034 104.682C282.034 103.439 282.261 102.373 282.716 101.483C283.171 100.589 283.792 99.9034 284.58 99.4261C285.367 98.9451 286.263 98.7045 287.267 98.7045C287.885 98.7045 288.46 98.7936 288.994 98.9716C289.532 99.1458 290.015 99.4034 290.443 99.7443C290.871 100.081 291.225 100.494 291.506 100.983C291.786 101.468 291.975 102.023 292.074 102.648ZM293.425 100.375V98.8636H302.431V100.375H298.8V110.5H297.05V100.375H293.425ZM304.245 110.5V98.8636H311.54V100.375H306V103.92H311.159V105.426H306V108.989H311.608V110.5H304.245ZM317.476 110.5H313.709V98.8636H317.596C318.736 98.8636 319.715 99.0966 320.533 99.5625C321.351 100.025 321.978 100.689 322.414 101.557C322.853 102.42 323.073 103.456 323.073 104.665C323.073 105.877 322.851 106.919 322.408 107.79C321.969 108.661 321.332 109.331 320.499 109.801C319.666 110.267 318.658 110.5 317.476 110.5ZM315.465 108.966H317.38C318.266 108.966 319.003 108.799 319.59 108.466C320.177 108.129 320.616 107.642 320.908 107.006C321.2 106.366 321.346 105.585 321.346 104.665C321.346 103.752 321.2 102.977 320.908 102.341C320.62 101.705 320.19 101.222 319.618 100.892C319.046 100.562 318.336 100.398 317.488 100.398H315.465V108.966Z" fill="black" fill-opacity="0.8" style="fill:black;fill-opacity:0.8;"/>
<path d="M3.91134 153.318V158.5H2.21248V149.773H3.84316V151.193H3.95112C4.15187 150.731 4.46627 150.36 4.8943 150.08C5.32612 149.799 5.86968 149.659 6.52498 149.659C7.11968 149.659 7.64051 149.784 8.08748 150.034C8.53445 150.28 8.88104 150.648 9.12725 151.136C9.37347 151.625 9.49657 152.229 9.49657 152.949V158.5H7.79771V153.153C7.79771 152.521 7.63293 152.027 7.30339 151.67C6.97384 151.311 6.52119 151.131 5.94543 151.131C5.5515 151.131 5.20112 151.216 4.8943 151.386C4.59127 151.557 4.35074 151.807 4.17271 152.136C3.99846 152.462 3.91134 152.856 3.91134 153.318ZM14.1388 158.693C13.5857 158.693 13.0857 158.591 12.6388 158.386C12.1918 158.178 11.8376 157.877 11.5763 157.483C11.3187 157.089 11.1899 156.606 11.1899 156.034C11.1899 155.542 11.2846 155.136 11.474 154.818C11.6634 154.5 11.9191 154.248 12.241 154.062C12.563 153.877 12.9228 153.737 13.3206 153.642C13.7183 153.547 14.1236 153.475 14.5365 153.426C15.0592 153.366 15.4835 153.316 15.8092 153.278C16.135 153.237 16.3717 153.17 16.5194 153.08C16.6672 152.989 16.741 152.841 16.741 152.636V152.597C16.741 152.1 16.6009 151.716 16.3206 151.443C16.0441 151.17 15.6312 151.034 15.0819 151.034C14.51 151.034 14.0592 151.161 13.7297 151.415C13.4039 151.665 13.1785 151.943 13.0535 152.25L11.4569 151.886C11.6463 151.356 11.9228 150.928 12.2865 150.602C12.6539 150.273 13.0763 150.034 13.5535 149.886C14.0308 149.735 14.5327 149.659 15.0592 149.659C15.4077 149.659 15.777 149.701 16.1672 149.784C16.5611 149.864 16.9285 150.011 17.2694 150.227C17.6141 150.443 17.8963 150.752 18.116 151.153C18.3357 151.551 18.4456 152.068 18.4456 152.705V158.5H16.7865V157.307H16.7183C16.6085 157.527 16.4437 157.742 16.224 157.955C16.0043 158.167 15.7221 158.343 15.3774 158.483C15.0327 158.623 14.6198 158.693 14.1388 158.693ZM14.5081 157.33C14.9778 157.33 15.3793 157.237 15.7126 157.051C16.0497 156.866 16.3054 156.623 16.4797 156.324C16.6577 156.021 16.7467 155.697 16.7467 155.352V154.227C16.6861 154.288 16.5687 154.345 16.3944 154.398C16.224 154.447 16.0289 154.491 15.8092 154.528C15.5895 154.562 15.3755 154.595 15.1672 154.625C14.9588 154.652 14.7846 154.674 14.6444 154.693C14.3149 154.735 14.0138 154.805 13.741 154.903C13.4721 155.002 13.2562 155.144 13.0933 155.33C12.9342 155.511 12.8547 155.754 12.8547 156.057C12.8547 156.477 13.01 156.795 13.3206 157.011C13.6312 157.223 14.027 157.33 14.5081 157.33ZM20.5324 158.5V149.773H22.163V151.193H22.271C22.4528 150.712 22.7502 150.337 23.163 150.068C23.5759 149.795 24.0702 149.659 24.646 149.659C25.2293 149.659 25.718 149.795 26.1119 150.068C26.5096 150.341 26.8032 150.716 26.9926 151.193H27.0835C27.2918 150.727 27.6233 150.356 28.0778 150.08C28.5324 149.799 29.074 149.659 29.7028 149.659C30.4945 149.659 31.1403 149.907 31.6403 150.403C32.1441 150.9 32.396 151.648 32.396 152.648V158.5H30.6971V152.807C30.6971 152.216 30.5361 151.788 30.2142 151.523C29.8922 151.258 29.5077 151.125 29.0608 151.125C28.5077 151.125 28.0778 151.295 27.771 151.636C27.4642 151.973 27.3108 152.407 27.3108 152.938V158.5H25.6176V152.699C25.6176 152.225 25.4699 151.845 25.1744 151.557C24.8789 151.269 24.4945 151.125 24.021 151.125C23.699 151.125 23.4017 151.21 23.1289 151.381C22.86 151.547 22.6422 151.78 22.4755 152.08C22.3127 152.379 22.2312 152.725 22.2312 153.119V158.5H20.5324ZM38.2583 158.676C37.3985 158.676 36.658 158.492 36.0368 158.125C35.4193 157.754 34.9421 157.233 34.6049 156.562C34.2716 155.888 34.1049 155.098 34.1049 154.193C34.1049 153.299 34.2716 152.511 34.6049 151.83C34.9421 151.148 35.4118 150.616 36.014 150.233C36.6201 149.85 37.3284 149.659 38.139 149.659C38.6315 149.659 39.1087 149.741 39.5708 149.903C40.033 150.066 40.4477 150.322 40.8152 150.67C41.1826 151.019 41.4724 151.472 41.6845 152.028C41.8966 152.581 42.0027 153.254 42.0027 154.045V154.648H35.0652V153.375H40.3379C40.3379 152.928 40.247 152.532 40.0652 152.188C39.8833 151.839 39.6277 151.564 39.2981 151.364C38.9724 151.163 38.5898 151.062 38.1504 151.062C37.6731 151.062 37.2564 151.18 36.9004 151.415C36.5481 151.646 36.2754 151.949 36.0822 152.324C35.8928 152.695 35.7981 153.098 35.7981 153.534V154.528C35.7981 155.112 35.9004 155.608 36.1049 156.017C36.3133 156.426 36.603 156.739 36.9743 156.955C37.3455 157.167 37.7792 157.273 38.2754 157.273C38.5974 157.273 38.8909 157.227 39.1561 157.136C39.4212 157.042 39.6504 156.902 39.8436 156.716C40.0368 156.53 40.1845 156.301 40.2868 156.028L41.8947 156.318C41.7659 156.792 41.5349 157.206 41.2015 157.562C40.872 157.915 40.4572 158.189 39.9572 158.386C39.461 158.58 38.8947 158.676 38.2583 158.676ZM44.8309 158.608C44.5203 158.608 44.2533 158.498 44.0298 158.278C43.8063 158.055 43.6946 157.786 43.6946 157.472C43.6946 157.161 43.8063 156.896 44.0298 156.676C44.2533 156.453 44.5203 156.341 44.8309 156.341C45.1415 156.341 45.4086 156.453 45.6321 156.676C45.8555 156.896 45.9673 157.161 45.9673 157.472C45.9673 157.68 45.9143 157.871 45.8082 158.045C45.7059 158.216 45.5696 158.352 45.3991 158.455C45.2287 158.557 45.0393 158.608 44.8309 158.608ZM44.8309 152.256C44.5203 152.256 44.2533 152.144 44.0298 151.92C43.8063 151.697 43.6946 151.43 43.6946 151.119C43.6946 150.809 43.8063 150.544 44.0298 150.324C44.2533 150.1 44.5203 149.989 44.8309 149.989C45.1415 149.989 45.4086 150.1 45.6321 150.324C45.8555 150.544 45.9673 150.809 45.9673 151.119C45.9673 151.328 45.9143 151.519 45.8082 151.693C45.7059 151.864 45.5696 152 45.3991 152.102C45.2287 152.205 45.0393 152.256 44.8309 152.256ZM53.415 146.864V151.006H52.0059V146.864H53.415ZM55.57 158.5V146.864H57.3257V152.42H57.4677L62.3484 146.864H64.5586L59.8654 152.102L64.5757 158.5H62.462L58.7007 153.301L57.3257 154.881V158.5H55.57ZM69.0033 158.676C68.1435 158.676 67.403 158.492 66.7817 158.125C66.1643 157.754 65.6871 157.233 65.3499 156.562C65.0166 155.888 64.8499 155.098 64.8499 154.193C64.8499 153.299 65.0166 152.511 65.3499 151.83C65.6871 151.148 66.1567 150.616 66.759 150.233C67.3651 149.85 68.0734 149.659 68.884 149.659C69.3764 149.659 69.8537 149.741 70.3158 149.903C70.778 150.066 71.1927 150.322 71.5602 150.67C71.9276 151.019 72.2174 151.472 72.4295 152.028C72.6416 152.581 72.7477 153.254 72.7477 154.045V154.648H65.8102V153.375H71.0829C71.0829 152.928 70.992 152.532 70.8102 152.188C70.6283 151.839 70.3727 151.564 70.0431 151.364C69.7174 151.163 69.3348 151.062 68.8954 151.062C68.4181 151.062 68.0014 151.18 67.6454 151.415C67.2931 151.646 67.0204 151.949 66.8272 152.324C66.6378 152.695 66.5431 153.098 66.5431 153.534V154.528C66.5431 155.112 66.6454 155.608 66.8499 156.017C67.0583 156.426 67.348 156.739 67.7192 156.955C68.0905 157.167 68.5242 157.273 69.0204 157.273C69.3424 157.273 69.6359 157.227 69.9011 157.136C70.1662 157.042 70.3954 156.902 70.5886 156.716C70.7817 156.53 70.9295 156.301 71.0317 156.028L72.6397 156.318C72.5109 156.792 72.2799 157.206 71.9465 157.562C71.617 157.915 71.2022 158.189 70.7022 158.386C70.206 158.58 69.6397 158.676 69.0033 158.676ZM76.9964 158.693C76.4433 158.693 75.9433 158.591 75.4964 158.386C75.0494 158.178 74.6952 157.877 74.4339 157.483C74.1763 157.089 74.0475 156.606 74.0475 156.034C74.0475 155.542 74.1422 155.136 74.3316 154.818C74.521 154.5 74.7767 154.248 75.0987 154.062C75.4206 153.877 75.7805 153.737 76.1782 153.642C76.5759 153.547 76.9812 153.475 77.3941 153.426C77.9168 153.366 78.3411 153.316 78.6668 153.278C78.9926 153.237 79.2293 153.17 79.3771 153.08C79.5248 152.989 79.5987 152.841 79.5987 152.636V152.597C79.5987 152.1 79.4585 151.716 79.1782 151.443C78.9017 151.17 78.4888 151.034 77.9396 151.034C77.3676 151.034 76.9168 151.161 76.5873 151.415C76.2615 151.665 76.0362 151.943 75.9112 152.25L74.3146 151.886C74.504 151.356 74.7805 150.928 75.1441 150.602C75.5115 150.273 75.9339 150.034 76.4112 149.886C76.8884 149.735 77.3903 149.659 77.9168 149.659C78.2653 149.659 78.6346 149.701 79.0248 149.784C79.4187 149.864 79.7862 150.011 80.1271 150.227C80.4718 150.443 80.754 150.752 80.9737 151.153C81.1933 151.551 81.3032 152.068 81.3032 152.705V158.5H79.6441V157.307H79.5759C79.4661 157.527 79.3013 157.742 79.0816 157.955C78.8619 158.167 78.5797 158.343 78.235 158.483C77.8903 158.623 77.4774 158.693 76.9964 158.693ZM77.3657 157.33C77.8354 157.33 78.2369 157.237 78.5702 157.051C78.9074 156.866 79.163 156.623 79.3373 156.324C79.5153 156.021 79.6043 155.697 79.6043 155.352V154.227C79.5437 154.288 79.4263 154.345 79.2521 154.398C79.0816 154.447 78.8865 154.491 78.6668 154.528C78.4471 154.562 78.2331 154.595 78.0248 154.625C77.8165 154.652 77.6422 154.674 77.5021 154.693C77.1725 154.735 76.8714 154.805 76.5987 154.903C76.3297 155.002 76.1138 155.144 75.9509 155.33C75.7918 155.511 75.7123 155.754 75.7123 156.057C75.7123 156.477 75.8676 156.795 76.1782 157.011C76.4888 157.223 76.8846 157.33 77.3657 157.33ZM85.0888 153.318V158.5H83.39V149.773H85.0207V151.193H85.1286C85.3294 150.731 85.6438 150.36 86.0718 150.08C86.5036 149.799 87.0472 149.659 87.7025 149.659C88.2972 149.659 88.818 149.784 89.265 150.034C89.7119 150.28 90.0585 150.648 90.3048 151.136C90.551 151.625 90.6741 152.229 90.6741 152.949V158.5H88.9752V153.153C88.9752 152.521 88.8104 152.027 88.4809 151.67C88.1513 151.311 87.6987 151.131 87.1229 151.131C86.729 151.131 86.3786 151.216 86.0718 151.386C85.7688 151.557 85.5282 151.807 85.3502 152.136C85.176 152.462 85.0888 152.856 85.0888 153.318ZM98.3049 154.881V149.773H100.009V158.5H98.339V156.989H98.2481C98.0473 157.455 97.7253 157.843 97.2822 158.153C96.8428 158.46 96.2954 158.614 95.6401 158.614C95.0795 158.614 94.5833 158.491 94.1515 158.244C93.7235 157.994 93.3863 157.625 93.1401 157.136C92.8977 156.648 92.7765 156.044 92.7765 155.324V149.773H94.4753V155.119C94.4753 155.714 94.6401 156.187 94.9697 156.54C95.2992 156.892 95.7272 157.068 96.2538 157.068C96.5719 157.068 96.8882 156.989 97.2026 156.83C97.5208 156.67 97.7841 156.43 97.9924 156.108C98.2045 155.786 98.3087 155.377 98.3049 154.881ZM106.311 158.5V146.864H110.459C111.36 146.864 112.108 147.019 112.703 147.33C113.301 147.64 113.748 148.07 114.044 148.619C114.339 149.165 114.487 149.795 114.487 150.511C114.487 151.223 114.337 151.85 114.038 152.392C113.743 152.93 113.296 153.348 112.697 153.648C112.103 153.947 111.354 154.097 110.453 154.097H107.311V152.585H110.294C110.862 152.585 111.324 152.504 111.68 152.341C112.04 152.178 112.303 151.941 112.47 151.631C112.637 151.32 112.72 150.947 112.72 150.511C112.72 150.072 112.635 149.691 112.464 149.369C112.298 149.047 112.034 148.801 111.674 148.631C111.318 148.456 110.851 148.369 110.271 148.369H108.067V158.5H106.311ZM112.055 153.25L114.93 158.5H112.93L110.112 153.25H112.055ZM119.963 158.676C119.103 158.676 118.363 158.492 117.741 158.125C117.124 157.754 116.647 157.233 116.31 156.562C115.976 155.888 115.81 155.098 115.81 154.193C115.81 153.299 115.976 152.511 116.31 151.83C116.647 151.148 117.116 150.616 117.719 150.233C118.325 149.85 119.033 149.659 119.844 149.659C120.336 149.659 120.813 149.741 121.275 149.903C121.738 150.066 122.152 150.322 122.52 150.67C122.887 151.019 123.177 151.472 123.389 152.028C123.601 152.581 123.707 153.254 123.707 154.045V154.648H116.77V153.375H122.043C122.043 152.928 121.952 152.532 121.77 152.188C121.588 151.839 121.332 151.564 121.003 151.364C120.677 151.163 120.294 151.062 119.855 151.062C119.378 151.062 118.961 151.18 118.605 151.415C118.253 151.646 117.98 151.949 117.787 152.324C117.597 152.695 117.503 153.098 117.503 153.534V154.528C117.503 155.112 117.605 155.608 117.81 156.017C118.018 156.426 118.308 156.739 118.679 156.955C119.05 157.167 119.484 157.273 119.98 157.273C120.302 157.273 120.596 157.227 120.861 157.136C121.126 157.042 121.355 156.902 121.548 156.716C121.741 156.53 121.889 156.301 121.991 156.028L123.599 156.318C123.471 156.792 123.239 157.206 122.906 157.562C122.577 157.915 122.162 158.189 121.662 158.386C121.166 158.58 120.599 158.676 119.963 158.676ZM129.178 158.676C128.318 158.676 127.577 158.492 126.956 158.125C126.339 157.754 125.861 157.233 125.524 156.562C125.191 155.888 125.024 155.098 125.024 154.193C125.024 153.299 125.191 152.511 125.524 151.83C125.861 151.148 126.331 150.616 126.933 150.233C127.539 149.85 128.248 149.659 129.058 149.659C129.551 149.659 130.028 149.741 130.49 149.903C130.952 150.066 131.367 150.322 131.734 150.67C132.102 151.019 132.392 151.472 132.604 152.028C132.816 152.581 132.922 153.254 132.922 154.045V154.648H125.984V153.375H131.257C131.257 152.928 131.166 152.532 130.984 152.188C130.803 151.839 130.547 151.564 130.217 151.364C129.892 151.163 129.509 151.062 129.07 151.062C128.592 151.062 128.176 151.18 127.82 151.415C127.467 151.646 127.195 151.949 127.001 152.324C126.812 152.695 126.717 153.098 126.717 153.534V154.528C126.717 155.112 126.82 155.608 127.024 156.017C127.233 156.426 127.522 156.739 127.894 156.955C128.265 157.167 128.698 157.273 129.195 157.273C129.517 157.273 129.81 157.227 130.075 157.136C130.34 157.042 130.57 156.902 130.763 156.716C130.956 156.53 131.104 156.301 131.206 156.028L132.814 156.318C132.685 156.792 132.454 157.206 132.121 157.562C131.791 157.915 131.376 158.189 130.876 158.386C130.38 158.58 129.814 158.676 129.178 158.676ZM141.847 149.773L138.682 158.5H136.864L133.693 149.773H135.517L137.727 156.489H137.818L140.023 149.773H141.847ZM146.732 158.676C145.872 158.676 145.131 158.492 144.51 158.125C143.893 157.754 143.416 157.233 143.078 156.562C142.745 155.888 142.578 155.098 142.578 154.193C142.578 153.299 142.745 152.511 143.078 151.83C143.416 151.148 143.885 150.616 144.488 150.233C145.094 149.85 145.802 149.659 146.613 149.659C147.105 149.659 147.582 149.741 148.044 149.903C148.506 150.066 148.921 150.322 149.289 150.67C149.656 151.019 149.946 151.472 150.158 152.028C150.37 152.581 150.476 153.254 150.476 154.045V154.648H143.539V153.375H148.811C148.811 152.928 148.72 152.532 148.539 152.188C148.357 151.839 148.101 151.564 147.772 151.364C147.446 151.163 147.063 151.062 146.624 151.062C146.147 151.062 145.73 151.18 145.374 151.415C145.022 151.646 144.749 151.949 144.556 152.324C144.366 152.695 144.272 153.098 144.272 153.534V154.528C144.272 155.112 144.374 155.608 144.578 156.017C144.787 156.426 145.077 156.739 145.448 156.955C145.819 157.167 146.253 157.273 146.749 157.273C147.071 157.273 147.364 157.227 147.63 157.136C147.895 157.042 148.124 156.902 148.317 156.716C148.51 156.53 148.658 156.301 148.76 156.028L150.368 156.318C150.239 156.792 150.008 157.206 149.675 157.562C149.345 157.915 148.931 158.189 148.431 158.386C147.934 158.58 147.368 158.676 146.732 158.676ZM158.725 151.903L157.185 152.176C157.121 151.979 157.018 151.792 156.878 151.614C156.742 151.436 156.556 151.29 156.321 151.176C156.087 151.062 155.793 151.006 155.441 151.006C154.96 151.006 154.558 151.114 154.236 151.33C153.914 151.542 153.753 151.816 153.753 152.153C153.753 152.445 153.861 152.68 154.077 152.858C154.293 153.036 154.642 153.182 155.123 153.295L156.509 153.614C157.312 153.799 157.91 154.085 158.304 154.472C158.698 154.858 158.895 155.36 158.895 155.977C158.895 156.5 158.744 156.966 158.441 157.375C158.142 157.78 157.723 158.098 157.185 158.33C156.651 158.561 156.032 158.676 155.327 158.676C154.35 158.676 153.553 158.468 152.935 158.051C152.318 157.631 151.939 157.034 151.799 156.261L153.441 156.011C153.543 156.439 153.753 156.763 154.071 156.983C154.39 157.199 154.804 157.307 155.316 157.307C155.873 157.307 156.318 157.191 156.651 156.96C156.984 156.725 157.151 156.439 157.151 156.102C157.151 155.83 157.049 155.6 156.844 155.415C156.643 155.229 156.335 155.089 155.918 154.994L154.441 154.67C153.626 154.485 153.024 154.189 152.634 153.784C152.248 153.379 152.054 152.866 152.054 152.244C152.054 151.729 152.198 151.278 152.486 150.892C152.774 150.506 153.172 150.205 153.679 149.989C154.187 149.769 154.768 149.659 155.424 149.659C156.367 149.659 157.109 149.864 157.651 150.273C158.193 150.678 158.551 151.222 158.725 151.903ZM161.877 146.864V151.006H160.468V146.864H161.877ZM29.3875 182.5V170.864H31.0863V175.188H31.1886C31.2871 175.006 31.4291 174.795 31.6147 174.557C31.8004 174.318 32.0579 174.11 32.3875 173.932C32.717 173.75 33.1526 173.659 33.6943 173.659C34.3988 173.659 35.0276 173.837 35.5807 174.193C36.1337 174.549 36.5674 175.062 36.8818 175.733C37.2 176.403 37.3591 177.21 37.3591 178.153C37.3591 179.097 37.2019 179.905 36.8875 180.58C36.5731 181.25 36.1413 181.767 35.592 182.131C35.0428 182.491 34.4159 182.67 33.7113 182.67C33.181 182.67 32.7473 182.581 32.4102 182.403C32.0769 182.225 31.8155 182.017 31.6261 181.778C31.4367 181.54 31.2909 181.328 31.1886 181.142H31.0466V182.5H29.3875ZM31.0522 178.136C31.0522 178.75 31.1413 179.288 31.3193 179.75C31.4973 180.212 31.7549 180.574 32.092 180.835C32.4291 181.093 32.842 181.222 33.3307 181.222C33.8382 181.222 34.2625 181.087 34.6034 180.818C34.9443 180.545 35.2019 180.176 35.3761 179.71C35.5541 179.244 35.6432 178.72 35.6432 178.136C35.6432 177.561 35.556 177.044 35.3818 176.585C35.2113 176.127 34.9538 175.765 34.6091 175.5C34.2682 175.235 33.842 175.102 33.3307 175.102C32.8382 175.102 32.4216 175.229 32.0807 175.483C31.7435 175.737 31.4879 176.091 31.3136 176.545C31.1394 177 31.0522 177.53 31.0522 178.136ZM42.7669 182.676C41.9487 182.676 41.2347 182.489 40.6248 182.114C40.015 181.739 39.5415 181.214 39.2044 180.54C38.8672 179.866 38.6987 179.078 38.6987 178.176C38.6987 177.271 38.8672 176.479 39.2044 175.801C39.5415 175.123 40.015 174.597 40.6248 174.222C41.2347 173.847 41.9487 173.659 42.7669 173.659C43.5851 173.659 44.2991 173.847 44.9089 174.222C45.5188 174.597 45.9922 175.123 46.3294 175.801C46.6665 176.479 46.8351 177.271 46.8351 178.176C46.8351 179.078 46.6665 179.866 46.3294 180.54C45.9922 181.214 45.5188 181.739 44.9089 182.114C44.2991 182.489 43.5851 182.676 42.7669 182.676ZM42.7726 181.25C43.3029 181.25 43.7422 181.11 44.0907 180.83C44.4392 180.549 44.6968 180.176 44.8635 179.71C45.0339 179.244 45.1191 178.731 45.1191 178.17C45.1191 177.614 45.0339 177.102 44.8635 176.636C44.6968 176.167 44.4392 175.79 44.0907 175.506C43.7422 175.222 43.3029 175.08 42.7726 175.08C42.2385 175.08 41.7953 175.222 41.443 175.506C41.0945 175.79 40.8351 176.167 40.6646 176.636C40.4979 177.102 40.4146 177.614 40.4146 178.17C40.4146 178.731 40.4979 179.244 40.6646 179.71C40.8351 180.176 41.0945 180.549 41.443 180.83C41.7953 181.11 42.2385 181.25 42.7726 181.25ZM48.5554 182.5V173.773H50.1974V175.159H50.2883C50.4474 174.689 50.7277 174.32 51.1292 174.051C51.5345 173.778 51.9929 173.642 52.5042 173.642C52.6103 173.642 52.7353 173.646 52.8792 173.653C53.027 173.661 53.1425 173.67 53.2258 173.682V175.307C53.1576 175.288 53.0364 175.267 52.8622 175.244C52.6879 175.218 52.5137 175.205 52.3395 175.205C51.9379 175.205 51.58 175.29 51.2656 175.46C50.955 175.627 50.7088 175.86 50.527 176.159C50.3451 176.455 50.2542 176.792 50.2542 177.17V182.5H48.5554ZM56.2188 177.318V182.5H54.52V173.773H56.1507V175.193H56.2586C56.4594 174.731 56.7738 174.36 57.2018 174.08C57.6336 173.799 58.1772 173.659 58.8325 173.659C59.4272 173.659 59.948 173.784 60.395 174.034C60.842 174.28 61.1885 174.648 61.4348 175.136C61.681 175.625 61.8041 176.229 61.8041 176.949V182.5H60.1052V177.153C60.1052 176.521 59.9404 176.027 59.6109 175.67C59.2813 175.311 58.8287 175.131 58.2529 175.131C57.859 175.131 57.5086 175.216 57.2018 175.386C56.8988 175.557 56.6582 175.807 56.4802 176.136C56.306 176.462 56.2188 176.856 56.2188 177.318ZM65.7985 170.864V182.5H64.0428V170.864H65.7985ZM69.7418 177.318V182.5H68.043V173.773H69.6737V175.193H69.7816C69.9824 174.731 70.2968 174.36 70.7248 174.08C71.1566 173.799 71.7002 173.659 72.3555 173.659C72.9502 173.659 73.471 173.784 73.918 174.034C74.365 174.28 74.7115 174.648 74.9578 175.136C75.204 175.625 75.3271 176.229 75.3271 176.949V182.5H73.6282V177.153C73.6282 176.521 73.4634 176.027 73.1339 175.67C72.8043 175.311 72.3517 175.131 71.7759 175.131C71.382 175.131 71.0316 175.216 70.7248 175.386C70.4218 175.557 70.1812 175.807 70.0032 176.136C69.829 176.462 69.7418 176.856 69.7418 177.318ZM78.5488 182.608C78.2382 182.608 77.9711 182.498 77.7477 182.278C77.5242 182.055 77.4124 181.786 77.4124 181.472C77.4124 181.161 77.5242 180.896 77.7477 180.676C77.9711 180.453 78.2382 180.341 78.5488 180.341C78.8594 180.341 79.1265 180.453 79.3499 180.676C79.5734 180.896 79.6852 181.161 79.6852 181.472C79.6852 181.68 79.6321 181.871 79.5261 182.045C79.4238 182.216 79.2874 182.352 79.117 182.455C78.9465 182.557 78.7571 182.608 78.5488 182.608ZM78.5488 176.256C78.2382 176.256 77.9711 176.144 77.7477 175.92C77.5242 175.697 77.4124 175.43 77.4124 175.119C77.4124 174.809 77.5242 174.544 77.7477 174.324C77.9711 174.1 78.2382 173.989 78.5488 173.989C78.8594 173.989 79.1265 174.1 79.3499 174.324C79.5734 174.544 79.6852 174.809 79.6852 175.119C79.6852 175.328 79.6321 175.519 79.5261 175.693C79.4238 175.864 79.2874 176 79.117 176.102C78.9465 176.205 78.7571 176.256 78.5488 176.256ZM87.1329 170.864V175.006H85.7238V170.864H87.1329ZM89.2878 182.5V170.864H93.5492C94.375 170.864 95.0587 171 95.6003 171.273C96.142 171.542 96.5473 171.907 96.8163 172.369C97.0852 172.828 97.2197 173.345 97.2197 173.92C97.2197 174.405 97.1307 174.814 96.9526 175.148C96.7746 175.477 96.536 175.742 96.2367 175.943C95.9413 176.14 95.6155 176.284 95.2594 176.375V176.489C95.6458 176.508 96.0227 176.633 96.3901 176.864C96.7613 177.091 97.0681 177.415 97.3106 177.835C97.553 178.256 97.6742 178.767 97.6742 179.369C97.6742 179.964 97.5341 180.498 97.2538 180.972C96.9772 181.441 96.5492 181.814 95.9697 182.091C95.3901 182.364 94.6496 182.5 93.7481 182.5H89.2878ZM91.0435 180.994H93.5776C94.4185 180.994 95.0208 180.831 95.3844 180.506C95.7481 180.18 95.9299 179.773 95.9299 179.284C95.9299 178.917 95.8371 178.58 95.6515 178.273C95.4659 177.966 95.2007 177.722 94.856 177.54C94.5151 177.358 94.1098 177.267 93.6401 177.267H91.0435V180.994ZM91.0435 175.898H93.3958C93.7897 175.898 94.1439 175.822 94.4583 175.67C94.7765 175.519 95.0284 175.307 95.214 175.034C95.4034 174.758 95.4981 174.432 95.4981 174.057C95.4981 173.576 95.3295 173.172 94.9924 172.847C94.6553 172.521 94.1382 172.358 93.4413 172.358H91.0435V175.898ZM103.206 182.676C102.346 182.676 101.605 182.492 100.984 182.125C100.367 181.754 99.8893 181.233 99.5522 180.562C99.2189 179.888 99.0522 179.098 99.0522 178.193C99.0522 177.299 99.2189 176.511 99.5522 175.83C99.8893 175.148 100.359 174.616 100.961 174.233C101.567 173.85 102.276 173.659 103.086 173.659C103.579 173.659 104.056 173.741 104.518 173.903C104.98 174.066 105.395 174.322 105.762 174.67C106.13 175.019 106.42 175.472 106.632 176.028C106.844 176.581 106.95 177.254 106.95 178.045V178.648H100.012V177.375H105.285C105.285 176.928 105.194 176.532 105.012 176.188C104.831 175.839 104.575 175.564 104.245 175.364C103.92 175.163 103.537 175.062 103.098 175.062C102.62 175.062 102.204 175.18 101.848 175.415C101.495 175.646 101.223 175.949 101.029 176.324C100.84 176.695 100.745 177.098 100.745 177.534V178.528C100.745 179.112 100.848 179.608 101.052 180.017C101.261 180.426 101.55 180.739 101.922 180.955C102.293 181.167 102.726 181.273 103.223 181.273C103.545 181.273 103.838 181.227 104.103 181.136C104.368 181.042 104.598 180.902 104.791 180.716C104.984 180.53 105.132 180.301 105.234 180.028L106.842 180.318C106.713 180.792 106.482 181.206 106.149 181.562C105.819 181.915 105.404 182.189 104.904 182.386C104.408 182.58 103.842 182.676 103.206 182.676ZM108.659 182.5V173.773H110.358V182.5H108.659ZM109.517 172.426C109.221 172.426 108.968 172.328 108.755 172.131C108.547 171.93 108.443 171.691 108.443 171.415C108.443 171.134 108.547 170.896 108.755 170.699C108.968 170.498 109.221 170.398 109.517 170.398C109.812 170.398 110.064 170.498 110.272 170.699C110.485 170.896 110.591 171.134 110.591 171.415C110.591 171.691 110.485 171.93 110.272 172.131C110.064 172.328 109.812 172.426 109.517 172.426ZM112.467 182.5V173.773H114.109V175.159H114.2C114.359 174.689 114.64 174.32 115.041 174.051C115.446 173.778 115.905 173.642 116.416 173.642C116.522 173.642 116.647 173.646 116.791 173.653C116.939 173.661 117.054 173.67 117.138 173.682V175.307C117.07 175.288 116.948 175.267 116.774 175.244C116.6 175.218 116.426 175.205 116.251 175.205C115.85 175.205 115.492 175.29 115.177 175.46C114.867 175.627 114.621 175.86 114.439 176.159C114.257 176.455 114.166 176.792 114.166 177.17V182.5H112.467ZM123.96 178.881V173.773H125.665V182.5H123.994V180.989H123.903C123.703 181.455 123.381 181.843 122.938 182.153C122.498 182.46 121.951 182.614 121.295 182.614C120.735 182.614 120.239 182.491 119.807 182.244C119.379 181.994 119.042 181.625 118.795 181.136C118.553 180.648 118.432 180.044 118.432 179.324V173.773H120.131V179.119C120.131 179.714 120.295 180.187 120.625 180.54C120.955 180.892 121.383 181.068 121.909 181.068C122.227 181.068 122.544 180.989 122.858 180.83C123.176 180.67 123.439 180.43 123.648 180.108C123.86 179.786 123.964 179.377 123.96 178.881ZM131.845 173.773V175.136H127.078V173.773H131.845ZM128.357 171.682H130.056V179.938C130.056 180.267 130.105 180.515 130.203 180.682C130.302 180.845 130.429 180.956 130.584 181.017C130.743 181.074 130.915 181.102 131.101 181.102C131.237 181.102 131.357 181.093 131.459 181.074C131.561 181.055 131.641 181.04 131.698 181.028L132.004 182.432C131.906 182.47 131.766 182.508 131.584 182.545C131.402 182.587 131.175 182.61 130.902 182.614C130.455 182.621 130.039 182.542 129.652 182.375C129.266 182.208 128.953 181.951 128.715 181.602C128.476 181.254 128.357 180.816 128.357 180.29V171.682ZM134.838 170.864V175.006H133.429V170.864H134.838ZM2.84722 201.318V206.5H1.14836V197.773H2.77904V199.193H2.88699C3.08775 198.731 3.40214 198.36 3.83017 198.08C4.26199 197.799 4.80555 197.659 5.46086 197.659C6.05555 197.659 6.57639 197.784 7.02336 198.034C7.47032 198.28 7.81692 198.648 8.06313 199.136C8.30934 199.625 8.43245 200.229 8.43245 200.949V206.5H6.73358V201.153C6.73358 200.521 6.56881 200.027 6.23926 199.67C5.90972 199.311 5.45707 199.131 4.88131 199.131C4.48737 199.131 4.13699 199.216 3.83017 199.386C3.52714 199.557 3.28661 199.807 3.10858 200.136C2.93434 200.462 2.84722 200.856 2.84722 201.318ZM13.0746 206.693C12.5216 206.693 12.0216 206.591 11.5746 206.386C11.1277 206.178 10.7735 205.877 10.5121 205.483C10.2546 205.089 10.1258 204.606 10.1258 204.034C10.1258 203.542 10.2205 203.136 10.4099 202.818C10.5992 202.5 10.8549 202.248 11.1769 202.062C11.4989 201.877 11.8587 201.737 12.2564 201.642C12.6542 201.547 13.0595 201.475 13.4724 201.426C13.9951 201.366 14.4193 201.316 14.7451 201.278C15.0708 201.237 15.3076 201.17 15.4553 201.08C15.603 200.989 15.6769 200.841 15.6769 200.636V200.597C15.6769 200.1 15.5367 199.716 15.2564 199.443C14.9799 199.17 14.5671 199.034 14.0178 199.034C13.4458 199.034 12.9951 199.161 12.6655 199.415C12.3398 199.665 12.1144 199.943 11.9894 200.25L10.3928 199.886C10.5822 199.356 10.8587 198.928 11.2224 198.602C11.5898 198.273 12.0121 198.034 12.4894 197.886C12.9667 197.735 13.4686 197.659 13.9951 197.659C14.3436 197.659 14.7129 197.701 15.103 197.784C15.497 197.864 15.8644 198.011 16.2053 198.227C16.55 198.443 16.8322 198.752 17.0519 199.153C17.2716 199.551 17.3814 200.068 17.3814 200.705V206.5H15.7224V205.307H15.6542C15.5443 205.527 15.3796 205.742 15.1599 205.955C14.9402 206.167 14.658 206.343 14.3133 206.483C13.9686 206.623 13.5557 206.693 13.0746 206.693ZM13.4439 205.33C13.9136 205.33 14.3152 205.237 14.6485 205.051C14.9856 204.866 15.2413 204.623 15.4155 204.324C15.5936 204.021 15.6826 203.697 15.6826 203.352V202.227C15.622 202.288 15.5046 202.345 15.3303 202.398C15.1599 202.447 14.9648 202.491 14.7451 202.528C14.5254 202.562 14.3114 202.595 14.103 202.625C13.8947 202.652 13.7205 202.674 13.5803 202.693C13.2508 202.735 12.9496 202.805 12.6769 202.903C12.408 203.002 12.1921 203.144 12.0292 203.33C11.8701 203.511 11.7905 203.754 11.7905 204.057C11.7905 204.477 11.9458 204.795 12.2564 205.011C12.5671 205.223 12.9629 205.33 13.4439 205.33ZM23.5421 197.773V199.136H18.775V197.773H23.5421ZM20.0535 195.682H21.7523V203.938C21.7523 204.267 21.8016 204.515 21.9 204.682C21.9985 204.845 22.1254 204.956 22.2807 205.017C22.4398 205.074 22.6122 205.102 22.7978 205.102C22.9341 205.102 23.0535 205.093 23.1557 205.074C23.258 205.055 23.3375 205.04 23.3944 205.028L23.7012 206.432C23.6027 206.47 23.4625 206.508 23.2807 206.545C23.0989 206.587 22.8716 206.61 22.5989 206.614C22.1519 206.621 21.7353 206.542 21.3489 206.375C20.9625 206.208 20.65 205.951 20.4114 205.602C20.1728 205.254 20.0535 204.816 20.0535 204.29V195.682ZM25.2454 206.5V197.773H26.9442V206.5H25.2454ZM26.1033 196.426C25.8079 196.426 25.5541 196.328 25.3419 196.131C25.1336 195.93 25.0294 195.691 25.0294 195.415C25.0294 195.134 25.1336 194.896 25.3419 194.699C25.5541 194.498 25.8079 194.398 26.1033 194.398C26.3988 194.398 26.6507 194.498 26.859 194.699C27.0711 194.896 27.1772 195.134 27.1772 195.415C27.1772 195.691 27.0711 195.93 26.859 196.131C26.6507 196.328 26.3988 196.426 26.1033 196.426ZM32.7299 206.676C31.9117 206.676 31.1977 206.489 30.5878 206.114C29.978 205.739 29.5045 205.214 29.1674 204.54C28.8302 203.866 28.6617 203.078 28.6617 202.176C28.6617 201.271 28.8302 200.479 29.1674 199.801C29.5045 199.123 29.978 198.597 30.5878 198.222C31.1977 197.847 31.9117 197.659 32.7299 197.659C33.548 197.659 34.2621 197.847 34.8719 198.222C35.4818 198.597 35.9552 199.123 36.2924 199.801C36.6295 200.479 36.798 201.271 36.798 202.176C36.798 203.078 36.6295 203.866 36.2924 204.54C35.9552 205.214 35.4818 205.739 34.8719 206.114C34.2621 206.489 33.548 206.676 32.7299 206.676ZM32.7355 205.25C33.2659 205.25 33.7052 205.11 34.0537 204.83C34.4022 204.549 34.6598 204.176 34.8265 203.71C34.9969 203.244 35.0821 202.731 35.0821 202.17C35.0821 201.614 34.9969 201.102 34.8265 200.636C34.6598 200.167 34.4022 199.79 34.0537 199.506C33.7052 199.222 33.2659 199.08 32.7355 199.08C32.2015 199.08 31.7583 199.222 31.406 199.506C31.0575 199.79 30.798 200.167 30.6276 200.636C30.4609 201.102 30.3776 201.614 30.3776 202.17C30.3776 202.731 30.4609 203.244 30.6276 203.71C30.798 204.176 31.0575 204.549 31.406 204.83C31.7583 205.11 32.2015 205.25 32.7355 205.25ZM40.2172 201.318V206.5H38.5184V197.773H40.149V199.193H40.257C40.4577 198.731 40.7721 198.36 41.2002 198.08C41.632 197.799 42.1756 197.659 42.8309 197.659C43.4256 197.659 43.9464 197.784 44.3934 198.034C44.8403 198.28 45.1869 198.648 45.4331 199.136C45.6793 199.625 45.8024 200.229 45.8024 200.949V206.5H44.1036V201.153C44.1036 200.521 43.9388 200.027 43.6093 199.67C43.2797 199.311 42.8271 199.131 42.2513 199.131C41.8574 199.131 41.507 199.216 41.2002 199.386C40.8971 199.557 40.6566 199.807 40.4786 200.136C40.3043 200.462 40.2172 200.856 40.2172 201.318ZM50.4446 206.693C49.8916 206.693 49.3916 206.591 48.9446 206.386C48.4977 206.178 48.1435 205.877 47.8821 205.483C47.6246 205.089 47.4958 204.606 47.4958 204.034C47.4958 203.542 47.5905 203.136 47.7799 202.818C47.9692 202.5 48.2249 202.248 48.5469 202.062C48.8689 201.877 49.2287 201.737 49.6264 201.642C50.0242 201.547 50.4295 201.475 50.8424 201.426C51.3651 201.366 51.7893 201.316 52.1151 201.278C52.4408 201.237 52.6776 201.17 52.8253 201.08C52.973 200.989 53.0469 200.841 53.0469 200.636V200.597C53.0469 200.1 52.9067 199.716 52.6264 199.443C52.3499 199.17 51.9371 199.034 51.3878 199.034C50.8158 199.034 50.3651 199.161 50.0355 199.415C49.7098 199.665 49.4844 199.943 49.3594 200.25L47.7628 199.886C47.9522 199.356 48.2287 198.928 48.5924 198.602C48.9598 198.273 49.3821 198.034 49.8594 197.886C50.3367 197.735 50.8386 197.659 51.3651 197.659C51.7136 197.659 52.0829 197.701 52.473 197.784C52.867 197.864 53.2344 198.011 53.5753 198.227C53.92 198.443 54.2022 198.752 54.4219 199.153C54.6416 199.551 54.7514 200.068 54.7514 200.705V206.5H53.0924V205.307H53.0242C52.9143 205.527 52.7496 205.742 52.5299 205.955C52.3102 206.167 52.028 206.343 51.6833 206.483C51.3386 206.623 50.9257 206.693 50.4446 206.693ZM50.8139 205.33C51.2836 205.33 51.6852 205.237 52.0185 205.051C52.3556 204.866 52.6113 204.623 52.7855 204.324C52.9636 204.021 53.0526 203.697 53.0526 203.352V202.227C52.992 202.288 52.8746 202.345 52.7003 202.398C52.5299 202.447 52.3348 202.491 52.1151 202.528C51.8954 202.562 51.6814 202.595 51.473 202.625C51.2647 202.652 51.0905 202.674 50.9503 202.693C50.6208 202.735 50.3196 202.805 50.0469 202.903C49.778 203.002 49.5621 203.144 49.3992 203.33C49.2401 203.511 49.1605 203.754 49.1605 204.057C49.1605 204.477 49.3158 204.795 49.6264 205.011C49.9371 205.223 50.3329 205.33 50.8139 205.33ZM58.5371 194.864V206.5H56.8382V194.864H58.5371ZM60.6466 206.5V197.773H62.3455V206.5H60.6466ZM61.5046 196.426C61.2091 196.426 60.9553 196.328 60.7432 196.131C60.5349 195.93 60.4307 195.691 60.4307 195.415C60.4307 195.134 60.5349 194.896 60.7432 194.699C60.9553 194.498 61.2091 194.398 61.5046 194.398C61.8 194.398 62.0519 194.498 62.2602 194.699C62.4724 194.896 62.5784 195.134 62.5784 195.415C62.5784 195.691 62.4724 195.93 62.2602 196.131C62.0519 196.328 61.8 196.426 61.5046 196.426ZM68.5288 197.773V199.136H63.7618V197.773H68.5288ZM65.0402 195.682H66.7391V203.938C66.7391 204.267 66.7883 204.515 66.8868 204.682C66.9853 204.845 67.1122 204.956 67.2675 205.017C67.4266 205.074 67.5989 205.102 67.7845 205.102C67.9209 205.102 68.0402 205.093 68.1425 205.074C68.2448 205.055 68.3243 205.04 68.3811 205.028L68.6879 206.432C68.5895 206.47 68.4493 206.508 68.2675 206.545C68.0857 206.587 67.8584 206.61 67.5857 206.614C67.1387 206.621 66.722 206.542 66.3357 206.375C65.9493 206.208 65.6368 205.951 65.3982 205.602C65.1595 205.254 65.0402 204.816 65.0402 204.29V195.682ZM71.306 209.773C71.0522 209.773 70.8211 209.752 70.6128 209.71C70.4045 209.672 70.2491 209.631 70.1469 209.585L70.556 208.193C70.8666 208.277 71.1431 208.313 71.3855 208.301C71.6279 208.29 71.842 208.199 72.0276 208.028C72.217 207.858 72.3836 207.58 72.5276 207.193L72.7378 206.614L69.5446 197.773H71.3628L73.573 204.545H73.6639L75.8741 197.773H77.698L74.1014 207.665C73.9348 208.119 73.7226 208.504 73.4651 208.818C73.2075 209.136 72.9007 209.375 72.5446 209.534C72.1885 209.693 71.7757 209.773 71.306 209.773ZM80.2379 206.608C79.9273 206.608 79.6603 206.498 79.4368 206.278C79.2133 206.055 79.1016 205.786 79.1016 205.472C79.1016 205.161 79.2133 204.896 79.4368 204.676C79.6603 204.453 79.9273 204.341 80.2379 204.341C80.5485 204.341 80.8156 204.453 81.0391 204.676C81.2625 204.896 81.3743 205.161 81.3743 205.472C81.3743 205.68 81.3213 205.871 81.2152 206.045C81.1129 206.216 80.9766 206.352 80.8061 206.455C80.6357 206.557 80.4463 206.608 80.2379 206.608ZM80.2379 200.256C79.9273 200.256 79.6603 200.144 79.4368 199.92C79.2133 199.697 79.1016 199.43 79.1016 199.119C79.1016 198.809 79.2133 198.544 79.4368 198.324C79.6603 198.1 79.9273 197.989 80.2379 197.989C80.5485 197.989 80.8156 198.1 81.0391 198.324C81.2625 198.544 81.3743 198.809 81.3743 199.119C81.3743 199.328 81.3213 199.519 81.2152 199.693C81.1129 199.864 80.9766 200 80.8061 200.102C80.6357 200.205 80.4463 200.256 80.2379 200.256ZM88.822 194.864V199.006H87.4129V194.864H88.822ZM100.642 198.648H98.869C98.8008 198.269 98.6739 197.936 98.4883 197.648C98.3027 197.36 98.0755 197.116 97.8065 196.915C97.5376 196.714 97.2364 196.562 96.9031 196.46C96.5736 196.358 96.2232 196.307 95.852 196.307C95.1815 196.307 94.5811 196.475 94.0508 196.812C93.5243 197.15 93.1077 197.644 92.8008 198.295C92.4978 198.947 92.3463 199.742 92.3463 200.682C92.3463 201.629 92.4978 202.428 92.8008 203.08C93.1077 203.731 93.5262 204.223 94.0565 204.557C94.5868 204.89 95.1834 205.057 95.8463 205.057C96.2137 205.057 96.5622 205.008 96.8917 204.909C97.2251 204.807 97.5262 204.657 97.7952 204.46C98.0641 204.263 98.2914 204.023 98.477 203.739C98.6664 203.451 98.797 203.121 98.869 202.75L100.642 202.756C100.547 203.328 100.363 203.854 100.091 204.335C99.8217 204.812 99.4751 205.225 99.0508 205.574C98.6304 205.919 98.1493 206.186 97.6077 206.375C97.066 206.564 96.4751 206.659 95.8349 206.659C94.8274 206.659 93.9296 206.42 93.1417 205.943C92.3539 205.462 91.7327 204.775 91.2781 203.881C90.8274 202.987 90.602 201.92 90.602 200.682C90.602 199.439 90.8292 198.373 91.2838 197.483C91.7383 196.589 92.3595 195.903 93.1474 195.426C93.9353 194.945 94.8311 194.705 95.8349 194.705C96.4524 194.705 97.0281 194.794 97.5622 194.972C98.1001 195.146 98.583 195.403 99.0111 195.744C99.4391 196.081 99.7933 196.494 100.074 196.983C100.354 197.468 100.543 198.023 100.642 198.648ZM104.97 206.693C104.417 206.693 103.917 206.591 103.47 206.386C103.023 206.178 102.669 205.877 102.408 205.483C102.15 205.089 102.021 204.606 102.021 204.034C102.021 203.542 102.116 203.136 102.305 202.818C102.495 202.5 102.75 202.248 103.072 202.062C103.394 201.877 103.754 201.737 104.152 201.642C104.55 201.547 104.955 201.475 105.368 201.426C105.89 201.366 106.315 201.316 106.64 201.278C106.966 201.237 107.203 201.17 107.351 201.08C107.498 200.989 107.572 200.841 107.572 200.636V200.597C107.572 200.1 107.432 199.716 107.152 199.443C106.875 199.17 106.462 199.034 105.913 199.034C105.341 199.034 104.89 199.161 104.561 199.415C104.235 199.665 104.01 199.943 103.885 200.25L102.288 199.886C102.478 199.356 102.754 198.928 103.118 198.602C103.485 198.273 103.908 198.034 104.385 197.886C104.862 197.735 105.364 197.659 105.89 197.659C106.239 197.659 106.608 197.701 106.998 197.784C107.392 197.864 107.76 198.011 108.101 198.227C108.445 198.443 108.728 198.752 108.947 199.153C109.167 199.551 109.277 200.068 109.277 200.705V206.5H107.618V205.307H107.55C107.44 205.527 107.275 205.742 107.055 205.955C106.836 206.167 106.553 206.343 106.209 206.483C105.864 206.623 105.451 206.693 104.97 206.693ZM105.339 205.33C105.809 205.33 106.211 205.237 106.544 205.051C106.881 204.866 107.137 204.623 107.311 204.324C107.489 204.021 107.578 203.697 107.578 203.352V202.227C107.517 202.288 107.4 202.345 107.226 202.398C107.055 202.447 106.86 202.491 106.64 202.528C106.421 202.562 106.207 202.595 105.998 202.625C105.79 202.652 105.616 202.674 105.476 202.693C105.146 202.735 104.845 202.805 104.572 202.903C104.303 203.002 104.087 203.144 103.925 203.33C103.765 203.511 103.686 203.754 103.686 204.057C103.686 204.477 103.841 204.795 104.152 205.011C104.462 205.223 104.858 205.33 105.339 205.33ZM113.062 201.318V206.5H111.364V197.773H112.994V199.193H113.102C113.303 198.731 113.617 198.36 114.045 198.08C114.477 197.799 115.021 197.659 115.676 197.659C116.271 197.659 116.792 197.784 117.239 198.034C117.686 198.28 118.032 198.648 118.278 199.136C118.525 199.625 118.648 200.229 118.648 200.949V206.5H116.949V201.153C116.949 200.521 116.784 200.027 116.455 199.67C116.125 199.311 115.672 199.131 115.097 199.131C114.703 199.131 114.352 199.216 114.045 199.386C113.742 199.557 113.502 199.807 113.324 200.136C113.15 200.462 113.062 200.856 113.062 201.318ZM123.29 206.693C122.737 206.693 122.237 206.591 121.79 206.386C121.343 206.178 120.989 205.877 120.727 205.483C120.47 205.089 120.341 204.606 120.341 204.034C120.341 203.542 120.436 203.136 120.625 202.818C120.815 202.5 121.07 202.248 121.392 202.062C121.714 201.877 122.074 201.737 122.472 201.642C122.869 201.547 123.275 201.475 123.688 201.426C124.21 201.366 124.635 201.316 124.96 201.278C125.286 201.237 125.523 201.17 125.671 201.08C125.818 200.989 125.892 200.841 125.892 200.636V200.597C125.892 200.1 125.752 199.716 125.472 199.443C125.195 199.17 124.782 199.034 124.233 199.034C123.661 199.034 123.21 199.161 122.881 199.415C122.555 199.665 122.33 199.943 122.205 200.25L120.608 199.886C120.797 199.356 121.074 198.928 121.438 198.602C121.805 198.273 122.227 198.034 122.705 197.886C123.182 197.735 123.684 197.659 124.21 197.659C124.559 197.659 124.928 197.701 125.318 197.784C125.712 197.864 126.08 198.011 126.421 198.227C126.765 198.443 127.047 198.752 127.267 199.153C127.487 199.551 127.597 200.068 127.597 200.705V206.5H125.938V205.307H125.869C125.76 205.527 125.595 205.742 125.375 205.955C125.155 206.167 124.873 206.343 124.529 206.483C124.184 206.623 123.771 206.693 123.29 206.693ZM123.659 205.33C124.129 205.33 124.53 205.237 124.864 205.051C125.201 204.866 125.457 204.623 125.631 204.324C125.809 204.021 125.898 203.697 125.898 203.352V202.227C125.837 202.288 125.72 202.345 125.546 202.398C125.375 202.447 125.18 202.491 124.96 202.528C124.741 202.562 124.527 202.595 124.318 202.625C124.11 202.652 123.936 202.674 123.796 202.693C123.466 202.735 123.165 202.805 122.892 202.903C122.623 203.002 122.407 203.144 122.244 203.33C122.085 203.511 122.006 203.754 122.006 204.057C122.006 204.477 122.161 204.795 122.472 205.011C122.782 205.223 123.178 205.33 123.659 205.33ZM132.951 206.67C132.246 206.67 131.617 206.491 131.064 206.131C130.515 205.767 130.083 205.25 129.769 204.58C129.458 203.905 129.303 203.097 129.303 202.153C129.303 201.21 129.46 200.403 129.774 199.733C130.093 199.062 130.528 198.549 131.081 198.193C131.634 197.837 132.261 197.659 132.962 197.659C133.504 197.659 133.939 197.75 134.269 197.932C134.602 198.11 134.86 198.318 135.041 198.557C135.227 198.795 135.371 199.006 135.473 199.188H135.576V194.864H137.274V206.5H135.615V205.142H135.473C135.371 205.328 135.223 205.54 135.03 205.778C134.841 206.017 134.579 206.225 134.246 206.403C133.913 206.581 133.481 206.67 132.951 206.67ZM133.326 205.222C133.814 205.222 134.227 205.093 134.564 204.835C134.905 204.574 135.163 204.212 135.337 203.75C135.515 203.288 135.604 202.75 135.604 202.136C135.604 201.53 135.517 201 135.343 200.545C135.168 200.091 134.913 199.737 134.576 199.483C134.238 199.229 133.822 199.102 133.326 199.102C132.814 199.102 132.388 199.235 132.047 199.5C131.706 199.765 131.449 200.127 131.274 200.585C131.104 201.044 131.019 201.561 131.019 202.136C131.019 202.72 131.106 203.244 131.28 203.71C131.454 204.176 131.712 204.545 132.053 204.818C132.398 205.087 132.822 205.222 133.326 205.222ZM139.523 206.5V197.773H141.222V206.5H139.523ZM140.381 196.426C140.086 196.426 139.832 196.328 139.62 196.131C139.411 195.93 139.307 195.691 139.307 195.415C139.307 195.134 139.411 194.896 139.62 194.699C139.832 194.498 140.086 194.398 140.381 194.398C140.677 194.398 140.928 194.498 141.137 194.699C141.349 194.896 141.455 195.134 141.455 195.415C141.455 195.691 141.349 195.93 141.137 196.131C140.928 196.328 140.677 196.426 140.381 196.426ZM145.871 206.693C145.318 206.693 144.818 206.591 144.371 206.386C143.924 206.178 143.57 205.877 143.309 205.483C143.051 205.089 142.922 204.606 142.922 204.034C142.922 203.542 143.017 203.136 143.206 202.818C143.396 202.5 143.652 202.248 143.974 202.062C144.295 201.877 144.655 201.737 145.053 201.642C145.451 201.547 145.856 201.475 146.269 201.426C146.792 201.366 147.216 201.316 147.542 201.278C147.867 201.237 148.104 201.17 148.252 201.08C148.4 200.989 148.474 200.841 148.474 200.636V200.597C148.474 200.1 148.333 199.716 148.053 199.443C147.777 199.17 147.364 199.034 146.814 199.034C146.242 199.034 145.792 199.161 145.462 199.415C145.136 199.665 144.911 199.943 144.786 200.25L143.189 199.886C143.379 199.356 143.655 198.928 144.019 198.602C144.386 198.273 144.809 198.034 145.286 197.886C145.763 197.735 146.265 197.659 146.792 197.659C147.14 197.659 147.509 197.701 147.9 197.784C148.294 197.864 148.661 198.011 149.002 198.227C149.347 198.443 149.629 198.752 149.849 199.153C150.068 199.551 150.178 200.068 150.178 200.705V206.5H148.519V205.307H148.451C148.341 205.527 148.176 205.742 147.956 205.955C147.737 206.167 147.455 206.343 147.11 206.483C146.765 206.623 146.352 206.693 145.871 206.693ZM146.241 205.33C146.71 205.33 147.112 205.237 147.445 205.051C147.782 204.866 148.038 204.623 148.212 204.324C148.39 204.021 148.479 203.697 148.479 203.352V202.227C148.419 202.288 148.301 202.345 148.127 202.398C147.956 202.447 147.761 202.491 147.542 202.528C147.322 202.562 147.108 202.595 146.9 202.625C146.691 202.652 146.517 202.674 146.377 202.693C146.047 202.735 145.746 202.805 145.474 202.903C145.205 203.002 144.989 203.144 144.826 203.33C144.667 203.511 144.587 203.754 144.587 204.057C144.587 204.477 144.742 204.795 145.053 205.011C145.364 205.223 145.759 205.33 146.241 205.33ZM153.964 201.318V206.5H152.265V197.773H153.896V199.193H154.003C154.204 198.731 154.519 198.36 154.947 198.08C155.378 197.799 155.922 197.659 156.577 197.659C157.172 197.659 157.693 197.784 158.14 198.034C158.587 198.28 158.933 198.648 159.18 199.136C159.426 199.625 159.549 200.229 159.549 200.949V206.5H157.85V201.153C157.85 200.521 157.685 200.027 157.356 199.67C157.026 199.311 156.574 199.131 155.998 199.131C155.604 199.131 155.253 199.216 154.947 199.386C154.644 199.557 154.403 199.807 154.225 200.136C154.051 200.462 153.964 200.856 153.964 201.318ZM162.941 194.864V199.006H161.532V194.864H162.941Z" fill="black" style="fill:black;fill-opacity:1;"/>
<path d="M418.566 149.773V151.136H413.799V149.773H418.566ZM415.077 147.682H416.776V155.938C416.776 156.267 416.825 156.515 416.924 156.682C417.022 156.845 417.149 156.956 417.305 157.017C417.464 157.074 417.636 157.102 417.822 157.102C417.958 157.102 418.077 157.093 418.18 157.074C418.282 157.055 418.361 157.04 418.418 157.028L418.725 158.432C418.627 158.47 418.486 158.508 418.305 158.545C418.123 158.587 417.896 158.61 417.623 158.614C417.176 158.621 416.759 158.542 416.373 158.375C415.986 158.208 415.674 157.951 415.435 157.602C415.197 157.254 415.077 156.816 415.077 156.29V147.682ZM420.269 158.5V149.773H421.968V158.5H420.269ZM421.127 148.426C420.832 148.426 420.578 148.328 420.366 148.131C420.157 147.93 420.053 147.691 420.053 147.415C420.053 147.134 420.157 146.896 420.366 146.699C420.578 146.498 420.832 146.398 421.127 146.398C421.423 146.398 421.675 146.498 421.883 146.699C422.095 146.896 422.201 147.134 422.201 147.415C422.201 147.691 422.095 147.93 421.883 148.131C421.675 148.328 421.423 148.426 421.127 148.426ZM428.151 149.773V151.136H423.384V149.773H428.151ZM424.663 147.682H426.362V155.938C426.362 156.267 426.411 156.515 426.509 156.682C426.608 156.845 426.735 156.956 426.89 157.017C427.049 157.074 427.222 157.102 427.407 157.102C427.544 157.102 427.663 157.093 427.765 157.074C427.867 157.055 427.947 157.04 428.004 157.028L428.311 158.432C428.212 158.47 428.072 158.508 427.89 158.545C427.708 158.587 427.481 158.61 427.208 158.614C426.761 158.621 426.345 158.542 425.958 158.375C425.572 158.208 425.259 157.951 425.021 157.602C424.782 157.254 424.663 156.816 424.663 156.29V147.682ZM431.741 146.864V158.5H430.042V146.864H431.741ZM437.612 158.676C436.752 158.676 436.012 158.492 435.39 158.125C434.773 157.754 434.296 157.233 433.959 156.562C433.625 155.888 433.459 155.098 433.459 154.193C433.459 153.299 433.625 152.511 433.959 151.83C434.296 151.148 434.765 150.616 435.368 150.233C435.974 149.85 436.682 149.659 437.493 149.659C437.985 149.659 438.462 149.741 438.924 149.903C439.387 150.066 439.801 150.322 440.169 150.67C440.536 151.019 440.826 151.472 441.038 152.028C441.25 152.581 441.356 153.254 441.356 154.045V154.648H434.419V153.375H439.692C439.692 152.928 439.601 152.532 439.419 152.188C439.237 151.839 438.981 151.564 438.652 151.364C438.326 151.163 437.943 151.062 437.504 151.062C437.027 151.062 436.61 151.18 436.254 151.415C435.902 151.646 435.629 151.949 435.436 152.324C435.246 152.695 435.152 153.098 435.152 153.534V154.528C435.152 155.112 435.254 155.608 435.459 156.017C435.667 156.426 435.957 156.739 436.328 156.955C436.699 157.167 437.133 157.273 437.629 157.273C437.951 157.273 438.245 157.227 438.51 157.136C438.775 157.042 439.004 156.902 439.197 156.716C439.39 156.53 439.538 156.301 439.64 156.028L441.248 156.318C441.12 156.792 440.888 157.206 440.555 157.562C440.226 157.915 439.811 158.189 439.311 158.386C438.815 158.58 438.248 158.676 437.612 158.676ZM444.185 158.608C443.874 158.608 443.607 158.498 443.383 158.278C443.16 158.055 443.048 157.786 443.048 157.472C443.048 157.161 443.16 156.896 443.383 156.676C443.607 156.453 443.874 156.341 444.185 156.341C444.495 156.341 444.762 156.453 444.986 156.676C445.209 156.896 445.321 157.161 445.321 157.472C445.321 157.68 445.268 157.871 445.162 158.045C445.06 158.216 444.923 158.352 444.753 158.455C444.582 158.557 444.393 158.608 444.185 158.608ZM444.185 152.256C443.874 152.256 443.607 152.144 443.383 151.92C443.16 151.697 443.048 151.43 443.048 151.119C443.048 150.809 443.16 150.544 443.383 150.324C443.607 150.1 443.874 149.989 444.185 149.989C444.495 149.989 444.762 150.1 444.986 150.324C445.209 150.544 445.321 150.809 445.321 151.119C445.321 151.328 445.268 151.519 445.162 151.693C445.06 151.864 444.923 152 444.753 152.102C444.582 152.205 444.393 152.256 444.185 152.256ZM452.769 146.864V151.006H451.36V146.864H452.769ZM454.924 146.864H457.054L460.759 155.909H460.895L464.6 146.864H466.73V158.5H465.06V150.08H464.952L461.52 158.483H460.134L456.702 150.074H456.594V158.5H454.924V146.864ZM471.51 158.693C470.957 158.693 470.457 158.591 470.01 158.386C469.563 158.178 469.209 157.877 468.948 157.483C468.69 157.089 468.562 156.606 468.562 156.034C468.562 155.542 468.656 155.136 468.846 154.818C469.035 154.5 469.291 154.248 469.613 154.062C469.935 153.877 470.294 153.737 470.692 153.642C471.09 153.547 471.495 153.475 471.908 153.426C472.431 153.366 472.855 153.316 473.181 153.278C473.507 153.237 473.743 153.17 473.891 153.08C474.039 152.989 474.113 152.841 474.113 152.636V152.597C474.113 152.1 473.972 151.716 473.692 151.443C473.416 151.17 473.003 151.034 472.454 151.034C471.882 151.034 471.431 151.161 471.101 151.415C470.776 151.665 470.55 151.943 470.425 152.25L468.829 151.886C469.018 151.356 469.294 150.928 469.658 150.602C470.026 150.273 470.448 150.034 470.925 149.886C471.402 149.735 471.904 149.659 472.431 149.659C472.779 149.659 473.149 149.701 473.539 149.784C473.933 149.864 474.3 150.011 474.641 150.227C474.986 150.443 475.268 150.752 475.488 151.153C475.707 151.551 475.817 152.068 475.817 152.705V158.5H474.158V157.307H474.09C473.98 157.527 473.815 157.742 473.596 157.955C473.376 158.167 473.094 158.343 472.749 158.483C472.404 158.623 471.991 158.693 471.51 158.693ZM471.88 157.33C472.349 157.33 472.751 157.237 473.084 157.051C473.421 156.866 473.677 156.623 473.851 156.324C474.029 156.021 474.118 155.697 474.118 155.352V154.227C474.058 154.288 473.94 154.345 473.766 154.398C473.596 154.447 473.401 154.491 473.181 154.528C472.961 154.562 472.747 154.595 472.539 154.625C472.33 154.652 472.156 154.674 472.016 154.693C471.687 154.735 471.385 154.805 471.113 154.903C470.844 155.002 470.628 155.144 470.465 155.33C470.306 155.511 470.226 155.754 470.226 156.057C470.226 156.477 470.382 156.795 470.692 157.011C471.003 157.223 471.399 157.33 471.88 157.33ZM479.603 153.318V158.5H477.904V149.773H479.535V151.193H479.643C479.843 150.731 480.158 150.36 480.586 150.08C481.018 149.799 481.561 149.659 482.216 149.659C482.811 149.659 483.332 149.784 483.779 150.034C484.226 150.28 484.573 150.648 484.819 151.136C485.065 151.625 485.188 152.229 485.188 152.949V158.5H483.489V153.153C483.489 152.521 483.324 152.027 482.995 151.67C482.665 151.311 482.213 151.131 481.637 151.131C481.243 151.131 480.893 151.216 480.586 151.386C480.283 151.557 480.042 151.807 479.864 152.136C479.69 152.462 479.603 152.856 479.603 153.318ZM495.025 158.676C494.207 158.676 493.493 158.489 492.883 158.114C492.273 157.739 491.8 157.214 491.462 156.54C491.125 155.866 490.957 155.078 490.957 154.176C490.957 153.271 491.125 152.479 491.462 151.801C491.8 151.123 492.273 150.597 492.883 150.222C493.493 149.847 494.207 149.659 495.025 149.659C495.843 149.659 496.557 149.847 497.167 150.222C497.777 150.597 498.25 151.123 498.587 151.801C498.925 152.479 499.093 153.271 499.093 154.176C499.093 155.078 498.925 155.866 498.587 156.54C498.25 157.214 497.777 157.739 497.167 158.114C496.557 158.489 495.843 158.676 495.025 158.676ZM495.031 157.25C495.561 157.25 496 157.11 496.349 156.83C496.697 156.549 496.955 156.176 497.122 155.71C497.292 155.244 497.377 154.731 497.377 154.17C497.377 153.614 497.292 153.102 497.122 152.636C496.955 152.167 496.697 151.79 496.349 151.506C496 151.222 495.561 151.08 495.031 151.08C494.497 151.08 494.053 151.222 493.701 151.506C493.353 151.79 493.093 152.167 492.923 152.636C492.756 153.102 492.673 153.614 492.673 154.17C492.673 154.731 492.756 155.244 492.923 155.71C493.093 156.176 493.353 156.549 493.701 156.83C494.053 157.11 494.497 157.25 495.031 157.25ZM504.967 149.773V151.136H500.035V149.773H504.967ZM501.387 158.5V148.761C501.387 148.216 501.507 147.763 501.745 147.403C501.984 147.04 502.3 146.769 502.694 146.591C503.088 146.409 503.516 146.318 503.978 146.318C504.319 146.318 504.611 146.347 504.853 146.403C505.096 146.456 505.276 146.506 505.393 146.551L504.995 147.926C504.916 147.903 504.813 147.877 504.688 147.847C504.563 147.812 504.412 147.795 504.234 147.795C503.821 147.795 503.526 147.898 503.348 148.102C503.173 148.307 503.086 148.602 503.086 148.989V158.5H501.387ZM510.165 148.375V146.864H519.17V148.375H515.54V158.5H513.79V148.375H510.165ZM522.2 158.693C521.647 158.693 521.147 158.591 520.7 158.386C520.253 158.178 519.899 157.877 519.638 157.483C519.38 157.089 519.251 156.606 519.251 156.034C519.251 155.542 519.346 155.136 519.535 154.818C519.725 154.5 519.981 154.248 520.303 154.062C520.624 153.877 520.984 153.737 521.382 153.642C521.78 153.547 522.185 153.475 522.598 153.426C523.121 153.366 523.545 153.316 523.871 153.278C524.196 153.237 524.433 153.17 524.581 153.08C524.729 152.989 524.803 152.841 524.803 152.636V152.597C524.803 152.1 524.662 151.716 524.382 151.443C524.106 151.17 523.693 151.034 523.143 151.034C522.571 151.034 522.121 151.161 521.791 151.415C521.465 151.665 521.24 151.943 521.115 152.25L519.518 151.886C519.708 151.356 519.984 150.928 520.348 150.602C520.715 150.273 521.138 150.034 521.615 149.886C522.092 149.735 522.594 149.659 523.121 149.659C523.469 149.659 523.839 149.701 524.229 149.784C524.623 149.864 524.99 150.011 525.331 150.227C525.676 150.443 525.958 150.752 526.178 151.153C526.397 151.551 526.507 152.068 526.507 152.705V158.5H524.848V157.307H524.78C524.67 157.527 524.505 157.742 524.285 157.955C524.066 158.167 523.784 158.343 523.439 158.483C523.094 158.623 522.681 158.693 522.2 158.693ZM522.57 157.33C523.039 157.33 523.441 157.237 523.774 157.051C524.111 156.866 524.367 156.623 524.541 156.324C524.719 156.021 524.808 155.697 524.808 155.352V154.227C524.748 154.288 524.63 154.345 524.456 154.398C524.285 154.447 524.09 154.491 523.871 154.528C523.651 154.562 523.437 154.595 523.229 154.625C523.02 154.652 522.846 154.674 522.706 154.693C522.376 154.735 522.075 154.805 521.803 154.903C521.534 155.002 521.318 155.144 521.155 155.33C520.996 155.511 520.916 155.754 520.916 156.057C520.916 156.477 521.071 156.795 521.382 157.011C521.693 157.223 522.089 157.33 522.57 157.33ZM528.594 158.5V149.773H530.293V158.5H528.594ZM529.452 148.426C529.156 148.426 528.903 148.328 528.69 148.131C528.482 147.93 528.378 147.691 528.378 147.415C528.378 147.134 528.482 146.896 528.69 146.699C528.903 146.498 529.156 146.398 529.452 146.398C529.747 146.398 529.999 146.498 530.207 146.699C530.42 146.896 530.526 147.134 530.526 147.415C530.526 147.691 530.42 147.93 530.207 148.131C529.999 148.328 529.747 148.426 529.452 148.426ZM546.262 150.648H544.489C544.421 150.269 544.294 149.936 544.108 149.648C543.923 149.36 543.695 149.116 543.427 148.915C543.158 148.714 542.856 148.562 542.523 148.46C542.194 148.358 541.843 148.307 541.472 148.307C540.802 148.307 540.201 148.475 539.671 148.812C539.144 149.15 538.728 149.644 538.421 150.295C538.118 150.947 537.966 151.742 537.966 152.682C537.966 153.629 538.118 154.428 538.421 155.08C538.728 155.731 539.146 156.223 539.677 156.557C540.207 156.89 540.803 157.057 541.466 157.057C541.834 157.057 542.182 157.008 542.512 156.909C542.845 156.807 543.146 156.657 543.415 156.46C543.684 156.263 543.911 156.023 544.097 155.739C544.286 155.451 544.417 155.121 544.489 154.75L546.262 154.756C546.167 155.328 545.983 155.854 545.711 156.335C545.442 156.812 545.095 157.225 544.671 157.574C544.25 157.919 543.769 158.186 543.228 158.375C542.686 158.564 542.095 158.659 541.455 158.659C540.447 158.659 539.55 158.42 538.762 157.943C537.974 157.462 537.353 156.775 536.898 155.881C536.447 154.987 536.222 153.92 536.222 152.682C536.222 151.439 536.449 150.373 536.904 149.483C537.358 148.589 537.98 147.903 538.767 147.426C539.555 146.945 540.451 146.705 541.455 146.705C542.072 146.705 542.648 146.794 543.182 146.972C543.72 147.146 544.203 147.403 544.631 147.744C545.059 148.081 545.413 148.494 545.694 148.983C545.974 149.468 546.163 150.023 546.262 150.648ZM549.749 153.318V158.5H548.05V146.864H549.726V151.193H549.834C550.039 150.723 550.351 150.35 550.772 150.074C551.192 149.797 551.742 149.659 552.42 149.659C553.018 149.659 553.541 149.782 553.988 150.028C554.438 150.275 554.787 150.642 555.033 151.131C555.283 151.616 555.408 152.222 555.408 152.949V158.5H553.709V153.153C553.709 152.513 553.545 152.017 553.215 151.665C552.885 151.309 552.427 151.131 551.84 151.131C551.438 151.131 551.079 151.216 550.76 151.386C550.446 151.557 550.198 151.807 550.016 152.136C549.838 152.462 549.749 152.856 549.749 153.318ZM557.499 158.5V149.773H559.198V158.5H557.499ZM558.357 148.426C558.062 148.426 557.808 148.328 557.596 148.131C557.387 147.93 557.283 147.691 557.283 147.415C557.283 147.134 557.387 146.896 557.596 146.699C557.808 146.498 558.062 146.398 558.357 146.398C558.653 146.398 558.905 146.498 559.113 146.699C559.325 146.896 559.431 147.134 559.431 147.415C559.431 147.691 559.325 147.93 559.113 148.131C558.905 148.328 558.653 148.426 558.357 148.426ZM562.597 146.864V151.006H561.188V146.864H562.597ZM434.552 182.5V173.773H436.194V175.159H436.285C436.444 174.689 436.724 174.32 437.126 174.051C437.531 173.778 437.989 173.642 438.501 173.642C438.607 173.642 438.732 173.646 438.876 173.653C439.023 173.661 439.139 173.67 439.222 173.682V175.307C439.154 175.288 439.033 175.267 438.858 175.244C438.684 175.218 438.51 175.205 438.336 175.205C437.934 175.205 437.576 175.29 437.262 175.46C436.951 175.627 436.705 175.86 436.523 176.159C436.341 176.455 436.251 176.792 436.251 177.17V182.5H434.552ZM443.965 182.676C443.105 182.676 442.365 182.492 441.744 182.125C441.126 181.754 440.649 181.233 440.312 180.562C439.978 179.888 439.812 179.098 439.812 178.193C439.812 177.299 439.978 176.511 440.312 175.83C440.649 175.148 441.119 174.616 441.721 174.233C442.327 173.85 443.035 173.659 443.846 173.659C444.338 173.659 444.816 173.741 445.278 173.903C445.74 174.066 446.155 174.322 446.522 174.67C446.889 175.019 447.179 175.472 447.391 176.028C447.603 176.581 447.709 177.254 447.709 178.045V178.648H440.772V177.375H446.045C446.045 176.928 445.954 176.532 445.772 176.188C445.59 175.839 445.334 175.564 445.005 175.364C444.679 175.163 444.297 175.062 443.857 175.062C443.38 175.062 442.963 175.18 442.607 175.415C442.255 175.646 441.982 175.949 441.789 176.324C441.6 176.695 441.505 177.098 441.505 177.534V178.528C441.505 179.112 441.607 179.608 441.812 180.017C442.02 180.426 442.31 180.739 442.681 180.955C443.052 181.167 443.486 181.273 443.982 181.273C444.304 181.273 444.598 181.227 444.863 181.136C445.128 181.042 445.357 180.902 445.55 180.716C445.744 180.53 445.891 180.301 445.994 180.028L447.602 180.318C447.473 180.792 447.242 181.206 446.908 181.562C446.579 181.915 446.164 182.189 445.664 182.386C445.168 182.58 444.602 182.676 443.965 182.676ZM451.117 170.864V182.5H449.418V170.864H451.117ZM456.988 182.676C456.128 182.676 455.388 182.492 454.767 182.125C454.149 181.754 453.672 181.233 453.335 180.562C453.001 179.888 452.835 179.098 452.835 178.193C452.835 177.299 453.001 176.511 453.335 175.83C453.672 175.148 454.142 174.616 454.744 174.233C455.35 173.85 456.058 173.659 456.869 173.659C457.361 173.659 457.839 173.741 458.301 173.903C458.763 174.066 459.178 174.322 459.545 174.67C459.912 175.019 460.202 175.472 460.414 176.028C460.626 176.581 460.732 177.254 460.732 178.045V178.648H453.795V177.375H459.068C459.068 176.928 458.977 176.532 458.795 176.188C458.613 175.839 458.357 175.564 458.028 175.364C457.702 175.163 457.32 175.062 456.88 175.062C456.403 175.062 455.986 175.18 455.63 175.415C455.278 175.646 455.005 175.949 454.812 176.324C454.623 176.695 454.528 177.098 454.528 177.534V178.528C454.528 179.112 454.63 179.608 454.835 180.017C455.043 180.426 455.333 180.739 455.704 180.955C456.075 181.167 456.509 181.273 457.005 181.273C457.327 181.273 457.621 181.227 457.886 181.136C458.151 181.042 458.38 180.902 458.573 180.716C458.767 180.53 458.914 180.301 459.017 180.028L460.625 180.318C460.496 180.792 460.265 181.206 459.931 181.562C459.602 181.915 459.187 182.189 458.687 182.386C458.191 182.58 457.625 182.676 456.988 182.676ZM464.981 182.693C464.428 182.693 463.928 182.591 463.481 182.386C463.034 182.178 462.68 181.877 462.419 181.483C462.161 181.089 462.032 180.606 462.032 180.034C462.032 179.542 462.127 179.136 462.316 178.818C462.506 178.5 462.761 178.248 463.083 178.062C463.405 177.877 463.765 177.737 464.163 177.642C464.561 177.547 464.966 177.475 465.379 177.426C465.902 177.366 466.326 177.316 466.652 177.278C466.977 177.237 467.214 177.17 467.362 177.08C467.51 176.989 467.583 176.841 467.583 176.636V176.597C467.583 176.1 467.443 175.716 467.163 175.443C466.886 175.17 466.474 175.034 465.924 175.034C465.352 175.034 464.902 175.161 464.572 175.415C464.246 175.665 464.021 175.943 463.896 176.25L462.299 175.886C462.489 175.356 462.765 174.928 463.129 174.602C463.496 174.273 463.919 174.034 464.396 173.886C464.873 173.735 465.375 173.659 465.902 173.659C466.25 173.659 466.619 173.701 467.01 173.784C467.404 173.864 467.771 174.011 468.112 174.227C468.457 174.443 468.739 174.752 468.958 175.153C469.178 175.551 469.288 176.068 469.288 176.705V182.5H467.629V181.307H467.561C467.451 181.527 467.286 181.742 467.066 181.955C466.847 182.167 466.565 182.343 466.22 182.483C465.875 182.623 465.462 182.693 464.981 182.693ZM465.351 181.33C465.82 181.33 466.222 181.237 466.555 181.051C466.892 180.866 467.148 180.623 467.322 180.324C467.5 180.021 467.589 179.697 467.589 179.352V178.227C467.529 178.288 467.411 178.345 467.237 178.398C467.066 178.447 466.871 178.491 466.652 178.528C466.432 178.562 466.218 178.595 466.01 178.625C465.801 178.652 465.627 178.674 465.487 178.693C465.157 178.735 464.856 178.805 464.583 178.903C464.315 179.002 464.099 179.144 463.936 179.33C463.777 179.511 463.697 179.754 463.697 180.057C463.697 180.477 463.852 180.795 464.163 181.011C464.474 181.223 464.869 181.33 465.351 181.33ZM477.915 175.903L476.375 176.176C476.31 175.979 476.208 175.792 476.068 175.614C475.932 175.436 475.746 175.29 475.511 175.176C475.276 175.062 474.983 175.006 474.63 175.006C474.149 175.006 473.748 175.114 473.426 175.33C473.104 175.542 472.943 175.816 472.943 176.153C472.943 176.445 473.051 176.68 473.267 176.858C473.483 177.036 473.831 177.182 474.312 177.295L475.699 177.614C476.502 177.799 477.1 178.085 477.494 178.472C477.888 178.858 478.085 179.36 478.085 179.977C478.085 180.5 477.934 180.966 477.63 181.375C477.331 181.78 476.913 182.098 476.375 182.33C475.841 182.561 475.221 182.676 474.517 182.676C473.54 182.676 472.742 182.468 472.125 182.051C471.507 181.631 471.129 181.034 470.988 180.261L472.63 180.011C472.733 180.439 472.943 180.763 473.261 180.983C473.579 181.199 473.994 181.307 474.505 181.307C475.062 181.307 475.507 181.191 475.841 180.96C476.174 180.725 476.341 180.439 476.341 180.102C476.341 179.83 476.238 179.6 476.034 179.415C475.833 179.229 475.524 179.089 475.108 178.994L473.63 178.67C472.816 178.485 472.214 178.189 471.824 177.784C471.437 177.379 471.244 176.866 471.244 176.244C471.244 175.729 471.388 175.278 471.676 174.892C471.964 174.506 472.362 174.205 472.869 173.989C473.377 173.769 473.958 173.659 474.613 173.659C475.557 173.659 476.299 173.864 476.841 174.273C477.382 174.678 477.74 175.222 477.915 175.903ZM483.538 182.676C482.678 182.676 481.938 182.492 481.317 182.125C480.699 181.754 480.222 181.233 479.885 180.562C479.552 179.888 479.385 179.098 479.385 178.193C479.385 177.299 479.552 176.511 479.885 175.83C480.222 175.148 480.692 174.616 481.294 174.233C481.9 173.85 482.608 173.659 483.419 173.659C483.911 173.659 484.389 173.741 484.851 173.903C485.313 174.066 485.728 174.322 486.095 174.67C486.463 175.019 486.752 175.472 486.964 176.028C487.177 176.581 487.283 177.254 487.283 178.045V178.648H480.345V177.375H485.618C485.618 176.928 485.527 176.532 485.345 176.188C485.163 175.839 484.908 175.564 484.578 175.364C484.252 175.163 483.87 175.062 483.43 175.062C482.953 175.062 482.536 175.18 482.18 175.415C481.828 175.646 481.555 175.949 481.362 176.324C481.173 176.695 481.078 177.098 481.078 177.534V178.528C481.078 179.112 481.18 179.608 481.385 180.017C481.593 180.426 481.883 180.739 482.254 180.955C482.625 181.167 483.059 181.273 483.555 181.273C483.877 181.273 484.171 181.227 484.436 181.136C484.701 181.042 484.93 180.902 485.124 180.716C485.317 180.53 485.464 180.301 485.567 180.028L487.175 180.318C487.046 180.792 486.815 181.206 486.481 181.562C486.152 181.915 485.737 182.189 485.237 182.386C484.741 182.58 484.175 182.676 483.538 182.676ZM492.259 182.67C491.554 182.67 490.925 182.491 490.372 182.131C489.823 181.767 489.391 181.25 489.077 180.58C488.766 179.905 488.611 179.097 488.611 178.153C488.611 177.21 488.768 176.403 489.082 175.733C489.401 175.062 489.836 174.549 490.389 174.193C490.942 173.837 491.569 173.659 492.27 173.659C492.812 173.659 493.247 173.75 493.577 173.932C493.91 174.11 494.168 174.318 494.35 174.557C494.535 174.795 494.679 175.006 494.781 175.188H494.884V170.864H496.582V182.5H494.923V181.142H494.781C494.679 181.328 494.531 181.54 494.338 181.778C494.149 182.017 493.887 182.225 493.554 182.403C493.221 182.581 492.789 182.67 492.259 182.67ZM492.634 181.222C493.122 181.222 493.535 181.093 493.872 180.835C494.213 180.574 494.471 180.212 494.645 179.75C494.823 179.288 494.912 178.75 494.912 178.136C494.912 177.53 494.825 177 494.651 176.545C494.476 176.091 494.221 175.737 493.884 175.483C493.546 175.229 493.13 175.102 492.634 175.102C492.122 175.102 491.696 175.235 491.355 175.5C491.014 175.765 490.757 176.127 490.582 176.585C490.412 177.044 490.327 177.561 490.327 178.136C490.327 178.72 490.414 179.244 490.588 179.71C490.762 180.176 491.02 180.545 491.361 180.818C491.706 181.087 492.13 181.222 492.634 181.222ZM499.95 182.608C499.64 182.608 499.373 182.498 499.149 182.278C498.926 182.055 498.814 181.786 498.814 181.472C498.814 181.161 498.926 180.896 499.149 180.676C499.373 180.453 499.64 180.341 499.95 180.341C500.261 180.341 500.528 180.453 500.752 180.676C500.975 180.896 501.087 181.161 501.087 181.472C501.087 181.68 501.034 181.871 500.928 182.045C500.825 182.216 500.689 182.352 500.519 182.455C500.348 182.557 500.159 182.608 499.95 182.608ZM499.95 176.256C499.64 176.256 499.373 176.144 499.149 175.92C498.926 175.697 498.814 175.43 498.814 175.119C498.814 174.809 498.926 174.544 499.149 174.324C499.373 174.1 499.64 173.989 499.95 173.989C500.261 173.989 500.528 174.1 500.752 174.324C500.975 174.544 501.087 174.809 501.087 175.119C501.087 175.328 501.034 175.519 500.928 175.693C500.825 175.864 500.689 176 500.519 176.102C500.348 176.205 500.159 176.256 499.95 176.256ZM507.222 182.5V181.227L511.16 177.148C511.58 176.705 511.927 176.316 512.199 175.983C512.476 175.646 512.682 175.326 512.819 175.023C512.955 174.72 513.023 174.398 513.023 174.057C513.023 173.67 512.932 173.337 512.75 173.057C512.569 172.773 512.321 172.555 512.006 172.403C511.692 172.248 511.338 172.17 510.944 172.17C510.527 172.17 510.163 172.256 509.853 172.426C509.542 172.597 509.304 172.837 509.137 173.148C508.97 173.458 508.887 173.822 508.887 174.239H507.211C507.211 173.53 507.374 172.911 507.699 172.381C508.025 171.85 508.472 171.439 509.04 171.148C509.608 170.852 510.254 170.705 510.978 170.705C511.709 170.705 512.353 170.85 512.91 171.142C513.47 171.43 513.908 171.824 514.222 172.324C514.536 172.82 514.694 173.381 514.694 174.006C514.694 174.438 514.612 174.86 514.449 175.273C514.29 175.686 514.012 176.146 513.614 176.653C513.216 177.157 512.663 177.769 511.955 178.489L509.643 180.909V180.994H514.881V182.5H507.222ZM520.91 182.693C520.012 182.689 519.245 182.453 518.609 181.983C517.972 181.513 517.485 180.83 517.148 179.932C516.811 179.034 516.643 177.953 516.643 176.688C516.643 175.426 516.811 174.348 517.148 173.455C517.489 172.561 517.978 171.879 518.614 171.409C519.254 170.939 520.02 170.705 520.91 170.705C521.8 170.705 522.563 170.941 523.199 171.415C523.836 171.884 524.323 172.566 524.66 173.46C525.001 174.35 525.171 175.426 525.171 176.688C525.171 177.956 525.003 179.04 524.665 179.938C524.328 180.831 523.842 181.515 523.205 181.989C522.569 182.458 521.804 182.693 520.91 182.693ZM520.91 181.176C521.698 181.176 522.313 180.792 522.756 180.023C523.203 179.254 523.427 178.142 523.427 176.688C523.427 175.722 523.324 174.905 523.12 174.239C522.919 173.568 522.629 173.061 522.251 172.716C521.876 172.367 521.429 172.193 520.91 172.193C520.126 172.193 519.51 172.58 519.063 173.352C518.616 174.125 518.391 175.237 518.387 176.688C518.387 177.657 518.487 178.477 518.688 179.148C518.893 179.814 519.182 180.32 519.557 180.665C519.932 181.006 520.383 181.176 520.91 181.176ZM531.425 170.864V182.5H529.664V172.625H529.596L526.812 174.443V172.761L529.715 170.864H531.425ZM538.448 182.659C537.668 182.659 536.971 182.525 536.357 182.256C535.748 181.987 535.265 181.614 534.909 181.136C534.556 180.655 534.367 180.098 534.34 179.466H536.124C536.147 179.811 536.263 180.11 536.471 180.364C536.683 180.614 536.96 180.807 537.301 180.943C537.642 181.08 538.02 181.148 538.437 181.148C538.895 181.148 539.301 181.068 539.653 180.909C540.009 180.75 540.287 180.528 540.488 180.244C540.689 179.956 540.789 179.625 540.789 179.25C540.789 178.86 540.689 178.517 540.488 178.222C540.291 177.922 540.001 177.687 539.619 177.517C539.24 177.347 538.782 177.261 538.244 177.261H537.261V175.83H538.244C538.676 175.83 539.054 175.752 539.38 175.597C539.71 175.441 539.967 175.225 540.153 174.949C540.338 174.669 540.431 174.341 540.431 173.966C540.431 173.606 540.35 173.294 540.187 173.028C540.028 172.759 539.801 172.549 539.505 172.398C539.213 172.246 538.869 172.17 538.471 172.17C538.092 172.17 537.738 172.241 537.409 172.381C537.083 172.517 536.818 172.714 536.613 172.972C536.409 173.225 536.299 173.53 536.284 173.886H534.585C534.604 173.258 534.789 172.705 535.142 172.227C535.498 171.75 535.967 171.377 536.551 171.108C537.134 170.839 537.782 170.705 538.494 170.705C539.24 170.705 539.884 170.85 540.426 171.142C540.971 171.43 541.392 171.814 541.687 172.295C541.986 172.777 542.134 173.303 542.13 173.875C542.134 174.527 541.952 175.08 541.585 175.534C541.221 175.989 540.736 176.294 540.13 176.449V176.54C540.903 176.657 541.501 176.964 541.926 177.46C542.354 177.956 542.566 178.572 542.562 179.307C542.566 179.947 542.388 180.521 542.028 181.028C541.672 181.536 541.185 181.936 540.568 182.227C539.95 182.515 539.244 182.659 538.448 182.659Z" fill="black" style="fill:black;fill-opacity:1;"/>
</svg>
