<svg width="612" height="397" viewBox="0 0 612 397" fill="none" xmlns="http://www.w3.org/2000/svg">
<g clip-path="url(#clip0_3_80)">
<path d="M242 98C242 62.6538 270.654 34 306 34C341.346 34 370 62.6538 370 98C370 133.346 341.346 162 306 162C270.654 162 242 133.346 242 98Z" fill="#F16767" style="fill:#F16767;fill:color(display-p3 0.9451 0.4039 0.4039);fill-opacity:1;"/>
<path d="M284.724 103V92.878H288.147C288.87 92.878 289.514 92.9993 290.079 93.242C290.643 93.4847 291.087 93.844 291.409 94.32C291.735 94.796 291.899 95.3817 291.899 96.077C291.899 96.749 291.747 97.323 291.444 97.799C291.145 98.275 290.727 98.6367 290.191 98.884C289.654 99.1313 289.031 99.255 288.322 99.255H286.054V103H284.724ZM286.047 98.163H288.294C288.989 98.163 289.554 97.9693 289.988 97.582C290.422 97.1947 290.639 96.6673 290.639 96C290.639 95.328 290.415 94.8193 289.967 94.474C289.519 94.1287 288.94 93.956 288.231 93.956H286.047V98.163ZM296.308 103.14C295.636 103.14 295.043 102.993 294.53 102.699C294.016 102.405 293.615 101.983 293.326 101.432C293.036 100.881 292.892 100.221 292.892 99.451C292.892 98.6903 293.022 98.023 293.284 97.449C293.545 96.875 293.923 96.427 294.418 96.105C294.917 95.783 295.517 95.622 296.217 95.622C296.898 95.622 297.474 95.769 297.946 96.063C298.417 96.357 298.774 96.7723 299.017 97.309C299.264 97.841 299.388 98.4733 299.388 99.206V99.682H294.201C294.201 100.139 294.275 100.555 294.425 100.928C294.579 101.297 294.81 101.591 295.118 101.81C295.426 102.029 295.815 102.139 296.287 102.139C296.749 102.139 297.145 102.032 297.477 101.817C297.813 101.602 298.027 101.292 298.121 100.886H299.339C299.255 101.376 299.059 101.789 298.751 102.125C298.447 102.461 298.081 102.715 297.652 102.888C297.227 103.056 296.779 103.14 296.308 103.14ZM294.208 98.807H298.142C298.142 98.3917 298.072 98.0183 297.932 97.687C297.792 97.351 297.577 97.0873 297.288 96.896C297.003 96.7 296.644 96.602 296.21 96.602C295.757 96.602 295.381 96.7117 295.083 96.931C294.784 97.1457 294.562 97.4233 294.418 97.764C294.273 98.1 294.203 98.4477 294.208 98.807ZM301.178 103V95.762H302.41V97.155C302.532 96.8097 302.702 96.525 302.921 96.301C303.141 96.0723 303.39 95.902 303.67 95.79C303.955 95.678 304.249 95.622 304.552 95.622C304.66 95.622 304.765 95.629 304.867 95.643C304.97 95.657 305.049 95.6803 305.105 95.713V96.966C305.035 96.9333 304.944 96.9123 304.832 96.903C304.725 96.889 304.634 96.882 304.559 96.882C304.27 96.8633 303.999 96.882 303.747 96.938C303.495 96.9893 303.274 97.0803 303.082 97.211C302.891 97.3417 302.739 97.5143 302.627 97.729C302.52 97.939 302.466 98.1957 302.466 98.499V103H301.178ZM309.21 103.14C308.706 103.14 308.237 103.063 307.803 102.909C307.374 102.75 307.017 102.505 306.732 102.174C306.447 101.838 306.27 101.411 306.2 100.893H307.376C307.437 101.178 307.553 101.416 307.726 101.607C307.899 101.794 308.111 101.936 308.363 102.034C308.62 102.127 308.9 102.174 309.203 102.174C309.693 102.174 310.087 102.083 310.386 101.901C310.685 101.719 310.834 101.439 310.834 101.061C310.834 100.795 310.755 100.583 310.596 100.424C310.442 100.261 310.199 100.142 309.868 100.067L308.37 99.696C307.787 99.556 307.32 99.3367 306.97 99.038C306.625 98.7393 306.45 98.3217 306.445 97.785C306.445 97.3603 306.548 96.987 306.753 96.665C306.958 96.343 307.264 96.0887 307.67 95.902C308.081 95.7153 308.592 95.622 309.203 95.622C309.992 95.622 310.626 95.7993 311.107 96.154C311.588 96.504 311.84 97.0197 311.863 97.701H310.715C310.668 97.3557 310.514 97.0827 310.253 96.882C309.992 96.6767 309.637 96.574 309.189 96.574C308.732 96.574 308.356 96.6673 308.062 96.854C307.773 97.036 307.628 97.3207 307.628 97.708C307.628 97.9647 307.731 98.1677 307.936 98.317C308.146 98.4617 308.449 98.583 308.846 98.681L310.302 99.045C310.633 99.1337 310.909 99.2503 311.128 99.395C311.347 99.5397 311.52 99.7007 311.646 99.878C311.772 100.055 311.861 100.242 311.912 100.438C311.968 100.629 311.996 100.814 311.996 100.991C311.996 101.434 311.886 101.817 311.667 102.139C311.448 102.456 311.13 102.704 310.715 102.881C310.3 103.054 309.798 103.14 309.21 103.14ZM316.586 103.14C315.919 103.14 315.336 102.998 314.836 102.713C314.342 102.424 313.957 102.001 313.681 101.446C313.406 100.891 313.268 100.212 313.268 99.409C313.268 98.653 313.397 97.9903 313.653 97.421C313.91 96.8517 314.286 96.4107 314.78 96.098C315.275 95.7807 315.879 95.622 316.593 95.622C317.261 95.622 317.839 95.769 318.329 96.063C318.819 96.3523 319.2 96.7793 319.47 97.344C319.746 97.9087 319.883 98.597 319.883 99.409C319.883 100.146 319.757 100.795 319.505 101.355C319.253 101.915 318.882 102.354 318.392 102.671C317.907 102.984 317.305 103.14 316.586 103.14ZM316.593 102.118C317.023 102.118 317.387 102.008 317.685 101.789C317.984 101.57 318.21 101.255 318.364 100.844C318.523 100.433 318.602 99.9457 318.602 99.381C318.602 98.863 318.532 98.3987 318.392 97.988C318.257 97.5727 318.042 97.2437 317.748 97.001C317.454 96.7583 317.069 96.637 316.593 96.637C316.155 96.637 315.784 96.7467 315.48 96.966C315.177 97.1807 314.946 97.4933 314.787 97.904C314.633 98.3147 314.556 98.807 314.556 99.381C314.556 99.8897 314.624 100.352 314.759 100.767C314.899 101.182 315.119 101.511 315.417 101.754C315.721 101.997 316.113 102.118 316.593 102.118ZM321.604 103V95.762H322.857V96.812C322.974 96.6113 323.135 96.4223 323.34 96.245C323.55 96.0677 323.802 95.9253 324.096 95.818C324.395 95.7107 324.738 95.657 325.125 95.657C325.583 95.657 326.003 95.748 326.385 95.93C326.773 96.112 327.081 96.3967 327.309 96.784C327.543 97.1667 327.659 97.6613 327.659 98.268V103H326.364V98.394C326.364 97.8293 326.215 97.4117 325.916 97.141C325.622 96.8657 325.24 96.728 324.768 96.728C324.442 96.728 324.136 96.7817 323.851 96.889C323.567 96.9917 323.336 97.1503 323.158 97.365C322.981 97.575 322.892 97.841 322.892 98.163V103H321.604Z" fill="white" style="fill:white;fill-opacity:1;"/>
<path d="M484 98C484 62.6538 512.654 34 548 34C583.346 34 612 62.6538 612 98C612 133.346 583.346 162 548 162C512.654 162 484 133.346 484 98Z" fill="#F16767" style="fill:#F16767;fill:color(display-p3 0.9451 0.4039 0.4039);fill-opacity:1;"/>
<path d="M526.724 103V92.878H530.147C530.87 92.878 531.514 92.9993 532.079 93.242C532.643 93.4847 533.087 93.844 533.409 94.32C533.735 94.796 533.899 95.3817 533.899 96.077C533.899 96.749 533.747 97.323 533.444 97.799C533.145 98.275 532.727 98.6367 532.191 98.884C531.654 99.1313 531.031 99.255 530.322 99.255H528.054V103H526.724ZM528.047 98.163H530.294C530.989 98.163 531.554 97.9693 531.988 97.582C532.422 97.1947 532.639 96.6673 532.639 96C532.639 95.328 532.415 94.8193 531.967 94.474C531.519 94.1287 530.94 93.956 530.231 93.956H528.047V98.163ZM538.308 103.14C537.636 103.14 537.043 102.993 536.53 102.699C536.016 102.405 535.615 101.983 535.326 101.432C535.036 100.881 534.892 100.221 534.892 99.451C534.892 98.6903 535.022 98.023 535.284 97.449C535.545 96.875 535.923 96.427 536.418 96.105C536.917 95.783 537.517 95.622 538.217 95.622C538.898 95.622 539.474 95.769 539.946 96.063C540.417 96.357 540.774 96.7723 541.017 97.309C541.264 97.841 541.388 98.4733 541.388 99.206V99.682H536.201C536.201 100.139 536.275 100.555 536.425 100.928C536.579 101.297 536.81 101.591 537.118 101.81C537.426 102.029 537.815 102.139 538.287 102.139C538.749 102.139 539.145 102.032 539.477 101.817C539.813 101.602 540.027 101.292 540.121 100.886H541.339C541.255 101.376 541.059 101.789 540.751 102.125C540.447 102.461 540.081 102.715 539.652 102.888C539.227 103.056 538.779 103.14 538.308 103.14ZM536.208 98.807H540.142C540.142 98.3917 540.072 98.0183 539.932 97.687C539.792 97.351 539.577 97.0873 539.288 96.896C539.003 96.7 538.644 96.602 538.21 96.602C537.757 96.602 537.381 96.7117 537.083 96.931C536.784 97.1457 536.562 97.4233 536.418 97.764C536.273 98.1 536.203 98.4477 536.208 98.807ZM543.178 103V95.762H544.41V97.155C544.532 96.8097 544.702 96.525 544.921 96.301C545.141 96.0723 545.39 95.902 545.67 95.79C545.955 95.678 546.249 95.622 546.552 95.622C546.66 95.622 546.765 95.629 546.867 95.643C546.97 95.657 547.049 95.6803 547.105 95.713V96.966C547.035 96.9333 546.944 96.9123 546.832 96.903C546.725 96.889 546.634 96.882 546.559 96.882C546.27 96.8633 545.999 96.882 545.747 96.938C545.495 96.9893 545.274 97.0803 545.082 97.211C544.891 97.3417 544.739 97.5143 544.627 97.729C544.52 97.939 544.466 98.1957 544.466 98.499V103H543.178ZM551.21 103.14C550.706 103.14 550.237 103.063 549.803 102.909C549.374 102.75 549.017 102.505 548.732 102.174C548.447 101.838 548.27 101.411 548.2 100.893H549.376C549.437 101.178 549.553 101.416 549.726 101.607C549.899 101.794 550.111 101.936 550.363 102.034C550.62 102.127 550.9 102.174 551.203 102.174C551.693 102.174 552.087 102.083 552.386 101.901C552.685 101.719 552.834 101.439 552.834 101.061C552.834 100.795 552.755 100.583 552.596 100.424C552.442 100.261 552.199 100.142 551.868 100.067L550.37 99.696C549.787 99.556 549.32 99.3367 548.97 99.038C548.625 98.7393 548.45 98.3217 548.445 97.785C548.445 97.3603 548.548 96.987 548.753 96.665C548.958 96.343 549.264 96.0887 549.67 95.902C550.081 95.7153 550.592 95.622 551.203 95.622C551.992 95.622 552.626 95.7993 553.107 96.154C553.588 96.504 553.84 97.0197 553.863 97.701H552.715C552.668 97.3557 552.514 97.0827 552.253 96.882C551.992 96.6767 551.637 96.574 551.189 96.574C550.732 96.574 550.356 96.6673 550.062 96.854C549.773 97.036 549.628 97.3207 549.628 97.708C549.628 97.9647 549.731 98.1677 549.936 98.317C550.146 98.4617 550.449 98.583 550.846 98.681L552.302 99.045C552.633 99.1337 552.909 99.2503 553.128 99.395C553.347 99.5397 553.52 99.7007 553.646 99.878C553.772 100.055 553.861 100.242 553.912 100.438C553.968 100.629 553.996 100.814 553.996 100.991C553.996 101.434 553.886 101.817 553.667 102.139C553.448 102.456 553.13 102.704 552.715 102.881C552.3 103.054 551.798 103.14 551.21 103.14ZM558.586 103.14C557.919 103.14 557.336 102.998 556.836 102.713C556.342 102.424 555.957 102.001 555.681 101.446C555.406 100.891 555.268 100.212 555.268 99.409C555.268 98.653 555.397 97.9903 555.653 97.421C555.91 96.8517 556.286 96.4107 556.78 96.098C557.275 95.7807 557.879 95.622 558.593 95.622C559.261 95.622 559.839 95.769 560.329 96.063C560.819 96.3523 561.2 96.7793 561.47 97.344C561.746 97.9087 561.883 98.597 561.883 99.409C561.883 100.146 561.757 100.795 561.505 101.355C561.253 101.915 560.882 102.354 560.392 102.671C559.907 102.984 559.305 103.14 558.586 103.14ZM558.593 102.118C559.023 102.118 559.387 102.008 559.685 101.789C559.984 101.57 560.21 101.255 560.364 100.844C560.523 100.433 560.602 99.9457 560.602 99.381C560.602 98.863 560.532 98.3987 560.392 97.988C560.257 97.5727 560.042 97.2437 559.748 97.001C559.454 96.7583 559.069 96.637 558.593 96.637C558.155 96.637 557.784 96.7467 557.48 96.966C557.177 97.1807 556.946 97.4933 556.787 97.904C556.633 98.3147 556.556 98.807 556.556 99.381C556.556 99.8897 556.624 100.352 556.759 100.767C556.899 101.182 557.119 101.511 557.417 101.754C557.721 101.997 558.113 102.118 558.593 102.118ZM563.604 103V95.762H564.857V96.812C564.974 96.6113 565.135 96.4223 565.34 96.245C565.55 96.0677 565.802 95.9253 566.096 95.818C566.395 95.7107 566.738 95.657 567.125 95.657C567.583 95.657 568.003 95.748 568.385 95.93C568.773 96.112 569.081 96.3967 569.309 96.784C569.543 97.1667 569.659 97.6613 569.659 98.268V103H568.364V98.394C568.364 97.8293 568.215 97.4117 567.916 97.141C567.622 96.8657 567.24 96.728 566.768 96.728C566.442 96.728 566.136 96.7817 565.851 96.889C565.567 96.9917 565.336 97.1503 565.158 97.365C564.981 97.575 564.892 97.841 564.892 98.163V103H563.604Z" fill="white" style="fill:white;fill-opacity:1;"/>
<path d="M365 300C365 264.654 393.654 236 429 236C464.346 236 493 264.654 493 300C493 335.346 464.346 364 429 364C393.654 364 365 335.346 365 300Z" fill="#F16767" style="fill:#F16767;fill:color(display-p3 0.9451 0.4039 0.4039);fill-opacity:1;"/>
<path d="M407.724 305V294.878H411.147C411.87 294.878 412.514 294.999 413.079 295.242C413.643 295.485 414.087 295.844 414.409 296.32C414.735 296.796 414.899 297.382 414.899 298.077C414.899 298.749 414.747 299.323 414.444 299.799C414.145 300.275 413.727 300.637 413.191 300.884C412.654 301.131 412.031 301.255 411.322 301.255H409.054V305H407.724ZM409.047 300.163H411.294C411.989 300.163 412.554 299.969 412.988 299.582C413.422 299.195 413.639 298.667 413.639 298C413.639 297.328 413.415 296.819 412.967 296.474C412.519 296.129 411.94 295.956 411.231 295.956H409.047V300.163ZM419.308 305.14C418.636 305.14 418.043 304.993 417.53 304.699C417.016 304.405 416.615 303.983 416.326 303.432C416.036 302.881 415.892 302.221 415.892 301.451C415.892 300.69 416.022 300.023 416.284 299.449C416.545 298.875 416.923 298.427 417.418 298.105C417.917 297.783 418.517 297.622 419.217 297.622C419.898 297.622 420.474 297.769 420.946 298.063C421.417 298.357 421.774 298.772 422.017 299.309C422.264 299.841 422.388 300.473 422.388 301.206V301.682H417.201C417.201 302.139 417.275 302.555 417.425 302.928C417.579 303.297 417.81 303.591 418.118 303.81C418.426 304.029 418.815 304.139 419.287 304.139C419.749 304.139 420.145 304.032 420.477 303.817C420.813 303.602 421.027 303.292 421.121 302.886H422.339C422.255 303.376 422.059 303.789 421.751 304.125C421.447 304.461 421.081 304.715 420.652 304.888C420.227 305.056 419.779 305.14 419.308 305.14ZM417.208 300.807H421.142C421.142 300.392 421.072 300.018 420.932 299.687C420.792 299.351 420.577 299.087 420.288 298.896C420.003 298.7 419.644 298.602 419.21 298.602C418.757 298.602 418.381 298.712 418.083 298.931C417.784 299.146 417.562 299.423 417.418 299.764C417.273 300.1 417.203 300.448 417.208 300.807ZM424.178 305V297.762H425.41V299.155C425.532 298.81 425.702 298.525 425.921 298.301C426.141 298.072 426.39 297.902 426.67 297.79C426.955 297.678 427.249 297.622 427.552 297.622C427.66 297.622 427.765 297.629 427.867 297.643C427.97 297.657 428.049 297.68 428.105 297.713V298.966C428.035 298.933 427.944 298.912 427.832 298.903C427.725 298.889 427.634 298.882 427.559 298.882C427.27 298.863 426.999 298.882 426.747 298.938C426.495 298.989 426.274 299.08 426.082 299.211C425.891 299.342 425.739 299.514 425.627 299.729C425.52 299.939 425.466 300.196 425.466 300.499V305H424.178ZM432.21 305.14C431.706 305.14 431.237 305.063 430.803 304.909C430.374 304.75 430.017 304.505 429.732 304.174C429.447 303.838 429.27 303.411 429.2 302.893H430.376C430.437 303.178 430.553 303.416 430.726 303.607C430.899 303.794 431.111 303.936 431.363 304.034C431.62 304.127 431.9 304.174 432.203 304.174C432.693 304.174 433.087 304.083 433.386 303.901C433.685 303.719 433.834 303.439 433.834 303.061C433.834 302.795 433.755 302.583 433.596 302.424C433.442 302.261 433.199 302.142 432.868 302.067L431.37 301.696C430.787 301.556 430.32 301.337 429.97 301.038C429.625 300.739 429.45 300.322 429.445 299.785C429.445 299.36 429.548 298.987 429.753 298.665C429.958 298.343 430.264 298.089 430.67 297.902C431.081 297.715 431.592 297.622 432.203 297.622C432.992 297.622 433.626 297.799 434.107 298.154C434.588 298.504 434.84 299.02 434.863 299.701H433.715C433.668 299.356 433.514 299.083 433.253 298.882C432.992 298.677 432.637 298.574 432.189 298.574C431.732 298.574 431.356 298.667 431.062 298.854C430.773 299.036 430.628 299.321 430.628 299.708C430.628 299.965 430.731 300.168 430.936 300.317C431.146 300.462 431.449 300.583 431.846 300.681L433.302 301.045C433.633 301.134 433.909 301.25 434.128 301.395C434.347 301.54 434.52 301.701 434.646 301.878C434.772 302.055 434.861 302.242 434.912 302.438C434.968 302.629 434.996 302.814 434.996 302.991C434.996 303.434 434.886 303.817 434.667 304.139C434.448 304.456 434.13 304.704 433.715 304.881C433.3 305.054 432.798 305.14 432.21 305.14ZM439.586 305.14C438.919 305.14 438.336 304.998 437.836 304.713C437.342 304.424 436.957 304.001 436.681 303.446C436.406 302.891 436.268 302.212 436.268 301.409C436.268 300.653 436.397 299.99 436.653 299.421C436.91 298.852 437.286 298.411 437.78 298.098C438.275 297.781 438.879 297.622 439.593 297.622C440.261 297.622 440.839 297.769 441.329 298.063C441.819 298.352 442.2 298.779 442.47 299.344C442.746 299.909 442.883 300.597 442.883 301.409C442.883 302.146 442.757 302.795 442.505 303.355C442.253 303.915 441.882 304.354 441.392 304.671C440.907 304.984 440.305 305.14 439.586 305.14ZM439.593 304.118C440.023 304.118 440.387 304.008 440.685 303.789C440.984 303.57 441.21 303.255 441.364 302.844C441.523 302.433 441.602 301.946 441.602 301.381C441.602 300.863 441.532 300.399 441.392 299.988C441.257 299.573 441.042 299.244 440.748 299.001C440.454 298.758 440.069 298.637 439.593 298.637C439.155 298.637 438.784 298.747 438.48 298.966C438.177 299.181 437.946 299.493 437.787 299.904C437.633 300.315 437.556 300.807 437.556 301.381C437.556 301.89 437.624 302.352 437.759 302.767C437.899 303.182 438.119 303.511 438.417 303.754C438.721 303.997 439.113 304.118 439.593 304.118ZM444.604 305V297.762H445.857V298.812C445.974 298.611 446.135 298.422 446.34 298.245C446.55 298.068 446.802 297.925 447.096 297.818C447.395 297.711 447.738 297.657 448.125 297.657C448.583 297.657 449.003 297.748 449.385 297.93C449.773 298.112 450.081 298.397 450.309 298.784C450.543 299.167 450.659 299.661 450.659 300.268V305H449.364V300.394C449.364 299.829 449.215 299.412 448.916 299.141C448.622 298.866 448.24 298.728 447.768 298.728C447.442 298.728 447.136 298.782 446.851 298.889C446.567 298.992 446.336 299.15 446.158 299.365C445.981 299.575 445.892 299.841 445.892 300.163V305H444.604Z" fill="white" style="fill:white;fill-opacity:1;"/>
<path d="M121 300C121 264.654 149.654 236 185 236C220.346 236 249 264.654 249 300C249 335.346 220.346 364 185 364C149.654 364 121 335.346 121 300Z" fill="#F16767" style="fill:#F16767;fill:color(display-p3 0.9451 0.4039 0.4039);fill-opacity:1;"/>
<path d="M163.724 305V294.878H167.147C167.87 294.878 168.514 294.999 169.079 295.242C169.643 295.485 170.087 295.844 170.409 296.32C170.735 296.796 170.899 297.382 170.899 298.077C170.899 298.749 170.747 299.323 170.444 299.799C170.145 300.275 169.727 300.637 169.191 300.884C168.654 301.131 168.031 301.255 167.322 301.255H165.054V305H163.724ZM165.047 300.163H167.294C167.989 300.163 168.554 299.969 168.988 299.582C169.422 299.195 169.639 298.667 169.639 298C169.639 297.328 169.415 296.819 168.967 296.474C168.519 296.129 167.94 295.956 167.231 295.956H165.047V300.163ZM175.308 305.14C174.636 305.14 174.043 304.993 173.53 304.699C173.016 304.405 172.615 303.983 172.326 303.432C172.036 302.881 171.892 302.221 171.892 301.451C171.892 300.69 172.022 300.023 172.284 299.449C172.545 298.875 172.923 298.427 173.418 298.105C173.917 297.783 174.517 297.622 175.217 297.622C175.898 297.622 176.474 297.769 176.946 298.063C177.417 298.357 177.774 298.772 178.017 299.309C178.264 299.841 178.388 300.473 178.388 301.206V301.682H173.201C173.201 302.139 173.275 302.555 173.425 302.928C173.579 303.297 173.81 303.591 174.118 303.81C174.426 304.029 174.815 304.139 175.287 304.139C175.749 304.139 176.145 304.032 176.477 303.817C176.813 303.602 177.027 303.292 177.121 302.886H178.339C178.255 303.376 178.059 303.789 177.751 304.125C177.447 304.461 177.081 304.715 176.652 304.888C176.227 305.056 175.779 305.14 175.308 305.14ZM173.208 300.807H177.142C177.142 300.392 177.072 300.018 176.932 299.687C176.792 299.351 176.577 299.087 176.288 298.896C176.003 298.7 175.644 298.602 175.21 298.602C174.757 298.602 174.381 298.712 174.083 298.931C173.784 299.146 173.562 299.423 173.418 299.764C173.273 300.1 173.203 300.448 173.208 300.807ZM180.178 305V297.762H181.41V299.155C181.532 298.81 181.702 298.525 181.921 298.301C182.141 298.072 182.39 297.902 182.67 297.79C182.955 297.678 183.249 297.622 183.552 297.622C183.66 297.622 183.765 297.629 183.867 297.643C183.97 297.657 184.049 297.68 184.105 297.713V298.966C184.035 298.933 183.944 298.912 183.832 298.903C183.725 298.889 183.634 298.882 183.559 298.882C183.27 298.863 182.999 298.882 182.747 298.938C182.495 298.989 182.274 299.08 182.082 299.211C181.891 299.342 181.739 299.514 181.627 299.729C181.52 299.939 181.466 300.196 181.466 300.499V305H180.178ZM188.21 305.14C187.706 305.14 187.237 305.063 186.803 304.909C186.374 304.75 186.017 304.505 185.732 304.174C185.447 303.838 185.27 303.411 185.2 302.893H186.376C186.437 303.178 186.553 303.416 186.726 303.607C186.899 303.794 187.111 303.936 187.363 304.034C187.62 304.127 187.9 304.174 188.203 304.174C188.693 304.174 189.087 304.083 189.386 303.901C189.685 303.719 189.834 303.439 189.834 303.061C189.834 302.795 189.755 302.583 189.596 302.424C189.442 302.261 189.199 302.142 188.868 302.067L187.37 301.696C186.787 301.556 186.32 301.337 185.97 301.038C185.625 300.739 185.45 300.322 185.445 299.785C185.445 299.36 185.548 298.987 185.753 298.665C185.958 298.343 186.264 298.089 186.67 297.902C187.081 297.715 187.592 297.622 188.203 297.622C188.992 297.622 189.626 297.799 190.107 298.154C190.588 298.504 190.84 299.02 190.863 299.701H189.715C189.668 299.356 189.514 299.083 189.253 298.882C188.992 298.677 188.637 298.574 188.189 298.574C187.732 298.574 187.356 298.667 187.062 298.854C186.773 299.036 186.628 299.321 186.628 299.708C186.628 299.965 186.731 300.168 186.936 300.317C187.146 300.462 187.449 300.583 187.846 300.681L189.302 301.045C189.633 301.134 189.909 301.25 190.128 301.395C190.347 301.54 190.52 301.701 190.646 301.878C190.772 302.055 190.861 302.242 190.912 302.438C190.968 302.629 190.996 302.814 190.996 302.991C190.996 303.434 190.886 303.817 190.667 304.139C190.448 304.456 190.13 304.704 189.715 304.881C189.3 305.054 188.798 305.14 188.21 305.14ZM195.586 305.14C194.919 305.14 194.336 304.998 193.836 304.713C193.342 304.424 192.957 304.001 192.681 303.446C192.406 302.891 192.268 302.212 192.268 301.409C192.268 300.653 192.397 299.99 192.653 299.421C192.91 298.852 193.286 298.411 193.78 298.098C194.275 297.781 194.879 297.622 195.593 297.622C196.261 297.622 196.839 297.769 197.329 298.063C197.819 298.352 198.2 298.779 198.47 299.344C198.746 299.909 198.883 300.597 198.883 301.409C198.883 302.146 198.757 302.795 198.505 303.355C198.253 303.915 197.882 304.354 197.392 304.671C196.907 304.984 196.305 305.14 195.586 305.14ZM195.593 304.118C196.023 304.118 196.387 304.008 196.685 303.789C196.984 303.57 197.21 303.255 197.364 302.844C197.523 302.433 197.602 301.946 197.602 301.381C197.602 300.863 197.532 300.399 197.392 299.988C197.257 299.573 197.042 299.244 196.748 299.001C196.454 298.758 196.069 298.637 195.593 298.637C195.155 298.637 194.784 298.747 194.48 298.966C194.177 299.181 193.946 299.493 193.787 299.904C193.633 300.315 193.556 300.807 193.556 301.381C193.556 301.89 193.624 302.352 193.759 302.767C193.899 303.182 194.119 303.511 194.417 303.754C194.721 303.997 195.113 304.118 195.593 304.118ZM200.604 305V297.762H201.857V298.812C201.974 298.611 202.135 298.422 202.34 298.245C202.55 298.068 202.802 297.925 203.096 297.818C203.395 297.711 203.738 297.657 204.125 297.657C204.583 297.657 205.003 297.748 205.385 297.93C205.773 298.112 206.081 298.397 206.309 298.784C206.543 299.167 206.659 299.661 206.659 300.268V305H205.364V300.394C205.364 299.829 205.215 299.412 204.916 299.141C204.622 298.866 204.24 298.728 203.768 298.728C203.442 298.728 203.136 298.782 202.851 298.889C202.567 298.992 202.336 299.15 202.158 299.365C201.981 299.575 201.892 299.841 201.892 300.163V305H200.604Z" fill="white" style="fill:white;fill-opacity:1;"/>
<path d="M0 98C0 62.6538 28.6538 34 64 34C99.3462 34 128 62.6538 128 98C128 133.346 99.3462 162 64 162C28.6538 162 0 133.346 0 98Z" fill="#F16767" style="fill:#F16767;fill:color(display-p3 0.9451 0.4039 0.4039);fill-opacity:1;"/>
<path d="M42.7237 103V92.878H46.1467C46.8701 92.878 47.5141 92.9993 48.0787 93.242C48.6434 93.4847 49.0867 93.844 49.4087 94.32C49.7354 94.796 49.8987 95.3817 49.8987 96.077C49.8987 96.749 49.7471 97.323 49.4437 97.799C49.1451 98.275 48.7274 98.6367 48.1907 98.884C47.6541 99.1313 47.0311 99.255 46.3217 99.255H44.0537V103H42.7237ZM44.0467 98.163H46.2937C46.9891 98.163 47.5537 97.9693 47.9877 97.582C48.4217 97.1947 48.6387 96.6673 48.6387 96C48.6387 95.328 48.4147 94.8193 47.9667 94.474C47.5187 94.1287 46.9401 93.956 46.2307 93.956H44.0467V98.163ZM54.3077 103.14C53.6357 103.14 53.0431 102.993 52.5297 102.699C52.0164 102.405 51.6151 101.983 51.3257 101.432C51.0364 100.881 50.8917 100.221 50.8917 99.451C50.8917 98.6903 51.0224 98.023 51.2837 97.449C51.5451 96.875 51.9231 96.427 52.4177 96.105C52.9171 95.783 53.5167 95.622 54.2167 95.622C54.8981 95.622 55.4744 95.769 55.9457 96.063C56.4171 96.357 56.7741 96.7723 57.0167 97.309C57.2641 97.841 57.3877 98.4733 57.3877 99.206V99.682H52.2007C52.2007 100.139 52.2754 100.555 52.4247 100.928C52.5787 101.297 52.8097 101.591 53.1177 101.81C53.4257 102.029 53.8154 102.139 54.2867 102.139C54.7487 102.139 55.1454 102.032 55.4767 101.817C55.8127 101.602 56.0274 101.292 56.1207 100.886H57.3387C57.2547 101.376 57.0587 101.789 56.7507 102.125C56.4474 102.461 56.0811 102.715 55.6517 102.888C55.2271 103.056 54.7791 103.14 54.3077 103.14ZM52.2077 98.807H56.1417C56.1417 98.3917 56.0717 98.0183 55.9317 97.687C55.7917 97.351 55.5771 97.0873 55.2877 96.896C55.0031 96.7 54.6437 96.602 54.2097 96.602C53.7571 96.602 53.3814 96.7117 53.0827 96.931C52.7841 97.1457 52.5624 97.4233 52.4177 97.764C52.2731 98.1 52.2031 98.4477 52.2077 98.807ZM59.1784 103V95.762H60.4104V97.155C60.5318 96.8097 60.7021 96.525 60.9214 96.301C61.1408 96.0723 61.3904 95.902 61.6704 95.79C61.9551 95.678 62.2491 95.622 62.5524 95.622C62.6598 95.622 62.7648 95.629 62.8674 95.643C62.9701 95.657 63.0494 95.6803 63.1054 95.713V96.966C63.0354 96.9333 62.9444 96.9123 62.8324 96.903C62.7251 96.889 62.6341 96.882 62.5594 96.882C62.2701 96.8633 61.9994 96.882 61.7474 96.938C61.4954 96.9893 61.2738 97.0803 61.0824 97.211C60.8911 97.3417 60.7394 97.5143 60.6274 97.729C60.5201 97.939 60.4664 98.1957 60.4664 98.499V103H59.1784ZM67.2102 103.14C66.7062 103.14 66.2372 103.063 65.8032 102.909C65.3738 102.75 65.0168 102.505 64.7322 102.174C64.4475 101.838 64.2702 101.411 64.2002 100.893H65.3762C65.4368 101.178 65.5535 101.416 65.7262 101.607C65.8988 101.794 66.1112 101.936 66.3632 102.034C66.6198 102.127 66.8998 102.174 67.2032 102.174C67.6932 102.174 68.0875 102.083 68.3862 101.901C68.6848 101.719 68.8342 101.439 68.8342 101.061C68.8342 100.795 68.7548 100.583 68.5962 100.424C68.4422 100.261 68.1995 100.142 67.8682 100.067L66.3702 99.696C65.7868 99.556 65.3202 99.3367 64.9702 99.038C64.6248 98.7393 64.4498 98.3217 64.4452 97.785C64.4452 97.3603 64.5478 96.987 64.7532 96.665C64.9585 96.343 65.2642 96.0887 65.6702 95.902C66.0808 95.7153 66.5918 95.622 67.2032 95.622C67.9918 95.622 68.6265 95.7993 69.1072 96.154C69.5878 96.504 69.8398 97.0197 69.8632 97.701H68.7152C68.6685 97.3557 68.5145 97.0827 68.2532 96.882C67.9918 96.6767 67.6372 96.574 67.1892 96.574C66.7318 96.574 66.3562 96.6673 66.0622 96.854C65.7728 97.036 65.6282 97.3207 65.6282 97.708C65.6282 97.9647 65.7308 98.1677 65.9362 98.317C66.1462 98.4617 66.4495 98.583 66.8462 98.681L68.3022 99.045C68.6335 99.1337 68.9088 99.2503 69.1282 99.395C69.3475 99.5397 69.5202 99.7007 69.6462 99.878C69.7722 100.055 69.8608 100.242 69.9122 100.438C69.9682 100.629 69.9962 100.814 69.9962 100.991C69.9962 101.434 69.8865 101.817 69.6672 102.139C69.4478 102.456 69.1305 102.704 68.7152 102.881C68.2998 103.054 67.7982 103.14 67.2102 103.14ZM74.5862 103.14C73.9189 103.14 73.3355 102.998 72.8362 102.713C72.3415 102.424 71.9565 102.001 71.6812 101.446C71.4059 100.891 71.2682 100.212 71.2682 99.409C71.2682 98.653 71.3965 97.9903 71.6532 97.421C71.9099 96.8517 72.2855 96.4107 72.7802 96.098C73.2749 95.7807 73.8792 95.622 74.5932 95.622C75.2605 95.622 75.8392 95.769 76.3292 96.063C76.8192 96.3523 77.1995 96.7793 77.4702 97.344C77.7455 97.9087 77.8832 98.597 77.8832 99.409C77.8832 100.146 77.7572 100.795 77.5052 101.355C77.2532 101.915 76.8822 102.354 76.3922 102.671C75.9069 102.984 75.3049 103.14 74.5862 103.14ZM74.5932 102.118C75.0225 102.118 75.3865 102.008 75.6852 101.789C75.9839 101.57 76.2102 101.255 76.3642 100.844C76.5229 100.433 76.6022 99.9457 76.6022 99.381C76.6022 98.863 76.5322 98.3987 76.3922 97.988C76.2569 97.5727 76.0422 97.2437 75.7482 97.001C75.4542 96.7583 75.0692 96.637 74.5932 96.637C74.1545 96.637 73.7835 96.7467 73.4802 96.966C73.1769 97.1807 72.9459 97.4933 72.7872 97.904C72.6332 98.3147 72.5562 98.807 72.5562 99.381C72.5562 99.8897 72.6239 100.352 72.7592 100.767C72.8992 101.182 73.1185 101.511 73.4172 101.754C73.7205 101.997 74.1125 102.118 74.5932 102.118ZM79.6042 103V95.762H80.8572V96.812C80.9739 96.6113 81.1349 96.4223 81.3402 96.245C81.5502 96.0677 81.8022 95.9253 82.0962 95.818C82.3949 95.7107 82.7379 95.657 83.1252 95.657C83.5825 95.657 84.0025 95.748 84.3852 95.93C84.7725 96.112 85.0805 96.3967 85.3092 96.784C85.5425 97.1667 85.6592 97.6613 85.6592 98.268V103H84.3642V98.394C84.3642 97.8293 84.2149 97.4117 83.9162 97.141C83.6222 96.8657 83.2395 96.728 82.7682 96.728C82.4415 96.728 82.1359 96.7817 81.8512 96.889C81.5665 96.9917 81.3355 97.1503 81.1582 97.365C80.9809 97.575 80.8922 97.841 80.8922 98.163V103H79.6042Z" fill="white" style="fill:white;fill-opacity:1;"/>
<path d="M373.5 97C372.948 97 372.5 97.4477 372.5 98C372.5 98.5523 372.948 99 373.5 99V97ZM393.938 99C394.49 99 394.938 98.5523 394.938 98C394.938 97.4477 394.49 97 393.938 97V99ZM460.062 97C459.51 97 459.062 97.4477 459.062 98C459.062 98.5523 459.51 99 460.062 99V97ZM481.207 98.7071C481.598 98.3166 481.598 97.6834 481.207 97.2929L474.843 90.9289C474.453 90.5384 473.819 90.5384 473.429 90.9289C473.038 91.3195 473.038 91.9526 473.429 92.3431L479.086 98L473.429 103.657C473.038 104.047 473.038 104.681 473.429 105.071C473.819 105.462 474.453 105.462 474.843 105.071L481.207 98.7071ZM373.5 99H393.938V97H373.5V99ZM460.062 99H480.5V97H460.062V99Z" fill="#1A1B1D" style="fill:#1A1B1D;fill:color(display-p3 0.1020 0.1059 0.1137);fill-opacity:1;"/>
<path d="M401.896 103.5V93.3182H403.433V98.1804H403.557L407.827 93.3182H409.761L405.655 97.902L409.776 103.5H407.927L404.636 98.951L403.433 100.333V103.5H401.896ZM419.257 93.3182V103.5H417.845L412.67 96.0327H412.575V103.5H411.039V93.3182H412.461L417.641 100.795H417.736V93.3182H419.257ZM430.189 98.4091C430.189 99.4962 429.99 100.431 429.592 101.213C429.194 101.992 428.649 102.592 427.956 103.013C427.267 103.43 426.483 103.639 425.605 103.639C424.723 103.639 423.936 103.43 423.243 103.013C422.554 102.592 422.01 101.99 421.613 101.208C421.215 100.426 421.016 99.4929 421.016 98.4091C421.016 97.322 421.215 96.389 421.613 95.6101C422.01 94.8279 422.554 94.228 423.243 93.8104C423.936 93.3894 424.723 93.179 425.605 93.179C426.483 93.179 427.267 93.3894 427.956 93.8104C428.649 94.228 429.194 94.8279 429.592 95.6101C429.99 96.389 430.189 97.322 430.189 98.4091ZM428.667 98.4091C428.667 97.5805 428.533 96.8828 428.265 96.3161C427.999 95.746 427.635 95.3151 427.171 95.0234C426.71 94.7285 426.188 94.581 425.605 94.581C425.018 94.581 424.495 94.7285 424.034 95.0234C423.573 95.3151 423.209 95.746 422.94 96.3161C422.675 96.8828 422.542 97.5805 422.542 98.4091C422.542 99.2377 422.675 99.937 422.94 100.507C423.209 101.074 423.573 101.505 424.034 101.8C424.495 102.091 425.018 102.237 425.605 102.237C426.188 102.237 426.71 102.091 427.171 101.8C427.635 101.505 427.999 101.074 428.265 100.507C428.533 99.937 428.667 99.2377 428.667 98.4091ZM433.821 103.5L430.997 93.3182H432.612L434.596 101.203H434.691L436.754 93.3182H438.355L440.418 101.208H440.512L442.491 93.3182H444.112L441.283 103.5H439.737L437.594 95.8736H437.514L435.372 103.5H433.821ZM450.884 95.9929C450.831 95.5223 450.613 95.1577 450.228 94.8991C449.844 94.6373 449.36 94.5064 448.776 94.5064C448.359 94.5064 447.998 94.5727 447.693 94.7053C447.388 94.8345 447.151 95.0135 446.982 95.2422C446.816 95.4676 446.733 95.7244 446.733 96.0128C446.733 96.2547 446.789 96.4635 446.902 96.6392C447.018 96.8149 447.169 96.9624 447.355 97.0817C447.543 97.1977 447.746 97.2955 447.961 97.375C448.177 97.4512 448.384 97.5142 448.583 97.5639L449.577 97.8224C449.902 97.902 450.235 98.0097 450.576 98.1456C450.918 98.2815 451.234 98.4605 451.526 98.6825C451.817 98.9046 452.053 99.1797 452.232 99.5078C452.414 99.8359 452.505 100.229 452.505 100.686C452.505 101.263 452.356 101.775 452.058 102.222C451.763 102.67 451.333 103.023 450.77 103.281C450.21 103.54 449.532 103.669 448.737 103.669C447.974 103.669 447.315 103.548 446.758 103.306C446.201 103.064 445.765 102.721 445.45 102.277C445.136 101.83 444.962 101.299 444.928 100.686H446.47C446.499 101.054 446.619 101.361 446.828 101.606C447.04 101.848 447.31 102.028 447.638 102.148C447.969 102.264 448.332 102.322 448.727 102.322C449.161 102.322 449.547 102.254 449.885 102.118C450.226 101.979 450.495 101.786 450.69 101.541C450.886 101.293 450.984 101.003 450.984 100.671C450.984 100.37 450.898 100.123 450.725 99.9304C450.556 99.7382 450.326 99.5791 450.034 99.4531C449.746 99.3272 449.419 99.2161 449.055 99.12L447.852 98.7919C447.036 98.5698 446.39 98.2434 445.913 97.8125C445.439 97.3816 445.202 96.8116 445.202 96.1023C445.202 95.5156 445.361 95.0036 445.679 94.5661C445.997 94.1286 446.428 93.7888 446.972 93.5469C447.515 93.3016 448.128 93.179 448.811 93.179C449.501 93.179 450.109 93.3 450.636 93.5419C451.166 93.7839 451.584 94.117 451.889 94.5412C452.194 94.9621 452.353 95.446 452.366 95.9929H450.884Z" fill="black" fill-opacity="0.8" style="fill:black;fill-opacity:0.8;"/>
<path d="M238.5 99C239.052 99 239.5 98.5523 239.5 98C239.5 97.4477 239.052 97 238.5 97V99ZM218.062 97C217.51 97 217.062 97.4477 217.062 98C217.062 98.5523 217.51 99 218.062 99V97ZM151.938 99C152.49 99 152.938 98.5523 152.938 98C152.938 97.4477 152.49 97 151.938 97V99ZM130.793 97.2929C130.402 97.6834 130.402 98.3166 130.793 98.7071L137.157 105.071C137.547 105.462 138.181 105.462 138.571 105.071C138.962 104.681 138.962 104.047 138.571 103.657L132.914 98L138.571 92.3431C138.962 91.9526 138.962 91.3195 138.571 90.9289C138.181 90.5384 137.547 90.5384 137.157 90.9289L130.793 97.2929ZM238.5 97H218.062V99H238.5V97ZM151.938 97H131.5V99H151.938V97Z" fill="#1A1B1D" style="fill:#1A1B1D;fill:color(display-p3 0.1020 0.1059 0.1137);fill-opacity:1;"/>
<path d="M159.896 103.5V93.3182H161.433V98.1804H161.557L165.827 93.3182H167.761L163.655 97.902L167.776 103.5H165.927L162.636 98.951L161.433 100.333V103.5H159.896ZM177.257 93.3182V103.5H175.845L170.67 96.0327H170.575V103.5H169.039V93.3182H170.461L175.641 100.795H175.736V93.3182H177.257ZM188.189 98.4091C188.189 99.4962 187.99 100.431 187.592 101.213C187.194 101.992 186.649 102.592 185.956 103.013C185.267 103.43 184.483 103.639 183.605 103.639C182.723 103.639 181.936 103.43 181.243 103.013C180.554 102.592 180.01 101.99 179.613 101.208C179.215 100.426 179.016 99.4929 179.016 98.4091C179.016 97.322 179.215 96.389 179.613 95.6101C180.01 94.8279 180.554 94.228 181.243 93.8104C181.936 93.3894 182.723 93.179 183.605 93.179C184.483 93.179 185.267 93.3894 185.956 93.8104C186.649 94.228 187.194 94.8279 187.592 95.6101C187.99 96.389 188.189 97.322 188.189 98.4091ZM186.667 98.4091C186.667 97.5805 186.533 96.8828 186.265 96.3161C185.999 95.746 185.635 95.3151 185.171 95.0234C184.71 94.7285 184.188 94.581 183.605 94.581C183.018 94.581 182.495 94.7285 182.034 95.0234C181.573 95.3151 181.209 95.746 180.94 96.3161C180.675 96.8828 180.542 97.5805 180.542 98.4091C180.542 99.2377 180.675 99.937 180.94 100.507C181.209 101.074 181.573 101.505 182.034 101.8C182.495 102.091 183.018 102.237 183.605 102.237C184.188 102.237 184.71 102.091 185.171 101.8C185.635 101.505 185.999 101.074 186.265 100.507C186.533 99.937 186.667 99.2377 186.667 98.4091ZM191.821 103.5L188.997 93.3182H190.612L192.596 101.203H192.691L194.754 93.3182H196.355L198.418 101.208H198.512L200.491 93.3182H202.112L199.283 103.5H197.737L195.594 95.8736H195.514L193.372 103.5H191.821ZM208.884 95.9929C208.831 95.5223 208.613 95.1577 208.228 94.8991C207.844 94.6373 207.36 94.5064 206.776 94.5064C206.359 94.5064 205.998 94.5727 205.693 94.7053C205.388 94.8345 205.151 95.0135 204.982 95.2422C204.816 95.4676 204.733 95.7244 204.733 96.0128C204.733 96.2547 204.789 96.4635 204.902 96.6392C205.018 96.8149 205.169 96.9624 205.355 97.0817C205.543 97.1977 205.746 97.2955 205.961 97.375C206.177 97.4512 206.384 97.5142 206.583 97.5639L207.577 97.8224C207.902 97.902 208.235 98.0097 208.576 98.1456C208.918 98.2815 209.234 98.4605 209.526 98.6825C209.817 98.9046 210.053 99.1797 210.232 99.5078C210.414 99.8359 210.505 100.229 210.505 100.686C210.505 101.263 210.356 101.775 210.058 102.222C209.763 102.67 209.333 103.023 208.77 103.281C208.21 103.54 207.532 103.669 206.737 103.669C205.974 103.669 205.315 103.548 204.758 103.306C204.201 103.064 203.765 102.721 203.45 102.277C203.136 101.83 202.962 101.299 202.928 100.686H204.47C204.499 101.054 204.619 101.361 204.828 101.606C205.04 101.848 205.31 102.028 205.638 102.148C205.969 102.264 206.332 102.322 206.727 102.322C207.161 102.322 207.547 102.254 207.885 102.118C208.226 101.979 208.495 101.786 208.69 101.541C208.886 101.293 208.984 101.003 208.984 100.671C208.984 100.37 208.898 100.123 208.725 99.9304C208.556 99.7382 208.326 99.5791 208.034 99.4531C207.746 99.3272 207.419 99.2161 207.055 99.12L205.852 98.7919C205.036 98.5698 204.39 98.2434 203.913 97.8125C203.439 97.3816 203.202 96.8116 203.202 96.1023C203.202 95.5156 203.361 95.0036 203.679 94.5661C203.997 94.1286 204.428 93.7888 204.972 93.5469C205.515 93.3016 206.128 93.179 206.811 93.179C207.501 93.179 208.109 93.3 208.636 93.5419C209.166 93.7839 209.584 94.117 209.889 94.5412C210.194 94.9621 210.353 95.446 210.366 95.9929H208.884Z" fill="black" fill-opacity="0.8" style="fill:black;fill-opacity:0.8;"/>
<path d="M266.723 165.517C267.007 165.043 266.853 164.429 266.379 164.145C265.905 163.861 265.291 164.015 265.007 164.489L266.723 165.517ZM254.863 181.424C254.579 181.898 254.733 182.512 255.207 182.796C255.681 183.08 256.295 182.926 256.579 182.452L254.863 181.424ZM235.159 216.538C235.422 216.052 235.241 215.445 234.755 215.183C234.269 214.921 233.662 215.102 233.4 215.588L235.159 216.538ZM224.177 233.284C224.335 233.813 224.892 234.114 225.421 233.956L234.045 231.38C234.574 231.222 234.875 230.665 234.717 230.136C234.559 229.606 234.002 229.306 233.472 229.464L225.807 231.753L223.517 224.088C223.359 223.559 222.802 223.258 222.273 223.416C221.744 223.574 221.443 224.131 221.601 224.661L224.177 233.284ZM265.007 164.489L254.863 181.424L256.579 182.452L266.723 165.517L265.007 164.489ZM233.4 215.588L224.255 232.523L226.015 233.473L235.159 216.538L233.4 215.588Z" fill="#1A1B1D" style="fill:#1A1B1D;fill:color(display-p3 0.1020 0.1059 0.1137);fill-opacity:1;"/>
<path d="M220.396 204.5V194.318H221.933V199.18H222.057L226.327 194.318H228.261L224.155 198.902L228.276 204.5H226.427L223.136 199.951L221.933 201.333V204.5H220.396ZM237.757 194.318V204.5H236.345L231.17 197.033H231.075V204.5H229.539V194.318H230.961L236.141 201.795H236.236V194.318H237.757ZM248.689 199.409C248.689 200.496 248.49 201.431 248.092 202.213C247.694 202.992 247.149 203.592 246.456 204.013C245.767 204.43 244.983 204.639 244.105 204.639C243.223 204.639 242.436 204.43 241.743 204.013C241.054 203.592 240.51 202.99 240.113 202.208C239.715 201.426 239.516 200.493 239.516 199.409C239.516 198.322 239.715 197.389 240.113 196.61C240.51 195.828 241.054 195.228 241.743 194.81C242.436 194.389 243.223 194.179 244.105 194.179C244.983 194.179 245.767 194.389 246.456 194.81C247.149 195.228 247.694 195.828 248.092 196.61C248.49 197.389 248.689 198.322 248.689 199.409ZM247.167 199.409C247.167 198.58 247.033 197.883 246.765 197.316C246.499 196.746 246.135 196.315 245.671 196.023C245.21 195.728 244.688 195.581 244.105 195.581C243.518 195.581 242.995 195.728 242.534 196.023C242.073 196.315 241.709 196.746 241.44 197.316C241.175 197.883 241.042 198.58 241.042 199.409C241.042 200.238 241.175 200.937 241.44 201.507C241.709 202.074 242.073 202.505 242.534 202.8C242.995 203.091 243.518 203.237 244.105 203.237C244.688 203.237 245.21 203.091 245.671 202.8C246.135 202.505 246.499 202.074 246.765 201.507C247.033 200.937 247.167 200.238 247.167 199.409ZM252.321 204.5L249.497 194.318H251.112L253.096 202.203H253.191L255.254 194.318H256.855L258.918 202.208H259.012L260.991 194.318H262.612L259.783 204.5H258.237L256.094 196.874H256.014L253.872 204.5H252.321ZM269.384 196.993C269.331 196.522 269.113 196.158 268.728 195.899C268.344 195.637 267.86 195.506 267.276 195.506C266.859 195.506 266.498 195.573 266.193 195.705C265.888 195.835 265.651 196.013 265.482 196.242C265.316 196.468 265.233 196.724 265.233 197.013C265.233 197.255 265.289 197.464 265.402 197.639C265.518 197.815 265.669 197.962 265.855 198.082C266.043 198.198 266.246 198.295 266.461 198.375C266.677 198.451 266.884 198.514 267.083 198.564L268.077 198.822C268.402 198.902 268.735 199.01 269.076 199.146C269.418 199.281 269.734 199.46 270.026 199.683C270.317 199.905 270.553 200.18 270.732 200.508C270.914 200.836 271.005 201.229 271.005 201.686C271.005 202.263 270.856 202.775 270.558 203.222C270.263 203.67 269.833 204.023 269.27 204.281C268.71 204.54 268.032 204.669 267.237 204.669C266.474 204.669 265.815 204.548 265.258 204.306C264.701 204.064 264.265 203.721 263.95 203.277C263.636 202.83 263.462 202.299 263.428 201.686H264.97C264.999 202.054 265.119 202.361 265.328 202.606C265.54 202.848 265.81 203.028 266.138 203.148C266.469 203.264 266.832 203.322 267.227 203.322C267.661 203.322 268.047 203.254 268.385 203.118C268.726 202.979 268.995 202.786 269.19 202.541C269.386 202.293 269.484 202.003 269.484 201.671C269.484 201.37 269.398 201.123 269.225 200.93C269.056 200.738 268.826 200.579 268.534 200.453C268.246 200.327 267.919 200.216 267.555 200.12L266.352 199.792C265.536 199.57 264.89 199.243 264.413 198.812C263.939 198.382 263.702 197.812 263.702 197.102C263.702 196.516 263.861 196.004 264.179 195.566C264.497 195.129 264.928 194.789 265.472 194.547C266.015 194.302 266.628 194.179 267.311 194.179C268.001 194.179 268.609 194.3 269.136 194.542C269.666 194.784 270.084 195.117 270.389 195.541C270.694 195.962 270.853 196.446 270.866 196.993H269.384Z" fill="black" fill-opacity="0.8" style="fill:black;fill-opacity:0.8;"/>
<path d="M347.645 164.469C347.357 163.997 346.742 163.848 346.27 164.135C345.799 164.422 345.649 165.038 345.936 165.509L347.645 164.469ZM356.256 182.457C356.544 182.929 357.159 183.079 357.63 182.791C358.102 182.504 358.252 181.889 357.965 181.417L356.256 182.457ZM378.744 215.542C378.456 215.071 377.841 214.921 377.369 215.208C376.898 215.495 376.748 216.111 377.035 216.582L378.744 215.542ZM387.973 233.982C388.51 234.113 389.051 233.783 389.181 233.247L391.307 224.501C391.437 223.965 391.108 223.424 390.571 223.293C390.035 223.163 389.494 223.492 389.363 224.029L387.474 231.803L379.7 229.913C379.164 229.782 378.623 230.112 378.492 230.648C378.362 231.185 378.691 231.726 379.228 231.856L387.973 233.982ZM345.936 165.509L356.256 182.457L357.965 181.417L347.645 164.469L345.936 165.509ZM377.035 216.582L387.355 233.531L389.063 232.49L378.744 215.542L377.035 216.582Z" fill="#1A1B1D" style="fill:#1A1B1D;fill:color(display-p3 0.1020 0.1059 0.1137);fill-opacity:1;"/>
<path d="M342.396 204.5V194.318H343.933V199.18H344.057L348.327 194.318H350.261L346.155 198.902L350.276 204.5H348.427L345.136 199.951L343.933 201.333V204.5H342.396ZM359.757 194.318V204.5H358.345L353.17 197.033H353.075V204.5H351.539V194.318H352.961L358.141 201.795H358.236V194.318H359.757ZM370.689 199.409C370.689 200.496 370.49 201.431 370.092 202.213C369.694 202.992 369.149 203.592 368.456 204.013C367.767 204.43 366.983 204.639 366.105 204.639C365.223 204.639 364.436 204.43 363.743 204.013C363.054 203.592 362.51 202.99 362.113 202.208C361.715 201.426 361.516 200.493 361.516 199.409C361.516 198.322 361.715 197.389 362.113 196.61C362.51 195.828 363.054 195.228 363.743 194.81C364.436 194.389 365.223 194.179 366.105 194.179C366.983 194.179 367.767 194.389 368.456 194.81C369.149 195.228 369.694 195.828 370.092 196.61C370.49 197.389 370.689 198.322 370.689 199.409ZM369.167 199.409C369.167 198.58 369.033 197.883 368.765 197.316C368.499 196.746 368.135 196.315 367.671 196.023C367.21 195.728 366.688 195.581 366.105 195.581C365.518 195.581 364.995 195.728 364.534 196.023C364.073 196.315 363.709 196.746 363.44 197.316C363.175 197.883 363.042 198.58 363.042 199.409C363.042 200.238 363.175 200.937 363.44 201.507C363.709 202.074 364.073 202.505 364.534 202.8C364.995 203.091 365.518 203.237 366.105 203.237C366.688 203.237 367.21 203.091 367.671 202.8C368.135 202.505 368.499 202.074 368.765 201.507C369.033 200.937 369.167 200.238 369.167 199.409ZM374.321 204.5L371.497 194.318H373.112L375.096 202.203H375.191L377.254 194.318H378.855L380.918 202.208H381.012L382.991 194.318H384.612L381.783 204.5H380.237L378.094 196.874H378.014L375.872 204.5H374.321ZM391.384 196.993C391.331 196.522 391.113 196.158 390.728 195.899C390.344 195.637 389.86 195.506 389.276 195.506C388.859 195.506 388.498 195.573 388.193 195.705C387.888 195.835 387.651 196.013 387.482 196.242C387.316 196.468 387.233 196.724 387.233 197.013C387.233 197.255 387.289 197.464 387.402 197.639C387.518 197.815 387.669 197.962 387.855 198.082C388.043 198.198 388.246 198.295 388.461 198.375C388.677 198.451 388.884 198.514 389.083 198.564L390.077 198.822C390.402 198.902 390.735 199.01 391.076 199.146C391.418 199.281 391.734 199.46 392.026 199.683C392.317 199.905 392.553 200.18 392.732 200.508C392.914 200.836 393.005 201.229 393.005 201.686C393.005 202.263 392.856 202.775 392.558 203.222C392.263 203.67 391.833 204.023 391.27 204.281C390.71 204.54 390.032 204.669 389.237 204.669C388.474 204.669 387.815 204.548 387.258 204.306C386.701 204.064 386.265 203.721 385.95 203.277C385.636 202.83 385.462 202.299 385.428 201.686H386.97C386.999 202.054 387.119 202.361 387.328 202.606C387.54 202.848 387.81 203.028 388.138 203.148C388.469 203.264 388.832 203.322 389.227 203.322C389.661 203.322 390.047 203.254 390.385 203.118C390.726 202.979 390.995 202.786 391.19 202.541C391.386 202.293 391.484 202.003 391.484 201.671C391.484 201.37 391.398 201.123 391.225 200.93C391.056 200.738 390.826 200.579 390.534 200.453C390.246 200.327 389.919 200.216 389.555 200.12L388.352 199.792C387.536 199.57 386.89 199.243 386.413 198.812C385.939 198.382 385.702 197.812 385.702 197.102C385.702 196.516 385.861 196.004 386.179 195.566C386.497 195.129 386.928 194.789 387.472 194.547C388.015 194.302 388.628 194.179 389.311 194.179C390.001 194.179 390.609 194.3 391.136 194.542C391.666 194.784 392.084 195.117 392.389 195.541C392.694 195.962 392.853 196.446 392.866 196.993H391.384Z" fill="black" fill-opacity="0.8" style="fill:black;fill-opacity:0.8;"/>
<path d="M266.966 17V9.762H268.632V10.798C268.744 10.6113 268.896 10.4317 269.087 10.259C269.283 10.0863 269.523 9.94633 269.808 9.839C270.093 9.73167 270.426 9.678 270.809 9.678C271.257 9.678 271.672 9.76667 272.055 9.944C272.442 10.1213 272.753 10.399 272.986 10.777C273.224 11.155 273.343 11.6427 273.343 12.24V17H271.635V12.443C271.635 11.967 271.504 11.6147 271.243 11.386C270.982 11.1527 270.653 11.036 270.256 11.036C269.985 11.036 269.729 11.0827 269.486 11.176C269.243 11.2647 269.045 11.4023 268.891 11.589C268.742 11.771 268.667 11.9997 268.667 12.275V17H266.966ZM277.221 17.14C276.759 17.14 276.344 17.056 275.975 16.888C275.611 16.7153 275.324 16.4703 275.114 16.153C274.909 15.831 274.806 15.4413 274.806 14.984C274.806 14.186 275.093 13.584 275.667 13.178C276.246 12.772 277.165 12.5597 278.425 12.541L279.51 12.513V12.023C279.51 11.6403 279.396 11.3417 279.167 11.127C278.943 10.9077 278.593 10.8003 278.117 10.805C277.762 10.8097 277.44 10.8937 277.151 11.057C276.862 11.2157 276.67 11.484 276.577 11.862H275.128C275.156 11.3673 275.298 10.9543 275.555 10.623C275.816 10.287 276.173 10.0373 276.626 9.874C277.079 9.706 277.601 9.622 278.194 9.622C278.885 9.622 279.447 9.713 279.881 9.895C280.315 10.077 280.635 10.3407 280.84 10.686C281.045 11.0267 281.148 11.4397 281.148 11.925V17H279.713L279.573 15.698C279.316 16.244 278.987 16.622 278.586 16.832C278.189 17.0373 277.734 17.14 277.221 17.14ZM277.774 15.985C277.984 15.985 278.192 15.9477 278.397 15.873C278.602 15.7937 278.787 15.6887 278.95 15.558C279.118 15.4227 279.251 15.2733 279.349 15.11C279.452 14.9467 279.505 14.7763 279.51 14.599V13.458L278.621 13.472C278.182 13.4767 277.797 13.5233 277.466 13.612C277.139 13.7007 276.885 13.843 276.703 14.039C276.521 14.2303 276.43 14.487 276.43 14.809C276.43 15.1777 276.558 15.467 276.815 15.677C277.072 15.8823 277.391 15.985 277.774 15.985ZM282.962 17V9.762H284.621V10.798C284.831 10.4807 285.116 10.2053 285.475 9.972C285.839 9.73867 286.301 9.622 286.861 9.622C287.118 9.622 287.377 9.66633 287.638 9.755C287.904 9.84367 288.149 9.97433 288.373 10.147C288.602 10.3197 288.784 10.5343 288.919 10.791C289.148 10.4503 289.451 10.1703 289.829 9.951C290.212 9.73167 290.641 9.622 291.117 9.622C291.378 9.622 291.647 9.664 291.922 9.748C292.202 9.832 292.459 9.972 292.692 10.168C292.925 10.364 293.114 10.6323 293.259 10.973C293.404 11.309 293.476 11.7313 293.476 12.24V17H291.775V12.443C291.775 12.0837 291.712 11.8013 291.586 11.596C291.46 11.3907 291.297 11.246 291.096 11.162C290.9 11.0733 290.69 11.029 290.466 11.029C290.265 11.029 290.055 11.0687 289.836 11.148C289.621 11.2273 289.437 11.358 289.283 11.54C289.134 11.722 289.059 11.967 289.059 12.275V17H287.358V12.17C287.358 11.918 287.293 11.708 287.162 11.54C287.031 11.372 286.866 11.246 286.665 11.162C286.469 11.0733 286.268 11.029 286.063 11.029C285.853 11.029 285.638 11.0733 285.419 11.162C285.204 11.2507 285.025 11.386 284.88 11.568C284.735 11.75 284.663 11.9857 284.663 12.275V17H282.962ZM298.507 17.14C297.811 17.14 297.198 16.993 296.666 16.699C296.138 16.4003 295.725 15.9757 295.427 15.425C295.133 14.8743 294.986 14.2187 294.986 13.458C294.986 12.716 295.119 12.058 295.385 11.484C295.655 10.9053 296.045 10.4503 296.554 10.119C297.067 9.78767 297.685 9.622 298.409 9.622C299.123 9.622 299.722 9.77367 300.208 10.077C300.693 10.3803 301.062 10.805 301.314 11.351C301.566 11.8923 301.692 12.527 301.692 13.255V13.773H296.687C296.682 14.1837 296.747 14.5477 296.883 14.865C297.018 15.1823 297.219 15.432 297.485 15.614C297.751 15.7913 298.08 15.88 298.472 15.88C298.873 15.88 299.221 15.7913 299.515 15.614C299.813 15.432 300.012 15.1567 300.11 14.788H301.664C301.58 15.292 301.379 15.719 301.062 16.069C300.749 16.419 300.366 16.685 299.914 16.867C299.466 17.049 298.997 17.14 298.507 17.14ZM296.68 12.716H300.082C300.082 12.366 300.019 12.051 299.893 11.771C299.771 11.4863 299.587 11.2623 299.34 11.099C299.092 10.931 298.78 10.847 298.402 10.847C298.028 10.847 297.713 10.938 297.457 11.12C297.2 11.302 297.006 11.5377 296.876 11.827C296.745 12.1117 296.68 12.408 296.68 12.716ZM303.082 11.932V9.986H305.007V11.932H303.082ZM303.082 16.958V15.026H305.007V16.958H303.082ZM310.369 10.497L309.9 6.878H311.755L311.265 10.497H310.369ZM313.083 17L316.716 6.878H318.564L322.197 17H320.489L319.586 14.459H315.708L314.798 17H313.083ZM316.114 12.947H319.159L317.64 8.53L316.114 12.947ZM323.636 17V9.762H325.302V10.798C325.414 10.6113 325.566 10.4317 325.757 10.259C325.953 10.0863 326.193 9.94633 326.478 9.839C326.763 9.73167 327.096 9.678 327.479 9.678C327.927 9.678 328.342 9.76667 328.725 9.944C329.112 10.1213 329.423 10.399 329.656 10.777C329.894 11.155 330.013 11.6427 330.013 12.24V17H328.305V12.443C328.305 11.967 328.174 11.6147 327.913 11.386C327.652 11.1527 327.323 11.036 326.926 11.036C326.655 11.036 326.399 11.0827 326.156 11.176C325.913 11.2647 325.715 11.4023 325.561 11.589C325.412 11.771 325.337 11.9997 325.337 12.275V17H323.636ZM334.527 17.14C333.57 17.14 332.819 16.811 332.273 16.153C331.727 15.495 331.454 14.5593 331.454 13.346C331.454 12.59 331.564 11.9343 331.783 11.379C332.007 10.819 332.336 10.3873 332.77 10.084C333.204 9.776 333.738 9.622 334.373 9.622C334.672 9.622 334.942 9.65933 335.185 9.734C335.432 9.804 335.652 9.89733 335.843 10.014C336.034 10.1307 336.195 10.259 336.326 10.399C336.461 10.539 336.566 10.679 336.641 10.819V6.598H338.356V17H337.096L336.907 15.516C336.846 15.6887 336.76 15.8707 336.648 16.062C336.541 16.2487 336.394 16.4237 336.207 16.587C336.025 16.7503 335.796 16.8833 335.521 16.986C335.246 17.0887 334.914 17.14 334.527 17.14ZM334.877 15.887C335.488 15.887 335.934 15.6887 336.214 15.292C336.499 14.8907 336.641 14.228 336.641 13.304C336.636 12.7767 336.571 12.3333 336.445 11.974C336.324 11.6147 336.137 11.344 335.885 11.162C335.633 10.98 335.304 10.889 334.898 10.889C334.385 10.889 333.962 11.078 333.631 11.456C333.304 11.834 333.141 12.45 333.141 13.304C333.141 14.1533 333.293 14.7973 333.596 15.236C333.899 15.67 334.326 15.887 334.877 15.887ZM341.22 19.31C340.753 19.31 340.429 19.2727 340.247 19.198C340.065 19.128 339.974 19.093 339.974 19.093V18.001L340.702 18.022C340.996 18.036 341.234 18.0197 341.416 17.973C341.602 17.9263 341.747 17.861 341.85 17.777C341.952 17.6977 342.027 17.6113 342.074 17.518C342.125 17.4293 342.165 17.3523 342.193 17.287L342.382 16.755L339.561 9.762H341.255L343.18 14.879L345.098 9.762H346.764L343.782 17.266C343.558 17.812 343.315 18.232 343.054 18.526C342.797 18.8247 342.515 19.03 342.207 19.142C341.903 19.254 341.574 19.31 341.22 19.31ZM348.404 10.497L347.935 6.878H349.79L349.3 10.497H348.404Z" fill="black" style="fill:black;fill-opacity:1;"/>
<path d="M12.966 17V9.762H14.632V10.798C14.744 10.6113 14.8957 10.4317 15.087 10.259C15.283 10.0863 15.5233 9.94633 15.808 9.839C16.0927 9.73167 16.4263 9.678 16.809 9.678C17.257 9.678 17.6723 9.76667 18.055 9.944C18.4423 10.1213 18.7527 10.399 18.986 10.777C19.224 11.155 19.343 11.6427 19.343 12.24V17H17.635V12.443C17.635 11.967 17.5043 11.6147 17.243 11.386C16.9817 11.1527 16.6527 11.036 16.256 11.036C15.9853 11.036 15.7287 11.0827 15.486 11.176C15.2433 11.2647 15.045 11.4023 14.891 11.589C14.7417 11.771 14.667 11.9997 14.667 12.275V17H12.966ZM23.2211 17.14C22.7591 17.14 22.3438 17.056 21.9751 16.888C21.6111 16.7153 21.3241 16.4703 21.1141 16.153C20.9088 15.831 20.8061 15.4413 20.8061 14.984C20.8061 14.186 21.0931 13.584 21.6671 13.178C22.2458 12.772 23.1651 12.5597 24.4251 12.541L25.5101 12.513V12.023C25.5101 11.6403 25.3958 11.3417 25.1671 11.127C24.9431 10.9077 24.5931 10.8003 24.1171 10.805C23.7624 10.8097 23.4404 10.8937 23.1511 11.057C22.8618 11.2157 22.6704 11.484 22.5771 11.862H21.1281C21.1561 11.3673 21.2984 10.9543 21.5551 10.623C21.8164 10.287 22.1734 10.0373 22.6261 9.874C23.0788 9.706 23.6014 9.622 24.1941 9.622C24.8848 9.622 25.4471 9.713 25.8811 9.895C26.3151 10.077 26.6348 10.3407 26.8401 10.686C27.0454 11.0267 27.1481 11.4397 27.1481 11.925V17H25.7131L25.5731 15.698C25.3164 16.244 24.9874 16.622 24.5861 16.832C24.1894 17.0373 23.7344 17.14 23.2211 17.14ZM23.7741 15.985C23.9841 15.985 24.1918 15.9477 24.3971 15.873C24.6024 15.7937 24.7868 15.6887 24.9501 15.558C25.1181 15.4227 25.2511 15.2733 25.3491 15.11C25.4518 14.9467 25.5054 14.7763 25.5101 14.599V13.458L24.6211 13.472C24.1824 13.4767 23.7974 13.5233 23.4661 13.612C23.1394 13.7007 22.8851 13.843 22.7031 14.039C22.5211 14.2303 22.4301 14.487 22.4301 14.809C22.4301 15.1777 22.5584 15.467 22.8151 15.677C23.0718 15.8823 23.3914 15.985 23.7741 15.985ZM28.9621 17V9.762H30.6211V10.798C30.8311 10.4807 31.1158 10.2053 31.4751 9.972C31.8391 9.73867 32.3011 9.622 32.8611 9.622C33.1178 9.622 33.3768 9.66633 33.6381 9.755C33.9041 9.84367 34.1491 9.97433 34.3731 10.147C34.6018 10.3197 34.7838 10.5343 34.9191 10.791C35.1478 10.4503 35.4511 10.1703 35.8291 9.951C36.2118 9.73167 36.6411 9.622 37.1171 9.622C37.3784 9.622 37.6468 9.664 37.9221 9.748C38.2021 9.832 38.4588 9.972 38.6921 10.168C38.9254 10.364 39.1144 10.6323 39.2591 10.973C39.4038 11.309 39.4761 11.7313 39.4761 12.24V17H37.7751V12.443C37.7751 12.0837 37.7121 11.8013 37.5861 11.596C37.4601 11.3907 37.2968 11.246 37.0961 11.162C36.9001 11.0733 36.6901 11.029 36.4661 11.029C36.2654 11.029 36.0554 11.0687 35.8361 11.148C35.6214 11.2273 35.4371 11.358 35.2831 11.54C35.1338 11.722 35.0591 11.967 35.0591 12.275V17H33.3581V12.17C33.3581 11.918 33.2928 11.708 33.1621 11.54C33.0314 11.372 32.8658 11.246 32.6651 11.162C32.4691 11.0733 32.2684 11.029 32.0631 11.029C31.8531 11.029 31.6384 11.0733 31.4191 11.162C31.2044 11.2507 31.0248 11.386 30.8801 11.568C30.7354 11.75 30.6631 11.9857 30.6631 12.275V17H28.9621ZM44.5068 17.14C43.8115 17.14 43.1978 16.993 42.6658 16.699C42.1385 16.4003 41.7255 15.9757 41.4268 15.425C41.1328 14.8743 40.9858 14.2187 40.9858 13.458C40.9858 12.716 41.1188 12.058 41.3848 11.484C41.6555 10.9053 42.0451 10.4503 42.5538 10.119C43.0671 9.78767 43.6855 9.622 44.4088 9.622C45.1228 9.622 45.7225 9.77367 46.2078 10.077C46.6931 10.3803 47.0618 10.805 47.3138 11.351C47.5658 11.8923 47.6918 12.527 47.6918 13.255V13.773H42.6868C42.6821 14.1837 42.7475 14.5477 42.8828 14.865C43.0181 15.1823 43.2188 15.432 43.4848 15.614C43.7508 15.7913 44.0798 15.88 44.4718 15.88C44.8731 15.88 45.2208 15.7913 45.5148 15.614C45.8135 15.432 46.0118 15.1567 46.1098 14.788H47.6638C47.5798 15.292 47.3791 15.719 47.0618 16.069C46.7491 16.419 46.3665 16.685 45.9138 16.867C45.4658 17.049 44.9968 17.14 44.5068 17.14ZM42.6798 12.716H46.0818C46.0818 12.366 46.0188 12.051 45.8928 11.771C45.7715 11.4863 45.5871 11.2623 45.3398 11.099C45.0925 10.931 44.7798 10.847 44.4018 10.847C44.0285 10.847 43.7135 10.938 43.4568 11.12C43.2001 11.302 43.0065 11.5377 42.8758 11.827C42.7451 12.1117 42.6798 12.408 42.6798 12.716ZM49.0815 11.932V9.986H51.0065V11.932H49.0815ZM49.0815 16.958V15.026H51.0065V16.958H49.0815ZM56.3691 10.497L55.9001 6.878H57.7551L57.2651 10.497H56.3691ZM59.8324 17V6.878H63.3114C64.5948 6.878 65.5538 7.10667 66.1884 7.564C66.8278 8.01667 67.1474 8.67 67.1474 9.524C67.1474 10.042 67.0144 10.49 66.7484 10.868C66.4824 11.246 66.0134 11.5657 65.3414 11.827C65.7521 11.925 66.0904 12.0603 66.3564 12.233C66.6271 12.401 66.8371 12.5947 66.9864 12.814C67.1358 13.0287 67.2408 13.2597 67.3014 13.507C67.3621 13.7543 67.3924 14.0087 67.3924 14.27C67.3924 15.194 67.0704 15.88 66.4264 16.328C65.7871 16.776 64.7954 17 63.4514 17H59.8324ZM61.5334 15.642H63.4724C64.1911 15.642 64.7348 15.5137 65.1034 15.257C65.4768 14.9957 65.6634 14.62 65.6634 14.13C65.6634 13.7753 65.5724 13.4837 65.3904 13.255C65.2084 13.0217 64.9611 12.849 64.6484 12.737C64.3358 12.625 63.9858 12.569 63.5984 12.569H61.5334V15.642ZM61.5334 11.19H63.5984C63.8364 11.19 64.0674 11.1643 64.2914 11.113C64.5154 11.0617 64.7184 10.98 64.9004 10.868C65.0824 10.756 65.2271 10.6067 65.3344 10.42C65.4464 10.2333 65.5024 10.007 65.5024 9.741C65.5024 9.23233 65.3088 8.85433 64.9214 8.607C64.5388 8.355 64.0464 8.229 63.4444 8.229H61.5334V11.19ZM72.3291 17.14C71.6337 17.14 71.0201 16.993 70.4881 16.699C69.9607 16.4003 69.5477 15.9757 69.2491 15.425C68.9551 14.8743 68.8081 14.2187 68.8081 13.458C68.8081 12.716 68.9411 12.058 69.2071 11.484C69.4777 10.9053 69.8674 10.4503 70.3761 10.119C70.8894 9.78767 71.5077 9.622 72.2311 9.622C72.9451 9.622 73.5447 9.77367 74.0301 10.077C74.5154 10.3803 74.8841 10.805 75.1361 11.351C75.3881 11.8923 75.5141 12.527 75.5141 13.255V13.773H70.5091C70.5044 14.1837 70.5697 14.5477 70.7051 14.865C70.8404 15.1823 71.0411 15.432 71.3071 15.614C71.5731 15.7913 71.9021 15.88 72.2941 15.88C72.6954 15.88 73.0431 15.7913 73.3371 15.614C73.6357 15.432 73.8341 15.1567 73.9321 14.788H75.4861C75.4021 15.292 75.2014 15.719 74.8841 16.069C74.5714 16.419 74.1887 16.685 73.7361 16.867C73.2881 17.049 72.8191 17.14 72.3291 17.14ZM70.5021 12.716H73.9041C73.9041 12.366 73.8411 12.051 73.7151 11.771C73.5937 11.4863 73.4094 11.2623 73.1621 11.099C72.9147 10.931 72.6021 10.847 72.2241 10.847C71.8507 10.847 71.5357 10.938 71.2791 11.12C71.0224 11.302 70.8287 11.5377 70.6981 11.827C70.5674 12.1117 70.5021 12.408 70.5021 12.716ZM77.1418 17V9.762H78.7728V11.33C78.8894 10.9707 79.0551 10.665 79.2698 10.413C79.4891 10.1563 79.7458 9.96033 80.0398 9.825C80.3338 9.68967 80.6534 9.622 80.9988 9.622C81.0828 9.622 81.1644 9.62667 81.2438 9.636C81.3231 9.64533 81.3814 9.66167 81.4188 9.685V11.316C81.3674 11.2927 81.2998 11.2763 81.2158 11.267C81.1364 11.2577 81.0664 11.253 81.0058 11.253C80.6558 11.225 80.3454 11.239 80.0748 11.295C79.8088 11.351 79.5824 11.4467 79.3958 11.582C79.2138 11.7127 79.0761 11.8807 78.9828 12.086C78.8894 12.2867 78.8428 12.5223 78.8428 12.793V17H77.1418ZM82.7746 17V9.762H84.4406V10.798C84.5526 10.6113 84.7043 10.4317 84.8956 10.259C85.0916 10.0863 85.3319 9.94633 85.6166 9.839C85.9013 9.73167 86.2349 9.678 86.6176 9.678C87.0656 9.678 87.4809 9.76667 87.8636 9.944C88.2509 10.1213 88.5613 10.399 88.7946 10.777C89.0326 11.155 89.1516 11.6427 89.1516 12.24V17H87.4436V12.443C87.4436 11.967 87.3129 11.6147 87.0516 11.386C86.7903 11.1527 86.4613 11.036 86.0646 11.036C85.7939 11.036 85.5373 11.0827 85.2946 11.176C85.0519 11.2647 84.8536 11.4023 84.6996 11.589C84.5503 11.771 84.4756 11.9997 84.4756 12.275V17H82.7746ZM93.0297 17.14C92.5677 17.14 92.1524 17.056 91.7837 16.888C91.4197 16.7153 91.1327 16.4703 90.9227 16.153C90.7174 15.831 90.6147 15.4413 90.6147 14.984C90.6147 14.186 90.9017 13.584 91.4757 13.178C92.0544 12.772 92.9737 12.5597 94.2337 12.541L95.3187 12.513V12.023C95.3187 11.6403 95.2044 11.3417 94.9757 11.127C94.7517 10.9077 94.4017 10.8003 93.9257 10.805C93.571 10.8097 93.249 10.8937 92.9597 11.057C92.6704 11.2157 92.479 11.484 92.3857 11.862H90.9367C90.9647 11.3673 91.107 10.9543 91.3637 10.623C91.625 10.287 91.982 10.0373 92.4347 9.874C92.8874 9.706 93.41 9.622 94.0027 9.622C94.6934 9.622 95.2557 9.713 95.6897 9.895C96.1237 10.077 96.4434 10.3407 96.6487 10.686C96.854 11.0267 96.9567 11.4397 96.9567 11.925V17H95.5217L95.3817 15.698C95.125 16.244 94.796 16.622 94.3947 16.832C93.998 17.0373 93.543 17.14 93.0297 17.14ZM93.5827 15.985C93.7927 15.985 94.0004 15.9477 94.2057 15.873C94.411 15.7937 94.5954 15.6887 94.7587 15.558C94.9267 15.4227 95.0597 15.2733 95.1577 15.11C95.2604 14.9467 95.314 14.7763 95.3187 14.599V13.458L94.4297 13.472C93.991 13.4767 93.606 13.5233 93.2747 13.612C92.948 13.7007 92.6937 13.843 92.5117 14.039C92.3297 14.2303 92.2387 14.487 92.2387 14.809C92.2387 15.1777 92.367 15.467 92.6237 15.677C92.8804 15.8823 93.2 15.985 93.5827 15.985ZM98.7707 17V9.762H100.402V11.33C100.518 10.9707 100.684 10.665 100.899 10.413C101.118 10.1563 101.375 9.96033 101.669 9.825C101.963 9.68967 102.282 9.622 102.628 9.622C102.712 9.622 102.793 9.62667 102.873 9.636C102.952 9.64533 103.01 9.66167 103.048 9.685V11.316C102.996 11.2927 102.929 11.2763 102.845 11.267C102.765 11.2577 102.695 11.253 102.635 11.253C102.285 11.225 101.974 11.239 101.704 11.295C101.438 11.351 101.211 11.4467 101.025 11.582C100.843 11.7127 100.705 11.8807 100.612 12.086C100.518 12.2867 100.472 12.5223 100.472 12.793V17H98.7707ZM107.037 17.14C106.08 17.14 105.329 16.811 104.783 16.153C104.237 15.495 103.964 14.5593 103.964 13.346C103.964 12.59 104.073 11.9343 104.293 11.379C104.517 10.819 104.846 10.3873 105.28 10.084C105.714 9.776 106.248 9.622 106.883 9.622C107.181 9.622 107.452 9.65933 107.695 9.734C107.942 9.804 108.161 9.89733 108.353 10.014C108.544 10.1307 108.705 10.259 108.836 10.399C108.971 10.539 109.076 10.679 109.151 10.819V6.598H110.866V17H109.606L109.417 15.516C109.356 15.6887 109.27 15.8707 109.158 16.062C109.05 16.2487 108.903 16.4237 108.717 16.587C108.535 16.7503 108.306 16.8833 108.031 16.986C107.755 17.0887 107.424 17.14 107.037 17.14ZM107.387 15.887C107.998 15.887 108.444 15.6887 108.724 15.292C109.008 14.8907 109.151 14.228 109.151 13.304C109.146 12.7767 109.081 12.3333 108.955 11.974C108.833 11.6147 108.647 11.344 108.395 11.162C108.143 10.98 107.814 10.889 107.408 10.889C106.894 10.889 106.472 11.078 106.141 11.456C105.814 11.834 105.651 12.45 105.651 13.304C105.651 14.1533 105.802 14.7973 106.106 15.236C106.409 15.67 106.836 15.887 107.387 15.887ZM113.053 10.497L112.584 6.878H114.439L113.949 10.497H113.053Z" fill="black" style="fill:black;fill-opacity:1;"/>
<path d="M506.966 17V9.762H508.632V10.798C508.744 10.6113 508.896 10.4317 509.087 10.259C509.283 10.0863 509.523 9.94633 509.808 9.839C510.093 9.73167 510.426 9.678 510.809 9.678C511.257 9.678 511.672 9.76667 512.055 9.944C512.442 10.1213 512.753 10.399 512.986 10.777C513.224 11.155 513.343 11.6427 513.343 12.24V17H511.635V12.443C511.635 11.967 511.504 11.6147 511.243 11.386C510.982 11.1527 510.653 11.036 510.256 11.036C509.985 11.036 509.729 11.0827 509.486 11.176C509.243 11.2647 509.045 11.4023 508.891 11.589C508.742 11.771 508.667 11.9997 508.667 12.275V17H506.966ZM517.221 17.14C516.759 17.14 516.344 17.056 515.975 16.888C515.611 16.7153 515.324 16.4703 515.114 16.153C514.909 15.831 514.806 15.4413 514.806 14.984C514.806 14.186 515.093 13.584 515.667 13.178C516.246 12.772 517.165 12.5597 518.425 12.541L519.51 12.513V12.023C519.51 11.6403 519.396 11.3417 519.167 11.127C518.943 10.9077 518.593 10.8003 518.117 10.805C517.762 10.8097 517.44 10.8937 517.151 11.057C516.862 11.2157 516.67 11.484 516.577 11.862H515.128C515.156 11.3673 515.298 10.9543 515.555 10.623C515.816 10.287 516.173 10.0373 516.626 9.874C517.079 9.706 517.601 9.622 518.194 9.622C518.885 9.622 519.447 9.713 519.881 9.895C520.315 10.077 520.635 10.3407 520.84 10.686C521.045 11.0267 521.148 11.4397 521.148 11.925V17H519.713L519.573 15.698C519.316 16.244 518.987 16.622 518.586 16.832C518.189 17.0373 517.734 17.14 517.221 17.14ZM517.774 15.985C517.984 15.985 518.192 15.9477 518.397 15.873C518.602 15.7937 518.787 15.6887 518.95 15.558C519.118 15.4227 519.251 15.2733 519.349 15.11C519.452 14.9467 519.505 14.7763 519.51 14.599V13.458L518.621 13.472C518.182 13.4767 517.797 13.5233 517.466 13.612C517.139 13.7007 516.885 13.843 516.703 14.039C516.521 14.2303 516.43 14.487 516.43 14.809C516.43 15.1777 516.558 15.467 516.815 15.677C517.072 15.8823 517.391 15.985 517.774 15.985ZM522.962 17V9.762H524.621V10.798C524.831 10.4807 525.116 10.2053 525.475 9.972C525.839 9.73867 526.301 9.622 526.861 9.622C527.118 9.622 527.377 9.66633 527.638 9.755C527.904 9.84367 528.149 9.97433 528.373 10.147C528.602 10.3197 528.784 10.5343 528.919 10.791C529.148 10.4503 529.451 10.1703 529.829 9.951C530.212 9.73167 530.641 9.622 531.117 9.622C531.378 9.622 531.647 9.664 531.922 9.748C532.202 9.832 532.459 9.972 532.692 10.168C532.925 10.364 533.114 10.6323 533.259 10.973C533.404 11.309 533.476 11.7313 533.476 12.24V17H531.775V12.443C531.775 12.0837 531.712 11.8013 531.586 11.596C531.46 11.3907 531.297 11.246 531.096 11.162C530.9 11.0733 530.69 11.029 530.466 11.029C530.265 11.029 530.055 11.0687 529.836 11.148C529.621 11.2273 529.437 11.358 529.283 11.54C529.134 11.722 529.059 11.967 529.059 12.275V17H527.358V12.17C527.358 11.918 527.293 11.708 527.162 11.54C527.031 11.372 526.866 11.246 526.665 11.162C526.469 11.0733 526.268 11.029 526.063 11.029C525.853 11.029 525.638 11.0733 525.419 11.162C525.204 11.2507 525.025 11.386 524.88 11.568C524.735 11.75 524.663 11.9857 524.663 12.275V17H522.962ZM538.507 17.14C537.811 17.14 537.198 16.993 536.666 16.699C536.138 16.4003 535.725 15.9757 535.427 15.425C535.133 14.8743 534.986 14.2187 534.986 13.458C534.986 12.716 535.119 12.058 535.385 11.484C535.655 10.9053 536.045 10.4503 536.554 10.119C537.067 9.78767 537.685 9.622 538.409 9.622C539.123 9.622 539.722 9.77367 540.208 10.077C540.693 10.3803 541.062 10.805 541.314 11.351C541.566 11.8923 541.692 12.527 541.692 13.255V13.773H536.687C536.682 14.1837 536.747 14.5477 536.883 14.865C537.018 15.1823 537.219 15.432 537.485 15.614C537.751 15.7913 538.08 15.88 538.472 15.88C538.873 15.88 539.221 15.7913 539.515 15.614C539.813 15.432 540.012 15.1567 540.11 14.788H541.664C541.58 15.292 541.379 15.719 541.062 16.069C540.749 16.419 540.366 16.685 539.914 16.867C539.466 17.049 538.997 17.14 538.507 17.14ZM536.68 12.716H540.082C540.082 12.366 540.019 12.051 539.893 11.771C539.771 11.4863 539.587 11.2623 539.34 11.099C539.092 10.931 538.78 10.847 538.402 10.847C538.028 10.847 537.713 10.938 537.457 11.12C537.2 11.302 537.006 11.5377 536.876 11.827C536.745 12.1117 536.68 12.408 536.68 12.716ZM543.082 11.932V9.986H545.007V11.932H543.082ZM543.082 16.958V15.026H545.007V16.958H543.082ZM550.369 10.497L549.9 6.878H551.755L551.265 10.497H550.369ZM553.832 17V6.878H560.524L560.517 8.341H555.547V11.176H559.936V12.618H555.533V15.516L560.622 15.523V17H553.832ZM562.255 17V9.762H563.886V11.33C564.003 10.9707 564.168 10.665 564.383 10.413C564.602 10.1563 564.859 9.96033 565.153 9.825C565.447 9.68967 565.767 9.622 566.112 9.622C566.196 9.622 566.278 9.62667 566.357 9.636C566.436 9.64533 566.495 9.66167 566.532 9.685V11.316C566.481 11.2927 566.413 11.2763 566.329 11.267C566.25 11.2577 566.18 11.253 566.119 11.253C565.769 11.225 565.459 11.239 565.188 11.295C564.922 11.351 564.696 11.4467 564.509 11.582C564.327 11.7127 564.189 11.8807 564.096 12.086C564.003 12.2867 563.956 12.5223 563.956 12.793V17H562.255ZM567.916 17V9.762H569.547V17H567.916ZM567.888 8.495V6.885H569.575V8.495H567.888ZM571.566 17V6.598H573.26V13.045L576.263 9.762H578.132L575.514 12.59L578.265 17H576.536L574.436 13.647L573.26 14.879V17H571.566ZM581.452 17.14C580.99 17.14 580.574 17.056 580.206 16.888C579.842 16.7153 579.555 16.4703 579.345 16.153C579.139 15.831 579.037 15.4413 579.037 14.984C579.037 14.186 579.324 13.584 579.898 13.178C580.476 12.772 581.396 12.5597 582.656 12.541L583.741 12.513V12.023C583.741 11.6403 583.626 11.3417 583.398 11.127C583.174 10.9077 582.824 10.8003 582.348 10.805C581.993 10.8097 581.671 10.8937 581.382 11.057C581.092 11.2157 580.901 11.484 580.808 11.862H579.359C579.387 11.3673 579.529 10.9543 579.786 10.623C580.047 10.287 580.404 10.0373 580.857 9.874C581.309 9.706 581.832 9.622 582.425 9.622C583.115 9.622 583.678 9.713 584.112 9.895C584.546 10.077 584.865 10.3407 585.071 10.686C585.276 11.0267 585.379 11.4397 585.379 11.925V17H583.944L583.804 15.698C583.547 16.244 583.218 16.622 582.817 16.832C582.42 17.0373 581.965 17.14 581.452 17.14ZM582.005 15.985C582.215 15.985 582.422 15.9477 582.628 15.873C582.833 15.7937 583.017 15.6887 583.181 15.558C583.349 15.4227 583.482 15.2733 583.58 15.11C583.682 14.9467 583.736 14.7763 583.741 14.599V13.458L582.852 13.472C582.413 13.4767 582.028 13.5233 581.697 13.612C581.37 13.7007 581.116 13.843 580.934 14.039C580.752 14.2303 580.661 14.487 580.661 14.809C580.661 15.1777 580.789 15.467 581.046 15.677C581.302 15.8823 581.622 15.985 582.005 15.985ZM586.805 10.497L586.336 6.878H588.191L587.701 10.497H586.805Z" fill="black" style="fill:black;fill-opacity:1;"/>
<path d="M383.966 391V383.762H385.632V384.798C385.744 384.611 385.896 384.432 386.087 384.259C386.283 384.086 386.523 383.946 386.808 383.839C387.093 383.732 387.426 383.678 387.809 383.678C388.257 383.678 388.672 383.767 389.055 383.944C389.442 384.121 389.753 384.399 389.986 384.777C390.224 385.155 390.343 385.643 390.343 386.24V391H388.635V386.443C388.635 385.967 388.504 385.615 388.243 385.386C387.982 385.153 387.653 385.036 387.256 385.036C386.985 385.036 386.729 385.083 386.486 385.176C386.243 385.265 386.045 385.402 385.891 385.589C385.742 385.771 385.667 386 385.667 386.275V391H383.966ZM394.221 391.14C393.759 391.14 393.344 391.056 392.975 390.888C392.611 390.715 392.324 390.47 392.114 390.153C391.909 389.831 391.806 389.441 391.806 388.984C391.806 388.186 392.093 387.584 392.667 387.178C393.246 386.772 394.165 386.56 395.425 386.541L396.51 386.513V386.023C396.51 385.64 396.396 385.342 396.167 385.127C395.943 384.908 395.593 384.8 395.117 384.805C394.762 384.81 394.44 384.894 394.151 385.057C393.862 385.216 393.67 385.484 393.577 385.862H392.128C392.156 385.367 392.298 384.954 392.555 384.623C392.816 384.287 393.173 384.037 393.626 383.874C394.079 383.706 394.601 383.622 395.194 383.622C395.885 383.622 396.447 383.713 396.881 383.895C397.315 384.077 397.635 384.341 397.84 384.686C398.045 385.027 398.148 385.44 398.148 385.925V391H396.713L396.573 389.698C396.316 390.244 395.987 390.622 395.586 390.832C395.189 391.037 394.734 391.14 394.221 391.14ZM394.774 389.985C394.984 389.985 395.192 389.948 395.397 389.873C395.602 389.794 395.787 389.689 395.95 389.558C396.118 389.423 396.251 389.273 396.349 389.11C396.452 388.947 396.505 388.776 396.51 388.599V387.458L395.621 387.472C395.182 387.477 394.797 387.523 394.466 387.612C394.139 387.701 393.885 387.843 393.703 388.039C393.521 388.23 393.43 388.487 393.43 388.809C393.43 389.178 393.558 389.467 393.815 389.677C394.072 389.882 394.391 389.985 394.774 389.985ZM399.962 391V383.762H401.621V384.798C401.831 384.481 402.116 384.205 402.475 383.972C402.839 383.739 403.301 383.622 403.861 383.622C404.118 383.622 404.377 383.666 404.638 383.755C404.904 383.844 405.149 383.974 405.373 384.147C405.602 384.32 405.784 384.534 405.919 384.791C406.148 384.45 406.451 384.17 406.829 383.951C407.212 383.732 407.641 383.622 408.117 383.622C408.378 383.622 408.647 383.664 408.922 383.748C409.202 383.832 409.459 383.972 409.692 384.168C409.925 384.364 410.114 384.632 410.259 384.973C410.404 385.309 410.476 385.731 410.476 386.24V391H408.775V386.443C408.775 386.084 408.712 385.801 408.586 385.596C408.46 385.391 408.297 385.246 408.096 385.162C407.9 385.073 407.69 385.029 407.466 385.029C407.265 385.029 407.055 385.069 406.836 385.148C406.621 385.227 406.437 385.358 406.283 385.54C406.134 385.722 406.059 385.967 406.059 386.275V391H404.358V386.17C404.358 385.918 404.293 385.708 404.162 385.54C404.031 385.372 403.866 385.246 403.665 385.162C403.469 385.073 403.268 385.029 403.063 385.029C402.853 385.029 402.638 385.073 402.419 385.162C402.204 385.251 402.025 385.386 401.88 385.568C401.735 385.75 401.663 385.986 401.663 386.275V391H399.962ZM415.507 391.14C414.811 391.14 414.198 390.993 413.666 390.699C413.138 390.4 412.725 389.976 412.427 389.425C412.133 388.874 411.986 388.219 411.986 387.458C411.986 386.716 412.119 386.058 412.385 385.484C412.655 384.905 413.045 384.45 413.554 384.119C414.067 383.788 414.685 383.622 415.409 383.622C416.123 383.622 416.722 383.774 417.208 384.077C417.693 384.38 418.062 384.805 418.314 385.351C418.566 385.892 418.692 386.527 418.692 387.255V387.773H413.687C413.682 388.184 413.747 388.548 413.883 388.865C414.018 389.182 414.219 389.432 414.485 389.614C414.751 389.791 415.08 389.88 415.472 389.88C415.873 389.88 416.221 389.791 416.515 389.614C416.813 389.432 417.012 389.157 417.11 388.788H418.664C418.58 389.292 418.379 389.719 418.062 390.069C417.749 390.419 417.366 390.685 416.914 390.867C416.466 391.049 415.997 391.14 415.507 391.14ZM413.68 386.716H417.082C417.082 386.366 417.019 386.051 416.893 385.771C416.771 385.486 416.587 385.262 416.34 385.099C416.092 384.931 415.78 384.847 415.402 384.847C415.028 384.847 414.713 384.938 414.457 385.12C414.2 385.302 414.006 385.538 413.876 385.827C413.745 386.112 413.68 386.408 413.68 386.716ZM420.082 385.932V383.986H422.007V385.932H420.082ZM420.082 390.958V389.026H422.007V390.958H420.082ZM427.369 384.497L426.9 380.878H428.755L428.265 384.497H427.369ZM430.832 391V380.878C430.874 380.878 430.998 380.878 431.203 380.878C431.409 380.878 431.651 380.878 431.931 380.878C432.216 380.878 432.503 380.88 432.792 380.885C433.086 380.885 433.341 380.887 433.555 380.892C434.787 380.915 435.788 381.128 436.558 381.529C437.333 381.926 437.9 382.493 438.259 383.23C438.623 383.963 438.805 384.847 438.805 385.883C438.805 386.966 438.612 387.887 438.224 388.648C437.842 389.409 437.254 389.992 436.46 390.398C435.672 390.799 434.668 391 433.45 391H430.832ZM432.561 389.593H433.478C434.174 389.593 434.787 389.474 435.319 389.236C435.851 388.993 436.267 388.601 436.565 388.06C436.869 387.519 437.02 386.795 437.02 385.89C437.02 385.013 436.88 384.31 436.6 383.783C436.32 383.256 435.919 382.875 435.396 382.642C434.874 382.404 434.248 382.285 433.52 382.285H432.561V389.593ZM442.579 391.14C442.117 391.14 441.701 391.056 441.333 390.888C440.969 390.715 440.682 390.47 440.472 390.153C440.266 389.831 440.164 389.441 440.164 388.984C440.164 388.186 440.451 387.584 441.025 387.178C441.603 386.772 442.523 386.56 443.783 386.541L444.868 386.513V386.023C444.868 385.64 444.753 385.342 444.525 385.127C444.301 384.908 443.951 384.8 443.475 384.805C443.12 384.81 442.798 384.894 442.509 385.057C442.219 385.216 442.028 385.484 441.935 385.862H440.486C440.514 385.367 440.656 384.954 440.913 384.623C441.174 384.287 441.531 384.037 441.984 383.874C442.436 383.706 442.959 383.622 443.552 383.622C444.242 383.622 444.805 383.713 445.239 383.895C445.673 384.077 445.992 384.341 446.198 384.686C446.403 385.027 446.506 385.44 446.506 385.925V391H445.071L444.931 389.698C444.674 390.244 444.345 390.622 443.944 390.832C443.547 391.037 443.092 391.14 442.579 391.14ZM443.132 389.985C443.342 389.985 443.549 389.948 443.755 389.873C443.96 389.794 444.144 389.689 444.308 389.558C444.476 389.423 444.609 389.273 444.707 389.11C444.809 388.947 444.863 388.776 444.868 388.599V387.458L443.979 387.472C443.54 387.477 443.155 387.523 442.824 387.612C442.497 387.701 442.243 387.843 442.061 388.039C441.879 388.23 441.788 388.487 441.788 388.809C441.788 389.178 441.916 389.467 442.173 389.677C442.429 389.882 442.749 389.985 443.132 389.985ZM450.033 391L447.359 383.762H448.92L450.656 388.83H450.747L452.476 383.762H454.044L451.377 391H450.033ZM455.279 391V383.762H456.91V391H455.279ZM455.251 382.495V380.885H456.938V382.495H455.251ZM461.549 391.14C460.592 391.14 459.841 390.811 459.295 390.153C458.749 389.495 458.476 388.559 458.476 387.346C458.476 386.59 458.585 385.934 458.805 385.379C459.029 384.819 459.358 384.387 459.792 384.084C460.226 383.776 460.76 383.622 461.395 383.622C461.693 383.622 461.964 383.659 462.207 383.734C462.454 383.804 462.673 383.897 462.865 384.014C463.056 384.131 463.217 384.259 463.348 384.399C463.483 384.539 463.588 384.679 463.663 384.819V380.598H465.378V391H464.118L463.929 389.516C463.868 389.689 463.782 389.871 463.67 390.062C463.562 390.249 463.415 390.424 463.229 390.587C463.047 390.75 462.818 390.883 462.543 390.986C462.267 391.089 461.936 391.14 461.549 391.14ZM461.899 389.887C462.51 389.887 462.956 389.689 463.236 389.292C463.52 388.891 463.663 388.228 463.663 387.304C463.658 386.777 463.593 386.333 463.467 385.974C463.345 385.615 463.159 385.344 462.907 385.162C462.655 384.98 462.326 384.889 461.92 384.889C461.406 384.889 460.984 385.078 460.653 385.456C460.326 385.834 460.163 386.45 460.163 387.304C460.163 388.153 460.314 388.797 460.618 389.236C460.921 389.67 461.348 389.887 461.899 389.887ZM467.03 384.525L467.821 382.698L467.163 382.649V380.878H469.025V382.432L467.716 384.525H467.03Z" fill="black" style="fill:black;fill-opacity:1;"/>
<path d="M126.966 391V383.762H128.632V384.798C128.744 384.611 128.896 384.432 129.087 384.259C129.283 384.086 129.523 383.946 129.808 383.839C130.093 383.732 130.426 383.678 130.809 383.678C131.257 383.678 131.672 383.767 132.055 383.944C132.442 384.121 132.753 384.399 132.986 384.777C133.224 385.155 133.343 385.643 133.343 386.24V391H131.635V386.443C131.635 385.967 131.504 385.615 131.243 385.386C130.982 385.153 130.653 385.036 130.256 385.036C129.985 385.036 129.729 385.083 129.486 385.176C129.243 385.265 129.045 385.402 128.891 385.589C128.742 385.771 128.667 386 128.667 386.275V391H126.966ZM137.221 391.14C136.759 391.14 136.344 391.056 135.975 390.888C135.611 390.715 135.324 390.47 135.114 390.153C134.909 389.831 134.806 389.441 134.806 388.984C134.806 388.186 135.093 387.584 135.667 387.178C136.246 386.772 137.165 386.56 138.425 386.541L139.51 386.513V386.023C139.51 385.64 139.396 385.342 139.167 385.127C138.943 384.908 138.593 384.8 138.117 384.805C137.762 384.81 137.44 384.894 137.151 385.057C136.862 385.216 136.67 385.484 136.577 385.862H135.128C135.156 385.367 135.298 384.954 135.555 384.623C135.816 384.287 136.173 384.037 136.626 383.874C137.079 383.706 137.601 383.622 138.194 383.622C138.885 383.622 139.447 383.713 139.881 383.895C140.315 384.077 140.635 384.341 140.84 384.686C141.045 385.027 141.148 385.44 141.148 385.925V391H139.713L139.573 389.698C139.316 390.244 138.987 390.622 138.586 390.832C138.189 391.037 137.734 391.14 137.221 391.14ZM137.774 389.985C137.984 389.985 138.192 389.948 138.397 389.873C138.602 389.794 138.787 389.689 138.95 389.558C139.118 389.423 139.251 389.273 139.349 389.11C139.452 388.947 139.505 388.776 139.51 388.599V387.458L138.621 387.472C138.182 387.477 137.797 387.523 137.466 387.612C137.139 387.701 136.885 387.843 136.703 388.039C136.521 388.23 136.43 388.487 136.43 388.809C136.43 389.178 136.558 389.467 136.815 389.677C137.072 389.882 137.391 389.985 137.774 389.985ZM142.962 391V383.762H144.621V384.798C144.831 384.481 145.116 384.205 145.475 383.972C145.839 383.739 146.301 383.622 146.861 383.622C147.118 383.622 147.377 383.666 147.638 383.755C147.904 383.844 148.149 383.974 148.373 384.147C148.602 384.32 148.784 384.534 148.919 384.791C149.148 384.45 149.451 384.17 149.829 383.951C150.212 383.732 150.641 383.622 151.117 383.622C151.378 383.622 151.647 383.664 151.922 383.748C152.202 383.832 152.459 383.972 152.692 384.168C152.925 384.364 153.114 384.632 153.259 384.973C153.404 385.309 153.476 385.731 153.476 386.24V391H151.775V386.443C151.775 386.084 151.712 385.801 151.586 385.596C151.46 385.391 151.297 385.246 151.096 385.162C150.9 385.073 150.69 385.029 150.466 385.029C150.265 385.029 150.055 385.069 149.836 385.148C149.621 385.227 149.437 385.358 149.283 385.54C149.134 385.722 149.059 385.967 149.059 386.275V391H147.358V386.17C147.358 385.918 147.293 385.708 147.162 385.54C147.031 385.372 146.866 385.246 146.665 385.162C146.469 385.073 146.268 385.029 146.063 385.029C145.853 385.029 145.638 385.073 145.419 385.162C145.204 385.251 145.025 385.386 144.88 385.568C144.735 385.75 144.663 385.986 144.663 386.275V391H142.962ZM158.507 391.14C157.811 391.14 157.198 390.993 156.666 390.699C156.138 390.4 155.725 389.976 155.427 389.425C155.133 388.874 154.986 388.219 154.986 387.458C154.986 386.716 155.119 386.058 155.385 385.484C155.655 384.905 156.045 384.45 156.554 384.119C157.067 383.788 157.685 383.622 158.409 383.622C159.123 383.622 159.722 383.774 160.208 384.077C160.693 384.38 161.062 384.805 161.314 385.351C161.566 385.892 161.692 386.527 161.692 387.255V387.773H156.687C156.682 388.184 156.747 388.548 156.883 388.865C157.018 389.182 157.219 389.432 157.485 389.614C157.751 389.791 158.08 389.88 158.472 389.88C158.873 389.88 159.221 389.791 159.515 389.614C159.813 389.432 160.012 389.157 160.11 388.788H161.664C161.58 389.292 161.379 389.719 161.062 390.069C160.749 390.419 160.366 390.685 159.914 390.867C159.466 391.049 158.997 391.14 158.507 391.14ZM156.68 386.716H160.082C160.082 386.366 160.019 386.051 159.893 385.771C159.771 385.486 159.587 385.262 159.34 385.099C159.092 384.931 158.78 384.847 158.402 384.847C158.028 384.847 157.713 384.938 157.457 385.12C157.2 385.302 157.006 385.538 156.876 385.827C156.745 386.112 156.68 386.408 156.68 386.716ZM163.082 385.932V383.986H165.007V385.932H163.082ZM163.082 390.958V389.026H165.007V390.958H163.082ZM170.369 384.497L169.9 380.878H171.755L171.265 384.497H170.369ZM177.773 391.14C176.845 391.14 176.047 390.928 175.379 390.503C174.717 390.074 174.206 389.467 173.846 388.683C173.492 387.894 173.314 386.959 173.314 385.876C173.314 384.798 173.492 383.876 173.846 383.111C174.201 382.346 174.71 381.76 175.372 381.354C176.04 380.943 176.84 380.738 177.773 380.738C178.515 380.738 179.173 380.89 179.747 381.193C180.321 381.492 180.783 381.898 181.133 382.411C181.488 382.924 181.698 383.496 181.763 384.126H179.964C179.894 383.753 179.764 383.419 179.572 383.125C179.386 382.831 179.138 382.598 178.83 382.425C178.522 382.252 178.154 382.166 177.724 382.166C177.188 382.166 176.73 382.294 176.352 382.551C175.979 382.803 175.692 383.204 175.491 383.755C175.295 384.306 175.197 385.02 175.197 385.897C175.197 387.227 175.417 388.195 175.855 388.802C176.294 389.409 176.917 389.712 177.724 389.712C178.154 389.712 178.522 389.619 178.83 389.432C179.138 389.241 179.386 388.989 179.572 388.676C179.764 388.359 179.894 388.013 179.964 387.64H181.763C181.707 388.097 181.591 388.536 181.413 388.956C181.241 389.376 180.996 389.752 180.678 390.083C180.361 390.41 179.962 390.669 179.481 390.86C179.005 391.047 178.436 391.14 177.773 391.14ZM183.431 391V380.598H185.111V384.812C185.228 384.63 185.382 384.455 185.573 384.287C185.764 384.114 185.998 383.974 186.273 383.867C186.553 383.755 186.887 383.699 187.274 383.699C187.736 383.699 188.158 383.788 188.541 383.965C188.924 384.142 189.229 384.399 189.458 384.735C189.687 385.066 189.801 385.463 189.801 385.925V391H188.093V386.212C188.093 385.839 187.96 385.549 187.694 385.344C187.433 385.139 187.101 385.036 186.7 385.036C186.434 385.036 186.18 385.083 185.937 385.176C185.694 385.269 185.498 385.409 185.349 385.596C185.204 385.778 185.132 386.007 185.132 386.282V391H183.431ZM193.672 391.14C193.21 391.14 192.795 391.056 192.426 390.888C192.062 390.715 191.775 390.47 191.565 390.153C191.36 389.831 191.257 389.441 191.257 388.984C191.257 388.186 191.544 387.584 192.118 387.178C192.697 386.772 193.616 386.56 194.876 386.541L195.961 386.513V386.023C195.961 385.64 195.847 385.342 195.618 385.127C195.394 384.908 195.044 384.8 194.568 384.805C194.214 384.81 193.892 384.894 193.602 385.057C193.313 385.216 193.122 385.484 193.028 385.862H191.579C191.607 385.367 191.75 384.954 192.006 384.623C192.268 384.287 192.625 384.037 193.077 383.874C193.53 383.706 194.053 383.622 194.645 383.622C195.336 383.622 195.898 383.713 196.332 383.895C196.766 384.077 197.086 384.341 197.291 384.686C197.497 385.027 197.599 385.44 197.599 385.925V391H196.164L196.024 389.698C195.768 390.244 195.439 390.622 195.037 390.832C194.641 391.037 194.186 391.14 193.672 391.14ZM194.225 389.985C194.435 389.985 194.643 389.948 194.848 389.873C195.054 389.794 195.238 389.689 195.401 389.558C195.569 389.423 195.702 389.273 195.8 389.11C195.903 388.947 195.957 388.776 195.961 388.599V387.458L195.072 387.472C194.634 387.477 194.249 387.523 193.917 387.612C193.591 387.701 193.336 387.843 193.154 388.039C192.972 388.23 192.881 388.487 192.881 388.809C192.881 389.178 193.01 389.467 193.266 389.677C193.523 389.882 193.843 389.985 194.225 389.985ZM199.413 391V383.762H201.044V385.33C201.161 384.971 201.327 384.665 201.541 384.413C201.761 384.156 202.017 383.96 202.311 383.825C202.605 383.69 202.925 383.622 203.27 383.622C203.354 383.622 203.436 383.627 203.515 383.636C203.595 383.645 203.653 383.662 203.69 383.685V385.316C203.639 385.293 203.571 385.276 203.487 385.267C203.408 385.258 203.338 385.253 203.277 385.253C202.927 385.225 202.617 385.239 202.346 385.295C202.08 385.351 201.854 385.447 201.667 385.582C201.485 385.713 201.348 385.881 201.254 386.086C201.161 386.287 201.114 386.522 201.114 386.793V391H199.413ZM207.132 391.105C206.665 391.105 206.292 391.047 206.012 390.93C205.732 390.813 205.522 390.657 205.382 390.461C205.242 390.265 205.151 390.046 205.109 389.803C205.067 389.556 205.046 389.304 205.046 389.047V380.598H206.712V388.851C206.712 389.164 206.775 389.406 206.901 389.579C207.032 389.752 207.242 389.852 207.531 389.88L207.895 389.894V390.965C207.769 391.002 207.641 391.035 207.51 391.063C207.379 391.091 207.253 391.105 207.132 391.105ZM212.145 391.14C211.454 391.14 210.852 390.993 210.339 390.699C209.825 390.4 209.426 389.973 209.142 389.418C208.862 388.863 208.722 388.195 208.722 387.416C208.722 386.66 208.859 385.997 209.135 385.428C209.41 384.859 209.802 384.415 210.311 384.098C210.824 383.781 211.438 383.622 212.152 383.622C212.842 383.622 213.442 383.774 213.951 384.077C214.459 384.38 214.851 384.814 215.127 385.379C215.407 385.944 215.547 386.623 215.547 387.416C215.547 388.149 215.414 388.795 215.148 389.355C214.886 389.91 214.501 390.347 213.993 390.664C213.489 390.981 212.873 391.14 212.145 391.14ZM212.152 389.845C212.544 389.845 212.866 389.738 213.118 389.523C213.374 389.308 213.566 389.014 213.692 388.641C213.818 388.268 213.881 387.843 213.881 387.367C213.881 386.924 213.825 386.515 213.713 386.142C213.601 385.769 213.416 385.47 213.16 385.246C212.908 385.017 212.572 384.903 212.152 384.903C211.755 384.903 211.426 385.008 211.165 385.218C210.908 385.423 210.717 385.713 210.591 386.086C210.465 386.455 210.402 386.882 210.402 387.367C210.402 387.806 210.458 388.214 210.57 388.592C210.682 388.965 210.866 389.269 211.123 389.502C211.379 389.731 211.722 389.845 212.152 389.845ZM219.736 391.056C219.162 391.056 218.717 390.981 218.399 390.832C218.087 390.678 217.87 390.461 217.748 390.181C217.627 389.901 217.566 389.567 217.566 389.18V384.966H216.39V383.762H217.615L218.042 381.613H219.267V383.755H220.884V384.966H219.267L219.274 389.117C219.274 389.332 219.298 389.49 219.344 389.593C219.396 389.691 219.475 389.756 219.582 389.789C219.694 389.817 219.841 389.831 220.023 389.831H220.919V390.909C220.821 390.946 220.677 390.979 220.485 391.007C220.299 391.04 220.049 391.056 219.736 391.056ZM224.809 391.056C224.235 391.056 223.789 390.981 223.472 390.832C223.159 390.678 222.942 390.461 222.821 390.181C222.699 389.901 222.639 389.567 222.639 389.18V384.966H221.463V383.762H222.688L223.115 381.613H224.34V383.755H225.957V384.966H224.34L224.347 389.117C224.347 389.332 224.37 389.49 224.417 389.593C224.468 389.691 224.547 389.756 224.655 389.789C224.767 389.817 224.914 389.831 225.096 389.831H225.992V390.909C225.894 390.946 225.749 390.979 225.558 391.007C225.371 391.04 225.121 391.056 224.809 391.056ZM230.558 391.14C229.862 391.14 229.249 390.993 228.717 390.699C228.189 390.4 227.776 389.976 227.478 389.425C227.184 388.874 227.037 388.219 227.037 387.458C227.037 386.716 227.17 386.058 227.436 385.484C227.706 384.905 228.096 384.45 228.605 384.119C229.118 383.788 229.736 383.622 230.46 383.622C231.174 383.622 231.773 383.774 232.259 384.077C232.744 384.38 233.113 384.805 233.365 385.351C233.617 385.892 233.743 386.527 233.743 387.255V387.773H228.738C228.733 388.184 228.798 388.548 228.934 388.865C229.069 389.182 229.27 389.432 229.536 389.614C229.802 389.791 230.131 389.88 230.523 389.88C230.924 389.88 231.272 389.791 231.566 389.614C231.864 389.432 232.063 389.157 232.161 388.788H233.715C233.631 389.292 233.43 389.719 233.113 390.069C232.8 390.419 232.417 390.685 231.965 390.867C231.517 391.049 231.048 391.14 230.558 391.14ZM228.731 386.716H232.133C232.133 386.366 232.07 386.051 231.944 385.771C231.822 385.486 231.638 385.262 231.391 385.099C231.143 384.931 230.831 384.847 230.453 384.847C230.079 384.847 229.764 384.938 229.508 385.12C229.251 385.302 229.057 385.538 228.927 385.827C228.796 386.112 228.731 386.408 228.731 386.716ZM234.846 384.497L234.377 380.878H236.232L235.742 384.497H234.846Z" fill="black" style="fill:black;fill-opacity:1;"/>
</g>
<defs>
<clipPath id="clip0_3_80">
<rect width="612" height="397" fill="white" style="fill:white;fill-opacity:1;"/>
</clipPath>
</defs>
</svg>
