<svg width="653" height="212" viewBox="0 0 653 212" fill="none" xmlns="http://www.w3.org/2000/svg">
<path d="M3.052 157.105C2.58533 157.105 2.212 157.047 1.932 156.93C1.652 156.813 1.442 156.657 1.302 156.461C1.162 156.265 1.071 156.046 1.029 155.803C0.987 155.556 0.966 155.304 0.966 155.047V146.598H2.632V154.851C2.632 155.164 2.695 155.406 2.821 155.579C2.95167 155.752 3.16167 155.852 3.451 155.88L3.815 155.894V156.965C3.689 157.002 3.56067 157.035 3.43 157.063C3.29933 157.091 3.17333 157.105 3.052 157.105ZM7.434 157.14C6.972 157.14 6.55667 157.056 6.188 156.888C5.824 156.715 5.537 156.47 5.327 156.153C5.12167 155.831 5.019 155.441 5.019 154.984C5.019 154.186 5.306 153.584 5.88 153.178C6.45867 152.772 7.378 152.56 8.638 152.541L9.723 152.513V152.023C9.723 151.64 9.60867 151.342 9.38 151.127C9.156 150.908 8.806 150.8 8.33 150.805C7.97533 150.81 7.65333 150.894 7.364 151.057C7.07467 151.216 6.88333 151.484 6.79 151.862H5.341C5.369 151.367 5.51133 150.954 5.768 150.623C6.02933 150.287 6.38633 150.037 6.839 149.874C7.29167 149.706 7.81433 149.622 8.407 149.622C9.09767 149.622 9.66 149.713 10.094 149.895C10.528 150.077 10.8477 150.341 11.053 150.686C11.2583 151.027 11.361 151.44 11.361 151.925V157H9.926L9.786 155.698C9.52933 156.244 9.20033 156.622 8.799 156.832C8.40233 157.037 7.94733 157.14 7.434 157.14ZM7.987 155.985C8.197 155.985 8.40467 155.948 8.61 155.873C8.81533 155.794 8.99967 155.689 9.163 155.558C9.331 155.423 9.464 155.273 9.562 155.11C9.66467 154.947 9.71833 154.776 9.723 154.599V153.458L8.834 153.472C8.39533 153.477 8.01033 153.523 7.679 153.612C7.35233 153.701 7.098 153.843 6.916 154.039C6.734 154.23 6.643 154.487 6.643 154.809C6.643 155.178 6.77133 155.467 7.028 155.677C7.28467 155.882 7.60433 155.985 7.987 155.985ZM15.7929 157.056C15.2189 157.056 14.7732 156.981 14.4559 156.832C14.1432 156.678 13.9262 156.461 13.8049 156.181C13.6835 155.901 13.6229 155.567 13.6229 155.18V150.966H12.4469V149.762H13.6719L14.0989 147.613H15.3239V149.755H16.9409V150.966H15.3239L15.3309 155.117C15.3309 155.332 15.3542 155.49 15.4009 155.593C15.4522 155.691 15.5315 155.756 15.6389 155.789C15.7509 155.817 15.8979 155.831 16.0799 155.831H16.9759V156.909C16.8779 156.946 16.7332 156.979 16.5419 157.007C16.3552 157.04 16.1055 157.056 15.7929 157.056ZM18.576 157V149.762H20.207V157H18.576ZM18.548 148.495V146.885H20.235V148.495H18.548ZM25.0624 157.056C24.4884 157.056 24.0427 156.981 23.7254 156.832C23.4127 156.678 23.1957 156.461 23.0744 156.181C22.9531 155.901 22.8924 155.567 22.8924 155.18V150.966H21.7164V149.762H22.9414L23.3684 147.613H24.5934V149.755H26.2104V150.966H24.5934L24.6004 155.117C24.6004 155.332 24.6237 155.49 24.6704 155.593C24.7217 155.691 24.8011 155.756 24.9084 155.789C25.0204 155.817 25.1674 155.831 25.3494 155.831H26.2454V156.909C26.1474 156.946 26.0027 156.979 25.8114 157.007C25.6247 157.04 25.3751 157.056 25.0624 157.056ZM30.4092 157.14C30.0545 157.14 29.7115 157.089 29.3802 156.986C29.0535 156.879 28.7595 156.725 28.4982 156.524C28.2369 156.319 28.0292 156.067 27.8752 155.768C27.7212 155.469 27.6442 155.122 27.6442 154.725V149.762H29.3522V154.529C29.3522 154.921 29.4759 155.243 29.7232 155.495C29.9752 155.747 30.3532 155.873 30.8572 155.873C31.3145 155.873 31.6809 155.754 31.9562 155.516C32.2315 155.273 32.3692 154.926 32.3692 154.473V149.762H34.0632V157H32.7542L32.5652 155.586C32.4765 155.983 32.3202 156.295 32.0962 156.524C31.8769 156.748 31.6179 156.907 31.3192 157C31.0252 157.093 30.7219 157.14 30.4092 157.14ZM38.6813 157.14C37.7247 157.14 36.9733 156.811 36.4273 156.153C35.8813 155.495 35.6083 154.559 35.6083 153.346C35.6083 152.59 35.718 151.934 35.9373 151.379C36.1613 150.819 36.4903 150.387 36.9243 150.084C37.3583 149.776 37.8927 149.622 38.5273 149.622C38.826 149.622 39.0967 149.659 39.3393 149.734C39.5867 149.804 39.806 149.897 39.9973 150.014C40.1887 150.131 40.3497 150.259 40.4803 150.399C40.6157 150.539 40.7207 150.679 40.7953 150.819V146.598H42.5103V157H41.2503L41.0613 155.516C41.0007 155.689 40.9143 155.871 40.8023 156.062C40.695 156.249 40.548 156.424 40.3613 156.587C40.1793 156.75 39.9507 156.883 39.6753 156.986C39.4 157.089 39.0687 157.14 38.6813 157.14ZM39.0313 155.887C39.6427 155.887 40.0883 155.689 40.3683 155.292C40.653 154.891 40.7953 154.228 40.7953 153.304C40.7907 152.777 40.7253 152.333 40.5993 151.974C40.478 151.615 40.2913 151.344 40.0393 151.162C39.7873 150.98 39.4583 150.889 39.0523 150.889C38.539 150.889 38.1167 151.078 37.7853 151.456C37.4587 151.834 37.2953 152.45 37.2953 153.304C37.2953 154.153 37.447 154.797 37.7503 155.236C38.0537 155.67 38.4807 155.887 39.0313 155.887ZM47.6279 157.14C46.9326 157.14 46.3189 156.993 45.7869 156.699C45.2596 156.4 44.8466 155.976 44.5479 155.425C44.2539 154.874 44.1069 154.219 44.1069 153.458C44.1069 152.716 44.2399 152.058 44.5059 151.484C44.7766 150.905 45.1662 150.45 45.6749 150.119C46.1882 149.788 46.8066 149.622 47.5299 149.622C48.2439 149.622 48.8436 149.774 49.3289 150.077C49.8142 150.38 50.1829 150.805 50.4349 151.351C50.6869 151.892 50.8129 152.527 50.8129 153.255V153.773H45.8079C45.8032 154.184 45.8686 154.548 46.0039 154.865C46.1392 155.182 46.3399 155.432 46.6059 155.614C46.8719 155.791 47.2009 155.88 47.5929 155.88C47.9942 155.88 48.3419 155.791 48.6359 155.614C48.9346 155.432 49.1329 155.157 49.2309 154.788H50.7849C50.7009 155.292 50.5002 155.719 50.1829 156.069C49.8702 156.419 49.4876 156.685 49.0349 156.867C48.5869 157.049 48.1179 157.14 47.6279 157.14ZM45.8009 152.716H49.2029C49.2029 152.366 49.1399 152.051 49.0139 151.771C48.8926 151.486 48.7082 151.262 48.4609 151.099C48.2136 150.931 47.9009 150.847 47.5229 150.847C47.1496 150.847 46.8346 150.938 46.5779 151.12C46.3212 151.302 46.1276 151.538 45.9969 151.827C45.8662 152.112 45.8009 152.408 45.8009 152.716ZM52.2026 151.932V149.986H54.1276V151.932H52.2026ZM52.2026 156.958V155.026H54.1276V156.958H52.2026ZM62.9202 157.154C62.2762 157.154 61.6765 157.049 61.1212 156.839C60.5705 156.624 60.0945 156.33 59.6932 155.957C59.2965 155.584 59.0002 155.157 58.8042 154.676L60.1832 153.948C60.3558 154.293 60.5612 154.604 60.7992 154.879C61.0418 155.154 61.3242 155.371 61.6462 155.53C61.9728 155.684 62.3462 155.761 62.7662 155.761C63.4242 155.761 63.9515 155.579 64.3482 155.215C64.7495 154.846 64.9502 154.356 64.9502 153.745C64.9502 153.367 64.8568 153.031 64.6702 152.737C64.4882 152.443 64.2385 152.214 63.9212 152.051C63.6085 151.883 63.2515 151.799 62.8502 151.799C62.6122 151.799 62.3882 151.82 62.1782 151.862C61.9728 151.904 61.7652 151.983 61.5552 152.1C61.3452 152.212 61.1188 152.382 60.8762 152.611C60.8295 152.634 60.7945 152.646 60.7712 152.646C60.7525 152.641 60.7175 152.627 60.6662 152.604L59.3572 152.072L59.8192 146.878H66.1122L66.0492 148.299H61.2052L60.9742 151.113C61.3335 150.861 61.6952 150.679 62.0592 150.567C62.4232 150.455 62.8245 150.399 63.2632 150.399C63.9072 150.399 64.4928 150.525 65.0202 150.777C65.5475 151.029 65.9675 151.4 66.2802 151.89C66.5928 152.38 66.7492 152.98 66.7492 153.689C66.7492 154.398 66.5905 155.012 66.2732 155.53C65.9605 156.048 65.5172 156.449 64.9432 156.734C64.3738 157.014 63.6995 157.154 62.9202 157.154ZM72.1487 157.154C71.5047 157.154 70.905 157.049 70.3497 156.839C69.799 156.624 69.323 156.33 68.9217 155.957C68.525 155.584 68.2287 155.157 68.0327 154.676L69.4117 153.948C69.5843 154.293 69.7897 154.604 70.0277 154.879C70.2703 155.154 70.5527 155.371 70.8747 155.53C71.2013 155.684 71.5747 155.761 71.9947 155.761C72.6527 155.761 73.18 155.579 73.5767 155.215C73.978 154.846 74.1787 154.356 74.1787 153.745C74.1787 153.367 74.0853 153.031 73.8987 152.737C73.7167 152.443 73.467 152.214 73.1497 152.051C72.837 151.883 72.48 151.799 72.0787 151.799C71.8407 151.799 71.6167 151.82 71.4067 151.862C71.2013 151.904 70.9937 151.983 70.7837 152.1C70.5737 152.212 70.3473 152.382 70.1047 152.611C70.058 152.634 70.023 152.646 69.9997 152.646C69.981 152.641 69.946 152.627 69.8947 152.604L68.5857 152.072L69.0477 146.878H75.3407L75.2777 148.299H70.4337L70.2027 151.113C70.562 150.861 70.9237 150.679 71.2877 150.567C71.6517 150.455 72.053 150.399 72.4917 150.399C73.1357 150.399 73.7213 150.525 74.2487 150.777C74.776 151.029 75.196 151.4 75.5087 151.89C75.8213 152.38 75.9777 152.98 75.9777 153.689C75.9777 154.398 75.819 155.012 75.5017 155.53C75.189 156.048 74.7457 156.449 74.1717 156.734C73.6023 157.014 72.928 157.154 72.1487 157.154ZM77.3452 157V155.04H79.2702V157H77.3452ZM84.7655 157.154C83.9395 157.154 83.2255 156.949 82.6235 156.538C82.0215 156.127 81.5572 155.546 81.2305 154.795C80.9085 154.039 80.7475 153.145 80.7475 152.114C80.7475 151.017 80.9085 150.068 81.2305 149.265C81.5525 148.458 82.0192 147.835 82.6305 147.396C83.2465 146.957 83.9908 146.738 84.8635 146.738C85.4608 146.738 86.0138 146.85 86.5225 147.074C87.0312 147.293 87.4488 147.611 87.7755 148.026C88.1022 148.441 88.2935 148.943 88.3495 149.531H86.7745C86.6438 149.078 86.4198 148.728 86.1025 148.481C85.7852 148.234 85.3838 148.11 84.8985 148.11C84.3618 148.11 83.9138 148.262 83.5545 148.565C83.1952 148.868 82.9362 149.305 82.7775 149.874C82.6235 150.439 82.5745 151.115 82.6305 151.904C82.7752 151.629 82.9712 151.391 83.2185 151.19C83.4658 150.985 83.7482 150.826 84.0655 150.714C84.3828 150.602 84.7188 150.546 85.0735 150.546C85.7502 150.546 86.3428 150.674 86.8515 150.931C87.3602 151.188 87.7568 151.552 88.0415 152.023C88.3262 152.494 88.4685 153.052 88.4685 153.696C88.4685 154.363 88.3145 154.958 88.0065 155.481C87.6985 155.999 87.2668 156.407 86.7115 156.706C86.1562 157.005 85.5075 157.154 84.7655 157.154ZM84.7235 155.817C85.0875 155.817 85.4142 155.731 85.7035 155.558C85.9975 155.385 86.2285 155.145 86.3965 154.837C86.5692 154.529 86.6555 154.174 86.6555 153.773C86.6555 153.362 86.5762 153.015 86.4175 152.73C86.2588 152.445 86.0325 152.228 85.7385 152.079C85.4492 151.93 85.1085 151.855 84.7165 151.855C84.3945 151.855 84.0818 151.93 83.7785 152.079C83.4798 152.228 83.2348 152.422 83.0435 152.66C82.8568 152.898 82.7635 153.152 82.7635 153.423C82.7588 153.904 82.8382 154.324 83.0015 154.683C83.1648 155.042 83.3935 155.322 83.6875 155.523C83.9862 155.719 84.3315 155.817 84.7235 155.817ZM91.3242 157C91.3802 156.566 91.4922 156.025 91.6602 155.376C91.8329 154.723 92.0685 154.004 92.3672 153.22C92.6659 152.431 93.0369 151.617 93.4802 150.777C93.9235 149.937 94.4415 149.111 95.0342 148.299H89.4902V146.878H96.8472V148.299C96.5065 148.742 96.1682 149.256 95.8322 149.839C95.4962 150.418 95.1742 151.031 94.8662 151.68C94.5582 152.324 94.2829 152.97 94.0402 153.619C93.7975 154.263 93.5992 154.877 93.4452 155.46C93.2912 156.043 93.1979 156.557 93.1652 157H91.3242ZM98.3612 157V156.09V155.621C98.3612 155.103 98.4568 154.657 98.6482 154.284C98.8395 153.906 99.0938 153.577 99.4112 153.297C99.7285 153.017 100.076 152.77 100.454 152.555C100.837 152.336 101.215 152.13 101.588 151.939C101.966 151.743 102.314 151.542 102.631 151.337C102.948 151.127 103.203 150.894 103.394 150.637C103.59 150.38 103.688 150.075 103.688 149.72C103.688 149.267 103.527 148.899 103.205 148.614C102.888 148.325 102.456 148.18 101.91 148.18C101.331 148.18 100.853 148.346 100.475 148.677C100.102 149.008 99.8802 149.475 99.8102 150.077H98.1582C98.1675 149.461 98.3145 148.901 98.5992 148.397C98.8838 147.893 99.3062 147.492 99.8662 147.193C100.426 146.89 101.124 146.738 101.959 146.738C102.682 146.738 103.305 146.864 103.828 147.116C104.355 147.363 104.761 147.711 105.046 148.159C105.335 148.602 105.48 149.12 105.48 149.713C105.48 150.231 105.384 150.674 105.193 151.043C105.006 151.412 104.757 151.731 104.444 152.002C104.136 152.268 103.795 152.504 103.422 152.709C103.053 152.914 102.682 153.108 102.309 153.29C101.94 153.467 101.6 153.654 101.287 153.85C100.979 154.041 100.729 154.261 100.538 154.508C100.351 154.755 100.258 155.052 100.258 155.397V155.544H105.501V157H98.3612ZM110.796 157.147C109.998 157.147 109.3 157.028 108.703 156.79C108.11 156.547 107.648 156.207 107.317 155.768C106.985 155.329 106.82 154.814 106.82 154.221C106.82 153.834 106.915 153.463 107.107 153.108C107.303 152.753 107.552 152.455 107.856 152.212C108.159 151.965 108.472 151.808 108.794 151.743C108.36 151.547 107.996 151.267 107.702 150.903C107.408 150.534 107.261 150.082 107.261 149.545C107.261 148.943 107.415 148.434 107.723 148.019C108.031 147.599 108.451 147.282 108.983 147.067C109.519 146.848 110.124 146.738 110.796 146.738C111.468 146.738 112.07 146.848 112.602 147.067C113.134 147.282 113.554 147.599 113.862 148.019C114.174 148.434 114.331 148.943 114.331 149.545C114.331 150.082 114.186 150.534 113.897 150.903C113.607 151.267 113.241 151.547 112.798 151.743C113.12 151.808 113.432 151.965 113.736 152.212C114.039 152.455 114.289 152.753 114.485 153.108C114.681 153.463 114.779 153.834 114.779 154.221C114.779 154.814 114.613 155.329 114.282 155.768C113.955 156.207 113.491 156.547 112.889 156.79C112.291 157.028 111.594 157.147 110.796 157.147ZM110.796 155.831C111.463 155.831 111.99 155.682 112.378 155.383C112.765 155.084 112.959 154.685 112.959 154.186C112.959 153.855 112.87 153.563 112.693 153.311C112.515 153.054 112.266 152.854 111.944 152.709C111.622 152.564 111.239 152.492 110.796 152.492C110.357 152.492 109.974 152.564 109.648 152.709C109.326 152.854 109.076 153.054 108.899 153.311C108.726 153.563 108.64 153.855 108.64 154.186C108.64 154.685 108.833 155.084 109.221 155.383C109.613 155.682 110.138 155.831 110.796 155.831ZM110.796 151.064C111.328 151.064 111.762 150.929 112.098 150.658C112.438 150.383 112.609 150 112.609 149.51C112.609 149.025 112.438 148.64 112.098 148.355C111.757 148.07 111.323 147.928 110.796 147.928C110.268 147.928 109.832 148.07 109.487 148.355C109.146 148.64 108.976 149.025 108.976 149.51C108.976 150 109.146 150.383 109.487 150.658C109.832 150.929 110.268 151.064 110.796 151.064ZM117.643 157C117.699 156.566 117.811 156.025 117.979 155.376C118.151 154.723 118.387 154.004 118.686 153.22C118.984 152.431 119.355 151.617 119.799 150.777C120.242 149.937 120.76 149.111 121.353 148.299H115.809V146.878H123.166V148.299C122.825 148.742 122.487 149.256 122.151 149.839C121.815 150.418 121.493 151.031 121.185 151.68C120.877 152.324 120.601 152.97 120.359 153.619C120.116 154.263 119.918 154.877 119.764 155.46C119.61 156.043 119.516 156.557 119.484 157H117.643ZM128.852 157L128.859 154.599H124.148V153.15L128.81 146.878H130.504V153.15H132.121V154.599H130.504V157H128.852ZM125.744 153.15H128.845V148.992L125.744 153.15ZM4.004 181.14C3.31333 181.14 2.71133 180.993 2.198 180.699C1.68467 180.4 1.28567 179.973 1.001 179.418C0.721 178.863 0.581 178.195 0.581 177.416C0.581 176.66 0.718667 175.997 0.994 175.428C1.26933 174.859 1.66133 174.415 2.17 174.098C2.68333 173.781 3.297 173.622 4.011 173.622C4.70167 173.622 5.30133 173.774 5.81 174.077C6.31867 174.38 6.71067 174.814 6.986 175.379C7.266 175.944 7.406 176.623 7.406 177.416C7.406 178.149 7.273 178.795 7.007 179.355C6.74567 179.91 6.36067 180.347 5.852 180.664C5.348 180.981 4.732 181.14 4.004 181.14ZM4.011 179.845C4.403 179.845 4.725 179.738 4.977 179.523C5.23367 179.308 5.425 179.014 5.551 178.641C5.677 178.268 5.74 177.843 5.74 177.367C5.74 176.924 5.684 176.515 5.572 176.142C5.46 175.769 5.27567 175.47 5.019 175.246C4.767 175.017 4.431 174.903 4.011 174.903C3.61433 174.903 3.28533 175.008 3.024 175.218C2.76733 175.423 2.576 175.713 2.45 176.086C2.324 176.455 2.261 176.882 2.261 177.367C2.261 177.806 2.317 178.214 2.429 178.592C2.541 178.965 2.72533 179.269 2.982 179.502C3.23867 179.731 3.58167 179.845 4.011 179.845ZM8.96405 181V173.762H10.63V174.798C10.742 174.611 10.8937 174.432 11.085 174.259C11.281 174.086 11.5214 173.946 11.806 173.839C12.0907 173.732 12.4244 173.678 12.807 173.678C13.255 173.678 13.6704 173.767 14.053 173.944C14.4404 174.121 14.7507 174.399 14.984 174.777C15.222 175.155 15.341 175.643 15.341 176.24V181H13.633V176.443C13.633 175.967 13.5024 175.615 13.241 175.386C12.9797 175.153 12.6507 175.036 12.254 175.036C11.9834 175.036 11.7267 175.083 11.484 175.176C11.2414 175.265 11.043 175.402 10.889 175.589C10.7397 175.771 10.665 176 10.665 176.275V181H8.96405ZM20.3872 183.394C19.1692 183.394 18.2335 183.231 17.5802 182.904C16.9268 182.577 16.6002 182.129 16.6002 181.56C16.6002 181.303 16.6632 181.089 16.7892 180.916C16.9152 180.743 17.0645 180.601 17.2372 180.489C17.4098 180.377 17.5685 180.291 17.7132 180.23C17.8578 180.169 17.9512 180.125 17.9932 180.097C17.9138 180.05 17.8088 179.99 17.6782 179.915C17.5475 179.84 17.4285 179.738 17.3212 179.607C17.2185 179.476 17.1672 179.306 17.1672 179.096C17.1672 178.853 17.2815 178.629 17.5102 178.424C17.7435 178.219 18.0912 178.072 18.5532 177.983C18.1005 177.764 17.7528 177.467 17.5102 177.094C17.2675 176.721 17.1462 176.333 17.1462 175.932C17.1462 175.456 17.2838 175.048 17.5592 174.707C17.8392 174.366 18.2265 174.105 18.7212 173.923C19.2158 173.741 19.7922 173.65 20.4502 173.65C20.9308 173.65 21.3298 173.704 21.6472 173.811C21.9692 173.918 22.2678 174.063 22.5432 174.245C22.6365 174.208 22.7672 174.156 22.9352 174.091C23.1032 174.021 23.2875 173.946 23.4882 173.867C23.6888 173.783 23.8825 173.704 24.0692 173.629C24.2558 173.55 24.4122 173.484 24.5382 173.433L24.5312 174.84L23.2782 175.064C23.3388 175.199 23.3855 175.346 23.4182 175.505C23.4555 175.664 23.4742 175.804 23.4742 175.925C23.4742 176.345 23.3552 176.735 23.1172 177.094C22.8838 177.449 22.5315 177.733 22.0602 177.948C21.5935 178.163 21.0102 178.27 20.3102 178.27C20.2402 178.27 20.1445 178.268 20.0232 178.263C19.9018 178.258 19.8038 178.254 19.7292 178.249C19.3512 178.263 19.0922 178.307 18.9522 178.382C18.8122 178.457 18.7422 178.538 18.7422 178.627C18.7422 178.753 18.8472 178.837 19.0572 178.879C19.2672 178.921 19.6032 178.958 20.0652 178.991C20.2285 179 20.4432 179.012 20.7092 179.026C20.9752 179.04 21.2715 179.059 21.5982 179.082C22.4242 179.133 23.0495 179.341 23.4742 179.705C23.8988 180.064 24.1112 180.531 24.1112 181.105C24.1112 181.772 23.8032 182.321 23.1872 182.75C22.5712 183.179 21.6378 183.394 20.3872 183.394ZM20.6742 182.393C21.2855 182.393 21.7382 182.309 22.0322 182.141C22.3262 181.973 22.4732 181.726 22.4732 181.399C22.4732 181.147 22.3728 180.942 22.1722 180.783C21.9715 180.624 21.6728 180.531 21.2762 180.503L19.4492 180.391C19.2485 180.377 19.0572 180.414 18.8752 180.503C18.6978 180.587 18.5532 180.706 18.4412 180.86C18.3292 181.009 18.2732 181.175 18.2732 181.357C18.2732 181.698 18.4668 181.954 18.8542 182.127C19.2462 182.304 19.8528 182.393 20.6742 182.393ZM20.3662 177.269C20.8095 177.269 21.1688 177.157 21.4442 176.933C21.7195 176.704 21.8572 176.382 21.8572 175.967C21.8572 175.538 21.7195 175.204 21.4442 174.966C21.1688 174.723 20.8095 174.602 20.3662 174.602C19.9135 174.602 19.5472 174.723 19.2672 174.966C18.9918 175.209 18.8542 175.542 18.8542 175.967C18.8542 176.368 18.9872 176.686 19.2532 176.919C19.5192 177.152 19.8902 177.269 20.3662 177.269ZM25.9588 181V173.762H27.5898V181H25.9588ZM25.9308 172.495V170.885H27.6178V172.495H25.9308ZM32.4452 181.056C31.8712 181.056 31.4256 180.981 31.1082 180.832C30.7956 180.678 30.5786 180.461 30.4572 180.181C30.3359 179.901 30.2752 179.567 30.2752 179.18V174.966H29.0992V173.762H30.3242L30.7512 171.613H31.9762V173.755H33.5932V174.966H31.9762L31.9832 179.117C31.9832 179.332 32.0066 179.49 32.0532 179.593C32.1046 179.691 32.1839 179.756 32.2912 179.789C32.4032 179.817 32.5502 179.831 32.7322 179.831H33.6282V180.909C33.5302 180.946 33.3856 180.979 33.1942 181.007C33.0076 181.04 32.7579 181.056 32.4452 181.056ZM37.792 181.14C37.4373 181.14 37.0943 181.089 36.763 180.986C36.4363 180.879 36.1423 180.725 35.881 180.524C35.6197 180.319 35.412 180.067 35.258 179.768C35.104 179.469 35.027 179.122 35.027 178.725V173.762H36.735V178.529C36.735 178.921 36.8587 179.243 37.106 179.495C37.358 179.747 37.736 179.873 38.24 179.873C38.6973 179.873 39.0637 179.754 39.339 179.516C39.6143 179.273 39.752 178.926 39.752 178.473V173.762H41.446V181H40.137L39.948 179.586C39.8593 179.983 39.703 180.295 39.479 180.524C39.2597 180.748 39.0007 180.907 38.702 181C38.408 181.093 38.1047 181.14 37.792 181.14ZM46.0642 181.14C45.1075 181.14 44.3562 180.811 43.8102 180.153C43.2642 179.495 42.9912 178.559 42.9912 177.346C42.9912 176.59 43.1008 175.934 43.3202 175.379C43.5442 174.819 43.8732 174.387 44.3072 174.084C44.7412 173.776 45.2755 173.622 45.9102 173.622C46.2088 173.622 46.4795 173.659 46.7222 173.734C46.9695 173.804 47.1888 173.897 47.3802 174.014C47.5715 174.131 47.7325 174.259 47.8632 174.399C47.9985 174.539 48.1035 174.679 48.1782 174.819V170.598H49.8932V181H48.6332L48.4442 179.516C48.3835 179.689 48.2972 179.871 48.1852 180.062C48.0778 180.249 47.9308 180.424 47.7442 180.587C47.5622 180.75 47.3335 180.883 47.0582 180.986C46.7828 181.089 46.4515 181.14 46.0642 181.14ZM46.4142 179.887C47.0255 179.887 47.4712 179.689 47.7512 179.292C48.0358 178.891 48.1782 178.228 48.1782 177.304C48.1735 176.777 48.1082 176.333 47.9822 175.974C47.8608 175.615 47.6742 175.344 47.4222 175.162C47.1702 174.98 46.8412 174.889 46.4352 174.889C45.9218 174.889 45.4995 175.078 45.1682 175.456C44.8415 175.834 44.6782 176.45 44.6782 177.304C44.6782 178.153 44.8298 178.797 45.1332 179.236C45.4365 179.67 45.8635 179.887 46.4142 179.887ZM55.0107 181.14C54.3154 181.14 53.7017 180.993 53.1697 180.699C52.6424 180.4 52.2294 179.976 51.9307 179.425C51.6367 178.874 51.4897 178.219 51.4897 177.458C51.4897 176.716 51.6227 176.058 51.8887 175.484C52.1594 174.905 52.549 174.45 53.0577 174.119C53.571 173.788 54.1894 173.622 54.9127 173.622C55.6267 173.622 56.2264 173.774 56.7117 174.077C57.197 174.38 57.5657 174.805 57.8177 175.351C58.0697 175.892 58.1957 176.527 58.1957 177.255V177.773H53.1907C53.186 178.184 53.2514 178.548 53.3867 178.865C53.522 179.182 53.7227 179.432 53.9887 179.614C54.2547 179.791 54.5837 179.88 54.9757 179.88C55.377 179.88 55.7247 179.791 56.0187 179.614C56.3174 179.432 56.5157 179.157 56.6137 178.788H58.1677C58.0837 179.292 57.883 179.719 57.5657 180.069C57.253 180.419 56.8704 180.685 56.4177 180.867C55.9697 181.049 55.5007 181.14 55.0107 181.14ZM53.1837 176.716H56.5857C56.5857 176.366 56.5227 176.051 56.3967 175.771C56.2754 175.486 56.091 175.262 55.8437 175.099C55.5964 174.931 55.2837 174.847 54.9057 174.847C54.5324 174.847 54.2174 174.938 53.9607 175.12C53.704 175.302 53.5104 175.538 53.3797 175.827C53.249 176.112 53.1837 176.408 53.1837 176.716ZM59.5854 175.932V173.986H61.5104V175.932H59.5854ZM59.5854 180.958V179.026H61.5104V180.958H59.5854ZM68.042 181V173.202H66.166V172.187C66.7586 172.187 67.2276 172.138 67.573 172.04C67.923 171.937 68.1773 171.788 68.336 171.592C68.4993 171.396 68.5926 171.158 68.616 170.878H69.778V181H68.042ZM72.2342 181V180.09V179.621C72.2342 179.103 72.3299 178.657 72.5212 178.284C72.7125 177.906 72.9669 177.577 73.2842 177.297C73.6015 177.017 73.9492 176.77 74.3272 176.555C74.7099 176.336 75.0879 176.13 75.4612 175.939C75.8392 175.743 76.1869 175.542 76.5042 175.337C76.8215 175.127 77.0759 174.894 77.2672 174.637C77.4632 174.38 77.5612 174.075 77.5612 173.72C77.5612 173.267 77.4002 172.899 77.0782 172.614C76.7609 172.325 76.3292 172.18 75.7832 172.18C75.2045 172.18 74.7262 172.346 74.3482 172.677C73.9749 173.008 73.7532 173.475 73.6832 174.077H72.0312C72.0405 173.461 72.1875 172.901 72.4722 172.397C72.7569 171.893 73.1792 171.492 73.7392 171.193C74.2992 170.89 74.9969 170.738 75.8322 170.738C76.5555 170.738 77.1785 170.864 77.7012 171.116C78.2285 171.363 78.6345 171.711 78.9192 172.159C79.2085 172.602 79.3532 173.12 79.3532 173.713C79.3532 174.231 79.2575 174.674 79.0662 175.043C78.8795 175.412 78.6299 175.731 78.3172 176.002C78.0092 176.268 77.6685 176.504 77.2952 176.709C76.9265 176.914 76.5555 177.108 76.1822 177.29C75.8135 177.467 75.4729 177.654 75.1602 177.85C74.8522 178.041 74.6025 178.261 74.4112 178.508C74.2245 178.755 74.1312 179.052 74.1312 179.397V179.544H79.3742V181H72.2342ZM80.7768 181V179.04H82.7018V181H80.7768ZM88.2952 181.154C87.6512 181.154 87.0515 181.049 86.4962 180.839C85.9455 180.624 85.4695 180.33 85.0682 179.957C84.6715 179.584 84.3752 179.157 84.1792 178.676L85.5582 177.948C85.7308 178.293 85.9362 178.604 86.1742 178.879C86.4168 179.154 86.6992 179.371 87.0212 179.53C87.3478 179.684 87.7212 179.761 88.1412 179.761C88.7992 179.761 89.3265 179.579 89.7232 179.215C90.1245 178.846 90.3252 178.356 90.3252 177.745C90.3252 177.367 90.2318 177.031 90.0452 176.737C89.8632 176.443 89.6135 176.214 89.2962 176.051C88.9835 175.883 88.6265 175.799 88.2252 175.799C87.9872 175.799 87.7632 175.82 87.5532 175.862C87.3478 175.904 87.1402 175.983 86.9302 176.1C86.7202 176.212 86.4938 176.382 86.2512 176.611C86.2045 176.634 86.1695 176.646 86.1462 176.646C86.1275 176.641 86.0925 176.627 86.0412 176.604L84.7322 176.072L85.1942 170.878H91.4872L91.4242 172.299H86.5802L86.3492 175.113C86.7085 174.861 87.0702 174.679 87.4342 174.567C87.7982 174.455 88.1995 174.399 88.6382 174.399C89.2822 174.399 89.8678 174.525 90.3952 174.777C90.9225 175.029 91.3425 175.4 91.6552 175.89C91.9678 176.38 92.1242 176.98 92.1242 177.689C92.1242 178.398 91.9655 179.012 91.6482 179.53C91.3355 180.048 90.8922 180.449 90.3182 180.734C89.7488 181.014 89.0745 181.154 88.2952 181.154ZM97.4257 181.154C96.5997 181.154 95.8857 180.949 95.2837 180.538C94.6817 180.127 94.2173 179.546 93.8907 178.795C93.5687 178.039 93.4077 177.145 93.4077 176.114C93.4077 175.017 93.5687 174.068 93.8907 173.265C94.2127 172.458 94.6793 171.835 95.2907 171.396C95.9067 170.957 96.651 170.738 97.5237 170.738C98.121 170.738 98.674 170.85 99.1827 171.074C99.6913 171.293 100.109 171.611 100.436 172.026C100.762 172.441 100.954 172.943 101.01 173.531H99.4347C99.304 173.078 99.08 172.728 98.7627 172.481C98.4453 172.234 98.044 172.11 97.5587 172.11C97.022 172.11 96.574 172.262 96.2147 172.565C95.8553 172.868 95.5963 173.305 95.4377 173.874C95.2837 174.439 95.2347 175.115 95.2907 175.904C95.4353 175.629 95.6313 175.391 95.8787 175.19C96.126 174.985 96.4083 174.826 96.7257 174.714C97.043 174.602 97.379 174.546 97.7337 174.546C98.4103 174.546 99.003 174.674 99.5117 174.931C100.02 175.188 100.417 175.552 100.702 176.023C100.986 176.494 101.129 177.052 101.129 177.696C101.129 178.363 100.975 178.958 100.667 179.481C100.359 179.999 99.927 180.407 99.3717 180.706C98.8163 181.005 98.1677 181.154 97.4257 181.154ZM97.3837 179.817C97.7477 179.817 98.0743 179.731 98.3637 179.558C98.6577 179.385 98.8887 179.145 99.0567 178.837C99.2293 178.529 99.3157 178.174 99.3157 177.773C99.3157 177.362 99.2363 177.015 99.0777 176.73C98.919 176.445 98.6927 176.228 98.3987 176.079C98.1093 175.93 97.7687 175.855 97.3767 175.855C97.0547 175.855 96.742 175.93 96.4387 176.079C96.14 176.228 95.895 176.422 95.7037 176.66C95.517 176.898 95.4237 177.152 95.4237 177.423C95.419 177.904 95.4983 178.324 95.6617 178.683C95.825 179.042 96.0537 179.322 96.3477 179.523C96.6463 179.719 96.9917 179.817 97.3837 179.817ZM107.046 181L107.053 178.599H102.342V177.15L107.004 170.878H108.698V177.15H110.315V178.599H108.698V181H107.046ZM103.938 177.15H107.039V172.992L103.938 177.15ZM115.352 181.154C114.708 181.154 114.108 181.049 113.553 180.839C113.002 180.624 112.526 180.33 112.125 179.957C111.728 179.584 111.432 179.157 111.236 178.676L112.615 177.948C112.787 178.293 112.993 178.604 113.231 178.879C113.473 179.154 113.756 179.371 114.078 179.53C114.404 179.684 114.778 179.761 115.198 179.761C115.856 179.761 116.383 179.579 116.78 179.215C117.181 178.846 117.382 178.356 117.382 177.745C117.382 177.367 117.288 177.031 117.102 176.737C116.92 176.443 116.67 176.214 116.353 176.051C116.04 175.883 115.683 175.799 115.282 175.799C115.044 175.799 114.82 175.82 114.61 175.862C114.404 175.904 114.197 175.983 113.987 176.1C113.777 176.212 113.55 176.382 113.308 176.611C113.261 176.634 113.226 176.646 113.203 176.646C113.184 176.641 113.149 176.627 113.098 176.604L111.789 176.072L112.251 170.878H118.544L118.481 172.299H113.637L113.406 175.113C113.765 174.861 114.127 174.679 114.491 174.567C114.855 174.455 115.256 174.399 115.695 174.399C116.339 174.399 116.924 174.525 117.452 174.777C117.979 175.029 118.399 175.4 118.712 175.89C119.024 176.38 119.181 176.98 119.181 177.689C119.181 178.398 119.022 179.012 118.705 179.53C118.392 180.048 117.949 180.449 117.375 180.734C116.805 181.014 116.131 181.154 115.352 181.154ZM124.027 181.154C123.435 181.154 122.879 181.04 122.361 180.811C121.843 180.582 121.416 180.258 121.08 179.838C120.744 179.418 120.548 178.923 120.492 178.354H122.123C122.221 178.779 122.434 179.124 122.76 179.39C123.087 179.651 123.488 179.782 123.964 179.782C124.501 179.782 124.965 179.649 125.357 179.383C125.754 179.117 126.05 178.699 126.246 178.13C126.442 177.561 126.515 176.821 126.463 175.911C126.337 176.21 126.153 176.471 125.91 176.695C125.672 176.919 125.388 177.094 125.056 177.22C124.73 177.341 124.366 177.402 123.964 177.402C123.288 177.402 122.688 177.274 122.165 177.017C121.647 176.756 121.241 176.385 120.947 175.904C120.653 175.419 120.506 174.845 120.506 174.182C120.506 173.51 120.656 172.915 120.954 172.397C121.258 171.879 121.682 171.473 122.228 171.179C122.779 170.885 123.425 170.738 124.167 170.738C124.993 170.738 125.707 170.941 126.309 171.347C126.911 171.753 127.373 172.332 127.695 173.083C128.022 173.834 128.185 174.726 128.185 175.757C128.185 176.933 128.02 177.922 127.688 178.725C127.362 179.523 126.888 180.127 126.267 180.538C125.651 180.949 124.905 181.154 124.027 181.154ZM124.216 176.016C124.543 176.016 124.856 175.941 125.154 175.792C125.453 175.643 125.698 175.449 125.889 175.211C126.081 174.973 126.176 174.721 126.176 174.455C126.181 173.97 126.102 173.55 125.938 173.195C125.775 172.836 125.544 172.558 125.245 172.362C124.951 172.161 124.606 172.061 124.209 172.061C123.85 172.061 123.528 172.147 123.243 172.32C122.963 172.493 122.744 172.733 122.585 173.041C122.427 173.344 122.347 173.697 122.347 174.098C122.347 174.695 122.513 175.164 122.844 175.505C123.176 175.846 123.633 176.016 124.216 176.016ZM133.158 181.154C131.987 181.154 131.065 180.713 130.393 179.831C129.726 178.949 129.392 177.663 129.392 175.974C129.392 174.835 129.546 173.879 129.854 173.104C130.162 172.325 130.598 171.737 131.163 171.34C131.728 170.939 132.395 170.738 133.165 170.738C134.322 170.738 135.237 171.184 135.909 172.075C136.586 172.962 136.924 174.257 136.924 175.96C136.924 177.654 136.588 178.944 135.916 179.831C135.249 180.713 134.329 181.154 133.158 181.154ZM133.165 179.733C133.823 179.733 134.313 179.441 134.635 178.858C134.957 178.275 135.118 177.311 135.118 175.967C135.118 174.595 134.955 173.61 134.628 173.013C134.301 172.416 133.811 172.117 133.158 172.117C132.505 172.117 132.01 172.418 131.674 173.02C131.343 173.622 131.177 174.604 131.177 175.967C131.177 177.306 131.343 178.27 131.674 178.858C132.01 179.441 132.507 179.733 133.165 179.733ZM4.004 205.14C3.34133 205.14 2.751 204.995 2.233 204.706C1.71967 204.412 1.316 203.987 1.022 203.432C0.728 202.872 0.581 202.198 0.581 201.409C0.581 200.658 0.718667 200 0.994 199.435C1.274 198.866 1.66833 198.422 2.177 198.105C2.69033 197.783 3.29933 197.622 4.004 197.622C4.56867 197.622 5.06567 197.734 5.495 197.958C5.92433 198.182 6.26733 198.492 6.524 198.889C6.78533 199.286 6.94167 199.736 6.993 200.24H5.544C5.50667 200.021 5.425 199.813 5.299 199.617C5.173 199.416 5.00267 199.255 4.788 199.134C4.578 199.008 4.32133 198.945 4.018 198.945C3.472 198.945 3.031 199.146 2.695 199.547C2.359 199.948 2.191 200.564 2.191 201.395C2.191 202.16 2.34967 202.769 2.667 203.222C2.989 203.675 3.44867 203.901 4.046 203.901C4.34467 203.901 4.60133 203.836 4.816 203.705C5.03067 203.57 5.19867 203.404 5.32 203.208C5.446 203.007 5.52533 202.807 5.558 202.606H6.972C6.93 203.096 6.77833 203.532 6.517 203.915C6.25567 204.298 5.91033 204.599 5.481 204.818C5.05167 205.033 4.55933 205.14 4.004 205.14ZM8.56822 205V197.762H10.1992V205H8.56822ZM8.54022 196.495V194.885H10.2272V196.495H8.54022ZM15.0546 205.056C14.4806 205.056 14.0349 204.981 13.7176 204.832C13.4049 204.678 13.1879 204.461 13.0666 204.181C12.9453 203.901 12.8846 203.567 12.8846 203.18V198.966H11.7086V197.762H12.9336L13.3606 195.613H14.5856V197.755H16.2026V198.966H14.5856L14.5926 203.117C14.5926 203.332 14.6159 203.49 14.6626 203.593C14.7139 203.691 14.7933 203.756 14.9006 203.789C15.0126 203.817 15.1596 203.831 15.3416 203.831H16.2376V204.909C16.1396 204.946 15.9949 204.979 15.8036 205.007C15.6169 205.04 15.3673 205.056 15.0546 205.056ZM18.7548 207.31C18.2881 207.31 17.9638 207.273 17.7818 207.198C17.5998 207.128 17.5088 207.093 17.5088 207.093V206.001L18.2368 206.022C18.5308 206.036 18.7688 206.02 18.9508 205.973C19.1374 205.926 19.2821 205.861 19.3848 205.777C19.4874 205.698 19.5621 205.611 19.6088 205.518C19.6601 205.429 19.6998 205.352 19.7278 205.287L19.9168 204.755L17.0958 197.762H18.7898L20.7148 202.879L22.6328 197.762H24.2988L21.3168 205.266C21.0928 205.812 20.8501 206.232 20.5888 206.526C20.3321 206.825 20.0498 207.03 19.7418 207.142C19.4384 207.254 19.1094 207.31 18.7548 207.31ZM25.2827 199.932V197.986H27.2077V199.932H25.2827ZM25.2827 204.958V203.026H27.2077V204.958H25.2827ZM32.5702 198.497L32.1012 194.878H33.9562L33.4662 198.497H32.5702ZM39.9746 205.14C39.0459 205.14 38.2479 204.928 37.5806 204.503C36.9179 204.074 36.4069 203.467 36.0476 202.683C35.6929 201.894 35.5156 200.959 35.5156 199.876C35.5156 198.798 35.6929 197.876 36.0476 197.111C36.4023 196.346 36.9109 195.76 37.5736 195.354C38.2409 194.943 39.0413 194.738 39.9746 194.738C40.7166 194.738 41.3746 194.89 41.9486 195.193C42.5226 195.492 42.9846 195.898 43.3346 196.411C43.6893 196.924 43.8993 197.496 43.9646 198.126H42.1656C42.0956 197.753 41.9649 197.419 41.7736 197.125C41.5869 196.831 41.3396 196.598 41.0316 196.425C40.7236 196.252 40.3549 196.166 39.9256 196.166C39.3889 196.166 38.9316 196.294 38.5536 196.551C38.1803 196.803 37.8933 197.204 37.6926 197.755C37.4966 198.306 37.3986 199.02 37.3986 199.897C37.3986 201.227 37.6179 202.195 38.0566 202.802C38.4953 203.409 39.1183 203.712 39.9256 203.712C40.3549 203.712 40.7236 203.619 41.0316 203.432C41.3396 203.241 41.5869 202.989 41.7736 202.676C41.9649 202.359 42.0956 202.013 42.1656 201.64H43.9646C43.9086 202.097 43.7919 202.536 43.6146 202.956C43.4419 203.376 43.1969 203.752 42.8796 204.083C42.5623 204.41 42.1633 204.669 41.6826 204.86C41.2066 205.047 40.6373 205.14 39.9746 205.14ZM48.67 205.14C47.9793 205.14 47.3773 204.993 46.864 204.699C46.3507 204.4 45.9517 203.973 45.667 203.418C45.387 202.863 45.247 202.195 45.247 201.416C45.247 200.66 45.3847 199.997 45.66 199.428C45.9353 198.859 46.3273 198.415 46.836 198.098C47.3493 197.781 47.963 197.622 48.677 197.622C49.3677 197.622 49.9673 197.774 50.476 198.077C50.9847 198.38 51.3767 198.814 51.652 199.379C51.932 199.944 52.072 200.623 52.072 201.416C52.072 202.149 51.939 202.795 51.673 203.355C51.4117 203.91 51.0267 204.347 50.518 204.664C50.014 204.981 49.398 205.14 48.67 205.14ZM48.677 203.845C49.069 203.845 49.391 203.738 49.643 203.523C49.8997 203.308 50.091 203.014 50.217 202.641C50.343 202.268 50.406 201.843 50.406 201.367C50.406 200.924 50.35 200.515 50.238 200.142C50.126 199.769 49.9417 199.47 49.685 199.246C49.433 199.017 49.097 198.903 48.677 198.903C48.2803 198.903 47.9513 199.008 47.69 199.218C47.4333 199.423 47.242 199.713 47.116 200.086C46.99 200.455 46.927 200.882 46.927 201.367C46.927 201.806 46.983 202.214 47.095 202.592C47.207 202.965 47.3913 203.269 47.648 203.502C47.9047 203.731 48.2477 203.845 48.677 203.845ZM53.6301 207.254V197.762H55.3311L55.3451 198.903C55.4384 198.744 55.5574 198.588 55.7021 198.434C55.8514 198.28 56.0217 198.142 56.2131 198.021C56.4091 197.9 56.6261 197.804 56.8641 197.734C57.1021 197.659 57.3634 197.622 57.6481 197.622C58.2034 197.622 58.6957 197.755 59.1251 198.021C59.5544 198.282 59.8904 198.686 60.1331 199.232C60.3804 199.778 60.5041 200.469 60.5041 201.304C60.5041 202.158 60.3781 202.87 60.1261 203.439C59.8741 204.008 59.5217 204.435 59.0691 204.72C58.6164 205 58.0914 205.14 57.4941 205.14C57.2187 205.14 56.9667 205.103 56.7381 205.028C56.5141 204.953 56.3134 204.851 56.1361 204.72C55.9587 204.589 55.8024 204.447 55.6671 204.293C55.5364 204.139 55.4267 203.978 55.3381 203.81V207.254H53.6301ZM57.1161 203.866C57.6294 203.866 58.0541 203.663 58.3901 203.257C58.7261 202.846 58.8941 202.205 58.8941 201.332C58.8941 200.576 58.7354 199.981 58.4181 199.547C58.1054 199.108 57.6714 198.889 57.1161 198.889C56.5187 198.889 56.0707 199.12 55.7721 199.582C55.4734 200.039 55.3241 200.623 55.3241 201.332C55.3241 201.789 55.3894 202.212 55.5201 202.599C55.6554 202.982 55.8537 203.29 56.1151 203.523C56.3811 203.752 56.7147 203.866 57.1161 203.866ZM65.2509 205.14C64.5556 205.14 63.9419 204.993 63.4099 204.699C62.8826 204.4 62.4696 203.976 62.1709 203.425C61.8769 202.874 61.7299 202.219 61.7299 201.458C61.7299 200.716 61.8629 200.058 62.1289 199.484C62.3996 198.905 62.7893 198.45 63.2979 198.119C63.8113 197.788 64.4296 197.622 65.1529 197.622C65.8669 197.622 66.4666 197.774 66.9519 198.077C67.4373 198.38 67.8059 198.805 68.0579 199.351C68.3099 199.892 68.4359 200.527 68.4359 201.255V201.773H63.4309C63.4263 202.184 63.4916 202.548 63.6269 202.865C63.7623 203.182 63.9629 203.432 64.2289 203.614C64.4949 203.791 64.8239 203.88 65.2159 203.88C65.6173 203.88 65.9649 203.791 66.2589 203.614C66.5576 203.432 66.7559 203.157 66.8539 202.788H68.4079C68.3239 203.292 68.1233 203.719 67.8059 204.069C67.4933 204.419 67.1106 204.685 66.6579 204.867C66.2099 205.049 65.7409 205.14 65.2509 205.14ZM63.4239 200.716H66.8259C66.8259 200.366 66.7629 200.051 66.6369 199.771C66.5156 199.486 66.3313 199.262 66.0839 199.099C65.8366 198.931 65.5239 198.847 65.1459 198.847C64.7726 198.847 64.4576 198.938 64.2009 199.12C63.9443 199.302 63.7506 199.538 63.6199 199.827C63.4893 200.112 63.4239 200.408 63.4239 200.716ZM70.0637 205V197.762H71.7297V198.798C71.8417 198.611 71.9933 198.432 72.1847 198.259C72.3807 198.086 72.621 197.946 72.9057 197.839C73.1903 197.732 73.524 197.678 73.9067 197.678C74.3547 197.678 74.77 197.767 75.1527 197.944C75.54 198.121 75.8503 198.399 76.0837 198.777C76.3217 199.155 76.4407 199.643 76.4407 200.24V205H74.7327V200.443C74.7327 199.967 74.602 199.615 74.3407 199.386C74.0793 199.153 73.7503 199.036 73.3537 199.036C73.083 199.036 72.8263 199.083 72.5837 199.176C72.341 199.265 72.1427 199.402 71.9887 199.589C71.8393 199.771 71.7647 200 71.7647 200.275V205H70.0637ZM78.2668 205V194.598H79.9468V198.812C80.0634 198.63 80.2174 198.455 80.4088 198.287C80.6001 198.114 80.8334 197.974 81.1088 197.867C81.3888 197.755 81.7224 197.699 82.1098 197.699C82.5718 197.699 82.9941 197.788 83.3768 197.965C83.7594 198.142 84.0651 198.399 84.2938 198.735C84.5224 199.066 84.6368 199.463 84.6368 199.925V205H82.9288V200.212C82.9288 199.839 82.7958 199.549 82.5298 199.344C82.2684 199.139 81.9371 199.036 81.5358 199.036C81.2698 199.036 81.0154 199.083 80.7728 199.176C80.5301 199.269 80.3341 199.409 80.1848 199.596C80.0401 199.778 79.9678 200.007 79.9678 200.282V205H78.2668ZM88.5082 205.14C88.0462 205.14 87.6309 205.056 87.2622 204.888C86.8982 204.715 86.6112 204.47 86.4012 204.153C86.1959 203.831 86.0932 203.441 86.0932 202.984C86.0932 202.186 86.3802 201.584 86.9542 201.178C87.5329 200.772 88.4522 200.56 89.7122 200.541L90.7972 200.513V200.023C90.7972 199.64 90.6829 199.342 90.4542 199.127C90.2302 198.908 89.8802 198.8 89.4042 198.805C89.0496 198.81 88.7276 198.894 88.4382 199.057C88.1489 199.216 87.9576 199.484 87.8642 199.862H86.4152C86.4432 199.367 86.5856 198.954 86.8422 198.623C87.1036 198.287 87.4606 198.037 87.9132 197.874C88.3659 197.706 88.8886 197.622 89.4812 197.622C90.1719 197.622 90.7342 197.713 91.1682 197.895C91.6022 198.077 91.9219 198.341 92.1272 198.686C92.3326 199.027 92.4352 199.44 92.4352 199.925V205H91.0002L90.8602 203.698C90.6036 204.244 90.2746 204.622 89.8732 204.832C89.4766 205.037 89.0216 205.14 88.5082 205.14ZM89.0612 203.985C89.2712 203.985 89.4789 203.948 89.6842 203.873C89.8896 203.794 90.0739 203.689 90.2372 203.558C90.4052 203.423 90.5382 203.273 90.6362 203.11C90.7389 202.947 90.7926 202.776 90.7972 202.599V201.458L89.9082 201.472C89.4696 201.477 89.0846 201.523 88.7532 201.612C88.4266 201.701 88.1722 201.843 87.9902 202.039C87.8082 202.23 87.7172 202.487 87.7172 202.809C87.7172 203.178 87.8456 203.467 88.1022 203.677C88.3589 203.882 88.6786 203.985 89.0612 203.985ZM97.4692 207.394C96.2512 207.394 95.3155 207.231 94.6622 206.904C94.0089 206.577 93.6822 206.129 93.6822 205.56C93.6822 205.303 93.7452 205.089 93.8712 204.916C93.9972 204.743 94.1465 204.601 94.3192 204.489C94.4919 204.377 94.6505 204.291 94.7952 204.23C94.9399 204.169 95.0332 204.125 95.0752 204.097C94.9959 204.05 94.8909 203.99 94.7602 203.915C94.6295 203.84 94.5105 203.738 94.4032 203.607C94.3005 203.476 94.2492 203.306 94.2492 203.096C94.2492 202.853 94.3635 202.629 94.5922 202.424C94.8255 202.219 95.1732 202.072 95.6352 201.983C95.1825 201.764 94.8349 201.467 94.5922 201.094C94.3495 200.721 94.2282 200.333 94.2282 199.932C94.2282 199.456 94.3659 199.048 94.6412 198.707C94.9212 198.366 95.3085 198.105 95.8032 197.923C96.2979 197.741 96.8742 197.65 97.5322 197.65C98.0129 197.65 98.4119 197.704 98.7292 197.811C99.0512 197.918 99.3499 198.063 99.6252 198.245C99.7185 198.208 99.8492 198.156 100.017 198.091C100.185 198.021 100.37 197.946 100.57 197.867C100.771 197.783 100.965 197.704 101.151 197.629C101.338 197.55 101.494 197.484 101.62 197.433L101.613 198.84L100.36 199.064C100.421 199.199 100.468 199.346 100.5 199.505C100.538 199.664 100.556 199.804 100.556 199.925C100.556 200.345 100.437 200.735 100.199 201.094C99.9659 201.449 99.6135 201.733 99.1422 201.948C98.6755 202.163 98.0922 202.27 97.3922 202.27C97.3222 202.27 97.2265 202.268 97.1052 202.263C96.9839 202.258 96.8859 202.254 96.8112 202.249C96.4332 202.263 96.1742 202.307 96.0342 202.382C95.8942 202.457 95.8242 202.538 95.8242 202.627C95.8242 202.753 95.9292 202.837 96.1392 202.879C96.3492 202.921 96.6852 202.958 97.1472 202.991C97.3105 203 97.5252 203.012 97.7912 203.026C98.0572 203.04 98.3535 203.059 98.6802 203.082C99.5062 203.133 100.132 203.341 100.556 203.705C100.981 204.064 101.193 204.531 101.193 205.105C101.193 205.772 100.885 206.321 100.269 206.75C99.6532 207.179 98.7199 207.394 97.4692 207.394ZM97.7562 206.393C98.3675 206.393 98.8202 206.309 99.1142 206.141C99.4082 205.973 99.5552 205.726 99.5552 205.399C99.5552 205.147 99.4549 204.942 99.2542 204.783C99.0535 204.624 98.7549 204.531 98.3582 204.503L96.5312 204.391C96.3305 204.377 96.1392 204.414 95.9572 204.503C95.7799 204.587 95.6352 204.706 95.5232 204.86C95.4112 205.009 95.3552 205.175 95.3552 205.357C95.3552 205.698 95.5489 205.954 95.9362 206.127C96.3282 206.304 96.9349 206.393 97.7562 206.393ZM97.4482 201.269C97.8915 201.269 98.2509 201.157 98.5262 200.933C98.8015 200.704 98.9392 200.382 98.9392 199.967C98.9392 199.538 98.8015 199.204 98.5262 198.966C98.2509 198.723 97.8915 198.602 97.4482 198.602C96.9955 198.602 96.6292 198.723 96.3492 198.966C96.0739 199.209 95.9362 199.542 95.9362 199.967C95.9362 200.368 96.0692 200.686 96.3352 200.919C96.6012 201.152 96.9722 201.269 97.4482 201.269ZM106.007 205.14C105.311 205.14 104.698 204.993 104.166 204.699C103.638 204.4 103.225 203.976 102.927 203.425C102.633 202.874 102.486 202.219 102.486 201.458C102.486 200.716 102.619 200.058 102.885 199.484C103.155 198.905 103.545 198.45 104.054 198.119C104.567 197.788 105.185 197.622 105.909 197.622C106.623 197.622 107.222 197.774 107.708 198.077C108.193 198.38 108.562 198.805 108.814 199.351C109.066 199.892 109.192 200.527 109.192 201.255V201.773H104.187C104.182 202.184 104.247 202.548 104.383 202.865C104.518 203.182 104.719 203.432 104.985 203.614C105.251 203.791 105.58 203.88 105.972 203.88C106.373 203.88 106.721 203.791 107.015 203.614C107.313 203.432 107.512 203.157 107.61 202.788H109.164C109.08 203.292 108.879 203.719 108.562 204.069C108.249 204.419 107.866 204.685 107.414 204.867C106.966 205.049 106.497 205.14 106.007 205.14ZM104.18 200.716H107.582C107.582 200.366 107.519 200.051 107.393 199.771C107.271 199.486 107.087 199.262 106.84 199.099C106.592 198.931 106.28 198.847 105.902 198.847C105.528 198.847 105.213 198.938 104.957 199.12C104.7 199.302 104.506 199.538 104.376 199.827C104.245 200.112 104.18 200.408 104.18 200.716ZM110.82 205V197.762H112.486V198.798C112.598 198.611 112.749 198.432 112.941 198.259C113.137 198.086 113.377 197.946 113.662 197.839C113.946 197.732 114.28 197.678 114.663 197.678C115.111 197.678 115.526 197.767 115.909 197.944C116.296 198.121 116.606 198.399 116.84 198.777C117.078 199.155 117.197 199.643 117.197 200.24V205H115.489V200.443C115.489 199.967 115.358 199.615 115.097 199.386C114.835 199.153 114.506 199.036 114.11 199.036C113.839 199.036 113.582 199.083 113.34 199.176C113.097 199.265 112.899 199.402 112.745 199.589C112.595 199.771 112.521 200 112.521 200.275V205H110.82ZM118.635 198.497L118.166 194.878H120.021L119.531 198.497H118.635Z" fill="black" style="fill:black;fill-opacity:1;"/>
<path d="M517.052 157.105C516.585 157.105 516.212 157.047 515.932 156.93C515.652 156.813 515.442 156.657 515.302 156.461C515.162 156.265 515.071 156.046 515.029 155.803C514.987 155.556 514.966 155.304 514.966 155.047V146.598H516.632V154.851C516.632 155.164 516.695 155.406 516.821 155.579C516.952 155.752 517.162 155.852 517.451 155.88L517.815 155.894V156.965C517.689 157.002 517.561 157.035 517.43 157.063C517.299 157.091 517.173 157.105 517.052 157.105ZM521.434 157.14C520.972 157.14 520.557 157.056 520.188 156.888C519.824 156.715 519.537 156.47 519.327 156.153C519.122 155.831 519.019 155.441 519.019 154.984C519.019 154.186 519.306 153.584 519.88 153.178C520.459 152.772 521.378 152.56 522.638 152.541L523.723 152.513V152.023C523.723 151.64 523.609 151.342 523.38 151.127C523.156 150.908 522.806 150.8 522.33 150.805C521.975 150.81 521.653 150.894 521.364 151.057C521.075 151.216 520.883 151.484 520.79 151.862H519.341C519.369 151.367 519.511 150.954 519.768 150.623C520.029 150.287 520.386 150.037 520.839 149.874C521.292 149.706 521.814 149.622 522.407 149.622C523.098 149.622 523.66 149.713 524.094 149.895C524.528 150.077 524.848 150.341 525.053 150.686C525.258 151.027 525.361 151.44 525.361 151.925V157H523.926L523.786 155.698C523.529 156.244 523.2 156.622 522.799 156.832C522.402 157.037 521.947 157.14 521.434 157.14ZM521.987 155.985C522.197 155.985 522.405 155.948 522.61 155.873C522.815 155.794 523 155.689 523.163 155.558C523.331 155.423 523.464 155.273 523.562 155.11C523.665 154.947 523.718 154.776 523.723 154.599V153.458L522.834 153.472C522.395 153.477 522.01 153.523 521.679 153.612C521.352 153.701 521.098 153.843 520.916 154.039C520.734 154.23 520.643 154.487 520.643 154.809C520.643 155.178 520.771 155.467 521.028 155.677C521.285 155.882 521.604 155.985 521.987 155.985ZM529.793 157.056C529.219 157.056 528.773 156.981 528.456 156.832C528.143 156.678 527.926 156.461 527.805 156.181C527.684 155.901 527.623 155.567 527.623 155.18V150.966H526.447V149.762H527.672L528.099 147.613H529.324V149.755H530.941V150.966H529.324L529.331 155.117C529.331 155.332 529.354 155.49 529.401 155.593C529.452 155.691 529.532 155.756 529.639 155.789C529.751 155.817 529.898 155.831 530.08 155.831H530.976V156.909C530.878 156.946 530.733 156.979 530.542 157.007C530.355 157.04 530.106 157.056 529.793 157.056ZM532.576 157V149.762H534.207V157H532.576ZM532.548 148.495V146.885H534.235V148.495H532.548ZM539.062 157.056C538.488 157.056 538.043 156.981 537.725 156.832C537.413 156.678 537.196 156.461 537.074 156.181C536.953 155.901 536.892 155.567 536.892 155.18V150.966H535.716V149.762H536.941L537.368 147.613H538.593V149.755H540.21V150.966H538.593L538.6 155.117C538.6 155.332 538.624 155.49 538.67 155.593C538.722 155.691 538.801 155.756 538.908 155.789C539.02 155.817 539.167 155.831 539.349 155.831H540.245V156.909C540.147 156.946 540.003 156.979 539.811 157.007C539.625 157.04 539.375 157.056 539.062 157.056ZM544.409 157.14C544.055 157.14 543.712 157.089 543.38 156.986C543.054 156.879 542.76 156.725 542.498 156.524C542.237 156.319 542.029 156.067 541.875 155.768C541.721 155.469 541.644 155.122 541.644 154.725V149.762H543.352V154.529C543.352 154.921 543.476 155.243 543.723 155.495C543.975 155.747 544.353 155.873 544.857 155.873C545.315 155.873 545.681 155.754 545.956 155.516C546.232 155.273 546.369 154.926 546.369 154.473V149.762H548.063V157H546.754L546.565 155.586C546.477 155.983 546.32 156.295 546.096 156.524C545.877 156.748 545.618 156.907 545.319 157C545.025 157.093 544.722 157.14 544.409 157.14ZM552.681 157.14C551.725 157.14 550.973 156.811 550.427 156.153C549.881 155.495 549.608 154.559 549.608 153.346C549.608 152.59 549.718 151.934 549.937 151.379C550.161 150.819 550.49 150.387 550.924 150.084C551.358 149.776 551.893 149.622 552.527 149.622C552.826 149.622 553.097 149.659 553.339 149.734C553.587 149.804 553.806 149.897 553.997 150.014C554.189 150.131 554.35 150.259 554.48 150.399C554.616 150.539 554.721 150.679 554.795 150.819V146.598H556.51V157H555.25L555.061 155.516C555.001 155.689 554.914 155.871 554.802 156.062C554.695 156.249 554.548 156.424 554.361 156.587C554.179 156.75 553.951 156.883 553.675 156.986C553.4 157.089 553.069 157.14 552.681 157.14ZM553.031 155.887C553.643 155.887 554.088 155.689 554.368 155.292C554.653 154.891 554.795 154.228 554.795 153.304C554.791 152.777 554.725 152.333 554.599 151.974C554.478 151.615 554.291 151.344 554.039 151.162C553.787 150.98 553.458 150.889 553.052 150.889C552.539 150.889 552.117 151.078 551.785 151.456C551.459 151.834 551.295 152.45 551.295 153.304C551.295 154.153 551.447 154.797 551.75 155.236C552.054 155.67 552.481 155.887 553.031 155.887ZM561.628 157.14C560.933 157.14 560.319 156.993 559.787 156.699C559.26 156.4 558.847 155.976 558.548 155.425C558.254 154.874 558.107 154.219 558.107 153.458C558.107 152.716 558.24 152.058 558.506 151.484C558.777 150.905 559.166 150.45 559.675 150.119C560.188 149.788 560.807 149.622 561.53 149.622C562.244 149.622 562.844 149.774 563.329 150.077C563.814 150.38 564.183 150.805 564.435 151.351C564.687 151.892 564.813 152.527 564.813 153.255V153.773H559.808C559.803 154.184 559.869 154.548 560.004 154.865C560.139 155.182 560.34 155.432 560.606 155.614C560.872 155.791 561.201 155.88 561.593 155.88C561.994 155.88 562.342 155.791 562.636 155.614C562.935 155.432 563.133 155.157 563.231 154.788H564.785C564.701 155.292 564.5 155.719 564.183 156.069C563.87 156.419 563.488 156.685 563.035 156.867C562.587 157.049 562.118 157.14 561.628 157.14ZM559.801 152.716H563.203C563.203 152.366 563.14 152.051 563.014 151.771C562.893 151.486 562.708 151.262 562.461 151.099C562.214 150.931 561.901 150.847 561.523 150.847C561.15 150.847 560.835 150.938 560.578 151.12C560.321 151.302 560.128 151.538 559.997 151.827C559.866 152.112 559.801 152.408 559.801 152.716ZM566.203 151.932V149.986H568.128V151.932H566.203ZM566.203 156.958V155.026H568.128V156.958H566.203ZM576.92 157.154C576.276 157.154 575.676 157.049 575.121 156.839C574.57 156.624 574.094 156.33 573.693 155.957C573.296 155.584 573 155.157 572.804 154.676L574.183 153.948C574.356 154.293 574.561 154.604 574.799 154.879C575.042 155.154 575.324 155.371 575.646 155.53C575.973 155.684 576.346 155.761 576.766 155.761C577.424 155.761 577.951 155.579 578.348 155.215C578.749 154.846 578.95 154.356 578.95 153.745C578.95 153.367 578.857 153.031 578.67 152.737C578.488 152.443 578.238 152.214 577.921 152.051C577.608 151.883 577.251 151.799 576.85 151.799C576.612 151.799 576.388 151.82 576.178 151.862C575.973 151.904 575.765 151.983 575.555 152.1C575.345 152.212 575.119 152.382 574.876 152.611C574.829 152.634 574.794 152.646 574.771 152.646C574.752 152.641 574.717 152.627 574.666 152.604L573.357 152.072L573.819 146.878H580.112L580.049 148.299H575.205L574.974 151.113C575.333 150.861 575.695 150.679 576.059 150.567C576.423 150.455 576.824 150.399 577.263 150.399C577.907 150.399 578.493 150.525 579.02 150.777C579.547 151.029 579.967 151.4 580.28 151.89C580.593 152.38 580.749 152.98 580.749 153.689C580.749 154.398 580.59 155.012 580.273 155.53C579.96 156.048 579.517 156.449 578.943 156.734C578.374 157.014 577.699 157.154 576.92 157.154ZM586.149 157.154C585.505 157.154 584.905 157.049 584.35 156.839C583.799 156.624 583.323 156.33 582.922 155.957C582.525 155.584 582.229 155.157 582.033 154.676L583.412 153.948C583.584 154.293 583.79 154.604 584.028 154.879C584.27 155.154 584.553 155.371 584.875 155.53C585.201 155.684 585.575 155.761 585.995 155.761C586.653 155.761 587.18 155.579 587.577 155.215C587.978 154.846 588.179 154.356 588.179 153.745C588.179 153.367 588.085 153.031 587.899 152.737C587.717 152.443 587.467 152.214 587.15 152.051C586.837 151.883 586.48 151.799 586.079 151.799C585.841 151.799 585.617 151.82 585.407 151.862C585.201 151.904 584.994 151.983 584.784 152.1C584.574 152.212 584.347 152.382 584.105 152.611C584.058 152.634 584.023 152.646 584 152.646C583.981 152.641 583.946 152.627 583.895 152.604L582.586 152.072L583.048 146.878H589.341L589.278 148.299H584.434L584.203 151.113C584.562 150.861 584.924 150.679 585.288 150.567C585.652 150.455 586.053 150.399 586.492 150.399C587.136 150.399 587.721 150.525 588.249 150.777C588.776 151.029 589.196 151.4 589.509 151.89C589.821 152.38 589.978 152.98 589.978 153.689C589.978 154.398 589.819 155.012 589.502 155.53C589.189 156.048 588.746 156.449 588.172 156.734C587.602 157.014 586.928 157.154 586.149 157.154ZM591.345 157V155.04H593.27V157H591.345ZM598.766 157.154C597.94 157.154 597.226 156.949 596.624 156.538C596.022 156.127 595.557 155.546 595.231 154.795C594.909 154.039 594.748 153.145 594.748 152.114C594.748 151.017 594.909 150.068 595.231 149.265C595.553 148.458 596.019 147.835 596.631 147.396C597.247 146.957 597.991 146.738 598.864 146.738C599.461 146.738 600.014 146.85 600.523 147.074C601.031 147.293 601.449 147.611 601.776 148.026C602.102 148.441 602.294 148.943 602.35 149.531H600.775C600.644 149.078 600.42 148.728 600.103 148.481C599.785 148.234 599.384 148.11 598.899 148.11C598.362 148.11 597.914 148.262 597.555 148.565C597.195 148.868 596.936 149.305 596.778 149.874C596.624 150.439 596.575 151.115 596.631 151.904C596.775 151.629 596.971 151.391 597.219 151.19C597.466 150.985 597.748 150.826 598.066 150.714C598.383 150.602 598.719 150.546 599.074 150.546C599.75 150.546 600.343 150.674 600.852 150.931C601.36 151.188 601.757 151.552 602.042 152.023C602.326 152.494 602.469 153.052 602.469 153.696C602.469 154.363 602.315 154.958 602.007 155.481C601.699 155.999 601.267 156.407 600.712 156.706C600.156 157.005 599.508 157.154 598.766 157.154ZM598.724 155.817C599.088 155.817 599.414 155.731 599.704 155.558C599.998 155.385 600.229 155.145 600.397 154.837C600.569 154.529 600.656 154.174 600.656 153.773C600.656 153.362 600.576 153.015 600.418 152.73C600.259 152.445 600.033 152.228 599.739 152.079C599.449 151.93 599.109 151.855 598.717 151.855C598.395 151.855 598.082 151.93 597.779 152.079C597.48 152.228 597.235 152.422 597.044 152.66C596.857 152.898 596.764 153.152 596.764 153.423C596.759 153.904 596.838 154.324 597.002 154.683C597.165 155.042 597.394 155.322 597.688 155.523C597.986 155.719 598.332 155.817 598.724 155.817ZM605.599 157V149.202H603.723V148.187C604.315 148.187 604.784 148.138 605.13 148.04C605.48 147.937 605.734 147.788 605.893 147.592C606.056 147.396 606.149 147.158 606.173 146.878H607.335V157H605.599ZM611.464 157V149.202H609.588V148.187C610.181 148.187 610.65 148.138 610.995 148.04C611.345 147.937 611.599 147.788 611.758 147.592C611.921 147.396 612.015 147.158 612.038 146.878H613.2V157H611.464ZM617.287 157C617.343 156.566 617.455 156.025 617.623 155.376C617.796 154.723 618.031 154.004 618.33 153.22C618.629 152.431 619 151.617 619.443 150.777C619.886 149.937 620.404 149.111 620.997 148.299H615.453V146.878H622.81V148.299C622.469 148.742 622.131 149.256 621.795 149.839C621.459 150.418 621.137 151.031 620.829 151.68C620.521 152.324 620.246 152.97 620.003 153.619C619.76 154.263 619.562 154.877 619.408 155.46C619.254 156.043 619.161 156.557 619.128 157H617.287ZM627.845 157.147C627.047 157.147 626.349 157.028 625.752 156.79C625.159 156.547 624.697 156.207 624.366 155.768C624.034 155.329 623.869 154.814 623.869 154.221C623.869 153.834 623.964 153.463 624.156 153.108C624.352 152.753 624.601 152.455 624.905 152.212C625.208 151.965 625.521 151.808 625.843 151.743C625.409 151.547 625.045 151.267 624.751 150.903C624.457 150.534 624.31 150.082 624.31 149.545C624.31 148.943 624.464 148.434 624.772 148.019C625.08 147.599 625.5 147.282 626.032 147.067C626.568 146.848 627.173 146.738 627.845 146.738C628.517 146.738 629.119 146.848 629.651 147.067C630.183 147.282 630.603 147.599 630.911 148.019C631.223 148.434 631.38 148.943 631.38 149.545C631.38 150.082 631.235 150.534 630.946 150.903C630.656 151.267 630.29 151.547 629.847 151.743C630.169 151.808 630.481 151.965 630.785 152.212C631.088 152.455 631.338 152.753 631.534 153.108C631.73 153.463 631.828 153.834 631.828 154.221C631.828 154.814 631.662 155.329 631.331 155.768C631.004 156.207 630.54 156.547 629.938 156.79C629.34 157.028 628.643 157.147 627.845 157.147ZM627.845 155.831C628.512 155.831 629.039 155.682 629.427 155.383C629.814 155.084 630.008 154.685 630.008 154.186C630.008 153.855 629.919 153.563 629.742 153.311C629.564 153.054 629.315 152.854 628.993 152.709C628.671 152.564 628.288 152.492 627.845 152.492C627.406 152.492 627.023 152.564 626.697 152.709C626.375 152.854 626.125 153.054 625.948 153.311C625.775 153.563 625.689 153.855 625.689 154.186C625.689 154.685 625.882 155.084 626.27 155.383C626.662 155.682 627.187 155.831 627.845 155.831ZM627.845 151.064C628.377 151.064 628.811 150.929 629.147 150.658C629.487 150.383 629.658 150 629.658 149.51C629.658 149.025 629.487 148.64 629.147 148.355C628.806 148.07 628.372 147.928 627.845 147.928C627.317 147.928 626.881 148.07 626.536 148.355C626.195 148.64 626.025 149.025 626.025 149.51C626.025 150 626.195 150.383 626.536 150.658C626.881 150.929 627.317 151.064 627.845 151.064ZM637.753 157L637.76 154.599H633.049V153.15L637.711 146.878H639.405V153.15H641.022V154.599H639.405V157H637.753ZM634.645 153.15H637.746V148.992L634.645 153.15ZM517.052 181.105C516.585 181.105 516.212 181.047 515.932 180.93C515.652 180.813 515.442 180.657 515.302 180.461C515.162 180.265 515.071 180.046 515.029 179.803C514.987 179.556 514.966 179.304 514.966 179.047V170.598H516.632V178.851C516.632 179.164 516.695 179.406 516.821 179.579C516.952 179.752 517.162 179.852 517.451 179.88L517.815 179.894V180.965C517.689 181.002 517.561 181.035 517.43 181.063C517.299 181.091 517.173 181.105 517.052 181.105ZM522.065 181.14C521.374 181.14 520.772 180.993 520.259 180.699C519.745 180.4 519.346 179.973 519.062 179.418C518.782 178.863 518.642 178.195 518.642 177.416C518.642 176.66 518.779 175.997 519.055 175.428C519.33 174.859 519.722 174.415 520.231 174.098C520.744 173.781 521.358 173.622 522.072 173.622C522.762 173.622 523.362 173.774 523.871 174.077C524.379 174.38 524.771 174.814 525.047 175.379C525.327 175.944 525.467 176.623 525.467 177.416C525.467 178.149 525.334 178.795 525.068 179.355C524.806 179.91 524.421 180.347 523.913 180.664C523.409 180.981 522.793 181.14 522.065 181.14ZM522.072 179.845C522.464 179.845 522.786 179.738 523.038 179.523C523.294 179.308 523.486 179.014 523.612 178.641C523.738 178.268 523.801 177.843 523.801 177.367C523.801 176.924 523.745 176.515 523.633 176.142C523.521 175.769 523.336 175.47 523.08 175.246C522.828 175.017 522.492 174.903 522.072 174.903C521.675 174.903 521.346 175.008 521.085 175.218C520.828 175.423 520.637 175.713 520.511 176.086C520.385 176.455 520.322 176.882 520.322 177.367C520.322 177.806 520.378 178.214 520.49 178.592C520.602 178.965 520.786 179.269 521.043 179.502C521.299 179.731 521.642 179.845 522.072 179.845ZM527.025 181V173.762H528.691V174.798C528.803 174.611 528.954 174.432 529.146 174.259C529.342 174.086 529.582 173.946 529.867 173.839C530.151 173.732 530.485 173.678 530.868 173.678C531.316 173.678 531.731 173.767 532.114 173.944C532.501 174.121 532.811 174.399 533.045 174.777C533.283 175.155 533.402 175.643 533.402 176.24V181H531.694V176.443C531.694 175.967 531.563 175.615 531.302 175.386C531.04 175.153 530.711 175.036 530.315 175.036C530.044 175.036 529.787 175.083 529.545 175.176C529.302 175.265 529.104 175.402 528.95 175.589C528.8 175.771 528.726 176 528.726 176.275V181H527.025ZM538.448 183.394C537.23 183.394 536.294 183.231 535.641 182.904C534.987 182.577 534.661 182.129 534.661 181.56C534.661 181.303 534.724 181.089 534.85 180.916C534.976 180.743 535.125 180.601 535.298 180.489C535.47 180.377 535.629 180.291 535.774 180.23C535.918 180.169 536.012 180.125 536.054 180.097C535.974 180.05 535.869 179.99 535.739 179.915C535.608 179.84 535.489 179.738 535.382 179.607C535.279 179.476 535.228 179.306 535.228 179.096C535.228 178.853 535.342 178.629 535.571 178.424C535.804 178.219 536.152 178.072 536.614 177.983C536.161 177.764 535.813 177.467 535.571 177.094C535.328 176.721 535.207 176.333 535.207 175.932C535.207 175.456 535.344 175.048 535.62 174.707C535.9 174.366 536.287 174.105 536.782 173.923C537.276 173.741 537.853 173.65 538.511 173.65C538.991 173.65 539.39 173.704 539.708 173.811C540.03 173.918 540.328 174.063 540.604 174.245C540.697 174.208 540.828 174.156 540.996 174.091C541.164 174.021 541.348 173.946 541.549 173.867C541.749 173.783 541.943 173.704 542.13 173.629C542.316 173.55 542.473 173.484 542.599 173.433L542.592 174.84L541.339 175.064C541.399 175.199 541.446 175.346 541.479 175.505C541.516 175.664 541.535 175.804 541.535 175.925C541.535 176.345 541.416 176.735 541.178 177.094C540.944 177.449 540.592 177.733 540.121 177.948C539.654 178.163 539.071 178.27 538.371 178.27C538.301 178.27 538.205 178.268 538.084 178.263C537.962 178.258 537.864 178.254 537.79 178.249C537.412 178.263 537.153 178.307 537.013 178.382C536.873 178.457 536.803 178.538 536.803 178.627C536.803 178.753 536.908 178.837 537.118 178.879C537.328 178.921 537.664 178.958 538.126 178.991C538.289 179 538.504 179.012 538.77 179.026C539.036 179.04 539.332 179.059 539.659 179.082C540.485 179.133 541.11 179.341 541.535 179.705C541.959 180.064 542.172 180.531 542.172 181.105C542.172 181.772 541.864 182.321 541.248 182.75C540.632 183.179 539.698 183.394 538.448 183.394ZM538.735 182.393C539.346 182.393 539.799 182.309 540.093 182.141C540.387 181.973 540.534 181.726 540.534 181.399C540.534 181.147 540.433 180.942 540.233 180.783C540.032 180.624 539.733 180.531 539.337 180.503L537.51 180.391C537.309 180.377 537.118 180.414 536.936 180.503C536.758 180.587 536.614 180.706 536.502 180.86C536.39 181.009 536.334 181.175 536.334 181.357C536.334 181.698 536.527 181.954 536.915 182.127C537.307 182.304 537.913 182.393 538.735 182.393ZM538.427 177.269C538.87 177.269 539.229 177.157 539.505 176.933C539.78 176.704 539.918 176.382 539.918 175.967C539.918 175.538 539.78 175.204 539.505 174.966C539.229 174.723 538.87 174.602 538.427 174.602C537.974 174.602 537.608 174.723 537.328 174.966C537.052 175.209 536.915 175.542 536.915 175.967C536.915 176.368 537.048 176.686 537.314 176.919C537.58 177.152 537.951 177.269 538.427 177.269ZM544.019 181V173.762H545.65V181H544.019ZM543.991 172.495V170.885H545.678V172.495H543.991ZM550.506 181.056C549.932 181.056 549.486 180.981 549.169 180.832C548.856 180.678 548.639 180.461 548.518 180.181C548.396 179.901 548.336 179.567 548.336 179.18V174.966H547.16V173.762H548.385L548.812 171.613H550.037V173.755H551.654V174.966H550.037L550.044 179.117C550.044 179.332 550.067 179.49 550.114 179.593C550.165 179.691 550.244 179.756 550.352 179.789C550.464 179.817 550.611 179.831 550.793 179.831H551.689V180.909C551.591 180.946 551.446 180.979 551.255 181.007C551.068 181.04 550.818 181.056 550.506 181.056ZM555.853 181.14C555.498 181.14 555.155 181.089 554.824 180.986C554.497 180.879 554.203 180.725 553.942 180.524C553.68 180.319 553.473 180.067 553.319 179.768C553.165 179.469 553.088 179.122 553.088 178.725V173.762H554.796V178.529C554.796 178.921 554.919 179.243 555.167 179.495C555.419 179.747 555.797 179.873 556.301 179.873C556.758 179.873 557.124 179.754 557.4 179.516C557.675 179.273 557.813 178.926 557.813 178.473V173.762H559.507V181H558.198L558.009 179.586C557.92 179.983 557.764 180.295 557.54 180.524C557.32 180.748 557.061 180.907 556.763 181C556.469 181.093 556.165 181.14 555.853 181.14ZM564.125 181.14C563.168 181.14 562.417 180.811 561.871 180.153C561.325 179.495 561.052 178.559 561.052 177.346C561.052 176.59 561.161 175.934 561.381 175.379C561.605 174.819 561.934 174.387 562.368 174.084C562.802 173.776 563.336 173.622 563.971 173.622C564.269 173.622 564.54 173.659 564.783 173.734C565.03 173.804 565.249 173.897 565.441 174.014C565.632 174.131 565.793 174.259 565.924 174.399C566.059 174.539 566.164 174.679 566.239 174.819V170.598H567.954V181H566.694L566.505 179.516C566.444 179.689 566.358 179.871 566.246 180.062C566.138 180.249 565.991 180.424 565.805 180.587C565.623 180.75 565.394 180.883 565.119 180.986C564.843 181.089 564.512 181.14 564.125 181.14ZM564.475 179.887C565.086 179.887 565.532 179.689 565.812 179.292C566.096 178.891 566.239 178.228 566.239 177.304C566.234 176.777 566.169 176.333 566.043 175.974C565.921 175.615 565.735 175.344 565.483 175.162C565.231 174.98 564.902 174.889 564.496 174.889C563.982 174.889 563.56 175.078 563.229 175.456C562.902 175.834 562.739 176.45 562.739 177.304C562.739 178.153 562.89 178.797 563.194 179.236C563.497 179.67 563.924 179.887 564.475 179.887ZM573.071 181.14C572.376 181.14 571.762 180.993 571.23 180.699C570.703 180.4 570.29 179.976 569.991 179.425C569.697 178.874 569.55 178.219 569.55 177.458C569.55 176.716 569.683 176.058 569.949 175.484C570.22 174.905 570.61 174.45 571.118 174.119C571.632 173.788 572.25 173.622 572.973 173.622C573.687 173.622 574.287 173.774 574.772 174.077C575.258 174.38 575.626 174.805 575.878 175.351C576.13 175.892 576.256 176.527 576.256 177.255V177.773H571.251C571.247 178.184 571.312 178.548 571.447 178.865C571.583 179.182 571.783 179.432 572.049 179.614C572.315 179.791 572.644 179.88 573.036 179.88C573.438 179.88 573.785 179.791 574.079 179.614C574.378 179.432 574.576 179.157 574.674 178.788H576.228C576.144 179.292 575.944 179.719 575.626 180.069C575.314 180.419 574.931 180.685 574.478 180.867C574.03 181.049 573.561 181.14 573.071 181.14ZM571.244 176.716H574.646C574.646 176.366 574.583 176.051 574.457 175.771C574.336 175.486 574.152 175.262 573.904 175.099C573.657 174.931 573.344 174.847 572.966 174.847C572.593 174.847 572.278 174.938 572.021 175.12C571.765 175.302 571.571 175.538 571.44 175.827C571.31 176.112 571.244 176.408 571.244 176.716ZM577.646 175.932V173.986H579.571V175.932H577.646ZM577.646 180.958V179.026H579.571V180.958H577.646ZM586.103 181V173.202H584.227V172.187C584.819 172.187 585.288 172.138 585.634 172.04C585.984 171.937 586.238 171.788 586.397 171.592C586.56 171.396 586.653 171.158 586.677 170.878H587.839V181H586.103ZM590.295 181V180.09V179.621C590.295 179.103 590.39 178.657 590.582 178.284C590.773 177.906 591.027 177.577 591.345 177.297C591.662 177.017 592.01 176.77 592.388 176.555C592.77 176.336 593.148 176.13 593.522 175.939C593.9 175.743 594.247 175.542 594.565 175.337C594.882 175.127 595.136 174.894 595.328 174.637C595.524 174.38 595.622 174.075 595.622 173.72C595.622 173.267 595.461 172.899 595.139 172.614C594.821 172.325 594.39 172.18 593.844 172.18C593.265 172.18 592.787 172.346 592.409 172.677C592.035 173.008 591.814 173.475 591.744 174.077H590.092C590.101 173.461 590.248 172.901 590.533 172.397C590.817 171.893 591.24 171.492 591.8 171.193C592.36 170.89 593.057 170.738 593.893 170.738C594.616 170.738 595.239 170.864 595.762 171.116C596.289 171.363 596.695 171.711 596.98 172.159C597.269 172.602 597.414 173.12 597.414 173.713C597.414 174.231 597.318 174.674 597.127 175.043C596.94 175.412 596.69 175.731 596.378 176.002C596.07 176.268 595.729 176.504 595.356 176.709C594.987 176.914 594.616 177.108 594.243 177.29C593.874 177.467 593.533 177.654 593.221 177.85C592.913 178.041 592.663 178.261 592.472 178.508C592.285 178.755 592.192 179.052 592.192 179.397V179.544H597.435V181H590.295ZM598.837 181V179.04H600.762V181H598.837ZM605.803 181.154C605.21 181.154 604.655 181.04 604.137 180.811C603.619 180.582 603.192 180.258 602.856 179.838C602.52 179.418 602.324 178.923 602.268 178.354H603.899C603.997 178.779 604.209 179.124 604.536 179.39C604.862 179.651 605.264 179.782 605.74 179.782C606.276 179.782 606.741 179.649 607.133 179.383C607.529 179.117 607.826 178.699 608.022 178.13C608.218 177.561 608.29 176.821 608.239 175.911C608.113 176.21 607.928 176.471 607.686 176.695C607.448 176.919 607.163 177.094 606.832 177.22C606.505 177.341 606.141 177.402 605.74 177.402C605.063 177.402 604.463 177.274 603.941 177.017C603.423 176.756 603.017 176.385 602.723 175.904C602.429 175.419 602.282 174.845 602.282 174.182C602.282 173.51 602.431 172.915 602.73 172.397C603.033 171.879 603.458 171.473 604.004 171.179C604.554 170.885 605.201 170.738 605.943 170.738C606.769 170.738 607.483 170.941 608.085 171.347C608.687 171.753 609.149 172.332 609.471 173.083C609.797 173.834 609.961 174.726 609.961 175.757C609.961 176.933 609.795 177.922 609.464 178.725C609.137 179.523 608.663 180.127 608.043 180.538C607.427 180.949 606.68 181.154 605.803 181.154ZM605.992 176.016C606.318 176.016 606.631 175.941 606.93 175.792C607.228 175.643 607.473 175.449 607.665 175.211C607.856 174.973 607.952 174.721 607.952 174.455C607.956 173.97 607.877 173.55 607.714 173.195C607.55 172.836 607.319 172.558 607.021 172.362C606.727 172.161 606.381 172.061 605.985 172.061C605.625 172.061 605.303 172.147 605.019 172.32C604.739 172.493 604.519 172.733 604.361 173.041C604.202 173.344 604.123 173.697 604.123 174.098C604.123 174.695 604.288 175.164 604.62 175.505C604.951 175.846 605.408 176.016 605.992 176.016ZM614.73 181.154C614.138 181.154 613.582 181.04 613.064 180.811C612.546 180.582 612.119 180.258 611.783 179.838C611.447 179.418 611.251 178.923 611.195 178.354H612.826C612.924 178.779 613.137 179.124 613.463 179.39C613.79 179.651 614.191 179.782 614.667 179.782C615.204 179.782 615.668 179.649 616.06 179.383C616.457 179.117 616.753 178.699 616.949 178.13C617.145 177.561 617.218 176.821 617.166 175.911C617.04 176.21 616.856 176.471 616.613 176.695C616.375 176.919 616.091 177.094 615.759 177.22C615.433 177.341 615.069 177.402 614.667 177.402C613.991 177.402 613.391 177.274 612.868 177.017C612.35 176.756 611.944 176.385 611.65 175.904C611.356 175.419 611.209 174.845 611.209 174.182C611.209 173.51 611.359 172.915 611.657 172.397C611.961 171.879 612.385 171.473 612.931 171.179C613.482 170.885 614.128 170.738 614.87 170.738C615.696 170.738 616.41 170.941 617.012 171.347C617.614 171.753 618.076 172.332 618.398 173.083C618.725 173.834 618.888 174.726 618.888 175.757C618.888 176.933 618.723 177.922 618.391 178.725C618.065 179.523 617.591 180.127 616.97 180.538C616.354 180.949 615.608 181.154 614.73 181.154ZM614.919 176.016C615.246 176.016 615.559 175.941 615.857 175.792C616.156 175.643 616.401 175.449 616.592 175.211C616.784 174.973 616.879 174.721 616.879 174.455C616.884 173.97 616.805 173.55 616.641 173.195C616.478 172.836 616.247 172.558 615.948 172.362C615.654 172.161 615.309 172.061 614.912 172.061C614.553 172.061 614.231 172.147 613.946 172.32C613.666 172.493 613.447 172.733 613.288 173.041C613.13 173.344 613.05 173.697 613.05 174.098C613.05 174.695 613.216 175.164 613.547 175.505C613.879 175.846 614.336 176.016 614.919 176.016ZM624.806 181L624.813 178.599H620.102V177.15L624.764 170.878H626.458V177.15H628.075V178.599H626.458V181H624.806ZM621.698 177.15H624.799V172.992L621.698 177.15ZM632.863 181.154C632.103 181.149 631.447 181.019 630.896 180.762C630.346 180.505 629.916 180.139 629.608 179.663C629.305 179.187 629.146 178.622 629.132 177.969H630.791C630.889 178.571 631.127 179.019 631.505 179.313C631.888 179.602 632.352 179.747 632.898 179.747C633.351 179.747 633.743 179.679 634.074 179.544C634.406 179.404 634.66 179.213 634.837 178.97C635.019 178.727 635.11 178.445 635.11 178.123C635.11 177.782 635.012 177.491 634.816 177.248C634.625 177.005 634.361 176.819 634.025 176.688C633.689 176.557 633.311 176.487 632.891 176.478L631.953 176.45V175.064L632.821 175.029C633.223 175.015 633.575 174.938 633.878 174.798C634.186 174.658 634.427 174.474 634.599 174.245C634.772 174.016 634.858 173.76 634.858 173.475C634.858 173.214 634.777 172.978 634.613 172.768C634.455 172.558 634.228 172.395 633.934 172.278C633.64 172.157 633.293 172.096 632.891 172.096C632.551 172.096 632.231 172.157 631.932 172.278C631.634 172.399 631.386 172.595 631.19 172.866C630.999 173.132 630.894 173.482 630.875 173.916H629.223C629.223 173.225 629.389 172.644 629.72 172.173C630.052 171.697 630.495 171.34 631.05 171.102C631.61 170.859 632.231 170.738 632.912 170.738C633.645 170.738 634.294 170.838 634.858 171.039C635.428 171.235 635.873 171.531 636.195 171.928C636.522 172.325 636.685 172.817 636.685 173.405C636.685 173.904 636.534 174.35 636.23 174.742C635.927 175.134 635.449 175.442 634.795 175.666C635.201 175.778 635.565 175.946 635.887 176.17C636.209 176.389 636.464 176.665 636.65 176.996C636.842 177.327 636.937 177.717 636.937 178.165C636.937 178.646 636.832 179.073 636.622 179.446C636.417 179.819 636.128 180.134 635.754 180.391C635.386 180.643 634.954 180.834 634.459 180.965C633.965 181.091 633.433 181.154 632.863 181.154ZM642.866 181L642.873 178.599H638.162V177.15L642.824 170.878H644.518V177.15H646.135V178.599H644.518V181H642.866ZM639.758 177.15H642.859V172.992L639.758 177.15ZM649.048 181V173.202H647.172V172.187C647.764 172.187 648.233 172.138 648.579 172.04C648.929 171.937 649.183 171.788 649.342 171.592C649.505 171.396 649.598 171.158 649.622 170.878H650.784V181H649.048ZM518.004 205.14C517.341 205.14 516.751 204.995 516.233 204.706C515.72 204.412 515.316 203.987 515.022 203.432C514.728 202.872 514.581 202.198 514.581 201.409C514.581 200.658 514.719 200 514.994 199.435C515.274 198.866 515.668 198.422 516.177 198.105C516.69 197.783 517.299 197.622 518.004 197.622C518.569 197.622 519.066 197.734 519.495 197.958C519.924 198.182 520.267 198.492 520.524 198.889C520.785 199.286 520.942 199.736 520.993 200.24H519.544C519.507 200.021 519.425 199.813 519.299 199.617C519.173 199.416 519.003 199.255 518.788 199.134C518.578 199.008 518.321 198.945 518.018 198.945C517.472 198.945 517.031 199.146 516.695 199.547C516.359 199.948 516.191 200.564 516.191 201.395C516.191 202.16 516.35 202.769 516.667 203.222C516.989 203.675 517.449 203.901 518.046 203.901C518.345 203.901 518.601 203.836 518.816 203.705C519.031 203.57 519.199 203.404 519.32 203.208C519.446 203.007 519.525 202.807 519.558 202.606H520.972C520.93 203.096 520.778 203.532 520.517 203.915C520.256 204.298 519.91 204.599 519.481 204.818C519.052 205.033 518.559 205.14 518.004 205.14ZM522.568 205V197.762H524.199V205H522.568ZM522.54 196.495V194.885H524.227V196.495H522.54ZM529.055 205.056C528.481 205.056 528.035 204.981 527.718 204.832C527.405 204.678 527.188 204.461 527.067 204.181C526.945 203.901 526.885 203.567 526.885 203.18V198.966H525.709V197.762H526.934L527.361 195.613H528.586V197.755H530.203V198.966H528.586L528.593 203.117C528.593 203.332 528.616 203.49 528.663 203.593C528.714 203.691 528.793 203.756 528.901 203.789C529.013 203.817 529.16 203.831 529.342 203.831H530.238V204.909C530.14 204.946 529.995 204.979 529.804 205.007C529.617 205.04 529.367 205.056 529.055 205.056ZM532.755 207.31C532.288 207.31 531.964 207.273 531.782 207.198C531.6 207.128 531.509 207.093 531.509 207.093V206.001L532.237 206.022C532.531 206.036 532.769 206.02 532.951 205.973C533.137 205.926 533.282 205.861 533.385 205.777C533.487 205.698 533.562 205.611 533.609 205.518C533.66 205.429 533.7 205.352 533.728 205.287L533.917 204.755L531.096 197.762H532.79L534.715 202.879L536.633 197.762H538.299L535.317 205.266C535.093 205.812 534.85 206.232 534.589 206.526C534.332 206.825 534.05 207.03 533.742 207.142C533.438 207.254 533.109 207.31 532.755 207.31ZM539.283 199.932V197.986H541.208V199.932H539.283ZM539.283 204.958V203.026H541.208V204.958H539.283ZM546.57 198.497L546.101 194.878H547.956L547.466 198.497H546.57ZM550.034 205V194.878H552.47L555.123 202.613L557.804 194.878H560.226V205H558.497V197.062L555.83 205H554.409L551.763 197.111V205H550.034ZM564.487 205.14C564.025 205.14 563.609 205.056 563.241 204.888C562.877 204.715 562.59 204.47 562.38 204.153C562.174 203.831 562.072 203.441 562.072 202.984C562.072 202.186 562.359 201.584 562.933 201.178C563.511 200.772 564.431 200.56 565.691 200.541L566.776 200.513V200.023C566.776 199.64 566.661 199.342 566.433 199.127C566.209 198.908 565.859 198.8 565.383 198.805C565.028 198.81 564.706 198.894 564.417 199.057C564.127 199.216 563.936 199.484 563.843 199.862H562.394C562.422 199.367 562.564 198.954 562.821 198.623C563.082 198.287 563.439 198.037 563.892 197.874C564.344 197.706 564.867 197.622 565.46 197.622C566.15 197.622 566.713 197.713 567.147 197.895C567.581 198.077 567.9 198.341 568.106 198.686C568.311 199.027 568.414 199.44 568.414 199.925V205H566.979L566.839 203.698C566.582 204.244 566.253 204.622 565.852 204.832C565.455 205.037 565 205.14 564.487 205.14ZM565.04 203.985C565.25 203.985 565.457 203.948 565.663 203.873C565.868 203.794 566.052 203.689 566.216 203.558C566.384 203.423 566.517 203.273 566.615 203.11C566.717 202.947 566.771 202.776 566.776 202.599V201.458L565.887 201.472C565.448 201.477 565.063 201.523 564.732 201.612C564.405 201.701 564.151 201.843 563.969 202.039C563.787 202.23 563.696 202.487 563.696 202.809C563.696 203.178 563.824 203.467 564.081 203.677C564.337 203.882 564.657 203.985 565.04 203.985ZM572.314 205.105C571.847 205.105 571.474 205.047 571.194 204.93C570.914 204.813 570.704 204.657 570.564 204.461C570.424 204.265 570.333 204.046 570.291 203.803C570.249 203.556 570.228 203.304 570.228 203.047V194.598H571.894V202.851C571.894 203.164 571.957 203.406 572.083 203.579C572.213 203.752 572.423 203.852 572.713 203.88L573.077 203.894V204.965C572.951 205.002 572.822 205.035 572.692 205.063C572.561 205.091 572.435 205.105 572.314 205.105ZM574.603 205V197.762H576.262V198.798C576.472 198.481 576.756 198.205 577.116 197.972C577.48 197.739 577.942 197.622 578.502 197.622C578.758 197.622 579.017 197.666 579.279 197.755C579.545 197.844 579.79 197.974 580.014 198.147C580.242 198.32 580.424 198.534 580.56 198.791C580.788 198.45 581.092 198.17 581.47 197.951C581.852 197.732 582.282 197.622 582.758 197.622C583.019 197.622 583.287 197.664 583.563 197.748C583.843 197.832 584.099 197.972 584.333 198.168C584.566 198.364 584.755 198.632 584.9 198.973C585.044 199.309 585.117 199.731 585.117 200.24V205H583.416V200.443C583.416 200.084 583.353 199.801 583.227 199.596C583.101 199.391 582.937 199.246 582.737 199.162C582.541 199.073 582.331 199.029 582.107 199.029C581.906 199.029 581.696 199.069 581.477 199.148C581.262 199.227 581.078 199.358 580.924 199.54C580.774 199.722 580.7 199.967 580.7 200.275V205H578.999V200.17C578.999 199.918 578.933 199.708 578.803 199.54C578.672 199.372 578.506 199.246 578.306 199.162C578.11 199.073 577.909 199.029 577.704 199.029C577.494 199.029 577.279 199.073 577.06 199.162C576.845 199.251 576.665 199.386 576.521 199.568C576.376 199.75 576.304 199.986 576.304 200.275V205H574.603ZM589.986 205.14C589.296 205.14 588.694 204.993 588.18 204.699C587.667 204.4 587.268 203.973 586.983 203.418C586.703 202.863 586.563 202.195 586.563 201.416C586.563 200.66 586.701 199.997 586.976 199.428C587.252 198.859 587.644 198.415 588.152 198.098C588.666 197.781 589.279 197.622 589.993 197.622C590.684 197.622 591.284 197.774 591.792 198.077C592.301 198.38 592.693 198.814 592.968 199.379C593.248 199.944 593.388 200.623 593.388 201.416C593.388 202.149 593.255 202.795 592.989 203.355C592.728 203.91 592.343 204.347 591.834 204.664C591.33 204.981 590.714 205.14 589.986 205.14ZM589.993 203.845C590.385 203.845 590.707 203.738 590.959 203.523C591.216 203.308 591.407 203.014 591.533 202.641C591.659 202.268 591.722 201.843 591.722 201.367C591.722 200.924 591.666 200.515 591.554 200.142C591.442 199.769 591.258 199.47 591.001 199.246C590.749 199.017 590.413 198.903 589.993 198.903C589.597 198.903 589.268 199.008 589.006 199.218C588.75 199.423 588.558 199.713 588.432 200.086C588.306 200.455 588.243 200.882 588.243 201.367C588.243 201.806 588.299 202.214 588.411 202.592C588.523 202.965 588.708 203.269 588.964 203.502C589.221 203.731 589.564 203.845 589.993 203.845ZM590.679 196.355L590.693 194.878H592.317L592.296 196.355H590.679ZM587.662 196.355L587.676 194.878H589.3L589.279 196.355H587.662ZM594.422 198.497L593.953 194.878H595.808L595.318 198.497H594.422Z" fill="black" style="fill:black;fill-opacity:1;"/>
<path d="M519 64C519 28.6538 547.654 0 583 0C618.346 0 647 28.6538 647 64C647 99.3462 618.346 128 583 128C547.654 128 519 99.3462 519 64Z" fill="#ECB4C9" style="fill:#ECB4C9;fill:color(display-p3 0.9255 0.7059 0.7882);fill-opacity:1;"/>
<path d="M568.205 69.14C567.304 69.14 566.525 68.937 565.867 68.531C565.209 68.125 564.7 67.537 564.341 66.767C563.986 65.9923 563.809 65.0567 563.809 63.96C563.809 62.854 563.988 61.9137 564.348 61.139C564.707 60.3597 565.216 59.7647 565.874 59.354C566.536 58.9433 567.313 58.738 568.205 58.738C569.101 58.738 569.875 58.9433 570.529 59.354C571.182 59.76 571.686 60.3527 572.041 61.132C572.395 61.9067 572.573 62.8493 572.573 63.96C572.573 65.0567 572.395 65.9923 572.041 66.767C571.691 67.537 571.189 68.125 570.536 68.531C569.882 68.937 569.105 69.14 568.205 69.14ZM568.205 68.013C568.83 68.013 569.362 67.8707 569.801 67.586C570.239 67.3013 570.573 66.8603 570.802 66.263C571.035 65.6657 571.152 64.9027 571.152 63.974C571.152 63.0313 571.035 62.2567 570.802 61.65C570.568 61.0433 570.232 60.5953 569.794 60.306C569.355 60.012 568.825 59.865 568.205 59.865C567.589 59.865 567.059 60.012 566.616 60.306C566.172 60.6 565.832 61.0503 565.594 61.657C565.356 62.2637 565.237 63.036 565.237 63.974C565.237 64.9027 565.356 65.6657 565.594 66.263C565.832 66.8603 566.172 67.3013 566.616 67.586C567.059 67.8707 567.589 68.013 568.205 68.013ZM575.371 69V62.707H573.838V61.762H575.371V60.642C575.371 60.068 575.516 59.6317 575.805 59.333C576.099 59.0297 576.538 58.878 577.121 58.878H578.486L578.493 59.795H577.415C577.116 59.795 576.913 59.8743 576.806 60.033C576.699 60.1917 576.645 60.432 576.645 60.754V61.762H578.423V62.707H576.666V69H575.371ZM580.471 69V62.707H578.938V61.762H580.471V60.642C580.471 60.068 580.615 59.6317 580.905 59.333C581.199 59.0297 581.637 58.878 582.221 58.878H583.586L583.593 59.795H582.515C582.216 59.795 582.013 59.8743 581.906 60.033C581.798 60.1917 581.745 60.432 581.745 60.754V61.762H583.523V62.707H581.766V69H580.471ZM585.084 69V61.762H586.337V69H585.084ZM585.049 60.229V58.885H586.372V60.229H585.049ZM591.426 69.14C590.773 69.14 590.194 68.9977 589.69 68.713C589.191 68.4283 588.799 68.0083 588.514 67.453C588.234 66.8977 588.094 66.2163 588.094 65.409C588.094 64.653 588.223 63.9927 588.479 63.428C588.741 62.8587 589.119 62.4153 589.613 62.098C590.113 61.7807 590.717 61.622 591.426 61.622C591.944 61.622 592.409 61.7223 592.819 61.923C593.235 62.119 593.575 62.399 593.841 62.763C594.107 63.127 594.271 63.5563 594.331 64.051H593.183C593.141 63.799 593.043 63.568 592.889 63.358C592.74 63.148 592.542 62.98 592.294 62.854C592.052 62.728 591.765 62.665 591.433 62.665C590.813 62.665 590.306 62.889 589.914 63.337C589.527 63.785 589.333 64.471 589.333 65.395C589.333 66.2303 589.511 66.9 589.865 67.404C590.225 67.9033 590.752 68.153 591.447 68.153C591.779 68.153 592.068 68.09 592.315 67.964C592.563 67.8333 592.761 67.663 592.91 67.453C593.06 67.2383 593.155 67.0097 593.197 66.767H594.324C594.264 67.2523 594.098 67.6723 593.827 68.027C593.561 68.3817 593.221 68.657 592.805 68.853C592.395 69.0443 591.935 69.14 591.426 69.14ZM599.148 69.14C598.476 69.14 597.883 68.993 597.37 68.699C596.856 68.405 596.455 67.9827 596.166 67.432C595.876 66.8813 595.732 66.221 595.732 65.451C595.732 64.6903 595.862 64.023 596.124 63.449C596.385 62.875 596.763 62.427 597.258 62.105C597.757 61.783 598.357 61.622 599.057 61.622C599.738 61.622 600.314 61.769 600.786 62.063C601.257 62.357 601.614 62.7723 601.857 63.309C602.104 63.841 602.228 64.4733 602.228 65.206V65.682H597.041C597.041 66.1393 597.115 66.5547 597.265 66.928C597.419 67.2967 597.65 67.5907 597.958 67.81C598.266 68.0293 598.655 68.139 599.127 68.139C599.589 68.139 599.985 68.0317 600.317 67.817C600.653 67.6023 600.867 67.292 600.961 66.886H602.179C602.095 67.376 601.899 67.789 601.591 68.125C601.287 68.461 600.921 68.7153 600.492 68.888C600.067 69.056 599.619 69.14 599.148 69.14ZM597.048 64.807H600.982C600.982 64.3917 600.912 64.0183 600.772 63.687C600.632 63.351 600.417 63.0873 600.128 62.896C599.843 62.7 599.484 62.602 599.05 62.602C598.597 62.602 598.221 62.7117 597.923 62.931C597.624 63.1457 597.402 63.4233 597.258 63.764C597.113 64.1 597.043 64.4477 597.048 64.807Z" fill="#1A1B1D" style="fill:#1A1B1D;fill:color(display-p3 0.1020 0.1059 0.1137);fill-opacity:1;"/>
<path d="M0 64C0 28.6538 28.6538 0 64 0C99.3462 0 128 28.6538 128 64C128 99.3462 99.3462 128 64 128C28.6538 128 0 99.3462 0 64Z" fill="#FFDF81" style="fill:#FFDF81;fill:color(display-p3 1.0000 0.8745 0.5059);fill-opacity:1;"/>
<path d="M27.9631 69V60.068H24.6941V58.878H32.3521V60.068H29.2651V69H27.9631ZM33.3044 69V61.762H34.5364V63.155C34.6577 62.8097 34.8281 62.525 35.0474 62.301C35.2667 62.0723 35.5164 61.902 35.7964 61.79C36.0811 61.678 36.3751 61.622 36.6784 61.622C36.7857 61.622 36.8907 61.629 36.9934 61.643C37.0961 61.657 37.1754 61.6803 37.2314 61.713V62.966C37.1614 62.9333 37.0704 62.9123 36.9584 62.903C36.8511 62.889 36.7601 62.882 36.6854 62.882C36.3961 62.8633 36.1254 62.882 35.8734 62.938C35.6214 62.9893 35.3997 63.0803 35.2084 63.211C35.0171 63.3417 34.8654 63.5143 34.7534 63.729C34.6461 63.939 34.5924 64.1957 34.5924 64.499V69H33.3044ZM40.5434 69.14C40.072 69.14 39.6567 69.0583 39.2974 68.895C38.9427 68.727 38.6627 68.4867 38.4574 68.174C38.2567 67.8613 38.1564 67.4833 38.1564 67.04C38.1564 66.2373 38.4364 65.64 38.9964 65.248C39.5564 64.856 40.4547 64.646 41.6914 64.618L42.9794 64.583V64.016C42.9794 63.5727 42.8464 63.2227 42.5804 62.966C42.3144 62.7047 41.9037 62.574 41.3484 62.574C40.933 62.5787 40.5667 62.6767 40.2494 62.868C39.932 63.0593 39.729 63.372 39.6404 63.806H38.4994C38.5274 63.3347 38.658 62.938 38.8914 62.616C39.1294 62.2893 39.463 62.042 39.8924 61.874C40.3217 61.706 40.828 61.622 41.4114 61.622C42.0414 61.622 42.564 61.7107 42.9794 61.888C43.3994 62.0653 43.712 62.3267 43.9174 62.672C44.1274 63.0173 44.2324 63.442 44.2324 63.946V69H43.1264L43.0284 67.642C42.753 68.2067 42.3984 68.5987 41.9644 68.818C41.535 69.0327 41.0614 69.14 40.5434 69.14ZM40.9284 68.209C41.1757 68.209 41.4184 68.1647 41.6564 68.076C41.899 67.9873 42.1184 67.8683 42.3144 67.719C42.515 67.565 42.676 67.3947 42.7974 67.208C42.9187 67.0167 42.9794 66.8207 42.9794 66.62V65.381L41.9084 65.402C41.353 65.4113 40.891 65.4673 40.5224 65.57C40.1537 65.6727 39.876 65.8337 39.6894 66.053C39.5027 66.2723 39.4094 66.5593 39.4094 66.914C39.4094 67.32 39.5517 67.6373 39.8364 67.866C40.121 68.0947 40.485 68.209 40.9284 68.209ZM46.2867 69V61.762H47.5397V69H46.2867ZM46.2517 60.229V58.885H47.5747V60.229H46.2517ZM49.7927 69V61.762H51.0457V62.812C51.1623 62.6113 51.3233 62.4223 51.5287 62.245C51.7387 62.0677 51.9907 61.9253 52.2847 61.818C52.5833 61.7107 52.9263 61.657 53.3137 61.657C53.771 61.657 54.191 61.748 54.5737 61.93C54.961 62.112 55.269 62.3967 55.4977 62.784C55.731 63.1667 55.8477 63.6613 55.8477 64.268V69H54.5527V64.394C54.5527 63.8293 54.4033 63.4117 54.1047 63.141C53.8107 62.8657 53.428 62.728 52.9567 62.728C52.63 62.728 52.3243 62.7817 52.0397 62.889C51.755 62.9917 51.524 63.1503 51.3467 63.365C51.1693 63.575 51.0807 63.841 51.0807 64.163V69H49.7927ZM61.5688 69.14C61.0741 69.14 60.6051 69.0817 60.1618 68.965C59.7184 68.8437 59.3148 68.664 58.9508 68.426C58.5914 68.188 58.2928 67.894 58.0548 67.544C57.8214 67.1893 57.6744 66.7787 57.6138 66.312H58.9718C59.0558 66.6947 59.2214 67.0167 59.4688 67.278C59.7208 67.5393 60.0311 67.7353 60.3998 67.866C60.7731 67.9967 61.1814 68.062 61.6248 68.062C62.0541 68.062 62.4484 67.9943 62.8078 67.859C63.1718 67.7237 63.4634 67.5277 63.6828 67.271C63.9021 67.0097 64.0118 66.697 64.0118 66.333C64.0118 65.9317 63.8811 65.6097 63.6198 65.367C63.3584 65.1197 62.9548 64.9213 62.4088 64.772L60.3228 64.233C59.8514 64.1163 59.4338 63.953 59.0698 63.743C58.7104 63.5283 58.4281 63.2483 58.2228 62.903C58.0174 62.553 57.9148 62.119 57.9148 61.601C57.9148 61.027 58.0734 60.5277 58.3908 60.103C58.7081 59.6737 59.1374 59.3423 59.6788 59.109C60.2248 58.871 60.8408 58.752 61.5268 58.752C62.3201 58.752 62.9874 58.8897 63.5288 59.165C64.0748 59.4403 64.4878 59.802 64.7678 60.25C65.0478 60.698 65.1878 61.1763 65.1878 61.685H63.8578C63.8158 61.223 63.6804 60.859 63.4518 60.593C63.2231 60.3223 62.9384 60.1287 62.5978 60.012C62.2571 59.8907 61.8861 59.83 61.4848 59.83C60.7614 59.83 60.2131 59.9957 59.8398 60.327C59.4711 60.6537 59.2868 61.0433 59.2868 61.496C59.2868 61.9113 59.4198 62.238 59.6858 62.476C59.9518 62.714 60.3438 62.8983 60.8618 63.029L62.8918 63.554C63.4938 63.694 63.9721 63.897 64.3268 64.163C64.6861 64.429 64.9428 64.7393 65.0968 65.094C65.2554 65.444 65.3348 65.8243 65.3348 66.235C65.3348 66.795 65.1784 67.2943 64.8658 67.733C64.5531 68.1717 64.1144 68.517 63.5498 68.769C62.9898 69.0163 62.3294 69.14 61.5688 69.14ZM69.6176 69.035C69.1182 69.035 68.7309 68.9673 68.4556 68.832C68.1802 68.6967 67.9866 68.496 67.8746 68.23C67.7672 67.964 67.7136 67.6373 67.7136 67.25V62.707H66.5376V61.762H67.7486L68.0636 59.655H69.0156V61.755H70.6466V62.707H69.0156V67.208C69.0156 67.4647 69.0412 67.6537 69.0926 67.775C69.1486 67.8917 69.2396 67.9663 69.3656 67.999C69.4916 68.0317 69.6689 68.048 69.8976 68.048H70.6886V68.916C70.5999 68.9487 70.4646 68.9767 70.2826 69C70.1052 69.0233 69.8836 69.035 69.6176 69.035ZM74.3949 69.14C73.9236 69.14 73.5083 69.0583 73.1489 68.895C72.7943 68.727 72.5143 68.4867 72.3089 68.174C72.1083 67.8613 72.0079 67.4833 72.0079 67.04C72.0079 66.2373 72.2879 65.64 72.8479 65.248C73.4079 64.856 74.3063 64.646 75.5429 64.618L76.8309 64.583V64.016C76.8309 63.5727 76.6979 63.2227 76.4319 62.966C76.1659 62.7047 75.7553 62.574 75.1999 62.574C74.7846 62.5787 74.4183 62.6767 74.1009 62.868C73.7836 63.0593 73.5806 63.372 73.4919 63.806H72.3509C72.3789 63.3347 72.5096 62.938 72.7429 62.616C72.9809 62.2893 73.3146 62.042 73.7439 61.874C74.1733 61.706 74.6796 61.622 75.2629 61.622C75.8929 61.622 76.4156 61.7107 76.8309 61.888C77.2509 62.0653 77.5636 62.3267 77.7689 62.672C77.9789 63.0173 78.0839 63.442 78.0839 63.946V69H76.9779L76.8799 67.642C76.6046 68.2067 76.2499 68.5987 75.8159 68.818C75.3866 69.0327 74.9129 69.14 74.3949 69.14ZM74.7799 68.209C75.0273 68.209 75.2699 68.1647 75.5079 68.076C75.7506 67.9873 75.9699 67.8683 76.1659 67.719C76.3666 67.565 76.5276 67.3947 76.6489 67.208C76.7703 67.0167 76.8309 66.8207 76.8309 66.62V65.381L75.7599 65.402C75.2046 65.4113 74.7426 65.4673 74.3739 65.57C74.0053 65.6727 73.7276 65.8337 73.5409 66.053C73.3543 66.2723 73.2609 66.5593 73.2609 66.914C73.2609 67.32 73.4033 67.6373 73.6879 67.866C73.9726 68.0947 74.3366 68.209 74.7799 68.209ZM82.4554 69.035C81.9561 69.035 81.5688 68.9673 81.2934 68.832C81.0181 68.6967 80.8244 68.496 80.7124 68.23C80.6051 67.964 80.5514 67.6373 80.5514 67.25V62.707H79.3754V61.762H80.5864L80.9014 59.655H81.8534V61.755H83.4844V62.707H81.8534V67.208C81.8534 67.4647 81.8791 67.6537 81.9304 67.775C81.9864 67.8917 82.0774 67.9663 82.2034 67.999C82.3294 68.0317 82.5068 68.048 82.7354 68.048H83.5264V68.916C83.4378 68.9487 83.3024 68.9767 83.1204 69C82.9431 69.0233 82.7214 69.035 82.4554 69.035ZM85.2789 69V61.762H86.5319V69H85.2789ZM85.2439 60.229V58.885H86.5669V60.229H85.2439ZM91.6008 69.14C90.9335 69.14 90.3502 68.9977 89.8508 68.713C89.3562 68.4237 88.9712 68.0013 88.6958 67.446C88.4205 66.8907 88.2828 66.2117 88.2828 65.409C88.2828 64.653 88.4112 63.9903 88.6678 63.421C88.9245 62.8517 89.3002 62.4107 89.7948 62.098C90.2895 61.7807 90.8938 61.622 91.6078 61.622C92.2752 61.622 92.8538 61.769 93.3438 62.063C93.8338 62.3523 94.2142 62.7793 94.4848 63.344C94.7602 63.9087 94.8978 64.597 94.8978 65.409C94.8978 66.1463 94.7718 66.795 94.5198 67.355C94.2678 67.915 93.8968 68.3537 93.4068 68.671C92.9215 68.9837 92.3195 69.14 91.6008 69.14ZM91.6078 68.118C92.0372 68.118 92.4012 68.0083 92.6998 67.789C92.9985 67.5697 93.2248 67.2547 93.3788 66.844C93.5375 66.4333 93.6168 65.9457 93.6168 65.381C93.6168 64.863 93.5468 64.3987 93.4068 63.988C93.2715 63.5727 93.0568 63.2437 92.7628 63.001C92.4688 62.7583 92.0838 62.637 91.6078 62.637C91.1692 62.637 90.7982 62.7467 90.4948 62.966C90.1915 63.1807 89.9605 63.4933 89.8018 63.904C89.6478 64.3147 89.5708 64.807 89.5708 65.381C89.5708 65.8897 89.6385 66.3517 89.7738 66.767C89.9138 67.1823 90.1332 67.5113 90.4318 67.754C90.7352 67.9967 91.1272 68.118 91.6078 68.118ZM96.6189 69V61.762H97.8719V62.812C97.9885 62.6113 98.1495 62.4223 98.3549 62.245C98.5649 62.0677 98.8169 61.9253 99.1109 61.818C99.4095 61.7107 99.7525 61.657 100.14 61.657C100.597 61.657 101.017 61.748 101.4 61.93C101.787 62.112 102.095 62.3967 102.324 62.784C102.557 63.1667 102.674 63.6613 102.674 64.268V69H101.379V64.394C101.379 63.8293 101.23 63.4117 100.931 63.141C100.637 62.8657 100.254 62.728 99.7829 62.728C99.4562 62.728 99.1505 62.7817 98.8659 62.889C98.5812 62.9917 98.3502 63.1503 98.1729 63.365C97.9955 63.575 97.9069 63.841 97.9069 64.163V69H96.6189Z" fill="#1A1B1D" style="fill:#1A1B1D;fill:color(display-p3 0.1020 0.1059 0.1137);fill-opacity:1;"/>
<path d="M131.5 63C130.948 63 130.5 63.4477 130.5 64C130.5 64.5523 130.948 65 131.5 65V63ZM263.938 65C264.49 65 264.938 64.5523 264.938 64C264.938 63.4477 264.49 63 263.938 63V65ZM383.062 63C382.51 63 382.062 63.4477 382.062 64C382.062 64.5523 382.51 65 383.062 65V63ZM516.207 64.7071C516.598 64.3166 516.598 63.6834 516.207 63.2929L509.843 56.9289C509.453 56.5384 508.819 56.5384 508.429 56.9289C508.038 57.3195 508.038 57.9526 508.429 58.3431L514.086 64L508.429 69.6569C508.038 70.0474 508.038 70.6805 508.429 71.0711C508.819 71.4616 509.453 71.4616 509.843 71.0711L516.207 64.7071ZM131.5 65H263.938V63H131.5V65ZM383.062 65H515.5V63H383.062V65Z" fill="#1A1B1D" style="fill:#1A1B1D;fill:color(display-p3 0.1020 0.1059 0.1137);fill-opacity:1;"/>
<path d="M271.404 60.6406V59.3182H279.284V60.6406H276.107V69.5H274.576V60.6406H271.404ZM280.871 69.5V59.3182H284.5C285.289 59.3182 285.944 59.4541 286.464 59.7259C286.988 59.9976 287.379 60.3738 287.638 60.8544C287.896 61.3317 288.025 61.8835 288.025 62.5099C288.025 63.133 287.894 63.6816 287.633 64.1555C287.374 64.6262 286.983 64.9924 286.459 65.2543C285.939 65.5161 285.284 65.647 284.495 65.647H281.746V64.3246H284.356C284.853 64.3246 285.258 64.2533 285.569 64.1108C285.884 63.9683 286.115 63.7611 286.26 63.4893C286.406 63.2176 286.479 62.8911 286.479 62.5099C286.479 62.1255 286.405 61.7924 286.255 61.5107C286.11 61.2289 285.879 61.0135 285.564 60.8643C285.253 60.7119 284.843 60.6357 284.336 60.6357H282.407V69.5H280.871ZM285.897 64.9062L288.413 69.5H286.663L284.197 64.9062H285.897ZM290.601 69.5H288.97L292.634 59.3182H294.409L298.073 69.5H296.442L293.564 61.1676H293.484L290.601 69.5ZM290.874 65.5128H296.164V66.8054H290.874V65.5128ZM299.213 59.3182L302.047 67.6108H302.161L304.995 59.3182H306.655L302.991 69.5H301.216L297.552 59.3182H299.213ZM307.972 69.5V59.3182H314.355V60.6406H309.508V63.7429H314.022V65.0604H309.508V68.1776H314.415V69.5H307.972ZM316.253 69.5V59.3182H317.789V68.1776H322.403V69.5H316.253ZM329.336 69.5V70.7628H322.868V69.5H329.336ZM330.287 69.5V59.3182H333.916C334.705 59.3182 335.36 59.4541 335.88 59.7259C336.404 59.9976 336.795 60.3738 337.053 60.8544C337.312 61.3317 337.441 61.8835 337.441 62.5099C337.441 63.133 337.31 63.6816 337.048 64.1555C336.79 64.6262 336.399 64.9924 335.875 65.2543C335.355 65.5161 334.7 65.647 333.911 65.647H331.162V64.3246H333.772C334.269 64.3246 334.674 64.2533 334.985 64.1108C335.3 63.9683 335.53 63.7611 335.676 63.4893C335.822 63.2176 335.895 62.8911 335.895 62.5099C335.895 62.1255 335.82 61.7924 335.671 61.5107C335.525 61.2289 335.295 61.0135 334.98 60.8643C334.669 60.7119 334.259 60.6357 333.752 60.6357H331.823V69.5H330.287ZM335.313 64.9062L337.829 69.5H336.079L333.613 64.9062H335.313ZM348.001 64.4091C348.001 65.4962 347.802 66.4309 347.404 67.2131C347.007 67.992 346.461 68.5919 345.769 69.0128C345.079 69.4304 344.295 69.6392 343.417 69.6392C342.535 69.6392 341.748 69.4304 341.056 69.0128C340.366 68.5919 339.823 67.9903 339.425 67.2081C339.027 66.4259 338.828 65.4929 338.828 64.4091C338.828 63.322 339.027 62.389 339.425 61.6101C339.823 60.8279 340.366 60.228 341.056 59.8104C341.748 59.3894 342.535 59.179 343.417 59.179C344.295 59.179 345.079 59.3894 345.769 59.8104C346.461 60.228 347.007 60.8279 347.404 61.6101C347.802 62.389 348.001 63.322 348.001 64.4091ZM346.48 64.4091C346.48 63.5805 346.345 62.8828 346.077 62.3161C345.812 61.746 345.447 61.3151 344.983 61.0234C344.522 60.7285 344 60.581 343.417 60.581C342.83 60.581 342.307 60.7285 341.846 61.0234C341.385 61.3151 341.021 61.746 340.752 62.3161C340.487 62.8828 340.355 63.5805 340.355 64.4091C340.355 65.2377 340.487 65.937 340.752 66.5071C341.021 67.0739 341.385 67.5047 341.846 67.7997C342.307 68.0914 342.83 68.2372 343.417 68.2372C344 68.2372 344.522 68.0914 344.983 67.7997C345.447 67.5047 345.812 67.0739 346.077 66.5071C346.345 65.937 346.48 65.2377 346.48 64.4091ZM356.31 59.3182H357.851V66.0149C357.851 66.7275 357.684 67.3589 357.349 67.9091C357.014 68.456 356.543 68.8868 355.937 69.2017C355.33 69.5133 354.619 69.669 353.804 69.669C352.992 69.669 352.283 69.5133 351.676 69.2017C351.07 68.8868 350.599 68.456 350.264 67.9091C349.93 67.3589 349.762 66.7275 349.762 66.0149V59.3182H351.298V65.8906C351.298 66.3513 351.4 66.7607 351.602 67.1186C351.807 67.4766 352.097 67.7583 352.472 67.9638C352.846 68.166 353.29 68.267 353.804 68.267C354.321 68.267 354.767 68.166 355.141 67.9638C355.519 67.7583 355.808 67.4766 356.007 67.1186C356.209 66.7607 356.31 66.3513 356.31 65.8906V59.3182ZM359.428 60.6406V59.3182H367.308V60.6406H364.131V69.5H362.6V60.6406H359.428ZM368.896 69.5V59.3182H375.279V60.6406H370.432V63.7429H374.946V65.0604H370.432V68.1776H375.339V69.5H368.896Z" fill="black" fill-opacity="0.8" style="fill:black;fill-opacity:0.8;"/>
</svg>
