<svg width="17" height="17" viewBox="0 0 17 17" fill="none" xmlns="http://www.w3.org/2000/svg">
<g clip-path="url(#clip0_1_3851)">
<mask id="mask0_1_3851" style="mask-type:luminance" maskUnits="userSpaceOnUse" x="0" y="2" width="10" height="15">
<path d="M0 2.66699H9.33333V16.8285H0V2.66699Z" fill="white" style="fill:white;fill-opacity:1;"/>
</mask>
<g mask="url(#mask0_1_3851)">
<path d="M2.41406 12.9173C1.22656 14.1048 0.914062 14.3965 0.914062 14.459C0.914062 14.5423 0.997396 14.6673 1.1224 14.6673C1.22656 14.6673 2.3099 13.6257 2.45573 13.459C2.58073 14.7298 3.0599 16.3965 4.53906 16.3965C5.3099 16.3965 5.9974 15.9173 6.3099 15.6882C6.5599 15.5007 7.47656 14.709 7.47656 14.5423C7.47656 14.4382 7.3724 14.334 7.28906 14.334C7.20573 14.334 6.91406 14.6257 6.85156 14.6882C6.16406 15.3548 5.33073 16.0215 4.5599 16.0215C3.53906 16.0215 3.39323 14.5215 3.39323 13.4798C3.39323 13.2923 3.39323 12.5007 3.53906 12.334C4.66406 11.1673 8.20573 7.52148 8.20573 4.14648C8.20573 3.37565 7.91406 2.70898 7.08073 2.70898C5.3099 2.70898 3.76823 6.64648 3.4974 7.37565C3.41406 7.56315 2.3099 10.5007 2.41406 12.9173ZM3.58073 11.7298C3.58073 11.6257 4.45573 6.60482 6.0599 3.91732C6.3724 3.41732 6.70573 3.08398 7.08073 3.08398C7.7474 3.08398 7.76823 3.68815 7.76823 4.12565C7.76823 4.79232 7.58073 6.50065 5.91406 8.91732C5.4349 9.62565 4.66406 10.584 3.58073 11.7298Z" fill="black" style="fill:black;fill-opacity:1;"/>
</g>
<path d="M10.2113 8.20443L11.6279 6.82943C13.6904 4.99609 14.4821 4.28776 14.4821 2.95443C14.4821 1.43359 13.2946 0.371094 11.6696 0.371094C10.1696 0.371094 9.19043 1.60026 9.19043 2.78776C9.19043 3.51693 9.8571 3.51693 9.89876 3.51693C10.1279 3.51693 10.5863 3.37109 10.5863 2.80859C10.5863 2.47526 10.3363 2.12109 9.87793 2.12109C9.77376 2.12109 9.75293 2.12109 9.71126 2.14193C10.0029 1.26693 10.7321 0.78776 11.5029 0.78776C12.7113 0.78776 13.2738 1.87109 13.2738 2.95443C13.2738 4.01693 12.6279 5.05859 11.8779 5.89193L9.33626 8.72526C9.19043 8.87109 9.19043 8.91276 9.19043 9.22526H14.1279L14.4821 6.91276H14.1696C14.0863 7.30859 14.0029 7.89193 13.8571 8.10026C13.7738 8.20443 12.8988 8.20443 12.6071 8.20443H10.2113Z" fill="black" style="fill:black;fill-opacity:1;"/>
</g>
<defs>
<clipPath id="clip0_1_3851">
<rect width="16.4933" height="16.8307" fill="white" style="fill:white;fill-opacity:1;"/>
</clipPath>
</defs>
</svg>
