<svg width="64" height="20" viewBox="0 0 64 20" fill="none" xmlns="http://www.w3.org/2000/svg">
<g clip-path="url(#clip0_1_3823)">
<mask id="mask0_1_3823" style="mask-type:luminance" maskUnits="userSpaceOnUse" x="1" y="0" width="7" height="20">
<path d="M1.33301 0H7.99967V19.1302H1.33301V0Z" fill="white" style="fill:white;fill-opacity:1;"/>
</mask>
<g mask="url(#mask0_1_3823)">
<path d="M3.29134 0.657552C3.29134 0.345052 3.29134 0.0117188 2.91634 0.0117188C2.52051 0.0117188 2.52051 0.428385 2.52051 0.699219V18.4284C2.52051 18.7201 2.52051 19.1159 2.91634 19.1159C3.29134 19.1159 3.29134 18.7826 3.29134 18.4701V0.657552ZM7.02051 0.699219C7.02051 0.407552 7.02051 0.0117188 6.64551 0.0117188C6.24967 0.0117188 6.24967 0.345052 6.24967 0.657552V18.4701C6.24967 18.7826 6.24967 19.1159 6.64551 19.1159C7.02051 19.1159 7.02051 18.6992 7.02051 18.4284V0.699219Z" fill="black" style="fill:black;fill-opacity:1;"/>
</g>
<path d="M19.0306 2.92839C18.8014 3.13672 18.0931 3.80339 18.0931 4.07422C18.0931 4.26172 18.2598 4.42839 18.4681 4.42839C18.6348 4.42839 18.7181 4.32422 18.8431 4.13672C19.3014 3.55339 19.8223 3.19922 20.2598 2.94922C20.4473 2.82422 20.5723 2.78255 20.5723 2.57422C20.5723 2.38672 20.4264 2.30339 20.3223 2.19922C19.7806 1.84505 19.6556 1.32422 19.5931 1.09505C19.5306 0.928385 19.4681 0.699219 19.1973 0.699219C19.0931 0.699219 18.8639 0.782552 18.8639 1.07422C18.8639 1.24089 18.9681 1.69922 19.3431 2.22005H12.9056C12.5931 2.22005 12.2598 2.22005 12.2598 2.57422C12.2598 2.92839 12.6139 2.92839 12.9056 2.92839H19.0306Z" fill="black" style="fill:black;fill-opacity:1;"/>
<path d="M18.3083 7.19987C18.3083 5.99154 17.6833 5.9082 17.5374 5.9082C17.0791 5.9082 16.6624 6.36654 16.6624 6.76237C16.6624 6.99154 16.7874 7.11654 16.8708 7.19987C17.0583 7.36654 17.5583 7.88737 17.5583 8.86654C17.5583 9.67904 16.4124 14.1582 14.0999 14.1582C12.9333 14.1582 12.7041 13.179 12.7041 12.4707C12.7041 11.5124 13.1624 10.179 13.6624 8.80404C13.9749 8.01237 14.0583 7.82487 14.0583 7.44987C14.0583 6.63737 13.4749 5.9082 12.5374 5.9082C10.7874 5.9082 10.0791 8.67904 10.0791 8.8457C10.0791 8.9082 10.1416 9.01237 10.2874 9.01237C10.4541 9.01237 10.4749 8.92904 10.5583 8.6582C11.0166 7.01237 11.7666 6.30404 12.4749 6.30404C12.6624 6.30404 12.9749 6.30404 12.9749 6.92904C12.9749 7.42904 12.7666 7.9707 12.4749 8.69987C11.5583 11.1582 11.5583 11.7415 11.5583 12.1999C11.5583 12.6165 11.6208 13.4082 12.2249 13.9499C12.9124 14.5332 13.8708 14.5332 14.0374 14.5332C17.2041 14.5332 18.3083 8.2832 18.3083 7.19987Z" fill="black" style="fill:black;fill-opacity:1;"/>
<mask id="mask1_1_3823" style="mask-type:luminance" maskUnits="userSpaceOnUse" x="21" y="0" width="6" height="20">
<path d="M21.333 0H26.6663V19.1302H21.333V0Z" fill="white" style="fill:white;fill-opacity:1;"/>
</mask>
<g mask="url(#mask1_1_3823)">
<path d="M22.597 0.657552C22.597 0.345052 22.597 0.0117188 22.222 0.0117188C21.8262 0.0117188 21.8262 0.428385 21.8262 0.699219V18.4284C21.8262 18.7201 21.8262 19.1159 22.222 19.1159C22.597 19.1159 22.597 18.7826 22.597 18.4701V0.657552ZM26.3262 0.699219C26.3262 0.407552 26.3262 0.0117188 25.9512 0.0117188C25.5553 0.0117188 25.5553 0.345052 25.5553 0.657552V18.4701C25.5553 18.7826 25.5553 19.1159 25.9512 19.1159C26.3262 19.1159 26.3262 18.6992 26.3262 18.4284V0.699219Z" fill="black" style="fill:black;fill-opacity:1;"/>
</g>
<path d="M47.0986 8.15755C47.3695 8.15755 47.7028 8.15755 47.7028 7.80339C47.7028 7.44922 47.3695 7.44922 47.0986 7.44922H35.8278C35.557 7.44922 35.2236 7.44922 35.2236 7.78255C35.2236 8.15755 35.5361 8.15755 35.8278 8.15755H47.0986ZM47.0986 11.6992C47.3695 11.6992 47.7028 11.6992 47.7028 11.3659C47.7028 10.9909 47.3695 10.9909 47.0986 10.9909H35.8278C35.557 10.9909 35.2236 10.9909 35.2236 11.3451C35.2236 11.6992 35.5361 11.6992 35.8278 11.6992H47.0986Z" fill="black" style="fill:black;fill-opacity:1;"/>
<path d="M59.5684 2.09505C59.5684 1.63672 59.5684 1.63672 59.1934 1.63672C58.735 2.13672 57.7767 2.84505 55.8184 2.84505V3.40755C56.2559 3.40755 57.2142 3.40755 58.2559 2.90755V12.8659C58.2559 13.5534 58.1934 13.7826 56.5267 13.7826H55.9225V14.3451C56.4434 14.3034 58.2975 14.3034 58.9225 14.3034C59.5475 14.3034 61.4017 14.3034 61.9017 14.3451V13.7826H61.3184C59.6309 13.7826 59.5684 13.5534 59.5684 12.8659V2.09505Z" fill="black" style="fill:black;fill-opacity:1;"/>
</g>
<defs>
<clipPath id="clip0_1_3823">
<rect width="63.428" height="19.128" fill="white" style="fill:white;fill-opacity:1;"/>
</clipPath>
</defs>
</svg>
