<svg xmlns="http://www.w3.org/2000/svg" width="1046" height="417" viewBox="0 0 1046 417"><defs><style type="text/css"/></defs><g transform="translate(-199.44276565549808 194.86687123888817) scale(1)"><g class="relationship"><g transform="translate(303.6087812804981 -140.86687123888817) rotate(21.654233935053426)" stroke-width="2" stroke="#000000"><path d="M 59 0 L 191.19752627483626 0"/><polygon points="-14.155129855222071,0 -15.727922061357857,5.242640687119286 0,0 -15.727922061357857,-5.242640687119286" fill="#000000" transform="translate(205.35265613005834 0) rotate(0)" stroke="none"/></g><g transform="translate(419.87902661354957 -94.70486750525603) rotate(21.654233935053426) translate(0 -13)"><g transform="translate(0 0)"><g transform="translate(-56.55859375 0)" fill="#ffffff" stroke="#000000" stroke-width="0"><rect x="0" y="0" width="113.1171875" height="26" rx="5" ry="5" stroke="none"/><text xml:space="preserve" x="5" y="17.45703125" stroke="none" text-anchor="left" font-family="sans-serif" font-size="16" font-weight="normal" fill="#000000">WORKS_FOR</text></g></g></g></g><g class="relationship"><g transform="translate(303.6087812804981 98.53347489845157) rotate(-30.000000000000025)" stroke-width="2" stroke="#000000"><path d="M 59 0 L 210.550934891181 0"/><polygon points="-14.155129855222071,0 -15.727922061357857,5.242640687119286 0,0 -15.727922061357857,-5.242640687119286" fill="#000000" transform="translate(224.70606474640306 0) rotate(0)" stroke="none"/></g><g transform="translate(420.32775989530205 31.145741175656283) rotate(-30.000000000000025) translate(0 -13)"><g transform="translate(0 0)"><g transform="translate(-56.55859375 0)" fill="#ffffff" stroke="#000000" stroke-width="0"><rect x="0" y="0" width="113.1171875" height="26" rx="5" ry="5" stroke="none"/><text xml:space="preserve" x="5" y="17.45703125" stroke="none" text-anchor="left" font-family="sans-serif" font-size="16" font-weight="normal" fill="#000000">WORKS_FOR</text></g></g></g></g><g class="relationship"><g transform="translate(549.3054405585958 -43.31955747475005) rotate(0)" stroke-width="2" stroke="#000000"><path d="M 59 0 L 227.3828188106305 0"/><polygon points="-14.155129855222071,0 -15.727922061357857,5.242640687119286 0,0 -15.727922061357857,-5.242640687119286" fill="#000000" transform="translate(241.53794866585258 0) rotate(0)" stroke="none"/></g><g transform="translate(692.496849963911 -43.31955747475005) rotate(0) translate(0 -13)"><g transform="translate(0 0)"><g transform="translate(-56.55859375 0)" fill="#ffffff" stroke="#000000" stroke-width="0"><rect x="0" y="0" width="113.1171875" height="26" rx="5" ry="5" stroke="none"/><text xml:space="preserve" x="5" y="17.45703125" stroke="none" text-anchor="left" font-family="sans-serif" font-size="16" font-weight="normal" fill="#000000">WORKS_FOR</text></g></g></g></g><g class="relationship"><g transform="translate(549.3054405585958 98.53347489845157) rotate(-25.26717339351291)" stroke-width="2" stroke="#000000"><path d="M 59 0 L 259.1780484188576 0"/><polygon points="-14.155129855222071,0 -15.727922061357857,5.242640687119286 0,0 -15.727922061357857,-5.242640687119286" fill="#000000" transform="translate(273.33317827407967 0) rotate(0)" stroke="none"/></g><g transform="translate(693.173980075052 30.62794521706168) rotate(-25.26717339351291) translate(0 -13)"><g transform="translate(0 0)"><g transform="translate(-56.55859375 0)" fill="#ffffff" stroke="#000000" stroke-width="0"><rect x="0" y="0" width="113.1171875" height="26" rx="5" ry="5" stroke="none"/><text xml:space="preserve" x="5" y="17.45703125" stroke="none" text-anchor="left" font-family="sans-serif" font-size="16" font-weight="normal" fill="#000000">WORKS_FOR</text></g></g></g></g><g class="relationship"><g transform="translate(849.8433892244484 -43.31955747475005) rotate(-6.773038164307976e-15)" stroke-width="2" stroke="#000000"><path d="M 59 0 L 227.3828188106305 0"/><polygon points="-14.155129855222071,0 -15.727922061357857,5.242640687119286 0,0 -15.727922061357857,-5.242640687119286" fill="#000000" transform="translate(241.53794866585258 0) rotate(0)" stroke="none"/></g><g transform="translate(993.0347986297636 -43.31955747475006) rotate(-6.773038164307976e-15) translate(0 -13)"><g transform="translate(0 0)"><g transform="translate(-56.55859375 0)" fill="#ffffff" stroke="#000000" stroke-width="0"><rect x="0" y="0" width="113.1171875" height="26" rx="5" ry="5" stroke="none"/><text xml:space="preserve" x="5" y="17.45703125" stroke="none" text-anchor="left" font-family="sans-serif" font-size="16" font-weight="normal" fill="#000000">WORKS_FOR</text></g></g></g></g><g class="node"><g fill="#ffffff" stroke="#006FD6" stroke-width="4"><circle cx="549.3054405585958" cy="-43.31955747475005" r="52"/></g><g transform="translate(549.3054405585958 -43.31955747475005)"><g transform="scale(0.5592606884691831) translate(0 -30.5)"><g transform="translate(0 0)"><g transform="translate(-74.458740234375 0)"><g fill="#000000" stroke="#000000" stroke-width="4" font-family="sans-serif" font-size="47" font-weight="normal"><text xml:space="preserve" x="0" y="43.592529296875" stroke="none">Person</text></g></g></g></g><g transform="translate(3.429011037612589e-15 -123.2)"><g transform="translate(0 0)"><g transform="translate(-79.32080078125 0)" fill="white"><rect x="0" y="0" width="158.6416015625" height="67.2" rx="0" ry="0" stroke="none"/><g font-family="sans-serif" font-size="14" font-weight="normal" fill="#535B66" text-anchor="end"><text xml:space="preserve" x="42.7998046875" y="12.29990234375" stroke="none">name:</text><text xml:space="preserve" x="46.689453125" y="12.29990234375" stroke="none" text-anchor="start">'Alice'</text><text xml:space="preserve" x="42.7998046875" y="29.099902343750003" stroke="none" text-anchor="end">age:</text><text xml:space="preserve" x="46.689453125" y="29.099902343750003" stroke="none" text-anchor="start">65</text><text xml:space="preserve" x="42.7998046875" y="45.89990234375" stroke="none" text-anchor="end">role:</text><text xml:space="preserve" x="46.689453125" y="45.89990234375" stroke="none" text-anchor="start">'Project manager'</text><text xml:space="preserve" x="42.7998046875" y="62.699902343750004" stroke="none" text-anchor="end">skills:</text><text xml:space="preserve" x="46.689453125" y="62.699902343750004" stroke="none" text-anchor="start">['Java', 'Python']</text></g></g></g></g></g></g><g class="node"><g fill="#ffffff" stroke="#006FD6" stroke-width="4"><circle cx="303.6087812804981" cy="-140.86687123888817" r="52"/></g><g transform="translate(303.6087812804981 -140.86687123888817)"><g transform="scale(0.5592606884691831) translate(0 -30.5)"><g transform="translate(0 0)"><g transform="translate(-74.458740234375 0)"><g fill="#000000" stroke="#000000" stroke-width="4" font-family="sans-serif" font-size="47" font-weight="normal"><text xml:space="preserve" x="0" y="43.592529296875" stroke="none">Person</text></g></g></g></g><g transform="translate(3.429011037612589e-15 56)"><g transform="translate(0 0)"><g transform="translate(-88.27587890625 0)" fill="white"><rect x="0" y="0" width="176.5517578125" height="67.2" rx="0" ry="0" stroke="none"/><g font-family="sans-serif" font-size="14" font-weight="normal" fill="#535B66" text-anchor="end"><text xml:space="preserve" x="42.7998046875" y="12.29990234375" stroke="none">name:</text><text xml:space="preserve" x="46.689453125" y="12.29990234375" stroke="none" text-anchor="start">'Cecil'</text><text xml:space="preserve" x="42.7998046875" y="29.099902343750003" stroke="none" text-anchor="end">age:</text><text xml:space="preserve" x="46.689453125" y="29.099902343750003" stroke="none" text-anchor="start">25</text><text xml:space="preserve" x="42.7998046875" y="45.89990234375" stroke="none" text-anchor="end">role:</text><text xml:space="preserve" x="46.689453125" y="45.89990234375" stroke="none" text-anchor="start">'Software developer'</text><text xml:space="preserve" x="42.7998046875" y="62.699902343750004" stroke="none" text-anchor="end">skills:</text><text xml:space="preserve" x="46.689453125" y="62.699902343750004" stroke="none" text-anchor="start">['Java', 'Python']</text></g></g></g></g></g></g><g class="node"><g fill="#ffffff" stroke="#006FD6" stroke-width="4"><circle cx="303.6087812804981" cy="98.53347489845157" r="52"/></g><g transform="translate(303.6087812804981 98.53347489845157)"><g transform="scale(0.5592606884691831) translate(0 -30.5)"><g transform="translate(0 0)"><g transform="translate(-74.458740234375 0)"><g fill="#000000" stroke="#000000" stroke-width="4" font-family="sans-serif" font-size="47" font-weight="normal"><text xml:space="preserve" x="0" y="43.592529296875" stroke="none">Person</text></g></g></g></g><g transform="translate(3.429011037612589e-15 56)"><g transform="translate(0 0)"><g transform="translate(-104.166015625 0)" fill="white"><rect x="0" y="0" width="208.33203125" height="67.2" rx="0" ry="0" stroke="none"/><g font-family="sans-serif" font-size="14" font-weight="normal" fill="#535B66" text-anchor="end"><text xml:space="preserve" x="42.7998046875" y="12.29990234375" stroke="none">name:</text><text xml:space="preserve" x="46.689453125" y="12.29990234375" stroke="none" text-anchor="start">'Cecilia'</text><text xml:space="preserve" x="42.7998046875" y="29.099902343750003" stroke="none" text-anchor="end">age:</text><text xml:space="preserve" x="46.689453125" y="29.099902343750003" stroke="none" text-anchor="start">31</text><text xml:space="preserve" x="42.7998046875" y="45.89990234375" stroke="none" text-anchor="end">role:</text><text xml:space="preserve" x="46.689453125" y="45.89990234375" stroke="none" text-anchor="start">'Software developer'</text><text xml:space="preserve" x="42.7998046875" y="62.699902343750004" stroke="none" text-anchor="end">skills:</text><text xml:space="preserve" x="46.689453125" y="62.699902343750004" stroke="none" text-anchor="start">['JavaScript', 'TypeScript']</text></g></g></g></g></g></g><g class="node"><g fill="#ffffff" stroke="#006FD6" stroke-width="4"><circle cx="549.3054405585958" cy="98.53347489845157" r="52"/></g><g transform="translate(549.3054405585958 98.53347489845157)"><g transform="scale(0.5592606884691831) translate(0 -30.5)"><g transform="translate(0 0)"><g transform="translate(-74.458740234375 0)"><g fill="#000000" stroke="#000000" stroke-width="4" font-family="sans-serif" font-size="47" font-weight="normal"><text xml:space="preserve" x="0" y="43.592529296875" stroke="none">Person</text></g></g></g></g><g transform="translate(3.429011037612589e-15 56)"><g transform="translate(0 0)"><g transform="translate(-82.43798828125 0)" fill="white"><rect x="0" y="0" width="164.8759765625" height="67.2" rx="0" ry="0" stroke="none"/><g font-family="sans-serif" font-size="14" font-weight="normal" fill="#535B66" text-anchor="end"><text xml:space="preserve" x="42.7998046875" y="12.29990234375" stroke="none">name:</text><text xml:space="preserve" x="46.689453125" y="12.29990234375" stroke="none" text-anchor="start">'Charlie'</text><text xml:space="preserve" x="42.7998046875" y="29.099902343750003" stroke="none" text-anchor="end">age:</text><text xml:space="preserve" x="46.689453125" y="29.099902343750003" stroke="none" text-anchor="start">61</text><text xml:space="preserve" x="42.7998046875" y="45.89990234375" stroke="none" text-anchor="end">role:</text><text xml:space="preserve" x="46.689453125" y="45.89990234375" stroke="none" text-anchor="start">'Security engineer'</text><text xml:space="preserve" x="42.7998046875" y="62.699902343750004" stroke="none" text-anchor="end">skills:</text><text xml:space="preserve" x="46.689453125" y="62.699902343750004" stroke="none" text-anchor="start">['C++', 'Python']</text></g></g></g></g></g></g><g class="node"><g fill="#ffffff" stroke="#006FD6" stroke-width="4"><circle cx="849.8433892244484" cy="-43.31955747475005" r="52"/></g><g transform="translate(849.8433892244484 -43.31955747475005)"><g transform="scale(0.5592606884691831) translate(0 -30.5)"><g transform="translate(0 0)"><g transform="translate(-74.458740234375 0)"><g fill="#000000" stroke="#000000" stroke-width="4" font-family="sans-serif" font-size="47" font-weight="normal"><text xml:space="preserve" x="0" y="43.592529296875" stroke="none">Person</text></g></g></g></g><g transform="translate(3.429011037612589e-15 56)"><g transform="translate(0 0)"><g transform="translate(-64.09375 0)" fill="white"><rect x="0" y="0" width="128.1875" height="67.2" rx="0" ry="0" stroke="none"/><g font-family="sans-serif" font-size="14" font-weight="normal" fill="#535B66" text-anchor="end"><text xml:space="preserve" x="42.7998046875" y="12.29990234375" stroke="none">name:</text><text xml:space="preserve" x="46.689453125" y="12.29990234375" stroke="none" text-anchor="start">'Daniel'</text><text xml:space="preserve" x="42.7998046875" y="29.099902343750003" stroke="none" text-anchor="end">age:</text><text xml:space="preserve" x="46.689453125" y="29.099902343750003" stroke="none" text-anchor="start">39</text><text xml:space="preserve" x="42.7998046875" y="45.89990234375" stroke="none" text-anchor="end">role:</text><text xml:space="preserve" x="46.689453125" y="45.89990234375" stroke="none" text-anchor="start">'Director'</text><text xml:space="preserve" x="42.7998046875" y="62.699902343750004" stroke="none" text-anchor="end">skills:</text><text xml:space="preserve" x="46.689453125" y="62.699902343750004" stroke="none" text-anchor="start">['Ruby', 'Go']</text></g></g></g></g></g></g><g class="node"><g fill="#ffffff" stroke="#006FD6" stroke-width="4"><circle cx="1150.381337890301" cy="-43.319557474750084" r="52"/></g><g transform="translate(1150.381337890301 -43.319557474750084)"><g transform="scale(0.5592606884691831) translate(0 -30.5)"><g transform="translate(0 0)"><g transform="translate(-74.458740234375 0)"><g fill="#000000" stroke="#000000" stroke-width="4" font-family="sans-serif" font-size="47" font-weight="normal"><text xml:space="preserve" x="0" y="43.592529296875" stroke="none">Person</text></g></g></g></g><g transform="translate(3.429011037612589e-15 56)"><g transform="translate(0 0)"><g transform="translate(-94.787109375 0)" fill="white"><rect x="0" y="0" width="189.57421875" height="67.2" rx="0" ry="0" stroke="none"/><g font-family="sans-serif" font-size="14" font-weight="normal" fill="#535B66" text-anchor="end"><text xml:space="preserve" x="42.7998046875" y="12.29990234375" stroke="none">name:</text><text xml:space="preserve" x="46.689453125" y="12.29990234375" stroke="none" text-anchor="start">'Eskil'</text><text xml:space="preserve" x="42.7998046875" y="29.099902343750003" stroke="none" text-anchor="end">age:</text><text xml:space="preserve" x="46.689453125" y="29.099902343750003" stroke="none" text-anchor="start">39</text><text xml:space="preserve" x="42.7998046875" y="45.89990234375" stroke="none" text-anchor="end">role:</text><text xml:space="preserve" x="46.689453125" y="45.89990234375" stroke="none" text-anchor="start">'CEO'</text><text xml:space="preserve" x="42.7998046875" y="62.699902343750004" stroke="none" text-anchor="end">skills:</text><text xml:space="preserve" x="46.689453125" y="62.699902343750004" stroke="none" text-anchor="start">['Java', 'C++', 'Python']</text></g></g></g></g></g></g></g></svg>