<svg width="700" height="500" viewBox="0 0 700 500" fill="none" xmlns="http://www.w3.org/2000/svg">
<path d="M3 64C3 28.6538 31.6538 0 67 0C102.346 0 131 28.6538 131 64C131 99.3462 102.346 128 67 128C31.6538 128 3 99.3462 3 64Z" fill="#579380"/>
<path d="M276 261C276 225.654 304.654 197 340 197C375.346 197 404 225.654 404 261C404 296.346 375.346 325 340 325C304.654 325 276 296.346 276 261Z" fill="#F79767"/>
<path d="M329.121 266V255.878H332.376C333.608 255.878 334.539 256.104 335.169 256.557C335.804 257.01 336.121 257.663 336.121 258.517C336.121 259.054 335.981 259.513 335.701 259.896C335.426 260.279 334.941 260.594 334.245 260.841C334.642 260.925 334.976 261.046 335.246 261.205C335.522 261.364 335.741 261.55 335.904 261.765C336.072 261.975 336.191 262.208 336.261 262.465C336.336 262.722 336.373 262.992 336.373 263.277C336.373 264.192 336.047 264.875 335.393 265.328C334.745 265.776 333.774 266 332.481 266H329.121ZM330.416 264.922H332.467C333.312 264.922 333.954 264.784 334.392 264.509C334.836 264.229 335.057 263.8 335.057 263.221C335.057 262.796 334.948 262.453 334.728 262.192C334.514 261.926 334.222 261.732 333.853 261.611C333.485 261.49 333.074 261.429 332.621 261.429H330.416V264.922ZM330.416 260.33H332.621C332.887 260.33 333.151 260.304 333.412 260.253C333.674 260.202 333.914 260.113 334.133 259.987C334.353 259.861 334.53 259.693 334.665 259.483C334.801 259.268 334.868 259 334.868 258.678C334.868 258.09 334.642 257.656 334.189 257.376C333.741 257.091 333.158 256.949 332.439 256.949H330.416V260.33ZM337.786 267.757L338.57 266.028L337.961 265.993V264.446H339.578V265.79L338.388 267.757H337.786ZM344.744 266V265.209V264.796C344.744 264.278 344.84 263.83 345.031 263.452C345.227 263.074 345.484 262.745 345.801 262.465C346.123 262.18 346.473 261.926 346.851 261.702C347.234 261.478 347.614 261.263 347.992 261.058C348.375 260.848 348.725 260.631 349.042 260.407C349.359 260.178 349.614 259.922 349.805 259.637C350.001 259.348 350.099 259.007 350.099 258.615C350.099 258.102 349.917 257.684 349.553 257.362C349.194 257.04 348.706 256.879 348.09 256.879C347.427 256.879 346.895 257.066 346.494 257.439C346.093 257.812 345.866 258.309 345.815 258.93H344.527C344.541 258.347 344.686 257.815 344.961 257.334C345.236 256.849 345.64 256.461 346.172 256.172C346.704 255.883 347.36 255.738 348.139 255.738C348.816 255.738 349.404 255.859 349.903 256.102C350.402 256.34 350.787 256.676 351.058 257.11C351.333 257.539 351.471 258.041 351.471 258.615C351.471 259.138 351.375 259.586 351.184 259.959C350.993 260.332 350.738 260.657 350.421 260.932C350.108 261.203 349.765 261.445 349.392 261.66C349.019 261.875 348.643 262.082 348.265 262.283C347.887 262.479 347.542 262.687 347.229 262.906C346.916 263.121 346.664 263.368 346.473 263.648C346.282 263.928 346.186 264.262 346.186 264.649V264.852H351.527V266H344.744Z" fill="white"/>
<path d="M572 261C572 225.654 600.654 197 636 197C671.346 197 700 225.654 700 261C700 296.346 671.346 325 636 325C600.654 325 572 296.346 572 261Z" fill="#579380"/>
<path d="M623.825 266L627.486 255.878H628.949L632.61 266H631.287L630.293 263.228H626.142L625.141 266H623.825ZM626.485 262.038H629.936L628.214 257.145L626.485 262.038ZM633.847 267.757L634.631 266.028L634.022 265.993V264.446H635.639V265.79L634.449 267.757H633.847ZM644.187 266.154C643.491 266.149 642.878 266.021 642.346 265.769C641.818 265.517 641.403 265.165 641.1 264.712C640.796 264.255 640.633 263.713 640.61 263.088H641.905C642.003 263.718 642.259 264.201 642.675 264.537C643.09 264.873 643.61 265.041 644.236 265.041C644.73 265.041 645.162 264.964 645.531 264.81C645.899 264.651 646.184 264.434 646.385 264.159C646.585 263.884 646.686 263.562 646.686 263.193C646.686 262.787 646.574 262.444 646.35 262.164C646.126 261.884 645.82 261.672 645.433 261.527C645.045 261.378 644.614 261.301 644.138 261.296L643.228 261.275V260.176L644.096 260.155C644.539 260.146 644.936 260.062 645.286 259.903C645.636 259.74 645.911 259.527 646.112 259.266C646.317 259 646.42 258.708 646.42 258.391C646.42 258.111 646.333 257.852 646.161 257.614C645.988 257.371 645.738 257.178 645.412 257.033C645.09 256.888 644.698 256.816 644.236 256.816C643.872 256.816 643.524 256.888 643.193 257.033C642.861 257.173 642.588 257.39 642.374 257.684C642.159 257.978 642.045 258.358 642.031 258.825H640.743C640.743 258.172 640.901 257.616 641.219 257.159C641.536 256.697 641.958 256.345 642.486 256.102C643.018 255.859 643.603 255.738 644.243 255.738C644.943 255.738 645.561 255.841 646.098 256.046C646.634 256.247 647.054 256.541 647.358 256.928C647.661 257.315 647.812 257.789 647.812 258.349C647.812 258.848 647.654 259.301 647.337 259.707C647.019 260.108 646.534 260.423 645.881 260.652C646.324 260.773 646.711 260.951 647.043 261.184C647.374 261.417 647.631 261.704 647.812 262.045C647.995 262.381 648.086 262.768 648.086 263.207C648.086 263.669 647.988 264.084 647.792 264.453C647.6 264.817 647.33 265.127 646.98 265.384C646.63 265.636 646.217 265.83 645.741 265.965C645.265 266.096 644.747 266.159 644.187 266.154Z" fill="white"/>
<path d="M0 436C0 400.654 28.6538 372 64 372C99.3462 372 128 400.654 128 436C128 471.346 99.3462 500 64 500C28.6538 500 0 471.346 0 436Z" fill="#579380"/>
<path d="M51.832 441L55.493 430.878H56.956L60.617 441H59.294L58.3 438.228H54.149L53.148 441H51.832ZM54.492 437.038H57.943L56.221 432.145L54.492 437.038ZM61.8541 442.757L62.6381 441.028L62.0291 440.993V439.446H63.6461V440.79L62.4561 442.757H61.8541ZM73.3623 441V438.417H68.5953V437.234L73.3133 430.878H74.6293V437.276H76.3093V438.417H74.6293V441H73.3623ZM69.8343 437.276H73.3343V432.579L69.8343 437.276Z" fill="white"/>
<path d="M67.168 130.798C66.7807 130.405 66.1475 130.4 65.7539 130.787L59.3388 137.1C58.9451 137.487 58.94 138.12 59.3274 138.514C59.7147 138.907 60.3479 138.912 60.7415 138.525L66.4438 132.914L72.0549 138.616C72.4422 139.01 73.0754 139.015 73.4691 138.628C73.8627 138.24 73.8678 137.607 73.4805 137.214L67.168 130.798ZM63.544 368.492C63.5395 369.044 63.9836 369.496 64.5359 369.5C65.0881 369.505 65.5395 369.06 65.5439 368.508L63.544 368.492ZM66.4552 131.5L65.4553 131.492L63.544 368.492L64.5439 368.5L65.5439 368.508L67.4552 131.508L66.4552 131.5Z" fill="#1A1B1D"/>
<path d="M273.321 213.756C273.866 213.668 274.237 213.154 274.149 212.609L272.712 203.725C272.624 203.179 272.11 202.809 271.565 202.897C271.02 202.985 270.65 203.499 270.738 204.044L272.015 211.941L264.117 213.218C263.572 213.306 263.202 213.82 263.29 214.365C263.378 214.91 263.891 215.281 264.437 215.193L273.321 213.756ZM134.423 111.42C133.975 111.097 133.35 111.198 133.027 111.646C132.704 112.094 132.805 112.719 133.253 113.042L134.423 111.42ZM273.161 212.769L273.747 211.958L134.423 111.42L133.838 112.231L133.253 113.042L272.576 213.58L273.161 212.769Z" fill="#1A1B1D"/>
<path d="M273.58 304.298C274.046 304.003 274.185 303.385 273.889 302.918C273.593 302.452 272.975 302.314 272.509 302.609L273.58 304.298ZM129.98 393.327C129.86 393.866 130.199 394.401 130.738 394.522L139.52 396.489C140.059 396.609 140.594 396.27 140.714 395.731C140.835 395.192 140.496 394.658 139.957 394.537L132.15 392.789L133.899 384.982C134.019 384.443 133.68 383.908 133.141 383.788C132.602 383.667 132.068 384.006 131.947 384.545L129.98 393.327ZM273.044 303.454L272.509 302.609L130.421 392.701L130.956 393.546L131.492 394.391L273.58 304.298L273.044 303.454Z" fill="#1A1B1D"/>
<path d="M568.707 240.707C569.098 240.317 569.098 239.683 568.707 239.293L562.343 232.929C561.953 232.538 561.319 232.538 560.929 232.929C560.538 233.319 560.538 233.953 560.929 234.343L566.586 240L560.929 245.657C560.538 246.047 560.538 246.681 560.929 247.071C561.319 247.462 561.953 247.462 562.343 247.071L568.707 240.707ZM410 240V241H568V240V239H410V240Z" fill="black"/>
<path d="M409.293 292.293C408.902 292.683 408.902 293.317 409.293 293.707L415.657 300.071C416.047 300.462 416.681 300.462 417.071 300.071C417.462 299.681 417.462 299.047 417.071 298.657L411.414 293L417.071 287.343C417.462 286.953 417.462 286.319 417.071 285.929C416.681 285.538 416.047 285.538 415.657 285.929L409.293 292.293ZM410 293V294H568V293V292H410V293Z" fill="black"/>
</svg>
