<svg width="501" height="224" viewBox="0 0 501 224" fill="none" xmlns="http://www.w3.org/2000/svg">
<path d="M0 64C0 28.6538 28.6538 0 64 0V0C99.3462 0 128 28.6538 128 64V64C128 99.3462 99.3462 128 64 128V128C28.6538 128 0 99.3462 0 64V64Z" fill="#FFDF81"/>
<path d="M50.5036 69.14C49.6029 69.14 48.8236 68.937 48.1656 68.531C47.5076 68.125 46.9989 67.537 46.6396 66.767C46.2849 65.9923 46.1076 65.0567 46.1076 63.96C46.1076 62.854 46.2872 61.9137 46.6466 61.139C47.0059 60.3597 47.5146 59.7647 48.1726 59.354C48.8352 58.9433 49.6122 58.738 50.5036 58.738C51.3996 58.738 52.1742 58.9433 52.8276 59.354C53.4809 59.76 53.9849 60.3527 54.3396 61.132C54.6942 61.9067 54.8716 62.8493 54.8716 63.96C54.8716 65.0567 54.6942 65.9923 54.3396 66.767C53.9896 67.537 53.4879 68.125 52.8346 68.531C52.1812 68.937 51.4042 69.14 50.5036 69.14ZM50.5036 68.013C51.1289 68.013 51.6609 67.8707 52.0996 67.586C52.5382 67.3013 52.8719 66.8603 53.1006 66.263C53.3339 65.6657 53.4506 64.9027 53.4506 63.974C53.4506 63.0313 53.3339 62.2567 53.1006 61.65C52.8672 61.0433 52.5312 60.5953 52.0926 60.306C51.6539 60.012 51.1242 59.865 50.5036 59.865C49.8876 59.865 49.3579 60.012 48.9146 60.306C48.4712 60.6 48.1306 61.0503 47.8926 61.657C47.6546 62.2637 47.5356 63.036 47.5356 63.974C47.5356 64.9027 47.6546 65.6657 47.8926 66.263C48.1306 66.8603 48.4712 67.3013 48.9146 67.586C49.3579 67.8707 49.8876 68.013 50.5036 68.013ZM56.6081 69V61.762H57.8401V63.155C57.9614 62.8097 58.1318 62.525 58.3511 62.301C58.5704 62.0723 58.8201 61.902 59.1001 61.79C59.3848 61.678 59.6788 61.622 59.9821 61.622C60.0894 61.622 60.1944 61.629 60.2971 61.643C60.3998 61.657 60.4791 61.6803 60.5351 61.713V62.966C60.4651 62.9333 60.3741 62.9123 60.2621 62.903C60.1548 62.889 60.0638 62.882 59.9891 62.882C59.6998 62.8633 59.4291 62.882 59.1771 62.938C58.9251 62.9893 58.7034 63.0803 58.5121 63.211C58.3208 63.3417 58.1691 63.5143 58.0571 63.729C57.9498 63.939 57.8961 64.1957 57.8961 64.499V69H56.6081ZM64.6065 69.14C63.6638 69.14 62.9172 68.818 62.3665 68.174C61.8205 67.53 61.5475 66.5897 61.5475 65.353C61.5475 64.6017 61.6572 63.946 61.8765 63.386C62.0958 62.826 62.4248 62.392 62.8635 62.084C63.3022 61.776 63.8482 61.622 64.5015 61.622C64.8515 61.622 65.1595 61.6663 65.4255 61.755C65.6915 61.8437 65.9225 61.9557 66.1185 62.091C66.3145 62.2263 66.4732 62.3663 66.5945 62.511C66.7205 62.6557 66.8138 62.7887 66.8745 62.91V58.598H68.1835V69H67.1895L67.0495 67.516C67.0028 67.656 66.9282 67.8193 66.8255 68.006C66.7228 68.188 66.5782 68.3677 66.3915 68.545C66.2095 68.7177 65.9715 68.86 65.6775 68.972C65.3835 69.084 65.0265 69.14 64.6065 69.14ZM64.8375 68.146C65.5655 68.146 66.0858 67.9243 66.3985 67.481C66.7158 67.033 66.8745 66.3027 66.8745 65.29C66.8698 64.7253 66.7998 64.2447 66.6645 63.848C66.5292 63.4513 66.3145 63.1503 66.0205 62.945C65.7312 62.735 65.3438 62.63 64.8585 62.63C64.2658 62.63 63.7828 62.8423 63.4095 63.267C63.0362 63.6917 62.8495 64.366 62.8495 65.29C62.8495 66.1953 63.0175 66.8977 63.3535 67.397C63.6895 67.8963 64.1842 68.146 64.8375 68.146ZM73.38 69.14C72.708 69.14 72.1153 68.993 71.602 68.699C71.0887 68.405 70.6873 67.9827 70.398 67.432C70.1087 66.8813 69.964 66.221 69.964 65.451C69.964 64.6903 70.0947 64.023 70.356 63.449C70.6173 62.875 70.9953 62.427 71.49 62.105C71.9893 61.783 72.589 61.622 73.289 61.622C73.9703 61.622 74.5467 61.769 75.018 62.063C75.4893 62.357 75.8463 62.7723 76.089 63.309C76.3363 63.841 76.46 64.4733 76.46 65.206V65.682H71.273C71.273 66.1393 71.3477 66.5547 71.497 66.928C71.651 67.2967 71.882 67.5907 72.19 67.81C72.498 68.0293 72.8877 68.139 73.359 68.139C73.821 68.139 74.2177 68.0317 74.549 67.817C74.885 67.6023 75.0997 67.292 75.193 66.886H76.411C76.327 67.376 76.131 67.789 75.823 68.125C75.5197 68.461 75.1533 68.7153 74.724 68.888C74.2993 69.056 73.8513 69.14 73.38 69.14ZM71.28 64.807H75.214C75.214 64.3917 75.144 64.0183 75.004 63.687C74.864 63.351 74.6493 63.0873 74.36 62.896C74.0753 62.7 73.716 62.602 73.282 62.602C72.8293 62.602 72.4537 62.7117 72.155 62.931C71.8563 63.1457 71.6347 63.4233 71.49 63.764C71.3453 64.1 71.2753 64.4477 71.28 64.807ZM78.2507 69V61.762H79.4827V63.155C79.604 62.8097 79.7744 62.525 79.9937 62.301C80.213 62.0723 80.4627 61.902 80.7427 61.79C81.0274 61.678 81.3214 61.622 81.6247 61.622C81.732 61.622 81.837 61.629 81.9397 61.643C82.0424 61.657 82.1217 61.6803 82.1777 61.713V62.966C82.1077 62.9333 82.0167 62.9123 81.9047 62.903C81.7974 62.889 81.7064 62.882 81.6317 62.882C81.3424 62.8633 81.0717 62.882 80.8197 62.938C80.5677 62.9893 80.346 63.0803 80.1547 63.211C79.9634 63.3417 79.8117 63.5143 79.6997 63.729C79.5924 63.939 79.5387 64.1957 79.5387 64.499V69H78.2507Z" fill="#1A1B1D"/>
<path d="M373 64C373 28.6538 401.654 0 437 0V0C472.346 0 501 28.6538 501 64V64C501 99.3462 472.346 128 437 128V128C401.654 128 373 99.3462 373 64V64Z" fill="#C990C0"/>
<path d="M423.742 69V58.878H425.037V69H423.742ZM430.026 69.035C429.526 69.035 429.139 68.9673 428.864 68.832C428.588 68.6967 428.395 68.496 428.283 68.23C428.175 67.964 428.122 67.6373 428.122 67.25V62.707H426.946V61.762H428.157L428.472 59.655H429.424V61.755H431.055V62.707H429.424V67.208C429.424 67.4647 429.449 67.6537 429.501 67.775C429.557 67.8917 429.648 67.9663 429.774 67.999C429.9 68.0317 430.077 68.048 430.306 68.048H431.097V68.916C431.008 68.9487 430.873 68.9767 430.691 69C430.513 69.0233 430.292 69.035 430.026 69.035ZM435.682 69.14C435.01 69.14 434.417 68.993 433.904 68.699C433.39 68.405 432.989 67.9827 432.7 67.432C432.41 66.8813 432.266 66.221 432.266 65.451C432.266 64.6903 432.396 64.023 432.658 63.449C432.919 62.875 433.297 62.427 433.792 62.105C434.291 61.783 434.891 61.622 435.591 61.622C436.272 61.622 436.848 61.769 437.32 62.063C437.791 62.357 438.148 62.7723 438.391 63.309C438.638 63.841 438.762 64.4733 438.762 65.206V65.682H433.575C433.575 66.1393 433.649 66.5547 433.799 66.928C433.953 67.2967 434.184 67.5907 434.492 67.81C434.8 68.0293 435.189 68.139 435.661 68.139C436.123 68.139 436.519 68.0317 436.851 67.817C437.187 67.6023 437.401 67.292 437.495 66.886H438.713C438.629 67.376 438.433 67.789 438.125 68.125C437.821 68.461 437.455 68.7153 437.026 68.888C436.601 69.056 436.153 69.14 435.682 69.14ZM433.582 64.807H437.516C437.516 64.3917 437.446 64.0183 437.306 63.687C437.166 63.351 436.951 63.0873 436.662 62.896C436.377 62.7 436.018 62.602 435.584 62.602C435.131 62.602 434.755 62.7117 434.457 62.931C434.158 63.1457 433.936 63.4233 433.792 63.764C433.647 64.1 433.577 64.4477 433.582 64.807ZM440.552 69V61.762H441.798V62.812C441.999 62.4947 442.274 62.217 442.624 61.979C442.974 61.741 443.429 61.622 443.989 61.622C444.251 61.622 444.517 61.6663 444.787 61.755C445.063 61.8437 445.315 61.9767 445.543 62.154C445.772 62.3313 445.949 62.5483 446.075 62.805C446.299 62.4503 446.603 62.1657 446.985 61.951C447.368 61.7317 447.8 61.622 448.28 61.622C448.532 61.622 448.796 61.6617 449.071 61.741C449.347 61.8157 449.601 61.951 449.834 62.147C450.072 62.3383 450.266 62.6067 450.415 62.952C450.565 63.2927 450.639 63.7313 450.639 64.268V69H449.337V64.394C449.337 63.9553 449.267 63.617 449.127 63.379C448.987 63.1363 448.803 62.966 448.574 62.868C448.35 62.77 448.11 62.721 447.853 62.721C447.629 62.721 447.391 62.7653 447.139 62.854C446.887 62.9427 446.673 63.092 446.495 63.302C446.318 63.512 446.229 63.799 446.229 64.163V69H444.941V64.016C444.941 63.7313 444.864 63.4933 444.71 63.302C444.561 63.1107 444.372 62.966 444.143 62.868C443.919 62.77 443.695 62.721 443.471 62.721C443.224 62.721 442.974 62.77 442.722 62.868C442.475 62.966 442.265 63.1223 442.092 63.337C441.924 63.547 441.84 63.8223 441.84 64.163V69H440.552Z" fill="white"/>
<path d="M131.5 63C130.948 63 130.5 63.4477 130.5 64C130.5 64.5523 130.948 65 131.5 65V63ZM207.938 65C208.49 65 208.938 64.5523 208.938 64C208.938 63.4477 208.49 63 207.938 63V65ZM293.062 63C292.51 63 292.062 63.4477 292.062 64C292.062 64.5523 292.51 65 293.062 65V63ZM370.207 64.7071C370.598 64.3166 370.598 63.6834 370.207 63.2929L363.843 56.9289C363.453 56.5384 362.819 56.5384 362.429 56.9289C362.038 57.3195 362.038 57.9526 362.429 58.3431L368.086 64L362.429 69.6569C362.038 70.0474 362.038 70.6805 362.429 71.0711C362.819 71.4616 363.453 71.4616 363.843 71.0711L370.207 64.7071ZM131.5 64V65H207.938V64V63H131.5V64ZM293.062 64V65H369.5V64V63H293.062V64Z" fill="#1A1B1D"/>
<path d="M224.377 62.6293H222.826C222.766 62.2978 222.655 62.0062 222.493 61.7543C222.33 61.5024 222.131 61.2886 221.896 61.1129C221.661 60.9373 221.397 60.8047 221.106 60.7152C220.817 60.6257 220.511 60.581 220.186 60.581C219.599 60.581 219.074 60.7285 218.61 61.0234C218.149 61.3184 217.785 61.7509 217.516 62.321C217.251 62.8911 217.118 63.5871 217.118 64.4091C217.118 65.2377 217.251 65.937 217.516 66.5071C217.785 67.0772 218.151 67.508 218.615 67.7997C219.079 68.0914 219.601 68.2372 220.181 68.2372C220.502 68.2372 220.807 68.1941 221.096 68.108C221.387 68.0185 221.651 67.8875 221.886 67.7152C222.122 67.5429 222.32 67.3324 222.483 67.0838C222.649 66.8319 222.763 66.5436 222.826 66.2188L224.377 66.2237C224.294 66.7242 224.133 67.1849 223.895 67.6058C223.659 68.0234 223.356 68.3847 222.985 68.6896C222.617 68.9912 222.196 69.2249 221.722 69.3906C221.248 69.5563 220.731 69.6392 220.171 69.6392C219.289 69.6392 218.504 69.4304 217.814 69.0128C217.125 68.5919 216.582 67.9903 216.184 67.2081C215.789 66.4259 215.592 65.4929 215.592 64.4091C215.592 63.322 215.791 62.389 216.189 61.6101C216.586 60.8279 217.13 60.228 217.819 59.8104C218.509 59.3894 219.293 59.179 220.171 59.179C220.711 59.179 221.215 59.2569 221.682 59.4126C222.153 59.5651 222.576 59.7905 222.95 60.0888C223.325 60.3838 223.635 60.745 223.88 61.1726C224.125 61.5968 224.291 62.0824 224.377 62.6293ZM234.906 64.4091C234.906 65.4962 234.707 66.4309 234.309 67.2131C233.911 67.992 233.366 68.5919 232.673 69.0128C231.984 69.4304 231.2 69.6392 230.322 69.6392C229.44 69.6392 228.653 69.4304 227.96 69.0128C227.271 68.5919 226.727 67.9903 226.33 67.2081C225.932 66.4259 225.733 65.4929 225.733 64.4091C225.733 63.322 225.932 62.389 226.33 61.6101C226.727 60.8279 227.271 60.228 227.96 59.8104C228.653 59.3894 229.44 59.179 230.322 59.179C231.2 59.179 231.984 59.3894 232.673 59.8104C233.366 60.228 233.911 60.8279 234.309 61.6101C234.707 62.389 234.906 63.322 234.906 64.4091ZM233.384 64.4091C233.384 63.5805 233.25 62.8828 232.982 62.3161C232.717 61.746 232.352 61.3151 231.888 61.0234C231.427 60.7285 230.905 60.581 230.322 60.581C229.735 60.581 229.212 60.7285 228.751 61.0234C228.29 61.3151 227.926 61.746 227.657 62.3161C227.392 62.8828 227.259 63.5805 227.259 64.4091C227.259 65.2377 227.392 65.937 227.657 66.5071C227.926 67.0739 228.29 67.5047 228.751 67.7997C229.212 68.0914 229.735 68.2372 230.322 68.2372C230.905 68.2372 231.427 68.0914 231.888 67.7997C232.352 67.5047 232.717 67.0739 232.982 66.5071C233.25 65.937 233.384 65.2377 233.384 64.4091ZM244.885 59.3182V69.5H243.473L238.298 62.0327H238.203V69.5H236.667V59.3182H238.089L243.269 66.7955H243.364V59.3182H244.885ZM246.47 60.6406V59.3182H254.35V60.6406H251.173V69.5H249.642V60.6406H246.47ZM255.594 69.5H253.963L257.627 59.3182H259.402L263.066 69.5H261.436L258.557 61.1676H258.478L255.594 69.5ZM255.868 65.5128H261.157V66.8054H255.868V65.5128ZM265.919 59.3182V69.5H264.383V59.3182H265.919ZM276.22 59.3182V69.5H274.808L269.633 62.0327H269.538V69.5H268.002V59.3182H269.424L274.604 66.7955H274.699V59.3182H276.22ZM283.86 61.9929C283.807 61.5223 283.589 61.1577 283.204 60.8991C282.82 60.6373 282.336 60.5064 281.752 60.5064C281.335 60.5064 280.974 60.5727 280.669 60.7053C280.364 60.8345 280.127 61.0135 279.958 61.2422C279.792 61.4676 279.709 61.7244 279.709 62.0128C279.709 62.2547 279.765 62.4635 279.878 62.6392C279.994 62.8149 280.145 62.9624 280.331 63.0817C280.52 63.1977 280.722 63.2955 280.937 63.375C281.153 63.4512 281.36 63.5142 281.559 63.5639L282.553 63.8224C282.878 63.902 283.211 64.0097 283.552 64.1456C283.894 64.2815 284.21 64.4605 284.502 64.6825C284.793 64.9046 285.029 65.1797 285.208 65.5078C285.39 65.8359 285.481 66.2287 285.481 66.6861C285.481 67.2628 285.332 67.7749 285.034 68.2223C284.739 68.6697 284.31 69.0227 283.746 69.2812C283.186 69.5398 282.508 69.669 281.713 69.669C280.95 69.669 280.291 69.5481 279.734 69.3061C279.177 69.0642 278.741 68.7211 278.426 68.277C278.112 67.8295 277.938 67.2992 277.904 66.6861H279.446C279.475 67.054 279.595 67.3606 279.804 67.6058C280.016 67.8478 280.286 68.0284 280.614 68.1477C280.945 68.2637 281.308 68.3217 281.703 68.3217C282.137 68.3217 282.523 68.2538 282.861 68.1179C283.203 67.9787 283.471 67.7865 283.667 67.5412C283.862 67.2926 283.96 67.0026 283.96 66.6712C283.96 66.3696 283.874 66.1226 283.701 65.9304C283.532 65.7382 283.302 65.5791 283.01 65.4531C282.722 65.3272 282.395 65.2161 282.031 65.12L280.828 64.7919C280.012 64.5698 279.366 64.2434 278.889 63.8125C278.415 63.3816 278.178 62.8116 278.178 62.1023C278.178 61.5156 278.337 61.0036 278.655 60.5661C278.973 60.1286 279.404 59.7888 279.948 59.5469C280.491 59.3016 281.104 59.179 281.787 59.179C282.477 59.179 283.085 59.3 283.612 59.5419C284.142 59.7839 284.56 60.117 284.865 60.5412C285.17 60.9621 285.329 61.446 285.342 61.9929H283.86Z" fill="black" fill-opacity="0.8"/>
<path d="M9.994 145V137.762H11.625V145H9.994ZM9.966 136.495V134.885H11.653V136.495H9.966ZM16.2634 145.14C15.3067 145.14 14.5554 144.811 14.0094 144.153C13.4634 143.495 13.1904 142.559 13.1904 141.346C13.1904 140.59 13.3 139.934 13.5194 139.379C13.7434 138.819 14.0724 138.387 14.5064 138.084C14.9404 137.776 15.4747 137.622 16.1094 137.622C16.408 137.622 16.6787 137.659 16.9214 137.734C17.1687 137.804 17.388 137.897 17.5794 138.014C17.7707 138.131 17.9317 138.259 18.0624 138.399C18.1977 138.539 18.3027 138.679 18.3774 138.819V134.598H20.0924V145H18.8324L18.6434 143.516C18.5827 143.689 18.4964 143.871 18.3844 144.062C18.277 144.249 18.13 144.424 17.9434 144.587C17.7614 144.75 17.5327 144.883 17.2574 144.986C16.982 145.089 16.6507 145.14 16.2634 145.14ZM16.6134 143.887C17.2247 143.887 17.6704 143.689 17.9504 143.292C18.235 142.891 18.3774 142.228 18.3774 141.304C18.3727 140.777 18.3074 140.333 18.1814 139.974C18.06 139.615 17.8734 139.344 17.6214 139.162C17.3694 138.98 17.0404 138.889 16.6344 138.889C16.121 138.889 15.6987 139.078 15.3674 139.456C15.0407 139.834 14.8774 140.45 14.8774 141.304C14.8774 142.153 15.029 142.797 15.3324 143.236C15.6357 143.67 16.0627 143.887 16.6134 143.887ZM21.7729 139.932V137.986H23.6979V139.932H21.7729ZM21.7729 144.958V143.026H23.6979V144.958H21.7729ZM32.5885 145.14C32.0845 145.14 31.6015 145.079 31.1395 144.958C30.6775 144.832 30.2551 144.648 29.8725 144.405C29.4945 144.158 29.1818 143.852 28.9345 143.488C28.6871 143.119 28.5355 142.69 28.4795 142.2H30.2435C30.3181 142.541 30.4651 142.828 30.6845 143.061C30.9085 143.294 31.1908 143.472 31.5315 143.593C31.8721 143.714 32.2525 143.775 32.6725 143.775C33.0458 143.775 33.3935 143.719 33.7155 143.607C34.0375 143.495 34.2988 143.329 34.4995 143.11C34.7001 142.886 34.8005 142.611 34.8005 142.284C34.8005 141.915 34.6698 141.628 34.4085 141.423C34.1518 141.213 33.7831 141.047 33.3025 140.926L31.3215 140.457C30.8081 140.34 30.3601 140.17 29.9775 139.946C29.5995 139.722 29.3055 139.428 29.0955 139.064C28.8855 138.695 28.7805 138.245 28.7805 137.713C28.7805 137.106 28.9461 136.581 29.2775 136.138C29.6135 135.695 30.0685 135.354 30.6425 135.116C31.2165 134.873 31.8628 134.752 32.5815 134.752C33.4028 134.752 34.0958 134.89 34.6605 135.165C35.2251 135.436 35.6545 135.8 35.9485 136.257C36.2425 136.714 36.3918 137.216 36.3965 137.762H34.6745C34.6371 137.356 34.5181 137.036 34.3175 136.803C34.1168 136.565 33.8625 136.392 33.5545 136.285C33.2465 136.178 32.9058 136.124 32.5325 136.124C31.8698 136.124 31.3775 136.266 31.0555 136.551C30.7335 136.836 30.5725 137.169 30.5725 137.552C30.5725 137.911 30.6915 138.196 30.9295 138.406C31.1675 138.616 31.5315 138.779 32.0215 138.896L33.9045 139.337C34.5345 139.468 35.0408 139.668 35.4235 139.939C35.8061 140.21 36.0838 140.532 36.2565 140.905C36.4338 141.274 36.5225 141.682 36.5225 142.13C36.5225 142.718 36.3545 143.238 36.0185 143.691C35.6871 144.144 35.2275 144.498 34.6395 144.755C34.0515 145.012 33.3678 145.14 32.5885 145.14ZM40.5944 145V136.411H37.4444V134.878H45.3404V136.411H42.3024V145H40.5944ZM46.8656 145V134.878H50.9746C51.7493 134.878 52.3863 134.999 52.8856 135.242C53.3896 135.48 53.763 135.818 54.0056 136.257C54.2483 136.691 54.3696 137.2 54.3696 137.783C54.3696 138.324 54.281 138.779 54.1036 139.148C53.9263 139.512 53.6953 139.811 53.4106 140.044C53.1306 140.273 52.8296 140.459 52.5076 140.604L54.4396 145H52.6616L50.9186 140.891H48.5666V145H46.8656ZM48.5666 139.54H50.5896C51.2336 139.54 51.7353 139.391 52.0946 139.092C52.4586 138.793 52.6406 138.378 52.6406 137.846C52.6406 137.323 52.4726 136.92 52.1366 136.635C51.8006 136.35 51.3573 136.208 50.8066 136.208H48.5666V139.54ZM56.477 145V134.878H58.178V145H56.477ZM60.6332 145V134.878H62.2992L67.2552 142.109V134.878H68.9562V145H67.4232L62.3342 137.573V145H60.6332ZM75.3266 145.14C74.4213 145.14 73.635 144.932 72.9676 144.517C72.3003 144.102 71.787 143.509 71.4276 142.739C71.0683 141.964 70.8886 141.04 70.8886 139.967C70.8886 138.884 71.0753 137.951 71.4486 137.167C71.822 136.383 72.347 135.783 73.0236 135.368C73.705 134.948 74.503 134.738 75.4176 134.738C75.9776 134.738 76.4933 134.831 76.9646 135.018C77.4406 135.205 77.856 135.457 78.2106 135.774C78.57 136.091 78.8523 136.453 79.0576 136.859C79.263 137.265 79.3773 137.687 79.4006 138.126H77.6016C77.5363 137.781 77.4033 137.463 77.2026 137.174C77.0066 136.88 76.7523 136.644 76.4396 136.467C76.1316 136.29 75.7793 136.201 75.3826 136.201C74.874 136.201 74.419 136.329 74.0176 136.586C73.621 136.843 73.3083 137.246 73.0796 137.797C72.8556 138.343 72.7436 139.052 72.7436 139.925C72.7436 140.616 72.8136 141.199 72.9536 141.675C73.0983 142.146 73.2943 142.527 73.5416 142.816C73.7936 143.101 74.083 143.308 74.4096 143.439C74.7363 143.565 75.0816 143.628 75.4456 143.628C75.8003 143.628 76.113 143.567 76.3836 143.446C76.6543 143.325 76.883 143.166 77.0696 142.97C77.261 142.774 77.408 142.564 77.5106 142.34C77.618 142.111 77.681 141.89 77.6996 141.675L77.7626 140.933H75.5016V139.729L79.5406 139.743V145H78.3366V143.579C78.164 143.836 77.9446 144.083 77.6786 144.321C77.4173 144.559 77.0953 144.755 76.7126 144.909C76.3346 145.063 75.8726 145.14 75.3266 145.14ZM13.004 169.14C12.3133 169.14 11.7113 168.993 11.198 168.699C10.6847 168.4 10.2857 167.973 10.001 167.418C9.721 166.863 9.581 166.195 9.581 165.416C9.581 164.66 9.71867 163.997 9.994 163.428C10.2693 162.859 10.6613 162.415 11.17 162.098C11.6833 161.781 12.297 161.622 13.011 161.622C13.7017 161.622 14.3013 161.774 14.81 162.077C15.3187 162.38 15.7107 162.814 15.986 163.379C16.266 163.944 16.406 164.623 16.406 165.416C16.406 166.149 16.273 166.795 16.007 167.355C15.7457 167.91 15.3607 168.347 14.852 168.664C14.348 168.981 13.732 169.14 13.004 169.14ZM13.011 167.845C13.403 167.845 13.725 167.738 13.977 167.523C14.2337 167.308 14.425 167.014 14.551 166.641C14.677 166.268 14.74 165.843 14.74 165.367C14.74 164.924 14.684 164.515 14.572 164.142C14.46 163.769 14.2757 163.47 14.019 163.246C13.767 163.017 13.431 162.903 13.011 162.903C12.6143 162.903 12.2853 163.008 12.024 163.218C11.7673 163.423 11.576 163.713 11.45 164.086C11.324 164.455 11.261 164.882 11.261 165.367C11.261 165.806 11.317 166.214 11.429 166.592C11.541 166.965 11.7253 167.269 11.982 167.502C12.2387 167.731 12.5817 167.845 13.011 167.845ZM17.964 169V161.762H19.595V163.33C19.7117 162.971 19.8774 162.665 20.092 162.413C20.3114 162.156 20.568 161.96 20.862 161.825C21.156 161.69 21.4757 161.622 21.821 161.622C21.905 161.622 21.9867 161.627 22.066 161.636C22.1454 161.645 22.2037 161.662 22.241 161.685V163.316C22.1897 163.293 22.122 163.276 22.038 163.267C21.9587 163.258 21.8887 163.253 21.828 163.253C21.478 163.225 21.1677 163.239 20.897 163.295C20.631 163.351 20.4047 163.447 20.218 163.582C20.036 163.713 19.8984 163.881 19.805 164.086C19.7117 164.287 19.665 164.522 19.665 164.793V169H17.964ZM26.2302 169.14C25.2735 169.14 24.5222 168.811 23.9762 168.153C23.4302 167.495 23.1572 166.559 23.1572 165.346C23.1572 164.59 23.2668 163.934 23.4862 163.379C23.7102 162.819 24.0392 162.387 24.4732 162.084C24.9072 161.776 25.4415 161.622 26.0762 161.622C26.3748 161.622 26.6455 161.659 26.8882 161.734C27.1355 161.804 27.3548 161.897 27.5462 162.014C27.7375 162.131 27.8985 162.259 28.0292 162.399C28.1645 162.539 28.2695 162.679 28.3442 162.819V158.598H30.0592V169H28.7992L28.6102 167.516C28.5495 167.689 28.4632 167.871 28.3512 168.062C28.2438 168.249 28.0968 168.424 27.9102 168.587C27.7282 168.75 27.4995 168.883 27.2242 168.986C26.9488 169.089 26.6175 169.14 26.2302 169.14ZM26.5802 167.887C27.1915 167.887 27.6372 167.689 27.9172 167.292C28.2018 166.891 28.3442 166.228 28.3442 165.304C28.3395 164.777 28.2742 164.333 28.1482 163.974C28.0268 163.615 27.8402 163.344 27.5882 163.162C27.3362 162.98 27.0072 162.889 26.6012 162.889C26.0878 162.889 25.6655 163.078 25.3342 163.456C25.0075 163.834 24.8442 164.45 24.8442 165.304C24.8442 166.153 24.9958 166.797 25.2992 167.236C25.6025 167.67 26.0295 167.887 26.5802 167.887ZM35.1767 169.14C34.4814 169.14 33.8677 168.993 33.3357 168.699C32.8084 168.4 32.3954 167.976 32.0967 167.425C31.8027 166.874 31.6557 166.219 31.6557 165.458C31.6557 164.716 31.7887 164.058 32.0547 163.484C32.3254 162.905 32.7151 162.45 33.2237 162.119C33.7371 161.788 34.3554 161.622 35.0787 161.622C35.7927 161.622 36.3924 161.774 36.8777 162.077C37.3631 162.38 37.7317 162.805 37.9837 163.351C38.2357 163.892 38.3617 164.527 38.3617 165.255V165.773H33.3567C33.3521 166.184 33.4174 166.548 33.5527 166.865C33.6881 167.182 33.8887 167.432 34.1547 167.614C34.4207 167.791 34.7497 167.88 35.1417 167.88C35.5431 167.88 35.8907 167.791 36.1847 167.614C36.4834 167.432 36.6817 167.157 36.7797 166.788H38.3337C38.2497 167.292 38.0491 167.719 37.7317 168.069C37.4191 168.419 37.0364 168.685 36.5837 168.867C36.1357 169.049 35.6667 169.14 35.1767 169.14ZM33.3497 164.716H36.7517C36.7517 164.366 36.6887 164.051 36.5627 163.771C36.4414 163.486 36.2571 163.262 36.0097 163.099C35.7624 162.931 35.4497 162.847 35.0717 162.847C34.6984 162.847 34.3834 162.938 34.1267 163.12C33.8701 163.302 33.6764 163.538 33.5457 163.827C33.4151 164.112 33.3497 164.408 33.3497 164.716ZM39.9894 169V161.762H41.6204V163.33C41.7371 162.971 41.9028 162.665 42.1174 162.413C42.3368 162.156 42.5934 161.96 42.8874 161.825C43.1814 161.69 43.5011 161.622 43.8464 161.622C43.9304 161.622 44.0121 161.627 44.0914 161.636C44.1708 161.645 44.2291 161.662 44.2664 161.685V163.316C44.2151 163.293 44.1474 163.276 44.0634 163.267C43.9841 163.258 43.9141 163.253 43.8534 163.253C43.5034 163.225 43.1931 163.239 42.9224 163.295C42.6564 163.351 42.4301 163.447 42.2434 163.582C42.0614 163.713 41.9238 163.881 41.8304 164.086C41.7371 164.287 41.6904 164.522 41.6904 164.793V169H39.9894ZM45.8813 169V158.878C45.9233 158.878 46.0469 158.878 46.2523 158.878C46.4576 158.878 46.7003 158.878 46.9803 158.878C47.2649 158.878 47.5519 158.88 47.8413 158.885C48.1353 158.885 48.3896 158.887 48.6043 158.892C49.8363 158.915 50.8373 159.128 51.6073 159.529C52.3819 159.926 52.9489 160.493 53.3083 161.23C53.6723 161.963 53.8543 162.847 53.8543 163.883C53.8543 164.966 53.6606 165.887 53.2733 166.648C52.8906 167.409 52.3026 167.992 51.5093 168.398C50.7206 168.799 49.7173 169 48.4993 169H45.8813ZM47.6103 167.593H48.5273C49.2226 167.593 49.8363 167.474 50.3683 167.236C50.9003 166.993 51.3156 166.601 51.6143 166.06C51.9176 165.519 52.0693 164.795 52.0693 163.89C52.0693 163.013 51.9293 162.31 51.6493 161.783C51.3693 161.256 50.9679 160.875 50.4453 160.642C49.9226 160.404 49.2973 160.285 48.5693 160.285H47.6103V167.593ZM57.6274 169.14C57.1654 169.14 56.75 169.056 56.3814 168.888C56.0174 168.715 55.7304 168.47 55.5204 168.153C55.315 167.831 55.2124 167.441 55.2124 166.984C55.2124 166.186 55.4994 165.584 56.0734 165.178C56.652 164.772 57.5714 164.56 58.8314 164.541L59.9164 164.513V164.023C59.9164 163.64 59.802 163.342 59.5734 163.127C59.3494 162.908 58.9994 162.8 58.5234 162.805C58.1687 162.81 57.8467 162.894 57.5574 163.057C57.268 163.216 57.0767 163.484 56.9834 163.862H55.5344C55.5624 163.367 55.7047 162.954 55.9614 162.623C56.2227 162.287 56.5797 162.037 57.0324 161.874C57.485 161.706 58.0077 161.622 58.6004 161.622C59.291 161.622 59.8534 161.713 60.2874 161.895C60.7214 162.077 61.041 162.341 61.2464 162.686C61.4517 163.027 61.5544 163.44 61.5544 163.925V169H60.1194L59.9794 167.698C59.7227 168.244 59.3937 168.622 58.9924 168.832C58.5957 169.037 58.1407 169.14 57.6274 169.14ZM58.1804 167.985C58.3904 167.985 58.598 167.948 58.8034 167.873C59.0087 167.794 59.193 167.689 59.3564 167.558C59.5244 167.423 59.6574 167.273 59.7554 167.11C59.858 166.947 59.9117 166.776 59.9164 166.599V165.458L59.0274 165.472C58.5887 165.477 58.2037 165.523 57.8724 165.612C57.5457 165.701 57.2914 165.843 57.1094 166.039C56.9274 166.23 56.8364 166.487 56.8364 166.809C56.8364 167.178 56.9647 167.467 57.2214 167.677C57.478 167.882 57.7977 167.985 58.1804 167.985ZM65.9862 169.056C65.4122 169.056 64.9666 168.981 64.6492 168.832C64.3366 168.678 64.1196 168.461 63.9982 168.181C63.8769 167.901 63.8162 167.567 63.8162 167.18V162.966H62.6402V161.762H63.8652L64.2922 159.613H65.5172V161.755H67.1342V162.966H65.5172L65.5242 167.117C65.5242 167.332 65.5476 167.49 65.5942 167.593C65.6456 167.691 65.7249 167.756 65.8322 167.789C65.9442 167.817 66.0912 167.831 66.2732 167.831H67.1692V168.909C67.0712 168.946 66.9266 168.979 66.7352 169.007C66.5486 169.04 66.2989 169.056 65.9862 169.056ZM71.7353 169.14C71.04 169.14 70.4263 168.993 69.8943 168.699C69.367 168.4 68.954 167.976 68.6553 167.425C68.3613 166.874 68.2143 166.219 68.2143 165.458C68.2143 164.716 68.3473 164.058 68.6133 163.484C68.884 162.905 69.2736 162.45 69.7823 162.119C70.2956 161.788 70.914 161.622 71.6373 161.622C72.3513 161.622 72.951 161.774 73.4363 162.077C73.9216 162.38 74.2903 162.805 74.5423 163.351C74.7943 163.892 74.9203 164.527 74.9203 165.255V165.773H69.9153C69.9106 166.184 69.976 166.548 70.1113 166.865C70.2466 167.182 70.4473 167.432 70.7133 167.614C70.9793 167.791 71.3083 167.88 71.7003 167.88C72.1016 167.88 72.4493 167.791 72.7433 167.614C73.042 167.432 73.2403 167.157 73.3383 166.788H74.8923C74.8083 167.292 74.6076 167.719 74.2903 168.069C73.9776 168.419 73.595 168.685 73.1423 168.867C72.6943 169.049 72.2253 169.14 71.7353 169.14ZM69.9083 164.716H73.3103C73.3103 164.366 73.2473 164.051 73.1213 163.771C73 163.486 72.8156 163.262 72.5683 163.099C72.321 162.931 72.0083 162.847 71.6303 162.847C71.257 162.847 70.942 162.938 70.6853 163.12C70.4286 163.302 70.235 163.538 70.1043 163.827C69.9736 164.112 69.9083 164.408 69.9083 164.716ZM76.31 163.932V161.986H78.235V163.932H76.31ZM76.31 168.958V167.026H78.235V168.958H76.31ZM83.4926 169V158.878C83.5346 158.878 83.6582 158.878 83.8636 158.878C84.0689 158.878 84.3116 158.878 84.5916 158.878C84.8762 158.878 85.1632 158.88 85.4526 158.885C85.7466 158.885 86.0009 158.887 86.2156 158.892C87.4476 158.915 88.4486 159.128 89.2186 159.529C89.9932 159.926 90.5602 160.493 90.9196 161.23C91.2836 161.963 91.4656 162.847 91.4656 163.883C91.4656 164.966 91.2719 165.887 90.8846 166.648C90.5019 167.409 89.9139 167.992 89.1206 168.398C88.3319 168.799 87.3286 169 86.1106 169H83.4926ZM85.2216 167.593H86.1386C86.8339 167.593 87.4476 167.474 87.9796 167.236C88.5116 166.993 88.9269 166.601 89.2256 166.06C89.5289 165.519 89.6806 164.795 89.6806 163.89C89.6806 163.013 89.5406 162.31 89.2606 161.783C88.9806 161.256 88.5792 160.875 88.0566 160.642C87.5339 160.404 86.9086 160.285 86.1806 160.285H85.2216V167.593ZM92.2319 169L95.8649 158.878H97.7129L101.346 169H99.6379L98.7349 166.459H94.8569L93.9469 169H92.2319ZM95.2629 164.947H98.3079L96.7889 160.53L95.2629 164.947ZM104.046 169V160.411H100.896V158.878H108.792V160.411H105.754V169H104.046ZM110.317 169V158.878H117.009L117.002 160.341H112.032V163.176H116.421V164.618H112.018V167.516L117.107 167.523V169H110.317ZM12.871 193.056C12.297 193.056 11.8513 192.981 11.534 192.832C11.2213 192.678 11.0043 192.461 10.883 192.181C10.7617 191.901 10.701 191.567 10.701 191.18V186.966H9.525V185.762H10.75L11.177 183.613H12.402V185.755H14.019V186.966H12.402L12.409 191.117C12.409 191.332 12.4323 191.49 12.479 191.593C12.5303 191.691 12.6097 191.756 12.717 191.789C12.829 191.817 12.976 191.831 13.158 191.831H14.054V192.909C13.956 192.946 13.8113 192.979 13.62 193.007C13.4333 193.04 13.1837 193.056 12.871 193.056ZM18.4591 193.14C17.7684 193.14 17.1664 192.993 16.6531 192.699C16.1397 192.4 15.7407 191.973 15.4561 191.418C15.1761 190.863 15.0361 190.195 15.0361 189.416C15.0361 188.66 15.1737 187.997 15.4491 187.428C15.7244 186.859 16.1164 186.415 16.6251 186.098C17.1384 185.781 17.7521 185.622 18.4661 185.622C19.1567 185.622 19.7564 185.774 20.2651 186.077C20.7737 186.38 21.1657 186.814 21.4411 187.379C21.7211 187.944 21.8611 188.623 21.8611 189.416C21.8611 190.149 21.7281 190.795 21.4621 191.355C21.2007 191.91 20.8157 192.347 20.3071 192.664C19.8031 192.981 19.1871 193.14 18.4591 193.14ZM18.4661 191.845C18.8581 191.845 19.1801 191.738 19.4321 191.523C19.6887 191.308 19.8801 191.014 20.0061 190.641C20.1321 190.268 20.1951 189.843 20.1951 189.367C20.1951 188.924 20.1391 188.515 20.0271 188.142C19.9151 187.769 19.7307 187.47 19.4741 187.246C19.2221 187.017 18.8861 186.903 18.4661 186.903C18.0694 186.903 17.7404 187.008 17.4791 187.218C17.2224 187.423 17.0311 187.713 16.9051 188.086C16.7791 188.455 16.7161 188.882 16.7161 189.367C16.7161 189.806 16.7721 190.214 16.8841 190.592C16.9961 190.965 17.1804 191.269 17.4371 191.502C17.6937 191.731 18.0367 191.845 18.4661 191.845ZM26.0507 193.056C25.4767 193.056 25.031 192.981 24.7137 192.832C24.401 192.678 24.184 192.461 24.0627 192.181C23.9414 191.901 23.8807 191.567 23.8807 191.18V186.966H22.7047V185.762H23.9297L24.3567 183.613H25.5817V185.755H27.1987V186.966H25.5817L25.5887 191.117C25.5887 191.332 25.612 191.49 25.6587 191.593C25.71 191.691 25.7894 191.756 25.8967 191.789C26.0087 191.817 26.1557 191.831 26.3377 191.831H27.2337V192.909C27.1357 192.946 26.991 192.979 26.7997 193.007C26.613 193.04 26.3634 193.056 26.0507 193.056ZM30.8715 193.14C30.4095 193.14 29.9942 193.056 29.6255 192.888C29.2615 192.715 28.9745 192.47 28.7645 192.153C28.5592 191.831 28.4565 191.441 28.4565 190.984C28.4565 190.186 28.7435 189.584 29.3175 189.178C29.8962 188.772 30.8155 188.56 32.0755 188.541L33.1605 188.513V188.023C33.1605 187.64 33.0462 187.342 32.8175 187.127C32.5935 186.908 32.2435 186.8 31.7675 186.805C31.4128 186.81 31.0908 186.894 30.8015 187.057C30.5122 187.216 30.3208 187.484 30.2275 187.862H28.7785C28.8065 187.367 28.9488 186.954 29.2055 186.623C29.4668 186.287 29.8238 186.037 30.2765 185.874C30.7292 185.706 31.2518 185.622 31.8445 185.622C32.5352 185.622 33.0975 185.713 33.5315 185.895C33.9655 186.077 34.2852 186.341 34.4905 186.686C34.6958 187.027 34.7985 187.44 34.7985 187.925V193H33.3635L33.2235 191.698C32.9668 192.244 32.6378 192.622 32.2365 192.832C31.8398 193.037 31.3848 193.14 30.8715 193.14ZM31.4245 191.985C31.6345 191.985 31.8422 191.948 32.0475 191.873C32.2528 191.794 32.4372 191.689 32.6005 191.558C32.7685 191.423 32.9015 191.273 32.9995 191.11C33.1022 190.947 33.1558 190.776 33.1605 190.599V189.458L32.2715 189.472C31.8328 189.477 31.4478 189.523 31.1165 189.612C30.7898 189.701 30.5355 189.843 30.3535 190.039C30.1715 190.23 30.0805 190.487 30.0805 190.809C30.0805 191.178 30.2088 191.467 30.4655 191.677C30.7222 191.882 31.0418 191.985 31.4245 191.985ZM38.6985 193.105C38.2318 193.105 37.8585 193.047 37.5785 192.93C37.2985 192.813 37.0885 192.657 36.9485 192.461C36.8085 192.265 36.7175 192.046 36.6755 191.803C36.6335 191.556 36.6125 191.304 36.6125 191.047V182.598H38.2785V190.851C38.2785 191.164 38.3415 191.406 38.4675 191.579C38.5982 191.752 38.8082 191.852 39.0975 191.88L39.4615 191.894V192.965C39.3355 193.002 39.2072 193.035 39.0765 193.063C38.9458 193.091 38.8198 193.105 38.6985 193.105ZM40.8178 187.932V185.986H42.7428V187.932H40.8178ZM40.8178 192.958V191.026H42.7428V192.958H40.8178ZM48.0004 193V182.878H49.7014V193H48.0004ZM52.1566 193V182.878H53.8226L58.7786 190.109V182.878H60.4796V193H58.9466L53.8576 185.573V193H52.1566ZM65.1491 193V184.411H61.9991V182.878H69.8951V184.411H66.8571V193H65.1491ZM71.4203 193V182.878H78.1123L78.1053 184.341H73.1353V187.176H77.5243V188.618H73.1213V191.516L78.2103 191.523V193H71.4203ZM84.104 193.14C83.1987 193.14 82.4123 192.932 81.745 192.517C81.0777 192.102 80.5643 191.509 80.205 190.739C79.8457 189.964 79.666 189.04 79.666 187.967C79.666 186.884 79.8527 185.951 80.226 185.167C80.5993 184.383 81.1243 183.783 81.801 183.368C82.4823 182.948 83.2803 182.738 84.195 182.738C84.755 182.738 85.2707 182.831 85.742 183.018C86.218 183.205 86.6333 183.457 86.988 183.774C87.3473 184.091 87.6297 184.453 87.835 184.859C88.0403 185.265 88.1547 185.687 88.178 186.126H86.379C86.3137 185.781 86.1807 185.463 85.98 185.174C85.784 184.88 85.5297 184.644 85.217 184.467C84.909 184.29 84.5567 184.201 84.16 184.201C83.6513 184.201 83.1963 184.329 82.795 184.586C82.3983 184.843 82.0857 185.246 81.857 185.797C81.633 186.343 81.521 187.052 81.521 187.925C81.521 188.616 81.591 189.199 81.731 189.675C81.8757 190.146 82.0717 190.527 82.319 190.816C82.571 191.101 82.8603 191.308 83.187 191.439C83.5137 191.565 83.859 191.628 84.223 191.628C84.5777 191.628 84.8903 191.567 85.161 191.446C85.4317 191.325 85.6603 191.166 85.847 190.97C86.0383 190.774 86.1853 190.564 86.288 190.34C86.3953 190.111 86.4583 189.89 86.477 189.675L86.54 188.933H84.279V187.729L88.318 187.743V193H87.114V191.579C86.9413 191.836 86.722 192.083 86.456 192.321C86.1947 192.559 85.8727 192.755 85.49 192.909C85.112 193.063 84.65 193.14 84.104 193.14ZM90.643 193V182.878H97.335L97.328 184.341H92.358V187.176H96.747V188.618H92.344V191.516L97.433 191.523V193H90.643ZM99.516 193V182.878H103.625C104.4 182.878 105.037 182.999 105.536 183.242C106.04 183.48 106.413 183.818 106.656 184.257C106.899 184.691 107.02 185.2 107.02 185.783C107.02 186.324 106.931 186.779 106.754 187.148C106.577 187.512 106.346 187.811 106.061 188.044C105.781 188.273 105.48 188.459 105.158 188.604L107.09 193H105.312L103.569 188.891H101.217V193H99.516ZM101.217 187.54H103.24C103.884 187.54 104.386 187.391 104.745 187.092C105.109 186.793 105.291 186.378 105.291 185.846C105.291 185.323 105.123 184.92 104.787 184.635C104.451 184.35 104.008 184.208 103.457 184.208H101.217V187.54ZM12.738 217.14C12.234 217.14 11.7557 217.061 11.303 216.902C10.855 216.739 10.477 216.484 10.169 216.139C9.86567 215.794 9.67433 215.348 9.595 214.802H11.093C11.1583 215.068 11.2727 215.285 11.436 215.453C11.604 215.621 11.8 215.745 12.024 215.824C12.2527 215.899 12.4883 215.936 12.731 215.936C13.165 215.936 13.515 215.861 13.781 215.712C14.047 215.563 14.18 215.332 14.18 215.019C14.18 214.79 14.1053 214.608 13.956 214.473C13.8113 214.338 13.5733 214.235 13.242 214.165L11.87 213.85C11.254 213.715 10.7617 213.491 10.393 213.178C10.0243 212.865 9.83767 212.424 9.833 211.855C9.82833 211.426 9.93567 211.043 10.155 210.707C10.3743 210.371 10.701 210.107 11.135 209.916C11.569 209.72 12.1033 209.622 12.738 209.622C13.5827 209.622 14.2593 209.811 14.768 210.189C15.2813 210.562 15.545 211.097 15.559 211.792H14.11C14.0587 211.479 13.9117 211.237 13.669 211.064C13.4263 210.887 13.1113 210.798 12.724 210.798C12.3227 210.798 11.9937 210.875 11.737 211.029C11.4803 211.183 11.352 211.419 11.352 211.736C11.352 211.955 11.4477 212.128 11.639 212.254C11.835 212.38 12.1313 212.487 12.528 212.576L13.83 212.891C14.2033 212.984 14.509 213.11 14.747 213.269C14.985 213.428 15.1693 213.603 15.3 213.794C15.4353 213.981 15.5287 214.174 15.58 214.375C15.636 214.571 15.664 214.753 15.664 214.921C15.664 215.388 15.5427 215.787 15.3 216.118C15.062 216.445 14.7237 216.697 14.285 216.874C13.851 217.051 13.3353 217.14 12.738 217.14ZM20.0351 217.056C19.4611 217.056 19.0154 216.981 18.6981 216.832C18.3854 216.678 18.1684 216.461 18.0471 216.181C17.9257 215.901 17.8651 215.567 17.8651 215.18V210.966H16.6891V209.762H17.9141L18.3411 207.613H19.5661V209.755H21.1831V210.966H19.5661L19.5731 215.117C19.5731 215.332 19.5964 215.49 19.6431 215.593C19.6944 215.691 19.7737 215.756 19.8811 215.789C19.9931 215.817 20.1401 215.831 20.3221 215.831H21.2181V216.909C21.1201 216.946 20.9754 216.979 20.7841 217.007C20.5974 217.04 20.3477 217.056 20.0351 217.056ZM24.8559 217.14C24.3939 217.14 23.9785 217.056 23.6099 216.888C23.2459 216.715 22.9589 216.47 22.7489 216.153C22.5435 215.831 22.4409 215.441 22.4409 214.984C22.4409 214.186 22.7279 213.584 23.3019 213.178C23.8805 212.772 24.7999 212.56 26.0599 212.541L27.1449 212.513V212.023C27.1449 211.64 27.0305 211.342 26.8019 211.127C26.5779 210.908 26.2279 210.8 25.7519 210.805C25.3972 210.81 25.0752 210.894 24.7859 211.057C24.4965 211.216 24.3052 211.484 24.2119 211.862H22.7629C22.7909 211.367 22.9332 210.954 23.1899 210.623C23.4512 210.287 23.8082 210.037 24.2609 209.874C24.7135 209.706 25.2362 209.622 25.8289 209.622C26.5195 209.622 27.0819 209.713 27.5159 209.895C27.9499 210.077 28.2695 210.341 28.4749 210.686C28.6802 211.027 28.7829 211.44 28.7829 211.925V217H27.3479L27.2079 215.698C26.9512 216.244 26.6222 216.622 26.2209 216.832C25.8242 217.037 25.3692 217.14 24.8559 217.14ZM25.4089 215.985C25.6189 215.985 25.8265 215.948 26.0319 215.873C26.2372 215.794 26.4215 215.689 26.5849 215.558C26.7529 215.423 26.8859 215.273 26.9839 215.11C27.0865 214.947 27.1402 214.776 27.1449 214.599V213.458L26.2559 213.472C25.8172 213.477 25.4322 213.523 25.1009 213.612C24.7742 213.701 24.5199 213.843 24.3379 214.039C24.1559 214.23 24.0649 214.487 24.0649 214.809C24.0649 215.178 24.1932 215.467 24.4499 215.677C24.7065 215.882 25.0262 215.985 25.4089 215.985ZM33.2148 217.056C32.6408 217.056 32.1951 216.981 31.8778 216.832C31.5651 216.678 31.3481 216.461 31.2268 216.181C31.1054 215.901 31.0448 215.567 31.0448 215.18V210.966H29.8688V209.762H31.0938L31.5208 207.613H32.7458V209.755H34.3628V210.966H32.7458L32.7528 215.117C32.7528 215.332 32.7761 215.49 32.8228 215.593C32.8741 215.691 32.9534 215.756 33.0608 215.789C33.1728 215.817 33.3198 215.831 33.5018 215.831H34.3978V216.909C34.2998 216.946 34.1551 216.979 33.9638 217.007C33.7771 217.04 33.5274 217.056 33.2148 217.056ZM38.5615 217.14C38.2069 217.14 37.8639 217.089 37.5325 216.986C37.2059 216.879 36.9119 216.725 36.6505 216.524C36.3892 216.319 36.1815 216.067 36.0275 215.768C35.8735 215.469 35.7965 215.122 35.7965 214.725V209.762H37.5045V214.529C37.5045 214.921 37.6282 215.243 37.8755 215.495C38.1275 215.747 38.5055 215.873 39.0095 215.873C39.4669 215.873 39.8332 215.754 40.1085 215.516C40.3839 215.273 40.5215 214.926 40.5215 214.473V209.762H42.2155V217H40.9065L40.7175 215.586C40.6289 215.983 40.4725 216.295 40.2485 216.524C40.0292 216.748 39.7702 216.907 39.4715 217C39.1775 217.093 38.8742 217.14 38.5615 217.14ZM46.9177 217.14C46.4137 217.14 45.9354 217.061 45.4827 216.902C45.0347 216.739 44.6567 216.484 44.3487 216.139C44.0454 215.794 43.854 215.348 43.7747 214.802H45.2727C45.338 215.068 45.4524 215.285 45.6157 215.453C45.7837 215.621 45.9797 215.745 46.2037 215.824C46.4324 215.899 46.668 215.936 46.9107 215.936C47.3447 215.936 47.6947 215.861 47.9607 215.712C48.2267 215.563 48.3597 215.332 48.3597 215.019C48.3597 214.79 48.285 214.608 48.1357 214.473C47.991 214.338 47.753 214.235 47.4217 214.165L46.0497 213.85C45.4337 213.715 44.9414 213.491 44.5727 213.178C44.204 212.865 44.0174 212.424 44.0127 211.855C44.008 211.426 44.1154 211.043 44.3347 210.707C44.554 210.371 44.8807 210.107 45.3147 209.916C45.7487 209.72 46.283 209.622 46.9177 209.622C47.7624 209.622 48.439 209.811 48.9477 210.189C49.461 210.562 49.7247 211.097 49.7387 211.792H48.2897C48.2384 211.479 48.0914 211.237 47.8487 211.064C47.606 210.887 47.291 210.798 46.9037 210.798C46.5024 210.798 46.1734 210.875 45.9167 211.029C45.66 211.183 45.5317 211.419 45.5317 211.736C45.5317 211.955 45.6274 212.128 45.8187 212.254C46.0147 212.38 46.311 212.487 46.7077 212.576L48.0097 212.891C48.383 212.984 48.6887 213.11 48.9267 213.269C49.1647 213.428 49.349 213.603 49.4797 213.794C49.615 213.981 49.7084 214.174 49.7597 214.375C49.8157 214.571 49.8437 214.753 49.8437 214.921C49.8437 215.388 49.7224 215.787 49.4797 216.118C49.2417 216.445 48.9034 216.697 48.4647 216.874C48.0307 217.051 47.515 217.14 46.9177 217.14ZM51.1538 211.932V209.986H53.0788V211.932H51.1538ZM51.1538 216.958V215.026H53.0788V216.958H51.1538ZM61.9693 217.14C61.4653 217.14 60.9823 217.079 60.5203 216.958C60.0583 216.832 59.636 216.648 59.2533 216.405C58.8753 216.158 58.5627 215.852 58.3153 215.488C58.068 215.119 57.9163 214.69 57.8603 214.2H59.6243C59.699 214.541 59.846 214.828 60.0653 215.061C60.2893 215.294 60.5717 215.472 60.9123 215.593C61.253 215.714 61.6333 215.775 62.0533 215.775C62.4267 215.775 62.7743 215.719 63.0963 215.607C63.4183 215.495 63.6797 215.329 63.8803 215.11C64.081 214.886 64.1813 214.611 64.1813 214.284C64.1813 213.915 64.0507 213.628 63.7893 213.423C63.5327 213.213 63.164 213.047 62.6833 212.926L60.7023 212.457C60.189 212.34 59.741 212.17 59.3583 211.946C58.9803 211.722 58.6863 211.428 58.4763 211.064C58.2663 210.695 58.1613 210.245 58.1613 209.713C58.1613 209.106 58.327 208.581 58.6583 208.138C58.9943 207.695 59.4493 207.354 60.0233 207.116C60.5973 206.873 61.2437 206.752 61.9623 206.752C62.7837 206.752 63.4767 206.89 64.0413 207.165C64.606 207.436 65.0353 207.8 65.3293 208.257C65.6233 208.714 65.7727 209.216 65.7773 209.762H64.0553C64.018 209.356 63.899 209.036 63.6983 208.803C63.4977 208.565 63.2433 208.392 62.9353 208.285C62.6273 208.178 62.2867 208.124 61.9133 208.124C61.2507 208.124 60.7583 208.266 60.4363 208.551C60.1143 208.836 59.9533 209.169 59.9533 209.552C59.9533 209.911 60.0723 210.196 60.3103 210.406C60.5483 210.616 60.9123 210.779 61.4023 210.896L63.2853 211.337C63.9153 211.468 64.4217 211.668 64.8043 211.939C65.187 212.21 65.4647 212.532 65.6373 212.905C65.8147 213.274 65.9033 213.682 65.9033 214.13C65.9033 214.718 65.7353 215.238 65.3993 215.691C65.068 216.144 64.6083 216.498 64.0203 216.755C63.4323 217.012 62.7487 217.14 61.9693 217.14ZM69.9753 217V208.411H66.8253V206.878H74.7213V208.411H71.6833V217H69.9753ZM76.2465 217V206.878H80.3555C81.1302 206.878 81.7672 206.999 82.2665 207.242C82.7705 207.48 83.1438 207.818 83.3865 208.257C83.6292 208.691 83.7505 209.2 83.7505 209.783C83.7505 210.324 83.6618 210.779 83.4845 211.148C83.3072 211.512 83.0762 211.811 82.7915 212.044C82.5115 212.273 82.2105 212.459 81.8885 212.604L83.8205 217H82.0425L80.2995 212.891H77.9475V217H76.2465ZM77.9475 211.54H79.9705C80.6145 211.54 81.1162 211.391 81.4755 211.092C81.8395 210.793 82.0215 210.378 82.0215 209.846C82.0215 209.323 81.8535 208.92 81.5175 208.635C81.1815 208.35 80.7382 208.208 80.1875 208.208H77.9475V211.54ZM85.8578 217V206.878H87.5588V217H85.8578ZM90.0141 217V206.878H91.6801L96.6361 214.109V206.878H98.3371V217H96.8041L91.7151 209.573V217H90.0141ZM104.708 217.14C103.802 217.14 103.016 216.932 102.349 216.517C101.681 216.102 101.168 215.509 100.809 214.739C100.449 213.964 100.27 213.04 100.27 211.967C100.27 210.884 100.456 209.951 100.83 209.167C101.203 208.383 101.728 207.783 102.405 207.368C103.086 206.948 103.884 206.738 104.799 206.738C105.359 206.738 105.874 206.831 106.346 207.018C106.822 207.205 107.237 207.457 107.592 207.774C107.951 208.091 108.233 208.453 108.439 208.859C108.644 209.265 108.758 209.687 108.782 210.126H106.983C106.917 209.781 106.784 209.463 106.584 209.174C106.388 208.88 106.133 208.644 105.821 208.467C105.513 208.29 105.16 208.201 104.764 208.201C104.255 208.201 103.8 208.329 103.399 208.586C103.002 208.843 102.689 209.246 102.461 209.797C102.237 210.343 102.125 211.052 102.125 211.925C102.125 212.616 102.195 213.199 102.335 213.675C102.479 214.146 102.675 214.527 102.923 214.816C103.175 215.101 103.464 215.308 103.791 215.439C104.117 215.565 104.463 215.628 104.827 215.628C105.181 215.628 105.494 215.567 105.765 215.446C106.035 215.325 106.264 215.166 106.451 214.97C106.642 214.774 106.789 214.564 106.892 214.34C106.999 214.111 107.062 213.89 107.081 213.675L107.144 212.933H104.883V211.729L108.922 211.743V217H107.718V215.579C107.545 215.836 107.326 216.083 107.06 216.321C106.798 216.559 106.476 216.755 106.094 216.909C105.716 217.063 105.254 217.14 104.708 217.14Z" fill="black"/>
<path d="M386.966 145V137.762H388.632V138.798C388.744 138.611 388.896 138.432 389.087 138.259C389.283 138.086 389.523 137.946 389.808 137.839C390.093 137.732 390.426 137.678 390.809 137.678C391.257 137.678 391.672 137.767 392.055 137.944C392.442 138.121 392.753 138.399 392.986 138.777C393.224 139.155 393.343 139.643 393.343 140.24V145H391.635V140.443C391.635 139.967 391.504 139.615 391.243 139.386C390.982 139.153 390.653 139.036 390.256 139.036C389.985 139.036 389.729 139.083 389.486 139.176C389.243 139.265 389.045 139.402 388.891 139.589C388.742 139.771 388.667 140 388.667 140.275V145H386.966ZM397.221 145.14C396.759 145.14 396.344 145.056 395.975 144.888C395.611 144.715 395.324 144.47 395.114 144.153C394.909 143.831 394.806 143.441 394.806 142.984C394.806 142.186 395.093 141.584 395.667 141.178C396.246 140.772 397.165 140.56 398.425 140.541L399.51 140.513V140.023C399.51 139.64 399.396 139.342 399.167 139.127C398.943 138.908 398.593 138.8 398.117 138.805C397.762 138.81 397.44 138.894 397.151 139.057C396.862 139.216 396.67 139.484 396.577 139.862H395.128C395.156 139.367 395.298 138.954 395.555 138.623C395.816 138.287 396.173 138.037 396.626 137.874C397.079 137.706 397.601 137.622 398.194 137.622C398.885 137.622 399.447 137.713 399.881 137.895C400.315 138.077 400.635 138.341 400.84 138.686C401.045 139.027 401.148 139.44 401.148 139.925V145H399.713L399.573 143.698C399.316 144.244 398.987 144.622 398.586 144.832C398.189 145.037 397.734 145.14 397.221 145.14ZM397.774 143.985C397.984 143.985 398.192 143.948 398.397 143.873C398.602 143.794 398.787 143.689 398.95 143.558C399.118 143.423 399.251 143.273 399.349 143.11C399.452 142.947 399.505 142.776 399.51 142.599V141.458L398.621 141.472C398.182 141.477 397.797 141.523 397.466 141.612C397.139 141.701 396.885 141.843 396.703 142.039C396.521 142.23 396.43 142.487 396.43 142.809C396.43 143.178 396.558 143.467 396.815 143.677C397.072 143.882 397.391 143.985 397.774 143.985ZM402.962 145V137.762H404.621V138.798C404.831 138.481 405.116 138.205 405.475 137.972C405.839 137.739 406.301 137.622 406.861 137.622C407.118 137.622 407.377 137.666 407.638 137.755C407.904 137.844 408.149 137.974 408.373 138.147C408.602 138.32 408.784 138.534 408.919 138.791C409.148 138.45 409.451 138.17 409.829 137.951C410.212 137.732 410.641 137.622 411.117 137.622C411.378 137.622 411.647 137.664 411.922 137.748C412.202 137.832 412.459 137.972 412.692 138.168C412.925 138.364 413.114 138.632 413.259 138.973C413.404 139.309 413.476 139.731 413.476 140.24V145H411.775V140.443C411.775 140.084 411.712 139.801 411.586 139.596C411.46 139.391 411.297 139.246 411.096 139.162C410.9 139.073 410.69 139.029 410.466 139.029C410.265 139.029 410.055 139.069 409.836 139.148C409.621 139.227 409.437 139.358 409.283 139.54C409.134 139.722 409.059 139.967 409.059 140.275V145H407.358V140.17C407.358 139.918 407.293 139.708 407.162 139.54C407.031 139.372 406.866 139.246 406.665 139.162C406.469 139.073 406.268 139.029 406.063 139.029C405.853 139.029 405.638 139.073 405.419 139.162C405.204 139.251 405.025 139.386 404.88 139.568C404.735 139.75 404.663 139.986 404.663 140.275V145H402.962ZM418.507 145.14C417.811 145.14 417.198 144.993 416.666 144.699C416.138 144.4 415.725 143.976 415.427 143.425C415.133 142.874 414.986 142.219 414.986 141.458C414.986 140.716 415.119 140.058 415.385 139.484C415.655 138.905 416.045 138.45 416.554 138.119C417.067 137.788 417.685 137.622 418.409 137.622C419.123 137.622 419.722 137.774 420.208 138.077C420.693 138.38 421.062 138.805 421.314 139.351C421.566 139.892 421.692 140.527 421.692 141.255V141.773H416.687C416.682 142.184 416.747 142.548 416.883 142.865C417.018 143.182 417.219 143.432 417.485 143.614C417.751 143.791 418.08 143.88 418.472 143.88C418.873 143.88 419.221 143.791 419.515 143.614C419.813 143.432 420.012 143.157 420.11 142.788H421.664C421.58 143.292 421.379 143.719 421.062 144.069C420.749 144.419 420.366 144.685 419.914 144.867C419.466 145.049 418.997 145.14 418.507 145.14ZM416.68 140.716H420.082C420.082 140.366 420.019 140.051 419.893 139.771C419.771 139.486 419.587 139.262 419.34 139.099C419.092 138.931 418.78 138.847 418.402 138.847C418.028 138.847 417.713 138.938 417.457 139.12C417.2 139.302 417.006 139.538 416.876 139.827C416.745 140.112 416.68 140.408 416.68 140.716ZM423.082 139.932V137.986H425.007V139.932H423.082ZM423.082 144.958V143.026H425.007V144.958H423.082ZM433.897 145.14C433.393 145.14 432.91 145.079 432.448 144.958C431.986 144.832 431.564 144.648 431.181 144.405C430.803 144.158 430.49 143.852 430.243 143.488C429.996 143.119 429.844 142.69 429.788 142.2H431.552C431.627 142.541 431.774 142.828 431.993 143.061C432.217 143.294 432.499 143.472 432.84 143.593C433.181 143.714 433.561 143.775 433.981 143.775C434.354 143.775 434.702 143.719 435.024 143.607C435.346 143.495 435.607 143.329 435.808 143.11C436.009 142.886 436.109 142.611 436.109 142.284C436.109 141.915 435.978 141.628 435.717 141.423C435.46 141.213 435.092 141.047 434.611 140.926L432.63 140.457C432.117 140.34 431.669 140.17 431.286 139.946C430.908 139.722 430.614 139.428 430.404 139.064C430.194 138.695 430.089 138.245 430.089 137.713C430.089 137.106 430.255 136.581 430.586 136.138C430.922 135.695 431.377 135.354 431.951 135.116C432.525 134.873 433.171 134.752 433.89 134.752C434.711 134.752 435.404 134.89 435.969 135.165C436.534 135.436 436.963 135.8 437.257 136.257C437.551 136.714 437.7 137.216 437.705 137.762H435.983C435.946 137.356 435.827 137.036 435.626 136.803C435.425 136.565 435.171 136.392 434.863 136.285C434.555 136.178 434.214 136.124 433.841 136.124C433.178 136.124 432.686 136.266 432.364 136.551C432.042 136.836 431.881 137.169 431.881 137.552C431.881 137.911 432 138.196 432.238 138.406C432.476 138.616 432.84 138.779 433.33 138.896L435.213 139.337C435.843 139.468 436.349 139.668 436.732 139.939C437.115 140.21 437.392 140.532 437.565 140.905C437.742 141.274 437.831 141.682 437.831 142.13C437.831 142.718 437.663 143.238 437.327 143.691C436.996 144.144 436.536 144.498 435.948 144.755C435.36 145.012 434.676 145.14 433.897 145.14ZM441.903 145V136.411H438.753V134.878H446.649V136.411H443.611V145H441.903ZM448.174 145V134.878H452.283C453.058 134.878 453.695 134.999 454.194 135.242C454.698 135.48 455.072 135.818 455.314 136.257C455.557 136.691 455.678 137.2 455.678 137.783C455.678 138.324 455.59 138.779 455.412 139.148C455.235 139.512 455.004 139.811 454.719 140.044C454.439 140.273 454.138 140.459 453.816 140.604L455.748 145H453.97L452.227 140.891H449.875V145H448.174ZM449.875 139.54H451.898C452.542 139.54 453.044 139.391 453.403 139.092C453.767 138.793 453.949 138.378 453.949 137.846C453.949 137.323 453.781 136.92 453.445 136.635C453.109 136.35 452.666 136.208 452.115 136.208H449.875V139.54ZM457.786 145V134.878H459.487V145H457.786ZM461.942 145V134.878H463.608L468.564 142.109V134.878H470.265V145H468.732L463.643 137.573V145H461.942ZM476.635 145.14C475.73 145.14 474.944 144.932 474.276 144.517C473.609 144.102 473.096 143.509 472.736 142.739C472.377 141.964 472.197 141.04 472.197 139.967C472.197 138.884 472.384 137.951 472.757 137.167C473.131 136.383 473.656 135.783 474.332 135.368C475.014 134.948 475.812 134.738 476.726 134.738C477.286 134.738 477.802 134.831 478.273 135.018C478.749 135.205 479.165 135.457 479.519 135.774C479.879 136.091 480.161 136.453 480.366 136.859C480.572 137.265 480.686 137.687 480.709 138.126H478.91C478.845 137.781 478.712 137.463 478.511 137.174C478.315 136.88 478.061 136.644 477.748 136.467C477.44 136.29 477.088 136.201 476.691 136.201C476.183 136.201 475.728 136.329 475.326 136.586C474.93 136.843 474.617 137.246 474.388 137.797C474.164 138.343 474.052 139.052 474.052 139.925C474.052 140.616 474.122 141.199 474.262 141.675C474.407 142.146 474.603 142.527 474.85 142.816C475.102 143.101 475.392 143.308 475.718 143.439C476.045 143.565 476.39 143.628 476.754 143.628C477.109 143.628 477.422 143.567 477.692 143.446C477.963 143.325 478.192 143.166 478.378 142.97C478.57 142.774 478.717 142.564 478.819 142.34C478.927 142.111 478.99 141.89 479.008 141.675L479.071 140.933H476.81V139.729L480.849 139.743V145H479.645V143.579C479.473 143.836 479.253 144.083 478.987 144.321C478.726 144.559 478.404 144.755 478.021 144.909C477.643 145.063 477.181 145.14 476.635 145.14ZM386.966 171.254V161.762H388.667L388.681 162.903C388.774 162.744 388.893 162.588 389.038 162.434C389.187 162.28 389.358 162.142 389.549 162.021C389.745 161.9 389.962 161.804 390.2 161.734C390.438 161.659 390.699 161.622 390.984 161.622C391.539 161.622 392.032 161.755 392.461 162.021C392.89 162.282 393.226 162.686 393.469 163.232C393.716 163.778 393.84 164.469 393.84 165.304C393.84 166.158 393.714 166.87 393.462 167.439C393.21 168.008 392.858 168.435 392.405 168.72C391.952 169 391.427 169.14 390.83 169.14C390.555 169.14 390.303 169.103 390.074 169.028C389.85 168.953 389.649 168.851 389.472 168.72C389.295 168.589 389.138 168.447 389.003 168.293C388.872 168.139 388.763 167.978 388.674 167.81V171.254H386.966ZM390.452 167.866C390.965 167.866 391.39 167.663 391.726 167.257C392.062 166.846 392.23 166.205 392.23 165.332C392.23 164.576 392.071 163.981 391.754 163.547C391.441 163.108 391.007 162.889 390.452 162.889C389.855 162.889 389.407 163.12 389.108 163.582C388.809 164.039 388.66 164.623 388.66 165.332C388.66 165.789 388.725 166.212 388.856 166.599C388.991 166.982 389.19 167.29 389.451 167.523C389.717 167.752 390.051 167.866 390.452 167.866ZM395.388 169V161.762H397.019V163.33C397.136 162.971 397.301 162.665 397.516 162.413C397.735 162.156 397.992 161.96 398.286 161.825C398.58 161.69 398.9 161.622 399.245 161.622C399.329 161.622 399.411 161.627 399.49 161.636C399.569 161.645 399.628 161.662 399.665 161.685V163.316C399.614 163.293 399.546 163.276 399.462 163.267C399.383 163.258 399.313 163.253 399.252 163.253C398.902 163.225 398.592 163.239 398.321 163.295C398.055 163.351 397.829 163.447 397.642 163.582C397.46 163.713 397.322 163.881 397.229 164.086C397.136 164.287 397.089 164.522 397.089 164.793V169H395.388ZM401.049 169V161.762H402.68V169H401.049ZM401.021 160.495V158.885H402.708V160.495H401.021ZM407.668 169.14C407.005 169.14 406.415 168.995 405.897 168.706C405.384 168.412 404.98 167.987 404.686 167.432C404.392 166.872 404.245 166.198 404.245 165.409C404.245 164.658 404.383 164 404.658 163.435C404.938 162.866 405.332 162.422 405.841 162.105C406.354 161.783 406.963 161.622 407.668 161.622C408.233 161.622 408.73 161.734 409.159 161.958C409.588 162.182 409.931 162.492 410.188 162.889C410.449 163.286 410.606 163.736 410.657 164.24H409.208C409.171 164.021 409.089 163.813 408.963 163.617C408.837 163.416 408.667 163.255 408.452 163.134C408.242 163.008 407.985 162.945 407.682 162.945C407.136 162.945 406.695 163.146 406.359 163.547C406.023 163.948 405.855 164.564 405.855 165.395C405.855 166.16 406.014 166.769 406.331 167.222C406.653 167.675 407.113 167.901 407.71 167.901C408.009 167.901 408.265 167.836 408.48 167.705C408.695 167.57 408.863 167.404 408.984 167.208C409.11 167.007 409.189 166.807 409.222 166.606H410.636C410.594 167.096 410.442 167.532 410.181 167.915C409.92 168.298 409.574 168.599 409.145 168.818C408.716 169.033 408.223 169.14 407.668 169.14ZM415.444 169.14C414.749 169.14 414.135 168.993 413.603 168.699C413.076 168.4 412.663 167.976 412.364 167.425C412.07 166.874 411.923 166.219 411.923 165.458C411.923 164.716 412.056 164.058 412.322 163.484C412.593 162.905 412.983 162.45 413.491 162.119C414.005 161.788 414.623 161.622 415.346 161.622C416.06 161.622 416.66 161.774 417.145 162.077C417.631 162.38 417.999 162.805 418.251 163.351C418.503 163.892 418.629 164.527 418.629 165.255V165.773H413.624C413.62 166.184 413.685 166.548 413.82 166.865C413.956 167.182 414.156 167.432 414.422 167.614C414.688 167.791 415.017 167.88 415.409 167.88C415.811 167.88 416.158 167.791 416.452 167.614C416.751 167.432 416.949 167.157 417.047 166.788H418.601C418.517 167.292 418.317 167.719 417.999 168.069C417.687 168.419 417.304 168.685 416.851 168.867C416.403 169.049 415.934 169.14 415.444 169.14ZM413.617 164.716H417.019C417.019 164.366 416.956 164.051 416.83 163.771C416.709 163.486 416.525 163.262 416.277 163.099C416.03 162.931 415.717 162.847 415.339 162.847C414.966 162.847 414.651 162.938 414.394 163.12C414.138 163.302 413.944 163.538 413.813 163.827C413.683 164.112 413.617 164.408 413.617 164.716ZM420.019 163.932V161.986H421.944V163.932H420.019ZM420.019 168.958V167.026H421.944V168.958H420.019ZM427.202 169V158.878H428.903V169H427.202ZM431.358 169V158.878H433.024L437.98 166.109V158.878H439.681V169H438.148L433.059 161.573V169H431.358ZM444.35 169V160.411H441.2V158.878H449.096V160.411H446.058V169H444.35ZM450.621 169V158.878H457.313L457.306 160.341H452.336V163.176H456.725V164.618H452.322V167.516L457.411 167.523V169H450.621ZM463.305 169.14C462.4 169.14 461.613 168.932 460.946 168.517C460.279 168.102 459.765 167.509 459.406 166.739C459.047 165.964 458.867 165.04 458.867 163.967C458.867 162.884 459.054 161.951 459.427 161.167C459.8 160.383 460.325 159.783 461.002 159.368C461.683 158.948 462.481 158.738 463.396 158.738C463.956 158.738 464.472 158.831 464.943 159.018C465.419 159.205 465.834 159.457 466.189 159.774C466.548 160.091 466.831 160.453 467.036 160.859C467.241 161.265 467.356 161.687 467.379 162.126H465.58C465.515 161.781 465.382 161.463 465.181 161.174C464.985 160.88 464.731 160.644 464.418 160.467C464.11 160.29 463.758 160.201 463.361 160.201C462.852 160.201 462.397 160.329 461.996 160.586C461.599 160.843 461.287 161.246 461.058 161.797C460.834 162.343 460.722 163.052 460.722 163.925C460.722 164.616 460.792 165.199 460.932 165.675C461.077 166.146 461.273 166.527 461.52 166.816C461.772 167.101 462.061 167.308 462.388 167.439C462.715 167.565 463.06 167.628 463.424 167.628C463.779 167.628 464.091 167.567 464.362 167.446C464.633 167.325 464.861 167.166 465.048 166.97C465.239 166.774 465.386 166.564 465.489 166.34C465.596 166.111 465.659 165.89 465.678 165.675L465.741 164.933H463.48V163.729L467.519 163.743V169H466.315V167.579C466.142 167.836 465.923 168.083 465.657 168.321C465.396 168.559 465.074 168.755 464.691 168.909C464.313 169.063 463.851 169.14 463.305 169.14ZM469.844 169V158.878H476.536L476.529 160.341H471.559V163.176H475.948V164.618H471.545V167.516L476.634 167.523V169H469.844ZM478.717 169V158.878H482.826C483.601 158.878 484.238 158.999 484.737 159.242C485.241 159.48 485.615 159.818 485.857 160.257C486.1 160.691 486.221 161.2 486.221 161.783C486.221 162.324 486.133 162.779 485.955 163.148C485.778 163.512 485.547 163.811 485.262 164.044C484.982 164.273 484.681 164.459 484.359 164.604L486.291 169H484.513L482.77 164.891H480.418V169H478.717ZM480.418 163.54H482.441C483.085 163.54 483.587 163.391 483.946 163.092C484.31 162.793 484.492 162.378 484.492 161.846C484.492 161.323 484.324 160.92 483.988 160.635C483.652 160.35 483.209 160.208 482.658 160.208H480.418V163.54Z" fill="black"/>
</svg>
