<svg width="2060" height="639" viewBox="0 0 2060 639" fill="none" xmlns="http://www.w3.org/2000/svg">
<path d="M0 40C0 17.9086 17.9086 0 40 0V0C62.0914 0 80 17.9086 80 40V40C80 62.0914 62.0914 80 40 80V80C17.9086 80 0 62.0914 0 40V40Z" fill="#CFD1D4"/>
<path d="M180 40C180 17.9086 197.909 0 220 0V0C242.091 0 260 17.9086 260 40V40C260 62.0914 242.091 80 220 80V80C197.909 80 180 62.0914 180 40V40Z" fill="#CFD1D4"/>
<path d="M540 580C540 557.909 557.909 540 580 540V540C602.091 540 620 557.909 620 580V580C620 602.091 602.091 620 580 620V620C557.909 620 540 602.091 540 580V580Z" fill="#CFD1D4"/>
<path d="M0 220C0 197.909 17.9086 180 40 180V180C62.0914 180 80 197.909 80 220V220C80 242.091 62.0914 260 40 260V260C17.9086 260 0 242.091 0 220V220Z" fill="#CFD1D4"/>
<path d="M180 220C180 197.909 197.909 180 220 180V180C242.091 180 260 197.909 260 220V220C260 242.091 242.091 260 220 260V260C197.909 260 180 242.091 180 220V220Z" fill="#56C7E4"/>
<g filter="url(#filter0_d_747_3159)">
<path d="M220 175C244.853 175 265 195.147 265 220C265 244.853 244.853 265 220 265C195.147 265 175 244.853 175 220C175 195.147 195.147 175 220 175Z" stroke="#56C7E4" stroke-width="4" shape-rendering="crispEdges"/>
</g>
<path d="M360 40C360 17.9086 377.909 0 400 0V0C422.091 0 440 17.9086 440 40V40C440 62.0914 422.091 80 400 80V80C377.909 80 360 62.0914 360 40V40Z" fill="#CFD1D4"/>
<path d="M540 220C540 197.909 557.909 180 580 180V180C602.091 180 620 197.909 620 220V220C620 242.091 602.091 260 580 260V260C557.909 260 540 242.091 540 220V220Z" fill="#CFD1D4"/>
<path d="M39 176.5C39 177.052 39.4477 177.5 40 177.5C40.5523 177.5 41 177.052 41 176.5H39ZM40.7071 82.7929C40.3166 82.4024 39.6834 82.4024 39.2929 82.7929L32.9289 89.1569C32.5384 89.5474 32.5384 90.1805 32.9289 90.5711C33.3195 90.9616 33.9526 90.9616 34.3431 90.5711L40 84.9142L45.6569 90.5711C46.0474 90.9616 46.6805 90.9616 47.0711 90.5711C47.4616 90.1805 47.4616 89.5474 47.0711 89.1569L40.7071 82.7929ZM40 176.5H41V83.5H40H39V176.5H40Z" fill="#1A1B1D"/>
<path d="M0 400C0 377.909 17.9086 360 40 360V360C62.0914 360 80 377.909 80 400V400C80 422.091 62.0914 440 40 440V440C17.9086 440 0 422.091 0 400V400Z" fill="#CFD1D4"/>
<path d="M180 400C180 377.909 197.909 360 220 360V360C242.091 360 260 377.909 260 400V400C260 422.091 242.091 440 220 440V440C197.909 440 180 422.091 180 400V400Z" fill="#FFDF81"/>
<g filter="url(#filter1_d_747_3159)">
<path d="M220 355C244.853 355 265 375.147 265 400C265 424.853 244.853 445 220 445C195.147 445 175 424.853 175 400C175 375.147 195.147 355 220 355Z" stroke="#56C7E4" stroke-width="4" shape-rendering="crispEdges"/>
</g>
<path d="M360 310C360 287.909 377.909 270 400 270V270C422.091 270 440 287.909 440 310V310C440 332.091 422.091 350 400 350V350C377.909 350 360 332.091 360 310V310Z" fill="#CFD1D4"/>
<path d="M540 400C540 377.909 557.909 360 580 360V360C602.091 360 620 377.909 620 400V400C620 422.091 602.091 440 580 440V440C557.909 440 540 422.091 540 400V400Z" fill="#CFD1D4"/>
<path d="M0 580C0 557.909 17.9086 540 40 540V540C62.0914 540 80 557.909 80 580V580C80 602.091 62.0914 620 40 620V620C17.9086 620 0 602.091 0 580V580Z" fill="#CFD1D4"/>
<path d="M39 536.5C39 537.052 39.4477 537.5 40 537.5C40.5523 537.5 41 537.052 41 536.5H39ZM40.7071 442.793C40.3166 442.402 39.6834 442.402 39.2929 442.793L32.9289 449.157C32.5384 449.547 32.5384 450.181 32.9289 450.571C33.3195 450.962 33.9526 450.962 34.3431 450.571L40 444.914L45.6569 450.571C46.0474 450.962 46.6805 450.962 47.0711 450.571C47.4616 450.181 47.4616 449.547 47.0711 449.157L40.7071 442.793ZM40 536.5H41V443.5H40H39V536.5H40Z" fill="#1A1B1D"/>
<path d="M180 580C180 557.909 197.909 540 220 540V540C242.091 540 260 557.909 260 580V580C260 602.091 242.091 620 220 620V620C197.909 620 180 602.091 180 580V580Z" fill="#CFD1D4"/>
<path d="M176.5 581C177.052 581 177.5 580.552 177.5 580C177.5 579.448 177.052 579 176.5 579V581ZM82.7929 579.293C82.4024 579.683 82.4024 580.317 82.7929 580.707L89.1569 587.071C89.5474 587.462 90.1805 587.462 90.5711 587.071C90.9616 586.681 90.9616 586.047 90.5711 585.657L84.9142 580L90.5711 574.343C90.9616 573.953 90.9616 573.319 90.5711 572.929C90.1805 572.538 89.5474 572.538 89.1569 572.929L82.7929 579.293ZM176.5 580V579H83.5V580V581H176.5V580Z" fill="#1A1B1D"/>
<path d="M219 536.5C219 537.052 219.448 537.5 220 537.5C220.552 537.5 221 537.052 221 536.5H219ZM220.707 442.793C220.317 442.402 219.683 442.402 219.293 442.793L212.929 449.157C212.538 449.547 212.538 450.181 212.929 450.571C213.319 450.962 213.953 450.962 214.343 450.571L220 444.914L225.657 450.571C226.047 450.962 226.681 450.962 227.071 450.571C227.462 450.181 227.462 449.547 227.071 449.157L220.707 442.793ZM220 536.5H221V443.5H220H219V536.5H220Z" fill="#1A1B1D"/>
<path d="M176.5 221C177.052 221 177.5 220.552 177.5 220C177.5 219.448 177.052 219 176.5 219V221ZM82.7929 219.293C82.4024 219.683 82.4024 220.317 82.7929 220.707L89.1569 227.071C89.5474 227.462 90.1805 227.462 90.5711 227.071C90.9616 226.681 90.9616 226.047 90.5711 225.657L84.9142 220L90.5711 214.343C90.9616 213.953 90.9616 213.319 90.5711 212.929C90.1805 212.538 89.5474 212.538 89.1569 212.929L82.7929 219.293ZM176.5 220V219H83.5V220V221H176.5V220Z" fill="#1A1B1D"/>
<path d="M356.5 41C357.052 41 357.5 40.5523 357.5 40C357.5 39.4477 357.052 39 356.5 39V41ZM262.793 39.2929C262.402 39.6834 262.402 40.3166 262.793 40.7071L269.157 47.0711C269.547 47.4616 270.181 47.4616 270.571 47.0711C270.962 46.6805 270.962 46.0474 270.571 45.6569L264.914 40L270.571 34.3431C270.962 33.9526 270.962 33.3195 270.571 32.9289C270.181 32.5384 269.547 32.5384 269.157 32.9289L262.793 39.2929ZM356.5 40V39H263.5V40V41H356.5V40Z" fill="#1A1B1D"/>
<path d="M360 490C360 467.909 377.909 450 400 450V450C422.091 450 440 467.909 440 490V490C440 512.091 422.091 530 400 530V530C377.909 530 360 512.091 360 490V490Z" fill="#CFD1D4"/>
<path d="M399 446.5C399 447.052 399.448 447.5 400 447.5C400.552 447.5 401 447.052 401 446.5H399ZM400.707 352.793C400.317 352.402 399.683 352.402 399.293 352.793L392.929 359.157C392.538 359.547 392.538 360.181 392.929 360.571C393.319 360.962 393.953 360.962 394.343 360.571L400 354.914L405.657 360.571C406.047 360.962 406.681 360.962 407.071 360.571C407.462 360.181 407.462 359.547 407.071 359.157L400.707 352.793ZM400 446.5H401V353.5H400H399V446.5H400Z" fill="#1A1B1D"/>
<path d="M357.317 332.46C357.811 332.213 358.011 331.612 357.764 331.118C357.517 330.624 356.916 330.424 356.422 330.671L357.317 332.46ZM262.182 378.119C262.007 378.642 262.29 379.209 262.814 379.383L271.352 382.229C271.876 382.404 272.443 382.121 272.617 381.597C272.792 381.073 272.509 380.507 271.985 380.332L264.395 377.802L266.925 370.213C267.1 369.689 266.817 369.123 266.293 368.948C265.769 368.773 265.203 369.056 265.028 369.58L262.182 378.119ZM356.87 331.565L356.422 330.671L262.683 377.54L263.13 378.435L263.578 379.329L357.317 332.46L356.87 331.565Z" fill="#1A1B1D"/>
<path d="M221.5 264C221.5 263.172 220.828 262.5 220 262.5C219.172 262.5 218.5 263.172 218.5 264H221.5ZM218.939 357.061C219.525 357.646 220.475 357.646 221.061 357.061L230.607 347.515C231.192 346.929 231.192 345.979 230.607 345.393C230.021 344.808 229.071 344.808 228.485 345.393L220 353.879L211.515 345.393C210.929 344.808 209.979 344.808 209.393 345.393C208.808 345.979 208.808 346.929 209.393 347.515L218.939 357.061ZM220 264H218.5V356H220H221.5V264H220Z" fill="#56C7E4"/>
<path d="M442.683 467.54C442.189 467.787 441.989 468.388 442.236 468.882C442.483 469.376 443.084 469.576 443.578 469.329L442.683 467.54ZM537.818 421.881C537.993 421.358 537.71 420.791 537.186 420.617L528.648 417.771C528.124 417.596 527.557 417.879 527.383 418.403C527.208 418.927 527.491 419.493 528.015 419.668L535.605 422.198L533.075 429.787C532.9 430.311 533.183 430.877 533.707 431.052C534.231 431.227 534.797 430.944 534.972 430.42L537.818 421.881ZM443.13 468.435L443.578 469.329L537.317 422.46L536.87 421.565L536.422 420.671L442.683 467.54L443.13 468.435Z" fill="#1A1B1D"/>
<path d="M579 536.5C579 537.052 579.448 537.5 580 537.5C580.552 537.5 581 537.052 581 536.5H579ZM580.707 442.793C580.317 442.402 579.683 442.402 579.293 442.793L572.929 449.157C572.538 449.547 572.538 450.181 572.929 450.571C573.319 450.962 573.953 450.962 574.343 450.571L580 444.914L585.657 450.571C586.047 450.962 586.681 450.962 587.071 450.571C587.462 450.181 587.462 449.547 587.071 449.157L580.707 442.793ZM580 536.5H581V443.5H580H579V536.5H580Z" fill="#1A1B1D"/>
<path d="M536.5 581C537.052 581 537.5 580.552 537.5 580C537.5 579.448 537.052 579 536.5 579V581ZM262.793 579.293C262.402 579.683 262.402 580.317 262.793 580.707L269.157 587.071C269.547 587.462 270.181 587.462 270.571 587.071C270.962 586.681 270.962 586.047 270.571 585.657L264.914 580L270.571 574.343C270.962 573.953 270.962 573.319 270.571 572.929C270.181 572.538 269.547 572.538 269.157 572.929L262.793 579.293ZM536.5 580V579H263.5V580V581H536.5V580Z" fill="#1A1B1D"/>
<path d="M399 266.5C399 267.052 399.448 267.5 400 267.5C400.552 267.5 401 267.052 401 266.5H399ZM400.707 82.7929C400.317 82.4024 399.683 82.4024 399.293 82.7929L392.929 89.1569C392.538 89.5474 392.538 90.1805 392.929 90.5711C393.319 90.9616 393.953 90.9616 394.343 90.5711L400 84.9142L405.657 90.5711C406.047 90.9616 406.681 90.9616 407.071 90.5711C407.462 90.1805 407.462 89.5474 407.071 89.1569L400.707 82.7929ZM400 266.5H401V83.5H400H399V266.5H400Z" fill="#1A1B1D"/>
<path d="M536.5 221C537.052 221 537.5 220.552 537.5 220C537.5 219.448 537.052 219 536.5 219V221ZM262.793 219.293C262.402 219.683 262.402 220.317 262.793 220.707L269.157 227.071C269.547 227.462 270.181 227.462 270.571 227.071C270.962 226.681 270.962 226.047 270.571 225.657L264.914 220L270.571 214.343C270.962 213.953 270.962 213.319 270.571 212.929C270.181 212.538 269.547 212.538 269.157 212.929L262.793 219.293ZM536.5 220V219H263.5V220V221H536.5V220Z" fill="#1A1B1D"/>
<path d="M581 263.5C581 262.948 580.552 262.5 580 262.5C579.448 262.5 579 262.948 579 263.5H581ZM579.293 357.207C579.683 357.598 580.317 357.598 580.707 357.207L587.071 350.843C587.462 350.453 587.462 349.819 587.071 349.429C586.681 349.038 586.047 349.038 585.657 349.429L580 355.086L574.343 349.429C573.953 349.038 573.319 349.038 572.929 349.429C572.538 349.819 572.538 350.453 572.929 350.843L579.293 357.207ZM580 263.5H579V356.5H580H581V263.5H580Z" fill="#1A1B1D"/>
<path d="M720 40C720 17.9086 737.909 0 760 0V0C782.091 0 800 17.9086 800 40V40C800 62.0914 782.091 80 760 80V80C737.909 80 720 62.0914 720 40V40Z" fill="#CFD1D4"/>
<path d="M900 40C900 17.9086 917.909 0 940 0V0C962.091 0 980 17.9086 980 40V40C980 62.0914 962.091 80 940 80V80C917.909 80 900 62.0914 900 40V40Z" fill="#CFD1D4"/>
<path d="M1260 580C1260 557.909 1277.91 540 1300 540V540C1322.09 540 1340 557.909 1340 580V580C1340 602.091 1322.09 620 1300 620V620C1277.91 620 1260 602.091 1260 580V580Z" fill="#CFD1D4"/>
<path d="M720 220C720 197.909 737.909 180 760 180V180C782.091 180 800 197.909 800 220V220C800 242.091 782.091 260 760 260V260C737.909 260 720 242.091 720 220V220Z" fill="#CFD1D4"/>
<path d="M900 220C900 197.909 917.909 180 940 180V180C962.091 180 980 197.909 980 220V220C980 242.091 962.091 260 940 260V260C917.909 260 900 242.091 900 220V220Z" fill="#CFD1D4"/>
<path d="M1080 40C1080 17.9086 1097.91 0 1120 0V0C1142.09 0 1160 17.9086 1160 40V40C1160 62.0914 1142.09 80 1120 80V80C1097.91 80 1080 62.0914 1080 40V40Z" fill="#CFD1D4"/>
<path d="M1260 220C1260 197.909 1277.91 180 1300 180V180C1322.09 180 1340 197.909 1340 220V220C1340 242.091 1322.09 260 1300 260V260C1277.91 260 1260 242.091 1260 220V220Z" fill="#CFD1D4"/>
<path d="M759 176.5C759 177.052 759.448 177.5 760 177.5C760.552 177.5 761 177.052 761 176.5H759ZM760.707 82.7929C760.317 82.4024 759.683 82.4024 759.293 82.7929L752.929 89.1569C752.538 89.5474 752.538 90.1805 752.929 90.5711C753.319 90.9616 753.953 90.9616 754.343 90.5711L760 84.9142L765.657 90.5711C766.047 90.9616 766.681 90.9616 767.071 90.5711C767.462 90.1805 767.462 89.5474 767.071 89.1569L760.707 82.7929ZM760 176.5H761V83.5H760H759V176.5H760Z" fill="#1A1B1D"/>
<path d="M720 400C720 377.909 737.909 360 760 360V360C782.091 360 800 377.909 800 400V400C800 422.091 782.091 440 760 440V440C737.909 440 720 422.091 720 400V400Z" fill="#CFD1D4"/>
<path d="M900 400C900 377.909 917.909 360 940 360V360C962.091 360 980 377.909 980 400V400C980 422.091 962.091 440 940 440V440C917.909 440 900 422.091 900 400V400Z" fill="#FFDF81"/>
<g filter="url(#filter2_d_747_3159)">
<path d="M940 355C964.853 355 985 375.147 985 400C985 424.853 964.853 445 940 445C915.147 445 895 424.853 895 400C895 375.147 915.147 355 940 355Z" stroke="#56C7E4" stroke-width="4" shape-rendering="crispEdges"/>
</g>
<path d="M1080 310C1080 287.909 1097.91 270 1120 270V270C1142.09 270 1160 287.909 1160 310V310C1160 332.091 1142.09 350 1120 350V350C1097.91 350 1080 332.091 1080 310V310Z" fill="#56C7E4"/>
<g filter="url(#filter3_d_747_3159)">
<path d="M1120 265C1144.85 265 1165 285.147 1165 310C1165 334.853 1144.85 355 1120 355C1095.15 355 1075 334.853 1075 310C1075 285.147 1095.15 265 1120 265Z" stroke="#56C7E4" stroke-width="4" shape-rendering="crispEdges"/>
</g>
<path d="M1260 400C1260 377.909 1277.91 360 1300 360V360C1322.09 360 1340 377.909 1340 400V400C1340 422.091 1322.09 440 1300 440V440C1277.91 440 1260 422.091 1260 400V400Z" fill="#CFD1D4"/>
<path d="M720 580C720 557.909 737.909 540 760 540V540C782.091 540 800 557.909 800 580V580C800 602.091 782.091 620 760 620V620C737.909 620 720 602.091 720 580V580Z" fill="#CFD1D4"/>
<path d="M759 536.5C759 537.052 759.448 537.5 760 537.5C760.552 537.5 761 537.052 761 536.5H759ZM760.707 442.793C760.317 442.402 759.683 442.402 759.293 442.793L752.929 449.157C752.538 449.547 752.538 450.181 752.929 450.571C753.319 450.962 753.953 450.962 754.343 450.571L760 444.914L765.657 450.571C766.047 450.962 766.681 450.962 767.071 450.571C767.462 450.181 767.462 449.547 767.071 449.157L760.707 442.793ZM760 536.5H761V443.5H760H759V536.5H760Z" fill="#1A1B1D"/>
<path d="M900 580C900 557.909 917.909 540 940 540V540C962.091 540 980 557.909 980 580V580C980 602.091 962.091 620 940 620V620C917.909 620 900 602.091 900 580V580Z" fill="#CFD1D4"/>
<path d="M896.5 581C897.052 581 897.5 580.552 897.5 580C897.5 579.448 897.052 579 896.5 579V581ZM802.793 579.293C802.402 579.683 802.402 580.317 802.793 580.707L809.157 587.071C809.547 587.462 810.181 587.462 810.571 587.071C810.962 586.681 810.962 586.047 810.571 585.657L804.914 580L810.571 574.343C810.962 573.953 810.962 573.319 810.571 572.929C810.181 572.538 809.547 572.538 809.157 572.929L802.793 579.293ZM896.5 580V579H803.5V580V581H896.5V580Z" fill="#1A1B1D"/>
<path d="M939 536.5C939 537.052 939.448 537.5 940 537.5C940.552 537.5 941 537.052 941 536.5H939ZM940.707 442.793C940.317 442.402 939.683 442.402 939.293 442.793L932.929 449.157C932.538 449.547 932.538 450.181 932.929 450.571C933.319 450.962 933.953 450.962 934.343 450.571L940 444.914L945.657 450.571C946.047 450.962 946.681 450.962 947.071 450.571C947.462 450.181 947.462 449.547 947.071 449.157L940.707 442.793ZM940 536.5H941V443.5H940H939V536.5H940Z" fill="#1A1B1D"/>
<path d="M896.5 221C897.052 221 897.5 220.552 897.5 220C897.5 219.448 897.052 219 896.5 219V221ZM802.793 219.293C802.402 219.683 802.402 220.317 802.793 220.707L809.157 227.071C809.547 227.462 810.181 227.462 810.571 227.071C810.962 226.681 810.962 226.047 810.571 225.657L804.914 220L810.571 214.343C810.962 213.953 810.962 213.319 810.571 212.929C810.181 212.538 809.547 212.538 809.157 212.929L802.793 219.293ZM896.5 220V219H803.5V220V221H896.5V220Z" fill="#1A1B1D"/>
<path d="M1076.5 41C1077.05 41 1077.5 40.5523 1077.5 40C1077.5 39.4477 1077.05 39 1076.5 39V41ZM982.793 39.2929C982.402 39.6834 982.402 40.3166 982.793 40.7071L989.157 47.0711C989.547 47.4616 990.181 47.4616 990.571 47.0711C990.962 46.6805 990.962 46.0474 990.571 45.6569L984.914 40L990.571 34.3431C990.962 33.9526 990.962 33.3195 990.571 32.9289C990.181 32.5384 989.547 32.5384 989.157 32.9289L982.793 39.2929ZM1076.5 40V39H983.5V40V41H1076.5V40Z" fill="#1A1B1D"/>
<path d="M1080 490C1080 467.909 1097.91 450 1120 450V450C1142.09 450 1160 467.909 1160 490V490C1160 512.091 1142.09 530 1120 530V530C1097.91 530 1080 512.091 1080 490V490Z" fill="#CFD1D4"/>
<path d="M1119 446.5C1119 447.052 1119.45 447.5 1120 447.5C1120.55 447.5 1121 447.052 1121 446.5H1119ZM1120.71 352.793C1120.32 352.402 1119.68 352.402 1119.29 352.793L1112.93 359.157C1112.54 359.547 1112.54 360.181 1112.93 360.571C1113.32 360.962 1113.95 360.962 1114.34 360.571L1120 354.914L1125.66 360.571C1126.05 360.962 1126.68 360.962 1127.07 360.571C1127.46 360.181 1127.46 359.547 1127.07 359.157L1120.71 352.793ZM1120 446.5H1121V353.5H1120H1119V446.5H1120Z" fill="#1A1B1D"/>
<path d="M1077.09 333.13C1077.83 332.76 1078.13 331.859 1077.76 331.118C1077.39 330.377 1076.49 330.077 1075.75 330.447L1077.09 333.13ZM982.155 377.737C981.893 378.523 982.317 379.372 983.103 379.634L995.911 383.903C996.696 384.165 997.546 383.74 997.808 382.955C998.07 382.169 997.645 381.319 996.859 381.057L985.475 377.262L989.27 365.878C989.532 365.092 989.107 364.243 988.321 363.981C987.535 363.719 986.686 364.144 986.424 364.93L982.155 377.737ZM1076.42 331.789L1075.75 330.447L982.907 376.87L983.578 378.211L984.249 379.553L1077.09 333.13L1076.42 331.789Z" fill="#56C7E4"/>
<path d="M941 263.5C941 262.948 940.552 262.5 940 262.5C939.448 262.5 939 262.948 939 263.5H941ZM939.293 357.207C939.683 357.598 940.317 357.598 940.707 357.207L947.071 350.843C947.462 350.453 947.462 349.819 947.071 349.429C946.681 349.038 946.047 349.038 945.657 349.429L940 355.086L934.343 349.429C933.953 349.038 933.319 349.038 932.929 349.429C932.538 349.819 932.538 350.453 932.929 350.843L939.293 357.207ZM940 263.5H939V356.5H940H941V263.5H940Z" fill="#1A1B1D"/>
<path d="M1162.68 467.54C1162.19 467.787 1161.99 468.388 1162.24 468.882C1162.48 469.376 1163.08 469.576 1163.58 469.329L1162.68 467.54ZM1257.82 421.881C1257.99 421.358 1257.71 420.791 1257.19 420.617L1248.65 417.771C1248.12 417.596 1247.56 417.879 1247.38 418.403C1247.21 418.927 1247.49 419.493 1248.02 419.668L1255.6 422.198L1253.07 429.787C1252.9 430.311 1253.18 430.877 1253.71 431.052C1254.23 431.227 1254.8 430.944 1254.97 430.42L1257.82 421.881ZM1163.13 468.435L1163.58 469.329L1257.32 422.46L1256.87 421.565L1256.42 420.671L1162.68 467.54L1163.13 468.435Z" fill="#1A1B1D"/>
<path d="M1299 536.5C1299 537.052 1299.45 537.5 1300 537.5C1300.55 537.5 1301 537.052 1301 536.5H1299ZM1300.71 442.793C1300.32 442.402 1299.68 442.402 1299.29 442.793L1292.93 449.157C1292.54 449.547 1292.54 450.181 1292.93 450.571C1293.32 450.962 1293.95 450.962 1294.34 450.571L1300 444.914L1305.66 450.571C1306.05 450.962 1306.68 450.962 1307.07 450.571C1307.46 450.181 1307.46 449.547 1307.07 449.157L1300.71 442.793ZM1300 536.5H1301V443.5H1300H1299V536.5H1300Z" fill="#1A1B1D"/>
<path d="M1256.5 581C1257.05 581 1257.5 580.552 1257.5 580C1257.5 579.448 1257.05 579 1256.5 579V581ZM982.793 579.293C982.402 579.683 982.402 580.317 982.793 580.707L989.157 587.071C989.547 587.462 990.181 587.462 990.571 587.071C990.962 586.681 990.962 586.047 990.571 585.657L984.914 580L990.571 574.343C990.962 573.953 990.962 573.319 990.571 572.929C990.181 572.538 989.547 572.538 989.157 572.929L982.793 579.293ZM1256.5 580V579H983.5V580V581H1256.5V580Z" fill="#1A1B1D"/>
<path d="M1119 266.5C1119 267.052 1119.45 267.5 1120 267.5C1120.55 267.5 1121 267.052 1121 266.5H1119ZM1120.71 82.7929C1120.32 82.4024 1119.68 82.4024 1119.29 82.7929L1112.93 89.1569C1112.54 89.5474 1112.54 90.1805 1112.93 90.5711C1113.32 90.9616 1113.95 90.9616 1114.34 90.5711L1120 84.9142L1125.66 90.5711C1126.05 90.9616 1126.68 90.9616 1127.07 90.5711C1127.46 90.1805 1127.46 89.5474 1127.07 89.1569L1120.71 82.7929ZM1120 266.5H1121V83.5H1120H1119V266.5H1120Z" fill="#1A1B1D"/>
<path d="M1256.5 221C1257.05 221 1257.5 220.552 1257.5 220C1257.5 219.448 1257.05 219 1256.5 219V221ZM982.793 219.293C982.402 219.683 982.402 220.317 982.793 220.707L989.157 227.071C989.547 227.462 990.181 227.462 990.571 227.071C990.962 226.681 990.962 226.047 990.571 225.657L984.914 220L990.571 214.343C990.962 213.953 990.962 213.319 990.571 212.929C990.181 212.538 989.547 212.538 989.157 212.929L982.793 219.293ZM1256.5 220V219H983.5V220V221H1256.5V220Z" fill="#1A1B1D"/>
<path d="M1301 263.5C1301 262.948 1300.55 262.5 1300 262.5C1299.45 262.5 1299 262.948 1299 263.5H1301ZM1299.29 357.207C1299.68 357.598 1300.32 357.598 1300.71 357.207L1307.07 350.843C1307.46 350.453 1307.46 349.819 1307.07 349.429C1306.68 349.038 1306.05 349.038 1305.66 349.429L1300 355.086L1294.34 349.429C1293.95 349.038 1293.32 349.038 1292.93 349.429C1292.54 349.819 1292.54 350.453 1292.93 350.843L1299.29 357.207ZM1300 263.5H1299V356.5H1300H1301V263.5H1300Z" fill="#1A1B1D"/>
<path d="M1440 40C1440 17.9086 1457.91 0 1480 0V0C1502.09 0 1520 17.9086 1520 40V40C1520 62.0914 1502.09 80 1480 80V80C1457.91 80 1440 62.0914 1440 40V40Z" fill="#CFD1D4"/>
<path d="M1620 40C1620 17.9086 1637.91 0 1660 0V0C1682.09 0 1700 17.9086 1700 40V40C1700 62.0914 1682.09 80 1660 80V80C1637.91 80 1620 62.0914 1620 40V40Z" fill="#CFD1D4"/>
<path d="M1980 580C1980 557.909 1997.91 540 2020 540V540C2042.09 540 2060 557.909 2060 580V580C2060 602.091 2042.09 620 2020 620V620C1997.91 620 1980 602.091 1980 580V580Z" fill="#CFD1D4"/>
<path d="M1440 220C1440 197.909 1457.91 180 1480 180V180C1502.09 180 1520 197.909 1520 220V220C1520 242.091 1502.09 260 1480 260V260C1457.91 260 1440 242.091 1440 220V220Z" fill="#CFD1D4"/>
<path d="M1620 220C1620 197.909 1637.91 180 1660 180V180C1682.09 180 1700 197.909 1700 220V220C1700 242.091 1682.09 260 1660 260V260C1637.91 260 1620 242.091 1620 220V220Z" fill="#CFD1D4"/>
<path d="M1800 40C1800 17.9086 1817.91 0 1840 0V0C1862.09 0 1880 17.9086 1880 40V40C1880 62.0914 1862.09 80 1840 80V80C1817.91 80 1800 62.0914 1800 40V40Z" fill="#CFD1D4"/>
<path d="M1980 220C1980 197.909 1997.91 180 2020 180V180C2042.09 180 2060 197.909 2060 220V220C2060 242.091 2042.09 260 2020 260V260C1997.91 260 1980 242.091 1980 220V220Z" fill="#CFD1D4"/>
<path d="M1479 176.5C1479 177.052 1479.45 177.5 1480 177.5C1480.55 177.5 1481 177.052 1481 176.5H1479ZM1480.71 82.7929C1480.32 82.4024 1479.68 82.4024 1479.29 82.7929L1472.93 89.1569C1472.54 89.5474 1472.54 90.1805 1472.93 90.5711C1473.32 90.9616 1473.95 90.9616 1474.34 90.5711L1480 84.9142L1485.66 90.5711C1486.05 90.9616 1486.68 90.9616 1487.07 90.5711C1487.46 90.1805 1487.46 89.5474 1487.07 89.1569L1480.71 82.7929ZM1480 176.5H1481V83.5H1480H1479V176.5H1480Z" fill="#1A1B1D"/>
<path d="M1440 400C1440 377.909 1457.91 360 1480 360V360C1502.09 360 1520 377.909 1520 400V400C1520 422.091 1502.09 440 1480 440V440C1457.91 440 1440 422.091 1440 400V400Z" fill="#CFD1D4"/>
<path d="M1620 400C1620 377.909 1637.91 360 1660 360V360C1682.09 360 1700 377.909 1700 400V400C1700 422.091 1682.09 440 1660 440V440C1637.91 440 1620 422.091 1620 400V400Z" fill="#FFDF81"/>
<g filter="url(#filter4_d_747_3159)">
<path d="M1660 355C1684.85 355 1705 375.147 1705 400C1705 424.853 1684.85 445 1660 445C1635.15 445 1615 424.853 1615 400C1615 375.147 1635.15 355 1660 355Z" stroke="#56C7E4" stroke-width="4" shape-rendering="crispEdges"/>
</g>
<path d="M1800 310C1800 287.909 1817.91 270 1840 270V270C1862.09 270 1880 287.909 1880 310V310C1880 332.091 1862.09 350 1840 350V350C1817.91 350 1800 332.091 1800 310V310Z" fill="#CFD1D4"/>
<path d="M1980 400C1980 377.909 1997.91 360 2020 360V360C2042.09 360 2060 377.909 2060 400V400C2060 422.091 2042.09 440 2020 440V440C1997.91 440 1980 422.091 1980 400V400Z" fill="#CFD1D4"/>
<path d="M1440 580C1440 557.909 1457.91 540 1480 540V540C1502.09 540 1520 557.909 1520 580V580C1520 602.091 1502.09 620 1480 620V620C1457.91 620 1440 602.091 1440 580V580Z" fill="#CFD1D4"/>
<path d="M1479 536.5C1479 537.052 1479.45 537.5 1480 537.5C1480.55 537.5 1481 537.052 1481 536.5H1479ZM1480.71 442.793C1480.32 442.402 1479.68 442.402 1479.29 442.793L1472.93 449.157C1472.54 449.547 1472.54 450.181 1472.93 450.571C1473.32 450.962 1473.95 450.962 1474.34 450.571L1480 444.914L1485.66 450.571C1486.05 450.962 1486.68 450.962 1487.07 450.571C1487.46 450.181 1487.46 449.547 1487.07 449.157L1480.71 442.793ZM1480 536.5H1481V443.5H1480H1479V536.5H1480Z" fill="#1A1B1D"/>
<path d="M1620 580C1620 557.909 1637.91 540 1660 540V540C1682.09 540 1700 557.909 1700 580V580C1700 602.091 1682.09 620 1660 620V620C1637.91 620 1620 602.091 1620 580V580Z" fill="#56C7E4"/>
<g filter="url(#filter5_d_747_3159)">
<path d="M1660 535C1684.85 535 1705 555.147 1705 580C1705 604.853 1684.85 625 1660 625C1635.15 625 1615 604.853 1615 580C1615 555.147 1635.15 535 1660 535Z" stroke="#56C7E4" stroke-width="4" shape-rendering="crispEdges"/>
</g>
<path d="M1616.5 581C1617.05 581 1617.5 580.552 1617.5 580C1617.5 579.448 1617.05 579 1616.5 579V581ZM1522.79 579.293C1522.4 579.683 1522.4 580.317 1522.79 580.707L1529.16 587.071C1529.55 587.462 1530.18 587.462 1530.57 587.071C1530.96 586.681 1530.96 586.047 1530.57 585.657L1524.91 580L1530.57 574.343C1530.96 573.953 1530.96 573.319 1530.57 572.929C1530.18 572.538 1529.55 572.538 1529.16 572.929L1522.79 579.293ZM1616.5 580V579H1523.5V580V581H1616.5V580Z" fill="#1A1B1D"/>
<path d="M1658.5 536C1658.5 536.828 1659.17 537.5 1660 537.5C1660.83 537.5 1661.5 536.828 1661.5 536H1658.5ZM1661.06 442.939C1660.47 442.354 1659.53 442.354 1658.94 442.939L1649.39 452.485C1648.81 453.071 1648.81 454.021 1649.39 454.607C1649.98 455.192 1650.93 455.192 1651.51 454.607L1660 446.121L1668.49 454.607C1669.07 455.192 1670.02 455.192 1670.61 454.607C1671.19 454.021 1671.19 453.071 1670.61 452.485L1661.06 442.939ZM1660 536H1661.5V444H1660H1658.5V536H1660Z" fill="#56C7E4"/>
<path d="M1616.5 221C1617.05 221 1617.5 220.552 1617.5 220C1617.5 219.448 1617.05 219 1616.5 219V221ZM1522.79 219.293C1522.4 219.683 1522.4 220.317 1522.79 220.707L1529.16 227.071C1529.55 227.462 1530.18 227.462 1530.57 227.071C1530.96 226.681 1530.96 226.047 1530.57 225.657L1524.91 220L1530.57 214.343C1530.96 213.953 1530.96 213.319 1530.57 212.929C1530.18 212.538 1529.55 212.538 1529.16 212.929L1522.79 219.293ZM1616.5 220V219H1523.5V220V221H1616.5V220Z" fill="#1A1B1D"/>
<path d="M1796.5 41C1797.05 41 1797.5 40.5523 1797.5 40C1797.5 39.4477 1797.05 39 1796.5 39V41ZM1702.79 39.2929C1702.4 39.6834 1702.4 40.3166 1702.79 40.7071L1709.16 47.0711C1709.55 47.4616 1710.18 47.4616 1710.57 47.0711C1710.96 46.6805 1710.96 46.0474 1710.57 45.6569L1704.91 40L1710.57 34.3431C1710.96 33.9526 1710.96 33.3195 1710.57 32.9289C1710.18 32.5384 1709.55 32.5384 1709.16 32.9289L1702.79 39.2929ZM1796.5 40V39H1703.5V40V41H1796.5V40Z" fill="#1A1B1D"/>
<path d="M1800 490C1800 467.909 1817.91 450 1840 450V450C1862.09 450 1880 467.909 1880 490V490C1880 512.091 1862.09 530 1840 530V530C1817.91 530 1800 512.091 1800 490V490Z" fill="#CFD1D4"/>
<path d="M1839 446.5C1839 447.052 1839.45 447.5 1840 447.5C1840.55 447.5 1841 447.052 1841 446.5H1839ZM1840.71 352.793C1840.32 352.402 1839.68 352.402 1839.29 352.793L1832.93 359.157C1832.54 359.547 1832.54 360.181 1832.93 360.571C1833.32 360.962 1833.95 360.962 1834.34 360.571L1840 354.914L1845.66 360.571C1846.05 360.962 1846.68 360.962 1847.07 360.571C1847.46 360.181 1847.46 359.547 1847.07 359.157L1840.71 352.793ZM1840 446.5H1841V353.5H1840H1839V446.5H1840Z" fill="#1A1B1D"/>
<path d="M1797.32 332.46C1797.81 332.213 1798.01 331.612 1797.76 331.118C1797.52 330.624 1796.92 330.424 1796.42 330.671L1797.32 332.46ZM1702.18 378.119C1702.01 378.642 1702.29 379.209 1702.81 379.383L1711.35 382.229C1711.88 382.404 1712.44 382.121 1712.62 381.597C1712.79 381.073 1712.51 380.507 1711.98 380.332L1704.4 377.802L1706.93 370.213C1707.1 369.689 1706.82 369.123 1706.29 368.948C1705.77 368.773 1705.2 369.056 1705.03 369.58L1702.18 378.119ZM1796.87 331.565L1796.42 330.671L1702.68 377.54L1703.13 378.435L1703.58 379.329L1797.32 332.46L1796.87 331.565Z" fill="#1A1B1D"/>
<path d="M1661 263.5C1661 262.948 1660.55 262.5 1660 262.5C1659.45 262.5 1659 262.948 1659 263.5H1661ZM1659.29 357.207C1659.68 357.598 1660.32 357.598 1660.71 357.207L1667.07 350.843C1667.46 350.453 1667.46 349.819 1667.07 349.429C1666.68 349.038 1666.05 349.038 1665.66 349.429L1660 355.086L1654.34 349.429C1653.95 349.038 1653.32 349.038 1652.93 349.429C1652.54 349.819 1652.54 350.453 1652.93 350.843L1659.29 357.207ZM1660 263.5H1659V356.5H1660H1661V263.5H1660Z" fill="#1A1B1D"/>
<path d="M1882.68 467.54C1882.19 467.787 1881.99 468.388 1882.24 468.882C1882.48 469.376 1883.08 469.576 1883.58 469.329L1882.68 467.54ZM1977.82 421.881C1977.99 421.357 1977.71 420.791 1977.19 420.616L1968.65 417.77C1968.12 417.596 1967.56 417.879 1967.38 418.403C1967.21 418.927 1967.49 419.493 1968.01 419.668L1975.6 422.198L1973.07 429.787C1972.9 430.311 1973.18 430.877 1973.71 431.052C1974.23 431.227 1974.8 430.943 1974.97 430.42L1977.82 421.881ZM1883.13 468.435L1883.58 469.329L1977.32 422.46L1976.87 421.565L1976.42 420.671L1882.68 467.54L1883.13 468.435Z" fill="#1A1B1D"/>
<path d="M2019 536.5C2019 537.052 2019.45 537.5 2020 537.5C2020.55 537.5 2021 537.052 2021 536.5H2019ZM2020.71 442.793C2020.32 442.402 2019.68 442.402 2019.29 442.793L2012.93 449.157C2012.54 449.547 2012.54 450.181 2012.93 450.571C2013.32 450.962 2013.95 450.962 2014.34 450.571L2020 444.914L2025.66 450.571C2026.05 450.962 2026.68 450.962 2027.07 450.571C2027.46 450.181 2027.46 449.547 2027.07 449.157L2020.71 442.793ZM2020 536.5H2021V443.5H2020H2019V536.5H2020Z" fill="#1A1B1D"/>
<path d="M1976.5 581C1977.05 581 1977.5 580.552 1977.5 580C1977.5 579.448 1977.05 579 1976.5 579V581ZM1702.79 579.293C1702.4 579.683 1702.4 580.317 1702.79 580.707L1709.16 587.071C1709.55 587.462 1710.18 587.462 1710.57 587.071C1710.96 586.681 1710.96 586.047 1710.57 585.657L1704.91 580L1710.57 574.343C1710.96 573.953 1710.96 573.319 1710.57 572.929C1710.18 572.538 1709.55 572.538 1709.16 572.929L1702.79 579.293ZM1976.5 580V579H1703.5V580V581H1976.5V580Z" fill="#1A1B1D"/>
<path d="M1839 266.5C1839 267.052 1839.45 267.5 1840 267.5C1840.55 267.5 1841 267.052 1841 266.5H1839ZM1840.71 82.7929C1840.32 82.4024 1839.68 82.4024 1839.29 82.7929L1832.93 89.1569C1832.54 89.5474 1832.54 90.1805 1832.93 90.5711C1833.32 90.9616 1833.95 90.9616 1834.34 90.5711L1840 84.9142L1845.66 90.5711C1846.05 90.9616 1846.68 90.9616 1847.07 90.5711C1847.46 90.1805 1847.46 89.5474 1847.07 89.1569L1840.71 82.7929ZM1840 266.5H1841V83.5H1840H1839V266.5H1840Z" fill="#1A1B1D"/>
<path d="M1976.5 221C1977.05 221 1977.5 220.552 1977.5 220C1977.5 219.448 1977.05 219 1976.5 219V221ZM1702.79 219.293C1702.4 219.683 1702.4 220.317 1702.79 220.707L1709.16 227.071C1709.55 227.462 1710.18 227.462 1710.57 227.071C1710.96 226.681 1710.96 226.047 1710.57 225.657L1704.91 220L1710.57 214.343C1710.96 213.953 1710.96 213.319 1710.57 212.929C1710.18 212.538 1709.55 212.538 1709.16 212.929L1702.79 219.293ZM1976.5 220V219H1703.5V220V221H1976.5V220Z" fill="#1A1B1D"/>
<path d="M2021 263.5C2021 262.948 2020.55 262.5 2020 262.5C2019.45 262.5 2019 262.948 2019 263.5H2021ZM2019.29 357.207C2019.68 357.598 2020.32 357.598 2020.71 357.207L2027.07 350.843C2027.46 350.453 2027.46 349.819 2027.07 349.429C2026.68 349.038 2026.05 349.038 2025.66 349.429L2020 355.086L2014.34 349.429C2013.95 349.038 2013.32 349.038 2012.93 349.429C2012.54 349.819 2012.54 350.453 2012.93 350.843L2019.29 357.207ZM2020 263.5H2019V356.5H2020H2021V263.5H2020Z" fill="#1A1B1D"/>
<defs>
<filter id="filter0_d_747_3159" x="165" y="169" width="110" height="110" filterUnits="userSpaceOnUse" color-interpolation-filters="sRGB">
<feFlood flood-opacity="0" result="BackgroundImageFix"/>
<feColorMatrix in="SourceAlpha" type="matrix" values="0 0 0 0 0 0 0 0 0 0 0 0 0 0 0 0 0 0 127 0" result="hardAlpha"/>
<feOffset dy="4"/>
<feGaussianBlur stdDeviation="4"/>
<feComposite in2="hardAlpha" operator="out"/>
<feColorMatrix type="matrix" values="0 0 0 0 0.101961 0 0 0 0 0.105882 0 0 0 0 0.113725 0 0 0 0.12 0"/>
<feBlend mode="normal" in2="BackgroundImageFix" result="effect1_dropShadow_747_3159"/>
<feBlend mode="normal" in="SourceGraphic" in2="effect1_dropShadow_747_3159" result="shape"/>
</filter>
<filter id="filter1_d_747_3159" x="165" y="349" width="110" height="110" filterUnits="userSpaceOnUse" color-interpolation-filters="sRGB">
<feFlood flood-opacity="0" result="BackgroundImageFix"/>
<feColorMatrix in="SourceAlpha" type="matrix" values="0 0 0 0 0 0 0 0 0 0 0 0 0 0 0 0 0 0 127 0" result="hardAlpha"/>
<feOffset dy="4"/>
<feGaussianBlur stdDeviation="4"/>
<feComposite in2="hardAlpha" operator="out"/>
<feColorMatrix type="matrix" values="0 0 0 0 0.101961 0 0 0 0 0.105882 0 0 0 0 0.113725 0 0 0 0.12 0"/>
<feBlend mode="normal" in2="BackgroundImageFix" result="effect1_dropShadow_747_3159"/>
<feBlend mode="normal" in="SourceGraphic" in2="effect1_dropShadow_747_3159" result="shape"/>
</filter>
<filter id="filter2_d_747_3159" x="885" y="349" width="110" height="110" filterUnits="userSpaceOnUse" color-interpolation-filters="sRGB">
<feFlood flood-opacity="0" result="BackgroundImageFix"/>
<feColorMatrix in="SourceAlpha" type="matrix" values="0 0 0 0 0 0 0 0 0 0 0 0 0 0 0 0 0 0 127 0" result="hardAlpha"/>
<feOffset dy="4"/>
<feGaussianBlur stdDeviation="4"/>
<feComposite in2="hardAlpha" operator="out"/>
<feColorMatrix type="matrix" values="0 0 0 0 0.101961 0 0 0 0 0.105882 0 0 0 0 0.113725 0 0 0 0.12 0"/>
<feBlend mode="normal" in2="BackgroundImageFix" result="effect1_dropShadow_747_3159"/>
<feBlend mode="normal" in="SourceGraphic" in2="effect1_dropShadow_747_3159" result="shape"/>
</filter>
<filter id="filter3_d_747_3159" x="1065" y="259" width="110" height="110" filterUnits="userSpaceOnUse" color-interpolation-filters="sRGB">
<feFlood flood-opacity="0" result="BackgroundImageFix"/>
<feColorMatrix in="SourceAlpha" type="matrix" values="0 0 0 0 0 0 0 0 0 0 0 0 0 0 0 0 0 0 127 0" result="hardAlpha"/>
<feOffset dy="4"/>
<feGaussianBlur stdDeviation="4"/>
<feComposite in2="hardAlpha" operator="out"/>
<feColorMatrix type="matrix" values="0 0 0 0 0.101961 0 0 0 0 0.105882 0 0 0 0 0.113725 0 0 0 0.12 0"/>
<feBlend mode="normal" in2="BackgroundImageFix" result="effect1_dropShadow_747_3159"/>
<feBlend mode="normal" in="SourceGraphic" in2="effect1_dropShadow_747_3159" result="shape"/>
</filter>
<filter id="filter4_d_747_3159" x="1605" y="349" width="110" height="110" filterUnits="userSpaceOnUse" color-interpolation-filters="sRGB">
<feFlood flood-opacity="0" result="BackgroundImageFix"/>
<feColorMatrix in="SourceAlpha" type="matrix" values="0 0 0 0 0 0 0 0 0 0 0 0 0 0 0 0 0 0 127 0" result="hardAlpha"/>
<feOffset dy="4"/>
<feGaussianBlur stdDeviation="4"/>
<feComposite in2="hardAlpha" operator="out"/>
<feColorMatrix type="matrix" values="0 0 0 0 0.101961 0 0 0 0 0.105882 0 0 0 0 0.113725 0 0 0 0.12 0"/>
<feBlend mode="normal" in2="BackgroundImageFix" result="effect1_dropShadow_747_3159"/>
<feBlend mode="normal" in="SourceGraphic" in2="effect1_dropShadow_747_3159" result="shape"/>
</filter>
<filter id="filter5_d_747_3159" x="1605" y="529" width="110" height="110" filterUnits="userSpaceOnUse" color-interpolation-filters="sRGB">
<feFlood flood-opacity="0" result="BackgroundImageFix"/>
<feColorMatrix in="SourceAlpha" type="matrix" values="0 0 0 0 0 0 0 0 0 0 0 0 0 0 0 0 0 0 127 0" result="hardAlpha"/>
<feOffset dy="4"/>
<feGaussianBlur stdDeviation="4"/>
<feComposite in2="hardAlpha" operator="out"/>
<feColorMatrix type="matrix" values="0 0 0 0 0.101961 0 0 0 0 0.105882 0 0 0 0 0.113725 0 0 0 0.12 0"/>
<feBlend mode="normal" in2="BackgroundImageFix" result="effect1_dropShadow_747_3159"/>
<feBlend mode="normal" in="SourceGraphic" in2="effect1_dropShadow_747_3159" result="shape"/>
</filter>
</defs>
</svg>
