<svg width="529" height="132" viewBox="0 0 529 132" fill="none" xmlns="http://www.w3.org/2000/svg">
<rect y="40" width="245" height="20" fill="#FFE9E7"/>
<rect x="269" y="40" width="260" height="20" fill="#FFE9E7"/>
<path d="M3.04727 49.8949C3.04727 50.6229 3.11027 51.2763 3.23627 51.8549C3.36227 52.4289 3.54893 52.9563 3.79627 53.4369C4.0436 53.9129 4.35393 54.3656 4.72727 54.7949C5.10527 55.2289 5.54393 55.6676 6.04327 56.1109L5.42727 56.7549C4.67127 56.1343 4.0226 55.4996 3.48127 54.8509C2.9446 54.2023 2.5316 53.4789 2.24227 52.6809C1.9576 51.8829 1.81527 50.9543 1.81527 49.8949C1.81527 48.8309 1.9576 47.8999 2.24227 47.1019C2.5316 46.3039 2.9446 45.5806 3.48127 44.9319C4.0226 44.2833 4.67127 43.6509 5.42727 43.0349L6.04327 43.6789C5.53927 44.1269 5.09827 44.5679 4.72027 45.0019C4.34693 45.4313 4.0366 45.8839 3.78927 46.3599C3.54193 46.8313 3.35527 47.3563 3.22927 47.9349C3.10793 48.5089 3.04727 49.1623 3.04727 49.8949ZM11.5258 52.6949C11.5258 52.3916 11.6331 52.1279 11.8478 51.9039C12.0671 51.6799 12.3355 51.5679 12.6528 51.5679C12.9795 51.5679 13.2501 51.6799 13.4648 51.9039C13.6841 52.1279 13.7938 52.3916 13.7938 52.6949C13.7938 53.0123 13.6841 53.2829 13.4648 53.5069C13.2501 53.7263 12.9795 53.8359 12.6528 53.8359C12.3355 53.8359 12.0671 53.7263 11.8478 53.5069C11.6331 53.2829 11.5258 53.0123 11.5258 52.6949ZM11.5258 47.6479C11.5258 47.4333 11.5748 47.2419 11.6728 47.0739C11.7708 46.9059 11.9061 46.7729 12.0788 46.6749C12.2515 46.5723 12.4428 46.5209 12.6528 46.5209C12.9795 46.5209 13.2501 46.6306 13.4648 46.8499C13.6841 47.0693 13.7938 47.3353 13.7938 47.6479C13.7938 47.9559 13.6841 48.2243 13.4648 48.4529C13.2501 48.6769 12.9795 48.7889 12.6528 48.7889C12.3355 48.7889 12.0671 48.6769 11.8478 48.4529C11.6331 48.2243 11.5258 47.9559 11.5258 47.6479ZM22.9303 52.3379H19.1153L18.3453 54.7949H17.1483L20.2843 45.1559H21.8383L24.9743 54.7949H23.7003L22.9303 52.3379ZM19.4303 51.3299H22.6153L21.0333 46.1779L19.4303 51.3299ZM30.6809 49.8949C30.6809 49.1623 30.6179 48.5089 30.4919 47.9349C30.3705 47.3563 30.1862 46.8313 29.9389 46.3599C29.6915 45.8839 29.3789 45.4313 29.0009 45.0019C28.6275 44.5679 28.1889 44.1269 27.6849 43.6789L28.3009 43.0349C29.0615 43.6509 29.7102 44.2833 30.2469 44.9319C30.7835 45.5806 31.1942 46.3039 31.4789 47.1019C31.7682 47.8999 31.9129 48.8309 31.9129 49.8949C31.9129 50.9543 31.7682 51.8829 31.4789 52.6809C31.1942 53.4789 30.7835 54.2023 30.2469 54.8509C29.7102 55.4996 29.0615 56.1343 28.3009 56.7549L27.6849 56.1109C28.1842 55.6676 28.6205 55.2289 28.9939 54.7949C29.3719 54.3656 29.6845 53.9129 29.9319 53.4369C30.1792 52.9563 30.3659 52.4289 30.4919 51.8549C30.6179 51.2763 30.6809 50.6229 30.6809 49.8949ZM44.8449 50.9309V49.8949H50.5849V50.9309H44.8449ZM47.5679 46.1499L48.4359 46.8919L46.4409 49.0899C46.2496 49.2953 46.0956 49.4539 45.9789 49.5659C45.8623 49.6779 45.7176 49.7876 45.5449 49.8949V50.9309C45.7176 51.0383 45.8623 51.1479 45.9789 51.2599C46.0956 51.3719 46.2496 51.5306 46.4409 51.7359L48.4359 53.9339L47.5679 54.6759L43.7599 50.4129L47.5679 46.1499ZM57.0965 50.9309H50.2995V49.8949H57.0965V50.9309ZM69.8045 56.4119V43.3779H73.3115V44.3929H70.9175V55.4109H73.3115V56.4119H69.8045ZM78.682 52.6949C78.682 52.3916 78.7894 52.1279 79.004 51.9039C79.2234 51.6799 79.4917 51.5679 79.809 51.5679C80.1357 51.5679 80.4064 51.6799 80.621 51.9039C80.8404 52.1279 80.95 52.3916 80.95 52.6949C80.95 53.0123 80.8404 53.2829 80.621 53.5069C80.4064 53.7263 80.1357 53.8359 79.809 53.8359C79.4917 53.8359 79.2234 53.7263 79.004 53.5069C78.7894 53.2829 78.682 53.0123 78.682 52.6949ZM78.682 47.6479C78.682 47.4333 78.731 47.2419 78.829 47.0739C78.927 46.9059 79.0624 46.7729 79.235 46.6749C79.4077 46.5723 79.599 46.5209 79.809 46.5209C80.1357 46.5209 80.4064 46.6306 80.621 46.8499C80.8404 47.0693 80.95 47.3353 80.95 47.6479C80.95 47.9559 80.8404 48.2243 80.621 48.4529C80.4064 48.6769 80.1357 48.7889 79.809 48.7889C79.4917 48.7889 79.2234 48.6769 79.004 48.4529C78.7894 48.2243 78.682 47.9559 78.682 47.6479ZM100.161 49.9859C100.161 50.6673 100.098 51.2926 99.9721 51.8619C99.8461 52.4313 99.6361 52.9329 99.3421 53.3669C99.0528 53.8009 98.6608 54.1533 98.1661 54.4239C98.6188 54.5126 99.0038 54.6456 99.3211 54.8229C99.6431 55.0003 99.9138 55.2406 100.133 55.5439C100.357 55.8519 100.548 56.2416 100.707 56.7129L99.4261 57.2169C99.2348 56.7223 99.0154 56.3046 98.7681 55.9639C98.5254 55.6233 98.2198 55.3643 97.8511 55.1869C97.4871 55.0143 97.0274 54.9279 96.4721 54.9279C95.7348 54.9279 95.1094 54.7249 94.5961 54.3189C94.0874 53.9083 93.7024 53.3343 93.4411 52.5969C93.1798 51.8596 93.0491 50.9939 93.0491 49.9999C93.0491 49.0246 93.1821 48.1613 93.4481 47.4099C93.7188 46.6586 94.1178 46.0706 94.6451 45.6459C95.1724 45.2166 95.8258 45.0019 96.6051 45.0019C97.3891 45.0019 98.0448 45.2096 98.5721 45.6249C99.0994 46.0403 99.4961 46.6213 99.7621 47.3679C100.028 48.1146 100.161 48.9873 100.161 49.9859ZM98.9011 49.9859C98.9011 48.6979 98.7214 47.7156 98.3621 47.0389C98.0074 46.3576 97.4218 46.0169 96.6051 46.0169C95.7931 46.0169 95.2074 46.3599 94.8481 47.0459C94.4888 47.7273 94.3091 48.7119 94.3091 49.9999C94.3091 51.2833 94.4934 52.2609 94.8621 52.9329C95.2354 53.6003 95.8164 53.9339 96.6051 53.9339C97.4171 53.9339 98.0028 53.5979 98.3621 52.9259C98.7214 52.2493 98.9011 51.2693 98.9011 49.9859ZM106.631 43.3779V56.4119H103.124V55.4179H105.518V44.3929H103.124V43.3779H106.631ZM118.989 50.9239V49.9019H124.603V50.9239H118.989ZM128.965 49.8949C128.965 50.6229 129.028 51.2763 129.154 51.8549C129.28 52.4289 129.467 52.9563 129.714 53.4369C129.962 53.9129 130.272 54.3656 130.645 54.7949C131.023 55.2289 131.462 55.6676 131.961 56.1109L131.345 56.7549C130.589 56.1343 129.941 55.4996 129.399 54.8509C128.863 54.2023 128.45 53.4789 128.16 52.6809C127.876 51.8829 127.733 50.9543 127.733 49.8949C127.733 48.8309 127.876 47.8999 128.16 47.1019C128.45 46.3039 128.863 45.5806 129.399 44.9319C129.941 44.2833 130.589 43.6509 131.345 43.0349L131.961 43.6789C131.457 44.1269 131.016 44.5679 130.638 45.0019C130.265 45.4313 129.955 45.8839 129.707 46.3599C129.46 46.8313 129.273 47.3563 129.147 47.9349C129.026 48.5089 128.965 49.1623 128.965 49.8949ZM135.792 54.7949V47.4239H136.793L136.884 48.4459C137.182 48.0679 137.556 47.7786 138.004 47.5779C138.456 47.3726 138.895 47.2699 139.32 47.2699C140.043 47.2699 140.568 47.4613 140.895 47.8439C141.226 48.2266 141.392 48.7586 141.392 49.4399V54.7949H140.216V50.3079C140.216 49.8039 140.188 49.3979 140.132 49.0899C140.076 48.7773 139.959 48.5509 139.782 48.4109C139.604 48.2663 139.329 48.1939 138.956 48.1939C138.666 48.1939 138.393 48.2569 138.137 48.3829C137.885 48.5089 137.658 48.6676 137.458 48.8589C137.262 49.0456 137.098 49.2346 136.968 49.4259V54.7949H135.792ZM145.838 53.8149C145.838 53.5116 145.946 53.2479 146.16 53.0239C146.38 52.7999 146.648 52.6879 146.965 52.6879C147.292 52.6879 147.563 52.7999 147.777 53.0239C147.997 53.2479 148.106 53.5116 148.106 53.8149C148.106 54.1323 147.997 54.4029 147.777 54.6269C147.563 54.8463 147.292 54.9559 146.965 54.9559C146.648 54.9559 146.38 54.8463 146.16 54.6269C145.946 54.4029 145.838 54.1323 145.838 53.8149ZM145.838 48.7679C145.838 48.5533 145.887 48.3619 145.985 48.1939C146.083 48.0259 146.219 47.8929 146.391 47.7949C146.564 47.6923 146.755 47.6409 146.965 47.6409C147.292 47.6409 147.563 47.7506 147.777 47.9699C147.997 48.1893 148.106 48.4553 148.106 48.7679C148.106 49.0759 147.997 49.3443 147.777 49.5729C147.563 49.7969 147.292 49.9089 146.965 49.9089C146.648 49.9089 146.38 49.7969 146.16 49.5729C145.946 49.3443 145.838 49.0759 145.838 48.7679ZM157.446 52.0859C157.446 51.6006 157.35 51.2273 157.159 50.9659C156.972 50.6999 156.722 50.5156 156.41 50.4129C156.097 50.3103 155.754 50.2589 155.381 50.2589H153.736V53.7939H155.325C155.563 53.7939 155.805 53.7706 156.053 53.7239C156.3 53.6773 156.529 53.5933 156.739 53.4719C156.953 53.3506 157.124 53.1803 157.25 52.9609C157.38 52.7369 157.446 52.4453 157.446 52.0859ZM157.061 47.6479C157.061 47.1019 156.89 46.7146 156.55 46.4859C156.214 46.2526 155.754 46.1359 155.171 46.1359H153.736V49.2579H155.29C155.859 49.2579 156.295 49.1319 156.599 48.8799C156.907 48.6233 157.061 48.2126 157.061 47.6479ZM158.727 52.0439C158.727 52.5666 158.622 53.0053 158.412 53.3599C158.206 53.7146 157.929 53.9969 157.579 54.2069C157.233 54.4169 156.846 54.5686 156.417 54.6619C155.992 54.7506 155.558 54.7949 155.115 54.7949H152.525V45.1559H154.898C155.322 45.1559 155.735 45.1956 156.137 45.2749C156.543 45.3496 156.907 45.4803 157.229 45.6669C157.555 45.8489 157.817 46.0963 158.013 46.4089C158.209 46.7216 158.307 47.1136 158.307 47.5849C158.307 48.0003 158.22 48.3526 158.048 48.6419C157.88 48.9266 157.658 49.1553 157.383 49.3279C157.112 49.5006 156.823 49.6219 156.515 49.6919C156.874 49.7479 157.222 49.8576 157.558 50.0209C157.898 50.1796 158.178 50.4223 158.398 50.7489C158.617 51.0709 158.727 51.5026 158.727 52.0439ZM164.993 49.8949C164.993 49.1623 164.93 48.5089 164.804 47.9349C164.683 47.3563 164.499 46.8313 164.251 46.3599C164.004 45.8839 163.691 45.4313 163.313 45.0019C162.94 44.5679 162.501 44.1269 161.997 43.6789L162.613 43.0349C163.374 43.6509 164.023 44.2833 164.559 44.9319C165.096 45.5806 165.507 46.3039 165.791 47.1019C166.081 47.8999 166.225 48.8309 166.225 49.8949C166.225 50.9543 166.081 51.8829 165.791 52.6809C165.507 53.4789 165.096 54.2023 164.559 54.8509C164.023 55.4996 163.374 56.1343 162.613 56.7549L161.997 56.1109C162.497 55.6676 162.933 55.2289 163.306 54.7949C163.684 54.3656 163.997 53.9129 164.244 53.4369C164.492 52.9563 164.678 52.4289 164.804 51.8549C164.93 51.2763 164.993 50.6229 164.993 49.8949ZM177.75 50.9239V49.9019H183.364V50.9239H177.75ZM189.029 45.9259L192.837 50.1889L189.029 54.4519L188.161 53.7099L190.156 51.5119C190.291 51.3626 190.431 51.2203 190.576 51.0849C190.725 50.9449 190.886 50.8189 191.059 50.7069H185.067V49.6709H191.052C190.921 49.5823 190.812 49.5053 190.723 49.4399C190.639 49.3699 190.555 49.2929 190.471 49.2089C190.392 49.1203 190.287 49.0059 190.156 48.8659L188.161 46.6679L189.029 45.9259ZM194.945 46.4789L200.328 49.8039V51.0079L195.015 54.3329L194.378 53.4649L199.32 50.4129L194.378 47.3679L194.945 46.4789ZM212.911 49.8949C212.911 50.6229 212.974 51.2763 213.1 51.8549C213.226 52.4289 213.412 52.9563 213.66 53.4369C213.907 53.9129 214.217 54.3656 214.591 54.7949C214.969 55.2289 215.407 55.6676 215.907 56.1109L215.291 56.7549C214.535 56.1343 213.886 55.4996 213.345 54.8509C212.808 54.2023 212.395 53.4789 212.106 52.6809C211.821 51.8829 211.679 50.9543 211.679 49.8949C211.679 48.8309 211.821 47.8999 212.106 47.1019C212.395 46.3039 212.808 45.5806 213.345 44.9319C213.886 44.2833 214.535 43.6509 215.291 43.0349L215.907 43.6789C215.403 44.1269 214.962 44.5679 214.584 45.0019C214.21 45.4313 213.9 45.8839 213.653 46.3599C213.405 46.8313 213.219 47.3563 213.093 47.9349C212.971 48.5089 212.911 49.1623 212.911 49.8949ZM221.389 52.6949C221.389 52.3916 221.496 52.1279 221.711 51.9039C221.93 51.6799 222.199 51.5679 222.516 51.5679C222.843 51.5679 223.113 51.6799 223.328 51.9039C223.547 52.1279 223.657 52.3916 223.657 52.6949C223.657 53.0123 223.547 53.2829 223.328 53.5069C223.113 53.7263 222.843 53.8359 222.516 53.8359C222.199 53.8359 221.93 53.7263 221.711 53.5069C221.496 53.2829 221.389 53.0123 221.389 52.6949ZM221.389 47.6479C221.389 47.4333 221.438 47.2419 221.536 47.0739C221.634 46.9059 221.769 46.7729 221.942 46.6749C222.115 46.5723 222.306 46.5209 222.516 46.5209C222.843 46.5209 223.113 46.6306 223.328 46.8499C223.547 47.0693 223.657 47.3353 223.657 47.6479C223.657 47.9559 223.547 48.2243 223.328 48.4529C223.113 48.6769 222.843 48.7889 222.516 48.7889C222.199 48.7889 221.93 48.6769 221.711 48.4529C221.496 48.2243 221.389 47.9559 221.389 47.6479ZM231.737 45.0019C232.367 45.0019 232.894 45.0813 233.319 45.2399C233.743 45.3986 234.147 45.6319 234.53 45.9399L233.851 46.7309C233.547 46.4743 233.225 46.2923 232.885 46.1849C232.549 46.0729 232.196 46.0169 231.828 46.0169C231.3 46.0169 230.813 46.1429 230.365 46.3949C229.917 46.6423 229.555 47.0553 229.28 47.6339C229.009 48.2079 228.874 48.9873 228.874 49.9719C228.874 50.9286 229.002 51.6963 229.259 52.2749C229.52 52.8536 229.872 53.2713 230.316 53.5279C230.759 53.7846 231.254 53.9129 231.8 53.9129C232.341 53.9129 232.784 53.8313 233.13 53.6679C233.48 53.5046 233.783 53.3179 234.04 53.1079L234.67 53.9059C234.376 54.1906 233.993 54.4379 233.522 54.6479C233.05 54.8533 232.472 54.9559 231.786 54.9559C231.006 54.9559 230.299 54.7646 229.665 54.3819C229.035 53.9993 228.535 53.4393 228.167 52.7019C227.798 51.9599 227.614 51.0499 227.614 49.9719C227.614 48.8893 227.8 47.9793 228.174 47.2419C228.552 46.5046 229.053 45.9469 229.679 45.5689C230.309 45.1909 230.995 45.0019 231.737 45.0019ZM240.544 49.8949C240.544 49.1623 240.481 48.5089 240.355 47.9349C240.234 47.3563 240.049 46.8313 239.802 46.3599C239.555 45.8839 239.242 45.4313 238.864 45.0019C238.491 44.5679 238.052 44.1269 237.548 43.6789L238.164 43.0349C238.925 43.6509 239.573 44.2833 240.11 44.9319C240.647 45.5806 241.057 46.3039 241.342 47.1019C241.631 47.8999 241.776 48.8309 241.776 49.8949C241.776 50.9543 241.631 51.8829 241.342 52.6809C241.057 53.4789 240.647 54.2023 240.11 54.8509C239.573 55.4996 238.925 56.1343 238.164 56.7549L237.548 56.1109C238.047 55.6676 238.484 55.2289 238.857 54.7949C239.235 54.3656 239.548 53.9129 239.795 53.4369C240.042 52.9563 240.229 52.4289 240.355 51.8549C240.481 51.2763 240.544 50.6229 240.544 49.8949ZM256.108 52.4919C256.43 52.4919 256.699 52.6016 256.913 52.8209C257.133 53.0403 257.242 53.3039 257.242 53.6119C257.242 53.7799 257.221 53.9503 257.179 54.1229C257.142 54.2956 257.072 54.4916 256.969 54.7109L255.835 57.3079H254.771L255.443 54.5429C255.303 54.4403 255.191 54.3073 255.107 54.1439C255.028 53.9759 254.988 53.7986 254.988 53.6119C254.988 53.2993 255.096 53.0356 255.31 52.8209C255.525 52.6016 255.791 52.4919 256.108 52.4919ZM271.672 49.8949C271.672 50.6229 271.735 51.2763 271.861 51.8549C271.987 52.4289 272.174 52.9563 272.421 53.4369C272.669 53.9129 272.979 54.3656 273.352 54.7949C273.73 55.2289 274.169 55.6676 274.668 56.1109L274.052 56.7549C273.296 56.1343 272.648 55.4996 272.106 54.8509C271.57 54.2023 271.157 53.4789 270.867 52.6809C270.583 51.8829 270.44 50.9543 270.44 49.8949C270.44 48.8309 270.583 47.8999 270.867 47.1019C271.157 46.3039 271.57 45.5806 272.106 44.9319C272.648 44.2833 273.296 43.6509 274.052 43.0349L274.668 43.6789C274.164 44.1269 273.723 44.5679 273.345 45.0019C272.972 45.4313 272.662 45.8839 272.414 46.3599C272.167 46.8313 271.98 47.3563 271.854 47.9349C271.733 48.5089 271.672 49.1623 271.672 49.8949ZM278.499 54.7949V47.4239H279.5L279.591 48.4459C279.889 48.0679 280.263 47.7786 280.711 47.5779C281.163 47.3726 281.602 47.2699 282.027 47.2699C282.75 47.2699 283.275 47.4613 283.602 47.8439C283.933 48.2266 284.099 48.7586 284.099 49.4399V54.7949H282.923V50.3079C282.923 49.8039 282.895 49.3979 282.839 49.0899C282.783 48.7773 282.666 48.5509 282.489 48.4109C282.311 48.2663 282.036 48.1939 281.663 48.1939C281.373 48.1939 281.1 48.2569 280.844 48.3829C280.592 48.5089 280.365 48.6676 280.165 48.8589C279.969 49.0456 279.805 49.2346 279.675 49.4259V54.7949H278.499ZM290.911 49.8949C290.911 49.1623 290.848 48.5089 290.722 47.9349C290.601 47.3563 290.417 46.8313 290.169 46.3599C289.922 45.8839 289.609 45.4313 289.231 45.0019C288.858 44.5679 288.419 44.1269 287.915 43.6789L288.531 43.0349C289.292 43.6509 289.941 44.2833 290.477 44.9319C291.014 45.5806 291.425 46.3039 291.709 47.1019C291.999 47.8999 292.143 48.8309 292.143 49.8949C292.143 50.9543 291.999 51.8829 291.709 52.6809C291.425 53.4789 291.014 54.2023 290.477 54.8509C289.941 55.4996 289.292 56.1343 288.531 56.7549L287.915 56.1109C288.415 55.6676 288.851 55.2289 289.224 54.7949C289.602 54.3656 289.915 53.9129 290.162 53.4369C290.41 52.9563 290.596 52.4289 290.722 51.8549C290.848 51.2763 290.911 50.6229 290.911 49.8949ZM305.25 49.8949C305.25 50.6229 305.313 51.2763 305.439 51.8549C305.565 52.4289 305.752 52.9563 305.999 53.4369C306.247 53.9129 306.557 54.3656 306.93 54.7949C307.308 55.2289 307.747 55.6676 308.246 56.1109L307.63 56.7549C306.874 56.1343 306.226 55.4996 305.684 54.8509C305.148 54.2023 304.735 53.4789 304.445 52.6809C304.161 51.8829 304.018 50.9543 304.018 49.8949C304.018 48.8309 304.161 47.8999 304.445 47.1019C304.735 46.3039 305.148 45.5806 305.684 44.9319C306.226 44.2833 306.874 43.6509 307.63 43.0349L308.246 43.6789C307.742 44.1269 307.301 44.5679 306.923 45.0019C306.55 45.4313 306.24 45.8839 305.992 46.3599C305.745 46.8313 305.558 47.3563 305.432 47.9349C305.311 48.5089 305.25 49.1623 305.25 49.8949ZM313.645 49.8949C313.645 50.6229 313.708 51.2763 313.834 51.8549C313.96 52.4289 314.147 52.9563 314.394 53.4369C314.641 53.9129 314.952 54.3656 315.325 54.7949C315.703 55.2289 316.142 55.6676 316.641 56.1109L316.025 56.7549C315.269 56.1343 314.62 55.4996 314.079 54.8509C313.542 54.2023 313.129 53.4789 312.84 52.6809C312.555 51.8829 312.413 50.9543 312.413 49.8949C312.413 48.8309 312.555 47.8999 312.84 47.1019C313.129 46.3039 313.542 45.5806 314.079 44.9319C314.62 44.2833 315.269 43.6509 316.025 43.0349L316.641 43.6789C316.137 44.1269 315.696 44.5679 315.318 45.0019C314.945 45.4313 314.634 45.8839 314.387 46.3599C314.14 46.8313 313.953 47.3563 313.827 47.9349C313.706 48.5089 313.645 49.1623 313.645 49.8949ZM322.123 52.6949C322.123 52.3916 322.231 52.1279 322.445 51.9039C322.665 51.6799 322.933 51.5679 323.25 51.5679C323.577 51.5679 323.848 51.6799 324.062 51.9039C324.282 52.1279 324.391 52.3916 324.391 52.6949C324.391 53.0123 324.282 53.2829 324.062 53.5069C323.848 53.7263 323.577 53.8359 323.25 53.8359C322.933 53.8359 322.665 53.7263 322.445 53.5069C322.231 53.2829 322.123 53.0123 322.123 52.6949ZM322.123 47.6479C322.123 47.4333 322.172 47.2419 322.27 47.0739C322.368 46.9059 322.504 46.7729 322.676 46.6749C322.849 46.5723 323.04 46.5209 323.25 46.5209C323.577 46.5209 323.848 46.6306 324.062 46.8499C324.282 47.0693 324.391 47.3353 324.391 47.6479C324.391 47.9559 324.282 48.2243 324.062 48.4529C323.848 48.6769 323.577 48.7889 323.25 48.7889C322.933 48.7889 322.665 48.6769 322.445 48.4529C322.231 48.2243 322.123 47.9559 322.123 47.6479ZM328.152 45.1559H329.545L331.659 48.8589L333.78 45.1559H335.096L332.359 49.5939L335.425 54.7949H334.032L331.631 50.4409L329.202 54.7949H327.893L330.917 49.6569L328.152 45.1559ZM341.279 49.8949C341.279 49.1623 341.216 48.5089 341.09 47.9349C340.968 47.3563 340.784 46.8313 340.537 46.3599C340.289 45.8839 339.977 45.4313 339.599 45.0019C339.225 44.5679 338.787 44.1269 338.283 43.6789L338.899 43.0349C339.659 43.6509 340.308 44.2833 340.845 44.9319C341.381 45.5806 341.792 46.3039 342.077 47.1019C342.366 47.8999 342.511 48.8309 342.511 49.8949C342.511 50.9543 342.366 51.8829 342.077 52.6809C341.792 53.4789 341.381 54.2023 340.845 54.8509C340.308 55.4996 339.659 56.1343 338.899 56.7549L338.283 56.1109C338.782 55.6676 339.218 55.2289 339.592 54.7949C339.97 54.3656 340.282 53.9129 340.53 53.4369C340.777 52.9563 340.964 52.4289 341.09 51.8549C341.216 51.2763 341.279 50.6229 341.279 49.8949ZM354.036 50.9239V49.9019H359.65V50.9239H354.036ZM363.613 56.4119V43.3779H367.12V44.3929H364.726V55.4109H367.12V56.4119H363.613ZM372.491 52.6949C372.491 52.3916 372.598 52.1279 372.813 51.9039C373.032 51.6799 373.3 51.5679 373.618 51.5679C373.944 51.5679 374.215 51.6799 374.43 51.9039C374.649 52.1279 374.759 52.3916 374.759 52.6949C374.759 53.0123 374.649 53.2829 374.43 53.5069C374.215 53.7263 373.944 53.8359 373.618 53.8359C373.3 53.8359 373.032 53.7263 372.813 53.5069C372.598 53.2829 372.491 53.0123 372.491 52.6949ZM372.491 47.6479C372.491 47.4333 372.54 47.2419 372.638 47.0739C372.736 46.9059 372.871 46.7729 373.044 46.6749C373.216 46.5723 373.408 46.5209 373.618 46.5209C373.944 46.5209 374.215 46.6306 374.43 46.8499C374.649 47.0693 374.759 47.3353 374.759 47.6479C374.759 47.9559 374.649 48.2243 374.43 48.4529C374.215 48.6769 373.944 48.7889 373.618 48.7889C373.3 48.7889 373.032 48.6769 372.813 48.4529C372.598 48.2243 372.491 47.9559 372.491 47.6479ZM393.746 47.8579C393.746 48.3386 393.641 48.7586 393.431 49.1179C393.225 49.4773 392.945 49.7736 392.591 50.0069C392.236 50.2403 391.837 50.4106 391.394 50.5179L394.25 54.7949H392.794L390.162 50.6579H388.86V54.7949H387.642V45.1559H390.12C391.31 45.1559 392.21 45.3846 392.822 45.8419C393.438 46.2946 393.746 46.9666 393.746 47.8579ZM392.444 47.8579C392.444 47.2373 392.266 46.7939 391.912 46.5279C391.557 46.2573 391.006 46.1219 390.26 46.1219H388.86V49.7059H390.26C390.95 49.7059 391.487 49.5659 391.87 49.2859C392.252 49.0013 392.444 48.5253 392.444 47.8579ZM400.439 43.3779V56.4119H396.932V55.4179H399.326V44.3929H396.932V43.3779H400.439ZM413.147 50.9309V49.8949H419.944V50.9309H413.147ZM425.399 50.9309H419.659V49.8949H425.399V50.9309ZM422.676 46.1499L426.484 50.4129L422.676 54.6759L421.808 53.9339L423.803 51.7359C423.994 51.5306 424.148 51.3719 424.265 51.2599C424.381 51.1479 424.526 51.0383 424.699 50.9309V49.8949C424.526 49.7876 424.381 49.6779 424.265 49.5659C424.148 49.4539 423.994 49.2953 423.803 49.0899L421.808 46.8919L422.676 46.1499ZM439.563 49.8949C439.563 50.6229 439.626 51.2763 439.752 51.8549C439.878 52.4289 440.065 52.9563 440.312 53.4369C440.559 53.9129 440.87 54.3656 441.243 54.7949C441.621 55.2289 442.06 55.6676 442.559 56.1109L441.943 56.7549C441.187 56.1343 440.538 55.4996 439.997 54.8509C439.46 54.2023 439.047 53.4789 438.758 52.6809C438.473 51.8829 438.331 50.9543 438.331 49.8949C438.331 48.8309 438.473 47.8999 438.758 47.1019C439.047 46.3039 439.46 45.5806 439.997 44.9319C440.538 44.2833 441.187 43.6509 441.943 43.0349L442.559 43.6789C442.055 44.1269 441.614 44.5679 441.236 45.0019C440.863 45.4313 440.552 45.8839 440.305 46.3599C440.058 46.8313 439.871 47.3563 439.745 47.9349C439.624 48.5089 439.563 49.1623 439.563 49.8949ZM448.041 52.6949C448.041 52.3916 448.149 52.1279 448.363 51.9039C448.583 51.6799 448.851 51.5679 449.168 51.5679C449.495 51.5679 449.766 51.6799 449.98 51.9039C450.2 52.1279 450.309 52.3916 450.309 52.6949C450.309 53.0123 450.2 53.2829 449.98 53.5069C449.766 53.7263 449.495 53.8359 449.168 53.8359C448.851 53.8359 448.583 53.7263 448.363 53.5069C448.149 53.2829 448.041 53.0123 448.041 52.6949ZM448.041 47.6479C448.041 47.4333 448.09 47.2419 448.188 47.0739C448.286 46.9059 448.422 46.7729 448.594 46.6749C448.767 46.5723 448.958 46.5209 449.168 46.5209C449.495 46.5209 449.766 46.6306 449.98 46.8499C450.2 47.0693 450.309 47.3353 450.309 47.6479C450.309 47.9559 450.2 48.2243 449.98 48.4529C449.766 48.6769 449.495 48.7889 449.168 48.7889C448.851 48.7889 448.583 48.6769 448.363 48.4529C448.149 48.2243 448.041 47.9559 448.041 47.6479ZM458.193 51.0779V54.7949H456.961V51.0919L453.706 45.1559H455.05L457.605 49.9859L460.188 45.1559H461.448L458.193 51.0779ZM467.196 49.8949C467.196 49.1623 467.133 48.5089 467.007 47.9349C466.886 47.3563 466.702 46.8313 466.454 46.3599C466.207 45.8839 465.894 45.4313 465.516 45.0019C465.143 44.5679 464.704 44.1269 464.2 43.6789L464.816 43.0349C465.577 43.6509 466.226 44.2833 466.762 44.9319C467.299 45.5806 467.71 46.3039 467.994 47.1019C468.284 47.8999 468.428 48.8309 468.428 49.8949C468.428 50.9543 468.284 51.8829 467.994 52.6809C467.71 53.4789 467.299 54.2023 466.762 54.8509C466.226 55.4996 465.577 56.1343 464.816 56.7549L464.2 56.1109C464.7 55.6676 465.136 55.2289 465.509 54.7949C465.887 54.3656 466.2 53.9129 466.447 53.4369C466.695 52.9563 466.881 52.4289 467.007 51.8549C467.133 51.2763 467.196 50.6229 467.196 49.8949ZM475.591 49.8949C475.591 49.1623 475.528 48.5089 475.402 47.9349C475.281 47.3563 475.096 46.8313 474.849 46.3599C474.602 45.8839 474.289 45.4313 473.911 45.0019C473.538 44.5679 473.099 44.1269 472.595 43.6789L473.211 43.0349C473.972 43.6509 474.62 44.2833 475.157 44.9319C475.694 45.5806 476.104 46.3039 476.389 47.1019C476.678 47.8999 476.823 48.8309 476.823 49.8949C476.823 50.9543 476.678 51.8829 476.389 52.6809C476.104 53.4789 475.694 54.2023 475.157 54.8509C474.62 55.4996 473.972 56.1343 473.211 56.7549L472.595 56.1109C473.094 55.6676 473.531 55.2289 473.904 54.7949C474.282 54.3656 474.595 53.9129 474.842 53.4369C475.089 52.9563 475.276 52.4289 475.402 51.8549C475.528 51.2763 475.591 50.6229 475.591 49.8949ZM493.276 43.0979V44.0219C492.935 44.0219 492.625 44.0569 492.345 44.1269C492.07 44.1923 491.855 44.3066 491.701 44.4699C491.552 44.6333 491.489 44.8573 491.512 45.1419L491.806 48.0119C491.848 48.4039 491.825 48.7283 491.736 48.9849C491.647 49.2416 491.498 49.4423 491.288 49.5869C491.083 49.7316 490.819 49.8343 490.497 49.8949C490.824 49.9509 491.092 50.0489 491.302 50.1889C491.512 50.3243 491.659 50.5203 491.743 50.7769C491.827 51.0289 491.848 51.3626 491.806 51.7779L491.512 54.6479C491.489 54.9373 491.552 55.1636 491.701 55.3269C491.85 55.4903 492.065 55.6046 492.345 55.6699C492.625 55.7353 492.935 55.7679 493.276 55.7679V56.6919C492.884 56.6919 492.508 56.6569 492.149 56.5869C491.79 56.5216 491.472 56.4073 491.197 56.2439C490.922 56.0806 490.714 55.8566 490.574 55.5719C490.434 55.2919 490.387 54.9373 490.434 54.5079L490.714 51.8479C490.751 51.5259 490.721 51.2553 490.623 51.0359C490.53 50.8166 490.324 50.6509 490.007 50.5389C489.694 50.4223 489.225 50.3639 488.6 50.3639V49.4259C489.225 49.4259 489.694 49.3699 490.007 49.2579C490.324 49.1459 490.53 48.9803 490.623 48.7609C490.721 48.5416 490.751 48.2733 490.714 47.9559L490.434 45.2819C490.387 44.8526 490.434 44.4979 490.574 44.2179C490.714 43.9333 490.919 43.7093 491.19 43.5459C491.465 43.3826 491.783 43.2683 492.142 43.2029C492.506 43.1329 492.884 43.0979 493.276 43.0979ZM500.579 45.1559V54.5149H499.403V46.4299L497.191 47.7739L496.68 46.9339L499.55 45.1559H500.579ZM502.595 53.8359V54.7949H497.03V53.8359H502.595ZM507.944 52.4919C508.266 52.4919 508.534 52.6016 508.749 52.8209C508.968 53.0403 509.078 53.3039 509.078 53.6119C509.078 53.7799 509.057 53.9503 509.015 54.1229C508.978 54.2956 508.908 54.4916 508.805 54.7109L507.671 57.3079H506.607L507.279 54.5429C507.139 54.4403 507.027 54.3073 506.943 54.1439C506.864 53.9759 506.824 53.7986 506.824 53.6119C506.824 53.2993 506.931 53.0356 507.146 52.8209C507.361 52.6016 507.627 52.4919 507.944 52.4919ZM518.957 45.1559L518.782 46.0939H514.974V49.1319C515.268 48.9733 515.545 48.8659 515.807 48.8099C516.073 48.7493 516.35 48.7189 516.64 48.7189C517.162 48.7189 517.622 48.8379 518.019 49.0759C518.415 49.3093 518.723 49.6523 518.943 50.1049C519.162 50.5576 519.272 51.1036 519.272 51.7429C519.272 52.3823 519.136 52.9446 518.866 53.4299C518.6 53.9153 518.224 54.2909 517.739 54.5569C517.253 54.8229 516.677 54.9559 516.01 54.9559C515.431 54.9559 514.913 54.8533 514.456 54.6479C514.003 54.4426 513.59 54.1579 513.217 53.7939L513.945 53.0939C514.239 53.3926 514.554 53.6166 514.89 53.7659C515.23 53.9106 515.608 53.9829 516.024 53.9829C516.658 53.9829 517.153 53.7916 517.508 53.4089C517.862 53.0216 518.04 52.4546 518.04 51.7079C518.04 51.1899 517.963 50.7816 517.809 50.4829C517.655 50.1843 517.445 49.9719 517.179 49.8459C516.917 49.7153 516.626 49.6499 516.304 49.6499C516.019 49.6499 515.767 49.6779 515.548 49.7339C515.328 49.7853 515.079 49.8646 514.799 49.9719H513.854V45.1559H518.957ZM522.612 43.0979C523.004 43.0979 523.38 43.1329 523.739 43.2029C524.099 43.2683 524.416 43.3826 524.691 43.5459C524.967 43.7093 525.174 43.9333 525.314 44.2179C525.459 44.4979 525.506 44.8526 525.454 45.2819L525.174 47.9559C525.137 48.2733 525.177 48.5416 525.293 48.7609C525.415 48.9803 525.634 49.1459 525.951 49.2579C526.269 49.3699 526.714 49.4259 527.288 49.4259V50.3639C526.719 50.3639 526.273 50.4223 525.951 50.5389C525.634 50.6509 525.415 50.8166 525.293 51.0359C525.177 51.2553 525.137 51.5259 525.174 51.8479L525.454 54.5079C525.501 54.9373 525.454 55.2919 525.314 55.5719C525.174 55.8566 524.967 56.0806 524.691 56.2439C524.421 56.4073 524.103 56.5216 523.739 56.5869C523.38 56.6569 523.004 56.6919 522.612 56.6919V55.7679C522.953 55.7679 523.261 55.7353 523.536 55.6699C523.816 55.6046 524.033 55.4903 524.187 55.3269C524.341 55.1636 524.404 54.9373 524.376 54.6479L524.082 51.7779C524.04 51.3626 524.064 51.0289 524.152 50.7769C524.241 50.5203 524.4 50.3243 524.628 50.1889C524.862 50.0536 525.167 49.9603 525.545 49.9089C525.181 49.8483 524.883 49.7433 524.649 49.5939C524.421 49.4446 524.26 49.2416 524.166 48.9849C524.073 48.7283 524.045 48.4039 524.082 48.0119L524.376 45.1419C524.404 44.8573 524.341 44.6333 524.187 44.4699C524.033 44.3066 523.819 44.1923 523.543 44.1269C523.268 44.0569 522.958 44.0219 522.612 44.0219V43.0979Z" fill="black"/>
<path d="M82.966 20.254V10.762H84.667L84.681 11.903C84.7743 11.7443 84.8933 11.588 85.038 11.434C85.1873 11.28 85.3577 11.1423 85.549 11.021C85.745 10.8997 85.962 10.804 86.2 10.734C86.438 10.6593 86.6993 10.622 86.984 10.622C87.5393 10.622 88.0317 10.755 88.461 11.021C88.8903 11.2823 89.2263 11.686 89.469 12.232C89.7163 12.778 89.84 13.4687 89.84 14.304C89.84 15.158 89.714 15.8697 89.462 16.439C89.21 17.0083 88.8577 17.4353 88.405 17.72C87.9523 18 87.4273 18.14 86.83 18.14C86.5547 18.14 86.3027 18.1027 86.074 18.028C85.85 17.9533 85.6493 17.8507 85.472 17.72C85.2947 17.5893 85.1383 17.447 85.003 17.293C84.8723 17.139 84.7627 16.978 84.674 16.81V20.254H82.966ZM86.452 16.866C86.9653 16.866 87.39 16.663 87.726 16.257C88.062 15.8463 88.23 15.2047 88.23 14.332C88.23 13.576 88.0713 12.981 87.754 12.547C87.4413 12.1083 87.0073 11.889 86.452 11.889C85.8547 11.889 85.4067 12.12 85.108 12.582C84.8093 13.0393 84.66 13.6227 84.66 14.332C84.66 14.7893 84.7253 15.2117 84.856 15.599C84.9913 15.9817 85.1897 16.2897 85.451 16.523C85.717 16.7517 86.0507 16.866 86.452 16.866ZM93.4125 18.14C92.9505 18.14 92.5352 18.056 92.1665 17.888C91.8025 17.7153 91.5155 17.4703 91.3055 17.153C91.1002 16.831 90.9975 16.4413 90.9975 15.984C90.9975 15.186 91.2845 14.584 91.8585 14.178C92.4372 13.772 93.3565 13.5597 94.6165 13.541L95.7015 13.513V13.023C95.7015 12.6403 95.5872 12.3417 95.3585 12.127C95.1345 11.9077 94.7845 11.8003 94.3085 11.805C93.9538 11.8097 93.6318 11.8937 93.3425 12.057C93.0532 12.2157 92.8618 12.484 92.7685 12.862H91.3195C91.3475 12.3673 91.4898 11.9543 91.7465 11.623C92.0078 11.287 92.3648 11.0373 92.8175 10.874C93.2702 10.706 93.7928 10.622 94.3855 10.622C95.0762 10.622 95.6385 10.713 96.0725 10.895C96.5065 11.077 96.8262 11.3407 97.0315 11.686C97.2368 12.0267 97.3395 12.4397 97.3395 12.925V18H95.9045L95.7645 16.698C95.5078 17.244 95.1788 17.622 94.7775 17.832C94.3808 18.0373 93.9258 18.14 93.4125 18.14ZM93.9655 16.985C94.1755 16.985 94.3832 16.9477 94.5885 16.873C94.7938 16.7937 94.9782 16.6887 95.1415 16.558C95.3095 16.4227 95.4425 16.2733 95.5405 16.11C95.6432 15.9467 95.6968 15.7763 95.7015 15.599V14.458L94.8125 14.472C94.3738 14.4767 93.9888 14.5233 93.6575 14.612C93.3308 14.7007 93.0765 14.843 92.8945 15.039C92.7125 15.2303 92.6215 15.487 92.6215 15.809C92.6215 16.1777 92.7498 16.467 93.0065 16.677C93.2632 16.8823 93.5828 16.985 93.9655 16.985ZM101.771 18.056C101.197 18.056 100.752 17.9813 100.434 17.832C100.122 17.678 99.9047 17.461 99.7834 17.181C99.6621 16.901 99.6014 16.5673 99.6014 16.18V11.966H98.4254V10.762H99.6504L100.077 8.613H101.302V10.755H102.919V11.966H101.302L101.309 16.117C101.309 16.3317 101.333 16.4903 101.379 16.593C101.431 16.691 101.51 16.7563 101.617 16.789C101.729 16.817 101.876 16.831 102.058 16.831H102.954V17.909C102.856 17.9463 102.712 17.979 102.52 18.007C102.334 18.0397 102.084 18.056 101.771 18.056ZM104.527 18V7.598H106.207V11.812C106.323 11.63 106.477 11.455 106.669 11.287C106.86 11.1143 107.093 10.9743 107.369 10.867C107.649 10.755 107.982 10.699 108.37 10.699C108.832 10.699 109.254 10.7877 109.637 10.965C110.019 11.1423 110.325 11.399 110.554 11.735C110.782 12.0663 110.897 12.463 110.897 12.925V18H109.189V13.212C109.189 12.8387 109.056 12.5493 108.79 12.344C108.528 12.1387 108.197 12.036 107.796 12.036C107.53 12.036 107.275 12.0827 107.033 12.176C106.79 12.2693 106.594 12.4093 106.445 12.596C106.3 12.778 106.228 13.0067 106.228 13.282V18H104.527ZM115.984 20.254V10.762H117.685L117.699 11.903C117.792 11.7443 117.911 11.588 118.056 11.434C118.205 11.28 118.375 11.1423 118.567 11.021C118.763 10.8997 118.98 10.804 119.218 10.734C119.456 10.6593 119.717 10.622 120.002 10.622C120.557 10.622 121.049 10.755 121.479 11.021C121.908 11.2823 122.244 11.686 122.487 12.232C122.734 12.778 122.858 13.4687 122.858 14.304C122.858 15.158 122.732 15.8697 122.48 16.439C122.228 17.0083 121.875 17.4353 121.423 17.72C120.97 18 120.445 18.14 119.848 18.14C119.572 18.14 119.32 18.1027 119.092 18.028C118.868 17.9533 118.667 17.8507 118.49 17.72C118.312 17.5893 118.156 17.447 118.021 17.293C117.89 17.139 117.78 16.978 117.692 16.81V20.254H115.984ZM119.47 16.866C119.983 16.866 120.408 16.663 120.744 16.257C121.08 15.8463 121.248 15.2047 121.248 14.332C121.248 13.576 121.089 12.981 120.772 12.547C120.459 12.1083 120.025 11.889 119.47 11.889C118.872 11.889 118.424 12.12 118.126 12.582C117.827 13.0393 117.678 13.6227 117.678 14.332C117.678 14.7893 117.743 15.2117 117.874 15.599C118.009 15.9817 118.207 16.2897 118.469 16.523C118.735 16.7517 119.068 16.866 119.47 16.866ZM126.43 18.14C125.968 18.14 125.553 18.056 125.184 17.888C124.82 17.7153 124.533 17.4703 124.323 17.153C124.118 16.831 124.015 16.4413 124.015 15.984C124.015 15.186 124.302 14.584 124.876 14.178C125.455 13.772 126.374 13.5597 127.634 13.541L128.719 13.513V13.023C128.719 12.6403 128.605 12.3417 128.376 12.127C128.152 11.9077 127.802 11.8003 127.326 11.805C126.971 11.8097 126.649 11.8937 126.36 12.057C126.071 12.2157 125.879 12.484 125.786 12.862H124.337C124.365 12.3673 124.507 11.9543 124.764 11.623C125.025 11.287 125.382 11.0373 125.835 10.874C126.288 10.706 126.81 10.622 127.403 10.622C128.094 10.622 128.656 10.713 129.09 10.895C129.524 11.077 129.844 11.3407 130.049 11.686C130.254 12.0267 130.357 12.4397 130.357 12.925V18H128.922L128.782 16.698C128.525 17.244 128.196 17.622 127.795 17.832C127.398 18.0373 126.943 18.14 126.43 18.14ZM126.983 16.985C127.193 16.985 127.401 16.9477 127.606 16.873C127.811 16.7937 127.996 16.6887 128.159 16.558C128.327 16.4227 128.46 16.2733 128.558 16.11C128.661 15.9467 128.714 15.7763 128.719 15.599V14.458L127.83 14.472C127.391 14.4767 127.006 14.5233 126.675 14.612C126.348 14.7007 126.094 14.843 125.912 15.039C125.73 15.2303 125.639 15.487 125.639 15.809C125.639 16.1777 125.767 16.467 126.024 16.677C126.281 16.8823 126.6 16.985 126.983 16.985ZM134.789 18.056C134.215 18.056 133.769 17.9813 133.452 17.832C133.139 17.678 132.922 17.461 132.801 17.181C132.68 16.901 132.619 16.5673 132.619 16.18V11.966H131.443V10.762H132.668L133.095 8.613H134.32V10.755H135.937V11.966H134.32L134.327 16.117C134.327 16.3317 134.35 16.4903 134.397 16.593C134.448 16.691 134.528 16.7563 134.635 16.789C134.747 16.817 134.894 16.831 135.076 16.831H135.972V17.909C135.874 17.9463 135.729 17.979 135.538 18.007C135.351 18.0397 135.102 18.056 134.789 18.056ZM139.861 18.056C139.287 18.056 138.842 17.9813 138.524 17.832C138.212 17.678 137.995 17.461 137.873 17.181C137.752 16.901 137.691 16.5673 137.691 16.18V11.966H136.515V10.762H137.74L138.167 8.613H139.392V10.755H141.009V11.966H139.392L139.399 16.117C139.399 16.3317 139.423 16.4903 139.469 16.593C139.521 16.691 139.6 16.7563 139.707 16.789C139.819 16.817 139.966 16.831 140.148 16.831H141.044V17.909C140.946 17.9463 140.802 17.979 140.61 18.007C140.424 18.0397 140.174 18.056 139.861 18.056ZM145.61 18.14C144.915 18.14 144.301 17.993 143.769 17.699C143.242 17.4003 142.829 16.9757 142.53 16.425C142.236 15.8743 142.089 15.2187 142.089 14.458C142.089 13.716 142.222 13.058 142.488 12.484C142.759 11.9053 143.149 11.4503 143.657 11.119C144.171 10.7877 144.789 10.622 145.512 10.622C146.226 10.622 146.826 10.7737 147.311 11.077C147.797 11.3803 148.165 11.805 148.417 12.351C148.669 12.8923 148.795 13.527 148.795 14.255V14.773H143.79C143.786 15.1837 143.851 15.5477 143.986 15.865C144.122 16.1823 144.322 16.432 144.588 16.614C144.854 16.7913 145.183 16.88 145.575 16.88C145.977 16.88 146.324 16.7913 146.618 16.614C146.917 16.432 147.115 16.1567 147.213 15.788H148.767C148.683 16.292 148.483 16.719 148.165 17.069C147.853 17.419 147.47 17.685 147.017 17.867C146.569 18.049 146.1 18.14 145.61 18.14ZM143.783 13.716H147.185C147.185 13.366 147.122 13.051 146.996 12.771C146.875 12.4863 146.691 12.2623 146.443 12.099C146.196 11.931 145.883 11.847 145.505 11.847C145.132 11.847 144.817 11.938 144.56 12.12C144.304 12.302 144.11 12.5377 143.979 12.827C143.849 13.1117 143.783 13.408 143.783 13.716ZM150.423 18V10.762H152.054V12.33C152.171 11.9707 152.336 11.665 152.551 11.413C152.77 11.1563 153.027 10.9603 153.321 10.825C153.615 10.6897 153.935 10.622 154.28 10.622C154.364 10.622 154.446 10.6267 154.525 10.636C154.604 10.6453 154.663 10.6617 154.7 10.685V12.316C154.649 12.2927 154.581 12.2763 154.497 12.267C154.418 12.2577 154.348 12.253 154.287 12.253C153.937 12.225 153.627 12.239 153.356 12.295C153.09 12.351 152.864 12.4467 152.677 12.582C152.495 12.7127 152.357 12.8807 152.264 13.086C152.171 13.2867 152.124 13.5223 152.124 13.793V18H150.423ZM156.056 18V10.762H157.722V11.798C157.834 11.6113 157.986 11.4317 158.177 11.259C158.373 11.0863 158.613 10.9463 158.898 10.839C159.183 10.7317 159.516 10.678 159.899 10.678C160.347 10.678 160.762 10.7667 161.145 10.944C161.532 11.1213 161.843 11.399 162.076 11.777C162.314 12.155 162.433 12.6427 162.433 13.24V18H160.725V13.443C160.725 12.967 160.594 12.6147 160.333 12.386C160.072 12.1527 159.743 12.036 159.346 12.036C159.075 12.036 158.819 12.0827 158.576 12.176C158.333 12.2647 158.135 12.4023 157.981 12.589C157.832 12.771 157.757 12.9997 157.757 13.275V18H156.056Z" fill="black"/>
<path d="M358.966 20.254V10.762H360.667L360.681 11.903C360.774 11.7443 360.893 11.588 361.038 11.434C361.187 11.28 361.358 11.1423 361.549 11.021C361.745 10.8997 361.962 10.804 362.2 10.734C362.438 10.6593 362.699 10.622 362.984 10.622C363.539 10.622 364.032 10.755 364.461 11.021C364.89 11.2823 365.226 11.686 365.469 12.232C365.716 12.778 365.84 13.4687 365.84 14.304C365.84 15.158 365.714 15.8697 365.462 16.439C365.21 17.0083 364.858 17.4353 364.405 17.72C363.952 18 363.427 18.14 362.83 18.14C362.555 18.14 362.303 18.1027 362.074 18.028C361.85 17.9533 361.649 17.8507 361.472 17.72C361.295 17.5893 361.138 17.447 361.003 17.293C360.872 17.139 360.763 16.978 360.674 16.81V20.254H358.966ZM362.452 16.866C362.965 16.866 363.39 16.663 363.726 16.257C364.062 15.8463 364.23 15.2047 364.23 14.332C364.23 13.576 364.071 12.981 363.754 12.547C363.441 12.1083 363.007 11.889 362.452 11.889C361.855 11.889 361.407 12.12 361.108 12.582C360.809 13.0393 360.66 13.6227 360.66 14.332C360.66 14.7893 360.725 15.2117 360.856 15.599C360.991 15.9817 361.19 16.2897 361.451 16.523C361.717 16.7517 362.051 16.866 362.452 16.866ZM369.413 18.14C368.951 18.14 368.535 18.056 368.167 17.888C367.803 17.7153 367.516 17.4703 367.306 17.153C367.1 16.831 366.998 16.4413 366.998 15.984C366.998 15.186 367.285 14.584 367.859 14.178C368.437 13.772 369.357 13.5597 370.617 13.541L371.702 13.513V13.023C371.702 12.6403 371.587 12.3417 371.359 12.127C371.135 11.9077 370.785 11.8003 370.309 11.805C369.954 11.8097 369.632 11.8937 369.343 12.057C369.053 12.2157 368.862 12.484 368.769 12.862H367.32C367.348 12.3673 367.49 11.9543 367.747 11.623C368.008 11.287 368.365 11.0373 368.818 10.874C369.27 10.706 369.793 10.622 370.386 10.622C371.076 10.622 371.639 10.713 372.073 10.895C372.507 11.077 372.826 11.3407 373.032 11.686C373.237 12.0267 373.34 12.4397 373.34 12.925V18H371.905L371.765 16.698C371.508 17.244 371.179 17.622 370.778 17.832C370.381 18.0373 369.926 18.14 369.413 18.14ZM369.966 16.985C370.176 16.985 370.383 16.9477 370.589 16.873C370.794 16.7937 370.978 16.6887 371.142 16.558C371.31 16.4227 371.443 16.2733 371.541 16.11C371.643 15.9467 371.697 15.7763 371.702 15.599V14.458L370.813 14.472C370.374 14.4767 369.989 14.5233 369.658 14.612C369.331 14.7007 369.077 14.843 368.895 15.039C368.713 15.2303 368.622 15.487 368.622 15.809C368.622 16.1777 368.75 16.467 369.007 16.677C369.263 16.8823 369.583 16.985 369.966 16.985ZM377.771 18.056C377.197 18.056 376.752 17.9813 376.434 17.832C376.122 17.678 375.905 17.461 375.783 17.181C375.662 16.901 375.601 16.5673 375.601 16.18V11.966H374.425V10.762H375.65L376.077 8.613H377.302V10.755H378.919V11.966H377.302L377.309 16.117C377.309 16.3317 377.333 16.4903 377.379 16.593C377.431 16.691 377.51 16.7563 377.617 16.789C377.729 16.817 377.876 16.831 378.058 16.831H378.954V17.909C378.856 17.9463 378.712 17.979 378.52 18.007C378.334 18.0397 378.084 18.056 377.771 18.056ZM380.527 18V7.598H382.207V11.812C382.323 11.63 382.477 11.455 382.669 11.287C382.86 11.1143 383.093 10.9743 383.369 10.867C383.649 10.755 383.982 10.699 384.37 10.699C384.832 10.699 385.254 10.7877 385.637 10.965C386.019 11.1423 386.325 11.399 386.554 11.735C386.782 12.0663 386.897 12.463 386.897 12.925V18H385.189V13.212C385.189 12.8387 385.056 12.5493 384.79 12.344C384.528 12.1387 384.197 12.036 383.796 12.036C383.53 12.036 383.275 12.0827 383.033 12.176C382.79 12.2693 382.594 12.4093 382.445 12.596C382.3 12.778 382.228 13.0067 382.228 13.282V18H380.527ZM391.984 20.254V10.762H393.685L393.699 11.903C393.792 11.7443 393.911 11.588 394.056 11.434C394.205 11.28 394.375 11.1423 394.567 11.021C394.763 10.8997 394.98 10.804 395.218 10.734C395.456 10.6593 395.717 10.622 396.002 10.622C396.557 10.622 397.049 10.755 397.479 11.021C397.908 11.2823 398.244 11.686 398.487 12.232C398.734 12.778 398.858 13.4687 398.858 14.304C398.858 15.158 398.732 15.8697 398.48 16.439C398.228 17.0083 397.875 17.4353 397.423 17.72C396.97 18 396.445 18.14 395.848 18.14C395.572 18.14 395.32 18.1027 395.092 18.028C394.868 17.9533 394.667 17.8507 394.49 17.72C394.312 17.5893 394.156 17.447 394.021 17.293C393.89 17.139 393.78 16.978 393.692 16.81V20.254H391.984ZM395.47 16.866C395.983 16.866 396.408 16.663 396.744 16.257C397.08 15.8463 397.248 15.2047 397.248 14.332C397.248 13.576 397.089 12.981 396.772 12.547C396.459 12.1083 396.025 11.889 395.47 11.889C394.872 11.889 394.424 12.12 394.126 12.582C393.827 13.0393 393.678 13.6227 393.678 14.332C393.678 14.7893 393.743 15.2117 393.874 15.599C394.009 15.9817 394.207 16.2897 394.469 16.523C394.735 16.7517 395.068 16.866 395.47 16.866ZM402.43 18.14C401.968 18.14 401.553 18.056 401.184 17.888C400.82 17.7153 400.533 17.4703 400.323 17.153C400.118 16.831 400.015 16.4413 400.015 15.984C400.015 15.186 400.302 14.584 400.876 14.178C401.455 13.772 402.374 13.5597 403.634 13.541L404.719 13.513V13.023C404.719 12.6403 404.605 12.3417 404.376 12.127C404.152 11.9077 403.802 11.8003 403.326 11.805C402.971 11.8097 402.649 11.8937 402.36 12.057C402.071 12.2157 401.879 12.484 401.786 12.862H400.337C400.365 12.3673 400.507 11.9543 400.764 11.623C401.025 11.287 401.382 11.0373 401.835 10.874C402.288 10.706 402.81 10.622 403.403 10.622C404.094 10.622 404.656 10.713 405.09 10.895C405.524 11.077 405.844 11.3407 406.049 11.686C406.254 12.0267 406.357 12.4397 406.357 12.925V18H404.922L404.782 16.698C404.525 17.244 404.196 17.622 403.795 17.832C403.398 18.0373 402.943 18.14 402.43 18.14ZM402.983 16.985C403.193 16.985 403.401 16.9477 403.606 16.873C403.811 16.7937 403.996 16.6887 404.159 16.558C404.327 16.4227 404.46 16.2733 404.558 16.11C404.661 15.9467 404.714 15.7763 404.719 15.599V14.458L403.83 14.472C403.391 14.4767 403.006 14.5233 402.675 14.612C402.348 14.7007 402.094 14.843 401.912 15.039C401.73 15.2303 401.639 15.487 401.639 15.809C401.639 16.1777 401.767 16.467 402.024 16.677C402.281 16.8823 402.6 16.985 402.983 16.985ZM410.789 18.056C410.215 18.056 409.769 17.9813 409.452 17.832C409.139 17.678 408.922 17.461 408.801 17.181C408.68 16.901 408.619 16.5673 408.619 16.18V11.966H407.443V10.762H408.668L409.095 8.613H410.32V10.755H411.937V11.966H410.32L410.327 16.117C410.327 16.3317 410.35 16.4903 410.397 16.593C410.448 16.691 410.528 16.7563 410.635 16.789C410.747 16.817 410.894 16.831 411.076 16.831H411.972V17.909C411.874 17.9463 411.729 17.979 411.538 18.007C411.351 18.0397 411.102 18.056 410.789 18.056ZM415.861 18.056C415.287 18.056 414.842 17.9813 414.524 17.832C414.212 17.678 413.995 17.461 413.873 17.181C413.752 16.901 413.691 16.5673 413.691 16.18V11.966H412.515V10.762H413.74L414.167 8.613H415.392V10.755H417.009V11.966H415.392L415.399 16.117C415.399 16.3317 415.423 16.4903 415.469 16.593C415.521 16.691 415.6 16.7563 415.707 16.789C415.819 16.817 415.966 16.831 416.148 16.831H417.044V17.909C416.946 17.9463 416.802 17.979 416.61 18.007C416.424 18.0397 416.174 18.056 415.861 18.056ZM421.61 18.14C420.915 18.14 420.301 17.993 419.769 17.699C419.242 17.4003 418.829 16.9757 418.53 16.425C418.236 15.8743 418.089 15.2187 418.089 14.458C418.089 13.716 418.222 13.058 418.488 12.484C418.759 11.9053 419.149 11.4503 419.657 11.119C420.171 10.7877 420.789 10.622 421.512 10.622C422.226 10.622 422.826 10.7737 423.311 11.077C423.797 11.3803 424.165 11.805 424.417 12.351C424.669 12.8923 424.795 13.527 424.795 14.255V14.773H419.79C419.786 15.1837 419.851 15.5477 419.986 15.865C420.122 16.1823 420.322 16.432 420.588 16.614C420.854 16.7913 421.183 16.88 421.575 16.88C421.977 16.88 422.324 16.7913 422.618 16.614C422.917 16.432 423.115 16.1567 423.213 15.788H424.767C424.683 16.292 424.483 16.719 424.165 17.069C423.853 17.419 423.47 17.685 423.017 17.867C422.569 18.049 422.1 18.14 421.61 18.14ZM419.783 13.716H423.185C423.185 13.366 423.122 13.051 422.996 12.771C422.875 12.4863 422.691 12.2623 422.443 12.099C422.196 11.931 421.883 11.847 421.505 11.847C421.132 11.847 420.817 11.938 420.56 12.12C420.304 12.302 420.11 12.5377 419.979 12.827C419.849 13.1117 419.783 13.408 419.783 13.716ZM426.423 18V10.762H428.054V12.33C428.171 11.9707 428.336 11.665 428.551 11.413C428.77 11.1563 429.027 10.9603 429.321 10.825C429.615 10.6897 429.935 10.622 430.28 10.622C430.364 10.622 430.446 10.6267 430.525 10.636C430.604 10.6453 430.663 10.6617 430.7 10.685V12.316C430.649 12.2927 430.581 12.2763 430.497 12.267C430.418 12.2577 430.348 12.253 430.287 12.253C429.937 12.225 429.627 12.239 429.356 12.295C429.09 12.351 428.864 12.4467 428.677 12.582C428.495 12.7127 428.357 12.8807 428.264 13.086C428.171 13.2867 428.124 13.5223 428.124 13.793V18H426.423ZM432.056 18V10.762H433.722V11.798C433.834 11.6113 433.986 11.4317 434.177 11.259C434.373 11.0863 434.613 10.9463 434.898 10.839C435.183 10.7317 435.516 10.678 435.899 10.678C436.347 10.678 436.762 10.7667 437.145 10.944C437.532 11.1213 437.843 11.399 438.076 11.777C438.314 12.155 438.433 12.6427 438.433 13.24V18H436.725V13.443C436.725 12.967 436.594 12.6147 436.333 12.386C436.072 12.1527 435.743 12.036 435.346 12.036C435.075 12.036 434.819 12.0827 434.576 12.176C434.333 12.2647 434.135 12.4023 433.981 12.589C433.832 12.771 433.757 12.9997 433.757 13.275V18H432.056Z" fill="black"/>
<line y1="74.5" x2="529" y2="74.5" stroke="black"/>
<path d="M223.186 127.394C221.968 127.394 221.032 127.231 220.379 126.904C219.726 126.577 219.399 126.129 219.399 125.56C219.399 125.303 219.462 125.089 219.588 124.916C219.714 124.743 219.863 124.601 220.036 124.489C220.209 124.377 220.367 124.291 220.512 124.23C220.657 124.169 220.75 124.125 220.792 124.097C220.713 124.05 220.608 123.99 220.477 123.915C220.346 123.84 220.227 123.738 220.12 123.607C220.017 123.476 219.966 123.306 219.966 123.096C219.966 122.853 220.08 122.629 220.309 122.424C220.542 122.219 220.89 122.072 221.352 121.983C220.899 121.764 220.552 121.467 220.309 121.094C220.066 120.721 219.945 120.333 219.945 119.932C219.945 119.456 220.083 119.048 220.358 118.707C220.638 118.366 221.025 118.105 221.52 117.923C222.015 117.741 222.591 117.65 223.249 117.65C223.73 117.65 224.129 117.704 224.446 117.811C224.768 117.918 225.067 118.063 225.342 118.245C225.435 118.208 225.566 118.156 225.734 118.091C225.902 118.021 226.086 117.946 226.287 117.867C226.488 117.783 226.681 117.704 226.868 117.629C227.055 117.55 227.211 117.484 227.337 117.433L227.33 118.84L226.077 119.064C226.138 119.199 226.184 119.346 226.217 119.505C226.254 119.664 226.273 119.804 226.273 119.925C226.273 120.345 226.154 120.735 225.916 121.094C225.683 121.449 225.33 121.733 224.859 121.948C224.392 122.163 223.809 122.27 223.109 122.27C223.039 122.27 222.943 122.268 222.822 122.263C222.701 122.258 222.603 122.254 222.528 122.249C222.15 122.263 221.891 122.307 221.751 122.382C221.611 122.457 221.541 122.538 221.541 122.627C221.541 122.753 221.646 122.837 221.856 122.879C222.066 122.921 222.402 122.958 222.864 122.991C223.027 123 223.242 123.012 223.508 123.026C223.774 123.04 224.07 123.059 224.397 123.082C225.223 123.133 225.848 123.341 226.273 123.705C226.698 124.064 226.91 124.531 226.91 125.105C226.91 125.772 226.602 126.321 225.986 126.75C225.37 127.179 224.437 127.394 223.186 127.394ZM223.473 126.393C224.084 126.393 224.537 126.309 224.831 126.141C225.125 125.973 225.272 125.726 225.272 125.399C225.272 125.147 225.172 124.942 224.971 124.783C224.77 124.624 224.472 124.531 224.075 124.503L222.248 124.391C222.047 124.377 221.856 124.414 221.674 124.503C221.497 124.587 221.352 124.706 221.24 124.86C221.128 125.009 221.072 125.175 221.072 125.357C221.072 125.698 221.266 125.954 221.653 126.127C222.045 126.304 222.652 126.393 223.473 126.393ZM223.165 121.269C223.608 121.269 223.968 121.157 224.243 120.933C224.518 120.704 224.656 120.382 224.656 119.967C224.656 119.538 224.518 119.204 224.243 118.966C223.968 118.723 223.608 118.602 223.165 118.602C222.712 118.602 222.346 118.723 222.066 118.966C221.791 119.209 221.653 119.542 221.653 119.967C221.653 120.368 221.786 120.686 222.052 120.919C222.318 121.152 222.689 121.269 223.165 121.269ZM228.73 125V117.762H230.361V119.33C230.477 118.971 230.643 118.665 230.858 118.413C231.077 118.156 231.334 117.96 231.628 117.825C231.922 117.69 232.241 117.622 232.587 117.622C232.671 117.622 232.752 117.627 232.832 117.636C232.911 117.645 232.969 117.662 233.007 117.685V119.316C232.955 119.293 232.888 119.276 232.804 119.267C232.724 119.258 232.654 119.253 232.594 119.253C232.244 119.225 231.933 119.239 231.663 119.295C231.397 119.351 231.17 119.447 230.984 119.582C230.802 119.713 230.664 119.881 230.571 120.086C230.477 120.287 230.431 120.522 230.431 120.793V125H228.73ZM236.25 125.14C235.788 125.14 235.373 125.056 235.004 124.888C234.64 124.715 234.353 124.47 234.143 124.153C233.938 123.831 233.835 123.441 233.835 122.984C233.835 122.186 234.122 121.584 234.696 121.178C235.275 120.772 236.194 120.56 237.454 120.541L238.539 120.513V120.023C238.539 119.64 238.425 119.342 238.196 119.127C237.972 118.908 237.622 118.8 237.146 118.805C236.792 118.81 236.47 118.894 236.18 119.057C235.891 119.216 235.7 119.484 235.606 119.862H234.157C234.185 119.367 234.328 118.954 234.584 118.623C234.846 118.287 235.203 118.037 235.655 117.874C236.108 117.706 236.631 117.622 237.223 117.622C237.914 117.622 238.476 117.713 238.91 117.895C239.344 118.077 239.664 118.341 239.869 118.686C240.075 119.027 240.177 119.44 240.177 119.925V125H238.742L238.602 123.698C238.346 124.244 238.017 124.622 237.615 124.832C237.219 125.037 236.764 125.14 236.25 125.14ZM236.803 123.985C237.013 123.985 237.221 123.948 237.426 123.873C237.632 123.794 237.816 123.689 237.979 123.558C238.147 123.423 238.28 123.273 238.378 123.11C238.481 122.947 238.535 122.776 238.539 122.599V121.458L237.65 121.472C237.212 121.477 236.827 121.523 236.495 121.612C236.169 121.701 235.914 121.843 235.732 122.039C235.55 122.23 235.459 122.487 235.459 122.809C235.459 123.178 235.588 123.467 235.844 123.677C236.101 123.882 236.421 123.985 236.803 123.985ZM241.991 127.254V117.762H243.692L243.706 118.903C243.8 118.744 243.919 118.588 244.063 118.434C244.213 118.28 244.383 118.142 244.574 118.021C244.77 117.9 244.987 117.804 245.225 117.734C245.463 117.659 245.725 117.622 246.009 117.622C246.565 117.622 247.057 117.755 247.486 118.021C247.916 118.282 248.252 118.686 248.494 119.232C248.742 119.778 248.865 120.469 248.865 121.304C248.865 122.158 248.739 122.87 248.487 123.439C248.235 124.008 247.883 124.435 247.43 124.72C246.978 125 246.453 125.14 245.855 125.14C245.58 125.14 245.328 125.103 245.099 125.028C244.875 124.953 244.675 124.851 244.497 124.72C244.32 124.589 244.164 124.447 244.028 124.293C243.898 124.139 243.788 123.978 243.699 123.81V127.254H241.991ZM245.477 123.866C245.991 123.866 246.415 123.663 246.751 123.257C247.087 122.846 247.255 122.205 247.255 121.332C247.255 120.576 247.097 119.981 246.779 119.547C246.467 119.108 246.033 118.889 245.477 118.889C244.88 118.889 244.432 119.12 244.133 119.582C243.835 120.039 243.685 120.623 243.685 121.332C243.685 121.789 243.751 122.212 243.881 122.599C244.017 122.982 244.215 123.29 244.476 123.523C244.742 123.752 245.076 123.866 245.477 123.866ZM250.413 125V114.598H252.093V118.812C252.21 118.63 252.364 118.455 252.555 118.287C252.747 118.114 252.98 117.974 253.255 117.867C253.535 117.755 253.869 117.699 254.256 117.699C254.718 117.699 255.141 117.788 255.523 117.965C255.906 118.142 256.212 118.399 256.44 118.735C256.669 119.066 256.783 119.463 256.783 119.925V125H255.075V120.212C255.075 119.839 254.942 119.549 254.676 119.344C254.415 119.139 254.084 119.036 253.682 119.036C253.416 119.036 253.162 119.083 252.919 119.176C252.677 119.269 252.481 119.409 252.331 119.596C252.187 119.778 252.114 120.007 252.114 120.282V125H250.413ZM261.87 127.254V117.762H263.571L263.585 118.903C263.679 118.744 263.798 118.588 263.942 118.434C264.092 118.28 264.262 118.142 264.453 118.021C264.649 117.9 264.866 117.804 265.104 117.734C265.342 117.659 265.604 117.622 265.888 117.622C266.444 117.622 266.936 117.755 267.365 118.021C267.795 118.282 268.131 118.686 268.373 119.232C268.621 119.778 268.744 120.469 268.744 121.304C268.744 122.158 268.618 122.87 268.366 123.439C268.114 124.008 267.762 124.435 267.309 124.72C266.857 125 266.332 125.14 265.734 125.14C265.459 125.14 265.207 125.103 264.978 125.028C264.754 124.953 264.554 124.851 264.376 124.72C264.199 124.589 264.043 124.447 263.907 124.293C263.777 124.139 263.667 123.978 263.578 123.81V127.254H261.87ZM265.356 123.866C265.87 123.866 266.294 123.663 266.63 123.257C266.966 122.846 267.134 122.205 267.134 121.332C267.134 120.576 266.976 119.981 266.658 119.547C266.346 119.108 265.912 118.889 265.356 118.889C264.759 118.889 264.311 119.12 264.012 119.582C263.714 120.039 263.564 120.623 263.564 121.332C263.564 121.789 263.63 122.212 263.76 122.599C263.896 122.982 264.094 123.29 264.355 123.523C264.621 123.752 264.955 123.866 265.356 123.866ZM272.317 125.14C271.855 125.14 271.439 125.056 271.071 124.888C270.707 124.715 270.42 124.47 270.21 124.153C270.004 123.831 269.902 123.441 269.902 122.984C269.902 122.186 270.189 121.584 270.763 121.178C271.341 120.772 272.261 120.56 273.521 120.541L274.606 120.513V120.023C274.606 119.64 274.491 119.342 274.263 119.127C274.039 118.908 273.689 118.8 273.213 118.805C272.858 118.81 272.536 118.894 272.247 119.057C271.957 119.216 271.766 119.484 271.673 119.862H270.224C270.252 119.367 270.394 118.954 270.651 118.623C270.912 118.287 271.269 118.037 271.722 117.874C272.174 117.706 272.697 117.622 273.29 117.622C273.98 117.622 274.543 117.713 274.977 117.895C275.411 118.077 275.73 118.341 275.936 118.686C276.141 119.027 276.244 119.44 276.244 119.925V125H274.809L274.669 123.698C274.412 124.244 274.083 124.622 273.682 124.832C273.285 125.037 272.83 125.14 272.317 125.14ZM272.87 123.985C273.08 123.985 273.287 123.948 273.493 123.873C273.698 123.794 273.882 123.689 274.046 123.558C274.214 123.423 274.347 123.273 274.445 123.11C274.547 122.947 274.601 122.776 274.606 122.599V121.458L273.717 121.472C273.278 121.477 272.893 121.523 272.562 121.612C272.235 121.701 271.981 121.843 271.799 122.039C271.617 122.23 271.526 122.487 271.526 122.809C271.526 123.178 271.654 123.467 271.911 123.677C272.167 123.882 272.487 123.985 272.87 123.985ZM280.676 125.056C280.102 125.056 279.656 124.981 279.339 124.832C279.026 124.678 278.809 124.461 278.688 124.181C278.566 123.901 278.506 123.567 278.506 123.18V118.966H277.33V117.762H278.555L278.982 115.613H280.207V117.755H281.824V118.966H280.207L280.214 123.117C280.214 123.332 280.237 123.49 280.284 123.593C280.335 123.691 280.414 123.756 280.522 123.789C280.634 123.817 280.781 123.831 280.963 123.831H281.859V124.909C281.761 124.946 281.616 124.979 281.425 125.007C281.238 125.04 280.988 125.056 280.676 125.056ZM285.748 125.056C285.174 125.056 284.728 124.981 284.411 124.832C284.098 124.678 283.881 124.461 283.76 124.181C283.639 123.901 283.578 123.567 283.578 123.18V118.966H282.402V117.762H283.627L284.054 115.613H285.279V117.755H286.896V118.966H285.279L285.286 123.117C285.286 123.332 285.309 123.49 285.356 123.593C285.407 123.691 285.487 123.756 285.594 123.789C285.706 123.817 285.853 123.831 286.035 123.831H286.931V124.909C286.833 124.946 286.688 124.979 286.497 125.007C286.31 125.04 286.061 125.056 285.748 125.056ZM291.497 125.14C290.802 125.14 290.188 124.993 289.656 124.699C289.129 124.4 288.716 123.976 288.417 123.425C288.123 122.874 287.976 122.219 287.976 121.458C287.976 120.716 288.109 120.058 288.375 119.484C288.646 118.905 289.035 118.45 289.544 118.119C290.057 117.788 290.676 117.622 291.399 117.622C292.113 117.622 292.713 117.774 293.198 118.077C293.683 118.38 294.052 118.805 294.304 119.351C294.556 119.892 294.682 120.527 294.682 121.255V121.773H289.677C289.672 122.184 289.738 122.548 289.873 122.865C290.008 123.182 290.209 123.432 290.475 123.614C290.741 123.791 291.07 123.88 291.462 123.88C291.863 123.88 292.211 123.791 292.505 123.614C292.804 123.432 293.002 123.157 293.1 122.788H294.654C294.57 123.292 294.369 123.719 294.052 124.069C293.739 124.419 293.357 124.685 292.904 124.867C292.456 125.049 291.987 125.14 291.497 125.14ZM289.67 120.716H293.072C293.072 120.366 293.009 120.051 292.883 119.771C292.762 119.486 292.577 119.262 292.33 119.099C292.083 118.931 291.77 118.847 291.392 118.847C291.019 118.847 290.704 118.938 290.447 119.12C290.19 119.302 289.997 119.538 289.866 119.827C289.735 120.112 289.67 120.408 289.67 120.716ZM296.31 125V117.762H297.941V119.33C298.057 118.971 298.223 118.665 298.438 118.413C298.657 118.156 298.914 117.96 299.208 117.825C299.502 117.69 299.821 117.622 300.167 117.622C300.251 117.622 300.332 117.627 300.412 117.636C300.491 117.645 300.549 117.662 300.587 117.685V119.316C300.535 119.293 300.468 119.276 300.384 119.267C300.304 119.258 300.234 119.253 300.174 119.253C299.824 119.225 299.513 119.239 299.243 119.295C298.977 119.351 298.75 119.447 298.564 119.582C298.382 119.713 298.244 119.881 298.151 120.086C298.057 120.287 298.011 120.522 298.011 120.793V125H296.31ZM301.943 125V117.762H303.609V118.798C303.721 118.611 303.872 118.432 304.064 118.259C304.26 118.086 304.5 117.946 304.785 117.839C305.069 117.732 305.403 117.678 305.786 117.678C306.234 117.678 306.649 117.767 307.032 117.944C307.419 118.121 307.729 118.399 307.963 118.777C308.201 119.155 308.32 119.643 308.32 120.24V125H306.612V120.443C306.612 119.967 306.481 119.615 306.22 119.386C305.958 119.153 305.629 119.036 305.233 119.036C304.962 119.036 304.705 119.083 304.463 119.176C304.22 119.265 304.022 119.402 303.868 119.589C303.718 119.771 303.644 120 303.644 120.275V125H301.943Z" fill="black"/>
<path d="M265 78C265 77.7239 264.776 77.5 264.5 77.5C264.224 77.5 264 77.7239 264 78H265ZM261.833 108C261.833 109.473 263.027 110.667 264.5 110.667C265.973 110.667 267.167 109.473 267.167 108C267.167 106.527 265.973 105.333 264.5 105.333C263.027 105.333 261.833 106.527 261.833 108ZM264.5 78H264V108H264.5H265V78H264.5Z" fill="#1A1B1D"/>
</svg>
