<svg width="962" height="128" viewBox="0 0 962 128" fill="none" xmlns="http://www.w3.org/2000/svg">
<path d="M834 64C834 28.6538 862.654 0 898 0V0C933.346 0 962 28.6538 962 64V64C962 99.3462 933.346 128 898 128V128C862.654 128 834 99.3462 834 64V64Z" fill="#FFDF81"/>
<path d="M0 64C0 28.6538 28.6538 0 64 0V0C99.3462 0 128 28.6538 128 64V64C128 99.3462 99.3462 128 64 128V128C28.6538 128 0 99.3462 0 64V64Z" fill="#FFDF81"/>
<path d="M278 64C278 28.6538 306.654 0 342 0V0C377.346 0 406 28.6538 406 64V64C406 99.3462 377.346 128 342 128V128C306.654 128 278 99.3462 278 64V64Z" fill="#8DCC93"/>
<path d="M556 64C556 28.6538 584.654 0 620 0V0C655.346 0 684 28.6538 684 64V64C684 99.3462 655.346 128 620 128V128C584.654 128 556 99.3462 556 64V64Z" fill="#8DCC93"/>
<path d="M274.5 65C275.052 65 275.5 64.5523 275.5 64C275.5 63.4477 275.052 63 274.5 63V65ZM249.5 63C248.948 63 248.5 63.4477 248.5 64C248.5 64.5523 248.948 65 249.5 65V63ZM156.5 65C157.052 65 157.5 64.5523 157.5 64C157.5 63.4477 157.052 63 156.5 63V65ZM130.793 63.2929C130.402 63.6834 130.402 64.3166 130.793 64.7071L137.157 71.0711C137.547 71.4616 138.181 71.4616 138.571 71.0711C138.962 70.6805 138.962 70.0474 138.571 69.6569L132.914 64L138.571 58.3431C138.962 57.9526 138.962 57.3195 138.571 56.9289C138.181 56.5384 137.547 56.5384 137.157 56.9289L130.793 63.2929ZM274.5 64V63H249.5V64V65H274.5V64ZM156.5 64V63H131.5V64V65H156.5V64Z" fill="#4D5157"/>
<path d="M175.129 62.1477H173.357C173.289 61.7689 173.162 61.4356 172.976 61.1477C172.79 60.8598 172.563 60.6155 172.294 60.4148C172.025 60.214 171.724 60.0625 171.391 59.9602C171.061 59.858 170.711 59.8068 170.34 59.8068C169.669 59.8068 169.069 59.9754 168.539 60.3125C168.012 60.6496 167.595 61.1439 167.289 61.7955C166.986 62.447 166.834 63.2424 166.834 64.1818C166.834 65.1288 166.986 65.928 167.289 66.5795C167.595 67.2311 168.014 67.7235 168.544 68.0568C169.075 68.3902 169.671 68.5568 170.334 68.5568C170.701 68.5568 171.05 68.5076 171.379 68.4091C171.713 68.3068 172.014 68.1572 172.283 67.9602C172.552 67.7633 172.779 67.5227 172.965 67.2386C173.154 66.9508 173.285 66.6212 173.357 66.25L175.129 66.2557C175.035 66.8277 174.851 67.3542 174.578 67.8352C174.309 68.3125 173.963 68.7254 173.539 69.0739C173.118 69.4186 172.637 69.6856 172.095 69.875C171.554 70.0644 170.963 70.1591 170.323 70.1591C169.315 70.1591 168.417 69.9205 167.629 69.4432C166.842 68.9621 166.22 68.2746 165.766 67.3807C165.315 66.4867 165.09 65.4205 165.09 64.1818C165.09 62.9394 165.317 61.8731 165.772 60.983C166.226 60.089 166.847 59.4034 167.635 58.9261C168.423 58.4451 169.319 58.2045 170.323 58.2045C170.94 58.2045 171.516 58.2936 172.05 58.4716C172.588 58.6458 173.071 58.9034 173.499 59.2443C173.927 59.5814 174.281 59.9943 174.561 60.483C174.842 60.9678 175.031 61.5227 175.129 62.1477ZM177.959 70H176.096L180.283 58.3636H182.311L186.499 70H184.635L181.346 60.4773H181.255L177.959 70ZM178.272 65.4432H184.317V66.9205H178.272V65.4432ZM188.003 70V58.3636H189.759V68.4886H195.032V70H188.003ZM196.859 70V58.3636H198.614V68.4886H203.887V70H196.859ZM212.06 61.4205C212 60.8826 211.75 60.4659 211.31 60.1705C210.871 59.8712 210.318 59.7216 209.651 59.7216C209.174 59.7216 208.761 59.7973 208.413 59.9489C208.064 60.0966 207.793 60.3011 207.6 60.5625C207.411 60.8201 207.316 61.1136 207.316 61.4432C207.316 61.7197 207.381 61.9583 207.509 62.1591C207.642 62.3598 207.814 62.5284 208.026 62.6648C208.242 62.7973 208.473 62.9091 208.72 63C208.966 63.0871 209.202 63.1591 209.43 63.2159L210.566 63.5114C210.937 63.6023 211.318 63.7254 211.708 63.8807C212.098 64.036 212.46 64.2405 212.793 64.4943C213.127 64.7481 213.396 65.0625 213.6 65.4375C213.809 65.8125 213.913 66.2614 213.913 66.7841C213.913 67.4432 213.742 68.0284 213.401 68.5398C213.064 69.0511 212.574 69.4545 211.93 69.75C211.29 70.0455 210.515 70.1932 209.606 70.1932C208.735 70.1932 207.981 70.0549 207.345 69.7784C206.708 69.5019 206.21 69.1098 205.85 68.6023C205.49 68.0909 205.292 67.4848 205.254 66.7841H207.015C207.049 67.2045 207.185 67.5549 207.424 67.8352C207.667 68.1117 207.975 68.3182 208.35 68.4545C208.729 68.5871 209.144 68.6534 209.595 68.6534C210.091 68.6534 210.532 68.5758 210.918 68.4205C211.309 68.2614 211.615 68.0417 211.839 67.7614C212.062 67.4773 212.174 67.1458 212.174 66.767C212.174 66.4223 212.076 66.1402 211.879 65.9205C211.685 65.7008 211.422 65.5189 211.089 65.375C210.759 65.2311 210.386 65.1042 209.97 64.9943L208.595 64.6193C207.663 64.3655 206.924 63.9924 206.379 63.5C205.837 63.0076 205.566 62.3561 205.566 61.5455C205.566 60.875 205.748 60.2898 206.112 59.7898C206.475 59.2898 206.968 58.9015 207.589 58.625C208.21 58.3447 208.911 58.2045 209.691 58.2045C210.479 58.2045 211.174 58.3428 211.776 58.6193C212.382 58.8958 212.86 59.2765 213.208 59.7614C213.557 60.2424 213.738 60.7955 213.754 61.4205H212.06ZM221.931 70V71.4432H214.539V70H221.931ZM224.001 70H222.137L226.325 58.3636H228.353L232.541 70H230.677L227.387 60.4773H227.297L224.001 70ZM224.314 65.4432H230.359V66.9205H224.314V65.4432ZM232.096 59.875V58.3636H241.102V59.875H237.471V70H235.721V59.875H232.096Z" fill="black" fill-opacity="0.8"/>
<path d="M409.5 63C408.948 63 408.5 63.4477 408.5 64C408.5 64.5523 408.948 65 409.5 65V63ZM452 65C452.552 65 453 64.5523 453 64C453 63.4477 452.552 63 452 63V65ZM510 63C509.448 63 509 63.4477 509 64C509 64.5523 509.448 65 510 65V63ZM553.207 64.7071C553.598 64.3166 553.598 63.6834 553.207 63.2929L546.843 56.9289C546.453 56.5384 545.819 56.5384 545.429 56.9289C545.038 57.3195 545.038 57.9526 545.429 58.3431L551.086 64L545.429 69.6569C545.038 70.0474 545.038 70.6805 545.429 71.0711C545.819 71.4616 546.453 71.4616 546.843 71.0711L553.207 64.7071ZM409.5 64V65H452V64V63H409.5V64ZM510 64V65H552.5V64V63H510V64Z" fill="#4D5157"/>
<path d="M470.599 58.3636V70H468.985L463.07 61.4659H462.962V70H461.206V58.3636H462.831L468.752 66.9091H468.86V58.3636H470.599ZM472.984 70V58.3636H480.279V59.875H474.739V63.4205H479.898V64.9261H474.739V68.4886H480.347V70H472.984ZM483.67 58.3636L486.454 62.9148H486.545L489.329 58.3636H491.363L487.738 64.1818L491.386 70H489.34L486.545 65.5114H486.454L483.658 70H481.613L485.323 64.1818L481.636 58.3636H483.67ZM492.355 59.875V58.3636H501.36V59.875H497.73V70H495.98V59.875H492.355Z" fill="black" fill-opacity="0.8"/>
<path d="M687.5 63C686.948 63 686.5 63.4477 686.5 64C686.5 64.5523 686.948 65 687.5 65V63ZM712.5 65C713.052 65 713.5 64.5523 713.5 64C713.5 63.4477 713.052 63 712.5 63V65ZM805.5 63C804.948 63 804.5 63.4477 804.5 64C804.5 64.5523 804.948 65 805.5 65V63ZM831.207 64.7071C831.598 64.3166 831.598 63.6834 831.207 63.2929L824.843 56.9289C824.453 56.5384 823.819 56.5384 823.429 56.9289C823.038 57.3195 823.038 57.9526 823.429 58.3431L829.086 64L823.429 69.6569C823.038 70.0474 823.038 70.6805 823.429 71.0711C823.819 71.4616 824.453 71.4616 824.843 71.0711L831.207 64.7071ZM687.5 64V65H712.5V64V63H687.5V64ZM805.5 64V65H830.5V64V63H805.5V64Z" fill="#4D5157"/>
<path d="M731.129 62.1477H729.357C729.289 61.7689 729.162 61.4356 728.976 61.1477C728.79 60.8598 728.563 60.6155 728.294 60.4148C728.025 60.214 727.724 60.0625 727.391 59.9602C727.061 59.858 726.711 59.8068 726.34 59.8068C725.669 59.8068 725.069 59.9754 724.539 60.3125C724.012 60.6496 723.595 61.1439 723.289 61.7955C722.986 62.447 722.834 63.2424 722.834 64.1818C722.834 65.1288 722.986 65.928 723.289 66.5795C723.595 67.2311 724.014 67.7235 724.544 68.0568C725.075 68.3902 725.671 68.5568 726.334 68.5568C726.701 68.5568 727.05 68.5076 727.379 68.4091C727.713 68.3068 728.014 68.1572 728.283 67.9602C728.552 67.7633 728.779 67.5227 728.965 67.2386C729.154 66.9508 729.285 66.6212 729.357 66.25L731.129 66.2557C731.035 66.8277 730.851 67.3542 730.578 67.8352C730.309 68.3125 729.963 68.7254 729.539 69.0739C729.118 69.4186 728.637 69.6856 728.095 69.875C727.554 70.0644 726.963 70.1591 726.323 70.1591C725.315 70.1591 724.417 69.9205 723.629 69.4432C722.842 68.9621 722.22 68.2746 721.766 67.3807C721.315 66.4867 721.09 65.4205 721.09 64.1818C721.09 62.9394 721.317 61.8731 721.772 60.983C722.226 60.089 722.847 59.4034 723.635 58.9261C724.423 58.4451 725.319 58.2045 726.323 58.2045C726.94 58.2045 727.516 58.2936 728.05 58.4716C728.588 58.6458 729.071 58.9034 729.499 59.2443C729.927 59.5814 730.281 59.9943 730.561 60.483C730.842 60.9678 731.031 61.5227 731.129 62.1477ZM733.959 70H732.096L736.283 58.3636H738.311L742.499 70H740.635L737.346 60.4773H737.255L733.959 70ZM734.272 65.4432H740.317V66.9205H734.272V65.4432ZM744.003 70V58.3636H745.759V68.4886H751.032V70H744.003ZM752.859 70V58.3636H754.614V68.4886H759.887V70H752.859ZM768.06 61.4205C768 60.8826 767.75 60.4659 767.31 60.1705C766.871 59.8712 766.318 59.7216 765.651 59.7216C765.174 59.7216 764.761 59.7973 764.413 59.9489C764.064 60.0966 763.793 60.3011 763.6 60.5625C763.411 60.8201 763.316 61.1136 763.316 61.4432C763.316 61.7197 763.381 61.9583 763.509 62.1591C763.642 62.3598 763.814 62.5284 764.026 62.6648C764.242 62.7973 764.473 62.9091 764.72 63C764.966 63.0871 765.202 63.1591 765.43 63.2159L766.566 63.5114C766.937 63.6023 767.318 63.7254 767.708 63.8807C768.098 64.036 768.46 64.2405 768.793 64.4943C769.127 64.7481 769.396 65.0625 769.6 65.4375C769.809 65.8125 769.913 66.2614 769.913 66.7841C769.913 67.4432 769.742 68.0284 769.401 68.5398C769.064 69.0511 768.574 69.4545 767.93 69.75C767.29 70.0455 766.515 70.1932 765.606 70.1932C764.735 70.1932 763.981 70.0549 763.345 69.7784C762.708 69.5019 762.21 69.1098 761.85 68.6023C761.49 68.0909 761.292 67.4848 761.254 66.7841H763.015C763.049 67.2045 763.185 67.5549 763.424 67.8352C763.667 68.1117 763.975 68.3182 764.35 68.4545C764.729 68.5871 765.144 68.6534 765.595 68.6534C766.091 68.6534 766.532 68.5758 766.918 68.4205C767.309 68.2614 767.615 68.0417 767.839 67.7614C768.062 67.4773 768.174 67.1458 768.174 66.767C768.174 66.4223 768.076 66.1402 767.879 65.9205C767.685 65.7008 767.422 65.5189 767.089 65.375C766.759 65.2311 766.386 65.1042 765.97 64.9943L764.595 64.6193C763.663 64.3655 762.924 63.9924 762.379 63.5C761.837 63.0076 761.566 62.3561 761.566 61.5455C761.566 60.875 761.748 60.2898 762.112 59.7898C762.475 59.2898 762.968 58.9015 763.589 58.625C764.21 58.3447 764.911 58.2045 765.691 58.2045C766.479 58.2045 767.174 58.3428 767.776 58.6193C768.382 58.8958 768.86 59.2765 769.208 59.7614C769.557 60.2424 769.738 60.7955 769.754 61.4205H768.06ZM777.931 70V71.4432H770.539V70H777.931ZM780.001 70H778.137L782.325 58.3636H784.353L788.541 70H786.677L783.387 60.4773H783.297L780.001 70ZM780.314 65.4432H786.359V66.9205H780.314V65.4432ZM788.096 59.875V58.3636H797.102V59.875H793.471V70H791.721V59.875H788.096Z" fill="black" fill-opacity="0.8"/>
</svg>
