<svg width="684" height="128" viewBox="0 0 684 128" fill="none" xmlns="http://www.w3.org/2000/svg">
<path d="M0 64C0 28.6538 28.6538 0 64 0V0C99.3462 0 128 28.6538 128 64V64C128 99.3462 99.3462 128 64 128V128C28.6538 128 0 99.3462 0 64V64Z" fill="#F16767"/>
<path d="M26.1335 69V61.762H27.3865V62.812C27.5032 62.6113 27.6642 62.4223 27.8695 62.245C28.0795 62.0677 28.3315 61.9253 28.6255 61.818C28.9242 61.7107 29.2672 61.657 29.6545 61.657C30.1118 61.657 30.5318 61.748 30.9145 61.93C31.3018 62.112 31.6098 62.3967 31.8385 62.784C32.0718 63.1667 32.1885 63.6613 32.1885 64.268V69H30.8935V64.394C30.8935 63.8293 30.7442 63.4117 30.4455 63.141C30.1515 62.8657 29.7688 62.728 29.2975 62.728C28.9708 62.728 28.6652 62.7817 28.3805 62.889C28.0958 62.9917 27.8648 63.1503 27.6875 63.365C27.5102 63.575 27.4215 63.841 27.4215 64.163V69H26.1335ZM36.2162 69.14C35.7449 69.14 35.3296 69.0583 34.9702 68.895C34.6156 68.727 34.3356 68.4867 34.1302 68.174C33.9296 67.8613 33.8292 67.4833 33.8292 67.04C33.8292 66.2373 34.1092 65.64 34.6692 65.248C35.2292 64.856 36.1276 64.646 37.3642 64.618L38.6522 64.583V64.016C38.6522 63.5727 38.5192 63.2227 38.2532 62.966C37.9872 62.7047 37.5766 62.574 37.0212 62.574C36.6059 62.5787 36.2396 62.6767 35.9222 62.868C35.6049 63.0593 35.4019 63.372 35.3132 63.806H34.1722C34.2002 63.3347 34.3309 62.938 34.5642 62.616C34.8022 62.2893 35.1359 62.042 35.5652 61.874C35.9946 61.706 36.5009 61.622 37.0842 61.622C37.7142 61.622 38.2369 61.7107 38.6522 61.888C39.0722 62.0653 39.3849 62.3267 39.5902 62.672C39.8002 63.0173 39.9052 63.442 39.9052 63.946V69H38.7992L38.7012 67.642C38.4259 68.2067 38.0712 68.5987 37.6372 68.818C37.2079 69.0327 36.7342 69.14 36.2162 69.14ZM36.6012 68.209C36.8486 68.209 37.0912 68.1647 37.3292 68.076C37.5719 67.9873 37.7912 67.8683 37.9872 67.719C38.1879 67.565 38.3489 67.3947 38.4702 67.208C38.5916 67.0167 38.6522 66.8207 38.6522 66.62V65.381L37.5812 65.402C37.0259 65.4113 36.5639 65.4673 36.1952 65.57C35.8266 65.6727 35.5489 65.8337 35.3622 66.053C35.1756 66.2723 35.0822 66.5593 35.0822 66.914C35.0822 67.32 35.2246 67.6373 35.5092 67.866C35.7939 68.0947 36.1579 68.209 36.6012 68.209ZM41.9245 69V61.762H43.1705V62.812C43.3712 62.4947 43.6465 62.217 43.9965 61.979C44.3465 61.741 44.8015 61.622 45.3615 61.622C45.6228 61.622 45.8888 61.6663 46.1595 61.755C46.4348 61.8437 46.6868 61.9767 46.9155 62.154C47.1442 62.3313 47.3215 62.5483 47.4475 62.805C47.6715 62.4503 47.9748 62.1657 48.3575 61.951C48.7402 61.7317 49.1718 61.622 49.6525 61.622C49.9045 61.622 50.1682 61.6617 50.4435 61.741C50.7188 61.8157 50.9732 61.951 51.2065 62.147C51.4445 62.3383 51.6382 62.6067 51.7875 62.952C51.9368 63.2927 52.0115 63.7313 52.0115 64.268V69H50.7095V64.394C50.7095 63.9553 50.6395 63.617 50.4995 63.379C50.3595 63.1363 50.1752 62.966 49.9465 62.868C49.7225 62.77 49.4822 62.721 49.2255 62.721C49.0015 62.721 48.7635 62.7653 48.5115 62.854C48.2595 62.9427 48.0448 63.092 47.8675 63.302C47.6902 63.512 47.6015 63.799 47.6015 64.163V69H46.3135V64.016C46.3135 63.7313 46.2365 63.4933 46.0825 63.302C45.9332 63.1107 45.7442 62.966 45.5155 62.868C45.2915 62.77 45.0675 62.721 44.8435 62.721C44.5962 62.721 44.3465 62.77 44.0945 62.868C43.8472 62.966 43.6372 63.1223 43.4645 63.337C43.2965 63.547 43.2125 63.8223 43.2125 64.163V69H41.9245ZM57.0968 69.14C56.4248 69.14 55.8321 68.993 55.3188 68.699C54.8055 68.405 54.4041 67.9827 54.1148 67.432C53.8255 66.8813 53.6808 66.221 53.6808 65.451C53.6808 64.6903 53.8115 64.023 54.0728 63.449C54.3341 62.875 54.7121 62.427 55.2068 62.105C55.7061 61.783 56.3058 61.622 57.0058 61.622C57.6871 61.622 58.2635 61.769 58.7348 62.063C59.2061 62.357 59.5631 62.7723 59.8058 63.309C60.0531 63.841 60.1768 64.4733 60.1768 65.206V65.682H54.9898C54.9898 66.1393 55.0645 66.5547 55.2138 66.928C55.3678 67.2967 55.5988 67.5907 55.9068 67.81C56.2148 68.0293 56.6045 68.139 57.0758 68.139C57.5378 68.139 57.9345 68.0317 58.2658 67.817C58.6018 67.6023 58.8165 67.292 58.9098 66.886H60.1278C60.0438 67.376 59.8478 67.789 59.5398 68.125C59.2365 68.461 58.8701 68.7153 58.4408 68.888C58.0161 69.056 57.5681 69.14 57.0968 69.14ZM54.9968 64.807H58.9308C58.9308 64.3917 58.8608 64.0183 58.7208 63.687C58.5808 63.351 58.3661 63.0873 58.0768 62.896C57.7921 62.7 57.4328 62.602 56.9988 62.602C56.5461 62.602 56.1705 62.7117 55.8718 62.931C55.5731 63.1457 55.3515 63.4233 55.2068 63.764C55.0621 64.1 54.9921 64.4477 54.9968 64.807ZM61.6665 63.694V62.049H63.2135V63.694H61.6665ZM61.6665 68.958V67.327H63.2135V68.958H61.6665ZM68.714 69V58.878H75.021L75.014 60.012H70.044V63.358H74.51V64.478H70.044V69H68.714ZM76.7955 69V61.762H78.0485V69H76.7955ZM76.7605 60.229V58.885H78.0835V60.229H76.7605ZM82.1285 69.091C81.7365 69.091 81.4191 69.0373 81.1765 68.93C80.9385 68.8227 80.7541 68.678 80.6235 68.496C80.4975 68.314 80.4111 68.1063 80.3645 67.873C80.3225 67.635 80.3015 67.39 80.3015 67.138V58.598H81.5755V67.012C81.5755 67.376 81.6455 67.649 81.7855 67.831C81.9301 68.013 82.1308 68.1133 82.3875 68.132L82.7795 68.139V68.979C82.6721 69.0117 82.5601 69.0373 82.4435 69.056C82.3268 69.0793 82.2218 69.091 82.1285 69.091ZM84.5064 69V61.762H85.7594V69H84.5064ZM84.4714 60.229V58.885H85.7944V60.229H84.4714ZM88.0124 71.254V61.762H89.3004L89.3144 63.022C89.3984 62.8727 89.5057 62.7163 89.6364 62.553C89.7717 62.3897 89.9351 62.238 90.1264 62.098C90.3224 61.958 90.5487 61.8437 90.8054 61.755C91.0667 61.6663 91.3631 61.622 91.6944 61.622C92.2731 61.622 92.7817 61.755 93.2204 62.021C93.6637 62.2823 94.0091 62.6837 94.2564 63.225C94.5037 63.7663 94.6274 64.4523 94.6274 65.283C94.6274 66.1137 94.5061 66.816 94.2634 67.39C94.0254 67.9593 93.6801 68.3933 93.2274 68.692C92.7747 68.9907 92.2287 69.14 91.5894 69.14C91.2674 69.14 90.9804 69.0933 90.7284 69C90.4811 68.9113 90.2641 68.7947 90.0774 68.65C89.8954 68.5007 89.7414 68.342 89.6154 68.174C89.4941 68.006 89.3937 67.845 89.3144 67.691V71.254H88.0124ZM91.3444 68.132C91.9417 68.132 92.4294 67.9057 92.8074 67.453C93.1854 66.9957 93.3744 66.2863 93.3744 65.325C93.3744 64.499 93.2017 63.8433 92.8564 63.358C92.5111 62.8727 92.0071 62.63 91.3444 62.63C90.6724 62.63 90.1637 62.8797 89.8184 63.379C89.4731 63.8737 89.3004 64.5223 89.3004 65.325C89.3004 65.843 89.3774 66.3143 89.5314 66.739C89.6854 67.1637 89.9141 67.502 90.2174 67.754C90.5207 68.006 90.8964 68.132 91.3444 68.132ZM98.3002 69.14C97.8289 69.14 97.4136 69.0583 97.0542 68.895C96.6996 68.727 96.4196 68.4867 96.2142 68.174C96.0136 67.8613 95.9132 67.4833 95.9132 67.04C95.9132 66.2373 96.1932 65.64 96.7532 65.248C97.3132 64.856 98.2116 64.646 99.4482 64.618L100.736 64.583V64.016C100.736 63.5727 100.603 63.2227 100.337 62.966C100.071 62.7047 99.6606 62.574 99.1052 62.574C98.6899 62.5787 98.3236 62.6767 98.0062 62.868C97.6889 63.0593 97.4859 63.372 97.3972 63.806H96.2562C96.2842 63.3347 96.4149 62.938 96.6482 62.616C96.8862 62.2893 97.2199 62.042 97.6492 61.874C98.0786 61.706 98.5849 61.622 99.1682 61.622C99.7982 61.622 100.321 61.7107 100.736 61.888C101.156 62.0653 101.469 62.3267 101.674 62.672C101.884 63.0173 101.989 63.442 101.989 63.946V69H100.883L100.785 67.642C100.51 68.2067 100.155 68.5987 99.7212 68.818C99.2919 69.0327 98.8182 69.14 98.3002 69.14ZM98.6852 68.209C98.9326 68.209 99.1752 68.1647 99.4132 68.076C99.6559 67.9873 99.8752 67.8683 100.071 67.719C100.272 67.565 100.433 67.3947 100.554 67.208C100.676 67.0167 100.736 66.8207 100.736 66.62V65.381L99.6652 65.402C99.1099 65.4113 98.6479 65.4673 98.2792 65.57C97.9106 65.6727 97.6329 65.8337 97.4462 66.053C97.2596 66.2723 97.1662 66.5593 97.1662 66.914C97.1662 67.32 97.3086 67.6373 97.5932 67.866C97.8779 68.0947 98.2419 68.209 98.6852 68.209Z" fill="white"/>
<path d="M278 64C278 28.6538 306.654 0 342 0V0C377.346 0 406 28.6538 406 64V64C406 99.3462 377.346 128 342 128V128C306.654 128 278 99.3462 278 64V64Z" fill="#F16767"/>
<path d="M298.508 69V61.762H299.761V62.812C299.877 62.6113 300.038 62.4223 300.244 62.245C300.454 62.0677 300.706 61.9253 301 61.818C301.298 61.7107 301.641 61.657 302.029 61.657C302.486 61.657 302.906 61.748 303.289 61.93C303.676 62.112 303.984 62.3967 304.213 62.784C304.446 63.1667 304.563 63.6613 304.563 64.268V69H303.268V64.394C303.268 63.8293 303.118 63.4117 302.82 63.141C302.526 62.8657 302.143 62.728 301.672 62.728C301.345 62.728 301.039 62.7817 300.755 62.889C300.47 62.9917 300.239 63.1503 300.062 63.365C299.884 63.575 299.796 63.841 299.796 64.163V69H298.508ZM308.59 69.14C308.119 69.14 307.704 69.0583 307.344 68.895C306.99 68.727 306.71 68.4867 306.504 68.174C306.304 67.8613 306.203 67.4833 306.203 67.04C306.203 66.2373 306.483 65.64 307.043 65.248C307.603 64.856 308.502 64.646 309.738 64.618L311.026 64.583V64.016C311.026 63.5727 310.893 63.2227 310.627 62.966C310.361 62.7047 309.951 62.574 309.395 62.574C308.98 62.5787 308.614 62.6767 308.296 62.868C307.979 63.0593 307.776 63.372 307.687 63.806H306.546C306.574 63.3347 306.705 62.938 306.938 62.616C307.176 62.2893 307.51 62.042 307.939 61.874C308.369 61.706 308.875 61.622 309.458 61.622C310.088 61.622 310.611 61.7107 311.026 61.888C311.446 62.0653 311.759 62.3267 311.964 62.672C312.174 63.0173 312.279 63.442 312.279 63.946V69H311.173L311.075 67.642C310.8 68.2067 310.445 68.5987 310.011 68.818C309.582 69.0327 309.108 69.14 308.59 69.14ZM308.975 68.209C309.223 68.209 309.465 68.1647 309.703 68.076C309.946 67.9873 310.165 67.8683 310.361 67.719C310.562 67.565 310.723 67.3947 310.844 67.208C310.966 67.0167 311.026 66.8207 311.026 66.62V65.381L309.955 65.402C309.4 65.4113 308.938 65.4673 308.569 65.57C308.201 65.6727 307.923 65.8337 307.736 66.053C307.55 66.2723 307.456 66.5593 307.456 66.914C307.456 67.32 307.599 67.6373 307.883 67.866C308.168 68.0947 308.532 68.209 308.975 68.209ZM314.299 69V61.762H315.545V62.812C315.745 62.4947 316.021 62.217 316.371 61.979C316.721 61.741 317.176 61.622 317.736 61.622C317.997 61.622 318.263 61.6663 318.534 61.755C318.809 61.8437 319.061 61.9767 319.29 62.154C319.518 62.3313 319.696 62.5483 319.822 62.805C320.046 62.4503 320.349 62.1657 320.732 61.951C321.114 61.7317 321.546 61.622 322.027 61.622C322.279 61.622 322.542 61.6617 322.818 61.741C323.093 61.8157 323.347 61.951 323.581 62.147C323.819 62.3383 324.012 62.6067 324.162 62.952C324.311 63.2927 324.386 63.7313 324.386 64.268V69H323.084V64.394C323.084 63.9553 323.014 63.617 322.874 63.379C322.734 63.1363 322.549 62.966 322.321 62.868C322.097 62.77 321.856 62.721 321.6 62.721C321.376 62.721 321.138 62.7653 320.886 62.854C320.634 62.9427 320.419 63.092 320.242 63.302C320.064 63.512 319.976 63.799 319.976 64.163V69H318.688V64.016C318.688 63.7313 318.611 63.4933 318.457 63.302C318.307 63.1107 318.118 62.966 317.89 62.868C317.666 62.77 317.442 62.721 317.218 62.721C316.97 62.721 316.721 62.77 316.469 62.868C316.221 62.966 316.011 63.1223 315.839 63.337C315.671 63.547 315.587 63.8223 315.587 64.163V69H314.299ZM329.471 69.14C328.799 69.14 328.206 68.993 327.693 68.699C327.179 68.405 326.778 67.9827 326.489 67.432C326.199 66.8813 326.055 66.221 326.055 65.451C326.055 64.6903 326.185 64.023 326.447 63.449C326.708 62.875 327.086 62.427 327.581 62.105C328.08 61.783 328.68 61.622 329.38 61.622C330.061 61.622 330.637 61.769 331.109 62.063C331.58 62.357 331.937 62.7723 332.18 63.309C332.427 63.841 332.551 64.4733 332.551 65.206V65.682H327.364C327.364 66.1393 327.438 66.5547 327.588 66.928C327.742 67.2967 327.973 67.5907 328.281 67.81C328.589 68.0293 328.978 68.139 329.45 68.139C329.912 68.139 330.308 68.0317 330.64 67.817C330.976 67.6023 331.19 67.292 331.284 66.886H332.502C332.418 67.376 332.222 67.789 331.914 68.125C331.61 68.461 331.244 68.7153 330.815 68.888C330.39 69.056 329.942 69.14 329.471 69.14ZM327.371 64.807H331.305C331.305 64.3917 331.235 64.0183 331.095 63.687C330.955 63.351 330.74 63.0873 330.451 62.896C330.166 62.7 329.807 62.602 329.373 62.602C328.92 62.602 328.544 62.7117 328.246 62.931C327.947 63.1457 327.725 63.4233 327.581 63.764C327.436 64.1 327.366 64.4477 327.371 64.807ZM334.041 63.694V62.049H335.588V63.694H334.041ZM334.041 68.958V67.327H335.588V68.958H334.041ZM340.332 69L343.993 58.878H345.456L349.117 69H347.794L346.8 66.228H342.649L341.648 69H340.332ZM342.992 65.038H346.443L344.721 60.145L342.992 65.038ZM350.761 69V61.762H352.014V62.812C352.131 62.6113 352.292 62.4223 352.497 62.245C352.707 62.0677 352.959 61.9253 353.253 61.818C353.552 61.7107 353.895 61.657 354.282 61.657C354.74 61.657 355.16 61.748 355.542 61.93C355.93 62.112 356.238 62.3967 356.466 62.784C356.7 63.1667 356.816 63.6613 356.816 64.268V69H355.521V64.394C355.521 63.8293 355.372 63.4117 355.073 63.141C354.779 62.8657 354.397 62.728 353.925 62.728C353.599 62.728 353.293 62.7817 353.008 62.889C352.724 62.9917 352.493 63.1503 352.315 63.365C352.138 63.575 352.049 63.841 352.049 64.163V69H350.761ZM361.481 69.14C360.538 69.14 359.791 68.818 359.241 68.174C358.695 67.53 358.422 66.5897 358.422 65.353C358.422 64.6017 358.531 63.946 358.751 63.386C358.97 62.826 359.299 62.392 359.738 62.084C360.176 61.776 360.722 61.622 361.376 61.622C361.726 61.622 362.034 61.6663 362.3 61.755C362.566 61.8437 362.797 61.9557 362.993 62.091C363.189 62.2263 363.347 62.3663 363.469 62.511C363.595 62.6557 363.688 62.7887 363.749 62.91V58.598H365.058V69H364.064L363.924 67.516C363.877 67.656 363.802 67.8193 363.7 68.006C363.597 68.188 363.452 68.3677 363.266 68.545C363.084 68.7177 362.846 68.86 362.552 68.972C362.258 69.084 361.901 69.14 361.481 69.14ZM361.712 68.146C362.44 68.146 362.96 67.9243 363.273 67.481C363.59 67.033 363.749 66.3027 363.749 65.29C363.744 64.7253 363.674 64.2447 363.539 63.848C363.403 63.4513 363.189 63.1503 362.895 62.945C362.605 62.735 362.218 62.63 361.733 62.63C361.14 62.63 360.657 62.8423 360.284 63.267C359.91 63.6917 359.724 64.366 359.724 65.29C359.724 66.1953 359.892 66.8977 360.228 67.397C360.564 67.8963 361.058 68.146 361.712 68.146ZM370.254 69.14C369.582 69.14 368.989 68.993 368.476 68.699C367.963 68.405 367.561 67.9827 367.272 67.432C366.983 66.8813 366.838 66.221 366.838 65.451C366.838 64.6903 366.969 64.023 367.23 63.449C367.491 62.875 367.869 62.427 368.364 62.105C368.863 61.783 369.463 61.622 370.163 61.622C370.844 61.622 371.421 61.769 371.892 62.063C372.363 62.357 372.72 62.7723 372.963 63.309C373.21 63.841 373.334 64.4733 373.334 65.206V65.682H368.147C368.147 66.1393 368.222 66.5547 368.371 66.928C368.525 67.2967 368.756 67.5907 369.064 67.81C369.372 68.0293 369.762 68.139 370.233 68.139C370.695 68.139 371.092 68.0317 371.423 67.817C371.759 67.6023 371.974 67.292 372.067 66.886H373.285C373.201 67.376 373.005 67.789 372.697 68.125C372.394 68.461 372.027 68.7153 371.598 68.888C371.173 69.056 370.725 69.14 370.254 69.14ZM368.154 64.807H372.088C372.088 64.3917 372.018 64.0183 371.878 63.687C371.738 63.351 371.523 63.0873 371.234 62.896C370.949 62.7 370.59 62.602 370.156 62.602C369.703 62.602 369.328 62.7117 369.029 62.931C368.73 63.1457 368.509 63.4233 368.364 63.764C368.219 64.1 368.149 64.4477 368.154 64.807ZM375.125 69V61.762H376.357V63.155C376.478 62.8097 376.648 62.525 376.868 62.301C377.087 62.0723 377.337 61.902 377.617 61.79C377.901 61.678 378.195 61.622 378.499 61.622C378.606 61.622 378.711 61.629 378.814 61.643C378.916 61.657 378.996 61.6803 379.052 61.713V62.966C378.982 62.9333 378.891 62.9123 378.779 62.903C378.671 62.889 378.58 62.882 378.506 62.882C378.216 62.8633 377.946 62.882 377.694 62.938C377.442 62.9893 377.22 63.0803 377.029 63.211C376.837 63.3417 376.686 63.5143 376.574 63.729C376.466 63.939 376.413 64.1957 376.413 64.499V69H375.125ZM383.156 69.14C382.652 69.14 382.183 69.063 381.749 68.909C381.32 68.7503 380.963 68.5053 380.678 68.174C380.394 67.838 380.216 67.411 380.146 66.893H381.322C381.383 67.1777 381.5 67.4157 381.672 67.607C381.845 67.7937 382.057 67.936 382.309 68.034C382.566 68.1273 382.846 68.174 383.149 68.174C383.639 68.174 384.034 68.083 384.332 67.901C384.631 67.719 384.78 67.439 384.78 67.061C384.78 66.795 384.701 66.5827 384.542 66.424C384.388 66.2607 384.146 66.1417 383.814 66.067L382.316 65.696C381.733 65.556 381.266 65.3367 380.916 65.038C380.571 64.7393 380.396 64.3217 380.391 63.785C380.391 63.3603 380.494 62.987 380.699 62.665C380.905 62.343 381.21 62.0887 381.616 61.902C382.027 61.7153 382.538 61.622 383.149 61.622C383.938 61.622 384.573 61.7993 385.053 62.154C385.534 62.504 385.786 63.0197 385.809 63.701H384.661C384.615 63.3557 384.461 63.0827 384.199 62.882C383.938 62.6767 383.583 62.574 383.135 62.574C382.678 62.574 382.302 62.6673 382.008 62.854C381.719 63.036 381.574 63.3207 381.574 63.708C381.574 63.9647 381.677 64.1677 381.882 64.317C382.092 64.4617 382.396 64.583 382.792 64.681L384.248 65.045C384.58 65.1337 384.855 65.2503 385.074 65.395C385.294 65.5397 385.466 65.7007 385.592 65.878C385.718 66.0553 385.807 66.242 385.858 66.438C385.914 66.6293 385.942 66.8137 385.942 66.991C385.942 67.4343 385.833 67.817 385.613 68.139C385.394 68.4563 385.077 68.7037 384.661 68.881C384.246 69.0537 383.744 69.14 383.156 69.14Z" fill="white"/>
<path d="M556 64C556 28.6538 584.654 0 620 0V0C655.346 0 684 28.6538 684 64V64C684 99.3462 655.346 128 620 128V128C584.654 128 556 99.3462 556 64V64Z" fill="#F16767"/>
<path d="M575.667 69V61.762H576.92V62.812C577.036 62.6113 577.197 62.4223 577.403 62.245C577.613 62.0677 577.865 61.9253 578.159 61.818C578.457 61.7107 578.8 61.657 579.188 61.657C579.645 61.657 580.065 61.748 580.448 61.93C580.835 62.112 581.143 62.3967 581.372 62.784C581.605 63.1667 581.722 63.6613 581.722 64.268V69H580.427V64.394C580.427 63.8293 580.277 63.4117 579.979 63.141C579.685 62.8657 579.302 62.728 578.831 62.728C578.504 62.728 578.198 62.7817 577.914 62.889C577.629 62.9917 577.398 63.1503 577.221 63.365C577.043 63.575 576.955 63.841 576.955 64.163V69H575.667ZM585.749 69.14C585.278 69.14 584.863 69.0583 584.503 68.895C584.149 68.727 583.869 68.4867 583.663 68.174C583.463 67.8613 583.362 67.4833 583.362 67.04C583.362 66.2373 583.642 65.64 584.202 65.248C584.762 64.856 585.661 64.646 586.897 64.618L588.185 64.583V64.016C588.185 63.5727 588.052 63.2227 587.786 62.966C587.52 62.7047 587.11 62.574 586.554 62.574C586.139 62.5787 585.773 62.6767 585.455 62.868C585.138 63.0593 584.935 63.372 584.846 63.806H583.705C583.733 63.3347 583.864 62.938 584.097 62.616C584.335 62.2893 584.669 62.042 585.098 61.874C585.528 61.706 586.034 61.622 586.617 61.622C587.247 61.622 587.77 61.7107 588.185 61.888C588.605 62.0653 588.918 62.3267 589.123 62.672C589.333 63.0173 589.438 63.442 589.438 63.946V69H588.332L588.234 67.642C587.959 68.2067 587.604 68.5987 587.17 68.818C586.741 69.0327 586.267 69.14 585.749 69.14ZM586.134 68.209C586.382 68.209 586.624 68.1647 586.862 68.076C587.105 67.9873 587.324 67.8683 587.52 67.719C587.721 67.565 587.882 67.3947 588.003 67.208C588.125 67.0167 588.185 66.8207 588.185 66.62V65.381L587.114 65.402C586.559 65.4113 586.097 65.4673 585.728 65.57C585.36 65.6727 585.082 65.8337 584.895 66.053C584.709 66.2723 584.615 66.5593 584.615 66.914C584.615 67.32 584.758 67.6373 585.042 67.866C585.327 68.0947 585.691 68.209 586.134 68.209ZM591.458 69V61.762H592.704V62.812C592.904 62.4947 593.18 62.217 593.53 61.979C593.88 61.741 594.335 61.622 594.895 61.622C595.156 61.622 595.422 61.6663 595.693 61.755C595.968 61.8437 596.22 61.9767 596.449 62.154C596.677 62.3313 596.855 62.5483 596.981 62.805C597.205 62.4503 597.508 62.1657 597.891 61.951C598.273 61.7317 598.705 61.622 599.186 61.622C599.438 61.622 599.701 61.6617 599.977 61.741C600.252 61.8157 600.506 61.951 600.74 62.147C600.978 62.3383 601.171 62.6067 601.321 62.952C601.47 63.2927 601.545 63.7313 601.545 64.268V69H600.243V64.394C600.243 63.9553 600.173 63.617 600.033 63.379C599.893 63.1363 599.708 62.966 599.48 62.868C599.256 62.77 599.015 62.721 598.759 62.721C598.535 62.721 598.297 62.7653 598.045 62.854C597.793 62.9427 597.578 63.092 597.401 63.302C597.223 63.512 597.135 63.799 597.135 64.163V69H595.847V64.016C595.847 63.7313 595.77 63.4933 595.616 63.302C595.466 63.1107 595.277 62.966 595.049 62.868C594.825 62.77 594.601 62.721 594.377 62.721C594.129 62.721 593.88 62.77 593.628 62.868C593.38 62.966 593.17 63.1223 592.998 63.337C592.83 63.547 592.746 63.8223 592.746 64.163V69H591.458ZM606.63 69.14C605.958 69.14 605.365 68.993 604.852 68.699C604.339 68.405 603.937 67.9827 603.648 67.432C603.359 66.8813 603.214 66.221 603.214 65.451C603.214 64.6903 603.345 64.023 603.606 63.449C603.867 62.875 604.245 62.427 604.74 62.105C605.239 61.783 605.839 61.622 606.539 61.622C607.22 61.622 607.797 61.769 608.268 62.063C608.739 62.357 609.096 62.7723 609.339 63.309C609.586 63.841 609.71 64.4733 609.71 65.206V65.682H604.523C604.523 66.1393 604.598 66.5547 604.747 66.928C604.901 67.2967 605.132 67.5907 605.44 67.81C605.748 68.0293 606.138 68.139 606.609 68.139C607.071 68.139 607.468 68.0317 607.799 67.817C608.135 67.6023 608.35 67.292 608.443 66.886H609.661C609.577 67.376 609.381 67.789 609.073 68.125C608.77 68.461 608.403 68.7153 607.974 68.888C607.549 69.056 607.101 69.14 606.63 69.14ZM604.53 64.807H608.464C608.464 64.3917 608.394 64.0183 608.254 63.687C608.114 63.351 607.899 63.0873 607.61 62.896C607.325 62.7 606.966 62.602 606.532 62.602C606.079 62.602 605.704 62.7117 605.405 62.931C605.106 63.1457 604.885 63.4233 604.74 63.764C604.595 64.1 604.525 64.4477 604.53 64.807ZM611.2 63.694V62.049H612.747V63.694H611.2ZM611.2 68.958V67.327H612.747V68.958H611.2ZM618.247 69V58.878C618.28 58.878 618.378 58.8803 618.541 58.885C618.709 58.885 618.912 58.885 619.15 58.885C619.388 58.8803 619.635 58.8803 619.892 58.885C620.149 58.885 620.384 58.8873 620.599 58.892C621.84 58.9107 622.846 59.1137 623.616 59.501C624.391 59.8837 624.958 60.4413 625.317 61.174C625.681 61.9067 625.863 62.8073 625.863 63.876C625.863 64.996 625.667 65.9363 625.275 66.697C624.888 67.4577 624.295 68.0317 623.497 68.419C622.704 68.8063 621.693 69 620.466 69H618.247ZM619.577 67.887H620.466C621.301 67.887 622.02 67.7587 622.622 67.502C623.224 67.2407 623.686 66.8183 624.008 66.235C624.335 65.6517 624.498 64.8723 624.498 63.897C624.498 62.9217 624.339 62.1493 624.022 61.58C623.709 61.0107 623.257 60.6047 622.664 60.362C622.071 60.1147 621.357 59.991 620.522 59.991H619.577V67.887ZM627.723 69V61.762H628.976V69H627.723ZM627.688 60.229V58.885H629.011V60.229H627.688ZM633.056 69.091C632.664 69.091 632.347 69.0373 632.104 68.93C631.866 68.8227 631.682 68.678 631.551 68.496C631.425 68.314 631.339 68.1063 631.292 67.873C631.25 67.635 631.229 67.39 631.229 67.138V58.598H632.503V67.012C632.503 67.376 632.573 67.649 632.713 67.831C632.858 68.013 633.059 68.1133 633.315 68.132L633.707 68.139V68.979C633.6 69.0117 633.488 69.0373 633.371 69.056C633.255 69.0793 633.15 69.091 633.056 69.091ZM637.866 69.14C637.362 69.14 636.893 69.063 636.459 68.909C636.03 68.7503 635.673 68.5053 635.388 68.174C635.104 67.838 634.926 67.411 634.856 66.893H636.032C636.093 67.1777 636.21 67.4157 636.382 67.607C636.555 67.7937 636.767 67.936 637.019 68.034C637.276 68.1273 637.556 68.174 637.859 68.174C638.349 68.174 638.744 68.083 639.042 67.901C639.341 67.719 639.49 67.439 639.49 67.061C639.49 66.795 639.411 66.5827 639.252 66.424C639.098 66.2607 638.856 66.1417 638.524 66.067L637.026 65.696C636.443 65.556 635.976 65.3367 635.626 65.038C635.281 64.7393 635.106 64.3217 635.101 63.785C635.101 63.3603 635.204 62.987 635.409 62.665C635.615 62.343 635.92 62.0887 636.326 61.902C636.737 61.7153 637.248 61.622 637.859 61.622C638.648 61.622 639.283 61.7993 639.763 62.154C640.244 62.504 640.496 63.0197 640.519 63.701H639.371C639.325 63.3557 639.171 63.0827 638.909 62.882C638.648 62.6767 638.293 62.574 637.845 62.574C637.388 62.574 637.012 62.6673 636.718 62.854C636.429 63.036 636.284 63.3207 636.284 63.708C636.284 63.9647 636.387 64.1677 636.592 64.317C636.802 64.4617 637.106 64.583 637.502 64.681L638.958 65.045C639.29 65.1337 639.565 65.2503 639.784 65.395C640.004 65.5397 640.176 65.7007 640.302 65.878C640.428 66.0553 640.517 66.242 640.568 66.438C640.624 66.6293 640.652 66.8137 640.652 66.991C640.652 67.4343 640.543 67.817 640.323 68.139C640.104 68.4563 639.787 68.7037 639.371 68.881C638.956 69.0537 638.454 69.14 637.866 69.14ZM642.344 69V58.598H643.604V62.826C643.726 62.6253 643.889 62.4387 644.094 62.266C644.3 62.0887 644.549 61.9463 644.843 61.839C645.137 61.727 645.478 61.671 645.865 61.671C646.337 61.671 646.764 61.7597 647.146 61.937C647.529 62.1097 647.832 62.357 648.056 62.679C648.28 63.001 648.392 63.3837 648.392 63.827V69H647.097V64.086C647.097 63.652 646.948 63.3183 646.649 63.085C646.355 62.847 645.97 62.728 645.494 62.728C645.172 62.728 644.869 62.7817 644.584 62.889C644.3 62.9917 644.069 63.1503 643.891 63.365C643.719 63.575 643.632 63.8433 643.632 64.17V69H642.344ZM652.414 69.14C651.942 69.14 651.527 69.0583 651.168 68.895C650.813 68.727 650.533 68.4867 650.328 68.174C650.127 67.8613 650.027 67.4833 650.027 67.04C650.027 66.2373 650.307 65.64 650.867 65.248C651.427 64.856 652.325 64.646 653.562 64.618L654.85 64.583V64.016C654.85 63.5727 654.717 63.2227 654.451 62.966C654.185 62.7047 653.774 62.574 653.219 62.574C652.803 62.5787 652.437 62.6767 652.12 62.868C651.802 63.0593 651.599 63.372 651.511 63.806H650.37C650.398 63.3347 650.528 62.938 650.762 62.616C651 62.2893 651.333 62.042 651.763 61.874C652.192 61.706 652.698 61.622 653.282 61.622C653.912 61.622 654.434 61.7107 654.85 61.888C655.27 62.0653 655.582 62.3267 655.788 62.672C655.998 63.0173 656.103 63.442 656.103 63.946V69H654.997L654.899 67.642C654.623 68.2067 654.269 68.5987 653.835 68.818C653.405 69.0327 652.932 69.14 652.414 69.14ZM652.799 68.209C653.046 68.209 653.289 68.1647 653.527 68.076C653.769 67.9873 653.989 67.8683 654.185 67.719C654.385 67.565 654.546 67.3947 654.668 67.208C654.789 67.0167 654.85 66.8207 654.85 66.62V65.381L653.779 65.402C653.223 65.4113 652.761 65.4673 652.393 65.57C652.024 65.6727 651.746 65.8337 651.56 66.053C651.373 66.2723 651.28 66.5593 651.28 66.914C651.28 67.32 651.422 67.6373 651.707 67.866C651.991 68.0947 652.355 68.209 652.799 68.209ZM660.761 69.14C659.818 69.14 659.071 68.818 658.521 68.174C657.975 67.53 657.702 66.5897 657.702 65.353C657.702 64.6017 657.811 63.946 658.031 63.386C658.25 62.826 658.579 62.392 659.018 62.084C659.456 61.776 660.002 61.622 660.656 61.622C661.006 61.622 661.314 61.6663 661.58 61.755C661.846 61.8437 662.077 61.9557 662.273 62.091C662.469 62.2263 662.627 62.3663 662.749 62.511C662.875 62.6557 662.968 62.7887 663.029 62.91V58.598H664.338V69H663.344L663.204 67.516C663.157 67.656 663.082 67.8193 662.98 68.006C662.877 68.188 662.732 68.3677 662.546 68.545C662.364 68.7177 662.126 68.86 661.832 68.972C661.538 69.084 661.181 69.14 660.761 69.14ZM660.992 68.146C661.72 68.146 662.24 67.9243 662.553 67.481C662.87 67.033 663.029 66.3027 663.029 65.29C663.024 64.7253 662.954 64.2447 662.819 63.848C662.683 63.4513 662.469 63.1503 662.175 62.945C661.885 62.735 661.498 62.63 661.013 62.63C660.42 62.63 659.937 62.8423 659.564 63.267C659.19 63.6917 659.004 64.366 659.004 65.29C659.004 66.1953 659.172 66.8977 659.508 67.397C659.844 67.8963 660.338 68.146 660.992 68.146Z" fill="white"/>
<path d="M131 63.5C130.724 63.5 130.5 63.7239 130.5 64C130.5 64.2761 130.724 64.5 131 64.5V63.5ZM166 64.5C166.276 64.5 166.5 64.2761 166.5 64C166.5 63.7239 166.276 63.5 166 63.5V64.5ZM240 63.5C239.724 63.5 239.5 63.7239 239.5 64C239.5 64.2761 239.724 64.5 240 64.5V63.5ZM270 66.2201C270 66.4962 270.338 66.6915 270.577 66.5534L274.423 64.3333C274.662 64.1953 274.662 63.8047 274.423 63.6667L270.577 61.4466C270.338 61.3085 270 61.5038 270 61.7799V66.2201ZM131 64V64.5H166V64V63.5H131V64ZM240 64V64.5H270.5V64V63.5H240V64Z" fill="#4D5157"/>
<path d="M174.31 70V58.3636H176.066V63.9205H176.208L181.089 58.3636H183.299L178.606 63.6023L183.316 70H181.202L177.441 64.8011L176.066 66.3807V70H174.31ZM194.151 58.3636V70H192.538L186.623 61.4659H186.515V70H184.759V58.3636H186.384L192.305 66.9091H192.413V58.3636H194.151ZM206.644 64.1818C206.644 65.4242 206.417 66.4924 205.962 67.3864C205.508 68.2765 204.885 68.9621 204.093 69.4432C203.305 69.9205 202.409 70.1591 201.406 70.1591C200.398 70.1591 199.498 69.9205 198.707 69.4432C197.919 68.9621 197.298 68.2746 196.843 67.3807C196.388 66.4867 196.161 65.4205 196.161 64.1818C196.161 62.9394 196.388 61.8731 196.843 60.983C197.298 60.089 197.919 59.4034 198.707 58.9261C199.498 58.4451 200.398 58.2045 201.406 58.2045C202.409 58.2045 203.305 58.4451 204.093 58.9261C204.885 59.4034 205.508 60.089 205.962 60.983C206.417 61.8731 206.644 62.9394 206.644 64.1818ZM204.906 64.1818C204.906 63.2348 204.752 62.4375 204.445 61.7898C204.142 61.1383 203.726 60.6458 203.195 60.3125C202.669 59.9754 202.072 59.8068 201.406 59.8068C200.735 59.8068 200.137 59.9754 199.61 60.3125C199.084 60.6458 198.667 61.1383 198.36 61.7898C198.057 62.4375 197.906 63.2348 197.906 64.1818C197.906 65.1288 198.057 65.928 198.36 66.5795C198.667 67.2273 199.084 67.7197 199.61 68.0568C200.137 68.3902 200.735 68.5568 201.406 68.5568C202.072 68.5568 202.669 68.3902 203.195 68.0568C203.726 67.7197 204.142 67.2273 204.445 66.5795C204.752 65.928 204.906 65.1288 204.906 64.1818ZM210.795 70L207.568 58.3636H209.414L211.681 67.375H211.789L214.147 58.3636H215.977L218.335 67.3807H218.443L220.704 58.3636H222.556L219.323 70H217.556L215.107 61.2841H215.016L212.568 70H210.795ZM230.296 61.4205C230.236 60.8826 229.986 60.4659 229.546 60.1705C229.107 59.8712 228.554 59.7216 227.887 59.7216C227.41 59.7216 226.997 59.7973 226.649 59.9489C226.3 60.0966 226.029 60.3011 225.836 60.5625C225.647 60.8201 225.552 61.1136 225.552 61.4432C225.552 61.7197 225.617 61.9583 225.745 62.1591C225.878 62.3598 226.05 62.5284 226.262 62.6648C226.478 62.7973 226.709 62.9091 226.956 63C227.202 63.0871 227.438 63.1591 227.666 63.2159L228.802 63.5114C229.173 63.6023 229.554 63.7254 229.944 63.8807C230.334 64.036 230.696 64.2405 231.029 64.4943C231.363 64.7481 231.632 65.0625 231.836 65.4375C232.045 65.8125 232.149 66.2614 232.149 66.7841C232.149 67.4432 231.978 68.0284 231.637 68.5398C231.3 69.0511 230.81 69.4545 230.166 69.75C229.526 70.0455 228.751 70.1932 227.842 70.1932C226.971 70.1932 226.217 70.0549 225.581 69.7784C224.944 69.5019 224.446 69.1098 224.086 68.6023C223.726 68.0909 223.528 67.4848 223.49 66.7841H225.251C225.285 67.2045 225.421 67.5549 225.66 67.8352C225.903 68.1117 226.211 68.3182 226.586 68.4545C226.965 68.5871 227.38 68.6534 227.831 68.6534C228.327 68.6534 228.768 68.5758 229.154 68.4205C229.545 68.2614 229.851 68.0417 230.075 67.7614C230.298 67.4773 230.41 67.1458 230.41 66.767C230.41 66.4223 230.312 66.1402 230.115 65.9205C229.921 65.7008 229.658 65.5189 229.325 65.375C228.995 65.2311 228.622 65.1042 228.206 64.9943L226.831 64.6193C225.899 64.3655 225.16 63.9924 224.615 63.5C224.073 63.0076 223.802 62.3561 223.802 61.5455C223.802 60.875 223.984 60.2898 224.348 59.7898C224.711 59.2898 225.204 58.9015 225.825 58.625C226.446 58.3447 227.147 58.2045 227.927 58.2045C228.715 58.2045 229.41 58.3428 230.012 58.6193C230.618 58.8958 231.096 59.2765 231.444 59.7614C231.793 60.2424 231.974 60.7955 231.99 61.4205H230.296Z" fill="black" fill-opacity="0.8"/>
<path d="M409 63.5C408.724 63.5 408.5 63.7239 408.5 64C408.5 64.2761 408.724 64.5 409 64.5V63.5ZM444 64.5C444.276 64.5 444.5 64.2761 444.5 64C444.5 63.7239 444.276 63.5 444 63.5V64.5ZM518 63.5C517.724 63.5 517.5 63.7239 517.5 64C517.5 64.2761 517.724 64.5 518 64.5V63.5ZM548 66.2201C548 66.4962 548.338 66.6915 548.577 66.5534L552.423 64.3333C552.662 64.1953 552.662 63.8047 552.423 63.6667L548.577 61.4466C548.338 61.3085 548 61.5038 548 61.7799V66.2201ZM409 64V64.5H444V64V63.5H409V64ZM518 64V64.5H548.5V64V63.5H518V64Z" fill="#4D5157"/>
<path d="M452.31 70V58.3636H454.066V63.9205H454.208L459.089 58.3636H461.299L456.606 63.6023L461.316 70H459.202L455.441 64.8011L454.066 66.3807V70H452.31ZM472.151 58.3636V70H470.538L464.623 61.4659H464.515V70H462.759V58.3636H464.384L470.305 66.9091H470.413V58.3636H472.151ZM484.644 64.1818C484.644 65.4242 484.417 66.4924 483.962 67.3864C483.508 68.2765 482.885 68.9621 482.093 69.4432C481.305 69.9205 480.409 70.1591 479.406 70.1591C478.398 70.1591 477.498 69.9205 476.707 69.4432C475.919 68.9621 475.298 68.2746 474.843 67.3807C474.388 66.4867 474.161 65.4205 474.161 64.1818C474.161 62.9394 474.388 61.8731 474.843 60.983C475.298 60.089 475.919 59.4034 476.707 58.9261C477.498 58.4451 478.398 58.2045 479.406 58.2045C480.409 58.2045 481.305 58.4451 482.093 58.9261C482.885 59.4034 483.508 60.089 483.962 60.983C484.417 61.8731 484.644 62.9394 484.644 64.1818ZM482.906 64.1818C482.906 63.2348 482.752 62.4375 482.445 61.7898C482.142 61.1383 481.726 60.6458 481.195 60.3125C480.669 59.9754 480.072 59.8068 479.406 59.8068C478.735 59.8068 478.137 59.9754 477.61 60.3125C477.084 60.6458 476.667 61.1383 476.36 61.7898C476.057 62.4375 475.906 63.2348 475.906 64.1818C475.906 65.1288 476.057 65.928 476.36 66.5795C476.667 67.2273 477.084 67.7197 477.61 68.0568C478.137 68.3902 478.735 68.5568 479.406 68.5568C480.072 68.5568 480.669 68.3902 481.195 68.0568C481.726 67.7197 482.142 67.2273 482.445 66.5795C482.752 65.928 482.906 65.1288 482.906 64.1818ZM488.795 70L485.568 58.3636H487.414L489.681 67.375H489.789L492.147 58.3636H493.977L496.335 67.3807H496.443L498.704 58.3636H500.556L497.323 70H495.556L493.107 61.2841H493.016L490.568 70H488.795ZM508.296 61.4205C508.236 60.8826 507.986 60.4659 507.546 60.1705C507.107 59.8712 506.554 59.7216 505.887 59.7216C505.41 59.7216 504.997 59.7973 504.649 59.9489C504.3 60.0966 504.029 60.3011 503.836 60.5625C503.647 60.8201 503.552 61.1136 503.552 61.4432C503.552 61.7197 503.617 61.9583 503.745 62.1591C503.878 62.3598 504.05 62.5284 504.262 62.6648C504.478 62.7973 504.709 62.9091 504.956 63C505.202 63.0871 505.438 63.1591 505.666 63.2159L506.802 63.5114C507.173 63.6023 507.554 63.7254 507.944 63.8807C508.334 64.036 508.696 64.2405 509.029 64.4943C509.363 64.7481 509.632 65.0625 509.836 65.4375C510.045 65.8125 510.149 66.2614 510.149 66.7841C510.149 67.4432 509.978 68.0284 509.637 68.5398C509.3 69.0511 508.81 69.4545 508.166 69.75C507.526 70.0455 506.751 70.1932 505.842 70.1932C504.971 70.1932 504.217 70.0549 503.581 69.7784C502.944 69.5019 502.446 69.1098 502.086 68.6023C501.726 68.0909 501.528 67.4848 501.49 66.7841H503.251C503.285 67.2045 503.421 67.5549 503.66 67.8352C503.903 68.1117 504.211 68.3182 504.586 68.4545C504.965 68.5871 505.38 68.6534 505.831 68.6534C506.327 68.6534 506.768 68.5758 507.154 68.4205C507.545 68.2614 507.851 68.0417 508.075 67.7614C508.298 67.4773 508.41 67.1458 508.41 66.767C508.41 66.4223 508.312 66.1402 508.115 65.9205C507.921 65.7008 507.658 65.5189 507.325 65.375C506.995 65.2311 506.622 65.1042 506.206 64.9943L504.831 64.6193C503.899 64.3655 503.16 63.9924 502.615 63.5C502.073 63.0076 501.802 62.3561 501.802 61.5455C501.802 60.875 501.984 60.2898 502.348 59.7898C502.711 59.2898 503.204 58.9015 503.825 58.625C504.446 58.3447 505.147 58.2045 505.927 58.2045C506.715 58.2045 507.41 58.3428 508.012 58.6193C508.618 58.8958 509.096 59.2765 509.444 59.7614C509.793 60.2424 509.974 60.7955 509.99 61.4205H508.296Z" fill="black" fill-opacity="0.8"/>
</svg>
