<svg width="626" height="1016" viewBox="0 0 626 1016" fill="none" xmlns="http://www.w3.org/2000/svg">
<path d="M273 969C273 946.909 290.909 929 313 929V929C335.091 929 353 946.909 353 969V969C353 991.091 335.091 1009 313 1009V1009C290.909 1009 273 991.091 273 969V969Z" fill="#FFDF81"/>
<path d="M313 924C337.853 924 358 944.147 358 969C358 993.853 337.853 1014 313 1014C288.147 1014 268 993.853 268 969C268 944.147 288.147 924 313 924Z" stroke="#56C7E4" stroke-width="4"/>
<path d="M273 388C273 365.909 290.909 348 313 348V348C335.091 348 353 365.909 353 388V388C353 410.091 335.091 428 313 428V428C290.909 428 273 410.091 273 388V388Z" fill="#FFDF81"/>
<path d="M313 343C337.853 343 358 363.147 358 388C358 412.853 337.853 433 313 433C288.147 433 268 412.853 268 388C268 363.147 288.147 343 313 343Z" stroke="#56C7E4" stroke-width="4"/>
<path d="M0 829C0 806.909 17.9086 789 40 789V789C62.0914 789 80 806.909 80 829V829C80 851.091 62.0914 869 40 869V869C17.9086 869 0 851.091 0 829V829Z" fill="#56C7E4"/>
<path d="M0 528C0 505.909 17.9086 488 40 488V488C62.0914 488 80 505.909 80 528V528C80 550.091 62.0914 568 40 568V568C17.9086 568 0 550.091 0 528V528Z" fill="#56C7E4"/>
<path d="M546 829C546 806.909 563.909 789 586 789V789C608.091 789 626 806.909 626 829V829C626 851.091 608.091 869 586 869V869C563.909 869 546 851.091 546 829V829Z" fill="#56C7E4"/>
<path d="M546 528C546 505.909 563.909 488 586 488V488C608.091 488 626 505.909 626 528V528C626 550.091 608.091 568 586 568V568C563.909 568 546 550.091 546 528V528Z" fill="#56C7E4"/>
<path d="M546 197C546 174.909 563.909 157 586 157V157C608.091 157 626 174.909 626 197V197C626 219.091 608.091 237 586 237V237C563.909 237 546 219.091 546 197V197Z" fill="#A8ACB2"/>
<path d="M276 40C276 17.9086 293.909 0 316 0V0C338.091 0 356 17.9086 356 40V40C356 62.0914 338.091 80 316 80V80C293.909 80 276 62.0914 276 40V40Z" fill="#A8ACB2"/>
<path d="M0 197C0 174.909 17.9086 157 40 157V157C62.0914 157 80 174.909 80 197V197C80 219.091 62.0914 237 40 237V237C17.9086 237 0 219.091 0 197V197Z" fill="#A8ACB2"/>
<path d="M84.4263 502.97C83.4434 503.474 83.0552 504.679 83.5593 505.662C84.0633 506.645 85.2687 507.033 86.2515 506.529L84.4263 502.97ZM269.12 412.092C269.458 411.041 268.881 409.914 267.829 409.575L250.696 404.058C249.644 403.719 248.518 404.297 248.179 405.348C247.84 406.4 248.418 407.526 249.47 407.865L264.699 412.77L259.795 427.999C259.456 429.051 260.034 430.178 261.086 430.516C262.137 430.855 263.264 430.277 263.602 429.225L269.12 412.092ZM85.3389 504.749L86.2515 506.529L268.129 413.259L267.216 411.479L266.304 409.699L84.4263 502.97L85.3389 504.749Z" fill="#56C7E4"/>
<path d="M539.748 506.529C540.731 507.033 541.937 506.645 542.441 505.662C542.945 504.679 542.557 503.474 541.574 502.97L539.748 506.529ZM358.171 409.575C357.119 409.914 356.542 411.041 356.88 412.092L362.398 429.225C362.736 430.277 363.863 430.855 364.914 430.516C365.966 430.178 366.544 429.051 366.205 427.999L361.301 412.77L376.53 407.865C377.582 407.526 378.16 406.4 377.821 405.348C377.482 404.297 376.356 403.719 375.304 404.058L358.171 409.575ZM540.661 504.749L541.574 502.97L359.696 409.699L358.784 411.479L357.871 413.259L539.748 506.529L540.661 504.749Z" fill="#56C7E4"/>
<path d="M543.705 227.811C544.158 227.495 544.268 226.871 543.952 226.418C543.635 225.966 543.011 225.856 542.559 226.172L543.705 227.811ZM354.883 357.834C354.787 358.378 355.15 358.897 355.694 358.993L364.556 360.559C365.1 360.655 365.619 360.292 365.715 359.749C365.811 359.205 365.448 358.686 364.904 358.59L357.027 357.198L358.419 349.32C358.515 348.776 358.152 348.257 357.608 348.161C357.064 348.065 356.545 348.428 356.449 348.972L354.883 357.834ZM543.132 226.992L542.559 226.172L355.295 357.189L355.868 358.008L356.441 358.828L543.705 227.811L543.132 226.992Z" fill="#1A1B1D"/>
<path d="M542.472 172.846C542.949 173.123 543.561 172.961 543.839 172.484C544.117 172.006 543.955 171.394 543.477 171.117L542.472 172.846ZM358.77 64.0517C358.236 64.193 357.918 64.7403 358.059 65.2742L360.362 73.9747C360.503 74.5086 361.05 74.8269 361.584 74.6856C362.118 74.5443 362.436 73.997 362.295 73.4631L360.248 65.7293L367.982 63.6827C368.516 63.5414 368.834 62.994 368.693 62.4601C368.552 61.9262 368.004 61.6079 367.47 61.7492L358.77 64.0517ZM542.974 171.981L543.477 171.117L359.528 64.1539L359.026 65.0184L358.523 65.8829L542.472 172.846L542.974 171.981Z" fill="#1A1B1D"/>
<path d="M273.452 65.3534C273.932 65.0803 274.1 64.4698 273.827 63.9897C273.554 63.5097 272.943 63.3419 272.463 63.615L273.452 65.3534ZM82.078 172.251C81.9316 172.783 82.2447 173.334 82.7772 173.48L91.4555 175.865C91.988 176.011 92.5384 175.698 92.6847 175.166C92.8311 174.633 92.518 174.083 91.9855 173.937L84.2715 171.817L86.3915 164.103C86.5379 163.57 86.2248 163.02 85.6922 162.873C85.1597 162.727 84.6094 163.04 84.463 163.573L82.078 172.251ZM272.958 64.4842L272.463 63.615L82.5478 171.647L83.0422 172.516L83.5367 173.385L273.452 65.3534L272.958 64.4842Z" fill="#1A1B1D"/>
<path d="M588 574C588 572.895 587.105 572 586 572C584.895 572 584 572.895 584 574H588ZM584.586 783.914C585.367 784.695 586.633 784.695 587.414 783.914L600.142 771.186C600.923 770.405 600.923 769.139 600.142 768.358C599.361 767.577 598.095 767.577 597.314 768.358L586 779.672L574.686 768.358C573.905 767.577 572.639 767.577 571.858 768.358C571.077 769.139 571.077 770.405 571.858 771.186L584.586 783.914ZM586 574H584V782.5H586H588V574H586Z" fill="#56C7E4"/>
<path d="M541.574 854.03C542.557 853.526 542.945 852.321 542.441 851.338C541.937 850.355 540.731 849.967 539.748 850.471L541.574 854.03ZM356.88 944.908C356.542 945.959 357.119 947.086 358.171 947.425L375.304 952.942C376.356 953.281 377.482 952.703 377.821 951.652C378.16 950.6 377.582 949.474 376.53 949.135L361.301 944.23L366.205 929.001C366.544 927.949 365.966 926.823 364.914 926.484C363.863 926.145 362.736 926.723 362.398 927.775L356.88 944.908ZM540.661 852.251L539.748 850.471L357.871 943.741L358.784 945.521L359.696 947.301L541.574 854.03L540.661 852.251Z" fill="#56C7E4"/>
<path d="M86.2515 850.471C85.2687 849.967 84.0633 850.355 83.5593 851.338C83.0552 852.321 83.4434 853.526 84.4263 854.03L86.2515 850.471ZM267.829 947.425C268.881 947.086 269.458 945.959 269.12 944.908L263.602 927.775C263.264 926.723 262.137 926.145 261.086 926.484C260.034 926.823 259.456 927.949 259.795 929.001L264.699 944.23L249.47 949.135C248.418 949.474 247.84 950.6 248.179 951.652C248.518 952.703 249.644 953.281 250.696 952.942L267.829 947.425ZM85.3389 852.251L84.4263 854.03L266.304 947.301L267.216 945.521L268.129 943.741L86.2515 850.471L85.3389 852.251Z" fill="#56C7E4"/>
<path d="M38 783C38 784.105 38.8954 785 40 785C41.1046 785 42 784.105 42 783H38ZM41.4142 573.086C40.6332 572.305 39.3668 572.305 38.5858 573.086L25.8579 585.814C25.0768 586.595 25.0768 587.861 25.8579 588.642C26.6389 589.423 27.9052 589.423 28.6863 588.642L40 577.328L51.3137 588.642C52.0948 589.423 53.3611 589.423 54.1421 588.642C54.9232 587.861 54.9232 586.595 54.1421 585.814L41.4142 573.086ZM40 783H42V574.5H40H38V783H40Z" fill="#56C7E4"/>
</svg>
