<svg width="1803" height="162" viewBox="0 0 1803 162" fill="none" xmlns="http://www.w3.org/2000/svg">
<path d="M0.966 155V147.762H2.632V148.798C2.744 148.611 2.89567 148.432 3.087 148.259C3.283 148.086 3.52333 147.946 3.808 147.839C4.09267 147.732 4.42633 147.678 4.809 147.678C5.257 147.678 5.67233 147.767 6.055 147.944C6.44233 148.121 6.75267 148.399 6.986 148.777C7.224 149.155 7.343 149.643 7.343 150.24V155H5.635V150.443C5.635 149.967 5.50433 149.615 5.243 149.386C4.98167 149.153 4.65267 149.036 4.256 149.036C3.98533 149.036 3.72867 149.083 3.486 149.176C3.24333 149.265 3.045 149.402 2.891 149.589C2.74167 149.771 2.667 150 2.667 150.275V155H0.966ZM11.2211 155.14C10.7591 155.14 10.3438 155.056 9.97511 154.888C9.61111 154.715 9.32411 154.47 9.11411 154.153C8.90878 153.831 8.80611 153.441 8.80611 152.984C8.80611 152.186 9.09311 151.584 9.66711 151.178C10.2458 150.772 11.1651 150.56 12.4251 150.541L13.5101 150.513V150.023C13.5101 149.64 13.3958 149.342 13.1671 149.127C12.9431 148.908 12.5931 148.8 12.1171 148.805C11.7624 148.81 11.4404 148.894 11.1511 149.057C10.8618 149.216 10.6704 149.484 10.5771 149.862H9.12811C9.15611 149.367 9.29844 148.954 9.55511 148.623C9.81644 148.287 10.1734 148.037 10.6261 147.874C11.0788 147.706 11.6014 147.622 12.1941 147.622C12.8848 147.622 13.4471 147.713 13.8811 147.895C14.3151 148.077 14.6348 148.341 14.8401 148.686C15.0454 149.027 15.1481 149.44 15.1481 149.925V155H13.7131L13.5731 153.698C13.3164 154.244 12.9874 154.622 12.5861 154.832C12.1894 155.037 11.7344 155.14 11.2211 155.14ZM11.7741 153.985C11.9841 153.985 12.1918 153.948 12.3971 153.873C12.6024 153.794 12.7868 153.689 12.9501 153.558C13.1181 153.423 13.2511 153.273 13.3491 153.11C13.4518 152.947 13.5054 152.776 13.5101 152.599V151.458L12.6211 151.472C12.1824 151.477 11.7974 151.523 11.4661 151.612C11.1394 151.701 10.8851 151.843 10.7031 152.039C10.5211 152.23 10.4301 152.487 10.4301 152.809C10.4301 153.178 10.5584 153.467 10.8151 153.677C11.0718 153.882 11.3914 153.985 11.7741 153.985ZM16.9621 155V147.762H18.6211V148.798C18.8311 148.481 19.1158 148.205 19.4751 147.972C19.8391 147.739 20.3011 147.622 20.8611 147.622C21.1178 147.622 21.3768 147.666 21.6381 147.755C21.9041 147.844 22.1491 147.974 22.3731 148.147C22.6018 148.32 22.7838 148.534 22.9191 148.791C23.1478 148.45 23.4511 148.17 23.8291 147.951C24.2118 147.732 24.6411 147.622 25.1171 147.622C25.3784 147.622 25.6468 147.664 25.9221 147.748C26.2021 147.832 26.4588 147.972 26.6921 148.168C26.9254 148.364 27.1144 148.632 27.2591 148.973C27.4038 149.309 27.4761 149.731 27.4761 150.24V155H25.7751V150.443C25.7751 150.084 25.7121 149.801 25.5861 149.596C25.4601 149.391 25.2968 149.246 25.0961 149.162C24.9001 149.073 24.6901 149.029 24.4661 149.029C24.2654 149.029 24.0554 149.069 23.8361 149.148C23.6214 149.227 23.4371 149.358 23.2831 149.54C23.1338 149.722 23.0591 149.967 23.0591 150.275V155H21.3581V150.17C21.3581 149.918 21.2928 149.708 21.1621 149.54C21.0314 149.372 20.8658 149.246 20.6651 149.162C20.4691 149.073 20.2684 149.029 20.0631 149.029C19.8531 149.029 19.6384 149.073 19.4191 149.162C19.2044 149.251 19.0248 149.386 18.8801 149.568C18.7354 149.75 18.6631 149.986 18.6631 150.275V155H16.9621ZM32.5068 155.14C31.8115 155.14 31.1978 154.993 30.6658 154.699C30.1385 154.4 29.7255 153.976 29.4268 153.425C29.1328 152.874 28.9858 152.219 28.9858 151.458C28.9858 150.716 29.1188 150.058 29.3848 149.484C29.6555 148.905 30.0451 148.45 30.5538 148.119C31.0671 147.788 31.6855 147.622 32.4088 147.622C33.1228 147.622 33.7225 147.774 34.2078 148.077C34.6931 148.38 35.0618 148.805 35.3138 149.351C35.5658 149.892 35.6918 150.527 35.6918 151.255V151.773H30.6868C30.6821 152.184 30.7475 152.548 30.8828 152.865C31.0181 153.182 31.2188 153.432 31.4848 153.614C31.7508 153.791 32.0798 153.88 32.4718 153.88C32.8731 153.88 33.2208 153.791 33.5148 153.614C33.8135 153.432 34.0118 153.157 34.1098 152.788H35.6638C35.5798 153.292 35.3791 153.719 35.0618 154.069C34.7491 154.419 34.3665 154.685 33.9138 154.867C33.4658 155.049 32.9968 155.14 32.5068 155.14ZM30.6798 150.716H34.0818C34.0818 150.366 34.0188 150.051 33.8928 149.771C33.7715 149.486 33.5871 149.262 33.3398 149.099C33.0925 148.931 32.7798 148.847 32.4018 148.847C32.0285 148.847 31.7135 148.938 31.4568 149.12C31.2001 149.302 31.0065 149.538 30.8758 149.827C30.7451 150.112 30.6798 150.408 30.6798 150.716ZM37.0815 149.932V147.986H39.0065V149.932H37.0815ZM37.0815 154.958V153.026H39.0065V154.958H37.0815ZM44.2641 155L44.2711 144.878H45.9931V153.53H50.5641V155H44.2641ZM54.9181 155.14C54.2274 155.14 53.6254 154.993 53.1121 154.699C52.5987 154.4 52.1997 153.973 51.9151 153.418C51.6351 152.863 51.4951 152.195 51.4951 151.416C51.4951 150.66 51.6327 149.997 51.9081 149.428C52.1834 148.859 52.5754 148.415 53.0841 148.098C53.5974 147.781 54.2111 147.622 54.9251 147.622C55.6157 147.622 56.2154 147.774 56.7241 148.077C57.2327 148.38 57.6247 148.814 57.9001 149.379C58.1801 149.944 58.3201 150.623 58.3201 151.416C58.3201 152.149 58.1871 152.795 57.9211 153.355C57.6597 153.91 57.2747 154.347 56.7661 154.664C56.2621 154.981 55.6461 155.14 54.9181 155.14ZM54.9251 153.845C55.3171 153.845 55.6391 153.738 55.8911 153.523C56.1477 153.308 56.3391 153.014 56.4651 152.641C56.5911 152.268 56.6541 151.843 56.6541 151.367C56.6541 150.924 56.5981 150.515 56.4861 150.142C56.3741 149.769 56.1897 149.47 55.9331 149.246C55.6811 149.017 55.3451 148.903 54.9251 148.903C54.5284 148.903 54.1994 149.008 53.9381 149.218C53.6814 149.423 53.4901 149.713 53.3641 150.086C53.2381 150.455 53.1751 150.882 53.1751 151.367C53.1751 151.806 53.2311 152.214 53.3431 152.592C53.4551 152.965 53.6394 153.269 53.8961 153.502C54.1527 153.731 54.4957 153.845 54.9251 153.845ZM59.8781 155V147.762H61.5441V148.798C61.6561 148.611 61.8078 148.432 61.9991 148.259C62.1951 148.086 62.4354 147.946 62.7201 147.839C63.0048 147.732 63.3384 147.678 63.7211 147.678C64.1691 147.678 64.5844 147.767 64.9671 147.944C65.3544 148.121 65.6648 148.399 65.8981 148.777C66.1361 149.155 66.2551 149.643 66.2551 150.24V155H64.5471V150.443C64.5471 149.967 64.4164 149.615 64.1551 149.386C63.8938 149.153 63.5648 149.036 63.1681 149.036C62.8974 149.036 62.6408 149.083 62.3981 149.176C62.1554 149.265 61.9571 149.402 61.8031 149.589C61.6538 149.771 61.5791 150 61.5791 150.275V155H59.8781ZM70.7692 155.14C69.8126 155.14 69.0612 154.811 68.5152 154.153C67.9692 153.495 67.6962 152.559 67.6962 151.346C67.6962 150.59 67.8059 149.934 68.0252 149.379C68.2492 148.819 68.5782 148.387 69.0122 148.084C69.4462 147.776 69.9806 147.622 70.6152 147.622C70.9139 147.622 71.1846 147.659 71.4272 147.734C71.6746 147.804 71.8939 147.897 72.0852 148.014C72.2766 148.131 72.4376 148.259 72.5682 148.399C72.7036 148.539 72.8086 148.679 72.8832 148.819V144.598H74.5982V155H73.3382L73.1492 153.516C73.0886 153.689 73.0022 153.871 72.8902 154.062C72.7829 154.249 72.6359 154.424 72.4492 154.587C72.2672 154.75 72.0386 154.883 71.7632 154.986C71.4879 155.089 71.1566 155.14 70.7692 155.14ZM71.1192 153.887C71.7306 153.887 72.1762 153.689 72.4562 153.292C72.7409 152.891 72.8832 152.228 72.8832 151.304C72.8786 150.777 72.8132 150.333 72.6872 149.974C72.5659 149.615 72.3792 149.344 72.1272 149.162C71.8752 148.98 71.5462 148.889 71.1402 148.889C70.6269 148.889 70.2046 149.078 69.8732 149.456C69.5466 149.834 69.3832 150.45 69.3832 151.304C69.3832 152.153 69.5349 152.797 69.8382 153.236C70.1416 153.67 70.5686 153.887 71.1192 153.887ZM79.5548 155.14C78.8641 155.14 78.2621 154.993 77.7488 154.699C77.2354 154.4 76.8364 153.973 76.5518 153.418C76.2718 152.863 76.1318 152.195 76.1318 151.416C76.1318 150.66 76.2694 149.997 76.5448 149.428C76.8201 148.859 77.2121 148.415 77.7208 148.098C78.2341 147.781 78.8478 147.622 79.5618 147.622C80.2524 147.622 80.8521 147.774 81.3608 148.077C81.8694 148.38 82.2614 148.814 82.5368 149.379C82.8168 149.944 82.9568 150.623 82.9568 151.416C82.9568 152.149 82.8238 152.795 82.5578 153.355C82.2964 153.91 81.9114 154.347 81.4028 154.664C80.8988 154.981 80.2828 155.14 79.5548 155.14ZM79.5618 153.845C79.9538 153.845 80.2758 153.738 80.5278 153.523C80.7844 153.308 80.9758 153.014 81.1018 152.641C81.2278 152.268 81.2908 151.843 81.2908 151.367C81.2908 150.924 81.2348 150.515 81.1228 150.142C81.0108 149.769 80.8264 149.47 80.5698 149.246C80.3178 149.017 79.9818 148.903 79.5618 148.903C79.1651 148.903 78.8361 149.008 78.5748 149.218C78.3181 149.423 78.1268 149.713 78.0008 150.086C77.8748 150.455 77.8118 150.882 77.8118 151.367C77.8118 151.806 77.8678 152.214 77.9798 152.592C78.0918 152.965 78.2761 153.269 78.5328 153.502C78.7894 153.731 79.1324 153.845 79.5618 153.845ZM84.5148 155V147.762H86.1808V148.798C86.2928 148.611 86.4445 148.432 86.6358 148.259C86.8318 148.086 87.0722 147.946 87.3568 147.839C87.6415 147.732 87.9752 147.678 88.3578 147.678C88.8058 147.678 89.2212 147.767 89.6038 147.944C89.9912 148.121 90.3015 148.399 90.5348 148.777C90.7728 149.155 90.8918 149.643 90.8918 150.24V155H89.1838V150.443C89.1838 149.967 89.0532 149.615 88.7918 149.386C88.5305 149.153 88.2015 149.036 87.8048 149.036C87.5342 149.036 87.2775 149.083 87.0348 149.176C86.7922 149.265 86.5938 149.402 86.4398 149.589C86.2905 149.771 86.2158 150 86.2158 150.275V155H84.5148ZM96.2445 155V144.878H102.937L102.93 146.341H97.9595V149.176H102.349V150.618H97.9455V153.516L103.035 153.523V155H96.2445ZM107.341 155.14C106.986 155.14 106.643 155.089 106.312 154.986C105.985 154.879 105.691 154.725 105.43 154.524C105.169 154.319 104.961 154.067 104.807 153.768C104.653 153.469 104.576 153.122 104.576 152.725V147.762H106.284V152.529C106.284 152.921 106.408 153.243 106.655 153.495C106.907 153.747 107.285 153.873 107.789 153.873C108.246 153.873 108.613 153.754 108.888 153.516C109.163 153.273 109.301 152.926 109.301 152.473V147.762H110.995V155H109.686L109.497 153.586C109.408 153.983 109.252 154.295 109.028 154.524C108.809 154.748 108.55 154.907 108.251 155C107.957 155.093 107.654 155.14 107.341 155.14ZM115.697 155.14C115.193 155.14 114.715 155.061 114.262 154.902C113.814 154.739 113.436 154.484 113.128 154.139C112.825 153.794 112.633 153.348 112.554 152.802H114.052C114.117 153.068 114.232 153.285 114.395 153.453C114.563 153.621 114.759 153.745 114.983 153.824C115.212 153.899 115.447 153.936 115.69 153.936C116.124 153.936 116.474 153.861 116.74 153.712C117.006 153.563 117.139 153.332 117.139 153.019C117.139 152.79 117.064 152.608 116.915 152.473C116.77 152.338 116.532 152.235 116.201 152.165L114.829 151.85C114.213 151.715 113.721 151.491 113.352 151.178C112.983 150.865 112.797 150.424 112.792 149.855C112.787 149.426 112.895 149.043 113.114 148.707C113.333 148.371 113.66 148.107 114.094 147.916C114.528 147.72 115.062 147.622 115.697 147.622C116.542 147.622 117.218 147.811 117.727 148.189C118.24 148.562 118.504 149.097 118.518 149.792H117.069C117.018 149.479 116.871 149.237 116.628 149.064C116.385 148.887 116.07 148.798 115.683 148.798C115.282 148.798 114.953 148.875 114.696 149.029C114.439 149.183 114.311 149.419 114.311 149.736C114.311 149.955 114.407 150.128 114.598 150.254C114.794 150.38 115.09 150.487 115.487 150.576L116.789 150.891C117.162 150.984 117.468 151.11 117.706 151.269C117.944 151.428 118.128 151.603 118.259 151.794C118.394 151.981 118.488 152.174 118.539 152.375C118.595 152.571 118.623 152.753 118.623 152.921C118.623 153.388 118.502 153.787 118.259 154.118C118.021 154.445 117.683 154.697 117.244 154.874C116.81 155.051 116.294 155.14 115.697 155.14ZM122.994 155.056C122.42 155.056 121.974 154.981 121.657 154.832C121.344 154.678 121.127 154.461 121.006 154.181C120.885 153.901 120.824 153.567 120.824 153.18V148.966H119.648V147.762H120.873L121.3 145.613H122.525V147.755H124.142V148.966H122.525L122.532 153.117C122.532 153.332 122.555 153.49 122.602 153.593C122.653 153.691 122.733 153.756 122.84 153.789C122.952 153.817 123.099 153.831 123.281 153.831H124.177V154.909C124.079 154.946 123.934 154.979 123.743 155.007C123.556 155.04 123.307 155.056 122.994 155.056ZM128.582 155.14C127.891 155.14 127.289 154.993 126.776 154.699C126.263 154.4 125.864 153.973 125.579 153.418C125.299 152.863 125.159 152.195 125.159 151.416C125.159 150.66 125.297 149.997 125.572 149.428C125.847 148.859 126.239 148.415 126.748 148.098C127.261 147.781 127.875 147.622 128.589 147.622C129.28 147.622 129.879 147.774 130.388 148.077C130.897 148.38 131.289 148.814 131.564 149.379C131.844 149.944 131.984 150.623 131.984 151.416C131.984 152.149 131.851 152.795 131.585 153.355C131.324 153.91 130.939 154.347 130.43 154.664C129.926 154.981 129.31 155.14 128.582 155.14ZM128.589 153.845C128.981 153.845 129.303 153.738 129.555 153.523C129.812 153.308 130.003 153.014 130.129 152.641C130.255 152.268 130.318 151.843 130.318 151.367C130.318 150.924 130.262 150.515 130.15 150.142C130.038 149.769 129.854 149.47 129.597 149.246C129.345 149.017 129.009 148.903 128.589 148.903C128.192 148.903 127.863 149.008 127.602 149.218C127.345 149.423 127.154 149.713 127.028 150.086C126.902 150.455 126.839 150.882 126.839 151.367C126.839 151.806 126.895 152.214 127.007 152.592C127.119 152.965 127.303 153.269 127.56 153.502C127.817 153.731 128.16 153.845 128.589 153.845ZM133.542 155V147.762H135.208V148.798C135.32 148.611 135.472 148.432 135.663 148.259C135.859 148.086 136.1 147.946 136.384 147.839C136.669 147.732 137.003 147.678 137.385 147.678C137.833 147.678 138.249 147.767 138.631 147.944C139.019 148.121 139.329 148.399 139.562 148.777C139.8 149.155 139.919 149.643 139.919 150.24V155H138.211V150.443C138.211 149.967 138.081 149.615 137.819 149.386C137.558 149.153 137.229 149.036 136.832 149.036C136.562 149.036 136.305 149.083 136.062 149.176C135.82 149.265 135.621 149.402 135.467 149.589C135.318 149.771 135.243 150 135.243 150.275V155H133.542Z" fill="black" style="fill:black;fill-opacity:1;"/>
<path d="M853.966 155V147.762H855.632V148.798C855.744 148.611 855.896 148.432 856.087 148.259C856.283 148.086 856.523 147.946 856.808 147.839C857.093 147.732 857.426 147.678 857.809 147.678C858.257 147.678 858.672 147.767 859.055 147.944C859.442 148.121 859.753 148.399 859.986 148.777C860.224 149.155 860.343 149.643 860.343 150.24V155H858.635V150.443C858.635 149.967 858.504 149.615 858.243 149.386C857.982 149.153 857.653 149.036 857.256 149.036C856.985 149.036 856.729 149.083 856.486 149.176C856.243 149.265 856.045 149.402 855.891 149.589C855.742 149.771 855.667 150 855.667 150.275V155H853.966ZM864.221 155.14C863.759 155.14 863.344 155.056 862.975 154.888C862.611 154.715 862.324 154.47 862.114 154.153C861.909 153.831 861.806 153.441 861.806 152.984C861.806 152.186 862.093 151.584 862.667 151.178C863.246 150.772 864.165 150.56 865.425 150.541L866.51 150.513V150.023C866.51 149.64 866.396 149.342 866.167 149.127C865.943 148.908 865.593 148.8 865.117 148.805C864.762 148.81 864.44 148.894 864.151 149.057C863.862 149.216 863.67 149.484 863.577 149.862H862.128C862.156 149.367 862.298 148.954 862.555 148.623C862.816 148.287 863.173 148.037 863.626 147.874C864.079 147.706 864.601 147.622 865.194 147.622C865.885 147.622 866.447 147.713 866.881 147.895C867.315 148.077 867.635 148.341 867.84 148.686C868.045 149.027 868.148 149.44 868.148 149.925V155H866.713L866.573 153.698C866.316 154.244 865.987 154.622 865.586 154.832C865.189 155.037 864.734 155.14 864.221 155.14ZM864.774 153.985C864.984 153.985 865.192 153.948 865.397 153.873C865.602 153.794 865.787 153.689 865.95 153.558C866.118 153.423 866.251 153.273 866.349 153.11C866.452 152.947 866.505 152.776 866.51 152.599V151.458L865.621 151.472C865.182 151.477 864.797 151.523 864.466 151.612C864.139 151.701 863.885 151.843 863.703 152.039C863.521 152.23 863.43 152.487 863.43 152.809C863.43 153.178 863.558 153.467 863.815 153.677C864.072 153.882 864.391 153.985 864.774 153.985ZM869.962 155V147.762H871.621V148.798C871.831 148.481 872.116 148.205 872.475 147.972C872.839 147.739 873.301 147.622 873.861 147.622C874.118 147.622 874.377 147.666 874.638 147.755C874.904 147.844 875.149 147.974 875.373 148.147C875.602 148.32 875.784 148.534 875.919 148.791C876.148 148.45 876.451 148.17 876.829 147.951C877.212 147.732 877.641 147.622 878.117 147.622C878.378 147.622 878.647 147.664 878.922 147.748C879.202 147.832 879.459 147.972 879.692 148.168C879.925 148.364 880.114 148.632 880.259 148.973C880.404 149.309 880.476 149.731 880.476 150.24V155H878.775V150.443C878.775 150.084 878.712 149.801 878.586 149.596C878.46 149.391 878.297 149.246 878.096 149.162C877.9 149.073 877.69 149.029 877.466 149.029C877.265 149.029 877.055 149.069 876.836 149.148C876.621 149.227 876.437 149.358 876.283 149.54C876.134 149.722 876.059 149.967 876.059 150.275V155H874.358V150.17C874.358 149.918 874.293 149.708 874.162 149.54C874.031 149.372 873.866 149.246 873.665 149.162C873.469 149.073 873.268 149.029 873.063 149.029C872.853 149.029 872.638 149.073 872.419 149.162C872.204 149.251 872.025 149.386 871.88 149.568C871.735 149.75 871.663 149.986 871.663 150.275V155H869.962ZM885.507 155.14C884.811 155.14 884.198 154.993 883.666 154.699C883.138 154.4 882.725 153.976 882.427 153.425C882.133 152.874 881.986 152.219 881.986 151.458C881.986 150.716 882.119 150.058 882.385 149.484C882.655 148.905 883.045 148.45 883.554 148.119C884.067 147.788 884.685 147.622 885.409 147.622C886.123 147.622 886.722 147.774 887.208 148.077C887.693 148.38 888.062 148.805 888.314 149.351C888.566 149.892 888.692 150.527 888.692 151.255V151.773H883.687C883.682 152.184 883.747 152.548 883.883 152.865C884.018 153.182 884.219 153.432 884.485 153.614C884.751 153.791 885.08 153.88 885.472 153.88C885.873 153.88 886.221 153.791 886.515 153.614C886.813 153.432 887.012 153.157 887.11 152.788H888.664C888.58 153.292 888.379 153.719 888.062 154.069C887.749 154.419 887.366 154.685 886.914 154.867C886.466 155.049 885.997 155.14 885.507 155.14ZM883.68 150.716H887.082C887.082 150.366 887.019 150.051 886.893 149.771C886.771 149.486 886.587 149.262 886.34 149.099C886.092 148.931 885.78 148.847 885.402 148.847C885.028 148.847 884.713 148.938 884.457 149.12C884.2 149.302 884.006 149.538 883.876 149.827C883.745 150.112 883.68 150.408 883.68 150.716ZM890.082 149.932V147.986H892.007V149.932H890.082ZM890.082 154.958V153.026H892.007V154.958H890.082ZM901.205 155.14C900.276 155.14 899.478 154.928 898.811 154.503C898.148 154.074 897.637 153.467 897.278 152.683C896.923 151.894 896.746 150.959 896.746 149.876C896.746 148.798 896.923 147.876 897.278 147.111C897.633 146.346 898.141 145.76 898.804 145.354C899.471 144.943 900.272 144.738 901.205 144.738C901.947 144.738 902.605 144.89 903.179 145.193C903.753 145.492 904.215 145.898 904.565 146.411C904.92 146.924 905.13 147.496 905.195 148.126H903.396C903.326 147.753 903.195 147.419 903.004 147.125C902.817 146.831 902.57 146.598 902.262 146.425C901.954 146.252 901.585 146.166 901.156 146.166C900.619 146.166 900.162 146.294 899.784 146.551C899.411 146.803 899.124 147.204 898.923 147.755C898.727 148.306 898.629 149.02 898.629 149.897C898.629 151.227 898.848 152.195 899.287 152.802C899.726 153.409 900.349 153.712 901.156 153.712C901.585 153.712 901.954 153.619 902.262 153.432C902.57 153.241 902.817 152.989 903.004 152.676C903.195 152.359 903.326 152.013 903.396 151.64H905.195C905.139 152.097 905.022 152.536 904.845 152.956C904.672 153.376 904.427 153.752 904.11 154.083C903.793 154.41 903.394 154.669 902.913 154.86C902.437 155.047 901.868 155.14 901.205 155.14ZM909.9 155.14C909.21 155.14 908.608 154.993 908.094 154.699C907.581 154.4 907.182 153.973 906.897 153.418C906.617 152.863 906.477 152.195 906.477 151.416C906.477 150.66 906.615 149.997 906.89 149.428C907.166 148.859 907.558 148.415 908.066 148.098C908.58 147.781 909.193 147.622 909.907 147.622C910.598 147.622 911.198 147.774 911.706 148.077C912.215 148.38 912.607 148.814 912.882 149.379C913.162 149.944 913.302 150.623 913.302 151.416C913.302 152.149 913.169 152.795 912.903 153.355C912.642 153.91 912.257 154.347 911.748 154.664C911.244 154.981 910.628 155.14 909.9 155.14ZM909.907 153.845C910.299 153.845 910.621 153.738 910.873 153.523C911.13 153.308 911.321 153.014 911.447 152.641C911.573 152.268 911.636 151.843 911.636 151.367C911.636 150.924 911.58 150.515 911.468 150.142C911.356 149.769 911.172 149.47 910.915 149.246C910.663 149.017 910.327 148.903 909.907 148.903C909.511 148.903 909.182 149.008 908.92 149.218C908.664 149.423 908.472 149.713 908.346 150.086C908.22 150.455 908.157 150.882 908.157 151.367C908.157 151.806 908.213 152.214 908.325 152.592C908.437 152.965 908.622 153.269 908.878 153.502C909.135 153.731 909.478 153.845 909.907 153.845ZM916.643 155L913.969 147.762H915.53L917.266 152.83H917.357L919.086 147.762H920.654L917.987 155H916.643ZM924.882 155.14C924.186 155.14 923.573 154.993 923.041 154.699C922.513 154.4 922.1 153.976 921.802 153.425C921.508 152.874 921.361 152.219 921.361 151.458C921.361 150.716 921.494 150.058 921.76 149.484C922.03 148.905 922.42 148.45 922.929 148.119C923.442 147.788 924.06 147.622 924.784 147.622C925.498 147.622 926.097 147.774 926.583 148.077C927.068 148.38 927.437 148.805 927.689 149.351C927.941 149.892 928.067 150.527 928.067 151.255V151.773H923.062C923.057 152.184 923.122 152.548 923.258 152.865C923.393 153.182 923.594 153.432 923.86 153.614C924.126 153.791 924.455 153.88 924.847 153.88C925.248 153.88 925.596 153.791 925.89 153.614C926.188 153.432 926.387 153.157 926.485 152.788H928.039C927.955 153.292 927.754 153.719 927.437 154.069C927.124 154.419 926.741 154.685 926.289 154.867C925.841 155.049 925.372 155.14 924.882 155.14ZM923.055 150.716H926.457C926.457 150.366 926.394 150.051 926.268 149.771C926.146 149.486 925.962 149.262 925.715 149.099C925.467 148.931 925.155 148.847 924.777 148.847C924.403 148.847 924.088 148.938 923.832 149.12C923.575 149.302 923.381 149.538 923.251 149.827C923.12 150.112 923.055 150.408 923.055 150.716ZM929.695 155V147.762H931.361V148.798C931.473 148.611 931.624 148.432 931.816 148.259C932.012 148.086 932.252 147.946 932.537 147.839C932.821 147.732 933.155 147.678 933.538 147.678C933.986 147.678 934.401 147.767 934.784 147.944C935.171 148.121 935.481 148.399 935.715 148.777C935.953 149.155 936.072 149.643 936.072 150.24V155H934.364V150.443C934.364 149.967 934.233 149.615 933.972 149.386C933.71 149.153 933.381 149.036 932.985 149.036C932.714 149.036 932.457 149.083 932.215 149.176C931.972 149.265 931.774 149.402 931.62 149.589C931.47 149.771 931.396 150 931.396 150.275V155H929.695ZM940.516 155.056C939.942 155.056 939.496 154.981 939.179 154.832C938.866 154.678 938.649 154.461 938.528 154.181C938.406 153.901 938.346 153.567 938.346 153.18V148.966H937.17V147.762H938.395L938.822 145.613H940.047V147.755H941.664V148.966H940.047L940.054 153.117C940.054 153.332 940.077 153.49 940.124 153.593C940.175 153.691 940.254 153.756 940.362 153.789C940.474 153.817 940.621 153.831 940.803 153.831H941.699V154.909C941.601 154.946 941.456 154.979 941.265 155.007C941.078 155.04 940.828 155.056 940.516 155.056ZM943.271 155V147.762H944.902V149.33C945.018 148.971 945.184 148.665 945.399 148.413C945.618 148.156 945.875 147.96 946.169 147.825C946.463 147.69 946.782 147.622 947.128 147.622C947.212 147.622 947.293 147.627 947.373 147.636C947.452 147.645 947.51 147.662 947.548 147.685V149.316C947.496 149.293 947.429 149.276 947.345 149.267C947.265 149.258 947.195 149.253 947.135 149.253C946.785 149.225 946.474 149.239 946.204 149.295C945.938 149.351 945.711 149.447 945.525 149.582C945.343 149.713 945.205 149.881 945.112 150.086C945.018 150.287 944.972 150.522 944.972 150.793V155H943.271ZM950.013 157.31C949.546 157.31 949.222 157.273 949.04 157.198C948.858 157.128 948.767 157.093 948.767 157.093V156.001L949.495 156.022C949.789 156.036 950.027 156.02 950.209 155.973C950.395 155.926 950.54 155.861 950.643 155.777C950.745 155.698 950.82 155.611 950.867 155.518C950.918 155.429 950.958 155.352 950.986 155.287L951.175 154.755L948.354 147.762H950.048L951.973 152.879L953.891 147.762H955.557L952.575 155.266C952.351 155.812 952.108 156.232 951.847 156.526C951.59 156.825 951.308 157.03 951 157.142C950.696 157.254 950.367 157.31 950.013 157.31Z" fill="black" style="fill:black;fill-opacity:1;"/>
<path d="M285 64C285 28.6538 313.654 0 349 0C384.346 0 413 28.6538 413 64C413 99.3462 384.346 128 349 128C313.654 128 285 99.3462 285 64Z" fill="#8DCC93" style="fill:#8DCC93;fill:color(display-p3 0.5529 0.8000 0.5765);fill-opacity:1;"/>
<path d="M563 64C563 28.6538 591.654 0 627 0C662.346 0 691 28.6538 691 64C691 99.3462 662.346 128 627 128C591.654 128 563 99.3462 563 64Z" fill="#8DCC93" style="fill:#8DCC93;fill:color(display-p3 0.5529 0.8000 0.5765);fill-opacity:1;"/>
<path d="M1119 64C1119 28.6538 1147.65 0 1183 0C1218.35 0 1247 28.6538 1247 64C1247 99.3462 1218.35 128 1183 128C1147.65 128 1119 99.3462 1119 64Z" fill="#8DCC93" style="fill:#8DCC93;fill:color(display-p3 0.5529 0.8000 0.5765);fill-opacity:1;"/>
<path d="M7 64C7 28.6538 35.6538 0 71 0C106.346 0 135 28.6538 135 64C135 99.3462 106.346 128 71 128C35.6538 128 7 99.3462 7 64Z" fill="#FFC354" style="fill:#FFC354;fill:color(display-p3 1.0000 0.7647 0.3294);fill-opacity:1;"/>
<path d="M65.9102 73V60.592H68.0582V62.392C68.2582 62.048 68.5342 61.724 68.8862 61.42C69.2462 61.116 69.6782 60.872 70.1822 60.688C70.6942 60.504 71.2822 60.412 71.9462 60.412C72.7302 60.412 73.4502 60.568 74.1062 60.88C74.7702 61.192 75.2982 61.68 75.6902 62.344C76.0902 63 76.2902 63.848 76.2902 64.888V73H74.0702V65.104C74.0702 64.136 73.8142 63.42 73.3022 62.956C72.7982 62.484 72.1422 62.248 71.3342 62.248C70.7742 62.248 70.2502 62.34 69.7622 62.524C69.2742 62.7 68.8782 62.972 68.5742 63.34C68.2702 63.7 68.1182 64.156 68.1182 64.708V73H65.9102Z" fill="#1A1B1D" style="fill:#1A1B1D;fill:color(display-p3 0.1020 0.1059 0.1137);fill-opacity:1;"/>
<path d="M841 64C841 28.6538 869.654 0 905 0C940.346 0 969 28.6538 969 64C969 99.3462 940.346 128 905 128C869.654 128 841 99.3462 841 64Z" fill="#FFC354" style="fill:#FFC354;fill:color(display-p3 1.0000 0.7647 0.3294);fill-opacity:1;"/>
<path d="M1397 64C1397 28.6538 1425.65 0 1461 0C1496.35 0 1525 28.6538 1525 64C1525 99.3462 1496.35 128 1461 128C1425.65 128 1397 99.3462 1397 64Z" fill="#8DCC93" style="fill:#8DCC93;fill:color(display-p3 0.5529 0.8000 0.5765);fill-opacity:1;"/>
<path d="M1675 64C1675 28.6538 1703.65 0 1739 0C1774.35 0 1803 28.6538 1803 64C1803 99.3462 1774.35 128 1739 128C1703.65 128 1675 99.3462 1675 64Z" fill="#FFC354" style="fill:#FFC354;fill:color(display-p3 1.0000 0.7647 0.3294);fill-opacity:1;"/>
<path d="M1733.91 73V60.592H1736.06V62.392C1736.26 62.048 1736.53 61.724 1736.89 61.42C1737.25 61.116 1737.68 60.872 1738.18 60.688C1738.69 60.504 1739.28 60.412 1739.95 60.412C1740.73 60.412 1741.45 60.568 1742.11 60.88C1742.77 61.192 1743.3 61.68 1743.69 62.344C1744.09 63 1744.29 63.848 1744.29 64.888V73H1742.07V65.104C1742.07 64.136 1741.81 63.42 1741.3 62.956C1740.8 62.484 1740.14 62.248 1739.33 62.248C1738.77 62.248 1738.25 62.34 1737.76 62.524C1737.27 62.7 1736.88 62.972 1736.57 63.34C1736.27 63.7 1736.12 64.156 1736.12 64.708V73H1733.91Z" fill="#1A1B1D" style="fill:#1A1B1D;fill:color(display-p3 0.1020 0.1059 0.1137);fill-opacity:1;"/>
<path d="M281.5 65C282.052 65 282.5 64.5523 282.5 64C282.5 63.4477 282.052 63 281.5 63V65ZM250.562 63C250.01 63 249.562 63.4477 249.562 64C249.562 64.5523 250.01 65 250.562 65V63ZM169.438 65C169.99 65 170.438 64.5523 170.438 64C170.438 63.4477 169.99 63 169.438 63V65ZM137.793 63.2929C137.402 63.6834 137.402 64.3166 137.793 64.7071L144.157 71.0711C144.547 71.4616 145.181 71.4616 145.571 71.0711C145.962 70.6805 145.962 70.0474 145.571 69.6569L139.914 64L145.571 58.3431C145.962 57.9526 145.962 57.3195 145.571 56.9289C145.181 56.5384 144.547 56.5384 144.157 56.9289L137.793 63.2929ZM281.5 63H250.562V65H281.5V63ZM169.438 63H138.5V65H169.438V63Z" fill="#1A1B1D" style="fill:#1A1B1D;fill:color(display-p3 0.1020 0.1059 0.1137);fill-opacity:1;"/>
<path d="M185.613 62.6293H184.062C184.003 62.2978 183.891 62.0062 183.729 61.7543C183.567 61.5024 183.368 61.2886 183.132 61.1129C182.897 60.9373 182.634 60.8047 182.342 60.7152C182.054 60.6257 181.747 60.581 181.422 60.581C180.836 60.581 180.31 60.7285 179.846 61.0234C179.386 61.3184 179.021 61.7509 178.753 62.321C178.487 62.8911 178.355 63.5871 178.355 64.4091C178.355 65.2377 178.487 65.937 178.753 66.5071C179.021 67.0772 179.387 67.508 179.851 67.7997C180.315 68.0914 180.837 68.2372 181.417 68.2372C181.739 68.2372 182.044 68.1941 182.332 68.108C182.624 68.0185 182.887 67.8875 183.123 67.7152C183.358 67.5429 183.557 67.3324 183.719 67.0838C183.885 66.8319 183.999 66.5436 184.062 66.2188L185.613 66.2237C185.53 66.7242 185.37 67.1849 185.131 67.6058C184.896 68.0234 184.592 68.3847 184.221 68.6896C183.853 68.9912 183.432 69.2249 182.958 69.3906C182.485 69.5563 181.967 69.6392 181.407 69.6392C180.526 69.6392 179.74 69.4304 179.051 69.0128C178.361 68.5919 177.818 67.9903 177.42 67.2081C177.026 66.4259 176.829 65.4929 176.829 64.4091C176.829 63.322 177.027 62.389 177.425 61.6101C177.823 60.8279 178.366 60.228 179.056 59.8104C179.745 59.3894 180.529 59.179 181.407 59.179C181.948 59.179 182.451 59.2569 182.919 59.4126C183.389 59.5651 183.812 59.7905 184.186 60.0888C184.561 60.3838 184.871 60.745 185.116 61.1726C185.361 61.5968 185.527 62.0824 185.613 62.6293ZM188.089 69.5H186.459L190.123 59.3182H191.898L195.562 69.5H193.931L191.052 61.1676H190.973L188.089 69.5ZM188.363 65.5128H193.652V66.8054H188.363V65.5128ZM196.878 69.5V59.3182H198.414V68.1776H203.028V69.5H196.878ZM204.626 69.5V59.3182H206.162V68.1776H210.776V69.5H204.626ZM217.928 61.9929C217.875 61.5223 217.656 61.1577 217.272 60.8991C216.887 60.6373 216.403 60.5064 215.82 60.5064C215.402 60.5064 215.041 60.5727 214.736 60.7053C214.431 60.8345 214.194 61.0135 214.025 61.2422C213.859 61.4676 213.777 61.7244 213.777 62.0128C213.777 62.2547 213.833 62.4635 213.946 62.6392C214.062 62.8149 214.212 62.9624 214.398 63.0817C214.587 63.1977 214.789 63.2955 215.005 63.375C215.22 63.4512 215.427 63.5142 215.626 63.5639L216.62 63.8224C216.945 63.902 217.278 64.0097 217.62 64.1456C217.961 64.2815 218.278 64.4605 218.569 64.6825C218.861 64.9046 219.096 65.1797 219.275 65.5078C219.457 65.8359 219.549 66.2287 219.549 66.6861C219.549 67.2628 219.399 67.7749 219.101 68.2223C218.806 68.6697 218.377 69.0227 217.814 69.2812C217.253 69.5398 216.576 69.669 215.78 69.669C215.018 69.669 214.358 69.5481 213.801 69.3061C213.245 69.0642 212.809 68.7211 212.494 68.277C212.179 67.8295 212.005 67.2992 211.972 66.6861H213.513C213.543 67.054 213.662 67.3606 213.871 67.6058C214.083 67.8478 214.353 68.0284 214.681 68.1477C215.013 68.2637 215.376 68.3217 215.77 68.3217C216.204 68.3217 216.591 68.2538 216.929 68.1179C217.27 67.9787 217.538 67.7865 217.734 67.5412C217.93 67.2926 218.027 67.0026 218.027 66.6712C218.027 66.3696 217.941 66.1226 217.769 65.9304C217.6 65.7382 217.369 65.5791 217.078 65.4531C216.789 65.3272 216.463 65.2161 216.098 65.12L214.895 64.7919C214.08 64.5698 213.434 64.2434 212.956 63.8125C212.482 63.3816 212.245 62.8116 212.245 62.1023C212.245 61.5156 212.404 61.0036 212.723 60.5661C213.041 60.1286 213.472 59.7888 214.015 59.5469C214.559 59.3016 215.172 59.179 215.855 59.179C216.544 59.179 217.152 59.3 217.679 59.5419C218.21 59.7839 218.627 60.117 218.932 60.5412C219.237 60.9621 219.396 61.446 219.409 61.9929H217.928ZM226.565 69.5V70.7628H220.097V69.5H226.565ZM228.376 69.5H226.745L230.409 59.3182H232.184L235.848 69.5H234.218L231.339 61.1676H231.259L228.376 69.5ZM228.649 65.5128H233.939V66.8054H228.649V65.5128ZM235.459 60.6406V59.3182H243.339V60.6406H240.162V69.5H238.631V60.6406H235.459Z" fill="black" fill-opacity="0.8" style="fill:black;fill-opacity:0.8;"/>
<path d="M1115.5 65C1116.05 65 1116.5 64.5523 1116.5 64C1116.5 63.4477 1116.05 63 1115.5 63V65ZM1084.56 63C1084.01 63 1083.56 63.4477 1083.56 64C1083.56 64.5523 1084.01 65 1084.56 65V63ZM1003.44 65C1003.99 65 1004.44 64.5523 1004.44 64C1004.44 63.4477 1003.99 63 1003.44 63V65ZM971.793 63.2929C971.402 63.6834 971.402 64.3166 971.793 64.7071L978.157 71.0711C978.547 71.4616 979.181 71.4616 979.571 71.0711C979.962 70.6805 979.962 70.0474 979.571 69.6569L973.914 64L979.571 58.3431C979.962 57.9526 979.962 57.3195 979.571 56.9289C979.181 56.5384 978.547 56.5384 978.157 56.9289L971.793 63.2929ZM1115.5 63H1084.56V65H1115.5V63ZM1003.44 63H972.5V65H1003.44V63Z" fill="#1A1B1D" style="fill:#1A1B1D;fill:color(display-p3 0.1020 0.1059 0.1137);fill-opacity:1;"/>
<path d="M1019.61 62.6293H1018.06C1018 62.2978 1017.89 62.0062 1017.73 61.7543C1017.57 61.5024 1017.37 61.2886 1017.13 61.1129C1016.9 60.9373 1016.63 60.8047 1016.34 60.7152C1016.05 60.6257 1015.75 60.581 1015.42 60.581C1014.84 60.581 1014.31 60.7285 1013.85 61.0234C1013.39 61.3184 1013.02 61.7509 1012.75 62.321C1012.49 62.8911 1012.35 63.5871 1012.35 64.4091C1012.35 65.2377 1012.49 65.937 1012.75 66.5071C1013.02 67.0772 1013.39 67.508 1013.85 67.7997C1014.32 68.0914 1014.84 68.2372 1015.42 68.2372C1015.74 68.2372 1016.04 68.1941 1016.33 68.108C1016.62 68.0185 1016.89 67.8875 1017.12 67.7152C1017.36 67.5429 1017.56 67.3324 1017.72 67.0838C1017.88 66.8319 1018 66.5436 1018.06 66.2188L1019.61 66.2237C1019.53 66.7242 1019.37 67.1849 1019.13 67.6058C1018.9 68.0234 1018.59 68.3847 1018.22 68.6896C1017.85 68.9912 1017.43 69.2249 1016.96 69.3906C1016.48 69.5563 1015.97 69.6392 1015.41 69.6392C1014.53 69.6392 1013.74 69.4304 1013.05 69.0128C1012.36 68.5919 1011.82 67.9903 1011.42 67.2081C1011.03 66.4259 1010.83 65.4929 1010.83 64.4091C1010.83 63.322 1011.03 62.389 1011.43 61.6101C1011.82 60.8279 1012.37 60.228 1013.06 59.8104C1013.75 59.3894 1014.53 59.179 1015.41 59.179C1015.95 59.179 1016.45 59.2569 1016.92 59.4126C1017.39 59.5651 1017.81 59.7905 1018.19 60.0888C1018.56 60.3838 1018.87 60.745 1019.12 61.1726C1019.36 61.5968 1019.53 62.0824 1019.61 62.6293ZM1022.09 69.5H1020.46L1024.12 59.3182H1025.9L1029.56 69.5H1027.93L1025.05 61.1676H1024.97L1022.09 69.5ZM1022.36 65.5128H1027.65V66.8054H1022.36V65.5128ZM1030.88 69.5V59.3182H1032.41V68.1776H1037.03V69.5H1030.88ZM1038.63 69.5V59.3182H1040.16V68.1776H1044.78V69.5H1038.63ZM1051.93 61.9929C1051.87 61.5223 1051.66 61.1577 1051.27 60.8991C1050.89 60.6373 1050.4 60.5064 1049.82 60.5064C1049.4 60.5064 1049.04 60.5727 1048.74 60.7053C1048.43 60.8345 1048.19 61.0135 1048.03 61.2422C1047.86 61.4676 1047.78 61.7244 1047.78 62.0128C1047.78 62.2547 1047.83 62.4635 1047.95 62.6392C1048.06 62.8149 1048.21 62.9624 1048.4 63.0817C1048.59 63.1977 1048.79 63.2955 1049 63.375C1049.22 63.4512 1049.43 63.5142 1049.63 63.5639L1050.62 63.8224C1050.95 63.902 1051.28 64.0097 1051.62 64.1456C1051.96 64.2815 1052.28 64.4605 1052.57 64.6825C1052.86 64.9046 1053.1 65.1797 1053.28 65.5078C1053.46 65.8359 1053.55 66.2287 1053.55 66.6861C1053.55 67.2628 1053.4 67.7749 1053.1 68.2223C1052.81 68.6697 1052.38 69.0227 1051.81 69.2812C1051.25 69.5398 1050.58 69.669 1049.78 69.669C1049.02 69.669 1048.36 69.5481 1047.8 69.3061C1047.24 69.0642 1046.81 68.7211 1046.49 68.277C1046.18 67.8295 1046.01 67.2992 1045.97 66.6861H1047.51C1047.54 67.054 1047.66 67.3606 1047.87 67.6058C1048.08 67.8478 1048.35 68.0284 1048.68 68.1477C1049.01 68.2637 1049.38 68.3217 1049.77 68.3217C1050.2 68.3217 1050.59 68.2538 1050.93 68.1179C1051.27 67.9787 1051.54 67.7865 1051.73 67.5412C1051.93 67.2926 1052.03 67.0026 1052.03 66.6712C1052.03 66.3696 1051.94 66.1226 1051.77 65.9304C1051.6 65.7382 1051.37 65.5791 1051.08 65.4531C1050.79 65.3272 1050.46 65.2161 1050.1 65.12L1048.9 64.7919C1048.08 64.5698 1047.43 64.2434 1046.96 63.8125C1046.48 63.3816 1046.25 62.8116 1046.25 62.1023C1046.25 61.5156 1046.4 61.0036 1046.72 60.5661C1047.04 60.1286 1047.47 59.7888 1048.02 59.5469C1048.56 59.3016 1049.17 59.179 1049.85 59.179C1050.54 59.179 1051.15 59.3 1051.68 59.5419C1052.21 59.7839 1052.63 60.117 1052.93 60.5412C1053.24 60.9621 1053.4 61.446 1053.41 61.9929H1051.93ZM1060.56 69.5V70.7628H1054.1V69.5H1060.56ZM1062.38 69.5H1060.75L1064.41 59.3182H1066.18L1069.85 69.5H1068.22L1065.34 61.1676H1065.26L1062.38 69.5ZM1062.65 65.5128H1067.94V66.8054H1062.65V65.5128ZM1069.46 60.6406V59.3182H1077.34V60.6406H1074.16V69.5H1072.63V60.6406H1069.46Z" fill="black" fill-opacity="0.8" style="fill:black;fill-opacity:0.8;"/>
<path d="M416.5 63C415.948 63 415.5 63.4477 415.5 64C415.5 64.5523 415.948 65 416.5 65V63ZM462.938 65C463.49 65 463.938 64.5523 463.938 64C463.938 63.4477 463.49 63 462.938 63V65ZM513.062 63C512.51 63 512.062 63.4477 512.062 64C512.062 64.5523 512.51 65 513.062 65V63ZM560.207 64.7071C560.598 64.3166 560.598 63.6834 560.207 63.2929L553.843 56.9289C553.453 56.5384 552.819 56.5384 552.429 56.9289C552.038 57.3195 552.038 57.9526 552.429 58.3431L558.086 64L552.429 69.6569C552.038 70.0474 552.038 70.6805 552.429 71.0711C552.819 71.4616 553.453 71.4616 553.843 71.0711L560.207 64.7071ZM416.5 65H462.938V63H416.5V65ZM513.062 65H559.5V63H513.062V65Z" fill="#1A1B1D" style="fill:#1A1B1D;fill:color(display-p3 0.1020 0.1059 0.1137);fill-opacity:1;"/>
<path d="M478.899 59.3182V69.5H477.487L472.311 62.0327H472.217V69.5H470.681V59.3182H472.103L477.283 66.7955H477.377V59.3182H478.899ZM480.986 69.5V59.3182H487.369V60.6406H482.522V63.7429H487.036V65.0604H482.522V68.1776H487.429V69.5H480.986ZM490.336 59.3182L492.772 63.3004H492.852L495.288 59.3182H497.068L493.896 64.4091L497.088 69.5H495.298L492.852 65.5724H492.772L490.326 69.5H488.536L491.783 64.4091L488.556 59.3182H490.336ZM497.935 60.6406V59.3182H505.815V60.6406H502.638V69.5H501.107V60.6406H497.935Z" fill="black" fill-opacity="0.8" style="fill:black;fill-opacity:0.8;"/>
<path d="M694.5 63C693.948 63 693.5 63.4477 693.5 64C693.5 64.5523 693.948 65 694.5 65V63ZM725.438 65C725.99 65 726.438 64.5523 726.438 64C726.438 63.4477 725.99 63 725.438 63V65ZM806.562 63C806.01 63 805.562 63.4477 805.562 64C805.562 64.5523 806.01 65 806.562 65V63ZM838.207 64.7071C838.598 64.3166 838.598 63.6834 838.207 63.2929L831.843 56.9289C831.453 56.5384 830.819 56.5384 830.429 56.9289C830.038 57.3195 830.038 57.9526 830.429 58.3431L836.086 64L830.429 69.6569C830.038 70.0474 830.038 70.6805 830.429 71.0711C830.819 71.4616 831.453 71.4616 831.843 71.0711L838.207 64.7071ZM694.5 65H725.438V63H694.5V65ZM806.562 65H837.5V63H806.562V65Z" fill="#1A1B1D" style="fill:#1A1B1D;fill:color(display-p3 0.1020 0.1059 0.1137);fill-opacity:1;"/>
<path d="M741.613 62.6293H740.062C740.003 62.2978 739.891 62.0062 739.729 61.7543C739.567 61.5024 739.368 61.2886 739.132 61.1129C738.897 60.9373 738.634 60.8047 738.342 60.7152C738.054 60.6257 737.747 60.581 737.422 60.581C736.836 60.581 736.31 60.7285 735.846 61.0234C735.386 61.3184 735.021 61.7509 734.753 62.321C734.487 62.8911 734.355 63.5871 734.355 64.4091C734.355 65.2377 734.487 65.937 734.753 66.5071C735.021 67.0772 735.387 67.508 735.851 67.7997C736.315 68.0914 736.837 68.2372 737.417 68.2372C737.739 68.2372 738.044 68.1941 738.332 68.108C738.624 68.0185 738.887 67.8875 739.123 67.7152C739.358 67.5429 739.557 67.3324 739.719 67.0838C739.885 66.8319 739.999 66.5436 740.062 66.2188L741.613 66.2237C741.53 66.7242 741.37 67.1849 741.131 67.6058C740.896 68.0234 740.592 68.3847 740.221 68.6896C739.853 68.9912 739.432 69.2249 738.958 69.3906C738.485 69.5563 737.967 69.6392 737.407 69.6392C736.526 69.6392 735.74 69.4304 735.051 69.0128C734.361 68.5919 733.818 67.9903 733.42 67.2081C733.026 66.4259 732.829 65.4929 732.829 64.4091C732.829 63.322 733.027 62.389 733.425 61.6101C733.823 60.8279 734.366 60.228 735.056 59.8104C735.745 59.3894 736.529 59.179 737.407 59.179C737.948 59.179 738.451 59.2569 738.919 59.4126C739.389 59.5651 739.812 59.7905 740.186 60.0888C740.561 60.3838 740.871 60.745 741.116 61.1726C741.361 61.5968 741.527 62.0824 741.613 62.6293ZM744.089 69.5H742.459L746.123 59.3182H747.898L751.562 69.5H749.931L747.052 61.1676H746.973L744.089 69.5ZM744.363 65.5128H749.652V66.8054H744.363V65.5128ZM752.878 69.5V59.3182H754.414V68.1776H759.028V69.5H752.878ZM760.626 69.5V59.3182H762.162V68.1776H766.776V69.5H760.626ZM773.928 61.9929C773.875 61.5223 773.656 61.1577 773.272 60.8991C772.887 60.6373 772.403 60.5064 771.82 60.5064C771.402 60.5064 771.041 60.5727 770.736 60.7053C770.431 60.8345 770.194 61.0135 770.025 61.2422C769.859 61.4676 769.777 61.7244 769.777 62.0128C769.777 62.2547 769.833 62.4635 769.946 62.6392C770.062 62.8149 770.212 62.9624 770.398 63.0817C770.587 63.1977 770.789 63.2955 771.005 63.375C771.22 63.4512 771.427 63.5142 771.626 63.5639L772.62 63.8224C772.945 63.902 773.278 64.0097 773.62 64.1456C773.961 64.2815 774.278 64.4605 774.569 64.6825C774.861 64.9046 775.096 65.1797 775.275 65.5078C775.457 65.8359 775.549 66.2287 775.549 66.6861C775.549 67.2628 775.399 67.7749 775.101 68.2223C774.806 68.6697 774.377 69.0227 773.814 69.2812C773.253 69.5398 772.576 69.669 771.78 69.669C771.018 69.669 770.358 69.5481 769.801 69.3061C769.245 69.0642 768.809 68.7211 768.494 68.277C768.179 67.8295 768.005 67.2992 767.972 66.6861H769.513C769.543 67.054 769.662 67.3606 769.871 67.6058C770.083 67.8478 770.353 68.0284 770.681 68.1477C771.013 68.2637 771.376 68.3217 771.77 68.3217C772.204 68.3217 772.591 68.2538 772.929 68.1179C773.27 67.9787 773.538 67.7865 773.734 67.5412C773.93 67.2926 774.027 67.0026 774.027 66.6712C774.027 66.3696 773.941 66.1226 773.769 65.9304C773.6 65.7382 773.369 65.5791 773.078 65.4531C772.789 65.3272 772.463 65.2161 772.098 65.12L770.895 64.7919C770.08 64.5698 769.434 64.2434 768.956 63.8125C768.482 63.3816 768.245 62.8116 768.245 62.1023C768.245 61.5156 768.404 61.0036 768.723 60.5661C769.041 60.1286 769.472 59.7888 770.015 59.5469C770.559 59.3016 771.172 59.179 771.855 59.179C772.544 59.179 773.152 59.3 773.679 59.5419C774.21 59.7839 774.627 60.117 774.932 60.5412C775.237 60.9621 775.396 61.446 775.409 61.9929H773.928ZM782.565 69.5V70.7628H776.097V69.5H782.565ZM784.376 69.5H782.745L786.409 59.3182H788.184L791.848 69.5H790.218L787.339 61.1676H787.259L784.376 69.5ZM784.649 65.5128H789.939V66.8054H784.649V65.5128ZM791.459 60.6406V59.3182H799.339V60.6406H796.162V69.5H794.631V60.6406H791.459Z" fill="black" fill-opacity="0.8" style="fill:black;fill-opacity:0.8;"/>
<path d="M1250.5 63C1249.95 63 1249.5 63.4477 1249.5 64C1249.5 64.5523 1249.95 65 1250.5 65V63ZM1296.94 65C1297.49 65 1297.94 64.5523 1297.94 64C1297.94 63.4477 1297.49 63 1296.94 63V65ZM1347.06 63C1346.51 63 1346.06 63.4477 1346.06 64C1346.06 64.5523 1346.51 65 1347.06 65V63ZM1394.21 64.7071C1394.6 64.3166 1394.6 63.6834 1394.21 63.2929L1387.84 56.9289C1387.45 56.5384 1386.82 56.5384 1386.43 56.9289C1386.04 57.3195 1386.04 57.9526 1386.43 58.3431L1392.09 64L1386.43 69.6569C1386.04 70.0474 1386.04 70.6805 1386.43 71.0711C1386.82 71.4616 1387.45 71.4616 1387.84 71.0711L1394.21 64.7071ZM1250.5 65H1296.94V63H1250.5V65ZM1347.06 65H1393.5V63H1347.06V65Z" fill="#1A1B1D" style="fill:#1A1B1D;fill:color(display-p3 0.1020 0.1059 0.1137);fill-opacity:1;"/>
<path d="M1312.9 59.3182V69.5H1311.49L1306.31 62.0327H1306.22V69.5H1304.68V59.3182H1306.1L1311.28 66.7955H1311.38V59.3182H1312.9ZM1314.99 69.5V59.3182H1321.37V60.6406H1316.52V63.7429H1321.04V65.0604H1316.52V68.1776H1321.43V69.5H1314.99ZM1324.34 59.3182L1326.77 63.3004H1326.85L1329.29 59.3182H1331.07L1327.9 64.4091L1331.09 69.5H1329.3L1326.85 65.5724H1326.77L1324.33 69.5H1322.54L1325.78 64.4091L1322.56 59.3182H1324.34ZM1331.94 60.6406V59.3182H1339.82V60.6406H1336.64V69.5H1335.11V60.6406H1331.94Z" fill="black" fill-opacity="0.8" style="fill:black;fill-opacity:0.8;"/>
<path d="M1528.5 63C1527.95 63 1527.5 63.4477 1527.5 64C1527.5 64.5523 1527.95 65 1528.5 65V63ZM1559.44 65C1559.99 65 1560.44 64.5523 1560.44 64C1560.44 63.4477 1559.99 63 1559.44 63V65ZM1640.56 63C1640.01 63 1639.56 63.4477 1639.56 64C1639.56 64.5523 1640.01 65 1640.56 65V63ZM1672.21 64.7071C1672.6 64.3166 1672.6 63.6834 1672.21 63.2929L1665.84 56.9289C1665.45 56.5384 1664.82 56.5384 1664.43 56.9289C1664.04 57.3195 1664.04 57.9526 1664.43 58.3431L1670.09 64L1664.43 69.6569C1664.04 70.0474 1664.04 70.6805 1664.43 71.0711C1664.82 71.4616 1665.45 71.4616 1665.84 71.0711L1672.21 64.7071ZM1528.5 65H1559.44V63H1528.5V65ZM1640.56 65H1671.5V63H1640.56V65Z" fill="#1A1B1D" style="fill:#1A1B1D;fill:color(display-p3 0.1020 0.1059 0.1137);fill-opacity:1;"/>
<path d="M1575.61 62.6293H1574.06C1574 62.2978 1573.89 62.0062 1573.73 61.7543C1573.57 61.5024 1573.37 61.2886 1573.13 61.1129C1572.9 60.9373 1572.63 60.8047 1572.34 60.7152C1572.05 60.6257 1571.75 60.581 1571.42 60.581C1570.84 60.581 1570.31 60.7285 1569.85 61.0234C1569.39 61.3184 1569.02 61.7509 1568.75 62.321C1568.49 62.8911 1568.35 63.5871 1568.35 64.4091C1568.35 65.2377 1568.49 65.937 1568.75 66.5071C1569.02 67.0772 1569.39 67.508 1569.85 67.7997C1570.32 68.0914 1570.84 68.2372 1571.42 68.2372C1571.74 68.2372 1572.04 68.1941 1572.33 68.108C1572.62 68.0185 1572.89 67.8875 1573.12 67.7152C1573.36 67.5429 1573.56 67.3324 1573.72 67.0838C1573.88 66.8319 1574 66.5436 1574.06 66.2188L1575.61 66.2237C1575.53 66.7242 1575.37 67.1849 1575.13 67.6058C1574.9 68.0234 1574.59 68.3847 1574.22 68.6896C1573.85 68.9912 1573.43 69.2249 1572.96 69.3906C1572.48 69.5563 1571.97 69.6392 1571.41 69.6392C1570.53 69.6392 1569.74 69.4304 1569.05 69.0128C1568.36 68.5919 1567.82 67.9903 1567.42 67.2081C1567.03 66.4259 1566.83 65.4929 1566.83 64.4091C1566.83 63.322 1567.03 62.389 1567.43 61.6101C1567.82 60.8279 1568.37 60.228 1569.06 59.8104C1569.75 59.3894 1570.53 59.179 1571.41 59.179C1571.95 59.179 1572.45 59.2569 1572.92 59.4126C1573.39 59.5651 1573.81 59.7905 1574.19 60.0888C1574.56 60.3838 1574.87 60.745 1575.12 61.1726C1575.36 61.5968 1575.53 62.0824 1575.61 62.6293ZM1578.09 69.5H1576.46L1580.12 59.3182H1581.9L1585.56 69.5H1583.93L1581.05 61.1676H1580.97L1578.09 69.5ZM1578.36 65.5128H1583.65V66.8054H1578.36V65.5128ZM1586.88 69.5V59.3182H1588.41V68.1776H1593.03V69.5H1586.88ZM1594.63 69.5V59.3182H1596.16V68.1776H1600.78V69.5H1594.63ZM1607.93 61.9929C1607.87 61.5223 1607.66 61.1577 1607.27 60.8991C1606.89 60.6373 1606.4 60.5064 1605.82 60.5064C1605.4 60.5064 1605.04 60.5727 1604.74 60.7053C1604.43 60.8345 1604.19 61.0135 1604.03 61.2422C1603.86 61.4676 1603.78 61.7244 1603.78 62.0128C1603.78 62.2547 1603.83 62.4635 1603.95 62.6392C1604.06 62.8149 1604.21 62.9624 1604.4 63.0817C1604.59 63.1977 1604.79 63.2955 1605 63.375C1605.22 63.4512 1605.43 63.5142 1605.63 63.5639L1606.62 63.8224C1606.95 63.902 1607.28 64.0097 1607.62 64.1456C1607.96 64.2815 1608.28 64.4605 1608.57 64.6825C1608.86 64.9046 1609.1 65.1797 1609.28 65.5078C1609.46 65.8359 1609.55 66.2287 1609.55 66.6861C1609.55 67.2628 1609.4 67.7749 1609.1 68.2223C1608.81 68.6697 1608.38 69.0227 1607.81 69.2812C1607.25 69.5398 1606.58 69.669 1605.78 69.669C1605.02 69.669 1604.36 69.5481 1603.8 69.3061C1603.24 69.0642 1602.81 68.7211 1602.49 68.277C1602.18 67.8295 1602.01 67.2992 1601.97 66.6861H1603.51C1603.54 67.054 1603.66 67.3606 1603.87 67.6058C1604.08 67.8478 1604.35 68.0284 1604.68 68.1477C1605.01 68.2637 1605.38 68.3217 1605.77 68.3217C1606.2 68.3217 1606.59 68.2538 1606.93 68.1179C1607.27 67.9787 1607.54 67.7865 1607.73 67.5412C1607.93 67.2926 1608.03 67.0026 1608.03 66.6712C1608.03 66.3696 1607.94 66.1226 1607.77 65.9304C1607.6 65.7382 1607.37 65.5791 1607.08 65.4531C1606.79 65.3272 1606.46 65.2161 1606.1 65.12L1604.9 64.7919C1604.08 64.5698 1603.43 64.2434 1602.96 63.8125C1602.48 63.3816 1602.25 62.8116 1602.25 62.1023C1602.25 61.5156 1602.4 61.0036 1602.72 60.5661C1603.04 60.1286 1603.47 59.7888 1604.02 59.5469C1604.56 59.3016 1605.17 59.179 1605.85 59.179C1606.54 59.179 1607.15 59.3 1607.68 59.5419C1608.21 59.7839 1608.63 60.117 1608.93 60.5412C1609.24 60.9621 1609.4 61.446 1609.41 61.9929H1607.93ZM1616.56 69.5V70.7628H1610.1V69.5H1616.56ZM1618.38 69.5H1616.75L1620.41 59.3182H1622.18L1625.85 69.5H1624.22L1621.34 61.1676H1621.26L1618.38 69.5ZM1618.65 65.5128H1623.94V66.8054H1618.65V65.5128ZM1625.46 60.6406V59.3182H1633.34V60.6406H1630.16V69.5H1628.63V60.6406H1625.46Z" fill="black" fill-opacity="0.8" style="fill:black;fill-opacity:0.8;"/>
</svg>
