<svg width="4175" height="866" viewBox="0 0 4175 866" fill="none" xmlns="http://www.w3.org/2000/svg">
<path d="M15 433C15 397.654 43.6538 369 79 369C114.346 369 143 397.654 143 433C143 468.346 114.346 497 79 497C43.6538 497 15 468.346 15 433Z" fill="#FFDF81" style="fill:#FFDF81;fill:color(display-p3 1.0000 0.8745 0.5059);fill-opacity:1;"/>
<g filter="url(#filter0_d_960_7699)">
<path d="M10 433C10 394.892 40.8924 364 79 364C117.108 364 148 394.892 148 433C148 471.108 117.108 502 79 502C40.8924 502 10 471.108 10 433Z" stroke="#30839D" style="stroke:#30839D;stroke:color(display-p3 0.1882 0.5137 0.6157);stroke-opacity:1;" stroke-width="4" shape-rendering="crispEdges"/>
</g>
<path d="M473 433C473 397.654 501.654 369 537 369C572.346 369 601 397.654 601 433C601 468.346 572.346 497 537 497C501.654 497 473 468.346 473 433Z" fill="#CFD1D4" style="fill:#CFD1D4;fill:color(display-p3 0.8118 0.8196 0.8314);fill-opacity:1;"/>
<path d="M931 433C931 397.654 959.654 369 995 369C1030.35 369 1059 397.654 1059 433C1059 468.346 1030.35 497 995 497C959.654 497 931 468.346 931 433Z" fill="#CFD1D4" style="fill:#CFD1D4;fill:color(display-p3 0.8118 0.8196 0.8314);fill-opacity:1;"/>
<path d="M1389 433C1389 397.654 1417.65 369 1453 369C1488.35 369 1517 397.654 1517 433C1517 468.346 1488.35 497 1453 497C1417.65 497 1389 468.346 1389 433Z" fill="#FFDF81" style="fill:#FFDF81;fill:color(display-p3 1.0000 0.8745 0.5059);fill-opacity:1;"/>
<g filter="url(#filter1_d_960_7699)">
<path d="M1384 433C1384 394.892 1414.89 364 1453 364C1491.11 364 1522 394.892 1522 433C1522 471.108 1491.11 502 1453 502C1414.89 502 1384 471.108 1384 433Z" stroke="#30839D" style="stroke:#30839D;stroke:color(display-p3 0.1882 0.5137 0.6157);stroke-opacity:1;" stroke-width="4" shape-rendering="crispEdges"/>
</g>
<path d="M1847 433C1847 397.654 1875.65 369 1911 369C1946.35 369 1975 397.654 1975 433C1975 468.346 1946.35 497 1911 497C1875.65 497 1847 468.346 1847 433Z" fill="#CFD1D4" style="fill:#CFD1D4;fill:color(display-p3 0.8118 0.8196 0.8314);fill-opacity:1;"/>
<path d="M15 64C15 28.6538 43.6538 0 79 0C114.346 0 143 28.6538 143 64C143 99.3462 114.346 128 79 128C43.6538 128 15 99.3462 15 64Z" fill="#8DCC93" style="fill:#8DCC93;fill:color(display-p3 0.5529 0.8000 0.5765);fill-opacity:1;"/>
<path d="M15 802C15 766.654 43.6538 738 79 738C114.346 738 143 766.654 143 802C143 837.346 114.346 866 79 866C43.6538 866 15 837.346 15 802Z" fill="#CFD1D4" style="fill:#CFD1D4;fill:color(display-p3 0.8118 0.8196 0.8314);fill-opacity:1;"/>
<path d="M473 64C473 28.6538 501.654 0 537 0C572.346 0 601 28.6538 601 64C601 99.3462 572.346 128 537 128C501.654 128 473 99.3462 473 64Z" fill="#8DCC93" style="fill:#8DCC93;fill:color(display-p3 0.5529 0.8000 0.5765);fill-opacity:1;"/>
<path d="M1389 64C1389 28.6538 1417.65 0 1453 0C1488.35 0 1517 28.6538 1517 64C1517 99.3462 1488.35 128 1453 128C1417.65 128 1389 99.3462 1389 64Z" fill="#8DCC93" style="fill:#8DCC93;fill:color(display-p3 0.5529 0.8000 0.5765);fill-opacity:1;"/>
<path d="M931 64C931 28.6538 959.654 0 995 0C1030.35 0 1059 28.6538 1059 64C1059 99.3462 1030.35 128 995 128C959.654 128 931 99.3462 931 64Z" fill="#8DCC93" style="fill:#8DCC93;fill:color(display-p3 0.5529 0.8000 0.5765);fill-opacity:1;"/>
<path d="M1389 802C1389 766.654 1417.65 738 1453 738C1488.35 738 1517 766.654 1517 802C1517 837.346 1488.35 866 1453 866C1417.65 866 1389 837.346 1389 802Z" fill="#CFD1D4" style="fill:#CFD1D4;fill:color(display-p3 0.8118 0.8196 0.8314);fill-opacity:1;"/>
<path d="M1385.5 803C1386.05 803 1386.5 802.552 1386.5 802C1386.5 801.448 1386.05 801 1385.5 801V803ZM145.793 801.293C145.402 801.683 145.402 802.317 145.793 802.707L152.157 809.071C152.547 809.462 153.181 809.462 153.571 809.071C153.962 808.681 153.962 808.047 153.571 807.657L147.914 802L153.571 796.343C153.962 795.953 153.962 795.319 153.571 794.929C153.181 794.538 152.547 794.538 152.157 794.929L145.793 801.293ZM1385.5 801H146.5V803H1385.5V801Z" fill="#1A1B1D" style="fill:#1A1B1D;fill:color(display-p3 0.1020 0.1059 0.1137);fill-opacity:1;"/>
<path d="M1452 734.5C1452 735.052 1452.45 735.5 1453 735.5C1453.55 735.5 1454 735.052 1454 734.5H1452ZM1453.71 499.793C1453.32 499.402 1452.68 499.402 1452.29 499.793L1445.93 506.157C1445.54 506.547 1445.54 507.181 1445.93 507.571C1446.32 507.962 1446.95 507.962 1447.34 507.571L1453 501.914L1458.66 507.571C1459.05 507.962 1459.68 507.962 1460.07 507.571C1460.46 507.181 1460.46 506.547 1460.07 506.157L1453.71 499.793ZM1454 734.5V500.5H1452V734.5H1454Z" fill="#1A1B1D" style="fill:#1A1B1D;fill:color(display-p3 0.1020 0.1059 0.1137);fill-opacity:1;"/>
<path d="M78 734.5C78 735.052 78.4477 735.5 79 735.5C79.5523 735.5 80 735.052 80 734.5H78ZM79.7071 499.793C79.3166 499.402 78.6834 499.402 78.2929 499.793L71.9289 506.157C71.5384 506.547 71.5384 507.181 71.9289 507.571C72.3195 507.962 72.9526 507.962 73.3431 507.571L79 501.914L84.6569 507.571C85.0474 507.962 85.6805 507.962 86.0711 507.571C86.4616 507.181 86.4616 506.547 86.0711 506.157L79.7071 499.793ZM80 734.5V500.5H78V734.5H80Z" fill="#1A1B1D" style="fill:#1A1B1D;fill:color(display-p3 0.1020 0.1059 0.1137);fill-opacity:1;"/>
<path d="M81 134C81 132.895 80.1046 132 79 132C77.8954 132 77 132.895 77 134H81ZM77.5858 363.914C78.3668 364.695 79.6332 364.695 80.4142 363.914L93.1421 351.186C93.9232 350.405 93.9232 349.139 93.1421 348.358C92.3611 347.577 91.0948 347.577 90.3137 348.358L79 359.672L67.6863 348.358C66.9052 347.577 65.6389 347.577 64.8579 348.358C64.0768 349.139 64.0768 350.405 64.8579 351.186L77.5858 363.914ZM77 134V362.5H81V134H77Z" fill="#90CB62" style="fill:#90CB62;fill:color(display-p3 0.5647 0.7961 0.3843);fill-opacity:1;"/>
<path d="M467 66C468.105 66 469 65.1046 469 64C469 62.8954 468.105 62 467 62V66ZM148.086 62.5858C147.305 63.3668 147.305 64.6332 148.086 65.4142L160.814 78.1421C161.595 78.9232 162.861 78.9232 163.642 78.1421C164.423 77.3611 164.423 76.0948 163.642 75.3137L152.328 64L163.642 52.6863C164.423 51.9052 164.423 50.6389 163.642 49.8579C162.861 49.0768 161.595 49.0768 160.814 49.8579L148.086 62.5858ZM467 62H149.5V66H467V62Z" fill="#90CB62" style="fill:#90CB62;fill:color(display-p3 0.5647 0.7961 0.3843);fill-opacity:1;"/>
<path d="M538 131.5C538 130.948 537.552 130.5 537 130.5C536.448 130.5 536 130.948 536 131.5H538ZM536.293 366.207C536.683 366.598 537.317 366.598 537.707 366.207L544.071 359.843C544.462 359.453 544.462 358.819 544.071 358.429C543.681 358.038 543.047 358.038 542.657 358.429L537 364.086L531.343 358.429C530.953 358.038 530.319 358.038 529.929 358.429C529.538 358.819 529.538 359.453 529.929 359.843L536.293 366.207ZM536 131.5V365.5H538V131.5H536Z" fill="#1A1B1D" style="fill:#1A1B1D;fill:color(display-p3 0.1020 0.1059 0.1137);fill-opacity:1;"/>
<path d="M925 66C926.105 66 927 65.1046 927 64C927 62.8954 926.105 62 925 62V66ZM606.086 62.5858C605.305 63.3668 605.305 64.6332 606.086 65.4142L618.814 78.1421C619.595 78.9232 620.861 78.9232 621.642 78.1421C622.423 77.3611 622.423 76.0948 621.642 75.3137L610.328 64L621.642 52.6863C622.423 51.9052 622.423 50.6389 621.642 49.8579C620.861 49.0768 619.595 49.0768 618.814 49.8579L606.086 62.5858ZM925 62H607.5V66H925V62Z" fill="#90CB62" style="fill:#90CB62;fill:color(display-p3 0.5647 0.7961 0.3843);fill-opacity:1;"/>
<path d="M996 131.5C996 130.948 995.552 130.5 995 130.5C994.448 130.5 994 130.948 994 131.5H996ZM994.293 366.207C994.683 366.598 995.317 366.598 995.707 366.207L1002.07 359.843C1002.46 359.453 1002.46 358.819 1002.07 358.429C1001.68 358.038 1001.05 358.038 1000.66 358.429L995 364.086L989.343 358.429C988.953 358.038 988.319 358.038 987.929 358.429C987.538 358.819 987.538 359.453 987.929 359.843L994.293 366.207ZM994 131.5V365.5H996V131.5H994Z" fill="#1A1B1D" style="fill:#1A1B1D;fill:color(display-p3 0.1020 0.1059 0.1137);fill-opacity:1;"/>
<path d="M1383 66C1384.1 66 1385 65.1046 1385 64C1385 62.8954 1384.1 62 1383 62V66ZM1064.09 62.5858C1063.3 63.3668 1063.3 64.6332 1064.09 65.4142L1076.81 78.1421C1077.59 78.9232 1078.86 78.9232 1079.64 78.1421C1080.42 77.3611 1080.42 76.0948 1079.64 75.3137L1068.33 64L1079.64 52.6863C1080.42 51.9052 1080.42 50.6389 1079.64 49.8579C1078.86 49.0768 1077.59 49.0768 1076.81 49.8579L1064.09 62.5858ZM1383 62H1065.5V66H1383V62Z" fill="#90CB62" style="fill:#90CB62;fill:color(display-p3 0.5647 0.7961 0.3843);fill-opacity:1;"/>
<path d="M1455 134C1455 132.895 1454.1 132 1453 132C1451.9 132 1451 132.895 1451 134H1455ZM1451.59 363.914C1452.37 364.695 1453.63 364.695 1454.41 363.914L1467.14 351.186C1467.92 350.405 1467.92 349.139 1467.14 348.358C1466.36 347.577 1465.09 347.577 1464.31 348.358L1453 359.672L1441.69 348.358C1440.91 347.577 1439.64 347.577 1438.86 348.358C1438.08 349.139 1438.08 350.405 1438.86 351.186L1451.59 363.914ZM1451 134V362.5H1455V134H1451Z" fill="#90CB62" style="fill:#90CB62;fill:color(display-p3 0.5647 0.7961 0.3843);fill-opacity:1;"/>
<path d="M1847 64C1847 28.6538 1875.65 0 1911 0C1946.35 0 1975 28.6538 1975 64C1975 99.3462 1946.35 128 1911 128C1875.65 128 1847 99.3462 1847 64Z" fill="#CFD1D4" style="fill:#CFD1D4;fill:color(display-p3 0.8118 0.8196 0.8314);fill-opacity:1;"/>
<path d="M1843.5 65C1844.05 65 1844.5 64.5523 1844.5 64C1844.5 63.4477 1844.05 63 1843.5 63V65ZM1519.79 63.2929C1519.4 63.6834 1519.4 64.3166 1519.79 64.7071L1526.16 71.0711C1526.55 71.4616 1527.18 71.4616 1527.57 71.0711C1527.96 70.6805 1527.96 70.0474 1527.57 69.6569L1521.91 64L1527.57 58.3431C1527.96 57.9526 1527.96 57.3195 1527.57 56.9289C1527.18 56.5384 1526.55 56.5384 1526.16 56.9289L1519.79 63.2929ZM1843.5 63H1520.5V65H1843.5V63Z" fill="#1A1B1D" style="fill:#1A1B1D;fill:color(display-p3 0.1020 0.1059 0.1137);fill-opacity:1;"/>
<path d="M1912 131.5C1912 130.948 1911.55 130.5 1911 130.5C1910.45 130.5 1910 130.948 1910 131.5H1912ZM1910.29 366.207C1910.68 366.598 1911.32 366.598 1911.71 366.207L1918.07 359.843C1918.46 359.453 1918.46 358.819 1918.07 358.429C1917.68 358.038 1917.05 358.038 1916.66 358.429L1911 364.086L1905.34 358.429C1904.95 358.038 1904.32 358.038 1903.93 358.429C1903.54 358.819 1903.54 359.453 1903.93 359.843L1910.29 366.207ZM1910 131.5V365.5H1912V131.5H1910Z" fill="#1A1B1D" style="fill:#1A1B1D;fill:color(display-p3 0.1020 0.1059 0.1137);fill-opacity:1;"/>
<path d="M2215 433C2215 397.654 2243.65 369 2279 369C2314.35 369 2343 397.654 2343 433C2343 468.346 2314.35 497 2279 497C2243.65 497 2215 468.346 2215 433Z" fill="#FFDF81" style="fill:#FFDF81;fill:color(display-p3 1.0000 0.8745 0.5059);fill-opacity:1;"/>
<g filter="url(#filter2_d_960_7699)">
<path d="M2210 433C2210 394.892 2240.89 364 2279 364C2317.11 364 2348 394.892 2348 433C2348 471.108 2317.11 502 2279 502C2240.89 502 2210 471.108 2210 433Z" stroke="#30839D" style="stroke:#30839D;stroke:color(display-p3 0.1882 0.5137 0.6157);stroke-opacity:1;" stroke-width="4" shape-rendering="crispEdges"/>
</g>
<path d="M2673 433C2673 397.654 2701.65 369 2737 369C2772.35 369 2801 397.654 2801 433C2801 468.346 2772.35 497 2737 497C2701.65 497 2673 468.346 2673 433Z" fill="#CFD1D4" style="fill:#CFD1D4;fill:color(display-p3 0.8118 0.8196 0.8314);fill-opacity:1;"/>
<path d="M3131 433C3131 397.654 3159.65 369 3195 369C3230.35 369 3259 397.654 3259 433C3259 468.346 3230.35 497 3195 497C3159.65 497 3131 468.346 3131 433Z" fill="#CFD1D4" style="fill:#CFD1D4;fill:color(display-p3 0.8118 0.8196 0.8314);fill-opacity:1;"/>
<path d="M3589 433C3589 397.654 3617.65 369 3653 369C3688.35 369 3717 397.654 3717 433C3717 468.346 3688.35 497 3653 497C3617.65 497 3589 468.346 3589 433Z" fill="#FFDF81" style="fill:#FFDF81;fill:color(display-p3 1.0000 0.8745 0.5059);fill-opacity:1;"/>
<g filter="url(#filter3_d_960_7699)">
<path d="M3584 433C3584 394.892 3614.89 364 3653 364C3691.11 364 3722 394.892 3722 433C3722 471.108 3691.11 502 3653 502C3614.89 502 3584 471.108 3584 433Z" stroke="#30839D" style="stroke:#30839D;stroke:color(display-p3 0.1882 0.5137 0.6157);stroke-opacity:1;" stroke-width="4" shape-rendering="crispEdges"/>
</g>
<path d="M4047 433C4047 397.654 4075.65 369 4111 369C4146.35 369 4175 397.654 4175 433C4175 468.346 4146.35 497 4111 497C4075.65 497 4047 468.346 4047 433Z" fill="#CFD1D4" style="fill:#CFD1D4;fill:color(display-p3 0.8118 0.8196 0.8314);fill-opacity:1;"/>
<path d="M2215 64C2215 28.6538 2243.65 0 2279 0C2314.35 0 2343 28.6538 2343 64C2343 99.3462 2314.35 128 2279 128C2243.65 128 2215 99.3462 2215 64Z" fill="#CFD1D4" style="fill:#CFD1D4;fill:color(display-p3 0.8118 0.8196 0.8314);fill-opacity:1;"/>
<path d="M2215 802C2215 766.654 2243.65 738 2279 738C2314.35 738 2343 766.654 2343 802C2343 837.346 2314.35 866 2279 866C2243.65 866 2215 837.346 2215 802Z" fill="#8DCC93" style="fill:#8DCC93;fill:color(display-p3 0.5529 0.8000 0.5765);fill-opacity:1;"/>
<path d="M2673 64C2673 28.6538 2701.65 0 2737 0C2772.35 0 2801 28.6538 2801 64C2801 99.3462 2772.35 128 2737 128C2701.65 128 2673 99.3462 2673 64Z" fill="#CFD1D4" style="fill:#CFD1D4;fill:color(display-p3 0.8118 0.8196 0.8314);fill-opacity:1;"/>
<path d="M3589 64C3589 28.6538 3617.65 0 3653 0C3688.35 0 3717 28.6538 3717 64C3717 99.3462 3688.35 128 3653 128C3617.65 128 3589 99.3462 3589 64Z" fill="#CFD1D4" style="fill:#CFD1D4;fill:color(display-p3 0.8118 0.8196 0.8314);fill-opacity:1;"/>
<path d="M3131 64C3131 28.6538 3159.65 0 3195 0C3230.35 0 3259 28.6538 3259 64C3259 99.3462 3230.35 128 3195 128C3159.65 128 3131 99.3462 3131 64Z" fill="#CFD1D4" style="fill:#CFD1D4;fill:color(display-p3 0.8118 0.8196 0.8314);fill-opacity:1;"/>
<path d="M3589 802C3589 766.654 3617.65 738 3653 738C3688.35 738 3717 766.654 3717 802C3717 837.346 3688.35 866 3653 866C3617.65 866 3589 837.346 3589 802Z" fill="#8DCC93" style="fill:#8DCC93;fill:color(display-p3 0.5529 0.8000 0.5765);fill-opacity:1;"/>
<path d="M3583 804C3584.1 804 3585 803.105 3585 802C3585 800.895 3584.1 800 3583 800V804ZM2348.09 800.586C2347.3 801.367 2347.3 802.633 2348.09 803.414L2360.81 816.142C2361.59 816.923 2362.86 816.923 2363.64 816.142C2364.42 815.361 2364.42 814.095 2363.64 813.314L2352.33 802L2363.64 790.686C2364.42 789.905 2364.42 788.639 2363.64 787.858C2362.86 787.077 2361.59 787.077 2360.81 787.858L2348.09 800.586ZM3583 800H2349.5V804H3583V800Z" fill="#90CB62" style="fill:#90CB62;fill:color(display-p3 0.5647 0.7961 0.3843);fill-opacity:1;"/>
<path d="M3651 732C3651 733.105 3651.9 734 3653 734C3654.1 734 3655 733.105 3655 732H3651ZM3654.41 502.086C3653.63 501.305 3652.37 501.305 3651.59 502.086L3638.86 514.814C3638.08 515.595 3638.08 516.861 3638.86 517.642C3639.64 518.423 3640.91 518.423 3641.69 517.642L3653 506.328L3664.31 517.642C3665.09 518.423 3666.36 518.423 3667.14 517.642C3667.92 516.861 3667.92 515.595 3667.14 514.814L3654.41 502.086ZM3655 732V503.5H3651V732H3655Z" fill="#90CB62" style="fill:#90CB62;fill:color(display-p3 0.5647 0.7961 0.3843);fill-opacity:1;"/>
<path d="M2277 732C2277 733.105 2277.9 734 2279 734C2280.1 734 2281 733.105 2281 732H2277ZM2280.41 502.086C2279.63 501.305 2278.37 501.305 2277.59 502.086L2264.86 514.814C2264.08 515.595 2264.08 516.861 2264.86 517.642C2265.64 518.423 2266.91 518.423 2267.69 517.642L2279 506.328L2290.31 517.642C2291.09 518.423 2292.36 518.423 2293.14 517.642C2293.92 516.861 2293.92 515.595 2293.14 514.814L2280.41 502.086ZM2281 732V503.5H2277V732H2281Z" fill="#90CB62" style="fill:#90CB62;fill:color(display-p3 0.5647 0.7961 0.3843);fill-opacity:1;"/>
<path d="M2280 131.5C2280 130.948 2279.55 130.5 2279 130.5C2278.45 130.5 2278 130.948 2278 131.5H2280ZM2278.29 366.207C2278.68 366.598 2279.32 366.598 2279.71 366.207L2286.07 359.843C2286.46 359.453 2286.46 358.819 2286.07 358.429C2285.68 358.038 2285.05 358.038 2284.66 358.429L2279 364.086L2273.34 358.429C2272.95 358.038 2272.32 358.038 2271.93 358.429C2271.54 358.819 2271.54 359.453 2271.93 359.843L2278.29 366.207ZM2278 131.5V365.5H2280V131.5H2278Z" fill="#1A1B1D" style="fill:#1A1B1D;fill:color(display-p3 0.1020 0.1059 0.1137);fill-opacity:1;"/>
<path d="M2669.5 65C2670.05 65 2670.5 64.5523 2670.5 64C2670.5 63.4477 2670.05 63 2669.5 63V65ZM2345.79 63.2929C2345.4 63.6834 2345.4 64.3166 2345.79 64.7071L2352.16 71.0711C2352.55 71.4616 2353.18 71.4616 2353.57 71.0711C2353.96 70.6805 2353.96 70.0474 2353.57 69.6569L2347.91 64L2353.57 58.3431C2353.96 57.9526 2353.96 57.3195 2353.57 56.9289C2353.18 56.5384 2352.55 56.5384 2352.16 56.9289L2345.79 63.2929ZM2669.5 63H2346.5V65H2669.5V63Z" fill="#1A1B1D" style="fill:#1A1B1D;fill:color(display-p3 0.1020 0.1059 0.1137);fill-opacity:1;"/>
<path d="M2738 131.5C2738 130.948 2737.55 130.5 2737 130.5C2736.45 130.5 2736 130.948 2736 131.5H2738ZM2736.29 366.207C2736.68 366.598 2737.32 366.598 2737.71 366.207L2744.07 359.843C2744.46 359.453 2744.46 358.819 2744.07 358.429C2743.68 358.038 2743.05 358.038 2742.66 358.429L2737 364.086L2731.34 358.429C2730.95 358.038 2730.32 358.038 2729.93 358.429C2729.54 358.819 2729.54 359.453 2729.93 359.843L2736.29 366.207ZM2736 131.5V365.5H2738V131.5H2736Z" fill="#1A1B1D" style="fill:#1A1B1D;fill:color(display-p3 0.1020 0.1059 0.1137);fill-opacity:1;"/>
<path d="M3127.5 65C3128.05 65 3128.5 64.5523 3128.5 64C3128.5 63.4477 3128.05 63 3127.5 63V65ZM2803.79 63.2929C2803.4 63.6834 2803.4 64.3166 2803.79 64.7071L2810.16 71.0711C2810.55 71.4616 2811.18 71.4616 2811.57 71.0711C2811.96 70.6805 2811.96 70.0474 2811.57 69.6569L2805.91 64L2811.57 58.3431C2811.96 57.9526 2811.96 57.3195 2811.57 56.9289C2811.18 56.5384 2810.55 56.5384 2810.16 56.9289L2803.79 63.2929ZM3127.5 63H2804.5V65H3127.5V63Z" fill="#1A1B1D" style="fill:#1A1B1D;fill:color(display-p3 0.1020 0.1059 0.1137);fill-opacity:1;"/>
<path d="M3196 131.5C3196 130.948 3195.55 130.5 3195 130.5C3194.45 130.5 3194 130.948 3194 131.5H3196ZM3194.29 366.207C3194.68 366.598 3195.32 366.598 3195.71 366.207L3202.07 359.843C3202.46 359.453 3202.46 358.819 3202.07 358.429C3201.68 358.038 3201.05 358.038 3200.66 358.429L3195 364.086L3189.34 358.429C3188.95 358.038 3188.32 358.038 3187.93 358.429C3187.54 358.819 3187.54 359.453 3187.93 359.843L3194.29 366.207ZM3194 131.5V365.5H3196V131.5H3194Z" fill="#1A1B1D" style="fill:#1A1B1D;fill:color(display-p3 0.1020 0.1059 0.1137);fill-opacity:1;"/>
<path d="M3585.5 65C3586.05 65 3586.5 64.5523 3586.5 64C3586.5 63.4477 3586.05 63 3585.5 63V65ZM3261.79 63.2929C3261.4 63.6834 3261.4 64.3166 3261.79 64.7071L3268.16 71.0711C3268.55 71.4616 3269.18 71.4616 3269.57 71.0711C3269.96 70.6805 3269.96 70.0474 3269.57 69.6569L3263.91 64L3269.57 58.3431C3269.96 57.9526 3269.96 57.3195 3269.57 56.9289C3269.18 56.5384 3268.55 56.5384 3268.16 56.9289L3261.79 63.2929ZM3585.5 63H3262.5V65H3585.5V63Z" fill="#1A1B1D" style="fill:#1A1B1D;fill:color(display-p3 0.1020 0.1059 0.1137);fill-opacity:1;"/>
<path d="M3654 131.5C3654 130.948 3653.55 130.5 3653 130.5C3652.45 130.5 3652 130.948 3652 131.5H3654ZM3652.29 366.207C3652.68 366.598 3653.32 366.598 3653.71 366.207L3660.07 359.843C3660.46 359.453 3660.46 358.819 3660.07 358.429C3659.68 358.038 3659.05 358.038 3658.66 358.429L3653 364.086L3647.34 358.429C3646.95 358.038 3646.32 358.038 3645.93 358.429C3645.54 358.819 3645.54 359.453 3645.93 359.843L3652.29 366.207ZM3652 131.5V365.5H3654V131.5H3652Z" fill="#1A1B1D" style="fill:#1A1B1D;fill:color(display-p3 0.1020 0.1059 0.1137);fill-opacity:1;"/>
<path d="M4047 64C4047 28.6538 4075.65 0 4111 0C4146.35 0 4175 28.6538 4175 64C4175 99.3462 4146.35 128 4111 128C4075.65 128 4047 99.3462 4047 64Z" fill="#CFD1D4" style="fill:#CFD1D4;fill:color(display-p3 0.8118 0.8196 0.8314);fill-opacity:1;"/>
<path d="M4043.5 65C4044.05 65 4044.5 64.5523 4044.5 64C4044.5 63.4477 4044.05 63 4043.5 63V65ZM3719.79 63.2929C3719.4 63.6834 3719.4 64.3166 3719.79 64.7071L3726.16 71.0711C3726.55 71.4616 3727.18 71.4616 3727.57 71.0711C3727.96 70.6805 3727.96 70.0474 3727.57 69.6569L3721.91 64L3727.57 58.3431C3727.96 57.9526 3727.96 57.3195 3727.57 56.9289C3727.18 56.5384 3726.55 56.5384 3726.16 56.9289L3719.79 63.2929ZM4043.5 63H3720.5V65H4043.5V63Z" fill="#1A1B1D" style="fill:#1A1B1D;fill:color(display-p3 0.1020 0.1059 0.1137);fill-opacity:1;"/>
<path d="M4112 131.5C4112 130.948 4111.55 130.5 4111 130.5C4110.45 130.5 4110 130.948 4110 131.5H4112ZM4110.29 366.207C4110.68 366.598 4111.32 366.598 4111.71 366.207L4118.07 359.843C4118.46 359.453 4118.46 358.819 4118.07 358.429C4117.68 358.038 4117.05 358.038 4116.66 358.429L4111 364.086L4105.34 358.429C4104.95 358.038 4104.32 358.038 4103.93 358.429C4103.54 358.819 4103.54 359.453 4103.93 359.843L4110.29 366.207ZM4110 131.5V365.5H4112V131.5H4110Z" fill="#1A1B1D" style="fill:#1A1B1D;fill:color(display-p3 0.1020 0.1059 0.1137);fill-opacity:1;"/>
<defs>
<filter id="filter0_d_960_7699" x="0" y="358" width="158" height="158" filterUnits="userSpaceOnUse" color-interpolation-filters="sRGB">
<feFlood flood-opacity="0" result="BackgroundImageFix"/>
<feColorMatrix in="SourceAlpha" type="matrix" values="0 0 0 0 0 0 0 0 0 0 0 0 0 0 0 0 0 0 127 0" result="hardAlpha"/>
<feOffset dy="4"/>
<feGaussianBlur stdDeviation="4"/>
<feComposite in2="hardAlpha" operator="out"/>
<feColorMatrix type="matrix" values="0 0 0 0 0.101961 0 0 0 0 0.105882 0 0 0 0 0.113725 0 0 0 0.12 0"/>
<feBlend mode="normal" in2="BackgroundImageFix" result="effect1_dropShadow_960_7699"/>
<feBlend mode="normal" in="SourceGraphic" in2="effect1_dropShadow_960_7699" result="shape"/>
</filter>
<filter id="filter1_d_960_7699" x="1374" y="358" width="158" height="158" filterUnits="userSpaceOnUse" color-interpolation-filters="sRGB">
<feFlood flood-opacity="0" result="BackgroundImageFix"/>
<feColorMatrix in="SourceAlpha" type="matrix" values="0 0 0 0 0 0 0 0 0 0 0 0 0 0 0 0 0 0 127 0" result="hardAlpha"/>
<feOffset dy="4"/>
<feGaussianBlur stdDeviation="4"/>
<feComposite in2="hardAlpha" operator="out"/>
<feColorMatrix type="matrix" values="0 0 0 0 0.101961 0 0 0 0 0.105882 0 0 0 0 0.113725 0 0 0 0.12 0"/>
<feBlend mode="normal" in2="BackgroundImageFix" result="effect1_dropShadow_960_7699"/>
<feBlend mode="normal" in="SourceGraphic" in2="effect1_dropShadow_960_7699" result="shape"/>
</filter>
<filter id="filter2_d_960_7699" x="2200" y="358" width="158" height="158" filterUnits="userSpaceOnUse" color-interpolation-filters="sRGB">
<feFlood flood-opacity="0" result="BackgroundImageFix"/>
<feColorMatrix in="SourceAlpha" type="matrix" values="0 0 0 0 0 0 0 0 0 0 0 0 0 0 0 0 0 0 127 0" result="hardAlpha"/>
<feOffset dy="4"/>
<feGaussianBlur stdDeviation="4"/>
<feComposite in2="hardAlpha" operator="out"/>
<feColorMatrix type="matrix" values="0 0 0 0 0.101961 0 0 0 0 0.105882 0 0 0 0 0.113725 0 0 0 0.12 0"/>
<feBlend mode="normal" in2="BackgroundImageFix" result="effect1_dropShadow_960_7699"/>
<feBlend mode="normal" in="SourceGraphic" in2="effect1_dropShadow_960_7699" result="shape"/>
</filter>
<filter id="filter3_d_960_7699" x="3574" y="358" width="158" height="158" filterUnits="userSpaceOnUse" color-interpolation-filters="sRGB">
<feFlood flood-opacity="0" result="BackgroundImageFix"/>
<feColorMatrix in="SourceAlpha" type="matrix" values="0 0 0 0 0 0 0 0 0 0 0 0 0 0 0 0 0 0 127 0" result="hardAlpha"/>
<feOffset dy="4"/>
<feGaussianBlur stdDeviation="4"/>
<feComposite in2="hardAlpha" operator="out"/>
<feColorMatrix type="matrix" values="0 0 0 0 0.101961 0 0 0 0 0.105882 0 0 0 0 0.113725 0 0 0 0.12 0"/>
<feBlend mode="normal" in2="BackgroundImageFix" result="effect1_dropShadow_960_7699"/>
<feBlend mode="normal" in="SourceGraphic" in2="effect1_dropShadow_960_7699" result="shape"/>
</filter>
</defs>
</svg>
