<svg width="456" height="456" viewBox="0 0 456 456" fill="none" xmlns="http://www.w3.org/2000/svg">
<path d="M0 392C0 356.654 28.6538 328 64 328C99.3462 328 128 356.654 128 392C128 427.346 99.3462 456 64 456C28.6538 456 0 427.346 0 392Z" fill="#F16767" style="fill:#F16767;fill:color(display-p3 0.9451 0.4039 0.4039);fill-opacity:1;"/>
<path d="M43.1749 389V378.878H44.5189V384.114L49.0549 378.878H50.6019L47.2209 382.854L50.8959 389H49.4329L46.2759 383.799L44.5189 385.808V389H43.1749ZM55.1007 389.14C54.4287 389.14 53.836 388.993 53.3227 388.699C52.8094 388.405 52.408 387.983 52.1187 387.432C51.8294 386.881 51.6847 386.221 51.6847 385.451C51.6847 384.69 51.8154 384.023 52.0767 383.449C52.338 382.875 52.716 382.427 53.2107 382.105C53.71 381.783 54.3097 381.622 55.0097 381.622C55.691 381.622 56.2674 381.769 56.7387 382.063C57.21 382.357 57.567 382.772 57.8097 383.309C58.057 383.841 58.1807 384.473 58.1807 385.206V385.682H52.9937C52.9937 386.139 53.0684 386.555 53.2177 386.928C53.3717 387.297 53.6027 387.591 53.9107 387.81C54.2187 388.029 54.6084 388.139 55.0797 388.139C55.5417 388.139 55.9384 388.032 56.2697 387.817C56.6057 387.602 56.8204 387.292 56.9137 386.886H58.1317C58.0477 387.376 57.8517 387.789 57.5437 388.125C57.2404 388.461 56.874 388.715 56.4447 388.888C56.02 389.056 55.572 389.14 55.1007 389.14ZM53.0007 384.807H56.9347C56.9347 384.392 56.8647 384.018 56.7247 383.687C56.5847 383.351 56.37 383.087 56.0807 382.896C55.796 382.7 55.4367 382.602 55.0027 382.602C54.55 382.602 54.1744 382.712 53.8757 382.931C53.577 383.146 53.3554 383.423 53.2107 383.764C53.066 384.1 52.996 384.448 53.0007 384.807ZM61.9194 389.14C61.448 389.14 61.0327 389.058 60.6734 388.895C60.3187 388.727 60.0387 388.487 59.8334 388.174C59.6327 387.861 59.5324 387.483 59.5324 387.04C59.5324 386.237 59.8124 385.64 60.3724 385.248C60.9324 384.856 61.8307 384.646 63.0674 384.618L64.3554 384.583V384.016C64.3554 383.573 64.2224 383.223 63.9564 382.966C63.6904 382.705 63.2797 382.574 62.7244 382.574C62.309 382.579 61.9427 382.677 61.6254 382.868C61.308 383.059 61.105 383.372 61.0164 383.806H59.8754C59.9034 383.335 60.034 382.938 60.2674 382.616C60.5054 382.289 60.839 382.042 61.2684 381.874C61.6977 381.706 62.204 381.622 62.7874 381.622C63.4174 381.622 63.94 381.711 64.3554 381.888C64.7754 382.065 65.088 382.327 65.2934 382.672C65.5034 383.017 65.6084 383.442 65.6084 383.946V389H64.5024L64.4044 387.642C64.129 388.207 63.7744 388.599 63.3404 388.818C62.911 389.033 62.4374 389.14 61.9194 389.14ZM62.3044 388.209C62.5517 388.209 62.7944 388.165 63.0324 388.076C63.275 387.987 63.4944 387.868 63.6904 387.719C63.891 387.565 64.052 387.395 64.1734 387.208C64.2947 387.017 64.3554 386.821 64.3554 386.62V385.381L63.2844 385.402C62.729 385.411 62.267 385.467 61.8984 385.57C61.5297 385.673 61.252 385.834 61.0654 386.053C60.8787 386.272 60.7854 386.559 60.7854 386.914C60.7854 387.32 60.9277 387.637 61.2124 387.866C61.497 388.095 61.861 388.209 62.3044 388.209ZM67.6276 389V381.762H68.8806V382.812C68.9973 382.611 69.1583 382.422 69.3636 382.245C69.5736 382.068 69.8256 381.925 70.1196 381.818C70.4183 381.711 70.7613 381.657 71.1486 381.657C71.606 381.657 72.026 381.748 72.4086 381.93C72.796 382.112 73.104 382.397 73.3326 382.784C73.566 383.167 73.6826 383.661 73.6826 384.268V389H72.3876V384.394C72.3876 383.829 72.2383 383.412 71.9396 383.141C71.6456 382.866 71.263 382.728 70.7916 382.728C70.465 382.728 70.1593 382.782 69.8746 382.889C69.59 382.992 69.359 383.15 69.1816 383.365C69.0043 383.575 68.9156 383.841 68.9156 384.163V389H67.6276ZM78.3677 389.14C77.9897 389.135 77.6327 389.082 77.2967 388.979C76.9654 388.872 76.6714 388.715 76.4147 388.51C76.1581 388.305 75.9551 388.05 75.8057 387.747C75.6611 387.439 75.5887 387.082 75.5887 386.676V381.762H76.8837V386.543C76.8837 387.014 77.0284 387.397 77.3177 387.691C77.6117 387.985 78.0527 388.132 78.6407 388.132C79.1727 388.132 79.5997 387.994 79.9217 387.719C80.2484 387.439 80.4117 387.024 80.4117 386.473V381.762H81.6997V389H80.6707L80.5377 387.614C80.4491 387.978 80.2974 388.272 80.0827 388.496C79.8727 388.72 79.6184 388.886 79.3197 388.993C79.0257 389.096 78.7084 389.145 78.3677 389.14ZM41.9034 405V394.878H45.8234C46.5514 394.878 47.1604 394.99 47.6504 395.214C48.1404 395.433 48.5067 395.751 48.7494 396.166C48.9921 396.577 49.1134 397.069 49.1134 397.643C49.1134 398.194 49.0154 398.651 48.8194 399.015C48.6281 399.379 48.3831 399.673 48.0844 399.897C47.7857 400.116 47.4754 400.287 47.1534 400.408L49.1414 405H47.7694L45.9214 400.639H43.1984V405H41.9034ZM43.1984 399.568H45.4034C46.1641 399.568 46.7521 399.414 47.1674 399.106C47.5827 398.793 47.7904 398.331 47.7904 397.72C47.7904 397.123 47.6037 396.677 47.2304 396.383C46.8617 396.084 46.3554 395.935 45.7114 395.935H43.1984V399.568ZM53.9386 405.14C53.2666 405.14 52.6739 404.993 52.1606 404.699C51.6473 404.405 51.2459 403.983 50.9566 403.432C50.6673 402.881 50.5226 402.221 50.5226 401.451C50.5226 400.69 50.6533 400.023 50.9146 399.449C51.1759 398.875 51.5539 398.427 52.0486 398.105C52.5479 397.783 53.1476 397.622 53.8476 397.622C54.5289 397.622 55.1053 397.769 55.5766 398.063C56.0479 398.357 56.4049 398.772 56.6476 399.309C56.8949 399.841 57.0186 400.473 57.0186 401.206V401.682H51.8316C51.8316 402.139 51.9063 402.555 52.0556 402.928C52.2096 403.297 52.4406 403.591 52.7486 403.81C53.0566 404.029 53.4463 404.139 53.9176 404.139C54.3796 404.139 54.7763 404.032 55.1076 403.817C55.4436 403.602 55.6583 403.292 55.7516 402.886H56.9696C56.8856 403.376 56.6896 403.789 56.3816 404.125C56.0783 404.461 55.7119 404.715 55.2826 404.888C54.8579 405.056 54.4099 405.14 53.9386 405.14ZM51.8386 400.807H55.7726C55.7726 400.392 55.7026 400.018 55.5626 399.687C55.4226 399.351 55.2079 399.087 54.9186 398.896C54.6339 398.7 54.2746 398.602 53.8406 398.602C53.3879 398.602 53.0123 398.712 52.7136 398.931C52.4149 399.146 52.1933 399.423 52.0486 399.764C51.9039 400.1 51.8339 400.448 51.8386 400.807ZM61.8683 405.14C61.1963 405.14 60.6036 404.993 60.0903 404.699C59.5769 404.405 59.1756 403.983 58.8863 403.432C58.5969 402.881 58.4523 402.221 58.4523 401.451C58.4523 400.69 58.5829 400.023 58.8443 399.449C59.1056 398.875 59.4836 398.427 59.9783 398.105C60.4776 397.783 61.0773 397.622 61.7773 397.622C62.4586 397.622 63.0349 397.769 63.5063 398.063C63.9776 398.357 64.3346 398.772 64.5773 399.309C64.8246 399.841 64.9483 400.473 64.9483 401.206V401.682H59.7613C59.7613 402.139 59.8359 402.555 59.9853 402.928C60.1393 403.297 60.3703 403.591 60.6783 403.81C60.9863 404.029 61.3759 404.139 61.8473 404.139C62.3093 404.139 62.7059 404.032 63.0373 403.817C63.3733 403.602 63.5879 403.292 63.6813 402.886H64.8993C64.8153 403.376 64.6193 403.789 64.3113 404.125C64.0079 404.461 63.6416 404.715 63.2123 404.888C62.7876 405.056 62.3396 405.14 61.8683 405.14ZM59.7683 400.807H63.7023C63.7023 400.392 63.6323 400.018 63.4923 399.687C63.3523 399.351 63.1376 399.087 62.8483 398.896C62.5636 398.7 62.2043 398.602 61.7703 398.602C61.3176 398.602 60.9419 398.712 60.6433 398.931C60.3446 399.146 60.1229 399.423 59.9783 399.764C59.8336 400.1 59.7636 400.448 59.7683 400.807ZM68.4783 405L65.8603 397.762H67.0783L69.0033 403.376H69.1223L71.0543 397.762H72.2653L69.6613 405H68.4783ZM76.5929 405.14C75.9209 405.14 75.3282 404.993 74.8149 404.699C74.3016 404.405 73.9002 403.983 73.6109 403.432C73.3216 402.881 73.1769 402.221 73.1769 401.451C73.1769 400.69 73.3076 400.023 73.5689 399.449C73.8302 398.875 74.2082 398.427 74.7029 398.105C75.2022 397.783 75.8019 397.622 76.5019 397.622C77.1832 397.622 77.7596 397.769 78.2309 398.063C78.7022 398.357 79.0592 398.772 79.3019 399.309C79.5492 399.841 79.6729 400.473 79.6729 401.206V401.682H74.4859C74.4859 402.139 74.5606 402.555 74.7099 402.928C74.8639 403.297 75.0949 403.591 75.4029 403.81C75.7109 404.029 76.1006 404.139 76.5719 404.139C77.0339 404.139 77.4306 404.032 77.7619 403.817C78.0979 403.602 78.3126 403.292 78.4059 402.886H79.6239C79.5399 403.376 79.3439 403.789 79.0359 404.125C78.7326 404.461 78.3662 404.715 77.9369 404.888C77.5122 405.056 77.0642 405.14 76.5929 405.14ZM74.4929 400.807H78.4269C78.4269 400.392 78.3569 400.018 78.2169 399.687C78.0769 399.351 77.8622 399.087 77.5729 398.896C77.2882 398.7 76.9289 398.602 76.4949 398.602C76.0422 398.602 75.6666 398.712 75.3679 398.931C75.0692 399.146 74.8476 399.423 74.7029 399.764C74.5582 400.1 74.4882 400.448 74.4929 400.807ZM84.0266 405.14C83.5226 405.14 83.0536 405.063 82.6196 404.909C82.1902 404.75 81.8332 404.505 81.5486 404.174C81.2639 403.838 81.0866 403.411 81.0166 402.893H82.1926C82.2532 403.178 82.3699 403.416 82.5426 403.607C82.7152 403.794 82.9276 403.936 83.1796 404.034C83.4362 404.127 83.7162 404.174 84.0196 404.174C84.5096 404.174 84.9039 404.083 85.2026 403.901C85.5012 403.719 85.6506 403.439 85.6506 403.061C85.6506 402.795 85.5712 402.583 85.4126 402.424C85.2586 402.261 85.0159 402.142 84.6846 402.067L83.1866 401.696C82.6032 401.556 82.1366 401.337 81.7866 401.038C81.4412 400.739 81.2662 400.322 81.2616 399.785C81.2616 399.36 81.3642 398.987 81.5696 398.665C81.7749 398.343 82.0806 398.089 82.4866 397.902C82.8972 397.715 83.4082 397.622 84.0196 397.622C84.8082 397.622 85.4429 397.799 85.9236 398.154C86.4042 398.504 86.6562 399.02 86.6796 399.701H85.5316C85.4849 399.356 85.3309 399.083 85.0696 398.882C84.8082 398.677 84.4536 398.574 84.0056 398.574C83.5482 398.574 83.1726 398.667 82.8786 398.854C82.5892 399.036 82.4446 399.321 82.4446 399.708C82.4446 399.965 82.5472 400.168 82.7526 400.317C82.9626 400.462 83.2659 400.583 83.6626 400.681L85.1186 401.045C85.4499 401.134 85.7252 401.25 85.9446 401.395C86.1639 401.54 86.3366 401.701 86.4626 401.878C86.5886 402.055 86.6772 402.242 86.7286 402.438C86.7846 402.629 86.8126 402.814 86.8126 402.991C86.8126 403.434 86.7029 403.817 86.4836 404.139C86.2642 404.456 85.9469 404.704 85.5316 404.881C85.1162 405.054 84.6146 405.14 84.0266 405.14Z" fill="white" style="fill:white;fill-opacity:1;"/>
<path d="M0 64C0 28.6538 28.6538 0 64 0C99.3462 0 128 28.6538 128 64C128 99.3462 99.3462 128 64 128C28.6538 128 0 99.3462 0 64Z" fill="#F16767" style="fill:#F16767;fill:color(display-p3 0.9451 0.4039 0.4039);fill-opacity:1;"/>
<path d="M30.5815 61.14C29.6715 61.14 28.8945 60.9323 28.2505 60.517C27.6112 60.1017 27.1212 59.5043 26.7805 58.725C26.4445 57.9457 26.2765 57.0053 26.2765 55.904C26.2765 54.8073 26.4445 53.874 26.7805 53.104C27.1165 52.334 27.6042 51.7483 28.2435 51.347C28.8875 50.941 29.6668 50.738 30.5815 50.738C31.2955 50.738 31.9278 50.8873 32.4785 51.186C33.0292 51.48 33.4725 51.8743 33.8085 52.369C34.1445 52.8637 34.3428 53.4073 34.4035 54H33.0245C32.9498 53.6033 32.8075 53.244 32.5975 52.922C32.3875 52.6 32.1122 52.3433 31.7715 52.152C31.4308 51.9607 31.0225 51.865 30.5465 51.865C29.9352 51.865 29.4172 52.0097 28.9925 52.299C28.5725 52.5837 28.2528 53.0247 28.0335 53.622C27.8188 54.2193 27.7115 54.9847 27.7115 55.918C27.7115 57.3273 27.9518 58.3633 28.4325 59.026C28.9178 59.684 29.6225 60.013 30.5465 60.013C31.0225 60.013 31.4308 59.9127 31.7715 59.712C32.1122 59.5113 32.3875 59.243 32.5975 58.907C32.8075 58.571 32.9498 58.207 33.0245 57.815H34.4035C34.3522 58.2443 34.2355 58.6597 34.0535 59.061C33.8762 59.4577 33.6312 59.8123 33.3185 60.125C33.0058 60.4377 32.6208 60.685 32.1635 60.867C31.7108 61.049 31.1835 61.14 30.5815 61.14ZM38.1645 61.14C37.6931 61.14 37.2778 61.0583 36.9185 60.895C36.5638 60.727 36.2838 60.4867 36.0785 60.174C35.8778 59.8613 35.7775 59.4833 35.7775 59.04C35.7775 58.2373 36.0575 57.64 36.6175 57.248C37.1775 56.856 38.0758 56.646 39.3125 56.618L40.6005 56.583V56.016C40.6005 55.5727 40.4675 55.2227 40.2015 54.966C39.9355 54.7047 39.5248 54.574 38.9695 54.574C38.5541 54.5787 38.1878 54.6767 37.8705 54.868C37.5531 55.0593 37.3501 55.372 37.2615 55.806H36.1205C36.1485 55.3347 36.2791 54.938 36.5125 54.616C36.7505 54.2893 37.0841 54.042 37.5135 53.874C37.9428 53.706 38.4491 53.622 39.0325 53.622C39.6625 53.622 40.1851 53.7107 40.6005 53.888C41.0205 54.0653 41.3331 54.3267 41.5385 54.672C41.7485 55.0173 41.8535 55.442 41.8535 55.946V61H40.7475L40.6495 59.642C40.3741 60.2067 40.0195 60.5987 39.5855 60.818C39.1561 61.0327 38.6825 61.14 38.1645 61.14ZM38.5495 60.209C38.7968 60.209 39.0395 60.1647 39.2775 60.076C39.5201 59.9873 39.7395 59.8683 39.9355 59.719C40.1361 59.565 40.2971 59.3947 40.4185 59.208C40.5398 59.0167 40.6005 58.8207 40.6005 58.62V57.381L39.5295 57.402C38.9741 57.4113 38.5121 57.4673 38.1435 57.57C37.7748 57.6727 37.4971 57.8337 37.3105 58.053C37.1238 58.2723 37.0305 58.5593 37.0305 58.914C37.0305 59.32 37.1728 59.6373 37.4575 59.866C37.7421 60.0947 38.1061 60.209 38.5495 60.209ZM43.8728 61V53.762H45.1048V55.155C45.2261 54.8097 45.3964 54.525 45.6158 54.301C45.8351 54.0723 46.0848 53.902 46.3648 53.79C46.6494 53.678 46.9434 53.622 47.2468 53.622C47.3541 53.622 47.4591 53.629 47.5618 53.643C47.6644 53.657 47.7438 53.6803 47.7998 53.713V54.966C47.7298 54.9333 47.6388 54.9123 47.5268 54.903C47.4194 54.889 47.3284 54.882 47.2538 54.882C46.9644 54.8633 46.6938 54.882 46.4418 54.938C46.1898 54.9893 45.9681 55.0803 45.7768 55.211C45.5854 55.3417 45.4338 55.5143 45.3218 55.729C45.2144 55.939 45.1608 56.1957 45.1608 56.499V61H43.8728ZM49.3415 61V53.762H50.5735V55.155C50.6948 54.8097 50.8652 54.525 51.0845 54.301C51.3038 54.0723 51.5535 53.902 51.8335 53.79C52.1182 53.678 52.4122 53.622 52.7155 53.622C52.8228 53.622 52.9278 53.629 53.0305 53.643C53.1332 53.657 53.2125 53.6803 53.2685 53.713V54.966C53.1985 54.9333 53.1075 54.9123 52.9955 54.903C52.8882 54.889 52.7972 54.882 52.7225 54.882C52.4332 54.8633 52.1625 54.882 51.9105 54.938C51.6585 54.9893 51.4368 55.0803 51.2455 55.211C51.0542 55.3417 50.9025 55.5143 50.7905 55.729C50.6832 55.939 50.6295 56.1957 50.6295 56.499V61H49.3415ZM54.8453 61V53.762H56.0983V61H54.8453ZM54.8103 52.229V50.885H56.1333V52.229H54.8103ZM61.3282 61.14C60.6562 61.14 60.0636 60.993 59.5502 60.699C59.0369 60.405 58.6356 59.9827 58.3462 59.432C58.0569 58.8813 57.9122 58.221 57.9122 57.451C57.9122 56.6903 58.0429 56.023 58.3042 55.449C58.5656 54.875 58.9436 54.427 59.4382 54.105C59.9376 53.783 60.5372 53.622 61.2372 53.622C61.9186 53.622 62.4949 53.769 62.9662 54.063C63.4376 54.357 63.7946 54.7723 64.0372 55.309C64.2846 55.841 64.4082 56.4733 64.4082 57.206V57.682H59.2212C59.2212 58.1393 59.2959 58.5547 59.4452 58.928C59.5992 59.2967 59.8302 59.5907 60.1382 59.81C60.4462 60.0293 60.8359 60.139 61.3072 60.139C61.7692 60.139 62.1659 60.0317 62.4972 59.817C62.8332 59.6023 63.0479 59.292 63.1412 58.886H64.3592C64.2752 59.376 64.0792 59.789 63.7712 60.125C63.4679 60.461 63.1016 60.7153 62.6722 60.888C62.2476 61.056 61.7996 61.14 61.3282 61.14ZM59.2282 56.807H63.1622C63.1622 56.3917 63.0922 56.0183 62.9522 55.687C62.8122 55.351 62.5976 55.0873 62.3082 54.896C62.0236 54.7 61.6642 54.602 61.2302 54.602C60.7776 54.602 60.4019 54.7117 60.1032 54.931C59.8046 55.1457 59.5829 55.4233 59.4382 55.764C59.2936 56.1 59.2236 56.4477 59.2282 56.807ZM69.0312 61L72.6922 50.878H74.1552L77.8162 61H76.4932L75.4992 58.228H71.3482L70.3472 61H69.0312ZM71.6912 57.038H75.1422L73.4202 52.145L71.6912 57.038ZM79.4606 61V53.762H80.7136V54.812C80.8303 54.6113 80.9913 54.4223 81.1966 54.245C81.4066 54.0677 81.6586 53.9253 81.9526 53.818C82.2513 53.7107 82.5943 53.657 82.9816 53.657C83.439 53.657 83.859 53.748 84.2416 53.93C84.629 54.112 84.937 54.3967 85.1656 54.784C85.399 55.1667 85.5156 55.6613 85.5156 56.268V61H84.2206V56.394C84.2206 55.8293 84.0713 55.4117 83.7726 55.141C83.4786 54.8657 83.096 54.728 82.6246 54.728C82.298 54.728 81.9923 54.7817 81.7076 54.889C81.423 54.9917 81.192 55.1503 81.0146 55.365C80.8373 55.575 80.7486 55.841 80.7486 56.163V61H79.4606ZM87.5407 61V53.762H88.7937V54.812C88.9104 54.6113 89.0714 54.4223 89.2767 54.245C89.4867 54.0677 89.7387 53.9253 90.0327 53.818C90.3314 53.7107 90.6744 53.657 91.0617 53.657C91.5191 53.657 91.9391 53.748 92.3217 53.93C92.7091 54.112 93.0171 54.3967 93.2457 54.784C93.4791 55.1667 93.5957 55.6613 93.5957 56.268V61H92.3007V56.394C92.3007 55.8293 92.1514 55.4117 91.8527 55.141C91.5587 54.8657 91.1761 54.728 90.7047 54.728C90.3781 54.728 90.0724 54.7817 89.7877 54.889C89.5031 54.9917 89.2721 55.1503 89.0947 55.365C88.9174 55.575 88.8287 55.841 88.8287 56.163V61H87.5407ZM98.6798 61.14C98.0078 61.14 97.4151 60.993 96.9018 60.699C96.3885 60.405 95.9871 59.9827 95.6978 59.432C95.4085 58.8813 95.2638 58.221 95.2638 57.451C95.2638 56.6903 95.3945 56.023 95.6558 55.449C95.9171 54.875 96.2951 54.427 96.7898 54.105C97.2891 53.783 97.8888 53.622 98.5888 53.622C99.2701 53.622 99.8465 53.769 100.318 54.063C100.789 54.357 101.146 54.7723 101.389 55.309C101.636 55.841 101.76 56.4733 101.76 57.206V57.682H96.5728C96.5728 58.1393 96.6475 58.5547 96.7968 58.928C96.9508 59.2967 97.1818 59.5907 97.4898 59.81C97.7978 60.0293 98.1875 60.139 98.6588 60.139C99.1208 60.139 99.5175 60.0317 99.8488 59.817C100.185 59.6023 100.399 59.292 100.493 58.886H101.711C101.627 59.376 101.431 59.789 101.123 60.125C100.819 60.461 100.453 60.7153 100.024 60.888C99.5991 61.056 99.1511 61.14 98.6798 61.14ZM96.5798 56.807H100.514C100.514 56.3917 100.444 56.0183 100.304 55.687C100.164 55.351 99.9491 55.0873 99.6598 54.896C99.3751 54.7 99.0158 54.602 98.5818 54.602C98.1291 54.602 97.7535 54.7117 97.4548 54.931C97.1561 55.1457 96.9345 55.4233 96.7898 55.764C96.6451 56.1 96.5751 56.4477 96.5798 56.807ZM48.1788 77V66.878H49.9708L53.0228 75.236L56.1168 66.878H57.9018V77H56.5648V68.817L53.6318 77H52.4208L49.5088 68.894V77H48.1788ZM63.1155 77.14C62.4482 77.14 61.8648 76.9977 61.3655 76.713C60.8708 76.4237 60.4858 76.0013 60.2105 75.446C59.9352 74.8907 59.7975 74.2117 59.7975 73.409C59.7975 72.653 59.9258 71.9903 60.1825 71.421C60.4392 70.8517 60.8148 70.4107 61.3095 70.098C61.8042 69.7807 62.4085 69.622 63.1225 69.622C63.7898 69.622 64.3685 69.769 64.8585 70.063C65.3485 70.3523 65.7288 70.7793 65.9995 71.344C66.2748 71.9087 66.4125 72.597 66.4125 73.409C66.4125 74.1463 66.2865 74.795 66.0345 75.355C65.7825 75.915 65.4115 76.3537 64.9215 76.671C64.4362 76.9837 63.8342 77.14 63.1155 77.14ZM63.1225 76.118C63.5518 76.118 63.9158 76.0083 64.2145 75.789C64.5132 75.5697 64.7395 75.2547 64.8935 74.844C65.0522 74.4333 65.1315 73.9457 65.1315 73.381C65.1315 72.863 65.0615 72.3987 64.9215 71.988C64.7862 71.5727 64.5715 71.2437 64.2775 71.001C63.9835 70.7583 63.5985 70.637 63.1225 70.637C62.6838 70.637 62.3128 70.7467 62.0095 70.966C61.7062 71.1807 61.4752 71.4933 61.3165 71.904C61.1625 72.3147 61.0855 72.807 61.0855 73.381C61.0855 73.8897 61.1532 74.3517 61.2885 74.767C61.4285 75.1823 61.6478 75.5113 61.9465 75.754C62.2498 75.9967 62.6418 76.118 63.1225 76.118ZM70.6965 77.14C70.1925 77.14 69.7235 77.063 69.2895 76.909C68.8602 76.7503 68.5032 76.5053 68.2185 76.174C67.9338 75.838 67.7565 75.411 67.6865 74.893H68.8625C68.9232 75.1777 69.0398 75.4157 69.2125 75.607C69.3852 75.7937 69.5975 75.936 69.8495 76.034C70.1062 76.1273 70.3862 76.174 70.6895 76.174C71.1795 76.174 71.5738 76.083 71.8725 75.901C72.1712 75.719 72.3205 75.439 72.3205 75.061C72.3205 74.795 72.2412 74.5827 72.0825 74.424C71.9285 74.2607 71.6858 74.1417 71.3545 74.067L69.8565 73.696C69.2732 73.556 68.8065 73.3367 68.4565 73.038C68.1112 72.7393 67.9362 72.3217 67.9315 71.785C67.9315 71.3603 68.0342 70.987 68.2395 70.665C68.4448 70.343 68.7505 70.0887 69.1565 69.902C69.5672 69.7153 70.0782 69.622 70.6895 69.622C71.4782 69.622 72.1128 69.7993 72.5935 70.154C73.0742 70.504 73.3262 71.0197 73.3495 71.701H72.2015C72.1548 71.3557 72.0008 71.0827 71.7395 70.882C71.4782 70.6767 71.1235 70.574 70.6755 70.574C70.2182 70.574 69.8425 70.6673 69.5485 70.854C69.2592 71.036 69.1145 71.3207 69.1145 71.708C69.1145 71.9647 69.2172 72.1677 69.4225 72.317C69.6325 72.4617 69.9358 72.583 70.3325 72.681L71.7885 73.045C72.1198 73.1337 72.3952 73.2503 72.6145 73.395C72.8338 73.5397 73.0065 73.7007 73.1325 73.878C73.2585 74.0553 73.3472 74.242 73.3985 74.438C73.4545 74.6293 73.4825 74.8137 73.4825 74.991C73.4825 75.4343 73.3728 75.817 73.1535 76.139C72.9342 76.4563 72.6168 76.7037 72.2015 76.881C71.7862 77.0537 71.2845 77.14 70.6965 77.14ZM77.7512 77.14C77.2472 77.14 76.7782 77.063 76.3442 76.909C75.9148 76.7503 75.5578 76.5053 75.2732 76.174C74.9885 75.838 74.8112 75.411 74.7412 74.893H75.9172C75.9778 75.1777 76.0945 75.4157 76.2672 75.607C76.4398 75.7937 76.6522 75.936 76.9042 76.034C77.1608 76.1273 77.4408 76.174 77.7442 76.174C78.2342 76.174 78.6285 76.083 78.9272 75.901C79.2258 75.719 79.3752 75.439 79.3752 75.061C79.3752 74.795 79.2958 74.5827 79.1372 74.424C78.9832 74.2607 78.7405 74.1417 78.4092 74.067L76.9112 73.696C76.3278 73.556 75.8612 73.3367 75.5112 73.038C75.1658 72.7393 74.9908 72.3217 74.9862 71.785C74.9862 71.3603 75.0888 70.987 75.2942 70.665C75.4995 70.343 75.8052 70.0887 76.2112 69.902C76.6218 69.7153 77.1328 69.622 77.7442 69.622C78.5328 69.622 79.1675 69.7993 79.6482 70.154C80.1288 70.504 80.3808 71.0197 80.4042 71.701H79.2562C79.2095 71.3557 79.0555 71.0827 78.7942 70.882C78.5328 70.6767 78.1782 70.574 77.7302 70.574C77.2728 70.574 76.8972 70.6673 76.6032 70.854C76.3138 71.036 76.1692 71.3207 76.1692 71.708C76.1692 71.9647 76.2718 72.1677 76.4772 72.317C76.6872 72.4617 76.9905 72.583 77.3872 72.681L78.8432 73.045C79.1745 73.1337 79.4498 73.2503 79.6692 73.395C79.8885 73.5397 80.0612 73.7007 80.1872 73.878C80.3132 74.0553 80.4018 74.242 80.4532 74.438C80.5092 74.6293 80.5372 74.8137 80.5372 74.991C80.5372 75.4343 80.4275 75.817 80.2082 76.139C79.9888 76.4563 79.6715 76.7037 79.2562 76.881C78.8408 77.0537 78.3392 77.14 77.7512 77.14Z" fill="white" style="fill:white;fill-opacity:1;"/>
<path d="M63 324.5C63 325.052 63.4477 325.5 64 325.5C64.5523 325.5 65 325.052 65 324.5H63ZM65 245.062C65 244.51 64.5523 244.062 64 244.062C63.4477 244.062 63 244.51 63 245.062H65ZM63 210.938C63 211.49 63.4477 211.938 64 211.938C64.5523 211.938 65 211.49 65 210.938H63ZM64.7071 130.793C64.3166 130.402 63.6834 130.402 63.2929 130.793L56.9289 137.157C56.5384 137.547 56.5384 138.181 56.9289 138.571C57.3195 138.962 57.9526 138.962 58.3431 138.571L64 132.914L69.6569 138.571C70.0474 138.962 70.6805 138.962 71.0711 138.571C71.4616 138.181 71.4616 137.547 71.0711 137.157L64.7071 130.793ZM65 324.5V245.062H63V324.5H65ZM65 210.938V131.5H63V210.938H65Z" fill="#1A1B1D" style="fill:#1A1B1D;fill:color(display-p3 0.1020 0.1059 0.1137);fill-opacity:1;"/>
<path d="M38.8963 233.5V223.318H40.4326V228.18H40.5568L44.8274 223.318H46.7614L42.6549 227.902L46.7763 233.5H44.9269L41.6357 228.951L40.4326 230.333V233.5H38.8963ZM56.2572 223.318V233.5H54.8453L49.6699 226.033H49.5754V233.5H48.0392V223.318H49.4611L54.6415 230.795H54.7359V223.318H56.2572ZM67.1887 228.409C67.1887 229.496 66.9898 230.431 66.5921 231.213C66.1943 231.992 65.6491 232.592 64.9564 233.013C64.267 233.43 63.4832 233.639 62.6048 233.639C61.7232 233.639 60.9361 233.43 60.2433 233.013C59.5539 232.592 59.0104 231.99 58.6127 231.208C58.2149 230.426 58.0161 229.493 58.0161 228.409C58.0161 227.322 58.2149 226.389 58.6127 225.61C59.0104 224.828 59.5539 224.228 60.2433 223.81C60.9361 223.389 61.7232 223.179 62.6048 223.179C63.4832 223.179 64.267 223.389 64.9564 223.81C65.6491 224.228 66.1943 224.828 66.5921 225.61C66.9898 226.389 67.1887 227.322 67.1887 228.409ZM65.6673 228.409C65.6673 227.58 65.5331 226.883 65.2646 226.316C64.9995 225.746 64.6349 225.315 64.1709 225.023C63.7102 224.728 63.1882 224.581 62.6048 224.581C62.0182 224.581 61.4945 224.728 61.0338 225.023C60.5731 225.315 60.2085 225.746 59.9401 226.316C59.6749 226.883 59.5423 227.58 59.5423 228.409C59.5423 229.238 59.6749 229.937 59.9401 230.507C60.2085 231.074 60.5731 231.505 61.0338 231.8C61.4945 232.091 62.0182 232.237 62.6048 232.237C63.1882 232.237 63.7102 232.091 64.1709 231.8C64.6349 231.505 64.9995 231.074 65.2646 230.507C65.5331 229.937 65.6673 229.238 65.6673 228.409ZM70.8205 233.5L67.9967 223.318H69.6124L71.5961 231.203H71.6905L73.7538 223.318H75.3546L77.4178 231.208H77.5123L79.491 223.318H81.1117L78.2829 233.5H76.7367L74.594 225.874H74.5144L72.3717 233.5H70.8205ZM87.8844 225.993C87.8314 225.522 87.6126 225.158 87.2281 224.899C86.8437 224.637 86.3598 224.506 85.7764 224.506C85.3588 224.506 84.9975 224.573 84.6926 224.705C84.3877 224.835 84.1507 225.013 83.9817 225.242C83.816 225.468 83.7331 225.724 83.7331 226.013C83.7331 226.255 83.7895 226.464 83.9021 226.639C84.0181 226.815 84.1689 226.962 84.3546 227.082C84.5435 227.198 84.7457 227.295 84.9611 227.375C85.1765 227.451 85.3837 227.514 85.5825 227.564L86.5769 227.822C86.9017 227.902 87.2348 228.01 87.5761 228.146C87.9175 228.281 88.2341 228.46 88.5257 228.683C88.8174 228.905 89.0527 229.18 89.2317 229.508C89.414 229.836 89.5051 230.229 89.5051 230.686C89.5051 231.263 89.356 231.775 89.0577 232.222C88.7627 232.67 88.3335 233.023 87.77 233.281C87.2099 233.54 86.5321 233.669 85.7367 233.669C84.9743 233.669 84.3148 233.548 83.758 233.306C83.2011 233.064 82.7653 232.721 82.4504 232.277C82.1356 231.83 81.9616 231.299 81.9284 230.686H83.4696C83.4994 231.054 83.6188 231.361 83.8276 231.606C84.0397 231.848 84.3098 232.028 84.6379 232.148C84.9694 232.264 85.3323 232.322 85.7267 232.322C86.1609 232.322 86.547 232.254 86.8851 232.118C87.2265 231.979 87.4949 231.786 87.6905 231.541C87.886 231.293 87.9838 231.003 87.9838 230.671C87.9838 230.37 87.8976 230.123 87.7253 229.93C87.5563 229.738 87.3259 229.579 87.0342 229.453C86.7459 229.327 86.4194 229.216 86.0548 229.12L84.8517 228.792C84.0364 228.57 83.3901 228.243 82.9128 227.812C82.4388 227.382 82.2019 226.812 82.2019 226.102C82.2019 225.516 82.3609 225.004 82.6791 224.566C82.9973 224.129 83.4282 223.789 83.9717 223.547C84.5153 223.302 85.1285 223.179 85.8112 223.179C86.5006 223.179 87.1088 223.3 87.6358 223.542C88.1661 223.784 88.5837 224.117 88.8886 224.541C89.1936 224.962 89.3527 225.446 89.3659 225.993H87.8844Z" fill="black" fill-opacity="0.8" style="fill:black;fill-opacity:0.8;"/>
<path d="M328 64C328 28.6538 356.654 0 392 0C427.346 0 456 28.6538 456 64C456 99.3462 427.346 128 392 128C356.654 128 328 99.3462 328 64Z" fill="#F16767" style="fill:#F16767;fill:color(display-p3 0.9451 0.4039 0.4039);fill-opacity:1;"/>
<path d="M384.114 61.14C383.227 61.14 382.462 60.937 381.818 60.531C381.174 60.1203 380.679 59.53 380.334 58.76C379.988 57.99 379.816 57.059 379.816 55.967C379.816 54.8657 379.991 53.9253 380.341 53.146C380.695 52.3667 381.199 51.7717 381.853 51.361C382.506 50.9457 383.278 50.738 384.17 50.738C384.678 50.738 385.157 50.8267 385.605 51.004C386.053 51.1813 386.449 51.424 386.795 51.732C387.14 52.0353 387.415 52.383 387.621 52.775C387.831 53.167 387.95 53.5753 387.978 54H386.592C386.526 53.6267 386.382 53.279 386.158 52.957C385.934 52.635 385.649 52.376 385.304 52.18C384.963 51.984 384.578 51.886 384.149 51.886C383.565 51.886 383.052 52.0307 382.609 52.32C382.17 52.6047 381.827 53.0457 381.58 53.643C381.337 54.2403 381.216 55.0057 381.216 55.939C381.216 56.6577 381.29 57.2737 381.44 57.787C381.589 58.3003 381.797 58.718 382.063 59.04C382.333 59.3573 382.648 59.593 383.008 59.747C383.372 59.8963 383.764 59.971 384.184 59.971C384.608 59.971 384.977 59.8963 385.29 59.747C385.607 59.5977 385.871 59.4063 386.081 59.173C386.291 58.935 386.452 58.6807 386.564 58.41C386.68 58.1347 386.743 57.871 386.753 57.619L386.795 56.723H384.331V55.771L388.139 55.778V61H387.166V59.46C386.988 59.7493 386.764 60.0223 386.494 60.279C386.223 60.5357 385.892 60.7433 385.5 60.902C385.112 61.0607 384.65 61.14 384.114 61.14ZM393.058 61.14C392.68 61.1353 392.323 61.0817 391.987 60.979C391.656 60.8717 391.362 60.7153 391.105 60.51C390.848 60.3047 390.645 60.0503 390.496 59.747C390.351 59.439 390.279 59.082 390.279 58.676V53.762H391.574V58.543C391.574 59.0143 391.719 59.397 392.008 59.691C392.302 59.985 392.743 60.132 393.331 60.132C393.863 60.132 394.29 59.9943 394.612 59.719C394.939 59.439 395.102 59.0237 395.102 58.473V53.762H396.39V61H395.361L395.228 59.614C395.139 59.978 394.988 60.272 394.773 60.496C394.563 60.72 394.309 60.8857 394.01 60.993C393.716 61.0957 393.399 61.1447 393.058 61.14ZM399.24 63.31C398.816 63.31 398.524 63.2797 398.365 63.219C398.207 63.1583 398.127 63.128 398.127 63.128V62.288L398.869 62.302C399.135 62.3113 399.357 62.2927 399.534 62.246C399.712 62.1993 399.854 62.1363 399.961 62.057C400.069 61.9777 400.15 61.889 400.206 61.791C400.267 61.693 400.316 61.5997 400.353 61.511L400.605 60.825L397.777 53.762H399.086L401.221 59.348L403.342 53.762H404.609L401.564 61.546C401.373 62.0033 401.161 62.3603 400.927 62.617C400.699 62.8737 400.442 63.0533 400.157 63.156C399.877 63.2587 399.572 63.31 399.24 63.31ZM372.754 77V66.878H376.177C376.9 66.878 377.544 66.9993 378.109 67.242C378.674 67.4847 379.117 67.844 379.439 68.32C379.766 68.796 379.929 69.3817 379.929 70.077C379.929 70.749 379.777 71.323 379.474 71.799C379.175 72.275 378.758 72.6367 378.221 72.884C377.684 73.1313 377.061 73.255 376.352 73.255H374.084V77H372.754ZM374.077 72.163H376.324C377.019 72.163 377.584 71.9693 378.018 71.582C378.452 71.1947 378.669 70.6673 378.669 70C378.669 69.328 378.445 68.8193 377.997 68.474C377.549 68.1287 376.97 67.956 376.261 67.956H374.077V72.163ZM381.437 77V69.762H382.69V77H381.437ZM381.402 68.229V66.885H382.725V68.229H381.402ZM387.92 77.14C387.248 77.14 386.655 76.993 386.142 76.699C385.629 76.405 385.227 75.9827 384.938 75.432C384.649 74.8813 384.504 74.221 384.504 73.451C384.504 72.6903 384.635 72.023 384.896 71.449C385.157 70.875 385.535 70.427 386.03 70.105C386.529 69.783 387.129 69.622 387.829 69.622C388.51 69.622 389.087 69.769 389.558 70.063C390.029 70.357 390.386 70.7723 390.629 71.309C390.876 71.841 391 72.4733 391 73.206V73.682H385.813C385.813 74.1393 385.888 74.5547 386.037 74.928C386.191 75.2967 386.422 75.5907 386.73 75.81C387.038 76.0293 387.428 76.139 387.899 76.139C388.361 76.139 388.758 76.0317 389.089 75.817C389.425 75.6023 389.64 75.292 389.733 74.886H390.951C390.867 75.376 390.671 75.789 390.363 76.125C390.06 76.461 389.693 76.7153 389.264 76.888C388.839 77.056 388.391 77.14 387.92 77.14ZM385.82 72.807H389.754C389.754 72.3917 389.684 72.0183 389.544 71.687C389.404 71.351 389.189 71.0873 388.9 70.896C388.615 70.7 388.256 70.602 387.822 70.602C387.369 70.602 386.994 70.7117 386.695 70.931C386.396 71.1457 386.175 71.4233 386.03 71.764C385.885 72.1 385.815 72.4477 385.82 72.807ZM392.791 77V69.762H394.023V71.155C394.144 70.8097 394.314 70.525 394.534 70.301C394.753 70.0723 395.003 69.902 395.283 69.79C395.567 69.678 395.861 69.622 396.165 69.622C396.272 69.622 396.377 69.629 396.48 69.643C396.582 69.657 396.662 69.6803 396.718 69.713V70.966C396.648 70.9333 396.557 70.9123 396.445 70.903C396.337 70.889 396.246 70.882 396.172 70.882C395.882 70.8633 395.612 70.882 395.36 70.938C395.108 70.9893 394.886 71.0803 394.695 71.211C394.503 71.3417 394.352 71.5143 394.24 71.729C394.132 71.939 394.079 72.1957 394.079 72.499V77H392.791ZM401.062 77.14C400.409 77.14 399.83 76.9977 399.326 76.713C398.827 76.4283 398.435 76.0083 398.15 75.453C397.87 74.8977 397.73 74.2163 397.73 73.409C397.73 72.653 397.858 71.9927 398.115 71.428C398.376 70.8587 398.754 70.4153 399.249 70.098C399.748 69.7807 400.353 69.622 401.062 69.622C401.58 69.622 402.044 69.7223 402.455 69.923C402.87 70.119 403.211 70.399 403.477 70.763C403.743 71.127 403.906 71.5563 403.967 72.051H402.819C402.777 71.799 402.679 71.568 402.525 71.358C402.376 71.148 402.177 70.98 401.93 70.854C401.687 70.728 401.4 70.665 401.069 70.665C400.448 70.665 399.942 70.889 399.55 71.337C399.163 71.785 398.969 72.471 398.969 73.395C398.969 74.2303 399.146 74.9 399.501 75.404C399.86 75.9033 400.388 76.153 401.083 76.153C401.414 76.153 401.704 76.09 401.951 75.964C402.198 75.8333 402.397 75.663 402.546 75.453C402.695 75.2383 402.791 75.0097 402.833 74.767H403.96C403.899 75.2523 403.734 75.6723 403.463 76.027C403.197 76.3817 402.856 76.657 402.441 76.853C402.03 77.0443 401.571 77.14 401.062 77.14ZM408.783 77.14C408.111 77.14 407.519 76.993 407.005 76.699C406.492 76.405 406.091 75.9827 405.801 75.432C405.512 74.8813 405.367 74.221 405.367 73.451C405.367 72.6903 405.498 72.023 405.759 71.449C406.021 70.875 406.399 70.427 406.893 70.105C407.393 69.783 407.992 69.622 408.692 69.622C409.374 69.622 409.95 69.769 410.421 70.063C410.893 70.357 411.25 70.7723 411.492 71.309C411.74 71.841 411.863 72.4733 411.863 73.206V73.682H406.676C406.676 74.1393 406.751 74.5547 406.9 74.928C407.054 75.2967 407.285 75.5907 407.593 75.81C407.901 76.0293 408.291 76.139 408.762 76.139C409.224 76.139 409.621 76.0317 409.952 75.817C410.288 75.6023 410.503 75.292 410.596 74.886H411.814C411.73 75.376 411.534 75.789 411.226 76.125C410.923 76.461 410.557 76.7153 410.127 76.888C409.703 77.056 409.255 77.14 408.783 77.14ZM406.683 72.807H410.617C410.617 72.3917 410.547 72.0183 410.407 71.687C410.267 71.351 410.053 71.0873 409.763 70.896C409.479 70.7 409.119 70.602 408.685 70.602C408.233 70.602 407.857 70.7117 407.558 70.931C407.26 71.1457 407.038 71.4233 406.893 71.764C406.749 72.1 406.679 72.4477 406.683 72.807Z" fill="white" style="fill:white;fill-opacity:1;"/>
<path d="M131.5 63C130.948 63 130.5 63.4477 130.5 64C130.5 64.5523 130.948 65 131.5 65V63ZM194.938 65C195.49 65 195.938 64.5523 195.938 64C195.938 63.4477 195.49 63 194.938 63V65ZM261.062 63C260.51 63 260.062 63.4477 260.062 64C260.062 64.5523 260.51 65 261.062 65V63ZM325.207 64.7071C325.598 64.3166 325.598 63.6834 325.207 63.2929L318.843 56.9289C318.453 56.5384 317.819 56.5384 317.429 56.9289C317.038 57.3195 317.038 57.9526 317.429 58.3431L323.086 64L317.429 69.6569C317.038 70.0474 317.038 70.6805 317.429 71.0711C317.819 71.4616 318.453 71.4616 318.843 71.0711L325.207 64.7071ZM131.5 65H194.938V63H131.5V65ZM261.062 65H324.5V63H261.062V65Z" fill="#1A1B1D" style="fill:#1A1B1D;fill:color(display-p3 0.1020 0.1059 0.1137);fill-opacity:1;"/>
<path d="M202.896 69.5V59.3182H204.433V64.1804H204.557L208.827 59.3182H210.761L206.655 63.902L210.776 69.5H208.927L205.636 64.951L204.433 66.3331V69.5H202.896ZM220.257 59.3182V69.5H218.845L213.67 62.0327H213.575V69.5H212.039V59.3182H213.461L218.641 66.7955H218.736V59.3182H220.257ZM231.189 64.4091C231.189 65.4962 230.99 66.4309 230.592 67.2131C230.194 67.992 229.649 68.5919 228.956 69.0128C228.267 69.4304 227.483 69.6392 226.605 69.6392C225.723 69.6392 224.936 69.4304 224.243 69.0128C223.554 68.5919 223.01 67.9903 222.613 67.2081C222.215 66.4259 222.016 65.4929 222.016 64.4091C222.016 63.322 222.215 62.389 222.613 61.6101C223.01 60.8279 223.554 60.228 224.243 59.8104C224.936 59.3894 225.723 59.179 226.605 59.179C227.483 59.179 228.267 59.3894 228.956 59.8104C229.649 60.228 230.194 60.8279 230.592 61.6101C230.99 62.389 231.189 63.322 231.189 64.4091ZM229.667 64.4091C229.667 63.5805 229.533 62.8828 229.265 62.3161C228.999 61.746 228.635 61.3151 228.171 61.0234C227.71 60.7285 227.188 60.581 226.605 60.581C226.018 60.581 225.495 60.7285 225.034 61.0234C224.573 61.3151 224.209 61.746 223.94 62.3161C223.675 62.8828 223.542 63.5805 223.542 64.4091C223.542 65.2377 223.675 65.937 223.94 66.5071C224.209 67.0739 224.573 67.5047 225.034 67.7997C225.495 68.0914 226.018 68.2372 226.605 68.2372C227.188 68.2372 227.71 68.0914 228.171 67.7997C228.635 67.5047 228.999 67.0739 229.265 66.5071C229.533 65.937 229.667 65.2377 229.667 64.4091ZM234.821 69.5L231.997 59.3182H233.612L235.596 67.2031H235.691L237.754 59.3182H239.355L241.418 67.2081H241.512L243.491 59.3182H245.112L242.283 69.5H240.737L238.594 61.8736H238.514L236.372 69.5H234.821ZM251.884 61.9929C251.831 61.5223 251.613 61.1577 251.228 60.8991C250.844 60.6373 250.36 60.5064 249.776 60.5064C249.359 60.5064 248.998 60.5727 248.693 60.7053C248.388 60.8345 248.151 61.0135 247.982 61.2422C247.816 61.4676 247.733 61.7244 247.733 62.0128C247.733 62.2547 247.789 62.4635 247.902 62.6392C248.018 62.8149 248.169 62.9624 248.355 63.0817C248.543 63.1977 248.746 63.2955 248.961 63.375C249.177 63.4512 249.384 63.5142 249.583 63.5639L250.577 63.8224C250.902 63.902 251.235 64.0097 251.576 64.1456C251.918 64.2815 252.234 64.4605 252.526 64.6825C252.817 64.9046 253.053 65.1797 253.232 65.5078C253.414 65.8359 253.505 66.2287 253.505 66.6861C253.505 67.2628 253.356 67.7749 253.058 68.2223C252.763 68.6697 252.333 69.0227 251.77 69.2812C251.21 69.5398 250.532 69.669 249.737 69.669C248.974 69.669 248.315 69.5481 247.758 69.3061C247.201 69.0642 246.765 68.7211 246.45 68.277C246.136 67.8295 245.962 67.2992 245.928 66.6861H247.47C247.499 67.054 247.619 67.3606 247.828 67.6058C248.04 67.8478 248.31 68.0284 248.638 68.1477C248.969 68.2637 249.332 68.3217 249.727 68.3217C250.161 68.3217 250.547 68.2538 250.885 68.1179C251.226 67.9787 251.495 67.7865 251.69 67.5412C251.886 67.2926 251.984 67.0026 251.984 66.6712C251.984 66.3696 251.898 66.1226 251.725 65.9304C251.556 65.7382 251.326 65.5791 251.034 65.4531C250.746 65.3272 250.419 65.2161 250.055 65.12L248.852 64.7919C248.036 64.5698 247.39 64.2434 246.913 63.8125C246.439 63.3816 246.202 62.8116 246.202 62.1023C246.202 61.5156 246.361 61.0036 246.679 60.5661C246.997 60.1286 247.428 59.7888 247.972 59.5469C248.515 59.3016 249.128 59.179 249.811 59.179C250.501 59.179 251.109 59.3 251.636 59.5419C252.166 59.7839 252.584 60.117 252.889 60.5412C253.194 60.9621 253.353 61.446 253.366 61.9929H251.884Z" fill="black" fill-opacity="0.8" style="fill:black;fill-opacity:0.8;"/>
</svg>
