<svg width="2351" height="2199" viewBox="0 0 2351 2199" fill="none" xmlns="http://www.w3.org/2000/svg">
<path d="M69.0459 258.535C68.5588 260.118 69.4478 261.797 71.0315 262.284C72.6152 262.771 74.2938 261.882 74.7808 260.298L69.0459 258.535ZM151.417 134.913L153.369 137.192L151.417 134.913ZM264.079 71.2973C264.843 69.8273 264.271 68.016 262.801 67.2516L238.846 54.7957C237.376 54.0314 235.564 54.6034 234.8 56.0734C234.036 57.5434 234.608 59.3547 236.078 60.1191L257.371 71.191L246.299 92.4845C245.535 93.9545 246.107 95.7658 247.577 96.5302C249.047 97.2945 250.858 96.7225 251.623 95.2525L264.079 71.2973ZM71.9133 259.417C74.7808 260.298 74.7807 260.299 74.7806 260.299C74.7808 260.298 74.7808 260.298 74.781 260.298C74.7815 260.296 74.7823 260.294 74.7834 260.29C74.7857 260.282 74.7895 260.27 74.7946 260.254C74.805 260.221 74.8211 260.169 74.8431 260.1C74.8869 259.961 74.954 259.751 75.0445 259.472C75.2255 258.916 75.5003 258.086 75.871 257.009C76.6125 254.856 77.7375 251.715 79.2631 247.79C82.315 239.94 86.9659 228.967 93.3514 216.508C106.14 191.554 125.802 160.805 153.369 137.192L151.417 134.913L149.465 132.635C121.076 156.953 100.986 188.456 88.0118 213.771C81.5159 226.446 76.7827 237.612 73.6708 245.616C72.1145 249.62 70.9627 252.835 70.1979 255.056C69.8154 256.167 69.5297 257.029 69.3384 257.617C69.2428 257.912 69.1708 258.137 69.1221 258.291C69.0978 258.368 69.0793 258.427 69.0666 258.468C69.0602 258.488 69.0553 258.504 69.0519 258.515C69.0502 258.521 69.0488 258.525 69.0478 258.528C69.0473 258.53 69.0468 258.532 69.0466 258.532C69.0462 258.534 69.0459 258.535 71.9133 259.417ZM151.417 134.913L153.369 137.192C181.122 113.418 208.405 97.2962 228.743 87.1218C238.909 82.0357 247.333 78.4395 253.201 76.119C256.135 74.9588 258.43 74.1178 259.984 73.5692C260.761 73.2949 261.353 73.0937 261.746 72.9623C261.943 72.8966 262.09 72.8484 262.187 72.8171C262.235 72.8015 262.27 72.7901 262.292 72.783C262.304 72.7794 262.311 72.7769 262.316 72.7754C262.318 72.7746 262.32 72.7742 262.321 72.7739C262.321 72.7738 262.321 72.7739 262.321 72.7738C262.321 72.7739 262.32 72.7741 261.417 69.9133C260.513 67.0526 260.512 67.0529 260.511 67.0533C260.511 67.0535 260.509 67.0539 260.508 67.0543C260.505 67.0551 260.502 67.0562 260.498 67.0575C260.489 67.0602 260.478 67.064 260.463 67.0688C260.433 67.0784 260.389 67.0923 260.334 67.1104C260.222 67.1467 260.059 67.2001 259.846 67.2711C259.421 67.4131 258.797 67.6254 257.987 67.9115C256.366 68.4835 254.002 69.3504 250.995 70.5393C244.982 72.9169 236.397 76.5834 226.058 81.7558C205.385 92.0983 177.668 108.476 149.465 132.635L151.417 134.913Z" fill="#30839D"/>
<path d="M900.48 1764.98C900.236 1765.77 900.681 1766.61 901.472 1766.85C902.264 1767.09 903.104 1766.65 903.347 1765.86L900.48 1764.98ZM981.417 1640.91L982.393 1642.05L981.417 1640.91ZM901.913 1765.42C903.347 1765.86 903.347 1765.86 903.347 1765.86C903.347 1765.86 903.347 1765.86 903.348 1765.86C903.348 1765.85 903.349 1765.85 903.351 1765.85C903.353 1765.84 903.357 1765.82 903.363 1765.81C903.374 1765.77 903.39 1765.72 903.413 1765.65C903.458 1765.5 903.526 1765.29 903.618 1765.01C903.802 1764.44 904.079 1763.61 904.453 1762.52C905.2 1760.35 906.332 1757.19 907.865 1753.25C910.932 1745.36 915.603 1734.34 922.017 1721.82C934.852 1696.78 954.62 1665.84 982.393 1642.05L981.417 1640.91L980.441 1639.77C952.258 1663.92 932.275 1695.23 919.347 1720.46C912.878 1733.08 908.166 1744.19 905.069 1752.16C903.52 1756.14 902.375 1759.34 901.616 1761.54C901.237 1762.65 900.954 1763.5 900.765 1764.08C900.671 1764.37 900.6 1764.59 900.552 1764.74C900.529 1764.82 900.511 1764.88 900.499 1764.91C900.493 1764.93 900.488 1764.95 900.485 1764.96C900.483 1764.96 900.482 1764.97 900.481 1764.97C900.481 1764.97 900.48 1764.97 900.48 1764.97C900.48 1764.97 900.48 1764.98 901.913 1765.42ZM981.417 1640.91L982.393 1642.05C1010.26 1618.18 1037.65 1602 1058.07 1591.78C1068.28 1586.67 1076.74 1583.06 1082.65 1580.72C1085.6 1579.56 1087.91 1578.71 1089.48 1578.15C1090.27 1577.88 1090.87 1577.67 1091.27 1577.54C1091.47 1577.47 1091.62 1577.42 1091.72 1577.39C1091.77 1577.37 1091.81 1577.36 1091.83 1577.35C1091.85 1577.35 1091.86 1577.35 1091.86 1577.35C1091.86 1577.35 1091.87 1577.34 1091.87 1577.34C1091.87 1577.34 1091.87 1577.34 1091.87 1577.34C1091.87 1577.34 1091.87 1577.34 1091.42 1575.91C1090.97 1574.48 1090.96 1574.48 1090.96 1574.48C1090.96 1574.48 1090.96 1574.48 1090.96 1574.48C1090.96 1574.48 1090.96 1574.49 1090.95 1574.49C1090.94 1574.49 1090.93 1574.49 1090.92 1574.5C1090.89 1574.51 1090.85 1574.52 1090.8 1574.54C1090.69 1574.57 1090.53 1574.62 1090.32 1574.69C1089.9 1574.83 1089.29 1575.04 1088.49 1575.33C1086.88 1575.89 1084.54 1576.75 1081.55 1577.93C1075.57 1580.3 1067.03 1583.95 1056.73 1589.1C1036.14 1599.4 1008.53 1615.71 980.441 1639.77L981.417 1640.91Z" fill="#30839D"/>
<path d="M261.417 617.956C261.417 617.956 184.846 594.408 136.914 538.452C88.9818 482.496 71.9138 428.452 71.9138 428.452" stroke="#1A1B1D" stroke-width="3"/>
<path d="M1073.42 628.503C1073.42 628.503 996.846 604.956 948.914 549C900.982 493.044 883.914 439 883.914 439" stroke="#1A1B1D" stroke-width="3"/>
<path d="M283 64C283 28.6538 311.654 0 347 0C382.346 0 411 28.6538 411 64C411 99.3462 382.346 128 347 128C311.654 128 283 99.3462 283 64Z" fill="#CFD1D4"/>
<path d="M283 629C283 593.654 311.654 565 347 565C382.346 565 411 593.654 411 629C411 664.346 382.346 693 347 693C311.654 693 283 664.346 283 629Z" fill="#CFD1D4"/>
<path d="M565 347C565 311.654 593.654 283 629 283C664.346 283 693 311.654 693 347C693 382.346 664.346 411 629 411C593.654 411 565 382.346 565 347Z" fill="#CFD1D4"/>
<path d="M0 344C0 308.654 28.6538 280 64 280C99.3462 280 128 308.654 128 344C128 379.346 99.3462 408 64 408C28.6538 408 0 379.346 0 344Z" fill="#CFD1D4"/>
<path d="M281.216 130.494C281.608 130.106 281.612 129.472 281.223 129.08C280.835 128.687 280.202 128.684 279.809 129.072L281.216 130.494ZM280.512 129.783L279.809 129.072L129.785 277.506L130.488 278.217L131.192 278.928L281.216 130.494L280.512 129.783Z" fill="#1A1B1D"/>
<path d="M280.157 130.135L130.844 277.865" stroke="#1A1B1D" stroke-width="3" stroke-linecap="round" stroke-linejoin="bevel"/>
<path d="M561 346.639L132 344.361" stroke="#1A1B1D" stroke-width="3" stroke-linecap="round" stroke-linejoin="bevel"/>
<path d="M562.403 280.167L413.598 130.833" stroke="#1A1B1D" stroke-width="3" stroke-linecap="round" stroke-linejoin="bevel"/>
<path d="M562.171 413.828L413.828 562.172" stroke="#1A1B1D" stroke-width="3" stroke-linecap="round" stroke-linejoin="bevel"/>
<path d="M280.63 562.162L130.369 410.838" stroke="#1A1B1D" stroke-width="3" stroke-linecap="round" stroke-linejoin="bevel"/>
<rect x="950.308" y="542.945" width="28" height="28" transform="rotate(-39.041 950.308 542.945)" fill="white"/>
<path d="M1112 64C1112 28.6538 1140.65 0 1176 0V0C1211.35 0 1240 28.6538 1240 64V64C1240 99.3462 1211.35 128 1176 128V128C1140.65 128 1112 99.3462 1112 64V64Z" fill="#CFD1D4"/>
<path d="M1112 629C1112 593.654 1140.65 565 1176 565V565C1211.35 565 1240 593.654 1240 629V629C1240 664.346 1211.35 693 1176 693V693C1140.65 693 1112 664.346 1112 629V629Z" fill="#CFD1D4"/>
<path d="M1394 347C1394 311.654 1422.65 283 1458 283V283C1493.35 283 1522 311.654 1522 347V347C1522 382.346 1493.35 411 1458 411V411C1422.65 411 1394 382.346 1394 347V347Z" fill="#CFD1D4"/>
<path d="M829 344C829 308.654 857.654 280 893 280V280C928.346 280 957 308.654 957 344V344C957 379.346 928.346 408 893 408V408C857.654 408 829 379.346 829 344V344Z" fill="#CFD1D4"/>
<path d="M1110.22 130.494C1110.61 130.106 1110.61 129.472 1110.22 129.08C1109.83 128.687 1109.2 128.684 1108.81 129.072L1110.22 130.494ZM1109.51 129.783L1108.81 129.072L958.785 277.506L959.488 278.217L960.192 278.928L1110.22 130.494L1109.51 129.783Z" fill="#1A1B1D"/>
<path d="M901.913 259.417C901.913 259.417 925.461 182.845 981.417 134.913C1037.37 86.9813 1091.42 69.9133 1091.42 69.9133" stroke="#1A1B1D" stroke-width="3" stroke-linecap="round"/>
<path d="M1109.16 130.135L959.844 277.865" stroke="#1A1B1D" stroke-width="3" stroke-linecap="round" stroke-linejoin="bevel"/>
<path d="M1390 346.639L961 344.361" stroke="#1A1B1D" stroke-width="3" stroke-linecap="round" stroke-linejoin="bevel"/>
<path d="M1391.4 280.167L1242.6 130.833" stroke="#1A1B1D" stroke-width="3" stroke-linecap="round" stroke-linejoin="bevel"/>
<path d="M1391.17 413.828L1242.83 562.172" stroke="#1A1B1D" stroke-width="3" stroke-linecap="round" stroke-linejoin="bevel"/>
<path d="M1109.63 562.162L959.369 410.838" stroke="#1A1B1D" stroke-width="3" stroke-linejoin="bevel"/>
<path d="M261.5 1367.5C261.5 1367.5 184.929 1343.95 136.997 1288C89.0648 1232.04 71.9968 1178 71.9968 1178" stroke="#30839D" stroke-width="3" stroke-linecap="round"/>
<rect x="121.308" y="1291.94" width="28" height="28" transform="rotate(-39.041 121.308 1291.94)" fill="white"/>
<path d="M283 813C283 777.654 311.654 749 347 749V749C382.346 749 411 777.654 411 813V813C411 848.346 382.346 877 347 877V877C311.654 877 283 848.346 283 813V813Z" fill="#CFD1D4"/>
<path d="M283 1378C283 1342.65 311.654 1314 347 1314V1314C382.346 1314 411 1342.65 411 1378V1378C411 1413.35 382.346 1442 347 1442V1442C311.654 1442 283 1413.35 283 1378V1378Z" fill="#CFD1D4"/>
<path d="M565 1096C565 1060.65 593.654 1032 629 1032V1032C664.346 1032 693 1060.65 693 1096V1096C693 1131.35 664.346 1160 629 1160V1160C593.654 1160 565 1131.35 565 1096V1096Z" fill="#CFD1D4"/>
<path d="M0 1093C0 1057.65 28.6538 1029 64 1029V1029C99.3462 1029 128 1057.65 128 1093V1093C128 1128.35 99.3462 1157 64 1157V1157C28.6538 1157 0 1128.35 0 1093V1093Z" fill="#CFD1D4"/>
<path d="M281.216 879.494C281.608 879.106 281.612 878.472 281.223 878.08C280.835 877.687 280.202 877.684 279.809 878.072L281.216 879.494ZM280.512 878.783L279.809 878.072L129.785 1026.51L130.488 1027.22L131.192 1027.93L281.216 879.494L280.512 878.783Z" fill="#1A1B1D"/>
<path d="M72.9133 1008.42C72.9133 1008.42 96.4609 931.845 152.417 883.913C208.373 835.981 262.417 818.913 262.417 818.913" stroke="#30839D" stroke-width="3" stroke-linecap="round"/>
<path d="M280.157 879.135L130.844 1026.87" stroke="#1A1B1D" stroke-width="3" stroke-linecap="round" stroke-linejoin="bevel"/>
<path d="M561.495 1096.64C562.047 1096.64 562.497 1096.2 562.5 1095.65C562.503 1095.09 562.058 1094.64 561.505 1094.64L561.495 1096.64ZM515.834 1095.4L515.828 1096.4L515.834 1095.4ZM460.167 1095.1L460.162 1096.1L460.167 1095.1ZM561.5 1095.64L561.505 1094.64L515.839 1094.4L515.834 1095.4L515.828 1096.4L561.495 1096.64L561.5 1095.64ZM515.834 1095.4L515.839 1094.4L460.172 1094.1L460.167 1095.1L460.162 1096.1L515.828 1096.4L515.834 1095.4ZM460.167 1095.1L460.172 1094.1L131.505 1092.36L131.5 1093.36L131.495 1094.36L460.162 1096.1L460.167 1095.1Z" fill="#1A1B1D"/>
<path d="M562.403 1029.17L515.834 982.432L460.167 926.568L413.598 879.833" stroke="#1A1B1D" stroke-width="3" stroke-linecap="round" stroke-linejoin="bevel"/>
<path d="M564.111 1163.89C564.111 1162.23 562.767 1160.89 561.111 1160.89L534.111 1160.89C532.454 1160.89 531.111 1162.23 531.111 1163.89C531.111 1165.55 532.454 1166.89 534.111 1166.89L558.111 1166.89L558.111 1190.89C558.111 1192.55 559.454 1193.89 561.111 1193.89C562.767 1193.89 564.111 1192.55 564.111 1190.89L564.111 1163.89ZM517.5 1207.5L515.378 1205.38L515.378 1205.38L517.5 1207.5ZM513.712 1207.05C512.54 1208.22 512.54 1210.12 513.712 1211.29C514.883 1212.46 516.783 1212.46 517.955 1211.29L513.712 1207.05ZM462.288 1266.95C463.459 1265.78 463.459 1263.88 462.288 1262.71C461.116 1261.54 459.217 1261.54 458.045 1262.71L462.288 1266.95ZM458.5 1266.5L456.378 1264.38L456.378 1264.38L458.5 1266.5ZM412.767 1307.99C411.596 1309.16 411.596 1311.06 412.767 1312.23C413.939 1313.4 415.838 1313.4 417.01 1312.23L412.767 1307.99ZM561.111 1163.89L558.989 1161.77L515.378 1205.38L517.5 1207.5L519.621 1209.62L563.232 1166.01L561.111 1163.89ZM517.5 1207.5L515.378 1205.38L513.712 1207.05L515.833 1209.17L517.955 1211.29L519.621 1209.62L517.5 1207.5ZM460.167 1264.83L458.045 1262.71L456.378 1264.38L458.5 1266.5L460.621 1268.62L462.288 1266.95L460.167 1264.83ZM458.5 1266.5L456.378 1264.38L412.767 1307.99L414.889 1310.11L417.01 1312.23L460.621 1268.62L458.5 1266.5Z" fill="#30839D"/>
<path d="M487.561 1250.4C485.605 1250.38 483.919 1250.05 482.503 1249.39C481.087 1248.73 479.983 1247.79 479.191 1246.56C478.411 1245.34 478.003 1243.89 477.967 1242.21H482.233C482.485 1243.75 483.097 1244.91 484.069 1245.66C485.053 1246.41 486.247 1246.78 487.651 1246.78C488.815 1246.78 489.823 1246.6 490.675 1246.26C491.527 1245.9 492.181 1245.4 492.637 1244.78C493.105 1244.16 493.339 1243.43 493.339 1242.6C493.339 1241.73 493.087 1240.98 492.583 1240.35C492.091 1239.73 491.413 1239.25 490.549 1238.91C489.685 1238.58 488.713 1238.4 487.633 1238.37L485.221 1238.3V1234.74L487.453 1234.65C488.485 1234.61 489.391 1234.41 490.171 1234.05C490.963 1233.69 491.581 1233.22 492.025 1232.63C492.469 1232.04 492.691 1231.38 492.691 1230.65C492.691 1229.98 492.481 1229.37 492.061 1228.83C491.653 1228.29 491.071 1227.87 490.315 1227.57C489.559 1227.26 488.665 1227.1 487.633 1227.1C486.757 1227.1 485.935 1227.26 485.167 1227.57C484.399 1227.88 483.763 1228.39 483.259 1229.08C482.767 1229.77 482.497 1230.67 482.449 1231.78H478.201C478.201 1230.01 478.627 1228.51 479.479 1227.3C480.331 1226.08 481.471 1225.16 482.899 1224.55C484.339 1223.92 485.935 1223.61 487.687 1223.61C489.571 1223.61 491.239 1223.87 492.691 1224.39C494.155 1224.89 495.301 1225.65 496.129 1226.67C496.969 1227.69 497.389 1228.96 497.389 1230.47C497.389 1231.75 496.999 1232.9 496.219 1233.91C495.439 1234.92 494.209 1235.71 492.529 1236.28C493.573 1236.57 494.509 1237 495.337 1237.58C496.165 1238.14 496.819 1238.85 497.299 1239.7C497.791 1240.56 498.037 1241.56 498.037 1242.71C498.037 1243.95 497.767 1245.04 497.227 1246C496.699 1246.96 495.955 1247.77 494.995 1248.43C494.047 1249.08 492.937 1249.57 491.665 1249.91C490.393 1250.23 489.025 1250.4 487.561 1250.4Z" fill="black" fill-opacity="0.8"/>
<path d="M280.63 1311.16L236.282 1266.5L177.696 1207.5L130.369 1159.84" stroke="#1A1B1D" stroke-width="3" stroke-linecap="round" stroke-linejoin="bevel"/>
<path d="M141.674 1301L141.684 1297.57H134.954V1295.5L141.614 1286.54H144.034V1295.5H146.344V1297.57H144.034V1301H141.674ZM137.234 1295.5H141.664V1289.56L137.234 1295.5Z" fill="black"/>
<path d="M1090.5 1367.5C1090.5 1367.5 1013.93 1343.95 965.997 1288C918.065 1232.04 900.997 1178 900.997 1178" stroke="#30839D" stroke-width="3" stroke-linecap="round"/>
<rect x="950.308" y="1291.94" width="28" height="28" transform="rotate(-39.041 950.308 1291.94)" fill="white"/>
<path d="M1112 813C1112 777.654 1140.65 749 1176 749V749C1211.35 749 1240 777.654 1240 813V813C1240 848.346 1211.35 877 1176 877V877C1140.65 877 1112 848.346 1112 813V813Z" fill="#CFD1D4"/>
<path d="M1112 1378C1112 1342.65 1140.65 1314 1176 1314V1314C1211.35 1314 1240 1342.65 1240 1378V1378C1240 1413.35 1211.35 1442 1176 1442V1442C1140.65 1442 1112 1413.35 1112 1378V1378Z" fill="#CFD1D4"/>
<path d="M1394 1096C1394 1060.65 1422.65 1032 1458 1032V1032C1493.35 1032 1522 1060.65 1522 1096V1096C1522 1131.35 1493.35 1160 1458 1160V1160C1422.65 1160 1394 1131.35 1394 1096V1096Z" fill="#CFD1D4"/>
<path d="M829 1093C829 1057.65 857.654 1029 893 1029V1029C928.346 1029 957 1057.65 957 1093V1093C957 1128.35 928.346 1157 893 1157V1157C857.654 1157 829 1128.35 829 1093V1093Z" fill="#CFD1D4"/>
<path d="M1110.22 879.494C1110.61 879.106 1110.61 878.472 1110.22 878.08C1109.83 877.687 1109.2 877.684 1108.81 878.072L1110.22 879.494ZM1062.8 925L1062.1 924.289L1062.1 924.289L1062.8 925ZM1003.17 984L1002.46 983.289L1002.46 983.289L1003.17 984ZM1109.51 878.783L1108.81 878.072L1062.1 924.289L1062.8 925L1063.5 925.711L1110.22 879.494L1109.51 878.783ZM1062.8 925L1062.1 924.289L1002.46 983.289L1003.17 984L1003.87 984.711L1063.5 925.711L1062.8 925ZM1003.17 984L1002.46 983.289L958.785 1026.51L959.488 1027.22L960.192 1027.93L1003.87 984.711L1003.17 984Z" fill="#1A1B1D"/>
<path d="M901.913 1008.42C901.913 1008.42 925.461 931.845 981.417 883.913C1037.37 835.981 1091.42 818.913 1091.42 818.913" stroke="#30839D" stroke-width="3" stroke-linecap="round"/>
<path d="M1109.16 879.135L1062.8 925L1003.17 984L959.844 1026.87" stroke="#1A1B1D" stroke-width="3" stroke-linecap="round" stroke-linejoin="bevel"/>
<path d="M1389.99 1097.14C1390.82 1097.14 1391.5 1096.48 1391.5 1095.65C1391.5 1094.82 1390.84 1094.14 1390.01 1094.14L1389.99 1097.14ZM1344.33 1095.4L1344.33 1096.9L1344.33 1096.9L1344.33 1095.4ZM1342.33 1095.39L1342.34 1093.89L1342.34 1093.89L1342.33 1095.39ZM1291.67 1095.12L1291.66 1096.62L1291.66 1096.62L1291.67 1095.12ZM1289.67 1095.11L1289.68 1093.61L1289.68 1093.61L1289.67 1095.11ZM1390 1095.64L1390.01 1094.14L1344.34 1093.9L1344.33 1095.4L1344.33 1096.9L1389.99 1097.14L1390 1095.64ZM1344.33 1095.4L1344.34 1093.9L1342.34 1093.89L1342.33 1095.39L1342.33 1096.89L1344.33 1096.9L1344.33 1095.4ZM1342.33 1095.39L1342.34 1093.89L1291.68 1093.62L1291.67 1095.12L1291.66 1096.62L1342.33 1096.89L1342.33 1095.39ZM1291.67 1095.12L1291.68 1093.62L1289.68 1093.61L1289.67 1095.11L1289.66 1096.61L1291.66 1096.62L1291.67 1095.12ZM1289.67 1095.11L1289.68 1093.61L961.008 1091.86L961 1093.36L960.992 1094.86L1289.66 1096.61L1289.67 1095.11Z" fill="#1A1B1D"/>
<path d="M1388.22 1030.22C1389.39 1031.4 1391.29 1031.4 1392.46 1030.23C1393.64 1029.06 1393.64 1027.16 1392.47 1025.99L1388.22 1030.22ZM1346.4 984L1344.27 986.118L1344.27 986.118L1346.4 984ZM1346.46 979.813C1345.29 978.639 1343.39 978.636 1342.22 979.806C1341.04 980.975 1341.04 982.875 1342.21 984.048L1346.46 979.813ZM1287.54 929.188C1288.71 930.361 1290.61 930.365 1291.78 929.195C1292.96 928.026 1292.96 926.126 1291.79 924.953L1287.54 929.188ZM1287.6 925L1285.48 927.118L1285.48 927.118L1287.6 925ZM1243.66 877.896C1242 877.893 1240.66 879.234 1240.66 880.891L1240.61 907.891C1240.61 909.547 1241.95 910.893 1243.6 910.896C1245.26 910.899 1246.61 909.558 1246.61 907.901L1246.65 883.901L1270.65 883.944C1272.31 883.947 1273.65 882.606 1273.66 880.949C1273.66 879.292 1272.32 877.947 1270.66 877.944L1243.66 877.896ZM1390.34 1028.1L1392.47 1025.99L1348.52 981.882L1346.4 984L1344.27 986.118L1388.22 1030.22L1390.34 1028.1ZM1346.4 984L1348.52 981.882L1346.46 979.813L1344.33 981.931L1342.21 984.048L1344.27 986.118L1346.4 984ZM1289.67 927.07L1291.79 924.953L1289.73 922.882L1287.6 925L1285.48 927.118L1287.54 929.188L1289.67 927.07ZM1287.6 925L1289.73 922.882L1245.78 878.778L1243.66 880.896L1241.53 883.014L1285.48 927.118L1287.6 925Z" fill="#30839D"/>
<path d="M1308.01 967.5V965.16V963.954C1308.01 962.622 1308.26 961.476 1308.75 960.516C1309.24 959.544 1309.9 958.698 1310.71 957.978C1311.53 957.258 1312.42 956.622 1313.4 956.07C1314.38 955.506 1315.35 954.978 1316.31 954.486C1317.28 953.982 1318.18 953.466 1318.99 952.938C1319.81 952.398 1320.46 951.798 1320.96 951.138C1321.46 950.478 1321.71 949.692 1321.71 948.78C1321.71 947.616 1321.3 946.668 1320.47 945.936C1319.65 945.192 1318.54 944.82 1317.14 944.82C1315.65 944.82 1314.42 945.246 1313.45 946.098C1312.49 946.95 1311.92 948.15 1311.74 949.698H1307.49C1307.52 948.114 1307.89 946.674 1308.63 945.378C1309.36 944.082 1310.44 943.05 1311.88 942.282C1313.32 941.502 1315.12 941.112 1317.27 941.112C1319.13 941.112 1320.73 941.436 1322.07 942.084C1323.43 942.72 1324.47 943.614 1325.2 944.766C1325.95 945.906 1326.32 947.238 1326.32 948.762C1326.32 950.094 1326.07 951.234 1325.58 952.182C1325.1 953.13 1324.46 953.952 1323.66 954.648C1322.86 955.332 1321.99 955.938 1321.03 956.466C1320.08 956.994 1319.13 957.492 1318.17 957.96C1317.22 958.416 1316.34 958.896 1315.54 959.4C1314.75 959.892 1314.1 960.456 1313.61 961.092C1313.13 961.728 1312.89 962.49 1312.89 963.378V963.756H1326.37V967.5H1308.01Z" fill="black" fill-opacity="0.8"/>
<path d="M1391.17 1162.83L1345 1209L1344.45 1209.54L1342.33 1211.67M1291.67 1262.33L1291.12 1262.88L1289 1265L1242.83 1311.17" stroke="#30839D" stroke-width="3" stroke-linecap="round" stroke-linejoin="bevel"/>
<path d="M1316.56 1250.4C1314.6 1250.38 1312.92 1250.05 1311.5 1249.39C1310.09 1248.73 1308.98 1247.79 1308.19 1246.56C1307.41 1245.34 1307 1243.89 1306.97 1242.21H1311.23C1311.48 1243.75 1312.1 1244.91 1313.07 1245.66C1314.05 1246.41 1315.25 1246.78 1316.65 1246.78C1317.81 1246.78 1318.82 1246.6 1319.67 1246.26C1320.53 1245.9 1321.18 1245.4 1321.64 1244.78C1322.1 1244.16 1322.34 1243.43 1322.34 1242.6C1322.34 1241.73 1322.09 1240.98 1321.58 1240.35C1321.09 1239.73 1320.41 1239.25 1319.55 1238.91C1318.68 1238.58 1317.71 1238.4 1316.63 1238.37L1314.22 1238.3V1234.74L1316.45 1234.65C1317.48 1234.61 1318.39 1234.41 1319.17 1234.05C1319.96 1233.69 1320.58 1233.22 1321.02 1232.63C1321.47 1232.04 1321.69 1231.38 1321.69 1230.65C1321.69 1229.98 1321.48 1229.37 1321.06 1228.83C1320.65 1228.29 1320.07 1227.87 1319.31 1227.57C1318.56 1227.26 1317.66 1227.1 1316.63 1227.1C1315.76 1227.1 1314.93 1227.26 1314.17 1227.57C1313.4 1227.88 1312.76 1228.39 1312.26 1229.08C1311.77 1229.77 1311.5 1230.67 1311.45 1231.78H1307.2C1307.2 1230.01 1307.63 1228.51 1308.48 1227.3C1309.33 1226.08 1310.47 1225.16 1311.9 1224.55C1313.34 1223.92 1314.93 1223.61 1316.69 1223.61C1318.57 1223.61 1320.24 1223.87 1321.69 1224.39C1323.15 1224.89 1324.3 1225.65 1325.13 1226.67C1325.97 1227.69 1326.39 1228.96 1326.39 1230.47C1326.39 1231.75 1326 1232.9 1325.22 1233.91C1324.44 1234.92 1323.21 1235.71 1321.53 1236.28C1322.57 1236.57 1323.51 1237 1324.34 1237.58C1325.16 1238.14 1325.82 1238.85 1326.3 1239.7C1326.79 1240.56 1327.04 1241.56 1327.04 1242.71C1327.04 1243.95 1326.77 1245.04 1326.23 1246C1325.7 1246.96 1324.95 1247.77 1323.99 1248.43C1323.05 1249.08 1321.94 1249.57 1320.66 1249.91C1319.39 1250.23 1318.02 1250.4 1316.56 1250.4Z" fill="black" fill-opacity="0.8"/>
<path d="M1109.63 1311.16L1063.79 1265L1008.19 1209L959.369 1159.84" stroke="#1A1B1D" stroke-width="3" stroke-linecap="round" stroke-linejoin="bevel"/>
<path d="M970.674 1301L970.684 1297.57H963.954V1295.5L970.614 1286.54H973.034V1295.5H975.344V1297.57H973.034V1301H970.674ZM966.234 1295.5H970.664V1289.56L966.234 1295.5Z" fill="black"/>
<path d="M1919.5 1367.5C1919.5 1367.5 1842.93 1343.95 1795 1288C1747.06 1232.04 1730 1178 1730 1178" stroke="#30839D" stroke-width="3" stroke-linecap="round"/>
<rect x="1779.31" y="1291.94" width="28" height="28" transform="rotate(-39.041 1779.31 1291.94)" fill="white"/>
<path d="M1941 813C1941 777.654 1969.65 749 2005 749V749C2040.35 749 2069 777.654 2069 813V813C2069 848.346 2040.35 877 2005 877V877C1969.65 877 1941 848.346 1941 813V813Z" fill="#CFD1D4"/>
<path d="M1941 1378C1941 1342.65 1969.65 1314 2005 1314V1314C2040.35 1314 2069 1342.65 2069 1378V1378C2069 1413.35 2040.35 1442 2005 1442V1442C1969.65 1442 1941 1413.35 1941 1378V1378Z" fill="#CFD1D4"/>
<path d="M2223 1096C2223 1060.65 2251.65 1032 2287 1032V1032C2322.35 1032 2351 1060.65 2351 1096V1096C2351 1131.35 2322.35 1160 2287 1160V1160C2251.65 1160 2223 1131.35 2223 1096V1096Z" fill="#CFD1D4"/>
<path d="M1658 1093C1658 1057.65 1686.65 1029 1722 1029V1029C1757.35 1029 1786 1057.65 1786 1093V1093C1786 1128.35 1757.35 1157 1722 1157V1157C1686.65 1157 1658 1128.35 1658 1093V1093Z" fill="#CFD1D4"/>
<path d="M1939.22 879.494C1939.61 879.106 1939.61 878.472 1939.22 878.08C1938.83 877.687 1938.2 877.684 1937.81 878.072L1939.22 879.494ZM1893.32 923.5L1892.61 922.789L1892.61 922.789L1893.32 923.5ZM1890.63 924.751C1890.24 925.139 1890.23 925.772 1890.62 926.165C1891.01 926.557 1891.64 926.561 1892.04 926.172L1890.63 924.751ZM1836.37 981.249C1836.76 980.86 1836.77 980.227 1836.38 979.835C1835.99 979.442 1835.36 979.439 1834.96 979.827L1836.37 981.249ZM1831.65 983.043L1830.94 982.344L1831.65 983.043ZM1834.21 981.979L1833.51 981.268L1834.21 981.979ZM1938.51 878.783L1937.81 878.072L1892.61 922.789L1893.32 923.5L1894.02 924.211L1939.22 879.494L1938.51 878.783ZM1893.32 923.5L1892.61 922.789L1890.63 924.751L1891.33 925.461L1892.04 926.172L1894.02 924.211L1893.32 923.5ZM1835.67 980.538L1834.96 979.827L1833.51 981.268L1834.21 981.979L1834.91 982.69L1836.37 981.249L1835.67 980.538ZM1831.65 983.043L1830.94 982.344L1787.77 1026.52L1788.49 1027.22L1789.2 1027.92L1832.37 983.742L1831.65 983.043ZM1832.94 982.5V981.5C1832.19 981.5 1831.47 981.804 1830.94 982.344L1831.65 983.043L1832.37 983.742C1832.52 983.587 1832.73 983.5 1832.94 983.5V982.5ZM1834.21 981.979L1833.51 981.268C1833.36 981.417 1833.15 981.5 1832.94 981.5V982.5V983.5C1833.68 983.5 1834.39 983.209 1834.91 982.69L1834.21 981.979Z" fill="#1A1B1D"/>
<path d="M1730.91 1008.42C1730.91 1008.42 1754.46 931.845 1810.42 883.913C1866.37 835.981 1920.42 818.913 1920.42 818.913" stroke="#30839D" stroke-width="3" stroke-linecap="round"/>
<path d="M1939.2 882.323C1940.38 881.157 1940.39 879.258 1939.22 878.08C1938.06 876.902 1936.16 876.892 1934.98 878.057L1939.2 882.323ZM1893.32 923.5L1895.43 925.633L1895.43 925.633L1893.32 923.5ZM1889.22 923.329C1888.05 924.494 1888.04 926.394 1889.2 927.571C1890.37 928.749 1892.27 928.759 1893.44 927.594L1889.22 923.329ZM1837.78 982.671C1838.96 981.505 1838.97 979.606 1837.8 978.428C1836.63 977.25 1834.74 977.24 1833.56 978.405L1837.78 982.671ZM1833.68 982.5L1831.57 980.367L1831.57 980.367L1833.68 982.5ZM1786.91 1025.79C1786.9 1027.45 1788.24 1028.8 1789.89 1028.81L1816.89 1028.95C1818.55 1028.96 1819.9 1027.63 1819.91 1025.97C1819.92 1024.31 1818.58 1022.96 1816.93 1022.95L1792.93 1022.83L1793.05 998.827C1793.06 997.17 1791.73 995.819 1790.07 995.811C1788.41 995.802 1787.06 997.138 1787.05 998.795L1786.91 1025.79ZM1937.09 880.19L1934.98 878.057L1891.21 921.367L1893.32 923.5L1895.43 925.633L1939.2 882.323L1937.09 880.19ZM1893.32 923.5L1891.21 921.367L1889.22 923.329L1891.33 925.461L1893.44 927.594L1895.43 925.633L1893.32 923.5ZM1835.67 980.538L1833.56 978.405L1831.57 980.367L1833.68 982.5L1835.79 984.633L1837.78 982.671L1835.67 980.538ZM1833.68 982.5L1831.57 980.367L1787.8 1023.68L1789.91 1025.81L1792.02 1027.94L1835.79 984.633L1833.68 982.5Z" fill="#30839D"/>
<path d="M1863.87 966.396C1862.22 966.396 1860.68 966.126 1859.25 965.586C1857.83 965.034 1856.61 964.278 1855.58 963.318C1854.56 962.358 1853.79 961.26 1853.29 960.024L1856.84 958.152C1857.28 959.04 1857.81 959.838 1858.42 960.546C1859.04 961.254 1859.77 961.812 1860.6 962.22C1861.44 962.616 1862.4 962.814 1863.48 962.814C1865.17 962.814 1866.53 962.346 1867.55 961.41C1868.58 960.462 1869.09 959.202 1869.09 957.63C1869.09 956.658 1868.85 955.794 1868.37 955.038C1867.91 954.282 1867.26 953.694 1866.45 953.274C1865.64 952.842 1864.73 952.626 1863.69 952.626C1863.08 952.626 1862.51 952.68 1861.97 952.788C1861.44 952.896 1860.9 953.1 1860.36 953.4C1859.82 953.688 1859.24 954.126 1858.62 954.714C1858.5 954.774 1858.41 954.804 1858.35 954.804C1858.3 954.792 1858.21 954.756 1858.08 954.696L1854.71 953.328L1855.9 939.972H1872.08L1871.92 943.626H1859.46L1858.87 950.862C1859.79 950.214 1860.72 949.746 1861.66 949.458C1862.6 949.17 1863.63 949.026 1864.76 949.026C1866.41 949.026 1867.92 949.35 1869.27 949.998C1870.63 950.646 1871.71 951.6 1872.51 952.86C1873.32 954.12 1873.72 955.662 1873.72 957.486C1873.72 959.31 1873.31 960.888 1872.5 962.22C1871.69 963.552 1870.55 964.584 1869.08 965.316C1867.61 966.036 1865.88 966.396 1863.87 966.396Z" fill="black" fill-opacity="0.8"/>
<path d="M2219 1095.64L2171.33 1095.39L2169.83 1095.38L2122.17 1095.12L2120.67 1095.12L1891.33 1093.9L1835.67 1093.6L1790 1093.36" stroke="#1A1B1D" stroke-width="3" stroke-linecap="round" stroke-linejoin="bevel"/>
<path d="M2220.4 1029.17L2173.9 982.5L2171.89 980.484L2170.83 979.422M2121.17 929.579L2120.11 928.516L2118.1 926.5L2115.11 923.5L2071.6 879.833" stroke="#30839D" stroke-width="3" stroke-linecap="round" stroke-linejoin="bevel"/>
<path d="M2137.01 967.5V965.16V963.954C2137.01 962.622 2137.26 961.476 2137.75 960.516C2138.24 959.544 2138.9 958.698 2139.71 957.978C2140.53 957.258 2141.42 956.622 2142.4 956.07C2143.38 955.506 2144.35 954.978 2145.31 954.486C2146.28 953.982 2147.18 953.466 2147.99 952.938C2148.81 952.398 2149.46 951.798 2149.96 951.138C2150.46 950.478 2150.71 949.692 2150.71 948.78C2150.71 947.616 2150.3 946.668 2149.47 945.936C2148.65 945.192 2147.54 944.82 2146.14 944.82C2144.65 944.82 2143.42 945.246 2142.45 946.098C2141.49 946.95 2140.92 948.15 2140.74 949.698H2136.49C2136.52 948.114 2136.89 946.674 2137.63 945.378C2138.36 944.082 2139.44 943.05 2140.88 942.282C2142.32 941.502 2144.12 941.112 2146.27 941.112C2148.13 941.112 2149.73 941.436 2151.07 942.084C2152.43 942.72 2153.47 943.614 2154.2 944.766C2154.95 945.906 2155.32 947.238 2155.32 948.762C2155.32 950.094 2155.07 951.234 2154.58 952.182C2154.1 953.13 2153.46 953.952 2152.66 954.648C2151.86 955.332 2150.99 955.938 2150.03 956.466C2149.08 956.994 2148.13 957.492 2147.17 957.96C2146.22 958.416 2145.34 958.896 2144.54 959.4C2143.75 959.892 2143.1 960.456 2142.61 961.092C2142.13 961.728 2141.89 962.49 2141.89 963.378V963.756H2155.37V967.5H2137.01Z" fill="black" fill-opacity="0.8"/>
<path d="M2220.17 1162.83L2174 1209L2171.33 1211.67M2120.67 1262.33L2118 1265L2071.83 1311.17" stroke="#30839D" stroke-width="3" stroke-linecap="round" stroke-linejoin="bevel"/>
<path d="M2145.56 1250.4C2143.6 1250.38 2141.92 1250.05 2140.5 1249.39C2139.09 1248.73 2137.98 1247.79 2137.19 1246.56C2136.41 1245.34 2136 1243.89 2135.97 1242.21H2140.23C2140.48 1243.75 2141.1 1244.91 2142.07 1245.66C2143.05 1246.41 2144.25 1246.78 2145.65 1246.78C2146.81 1246.78 2147.82 1246.6 2148.67 1246.26C2149.53 1245.9 2150.18 1245.4 2150.64 1244.78C2151.1 1244.16 2151.34 1243.43 2151.34 1242.6C2151.34 1241.73 2151.09 1240.98 2150.58 1240.35C2150.09 1239.73 2149.41 1239.25 2148.55 1238.91C2147.68 1238.58 2146.71 1238.4 2145.63 1238.37L2143.22 1238.3V1234.74L2145.45 1234.65C2146.48 1234.61 2147.39 1234.41 2148.17 1234.05C2148.96 1233.69 2149.58 1233.22 2150.02 1232.63C2150.47 1232.04 2150.69 1231.38 2150.69 1230.65C2150.69 1229.98 2150.48 1229.37 2150.06 1228.83C2149.65 1228.29 2149.07 1227.87 2148.31 1227.57C2147.56 1227.26 2146.66 1227.1 2145.63 1227.1C2144.76 1227.1 2143.93 1227.26 2143.17 1227.57C2142.4 1227.88 2141.76 1228.39 2141.26 1229.08C2140.77 1229.77 2140.5 1230.67 2140.45 1231.78H2136.2C2136.2 1230.01 2136.63 1228.51 2137.48 1227.3C2138.33 1226.08 2139.47 1225.16 2140.9 1224.55C2142.34 1223.92 2143.93 1223.61 2145.69 1223.61C2147.57 1223.61 2149.24 1223.87 2150.69 1224.39C2152.15 1224.89 2153.3 1225.65 2154.13 1226.67C2154.97 1227.69 2155.39 1228.96 2155.39 1230.47C2155.39 1231.75 2155 1232.9 2154.22 1233.91C2153.44 1234.92 2152.21 1235.71 2150.53 1236.28C2151.57 1236.57 2152.51 1237 2153.34 1237.58C2154.16 1238.14 2154.82 1238.85 2155.3 1239.7C2155.79 1240.56 2156.04 1241.56 2156.04 1242.71C2156.04 1243.95 2155.77 1245.04 2155.23 1246C2154.7 1246.96 2153.95 1247.77 2152.99 1248.43C2152.05 1249.08 2150.94 1249.57 2149.66 1249.91C2148.39 1250.23 2147.02 1250.4 2145.56 1250.4Z" fill="black" fill-opacity="0.8"/>
<path d="M1938.63 1311.16L1892.79 1265L1891.33 1263.53L1837.19 1209L1835.67 1207.47L1788.37 1159.84" stroke="#1A1B1D" stroke-width="3" stroke-linecap="round" stroke-linejoin="bevel"/>
<path d="M1799.67 1301L1799.68 1297.57H1792.95V1295.5L1799.61 1286.54H1802.03V1295.5H1804.34V1297.57H1802.03V1301H1799.67ZM1795.23 1295.5H1799.66V1289.56L1795.23 1295.5Z" fill="black"/>
<path d="M1920.9 621.151C1922.37 620.376 1922.93 618.56 1922.15 617.096L1909.51 593.236C1908.74 591.771 1906.92 591.213 1905.46 591.989C1904 592.764 1903.44 594.58 1904.21 596.044L1915.44 617.253L1894.24 628.485C1892.77 629.261 1892.21 631.077 1892.99 632.541C1893.76 634.005 1895.58 634.563 1897.04 633.788L1920.9 621.151ZM1795 538.996L1797.28 537.045L1795 538.996ZM1919.5 618.5C1920.38 615.633 1920.38 615.633 1920.38 615.633C1920.38 615.633 1920.38 615.633 1920.38 615.632C1920.38 615.632 1920.38 615.631 1920.37 615.63C1920.37 615.628 1920.35 615.624 1920.34 615.619C1920.3 615.608 1920.25 615.592 1920.18 615.57C1920.04 615.526 1919.83 615.459 1919.56 615.369C1919 615.188 1918.17 614.913 1917.09 614.542C1914.94 613.801 1911.8 612.676 1907.87 611.15C1900.02 608.098 1889.05 603.447 1876.59 597.062C1851.64 584.273 1820.89 564.612 1797.28 537.045L1795 538.996L1792.72 540.948C1817.04 569.337 1848.54 589.427 1873.85 602.401C1886.53 608.897 1897.7 613.631 1905.7 616.743C1909.7 618.299 1912.92 619.451 1915.14 620.215C1916.25 620.598 1917.11 620.884 1917.7 621.075C1918 621.171 1918.22 621.243 1918.37 621.291C1918.45 621.316 1918.51 621.334 1918.55 621.347C1918.57 621.353 1918.59 621.358 1918.6 621.361C1918.6 621.363 1918.61 621.365 1918.61 621.366C1918.61 621.366 1918.62 621.367 1918.62 621.367C1918.62 621.367 1918.62 621.367 1919.5 618.5ZM1795 538.996L1797.28 537.045C1773.5 509.291 1757.38 482.008 1747.21 461.671C1742.12 451.504 1738.52 443.081 1736.2 437.212C1735.04 434.278 1734.2 431.983 1733.65 430.429C1733.38 429.652 1733.18 429.061 1733.05 428.667C1732.98 428.47 1732.93 428.323 1732.9 428.227C1732.88 428.179 1732.87 428.143 1732.87 428.121C1732.86 428.11 1732.86 428.102 1732.86 428.097C1732.86 428.095 1732.86 428.093 1732.86 428.093C1732.86 428.092 1732.86 428.092 1732.86 428.092C1732.86 428.093 1732.86 428.093 1730 428.996C1727.14 429.9 1727.14 429.901 1727.14 429.902C1727.14 429.903 1727.14 429.904 1727.14 429.905C1727.14 429.908 1727.14 429.911 1727.14 429.916C1727.14 429.924 1727.15 429.936 1727.15 429.951C1727.16 429.981 1727.18 430.024 1727.19 430.08C1727.23 430.191 1727.28 430.354 1727.35 430.567C1727.5 430.992 1727.71 431.617 1727.99 432.427C1728.57 434.047 1729.43 436.411 1730.62 439.418C1733 445.431 1736.67 454.016 1741.84 464.355C1752.18 485.029 1768.56 512.745 1792.72 540.948L1795 538.996Z" fill="#30839D"/>
<rect x="1779.31" y="542.945" width="28" height="28" transform="rotate(-39.041 1779.31 542.945)" fill="white"/>
<path d="M1941 64C1941 28.6538 1969.65 0 2005 0V0C2040.35 0 2069 28.6538 2069 64V64C2069 99.3462 2040.35 128 2005 128V128C1969.65 128 1941 99.3462 1941 64V64Z" fill="#CFD1D4"/>
<path d="M1941 629C1941 593.654 1969.65 565 2005 565V565C2040.35 565 2069 593.654 2069 629V629C2069 664.346 2040.35 693 2005 693V693C1969.65 693 1941 664.346 1941 629V629Z" fill="#CFD1D4"/>
<path d="M2223 347C2223 311.654 2251.65 283 2287 283V283C2322.35 283 2351 311.654 2351 347V347C2351 382.346 2322.35 411 2287 411V411C2251.65 411 2223 382.346 2223 347V347Z" fill="#CFD1D4"/>
<path d="M1658 344C1658 308.654 1686.65 280 1722 280V280C1757.35 280 1786 308.654 1786 344V344C1786 379.346 1757.35 408 1722 408V408C1686.65 408 1658 379.346 1658 344V344Z" fill="#CFD1D4"/>
<path d="M1939.22 130.494C1939.61 130.106 1939.61 129.472 1939.22 129.08C1938.83 128.687 1938.2 128.684 1937.81 129.072L1939.22 130.494ZM1938.51 129.783L1937.81 129.072L1787.78 277.506L1788.49 278.217L1789.19 278.928L1939.22 130.494L1938.51 129.783Z" fill="#1A1B1D"/>
<path d="M1730.91 259.417C1730.91 259.417 1754.46 182.845 1810.42 134.913C1866.37 86.9813 1920.42 69.9133 1920.42 69.9133" stroke="#30839D" stroke-width="3" stroke-linecap="round"/>
<path d="M1938.16 130.135L1788.84 277.865" stroke="#1A1B1D" stroke-width="3" stroke-linecap="round" stroke-linejoin="bevel"/>
<path d="M2219 346.639L1790 344.361" stroke="#1A1B1D" stroke-width="3" stroke-linecap="round" stroke-linejoin="bevel"/>
<path d="M2220.4 280.167L2071.6 130.833" stroke="#1A1B1D" stroke-width="3" stroke-linecap="round" stroke-linejoin="bevel"/>
<path d="M2220.17 413.828L2071.83 562.172" stroke="#1A1B1D" stroke-width="3" stroke-linecap="round" stroke-linejoin="bevel"/>
<path d="M1938.63 562.162L1788.37 410.838" stroke="#1A1B1D" stroke-width="3" stroke-linecap="round" stroke-linejoin="bevel"/>
<path d="M1799.67 552L1799.68 548.57H1792.95V546.5L1799.61 537.54H1802.03V546.5H1804.34V548.57H1802.03V552H1799.67ZM1795.23 546.5H1799.66V540.56L1795.23 546.5Z" fill="black"/>
<path d="M261.5 2116.5C261.5 2116.5 184.929 2092.95 136.997 2037C89.0648 1981.04 71.9968 1927 71.9968 1927" stroke="#30839D" stroke-width="3" stroke-linecap="round"/>
<rect x="121.308" y="2040.94" width="28" height="28" transform="rotate(-39.041 121.308 2040.94)" fill="white"/>
<path d="M283 1562C283 1526.65 311.654 1498 347 1498V1498C382.346 1498 411 1526.65 411 1562V1562C411 1597.35 382.346 1626 347 1626V1626C311.654 1626 283 1597.35 283 1562V1562Z" fill="#CFD1D4"/>
<path d="M283 2127C283 2091.65 311.654 2063 347 2063V2063C382.346 2063 411 2091.65 411 2127V2127C411 2162.35 382.346 2191 347 2191V2191C311.654 2191 283 2162.35 283 2127V2127Z" fill="#CFD1D4"/>
<path d="M565 1842C565 1806.65 593.654 1778 629 1778V1778C664.346 1778 693 1806.65 693 1842V1842C693 1877.35 664.346 1906 629 1906V1906C593.654 1906 565 1877.35 565 1842V1842Z" fill="#CFD1D4"/>
<path d="M0 1842C0 1806.65 28.6538 1778 64 1778V1778C99.3462 1778 128 1806.65 128 1842V1842C128 1877.35 99.3462 1906 64 1906V1906C28.6538 1906 0 1877.35 0 1842V1842Z" fill="#CFD1D4"/>
<path d="M72.9133 1757.42C72.9133 1757.42 96.4609 1680.85 152.417 1632.91C208.373 1584.98 262.417 1567.91 262.417 1567.91" stroke="#30839D" stroke-width="3" stroke-linecap="round"/>
<path d="M280.157 1628.13L233.8 1674L232.967 1674.82L230.834 1676.93M180.167 1727.06L179.333 1727.89L177.727 1729.48C177.39 1729.81 176.934 1730 176.459 1730V1730C175.974 1730 175.509 1730.2 175.17 1730.54L130.844 1775.87" stroke="#30839D" stroke-width="3" stroke-linecap="round" stroke-linejoin="bevel"/>
<path d="M205.875 1715.4C204.219 1715.4 202.677 1715.13 201.249 1714.59C199.833 1714.03 198.609 1713.28 197.577 1712.32C196.557 1711.36 195.795 1710.26 195.291 1709.02L198.837 1707.15C199.281 1708.04 199.809 1708.84 200.421 1709.55C201.045 1710.25 201.771 1710.81 202.599 1711.22C203.439 1711.62 204.399 1711.81 205.479 1711.81C207.171 1711.81 208.527 1711.35 209.547 1710.41C210.579 1709.46 211.095 1708.2 211.095 1706.63C211.095 1705.66 210.855 1704.79 210.375 1704.04C209.907 1703.28 209.265 1702.69 208.449 1702.27C207.645 1701.84 206.727 1701.63 205.695 1701.63C205.083 1701.63 204.507 1701.68 203.967 1701.79C203.439 1701.9 202.905 1702.1 202.365 1702.4C201.825 1702.69 201.243 1703.13 200.619 1703.71C200.499 1703.77 200.409 1703.8 200.349 1703.8C200.301 1703.79 200.211 1703.76 200.079 1703.7L196.713 1702.33L197.901 1688.97H214.083L213.921 1692.63H201.465L200.871 1699.86C201.795 1699.21 202.725 1698.75 203.661 1698.46C204.597 1698.17 205.629 1698.03 206.757 1698.03C208.413 1698.03 209.919 1698.35 211.275 1699C212.631 1699.65 213.711 1700.6 214.515 1701.86C215.319 1703.12 215.721 1704.66 215.721 1706.49C215.721 1708.31 215.313 1709.89 214.497 1711.22C213.693 1712.55 212.553 1713.58 211.077 1714.32C209.613 1715.04 207.879 1715.4 205.875 1715.4Z" fill="black" fill-opacity="0.8"/>
<path d="M561 1842H132" stroke="#1A1B1D" stroke-width="3" stroke-linecap="round" stroke-linejoin="bevel"/>
<path d="M516.2 1730L517.257 1728.94L517.257 1728.94L516.2 1730ZM513.898 1727.71L514.955 1726.65L514.955 1726.65L513.898 1727.71ZM513.891 1725.59C513.303 1725.01 512.353 1725.01 511.77 1725.6C511.186 1726.19 511.189 1727.14 511.777 1727.72L513.891 1725.59ZM462.111 1678.41C462.698 1678.99 463.648 1678.99 464.232 1678.4C464.816 1677.81 464.812 1676.86 464.224 1676.28L462.111 1678.41ZM462.103 1676.29L463.16 1675.22L463.16 1675.22L462.103 1676.29ZM459.8 1674L458.744 1675.06L458.744 1675.06L459.8 1674ZM414.896 1627.3C414.308 1626.72 413.358 1626.72 412.774 1627.31C412.191 1627.9 412.194 1628.84 412.782 1629.43L414.896 1627.3ZM562.162 1775.64L563.219 1774.57L517.257 1728.94L516.2 1730L515.144 1731.06L561.105 1776.7L562.162 1775.64ZM516.2 1730L517.257 1728.94L514.955 1726.65L513.898 1727.71L512.842 1728.78L515.144 1731.06L516.2 1730ZM513.898 1727.71L514.955 1726.65L513.891 1725.59L512.834 1726.66L511.777 1727.72L512.842 1728.78L513.898 1727.71ZM463.167 1677.34L464.224 1676.28L463.16 1675.22L462.103 1676.29L461.046 1677.35L462.111 1678.41L463.167 1677.34ZM462.103 1676.29L463.16 1675.22L460.857 1672.94L459.8 1674L458.744 1675.06L461.046 1677.35L462.103 1676.29ZM459.8 1674L460.857 1672.94L414.896 1627.3L413.839 1628.36L412.782 1629.43L458.744 1675.06L459.8 1674Z" fill="#30839D"/>
<path d="M479.015 1715V1712.66V1711.45C479.015 1710.12 479.261 1708.98 479.753 1708.02C480.245 1707.04 480.899 1706.2 481.715 1705.48C482.531 1704.76 483.425 1704.12 484.397 1703.57C485.381 1703.01 486.353 1702.48 487.313 1701.99C488.285 1701.48 489.179 1700.97 489.995 1700.44C490.811 1699.9 491.465 1699.3 491.957 1698.64C492.461 1697.98 492.713 1697.19 492.713 1696.28C492.713 1695.12 492.299 1694.17 491.471 1693.44C490.655 1692.69 489.545 1692.32 488.141 1692.32C486.653 1692.32 485.423 1692.75 484.451 1693.6C483.491 1694.45 482.921 1695.65 482.741 1697.2H478.493C478.517 1695.61 478.895 1694.17 479.627 1692.88C480.359 1691.58 481.445 1690.55 482.885 1689.78C484.325 1689 486.119 1688.61 488.267 1688.61C490.127 1688.61 491.729 1688.94 493.073 1689.58C494.429 1690.22 495.473 1691.11 496.205 1692.27C496.949 1693.41 497.321 1694.74 497.321 1696.26C497.321 1697.59 497.075 1698.73 496.583 1699.68C496.103 1700.63 495.461 1701.45 494.657 1702.15C493.865 1702.83 492.989 1703.44 492.029 1703.97C491.081 1704.49 490.127 1704.99 489.167 1705.46C488.219 1705.92 487.343 1706.4 486.539 1706.9C485.747 1707.39 485.105 1707.96 484.613 1708.59C484.133 1709.23 483.893 1709.99 483.893 1710.88V1711.26H497.375V1715H479.015Z" fill="black" fill-opacity="0.8"/>
<path d="M562.86 1908.84L517.815 1954.37L515.705 1956.5L513.334 1958.9M462.667 2010.1L460.295 2012.5L458.185 2014.63L413.14 2060.16" stroke="#30839D" stroke-width="3" stroke-linecap="round" stroke-linejoin="bevel"/>
<path d="M487.561 1997.9C485.605 1997.88 483.919 1997.55 482.503 1996.89C481.087 1996.23 479.983 1995.29 479.191 1994.06C478.411 1992.84 478.003 1991.39 477.967 1989.71H482.233C482.485 1991.25 483.097 1992.41 484.069 1993.16C485.053 1993.91 486.247 1994.28 487.651 1994.28C488.815 1994.28 489.823 1994.1 490.675 1993.76C491.527 1993.4 492.181 1992.9 492.637 1992.28C493.105 1991.66 493.339 1990.93 493.339 1990.1C493.339 1989.23 493.087 1988.48 492.583 1987.85C492.091 1987.23 491.413 1986.75 490.549 1986.41C489.685 1986.08 488.713 1985.9 487.633 1985.87L485.221 1985.8V1982.24L487.453 1982.15C488.485 1982.11 489.391 1981.91 490.171 1981.55C490.963 1981.19 491.581 1980.72 492.025 1980.13C492.469 1979.54 492.691 1978.88 492.691 1978.15C492.691 1977.48 492.481 1976.87 492.061 1976.33C491.653 1975.79 491.071 1975.37 490.315 1975.07C489.559 1974.76 488.665 1974.6 487.633 1974.6C486.757 1974.6 485.935 1974.76 485.167 1975.07C484.399 1975.38 483.763 1975.89 483.259 1976.58C482.767 1977.27 482.497 1978.17 482.449 1979.28H478.201C478.201 1977.51 478.627 1976.01 479.479 1974.8C480.331 1973.58 481.471 1972.66 482.899 1972.05C484.339 1971.42 485.935 1971.11 487.687 1971.11C489.571 1971.11 491.239 1971.37 492.691 1971.89C494.155 1972.39 495.301 1973.15 496.129 1974.17C496.969 1975.19 497.389 1976.46 497.389 1977.97C497.389 1979.25 496.999 1980.4 496.219 1981.41C495.439 1982.42 494.209 1983.21 492.529 1983.78C493.573 1984.07 494.509 1984.5 495.337 1985.08C496.165 1985.64 496.819 1986.35 497.299 1987.2C497.791 1988.06 498.037 1989.06 498.037 1990.21C498.037 1991.45 497.767 1992.54 497.227 1993.5C496.699 1994.46 495.955 1995.27 494.995 1995.93C494.047 1996.58 492.937 1997.07 491.665 1997.41C490.393 1997.73 489.025 1997.9 487.561 1997.9Z" fill="black" fill-opacity="0.8"/>
<path d="M279.563 2062.1C281.22 2062.1 282.567 2060.76 282.573 2059.11L282.668 2032.11C282.674 2030.45 281.336 2029.1 279.679 2029.1C278.022 2029.09 276.674 2030.43 276.668 2032.09L276.584 2056.09L252.584 2056C250.927 2056 249.579 2057.33 249.573 2058.99C249.568 2060.65 250.906 2062 252.563 2062L279.563 2062.1ZM234.793 2014L232.664 2016.11L232.664 2016.11L234.793 2014ZM235.462 2010.42C234.295 2009.24 232.395 2009.23 231.219 2010.4C230.044 2011.57 230.037 2013.47 231.204 2014.64L235.462 2010.42ZM175.538 1958.58C176.705 1959.76 178.605 1959.77 179.78 1958.6C180.956 1957.43 180.963 1955.53 179.795 1954.36L175.538 1958.58ZM176.207 1955L178.335 1952.89L178.335 1952.89L176.207 1955ZM133.555 1907.79C132.387 1906.61 130.488 1906.61 129.312 1907.77C128.136 1908.94 128.13 1910.84 129.297 1912.02L133.555 1907.79ZM279.573 2059.1L281.702 2056.98L236.921 2011.89L234.793 2014L232.664 2016.11L277.445 2061.21L279.573 2059.1ZM234.793 2014L236.921 2011.89L235.462 2010.42L233.333 2012.53L231.204 2014.64L232.664 2016.11L234.793 2014ZM177.667 1956.47L179.795 1954.36L178.335 1952.89L176.207 1955L174.078 1957.11L175.538 1958.58L177.667 1956.47ZM176.207 1955L178.335 1952.89L133.555 1907.79L131.426 1909.9L129.297 1912.02L174.078 1957.11L176.207 1955Z" fill="#30839D"/>
<path d="M205.922 1997.9C203.798 1997.9 201.962 1997.37 200.414 1996.31C198.866 1995.26 197.672 1993.76 196.832 1991.83C196.004 1989.89 195.59 1987.59 195.59 1984.94C195.59 1982.12 196.004 1979.67 196.832 1977.61C197.66 1975.53 198.86 1973.93 200.432 1972.8C202.016 1971.68 203.93 1971.11 206.174 1971.11C207.71 1971.11 209.132 1971.4 210.44 1971.98C211.748 1972.54 212.822 1973.36 213.662 1974.42C214.502 1975.49 214.994 1976.78 215.138 1978.29H211.088C210.752 1977.13 210.176 1976.23 209.36 1975.59C208.544 1974.96 207.512 1974.64 206.264 1974.64C204.884 1974.64 203.732 1975.03 202.808 1975.81C201.884 1976.59 201.218 1977.71 200.81 1979.18C200.414 1980.63 200.288 1982.37 200.432 1984.4C200.804 1983.69 201.308 1983.08 201.944 1982.56C202.58 1982.03 203.306 1981.62 204.122 1981.34C204.938 1981.05 205.802 1980.9 206.714 1980.9C208.454 1980.9 209.978 1981.23 211.286 1981.89C212.594 1982.55 213.614 1983.49 214.346 1984.7C215.078 1985.91 215.444 1987.35 215.444 1989C215.444 1990.72 215.048 1992.25 214.256 1993.59C213.464 1994.93 212.354 1995.98 210.926 1996.74C209.498 1997.51 207.83 1997.9 205.922 1997.9ZM205.814 1994.46C206.75 1994.46 207.59 1994.24 208.334 1993.79C209.09 1993.35 209.684 1992.73 210.116 1991.94C210.56 1991.15 210.782 1990.23 210.782 1989.2C210.782 1988.15 210.578 1987.25 210.17 1986.52C209.762 1985.79 209.18 1985.23 208.424 1984.85C207.68 1984.46 206.804 1984.27 205.796 1984.27C204.968 1984.27 204.164 1984.46 203.384 1984.85C202.616 1985.23 201.986 1985.73 201.494 1986.34C201.014 1986.95 200.774 1987.61 200.774 1988.3C200.762 1989.54 200.966 1990.62 201.386 1991.54C201.806 1992.47 202.394 1993.19 203.15 1993.7C203.918 1994.21 204.806 1994.46 205.814 1994.46Z" fill="black" fill-opacity="0.8"/>
<path d="M141.674 2050L141.684 2046.57H134.954V2044.5L141.614 2035.54H144.034V2044.5H146.344V2046.57H144.034V2050H141.674ZM137.234 2044.5H141.664V2038.56L137.234 2044.5Z" fill="black"/>
<path d="M1090.5 2124.5C1090.5 2124.5 1013.93 2100.95 965.997 2045C918.065 1989.04 900.997 1935 900.997 1935" stroke="#30839D" stroke-width="3" stroke-linecap="round"/>
<rect x="950.308" y="2048.94" width="28" height="28" transform="rotate(-39.041 950.308 2048.94)" fill="white"/>
<path d="M1112 1570C1112 1534.65 1140.65 1506 1176 1506V1506C1211.35 1506 1240 1534.65 1240 1570V1570C1240 1605.35 1211.35 1634 1176 1634V1634C1140.65 1634 1112 1605.35 1112 1570V1570Z" fill="#CFD1D4"/>
<path d="M1112 2135C1112 2099.65 1140.65 2071 1176 2071V2071C1211.35 2071 1240 2099.65 1240 2135V2135C1240 2170.35 1211.35 2199 1176 2199V2199C1140.65 2199 1112 2170.35 1112 2135V2135Z" fill="#CFD1D4"/>
<path d="M1394 1842C1394 1806.65 1422.65 1778 1458 1778V1778C1493.35 1778 1522 1806.65 1522 1842V1842C1522 1877.35 1493.35 1906 1458 1906V1906C1422.65 1906 1394 1877.35 1394 1842V1842Z" fill="#CFD1D4"/>
<path d="M829 1842C829 1806.65 857.654 1778 893 1778V1778C928.346 1778 957 1806.65 957 1842V1842C957 1877.35 928.346 1906 893 1906V1906C857.654 1906 829 1877.35 829 1842V1842Z" fill="#CFD1D4"/>
<path d="M1390 1842H961" stroke="#1A1B1D" stroke-width="3" stroke-linecap="round" stroke-linejoin="bevel"/>
<path d="M1110.17 1634.66C1110.57 1634.28 1110.58 1633.64 1110.2 1633.24C1109.81 1632.85 1109.18 1632.83 1108.78 1633.22L1110.17 1634.66ZM1058.99 1681.12C1058.69 1681.59 1058.83 1682.2 1059.3 1682.5C1059.77 1682.79 1060.39 1682.65 1060.68 1682.18L1058.99 1681.12ZM1009.86 1731.07C1010.26 1730.69 1010.27 1730.05 1009.89 1729.66C1009.51 1729.26 1008.87 1729.24 1008.47 1729.63L1009.86 1731.07ZM1005.9 1733.49L1006.59 1734.21L1005.9 1733.49ZM1061.67 1678.73L1060.82 1678.2L1061.67 1678.73ZM1003.33 1734.53L1002.62 1733.83L1003.33 1734.53ZM1064.09 1677.56L1064.78 1678.28L1064.09 1677.56ZM1109.48 1633.94L1108.78 1633.22L1063.4 1676.84L1064.09 1677.56L1064.78 1678.28L1110.17 1634.66L1109.48 1633.94ZM1061.67 1678.73L1060.82 1678.2L1058.99 1681.12L1059.83 1681.65L1060.68 1682.18L1062.52 1679.27L1061.67 1678.73ZM1009.17 1730.35L1008.47 1729.63L1005.21 1732.77L1005.9 1733.49L1006.59 1734.21L1009.86 1731.07L1009.17 1730.35ZM1003.33 1734.53L1002.62 1733.83L958.819 1777.35L959.523 1778.06L960.228 1778.77L1004.03 1735.24L1003.33 1734.53ZM1005.9 1733.49L1005.21 1732.77C1005.05 1732.92 1004.84 1733 1004.63 1733V1734V1735C1005.36 1735 1006.07 1734.72 1006.59 1734.21L1005.9 1733.49ZM1063 1678V1677C1062.12 1677 1061.29 1677.45 1060.82 1678.2L1061.67 1678.73L1062.52 1679.27C1062.62 1679.1 1062.8 1679 1063 1679V1678ZM1004.63 1734V1733C1003.88 1733 1003.16 1733.3 1002.62 1733.83L1003.33 1734.53L1004.03 1735.24C1004.19 1735.09 1004.4 1735 1004.63 1735V1734ZM1064.09 1677.56L1063.4 1676.84C1063.29 1676.94 1063.15 1677 1063 1677V1678V1679C1063.66 1679 1064.3 1678.74 1064.78 1678.28L1064.09 1677.56Z" fill="#1A1B1D"/>
<path d="M1109.12 1634.28L1063.63 1678L1059.83 1681.65M1009.17 1730.35L1005.37 1734L959.884 1777.72" stroke="#30839D" stroke-width="3" stroke-linecap="round" stroke-linejoin="bevel"/>
<path d="M1034.87 1719.4C1033.22 1719.4 1031.68 1719.13 1030.25 1718.59C1028.83 1718.03 1027.61 1717.28 1026.58 1716.32C1025.56 1715.36 1024.79 1714.26 1024.29 1713.02L1027.84 1711.15C1028.28 1712.04 1028.81 1712.84 1029.42 1713.55C1030.04 1714.25 1030.77 1714.81 1031.6 1715.22C1032.44 1715.62 1033.4 1715.81 1034.48 1715.81C1036.17 1715.81 1037.53 1715.35 1038.55 1714.41C1039.58 1713.46 1040.09 1712.2 1040.09 1710.63C1040.09 1709.66 1039.85 1708.79 1039.37 1708.04C1038.91 1707.28 1038.26 1706.69 1037.45 1706.27C1036.64 1705.84 1035.73 1705.63 1034.69 1705.63C1034.08 1705.63 1033.51 1705.68 1032.97 1705.79C1032.44 1705.9 1031.9 1706.1 1031.36 1706.4C1030.82 1706.69 1030.24 1707.13 1029.62 1707.71C1029.5 1707.77 1029.41 1707.8 1029.35 1707.8C1029.3 1707.79 1029.21 1707.76 1029.08 1707.7L1025.71 1706.33L1026.9 1692.97H1043.08L1042.92 1696.63H1030.46L1029.87 1703.86C1030.79 1703.21 1031.72 1702.75 1032.66 1702.46C1033.6 1702.17 1034.63 1702.03 1035.76 1702.03C1037.41 1702.03 1038.92 1702.35 1040.27 1703C1041.63 1703.65 1042.71 1704.6 1043.51 1705.86C1044.32 1707.12 1044.72 1708.66 1044.72 1710.49C1044.72 1712.31 1044.31 1713.89 1043.5 1715.22C1042.69 1716.55 1041.55 1717.58 1040.08 1718.32C1038.61 1719.04 1036.88 1719.4 1034.87 1719.4Z" fill="black" fill-opacity="0.8"/>
<path d="M1346.03 1734L1347.07 1732.92L1347.07 1732.92L1346.03 1734ZM1343.99 1732.04L1342.95 1733.12L1342.95 1733.12L1343.99 1732.04ZM1342.87 1728.87C1342.28 1728.3 1341.33 1728.32 1340.75 1728.91C1340.18 1729.51 1340.2 1730.46 1340.79 1731.03L1342.87 1728.87ZM1291.13 1683.13C1291.72 1683.7 1292.67 1683.69 1293.25 1683.09C1293.82 1682.49 1293.8 1681.54 1293.21 1680.97L1291.13 1683.13ZM1290.13 1680.08L1289.09 1681.16L1289.09 1681.16L1290.13 1680.08ZM1243.94 1633.45C1243.35 1632.86 1242.4 1632.86 1241.82 1633.45C1241.23 1634.03 1241.23 1634.98 1241.82 1635.57L1243.94 1633.45ZM1288.5 1678.51L1289.55 1677.43L1288.5 1678.51ZM1391.12 1777.49L1392.16 1776.41L1347.07 1732.92L1346.03 1734L1344.99 1735.08L1390.08 1778.57L1391.12 1777.49ZM1346.03 1734L1347.07 1732.92L1345.03 1730.96L1343.99 1732.04L1342.95 1733.12L1344.99 1735.08L1346.03 1734ZM1343.99 1732.04L1345.03 1730.96L1342.87 1728.87L1341.83 1729.95L1340.79 1731.03L1342.95 1733.12L1343.99 1732.04ZM1292.17 1682.05L1293.21 1680.97L1291.17 1679L1290.13 1680.08L1289.09 1681.16L1291.13 1683.13L1292.17 1682.05ZM1290.13 1680.08L1291.17 1679L1289.55 1677.43L1288.5 1678.51L1287.46 1679.59L1289.09 1681.16L1290.13 1680.08ZM1285.93 1677.46L1286.99 1676.4L1243.94 1633.45L1242.88 1634.51L1241.82 1635.57L1284.87 1678.53L1285.93 1677.46ZM1287.23 1678V1676.5C1287.14 1676.5 1287.06 1676.46 1286.99 1676.4L1285.93 1677.46L1284.87 1678.53C1285.5 1679.15 1286.35 1679.5 1287.23 1679.5V1678ZM1288.5 1678.51L1289.55 1677.43C1288.92 1676.84 1288.09 1676.5 1287.23 1676.5V1678V1679.5C1287.32 1679.5 1287.4 1679.53 1287.46 1679.59L1288.5 1678.51Z" fill="#30839D"/>
<path d="M1308.01 1719V1716.66V1715.45C1308.01 1714.12 1308.26 1712.98 1308.75 1712.02C1309.24 1711.04 1309.9 1710.2 1310.71 1709.48C1311.53 1708.76 1312.42 1708.12 1313.4 1707.57C1314.38 1707.01 1315.35 1706.48 1316.31 1705.99C1317.28 1705.48 1318.18 1704.97 1318.99 1704.44C1319.81 1703.9 1320.46 1703.3 1320.96 1702.64C1321.46 1701.98 1321.71 1701.19 1321.71 1700.28C1321.71 1699.12 1321.3 1698.17 1320.47 1697.44C1319.65 1696.69 1318.54 1696.32 1317.14 1696.32C1315.65 1696.32 1314.42 1696.75 1313.45 1697.6C1312.49 1698.45 1311.92 1699.65 1311.74 1701.2H1307.49C1307.52 1699.61 1307.89 1698.17 1308.63 1696.88C1309.36 1695.58 1310.44 1694.55 1311.88 1693.78C1313.32 1693 1315.12 1692.61 1317.27 1692.61C1319.13 1692.61 1320.73 1692.94 1322.07 1693.58C1323.43 1694.22 1324.47 1695.11 1325.2 1696.27C1325.95 1697.41 1326.32 1698.74 1326.32 1700.26C1326.32 1701.59 1326.07 1702.73 1325.58 1703.68C1325.1 1704.63 1324.46 1705.45 1323.66 1706.15C1322.86 1706.83 1321.99 1707.44 1321.03 1707.97C1320.08 1708.49 1319.13 1708.99 1318.17 1709.46C1317.22 1709.92 1316.34 1710.4 1315.54 1710.9C1314.75 1711.39 1314.1 1711.96 1313.61 1712.59C1313.13 1713.23 1312.89 1713.99 1312.89 1714.88V1715.26H1326.37V1719H1308.01Z" fill="black" fill-opacity="0.8"/>
<path d="M1395.59 1909.91C1395.56 1908.25 1394.19 1906.93 1392.53 1906.96L1365.54 1907.48C1363.88 1907.51 1362.56 1908.88 1362.59 1910.54C1362.63 1912.19 1363.99 1913.51 1365.65 1913.48L1389.65 1913.02L1390.11 1937.02C1390.14 1938.67 1391.51 1939.99 1393.16 1939.96C1394.82 1939.93 1396.14 1938.56 1396.1 1936.9L1395.59 1909.91ZM1345.39 1959L1347.55 1961.08L1347.55 1961.08L1345.39 1959ZM1342.67 1957.5C1341.52 1958.69 1341.56 1960.59 1342.75 1961.74C1343.95 1962.89 1345.85 1962.85 1347 1961.66L1342.67 1957.5ZM1291.33 2019.5C1292.48 2018.31 1292.44 2016.41 1291.25 2015.26C1290.05 2014.11 1288.15 2014.14 1287.01 2015.34L1291.33 2019.5ZM1288.61 2018L1290.77 2020.08L1290.77 2020.08L1288.61 2018ZM1239.25 2064.96C1238.1 2066.15 1238.14 2068.05 1239.33 2069.2C1240.52 2070.35 1242.42 2070.31 1243.57 2069.12L1239.25 2064.96ZM1392.59 1909.96L1390.43 1907.88L1343.23 1956.92L1345.39 1959L1347.55 1961.08L1394.75 1912.04L1392.59 1909.96ZM1345.39 1959L1343.23 1956.92L1342.67 1957.5L1344.83 1959.58L1347 1961.66L1347.55 1961.08L1345.39 1959ZM1289.17 2017.42L1287.01 2015.34L1286.45 2015.92L1288.61 2018L1290.77 2020.08L1291.33 2019.5L1289.17 2017.42ZM1288.61 2018L1286.45 2015.92L1239.25 2064.96L1241.41 2067.04L1243.57 2069.12L1290.77 2020.08L1288.61 2018Z" fill="#30839D"/>
<path d="M1316.56 2001.9C1314.6 2001.88 1312.92 2001.55 1311.5 2000.89C1310.09 2000.23 1308.98 1999.29 1308.19 1998.06C1307.41 1996.84 1307 1995.39 1306.97 1993.71H1311.23C1311.48 1995.25 1312.1 1996.41 1313.07 1997.16C1314.05 1997.91 1315.25 1998.28 1316.65 1998.28C1317.81 1998.28 1318.82 1998.1 1319.67 1997.76C1320.53 1997.4 1321.18 1996.9 1321.64 1996.28C1322.1 1995.66 1322.34 1994.93 1322.34 1994.1C1322.34 1993.23 1322.09 1992.48 1321.58 1991.85C1321.09 1991.23 1320.41 1990.75 1319.55 1990.41C1318.68 1990.08 1317.71 1989.9 1316.63 1989.87L1314.22 1989.8V1986.24L1316.45 1986.15C1317.48 1986.11 1318.39 1985.91 1319.17 1985.55C1319.96 1985.19 1320.58 1984.72 1321.02 1984.13C1321.47 1983.54 1321.69 1982.88 1321.69 1982.15C1321.69 1981.48 1321.48 1980.87 1321.06 1980.33C1320.65 1979.79 1320.07 1979.37 1319.31 1979.07C1318.56 1978.76 1317.66 1978.6 1316.63 1978.6C1315.76 1978.6 1314.93 1978.76 1314.17 1979.07C1313.4 1979.38 1312.76 1979.89 1312.26 1980.58C1311.77 1981.27 1311.5 1982.17 1311.45 1983.28H1307.2C1307.2 1981.51 1307.63 1980.01 1308.48 1978.8C1309.33 1977.58 1310.47 1976.66 1311.9 1976.05C1313.34 1975.42 1314.93 1975.11 1316.69 1975.11C1318.57 1975.11 1320.24 1975.37 1321.69 1975.89C1323.15 1976.39 1324.3 1977.15 1325.13 1978.17C1325.97 1979.19 1326.39 1980.46 1326.39 1981.97C1326.39 1983.25 1326 1984.4 1325.22 1985.41C1324.44 1986.42 1323.21 1987.21 1321.53 1987.78C1322.57 1988.07 1323.51 1988.5 1324.34 1989.08C1325.16 1989.64 1325.82 1990.35 1326.3 1991.2C1326.79 1992.06 1327.04 1993.06 1327.04 1994.21C1327.04 1995.45 1326.77 1996.54 1326.23 1997.5C1325.7 1998.46 1324.95 1999.27 1323.99 1999.93C1323.05 2000.58 1321.94 2001.07 1320.66 2001.41C1319.39 2001.73 1318.02 2001.9 1316.56 2001.9Z" fill="black" fill-opacity="0.8"/>
<path d="M1111.41 2068.12L1063.63 2018.66L1061.54 2016.5L1059.83 2014.73M1009.17 1962.27L1007.46 1960.5L1005.37 1958.34L957.595 1908.88" stroke="#30839D" stroke-width="3" stroke-linecap="round" stroke-linejoin="bevel"/>
<path d="M1034.92 2001.9C1032.8 2001.9 1030.96 2001.37 1029.41 2000.31C1027.87 1999.26 1026.67 1997.76 1025.83 1995.83C1025 1993.89 1024.59 1991.59 1024.59 1988.94C1024.59 1986.12 1025 1983.67 1025.83 1981.61C1026.66 1979.53 1027.86 1977.93 1029.43 1976.8C1031.02 1975.68 1032.93 1975.11 1035.17 1975.11C1036.71 1975.11 1038.13 1975.4 1039.44 1975.98C1040.75 1976.54 1041.82 1977.36 1042.66 1978.42C1043.5 1979.49 1043.99 1980.78 1044.14 1982.29H1040.09C1039.75 1981.13 1039.18 1980.23 1038.36 1979.59C1037.54 1978.96 1036.51 1978.64 1035.26 1978.64C1033.88 1978.64 1032.73 1979.03 1031.81 1979.81C1030.88 1980.59 1030.22 1981.71 1029.81 1983.18C1029.41 1984.63 1029.29 1986.37 1029.43 1988.4C1029.8 1987.69 1030.31 1987.08 1030.94 1986.56C1031.58 1986.03 1032.31 1985.62 1033.12 1985.34C1033.94 1985.05 1034.8 1984.9 1035.71 1984.9C1037.45 1984.9 1038.98 1985.23 1040.29 1985.89C1041.59 1986.55 1042.61 1987.49 1043.35 1988.7C1044.08 1989.91 1044.44 1991.35 1044.44 1993C1044.44 1994.72 1044.05 1996.25 1043.26 1997.59C1042.46 1998.93 1041.35 1999.98 1039.93 2000.74C1038.5 2001.51 1036.83 2001.9 1034.92 2001.9ZM1034.81 1998.46C1035.75 1998.46 1036.59 1998.24 1037.33 1997.79C1038.09 1997.35 1038.68 1996.73 1039.12 1995.94C1039.56 1995.15 1039.78 1994.23 1039.78 1993.2C1039.78 1992.15 1039.58 1991.25 1039.17 1990.52C1038.76 1989.79 1038.18 1989.23 1037.42 1988.85C1036.68 1988.46 1035.8 1988.27 1034.8 1988.27C1033.97 1988.27 1033.16 1988.46 1032.38 1988.85C1031.62 1989.23 1030.99 1989.73 1030.49 1990.34C1030.01 1990.95 1029.77 1991.61 1029.77 1992.3C1029.76 1993.54 1029.97 1994.62 1030.39 1995.54C1030.81 1996.47 1031.39 1997.19 1032.15 1997.7C1032.92 1998.21 1033.81 1998.46 1034.81 1998.46Z" fill="black" fill-opacity="0.8"/>
<path d="M970.674 2058L970.684 2054.57H963.954V2052.5L970.614 2043.54H973.034V2052.5H975.344V2054.57H973.034V2058H970.674ZM966.234 2052.5H970.664V2046.56L966.234 2052.5Z" fill="black"/>
<path d="M1919.5 2124.5C1919.5 2124.5 1842.93 2100.95 1795 2045C1747.06 1989.04 1730 1935 1730 1935" stroke="#30839D" stroke-width="3" stroke-linecap="round"/>
<rect x="1779.31" y="2048.94" width="28" height="28" transform="rotate(-39.041 1779.31 2048.94)" fill="white"/>
<path d="M1941 1570C1941 1534.65 1969.65 1506 2005 1506V1506C2040.35 1506 2069 1534.65 2069 1570V1570C2069 1605.35 2040.35 1634 2005 1634V1634C1969.65 1634 1941 1605.35 1941 1570V1570Z" fill="#CFD1D4"/>
<path d="M1941 2135C1941 2099.65 1969.65 2071 2005 2071V2071C2040.35 2071 2069 2099.65 2069 2135V2135C2069 2170.35 2040.35 2199 2005 2199V2199C1969.65 2199 1941 2170.35 1941 2135V2135Z" fill="#CFD1D4"/>
<path d="M2223 1842C2223 1806.65 2251.65 1778 2287 1778V1778C2322.35 1778 2351 1806.65 2351 1842V1842C2351 1877.35 2322.35 1906 2287 1906V1906C2251.65 1906 2223 1877.35 2223 1842V1842Z" fill="#CFD1D4"/>
<path d="M1658 1842C1658 1806.65 1686.65 1778 1722 1778V1778C1757.35 1778 1786 1806.65 1786 1842V1842C1786 1877.35 1757.35 1906 1722 1906V1906C1686.65 1906 1658 1877.35 1658 1842V1842Z" fill="#CFD1D4"/>
<path d="M1939.17 1634.66C1939.57 1634.28 1939.58 1633.64 1939.2 1633.24C1938.81 1632.85 1938.18 1632.83 1937.78 1633.22L1939.17 1634.66ZM1892.63 1678L1893.33 1678.72L1893.33 1678.72L1892.63 1678ZM1890.22 1680.32L1890.92 1681.04L1890.92 1681.04L1890.22 1680.32ZM1888.14 1680.93C1887.74 1681.31 1887.73 1681.95 1888.11 1682.34C1888.5 1682.74 1889.13 1682.75 1889.53 1682.37L1888.14 1680.93ZM1838.86 1731.07C1839.26 1730.69 1839.27 1730.05 1838.89 1729.66C1838.51 1729.26 1837.87 1729.24 1837.47 1729.63L1838.86 1731.07ZM1832.33 1734.53L1831.62 1733.83L1832.33 1734.53ZM1834.9 1733.49L1835.59 1734.21L1834.9 1733.49ZM1938.48 1633.94L1937.78 1633.22L1891.94 1677.28L1892.63 1678L1893.33 1678.72L1939.17 1634.66L1938.48 1633.94ZM1892.63 1678L1891.94 1677.28L1889.53 1679.6L1890.22 1680.32L1890.92 1681.04L1893.33 1678.72L1892.63 1678ZM1890.22 1680.32L1889.53 1679.6L1888.14 1680.93L1888.83 1681.65L1889.53 1682.37L1890.92 1681.04L1890.22 1680.32ZM1838.17 1730.35L1837.47 1729.63L1834.21 1732.77L1834.9 1733.49L1835.59 1734.21L1838.86 1731.07L1838.17 1730.35ZM1832.33 1734.53L1831.62 1733.83L1787.82 1777.35L1788.52 1778.06L1789.23 1778.77L1833.03 1735.24L1832.33 1734.53ZM1833.63 1734V1733C1832.88 1733 1832.16 1733.3 1831.62 1733.83L1832.33 1734.53L1833.03 1735.24C1833.19 1735.09 1833.4 1735 1833.63 1735V1734ZM1834.9 1733.49L1834.21 1732.77C1834.05 1732.92 1833.84 1733 1833.63 1733V1734V1735C1834.36 1735 1835.07 1734.72 1835.59 1734.21L1834.9 1733.49Z" fill="#1A1B1D"/>
<path d="M1729.48 1764.98C1729.24 1765.77 1729.68 1766.61 1730.47 1766.85C1731.26 1767.09 1732.1 1766.65 1732.35 1765.86L1729.48 1764.98ZM1810.42 1640.91L1811.39 1642.05L1810.42 1640.91ZM1730.91 1765.42C1732.35 1765.86 1732.35 1765.86 1732.35 1765.86C1732.35 1765.86 1732.35 1765.86 1732.35 1765.86C1732.35 1765.85 1732.35 1765.85 1732.35 1765.85C1732.35 1765.84 1732.36 1765.82 1732.36 1765.81C1732.37 1765.77 1732.39 1765.72 1732.41 1765.65C1732.46 1765.5 1732.53 1765.29 1732.62 1765.01C1732.8 1764.44 1733.08 1763.61 1733.45 1762.52C1734.2 1760.35 1735.33 1757.19 1736.87 1753.25C1739.93 1745.36 1744.6 1734.34 1751.02 1721.82C1763.85 1696.78 1783.62 1665.84 1811.39 1642.05L1810.42 1640.91L1809.44 1639.77C1781.26 1663.92 1761.27 1695.23 1748.35 1720.46C1741.88 1733.08 1737.17 1744.19 1734.07 1752.16C1732.52 1756.14 1731.38 1759.34 1730.62 1761.54C1730.24 1762.65 1729.95 1763.5 1729.76 1764.08C1729.67 1764.37 1729.6 1764.59 1729.55 1764.74C1729.53 1764.82 1729.51 1764.88 1729.5 1764.91C1729.49 1764.93 1729.49 1764.95 1729.48 1764.96C1729.48 1764.96 1729.48 1764.97 1729.48 1764.97C1729.48 1764.97 1729.48 1764.97 1729.48 1764.97C1729.48 1764.97 1729.48 1764.98 1730.91 1765.42ZM1810.42 1640.91L1811.39 1642.05C1839.26 1618.18 1866.65 1602 1887.07 1591.78C1897.28 1586.67 1905.74 1583.06 1911.65 1580.72C1914.6 1579.56 1916.91 1578.71 1918.48 1578.15C1919.27 1577.88 1919.87 1577.67 1920.27 1577.54C1920.47 1577.47 1920.62 1577.42 1920.72 1577.39C1920.77 1577.37 1920.81 1577.36 1920.83 1577.35C1920.85 1577.35 1920.86 1577.35 1920.86 1577.35C1920.86 1577.35 1920.87 1577.34 1920.87 1577.34C1920.87 1577.34 1920.87 1577.34 1920.87 1577.34C1920.87 1577.34 1920.87 1577.34 1920.42 1575.91C1919.97 1574.48 1919.96 1574.48 1919.96 1574.48C1919.96 1574.48 1919.96 1574.48 1919.96 1574.48C1919.96 1574.48 1919.96 1574.49 1919.95 1574.49C1919.94 1574.49 1919.93 1574.49 1919.92 1574.5C1919.89 1574.51 1919.85 1574.52 1919.8 1574.54C1919.69 1574.57 1919.53 1574.62 1919.32 1574.69C1918.9 1574.83 1918.29 1575.04 1917.49 1575.33C1915.88 1575.89 1913.54 1576.75 1910.55 1577.93C1904.57 1580.3 1896.03 1583.95 1885.73 1589.1C1865.14 1599.4 1837.53 1615.71 1809.44 1639.77L1810.42 1640.91Z" fill="#30839D"/>
<path d="M1938.12 1634.28L1892.63 1678L1890.22 1680.32L1888.83 1681.65M1838.17 1730.35L1834.37 1734L1788.88 1777.72" stroke="#30839D" stroke-width="3" stroke-linecap="round" stroke-linejoin="bevel"/>
<path d="M1863.87 1719.4C1862.22 1719.4 1860.68 1719.13 1859.25 1718.59C1857.83 1718.03 1856.61 1717.28 1855.58 1716.32C1854.56 1715.36 1853.79 1714.26 1853.29 1713.02L1856.84 1711.15C1857.28 1712.04 1857.81 1712.84 1858.42 1713.55C1859.04 1714.25 1859.77 1714.81 1860.6 1715.22C1861.44 1715.62 1862.4 1715.81 1863.48 1715.81C1865.17 1715.81 1866.53 1715.35 1867.55 1714.41C1868.58 1713.46 1869.09 1712.2 1869.09 1710.63C1869.09 1709.66 1868.85 1708.79 1868.37 1708.04C1867.91 1707.28 1867.26 1706.69 1866.45 1706.27C1865.64 1705.84 1864.73 1705.63 1863.69 1705.63C1863.08 1705.63 1862.51 1705.68 1861.97 1705.79C1861.44 1705.9 1860.9 1706.1 1860.36 1706.4C1859.82 1706.69 1859.24 1707.13 1858.62 1707.71C1858.5 1707.77 1858.41 1707.8 1858.35 1707.8C1858.3 1707.79 1858.21 1707.76 1858.08 1707.7L1854.71 1706.33L1855.9 1692.97H1872.08L1871.92 1696.63H1859.46L1858.87 1703.86C1859.79 1703.21 1860.72 1702.75 1861.66 1702.46C1862.6 1702.17 1863.63 1702.03 1864.76 1702.03C1866.41 1702.03 1867.92 1702.35 1869.27 1703C1870.63 1703.65 1871.71 1704.6 1872.51 1705.86C1873.32 1707.12 1873.72 1708.66 1873.72 1710.49C1873.72 1712.31 1873.31 1713.89 1872.5 1715.22C1871.69 1716.55 1870.55 1717.58 1869.08 1718.32C1867.61 1719.04 1865.88 1719.4 1863.87 1719.4Z" fill="black" fill-opacity="0.8"/>
<path d="M2217.5 1845C2219.16 1845 2220.5 1843.66 2220.5 1842C2220.5 1840.34 2219.16 1839 2217.5 1839V1845ZM2031.83 1839C2030.18 1839 2028.83 1840.34 2028.83 1842C2028.83 1843.66 2030.18 1845 2031.83 1845V1839ZM1977.17 1845C1978.82 1845 1980.17 1843.66 1980.17 1842C1980.17 1840.34 1978.82 1839 1977.17 1839V1845ZM1789.38 1839.88C1788.21 1841.05 1788.21 1842.95 1789.38 1844.12L1808.47 1863.21C1809.64 1864.38 1811.54 1864.38 1812.71 1863.21C1813.88 1862.04 1813.88 1860.14 1812.71 1858.97L1795.74 1842L1812.71 1825.03C1813.88 1823.86 1813.88 1821.96 1812.71 1820.79C1811.54 1819.62 1809.64 1819.62 1808.47 1820.79L1789.38 1839.88ZM2217.5 1842V1839H2031.83V1842V1845H2217.5V1842ZM1977.17 1842V1839H1791.5V1842V1845H1977.17V1842Z" fill="#30839D"/>
<path d="M1999.76 1855C1999.91 1853.88 2000.19 1852.49 2000.63 1850.82C2001.07 1849.14 2001.68 1847.3 2002.44 1845.28C2003.21 1843.25 2004.17 1841.16 2005.31 1839C2006.45 1836.84 2007.78 1834.71 2009.3 1832.63H1995.05V1828.97H2013.96V1832.63C2013.09 1833.77 2012.22 1835.09 2011.35 1836.59C2010.49 1838.07 2009.66 1839.65 2008.87 1841.32C2008.08 1842.98 2007.37 1844.64 2006.75 1846.31C2006.12 1847.96 2005.61 1849.54 2005.22 1851.04C2004.82 1852.54 2004.58 1853.86 2004.5 1855H1999.76Z" fill="black" fill-opacity="0.8"/>
<path d="M2220.12 1777.49L2175.03 1734L2171.91 1730.99L2170.83 1729.95M2121.17 1682.05L2120.09 1681.01L2117.5 1678.51C2117.16 1678.18 2116.7 1678 2116.23 1678V1678C2115.74 1678 2115.28 1677.81 2114.93 1677.46L2071.88 1634.51" stroke="#30839D" stroke-width="3" stroke-linecap="round" stroke-linejoin="bevel"/>
<path d="M2137.01 1719V1716.66V1715.45C2137.01 1714.12 2137.26 1712.98 2137.75 1712.02C2138.24 1711.04 2138.9 1710.2 2139.71 1709.48C2140.53 1708.76 2141.42 1708.12 2142.4 1707.57C2143.38 1707.01 2144.35 1706.48 2145.31 1705.99C2146.28 1705.48 2147.18 1704.97 2147.99 1704.44C2148.81 1703.9 2149.46 1703.3 2149.96 1702.64C2150.46 1701.98 2150.71 1701.19 2150.71 1700.28C2150.71 1699.12 2150.3 1698.17 2149.47 1697.44C2148.65 1696.69 2147.54 1696.32 2146.14 1696.32C2144.65 1696.32 2143.42 1696.75 2142.45 1697.6C2141.49 1698.45 2140.92 1699.65 2140.74 1701.2H2136.49C2136.52 1699.61 2136.89 1698.17 2137.63 1696.88C2138.36 1695.58 2139.44 1694.55 2140.88 1693.78C2142.32 1693 2144.12 1692.61 2146.27 1692.61C2148.13 1692.61 2149.73 1692.94 2151.07 1693.58C2152.43 1694.22 2153.47 1695.11 2154.2 1696.27C2154.95 1697.41 2155.32 1698.74 2155.32 1700.26C2155.32 1701.59 2155.07 1702.73 2154.58 1703.68C2154.1 1704.63 2153.46 1705.45 2152.66 1706.15C2151.86 1706.83 2150.99 1707.44 2150.03 1707.97C2149.08 1708.49 2148.13 1708.99 2147.17 1709.46C2146.22 1709.92 2145.34 1710.4 2144.54 1710.9C2143.75 1711.39 2143.1 1711.96 2142.61 1712.59C2142.13 1713.23 2141.89 1713.99 2141.89 1714.88V1715.26H2155.37V1719H2137.01Z" fill="black" fill-opacity="0.8"/>
<path d="M2222.63 1908.88L2172.95 1960.5L2172.37 1961.1L2171.33 1962.18M2120.67 2014.82L2119.05 2016.5L2117.67 2017.94L2069.37 2068.12" stroke="#30839D" stroke-width="3" stroke-linecap="round" stroke-linejoin="bevel"/>
<path d="M2145.56 2001.9C2143.6 2001.88 2141.92 2001.55 2140.5 2000.89C2139.09 2000.23 2137.98 1999.29 2137.19 1998.06C2136.41 1996.84 2136 1995.39 2135.97 1993.71H2140.23C2140.48 1995.25 2141.1 1996.41 2142.07 1997.16C2143.05 1997.91 2144.25 1998.28 2145.65 1998.28C2146.81 1998.28 2147.82 1998.1 2148.67 1997.76C2149.53 1997.4 2150.18 1996.9 2150.64 1996.28C2151.1 1995.66 2151.34 1994.93 2151.34 1994.1C2151.34 1993.23 2151.09 1992.48 2150.58 1991.85C2150.09 1991.23 2149.41 1990.75 2148.55 1990.41C2147.68 1990.08 2146.71 1989.9 2145.63 1989.87L2143.22 1989.8V1986.24L2145.45 1986.15C2146.48 1986.11 2147.39 1985.91 2148.17 1985.55C2148.96 1985.19 2149.58 1984.72 2150.02 1984.13C2150.47 1983.54 2150.69 1982.88 2150.69 1982.15C2150.69 1981.48 2150.48 1980.87 2150.06 1980.33C2149.65 1979.79 2149.07 1979.37 2148.31 1979.07C2147.56 1978.76 2146.66 1978.6 2145.63 1978.6C2144.76 1978.6 2143.93 1978.76 2143.17 1979.07C2142.4 1979.38 2141.76 1979.89 2141.26 1980.58C2140.77 1981.27 2140.5 1982.17 2140.45 1983.28H2136.2C2136.2 1981.51 2136.63 1980.01 2137.48 1978.8C2138.33 1977.58 2139.47 1976.66 2140.9 1976.05C2142.34 1975.42 2143.93 1975.11 2145.69 1975.11C2147.57 1975.11 2149.24 1975.37 2150.69 1975.89C2152.15 1976.39 2153.3 1977.15 2154.13 1978.17C2154.97 1979.19 2155.39 1980.46 2155.39 1981.97C2155.39 1983.25 2155 1984.4 2154.22 1985.41C2153.44 1986.42 2152.21 1987.21 2150.53 1987.78C2151.57 1988.07 2152.51 1988.5 2153.34 1989.08C2154.16 1989.64 2154.82 1990.35 2155.3 1991.2C2155.79 1992.06 2156.04 1993.06 2156.04 1994.21C2156.04 1995.45 2155.77 1996.54 2155.23 1997.5C2154.7 1998.46 2153.95 1999.27 2152.99 1999.93C2152.05 2000.58 2150.94 2001.07 2149.66 2001.41C2148.39 2001.73 2147.02 2001.9 2145.56 2001.9Z" fill="black" fill-opacity="0.8"/>
<path d="M1942.11 2072.04L1943.15 2073.12L1945.31 2071.04L1944.26 2069.96L1942.11 2072.04ZM1891.93 2017.94L1890.85 2018.98L1890.85 2018.98L1891.93 2017.94ZM1891.26 2017.25L1892.34 2016.2L1892.34 2016.2L1891.26 2017.25ZM1891.3 2015.12C1890.73 2014.53 1889.78 2014.51 1889.18 2015.09C1888.58 2015.66 1888.57 2016.61 1889.14 2017.21L1891.3 2015.12ZM1838.48 1964.75C1839.05 1965.35 1840 1965.36 1840.6 1964.79C1841.19 1964.21 1841.21 1963.26 1840.63 1962.67L1838.48 1964.75ZM1838.89 1963.02L1839.97 1961.98L1839.97 1961.98L1838.89 1963.02ZM1837.85 1961.94L1836.77 1962.98L1836.77 1962.98L1837.85 1961.94ZM1836.46 1960.5L1837.53 1959.46L1837.53 1959.46L1836.46 1960.5ZM1787.67 1907.83C1787.1 1907.24 1786.15 1907.22 1785.55 1907.8C1784.96 1908.37 1784.94 1909.32 1785.52 1909.92L1787.67 1907.83ZM1943.18 2071L1944.26 2069.96L1893.01 2016.9L1891.93 2017.94L1890.85 2018.98L1942.11 2072.04L1943.18 2071ZM1891.93 2017.94L1893.01 2016.9L1892.34 2016.2L1891.26 2017.25L1890.19 2018.29L1890.85 2018.98L1891.93 2017.94ZM1891.26 2017.25L1892.34 2016.2L1891.3 2015.12L1890.22 2016.17L1889.14 2017.21L1890.19 2018.29L1891.26 2017.25ZM1839.56 1963.71L1840.63 1962.67L1839.97 1961.98L1838.89 1963.02L1837.81 1964.06L1838.48 1964.75L1839.56 1963.71ZM1838.89 1963.02L1839.97 1961.98L1838.92 1960.9L1837.85 1961.94L1836.77 1962.98L1837.81 1964.06L1838.89 1963.02ZM1837.85 1961.94L1838.92 1960.9L1837.53 1959.46L1836.46 1960.5L1835.38 1961.54L1836.77 1962.98L1837.85 1961.94ZM1836.46 1960.5L1837.53 1959.46L1787.67 1907.83L1786.59 1908.88L1785.52 1909.92L1835.38 1961.54L1836.46 1960.5Z" fill="#30839D"/>
<path d="M1865.31 2003.33C1863.19 2003.33 1861.35 2002.81 1859.8 2001.75C1858.25 2000.69 1857.06 1999.2 1856.22 1997.27C1855.39 1995.32 1854.98 1993.03 1854.98 1990.37C1854.98 1987.55 1855.39 1985.11 1856.22 1983.05C1857.05 1980.97 1858.25 1979.37 1859.82 1978.24C1861.4 1977.11 1863.32 1976.55 1865.56 1976.55C1867.1 1976.55 1868.52 1976.84 1869.83 1977.41C1871.14 1977.98 1872.21 1978.79 1873.05 1979.86C1873.89 1980.93 1874.38 1982.22 1874.53 1983.73H1870.48C1870.14 1982.57 1869.56 1981.67 1868.75 1981.03C1867.93 1980.4 1866.9 1980.08 1865.65 1980.08C1864.27 1980.08 1863.12 1980.47 1862.2 1981.25C1861.27 1982.03 1860.61 1983.15 1860.2 1984.61C1859.8 1986.07 1859.68 1987.81 1859.82 1989.83C1860.19 1989.13 1860.7 1988.51 1861.33 1988C1861.97 1987.47 1862.69 1987.06 1863.51 1986.77C1864.33 1986.49 1865.19 1986.34 1866.1 1986.34C1867.84 1986.34 1869.37 1986.67 1870.67 1987.33C1871.98 1987.99 1873 1988.93 1873.73 1990.14C1874.47 1991.35 1874.83 1992.79 1874.83 1994.44C1874.83 1996.16 1874.44 1997.69 1873.64 1999.03C1872.85 2000.36 1871.74 2001.41 1870.31 2002.18C1868.89 2002.95 1867.22 2003.33 1865.31 2003.33ZM1865.2 1999.9C1866.14 1999.9 1866.98 1999.67 1867.72 1999.23C1868.48 1998.79 1869.07 1998.17 1869.5 1997.38C1869.95 1996.58 1870.17 1995.67 1870.17 1994.64C1870.17 1993.58 1869.97 1992.69 1869.56 1991.96C1869.15 1991.23 1868.57 1990.67 1867.81 1990.28C1867.07 1989.9 1866.19 1989.71 1865.18 1989.71C1864.36 1989.71 1863.55 1989.9 1862.77 1990.28C1862 1990.67 1861.37 1991.17 1860.88 1991.78C1860.4 1992.39 1860.16 1993.04 1860.16 1993.74C1860.15 1994.98 1860.35 1996.06 1860.77 1996.98C1861.19 1997.9 1861.78 1998.62 1862.54 1999.14C1863.31 1999.64 1864.19 1999.9 1865.2 1999.9Z" fill="black" fill-opacity="0.8"/>
<path d="M1800.11 2070L1800.13 2063.83H1788.02V2060.1L1800.01 2043.97H1804.36V2060.1H1808.52V2063.83H1804.36V2070H1800.11ZM1792.12 2060.1H1800.1V2049.41L1792.12 2060.1Z" fill="black"/>
<rect x="1792" y="1637.64" width="28" height="28" transform="rotate(-39.041 1792 1637.64)" fill="white"/>
<path d="M962 1638.5L983.747 1620.86L1001.38 1642.61L979.637 1660.25L962 1638.5Z" fill="white"/>
<path d="M128 128.854L152.481 109L173.028 134.336L148.547 154.19L128 128.854Z" fill="white"/>
<path d="M1809.58 1652.69V1632.64H1804.75V1630.03C1806.28 1630.03 1807.48 1629.9 1808.37 1629.65C1809.27 1629.39 1809.93 1629 1810.33 1628.5C1810.75 1628 1810.99 1627.38 1811.05 1626.66H1814.04V1652.69H1809.58Z" fill="black"/>
<path d="M977.885 1653V1632.95H973.061V1630.34C974.585 1630.34 975.791 1630.21 976.679 1629.96C977.579 1629.7 978.233 1629.31 978.641 1628.81C979.061 1628.3 979.301 1627.69 979.361 1626.97H982.349V1653H977.885Z" fill="black"/>
<path d="M150.577 146.692V126.64H145.753V124.03C147.277 124.03 148.483 123.904 149.371 123.652C150.271 123.388 150.925 123.004 151.333 122.5C151.753 121.996 151.993 121.384 152.053 120.664H155.041V146.692H150.577Z" fill="black"/>
<path d="M899.262 259.821C900.038 261.285 901.853 261.843 903.317 261.068L927.178 248.431C928.642 247.656 929.2 245.84 928.425 244.376C927.649 242.912 925.834 242.353 924.37 243.129L903.16 254.361L891.928 233.152C891.152 231.688 889.337 231.13 887.873 231.905C886.408 232.68 885.85 234.496 886.626 235.96L899.262 259.821ZM981.417 133.913L983.369 136.192L981.417 133.913ZM901.913 258.417C904.781 259.298 904.781 259.299 904.781 259.299C904.781 259.298 904.781 259.298 904.781 259.298C904.781 259.296 904.782 259.294 904.783 259.29C904.786 259.282 904.789 259.27 904.795 259.254C904.805 259.221 904.821 259.169 904.843 259.1C904.887 258.961 904.954 258.751 905.044 258.472C905.225 257.916 905.5 257.086 905.871 256.009C906.612 253.856 907.738 250.715 909.263 246.79C912.315 238.94 916.966 227.967 923.351 215.508C936.14 190.554 955.802 159.805 983.369 136.192L981.417 133.913L979.465 131.635C951.076 155.953 930.986 187.456 918.012 212.771C911.516 225.446 906.783 236.612 903.671 244.616C902.115 248.62 900.963 251.835 900.198 254.056C899.815 255.167 899.53 256.029 899.338 256.617C899.243 256.912 899.171 257.137 899.122 257.291C899.098 257.368 899.079 257.427 899.067 257.468C899.06 257.488 899.055 257.504 899.052 257.515C899.05 257.521 899.049 257.525 899.048 257.528C899.047 257.53 899.047 257.532 899.047 257.532C899.046 257.534 899.046 257.535 901.913 258.417ZM981.417 133.913L983.369 136.192C1011.12 112.418 1038.41 96.2962 1058.74 86.1218C1068.91 81.0357 1077.33 77.4395 1083.2 75.119C1086.14 73.9588 1088.43 73.1178 1089.98 72.5692C1090.76 72.2949 1091.35 72.0937 1091.75 71.9623C1091.94 71.8966 1092.09 71.8484 1092.19 71.8171C1092.23 71.8015 1092.27 71.7901 1092.29 71.783C1092.3 71.7794 1092.31 71.7769 1092.32 71.7754C1092.32 71.7746 1092.32 71.7742 1092.32 71.7739C1092.32 71.7738 1092.32 71.7739 1092.32 71.7738C1092.32 71.7739 1092.32 71.7741 1091.42 68.9133C1090.51 66.0526 1090.51 66.0529 1090.51 66.0533C1090.51 66.0535 1090.51 66.0539 1090.51 66.0543C1090.51 66.0551 1090.5 66.0562 1090.5 66.0575C1090.49 66.0602 1090.48 66.064 1090.46 66.0688C1090.43 66.0784 1090.39 66.0923 1090.33 66.1104C1090.22 66.1467 1090.06 66.2001 1089.85 66.2711C1089.42 66.4131 1088.8 66.6254 1087.99 66.9115C1086.37 67.4835 1084 68.3504 1081 69.5393C1074.98 71.9169 1066.4 75.5834 1056.06 80.7558C1035.38 91.0983 1007.67 107.476 979.465 131.635L981.417 133.913Z" fill="#30839D"/>
<path d="M958 127.854L982.481 108L1003.03 133.336L978.547 153.19L958 127.854Z" fill="white"/>
<path d="M980.577 145.692V125.64H975.753V123.03C977.277 123.03 978.483 122.904 979.371 122.652C980.271 122.388 980.925 122.004 981.333 121.5C981.753 120.996 981.993 120.384 982.053 119.664H985.041V145.692H980.577Z" fill="black"/>
<path d="M1786 127.854L1810.48 108L1831.03 133.336L1806.55 153.19L1786 127.854Z" fill="white"/>
<path d="M1808.58 145.692V125.64H1803.75V123.03C1805.28 123.03 1806.48 122.904 1807.37 122.652C1808.27 122.388 1808.93 122.004 1809.33 121.5C1809.75 120.996 1809.99 120.384 1810.05 119.664H1813.04V145.692H1808.58Z" fill="black"/>
<path d="M1.68888 18.928V14.848H12.2489V46H7.68888V18.928H1.68888Z" fill="black"/>
<path d="M841.088 37.408L836.384 41.872H852.08V46H831.44V41.872C845.36 28 846.752 26.32 846.752 23.104C846.752 20.32 844.688 18.448 841.328 18.448C838.112 18.448 835.568 20.32 835.52 23.152H831.344C830.912 18.16 835.376 14.32 841.28 14.32C847.376 14.32 851.36 17.824 851.36 22.96C851.36 28.048 845.888 33.04 841.088 37.408Z" fill="black"/>
<path d="M3.09281 1516.98V1512.85H23.8768V1516.98L11.7808 1544H6.83681L19.1248 1516.98H3.09281Z" fill="black"/>
<path d="M1658.57 1533.06C1652.86 1533.06 1648.16 1528.98 1648.25 1522.64C1648.35 1516.21 1653.24 1512.27 1660.06 1512.27C1666.88 1512.27 1671.82 1516.11 1671.72 1522.54C1671.72 1524.08 1671.34 1525.81 1670.33 1527.87C1669.8 1529.17 1661.74 1544 1661.74 1544H1656.46L1664.48 1530.46C1662.8 1532.14 1660.92 1533.06 1658.57 1533.06ZM1660.06 1516.4C1656.03 1516.4 1652.96 1518.61 1652.86 1522.69C1652.81 1526.72 1655.74 1529.02 1659.77 1529.02C1664.24 1529.02 1667.07 1526.24 1667.12 1522.64C1667.16 1518.61 1664.04 1516.4 1660.06 1516.4Z" fill="black"/>
<path d="M827.995 1525.81C831.451 1525.81 833.659 1523.74 833.659 1521.01C833.659 1518.27 831.451 1516.4 827.995 1516.4C824.635 1516.4 822.379 1518.27 822.379 1521.01C822.379 1523.74 824.635 1525.81 827.995 1525.81ZM827.995 1544.53C820.987 1544.53 817.003 1540.45 817.003 1535.46C817.003 1531.23 819.499 1528.69 823.291 1527.58C819.883 1526.67 817.723 1524.51 817.723 1520.77C817.723 1515.97 821.515 1512.32 827.995 1512.32C834.523 1512.32 838.267 1515.97 838.267 1520.77C838.267 1524.51 836.155 1526.67 832.699 1527.58C836.539 1528.69 839.035 1531.23 839.035 1535.46C839.035 1540.45 835.051 1544.53 827.995 1544.53ZM827.995 1540.4C831.931 1540.4 834.427 1538.24 834.427 1535.26C834.427 1532.1 831.931 1529.89 827.995 1529.89C824.059 1529.89 821.659 1532.1 821.659 1535.26C821.659 1538.24 824.059 1540.4 827.995 1540.4Z" fill="black"/>
<path d="M1673.35 774.744C1679.25 774.744 1683.77 778.824 1683.67 785.16C1683.57 791.544 1678.73 795.528 1672.05 795.528C1665.24 795.528 1660.2 791.688 1660.29 785.256C1660.29 783.768 1660.63 782.04 1661.59 779.976C1662.02 779.064 1666.77 770.184 1670.28 763.8H1675.56L1667.54 777.288C1669.17 775.656 1671 774.744 1673.35 774.744ZM1671.96 791.4C1675.85 791.4 1678.97 789.144 1679.06 785.112C1679.11 781.128 1676.13 778.776 1672.2 778.776C1667.78 778.776 1664.95 781.608 1664.9 785.16C1664.85 789.192 1667.97 791.4 1671.96 791.4Z" fill="black"/>
<path d="M844.921 774.984C850.393 774.984 854.905 778.824 854.905 785.208C854.905 791.688 850.009 795.528 843.817 795.528C837.625 795.528 832.441 791.928 832.105 785.976H836.617C836.953 789.432 840.073 791.352 843.769 791.352C847.081 791.352 850.393 789.288 850.393 785.208C850.393 781.176 847.225 778.968 843.961 778.968C841.369 778.968 838.585 779.736 837.145 782.664L833.017 781.848L834.121 763.8H851.881V767.928H838.441L837.673 779.16C839.113 776.328 841.993 774.984 844.921 774.984Z" fill="black"/>
<path d="M21.8243 763.848V784.248H26.5763V788.184H21.8243V795H17.2643V788.184H2.52831V784.248L17.2643 763.848H21.8243ZM7.66431 784.248H17.2643V770.808L7.66431 784.248Z" fill="black"/>
<path d="M1661.02 37.216H1665.2C1665.24 40.24 1667.93 42.4 1671.39 42.4C1675.08 42.4 1677.34 40.432 1677.34 37.072C1677.34 33.808 1674.8 31.648 1670.67 31.648H1667.5V28.144H1670.67C1674.89 28.144 1676.86 26.176 1676.86 23.104C1676.86 20.32 1674.6 18.448 1671.29 18.448C1668.08 18.448 1665.63 20.368 1665.58 23.152H1661.4C1660.97 18.016 1665.63 14.32 1671.29 14.32C1677.58 14.32 1681.56 17.92 1681.56 22.768C1681.56 27.568 1678.4 29.248 1673.84 29.68C1678.64 30.208 1682.04 32.272 1682.04 37.456C1682.04 42.544 1677.82 46.528 1671.39 46.528C1665.2 46.528 1660.59 42.448 1661.02 37.216Z" fill="black"/>
<rect x="113" y="2039.95" width="36.4433" height="36.4433" transform="rotate(-39.041 113 2039.95)" fill="white"/>
<path d="M138.114 2056L138.132 2049.83H126.018V2046.1L138.006 2029.97H142.362V2046.1H146.52V2049.83H142.362V2056H138.114ZM130.122 2046.1H138.096V2035.41L130.122 2046.1Z" fill="black"/>
<rect x="944" y="2046.95" width="36.4433" height="36.4433" transform="rotate(-39.041 944 2046.95)" fill="white"/>
<path d="M969.114 2063L969.132 2056.83H957.018V2053.1L969.006 2036.97H973.362V2053.1H977.52V2056.83H973.362V2063H969.114ZM961.122 2053.1H969.096V2042.41L961.122 2053.1Z" fill="black"/>
<rect x="1773" y="1290.95" width="36.4433" height="36.4433" transform="rotate(-39.041 1773 1290.95)" fill="white"/>
<path d="M1798.11 1307L1798.13 1300.83H1786.02V1297.1L1798.01 1280.97H1802.36V1297.1H1806.52V1300.83H1802.36V1307H1798.11ZM1790.12 1297.1H1798.1V1286.41L1790.12 1297.1Z" fill="black"/>
<rect x="944" y="1290.95" width="36.4433" height="36.4433" transform="rotate(-39.041 944 1290.95)" fill="white"/>
<path d="M969.114 1307L969.132 1300.83H957.018V1297.1L969.006 1280.97H973.362V1297.1H977.52V1300.83H973.362V1307H969.114ZM961.122 1297.1H969.096V1286.41L961.122 1297.1Z" fill="black"/>
<rect x="115" y="1290.95" width="36.4433" height="36.4433" transform="rotate(-39.041 115 1290.95)" fill="white"/>
<path d="M140.114 1307L140.132 1300.83H128.018V1297.1L140.006 1280.97H144.362V1297.1H148.52V1300.83H144.362V1307H140.114ZM132.122 1297.1H140.096V1286.41L132.122 1297.1Z" fill="black"/>
<rect x="1779" y="544.955" width="36.4433" height="36.4433" transform="rotate(-39.041 1779 544.955)" fill="white"/>
<path d="M1804.11 561L1804.13 554.826H1792.02V551.1L1804.01 534.972H1808.36V551.1H1812.52V554.826H1808.36V561H1804.11ZM1796.12 551.1H1804.1V540.408L1796.12 551.1Z" fill="black"/>
<rect x="1773" y="2046.95" width="36.4433" height="36.4433" transform="rotate(-39.041 1773 2046.95)" fill="white"/>
<path d="M1798.11 2063L1798.13 2056.83H1786.02V2053.1L1798.01 2036.97H1802.36V2053.1H1806.52V2056.83H1802.36V2063H1798.11ZM1790.12 2053.1H1798.1V2042.41L1790.12 2053.1Z" fill="black"/>
<path d="M115 889.854L139.481 870L160.028 895.336L135.547 915.19L115 889.854Z" fill="white"/>
<path d="M137.577 907.692V887.64H132.753V885.03C134.277 885.03 135.483 884.904 136.371 884.652C137.271 884.388 137.925 884.004 138.333 883.5C138.753 882.996 138.993 882.384 139.053 881.664H142.041V907.692H137.577Z" fill="black"/>
<path d="M115 1633.85L139.481 1614L160.028 1639.34L135.547 1659.19L115 1633.85Z" fill="white"/>
<path d="M137.577 1651.69V1631.64H132.753V1629.03C134.277 1629.03 135.483 1628.9 136.371 1628.65C137.271 1628.39 137.925 1628 138.333 1627.5C138.753 1627 138.993 1626.38 139.053 1625.66H142.041V1651.69H137.577Z" fill="black"/>
<path d="M951 882.854L975.481 863L996.028 888.336L971.547 908.19L951 882.854Z" fill="white"/>
<path d="M973.577 900.692V880.64H968.753V878.03C970.277 878.03 971.483 877.904 972.371 877.652C973.271 877.388 973.925 877.004 974.333 876.5C974.753 875.996 974.993 875.384 975.053 874.664H978.041V900.692H973.577Z" fill="black"/>
<path d="M1780 882.854L1804.48 863L1825.03 888.336L1800.55 908.19L1780 882.854Z" fill="white"/>
<path d="M1802.58 900.692V880.64H1797.75V878.03C1799.28 878.03 1800.48 877.904 1801.37 877.652C1802.27 877.388 1802.93 877.004 1803.33 876.5C1803.75 875.996 1803.99 875.384 1804.05 874.664H1807.04V900.692H1802.58Z" fill="black"/>
</svg>
