<svg width="584" height="188" viewBox="0 0 584 188" fill="none" xmlns="http://www.w3.org/2000/svg">
<path d="M22.966 157V149.762H24.632V150.798C24.744 150.611 24.8957 150.432 25.087 150.259C25.283 150.086 25.5233 149.946 25.808 149.839C26.0927 149.732 26.4263 149.678 26.809 149.678C27.257 149.678 27.6723 149.767 28.055 149.944C28.4423 150.121 28.7527 150.399 28.986 150.777C29.224 151.155 29.343 151.643 29.343 152.24V157H27.635V152.443C27.635 151.967 27.5043 151.615 27.243 151.386C26.9817 151.153 26.6527 151.036 26.256 151.036C25.9853 151.036 25.7287 151.083 25.486 151.176C25.2433 151.265 25.045 151.402 24.891 151.589C24.7417 151.771 24.667 152 24.667 152.275V157H22.966ZM33.2211 157.14C32.7591 157.14 32.3438 157.056 31.9751 156.888C31.6111 156.715 31.3241 156.47 31.1141 156.153C30.9088 155.831 30.8061 155.441 30.8061 154.984C30.8061 154.186 31.0931 153.584 31.6671 153.178C32.2458 152.772 33.1651 152.56 34.4251 152.541L35.5101 152.513V152.023C35.5101 151.64 35.3958 151.342 35.1671 151.127C34.9431 150.908 34.5931 150.8 34.1171 150.805C33.7624 150.81 33.4404 150.894 33.1511 151.057C32.8618 151.216 32.6704 151.484 32.5771 151.862H31.1281C31.1561 151.367 31.2984 150.954 31.5551 150.623C31.8164 150.287 32.1734 150.037 32.6261 149.874C33.0788 149.706 33.6014 149.622 34.1941 149.622C34.8848 149.622 35.4471 149.713 35.8811 149.895C36.3151 150.077 36.6348 150.341 36.8401 150.686C37.0454 151.027 37.1481 151.44 37.1481 151.925V157H35.7131L35.5731 155.698C35.3164 156.244 34.9874 156.622 34.5861 156.832C34.1894 157.037 33.7344 157.14 33.2211 157.14ZM33.7741 155.985C33.9841 155.985 34.1918 155.948 34.3971 155.873C34.6024 155.794 34.7868 155.689 34.9501 155.558C35.1181 155.423 35.2511 155.273 35.3491 155.11C35.4518 154.947 35.5054 154.776 35.5101 154.599V153.458L34.6211 153.472C34.1824 153.477 33.7974 153.523 33.4661 153.612C33.1394 153.701 32.8851 153.843 32.7031 154.039C32.5211 154.23 32.4301 154.487 32.4301 154.809C32.4301 155.178 32.5584 155.467 32.8151 155.677C33.0718 155.882 33.3914 155.985 33.7741 155.985ZM38.9621 157V149.762H40.6211V150.798C40.8311 150.481 41.1158 150.205 41.4751 149.972C41.8391 149.739 42.3011 149.622 42.8611 149.622C43.1178 149.622 43.3768 149.666 43.6381 149.755C43.9041 149.844 44.1491 149.974 44.3731 150.147C44.6018 150.32 44.7838 150.534 44.9191 150.791C45.1478 150.45 45.4511 150.17 45.8291 149.951C46.2118 149.732 46.6411 149.622 47.1171 149.622C47.3784 149.622 47.6468 149.664 47.9221 149.748C48.2021 149.832 48.4588 149.972 48.6921 150.168C48.9254 150.364 49.1144 150.632 49.2591 150.973C49.4038 151.309 49.4761 151.731 49.4761 152.24V157H47.7751V152.443C47.7751 152.084 47.7121 151.801 47.5861 151.596C47.4601 151.391 47.2968 151.246 47.0961 151.162C46.9001 151.073 46.6901 151.029 46.4661 151.029C46.2654 151.029 46.0554 151.069 45.8361 151.148C45.6214 151.227 45.4371 151.358 45.2831 151.54C45.1338 151.722 45.0591 151.967 45.0591 152.275V157H43.3581V152.17C43.3581 151.918 43.2928 151.708 43.1621 151.54C43.0314 151.372 42.8658 151.246 42.6651 151.162C42.4691 151.073 42.2684 151.029 42.0631 151.029C41.8531 151.029 41.6384 151.073 41.4191 151.162C41.2044 151.251 41.0248 151.386 40.8801 151.568C40.7354 151.75 40.6631 151.986 40.6631 152.275V157H38.9621ZM54.5068 157.14C53.8115 157.14 53.1978 156.993 52.6658 156.699C52.1385 156.4 51.7255 155.976 51.4268 155.425C51.1328 154.874 50.9858 154.219 50.9858 153.458C50.9858 152.716 51.1188 152.058 51.3848 151.484C51.6555 150.905 52.0451 150.45 52.5538 150.119C53.0671 149.788 53.6855 149.622 54.4088 149.622C55.1228 149.622 55.7225 149.774 56.2078 150.077C56.6931 150.38 57.0618 150.805 57.3138 151.351C57.5658 151.892 57.6918 152.527 57.6918 153.255V153.773H52.6868C52.6821 154.184 52.7475 154.548 52.8828 154.865C53.0181 155.182 53.2188 155.432 53.4848 155.614C53.7508 155.791 54.0798 155.88 54.4718 155.88C54.8731 155.88 55.2208 155.791 55.5148 155.614C55.8135 155.432 56.0118 155.157 56.1098 154.788H57.6638C57.5798 155.292 57.3791 155.719 57.0618 156.069C56.7491 156.419 56.3665 156.685 55.9138 156.867C55.4658 157.049 54.9968 157.14 54.5068 157.14ZM52.6798 152.716H56.0818C56.0818 152.366 56.0188 152.051 55.8928 151.771C55.7715 151.486 55.5871 151.262 55.3398 151.099C55.0925 150.931 54.7798 150.847 54.4018 150.847C54.0285 150.847 53.7135 150.938 53.4568 151.12C53.2001 151.302 53.0065 151.538 52.8758 151.827C52.7451 152.112 52.6798 152.408 52.6798 152.716ZM59.0815 151.932V149.986H61.0065V151.932H59.0815ZM59.0815 156.958V155.026H61.0065V156.958H59.0815ZM66.3691 150.497L65.9001 146.878H67.7551L67.2651 150.497H66.3691ZM69.0834 157L72.7164 146.878H74.5644L78.1974 157H76.4894L75.5864 154.459H71.7084L70.7984 157H69.0834ZM72.1144 152.947H75.1594L73.6404 148.53L72.1144 152.947ZM81.7219 157.105C81.2553 157.105 80.8819 157.047 80.6019 156.93C80.3219 156.813 80.1119 156.657 79.9719 156.461C79.8319 156.265 79.7409 156.046 79.6989 155.803C79.6569 155.556 79.6359 155.304 79.6359 155.047V146.598H81.3019V154.851C81.3019 155.164 81.3649 155.406 81.4909 155.579C81.6216 155.752 81.8316 155.852 82.1209 155.88L82.4849 155.894V156.965C82.3589 157.002 82.2306 157.035 82.0999 157.063C81.9693 157.091 81.8433 157.105 81.7219 157.105ZM84.0389 157V149.762H85.6699V157H84.0389ZM84.0109 148.495V146.885H85.6979V148.495H84.0109ZM90.6583 157.14C89.9956 157.14 89.4053 156.995 88.8873 156.706C88.374 156.412 87.9703 155.987 87.6763 155.432C87.3823 154.872 87.2353 154.198 87.2353 153.409C87.2353 152.658 87.373 152 87.6483 151.435C87.9283 150.866 88.3226 150.422 88.8313 150.105C89.3446 149.783 89.9536 149.622 90.6583 149.622C91.223 149.622 91.72 149.734 92.1493 149.958C92.5786 150.182 92.9216 150.492 93.1783 150.889C93.4396 151.286 93.596 151.736 93.6473 152.24H92.1983C92.161 152.021 92.0793 151.813 91.9533 151.617C91.8273 151.416 91.657 151.255 91.4423 151.134C91.2323 151.008 90.9756 150.945 90.6723 150.945C90.1263 150.945 89.6853 151.146 89.3493 151.547C89.0133 151.948 88.8453 152.564 88.8453 153.395C88.8453 154.16 89.004 154.769 89.3213 155.222C89.6433 155.675 90.103 155.901 90.7003 155.901C90.999 155.901 91.2556 155.836 91.4703 155.705C91.685 155.57 91.853 155.404 91.9743 155.208C92.1003 155.007 92.1796 154.807 92.2123 154.606H93.6263C93.5843 155.096 93.4326 155.532 93.1713 155.915C92.91 156.298 92.5646 156.599 92.1353 156.818C91.706 157.033 91.2136 157.14 90.6583 157.14ZM98.4345 157.14C97.7392 157.14 97.1255 156.993 96.5935 156.699C96.0662 156.4 95.6532 155.976 95.3545 155.425C95.0605 154.874 94.9135 154.219 94.9135 153.458C94.9135 152.716 95.0465 152.058 95.3125 151.484C95.5832 150.905 95.9729 150.45 96.4815 150.119C96.9949 149.788 97.6132 149.622 98.3365 149.622C99.0505 149.622 99.6502 149.774 100.136 150.077C100.621 150.38 100.99 150.805 101.242 151.351C101.494 151.892 101.62 152.527 101.62 153.255V153.773H96.6145C96.6099 154.184 96.6752 154.548 96.8105 154.865C96.9459 155.182 97.1465 155.432 97.4125 155.614C97.6785 155.791 98.0075 155.88 98.3995 155.88C98.8009 155.88 99.1485 155.791 99.4425 155.614C99.7412 155.432 99.9395 155.157 100.038 154.788H101.592C101.508 155.292 101.307 155.719 100.99 156.069C100.677 156.419 100.294 156.685 99.8415 156.867C99.3935 157.049 98.9245 157.14 98.4345 157.14ZM96.6075 152.716H100.01C100.01 152.366 99.9465 152.051 99.8205 151.771C99.6992 151.486 99.5149 151.262 99.2675 151.099C99.0202 150.931 98.7075 150.847 98.3295 150.847C97.9562 150.847 97.6412 150.938 97.3845 151.12C97.1279 151.302 96.9342 151.538 96.8035 151.827C96.6729 152.112 96.6075 152.408 96.6075 152.716ZM102.723 150.497L102.254 146.878H104.109L103.619 150.497H102.723ZM25.059 181.14C24.597 181.14 24.1817 181.056 23.813 180.888C23.449 180.715 23.162 180.47 22.952 180.153C22.7467 179.831 22.644 179.441 22.644 178.984C22.644 178.186 22.931 177.584 23.505 177.178C24.0837 176.772 25.003 176.56 26.263 176.541L27.348 176.513V176.023C27.348 175.64 27.2337 175.342 27.005 175.127C26.781 174.908 26.431 174.8 25.955 174.805C25.6003 174.81 25.2783 174.894 24.989 175.057C24.6997 175.216 24.5083 175.484 24.415 175.862H22.966C22.994 175.367 23.1363 174.954 23.393 174.623C23.6543 174.287 24.0113 174.037 24.464 173.874C24.9167 173.706 25.4393 173.622 26.032 173.622C26.7227 173.622 27.285 173.713 27.719 173.895C28.153 174.077 28.4727 174.341 28.678 174.686C28.8833 175.027 28.986 175.44 28.986 175.925V181H27.551L27.411 179.698C27.1543 180.244 26.8253 180.622 26.424 180.832C26.0273 181.037 25.5723 181.14 25.059 181.14ZM25.612 179.985C25.822 179.985 26.0297 179.948 26.235 179.873C26.4403 179.794 26.6247 179.689 26.788 179.558C26.956 179.423 27.089 179.273 27.187 179.11C27.2897 178.947 27.3433 178.776 27.348 178.599V177.458L26.459 177.472C26.0203 177.477 25.6353 177.523 25.304 177.612C24.9773 177.701 24.723 177.843 24.541 178.039C24.359 178.23 24.268 178.487 24.268 178.809C24.268 179.178 24.3963 179.467 24.653 179.677C24.9097 179.882 25.2293 179.985 25.612 179.985ZM34.02 183.394C32.802 183.394 31.8663 183.231 31.213 182.904C30.5597 182.577 30.233 182.129 30.233 181.56C30.233 181.303 30.296 181.089 30.422 180.916C30.548 180.743 30.6973 180.601 30.87 180.489C31.0427 180.377 31.2013 180.291 31.346 180.23C31.4907 180.169 31.584 180.125 31.626 180.097C31.5467 180.05 31.4417 179.99 31.311 179.915C31.1803 179.84 31.0613 179.738 30.954 179.607C30.8513 179.476 30.8 179.306 30.8 179.096C30.8 178.853 30.9143 178.629 31.143 178.424C31.3763 178.219 31.724 178.072 32.186 177.983C31.7333 177.764 31.3857 177.467 31.143 177.094C30.9003 176.721 30.779 176.333 30.779 175.932C30.779 175.456 30.9167 175.048 31.192 174.707C31.472 174.366 31.8593 174.105 32.354 173.923C32.8487 173.741 33.425 173.65 34.083 173.65C34.5637 173.65 34.9627 173.704 35.28 173.811C35.602 173.918 35.9007 174.063 36.176 174.245C36.2693 174.208 36.4 174.156 36.568 174.091C36.736 174.021 36.9203 173.946 37.121 173.867C37.3217 173.783 37.5153 173.704 37.702 173.629C37.8887 173.55 38.045 173.484 38.171 173.433L38.164 174.84L36.911 175.064C36.9717 175.199 37.0183 175.346 37.051 175.505C37.0883 175.664 37.107 175.804 37.107 175.925C37.107 176.345 36.988 176.735 36.75 177.094C36.5167 177.449 36.1643 177.733 35.693 177.948C35.2263 178.163 34.643 178.27 33.943 178.27C33.873 178.27 33.7773 178.268 33.656 178.263C33.5347 178.258 33.4367 178.254 33.362 178.249C32.984 178.263 32.725 178.307 32.585 178.382C32.445 178.457 32.375 178.538 32.375 178.627C32.375 178.753 32.48 178.837 32.69 178.879C32.9 178.921 33.236 178.958 33.698 178.991C33.8613 179 34.076 179.012 34.342 179.026C34.608 179.04 34.9043 179.059 35.231 179.082C36.057 179.133 36.6823 179.341 37.107 179.705C37.5317 180.064 37.744 180.531 37.744 181.105C37.744 181.772 37.436 182.321 36.82 182.75C36.204 183.179 35.2707 183.394 34.02 183.394ZM34.307 182.393C34.9183 182.393 35.371 182.309 35.665 182.141C35.959 181.973 36.106 181.726 36.106 181.399C36.106 181.147 36.0057 180.942 35.805 180.783C35.6043 180.624 35.3057 180.531 34.909 180.503L33.082 180.391C32.8813 180.377 32.69 180.414 32.508 180.503C32.3307 180.587 32.186 180.706 32.074 180.86C31.962 181.009 31.906 181.175 31.906 181.357C31.906 181.698 32.0997 181.954 32.487 182.127C32.879 182.304 33.4857 182.393 34.307 182.393ZM33.999 177.269C34.4423 177.269 34.8017 177.157 35.077 176.933C35.3523 176.704 35.49 176.382 35.49 175.967C35.49 175.538 35.3523 175.204 35.077 174.966C34.8017 174.723 34.4423 174.602 33.999 174.602C33.5463 174.602 33.18 174.723 32.9 174.966C32.6247 175.209 32.487 175.542 32.487 175.967C32.487 176.368 32.62 176.686 32.886 176.919C33.152 177.152 33.523 177.269 33.999 177.269ZM42.5576 181.14C41.8622 181.14 41.2486 180.993 40.7166 180.699C40.1892 180.4 39.7762 179.976 39.4776 179.425C39.1836 178.874 39.0366 178.219 39.0366 177.458C39.0366 176.716 39.1696 176.058 39.4356 175.484C39.7062 174.905 40.0959 174.45 40.6046 174.119C41.1179 173.788 41.7362 173.622 42.4596 173.622C43.1736 173.622 43.7732 173.774 44.2586 174.077C44.7439 174.38 45.1126 174.805 45.3646 175.351C45.6166 175.892 45.7426 176.527 45.7426 177.255V177.773H40.7376C40.7329 178.184 40.7982 178.548 40.9336 178.865C41.0689 179.182 41.2696 179.432 41.5356 179.614C41.8016 179.791 42.1306 179.88 42.5226 179.88C42.9239 179.88 43.2716 179.791 43.5656 179.614C43.8642 179.432 44.0626 179.157 44.1606 178.788H45.7146C45.6306 179.292 45.4299 179.719 45.1126 180.069C44.7999 180.419 44.4172 180.685 43.9646 180.867C43.5166 181.049 43.0476 181.14 42.5576 181.14ZM40.7306 176.716H44.1326C44.1326 176.366 44.0696 176.051 43.9436 175.771C43.8222 175.486 43.6379 175.262 43.3906 175.099C43.1432 174.931 42.8306 174.847 42.4526 174.847C42.0792 174.847 41.7642 174.938 41.5076 175.12C41.2509 175.302 41.0572 175.538 40.9266 175.827C40.7959 176.112 40.7306 176.408 40.7306 176.716ZM47.1323 175.932V173.986H49.0573V175.932H47.1323ZM47.1323 180.958V179.026H49.0573V180.958H47.1323ZM55.5888 181V173.202H53.7128V172.187C54.3055 172.187 54.7745 172.138 55.1198 172.04C55.4698 171.937 55.7242 171.788 55.8828 171.592C56.0462 171.396 56.1395 171.158 56.1628 170.878H57.3248V181H55.5888ZM63.5751 181.147C62.7771 181.147 62.0794 181.028 61.4821 180.79C60.8894 180.547 60.4274 180.207 60.0961 179.768C59.7647 179.329 59.5991 178.814 59.5991 178.221C59.5991 177.834 59.6947 177.463 59.8861 177.108C60.0821 176.753 60.3317 176.455 60.6351 176.212C60.9384 175.965 61.2511 175.808 61.5731 175.743C61.1391 175.547 60.7751 175.267 60.4811 174.903C60.1871 174.534 60.0401 174.082 60.0401 173.545C60.0401 172.943 60.1941 172.434 60.5021 172.019C60.8101 171.599 61.2301 171.282 61.7621 171.067C62.2987 170.848 62.9031 170.738 63.5751 170.738C64.2471 170.738 64.8491 170.848 65.3811 171.067C65.9131 171.282 66.3331 171.599 66.6411 172.019C66.9537 172.434 67.1101 172.943 67.1101 173.545C67.1101 174.082 66.9654 174.534 66.6761 174.903C66.3867 175.267 66.0204 175.547 65.5771 175.743C65.8991 175.808 66.2117 175.965 66.5151 176.212C66.8184 176.455 67.0681 176.753 67.2641 177.108C67.4601 177.463 67.5581 177.834 67.5581 178.221C67.5581 178.814 67.3924 179.329 67.0611 179.768C66.7344 180.207 66.2701 180.547 65.6681 180.79C65.0707 181.028 64.3731 181.147 63.5751 181.147ZM63.5751 179.831C64.2424 179.831 64.7697 179.682 65.1571 179.383C65.5444 179.084 65.7381 178.685 65.7381 178.186C65.7381 177.855 65.6494 177.563 65.4721 177.311C65.2947 177.054 65.0451 176.854 64.7231 176.709C64.4011 176.564 64.0184 176.492 63.5751 176.492C63.1364 176.492 62.7537 176.564 62.4271 176.709C62.1051 176.854 61.8554 177.054 61.6781 177.311C61.5054 177.563 61.4191 177.855 61.4191 178.186C61.4191 178.685 61.6127 179.084 62.0001 179.383C62.3921 179.682 62.9171 179.831 63.5751 179.831ZM63.5751 175.064C64.1071 175.064 64.5411 174.929 64.8771 174.658C65.2177 174.383 65.3881 174 65.3881 173.51C65.3881 173.025 65.2177 172.64 64.8771 172.355C64.5364 172.07 64.1024 171.928 63.5751 171.928C63.0477 171.928 62.6114 172.07 62.2661 172.355C61.9254 172.64 61.7551 173.025 61.7551 173.51C61.7551 174 61.9254 174.383 62.2661 174.658C62.6114 174.929 63.0477 175.064 63.5751 175.064Z" fill="black" style="fill:black;fill-opacity:1;"/>
<path d="M0 64C0 28.6538 28.6538 0 64 0C99.3462 0 128 28.6538 128 64C128 99.3462 99.3462 128 64 128C28.6538 128 0 99.3462 0 64Z" fill="#F16767" style="fill:#F16767;fill:color(display-p3 0.9451 0.4039 0.4039);fill-opacity:1;"/>
<path d="M42.7237 69V58.878H46.1467C46.8701 58.878 47.5141 58.9993 48.0787 59.242C48.6434 59.4847 49.0867 59.844 49.4087 60.32C49.7354 60.796 49.8987 61.3817 49.8987 62.077C49.8987 62.749 49.7471 63.323 49.4437 63.799C49.1451 64.275 48.7274 64.6367 48.1907 64.884C47.6541 65.1313 47.0311 65.255 46.3217 65.255H44.0537V69H42.7237ZM44.0467 64.163H46.2937C46.9891 64.163 47.5537 63.9693 47.9877 63.582C48.4217 63.1947 48.6387 62.6673 48.6387 62C48.6387 61.328 48.4147 60.8193 47.9667 60.474C47.5187 60.1287 46.9401 59.956 46.2307 59.956H44.0467V64.163ZM54.3077 69.14C53.6357 69.14 53.0431 68.993 52.5297 68.699C52.0164 68.405 51.6151 67.9827 51.3257 67.432C51.0364 66.8813 50.8917 66.221 50.8917 65.451C50.8917 64.6903 51.0224 64.023 51.2837 63.449C51.5451 62.875 51.9231 62.427 52.4177 62.105C52.9171 61.783 53.5167 61.622 54.2167 61.622C54.8981 61.622 55.4744 61.769 55.9457 62.063C56.4171 62.357 56.7741 62.7723 57.0167 63.309C57.2641 63.841 57.3877 64.4733 57.3877 65.206V65.682H52.2007C52.2007 66.1393 52.2754 66.5547 52.4247 66.928C52.5787 67.2967 52.8097 67.5907 53.1177 67.81C53.4257 68.0293 53.8154 68.139 54.2867 68.139C54.7487 68.139 55.1454 68.0317 55.4767 67.817C55.8127 67.6023 56.0274 67.292 56.1207 66.886H57.3387C57.2547 67.376 57.0587 67.789 56.7507 68.125C56.4474 68.461 56.0811 68.7153 55.6517 68.888C55.2271 69.056 54.7791 69.14 54.3077 69.14ZM52.2077 64.807H56.1417C56.1417 64.3917 56.0717 64.0183 55.9317 63.687C55.7917 63.351 55.5771 63.0873 55.2877 62.896C55.0031 62.7 54.6437 62.602 54.2097 62.602C53.7571 62.602 53.3814 62.7117 53.0827 62.931C52.7841 63.1457 52.5624 63.4233 52.4177 63.764C52.2731 64.1 52.2031 64.4477 52.2077 64.807ZM59.1784 69V61.762H60.4104V63.155C60.5318 62.8097 60.7021 62.525 60.9214 62.301C61.1408 62.0723 61.3904 61.902 61.6704 61.79C61.9551 61.678 62.2491 61.622 62.5524 61.622C62.6598 61.622 62.7648 61.629 62.8674 61.643C62.9701 61.657 63.0494 61.6803 63.1054 61.713V62.966C63.0354 62.9333 62.9444 62.9123 62.8324 62.903C62.7251 62.889 62.6341 62.882 62.5594 62.882C62.2701 62.8633 61.9994 62.882 61.7474 62.938C61.4954 62.9893 61.2738 63.0803 61.0824 63.211C60.8911 63.3417 60.7394 63.5143 60.6274 63.729C60.5201 63.939 60.4664 64.1957 60.4664 64.499V69H59.1784ZM67.2102 69.14C66.7062 69.14 66.2372 69.063 65.8032 68.909C65.3738 68.7503 65.0168 68.5053 64.7322 68.174C64.4475 67.838 64.2702 67.411 64.2002 66.893H65.3762C65.4368 67.1777 65.5535 67.4157 65.7262 67.607C65.8988 67.7937 66.1112 67.936 66.3632 68.034C66.6198 68.1273 66.8998 68.174 67.2032 68.174C67.6932 68.174 68.0875 68.083 68.3862 67.901C68.6848 67.719 68.8342 67.439 68.8342 67.061C68.8342 66.795 68.7548 66.5827 68.5962 66.424C68.4422 66.2607 68.1995 66.1417 67.8682 66.067L66.3702 65.696C65.7868 65.556 65.3202 65.3367 64.9702 65.038C64.6248 64.7393 64.4498 64.3217 64.4452 63.785C64.4452 63.3603 64.5478 62.987 64.7532 62.665C64.9585 62.343 65.2642 62.0887 65.6702 61.902C66.0808 61.7153 66.5918 61.622 67.2032 61.622C67.9918 61.622 68.6265 61.7993 69.1072 62.154C69.5878 62.504 69.8398 63.0197 69.8632 63.701H68.7152C68.6685 63.3557 68.5145 63.0827 68.2532 62.882C67.9918 62.6767 67.6372 62.574 67.1892 62.574C66.7318 62.574 66.3562 62.6673 66.0622 62.854C65.7728 63.036 65.6282 63.3207 65.6282 63.708C65.6282 63.9647 65.7308 64.1677 65.9362 64.317C66.1462 64.4617 66.4495 64.583 66.8462 64.681L68.3022 65.045C68.6335 65.1337 68.9088 65.2503 69.1282 65.395C69.3475 65.5397 69.5202 65.7007 69.6462 65.878C69.7722 66.0553 69.8608 66.242 69.9122 66.438C69.9682 66.6293 69.9962 66.8137 69.9962 66.991C69.9962 67.4343 69.8865 67.817 69.6672 68.139C69.4478 68.4563 69.1305 68.7037 68.7152 68.881C68.2998 69.0537 67.7982 69.14 67.2102 69.14ZM74.5862 69.14C73.9189 69.14 73.3355 68.9977 72.8362 68.713C72.3415 68.4237 71.9565 68.0013 71.6812 67.446C71.4059 66.8907 71.2682 66.2117 71.2682 65.409C71.2682 64.653 71.3965 63.9903 71.6532 63.421C71.9099 62.8517 72.2855 62.4107 72.7802 62.098C73.2749 61.7807 73.8792 61.622 74.5932 61.622C75.2605 61.622 75.8392 61.769 76.3292 62.063C76.8192 62.3523 77.1995 62.7793 77.4702 63.344C77.7455 63.9087 77.8832 64.597 77.8832 65.409C77.8832 66.1463 77.7572 66.795 77.5052 67.355C77.2532 67.915 76.8822 68.3537 76.3922 68.671C75.9069 68.9837 75.3049 69.14 74.5862 69.14ZM74.5932 68.118C75.0225 68.118 75.3865 68.0083 75.6852 67.789C75.9839 67.5697 76.2102 67.2547 76.3642 66.844C76.5229 66.4333 76.6022 65.9457 76.6022 65.381C76.6022 64.863 76.5322 64.3987 76.3922 63.988C76.2569 63.5727 76.0422 63.2437 75.7482 63.001C75.4542 62.7583 75.0692 62.637 74.5932 62.637C74.1545 62.637 73.7835 62.7467 73.4802 62.966C73.1769 63.1807 72.9459 63.4933 72.7872 63.904C72.6332 64.3147 72.5562 64.807 72.5562 65.381C72.5562 65.8897 72.6239 66.3517 72.7592 66.767C72.8992 67.1823 73.1185 67.5113 73.4172 67.754C73.7205 67.9967 74.1125 68.118 74.5932 68.118ZM79.6042 69V61.762H80.8572V62.812C80.9739 62.6113 81.1349 62.4223 81.3402 62.245C81.5502 62.0677 81.8022 61.9253 82.0962 61.818C82.3949 61.7107 82.7379 61.657 83.1252 61.657C83.5825 61.657 84.0025 61.748 84.3852 61.93C84.7725 62.112 85.0805 62.3967 85.3092 62.784C85.5425 63.1667 85.6592 63.6613 85.6592 64.268V69H84.3642V64.394C84.3642 63.8293 84.2149 63.4117 83.9162 63.141C83.6222 62.8657 83.2395 62.728 82.7682 62.728C82.4415 62.728 82.1359 62.7817 81.8512 62.889C81.5665 62.9917 81.3355 63.1503 81.1582 63.365C80.9809 63.575 80.8922 63.841 80.8922 64.163V69H79.6042Z" fill="white" style="fill:white;fill-opacity:1;"/>
<path d="M228 64C228 28.6538 256.654 0 292 0C327.346 0 356 28.6538 356 64C356 99.3462 327.346 128 292 128C256.654 128 228 99.3462 228 64Z" fill="#F16767" style="fill:#F16767;fill:color(display-p3 0.9451 0.4039 0.4039);fill-opacity:1;"/>
<path d="M270.724 69V58.878H274.147C274.87 58.878 275.514 58.9993 276.079 59.242C276.643 59.4847 277.087 59.844 277.409 60.32C277.735 60.796 277.899 61.3817 277.899 62.077C277.899 62.749 277.747 63.323 277.444 63.799C277.145 64.275 276.727 64.6367 276.191 64.884C275.654 65.1313 275.031 65.255 274.322 65.255H272.054V69H270.724ZM272.047 64.163H274.294C274.989 64.163 275.554 63.9693 275.988 63.582C276.422 63.1947 276.639 62.6673 276.639 62C276.639 61.328 276.415 60.8193 275.967 60.474C275.519 60.1287 274.94 59.956 274.231 59.956H272.047V64.163ZM282.308 69.14C281.636 69.14 281.043 68.993 280.53 68.699C280.016 68.405 279.615 67.9827 279.326 67.432C279.036 66.8813 278.892 66.221 278.892 65.451C278.892 64.6903 279.022 64.023 279.284 63.449C279.545 62.875 279.923 62.427 280.418 62.105C280.917 61.783 281.517 61.622 282.217 61.622C282.898 61.622 283.474 61.769 283.946 62.063C284.417 62.357 284.774 62.7723 285.017 63.309C285.264 63.841 285.388 64.4733 285.388 65.206V65.682H280.201C280.201 66.1393 280.275 66.5547 280.425 66.928C280.579 67.2967 280.81 67.5907 281.118 67.81C281.426 68.0293 281.815 68.139 282.287 68.139C282.749 68.139 283.145 68.0317 283.477 67.817C283.813 67.6023 284.027 67.292 284.121 66.886H285.339C285.255 67.376 285.059 67.789 284.751 68.125C284.447 68.461 284.081 68.7153 283.652 68.888C283.227 69.056 282.779 69.14 282.308 69.14ZM280.208 64.807H284.142C284.142 64.3917 284.072 64.0183 283.932 63.687C283.792 63.351 283.577 63.0873 283.288 62.896C283.003 62.7 282.644 62.602 282.21 62.602C281.757 62.602 281.381 62.7117 281.083 62.931C280.784 63.1457 280.562 63.4233 280.418 63.764C280.273 64.1 280.203 64.4477 280.208 64.807ZM287.178 69V61.762H288.41V63.155C288.532 62.8097 288.702 62.525 288.921 62.301C289.141 62.0723 289.39 61.902 289.67 61.79C289.955 61.678 290.249 61.622 290.552 61.622C290.66 61.622 290.765 61.629 290.867 61.643C290.97 61.657 291.049 61.6803 291.105 61.713V62.966C291.035 62.9333 290.944 62.9123 290.832 62.903C290.725 62.889 290.634 62.882 290.559 62.882C290.27 62.8633 289.999 62.882 289.747 62.938C289.495 62.9893 289.274 63.0803 289.082 63.211C288.891 63.3417 288.739 63.5143 288.627 63.729C288.52 63.939 288.466 64.1957 288.466 64.499V69H287.178ZM295.21 69.14C294.706 69.14 294.237 69.063 293.803 68.909C293.374 68.7503 293.017 68.5053 292.732 68.174C292.447 67.838 292.27 67.411 292.2 66.893H293.376C293.437 67.1777 293.553 67.4157 293.726 67.607C293.899 67.7937 294.111 67.936 294.363 68.034C294.62 68.1273 294.9 68.174 295.203 68.174C295.693 68.174 296.087 68.083 296.386 67.901C296.685 67.719 296.834 67.439 296.834 67.061C296.834 66.795 296.755 66.5827 296.596 66.424C296.442 66.2607 296.199 66.1417 295.868 66.067L294.37 65.696C293.787 65.556 293.32 65.3367 292.97 65.038C292.625 64.7393 292.45 64.3217 292.445 63.785C292.445 63.3603 292.548 62.987 292.753 62.665C292.958 62.343 293.264 62.0887 293.67 61.902C294.081 61.7153 294.592 61.622 295.203 61.622C295.992 61.622 296.626 61.7993 297.107 62.154C297.588 62.504 297.84 63.0197 297.863 63.701H296.715C296.668 63.3557 296.514 63.0827 296.253 62.882C295.992 62.6767 295.637 62.574 295.189 62.574C294.732 62.574 294.356 62.6673 294.062 62.854C293.773 63.036 293.628 63.3207 293.628 63.708C293.628 63.9647 293.731 64.1677 293.936 64.317C294.146 64.4617 294.449 64.583 294.846 64.681L296.302 65.045C296.633 65.1337 296.909 65.2503 297.128 65.395C297.347 65.5397 297.52 65.7007 297.646 65.878C297.772 66.0553 297.861 66.242 297.912 66.438C297.968 66.6293 297.996 66.8137 297.996 66.991C297.996 67.4343 297.886 67.817 297.667 68.139C297.448 68.4563 297.13 68.7037 296.715 68.881C296.3 69.0537 295.798 69.14 295.21 69.14ZM302.586 69.14C301.919 69.14 301.336 68.9977 300.836 68.713C300.342 68.4237 299.957 68.0013 299.681 67.446C299.406 66.8907 299.268 66.2117 299.268 65.409C299.268 64.653 299.397 63.9903 299.653 63.421C299.91 62.8517 300.286 62.4107 300.78 62.098C301.275 61.7807 301.879 61.622 302.593 61.622C303.261 61.622 303.839 61.769 304.329 62.063C304.819 62.3523 305.2 62.7793 305.47 63.344C305.746 63.9087 305.883 64.597 305.883 65.409C305.883 66.1463 305.757 66.795 305.505 67.355C305.253 67.915 304.882 68.3537 304.392 68.671C303.907 68.9837 303.305 69.14 302.586 69.14ZM302.593 68.118C303.023 68.118 303.387 68.0083 303.685 67.789C303.984 67.5697 304.21 67.2547 304.364 66.844C304.523 66.4333 304.602 65.9457 304.602 65.381C304.602 64.863 304.532 64.3987 304.392 63.988C304.257 63.5727 304.042 63.2437 303.748 63.001C303.454 62.7583 303.069 62.637 302.593 62.637C302.155 62.637 301.784 62.7467 301.48 62.966C301.177 63.1807 300.946 63.4933 300.787 63.904C300.633 64.3147 300.556 64.807 300.556 65.381C300.556 65.8897 300.624 66.3517 300.759 66.767C300.899 67.1823 301.119 67.5113 301.417 67.754C301.721 67.9967 302.113 68.118 302.593 68.118ZM307.604 69V61.762H308.857V62.812C308.974 62.6113 309.135 62.4223 309.34 62.245C309.55 62.0677 309.802 61.9253 310.096 61.818C310.395 61.7107 310.738 61.657 311.125 61.657C311.583 61.657 312.003 61.748 312.385 61.93C312.773 62.112 313.081 62.3967 313.309 62.784C313.543 63.1667 313.659 63.6613 313.659 64.268V69H312.364V64.394C312.364 63.8293 312.215 63.4117 311.916 63.141C311.622 62.8657 311.24 62.728 310.768 62.728C310.442 62.728 310.136 62.7817 309.851 62.889C309.567 62.9917 309.336 63.1503 309.158 63.365C308.981 63.575 308.892 63.841 308.892 64.163V69H307.604Z" fill="white" style="fill:white;fill-opacity:1;"/>
<path d="M250.966 157V149.762H252.632V150.798C252.744 150.611 252.896 150.432 253.087 150.259C253.283 150.086 253.523 149.946 253.808 149.839C254.093 149.732 254.426 149.678 254.809 149.678C255.257 149.678 255.672 149.767 256.055 149.944C256.442 150.121 256.753 150.399 256.986 150.777C257.224 151.155 257.343 151.643 257.343 152.24V157H255.635V152.443C255.635 151.967 255.504 151.615 255.243 151.386C254.982 151.153 254.653 151.036 254.256 151.036C253.985 151.036 253.729 151.083 253.486 151.176C253.243 151.265 253.045 151.402 252.891 151.589C252.742 151.771 252.667 152 252.667 152.275V157H250.966ZM261.221 157.14C260.759 157.14 260.344 157.056 259.975 156.888C259.611 156.715 259.324 156.47 259.114 156.153C258.909 155.831 258.806 155.441 258.806 154.984C258.806 154.186 259.093 153.584 259.667 153.178C260.246 152.772 261.165 152.56 262.425 152.541L263.51 152.513V152.023C263.51 151.64 263.396 151.342 263.167 151.127C262.943 150.908 262.593 150.8 262.117 150.805C261.762 150.81 261.44 150.894 261.151 151.057C260.862 151.216 260.67 151.484 260.577 151.862H259.128C259.156 151.367 259.298 150.954 259.555 150.623C259.816 150.287 260.173 150.037 260.626 149.874C261.079 149.706 261.601 149.622 262.194 149.622C262.885 149.622 263.447 149.713 263.881 149.895C264.315 150.077 264.635 150.341 264.84 150.686C265.045 151.027 265.148 151.44 265.148 151.925V157H263.713L263.573 155.698C263.316 156.244 262.987 156.622 262.586 156.832C262.189 157.037 261.734 157.14 261.221 157.14ZM261.774 155.985C261.984 155.985 262.192 155.948 262.397 155.873C262.602 155.794 262.787 155.689 262.95 155.558C263.118 155.423 263.251 155.273 263.349 155.11C263.452 154.947 263.505 154.776 263.51 154.599V153.458L262.621 153.472C262.182 153.477 261.797 153.523 261.466 153.612C261.139 153.701 260.885 153.843 260.703 154.039C260.521 154.23 260.43 154.487 260.43 154.809C260.43 155.178 260.558 155.467 260.815 155.677C261.072 155.882 261.391 155.985 261.774 155.985ZM266.962 157V149.762H268.621V150.798C268.831 150.481 269.116 150.205 269.475 149.972C269.839 149.739 270.301 149.622 270.861 149.622C271.118 149.622 271.377 149.666 271.638 149.755C271.904 149.844 272.149 149.974 272.373 150.147C272.602 150.32 272.784 150.534 272.919 150.791C273.148 150.45 273.451 150.17 273.829 149.951C274.212 149.732 274.641 149.622 275.117 149.622C275.378 149.622 275.647 149.664 275.922 149.748C276.202 149.832 276.459 149.972 276.692 150.168C276.925 150.364 277.114 150.632 277.259 150.973C277.404 151.309 277.476 151.731 277.476 152.24V157H275.775V152.443C275.775 152.084 275.712 151.801 275.586 151.596C275.46 151.391 275.297 151.246 275.096 151.162C274.9 151.073 274.69 151.029 274.466 151.029C274.265 151.029 274.055 151.069 273.836 151.148C273.621 151.227 273.437 151.358 273.283 151.54C273.134 151.722 273.059 151.967 273.059 152.275V157H271.358V152.17C271.358 151.918 271.293 151.708 271.162 151.54C271.031 151.372 270.866 151.246 270.665 151.162C270.469 151.073 270.268 151.029 270.063 151.029C269.853 151.029 269.638 151.073 269.419 151.162C269.204 151.251 269.025 151.386 268.88 151.568C268.735 151.75 268.663 151.986 268.663 152.275V157H266.962ZM282.507 157.14C281.811 157.14 281.198 156.993 280.666 156.699C280.138 156.4 279.725 155.976 279.427 155.425C279.133 154.874 278.986 154.219 278.986 153.458C278.986 152.716 279.119 152.058 279.385 151.484C279.655 150.905 280.045 150.45 280.554 150.119C281.067 149.788 281.685 149.622 282.409 149.622C283.123 149.622 283.722 149.774 284.208 150.077C284.693 150.38 285.062 150.805 285.314 151.351C285.566 151.892 285.692 152.527 285.692 153.255V153.773H280.687C280.682 154.184 280.747 154.548 280.883 154.865C281.018 155.182 281.219 155.432 281.485 155.614C281.751 155.791 282.08 155.88 282.472 155.88C282.873 155.88 283.221 155.791 283.515 155.614C283.813 155.432 284.012 155.157 284.11 154.788H285.664C285.58 155.292 285.379 155.719 285.062 156.069C284.749 156.419 284.366 156.685 283.914 156.867C283.466 157.049 282.997 157.14 282.507 157.14ZM280.68 152.716H284.082C284.082 152.366 284.019 152.051 283.893 151.771C283.771 151.486 283.587 151.262 283.34 151.099C283.092 150.931 282.78 150.847 282.402 150.847C282.028 150.847 281.713 150.938 281.457 151.12C281.2 151.302 281.006 151.538 280.876 151.827C280.745 152.112 280.68 152.408 280.68 152.716ZM287.082 151.932V149.986H289.007V151.932H287.082ZM287.082 156.958V155.026H289.007V156.958H287.082ZM294.369 150.497L293.9 146.878H295.755L295.265 150.497H294.369ZM297.832 157V146.878H301.311C302.595 146.878 303.554 147.107 304.188 147.564C304.828 148.017 305.147 148.67 305.147 149.524C305.147 150.042 305.014 150.49 304.748 150.868C304.482 151.246 304.013 151.566 303.341 151.827C303.752 151.925 304.09 152.06 304.356 152.233C304.627 152.401 304.837 152.595 304.986 152.814C305.136 153.029 305.241 153.26 305.301 153.507C305.362 153.754 305.392 154.009 305.392 154.27C305.392 155.194 305.07 155.88 304.426 156.328C303.787 156.776 302.795 157 301.451 157H297.832ZM299.533 155.642H301.472C302.191 155.642 302.735 155.514 303.103 155.257C303.477 154.996 303.663 154.62 303.663 154.13C303.663 153.775 303.572 153.484 303.39 153.255C303.208 153.022 302.961 152.849 302.648 152.737C302.336 152.625 301.986 152.569 301.598 152.569H299.533V155.642ZM299.533 151.19H301.598C301.836 151.19 302.067 151.164 302.291 151.113C302.515 151.062 302.718 150.98 302.9 150.868C303.082 150.756 303.227 150.607 303.334 150.42C303.446 150.233 303.502 150.007 303.502 149.741C303.502 149.232 303.309 148.854 302.921 148.607C302.539 148.355 302.046 148.229 301.444 148.229H299.533V151.19ZM310.168 157.14C309.477 157.14 308.875 156.993 308.362 156.699C307.849 156.4 307.45 155.973 307.165 155.418C306.885 154.863 306.745 154.195 306.745 153.416C306.745 152.66 306.883 151.997 307.158 151.428C307.433 150.859 307.825 150.415 308.334 150.098C308.847 149.781 309.461 149.622 310.175 149.622C310.866 149.622 311.465 149.774 311.974 150.077C312.483 150.38 312.875 150.814 313.15 151.379C313.43 151.944 313.57 152.623 313.57 153.416C313.57 154.149 313.437 154.795 313.171 155.355C312.91 155.91 312.525 156.347 312.016 156.664C311.512 156.981 310.896 157.14 310.168 157.14ZM310.175 155.845C310.567 155.845 310.889 155.738 311.141 155.523C311.398 155.308 311.589 155.014 311.715 154.641C311.841 154.268 311.904 153.843 311.904 153.367C311.904 152.924 311.848 152.515 311.736 152.142C311.624 151.769 311.44 151.47 311.183 151.246C310.931 151.017 310.595 150.903 310.175 150.903C309.778 150.903 309.449 151.008 309.188 151.218C308.931 151.423 308.74 151.713 308.614 152.086C308.488 152.455 308.425 152.882 308.425 153.367C308.425 153.806 308.481 154.214 308.593 154.592C308.705 154.965 308.889 155.269 309.146 155.502C309.403 155.731 309.746 155.845 310.175 155.845ZM318.95 157.14C318.563 157.14 318.231 157.089 317.956 156.986C317.681 156.883 317.45 156.75 317.263 156.587C317.081 156.424 316.934 156.249 316.822 156.062C316.715 155.871 316.633 155.689 316.577 155.516L316.381 157H315.128V146.598H316.836V150.819C316.911 150.679 317.013 150.539 317.144 150.399C317.279 150.259 317.443 150.131 317.634 150.014C317.825 149.897 318.042 149.804 318.285 149.734C318.532 149.659 318.805 149.622 319.104 149.622C320.005 149.622 320.716 149.942 321.239 150.581C321.762 151.22 322.023 152.142 322.023 153.346C322.023 154.107 321.906 154.772 321.673 155.341C321.444 155.91 321.101 156.354 320.644 156.671C320.191 156.984 319.627 157.14 318.95 157.14ZM318.6 155.887C319.109 155.887 319.526 155.684 319.853 155.278C320.18 154.872 320.343 154.214 320.343 153.304C320.343 152.511 320.189 151.911 319.881 151.505C319.573 151.094 319.139 150.889 318.579 150.889C318.178 150.889 317.849 150.98 317.592 151.162C317.34 151.344 317.151 151.615 317.025 151.974C316.904 152.333 316.841 152.777 316.836 153.304C316.836 154.228 316.976 154.891 317.256 155.292C317.541 155.689 317.989 155.887 318.6 155.887ZM323.039 150.497L322.57 146.878H324.425L323.935 150.497H323.039ZM253.059 181.14C252.597 181.14 252.182 181.056 251.813 180.888C251.449 180.715 251.162 180.47 250.952 180.153C250.747 179.831 250.644 179.441 250.644 178.984C250.644 178.186 250.931 177.584 251.505 177.178C252.084 176.772 253.003 176.56 254.263 176.541L255.348 176.513V176.023C255.348 175.64 255.234 175.342 255.005 175.127C254.781 174.908 254.431 174.8 253.955 174.805C253.6 174.81 253.278 174.894 252.989 175.057C252.7 175.216 252.508 175.484 252.415 175.862H250.966C250.994 175.367 251.136 174.954 251.393 174.623C251.654 174.287 252.011 174.037 252.464 173.874C252.917 173.706 253.439 173.622 254.032 173.622C254.723 173.622 255.285 173.713 255.719 173.895C256.153 174.077 256.473 174.341 256.678 174.686C256.883 175.027 256.986 175.44 256.986 175.925V181H255.551L255.411 179.698C255.154 180.244 254.825 180.622 254.424 180.832C254.027 181.037 253.572 181.14 253.059 181.14ZM253.612 179.985C253.822 179.985 254.03 179.948 254.235 179.873C254.44 179.794 254.625 179.689 254.788 179.558C254.956 179.423 255.089 179.273 255.187 179.11C255.29 178.947 255.343 178.776 255.348 178.599V177.458L254.459 177.472C254.02 177.477 253.635 177.523 253.304 177.612C252.977 177.701 252.723 177.843 252.541 178.039C252.359 178.23 252.268 178.487 252.268 178.809C252.268 179.178 252.396 179.467 252.653 179.677C252.91 179.882 253.229 179.985 253.612 179.985ZM262.02 183.394C260.802 183.394 259.866 183.231 259.213 182.904C258.56 182.577 258.233 182.129 258.233 181.56C258.233 181.303 258.296 181.089 258.422 180.916C258.548 180.743 258.697 180.601 258.87 180.489C259.043 180.377 259.201 180.291 259.346 180.23C259.491 180.169 259.584 180.125 259.626 180.097C259.547 180.05 259.442 179.99 259.311 179.915C259.18 179.84 259.061 179.738 258.954 179.607C258.851 179.476 258.8 179.306 258.8 179.096C258.8 178.853 258.914 178.629 259.143 178.424C259.376 178.219 259.724 178.072 260.186 177.983C259.733 177.764 259.386 177.467 259.143 177.094C258.9 176.721 258.779 176.333 258.779 175.932C258.779 175.456 258.917 175.048 259.192 174.707C259.472 174.366 259.859 174.105 260.354 173.923C260.849 173.741 261.425 173.65 262.083 173.65C262.564 173.65 262.963 173.704 263.28 173.811C263.602 173.918 263.901 174.063 264.176 174.245C264.269 174.208 264.4 174.156 264.568 174.091C264.736 174.021 264.92 173.946 265.121 173.867C265.322 173.783 265.515 173.704 265.702 173.629C265.889 173.55 266.045 173.484 266.171 173.433L266.164 174.84L264.911 175.064C264.972 175.199 265.018 175.346 265.051 175.505C265.088 175.664 265.107 175.804 265.107 175.925C265.107 176.345 264.988 176.735 264.75 177.094C264.517 177.449 264.164 177.733 263.693 177.948C263.226 178.163 262.643 178.27 261.943 178.27C261.873 178.27 261.777 178.268 261.656 178.263C261.535 178.258 261.437 178.254 261.362 178.249C260.984 178.263 260.725 178.307 260.585 178.382C260.445 178.457 260.375 178.538 260.375 178.627C260.375 178.753 260.48 178.837 260.69 178.879C260.9 178.921 261.236 178.958 261.698 178.991C261.861 179 262.076 179.012 262.342 179.026C262.608 179.04 262.904 179.059 263.231 179.082C264.057 179.133 264.682 179.341 265.107 179.705C265.532 180.064 265.744 180.531 265.744 181.105C265.744 181.772 265.436 182.321 264.82 182.75C264.204 183.179 263.271 183.394 262.02 183.394ZM262.307 182.393C262.918 182.393 263.371 182.309 263.665 182.141C263.959 181.973 264.106 181.726 264.106 181.399C264.106 181.147 264.006 180.942 263.805 180.783C263.604 180.624 263.306 180.531 262.909 180.503L261.082 180.391C260.881 180.377 260.69 180.414 260.508 180.503C260.331 180.587 260.186 180.706 260.074 180.86C259.962 181.009 259.906 181.175 259.906 181.357C259.906 181.698 260.1 181.954 260.487 182.127C260.879 182.304 261.486 182.393 262.307 182.393ZM261.999 177.269C262.442 177.269 262.802 177.157 263.077 176.933C263.352 176.704 263.49 176.382 263.49 175.967C263.49 175.538 263.352 175.204 263.077 174.966C262.802 174.723 262.442 174.602 261.999 174.602C261.546 174.602 261.18 174.723 260.9 174.966C260.625 175.209 260.487 175.542 260.487 175.967C260.487 176.368 260.62 176.686 260.886 176.919C261.152 177.152 261.523 177.269 261.999 177.269ZM270.558 181.14C269.862 181.14 269.249 180.993 268.717 180.699C268.189 180.4 267.776 179.976 267.478 179.425C267.184 178.874 267.037 178.219 267.037 177.458C267.037 176.716 267.17 176.058 267.436 175.484C267.706 174.905 268.096 174.45 268.605 174.119C269.118 173.788 269.736 173.622 270.46 173.622C271.174 173.622 271.773 173.774 272.259 174.077C272.744 174.38 273.113 174.805 273.365 175.351C273.617 175.892 273.743 176.527 273.743 177.255V177.773H268.738C268.733 178.184 268.798 178.548 268.934 178.865C269.069 179.182 269.27 179.432 269.536 179.614C269.802 179.791 270.131 179.88 270.523 179.88C270.924 179.88 271.272 179.791 271.566 179.614C271.864 179.432 272.063 179.157 272.161 178.788H273.715C273.631 179.292 273.43 179.719 273.113 180.069C272.8 180.419 272.417 180.685 271.965 180.867C271.517 181.049 271.048 181.14 270.558 181.14ZM268.731 176.716H272.133C272.133 176.366 272.07 176.051 271.944 175.771C271.822 175.486 271.638 175.262 271.391 175.099C271.143 174.931 270.831 174.847 270.453 174.847C270.079 174.847 269.764 174.938 269.508 175.12C269.251 175.302 269.057 175.538 268.927 175.827C268.796 176.112 268.731 176.408 268.731 176.716ZM275.132 175.932V173.986H277.057V175.932H275.132ZM275.132 180.958V179.026H277.057V180.958H275.132ZM281.916 181V180.09V179.621C281.916 179.103 282.012 178.657 282.203 178.284C282.394 177.906 282.649 177.577 282.966 177.297C283.283 177.017 283.631 176.77 284.009 176.555C284.392 176.336 284.77 176.13 285.143 175.939C285.521 175.743 285.869 175.542 286.186 175.337C286.503 175.127 286.758 174.894 286.949 174.637C287.145 174.38 287.243 174.075 287.243 173.72C287.243 173.267 287.082 172.899 286.76 172.614C286.443 172.325 286.011 172.18 285.465 172.18C284.886 172.18 284.408 172.346 284.03 172.677C283.657 173.008 283.435 173.475 283.365 174.077H281.713C281.722 173.461 281.869 172.901 282.154 172.397C282.439 171.893 282.861 171.492 283.421 171.193C283.981 170.89 284.679 170.738 285.514 170.738C286.237 170.738 286.86 170.864 287.383 171.116C287.91 171.363 288.316 171.711 288.601 172.159C288.89 172.602 289.035 173.12 289.035 173.713C289.035 174.231 288.939 174.674 288.748 175.043C288.561 175.412 288.312 175.731 287.999 176.002C287.691 176.268 287.35 176.504 286.977 176.709C286.608 176.914 286.237 177.108 285.864 177.29C285.495 177.467 285.155 177.654 284.842 177.85C284.534 178.041 284.284 178.261 284.093 178.508C283.906 178.755 283.813 179.052 283.813 179.397V179.544H289.056V181H281.916ZM294.14 181.154C292.969 181.154 292.047 180.713 291.375 179.831C290.708 178.949 290.374 177.663 290.374 175.974C290.374 174.835 290.528 173.879 290.836 173.104C291.144 172.325 291.581 171.737 292.145 171.34C292.71 170.939 293.377 170.738 294.147 170.738C295.305 170.738 296.219 171.184 296.891 172.075C297.568 172.962 297.906 174.257 297.906 175.96C297.906 177.654 297.57 178.944 296.898 179.831C296.231 180.713 295.312 181.154 294.14 181.154ZM294.147 179.733C294.805 179.733 295.295 179.441 295.617 178.858C295.939 178.275 296.1 177.311 296.1 175.967C296.1 174.595 295.937 173.61 295.61 173.013C295.284 172.416 294.794 172.117 294.14 172.117C293.487 172.117 292.992 172.418 292.656 173.02C292.325 173.622 292.159 174.604 292.159 175.967C292.159 177.306 292.325 178.27 292.656 178.858C292.992 179.441 293.489 179.733 294.147 179.733Z" fill="black" style="fill:black;fill-opacity:1;"/>
<path d="M478.966 157V149.762H480.632V150.798C480.744 150.611 480.896 150.432 481.087 150.259C481.283 150.086 481.523 149.946 481.808 149.839C482.093 149.732 482.426 149.678 482.809 149.678C483.257 149.678 483.672 149.767 484.055 149.944C484.442 150.121 484.753 150.399 484.986 150.777C485.224 151.155 485.343 151.643 485.343 152.24V157H483.635V152.443C483.635 151.967 483.504 151.615 483.243 151.386C482.982 151.153 482.653 151.036 482.256 151.036C481.985 151.036 481.729 151.083 481.486 151.176C481.243 151.265 481.045 151.402 480.891 151.589C480.742 151.771 480.667 152 480.667 152.275V157H478.966ZM489.221 157.14C488.759 157.14 488.344 157.056 487.975 156.888C487.611 156.715 487.324 156.47 487.114 156.153C486.909 155.831 486.806 155.441 486.806 154.984C486.806 154.186 487.093 153.584 487.667 153.178C488.246 152.772 489.165 152.56 490.425 152.541L491.51 152.513V152.023C491.51 151.64 491.396 151.342 491.167 151.127C490.943 150.908 490.593 150.8 490.117 150.805C489.762 150.81 489.44 150.894 489.151 151.057C488.862 151.216 488.67 151.484 488.577 151.862H487.128C487.156 151.367 487.298 150.954 487.555 150.623C487.816 150.287 488.173 150.037 488.626 149.874C489.079 149.706 489.601 149.622 490.194 149.622C490.885 149.622 491.447 149.713 491.881 149.895C492.315 150.077 492.635 150.341 492.84 150.686C493.045 151.027 493.148 151.44 493.148 151.925V157H491.713L491.573 155.698C491.316 156.244 490.987 156.622 490.586 156.832C490.189 157.037 489.734 157.14 489.221 157.14ZM489.774 155.985C489.984 155.985 490.192 155.948 490.397 155.873C490.602 155.794 490.787 155.689 490.95 155.558C491.118 155.423 491.251 155.273 491.349 155.11C491.452 154.947 491.505 154.776 491.51 154.599V153.458L490.621 153.472C490.182 153.477 489.797 153.523 489.466 153.612C489.139 153.701 488.885 153.843 488.703 154.039C488.521 154.23 488.43 154.487 488.43 154.809C488.43 155.178 488.558 155.467 488.815 155.677C489.072 155.882 489.391 155.985 489.774 155.985ZM494.962 157V149.762H496.621V150.798C496.831 150.481 497.116 150.205 497.475 149.972C497.839 149.739 498.301 149.622 498.861 149.622C499.118 149.622 499.377 149.666 499.638 149.755C499.904 149.844 500.149 149.974 500.373 150.147C500.602 150.32 500.784 150.534 500.919 150.791C501.148 150.45 501.451 150.17 501.829 149.951C502.212 149.732 502.641 149.622 503.117 149.622C503.378 149.622 503.647 149.664 503.922 149.748C504.202 149.832 504.459 149.972 504.692 150.168C504.925 150.364 505.114 150.632 505.259 150.973C505.404 151.309 505.476 151.731 505.476 152.24V157H503.775V152.443C503.775 152.084 503.712 151.801 503.586 151.596C503.46 151.391 503.297 151.246 503.096 151.162C502.9 151.073 502.69 151.029 502.466 151.029C502.265 151.029 502.055 151.069 501.836 151.148C501.621 151.227 501.437 151.358 501.283 151.54C501.134 151.722 501.059 151.967 501.059 152.275V157H499.358V152.17C499.358 151.918 499.293 151.708 499.162 151.54C499.031 151.372 498.866 151.246 498.665 151.162C498.469 151.073 498.268 151.029 498.063 151.029C497.853 151.029 497.638 151.073 497.419 151.162C497.204 151.251 497.025 151.386 496.88 151.568C496.735 151.75 496.663 151.986 496.663 152.275V157H494.962ZM510.507 157.14C509.811 157.14 509.198 156.993 508.666 156.699C508.138 156.4 507.725 155.976 507.427 155.425C507.133 154.874 506.986 154.219 506.986 153.458C506.986 152.716 507.119 152.058 507.385 151.484C507.655 150.905 508.045 150.45 508.554 150.119C509.067 149.788 509.685 149.622 510.409 149.622C511.123 149.622 511.722 149.774 512.208 150.077C512.693 150.38 513.062 150.805 513.314 151.351C513.566 151.892 513.692 152.527 513.692 153.255V153.773H508.687C508.682 154.184 508.747 154.548 508.883 154.865C509.018 155.182 509.219 155.432 509.485 155.614C509.751 155.791 510.08 155.88 510.472 155.88C510.873 155.88 511.221 155.791 511.515 155.614C511.813 155.432 512.012 155.157 512.11 154.788H513.664C513.58 155.292 513.379 155.719 513.062 156.069C512.749 156.419 512.366 156.685 511.914 156.867C511.466 157.049 510.997 157.14 510.507 157.14ZM508.68 152.716H512.082C512.082 152.366 512.019 152.051 511.893 151.771C511.771 151.486 511.587 151.262 511.34 151.099C511.092 150.931 510.78 150.847 510.402 150.847C510.028 150.847 509.713 150.938 509.457 151.12C509.2 151.302 509.006 151.538 508.876 151.827C508.745 152.112 508.68 152.408 508.68 152.716ZM515.082 151.932V149.986H517.007V151.932H515.082ZM515.082 156.958V155.026H517.007V156.958H515.082ZM522.369 150.497L521.9 146.878H523.755L523.265 150.497H522.369ZM529.773 157.14C528.845 157.14 528.047 156.928 527.379 156.503C526.717 156.074 526.206 155.467 525.846 154.683C525.492 153.894 525.314 152.959 525.314 151.876C525.314 150.798 525.492 149.876 525.846 149.111C526.201 148.346 526.71 147.76 527.372 147.354C528.04 146.943 528.84 146.738 529.773 146.738C530.515 146.738 531.173 146.89 531.747 147.193C532.321 147.492 532.783 147.898 533.133 148.411C533.488 148.924 533.698 149.496 533.763 150.126H531.964C531.894 149.753 531.764 149.419 531.572 149.125C531.386 148.831 531.138 148.598 530.83 148.425C530.522 148.252 530.154 148.166 529.724 148.166C529.188 148.166 528.73 148.294 528.352 148.551C527.979 148.803 527.692 149.204 527.491 149.755C527.295 150.306 527.197 151.02 527.197 151.897C527.197 153.227 527.417 154.195 527.855 154.802C528.294 155.409 528.917 155.712 529.724 155.712C530.154 155.712 530.522 155.619 530.83 155.432C531.138 155.241 531.386 154.989 531.572 154.676C531.764 154.359 531.894 154.013 531.964 153.64H533.763C533.707 154.097 533.591 154.536 533.413 154.956C533.241 155.376 532.996 155.752 532.678 156.083C532.361 156.41 531.962 156.669 531.481 156.86C531.005 157.047 530.436 157.14 529.773 157.14ZM535.431 157V146.598H537.111V150.812C537.228 150.63 537.382 150.455 537.573 150.287C537.764 150.114 537.998 149.974 538.273 149.867C538.553 149.755 538.887 149.699 539.274 149.699C539.736 149.699 540.158 149.788 540.541 149.965C540.924 150.142 541.229 150.399 541.458 150.735C541.687 151.066 541.801 151.463 541.801 151.925V157H540.093V152.212C540.093 151.839 539.96 151.549 539.694 151.344C539.433 151.139 539.101 151.036 538.7 151.036C538.434 151.036 538.18 151.083 537.937 151.176C537.694 151.269 537.498 151.409 537.349 151.596C537.204 151.778 537.132 152.007 537.132 152.282V157H535.431ZM545.672 157.14C545.21 157.14 544.795 157.056 544.426 156.888C544.062 156.715 543.775 156.47 543.565 156.153C543.36 155.831 543.257 155.441 543.257 154.984C543.257 154.186 543.544 153.584 544.118 153.178C544.697 152.772 545.616 152.56 546.876 152.541L547.961 152.513V152.023C547.961 151.64 547.847 151.342 547.618 151.127C547.394 150.908 547.044 150.8 546.568 150.805C546.214 150.81 545.892 150.894 545.602 151.057C545.313 151.216 545.122 151.484 545.028 151.862H543.579C543.607 151.367 543.75 150.954 544.006 150.623C544.268 150.287 544.625 150.037 545.077 149.874C545.53 149.706 546.053 149.622 546.645 149.622C547.336 149.622 547.898 149.713 548.332 149.895C548.766 150.077 549.086 150.341 549.291 150.686C549.497 151.027 549.599 151.44 549.599 151.925V157H548.164L548.024 155.698C547.768 156.244 547.439 156.622 547.037 156.832C546.641 157.037 546.186 157.14 545.672 157.14ZM546.225 155.985C546.435 155.985 546.643 155.948 546.848 155.873C547.054 155.794 547.238 155.689 547.401 155.558C547.569 155.423 547.702 155.273 547.8 155.11C547.903 154.947 547.957 154.776 547.961 154.599V153.458L547.072 153.472C546.634 153.477 546.249 153.523 545.917 153.612C545.591 153.701 545.336 153.843 545.154 154.039C544.972 154.23 544.881 154.487 544.881 154.809C544.881 155.178 545.01 155.467 545.266 155.677C545.523 155.882 545.843 155.985 546.225 155.985ZM551.413 157V149.762H553.044V151.33C553.161 150.971 553.327 150.665 553.541 150.413C553.761 150.156 554.017 149.96 554.311 149.825C554.605 149.69 554.925 149.622 555.27 149.622C555.354 149.622 555.436 149.627 555.515 149.636C555.595 149.645 555.653 149.662 555.69 149.685V151.316C555.639 151.293 555.571 151.276 555.487 151.267C555.408 151.258 555.338 151.253 555.277 151.253C554.927 151.225 554.617 151.239 554.346 151.295C554.08 151.351 553.854 151.447 553.667 151.582C553.485 151.713 553.348 151.881 553.254 152.086C553.161 152.287 553.114 152.522 553.114 152.793V157H551.413ZM559.132 157.105C558.665 157.105 558.292 157.047 558.012 156.93C557.732 156.813 557.522 156.657 557.382 156.461C557.242 156.265 557.151 156.046 557.109 155.803C557.067 155.556 557.046 155.304 557.046 155.047V146.598H558.712V154.851C558.712 155.164 558.775 155.406 558.901 155.579C559.032 155.752 559.242 155.852 559.531 155.88L559.895 155.894V156.965C559.769 157.002 559.641 157.035 559.51 157.063C559.379 157.091 559.253 157.105 559.132 157.105ZM561.449 157V149.762H563.08V157H561.449ZM561.421 148.495V146.885H563.108V148.495H561.421ZM568.229 157.14C567.534 157.14 566.92 156.993 566.388 156.699C565.861 156.4 565.448 155.976 565.149 155.425C564.855 154.874 564.708 154.219 564.708 153.458C564.708 152.716 564.841 152.058 565.107 151.484C565.378 150.905 565.768 150.45 566.276 150.119C566.79 149.788 567.408 149.622 568.131 149.622C568.845 149.622 569.445 149.774 569.93 150.077C570.416 150.38 570.784 150.805 571.036 151.351C571.288 151.892 571.414 152.527 571.414 153.255V153.773H566.409C566.405 154.184 566.47 154.548 566.605 154.865C566.741 155.182 566.941 155.432 567.207 155.614C567.473 155.791 567.802 155.88 568.194 155.88C568.596 155.88 568.943 155.791 569.237 155.614C569.536 155.432 569.734 155.157 569.832 154.788H571.386C571.302 155.292 571.102 155.719 570.784 156.069C570.472 156.419 570.089 156.685 569.636 156.867C569.188 157.049 568.719 157.14 568.229 157.14ZM566.402 152.716H569.804C569.804 152.366 569.741 152.051 569.615 151.771C569.494 151.486 569.31 151.262 569.062 151.099C568.815 150.931 568.502 150.847 568.124 150.847C567.751 150.847 567.436 150.938 567.179 151.12C566.923 151.302 566.729 151.538 566.598 151.827C566.468 152.112 566.402 152.408 566.402 152.716ZM572.518 150.497L572.049 146.878H573.904L573.414 150.497H572.518ZM481.059 181.14C480.597 181.14 480.182 181.056 479.813 180.888C479.449 180.715 479.162 180.47 478.952 180.153C478.747 179.831 478.644 179.441 478.644 178.984C478.644 178.186 478.931 177.584 479.505 177.178C480.084 176.772 481.003 176.56 482.263 176.541L483.348 176.513V176.023C483.348 175.64 483.234 175.342 483.005 175.127C482.781 174.908 482.431 174.8 481.955 174.805C481.6 174.81 481.278 174.894 480.989 175.057C480.7 175.216 480.508 175.484 480.415 175.862H478.966C478.994 175.367 479.136 174.954 479.393 174.623C479.654 174.287 480.011 174.037 480.464 173.874C480.917 173.706 481.439 173.622 482.032 173.622C482.723 173.622 483.285 173.713 483.719 173.895C484.153 174.077 484.473 174.341 484.678 174.686C484.883 175.027 484.986 175.44 484.986 175.925V181H483.551L483.411 179.698C483.154 180.244 482.825 180.622 482.424 180.832C482.027 181.037 481.572 181.14 481.059 181.14ZM481.612 179.985C481.822 179.985 482.03 179.948 482.235 179.873C482.44 179.794 482.625 179.689 482.788 179.558C482.956 179.423 483.089 179.273 483.187 179.11C483.29 178.947 483.343 178.776 483.348 178.599V177.458L482.459 177.472C482.02 177.477 481.635 177.523 481.304 177.612C480.977 177.701 480.723 177.843 480.541 178.039C480.359 178.23 480.268 178.487 480.268 178.809C480.268 179.178 480.396 179.467 480.653 179.677C480.91 179.882 481.229 179.985 481.612 179.985ZM490.02 183.394C488.802 183.394 487.866 183.231 487.213 182.904C486.56 182.577 486.233 182.129 486.233 181.56C486.233 181.303 486.296 181.089 486.422 180.916C486.548 180.743 486.697 180.601 486.87 180.489C487.043 180.377 487.201 180.291 487.346 180.23C487.491 180.169 487.584 180.125 487.626 180.097C487.547 180.05 487.442 179.99 487.311 179.915C487.18 179.84 487.061 179.738 486.954 179.607C486.851 179.476 486.8 179.306 486.8 179.096C486.8 178.853 486.914 178.629 487.143 178.424C487.376 178.219 487.724 178.072 488.186 177.983C487.733 177.764 487.386 177.467 487.143 177.094C486.9 176.721 486.779 176.333 486.779 175.932C486.779 175.456 486.917 175.048 487.192 174.707C487.472 174.366 487.859 174.105 488.354 173.923C488.849 173.741 489.425 173.65 490.083 173.65C490.564 173.65 490.963 173.704 491.28 173.811C491.602 173.918 491.901 174.063 492.176 174.245C492.269 174.208 492.4 174.156 492.568 174.091C492.736 174.021 492.92 173.946 493.121 173.867C493.322 173.783 493.515 173.704 493.702 173.629C493.889 173.55 494.045 173.484 494.171 173.433L494.164 174.84L492.911 175.064C492.972 175.199 493.018 175.346 493.051 175.505C493.088 175.664 493.107 175.804 493.107 175.925C493.107 176.345 492.988 176.735 492.75 177.094C492.517 177.449 492.164 177.733 491.693 177.948C491.226 178.163 490.643 178.27 489.943 178.27C489.873 178.27 489.777 178.268 489.656 178.263C489.535 178.258 489.437 178.254 489.362 178.249C488.984 178.263 488.725 178.307 488.585 178.382C488.445 178.457 488.375 178.538 488.375 178.627C488.375 178.753 488.48 178.837 488.69 178.879C488.9 178.921 489.236 178.958 489.698 178.991C489.861 179 490.076 179.012 490.342 179.026C490.608 179.04 490.904 179.059 491.231 179.082C492.057 179.133 492.682 179.341 493.107 179.705C493.532 180.064 493.744 180.531 493.744 181.105C493.744 181.772 493.436 182.321 492.82 182.75C492.204 183.179 491.271 183.394 490.02 183.394ZM490.307 182.393C490.918 182.393 491.371 182.309 491.665 182.141C491.959 181.973 492.106 181.726 492.106 181.399C492.106 181.147 492.006 180.942 491.805 180.783C491.604 180.624 491.306 180.531 490.909 180.503L489.082 180.391C488.881 180.377 488.69 180.414 488.508 180.503C488.331 180.587 488.186 180.706 488.074 180.86C487.962 181.009 487.906 181.175 487.906 181.357C487.906 181.698 488.1 181.954 488.487 182.127C488.879 182.304 489.486 182.393 490.307 182.393ZM489.999 177.269C490.442 177.269 490.802 177.157 491.077 176.933C491.352 176.704 491.49 176.382 491.49 175.967C491.49 175.538 491.352 175.204 491.077 174.966C490.802 174.723 490.442 174.602 489.999 174.602C489.546 174.602 489.18 174.723 488.9 174.966C488.625 175.209 488.487 175.542 488.487 175.967C488.487 176.368 488.62 176.686 488.886 176.919C489.152 177.152 489.523 177.269 489.999 177.269ZM498.558 181.14C497.862 181.14 497.249 180.993 496.717 180.699C496.189 180.4 495.776 179.976 495.478 179.425C495.184 178.874 495.037 178.219 495.037 177.458C495.037 176.716 495.17 176.058 495.436 175.484C495.706 174.905 496.096 174.45 496.605 174.119C497.118 173.788 497.736 173.622 498.46 173.622C499.174 173.622 499.773 173.774 500.259 174.077C500.744 174.38 501.113 174.805 501.365 175.351C501.617 175.892 501.743 176.527 501.743 177.255V177.773H496.738C496.733 178.184 496.798 178.548 496.934 178.865C497.069 179.182 497.27 179.432 497.536 179.614C497.802 179.791 498.131 179.88 498.523 179.88C498.924 179.88 499.272 179.791 499.566 179.614C499.864 179.432 500.063 179.157 500.161 178.788H501.715C501.631 179.292 501.43 179.719 501.113 180.069C500.8 180.419 500.417 180.685 499.965 180.867C499.517 181.049 499.048 181.14 498.558 181.14ZM496.731 176.716H500.133C500.133 176.366 500.07 176.051 499.944 175.771C499.822 175.486 499.638 175.262 499.391 175.099C499.143 174.931 498.831 174.847 498.453 174.847C498.079 174.847 497.764 174.938 497.508 175.12C497.251 175.302 497.057 175.538 496.927 175.827C496.796 176.112 496.731 176.408 496.731 176.716ZM503.132 175.932V173.986H505.057V175.932H503.132ZM503.132 180.958V179.026H505.057V180.958H503.132ZM509.916 181V180.09V179.621C509.916 179.103 510.012 178.657 510.203 178.284C510.394 177.906 510.649 177.577 510.966 177.297C511.283 177.017 511.631 176.77 512.009 176.555C512.392 176.336 512.77 176.13 513.143 175.939C513.521 175.743 513.869 175.542 514.186 175.337C514.503 175.127 514.758 174.894 514.949 174.637C515.145 174.38 515.243 174.075 515.243 173.72C515.243 173.267 515.082 172.899 514.76 172.614C514.443 172.325 514.011 172.18 513.465 172.18C512.886 172.18 512.408 172.346 512.03 172.677C511.657 173.008 511.435 173.475 511.365 174.077H509.713C509.722 173.461 509.869 172.901 510.154 172.397C510.439 171.893 510.861 171.492 511.421 171.193C511.981 170.89 512.679 170.738 513.514 170.738C514.237 170.738 514.86 170.864 515.383 171.116C515.91 171.363 516.316 171.711 516.601 172.159C516.89 172.602 517.035 173.12 517.035 173.713C517.035 174.231 516.939 174.674 516.748 175.043C516.561 175.412 516.312 175.731 515.999 176.002C515.691 176.268 515.35 176.504 514.977 176.709C514.608 176.914 514.237 177.108 513.864 177.29C513.495 177.467 513.155 177.654 512.842 177.85C512.534 178.041 512.284 178.261 512.093 178.508C511.906 178.755 511.813 179.052 511.813 179.397V179.544H517.056V181H509.916ZM520.229 181V173.202H518.353V172.187C518.946 172.187 519.415 172.138 519.76 172.04C520.11 171.937 520.365 171.788 520.523 171.592C520.687 171.396 520.78 171.158 520.803 170.878H521.965V181H520.229Z" fill="black" style="fill:black;fill-opacity:1;"/>
<path d="M456 64C456 28.6538 484.654 0 520 0C555.346 0 584 28.6538 584 64C584 99.3462 555.346 128 520 128C484.654 128 456 99.3462 456 64Z" fill="#F16767" style="fill:#F16767;fill:color(display-p3 0.9451 0.4039 0.4039);fill-opacity:1;"/>
<path d="M498.724 69V58.878H502.147C502.87 58.878 503.514 58.9993 504.079 59.242C504.643 59.4847 505.087 59.844 505.409 60.32C505.735 60.796 505.899 61.3817 505.899 62.077C505.899 62.749 505.747 63.323 505.444 63.799C505.145 64.275 504.727 64.6367 504.191 64.884C503.654 65.1313 503.031 65.255 502.322 65.255H500.054V69H498.724ZM500.047 64.163H502.294C502.989 64.163 503.554 63.9693 503.988 63.582C504.422 63.1947 504.639 62.6673 504.639 62C504.639 61.328 504.415 60.8193 503.967 60.474C503.519 60.1287 502.94 59.956 502.231 59.956H500.047V64.163ZM510.308 69.14C509.636 69.14 509.043 68.993 508.53 68.699C508.016 68.405 507.615 67.9827 507.326 67.432C507.036 66.8813 506.892 66.221 506.892 65.451C506.892 64.6903 507.022 64.023 507.284 63.449C507.545 62.875 507.923 62.427 508.418 62.105C508.917 61.783 509.517 61.622 510.217 61.622C510.898 61.622 511.474 61.769 511.946 62.063C512.417 62.357 512.774 62.7723 513.017 63.309C513.264 63.841 513.388 64.4733 513.388 65.206V65.682H508.201C508.201 66.1393 508.275 66.5547 508.425 66.928C508.579 67.2967 508.81 67.5907 509.118 67.81C509.426 68.0293 509.815 68.139 510.287 68.139C510.749 68.139 511.145 68.0317 511.477 67.817C511.813 67.6023 512.027 67.292 512.121 66.886H513.339C513.255 67.376 513.059 67.789 512.751 68.125C512.447 68.461 512.081 68.7153 511.652 68.888C511.227 69.056 510.779 69.14 510.308 69.14ZM508.208 64.807H512.142C512.142 64.3917 512.072 64.0183 511.932 63.687C511.792 63.351 511.577 63.0873 511.288 62.896C511.003 62.7 510.644 62.602 510.21 62.602C509.757 62.602 509.381 62.7117 509.083 62.931C508.784 63.1457 508.562 63.4233 508.418 63.764C508.273 64.1 508.203 64.4477 508.208 64.807ZM515.178 69V61.762H516.41V63.155C516.532 62.8097 516.702 62.525 516.921 62.301C517.141 62.0723 517.39 61.902 517.67 61.79C517.955 61.678 518.249 61.622 518.552 61.622C518.66 61.622 518.765 61.629 518.867 61.643C518.97 61.657 519.049 61.6803 519.105 61.713V62.966C519.035 62.9333 518.944 62.9123 518.832 62.903C518.725 62.889 518.634 62.882 518.559 62.882C518.27 62.8633 517.999 62.882 517.747 62.938C517.495 62.9893 517.274 63.0803 517.082 63.211C516.891 63.3417 516.739 63.5143 516.627 63.729C516.52 63.939 516.466 64.1957 516.466 64.499V69H515.178ZM523.21 69.14C522.706 69.14 522.237 69.063 521.803 68.909C521.374 68.7503 521.017 68.5053 520.732 68.174C520.447 67.838 520.27 67.411 520.2 66.893H521.376C521.437 67.1777 521.553 67.4157 521.726 67.607C521.899 67.7937 522.111 67.936 522.363 68.034C522.62 68.1273 522.9 68.174 523.203 68.174C523.693 68.174 524.087 68.083 524.386 67.901C524.685 67.719 524.834 67.439 524.834 67.061C524.834 66.795 524.755 66.5827 524.596 66.424C524.442 66.2607 524.199 66.1417 523.868 66.067L522.37 65.696C521.787 65.556 521.32 65.3367 520.97 65.038C520.625 64.7393 520.45 64.3217 520.445 63.785C520.445 63.3603 520.548 62.987 520.753 62.665C520.958 62.343 521.264 62.0887 521.67 61.902C522.081 61.7153 522.592 61.622 523.203 61.622C523.992 61.622 524.626 61.7993 525.107 62.154C525.588 62.504 525.84 63.0197 525.863 63.701H524.715C524.668 63.3557 524.514 63.0827 524.253 62.882C523.992 62.6767 523.637 62.574 523.189 62.574C522.732 62.574 522.356 62.6673 522.062 62.854C521.773 63.036 521.628 63.3207 521.628 63.708C521.628 63.9647 521.731 64.1677 521.936 64.317C522.146 64.4617 522.449 64.583 522.846 64.681L524.302 65.045C524.633 65.1337 524.909 65.2503 525.128 65.395C525.347 65.5397 525.52 65.7007 525.646 65.878C525.772 66.0553 525.861 66.242 525.912 66.438C525.968 66.6293 525.996 66.8137 525.996 66.991C525.996 67.4343 525.886 67.817 525.667 68.139C525.448 68.4563 525.13 68.7037 524.715 68.881C524.3 69.0537 523.798 69.14 523.21 69.14ZM530.586 69.14C529.919 69.14 529.336 68.9977 528.836 68.713C528.342 68.4237 527.957 68.0013 527.681 67.446C527.406 66.8907 527.268 66.2117 527.268 65.409C527.268 64.653 527.397 63.9903 527.653 63.421C527.91 62.8517 528.286 62.4107 528.78 62.098C529.275 61.7807 529.879 61.622 530.593 61.622C531.261 61.622 531.839 61.769 532.329 62.063C532.819 62.3523 533.2 62.7793 533.47 63.344C533.746 63.9087 533.883 64.597 533.883 65.409C533.883 66.1463 533.757 66.795 533.505 67.355C533.253 67.915 532.882 68.3537 532.392 68.671C531.907 68.9837 531.305 69.14 530.586 69.14ZM530.593 68.118C531.023 68.118 531.387 68.0083 531.685 67.789C531.984 67.5697 532.21 67.2547 532.364 66.844C532.523 66.4333 532.602 65.9457 532.602 65.381C532.602 64.863 532.532 64.3987 532.392 63.988C532.257 63.5727 532.042 63.2437 531.748 63.001C531.454 62.7583 531.069 62.637 530.593 62.637C530.155 62.637 529.784 62.7467 529.48 62.966C529.177 63.1807 528.946 63.4933 528.787 63.904C528.633 64.3147 528.556 64.807 528.556 65.381C528.556 65.8897 528.624 66.3517 528.759 66.767C528.899 67.1823 529.119 67.5113 529.417 67.754C529.721 67.9967 530.113 68.118 530.593 68.118ZM535.604 69V61.762H536.857V62.812C536.974 62.6113 537.135 62.4223 537.34 62.245C537.55 62.0677 537.802 61.9253 538.096 61.818C538.395 61.7107 538.738 61.657 539.125 61.657C539.583 61.657 540.003 61.748 540.385 61.93C540.773 62.112 541.081 62.3967 541.309 62.784C541.543 63.1667 541.659 63.6613 541.659 64.268V69H540.364V64.394C540.364 63.8293 540.215 63.4117 539.916 63.141C539.622 62.8657 539.24 62.728 538.768 62.728C538.442 62.728 538.136 62.7817 537.851 62.889C537.567 62.9917 537.336 63.1503 537.158 63.365C536.981 63.575 536.892 63.841 536.892 64.163V69H535.604Z" fill="white" style="fill:white;fill-opacity:1;"/>
</svg>
