<svg width="566" height="212" viewBox="0 0 566 212" fill="none" xmlns="http://www.w3.org/2000/svg">
<path d="M0 148C0 112.654 28.6538 84 64 84C99.3462 84 128 112.654 128 148C128 183.346 99.3462 212 64 212C28.6538 212 0 183.346 0 148Z" fill="#F16767" style="fill:#F16767;fill:color(display-p3 0.9451 0.4039 0.4039);fill-opacity:1;"/>
<path d="M42.7237 153V142.878H46.1467C46.8701 142.878 47.5141 142.999 48.0787 143.242C48.6434 143.485 49.0867 143.844 49.4087 144.32C49.7354 144.796 49.8987 145.382 49.8987 146.077C49.8987 146.749 49.7471 147.323 49.4437 147.799C49.1451 148.275 48.7274 148.637 48.1907 148.884C47.6541 149.131 47.0311 149.255 46.3217 149.255H44.0537V153H42.7237ZM44.0467 148.163H46.2937C46.9891 148.163 47.5537 147.969 47.9877 147.582C48.4217 147.195 48.6387 146.667 48.6387 146C48.6387 145.328 48.4147 144.819 47.9667 144.474C47.5187 144.129 46.9401 143.956 46.2307 143.956H44.0467V148.163ZM54.3077 153.14C53.6357 153.14 53.0431 152.993 52.5297 152.699C52.0164 152.405 51.6151 151.983 51.3257 151.432C51.0364 150.881 50.8917 150.221 50.8917 149.451C50.8917 148.69 51.0224 148.023 51.2837 147.449C51.5451 146.875 51.9231 146.427 52.4177 146.105C52.9171 145.783 53.5167 145.622 54.2167 145.622C54.8981 145.622 55.4744 145.769 55.9457 146.063C56.4171 146.357 56.7741 146.772 57.0167 147.309C57.2641 147.841 57.3877 148.473 57.3877 149.206V149.682H52.2007C52.2007 150.139 52.2754 150.555 52.4247 150.928C52.5787 151.297 52.8097 151.591 53.1177 151.81C53.4257 152.029 53.8154 152.139 54.2867 152.139C54.7487 152.139 55.1454 152.032 55.4767 151.817C55.8127 151.602 56.0274 151.292 56.1207 150.886H57.3387C57.2547 151.376 57.0587 151.789 56.7507 152.125C56.4474 152.461 56.0811 152.715 55.6517 152.888C55.2271 153.056 54.7791 153.14 54.3077 153.14ZM52.2077 148.807H56.1417C56.1417 148.392 56.0717 148.018 55.9317 147.687C55.7917 147.351 55.5771 147.087 55.2877 146.896C55.0031 146.7 54.6437 146.602 54.2097 146.602C53.7571 146.602 53.3814 146.712 53.0827 146.931C52.7841 147.146 52.5624 147.423 52.4177 147.764C52.2731 148.1 52.2031 148.448 52.2077 148.807ZM59.1784 153V145.762H60.4104V147.155C60.5318 146.81 60.7021 146.525 60.9214 146.301C61.1408 146.072 61.3904 145.902 61.6704 145.79C61.9551 145.678 62.2491 145.622 62.5524 145.622C62.6598 145.622 62.7648 145.629 62.8674 145.643C62.9701 145.657 63.0494 145.68 63.1054 145.713V146.966C63.0354 146.933 62.9444 146.912 62.8324 146.903C62.7251 146.889 62.6341 146.882 62.5594 146.882C62.2701 146.863 61.9994 146.882 61.7474 146.938C61.4954 146.989 61.2738 147.08 61.0824 147.211C60.8911 147.342 60.7394 147.514 60.6274 147.729C60.5201 147.939 60.4664 148.196 60.4664 148.499V153H59.1784ZM67.2102 153.14C66.7062 153.14 66.2372 153.063 65.8032 152.909C65.3738 152.75 65.0168 152.505 64.7322 152.174C64.4475 151.838 64.2702 151.411 64.2002 150.893H65.3762C65.4368 151.178 65.5535 151.416 65.7262 151.607C65.8988 151.794 66.1112 151.936 66.3632 152.034C66.6198 152.127 66.8998 152.174 67.2032 152.174C67.6932 152.174 68.0875 152.083 68.3862 151.901C68.6848 151.719 68.8342 151.439 68.8342 151.061C68.8342 150.795 68.7548 150.583 68.5962 150.424C68.4422 150.261 68.1995 150.142 67.8682 150.067L66.3702 149.696C65.7868 149.556 65.3202 149.337 64.9702 149.038C64.6248 148.739 64.4498 148.322 64.4452 147.785C64.4452 147.36 64.5478 146.987 64.7532 146.665C64.9585 146.343 65.2642 146.089 65.6702 145.902C66.0808 145.715 66.5918 145.622 67.2032 145.622C67.9918 145.622 68.6265 145.799 69.1072 146.154C69.5878 146.504 69.8398 147.02 69.8632 147.701H68.7152C68.6685 147.356 68.5145 147.083 68.2532 146.882C67.9918 146.677 67.6372 146.574 67.1892 146.574C66.7318 146.574 66.3562 146.667 66.0622 146.854C65.7728 147.036 65.6282 147.321 65.6282 147.708C65.6282 147.965 65.7308 148.168 65.9362 148.317C66.1462 148.462 66.4495 148.583 66.8462 148.681L68.3022 149.045C68.6335 149.134 68.9088 149.25 69.1282 149.395C69.3475 149.54 69.5202 149.701 69.6462 149.878C69.7722 150.055 69.8608 150.242 69.9122 150.438C69.9682 150.629 69.9962 150.814 69.9962 150.991C69.9962 151.434 69.8865 151.817 69.6672 152.139C69.4478 152.456 69.1305 152.704 68.7152 152.881C68.2998 153.054 67.7982 153.14 67.2102 153.14ZM74.5862 153.14C73.9189 153.14 73.3355 152.998 72.8362 152.713C72.3415 152.424 71.9565 152.001 71.6812 151.446C71.4059 150.891 71.2682 150.212 71.2682 149.409C71.2682 148.653 71.3965 147.99 71.6532 147.421C71.9099 146.852 72.2855 146.411 72.7802 146.098C73.2749 145.781 73.8792 145.622 74.5932 145.622C75.2605 145.622 75.8392 145.769 76.3292 146.063C76.8192 146.352 77.1995 146.779 77.4702 147.344C77.7455 147.909 77.8832 148.597 77.8832 149.409C77.8832 150.146 77.7572 150.795 77.5052 151.355C77.2532 151.915 76.8822 152.354 76.3922 152.671C75.9069 152.984 75.3049 153.14 74.5862 153.14ZM74.5932 152.118C75.0225 152.118 75.3865 152.008 75.6852 151.789C75.9839 151.57 76.2102 151.255 76.3642 150.844C76.5229 150.433 76.6022 149.946 76.6022 149.381C76.6022 148.863 76.5322 148.399 76.3922 147.988C76.2569 147.573 76.0422 147.244 75.7482 147.001C75.4542 146.758 75.0692 146.637 74.5932 146.637C74.1545 146.637 73.7835 146.747 73.4802 146.966C73.1769 147.181 72.9459 147.493 72.7872 147.904C72.6332 148.315 72.5562 148.807 72.5562 149.381C72.5562 149.89 72.6239 150.352 72.7592 150.767C72.8992 151.182 73.1185 151.511 73.4172 151.754C73.7205 151.997 74.1125 152.118 74.5932 152.118ZM79.6042 153V145.762H80.8572V146.812C80.9739 146.611 81.1349 146.422 81.3402 146.245C81.5502 146.068 81.8022 145.925 82.0962 145.818C82.3949 145.711 82.7379 145.657 83.1252 145.657C83.5825 145.657 84.0025 145.748 84.3852 145.93C84.7725 146.112 85.0805 146.397 85.3092 146.784C85.5425 147.167 85.6592 147.661 85.6592 148.268V153H84.3642V148.394C84.3642 147.829 84.2149 147.412 83.9162 147.141C83.6222 146.866 83.2395 146.728 82.7682 146.728C82.4415 146.728 82.1359 146.782 81.8512 146.889C81.5665 146.992 81.3355 147.15 81.1582 147.365C80.9809 147.575 80.8922 147.841 80.8922 148.163V153H79.6042Z" fill="white" style="fill:white;fill-opacity:1;"/>
<path d="M383 148C383 112.654 411.654 84 447 84C482.346 84 511 112.654 511 148C511 183.346 482.346 212 447 212C411.654 212 383 183.346 383 148Z" fill="#F16767" style="fill:#F16767;fill:color(display-p3 0.9451 0.4039 0.4039);fill-opacity:1;"/>
<path d="M425.724 153V142.878H429.147C429.87 142.878 430.514 142.999 431.079 143.242C431.643 143.485 432.087 143.844 432.409 144.32C432.735 144.796 432.899 145.382 432.899 146.077C432.899 146.749 432.747 147.323 432.444 147.799C432.145 148.275 431.727 148.637 431.191 148.884C430.654 149.131 430.031 149.255 429.322 149.255H427.054V153H425.724ZM427.047 148.163H429.294C429.989 148.163 430.554 147.969 430.988 147.582C431.422 147.195 431.639 146.667 431.639 146C431.639 145.328 431.415 144.819 430.967 144.474C430.519 144.129 429.94 143.956 429.231 143.956H427.047V148.163ZM437.308 153.14C436.636 153.14 436.043 152.993 435.53 152.699C435.016 152.405 434.615 151.983 434.326 151.432C434.036 150.881 433.892 150.221 433.892 149.451C433.892 148.69 434.022 148.023 434.284 147.449C434.545 146.875 434.923 146.427 435.418 146.105C435.917 145.783 436.517 145.622 437.217 145.622C437.898 145.622 438.474 145.769 438.946 146.063C439.417 146.357 439.774 146.772 440.017 147.309C440.264 147.841 440.388 148.473 440.388 149.206V149.682H435.201C435.201 150.139 435.275 150.555 435.425 150.928C435.579 151.297 435.81 151.591 436.118 151.81C436.426 152.029 436.815 152.139 437.287 152.139C437.749 152.139 438.145 152.032 438.477 151.817C438.813 151.602 439.027 151.292 439.121 150.886H440.339C440.255 151.376 440.059 151.789 439.751 152.125C439.447 152.461 439.081 152.715 438.652 152.888C438.227 153.056 437.779 153.14 437.308 153.14ZM435.208 148.807H439.142C439.142 148.392 439.072 148.018 438.932 147.687C438.792 147.351 438.577 147.087 438.288 146.896C438.003 146.7 437.644 146.602 437.21 146.602C436.757 146.602 436.381 146.712 436.083 146.931C435.784 147.146 435.562 147.423 435.418 147.764C435.273 148.1 435.203 148.448 435.208 148.807ZM442.178 153V145.762H443.41V147.155C443.532 146.81 443.702 146.525 443.921 146.301C444.141 146.072 444.39 145.902 444.67 145.79C444.955 145.678 445.249 145.622 445.552 145.622C445.66 145.622 445.765 145.629 445.867 145.643C445.97 145.657 446.049 145.68 446.105 145.713V146.966C446.035 146.933 445.944 146.912 445.832 146.903C445.725 146.889 445.634 146.882 445.559 146.882C445.27 146.863 444.999 146.882 444.747 146.938C444.495 146.989 444.274 147.08 444.082 147.211C443.891 147.342 443.739 147.514 443.627 147.729C443.52 147.939 443.466 148.196 443.466 148.499V153H442.178ZM450.21 153.14C449.706 153.14 449.237 153.063 448.803 152.909C448.374 152.75 448.017 152.505 447.732 152.174C447.447 151.838 447.27 151.411 447.2 150.893H448.376C448.437 151.178 448.553 151.416 448.726 151.607C448.899 151.794 449.111 151.936 449.363 152.034C449.62 152.127 449.9 152.174 450.203 152.174C450.693 152.174 451.087 152.083 451.386 151.901C451.685 151.719 451.834 151.439 451.834 151.061C451.834 150.795 451.755 150.583 451.596 150.424C451.442 150.261 451.199 150.142 450.868 150.067L449.37 149.696C448.787 149.556 448.32 149.337 447.97 149.038C447.625 148.739 447.45 148.322 447.445 147.785C447.445 147.36 447.548 146.987 447.753 146.665C447.958 146.343 448.264 146.089 448.67 145.902C449.081 145.715 449.592 145.622 450.203 145.622C450.992 145.622 451.626 145.799 452.107 146.154C452.588 146.504 452.84 147.02 452.863 147.701H451.715C451.668 147.356 451.514 147.083 451.253 146.882C450.992 146.677 450.637 146.574 450.189 146.574C449.732 146.574 449.356 146.667 449.062 146.854C448.773 147.036 448.628 147.321 448.628 147.708C448.628 147.965 448.731 148.168 448.936 148.317C449.146 148.462 449.449 148.583 449.846 148.681L451.302 149.045C451.633 149.134 451.909 149.25 452.128 149.395C452.347 149.54 452.52 149.701 452.646 149.878C452.772 150.055 452.861 150.242 452.912 150.438C452.968 150.629 452.996 150.814 452.996 150.991C452.996 151.434 452.886 151.817 452.667 152.139C452.448 152.456 452.13 152.704 451.715 152.881C451.3 153.054 450.798 153.14 450.21 153.14ZM457.586 153.14C456.919 153.14 456.336 152.998 455.836 152.713C455.342 152.424 454.957 152.001 454.681 151.446C454.406 150.891 454.268 150.212 454.268 149.409C454.268 148.653 454.397 147.99 454.653 147.421C454.91 146.852 455.286 146.411 455.78 146.098C456.275 145.781 456.879 145.622 457.593 145.622C458.261 145.622 458.839 145.769 459.329 146.063C459.819 146.352 460.2 146.779 460.47 147.344C460.746 147.909 460.883 148.597 460.883 149.409C460.883 150.146 460.757 150.795 460.505 151.355C460.253 151.915 459.882 152.354 459.392 152.671C458.907 152.984 458.305 153.14 457.586 153.14ZM457.593 152.118C458.023 152.118 458.387 152.008 458.685 151.789C458.984 151.57 459.21 151.255 459.364 150.844C459.523 150.433 459.602 149.946 459.602 149.381C459.602 148.863 459.532 148.399 459.392 147.988C459.257 147.573 459.042 147.244 458.748 147.001C458.454 146.758 458.069 146.637 457.593 146.637C457.155 146.637 456.784 146.747 456.48 146.966C456.177 147.181 455.946 147.493 455.787 147.904C455.633 148.315 455.556 148.807 455.556 149.381C455.556 149.89 455.624 150.352 455.759 150.767C455.899 151.182 456.119 151.511 456.417 151.754C456.721 151.997 457.113 152.118 457.593 152.118ZM462.604 153V145.762H463.857V146.812C463.974 146.611 464.135 146.422 464.34 146.245C464.55 146.068 464.802 145.925 465.096 145.818C465.395 145.711 465.738 145.657 466.125 145.657C466.583 145.657 467.003 145.748 467.385 145.93C467.773 146.112 468.081 146.397 468.309 146.784C468.543 147.167 468.659 147.661 468.659 148.268V153H467.364V148.394C467.364 147.829 467.215 147.412 466.916 147.141C466.622 146.866 466.24 146.728 465.768 146.728C465.442 146.728 465.136 146.782 464.851 146.889C464.567 146.992 464.336 147.15 464.158 147.365C463.981 147.575 463.892 147.841 463.892 148.163V153H462.604Z" fill="white" style="fill:white;fill-opacity:1;"/>
<path d="M14.966 17V9.762H16.632V10.798C16.744 10.6113 16.8957 10.4317 17.087 10.259C17.283 10.0863 17.5233 9.94633 17.808 9.839C18.0927 9.73167 18.4263 9.678 18.809 9.678C19.257 9.678 19.6723 9.76667 20.055 9.944C20.4423 10.1213 20.7527 10.399 20.986 10.777C21.224 11.155 21.343 11.6427 21.343 12.24V17H19.635V12.443C19.635 11.967 19.5043 11.6147 19.243 11.386C18.9817 11.1527 18.6527 11.036 18.256 11.036C17.9853 11.036 17.7287 11.0827 17.486 11.176C17.2433 11.2647 17.045 11.4023 16.891 11.589C16.7417 11.771 16.667 11.9997 16.667 12.275V17H14.966ZM25.2211 17.14C24.7591 17.14 24.3438 17.056 23.9751 16.888C23.6111 16.7153 23.3241 16.4703 23.1141 16.153C22.9088 15.831 22.8061 15.4413 22.8061 14.984C22.8061 14.186 23.0931 13.584 23.6671 13.178C24.2458 12.772 25.1651 12.5597 26.4251 12.541L27.5101 12.513V12.023C27.5101 11.6403 27.3958 11.3417 27.1671 11.127C26.9431 10.9077 26.5931 10.8003 26.1171 10.805C25.7624 10.8097 25.4404 10.8937 25.1511 11.057C24.8618 11.2157 24.6704 11.484 24.5771 11.862H23.1281C23.1561 11.3673 23.2984 10.9543 23.5551 10.623C23.8164 10.287 24.1734 10.0373 24.6261 9.874C25.0788 9.706 25.6014 9.622 26.1941 9.622C26.8848 9.622 27.4471 9.713 27.8811 9.895C28.3151 10.077 28.6348 10.3407 28.8401 10.686C29.0454 11.0267 29.1481 11.4397 29.1481 11.925V17H27.7131L27.5731 15.698C27.3164 16.244 26.9874 16.622 26.5861 16.832C26.1894 17.0373 25.7344 17.14 25.2211 17.14ZM25.7741 15.985C25.9841 15.985 26.1918 15.9477 26.3971 15.873C26.6024 15.7937 26.7868 15.6887 26.9501 15.558C27.1181 15.4227 27.2511 15.2733 27.3491 15.11C27.4518 14.9467 27.5054 14.7763 27.5101 14.599V13.458L26.6211 13.472C26.1824 13.4767 25.7974 13.5233 25.4661 13.612C25.1394 13.7007 24.8851 13.843 24.7031 14.039C24.5211 14.2303 24.4301 14.487 24.4301 14.809C24.4301 15.1777 24.5584 15.467 24.8151 15.677C25.0718 15.8823 25.3914 15.985 25.7741 15.985ZM30.9621 17V9.762H32.6211V10.798C32.8311 10.4807 33.1158 10.2053 33.4751 9.972C33.8391 9.73867 34.3011 9.622 34.8611 9.622C35.1178 9.622 35.3768 9.66633 35.6381 9.755C35.9041 9.84367 36.1491 9.97433 36.3731 10.147C36.6018 10.3197 36.7838 10.5343 36.9191 10.791C37.1478 10.4503 37.4511 10.1703 37.8291 9.951C38.2118 9.73167 38.6411 9.622 39.1171 9.622C39.3784 9.622 39.6468 9.664 39.9221 9.748C40.2021 9.832 40.4588 9.972 40.6921 10.168C40.9254 10.364 41.1144 10.6323 41.2591 10.973C41.4038 11.309 41.4761 11.7313 41.4761 12.24V17H39.7751V12.443C39.7751 12.0837 39.7121 11.8013 39.5861 11.596C39.4601 11.3907 39.2968 11.246 39.0961 11.162C38.9001 11.0733 38.6901 11.029 38.4661 11.029C38.2654 11.029 38.0554 11.0687 37.8361 11.148C37.6214 11.2273 37.4371 11.358 37.2831 11.54C37.1338 11.722 37.0591 11.967 37.0591 12.275V17H35.3581V12.17C35.3581 11.918 35.2928 11.708 35.1621 11.54C35.0314 11.372 34.8658 11.246 34.6651 11.162C34.4691 11.0733 34.2684 11.029 34.0631 11.029C33.8531 11.029 33.6384 11.0733 33.4191 11.162C33.2044 11.2507 33.0248 11.386 32.8801 11.568C32.7354 11.75 32.6631 11.9857 32.6631 12.275V17H30.9621ZM46.5068 17.14C45.8115 17.14 45.1978 16.993 44.6658 16.699C44.1385 16.4003 43.7255 15.9757 43.4268 15.425C43.1328 14.8743 42.9858 14.2187 42.9858 13.458C42.9858 12.716 43.1188 12.058 43.3848 11.484C43.6555 10.9053 44.0451 10.4503 44.5538 10.119C45.0671 9.78767 45.6855 9.622 46.4088 9.622C47.1228 9.622 47.7225 9.77367 48.2078 10.077C48.6931 10.3803 49.0618 10.805 49.3138 11.351C49.5658 11.8923 49.6918 12.527 49.6918 13.255V13.773H44.6868C44.6821 14.1837 44.7475 14.5477 44.8828 14.865C45.0181 15.1823 45.2188 15.432 45.4848 15.614C45.7508 15.7913 46.0798 15.88 46.4718 15.88C46.8731 15.88 47.2208 15.7913 47.5148 15.614C47.8135 15.432 48.0118 15.1567 48.1098 14.788H49.6638C49.5798 15.292 49.3791 15.719 49.0618 16.069C48.7491 16.419 48.3665 16.685 47.9138 16.867C47.4658 17.049 46.9968 17.14 46.5068 17.14ZM44.6798 12.716H48.0818C48.0818 12.366 48.0188 12.051 47.8928 11.771C47.7715 11.4863 47.5871 11.2623 47.3398 11.099C47.0925 10.931 46.7798 10.847 46.4018 10.847C46.0285 10.847 45.7135 10.938 45.4568 11.12C45.2001 11.302 45.0065 11.5377 44.8758 11.827C44.7451 12.1117 44.6798 12.408 44.6798 12.716ZM51.0815 11.932V9.986H53.0065V11.932H51.0815ZM51.0815 16.958V15.026H53.0065V16.958H51.0815ZM58.3691 10.497L57.9001 6.878H59.7551L59.2651 10.497H58.3691ZM61.8324 17V6.878H63.6034V11.785L67.6774 6.878H69.6584L66.4454 10.826L69.9944 17H68.1114L65.2204 12.065L63.6034 13.962V17H61.8324ZM74.165 17.14C73.4697 17.14 72.856 16.993 72.324 16.699C71.7967 16.4003 71.3837 15.9757 71.085 15.425C70.791 14.8743 70.644 14.2187 70.644 13.458C70.644 12.716 70.777 12.058 71.043 11.484C71.3137 10.9053 71.7033 10.4503 72.212 10.119C72.7253 9.78767 73.3437 9.622 74.067 9.622C74.781 9.622 75.3807 9.77367 75.866 10.077C76.3513 10.3803 76.72 10.805 76.972 11.351C77.224 11.8923 77.35 12.527 77.35 13.255V13.773H72.345C72.3403 14.1837 72.4057 14.5477 72.541 14.865C72.6763 15.1823 72.877 15.432 73.143 15.614C73.409 15.7913 73.738 15.88 74.13 15.88C74.5313 15.88 74.879 15.7913 75.173 15.614C75.4717 15.432 75.67 15.1567 75.768 14.788H77.322C77.238 15.292 77.0373 15.719 76.72 16.069C76.4073 16.419 76.0247 16.685 75.572 16.867C75.124 17.049 74.655 17.14 74.165 17.14ZM72.338 12.716H75.74C75.74 12.366 75.677 12.051 75.551 11.771C75.4297 11.4863 75.2453 11.2623 74.998 11.099C74.7507 10.931 74.438 10.847 74.06 10.847C73.6867 10.847 73.3717 10.938 73.115 11.12C72.8583 11.302 72.6647 11.5377 72.534 11.827C72.4033 12.1117 72.338 12.408 72.338 12.716ZM81.0024 17.14C80.5404 17.14 80.125 17.056 79.7564 16.888C79.3924 16.7153 79.1054 16.4703 78.8954 16.153C78.69 15.831 78.5874 15.4413 78.5874 14.984C78.5874 14.186 78.8744 13.584 79.4484 13.178C80.027 12.772 80.9464 12.5597 82.2064 12.541L83.2914 12.513V12.023C83.2914 11.6403 83.177 11.3417 82.9484 11.127C82.7244 10.9077 82.3744 10.8003 81.8984 10.805C81.5437 10.8097 81.2217 10.8937 80.9324 11.057C80.643 11.2157 80.4517 11.484 80.3584 11.862H78.9094C78.9374 11.3673 79.0797 10.9543 79.3364 10.623C79.5977 10.287 79.9547 10.0373 80.4074 9.874C80.86 9.706 81.3827 9.622 81.9754 9.622C82.666 9.622 83.2284 9.713 83.6624 9.895C84.0964 10.077 84.416 10.3407 84.6214 10.686C84.8267 11.0267 84.9294 11.4397 84.9294 11.925V17H83.4944L83.3544 15.698C83.0977 16.244 82.7687 16.622 82.3674 16.832C81.9707 17.0373 81.5157 17.14 81.0024 17.14ZM81.5554 15.985C81.7654 15.985 81.973 15.9477 82.1784 15.873C82.3837 15.7937 82.568 15.6887 82.7314 15.558C82.8994 15.4227 83.0324 15.2733 83.1304 15.11C83.233 14.9467 83.2867 14.7763 83.2914 14.599V13.458L82.4024 13.472C81.9637 13.4767 81.5787 13.5233 81.2474 13.612C80.9207 13.7007 80.6664 13.843 80.4844 14.039C80.3024 14.2303 80.2114 14.487 80.2114 14.809C80.2114 15.1777 80.3397 15.467 80.5964 15.677C80.853 15.8823 81.1727 15.985 81.5554 15.985ZM86.7433 17V9.762H88.4093V10.798C88.5213 10.6113 88.673 10.4317 88.8643 10.259C89.0603 10.0863 89.3007 9.94633 89.5853 9.839C89.87 9.73167 90.2037 9.678 90.5863 9.678C91.0343 9.678 91.4497 9.76667 91.8323 9.944C92.2197 10.1213 92.53 10.399 92.7633 10.777C93.0013 11.155 93.1203 11.6427 93.1203 12.24V17H91.4123V12.443C91.4123 11.967 91.2817 11.6147 91.0203 11.386C90.759 11.1527 90.43 11.036 90.0333 11.036C89.7627 11.036 89.506 11.0827 89.2633 11.176C89.0207 11.2647 88.8223 11.4023 88.6683 11.589C88.519 11.771 88.4443 11.9997 88.4443 12.275V17H86.7433ZM97.6065 17.14C97.2518 17.14 96.9088 17.0887 96.5775 16.986C96.2508 16.8787 95.9568 16.7247 95.6955 16.524C95.4341 16.3187 95.2265 16.0667 95.0725 15.768C94.9185 15.4693 94.8415 15.1217 94.8415 14.725V9.762H96.5495V14.529C96.5495 14.921 96.6731 15.243 96.9205 15.495C97.1725 15.747 97.5505 15.873 98.0545 15.873C98.5118 15.873 98.8781 15.754 99.1535 15.516C99.4288 15.2733 99.5665 14.9257 99.5665 14.473V9.762H101.26V17H99.9515L99.7625 15.586C99.6738 15.9827 99.5175 16.2953 99.2935 16.524C99.0741 16.748 98.8151 16.9067 98.5165 17C98.2225 17.0933 97.9191 17.14 97.6065 17.14ZM106.717 17V6.878H110.826C111.601 6.878 112.238 6.99933 112.737 7.242C113.241 7.48 113.615 7.81833 113.857 8.257C114.1 8.691 114.221 9.19967 114.221 9.783C114.221 10.3243 114.133 10.7793 113.955 11.148C113.778 11.512 113.547 11.8107 113.262 12.044C112.982 12.2727 112.681 12.4593 112.359 12.604L114.291 17H112.513L110.77 12.891H108.418V17H106.717ZM108.418 11.54H110.441C111.085 11.54 111.587 11.3907 111.946 11.092C112.31 10.7933 112.492 10.378 112.492 9.846C112.492 9.32333 112.324 8.91967 111.988 8.635C111.652 8.35033 111.209 8.208 110.658 8.208H108.418V11.54ZM119.022 17.14C118.327 17.14 117.713 16.993 117.181 16.699C116.654 16.4003 116.241 15.9757 115.942 15.425C115.648 14.8743 115.501 14.2187 115.501 13.458C115.501 12.716 115.634 12.058 115.9 11.484C116.171 10.9053 116.561 10.4503 117.069 10.119C117.583 9.78767 118.201 9.622 118.924 9.622C119.638 9.622 120.238 9.77367 120.723 10.077C121.209 10.3803 121.577 10.805 121.829 11.351C122.081 11.8923 122.207 12.527 122.207 13.255V13.773H117.202C117.198 14.1837 117.263 14.5477 117.398 14.865C117.534 15.1823 117.734 15.432 118 15.614C118.266 15.7913 118.595 15.88 118.987 15.88C119.389 15.88 119.736 15.7913 120.03 15.614C120.329 15.432 120.527 15.1567 120.625 14.788H122.179C122.095 15.292 121.895 15.719 121.577 16.069C121.265 16.419 120.882 16.685 120.429 16.867C119.981 17.049 119.512 17.14 119.022 17.14ZM117.195 12.716H120.597C120.597 12.366 120.534 12.051 120.408 11.771C120.287 11.4863 120.103 11.2623 119.855 11.099C119.608 10.931 119.295 10.847 118.917 10.847C118.544 10.847 118.229 10.938 117.972 11.12C117.716 11.302 117.522 11.5377 117.391 11.827C117.261 12.1117 117.195 12.408 117.195 12.716ZM127.034 17.14C126.339 17.14 125.725 16.993 125.193 16.699C124.666 16.4003 124.253 15.9757 123.954 15.425C123.66 14.8743 123.513 14.2187 123.513 13.458C123.513 12.716 123.646 12.058 123.912 11.484C124.183 10.9053 124.572 10.4503 125.081 10.119C125.594 9.78767 126.213 9.622 126.936 9.622C127.65 9.622 128.25 9.77367 128.735 10.077C129.22 10.3803 129.589 10.805 129.841 11.351C130.093 11.8923 130.219 12.527 130.219 13.255V13.773H125.214C125.209 14.1837 125.275 14.5477 125.41 14.865C125.545 15.1823 125.746 15.432 126.012 15.614C126.278 15.7913 126.607 15.88 126.999 15.88C127.4 15.88 127.748 15.7913 128.042 15.614C128.341 15.432 128.539 15.1567 128.637 14.788H130.191C130.107 15.292 129.906 15.719 129.589 16.069C129.276 16.419 128.894 16.685 128.441 16.867C127.993 17.049 127.524 17.14 127.034 17.14ZM125.207 12.716H128.609C128.609 12.366 128.546 12.051 128.42 11.771C128.299 11.4863 128.114 11.2623 127.867 11.099C127.62 10.931 127.307 10.847 126.929 10.847C126.556 10.847 126.241 10.938 125.984 11.12C125.727 11.302 125.534 11.5377 125.403 11.827C125.272 12.1117 125.207 12.408 125.207 12.716ZM133.629 17L130.955 9.762H132.516L134.252 14.83H134.343L136.072 9.762H137.64L134.973 17H133.629ZM141.868 17.14C141.173 17.14 140.559 16.993 140.027 16.699C139.5 16.4003 139.087 15.9757 138.788 15.425C138.494 14.8743 138.347 14.2187 138.347 13.458C138.347 12.716 138.48 12.058 138.746 11.484C139.017 10.9053 139.406 10.4503 139.915 10.119C140.428 9.78767 141.047 9.622 141.77 9.622C142.484 9.622 143.084 9.77367 143.569 10.077C144.054 10.3803 144.423 10.805 144.675 11.351C144.927 11.8923 145.053 12.527 145.053 13.255V13.773H140.048C140.043 14.1837 140.109 14.5477 140.244 14.865C140.379 15.1823 140.58 15.432 140.846 15.614C141.112 15.7913 141.441 15.88 141.833 15.88C142.234 15.88 142.582 15.7913 142.876 15.614C143.175 15.432 143.373 15.1567 143.471 14.788H145.025C144.941 15.292 144.74 15.719 144.423 16.069C144.11 16.419 143.728 16.685 143.275 16.867C142.827 17.049 142.358 17.14 141.868 17.14ZM140.041 12.716H143.443C143.443 12.366 143.38 12.051 143.254 11.771C143.133 11.4863 142.948 11.2623 142.701 11.099C142.454 10.931 142.141 10.847 141.763 10.847C141.39 10.847 141.075 10.938 140.818 11.12C140.561 11.302 140.368 11.5377 140.237 11.827C140.106 12.1117 140.041 12.408 140.041 12.716ZM149.426 17.14C148.922 17.14 148.443 17.0607 147.991 16.902C147.543 16.7387 147.165 16.4843 146.857 16.139C146.553 15.7937 146.362 15.348 146.283 14.802H147.781C147.846 15.068 147.96 15.285 148.124 15.453C148.292 15.621 148.488 15.7447 148.712 15.824C148.94 15.8987 149.176 15.936 149.419 15.936C149.853 15.936 150.203 15.8613 150.469 15.712C150.735 15.5627 150.868 15.3317 150.868 15.019C150.868 14.7903 150.793 14.6083 150.644 14.473C150.499 14.3377 150.261 14.235 149.93 14.165L148.558 13.85C147.942 13.7147 147.449 13.4907 147.081 13.178C146.712 12.8653 146.525 12.4243 146.521 11.855C146.516 11.4257 146.623 11.043 146.843 10.707C147.062 10.371 147.389 10.1073 147.823 9.916C148.257 9.72 148.791 9.622 149.426 9.622C150.27 9.622 150.947 9.811 151.456 10.189C151.969 10.5623 152.233 11.0967 152.247 11.792H150.798C150.746 11.4793 150.599 11.2367 150.357 11.064C150.114 10.8867 149.799 10.798 149.412 10.798C149.01 10.798 148.681 10.875 148.425 11.029C148.168 11.183 148.04 11.4187 148.04 11.736C148.04 11.9553 148.135 12.128 148.327 12.254C148.523 12.38 148.819 12.4873 149.216 12.576L150.518 12.891C150.891 12.9843 151.197 13.1103 151.435 13.269C151.673 13.4277 151.857 13.6027 151.988 13.794C152.123 13.9807 152.216 14.1743 152.268 14.375C152.324 14.571 152.352 14.753 152.352 14.921C152.352 15.3877 152.23 15.7867 151.988 16.118C151.75 16.4447 151.411 16.6967 150.973 16.874C150.539 17.0513 150.023 17.14 149.426 17.14ZM154.195 10.497L153.726 6.878H155.581L155.091 10.497H154.195ZM17.059 41.14C16.597 41.14 16.1817 41.056 15.813 40.888C15.449 40.7153 15.162 40.4703 14.952 40.153C14.7467 39.831 14.644 39.4413 14.644 38.984C14.644 38.186 14.931 37.584 15.505 37.178C16.0837 36.772 17.003 36.5597 18.263 36.541L19.348 36.513V36.023C19.348 35.6403 19.2337 35.3417 19.005 35.127C18.781 34.9077 18.431 34.8003 17.955 34.805C17.6003 34.8097 17.2783 34.8937 16.989 35.057C16.6997 35.2157 16.5083 35.484 16.415 35.862H14.966C14.994 35.3673 15.1363 34.9543 15.393 34.623C15.6543 34.287 16.0113 34.0373 16.464 33.874C16.9167 33.706 17.4393 33.622 18.032 33.622C18.7227 33.622 19.285 33.713 19.719 33.895C20.153 34.077 20.4727 34.3407 20.678 34.686C20.8833 35.0267 20.986 35.4397 20.986 35.925V41H19.551L19.411 39.698C19.1543 40.244 18.8253 40.622 18.424 40.832C18.0273 41.0373 17.5723 41.14 17.059 41.14ZM17.612 39.985C17.822 39.985 18.0297 39.9477 18.235 39.873C18.4403 39.7937 18.6247 39.6887 18.788 39.558C18.956 39.4227 19.089 39.2733 19.187 39.11C19.2897 38.9467 19.3433 38.7763 19.348 38.599V37.458L18.459 37.472C18.0203 37.4767 17.6353 37.5233 17.304 37.612C16.9773 37.7007 16.723 37.843 16.541 38.039C16.359 38.2303 16.268 38.487 16.268 38.809C16.268 39.1777 16.3963 39.467 16.653 39.677C16.9097 39.8823 17.2293 39.985 17.612 39.985ZM26.02 43.394C24.802 43.394 23.8663 43.2307 23.213 42.904C22.5597 42.5773 22.233 42.1293 22.233 41.56C22.233 41.3033 22.296 41.0887 22.422 40.916C22.548 40.7433 22.6973 40.601 22.87 40.489C23.0427 40.377 23.2013 40.2907 23.346 40.23C23.4907 40.1693 23.584 40.125 23.626 40.097C23.5467 40.0503 23.4417 39.9897 23.311 39.915C23.1803 39.8403 23.0613 39.7377 22.954 39.607C22.8513 39.4763 22.8 39.306 22.8 39.096C22.8 38.8533 22.9143 38.6293 23.143 38.424C23.3763 38.2187 23.724 38.0717 24.186 37.983C23.7333 37.7637 23.3857 37.4673 23.143 37.094C22.9003 36.7207 22.779 36.3333 22.779 35.932C22.779 35.456 22.9167 35.0477 23.192 34.707C23.472 34.3663 23.8593 34.105 24.354 33.923C24.8487 33.741 25.425 33.65 26.083 33.65C26.5637 33.65 26.9627 33.7037 27.28 33.811C27.602 33.9183 27.9007 34.063 28.176 34.245C28.2693 34.2077 28.4 34.1563 28.568 34.091C28.736 34.021 28.9203 33.9463 29.121 33.867C29.3217 33.783 29.5153 33.7037 29.702 33.629C29.8887 33.5497 30.045 33.4843 30.171 33.433L30.164 34.84L28.911 35.064C28.9717 35.1993 29.0183 35.3463 29.051 35.505C29.0883 35.6637 29.107 35.8037 29.107 35.925C29.107 36.345 28.988 36.7347 28.75 37.094C28.5167 37.4487 28.1643 37.7333 27.693 37.948C27.2263 38.1627 26.643 38.27 25.943 38.27C25.873 38.27 25.7773 38.2677 25.656 38.263C25.5347 38.2583 25.4367 38.2537 25.362 38.249C24.984 38.263 24.725 38.3073 24.585 38.382C24.445 38.4567 24.375 38.5383 24.375 38.627C24.375 38.753 24.48 38.837 24.69 38.879C24.9 38.921 25.236 38.9583 25.698 38.991C25.8613 39.0003 26.076 39.012 26.342 39.026C26.608 39.04 26.9043 39.0587 27.231 39.082C28.057 39.1333 28.6823 39.341 29.107 39.705C29.5317 40.0643 29.744 40.531 29.744 41.105C29.744 41.7723 29.436 42.3207 28.82 42.75C28.204 43.1793 27.2707 43.394 26.02 43.394ZM26.307 42.393C26.9183 42.393 27.371 42.309 27.665 42.141C27.959 41.973 28.106 41.7257 28.106 41.399C28.106 41.147 28.0057 40.9417 27.805 40.783C27.6043 40.6243 27.3057 40.531 26.909 40.503L25.082 40.391C24.8813 40.377 24.69 40.4143 24.508 40.503C24.3307 40.587 24.186 40.706 24.074 40.86C23.962 41.0093 23.906 41.175 23.906 41.357C23.906 41.6977 24.0997 41.9543 24.487 42.127C24.879 42.3043 25.4857 42.393 26.307 42.393ZM25.999 37.269C26.4423 37.269 26.8017 37.157 27.077 36.933C27.3523 36.7043 27.49 36.3823 27.49 35.967C27.49 35.5377 27.3523 35.204 27.077 34.966C26.8017 34.7233 26.4423 34.602 25.999 34.602C25.5463 34.602 25.18 34.7233 24.9 34.966C24.6247 35.2087 24.487 35.5423 24.487 35.967C24.487 36.3683 24.62 36.6857 24.886 36.919C25.152 37.1523 25.523 37.269 25.999 37.269ZM34.5576 41.14C33.8622 41.14 33.2486 40.993 32.7166 40.699C32.1892 40.4003 31.7762 39.9757 31.4776 39.425C31.1836 38.8743 31.0366 38.2187 31.0366 37.458C31.0366 36.716 31.1696 36.058 31.4356 35.484C31.7062 34.9053 32.0959 34.4503 32.6046 34.119C33.1179 33.7877 33.7362 33.622 34.4596 33.622C35.1736 33.622 35.7732 33.7737 36.2586 34.077C36.7439 34.3803 37.1126 34.805 37.3646 35.351C37.6166 35.8923 37.7426 36.527 37.7426 37.255V37.773H32.7376C32.7329 38.1837 32.7982 38.5477 32.9336 38.865C33.0689 39.1823 33.2696 39.432 33.5356 39.614C33.8016 39.7913 34.1306 39.88 34.5226 39.88C34.9239 39.88 35.2716 39.7913 35.5656 39.614C35.8642 39.432 36.0626 39.1567 36.1606 38.788H37.7146C37.6306 39.292 37.4299 39.719 37.1126 40.069C36.7999 40.419 36.4172 40.685 35.9646 40.867C35.5166 41.049 35.0476 41.14 34.5576 41.14ZM32.7306 36.716H36.1326C36.1326 36.366 36.0696 36.051 35.9436 35.771C35.8222 35.4863 35.6379 35.2623 35.3906 35.099C35.1432 34.931 34.8306 34.847 34.4526 34.847C34.0792 34.847 33.7642 34.938 33.5076 35.12C33.2509 35.302 33.0572 35.5377 32.9266 35.827C32.7959 36.1117 32.7306 36.408 32.7306 36.716ZM39.1323 35.932V33.986H41.0573V35.932H39.1323ZM39.1323 40.958V39.026H41.0573V40.958H39.1323ZM49.8498 41.154C49.2058 41.154 48.6062 41.049 48.0508 40.839C47.5002 40.6243 47.0242 40.3303 46.6228 39.957C46.2262 39.5837 45.9298 39.1567 45.7338 38.676L47.1128 37.948C47.2855 38.2933 47.4908 38.6037 47.7288 38.879C47.9715 39.1543 48.2538 39.3713 48.5758 39.53C48.9025 39.684 49.2758 39.761 49.6958 39.761C50.3538 39.761 50.8812 39.579 51.2778 39.215C51.6792 38.8463 51.8798 38.3563 51.8798 37.745C51.8798 37.367 51.7865 37.031 51.5998 36.737C51.4178 36.443 51.1682 36.2143 50.8508 36.051C50.5382 35.883 50.1812 35.799 49.7798 35.799C49.5418 35.799 49.3178 35.82 49.1078 35.862C48.9025 35.904 48.6948 35.9833 48.4848 36.1C48.2748 36.212 48.0485 36.3823 47.8058 36.611C47.7592 36.6343 47.7242 36.646 47.7008 36.646C47.6822 36.6413 47.6472 36.6273 47.5958 36.604L46.2868 36.072L46.7488 30.878H53.0418L52.9788 32.299H48.1348L47.9038 35.113C48.2632 34.861 48.6248 34.679 48.9888 34.567C49.3528 34.455 49.7542 34.399 50.1928 34.399C50.8368 34.399 51.4225 34.525 51.9498 34.777C52.4772 35.029 52.8972 35.4 53.2098 35.89C53.5225 36.38 53.6788 36.9797 53.6788 37.689C53.6788 38.3983 53.5202 39.012 53.2028 39.53C52.8902 40.048 52.4468 40.4493 51.8728 40.734C51.3035 41.014 50.6292 41.154 49.8498 41.154ZM58.9384 41.147C58.1404 41.147 57.4427 41.028 56.8454 40.79C56.2527 40.5473 55.7907 40.2067 55.4594 39.768C55.128 39.3293 54.9624 38.8137 54.9624 38.221C54.9624 37.8337 55.058 37.4627 55.2494 37.108C55.4454 36.7533 55.695 36.4547 55.9984 36.212C56.3017 35.9647 56.6144 35.8083 56.9364 35.743C56.5024 35.547 56.1384 35.267 55.8444 34.903C55.5504 34.5343 55.4034 34.0817 55.4034 33.545C55.4034 32.943 55.5574 32.4343 55.8654 32.019C56.1734 31.599 56.5934 31.2817 57.1254 31.067C57.662 30.8477 58.2664 30.738 58.9384 30.738C59.6104 30.738 60.2124 30.8477 60.7444 31.067C61.2764 31.2817 61.6964 31.599 62.0044 32.019C62.317 32.4343 62.4734 32.943 62.4734 33.545C62.4734 34.0817 62.3287 34.5343 62.0394 34.903C61.75 35.267 61.3837 35.547 60.9404 35.743C61.2624 35.8083 61.575 35.9647 61.8784 36.212C62.1817 36.4547 62.4314 36.7533 62.6274 37.108C62.8234 37.4627 62.9214 37.8337 62.9214 38.221C62.9214 38.8137 62.7557 39.3293 62.4244 39.768C62.0977 40.2067 61.6334 40.5473 61.0314 40.79C60.434 41.028 59.7364 41.147 58.9384 41.147ZM58.9384 39.831C59.6057 39.831 60.133 39.6817 60.5204 39.383C60.9077 39.0843 61.1014 38.6853 61.1014 38.186C61.1014 37.8547 61.0127 37.563 60.8354 37.311C60.658 37.0543 60.4084 36.8537 60.0864 36.709C59.7644 36.5643 59.3817 36.492 58.9384 36.492C58.4997 36.492 58.117 36.5643 57.7904 36.709C57.4684 36.8537 57.2187 37.0543 57.0414 37.311C56.8687 37.563 56.7824 37.8547 56.7824 38.186C56.7824 38.6853 56.976 39.0843 57.3634 39.383C57.7554 39.6817 58.2804 39.831 58.9384 39.831ZM58.9384 35.064C59.4704 35.064 59.9044 34.9287 60.2404 34.658C60.581 34.3827 60.7514 34 60.7514 33.51C60.7514 33.0247 60.581 32.6397 60.2404 32.355C59.8997 32.0703 59.4657 31.928 58.9384 31.928C58.411 31.928 57.9747 32.0703 57.6294 32.355C57.2887 32.6397 57.1184 33.0247 57.1184 33.51C57.1184 34 57.2887 34.3827 57.6294 34.658C57.9747 34.9287 58.411 35.064 58.9384 35.064ZM17.059 65.14C16.597 65.14 16.1817 65.056 15.813 64.888C15.449 64.7153 15.162 64.4703 14.952 64.153C14.7467 63.831 14.644 63.4413 14.644 62.984C14.644 62.186 14.931 61.584 15.505 61.178C16.0837 60.772 17.003 60.5597 18.263 60.541L19.348 60.513V60.023C19.348 59.6403 19.2337 59.3417 19.005 59.127C18.781 58.9077 18.431 58.8003 17.955 58.805C17.6003 58.8097 17.2783 58.8937 16.989 59.057C16.6997 59.2157 16.5083 59.484 16.415 59.862H14.966C14.994 59.3673 15.1363 58.9543 15.393 58.623C15.6543 58.287 16.0113 58.0373 16.464 57.874C16.9167 57.706 17.4393 57.622 18.032 57.622C18.7227 57.622 19.285 57.713 19.719 57.895C20.153 58.077 20.4727 58.3407 20.678 58.686C20.8833 59.0267 20.986 59.4397 20.986 59.925V65H19.551L19.411 63.698C19.1543 64.244 18.8253 64.622 18.424 64.832C18.0273 65.0373 17.5723 65.14 17.059 65.14ZM17.612 63.985C17.822 63.985 18.0297 63.9477 18.235 63.873C18.4403 63.7937 18.6247 63.6887 18.788 63.558C18.956 63.4227 19.089 63.2733 19.187 63.11C19.2897 62.9467 19.3433 62.7763 19.348 62.599V61.458L18.459 61.472C18.0203 61.4767 17.6353 61.5233 17.304 61.612C16.9773 61.7007 16.723 61.843 16.541 62.039C16.359 62.2303 16.268 62.487 16.268 62.809C16.268 63.1777 16.3963 63.467 16.653 63.677C16.9097 63.8823 17.2293 63.985 17.612 63.985ZM25.838 65.14C25.1753 65.14 24.585 64.9953 24.067 64.706C23.5537 64.412 23.15 63.9873 22.856 63.432C22.562 62.872 22.415 62.1977 22.415 61.409C22.415 60.6577 22.5527 59.9997 22.828 59.435C23.108 58.8657 23.5023 58.4223 24.011 58.105C24.5243 57.783 25.1333 57.622 25.838 57.622C26.4027 57.622 26.8997 57.734 27.329 57.958C27.7583 58.182 28.1013 58.4923 28.358 58.889C28.6193 59.2857 28.7757 59.736 28.827 60.24H27.378C27.3407 60.0207 27.259 59.813 27.133 59.617C27.007 59.4163 26.8367 59.2553 26.622 59.134C26.412 59.008 26.1553 58.945 25.852 58.945C25.306 58.945 24.865 59.1457 24.529 59.547C24.193 59.9483 24.025 60.5643 24.025 61.395C24.025 62.1603 24.1837 62.7693 24.501 63.222C24.823 63.6747 25.2827 63.901 25.88 63.901C26.1787 63.901 26.4353 63.8357 26.65 63.705C26.8647 63.5697 27.0327 63.404 27.154 63.208C27.28 63.0073 27.3593 62.8067 27.392 62.606H28.806C28.764 63.096 28.6123 63.5323 28.351 63.915C28.0897 64.2977 27.7443 64.5987 27.315 64.818C26.8857 65.0327 26.3933 65.14 25.838 65.14ZM33.0741 65.056C32.5001 65.056 32.0545 64.9813 31.7371 64.832C31.4245 64.678 31.2075 64.461 31.0861 64.181C30.9648 63.901 30.9041 63.5673 30.9041 63.18V58.966H29.7281V57.762H30.9531L31.3801 55.613H32.6051V57.755H34.2221V58.966H32.6051L32.6121 63.117C32.6121 63.3317 32.6355 63.4903 32.6821 63.593C32.7335 63.691 32.8128 63.7563 32.9201 63.789C33.0321 63.817 33.1791 63.831 33.3611 63.831H34.2571V64.909C34.1591 64.9463 34.0145 64.979 33.8231 65.007C33.6365 65.0397 33.3868 65.056 33.0741 65.056ZM35.8573 65V57.762H37.4883V65H35.8573ZM35.8293 56.495V54.885H37.5163V56.495H35.8293ZM41.3987 65L38.7247 57.762H40.2857L42.0217 62.83H42.1127L43.8417 57.762H45.4097L42.7427 65H41.3987ZM49.6377 65.14C48.9423 65.14 48.3287 64.993 47.7967 64.699C47.2693 64.4003 46.8563 63.9757 46.5577 63.425C46.2637 62.8743 46.1167 62.2187 46.1167 61.458C46.1167 60.716 46.2497 60.058 46.5157 59.484C46.7863 58.9053 47.176 58.4503 47.6847 58.119C48.198 57.7877 48.8163 57.622 49.5397 57.622C50.2537 57.622 50.8533 57.7737 51.3387 58.077C51.824 58.3803 52.1927 58.805 52.4447 59.351C52.6967 59.8923 52.8227 60.527 52.8227 61.255V61.773H47.8177C47.813 62.1837 47.8783 62.5477 48.0137 62.865C48.149 63.1823 48.3497 63.432 48.6157 63.614C48.8817 63.7913 49.2107 63.88 49.6027 63.88C50.004 63.88 50.3517 63.7913 50.6457 63.614C50.9443 63.432 51.1427 63.1567 51.2407 62.788H52.7947C52.7107 63.292 52.51 63.719 52.1927 64.069C51.88 64.419 51.4973 64.685 51.0447 64.867C50.5967 65.049 50.1277 65.14 49.6377 65.14ZM47.8107 60.716H51.2127C51.2127 60.366 51.1497 60.051 51.0237 59.771C50.9023 59.4863 50.718 59.2623 50.4707 59.099C50.2233 58.931 49.9107 58.847 49.5327 58.847C49.1593 58.847 48.8443 58.938 48.5877 59.12C48.331 59.302 48.1373 59.5377 48.0067 59.827C47.876 60.1117 47.8107 60.408 47.8107 60.716ZM54.2124 59.932V57.986H56.1374V59.932H54.2124ZM54.2124 64.958V63.026H56.1374V64.958H54.2124ZM64.0409 65.056C63.4669 65.056 63.0213 64.9813 62.7039 64.832C62.3913 64.678 62.1743 64.461 62.0529 64.181C61.9316 63.901 61.8709 63.5673 61.8709 63.18V58.966H60.6949V57.762H61.9199L62.3469 55.613H63.5719V57.755H65.1889V58.966H63.5719L63.5789 63.117C63.5789 63.3317 63.6023 63.4903 63.6489 63.593C63.7003 63.691 63.7796 63.7563 63.8869 63.789C63.9989 63.817 64.1459 63.831 64.3279 63.831H65.2239V64.909C65.1259 64.9463 64.9813 64.979 64.7899 65.007C64.6033 65.0397 64.3536 65.056 64.0409 65.056ZM66.7961 65V57.762H68.4271V59.33C68.5437 58.9707 68.7094 58.665 68.9241 58.413C69.1434 58.1563 69.4001 57.9603 69.6941 57.825C69.9881 57.6897 70.3077 57.622 70.6531 57.622C70.7371 57.622 70.8187 57.6267 70.8981 57.636C70.9774 57.6453 71.0357 57.6617 71.0731 57.685V59.316C71.0217 59.2927 70.9541 59.2763 70.8701 59.267C70.7907 59.2577 70.7207 59.253 70.6601 59.253C70.3101 59.225 69.9997 59.239 69.7291 59.295C69.4631 59.351 69.2367 59.4467 69.0501 59.582C68.8681 59.7127 68.7304 59.8807 68.6371 60.086C68.5437 60.2867 68.4971 60.5223 68.4971 60.793V65H66.7961ZM75.0889 65.14C74.7342 65.14 74.3912 65.0887 74.0599 64.986C73.7332 64.8787 73.4392 64.7247 73.1779 64.524C72.9166 64.3187 72.7089 64.0667 72.5549 63.768C72.4009 63.4693 72.3239 63.1217 72.3239 62.725V57.762H74.0319V62.529C74.0319 62.921 74.1556 63.243 74.4029 63.495C74.6549 63.747 75.0329 63.873 75.5369 63.873C75.9942 63.873 76.3606 63.754 76.6359 63.516C76.9112 63.2733 77.0489 62.9257 77.0489 62.473V57.762H78.7429V65H77.4339L77.2449 63.586C77.1562 63.9827 76.9999 64.2953 76.7759 64.524C76.5566 64.748 76.2976 64.9067 75.9989 65C75.7049 65.0933 75.4016 65.14 75.0889 65.14ZM83.872 65.14C83.1767 65.14 82.563 64.993 82.031 64.699C81.5037 64.4003 81.0907 63.9757 80.792 63.425C80.498 62.8743 80.351 62.2187 80.351 61.458C80.351 60.716 80.484 60.058 80.75 59.484C81.0207 58.9053 81.4104 58.4503 81.919 58.119C82.4324 57.7877 83.0507 57.622 83.774 57.622C84.488 57.622 85.0877 57.7737 85.573 58.077C86.0584 58.3803 86.427 58.805 86.679 59.351C86.931 59.8923 87.057 60.527 87.057 61.255V61.773H82.052C82.0474 62.1837 82.1127 62.5477 82.248 62.865C82.3834 63.1823 82.584 63.432 82.85 63.614C83.116 63.7913 83.445 63.88 83.837 63.88C84.2384 63.88 84.586 63.7913 84.88 63.614C85.1787 63.432 85.377 63.1567 85.475 62.788H87.029C86.945 63.292 86.7444 63.719 86.427 64.069C86.1144 64.419 85.7317 64.685 85.279 64.867C84.831 65.049 84.362 65.14 83.872 65.14ZM82.045 60.716H85.447C85.447 60.366 85.384 60.051 85.258 59.771C85.1367 59.4863 84.9524 59.2623 84.705 59.099C84.4577 58.931 84.145 58.847 83.767 58.847C83.3937 58.847 83.0787 58.938 82.822 59.12C82.5654 59.302 82.3717 59.5377 82.241 59.827C82.1104 60.1117 82.045 60.408 82.045 60.716Z" fill="black" style="fill:black;fill-opacity:1;"/>
<path d="M131.5 147C130.948 147 130.5 147.448 130.5 148C130.5 148.552 130.948 149 131.5 149V147ZM212.938 149C213.49 149 213.938 148.552 213.938 148C213.938 147.448 213.49 147 212.938 147V149ZM298.062 147C297.51 147 297.062 147.448 297.062 148C297.062 148.552 297.51 149 298.062 149V147ZM380.207 148.707C380.598 148.317 380.598 147.683 380.207 147.293L373.843 140.929C373.453 140.538 372.819 140.538 372.429 140.929C372.038 141.319 372.038 141.953 372.429 142.343L378.086 148L372.429 153.657C372.038 154.047 372.038 154.681 372.429 155.071C372.819 155.462 373.453 155.462 373.843 155.071L380.207 148.707ZM131.5 149H212.938V147H131.5V149ZM298.062 149H379.5V147H298.062V149Z" fill="#1A1B1D" style="fill:#1A1B1D;fill:color(display-p3 0.1020 0.1059 0.1137);fill-opacity:1;"/>
<path d="M230.396 143V132.818H231.933V137.68H232.057L236.327 132.818H238.261L234.155 137.402L238.276 143H236.427L233.136 138.451L231.933 139.833V143H230.396ZM247.757 132.818V143H246.345L241.17 135.533H241.075V143H239.539V132.818H240.961L246.141 140.295H246.236V132.818H247.757ZM258.689 137.909C258.689 138.996 258.49 139.931 258.092 140.713C257.694 141.492 257.149 142.092 256.456 142.513C255.767 142.93 254.983 143.139 254.105 143.139C253.223 143.139 252.436 142.93 251.743 142.513C251.054 142.092 250.51 141.49 250.113 140.708C249.715 139.926 249.516 138.993 249.516 137.909C249.516 136.822 249.715 135.889 250.113 135.11C250.51 134.328 251.054 133.728 251.743 133.31C252.436 132.889 253.223 132.679 254.105 132.679C254.983 132.679 255.767 132.889 256.456 133.31C257.149 133.728 257.694 134.328 258.092 135.11C258.49 135.889 258.689 136.822 258.689 137.909ZM257.167 137.909C257.167 137.08 257.033 136.383 256.765 135.816C256.499 135.246 256.135 134.815 255.671 134.523C255.21 134.228 254.688 134.081 254.105 134.081C253.518 134.081 252.995 134.228 252.534 134.523C252.073 134.815 251.709 135.246 251.44 135.816C251.175 136.383 251.042 137.08 251.042 137.909C251.042 138.738 251.175 139.437 251.44 140.007C251.709 140.574 252.073 141.005 252.534 141.3C252.995 141.591 253.518 141.737 254.105 141.737C254.688 141.737 255.21 141.591 255.671 141.3C256.135 141.005 256.499 140.574 256.765 140.007C257.033 139.437 257.167 138.738 257.167 137.909ZM262.321 143L259.497 132.818H261.112L263.096 140.703H263.191L265.254 132.818H266.855L268.918 140.708H269.012L270.991 132.818H272.612L269.783 143H268.237L266.094 135.374H266.014L263.872 143H262.321ZM279.384 135.493C279.331 135.022 279.113 134.658 278.728 134.399C278.344 134.137 277.86 134.006 277.276 134.006C276.859 134.006 276.498 134.073 276.193 134.205C275.888 134.335 275.651 134.513 275.482 134.742C275.316 134.968 275.233 135.224 275.233 135.513C275.233 135.755 275.289 135.964 275.402 136.139C275.518 136.315 275.669 136.462 275.855 136.582C276.043 136.698 276.246 136.795 276.461 136.875C276.677 136.951 276.884 137.014 277.083 137.064L278.077 137.322C278.402 137.402 278.735 137.51 279.076 137.646C279.418 137.781 279.734 137.96 280.026 138.183C280.317 138.405 280.553 138.68 280.732 139.008C280.914 139.336 281.005 139.729 281.005 140.186C281.005 140.763 280.856 141.275 280.558 141.722C280.263 142.17 279.833 142.523 279.27 142.781C278.71 143.04 278.032 143.169 277.237 143.169C276.474 143.169 275.815 143.048 275.258 142.806C274.701 142.564 274.265 142.221 273.95 141.777C273.636 141.33 273.462 140.799 273.428 140.186H274.97C274.999 140.554 275.119 140.861 275.328 141.106C275.54 141.348 275.81 141.528 276.138 141.648C276.469 141.764 276.832 141.822 277.227 141.822C277.661 141.822 278.047 141.754 278.385 141.618C278.726 141.479 278.995 141.286 279.19 141.041C279.386 140.793 279.484 140.503 279.484 140.171C279.484 139.87 279.398 139.623 279.225 139.43C279.056 139.238 278.826 139.079 278.534 138.953C278.246 138.827 277.919 138.716 277.555 138.62L276.352 138.292C275.536 138.07 274.89 137.743 274.413 137.312C273.939 136.882 273.702 136.312 273.702 135.602C273.702 135.016 273.861 134.504 274.179 134.066C274.497 133.629 274.928 133.289 275.472 133.047C276.015 132.802 276.628 132.679 277.311 132.679C278.001 132.679 278.609 132.8 279.136 133.042C279.666 133.284 280.084 133.617 280.389 134.041C280.694 134.462 280.853 134.946 280.866 135.493H279.384ZM226.513 158.228L225.166 158.467C225.11 158.294 225.02 158.13 224.897 157.974C224.778 157.819 224.616 157.691 224.41 157.592C224.205 157.492 223.948 157.442 223.64 157.442C223.219 157.442 222.867 157.537 222.586 157.726C222.304 157.911 222.163 158.152 222.163 158.447C222.163 158.702 222.258 158.907 222.446 159.063C222.635 159.219 222.94 159.347 223.361 159.446L224.574 159.724C225.277 159.887 225.801 160.137 226.145 160.475C226.49 160.813 226.662 161.252 226.662 161.793C226.662 162.25 226.53 162.658 226.265 163.016C226.003 163.37 225.637 163.649 225.166 163.851C224.699 164.053 224.157 164.154 223.54 164.154C222.685 164.154 221.987 163.972 221.447 163.607C220.907 163.239 220.575 162.717 220.453 162.041L221.89 161.822C221.979 162.197 222.163 162.48 222.441 162.673C222.72 162.862 223.083 162.956 223.53 162.956C224.017 162.956 224.407 162.855 224.699 162.653C224.99 162.447 225.136 162.197 225.136 161.902C225.136 161.663 225.047 161.463 224.868 161.3C224.692 161.138 224.422 161.015 224.057 160.933L222.765 160.649C222.052 160.487 221.525 160.228 221.184 159.874C220.846 159.519 220.677 159.07 220.677 158.526C220.677 158.076 220.803 157.681 221.054 157.343C221.306 157.005 221.654 156.741 222.098 156.553C222.543 156.36 223.051 156.264 223.625 156.264C224.45 156.264 225.1 156.443 225.574 156.801C226.048 157.156 226.361 157.631 226.513 158.228ZM228.143 164V156.364H229.629V164H228.143ZM228.893 155.185C228.635 155.185 228.413 155.099 228.227 154.927C228.045 154.751 227.954 154.542 227.954 154.3C227.954 154.055 228.045 153.846 228.227 153.674C228.413 153.498 228.635 153.411 228.893 153.411C229.152 153.411 229.372 153.498 229.555 153.674C229.74 153.846 229.833 154.055 229.833 154.3C229.833 154.542 229.74 154.751 229.555 154.927C229.372 155.099 229.152 155.185 228.893 155.185ZM232.962 159.466V164H231.475V156.364H232.902V157.607H232.996C233.172 157.202 233.447 156.877 233.822 156.632C234.2 156.387 234.675 156.264 235.249 156.264C235.769 156.264 236.225 156.374 236.616 156.592C237.007 156.808 237.31 157.129 237.526 157.557C237.741 157.984 237.849 158.513 237.849 159.143V164H236.362V159.322C236.362 158.768 236.218 158.336 235.93 158.024C235.641 157.709 235.245 157.552 234.741 157.552C234.397 157.552 234.09 157.626 233.822 157.776C233.557 157.925 233.346 158.143 233.19 158.432C233.038 158.717 232.962 159.062 232.962 159.466ZM242.905 164.154C242.166 164.154 241.529 163.987 240.996 163.652C240.466 163.314 240.058 162.848 239.773 162.255C239.488 161.662 239.345 160.982 239.345 160.217C239.345 159.441 239.491 158.757 239.783 158.163C240.074 157.567 240.485 157.101 241.016 156.766C241.546 156.432 242.171 156.264 242.89 156.264C243.47 156.264 243.987 156.372 244.441 156.587C244.895 156.799 245.261 157.098 245.54 157.482C245.822 157.867 245.989 158.316 246.042 158.83H244.595C244.516 158.472 244.333 158.163 244.048 157.905C243.767 157.646 243.389 157.517 242.915 157.517C242.501 157.517 242.138 157.626 241.826 157.845C241.518 158.061 241.278 158.369 241.105 158.77C240.933 159.168 240.847 159.638 240.847 160.182C240.847 160.739 240.931 161.219 241.1 161.624C241.269 162.028 241.508 162.341 241.816 162.563C242.128 162.785 242.494 162.896 242.915 162.896C243.197 162.896 243.452 162.845 243.68 162.742C243.912 162.636 244.106 162.485 244.262 162.29C244.421 162.094 244.532 161.859 244.595 161.584H246.042C245.989 162.078 245.828 162.518 245.56 162.906C245.291 163.294 244.932 163.599 244.481 163.821C244.033 164.043 243.508 164.154 242.905 164.154ZM250.769 164.154C250.016 164.154 249.369 163.993 248.825 163.672C248.285 163.347 247.867 162.891 247.572 162.305C247.28 161.715 247.135 161.024 247.135 160.232C247.135 159.449 247.28 158.76 247.572 158.163C247.867 157.567 248.278 157.101 248.805 156.766C249.335 156.432 249.955 156.264 250.664 156.264C251.095 156.264 251.513 156.335 251.917 156.478C252.322 156.621 252.685 156.844 253.006 157.149C253.328 157.454 253.581 157.85 253.767 158.337C253.952 158.821 254.045 159.41 254.045 160.102V160.629H247.975V159.516H252.588C252.588 159.125 252.509 158.778 252.35 158.477C252.191 158.172 251.967 157.931 251.679 157.756C251.394 157.58 251.059 157.492 250.674 157.492C250.257 157.492 249.892 157.595 249.581 157.8C249.272 158.003 249.034 158.268 248.865 158.596C248.699 158.921 248.616 159.274 248.616 159.655V160.525C248.616 161.035 248.706 161.469 248.885 161.827C249.067 162.185 249.32 162.459 249.645 162.648C249.97 162.833 250.35 162.926 250.784 162.926C251.065 162.926 251.322 162.886 251.554 162.807C251.786 162.724 251.987 162.601 252.156 162.439C252.325 162.277 252.454 162.076 252.544 161.837L253.951 162.091C253.838 162.505 253.636 162.868 253.344 163.18C253.056 163.488 252.693 163.728 252.255 163.901C251.821 164.07 251.326 164.154 250.769 164.154ZM256.52 164.094C256.248 164.094 256.014 163.998 255.819 163.806C255.623 163.611 255.526 163.375 255.526 163.1C255.526 162.828 255.623 162.596 255.819 162.404C256.014 162.209 256.248 162.111 256.52 162.111C256.792 162.111 257.025 162.209 257.221 162.404C257.416 162.596 257.514 162.828 257.514 163.1C257.514 163.282 257.468 163.45 257.375 163.602C257.285 163.751 257.166 163.871 257.017 163.96C256.868 164.05 256.702 164.094 256.52 164.094ZM256.52 158.536C256.248 158.536 256.014 158.438 255.819 158.243C255.623 158.047 255.526 157.814 255.526 157.542C255.526 157.27 255.623 157.038 255.819 156.846C256.014 156.65 256.248 156.553 256.52 156.553C256.792 156.553 257.025 156.65 257.221 156.846C257.416 157.038 257.514 157.27 257.514 157.542C257.514 157.724 257.468 157.892 257.375 158.044C257.285 158.193 257.166 158.312 257.017 158.402C256.868 158.491 256.702 158.536 256.52 158.536ZM263.194 153.818V164H261.653V155.359H261.593L259.157 156.95V155.479L261.698 153.818H263.194ZM269.18 153.679C269.634 153.682 270.082 153.765 270.523 153.928C270.963 154.09 271.361 154.355 271.716 154.723C272.074 155.091 272.359 155.588 272.571 156.214C272.786 156.838 272.896 157.613 272.899 158.541C272.899 159.433 272.81 160.227 272.631 160.923C272.452 161.615 272.195 162.2 271.86 162.678C271.529 163.155 271.126 163.518 270.652 163.766C270.178 164.015 269.644 164.139 269.051 164.139C268.444 164.139 267.906 164.02 267.435 163.781C266.965 163.543 266.582 163.213 266.287 162.792C265.992 162.368 265.808 161.88 265.735 161.33H267.251C267.351 161.768 267.553 162.122 267.858 162.394C268.166 162.663 268.564 162.797 269.051 162.797C269.797 162.797 270.378 162.472 270.796 161.822C271.214 161.17 271.424 160.258 271.427 159.088H271.348C271.176 159.373 270.96 159.618 270.702 159.824C270.446 160.029 270.16 160.188 269.841 160.301C269.523 160.414 269.184 160.47 268.822 160.47C268.236 160.47 267.702 160.326 267.221 160.038C266.741 159.749 266.358 159.353 266.073 158.849C265.788 158.346 265.645 157.771 265.645 157.124C265.645 156.481 265.791 155.898 266.083 155.374C266.378 154.851 266.789 154.436 267.316 154.131C267.846 153.823 268.468 153.672 269.18 153.679ZM269.185 154.972C268.797 154.972 268.448 155.068 268.136 155.26C267.828 155.449 267.584 155.706 267.405 156.031C267.226 156.352 267.137 156.71 267.137 157.104C267.137 157.499 267.223 157.857 267.395 158.178C267.571 158.496 267.81 158.75 268.111 158.939C268.416 159.125 268.764 159.217 269.155 159.217C269.447 159.217 269.719 159.161 269.971 159.048C270.223 158.936 270.443 158.78 270.632 158.581C270.821 158.379 270.968 158.15 271.074 157.895C271.18 157.64 271.234 157.371 271.234 157.089C271.234 156.715 271.144 156.367 270.965 156.045C270.789 155.724 270.547 155.465 270.239 155.27C269.931 155.071 269.58 154.972 269.185 154.972ZM277.927 153.679C278.381 153.682 278.828 153.765 279.269 153.928C279.71 154.09 280.108 154.355 280.462 154.723C280.82 155.091 281.105 155.588 281.317 156.214C281.533 156.838 281.642 157.613 281.645 158.541C281.645 159.433 281.556 160.227 281.377 160.923C281.198 161.615 280.941 162.2 280.606 162.678C280.275 163.155 279.872 163.518 279.398 163.766C278.924 164.015 278.391 164.139 277.797 164.139C277.191 164.139 276.652 164.02 276.182 163.781C275.711 163.543 275.328 163.213 275.033 162.792C274.738 162.368 274.554 161.88 274.481 161.33H275.998C276.097 161.768 276.299 162.122 276.604 162.394C276.912 162.663 277.31 162.797 277.797 162.797C278.543 162.797 279.125 162.472 279.542 161.822C279.96 161.17 280.17 160.258 280.174 159.088H280.094C279.922 159.373 279.706 159.618 279.448 159.824C279.193 160.029 278.906 160.188 278.588 160.301C278.27 160.414 277.93 160.47 277.569 160.47C276.982 160.47 276.448 160.326 275.968 160.038C275.487 159.749 275.104 159.353 274.819 158.849C274.534 158.346 274.392 157.771 274.392 157.124C274.392 156.481 274.538 155.898 274.829 155.374C275.124 154.851 275.535 154.436 276.062 154.131C276.593 153.823 277.214 153.672 277.927 153.679ZM277.932 154.972C277.544 154.972 277.194 155.068 276.883 155.26C276.574 155.449 276.331 155.706 276.152 156.031C275.973 156.352 275.883 156.71 275.883 157.104C275.883 157.499 275.969 157.857 276.142 158.178C276.318 158.496 276.556 158.75 276.858 158.939C277.163 159.125 277.511 159.217 277.902 159.217C278.193 159.217 278.465 159.161 278.717 159.048C278.969 158.936 279.189 158.78 279.378 158.581C279.567 158.379 279.715 158.15 279.821 157.895C279.927 157.64 279.98 157.371 279.98 157.089C279.98 156.715 279.89 156.367 279.711 156.045C279.536 155.724 279.294 155.465 278.986 155.27C278.677 155.071 278.326 154.972 277.932 154.972ZM286.673 153.679C287.127 153.682 287.575 153.765 288.015 153.928C288.456 154.09 288.854 154.355 289.209 154.723C289.566 155.091 289.852 155.588 290.064 156.214C290.279 156.838 290.388 157.613 290.392 158.541C290.392 159.433 290.302 160.227 290.123 160.923C289.944 161.615 289.687 162.2 289.353 162.678C289.021 163.155 288.619 163.518 288.145 163.766C287.671 164.015 287.137 164.139 286.544 164.139C285.937 164.139 285.399 164.02 284.928 163.781C284.457 163.543 284.075 163.213 283.78 162.792C283.485 162.368 283.301 161.88 283.228 161.33H284.744C284.843 161.768 285.046 162.122 285.351 162.394C285.659 162.663 286.057 162.797 286.544 162.797C287.29 162.797 287.871 162.472 288.289 161.822C288.706 161.17 288.917 160.258 288.92 159.088H288.841C288.668 159.373 288.453 159.618 288.194 159.824C287.939 160.029 287.652 160.188 287.334 160.301C287.016 160.414 286.676 160.47 286.315 160.47C285.728 160.47 285.195 160.326 284.714 160.038C284.234 159.749 283.851 159.353 283.566 158.849C283.281 158.346 283.138 157.771 283.138 157.124C283.138 156.481 283.284 155.898 283.576 155.374C283.871 154.851 284.282 154.436 284.809 154.131C285.339 153.823 285.96 153.672 286.673 153.679ZM286.678 154.972C286.29 154.972 285.941 155.068 285.629 155.26C285.321 155.449 285.077 155.706 284.898 156.031C284.719 156.352 284.63 156.71 284.63 157.104C284.63 157.499 284.716 157.857 284.888 158.178C285.064 158.496 285.303 158.75 285.604 158.939C285.909 159.125 286.257 159.217 286.648 159.217C286.94 159.217 287.212 159.161 287.464 159.048C287.715 158.936 287.936 158.78 288.125 158.581C288.314 158.379 288.461 158.15 288.567 157.895C288.673 157.64 288.726 157.371 288.726 157.089C288.726 156.715 288.637 156.367 288.458 156.045C288.282 155.724 288.04 155.465 287.732 155.27C287.424 155.071 287.072 154.972 286.678 154.972Z" fill="black" fill-opacity="0.8" style="fill:black;fill-opacity:0.8;"/>
<path d="M397.966 17V9.762H399.632V10.798C399.744 10.6113 399.896 10.4317 400.087 10.259C400.283 10.0863 400.523 9.94633 400.808 9.839C401.093 9.73167 401.426 9.678 401.809 9.678C402.257 9.678 402.672 9.76667 403.055 9.944C403.442 10.1213 403.753 10.399 403.986 10.777C404.224 11.155 404.343 11.6427 404.343 12.24V17H402.635V12.443C402.635 11.967 402.504 11.6147 402.243 11.386C401.982 11.1527 401.653 11.036 401.256 11.036C400.985 11.036 400.729 11.0827 400.486 11.176C400.243 11.2647 400.045 11.4023 399.891 11.589C399.742 11.771 399.667 11.9997 399.667 12.275V17H397.966ZM408.221 17.14C407.759 17.14 407.344 17.056 406.975 16.888C406.611 16.7153 406.324 16.4703 406.114 16.153C405.909 15.831 405.806 15.4413 405.806 14.984C405.806 14.186 406.093 13.584 406.667 13.178C407.246 12.772 408.165 12.5597 409.425 12.541L410.51 12.513V12.023C410.51 11.6403 410.396 11.3417 410.167 11.127C409.943 10.9077 409.593 10.8003 409.117 10.805C408.762 10.8097 408.44 10.8937 408.151 11.057C407.862 11.2157 407.67 11.484 407.577 11.862H406.128C406.156 11.3673 406.298 10.9543 406.555 10.623C406.816 10.287 407.173 10.0373 407.626 9.874C408.079 9.706 408.601 9.622 409.194 9.622C409.885 9.622 410.447 9.713 410.881 9.895C411.315 10.077 411.635 10.3407 411.84 10.686C412.045 11.0267 412.148 11.4397 412.148 11.925V17H410.713L410.573 15.698C410.316 16.244 409.987 16.622 409.586 16.832C409.189 17.0373 408.734 17.14 408.221 17.14ZM408.774 15.985C408.984 15.985 409.192 15.9477 409.397 15.873C409.602 15.7937 409.787 15.6887 409.95 15.558C410.118 15.4227 410.251 15.2733 410.349 15.11C410.452 14.9467 410.505 14.7763 410.51 14.599V13.458L409.621 13.472C409.182 13.4767 408.797 13.5233 408.466 13.612C408.139 13.7007 407.885 13.843 407.703 14.039C407.521 14.2303 407.43 14.487 407.43 14.809C407.43 15.1777 407.558 15.467 407.815 15.677C408.072 15.8823 408.391 15.985 408.774 15.985ZM413.962 17V9.762H415.621V10.798C415.831 10.4807 416.116 10.2053 416.475 9.972C416.839 9.73867 417.301 9.622 417.861 9.622C418.118 9.622 418.377 9.66633 418.638 9.755C418.904 9.84367 419.149 9.97433 419.373 10.147C419.602 10.3197 419.784 10.5343 419.919 10.791C420.148 10.4503 420.451 10.1703 420.829 9.951C421.212 9.73167 421.641 9.622 422.117 9.622C422.378 9.622 422.647 9.664 422.922 9.748C423.202 9.832 423.459 9.972 423.692 10.168C423.925 10.364 424.114 10.6323 424.259 10.973C424.404 11.309 424.476 11.7313 424.476 12.24V17H422.775V12.443C422.775 12.0837 422.712 11.8013 422.586 11.596C422.46 11.3907 422.297 11.246 422.096 11.162C421.9 11.0733 421.69 11.029 421.466 11.029C421.265 11.029 421.055 11.0687 420.836 11.148C420.621 11.2273 420.437 11.358 420.283 11.54C420.134 11.722 420.059 11.967 420.059 12.275V17H418.358V12.17C418.358 11.918 418.293 11.708 418.162 11.54C418.031 11.372 417.866 11.246 417.665 11.162C417.469 11.0733 417.268 11.029 417.063 11.029C416.853 11.029 416.638 11.0733 416.419 11.162C416.204 11.2507 416.025 11.386 415.88 11.568C415.735 11.75 415.663 11.9857 415.663 12.275V17H413.962ZM429.507 17.14C428.811 17.14 428.198 16.993 427.666 16.699C427.138 16.4003 426.725 15.9757 426.427 15.425C426.133 14.8743 425.986 14.2187 425.986 13.458C425.986 12.716 426.119 12.058 426.385 11.484C426.655 10.9053 427.045 10.4503 427.554 10.119C428.067 9.78767 428.685 9.622 429.409 9.622C430.123 9.622 430.722 9.77367 431.208 10.077C431.693 10.3803 432.062 10.805 432.314 11.351C432.566 11.8923 432.692 12.527 432.692 13.255V13.773H427.687C427.682 14.1837 427.747 14.5477 427.883 14.865C428.018 15.1823 428.219 15.432 428.485 15.614C428.751 15.7913 429.08 15.88 429.472 15.88C429.873 15.88 430.221 15.7913 430.515 15.614C430.813 15.432 431.012 15.1567 431.11 14.788H432.664C432.58 15.292 432.379 15.719 432.062 16.069C431.749 16.419 431.366 16.685 430.914 16.867C430.466 17.049 429.997 17.14 429.507 17.14ZM427.68 12.716H431.082C431.082 12.366 431.019 12.051 430.893 11.771C430.771 11.4863 430.587 11.2623 430.34 11.099C430.092 10.931 429.78 10.847 429.402 10.847C429.028 10.847 428.713 10.938 428.457 11.12C428.2 11.302 428.006 11.5377 427.876 11.827C427.745 12.1117 427.68 12.408 427.68 12.716ZM434.082 11.932V9.986H436.007V11.932H434.082ZM434.082 16.958V15.026H436.007V16.958H434.082ZM441.369 10.497L440.9 6.878H442.755L442.265 10.497H441.369ZM448.773 17.14C447.845 17.14 447.047 16.9277 446.379 16.503C445.717 16.0737 445.206 15.467 444.846 14.683C444.492 13.8943 444.314 12.9587 444.314 11.876C444.314 10.798 444.492 9.87633 444.846 9.111C445.201 8.34567 445.71 7.76 446.372 7.354C447.04 6.94333 447.84 6.738 448.773 6.738C449.515 6.738 450.173 6.88967 450.747 7.193C451.321 7.49167 451.783 7.89767 452.133 8.411C452.488 8.92433 452.698 9.496 452.763 10.126H450.964C450.894 9.75267 450.764 9.419 450.572 9.125C450.386 8.831 450.138 8.59767 449.83 8.425C449.522 8.25233 449.154 8.166 448.724 8.166C448.188 8.166 447.73 8.29433 447.352 8.551C446.979 8.803 446.692 9.20433 446.491 9.755C446.295 10.3057 446.197 11.0197 446.197 11.897C446.197 13.227 446.417 14.1953 446.855 14.802C447.294 15.4087 447.917 15.712 448.724 15.712C449.154 15.712 449.522 15.6187 449.83 15.432C450.138 15.2407 450.386 14.9887 450.572 14.676C450.764 14.3587 450.894 14.0133 450.964 13.64H452.763C452.707 14.0973 452.591 14.536 452.413 14.956C452.241 15.376 451.996 15.7517 451.678 16.083C451.361 16.4097 450.962 16.6687 450.481 16.86C450.005 17.0467 449.436 17.14 448.773 17.14ZM456.373 17.14C455.911 17.14 455.496 17.056 455.127 16.888C454.763 16.7153 454.476 16.4703 454.266 16.153C454.061 15.831 453.958 15.4413 453.958 14.984C453.958 14.186 454.245 13.584 454.819 13.178C455.398 12.772 456.317 12.5597 457.577 12.541L458.662 12.513V12.023C458.662 11.6403 458.548 11.3417 458.319 11.127C458.095 10.9077 457.745 10.8003 457.269 10.805C456.915 10.8097 456.593 10.8937 456.303 11.057C456.014 11.2157 455.823 11.484 455.729 11.862H454.28C454.308 11.3673 454.451 10.9543 454.707 10.623C454.969 10.287 455.326 10.0373 455.778 9.874C456.231 9.706 456.754 9.622 457.346 9.622C458.037 9.622 458.599 9.713 459.033 9.895C459.467 10.077 459.787 10.3407 459.992 10.686C460.198 11.0267 460.3 11.4397 460.3 11.925V17H458.865L458.725 15.698C458.469 16.244 458.14 16.622 457.738 16.832C457.342 17.0373 456.887 17.14 456.373 17.14ZM456.926 15.985C457.136 15.985 457.344 15.9477 457.549 15.873C457.755 15.7937 457.939 15.6887 458.102 15.558C458.27 15.4227 458.403 15.2733 458.501 15.11C458.604 14.9467 458.658 14.7763 458.662 14.599V13.458L457.773 13.472C457.335 13.4767 456.95 13.5233 456.618 13.612C456.292 13.7007 456.037 13.843 455.855 14.039C455.673 14.2303 455.582 14.487 455.582 14.809C455.582 15.1777 455.711 15.467 455.967 15.677C456.224 15.8823 456.544 15.985 456.926 15.985ZM462.114 17V9.762H463.745V11.33C463.862 10.9707 464.028 10.665 464.242 10.413C464.462 10.1563 464.718 9.96033 465.012 9.825C465.306 9.68967 465.626 9.622 465.971 9.622C466.055 9.622 466.137 9.62667 466.216 9.636C466.296 9.64533 466.354 9.66167 466.391 9.685V11.316C466.34 11.2927 466.272 11.2763 466.188 11.267C466.109 11.2577 466.039 11.253 465.978 11.253C465.628 11.225 465.318 11.239 465.047 11.295C464.781 11.351 464.555 11.4467 464.368 11.582C464.186 11.7127 464.049 11.8807 463.955 12.086C463.862 12.2867 463.815 12.5223 463.815 12.793V17H462.114ZM467.747 17V9.762H469.378V11.33C469.495 10.9707 469.661 10.665 469.875 10.413C470.095 10.1563 470.351 9.96033 470.645 9.825C470.939 9.68967 471.259 9.622 471.604 9.622C471.688 9.622 471.77 9.62667 471.849 9.636C471.929 9.64533 471.987 9.66167 472.024 9.685V11.316C471.973 11.2927 471.905 11.2763 471.821 11.267C471.742 11.2577 471.672 11.253 471.611 11.253C471.261 11.225 470.951 11.239 470.68 11.295C470.414 11.351 470.188 11.4467 470.001 11.582C469.819 11.7127 469.682 11.8807 469.588 12.086C469.495 12.2867 469.448 12.5223 469.448 12.793V17H467.747ZM473.408 17V9.762H475.039V17H473.408ZM473.38 8.495V6.885H475.067V8.495H473.38ZM480.188 17.14C479.493 17.14 478.879 16.993 478.347 16.699C477.82 16.4003 477.407 15.9757 477.108 15.425C476.814 14.8743 476.667 14.2187 476.667 13.458C476.667 12.716 476.8 12.058 477.066 11.484C477.337 10.9053 477.727 10.4503 478.235 10.119C478.749 9.78767 479.367 9.622 480.09 9.622C480.804 9.622 481.404 9.77367 481.889 10.077C482.375 10.3803 482.743 10.805 482.995 11.351C483.247 11.8923 483.373 12.527 483.373 13.255V13.773H478.368C478.364 14.1837 478.429 14.5477 478.564 14.865C478.7 15.1823 478.9 15.432 479.166 15.614C479.432 15.7913 479.761 15.88 480.153 15.88C480.555 15.88 480.902 15.7913 481.196 15.614C481.495 15.432 481.693 15.1567 481.791 14.788H483.345C483.261 15.292 483.061 15.719 482.743 16.069C482.431 16.419 482.048 16.685 481.595 16.867C481.147 17.049 480.678 17.14 480.188 17.14ZM478.361 12.716H481.763C481.763 12.366 481.7 12.051 481.574 11.771C481.453 11.4863 481.269 11.2623 481.021 11.099C480.774 10.931 480.461 10.847 480.083 10.847C479.71 10.847 479.395 10.938 479.138 11.12C478.882 11.302 478.688 11.5377 478.557 11.827C478.427 12.1117 478.361 12.408 478.361 12.716ZM485.026 14.032V12.758L488.722 12.751V14.025L485.026 14.032ZM489.693 17L493.326 6.878H495.174L498.807 17H497.099L496.196 14.459H492.318L491.408 17H489.693ZM492.724 12.947H495.769L494.25 8.53L492.724 12.947ZM500.245 17V9.762H501.911V10.798C502.023 10.6113 502.175 10.4317 502.366 10.259C502.562 10.0863 502.803 9.94633 503.087 9.839C503.372 9.73167 503.706 9.678 504.088 9.678C504.536 9.678 504.952 9.76667 505.334 9.944C505.722 10.1213 506.032 10.399 506.265 10.777C506.503 11.155 506.622 11.6427 506.622 12.24V17H504.914V12.443C504.914 11.967 504.784 11.6147 504.522 11.386C504.261 11.1527 503.932 11.036 503.535 11.036C503.265 11.036 503.008 11.0827 502.765 11.176C502.523 11.2647 502.324 11.4023 502.17 11.589C502.021 11.771 501.946 11.9997 501.946 12.275V17H500.245ZM508.448 17V9.762H510.114V10.798C510.226 10.6113 510.378 10.4317 510.569 10.259C510.765 10.0863 511.006 9.94633 511.29 9.839C511.575 9.73167 511.909 9.678 512.291 9.678C512.739 9.678 513.155 9.76667 513.537 9.944C513.925 10.1213 514.235 10.399 514.468 10.777C514.706 11.155 514.825 11.6427 514.825 12.24V17H513.117V12.443C513.117 11.967 512.987 11.6147 512.725 11.386C512.464 11.1527 512.135 11.036 511.738 11.036C511.468 11.036 511.211 11.0827 510.968 11.176C510.726 11.2647 510.527 11.4023 510.373 11.589C510.224 11.771 510.149 11.9997 510.149 12.275V17H508.448ZM519.851 17.14C519.155 17.14 518.542 16.993 518.01 16.699C517.482 16.4003 517.069 15.9757 516.771 15.425C516.477 14.8743 516.33 14.2187 516.33 13.458C516.33 12.716 516.463 12.058 516.729 11.484C516.999 10.9053 517.389 10.4503 517.898 10.119C518.411 9.78767 519.029 9.622 519.753 9.622C520.467 9.622 521.066 9.77367 521.552 10.077C522.037 10.3803 522.406 10.805 522.658 11.351C522.91 11.8923 523.036 12.527 523.036 13.255V13.773H518.031C518.026 14.1837 518.091 14.5477 518.227 14.865C518.362 15.1823 518.563 15.432 518.829 15.614C519.095 15.7913 519.424 15.88 519.816 15.88C520.217 15.88 520.565 15.7913 520.859 15.614C521.157 15.432 521.356 15.1567 521.454 14.788H523.008C522.924 15.292 522.723 15.719 522.406 16.069C522.093 16.419 521.71 16.685 521.258 16.867C520.81 17.049 520.341 17.14 519.851 17.14ZM518.024 12.716H521.426C521.426 12.366 521.363 12.051 521.237 11.771C521.115 11.4863 520.931 11.2623 520.684 11.099C520.436 10.931 520.124 10.847 519.746 10.847C519.372 10.847 519.057 10.938 518.801 11.12C518.544 11.302 518.35 11.5377 518.22 11.827C518.089 12.1117 518.024 12.408 518.024 12.716ZM528.121 17V6.878H530.557L533.21 14.613L535.891 6.878H538.313V17H536.584V9.062L533.917 17H532.496L529.85 9.111V17H528.121ZM543.397 17.14C542.706 17.14 542.104 16.993 541.591 16.699C541.077 16.4003 540.678 15.9733 540.394 15.418C540.114 14.8627 539.974 14.1953 539.974 13.416C539.974 12.66 540.111 11.9973 540.387 11.428C540.662 10.8587 541.054 10.4153 541.563 10.098C542.076 9.78067 542.69 9.622 543.404 9.622C544.094 9.622 544.694 9.77367 545.203 10.077C545.711 10.3803 546.103 10.8143 546.379 11.379C546.659 11.9437 546.799 12.6227 546.799 13.416C546.799 14.1487 546.666 14.795 546.4 15.355C546.138 15.9103 545.753 16.3467 545.245 16.664C544.741 16.9813 544.125 17.14 543.397 17.14ZM543.404 15.845C543.796 15.845 544.118 15.7377 544.37 15.523C544.626 15.3083 544.818 15.0143 544.944 14.641C545.07 14.2677 545.133 13.843 545.133 13.367C545.133 12.9237 545.077 12.5153 544.965 12.142C544.853 11.7687 544.668 11.47 544.412 11.246C544.16 11.0173 543.824 10.903 543.404 10.903C543.007 10.903 542.678 11.008 542.417 11.218C542.16 11.4233 541.969 11.7127 541.843 12.086C541.717 12.4547 541.654 12.8817 541.654 13.367C541.654 13.8057 541.71 14.214 541.822 14.592C541.934 14.9653 542.118 15.2687 542.375 15.502C542.631 15.7307 542.974 15.845 543.404 15.845ZM551.101 17.14C550.597 17.14 550.119 17.0607 549.666 16.902C549.218 16.7387 548.84 16.4843 548.532 16.139C548.229 15.7937 548.038 15.348 547.958 14.802H549.456C549.522 15.068 549.636 15.285 549.799 15.453C549.967 15.621 550.163 15.7447 550.387 15.824C550.616 15.8987 550.852 15.936 551.094 15.936C551.528 15.936 551.878 15.8613 552.144 15.712C552.41 15.5627 552.543 15.3317 552.543 15.019C552.543 14.7903 552.469 14.6083 552.319 14.473C552.175 14.3377 551.937 14.235 551.605 14.165L550.233 13.85C549.617 13.7147 549.125 13.4907 548.756 13.178C548.388 12.8653 548.201 12.4243 548.196 11.855C548.192 11.4257 548.299 11.043 548.518 10.707C548.738 10.371 549.064 10.1073 549.498 9.916C549.932 9.72 550.467 9.622 551.101 9.622C551.946 9.622 552.623 9.811 553.131 10.189C553.645 10.5623 553.908 11.0967 553.922 11.792H552.473C552.422 11.4793 552.275 11.2367 552.032 11.064C551.79 10.8867 551.475 10.798 551.087 10.798C550.686 10.798 550.357 10.875 550.1 11.029C549.844 11.183 549.715 11.4187 549.715 11.736C549.715 11.9553 549.811 12.128 550.002 12.254C550.198 12.38 550.495 12.4873 550.891 12.576L552.193 12.891C552.567 12.9843 552.872 13.1103 553.11 13.269C553.348 13.4277 553.533 13.6027 553.663 13.794C553.799 13.9807 553.892 14.1743 553.943 14.375C553.999 14.571 554.027 14.753 554.027 14.921C554.027 15.3877 553.906 15.7867 553.663 16.118C553.425 16.4447 553.087 16.6967 552.648 16.874C552.214 17.0513 551.699 17.14 551.101 17.14ZM558.306 17.14C557.802 17.14 557.324 17.0607 556.871 16.902C556.423 16.7387 556.045 16.4843 555.737 16.139C555.434 15.7937 555.243 15.348 555.163 14.802H556.661C556.727 15.068 556.841 15.285 557.004 15.453C557.172 15.621 557.368 15.7447 557.592 15.824C557.821 15.8987 558.057 15.936 558.299 15.936C558.733 15.936 559.083 15.8613 559.349 15.712C559.615 15.5627 559.748 15.3317 559.748 15.019C559.748 14.7903 559.674 14.6083 559.524 14.473C559.38 14.3377 559.142 14.235 558.81 14.165L557.438 13.85C556.822 13.7147 556.33 13.4907 555.961 13.178C555.593 12.8653 555.406 12.4243 555.401 11.855C555.397 11.4257 555.504 11.043 555.723 10.707C555.943 10.371 556.269 10.1073 556.703 9.916C557.137 9.72 557.672 9.622 558.306 9.622C559.151 9.622 559.828 9.811 560.336 10.189C560.85 10.5623 561.113 11.0967 561.127 11.792H559.678C559.627 11.4793 559.48 11.2367 559.237 11.064C558.995 10.8867 558.68 10.798 558.292 10.798C557.891 10.798 557.562 10.875 557.305 11.029C557.049 11.183 556.92 11.4187 556.92 11.736C556.92 11.9553 557.016 12.128 557.207 12.254C557.403 12.38 557.7 12.4873 558.096 12.576L559.398 12.891C559.772 12.9843 560.077 13.1103 560.315 13.269C560.553 13.4277 560.738 13.6027 560.868 13.794C561.004 13.9807 561.097 14.1743 561.148 14.375C561.204 14.571 561.232 14.753 561.232 14.921C561.232 15.3877 561.111 15.7867 560.868 16.118C560.63 16.4447 560.292 16.6967 559.853 16.874C559.419 17.0513 558.904 17.14 558.306 17.14ZM563.076 10.497L562.607 6.878H564.462L563.972 10.497H563.076ZM400.059 41.14C399.597 41.14 399.182 41.056 398.813 40.888C398.449 40.7153 398.162 40.4703 397.952 40.153C397.747 39.831 397.644 39.4413 397.644 38.984C397.644 38.186 397.931 37.584 398.505 37.178C399.084 36.772 400.003 36.5597 401.263 36.541L402.348 36.513V36.023C402.348 35.6403 402.234 35.3417 402.005 35.127C401.781 34.9077 401.431 34.8003 400.955 34.805C400.6 34.8097 400.278 34.8937 399.989 35.057C399.7 35.2157 399.508 35.484 399.415 35.862H397.966C397.994 35.3673 398.136 34.9543 398.393 34.623C398.654 34.287 399.011 34.0373 399.464 33.874C399.917 33.706 400.439 33.622 401.032 33.622C401.723 33.622 402.285 33.713 402.719 33.895C403.153 34.077 403.473 34.3407 403.678 34.686C403.883 35.0267 403.986 35.4397 403.986 35.925V41H402.551L402.411 39.698C402.154 40.244 401.825 40.622 401.424 40.832C401.027 41.0373 400.572 41.14 400.059 41.14ZM400.612 39.985C400.822 39.985 401.03 39.9477 401.235 39.873C401.44 39.7937 401.625 39.6887 401.788 39.558C401.956 39.4227 402.089 39.2733 402.187 39.11C402.29 38.9467 402.343 38.7763 402.348 38.599V37.458L401.459 37.472C401.02 37.4767 400.635 37.5233 400.304 37.612C399.977 37.7007 399.723 37.843 399.541 38.039C399.359 38.2303 399.268 38.487 399.268 38.809C399.268 39.1777 399.396 39.467 399.653 39.677C399.91 39.8823 400.229 39.985 400.612 39.985ZM409.02 43.394C407.802 43.394 406.866 43.2307 406.213 42.904C405.56 42.5773 405.233 42.1293 405.233 41.56C405.233 41.3033 405.296 41.0887 405.422 40.916C405.548 40.7433 405.697 40.601 405.87 40.489C406.043 40.377 406.201 40.2907 406.346 40.23C406.491 40.1693 406.584 40.125 406.626 40.097C406.547 40.0503 406.442 39.9897 406.311 39.915C406.18 39.8403 406.061 39.7377 405.954 39.607C405.851 39.4763 405.8 39.306 405.8 39.096C405.8 38.8533 405.914 38.6293 406.143 38.424C406.376 38.2187 406.724 38.0717 407.186 37.983C406.733 37.7637 406.386 37.4673 406.143 37.094C405.9 36.7207 405.779 36.3333 405.779 35.932C405.779 35.456 405.917 35.0477 406.192 34.707C406.472 34.3663 406.859 34.105 407.354 33.923C407.849 33.741 408.425 33.65 409.083 33.65C409.564 33.65 409.963 33.7037 410.28 33.811C410.602 33.9183 410.901 34.063 411.176 34.245C411.269 34.2077 411.4 34.1563 411.568 34.091C411.736 34.021 411.92 33.9463 412.121 33.867C412.322 33.783 412.515 33.7037 412.702 33.629C412.889 33.5497 413.045 33.4843 413.171 33.433L413.164 34.84L411.911 35.064C411.972 35.1993 412.018 35.3463 412.051 35.505C412.088 35.6637 412.107 35.8037 412.107 35.925C412.107 36.345 411.988 36.7347 411.75 37.094C411.517 37.4487 411.164 37.7333 410.693 37.948C410.226 38.1627 409.643 38.27 408.943 38.27C408.873 38.27 408.777 38.2677 408.656 38.263C408.535 38.2583 408.437 38.2537 408.362 38.249C407.984 38.263 407.725 38.3073 407.585 38.382C407.445 38.4567 407.375 38.5383 407.375 38.627C407.375 38.753 407.48 38.837 407.69 38.879C407.9 38.921 408.236 38.9583 408.698 38.991C408.861 39.0003 409.076 39.012 409.342 39.026C409.608 39.04 409.904 39.0587 410.231 39.082C411.057 39.1333 411.682 39.341 412.107 39.705C412.532 40.0643 412.744 40.531 412.744 41.105C412.744 41.7723 412.436 42.3207 411.82 42.75C411.204 43.1793 410.271 43.394 409.02 43.394ZM409.307 42.393C409.918 42.393 410.371 42.309 410.665 42.141C410.959 41.973 411.106 41.7257 411.106 41.399C411.106 41.147 411.006 40.9417 410.805 40.783C410.604 40.6243 410.306 40.531 409.909 40.503L408.082 40.391C407.881 40.377 407.69 40.4143 407.508 40.503C407.331 40.587 407.186 40.706 407.074 40.86C406.962 41.0093 406.906 41.175 406.906 41.357C406.906 41.6977 407.1 41.9543 407.487 42.127C407.879 42.3043 408.486 42.393 409.307 42.393ZM408.999 37.269C409.442 37.269 409.802 37.157 410.077 36.933C410.352 36.7043 410.49 36.3823 410.49 35.967C410.49 35.5377 410.352 35.204 410.077 34.966C409.802 34.7233 409.442 34.602 408.999 34.602C408.546 34.602 408.18 34.7233 407.9 34.966C407.625 35.2087 407.487 35.5423 407.487 35.967C407.487 36.3683 407.62 36.6857 407.886 36.919C408.152 37.1523 408.523 37.269 408.999 37.269ZM417.558 41.14C416.862 41.14 416.249 40.993 415.717 40.699C415.189 40.4003 414.776 39.9757 414.478 39.425C414.184 38.8743 414.037 38.2187 414.037 37.458C414.037 36.716 414.17 36.058 414.436 35.484C414.706 34.9053 415.096 34.4503 415.605 34.119C416.118 33.7877 416.736 33.622 417.46 33.622C418.174 33.622 418.773 33.7737 419.259 34.077C419.744 34.3803 420.113 34.805 420.365 35.351C420.617 35.8923 420.743 36.527 420.743 37.255V37.773H415.738C415.733 38.1837 415.798 38.5477 415.934 38.865C416.069 39.1823 416.27 39.432 416.536 39.614C416.802 39.7913 417.131 39.88 417.523 39.88C417.924 39.88 418.272 39.7913 418.566 39.614C418.864 39.432 419.063 39.1567 419.161 38.788H420.715C420.631 39.292 420.43 39.719 420.113 40.069C419.8 40.419 419.417 40.685 418.965 40.867C418.517 41.049 418.048 41.14 417.558 41.14ZM415.731 36.716H419.133C419.133 36.366 419.07 36.051 418.944 35.771C418.822 35.4863 418.638 35.2623 418.391 35.099C418.143 34.931 417.831 34.847 417.453 34.847C417.079 34.847 416.764 34.938 416.508 35.12C416.251 35.302 416.057 35.5377 415.927 35.827C415.796 36.1117 415.731 36.408 415.731 36.716ZM422.132 35.932V33.986H424.057V35.932H422.132ZM422.132 40.958V39.026H424.057V40.958H422.132ZM432.85 41.154C432.206 41.154 431.606 41.049 431.051 40.839C430.5 40.6243 430.024 40.3303 429.623 39.957C429.226 39.5837 428.93 39.1567 428.734 38.676L430.113 37.948C430.286 38.2933 430.491 38.6037 430.729 38.879C430.972 39.1543 431.254 39.3713 431.576 39.53C431.903 39.684 432.276 39.761 432.696 39.761C433.354 39.761 433.881 39.579 434.278 39.215C434.679 38.8463 434.88 38.3563 434.88 37.745C434.88 37.367 434.787 37.031 434.6 36.737C434.418 36.443 434.168 36.2143 433.851 36.051C433.538 35.883 433.181 35.799 432.78 35.799C432.542 35.799 432.318 35.82 432.108 35.862C431.903 35.904 431.695 35.9833 431.485 36.1C431.275 36.212 431.049 36.3823 430.806 36.611C430.759 36.6343 430.724 36.646 430.701 36.646C430.682 36.6413 430.647 36.6273 430.596 36.604L429.287 36.072L429.749 30.878H436.042L435.979 32.299H431.135L430.904 35.113C431.263 34.861 431.625 34.679 431.989 34.567C432.353 34.455 432.754 34.399 433.193 34.399C433.837 34.399 434.423 34.525 434.95 34.777C435.477 35.029 435.897 35.4 436.21 35.89C436.523 36.38 436.679 36.9797 436.679 37.689C436.679 38.3983 436.52 39.012 436.203 39.53C435.89 40.048 435.447 40.4493 434.873 40.734C434.304 41.014 433.629 41.154 432.85 41.154ZM442.078 41.154C441.434 41.154 440.835 41.049 440.279 40.839C439.729 40.6243 439.253 40.3303 438.851 39.957C438.455 39.5837 438.158 39.1567 437.962 38.676L439.341 37.948C439.514 38.2933 439.719 38.6037 439.957 38.879C440.2 39.1543 440.482 39.3713 440.804 39.53C441.131 39.684 441.504 39.761 441.924 39.761C442.582 39.761 443.11 39.579 443.506 39.215C443.908 38.8463 444.108 38.3563 444.108 37.745C444.108 37.367 444.015 37.031 443.828 36.737C443.646 36.443 443.397 36.2143 443.079 36.051C442.767 35.883 442.41 35.799 442.008 35.799C441.77 35.799 441.546 35.82 441.336 35.862C441.131 35.904 440.923 35.9833 440.713 36.1C440.503 36.212 440.277 36.3823 440.034 36.611C439.988 36.6343 439.953 36.646 439.929 36.646C439.911 36.6413 439.876 36.6273 439.824 36.604L438.515 36.072L438.977 30.878H445.27L445.207 32.299H440.363L440.132 35.113C440.492 34.861 440.853 34.679 441.217 34.567C441.581 34.455 441.983 34.399 442.421 34.399C443.065 34.399 443.651 34.525 444.178 34.777C444.706 35.029 445.126 35.4 445.438 35.89C445.751 36.38 445.907 36.9797 445.907 37.689C445.907 38.3983 445.749 39.012 445.431 39.53C445.119 40.048 444.675 40.4493 444.101 40.734C443.532 41.014 442.858 41.154 442.078 41.154ZM400.059 65.14C399.597 65.14 399.182 65.056 398.813 64.888C398.449 64.7153 398.162 64.4703 397.952 64.153C397.747 63.831 397.644 63.4413 397.644 62.984C397.644 62.186 397.931 61.584 398.505 61.178C399.084 60.772 400.003 60.5597 401.263 60.541L402.348 60.513V60.023C402.348 59.6403 402.234 59.3417 402.005 59.127C401.781 58.9077 401.431 58.8003 400.955 58.805C400.6 58.8097 400.278 58.8937 399.989 59.057C399.7 59.2157 399.508 59.484 399.415 59.862H397.966C397.994 59.3673 398.136 58.9543 398.393 58.623C398.654 58.287 399.011 58.0373 399.464 57.874C399.917 57.706 400.439 57.622 401.032 57.622C401.723 57.622 402.285 57.713 402.719 57.895C403.153 58.077 403.473 58.3407 403.678 58.686C403.883 59.0267 403.986 59.4397 403.986 59.925V65H402.551L402.411 63.698C402.154 64.244 401.825 64.622 401.424 64.832C401.027 65.0373 400.572 65.14 400.059 65.14ZM400.612 63.985C400.822 63.985 401.03 63.9477 401.235 63.873C401.44 63.7937 401.625 63.6887 401.788 63.558C401.956 63.4227 402.089 63.2733 402.187 63.11C402.29 62.9467 402.343 62.7763 402.348 62.599V61.458L401.459 61.472C401.02 61.4767 400.635 61.5233 400.304 61.612C399.977 61.7007 399.723 61.843 399.541 62.039C399.359 62.2303 399.268 62.487 399.268 62.809C399.268 63.1777 399.396 63.467 399.653 63.677C399.91 63.8823 400.229 63.985 400.612 63.985ZM408.838 65.14C408.175 65.14 407.585 64.9953 407.067 64.706C406.554 64.412 406.15 63.9873 405.856 63.432C405.562 62.872 405.415 62.1977 405.415 61.409C405.415 60.6577 405.553 59.9997 405.828 59.435C406.108 58.8657 406.502 58.4223 407.011 58.105C407.524 57.783 408.133 57.622 408.838 57.622C409.403 57.622 409.9 57.734 410.329 57.958C410.758 58.182 411.101 58.4923 411.358 58.889C411.619 59.2857 411.776 59.736 411.827 60.24H410.378C410.341 60.0207 410.259 59.813 410.133 59.617C410.007 59.4163 409.837 59.2553 409.622 59.134C409.412 59.008 409.155 58.945 408.852 58.945C408.306 58.945 407.865 59.1457 407.529 59.547C407.193 59.9483 407.025 60.5643 407.025 61.395C407.025 62.1603 407.184 62.7693 407.501 63.222C407.823 63.6747 408.283 63.901 408.88 63.901C409.179 63.901 409.435 63.8357 409.65 63.705C409.865 63.5697 410.033 63.404 410.154 63.208C410.28 63.0073 410.359 62.8067 410.392 62.606H411.806C411.764 63.096 411.612 63.5323 411.351 63.915C411.09 64.2977 410.744 64.5987 410.315 64.818C409.886 65.0327 409.393 65.14 408.838 65.14ZM416.074 65.056C415.5 65.056 415.054 64.9813 414.737 64.832C414.424 64.678 414.207 64.461 414.086 64.181C413.965 63.901 413.904 63.5673 413.904 63.18V58.966H412.728V57.762H413.953L414.38 55.613H415.605V57.755H417.222V58.966H415.605L415.612 63.117C415.612 63.3317 415.635 63.4903 415.682 63.593C415.733 63.691 415.813 63.7563 415.92 63.789C416.032 63.817 416.179 63.831 416.361 63.831H417.257V64.909C417.159 64.9463 417.014 64.979 416.823 65.007C416.636 65.0397 416.387 65.056 416.074 65.056ZM418.857 65V57.762H420.488V65H418.857ZM418.829 56.495V54.885H420.516V56.495H418.829ZM424.399 65L421.725 57.762H423.286L425.022 62.83H425.113L426.842 57.762H428.41L425.743 65H424.399ZM432.638 65.14C431.942 65.14 431.329 64.993 430.797 64.699C430.269 64.4003 429.856 63.9757 429.558 63.425C429.264 62.8743 429.117 62.2187 429.117 61.458C429.117 60.716 429.25 60.058 429.516 59.484C429.786 58.9053 430.176 58.4503 430.685 58.119C431.198 57.7877 431.816 57.622 432.54 57.622C433.254 57.622 433.853 57.7737 434.339 58.077C434.824 58.3803 435.193 58.805 435.445 59.351C435.697 59.8923 435.823 60.527 435.823 61.255V61.773H430.818C430.813 62.1837 430.878 62.5477 431.014 62.865C431.149 63.1823 431.35 63.432 431.616 63.614C431.882 63.7913 432.211 63.88 432.603 63.88C433.004 63.88 433.352 63.7913 433.646 63.614C433.944 63.432 434.143 63.1567 434.241 62.788H435.795C435.711 63.292 435.51 63.719 435.193 64.069C434.88 64.419 434.497 64.685 434.045 64.867C433.597 65.049 433.128 65.14 432.638 65.14ZM430.811 60.716H434.213C434.213 60.366 434.15 60.051 434.024 59.771C433.902 59.4863 433.718 59.2623 433.471 59.099C433.223 58.931 432.911 58.847 432.533 58.847C432.159 58.847 431.844 58.938 431.588 59.12C431.331 59.302 431.137 59.5377 431.007 59.827C430.876 60.1117 430.811 60.408 430.811 60.716ZM437.212 59.932V57.986H439.137V59.932H437.212ZM437.212 64.958V63.026H439.137V64.958H437.212ZM447.041 65.056C446.467 65.056 446.021 64.9813 445.704 64.832C445.391 64.678 445.174 64.461 445.053 64.181C444.932 63.901 444.871 63.5673 444.871 63.18V58.966H443.695V57.762H444.92L445.347 55.613H446.572V57.755H448.189V58.966H446.572L446.579 63.117C446.579 63.3317 446.602 63.4903 446.649 63.593C446.7 63.691 446.78 63.7563 446.887 63.789C446.999 63.817 447.146 63.831 447.328 63.831H448.224V64.909C448.126 64.9463 447.981 64.979 447.79 65.007C447.603 65.0397 447.354 65.056 447.041 65.056ZM449.796 65V57.762H451.427V59.33C451.544 58.9707 451.709 58.665 451.924 58.413C452.143 58.1563 452.4 57.9603 452.694 57.825C452.988 57.6897 453.308 57.622 453.653 57.622C453.737 57.622 453.819 57.6267 453.898 57.636C453.977 57.6453 454.036 57.6617 454.073 57.685V59.316C454.022 59.2927 453.954 59.2763 453.87 59.267C453.791 59.2577 453.721 59.253 453.66 59.253C453.31 59.225 453 59.239 452.729 59.295C452.463 59.351 452.237 59.4467 452.05 59.582C451.868 59.7127 451.73 59.8807 451.637 60.086C451.544 60.2867 451.497 60.5223 451.497 60.793V65H449.796ZM458.089 65.14C457.734 65.14 457.391 65.0887 457.06 64.986C456.733 64.8787 456.439 64.7247 456.178 64.524C455.917 64.3187 455.709 64.0667 455.555 63.768C455.401 63.4693 455.324 63.1217 455.324 62.725V57.762H457.032V62.529C457.032 62.921 457.156 63.243 457.403 63.495C457.655 63.747 458.033 63.873 458.537 63.873C458.994 63.873 459.361 63.754 459.636 63.516C459.911 63.2733 460.049 62.9257 460.049 62.473V57.762H461.743V65H460.434L460.245 63.586C460.156 63.9827 460 64.2953 459.776 64.524C459.557 64.748 459.298 64.9067 458.999 65C458.705 65.0933 458.402 65.14 458.089 65.14ZM466.872 65.14C466.177 65.14 465.563 64.993 465.031 64.699C464.504 64.4003 464.091 63.9757 463.792 63.425C463.498 62.8743 463.351 62.2187 463.351 61.458C463.351 60.716 463.484 60.058 463.75 59.484C464.021 58.9053 464.41 58.4503 464.919 58.119C465.432 57.7877 466.051 57.622 466.774 57.622C467.488 57.622 468.088 57.7737 468.573 58.077C469.058 58.3803 469.427 58.805 469.679 59.351C469.931 59.8923 470.057 60.527 470.057 61.255V61.773H465.052C465.047 62.1837 465.113 62.5477 465.248 62.865C465.383 63.1823 465.584 63.432 465.85 63.614C466.116 63.7913 466.445 63.88 466.837 63.88C467.238 63.88 467.586 63.7913 467.88 63.614C468.179 63.432 468.377 63.1567 468.475 62.788H470.029C469.945 63.292 469.744 63.719 469.427 64.069C469.114 64.419 468.732 64.685 468.279 64.867C467.831 65.049 467.362 65.14 466.872 65.14ZM465.045 60.716H468.447C468.447 60.366 468.384 60.051 468.258 59.771C468.137 59.4863 467.952 59.2623 467.705 59.099C467.458 58.931 467.145 58.847 466.767 58.847C466.394 58.847 466.079 58.938 465.822 59.12C465.565 59.302 465.372 59.5377 465.241 59.827C465.11 60.1117 465.045 60.408 465.045 60.716Z" fill="black" style="fill:black;fill-opacity:1;"/>
</svg>
