<svg width="706" height="212" viewBox="0 0 706 212" fill="none" xmlns="http://www.w3.org/2000/svg">
<path d="M0 64C0 28.6538 28.6538 0 64 0C99.3462 0 128 28.6538 128 64C128 99.3462 99.3462 128 64 128C28.6538 128 0 99.3462 0 64Z" fill="#F16767" style="fill:#F16767;fill:color(display-p3 0.9451 0.4039 0.4039);fill-opacity:1;"/>
<path d="M42.7237 61V50.878H46.1467C46.8701 50.878 47.5141 50.9993 48.0787 51.242C48.6434 51.4847 49.0867 51.844 49.4087 52.32C49.7354 52.796 49.8987 53.3817 49.8987 54.077C49.8987 54.749 49.7471 55.323 49.4437 55.799C49.1451 56.275 48.7274 56.6367 48.1907 56.884C47.6541 57.1313 47.0311 57.255 46.3217 57.255H44.0537V61H42.7237ZM44.0467 56.163H46.2937C46.9891 56.163 47.5537 55.9693 47.9877 55.582C48.4217 55.1947 48.6387 54.6673 48.6387 54C48.6387 53.328 48.4147 52.8193 47.9667 52.474C47.5187 52.1287 46.9401 51.956 46.2307 51.956H44.0467V56.163ZM54.3077 61.14C53.6357 61.14 53.0431 60.993 52.5297 60.699C52.0164 60.405 51.6151 59.9827 51.3257 59.432C51.0364 58.8813 50.8917 58.221 50.8917 57.451C50.8917 56.6903 51.0224 56.023 51.2837 55.449C51.5451 54.875 51.9231 54.427 52.4177 54.105C52.9171 53.783 53.5167 53.622 54.2167 53.622C54.8981 53.622 55.4744 53.769 55.9457 54.063C56.4171 54.357 56.7741 54.7723 57.0167 55.309C57.2641 55.841 57.3877 56.4733 57.3877 57.206V57.682H52.2007C52.2007 58.1393 52.2754 58.5547 52.4247 58.928C52.5787 59.2967 52.8097 59.5907 53.1177 59.81C53.4257 60.0293 53.8154 60.139 54.2867 60.139C54.7487 60.139 55.1454 60.0317 55.4767 59.817C55.8127 59.6023 56.0274 59.292 56.1207 58.886H57.3387C57.2547 59.376 57.0587 59.789 56.7507 60.125C56.4474 60.461 56.0811 60.7153 55.6517 60.888C55.2271 61.056 54.7791 61.14 54.3077 61.14ZM52.2077 56.807H56.1417C56.1417 56.3917 56.0717 56.0183 55.9317 55.687C55.7917 55.351 55.5771 55.0873 55.2877 54.896C55.0031 54.7 54.6437 54.602 54.2097 54.602C53.7571 54.602 53.3814 54.7117 53.0827 54.931C52.7841 55.1457 52.5624 55.4233 52.4177 55.764C52.2731 56.1 52.2031 56.4477 52.2077 56.807ZM59.1784 61V53.762H60.4104V55.155C60.5318 54.8097 60.7021 54.525 60.9214 54.301C61.1408 54.0723 61.3904 53.902 61.6704 53.79C61.9551 53.678 62.2491 53.622 62.5524 53.622C62.6598 53.622 62.7648 53.629 62.8674 53.643C62.9701 53.657 63.0494 53.6803 63.1054 53.713V54.966C63.0354 54.9333 62.9444 54.9123 62.8324 54.903C62.7251 54.889 62.6341 54.882 62.5594 54.882C62.2701 54.8633 61.9994 54.882 61.7474 54.938C61.4954 54.9893 61.2738 55.0803 61.0824 55.211C60.8911 55.3417 60.7394 55.5143 60.6274 55.729C60.5201 55.939 60.4664 56.1957 60.4664 56.499V61H59.1784ZM67.2102 61.14C66.7062 61.14 66.2372 61.063 65.8032 60.909C65.3738 60.7503 65.0168 60.5053 64.7322 60.174C64.4475 59.838 64.2702 59.411 64.2002 58.893H65.3762C65.4368 59.1777 65.5535 59.4157 65.7262 59.607C65.8988 59.7937 66.1112 59.936 66.3632 60.034C66.6198 60.1273 66.8998 60.174 67.2032 60.174C67.6932 60.174 68.0875 60.083 68.3862 59.901C68.6848 59.719 68.8342 59.439 68.8342 59.061C68.8342 58.795 68.7548 58.5827 68.5962 58.424C68.4422 58.2607 68.1995 58.1417 67.8682 58.067L66.3702 57.696C65.7868 57.556 65.3202 57.3367 64.9702 57.038C64.6248 56.7393 64.4498 56.3217 64.4452 55.785C64.4452 55.3603 64.5478 54.987 64.7532 54.665C64.9585 54.343 65.2642 54.0887 65.6702 53.902C66.0808 53.7153 66.5918 53.622 67.2032 53.622C67.9918 53.622 68.6265 53.7993 69.1072 54.154C69.5878 54.504 69.8398 55.0197 69.8632 55.701H68.7152C68.6685 55.3557 68.5145 55.0827 68.2532 54.882C67.9918 54.6767 67.6372 54.574 67.1892 54.574C66.7318 54.574 66.3562 54.6673 66.0622 54.854C65.7728 55.036 65.6282 55.3207 65.6282 55.708C65.6282 55.9647 65.7308 56.1677 65.9362 56.317C66.1462 56.4617 66.4495 56.583 66.8462 56.681L68.3022 57.045C68.6335 57.1337 68.9088 57.2503 69.1282 57.395C69.3475 57.5397 69.5202 57.7007 69.6462 57.878C69.7722 58.0553 69.8608 58.242 69.9122 58.438C69.9682 58.6293 69.9962 58.8137 69.9962 58.991C69.9962 59.4343 69.8865 59.817 69.6672 60.139C69.4478 60.4563 69.1305 60.7037 68.7152 60.881C68.2998 61.0537 67.7982 61.14 67.2102 61.14ZM74.5862 61.14C73.9189 61.14 73.3355 60.9977 72.8362 60.713C72.3415 60.4237 71.9565 60.0013 71.6812 59.446C71.4059 58.8907 71.2682 58.2117 71.2682 57.409C71.2682 56.653 71.3965 55.9903 71.6532 55.421C71.9099 54.8517 72.2855 54.4107 72.7802 54.098C73.2749 53.7807 73.8792 53.622 74.5932 53.622C75.2605 53.622 75.8392 53.769 76.3292 54.063C76.8192 54.3523 77.1995 54.7793 77.4702 55.344C77.7455 55.9087 77.8832 56.597 77.8832 57.409C77.8832 58.1463 77.7572 58.795 77.5052 59.355C77.2532 59.915 76.8822 60.3537 76.3922 60.671C75.9069 60.9837 75.3049 61.14 74.5862 61.14ZM74.5932 60.118C75.0225 60.118 75.3865 60.0083 75.6852 59.789C75.9839 59.5697 76.2102 59.2547 76.3642 58.844C76.5229 58.4333 76.6022 57.9457 76.6022 57.381C76.6022 56.863 76.5322 56.3987 76.3922 55.988C76.2569 55.5727 76.0422 55.2437 75.7482 55.001C75.4542 54.7583 75.0692 54.637 74.5932 54.637C74.1545 54.637 73.7835 54.7467 73.4802 54.966C73.1769 55.1807 72.9459 55.4933 72.7872 55.904C72.6332 56.3147 72.5562 56.807 72.5562 57.381C72.5562 57.8897 72.6239 58.3517 72.7592 58.767C72.8992 59.1823 73.1185 59.5113 73.4172 59.754C73.7205 59.9967 74.1125 60.118 74.5932 60.118ZM79.6042 61V53.762H80.8572V54.812C80.9739 54.6113 81.1349 54.4223 81.3402 54.245C81.5502 54.0677 81.8022 53.9253 82.0962 53.818C82.3949 53.7107 82.7379 53.657 83.1252 53.657C83.5825 53.657 84.0025 53.748 84.3852 53.93C84.7725 54.112 85.0805 54.3967 85.3092 54.784C85.5425 55.1667 85.6592 55.6613 85.6592 56.268V61H84.3642V56.394C84.3642 55.8293 84.2149 55.4117 83.9162 55.141C83.6222 54.8657 83.2395 54.728 82.7682 54.728C82.4415 54.728 82.1359 54.7817 81.8512 54.889C81.5665 54.9917 81.3355 55.1503 81.1582 55.365C80.9809 55.575 80.8922 55.841 80.8922 56.163V61H79.6042ZM46.746 77L50.407 66.878H51.87L55.531 77H54.208L53.214 74.228H49.063L48.062 77H46.746ZM49.406 73.038H52.857L51.135 68.145L49.406 73.038ZM59.8961 77.14C59.2428 77.14 58.6641 76.9977 58.1601 76.713C57.6608 76.4283 57.2688 76.0083 56.9841 75.453C56.7041 74.8977 56.5641 74.2163 56.5641 73.409C56.5641 72.653 56.6924 71.9927 56.9491 71.428C57.2104 70.8587 57.5884 70.4153 58.0831 70.098C58.5824 69.7807 59.1868 69.622 59.8961 69.622C60.4141 69.622 60.8784 69.7223 61.2891 69.923C61.7044 70.119 62.0451 70.399 62.3111 70.763C62.5771 71.127 62.7404 71.5563 62.8011 72.051H61.6531C61.6111 71.799 61.5131 71.568 61.3591 71.358C61.2098 71.148 61.0114 70.98 60.7641 70.854C60.5214 70.728 60.2344 70.665 59.9031 70.665C59.2824 70.665 58.7761 70.889 58.3841 71.337C57.9968 71.785 57.8031 72.471 57.8031 73.395C57.8031 74.2303 57.9804 74.9 58.3351 75.404C58.6944 75.9033 59.2218 76.153 59.9171 76.153C60.2484 76.153 60.5378 76.09 60.7851 75.964C61.0324 75.8333 61.2308 75.663 61.3801 75.453C61.5294 75.2383 61.6251 75.0097 61.6671 74.767H62.7941C62.7334 75.2523 62.5678 75.6723 62.2971 76.027C62.0311 76.3817 61.6904 76.657 61.2751 76.853C60.8644 77.0443 60.4048 77.14 59.8961 77.14ZM66.9242 77.035C66.4249 77.035 66.0375 76.9673 65.7622 76.832C65.4869 76.6967 65.2932 76.496 65.1812 76.23C65.0739 75.964 65.0202 75.6373 65.0202 75.25V70.707H63.8442V69.762H65.0552L65.3702 67.655H66.3222V69.755H67.9532V70.707H66.3222V75.208C66.3222 75.4647 66.3479 75.6537 66.3992 75.775C66.4552 75.8917 66.5462 75.9663 66.6722 75.999C66.7982 76.0317 66.9755 76.048 67.2042 76.048H67.9952V76.916C67.9065 76.9487 67.7712 76.9767 67.5892 77C67.4119 77.0233 67.1902 77.035 66.9242 77.035ZM72.4192 77.14C71.7519 77.14 71.1685 76.9977 70.6692 76.713C70.1745 76.4237 69.7895 76.0013 69.5142 75.446C69.2389 74.8907 69.1012 74.2117 69.1012 73.409C69.1012 72.653 69.2295 71.9903 69.4862 71.421C69.7429 70.8517 70.1185 70.4107 70.6132 70.098C71.1079 69.7807 71.7122 69.622 72.4262 69.622C73.0935 69.622 73.6722 69.769 74.1622 70.063C74.6522 70.3523 75.0325 70.7793 75.3032 71.344C75.5785 71.9087 75.7162 72.597 75.7162 73.409C75.7162 74.1463 75.5902 74.795 75.3382 75.355C75.0862 75.915 74.7152 76.3537 74.2252 76.671C73.7399 76.9837 73.1379 77.14 72.4192 77.14ZM72.4262 76.118C72.8555 76.118 73.2195 76.0083 73.5182 75.789C73.8169 75.5697 74.0432 75.2547 74.1972 74.844C74.3559 74.4333 74.4352 73.9457 74.4352 73.381C74.4352 72.863 74.3652 72.3987 74.2252 71.988C74.0899 71.5727 73.8752 71.2437 73.5812 71.001C73.2872 70.7583 72.9022 70.637 72.4262 70.637C71.9875 70.637 71.6165 70.7467 71.3132 70.966C71.0099 71.1807 70.7789 71.4933 70.6202 71.904C70.4662 72.3147 70.3892 72.807 70.3892 73.381C70.3892 73.8897 70.4569 74.3517 70.5922 74.767C70.7322 75.1823 70.9515 75.5113 71.2502 75.754C71.5535 75.9967 71.9455 76.118 72.4262 76.118ZM77.4372 77V69.762H78.6692V71.155C78.7905 70.8097 78.9609 70.525 79.1802 70.301C79.3995 70.0723 79.6492 69.902 79.9292 69.79C80.2139 69.678 80.5079 69.622 80.8112 69.622C80.9185 69.622 81.0235 69.629 81.1262 69.643C81.2289 69.657 81.3082 69.6803 81.3642 69.713V70.966C81.2942 70.9333 81.2032 70.9123 81.0912 70.903C80.9839 70.889 80.8929 70.882 80.8182 70.882C80.5289 70.8633 80.2582 70.882 80.0062 70.938C79.7542 70.9893 79.5325 71.0803 79.3412 71.211C79.1499 71.3417 78.9982 71.5143 78.8862 71.729C78.7789 71.939 78.7252 72.1957 78.7252 72.499V77H77.4372Z" fill="white" style="fill:white;fill-opacity:1;"/>
<path d="M295 64C295 28.6538 323.654 0 359 0C394.346 0 423 28.6538 423 64C423 99.3462 394.346 128 359 128C323.654 128 295 99.3462 295 64Z" fill="#56C7E4" style="fill:#56C7E4;fill:color(display-p3 0.3373 0.7804 0.8941);fill-opacity:1;"/>
<path d="M341.066 69V58.878H342.858L345.91 67.236L349.004 58.878H350.789V69H349.452V60.817L346.519 69H345.308L342.396 60.894V69H341.066ZM356.003 69.14C355.336 69.14 354.753 68.9977 354.253 68.713C353.759 68.4237 353.374 68.0013 353.098 67.446C352.823 66.8907 352.685 66.2117 352.685 65.409C352.685 64.653 352.814 63.9903 353.07 63.421C353.327 62.8517 353.703 62.4107 354.197 62.098C354.692 61.7807 355.296 61.622 356.01 61.622C356.678 61.622 357.256 61.769 357.746 62.063C358.236 62.3523 358.617 62.7793 358.887 63.344C359.163 63.9087 359.3 64.597 359.3 65.409C359.3 66.1463 359.174 66.795 358.922 67.355C358.67 67.915 358.299 68.3537 357.809 68.671C357.324 68.9837 356.722 69.14 356.003 69.14ZM356.01 68.118C356.44 68.118 356.804 68.0083 357.102 67.789C357.401 67.5697 357.627 67.2547 357.781 66.844C357.94 66.4333 358.019 65.9457 358.019 65.381C358.019 64.863 357.949 64.3987 357.809 63.988C357.674 63.5727 357.459 63.2437 357.165 63.001C356.871 62.7583 356.486 62.637 356.01 62.637C355.572 62.637 355.201 62.7467 354.897 62.966C354.594 63.1807 354.363 63.4933 354.204 63.904C354.05 64.3147 353.973 64.807 353.973 65.381C353.973 65.8897 354.041 66.3517 354.176 66.767C354.316 67.1823 354.536 67.5113 354.834 67.754C355.138 67.9967 355.53 68.118 356.01 68.118ZM362.76 69L360.142 61.762H361.36L363.285 67.376H363.404L365.336 61.762H366.547L363.943 69H362.76ZM367.988 69V61.762H369.241V69H367.988ZM367.953 60.229V58.885H369.276V60.229H367.953ZM374.471 69.14C373.799 69.14 373.206 68.993 372.693 68.699C372.179 68.405 371.778 67.9827 371.489 67.432C371.199 66.8813 371.055 66.221 371.055 65.451C371.055 64.6903 371.185 64.023 371.447 63.449C371.708 62.875 372.086 62.427 372.581 62.105C373.08 61.783 373.68 61.622 374.38 61.622C375.061 61.622 375.637 61.769 376.109 62.063C376.58 62.357 376.937 62.7723 377.18 63.309C377.427 63.841 377.551 64.4733 377.551 65.206V65.682H372.364C372.364 66.1393 372.438 66.5547 372.588 66.928C372.742 67.2967 372.973 67.5907 373.281 67.81C373.589 68.0293 373.978 68.139 374.45 68.139C374.912 68.139 375.308 68.0317 375.64 67.817C375.976 67.6023 376.19 67.292 376.284 66.886H377.502C377.418 67.376 377.222 67.789 376.914 68.125C376.61 68.461 376.244 68.7153 375.815 68.888C375.39 69.056 374.942 69.14 374.471 69.14ZM372.371 64.807H376.305C376.305 64.3917 376.235 64.0183 376.095 63.687C375.955 63.351 375.74 63.0873 375.451 62.896C375.166 62.7 374.807 62.602 374.373 62.602C373.92 62.602 373.544 62.7117 373.246 62.931C372.947 63.1457 372.725 63.4233 372.581 63.764C372.436 64.1 372.366 64.4477 372.371 64.807Z" fill="#1A1B1D" style="fill:#1A1B1D;fill:color(display-p3 0.1020 0.1059 0.1137);fill-opacity:1;"/>
<path d="M578 64C578 28.6538 606.654 0 642 0C677.346 0 706 28.6538 706 64C706 99.3462 677.346 128 642 128C606.654 128 578 99.3462 578 64Z" fill="#F16767" style="fill:#F16767;fill:color(display-p3 0.9451 0.4039 0.4039);fill-opacity:1;"/>
<path d="M620.724 61V50.878H624.147C624.87 50.878 625.514 50.9993 626.079 51.242C626.643 51.4847 627.087 51.844 627.409 52.32C627.735 52.796 627.899 53.3817 627.899 54.077C627.899 54.749 627.747 55.323 627.444 55.799C627.145 56.275 626.727 56.6367 626.191 56.884C625.654 57.1313 625.031 57.255 624.322 57.255H622.054V61H620.724ZM622.047 56.163H624.294C624.989 56.163 625.554 55.9693 625.988 55.582C626.422 55.1947 626.639 54.6673 626.639 54C626.639 53.328 626.415 52.8193 625.967 52.474C625.519 52.1287 624.94 51.956 624.231 51.956H622.047V56.163ZM632.308 61.14C631.636 61.14 631.043 60.993 630.53 60.699C630.016 60.405 629.615 59.9827 629.326 59.432C629.036 58.8813 628.892 58.221 628.892 57.451C628.892 56.6903 629.022 56.023 629.284 55.449C629.545 54.875 629.923 54.427 630.418 54.105C630.917 53.783 631.517 53.622 632.217 53.622C632.898 53.622 633.474 53.769 633.946 54.063C634.417 54.357 634.774 54.7723 635.017 55.309C635.264 55.841 635.388 56.4733 635.388 57.206V57.682H630.201C630.201 58.1393 630.275 58.5547 630.425 58.928C630.579 59.2967 630.81 59.5907 631.118 59.81C631.426 60.0293 631.815 60.139 632.287 60.139C632.749 60.139 633.145 60.0317 633.477 59.817C633.813 59.6023 634.027 59.292 634.121 58.886H635.339C635.255 59.376 635.059 59.789 634.751 60.125C634.447 60.461 634.081 60.7153 633.652 60.888C633.227 61.056 632.779 61.14 632.308 61.14ZM630.208 56.807H634.142C634.142 56.3917 634.072 56.0183 633.932 55.687C633.792 55.351 633.577 55.0873 633.288 54.896C633.003 54.7 632.644 54.602 632.21 54.602C631.757 54.602 631.381 54.7117 631.083 54.931C630.784 55.1457 630.562 55.4233 630.418 55.764C630.273 56.1 630.203 56.4477 630.208 56.807ZM637.178 61V53.762H638.41V55.155C638.532 54.8097 638.702 54.525 638.921 54.301C639.141 54.0723 639.39 53.902 639.67 53.79C639.955 53.678 640.249 53.622 640.552 53.622C640.66 53.622 640.765 53.629 640.867 53.643C640.97 53.657 641.049 53.6803 641.105 53.713V54.966C641.035 54.9333 640.944 54.9123 640.832 54.903C640.725 54.889 640.634 54.882 640.559 54.882C640.27 54.8633 639.999 54.882 639.747 54.938C639.495 54.9893 639.274 55.0803 639.082 55.211C638.891 55.3417 638.739 55.5143 638.627 55.729C638.52 55.939 638.466 56.1957 638.466 56.499V61H637.178ZM645.21 61.14C644.706 61.14 644.237 61.063 643.803 60.909C643.374 60.7503 643.017 60.5053 642.732 60.174C642.447 59.838 642.27 59.411 642.2 58.893H643.376C643.437 59.1777 643.553 59.4157 643.726 59.607C643.899 59.7937 644.111 59.936 644.363 60.034C644.62 60.1273 644.9 60.174 645.203 60.174C645.693 60.174 646.087 60.083 646.386 59.901C646.685 59.719 646.834 59.439 646.834 59.061C646.834 58.795 646.755 58.5827 646.596 58.424C646.442 58.2607 646.199 58.1417 645.868 58.067L644.37 57.696C643.787 57.556 643.32 57.3367 642.97 57.038C642.625 56.7393 642.45 56.3217 642.445 55.785C642.445 55.3603 642.548 54.987 642.753 54.665C642.958 54.343 643.264 54.0887 643.67 53.902C644.081 53.7153 644.592 53.622 645.203 53.622C645.992 53.622 646.626 53.7993 647.107 54.154C647.588 54.504 647.84 55.0197 647.863 55.701H646.715C646.668 55.3557 646.514 55.0827 646.253 54.882C645.992 54.6767 645.637 54.574 645.189 54.574C644.732 54.574 644.356 54.6673 644.062 54.854C643.773 55.036 643.628 55.3207 643.628 55.708C643.628 55.9647 643.731 56.1677 643.936 56.317C644.146 56.4617 644.449 56.583 644.846 56.681L646.302 57.045C646.633 57.1337 646.909 57.2503 647.128 57.395C647.347 57.5397 647.52 57.7007 647.646 57.878C647.772 58.0553 647.861 58.242 647.912 58.438C647.968 58.6293 647.996 58.8137 647.996 58.991C647.996 59.4343 647.886 59.817 647.667 60.139C647.448 60.4563 647.13 60.7037 646.715 60.881C646.3 61.0537 645.798 61.14 645.21 61.14ZM652.586 61.14C651.919 61.14 651.336 60.9977 650.836 60.713C650.342 60.4237 649.957 60.0013 649.681 59.446C649.406 58.8907 649.268 58.2117 649.268 57.409C649.268 56.653 649.397 55.9903 649.653 55.421C649.91 54.8517 650.286 54.4107 650.78 54.098C651.275 53.7807 651.879 53.622 652.593 53.622C653.261 53.622 653.839 53.769 654.329 54.063C654.819 54.3523 655.2 54.7793 655.47 55.344C655.746 55.9087 655.883 56.597 655.883 57.409C655.883 58.1463 655.757 58.795 655.505 59.355C655.253 59.915 654.882 60.3537 654.392 60.671C653.907 60.9837 653.305 61.14 652.586 61.14ZM652.593 60.118C653.023 60.118 653.387 60.0083 653.685 59.789C653.984 59.5697 654.21 59.2547 654.364 58.844C654.523 58.4333 654.602 57.9457 654.602 57.381C654.602 56.863 654.532 56.3987 654.392 55.988C654.257 55.5727 654.042 55.2437 653.748 55.001C653.454 54.7583 653.069 54.637 652.593 54.637C652.155 54.637 651.784 54.7467 651.48 54.966C651.177 55.1807 650.946 55.4933 650.787 55.904C650.633 56.3147 650.556 56.807 650.556 57.381C650.556 57.8897 650.624 58.3517 650.759 58.767C650.899 59.1823 651.119 59.5113 651.417 59.754C651.721 59.9967 652.113 60.118 652.593 60.118ZM657.604 61V53.762H658.857V54.812C658.974 54.6113 659.135 54.4223 659.34 54.245C659.55 54.0677 659.802 53.9253 660.096 53.818C660.395 53.7107 660.738 53.657 661.125 53.657C661.583 53.657 662.003 53.748 662.385 53.93C662.773 54.112 663.081 54.3967 663.309 54.784C663.543 55.1667 663.659 55.6613 663.659 56.268V61H662.364V56.394C662.364 55.8293 662.215 55.4117 661.916 55.141C661.622 54.8657 661.24 54.728 660.768 54.728C660.442 54.728 660.136 54.7817 659.851 54.889C659.567 54.9917 659.336 55.1503 659.158 55.365C658.981 55.575 658.892 55.841 658.892 56.163V61H657.604ZM617.108 77V66.878C617.14 66.878 617.238 66.8803 617.402 66.885C617.57 66.885 617.773 66.885 618.011 66.885C618.249 66.8803 618.496 66.8803 618.753 66.885C619.009 66.885 619.245 66.8873 619.46 66.892C620.701 66.9107 621.707 67.1137 622.477 67.501C623.251 67.8837 623.818 68.4413 624.178 69.174C624.542 69.9067 624.724 70.8073 624.724 71.876C624.724 72.996 624.528 73.9363 624.136 74.697C623.748 75.4577 623.156 76.0317 622.358 76.419C621.564 76.8063 620.554 77 619.327 77H617.108ZM618.438 75.887H619.327C620.162 75.887 620.881 75.7587 621.483 75.502C622.085 75.2407 622.547 74.8183 622.869 74.235C623.195 73.6517 623.359 72.8723 623.359 71.897C623.359 70.9217 623.2 70.1493 622.883 69.58C622.57 69.0107 622.117 68.6047 621.525 68.362C620.932 68.1147 620.218 67.991 619.383 67.991H618.438V75.887ZM626.584 77V69.762H627.837V77H626.584ZM626.549 68.229V66.885H627.872V68.229H626.549ZM630.09 77V69.762H631.322V71.155C631.443 70.8097 631.613 70.525 631.833 70.301C632.052 70.0723 632.302 69.902 632.582 69.79C632.866 69.678 633.16 69.622 633.464 69.622C633.571 69.622 633.676 69.629 633.779 69.643C633.881 69.657 633.961 69.6803 634.017 69.713V70.966C633.947 70.9333 633.856 70.9123 633.744 70.903C633.636 70.889 633.545 70.882 633.471 70.882C633.181 70.8633 632.911 70.882 632.659 70.938C632.407 70.9893 632.185 71.0803 631.994 71.211C631.802 71.3417 631.651 71.5143 631.539 71.729C631.431 71.939 631.378 72.1957 631.378 72.499V77H630.09ZM638.508 77.14C637.836 77.14 637.243 76.993 636.73 76.699C636.217 76.405 635.815 75.9827 635.526 75.432C635.237 74.8813 635.092 74.221 635.092 73.451C635.092 72.6903 635.223 72.023 635.484 71.449C635.745 70.875 636.123 70.427 636.618 70.105C637.117 69.783 637.717 69.622 638.417 69.622C639.098 69.622 639.675 69.769 640.146 70.063C640.617 70.357 640.974 70.7723 641.217 71.309C641.464 71.841 641.588 72.4733 641.588 73.206V73.682H636.401C636.401 74.1393 636.476 74.5547 636.625 74.928C636.779 75.2967 637.01 75.5907 637.318 75.81C637.626 76.0293 638.016 76.139 638.487 76.139C638.949 76.139 639.346 76.0317 639.677 75.817C640.013 75.6023 640.228 75.292 640.321 74.886H641.539C641.455 75.376 641.259 75.789 640.951 76.125C640.648 76.461 640.281 76.7153 639.852 76.888C639.427 77.056 638.979 77.14 638.508 77.14ZM636.408 72.807H640.342C640.342 72.3917 640.272 72.0183 640.132 71.687C639.992 71.351 639.777 71.0873 639.488 70.896C639.203 70.7 638.844 70.602 638.41 70.602C637.957 70.602 637.582 70.7117 637.283 70.931C636.984 71.1457 636.763 71.4233 636.618 71.764C636.473 72.1 636.403 72.4477 636.408 72.807ZM646.291 77.14C645.637 77.14 645.059 76.9977 644.555 76.713C644.055 76.4283 643.663 76.0083 643.379 75.453C643.099 74.8977 642.959 74.2163 642.959 73.409C642.959 72.653 643.087 71.9927 643.344 71.428C643.605 70.8587 643.983 70.4153 644.478 70.098C644.977 69.7807 645.581 69.622 646.291 69.622C646.809 69.622 647.273 69.7223 647.684 69.923C648.099 70.119 648.44 70.399 648.706 70.763C648.972 71.127 649.135 71.5563 649.196 72.051H648.048C648.006 71.799 647.908 71.568 647.754 71.358C647.604 71.148 647.406 70.98 647.159 70.854C646.916 70.728 646.629 70.665 646.298 70.665C645.677 70.665 645.171 70.889 644.779 71.337C644.391 71.785 644.198 72.471 644.198 73.395C644.198 74.2303 644.375 74.9 644.73 75.404C645.089 75.9033 645.616 76.153 646.312 76.153C646.643 76.153 646.932 76.09 647.18 75.964C647.427 75.8333 647.625 75.663 647.775 75.453C647.924 75.2383 648.02 75.0097 648.062 74.767H649.189C649.128 75.2523 648.962 75.6723 648.692 76.027C648.426 76.3817 648.085 76.657 647.67 76.853C647.259 77.0443 646.799 77.14 646.291 77.14ZM653.319 77.035C652.819 77.035 652.432 76.9673 652.157 76.832C651.881 76.6967 651.688 76.496 651.576 76.23C651.468 75.964 651.415 75.6373 651.415 75.25V70.707H650.239V69.762H651.45L651.765 67.655H652.717V69.755H654.348V70.707H652.717V75.208C652.717 75.4647 652.742 75.6537 652.794 75.775C652.85 75.8917 652.941 75.9663 653.067 75.999C653.193 76.0317 653.37 76.048 653.599 76.048H654.39V76.916C654.301 76.9487 654.166 76.9767 653.984 77C653.806 77.0233 653.585 77.035 653.319 77.035ZM658.814 77.14C658.146 77.14 657.563 76.9977 657.064 76.713C656.569 76.4237 656.184 76.0013 655.909 75.446C655.633 74.8907 655.496 74.2117 655.496 73.409C655.496 72.653 655.624 71.9903 655.881 71.421C656.137 70.8517 656.513 70.4107 657.008 70.098C657.502 69.7807 658.107 69.622 658.821 69.622C659.488 69.622 660.067 69.769 660.557 70.063C661.047 70.3523 661.427 70.7793 661.698 71.344C661.973 71.9087 662.111 72.597 662.111 73.409C662.111 74.1463 661.985 74.795 661.733 75.355C661.481 75.915 661.11 76.3537 660.62 76.671C660.134 76.9837 659.532 77.14 658.814 77.14ZM658.821 76.118C659.25 76.118 659.614 76.0083 659.913 75.789C660.211 75.5697 660.438 75.2547 660.592 74.844C660.75 74.4333 660.83 73.9457 660.83 73.381C660.83 72.863 660.76 72.3987 660.62 71.988C660.484 71.5727 660.27 71.2437 659.976 71.001C659.682 70.7583 659.297 70.637 658.821 70.637C658.382 70.637 658.011 70.7467 657.708 70.966C657.404 71.1807 657.173 71.4933 657.015 71.904C656.861 72.3147 656.784 72.807 656.784 73.381C656.784 73.8897 656.851 74.3517 656.987 74.767C657.127 75.1823 657.346 75.5113 657.645 75.754C657.948 75.9967 658.34 76.118 658.821 76.118ZM663.832 77V69.762H665.064V71.155C665.185 70.8097 665.355 70.525 665.575 70.301C665.794 70.0723 666.044 69.902 666.324 69.79C666.608 69.678 666.902 69.622 667.206 69.622C667.313 69.622 667.418 69.629 667.521 69.643C667.623 69.657 667.703 69.6803 667.759 69.713V70.966C667.689 70.9333 667.598 70.9123 667.486 70.903C667.378 70.889 667.287 70.882 667.213 70.882C666.923 70.8633 666.653 70.882 666.401 70.938C666.149 70.9893 665.927 71.0803 665.736 71.211C665.544 71.3417 665.393 71.5143 665.281 71.729C665.173 71.939 665.12 72.1957 665.12 72.499V77H663.832Z" fill="white" style="fill:white;fill-opacity:1;"/>
<path d="M131 63.5C130.724 63.5 130.5 63.7239 130.5 64C130.5 64.2761 130.724 64.5 131 64.5V63.5ZM162.354 34.5C162.63 34.5 162.854 34.2761 162.854 34C162.854 33.7239 162.63 33.5 162.354 33.5V34.5ZM252.354 33.5C252.077 33.5 251.854 33.7239 251.854 34C251.854 34.2761 252.077 34.5 252.354 34.5V33.5ZM287 66.2201C287 66.4962 287.338 66.6915 287.577 66.5534L291.423 64.3333C291.662 64.1953 291.662 63.8047 291.423 63.6667L287.577 61.4466C287.338 61.3085 287 61.5038 287 61.7799V66.2201ZM131 64.5H136V63.5H131V64.5ZM151.5 49V45.3535H150.5V49H151.5ZM264.5 46.6465V49H265.5V46.6465H264.5ZM280 64.5H287.5V63.5H280V64.5ZM252.354 34.5C259.062 34.5 264.5 39.9382 264.5 46.6465H265.5C265.5 39.3859 259.614 33.5 252.354 33.5V34.5ZM151.5 45.3535C151.5 39.3593 156.359 34.5 162.354 34.5V33.5C155.807 33.5 150.5 38.807 150.5 45.3535H151.5ZM264.5 49C264.5 57.5604 271.44 64.5 280 64.5V63.5C271.992 63.5 265.5 57.0081 265.5 49H264.5ZM136 64.5C144.56 64.5 151.5 57.5604 151.5 49H150.5C150.5 57.0081 144.008 63.5 136 63.5V64.5Z" fill="#4D5157" style="fill:#4D5157;fill:color(display-p3 0.3020 0.3176 0.3412);fill-opacity:1;"/>
<path d="M171.723 40H169.859L174.047 28.3636H176.075L180.263 40H178.399L175.109 30.4773H175.019L171.723 40ZM172.036 35.4432H178.081V36.9205H172.036V35.4432ZM190.885 32.1477H189.112C189.044 31.7689 188.917 31.4356 188.732 31.1477C188.546 30.8598 188.319 30.6155 188.05 30.4148C187.781 30.214 187.48 30.0625 187.147 29.9602C186.817 29.858 186.467 29.8068 186.095 29.8068C185.425 29.8068 184.825 29.9754 184.294 30.3125C183.768 30.6496 183.351 31.1439 183.044 31.7955C182.741 32.447 182.59 33.2424 182.59 34.1818C182.59 35.1288 182.741 35.928 183.044 36.5795C183.351 37.2311 183.77 37.7235 184.3 38.0568C184.83 38.3902 185.427 38.5568 186.09 38.5568C186.457 38.5568 186.806 38.5076 187.135 38.4091C187.468 38.3068 187.77 38.1572 188.039 37.9602C188.307 37.7633 188.535 37.5227 188.72 37.2386C188.91 36.9508 189.04 36.6212 189.112 36.25L190.885 36.2557C190.79 36.8277 190.607 37.3542 190.334 37.8352C190.065 38.3125 189.718 38.7254 189.294 39.0739C188.874 39.4186 188.393 39.6856 187.851 39.875C187.309 40.0644 186.718 40.1591 186.078 40.1591C185.071 40.1591 184.173 39.9205 183.385 39.4432C182.597 38.9621 181.976 38.2746 181.522 37.3807C181.071 36.4867 180.845 35.4205 180.845 34.1818C180.845 32.9394 181.073 31.8731 181.527 30.983C181.982 30.089 182.603 29.4034 183.391 28.9261C184.179 28.4451 185.075 28.2045 186.078 28.2045C186.696 28.2045 187.272 28.2936 187.806 28.4716C188.343 28.6458 188.826 28.9034 189.254 29.2443C189.682 29.5814 190.037 29.9943 190.317 30.483C190.597 30.9678 190.787 31.5227 190.885 32.1477ZM192.236 29.875V28.3636H201.242V29.875H197.611V40H195.861V29.875H192.236ZM203.056 40V28.3636H210.351V29.875H204.812V33.4205H209.971V34.9261H204.812V38.4886H210.42V40H203.056ZM216.288 40H212.52V28.3636H216.407C217.547 28.3636 218.526 28.5966 219.344 29.0625C220.163 29.5246 220.789 30.1894 221.225 31.0568C221.664 31.9205 221.884 32.9564 221.884 34.1648C221.884 35.3769 221.663 36.4186 221.219 37.2898C220.78 38.161 220.144 38.8314 219.31 39.3011C218.477 39.767 217.469 40 216.288 40ZM214.276 38.4659H216.191C217.077 38.4659 217.814 38.2992 218.401 37.9659C218.988 37.6288 219.428 37.142 219.719 36.5057C220.011 35.8655 220.157 35.0852 220.157 34.1648C220.157 33.2519 220.011 32.4773 219.719 31.8409C219.431 31.2045 219.002 30.7216 218.43 30.392C217.858 30.0625 217.147 29.8977 216.299 29.8977H214.276V38.4659ZM229.347 40V41.4432H221.955V40H229.347ZM232.19 28.3636V40H230.434V28.3636H232.19ZM243.963 28.3636V40H242.349L236.434 31.4659H236.326V40H234.571V28.3636H236.196L242.116 36.9091H242.224V28.3636H243.963Z" fill="black" fill-opacity="0.8" style="fill:black;fill-opacity:0.8;"/>
<path d="M131 63.5C130.724 63.5 130.5 63.7239 130.5 64C130.5 64.2761 130.724 64.5 131 64.5V63.5ZM164.873 91.5C165.149 91.5 165.373 91.2761 165.373 91C165.373 90.7239 165.149 90.5 164.873 90.5V91.5ZM256.873 90.5C256.597 90.5 256.373 90.7239 256.373 91C256.373 91.2761 256.597 91.5 256.873 91.5V90.5ZM287 66.2201C287 66.4962 287.338 66.6915 287.577 66.5534L291.423 64.3333C291.662 64.1953 291.662 63.8047 291.423 63.6667L287.577 61.4466C287.338 61.3085 287 61.5038 287 61.7799V66.2201ZM149 77.5H149.5H149ZM149 77.5H149.5H149ZM131 64.5H135.5V63.5H131V64.5ZM162.5 91.5H164.873V90.5H162.5V91.5ZM267.5 80.873V77.5H266.5V80.873H267.5ZM280.5 64.5H287.5V63.5H280.5V64.5ZM256.873 91.5C262.742 91.5 267.5 86.7422 267.5 80.873H266.5C266.5 86.1899 262.19 90.5 256.873 90.5V91.5ZM148.5 77.5C148.5 85.232 154.768 91.5 162.5 91.5V90.5C155.32 90.5 149.5 84.6797 149.5 77.5H148.5ZM267.5 77.5C267.5 70.3203 273.32 64.5 280.5 64.5V63.5C272.768 63.5 266.5 69.768 266.5 77.5H267.5ZM135.5 64.5C142.68 64.5 148.5 70.3203 148.5 77.5H149.5C149.5 69.768 143.232 63.5 135.5 63.5V64.5Z" fill="#4D5157" style="fill:#4D5157;fill:color(display-p3 0.3020 0.3176 0.3412);fill-opacity:1;"/>
<path d="M176.941 97H173.174V85.3636H177.06C178.2 85.3636 179.179 85.5966 179.998 86.0625C180.816 86.5246 181.443 87.1894 181.878 88.0568C182.318 88.9205 182.537 89.9564 182.537 91.1648C182.537 92.3769 182.316 93.4186 181.873 94.2898C181.433 95.161 180.797 95.8314 179.963 96.3011C179.13 96.767 178.123 97 176.941 97ZM174.929 95.4659H176.844C177.731 95.4659 178.467 95.2992 179.054 94.9659C179.642 94.6288 180.081 94.142 180.373 93.5057C180.664 92.8655 180.81 92.0852 180.81 91.1648C180.81 90.2519 180.664 89.4773 180.373 88.8409C180.085 88.2045 179.655 87.7216 179.083 87.392C178.511 87.0625 177.801 86.8977 176.952 86.8977H174.929V95.4659ZM186.3 85.3636V97H184.545V85.3636H186.3ZM188.681 97V85.3636H192.829C193.73 85.3636 194.478 85.5189 195.073 85.8295C195.672 86.1402 196.119 86.5701 196.414 87.1193C196.709 87.6648 196.857 88.2955 196.857 89.0114C196.857 89.7235 196.708 90.3504 196.408 90.892C196.113 91.4299 195.666 91.8485 195.067 92.1477C194.473 92.447 193.725 92.5966 192.823 92.5966H189.681V91.0852H192.664C193.232 91.0852 193.694 91.0038 194.05 90.8409C194.41 90.678 194.674 90.4413 194.84 90.1307C195.007 89.8201 195.09 89.447 195.09 89.0114C195.09 88.572 195.005 88.1913 194.834 87.8693C194.668 87.5473 194.405 87.3011 194.045 87.1307C193.689 86.9564 193.221 86.8693 192.641 86.8693H190.437V97H188.681ZM194.425 91.75L197.3 97H195.3L192.482 91.75H194.425ZM198.818 97V85.3636H206.113V86.875H200.573V90.4205H205.732V91.9261H200.573V95.4886H206.181V97H198.818ZM217.947 89.1477H216.174C216.106 88.7689 215.979 88.4356 215.794 88.1477C215.608 87.8598 215.381 87.6155 215.112 87.4148C214.843 87.214 214.542 87.0625 214.208 86.9602C213.879 86.858 213.528 86.8068 213.157 86.8068C212.487 86.8068 211.886 86.9754 211.356 87.3125C210.83 87.6496 210.413 88.1439 210.106 88.7955C209.803 89.447 209.652 90.2424 209.652 91.1818C209.652 92.1288 209.803 92.928 210.106 93.5795C210.413 94.2311 210.831 94.7235 211.362 95.0568C211.892 95.3902 212.489 95.5568 213.152 95.5568C213.519 95.5568 213.867 95.5076 214.197 95.4091C214.53 95.3068 214.831 95.1572 215.1 94.9602C215.369 94.7633 215.597 94.5227 215.782 94.2386C215.972 93.9508 216.102 93.6212 216.174 93.25L217.947 93.2557C217.852 93.8277 217.669 94.3542 217.396 94.8352C217.127 95.3125 216.78 95.7254 216.356 96.0739C215.936 96.4186 215.455 96.6856 214.913 96.875C214.371 97.0644 213.78 97.1591 213.14 97.1591C212.133 97.1591 211.235 96.9205 210.447 96.4432C209.659 95.9621 209.038 95.2746 208.583 94.3807C208.133 93.4867 207.907 92.4205 207.907 91.1818C207.907 89.9394 208.134 88.8731 208.589 87.983C209.044 87.089 209.665 86.4034 210.453 85.9261C211.241 85.4451 212.136 85.2045 213.14 85.2045C213.758 85.2045 214.333 85.2936 214.867 85.4716C215.405 85.6458 215.888 85.9034 216.316 86.2443C216.744 86.5814 217.098 86.9943 217.379 87.483C217.659 87.9678 217.848 88.5227 217.947 89.1477ZM219.298 86.875V85.3636H228.304V86.875H224.673V97H222.923V86.875H219.298ZM230.118 97V85.3636H237.413V86.875H231.873V90.4205H237.032V91.9261H231.873V95.4886H237.481V97H230.118ZM243.349 97H239.582V85.3636H243.469C244.609 85.3636 245.588 85.5966 246.406 86.0625C247.224 86.5246 247.851 87.1894 248.287 88.0568C248.726 88.9205 248.946 89.9564 248.946 91.1648C248.946 92.3769 248.724 93.4186 248.281 94.2898C247.842 95.161 247.205 95.8314 246.372 96.3011C245.539 96.767 244.531 97 243.349 97ZM241.338 95.4659H243.253C244.139 95.4659 244.876 95.2992 245.463 94.9659C246.05 94.6288 246.49 94.142 246.781 93.5057C247.073 92.8655 247.219 92.0852 247.219 91.1648C247.219 90.2519 247.073 89.4773 246.781 88.8409C246.493 88.2045 246.063 87.7216 245.491 87.392C244.919 87.0625 244.209 86.8977 243.361 86.8977H241.338V95.4659Z" fill="black" fill-opacity="0.8" style="fill:black;fill-opacity:0.8;"/>
<path d="M575 64.5C575.276 64.5 575.5 64.2761 575.5 64C575.5 63.7239 575.276 63.5 575 63.5V64.5ZM554.156 90.5C553.88 90.5 553.656 90.7239 553.656 91C553.656 91.2761 553.88 91.5 554.156 91.5V90.5ZM462.156 91.5C462.432 91.5 462.656 91.2761 462.656 91C462.656 90.7239 462.432 90.5 462.156 90.5V91.5ZM431 61.7799C431 61.5038 430.662 61.3085 430.423 61.4466L426.577 63.6667C426.338 63.8047 426.338 64.1953 426.577 64.3333L430.423 66.5534C430.662 66.6915 431 66.4962 431 66.2201V61.7799ZM448 77.5H448.5H448ZM448 77.5H448.5H448ZM565.5 73V79.1563H566.5V73H565.5ZM462.156 90.5H461.5V91.5H462.156V90.5ZM434.5 63.5H430.5V64.5H434.5V63.5ZM461.5 90.5C454.32 90.5 448.5 84.6797 448.5 77.5H447.5C447.5 85.232 453.768 91.5 461.5 91.5V90.5ZM565.5 79.1563C565.5 85.4212 560.421 90.5 554.156 90.5V91.5C560.974 91.5 566.5 85.9735 566.5 79.1563H565.5ZM448.5 77.5C448.5 69.768 442.232 63.5 434.5 63.5V64.5C441.68 64.5 447.5 70.3203 447.5 77.5H448.5ZM575 63.5C569.753 63.5 565.5 67.7533 565.5 73H566.5C566.5 68.3056 570.306 64.5 575 64.5V63.5Z" fill="#4D5157" style="fill:#4D5157;fill:color(display-p3 0.3020 0.3176 0.3412);fill-opacity:1;"/>
<path d="M474.224 97H470.457V85.3636H474.343C475.483 85.3636 476.463 85.5966 477.281 86.0625C478.099 86.5246 478.726 87.1894 479.161 88.0568C479.601 88.9205 479.821 89.9564 479.821 91.1648C479.821 92.3769 479.599 93.4186 479.156 94.2898C478.716 95.161 478.08 95.8314 477.247 96.3011C476.413 96.767 475.406 97 474.224 97ZM472.213 95.4659H474.127C475.014 95.4659 475.75 95.2992 476.338 94.9659C476.925 94.6288 477.364 94.142 477.656 93.5057C477.947 92.8655 478.093 92.0852 478.093 91.1648C478.093 90.2519 477.947 89.4773 477.656 88.8409C477.368 88.2045 476.938 87.7216 476.366 87.392C475.794 87.0625 475.084 86.8977 474.235 86.8977H472.213V95.4659ZM483.583 85.3636V97H481.828V85.3636H483.583ZM485.964 97V85.3636H490.112C491.014 85.3636 491.762 85.5189 492.356 85.8295C492.955 86.1402 493.402 86.5701 493.697 87.1193C493.993 87.6648 494.14 88.2955 494.14 89.0114C494.14 89.7235 493.991 90.3504 493.692 90.892C493.396 91.4299 492.949 91.8485 492.351 92.1477C491.756 92.447 491.008 92.5966 490.106 92.5966H486.964V91.0852H489.947C490.515 91.0852 490.978 91.0038 491.334 90.8409C491.693 90.678 491.957 90.4413 492.123 90.1307C492.29 89.8201 492.373 89.447 492.373 89.0114C492.373 88.572 492.288 88.1913 492.118 87.8693C491.951 87.5473 491.688 87.3011 491.328 87.1307C490.972 86.9564 490.504 86.8693 489.925 86.8693H487.72V97H485.964ZM491.709 91.75L494.584 97H492.584L489.765 91.75H491.709ZM496.101 97V85.3636H503.396V86.875H497.856V90.4205H503.016V91.9261H497.856V95.4886H503.464V97H496.101ZM515.23 89.1477H513.457C513.389 88.7689 513.262 88.4356 513.077 88.1477C512.891 87.8598 512.664 87.6155 512.395 87.4148C512.126 87.214 511.825 87.0625 511.492 86.9602C511.162 86.858 510.812 86.8068 510.44 86.8068C509.77 86.8068 509.17 86.9754 508.639 87.3125C508.113 87.6496 507.696 88.1439 507.389 88.7955C507.086 89.447 506.935 90.2424 506.935 91.1818C506.935 92.1288 507.086 92.928 507.389 93.5795C507.696 94.2311 508.115 94.7235 508.645 95.0568C509.175 95.3902 509.772 95.5568 510.435 95.5568C510.802 95.5568 511.151 95.5076 511.48 95.4091C511.814 95.3068 512.115 95.1572 512.384 94.9602C512.653 94.7633 512.88 94.5227 513.065 94.2386C513.255 93.9508 513.385 93.6212 513.457 93.25L515.23 93.2557C515.135 93.8277 514.952 94.3542 514.679 94.8352C514.41 95.3125 514.064 95.7254 513.639 96.0739C513.219 96.4186 512.738 96.6856 512.196 96.875C511.654 97.0644 511.064 97.1591 510.423 97.1591C509.416 97.1591 508.518 96.9205 507.73 96.4432C506.942 95.9621 506.321 95.2746 505.867 94.3807C505.416 93.4867 505.19 92.4205 505.19 91.1818C505.19 89.9394 505.418 88.8731 505.872 87.983C506.327 87.089 506.948 86.4034 507.736 85.9261C508.524 85.4451 509.42 85.2045 510.423 85.2045C511.041 85.2045 511.617 85.2936 512.151 85.4716C512.689 85.6458 513.171 85.9034 513.6 86.2443C514.028 86.5814 514.382 86.9943 514.662 87.483C514.942 87.9678 515.132 88.5227 515.23 89.1477ZM516.581 86.875V85.3636H525.587V86.875H521.956V97H520.206V86.875H516.581ZM527.401 97V85.3636H534.696V86.875H529.157V90.4205H534.316V91.9261H529.157V95.4886H534.765V97H527.401ZM540.633 97H536.866V85.3636H540.752C541.892 85.3636 542.871 85.5966 543.689 86.0625C544.508 86.5246 545.134 87.1894 545.57 88.0568C546.009 88.9205 546.229 89.9564 546.229 91.1648C546.229 92.3769 546.008 93.4186 545.564 94.2898C545.125 95.161 544.489 95.8314 543.655 96.3011C542.822 96.767 541.814 97 540.633 97ZM538.621 95.4659H540.536C541.422 95.4659 542.159 95.2992 542.746 94.9659C543.333 94.6288 543.773 94.142 544.064 93.5057C544.356 92.8655 544.502 92.0852 544.502 91.1648C544.502 90.2519 544.356 89.4773 544.064 88.8409C543.777 88.2045 543.347 87.7216 542.775 87.392C542.203 87.0625 541.492 86.8977 540.644 86.8977H538.621V95.4659Z" fill="black" fill-opacity="0.8" style="fill:black;fill-opacity:0.8;"/>
<path d="M575 64.5C575.276 64.5 575.5 64.2761 575.5 64C575.5 63.7239 575.276 63.5 575 63.5V64.5ZM550.781 32.5C550.505 32.5 550.281 32.7239 550.281 33C550.281 33.2761 550.505 33.5 550.781 33.5V32.5ZM460.781 33.5C461.057 33.5 461.281 33.2761 461.281 33C461.281 32.7239 461.057 32.5 460.781 32.5V33.5ZM431 61.7799C431 61.5038 430.662 61.3085 430.423 61.4466L426.577 63.6667C426.338 63.8047 426.338 64.1953 426.577 64.3333L430.423 66.5534C430.662 66.6915 431 66.4962 431 66.2201V61.7799ZM566.5 55V48.2187H565.5V55H566.5ZM447.5 45.7812V48.5H448.5V45.7812H447.5ZM432.5 63.5H430.5V64.5H432.5V63.5ZM460.781 32.5C453.446 32.5 447.5 38.4462 447.5 45.7812H448.5C448.5 38.9985 453.999 33.5 460.781 33.5V32.5ZM566.5 48.2187C566.5 39.5375 559.462 32.5 550.781 32.5V33.5C558.91 33.5 565.5 40.0898 565.5 48.2187H566.5ZM447.5 48.5C447.5 56.7843 440.784 63.5 432.5 63.5V64.5C441.337 64.5 448.5 57.3366 448.5 48.5H447.5ZM575 63.5C570.306 63.5 566.5 59.6944 566.5 55H565.5C565.5 60.2467 569.753 64.5 575 64.5V63.5Z" fill="#4D5157" style="fill:#4D5157;fill:color(display-p3 0.3020 0.3176 0.3412);fill-opacity:1;"/>
<path d="M470.151 39H468.287L472.475 27.3636H474.503L478.691 39H476.827L473.537 29.4773H473.446L470.151 39ZM470.463 34.4432H476.509V35.9205H470.463V34.4432ZM489.313 31.1477H487.54C487.472 30.7689 487.345 30.4356 487.159 30.1477C486.974 29.8598 486.747 29.6155 486.478 29.4148C486.209 29.214 485.908 29.0625 485.574 28.9602C485.245 28.858 484.894 28.8068 484.523 28.8068C483.853 28.8068 483.252 28.9754 482.722 29.3125C482.195 29.6496 481.779 30.1439 481.472 30.7955C481.169 31.447 481.017 32.2424 481.017 33.1818C481.017 34.1288 481.169 34.928 481.472 35.5795C481.779 36.2311 482.197 36.7235 482.728 37.0568C483.258 37.3902 483.855 37.5568 484.517 37.5568C484.885 37.5568 485.233 37.5076 485.563 37.4091C485.896 37.3068 486.197 37.1572 486.466 36.9602C486.735 36.7633 486.962 36.5227 487.148 36.2386C487.337 35.9508 487.468 35.6212 487.54 35.25L489.313 35.2557C489.218 35.8277 489.034 36.3542 488.762 36.8352C488.493 37.3125 488.146 37.7254 487.722 38.0739C487.302 38.4186 486.82 38.6856 486.279 38.875C485.737 39.0644 485.146 39.1591 484.506 39.1591C483.498 39.1591 482.601 38.9205 481.813 38.4432C481.025 37.9621 480.404 37.2746 479.949 36.3807C479.498 35.4867 479.273 34.4205 479.273 33.1818C479.273 31.9394 479.5 30.8731 479.955 29.983C480.409 29.089 481.031 28.4034 481.819 27.9261C482.606 27.4451 483.502 27.2045 484.506 27.2045C485.123 27.2045 485.699 27.2936 486.233 27.4716C486.771 27.6458 487.254 27.9034 487.682 28.2443C488.11 28.5814 488.464 28.9943 488.745 29.483C489.025 29.9678 489.214 30.5227 489.313 31.1477ZM490.664 28.875V27.3636H499.67V28.875H496.039V39H494.289V28.875H490.664ZM501.484 39V27.3636H508.779V28.875H503.239V32.4205H508.398V33.9261H503.239V37.4886H508.847V39H501.484ZM514.715 39H510.948V27.3636H514.835C515.975 27.3636 516.954 27.5966 517.772 28.0625C518.59 28.5246 519.217 29.1894 519.653 30.0568C520.092 30.9205 520.312 31.9564 520.312 33.1648C520.312 34.3769 520.09 35.4186 519.647 36.2898C519.208 37.161 518.571 37.8314 517.738 38.3011C516.905 38.767 515.897 39 514.715 39ZM512.704 37.4659H514.619C515.505 37.4659 516.242 37.2992 516.829 36.9659C517.416 36.6288 517.855 36.142 518.147 35.5057C518.439 34.8655 518.585 34.0852 518.585 33.1648C518.585 32.2519 518.439 31.4773 518.147 30.8409C517.859 30.2045 517.429 29.7216 516.857 29.392C516.285 29.0625 515.575 28.8977 514.727 28.8977H512.704V37.4659ZM527.775 39V40.4432H520.383V39H527.775ZM530.618 27.3636V39H528.862V27.3636H530.618ZM542.39 27.3636V39H540.777L534.862 30.4659H534.754V39H532.998V27.3636H534.623L540.544 35.9091H540.652V27.3636H542.39Z" fill="black" fill-opacity="0.8" style="fill:black;fill-opacity:0.8;"/>
<path d="M317.871 157.056C317.297 157.056 316.851 156.981 316.534 156.832C316.221 156.678 316.004 156.461 315.883 156.181C315.762 155.901 315.701 155.567 315.701 155.18V150.966H314.525V149.762H315.75L316.177 147.613H317.402V149.755H319.019V150.966H317.402L317.409 155.117C317.409 155.332 317.432 155.49 317.479 155.593C317.53 155.691 317.61 155.756 317.717 155.789C317.829 155.817 317.976 155.831 318.158 155.831H319.054V156.909C318.956 156.946 318.811 156.979 318.62 157.007C318.433 157.04 318.184 157.056 317.871 157.056ZM320.654 157V149.762H322.285V157H320.654ZM320.626 148.495V146.885H322.313V148.495H320.626ZM327.141 157.056C326.567 157.056 326.121 156.981 325.804 156.832C325.491 156.678 325.274 156.461 325.153 156.181C325.031 155.901 324.971 155.567 324.971 155.18V150.966H323.795V149.762H325.02L325.447 147.613H326.672V149.755H328.289V150.966H326.672L326.679 155.117C326.679 155.332 326.702 155.49 326.749 155.593C326.8 155.691 326.879 155.756 326.987 155.789C327.099 155.817 327.246 155.831 327.428 155.831H328.324V156.909C328.226 156.946 328.081 156.979 327.89 157.007C327.703 157.04 327.453 157.056 327.141 157.056ZM331.982 157.105C331.515 157.105 331.142 157.047 330.862 156.93C330.582 156.813 330.372 156.657 330.232 156.461C330.092 156.265 330.001 156.046 329.959 155.803C329.917 155.556 329.896 155.304 329.896 155.047V146.598H331.562V154.851C331.562 155.164 331.625 155.406 331.751 155.579C331.881 155.752 332.091 155.852 332.381 155.88L332.745 155.894V156.965C332.619 157.002 332.49 157.035 332.36 157.063C332.229 157.091 332.103 157.105 331.982 157.105ZM337.155 157.14C336.46 157.14 335.846 156.993 335.314 156.699C334.787 156.4 334.374 155.976 334.075 155.425C333.781 154.874 333.634 154.219 333.634 153.458C333.634 152.716 333.767 152.058 334.033 151.484C334.304 150.905 334.694 150.45 335.202 150.119C335.716 149.788 336.334 149.622 337.057 149.622C337.771 149.622 338.371 149.774 338.856 150.077C339.342 150.38 339.71 150.805 339.962 151.351C340.214 151.892 340.34 152.527 340.34 153.255V153.773H335.335C335.331 154.184 335.396 154.548 335.531 154.865C335.667 155.182 335.867 155.432 336.133 155.614C336.399 155.791 336.728 155.88 337.12 155.88C337.522 155.88 337.869 155.791 338.163 155.614C338.462 155.432 338.66 155.157 338.758 154.788H340.312C340.228 155.292 340.028 155.719 339.71 156.069C339.398 156.419 339.015 156.685 338.562 156.867C338.114 157.049 337.645 157.14 337.155 157.14ZM335.328 152.716H338.73C338.73 152.366 338.667 152.051 338.541 151.771C338.42 151.486 338.236 151.262 337.988 151.099C337.741 150.931 337.428 150.847 337.05 150.847C336.677 150.847 336.362 150.938 336.105 151.12C335.849 151.302 335.655 151.538 335.524 151.827C335.394 152.112 335.328 152.408 335.328 152.716ZM341.73 151.932V149.986H343.655V151.932H341.73ZM341.73 156.958V155.026H343.655V156.958H341.73ZM352.546 157.14C352.042 157.14 351.559 157.079 351.097 156.958C350.635 156.832 350.212 156.648 349.83 156.405C349.452 156.158 349.139 155.852 348.892 155.488C348.644 155.119 348.493 154.69 348.437 154.2H350.201C350.275 154.541 350.422 154.828 350.642 155.061C350.866 155.294 351.148 155.472 351.489 155.593C351.829 155.714 352.21 155.775 352.63 155.775C353.003 155.775 353.351 155.719 353.673 155.607C353.995 155.495 354.256 155.329 354.457 155.11C354.657 154.886 354.757 154.611 354.757 154.284C354.757 153.915 354.627 153.628 354.366 153.423C354.109 153.213 353.74 153.047 353.26 152.926L351.279 152.457C350.765 152.34 350.317 152.17 349.935 151.946C349.557 151.722 349.263 151.428 349.053 151.064C348.843 150.695 348.738 150.245 348.738 149.713C348.738 149.106 348.903 148.581 349.235 148.138C349.571 147.695 350.026 147.354 350.6 147.116C351.174 146.873 351.82 146.752 352.539 146.752C353.36 146.752 354.053 146.89 354.618 147.165C355.182 147.436 355.612 147.8 355.906 148.257C356.2 148.714 356.349 149.216 356.354 149.762H354.632C354.594 149.356 354.475 149.036 354.275 148.803C354.074 148.565 353.82 148.392 353.512 148.285C353.204 148.178 352.863 148.124 352.49 148.124C351.827 148.124 351.335 148.266 351.013 148.551C350.691 148.836 350.53 149.169 350.53 149.552C350.53 149.911 350.649 150.196 350.887 150.406C351.125 150.616 351.489 150.779 351.979 150.896L353.862 151.337C354.492 151.468 354.998 151.668 355.381 151.939C355.763 152.21 356.041 152.532 356.214 152.905C356.391 153.274 356.48 153.682 356.48 154.13C356.48 154.718 356.312 155.238 355.976 155.691C355.644 156.144 355.185 156.498 354.597 156.755C354.009 157.012 353.325 157.14 352.546 157.14ZM360.551 157V148.411H357.401V146.878H365.297V148.411H362.259V157H360.551ZM366.823 157V146.878H370.932C371.706 146.878 372.343 146.999 372.843 147.242C373.347 147.48 373.72 147.818 373.963 148.257C374.205 148.691 374.327 149.2 374.327 149.783C374.327 150.324 374.238 150.779 374.061 151.148C373.883 151.512 373.652 151.811 373.368 152.044C373.088 152.273 372.787 152.459 372.465 152.604L374.397 157H372.619L370.876 152.891H368.524V157H366.823ZM368.524 151.54H370.547C371.191 151.54 371.692 151.391 372.052 151.092C372.416 150.793 372.598 150.378 372.598 149.846C372.598 149.323 372.43 148.92 372.094 148.635C371.758 148.35 371.314 148.208 370.764 148.208H368.524V151.54ZM376.434 157V146.878H378.135V157H376.434ZM380.59 157V146.878H382.256L387.212 154.109V146.878H388.913V157H387.38L382.291 149.573V157H380.59ZM395.284 157.14C394.378 157.14 393.592 156.932 392.925 156.517C392.257 156.102 391.744 155.509 391.385 154.739C391.025 153.964 390.846 153.04 390.846 151.967C390.846 150.884 391.032 149.951 391.406 149.167C391.779 148.383 392.304 147.783 392.981 147.368C393.662 146.948 394.46 146.738 395.375 146.738C395.935 146.738 396.45 146.831 396.922 147.018C397.398 147.205 397.813 147.457 398.168 147.774C398.527 148.091 398.809 148.453 399.015 148.859C399.22 149.265 399.334 149.687 399.358 150.126H397.559C397.493 149.781 397.36 149.463 397.16 149.174C396.964 148.88 396.709 148.644 396.397 148.467C396.089 148.29 395.736 148.201 395.34 148.201C394.831 148.201 394.376 148.329 393.975 148.586C393.578 148.843 393.265 149.246 393.037 149.797C392.813 150.343 392.701 151.052 392.701 151.925C392.701 152.616 392.771 153.199 392.911 153.675C393.055 154.146 393.251 154.527 393.499 154.816C393.751 155.101 394.04 155.308 394.367 155.439C394.693 155.565 395.039 155.628 395.403 155.628C395.757 155.628 396.07 155.567 396.341 155.446C396.611 155.325 396.84 155.166 397.027 154.97C397.218 154.774 397.365 154.564 397.468 154.34C397.575 154.111 397.638 153.89 397.657 153.675L397.72 152.933H395.459V151.729L399.498 151.743V157H398.294V155.579C398.121 155.836 397.902 156.083 397.636 156.321C397.374 156.559 397.052 156.755 396.67 156.909C396.292 157.063 395.83 157.14 395.284 157.14ZM314.966 183.254V173.762H316.667L316.681 174.903C316.774 174.744 316.893 174.588 317.038 174.434C317.187 174.28 317.358 174.142 317.549 174.021C317.745 173.9 317.962 173.804 318.2 173.734C318.438 173.659 318.699 173.622 318.984 173.622C319.539 173.622 320.032 173.755 320.461 174.021C320.89 174.282 321.226 174.686 321.469 175.232C321.716 175.778 321.84 176.469 321.84 177.304C321.84 178.158 321.714 178.87 321.462 179.439C321.21 180.008 320.858 180.435 320.405 180.72C319.952 181 319.427 181.14 318.83 181.14C318.555 181.14 318.303 181.103 318.074 181.028C317.85 180.953 317.649 180.851 317.472 180.72C317.295 180.589 317.138 180.447 317.003 180.293C316.872 180.139 316.763 179.978 316.674 179.81V183.254H314.966ZM318.452 179.866C318.965 179.866 319.39 179.663 319.726 179.257C320.062 178.846 320.23 178.205 320.23 177.332C320.23 176.576 320.071 175.981 319.754 175.547C319.441 175.108 319.007 174.889 318.452 174.889C317.855 174.889 317.407 175.12 317.108 175.582C316.809 176.039 316.66 176.623 316.66 177.332C316.66 177.789 316.725 178.212 316.856 178.599C316.991 178.982 317.19 179.29 317.451 179.523C317.717 179.752 318.051 179.866 318.452 179.866ZM325.474 181.105C325.007 181.105 324.634 181.047 324.354 180.93C324.074 180.813 323.864 180.657 323.724 180.461C323.584 180.265 323.493 180.046 323.451 179.803C323.409 179.556 323.388 179.304 323.388 179.047V170.598H325.054V178.851C325.054 179.164 325.117 179.406 325.243 179.579C325.374 179.752 325.584 179.852 325.873 179.88L326.237 179.894V180.965C326.111 181.002 325.983 181.035 325.852 181.063C325.721 181.091 325.595 181.105 325.474 181.105ZM330.486 181.14C329.796 181.14 329.194 180.993 328.68 180.699C328.167 180.4 327.768 179.973 327.483 179.418C327.203 178.863 327.063 178.195 327.063 177.416C327.063 176.66 327.201 175.997 327.476 175.428C327.752 174.859 328.144 174.415 328.652 174.098C329.166 173.781 329.779 173.622 330.493 173.622C331.184 173.622 331.784 173.774 332.292 174.077C332.801 174.38 333.193 174.814 333.468 175.379C333.748 175.944 333.888 176.623 333.888 177.416C333.888 178.149 333.755 178.795 333.489 179.355C333.228 179.91 332.843 180.347 332.334 180.664C331.83 180.981 331.214 181.14 330.486 181.14ZM330.493 179.845C330.885 179.845 331.207 179.738 331.459 179.523C331.716 179.308 331.907 179.014 332.033 178.641C332.159 178.268 332.222 177.843 332.222 177.367C332.222 176.924 332.166 176.515 332.054 176.142C331.942 175.769 331.758 175.47 331.501 175.246C331.249 175.017 330.913 174.903 330.493 174.903C330.097 174.903 329.768 175.008 329.506 175.218C329.25 175.423 329.058 175.713 328.932 176.086C328.806 176.455 328.743 176.882 328.743 177.367C328.743 177.806 328.799 178.214 328.911 178.592C329.023 178.965 329.208 179.269 329.464 179.502C329.721 179.731 330.064 179.845 330.493 179.845ZM338.078 181.056C337.504 181.056 337.058 180.981 336.741 180.832C336.428 180.678 336.211 180.461 336.09 180.181C335.969 179.901 335.908 179.567 335.908 179.18V174.966H334.732V173.762H335.957L336.384 171.613H337.609V173.755H339.226V174.966H337.609L337.616 179.117C337.616 179.332 337.639 179.49 337.686 179.593C337.737 179.691 337.817 179.756 337.924 179.789C338.036 179.817 338.183 179.831 338.365 179.831H339.261V180.909C339.163 180.946 339.018 180.979 338.827 181.007C338.64 181.04 338.391 181.056 338.078 181.056ZM340.595 175.932V173.986H342.52V175.932H340.595ZM340.595 180.958V179.026H342.52V180.958H340.595ZM351.411 181.14C350.907 181.14 350.424 181.079 349.962 180.958C349.5 180.832 349.077 180.648 348.695 180.405C348.317 180.158 348.004 179.852 347.757 179.488C347.509 179.119 347.358 178.69 347.302 178.2H349.066C349.14 178.541 349.287 178.828 349.507 179.061C349.731 179.294 350.013 179.472 350.354 179.593C350.694 179.714 351.075 179.775 351.495 179.775C351.868 179.775 352.216 179.719 352.538 179.607C352.86 179.495 353.121 179.329 353.322 179.11C353.522 178.886 353.623 178.611 353.623 178.284C353.623 177.915 353.492 177.628 353.231 177.423C352.974 177.213 352.605 177.047 352.125 176.926L350.144 176.457C349.63 176.34 349.182 176.17 348.8 175.946C348.422 175.722 348.128 175.428 347.918 175.064C347.708 174.695 347.603 174.245 347.603 173.713C347.603 173.106 347.768 172.581 348.1 172.138C348.436 171.695 348.891 171.354 349.465 171.116C350.039 170.873 350.685 170.752 351.404 170.752C352.225 170.752 352.918 170.89 353.483 171.165C354.047 171.436 354.477 171.8 354.771 172.257C355.065 172.714 355.214 173.216 355.219 173.762H353.497C353.459 173.356 353.34 173.036 353.14 172.803C352.939 172.565 352.685 172.392 352.377 172.285C352.069 172.178 351.728 172.124 351.355 172.124C350.692 172.124 350.2 172.266 349.878 172.551C349.556 172.836 349.395 173.169 349.395 173.552C349.395 173.911 349.514 174.196 349.752 174.406C349.99 174.616 350.354 174.779 350.844 174.896L352.727 175.337C353.357 175.468 353.863 175.668 354.246 175.939C354.628 176.21 354.906 176.532 355.079 176.905C355.256 177.274 355.345 177.682 355.345 178.13C355.345 178.718 355.177 179.238 354.841 179.691C354.509 180.144 354.05 180.498 353.462 180.755C352.874 181.012 352.19 181.14 351.411 181.14ZM359.417 181V172.411H356.267V170.878H364.163V172.411H361.125V181H359.417ZM365.688 181V170.878H369.797C370.572 170.878 371.209 170.999 371.708 171.242C372.212 171.48 372.585 171.818 372.828 172.257C373.071 172.691 373.192 173.2 373.192 173.783C373.192 174.324 373.103 174.779 372.926 175.148C372.749 175.512 372.518 175.811 372.233 176.044C371.953 176.273 371.652 176.459 371.33 176.604L373.262 181H371.484L369.741 176.891H367.389V181H365.688ZM367.389 175.54H369.412C370.056 175.54 370.558 175.391 370.917 175.092C371.281 174.793 371.463 174.378 371.463 173.846C371.463 173.323 371.295 172.92 370.959 172.635C370.623 172.35 370.18 172.208 369.629 172.208H367.389V175.54ZM375.299 181V170.878H377V181H375.299ZM379.455 181V170.878H381.121L386.077 178.109V170.878H387.778V181H386.245L381.156 173.573V181H379.455ZM394.149 181.14C393.244 181.14 392.457 180.932 391.79 180.517C391.123 180.102 390.609 179.509 390.25 178.739C389.891 177.964 389.711 177.04 389.711 175.967C389.711 174.884 389.898 173.951 390.271 173.167C390.644 172.383 391.169 171.783 391.846 171.368C392.527 170.948 393.325 170.738 394.24 170.738C394.8 170.738 395.316 170.831 395.787 171.018C396.263 171.205 396.678 171.457 397.033 171.774C397.392 172.091 397.675 172.453 397.88 172.859C398.085 173.265 398.2 173.687 398.223 174.126H396.424C396.359 173.781 396.226 173.463 396.025 173.174C395.829 172.88 395.575 172.644 395.262 172.467C394.954 172.29 394.602 172.201 394.205 172.201C393.696 172.201 393.241 172.329 392.84 172.586C392.443 172.843 392.131 173.246 391.902 173.797C391.678 174.343 391.566 175.052 391.566 175.925C391.566 176.616 391.636 177.199 391.776 177.675C391.921 178.146 392.117 178.527 392.364 178.816C392.616 179.101 392.905 179.308 393.232 179.439C393.559 179.565 393.904 179.628 394.268 179.628C394.623 179.628 394.935 179.567 395.206 179.446C395.477 179.325 395.705 179.166 395.892 178.97C396.083 178.774 396.23 178.564 396.333 178.34C396.44 178.111 396.503 177.89 396.522 177.675L396.585 176.933H394.324V175.729L398.363 175.743V181H397.159V179.579C396.986 179.836 396.767 180.083 396.501 180.321C396.24 180.559 395.918 180.755 395.535 180.909C395.157 181.063 394.695 181.14 394.149 181.14ZM318.165 205.14C317.47 205.14 316.856 204.993 316.324 204.699C315.797 204.4 315.384 203.976 315.085 203.425C314.791 202.874 314.644 202.219 314.644 201.458C314.644 200.716 314.777 200.058 315.043 199.484C315.314 198.905 315.703 198.45 316.212 198.119C316.725 197.788 317.344 197.622 318.067 197.622C318.781 197.622 319.381 197.774 319.866 198.077C320.351 198.38 320.72 198.805 320.972 199.351C321.224 199.892 321.35 200.527 321.35 201.255V201.773H316.345C316.34 202.184 316.406 202.548 316.541 202.865C316.676 203.182 316.877 203.432 317.143 203.614C317.409 203.791 317.738 203.88 318.13 203.88C318.531 203.88 318.879 203.791 319.173 203.614C319.472 203.432 319.67 203.157 319.768 202.788H321.322C321.238 203.292 321.037 203.719 320.72 204.069C320.407 204.419 320.025 204.685 319.572 204.867C319.124 205.049 318.655 205.14 318.165 205.14ZM316.338 200.716H319.74C319.74 200.366 319.677 200.051 319.551 199.771C319.43 199.486 319.245 199.262 318.998 199.099C318.751 198.931 318.438 198.847 318.06 198.847C317.687 198.847 317.372 198.938 317.115 199.12C316.858 199.302 316.665 199.538 316.534 199.827C316.403 200.112 316.338 200.408 316.338 200.716ZM322.978 205V197.762H324.637V198.798C324.847 198.481 325.131 198.205 325.491 197.972C325.855 197.739 326.317 197.622 326.877 197.622C327.133 197.622 327.392 197.666 327.654 197.755C327.92 197.844 328.165 197.974 328.389 198.147C328.617 198.32 328.799 198.534 328.935 198.791C329.163 198.45 329.467 198.17 329.845 197.951C330.227 197.732 330.657 197.622 331.133 197.622C331.394 197.622 331.662 197.664 331.938 197.748C332.218 197.832 332.474 197.972 332.708 198.168C332.941 198.364 333.13 198.632 333.275 198.973C333.419 199.309 333.492 199.731 333.492 200.24V205H331.791V200.443C331.791 200.084 331.728 199.801 331.602 199.596C331.476 199.391 331.312 199.246 331.112 199.162C330.916 199.073 330.706 199.029 330.482 199.029C330.281 199.029 330.071 199.069 329.852 199.148C329.637 199.227 329.453 199.358 329.299 199.54C329.149 199.722 329.075 199.967 329.075 200.275V205H327.374V200.17C327.374 199.918 327.308 199.708 327.178 199.54C327.047 199.372 326.881 199.246 326.681 199.162C326.485 199.073 326.284 199.029 326.079 199.029C325.869 199.029 325.654 199.073 325.435 199.162C325.22 199.251 325.04 199.386 324.896 199.568C324.751 199.75 324.679 199.986 324.679 200.275V205H322.978ZM339.145 205.14C338.758 205.14 338.427 205.089 338.151 204.986C337.876 204.883 337.645 204.75 337.458 204.587C337.276 204.424 337.129 204.249 337.017 204.062C336.91 203.871 336.828 203.689 336.772 203.516L336.576 205H335.323V194.598H337.031V198.819C337.106 198.679 337.209 198.539 337.339 198.399C337.475 198.259 337.638 198.131 337.829 198.014C338.021 197.897 338.238 197.804 338.48 197.734C338.728 197.659 339.001 197.622 339.299 197.622C340.2 197.622 340.912 197.942 341.434 198.581C341.957 199.22 342.218 200.142 342.218 201.346C342.218 202.107 342.102 202.772 341.868 203.341C341.64 203.91 341.297 204.354 340.839 204.671C340.387 204.984 339.822 205.14 339.145 205.14ZM338.795 203.887C339.304 203.887 339.722 203.684 340.048 203.278C340.375 202.872 340.538 202.214 340.538 201.304C340.538 200.511 340.384 199.911 340.076 199.505C339.768 199.094 339.334 198.889 338.774 198.889C338.373 198.889 338.044 198.98 337.787 199.162C337.535 199.344 337.346 199.615 337.22 199.974C337.099 200.333 337.036 200.777 337.031 201.304C337.031 202.228 337.171 202.891 337.451 203.292C337.736 203.689 338.184 203.887 338.795 203.887ZM346.958 205.14C346.263 205.14 345.649 204.993 345.117 204.699C344.59 204.4 344.177 203.976 343.878 203.425C343.584 202.874 343.437 202.219 343.437 201.458C343.437 200.716 343.57 200.058 343.836 199.484C344.107 198.905 344.496 198.45 345.005 198.119C345.518 197.788 346.137 197.622 346.86 197.622C347.574 197.622 348.174 197.774 348.659 198.077C349.144 198.38 349.513 198.805 349.765 199.351C350.017 199.892 350.143 200.527 350.143 201.255V201.773H345.138C345.133 202.184 345.199 202.548 345.334 202.865C345.469 203.182 345.67 203.432 345.936 203.614C346.202 203.791 346.531 203.88 346.923 203.88C347.324 203.88 347.672 203.791 347.966 203.614C348.265 203.432 348.463 203.157 348.561 202.788H350.115C350.031 203.292 349.83 203.719 349.513 204.069C349.2 204.419 348.818 204.685 348.365 204.867C347.917 205.049 347.448 205.14 346.958 205.14ZM345.131 200.716H348.533C348.533 200.366 348.47 200.051 348.344 199.771C348.223 199.486 348.038 199.262 347.791 199.099C347.544 198.931 347.231 198.847 346.853 198.847C346.48 198.847 346.165 198.938 345.908 199.12C345.651 199.302 345.458 199.538 345.327 199.827C345.196 200.112 345.131 200.408 345.131 200.716ZM354.459 205.14C353.502 205.14 352.751 204.811 352.205 204.153C351.659 203.495 351.386 202.559 351.386 201.346C351.386 200.59 351.495 199.934 351.715 199.379C351.939 198.819 352.268 198.387 352.702 198.084C353.136 197.776 353.67 197.622 354.305 197.622C354.603 197.622 354.874 197.659 355.117 197.734C355.364 197.804 355.583 197.897 355.775 198.014C355.966 198.131 356.127 198.259 356.258 198.399C356.393 198.539 356.498 198.679 356.573 198.819V194.598H358.288V205H357.028L356.839 203.516C356.778 203.689 356.692 203.871 356.58 204.062C356.472 204.249 356.325 204.424 356.139 204.587C355.957 204.75 355.728 204.883 355.453 204.986C355.177 205.089 354.846 205.14 354.459 205.14ZM354.809 203.887C355.42 203.887 355.866 203.689 356.146 203.292C356.43 202.891 356.573 202.228 356.573 201.304C356.568 200.777 356.503 200.333 356.377 199.974C356.255 199.615 356.069 199.344 355.817 199.162C355.565 198.98 355.236 198.889 354.83 198.889C354.316 198.889 353.894 199.078 353.563 199.456C353.236 199.834 353.073 200.45 353.073 201.304C353.073 202.153 353.224 202.797 353.528 203.236C353.831 203.67 354.258 203.887 354.809 203.887ZM362.894 205.14C361.938 205.14 361.186 204.811 360.64 204.153C360.094 203.495 359.821 202.559 359.821 201.346C359.821 200.59 359.931 199.934 360.15 199.379C360.374 198.819 360.703 198.387 361.137 198.084C361.571 197.776 362.106 197.622 362.74 197.622C363.039 197.622 363.31 197.659 363.552 197.734C363.8 197.804 364.019 197.897 364.21 198.014C364.402 198.131 364.563 198.259 364.693 198.399C364.829 198.539 364.934 198.679 365.008 198.819V194.598H366.723V205H365.463L365.274 203.516C365.214 203.689 365.127 203.871 365.015 204.062C364.908 204.249 364.761 204.424 364.574 204.587C364.392 204.75 364.164 204.883 363.888 204.986C363.613 205.089 363.282 205.14 362.894 205.14ZM363.244 203.887C363.856 203.887 364.301 203.689 364.581 203.292C364.866 202.891 365.008 202.228 365.008 201.304C365.004 200.777 364.938 200.333 364.812 199.974C364.691 199.615 364.504 199.344 364.252 199.162C364 198.98 363.671 198.889 363.265 198.889C362.752 198.889 362.33 199.078 361.998 199.456C361.672 199.834 361.508 200.45 361.508 201.304C361.508 202.153 361.66 202.797 361.963 203.236C362.267 203.67 362.694 203.887 363.244 203.887ZM368.738 205V197.762H370.369V205H368.738ZM368.71 196.495V194.885H370.397V196.495H368.71ZM372.388 205V197.762H374.054V198.798C374.166 198.611 374.318 198.432 374.509 198.259C374.705 198.086 374.945 197.946 375.23 197.839C375.515 197.732 375.848 197.678 376.231 197.678C376.679 197.678 377.094 197.767 377.477 197.944C377.864 198.121 378.175 198.399 378.408 198.777C378.646 199.155 378.765 199.643 378.765 200.24V205H377.057V200.443C377.057 199.967 376.926 199.615 376.665 199.386C376.404 199.153 376.075 199.036 375.678 199.036C375.407 199.036 375.151 199.083 374.908 199.176C374.665 199.265 374.467 199.402 374.313 199.589C374.164 199.771 374.089 200 374.089 200.275V205H372.388ZM383.811 207.394C382.593 207.394 381.657 207.231 381.004 206.904C380.351 206.577 380.024 206.129 380.024 205.56C380.024 205.303 380.087 205.089 380.213 204.916C380.339 204.743 380.488 204.601 380.661 204.489C380.834 204.377 380.992 204.291 381.137 204.23C381.282 204.169 381.375 204.125 381.417 204.097C381.338 204.05 381.233 203.99 381.102 203.915C380.971 203.84 380.852 203.738 380.745 203.607C380.642 203.476 380.591 203.306 380.591 203.096C380.591 202.853 380.705 202.629 380.934 202.424C381.167 202.219 381.515 202.072 381.977 201.983C381.524 201.764 381.177 201.467 380.934 201.094C380.691 200.721 380.57 200.333 380.57 199.932C380.57 199.456 380.708 199.048 380.983 198.707C381.263 198.366 381.65 198.105 382.145 197.923C382.64 197.741 383.216 197.65 383.874 197.65C384.355 197.65 384.754 197.704 385.071 197.811C385.393 197.918 385.692 198.063 385.967 198.245C386.06 198.208 386.191 198.156 386.359 198.091C386.527 198.021 386.711 197.946 386.912 197.867C387.113 197.783 387.306 197.704 387.493 197.629C387.68 197.55 387.836 197.484 387.962 197.433L387.955 198.84L386.702 199.064C386.763 199.199 386.809 199.346 386.842 199.505C386.879 199.664 386.898 199.804 386.898 199.925C386.898 200.345 386.779 200.735 386.541 201.094C386.308 201.449 385.955 201.733 385.484 201.948C385.017 202.163 384.434 202.27 383.734 202.27C383.664 202.27 383.568 202.268 383.447 202.263C383.326 202.258 383.228 202.254 383.153 202.249C382.775 202.263 382.516 202.307 382.376 202.382C382.236 202.457 382.166 202.538 382.166 202.627C382.166 202.753 382.271 202.837 382.481 202.879C382.691 202.921 383.027 202.958 383.489 202.991C383.652 203 383.867 203.012 384.133 203.026C384.399 203.04 384.695 203.059 385.022 203.082C385.848 203.133 386.473 203.341 386.898 203.705C387.323 204.064 387.535 204.531 387.535 205.105C387.535 205.772 387.227 206.321 386.611 206.75C385.995 207.179 385.062 207.394 383.811 207.394ZM384.098 206.393C384.709 206.393 385.162 206.309 385.456 206.141C385.75 205.973 385.897 205.726 385.897 205.399C385.897 205.147 385.797 204.942 385.596 204.783C385.395 204.624 385.097 204.531 384.7 204.503L382.873 204.391C382.672 204.377 382.481 204.414 382.299 204.503C382.122 204.587 381.977 204.706 381.865 204.86C381.753 205.009 381.697 205.175 381.697 205.357C381.697 205.698 381.891 205.954 382.278 206.127C382.67 206.304 383.277 206.393 384.098 206.393ZM383.79 201.269C384.233 201.269 384.593 201.157 384.868 200.933C385.143 200.704 385.281 200.382 385.281 199.967C385.281 199.538 385.143 199.204 384.868 198.966C384.593 198.723 384.233 198.602 383.79 198.602C383.337 198.602 382.971 198.723 382.691 198.966C382.416 199.209 382.278 199.542 382.278 199.967C382.278 200.368 382.411 200.686 382.677 200.919C382.943 201.152 383.314 201.269 383.79 201.269ZM389.117 199.932V197.986H391.042V199.932H389.117ZM389.117 204.958V203.026H391.042V204.958H389.117ZM396.299 205L396.306 194.878H398.028V203.53H402.599V205H396.299ZM404.379 205V194.878H406.08V205H404.379ZM412.169 205.14C411.665 205.14 411.182 205.079 410.72 204.958C410.258 204.832 409.835 204.648 409.453 204.405C409.075 204.158 408.762 203.852 408.515 203.488C408.267 203.119 408.116 202.69 408.06 202.2H409.824C409.898 202.541 410.045 202.828 410.265 203.061C410.489 203.294 410.771 203.472 411.112 203.593C411.452 203.714 411.833 203.775 412.253 203.775C412.626 203.775 412.974 203.719 413.296 203.607C413.618 203.495 413.879 203.329 414.08 203.11C414.28 202.886 414.381 202.611 414.381 202.284C414.381 201.915 414.25 201.628 413.989 201.423C413.732 201.213 413.363 201.047 412.883 200.926L410.902 200.457C410.388 200.34 409.94 200.17 409.558 199.946C409.18 199.722 408.886 199.428 408.676 199.064C408.466 198.695 408.361 198.245 408.361 197.713C408.361 197.106 408.526 196.581 408.858 196.138C409.194 195.695 409.649 195.354 410.223 195.116C410.797 194.873 411.443 194.752 412.162 194.752C412.983 194.752 413.676 194.89 414.241 195.165C414.805 195.436 415.235 195.8 415.529 196.257C415.823 196.714 415.972 197.216 415.977 197.762H414.255C414.217 197.356 414.098 197.036 413.898 196.803C413.697 196.565 413.443 196.392 413.135 196.285C412.827 196.178 412.486 196.124 412.113 196.124C411.45 196.124 410.958 196.266 410.636 196.551C410.314 196.836 410.153 197.169 410.153 197.552C410.153 197.911 410.272 198.196 410.51 198.406C410.748 198.616 411.112 198.779 411.602 198.896L413.485 199.337C414.115 199.468 414.621 199.668 415.004 199.939C415.386 200.21 415.664 200.532 415.837 200.905C416.014 201.274 416.103 201.682 416.103 202.13C416.103 202.718 415.935 203.238 415.599 203.691C415.267 204.144 414.808 204.498 414.22 204.755C413.632 205.012 412.948 205.14 412.169 205.14ZM420.174 205V196.411H417.024V194.878H424.92V196.411H421.882V205H420.174ZM432.256 203.32L426.054 200.912V199.449L432.263 197.013V198.525L427.986 200.191L432.256 201.822V203.32ZM434.334 205V194.878H440.956L440.949 196.32H436.063V199.232H440.375V200.653H436.063V205H434.334ZM442.797 205L442.804 194.878H444.526V203.53H449.097V205H442.797ZM454.636 205.14C453.703 205.14 452.895 204.935 452.214 204.524C451.537 204.113 451.012 203.521 450.639 202.746C450.27 201.971 450.086 201.043 450.086 199.96C450.086 198.868 450.273 197.932 450.646 197.153C451.019 196.374 451.547 195.776 452.228 195.361C452.914 194.946 453.717 194.738 454.636 194.738C455.555 194.738 456.351 194.946 457.023 195.361C457.7 195.776 458.222 196.374 458.591 197.153C458.96 197.932 459.144 198.868 459.144 199.96C459.144 201.043 458.962 201.971 458.598 202.746C458.234 203.516 457.714 204.109 457.037 204.524C456.36 204.935 455.56 205.14 454.636 205.14ZM454.636 203.712C455.187 203.712 455.66 203.584 456.057 203.327C456.454 203.066 456.757 202.662 456.967 202.116C457.182 201.565 457.289 200.854 457.289 199.981C457.289 199.094 457.182 198.371 456.967 197.811C456.752 197.246 456.447 196.831 456.05 196.565C455.653 196.299 455.182 196.166 454.636 196.166C454.085 196.166 453.609 196.301 453.208 196.572C452.811 196.838 452.503 197.253 452.284 197.818C452.065 198.378 451.955 199.099 451.955 199.981C451.955 200.854 452.065 201.565 452.284 202.116C452.503 202.662 452.811 203.066 453.208 203.327C453.609 203.584 454.085 203.712 454.636 203.712ZM459.835 205L463.468 194.878H465.316L468.949 205H467.241L466.338 202.459H462.46L461.55 205H459.835ZM462.866 200.947H465.911L464.392 196.53L462.866 200.947ZM471.649 205V196.411H468.499V194.878H476.395V196.411H473.357V205H471.649ZM477.535 203.32V201.822L481.819 200.191L477.528 198.525V197.013L483.744 199.449V200.912L477.535 203.32Z" fill="black" style="fill:black;fill-opacity:1;"/>
</svg>
